<?xml version="1.0" encoding="utf-8"?>
<!-- Generator: Adobe Illustrator 16.0.0, SVG Export Plug-In . SVG Version: 6.00 Build 0)  -->
<!DOCTYPE svg PUBLIC "-//W3C//DTD SVG 1.1//EN" "http://www.w3.org/Graphics/SVG/1.1/DTD/svg11.dtd">
<svg version="1.1" id="Layer_1" xmlns="http://www.w3.org/2000/svg" xmlns:xlink="http://www.w3.org/1999/xlink" x="0px" y="0px"
	 width="2187.727px" height="533.933px" viewBox="0 0 2187.727 533.933" enable-background="new 0 0 2187.727 533.933"
	 xml:space="preserve">
<path d="M1437.82,181.977c9.351-0.048,32.104-3.73,36.995-7.999c0.333,0,0.667,0,1,0c0-0.667,0-1.333,0-2
	c-4.979,0.521-13.189,3.46-16.998,1c-2.319-0.743-2.233-1.038-3.999-2c-3.222-17.473,2.23-38.017,5.999-52.994
	c5.208-20.695,6.177-41.391,10.999-60.992c4.48-18.214,0.817-35.504,15.998-42.995c-0.399-2.054-0.249-1.927-1-3
	c-5.06,4.039-14.71,3.144-19.998,6.999c-6.904,5.083-5.454,20.526-7.999,29.997c-7.976,29.687-10.059,62.955-17.998,92.988
	c-1.562,5.91-6.461,34.196-4,37.995C1437.153,179.978,1437.487,180.978,1437.82,181.977z"/>
<path d="M641.92,109.986c0-0.667,0-1.333,0-2c15.177-0.085,37.961-3.346,50.994,1c-4.559,21.483-10.917,46.241-8.999,68.991
	c1.484,1.382,2.918,3.242,4,5c16.616-0.582,26.671-9.02,41.995-9.999c0-1,0-2,0-3c-6.799,2.573-17.394,4.111-23.997,1
	c-4.853-12.543-1.811-36.062,1-47.994c2.074-8.805,0.793-15.479,3-23.997c7.121-27.488,11.873-49.323,24.997-69.991
	c6.972-1.241,12.491-0.011,17.998-3c0-1.666,0-3.333,0-5c-10.736-2.06-17.182,4.371-23.997,8.999
	c-25.038,17.002-24.42,40.293-34.996,70.991c-14.261,2.782-33.974,1.111-49.994,1c0.889-20.336,8.991-36.644,10.999-55.993
	c1.823-0.842,4.476-1.771,6-3c0.667,0,1.333,0,2,0c0-0.667,0-1.333,0-2c-32.952-0.627-56.398-1.276-71.991,15.998
	c-3.688,4.086-11.195,17.939-4.999,24.997c0,0.667,0,1.333,0,2c3.087-0.048,5.125-0.348,6.999-1
	c-1.035-24.521,2.399-29.194,22.997-34.996c3.348-0.943,11.505-2.5,13.998-1c4.166,0.199,4.582,0.697,6.999,2
	c-1.083,16.345-5.156,32.173-8.999,45.994c-6.766,24.336-8.944,49.353-21.997,66.992c-6.083,8.22-26.023,23.835-39.995,13.999
	c-4.902-3.452-5.262-13.492-5.999-20.998c-0.333-0.333-0.667-0.667-1-1c-8.972-0.099-10.213,1.777-14.998,5
	c-0.112,10.449,1.477,14.153,4.999,19.998c3.744,1.028,7.168,3.073,10.999,4c37.31,9.023,64.01-25.357,72.991-45.994
	C635.92,127.985,638.92,118.984,641.92,109.986z"/>
<path d="M1187.852,206.974c25.535-26.007,28.343-68.445,38.995-109.986c3.35-13.062,1.833-35.861,7.999-45.994
	c0.056-7.596,2.004-6.803,5.999-9.999c0.333-0.333,0.667-0.667,1-1c-8.47-2.866-23.66-1.136-33.996-1
	c-4.92,3.05-11.874,2.339-16.998,5c-8.076,4.192-26.246,25.176-16.998,38.995c0.333,1,0.667,2,1,3c5.569-0.114,5.914-1.053,8.999-3
	c-0.87-4.064-3.012-4.166-4-7c0-4.666,0-9.333,0-13.998c9.888-10.975,8.402-12.605,25.997-16.998c2.315-0.578,6.528-1.637,8.999,0
	c1,0.333,2,0.667,3,1c-2.718,34.04-7.789,70.242-15.998,100.987c-6.276,23.506-8.597,45.971-20.997,62.992
	c-2.676,3.672-7.573,5.031-10.999,7.999c-11.353,0.316-15.643-2.449-18.998-9.999c-1,0-2,0-3,0c-1,2.999-2,6-3,8.999
	c-0.089,3.296-0.238,7.162,1,8.999C1162.194,238.643,1181.904,213.031,1187.852,206.974z"/>
<path d="M960.88,58.993c0.938-3.259,3.578-8.251,1-11.999c0-0.667,0-1.333,0-2c-3.421-0.913-4.386-1.865-8.999-2
	c-1.522,1.354-4.88,2.321-5.999,4C939.243,58.443,951.76,63.914,960.88,58.993z"/>
<path d="M1001.875,57.993c1.161-4.46,3.097-8.181,0-11.999c-1.979-2.52-3.369-2.969-7.999-3c-1.995,1.755-4.816,3.636-6.999,5
	C985.922,63.88,992.461,64.691,1001.875,57.993z"/>
<path d="M1062.867,54.993c0.054-6.315-0.86-7.606-3-10.999c-2.333-0.333-4.666-0.667-6.999-1c-1.632,1.432-4.192,2.919-5.999,4
	c-0.645,1.726-0.196,0.979-1,2c-0.197,8.481,1.186,9.114,5,12.999C1058.56,61.706,1059.062,58.751,1062.867,54.993z"/>
<path d="M1101.862,44.994c-2.6-1.083-4.238-1.808-7.999-2c-3.328,2.857-5.146,4.664-7.999,7.999c0.227,2.318,0.197,2.82,1,4
	c0.782,10.642,10.359,6.352,14.998,3c0.82-3.187,2.409-5.5,1-7.999C1102.663,47.397,1102.42,46.598,1101.862,44.994z"/>
<path d="M959.88,181.977c15.959-0.322,24.035-7.188,36.996-9.999c0-1,0-2,0-3c-3.068,0.629-6.892,1.349-8.999,3
	c-5.036,0.043-7.193-0.487-9.999-2c-0.7-22.364,4.638-43.725,9.999-62.992c2.082-7.483,1.185-16.131,5-21.997
	c-0.325-2.306-0.465-2.484-1-4c-8.727,0.364-7.575,4.212-11.999,5.999c-6.503,2.628-14.344-4.342-22.997-2
	c-24.929,6.749-32.746,27.192-40.995,50.994c-1.976,5.7-9.226,31.873-4,39.995c0.362,3.749,0.775,3.718,2,5.999
	c20.243-0.36,28.909-9.781,44.994-11.999C958.821,174.304,958.88,179.084,959.88,181.977z M956.88,166.979
	c-4.666,1.333-9.333,2.667-13.999,4c-7.294,0.375-11.283,0.41-12.998-5c-3.636-5.867-0.297-20.844,1-25.997
	c3.851-15.295,5.309-29.631,12.998-40.995c2.558-3.781,7.729-5.844,10.999-8.999c8.847,0.225,14.268,2.838,19.998,5.999
	c-0.915,10.598-4.467,19.985-6.999,28.997C963.83,139.396,963.572,155.508,956.88,166.979z"/>
<path d="M1077.865,169.979c-1.265-21.038,4.016-41.064,8.999-58.993c2.374-8.542,1.474-19.398,5.999-25.997
	c-0.325-2.306-0.464-2.484-1-4c-4.779,0.198-7.886,0.958-10.999,3c-0.333,1-0.667,2-1,3c-3.48,1.881-15.883-3.889-22.997-2
	c-25.471,6.763-32.257,27.085-40.995,50.994c-2.516,6.884-9.64,35.438-3,43.995c0.333,0.667,0.667,1.333,1,2
	c20.18-0.362,28.838-9.783,44.995-11.999c-0.059,4.325,0,9.105,1,11.999c15.96-0.322,24.035-7.188,36.996-9.999c0-1,0-2,0-3
	c-3.105,0.638-7.702,1.356-9.999,3C1082.086,171.972,1080.535,171.42,1077.865,169.979z M1065.867,132.983
	c-2.392,8.526-1.495,19.326-6,25.997c-0.482,11.408-9.812,7.664-16.998,11.999c-7.294,0.375-11.284,0.41-12.999-5
	c-4.109-6.188-0.713-19.256,1-25.997c4.467-17.577,6.07-33.282,15.998-44.995c1.853-2.186,5.907-3,7.999-4.999
	c9.118,0.256,13.861,3.108,19.998,5.999C1073.737,108.791,1069.052,121.629,1065.867,132.983z"/>
<path d="M1670.791,168.979c-3.487,0.429-7.626,1.267-9.999,3c-4.778-0.006-6.329-0.559-8.999-2
	c-5.736-32.27,13.877-58.565,13.998-88.989c-9.881,0.381-8.545,4.255-12.999,5.999c-3.477,1.362-6.312-1.563-7.999-2
	c-6.462-1.671-15.788,0.246-19.998,2c-29.616,12.336-40.622,48.249-39.995,90.989c1.188,1.133,2.146,2.54,3,4
	c20.237-0.368,28.745-9.986,44.994-11.999c-0.491,3.278-1.782,6.325,0,8.999c0.333,1,0.667,2,1,3
	c16.029-0.414,23.724-8.177,36.995-9.999C1670.791,170.979,1670.791,169.979,1670.791,168.979z M1632.796,162.979
	c-1.757,4.642-19.19,11.829-25.997,6.999c-1-0.333-2-0.667-3-1c-4.46-21.448,3.575-54.6,12.999-68.991c2.999-3,6-6,8.999-8.999
	c2.054-0.399,1.927-0.249,3-1c8.607,0.408,14.042,3.207,19.998,5.999C1643.462,118.316,1638.128,140.651,1632.796,162.979z"/>
<path d="M721.91,91.988c4.208,0.749,12.228,0.584,14.998,3c7.609,2.654,8.378,12.18,10.999,19.998
	c5.783,17.251,13.182,43.757,13.998,63.992c1.523,0.548,1.671,0.706,4,1c-2.7,7.897-8.757,13.625-12.999,19.998
	c-5.78,8.684-10.212,17.317-15.998,25.997c-2.539,3.808-10.752,12.597-5.999,19.998c1.158,2.825,0.127,1.88,3,3
	c2.308,1.095,10.401-2.767,12.998-5c1.099-1.154-3.932-12.489-2-18.998c1.677-5.648,5.816-12,8.999-16.998
	c17.925-28.148,40.831-54.252,55.993-84.99c3.741-7.584,7.239-29.064,1-36.995c-1.845-2.349-2.833-2.794-6.999-3
	c-2.243,2.188-6.36,4.417-8.999,5.999c0.501,8.375,5.221,11.769,6.999,18.998c5.321,21.638-17.477,44.993-23.997,57.993
	c-0.667,0.333-1.333,0.667-2,1c-6-14.466-5.763-31.351-9.999-47.994c-2.477-9.731-5.778-21.607-5.999-32.996
	c-0.333-0.333-0.667-0.667-1-1c-12.33,1.667-24.665,3.333-36.995,5C721.91,90.655,721.91,91.322,721.91,91.988z"/>
<path d="M1254.843,180.977c38.001,5.01,53.912-18.352,61.993-46.994c4.348-15.411,5.847-44.318-7.999-48.994
	c-2.485-1.881-6.485-2.128-10.999-2c-4.942,3.203-12.083,3.031-16.998,5.999c-22.161,13.379-24.18,23.26-30.996,51.994
	c-2.05,8.641-4.329,27.124,1,33.996C1251.921,178.053,1253.287,178.588,1254.843,180.977z M1284.839,92.988
	c2.054-0.398,1.927-0.249,3-1c2.856,0.363,4.318,0.656,5.999,2c7.869,2.744,12.849,18.324,9.999,30.996
	c-3.956,17.59-5.807,41.987-21.997,46.994c-1.968,1.334-6.525,1.131-9.999,1c-1.382-1.484-3.242-2.918-4.999-4
	C1258.398,135.718,1267.502,110.562,1284.839,92.988z"/>
<path d="M889.889,86.989c-1,0.333-2,0.667-3,1c0.764,5.624,3.73,6.562,5,10.999c6.431,22.482-10.623,45.878-17.998,55.993
	c-3.466,4.753-14.752,18.578-22.997,13.998c-1-0.333-2-0.667-3-1c-5.407-27.764,7.935-54.952,7.999-82.99
	c-8.412,0.135-31.05,3.268-35.996,6.999c-0.333,0-0.667,0-1,0c0,0.333,0,0.667,0,1c7.132-0.062,13.197,0.2,17.998,2
	c3.177,16.832-1.5,39.583-5,54.993c-1.756,7.732,0.735,17.973-3,23.997c0.007,3.326,0.287,5.951,1,7.999
	c33.739,0.205,60.772-33.801,70.991-57.993c2.971-7.033,1.944-17.414,6-23.997C907.546,89.026,899.417,78.837,889.889,86.989z"/>
<path d="M1351.831,93.988c-0.274,17.774-3.249,33.352-6.999,47.994c-0.333,3.999-0.667,8-1,11.999
	c-2.113,8.45-4.859,20.251-2,27.997c11.557-0.111,32.806-6.493,38.995-11.999c1.333,0,2.667,0,4,0c-0.68,3.301-1.073,7.418-1,11.999
	c9.905-0.047,29.328-2.677,34.995-6.999c0.333-0.333,0.667-0.667,1-1c-5.423-1.452-12.888-0.104-17.998-3
	c-0.953-20.805,2.996-44.464,8.999-62.992c2.219-6.849,5.713-14.385,5.999-22.997c-6.103,0.242-12.296,2.049-15.998,5
	c-5.242,3.091-3.279,14.342-5,20.997c-3.241,12.536-5.263,43.85-10.999,52.994c-3.091,6.11-14.839,5.907-21.997,7.999
	c-0.929-0.911-1.743-1.35-3-2c-8.456-22.117,9.489-62.948,10.999-84.989c-10.998,1.333-21.999,2.667-32.996,4
	c-0.333,0.333-0.667,0.667-1,1c0,0.667,0,1.333,0,2c2.85,0.515,10.612,0.487,12.998,2
	C1350.498,93.988,1351.165,93.988,1351.831,93.988z"/>
<path d="M1514.811,110.986c2.166-8.068,4.854-17.228,5.999-25.997c-11.331,1.333-22.665,2.667-33.996,4c0,1,0,2,0,3
	c1.726,0.645,0.979,0.196,2,1c5.744-0.107,9.738,0.251,12.999,2c-0.62,22.427-6.612,40.482-8.999,60.993
	c-0.683,5.863-5.055,18.08-2,22.997c0.333,1,0.667,2,1,3c11.402-0.11,32.892-6.57,38.995-11.999c1.333,0,2.667,0,4,0
	c-1.006,2.87-1.105,7.689-1,11.999c9.905-0.047,29.328-2.677,34.996-6.999c0.333-0.333,0.667-0.667,1-1
	c-4.332-1.171-12.278,0.051-16.998-2c-8.686-22.921,12.509-64.55,13.999-86.989c-7.921,0.464-11.426,3.519-17.998,5
	c-3.017,14.121-3.332,28.518-6.999,42.995c-2.564,10.122-5.867,22.31-6.999,32.996c-5.614,1.366-18.474,8.389-23.997,5
	c-3.348-2.055-4.414-13.744-3-19.998C1510.145,137.651,1512.478,124.316,1514.811,110.986z"/>
<path d="M732.908,355.956c5.442-21.294,3.903-39.924,13.998-55.993c1.666-0.333,3.333-0.667,5-1c0-1,0-2,0-3
	c-7.805,1.129-16.459,4.125-22.997,6.999c-3.449,8.404-3.361,18.074-5.999,27.997c-6.746,25.374-9.448,54.346-15.998,79.99
	c-2.954,11.567-1.535,32.084-6.999,40.995c-0.12,6.198,0.08,11.403,2,14.998c13.586-0.566,23.156-5.639,35.996-6.999
	c0.333-0.333,0.667-0.667,1-1c0-1,0-2,0-3c-1.554,0.539-5.659,1.116-6.999,2c-7.179,0.141-10.153-0.587-13.998-3
	c-0.936-16.208,2.26-34.291,5.999-48.994C728.233,388.947,728.862,371.787,732.908,355.956z"/>
<path d="M770.904,457.942c-6.183-2.929-2.941-27.186-1-34.996c6.756-27.18,9.379-57.063,15.998-83.989
	c4.409-17.936,1.003-33.731,15.998-40.995c-1.472-2.489,0.245-1.172-3-2c-5.1,3.821-17.417,2.746-20.997,7.999
	c-4.433,6.504-3.715,23.033-5.999,31.996c-6.966,27.324-9.945,58.453-16.998,85.989c-2.455,9.584-0.277,22.308-4.999,29.996
	c-0.12,6.198,0.08,11.403,2,14.998c13.586-0.566,23.156-5.639,35.995-6.999c0.333-0.333,0.667-0.667,1-1c0-1,0-2,0-3
	c-1.554,0.539-5.659,1.116-6.999,2C778.236,457.942,774.569,457.942,770.904,457.942z"/>
<path d="M1262.842,331.958c2.101-4.953,6.28-8.771,8.999-12.999c9.784-1.977,13.925,1.566,20.998-5
	c-0.935-4.781-2.108-3.619-5-5.999c-9.954,0.74-13.607,7.73-19.998,11.999c-6.343,4.237-16.777,7.798-20.997,13.998
	c-4.882,7.172-2.696,19.331-5,28.997c-3.72,15.612-3.951,32.52-7.999,48.994c-2.217,9.023-4.896,19.467-5,29.997
	c-14.922,7.24-54.23,29.251-67.992,6.999c-2.91-4.706-4.88-17.567-2.999-25.997c4.83-21.644,7.615-45.344,12.998-65.992
	c3.443-13.206,1.731-23.654,12.999-28.996c0-0.667,0-1.333,0-2c-17.141,0.116-30.682,2.359-45.995,4c0,1,0,2,0,3
	c4.099-0.123,10.522-0.644,12.999,1c4.167,0.199,4.582,0.698,7,2c-6.212,30.57-8.837,58.829-15.998,86.989
	c-2.526,9.934-4.027,28.412,1,35.996c10.94,16.507,39.712,5.201,53.993,0c9.15-3.332,20.9-4.341,27.997-9.999
	c3.139,1.968,2.267,9.971,2,14.998c0.333,0.333,0.667,0.667,1,1c17.641-0.224,28.803-5.249,42.994-7c0-1,0-2,0-3
	c-5.358,0.589-16.355,4.754-21.997,1c-1-0.333-2-0.667-3-1c-3.61-18.791,0.742-41.744,5-58.993
	C1256.293,373.873,1254.815,350.887,1262.842,331.958z"/>
<path d="M350.956,322.959c-3.65,2.204-10.452,0.749-14.998,2c-9.809,2.7-21.101,6.758-28.996,11.999
	c-30.659,20.35-60.101,106.729-8.999,127.984c10.303,4.285,27.587,3.546,38.995,1c39.145-8.736,55.924-22.654,66.991-58.992
	c1-6.666,2-13.333,3-19.998C409.643,340.176,396.391,322.171,350.956,322.959z M372.953,441.945
	c-3.663,5.088-9.618,8.464-14.998,11.998c-6.986,4.589-19.639,11.516-33.996,7.999c-43.708-10.707-41.997-76.859-18.998-108.986
	c5.267-7.357,15.485-16.115,23.997-19.998c4.157-1.896,9.306-1.602,12.998-4c13.134-0.201,22.424,0.831,29.996,6
	C399.255,353.592,389.252,419.302,372.953,441.945z"/>
<path d="M1776.778,324.959c-0.667,0-1.333,0-2,0c0.494,5.29,2.907,6.522,4,9.999c4.706,14.969-4.864,32.018-8.999,39.995
	c-9.606,18.533-20.997,33.972-34.996,47.994c-8.389,8.403-20.429,16.066-26.997,25.997c-0.666,0-1.333,0-2,0
	c-0.298-20.224-1-43.264-1-64.992c0-10.022-0.778-22.632,1-30.996c1.261-5.934-1.699-14.661,1-18.998
	c0.444-8.442,5.409-5.342,9.999-8.999c0.333,0,0.667,0,1,0c0-0.667,0-1.333,0-2c-4.333,0-8.666,0-12.999,0
	c-6.099,3.69-18.495,0.234-25.997,2c-22.587,5.316-38.15,15.444-37.995,43.995c1.188,1.133,2.146,2.54,3,4
	c3.087-0.048,5.125-0.348,6.999-1c0.995-6.007-0.671-7.72-2-11.999c-5.854-18.85,17.837-24.427,25.997-29.997
	c4.586-0.064,9.872-0.079,12.999,1c2.288,11.701-1.781,28.102,1,40.995c3.36,15.58,1,37.559,1,54.993c0,9.352,1.599,30.277-2,35.996
	c0.199,2.596,0.442,3.396,1,5c15.249-1.787,22.274-16.275,30.996-24.997c24.118-24.117,49.126-46.539,63.992-79.99
	c4.908-11.044,13.978-23.062,6.999-37.996C1786.742,323.219,1780.729,321.919,1776.778,324.959z"/>
<path d="M87.989,327.959c-2.666,0-5.333,0-7.999,0c-1.133,1.188-2.54,2.146-4,3c-0.888,3.523-3.248,8.637-1,11.999
	c0,0.667,0,1.333,0,2c1.726,0.645,0.979,0.196,2,1c5.939-0.266,7.385-1.856,10.999-4c0.866-3.437,3.013-7.906,1-10.999
	C88.656,329.958,88.322,328.958,87.989,327.959z"/>
<path d="M837.895,338.958c0-3.333,0-6.666,0-9.999c-2.73-0.567-5.176-1.017-8.999-1c-1.133,1.188-2.54,2.146-4,3
	c-0.554,1.256-1.202,3.019-2,4c-0.075,5.278,0.412,8.049,2,10.999c7.364-0.138,7.889-2.229,11.999-5
	C837.541,339.231,837.091,339.979,837.895,338.958z"/>
<path d="M946.882,403.949c1.956-7.466,4.567-15.134,4.999-23.997c4.93,0.13,13.848,1.066,16.998-1c3.698-0.447,2.944-0.559,4.999-2
	c0-0.667,0-1.333,0-2c-6.665,0-13.332,0-19.997,0c0.01-12.514,3.554-29.707,12.998-32.996c0-1,0-2,0-3
	c-8.131,1.902-18.561,5.925-23.997,10.999c-3.294,4.442-4.06,17.161-3.999,23.997c-0.333,0.333-0.667,0.667-1,1
	c-5.928-0.075-13.641-0.488-17.998,1c0.399,2.054,0.249,1.927,1,3c3.116,2.06,12.099,1.158,16.998,1
	c-3.899,17.812-16.133,70.69-8.999,85.989c8.789,1.67,29.875-2.614,35.996-6.999c0.667,0,1.333,0,2,0c0-0.667,0-1.333,0-2
	c-6.743,0.496-14.499,3.545-18.998,0c-5.886-2.284-8.039-12.545-5.999-21.998C943.548,424.615,945.215,414.28,946.882,403.949z"/>
<path d="M1462.817,457.942c-4.042-0.416-3.923-1.105-6.999-2c-4.246-16.839-0.321-38.53,4-54.993c1.73-6.593,0.682-14.019,4-18.998
	c0-0.667,0-1.333,0-2c7.041,0.008,14.326-0.352,19.998-1c0-0.333,0-0.667,0-1c0.758-1.075,0.628-0.924,1-3
	c-6.665,0-13.333,0-19.998,0c0.502-14.182,4.543-28.395,13.998-33.996c0-0.667,0-1.333,0-2
	c-10.686,1.624-16.969,8.248-25.997,10.999c-1,8.332-2,16.666-3,24.997c-11.664,0-23.331,0-34.995,0
	c0.913-13.999,4.41-28.303,13.998-33.996c0-0.667,0-1.333,0-2c-10.522,1.605-17.031,8.268-25.997,10.999c-1,8.332-2,16.666-3,24.997
	c-6.201-0.076-14.388-0.573-18.998,1c0.743,2.319,1.039,2.233,2,4c5.332,0,10.666,0,15.998,0
	c-2.374,27.619-11.489,51.013-10.999,81.989c1.485,1.382,2.919,3.242,4,5c10.228-0.101,30.617-4.208,35.995-8.999
	c0.333,0,0.667,0,1,0c0-0.333,0-0.667,0-1c-5.268,0.294-12.944,2.676-15.998,1c-4.042-0.416-3.923-1.105-6.999-2
	c-4.166-16.559-0.302-38.681,4-54.993c1.686-6.395,0.74-14.089,4-18.998c0-0.667,0-1.333,0-2c11.664,0,23.332,0,34.996,0
	c-2.372,26.938-16.384,57.895-8.999,85.989c9.031,1.741,32.6-3.114,37.996-7.999c0.333,0,0.667,0,1,0c0-0.333,0-0.667,0-1
	C1473.547,457.237,1465.871,459.619,1462.817,457.942z"/>
<path d="M2061.742,457.942c-4.042-0.416-3.923-1.105-6.999-2c-4.246-16.839-0.321-38.53,3.999-54.993
	c1.73-6.593,0.682-14.019,4-18.998c0-0.667,0-1.333,0-2c7.041,0.008,14.326-0.352,19.997-1c0-0.333,0-0.667,0-1
	c0.758-1.075,0.628-0.924,1-3c-6.665,0-13.332,0-19.997,0c0.502-14.182,4.543-28.395,13.998-33.996c0-0.667,0-1.333,0-2
	c-10.687,1.624-16.969,8.248-25.997,10.999c-1,8.332-2,16.666-3,24.997c-11.664,0-23.332,0-34.996,0
	c0.895-14.108,4.375-28.283,13.998-33.996c0-0.667,0-1.333,0-2c-10.521,1.605-17.031,8.268-25.997,10.999
	c-1,8.332-2,16.666-3,24.997c-6.201-0.076-14.387-0.573-18.998,1c0.743,2.319,1.039,2.233,2,4c5.333,0,10.666,0,15.998,0
	c-2.373,27.619-11.489,51.013-10.999,81.989c1.484,1.382,2.918,3.242,4,5c10.228-0.101,30.617-4.208,35.996-8.999
	c0.333,0,0.667,0,1,0c0-0.333,0-0.667,0-1c-5.268,0.294-12.944,2.676-15.998,1c-4.041-0.416-3.923-1.105-6.999-2
	c-4.166-16.559-0.302-38.681,4-54.993c1.686-6.395,0.74-14.089,3.999-18.998c0-0.667,0-1.333,0-2c11.664,0,23.332,0,34.996,0
	c-2.372,26.938-16.384,57.895-8.999,85.989c9.031,1.741,32.6-3.114,37.995-7.999c0.333,0,0.667,0,1,0c0-0.333,0-0.667,0-1
	C2072.473,457.237,2064.796,459.619,2061.742,457.942z"/>
<path d="M167.979,455.943c-9.046-23.776,12.83-65.47,12.998-90.989c-9.633,0.668-9.124,5.692-12.998,7
	c-5.569,1.878-12.811-5.153-20.997-3c-26.204,6.893-33.018,26.452-41.995,50.994c-2.113,5.776-9.747,34.057-4,42.995
	c0.333,1,0.667,2,1,3c11.073,2.062,37.506-6.167,43.994-11.999c3.144,2.276-0.268,6.008,2,9.999c0.333,1,0.667,2,1,3
	c10.003-0.331,29.856-6.302,35.995-10.999c0.333,0,0.667,0,1,0c0-0.667,0-1.333,0-2c-4.256,0.259-9.26,1.008-11.999,3
	C171.131,456.833,169.703,456.542,167.979,455.943z M147.981,449.944c-6.396,1.88-20.379,9.194-26.997,3.999
	c-5.086-4.207-5.035-17.404-3-25.997c5.954-25.138,8.728-36.943,23.997-52.993c10.809-0.025,15.594,2.261,21.997,5.999
	C158.647,403.947,153.313,426.949,147.981,449.944z"/>
<path d="M1042.87,455.943c-0.667,0-1.333,0-2,0c-3.917-20.49,3.819-45.384,8.999-63.992c2.08-7.472,1.176-16.149,5-21.997
	c-0.2-2.596-0.442-3.396-1-5c-1.333,0-2.667,0-4,0c-2.97,2.808-6.604,3.498-8.999,7c-5.994-0.938-11.995-4.956-19.998-3
	c-27.621,6.752-35.833,29.384-43.995,55.993c-1.892,6.166-8.411,26.713-3,34.996c0.464,4.501,1.292,4.274,3,6.999
	c13.28-0.304,35.026-6.905,42.995-12.999c1.767,2.768,1.767,10.483,3,12.999c10.186-0.33,28.863-6.188,34.996-10.999
	c0.333,0,0.667,0,1,0c0-0.667,0-1.333,0-2C1053.661,454.527,1046.604,458.173,1042.87,455.943z M1029.871,409.949
	c-3.902,13.884-4.035,29.242-9.999,40.995c-6.473,1.665-19.181,7.43-24.997,3c-6.575-3.474-3.965-19.007-3-26.997
	c2.78-23.01,10.679-39.277,23.997-51.993c10.165,0.082,14.067,2.897,20.997,5C1036.208,390.973,1032.463,400.728,1029.871,409.949z"
	/>
<path d="M1551.806,454.943c-5.885-33.065,13.869-59.29,13.999-89.989c-9.634,0.671-9.123,5.691-12.999,7
	c-5.567,1.878-12.812-5.153-20.997-3c-26.944,7.088-34.512,28.026-42.995,53.993c-2.66,8.145-9.192,30.601-2.999,39.995
	c0.333,1,0.666,2,1,3c11.627,2.152,36.656-6.174,43.995-11.999c2.619,1.772,1.509,0.589,1,3c-0.043,5.035,0.487,7.193,2,9.999
	c10.003-0.331,29.856-6.302,35.996-10.999c0.333,0,0.667,0,1,0c0-0.667,0-1.333,0-2c-4.677,0.146-9.141,0.893-11.999,3
	C1554.639,456.744,1554.224,456.245,1551.806,454.943z M1542.807,403.949c-2.677,9.106-6.571,43.045-11.999,46.994
	c-3.28,2.387-7.501,1.738-11.999,3c-4.552,1.277-9.409,2.687-12.999,0c-5.352-4.009-4.97-17.591-3-25.997
	c5.938-25.334,8.564-36.935,23.997-52.993c9.123-0.154,17.079,0.988,20.998,5.999
	C1549.882,384.535,1544.224,399.128,1542.807,403.949z"/>
<path d="M2157.73,456.943c-4.167-0.199-4.582-0.698-6.999-2c-5.886-33.065,13.869-59.29,13.998-89.989
	c-9.634,0.671-9.122,5.691-12.999,7c-5.568,1.878-12.812-5.153-20.998-3c-26.944,7.088-34.512,28.026-42.994,53.993
	c-2.661,8.145-9.193,30.601-3,39.995c0.333,1,0.667,2,1,3c11.627,2.152,36.655-6.174,43.994-11.999c2.619,1.772,1.509,0.589,1,3
	c-0.043,5.035,0.487,7.193,2,9.999c10.003-0.331,29.855-6.302,35.995-10.999c0.333,0,0.667,0,1,0c0-0.667,0-1.333,0-2
	C2165.052,454.088,2160.588,454.835,2157.73,456.943z M2141.732,403.949c-2.677,9.106-6.571,43.045-11.999,46.994
	c-3.279,2.387-7.501,1.738-11.998,3c-4.553,1.277-9.409,2.687-12.999,0c-5.352-4.009-4.97-17.591-3-25.997
	c5.938-25.334,8.564-36.935,23.997-52.993c9.123-0.154,17.078,0.988,20.997,5.999
	C2148.807,384.535,2143.149,399.128,2141.732,403.949z"/>
<path d="M684.914,368.954c-47.714-6.203-63.684,41.484-60.992,85.989c2.681,2.804,4.604,8.078,7.999,9.999
	c16.402,9.278,44.812-10.482,51.994-17.998c0.758-1.075,0.628-0.924,1-3c-12.693,2.614-18.132,12.086-33.996,10.999
	c-2.333-2-4.666-4-6.999-5.999c-1.302-5.055-6.475-19.328-2-25.997c2.344-4.662,8.376-4.614,12.998-6.999
	c10.067-5.193,20.53-11.407,29.996-16.998c1.363-5.148,7.408-16.644,4-21.998C688.374,371.879,686.971,372.044,684.914,368.954z
	 M643.919,415.948c-0.667,0-1.333,0-2,0c4.784-13.988,4.816-28.765,13.998-37.995c1.689-1.698,4.352-2.234,5.999-4
	c2.054-0.398,1.927-0.249,3-1c2.318,0.227,2.82,0.197,4,1c2.697,0.922,2.927,1.717,4.999,3
	C676.841,410.822,660.093,402.002,643.919,415.948z"/>
<path d="M861.892,384.952c-7.258,33.22,10.929,27.099,22.998,42.995c4.014,5.288,7.567,16.777,2,22.997
	c-2.804,7.947-14.018,7.937-22.997,6.999c-3.905-3.664-8.115-4.047-9.999-9.999c-2.002-2.466-2.168-6.25-2-10.999c-1,0-2,0-3,0
	c0.06,6.871-0.044,15.683-3,19.998c0.048,3.087,0.348,5.125,1,6.999c5.792,1.353,13.59,4.946,21.997,3
	c14.624-3.385,42.459-20.396,33.996-42.995c-6.945-18.543-32.24-16.978-30.996-41.995c2.517-2.42,3.149-4.701,6.999-5.999
	c3.747-2.767,7.633-1.382,12.999-1c4.674,4.348,8.521,5.065,8.999,13.998c0.667,0,1.333,0,2,0c0.147-4.95,0.75-11.724,3-14.998
	c0-1.333,0-2.667,0-4C880.161,363.996,876.384,375.105,861.892,384.952z"/>
<path d="M1943.757,367.954c-7.78,5.376-17.568,6.648-24.997,11.999c-16.274,11.721-31.399,61.026-15.998,84.989
	c21.725,4.892,43.902-6.133,52.994-19.998c4.591-7,5.276-15.018,7.999-23.997c6.393-21.085,6.657-37.044-5-51.994
	C1954.342,368.403,1949.388,367.887,1943.757,367.954z M1939.758,449.944c-2.635,3.646-7.492,5.164-10.999,7.999
	c-4.202-0.002-6.773-0.208-8.999-2c-8.559-3.234-7.057-16.248-6.999-27.997c0.13-26.555,8.205-38.126,21.997-50.994
	c16.605-0.014,14.618,9.586,16.998,23.997C1954.348,416.644,1947.12,439.753,1939.758,449.944z"/>
<path d="M81.99,368.954c-4.782,3.262-24.769,4.373-31.996,5c0,0.667,0,1.333,0,2c4.666,0.333,9.333,0.667,13.998,1
	c2.291,12.672-1.218,30.182-4,41.995c-6.053,25.708-5.957,51.63-12.998,74.99c-1.994,6.615-1.623,12.788-5,17.998
	c-1.666,1.666-3.333,3.333-4.999,4.999c-4.651-0.129-6.689-0.727-8.999-3c-3.326,0.007-5.95,0.287-7.999,1
	c-0.645,1.726-0.196,0.979-1,2c0.11,2.848,0.401,4.275,1,6c44.792,1.521,46.447-69.984,55.993-108.986
	c2.9-11.848,2.015-36.283,8.999-42.995C83.518,368.464,85.234,369.782,81.99,368.954z"/>
<path d="M499.938,457.942c-2.306-0.325-2.484-0.464-4-1c-5.83-14.947,1.364-38.692,5-51.994c1.832-6.704,0.578-14.856,4-19.998
	c0-4.332,0-8.666,0-12.998c-1.853-3.778-10.424-3.455-14.998-2c-6.91,2.198-26.194,9.467-30.996,13.998c-1,0-2,0-3,0
	c1.594-4.251,2.767-9.778,3-14.998c-11.711,1.068-20.756,5.142-33.996,5c0,1,0,2,0,3c2.914-0.031,5.45-0.049,6.999,1
	c3.326,0.007,5.95,0.287,7.999,1c-0.634,33.153-12.756,58.245-15.998,87.989c5.536-1.224,10.583-2.859,16.998-3
	c1.633-26.878,12.537-50.743,13.998-75.99c6.028-2.685,24.248-12.232,30.996-6c2.85,3.813,2.396,12.837,1,18.998
	c-3.228,14.246-5.385,30.172-8.999,43.995c-1.055,4.035-0.105,8.073-2,10.999c-0.051,4.068,0.076,8.333,1,10.999
	c8.429-0.249,28.385-5.902,32.996-9.999c0.333-0.333,0.667-0.667,1-1C508.271,455.236,502.713,455.822,499.938,457.942z"/>
<path d="M595.926,456.943c-5.991-15.367,1.383-39.268,4.999-52.994c1.716-6.513,0.675-14.849,4-19.998c0-3.999,0-7.999,0-11.998
	c-1.154-2.357-7.511-4.141-11.999-3c-7.015,1.783-29.382,10.5-33.996,14.998c-1,0-2,0-3,0c1-4.999,2-9.999,3-14.998
	c-11.664,2-23.332,4-34.996,6c0,0.333,0,0.667,0,1c4.164,1.495,9.483,2.066,14.998,2c0.333,0.333,0.667,0.667,1,1
	c-0.68,32.922-12.899,58.141-15.998,87.989c5.536-1.224,10.583-2.859,16.998-3c1.182-26.947,12.552-51.282,13.998-75.99
	c4.612-2.054,23.613-10.621,28.996-7c0.667,0,1.333,0,2,0c3.577,16.251-1.934,37.551-5.999,52.994
	c-1.805,6.857-0.542,15.594-4,20.997c-0.059,4.325,0,9.105,1,11.999c13.673-0.607,20.695-7.517,32.996-8.999c0-1,0-2,0-3
	c-3.487,0.429-7.626,1.267-9.999,3C597.619,457.618,597.441,457.478,595.926,456.943z"/>
<path d="M829.896,455.943c-14.135-0.101-15.021-8.848-11.999-21.997c4.551-19.804,11.689-43.434,11.999-64.992
	c-11.331,2-22.665,4-33.996,6c0.645,1.726,0.196,0.979,1,2c0,0.333,0,0.667,0,1c7.677-0.156,11.847,0.405,15.998,3
	c-0.503,12.942-3.254,24.34-5.999,34.996c-2.406,9.338-1.568,16.865-4,25.997c-1.258,4.725-5.619,16.417-2,21.997
	c0,0.667,0,1.333,0,2c15.854,2.837,26.807-7.678,39.995-10.999c-0.645-1.726-0.196-0.979-1-2
	C838.657,452.256,832.081,454.226,829.896,455.943z"/>
<path d="M1352.831,455.943c-3.93-5.365-1.3-19.299,0-26.997c3.465-20.533,12.589-39.521,13.998-59.993
	c-7.635,0.646-13.635,3.954-18.998,7c-0.283,17.977-4.886,36.305-8.999,51.993c-1.691,6.453-0.212,17.178-4,21.998
	c-3.118,3.967-12.698,3.124-16.998,5.999c-3.326-0.007-5.95-0.287-7.999-1c-7.514-19.577,7.283-66.115,10.999-84.989
	c-0.333-0.333-0.667-0.667-1-1c-10.998,1.667-21.999,3.333-32.996,5c0,1,0,2,0,3c3.895-0.119,9.687-0.541,11.999,1
	c1,0.333,2,0.667,3,1c-0.646,30.455-11.692,54.314-11.998,83.989c1.188,1.133,2.146,2.54,3,4
	c10.675-0.573,33.199-7.832,39.995-12.999c0.667,0,1.333,0,2,0c-1.006,2.87-1.105,7.689-1,11.999c0.333,0.333,0.667,0.667,1,1
	c8.246-0.356,27.015-3.214,31.996-6.999c0.667,0,1.333,0,2,0C1366.163,456.098,1357.784,460.324,1352.831,455.943z"/>
<path d="M1868.767,458.942c-2.249-0.622-4.101-2.907-6-4c0.377-21.896,2.68-39.327,7.999-56.993
	c2.705-8.984,6.874-17.937,6.999-28.997c-2.769,0.333-17.189,4.783-17.998,6c-0.667,5.666-1.333,11.333-2,16.998
	c-2.927,11.883-5.63,44.493-10.999,52.994c-0.288,7.249-18.816,13.693-23.997,9.999c-0.667,0-1.333,0-2,0
	c-5.801-30.082,10.012-57.463,10.999-85.989c-11.331,1.667-22.665,3.333-33.996,5c0,1,0,2,0,3c3.894-0.119,9.687-0.541,11.998,1
	c1,0.333,2,0.667,3,1c-0.144,18.441-3.21,33.937-6.999,48.994c-1.977,7.852-0.132,17.871-4,23.997c-0.12,6.198,0.08,11.403,2,14.998
	c11.027-0.384,33.233-7.724,39.995-12.999c0.667,0,1.333,0,2,0c-0.105,2.533-0.123,3.705-1,5c0.007,3.326,0.288,5.951,1,7.999
	c9.944-0.276,26.169-2.232,32.996-6.999c0.667,0,1.333,0,2,0C1877.622,455.298,1873.901,460.362,1868.767,458.942z"/>
</svg>
