<?xml version="1.0" encoding="utf-8"?>
<!-- Generator: Adobe Illustrator 16.0.0, SVG Export Plug-In . SVG Version: 6.00 Build 0)  -->
<!DOCTYPE svg PUBLIC "-//W3C//DTD SVG 1.1//EN" "http://www.w3.org/Graphics/SVG/1.1/DTD/svg11.dtd">
<svg version="1.1" id="Lag_1" xmlns="http://www.w3.org/2000/svg" xmlns:xlink="http://www.w3.org/1999/xlink" x="0px" y="0px"
	 width="2541.95px" height="821.599px" viewBox="0 0 2541.95 821.599" enable-background="new 0 0 2541.95 821.599"
	 xml:space="preserve">
<path fill-rule="evenodd" clip-rule="evenodd" d="M1729.763,263.687c-0.417-0.506-0.658-0.728-0.814-0.998
	c-2.166-3.729-2.814-9.039-7.921-9.975c-6.61-1.212-13.293-0.274-19.061,3.284c-19.797,12.218-15.712,36.682,1.738,45.977
	c15.209,8.102,30.775,7.81,46.678,3.231c16.169-4.654,30.417-13.223,42.454-24.599c12.486-11.798,22.14-26.044,24.646-43.624
	c2.005-14.057,0.513-27.853-9.67-38.872c-8.064-8.727-18.741-13.501-30.252-15.507c-20.441-3.561-40.216-0.318-59.112,8.014
	c-16.426,7.243-31.156,17.011-44.551,29.113c-14.583,13.179-26.443,28.273-34.576,46.028c-9.144,19.961-12.394,40.755-4.404,61.994
	c4.189,11.14,11.097,20.363,19.988,28.603c15.438,14.306,34.156,21.372,54.022,24.727c18.002,3.04,36.238,2.068,54.462-2.099
	c22.858-5.226,42.261-16.488,59.48-31.408c16.395-14.207,29.547-31.54,40.943-50.041c14.979-24.317,28.214-49.56,39.439-75.842
	c1.849-4.327,4.025-8.514,6.29-13.271c-3.096-1.414-5.59-2.913-8.291-3.724c-11.444-3.437-21.913-8.961-30.463-17.074
	c-12.185-11.562-21.095-25.187-23.035-42.668c-1.962-17.673,4.09-32.791,13.937-46.634c9.106-12.802,21.49-22.188,35.102-29.759
	c21.037-11.7,43.488-19.828,66.96-25.128c16.34-3.689,32.756-7.062,49.026-11.033c15.42-3.763,31.66-5.529,44.696-15.906
	c4.312-3.433,8.01-7.626,12.185-11.245c3.684-3.192,7.663-2.109,9.137,2.384c3.554,10.83-0.9,20.866-14.983,20.642
	c-18.197-0.29-32.016,8.352-44.705,19.586c-17.524,15.516-31.24,34.253-42.518,54.599c-12.101,21.831-22.31,44.604-30.72,68.153
	c-4.205,11.775-8.673,23.459-13.236,35.763c15.762,0.256,28.637-4.534,38.203-16.888c0.893-1.151,1.29-2.92,2.406-3.605
	c1.402-0.862,3.31-0.902,5-1.297c0.176,1.744,1.161,4.119,0.382,5.119c-2.687,3.446-5.861,6.55-9.081,9.536
	c-8.164,7.574-18.094,10.762-29.039,11.236c-0.499,0.021-1.001,0.023-1.5,0c-4.977-0.232-7.956,0.859-9.787,6.748
	c-4.97,15.986-11.18,31.588-16.91,47.338c-7.306,20.073-16.836,39.141-30.16,55.754c-12.895,16.076-27.9,30.091-45.514,41.458
	c-18.853,12.166-39.438,19.282-60.853,24.48c-7.11,1.727-14.672,1.772-22.05,2.154c-6.519,0.337-13.068,0.007-19.604,0.086
	c-18.286,0.221-35.658-4.117-52.521-10.718c-15.384-6.022-28.45-15.185-39.77-27.494c-13.149-14.298-20.641-31.023-23.67-49.664
	c-2.691-16.562,0.204-32.804,6.375-48.498c7.256-18.451,18.646-33.93,33.288-47.017c13.393-11.972,28.733-20.796,45.805-26.566
	c11.987-4.053,24.231-6.221,36.888-7.239c17.924-1.44,34.937,1.252,50.891,9.199c18.917,9.423,30.741,24.984,35.313,45.525
	c4.259,19.135-2.262,35.711-13.729,50.874c-15.458,20.441-36.747,30.933-61.221,35.372c-15.198,2.756-30.626,2.269-45.068-3.977
	c-12.968-5.607-21.935-14.646-21.853-30.227c0.101-19.317,21.633-34.804,39.89-28.408c2.77,0.97,5.185,3.458,7.282,5.695
	C1734,257.459,1732.994,260.688,1729.763,263.687z M1911.975,203.047c27.699-61.763,58.58-121.051,110.905-166.461
	c-2.166-0.664-3.811-0.699-5.371-0.354c-2.854,0.63-5.641,1.565-8.488,2.233c-28.718,6.74-56.882,14.981-83.115,28.94
	c-12.708,6.762-23.95,15.219-33.459,25.999c-14.694,16.659-23.372,35.357-22.784,58.315
	C1870.28,175.793,1885.625,198.192,1911.975,203.047z"/>
<path fill-rule="evenodd" clip-rule="evenodd" d="M369.021,218.263c16.924,0.251,32.849,6.454,47.263,17.905
	c11.972,9.511,19.043,21.692,21.316,36.259c3.855,24.705-12.625,47.98-38.872,46.765c-14.086-0.652-25.877-6.632-30.021-19.468
	c-1.08-3.347-0.788-7.208-0.665-10.817c0.029-0.834,1.985-2.265,2.994-2.215c0.976,0.049,1.982,1.573,2.752,2.614
	c0.321,0.434,0.136,1.303,0.062,1.96c-1.591,14.075,5.369,17.97,15.986,21.989c18.349,6.946,38.553-5.09,42.028-24.349
	c3.557-19.712-4.177-34.676-19.57-46.54c-13.879-10.698-29.856-13.593-46.564-11.676c-15.408,1.769-28.124,9.756-38.048,21.602
	c-10.578,12.627-15.222,27.515-13.7,43.87c1.352,14.541,6.494,27.811,15.532,39.537c9.153,11.876,20.561,21,33.468,28.321
	c13.738,7.791,28.479,13.115,44.1,15.315c23.473,3.306,45.507-0.852,66.022-13.349c12.844-7.822,24.899-16.679,34.459-28.076
	c10.677-12.73,20.746-26.18,29.41-40.338c11.379-18.598,21.001-38.263,31.612-57.339c9.915-17.823,20.16-35.462,30.156-53.24
	c0.565-1.007,0.181-2.548,0.238-3.84c-1.174,0.154-2.623-0.072-3.465,0.54c-1.865,1.355-3.608,2.981-5.078,4.764
	c-7.517,9.112-14.711,18.498-22.448,27.416c-6.124,7.059-12.688,13.766-19.391,20.284c-6.315,6.142-12.778,12.203-19.695,17.64
	c-11.969,9.408-25.298,16.556-40.753,17.498c-12.88,0.786-24.051-4.295-32.148-14.5c-14.307-18.029-18.549-39.214-16.97-61.538
	c1.048-14.821,4.397-29.522,11.055-42.85c7.632-15.278,16.273-30.104,25.317-44.604c4.478-7.178,10.659-13.344,16.387-19.681
	c13.402-14.83,28.045-28.426,44.683-39.472c12.312-8.174,25.289-15.51,38.55-22.041c12.036-5.93,24.704-10.69,37.363-15.212
	c19.914-7.114,40.426-11.096,61.758-9.96c14.063,0.749,26.434,5.15,35.402,16.378c5.928,7.421,7.361,16.558,6.121,25.686
	c-2.028,14.935-8.06,28.467-16.784,40.702c-14.934,20.945-33.585,37.391-58.515,45.219c-8.63,2.711-17.857,4.557-26.86,4.772
	c-11.248,0.269-22.681-1.341-31.727-9.347c-10.457-9.255-12.342-21.015-8.122-33.651c7.61-22.794,24.585-35.553,47.053-41.622
	c8.389-2.267,16.921-2.088,24.884,2.242c4.191,2.279,7.942,7.966,7.157,11.228c-0.298,1.24-1.478,2.268-2.255,3.392
	c-0.907-0.792-2.29-1.416-2.641-2.405c-1.671-4.715-3.276-9.651-9.017-10.459c-5.342-0.752-11.064-1.845-16.16-0.715
	c-12.98,2.881-24.536,9.154-33.608,19.049c-7.9,8.617-13.617,18.557-13.156,30.777c0.529,14.066,10.4,22.664,23.914,23.774
	c22.076,1.812,40.43-7.839,57.931-19.507c15.524-10.35,28.521-23.311,38.492-39.228c7.599-12.133,12.075-25.063,10.547-39.526
	c-0.784-7.408-4.84-12.964-11.238-16.768c-10.076-5.989-21.219-5.867-32.165-4.568c-19.71,2.34-37.744,9.967-55.002,19.469
	c-16.198,8.919-31.812,18.801-45.747,30.993C549.645,68.7,536.641,80.162,524.583,92.51c-16.285,16.676-29.832,35.61-41.933,55.548
	c-9.343,15.395-17.521,31.316-22.898,48.594c-3.648,11.723-5.657,23.674-4.8,35.91c0.62,8.852,2.393,18.031,8.561,24.468
	c4.234,4.42,10.766,8.049,16.774,9.07c13.396,2.279,26.24-0.97,37.026-9.672c11.127-8.978,22.53-17.772,32.597-27.86
	c10.539-10.561,19.615-22.58,29.361-33.935c8.469-9.866,16.702-19.956,25.588-29.433c4.641-4.948,10.087-9.714,17.853-8.637
	c1.826,0.253,4.585,1.146,5.015,2.397c0.665,1.938,0.392,4.899-0.735,6.595c-1.899,2.858-4.557,5.347-7.286,7.493
	c-9.205,7.237-15.477,16.807-21.408,26.601c-12.106,19.989-17.917,42.497-25.507,64.309c-6.464,18.572-12.735,37.286-20.636,55.258
	c-4.732,10.766-11.768,20.731-18.935,30.171c-15.936,20.988-38.59,31.355-63.55,36.847c-10.032,2.207-20.587,3.391-30.833,3.03
	c-30.301-1.064-59.239-7.865-84.927-24.844c-16.547-10.938-29.64-25.354-38.503-43.118c-4.871-9.762-7.684-20.246-8.776-31.38
	c-1.347-13.715,1.101-26.363,7.271-38.343C325.091,229.853,342.66,218.117,369.021,218.263z"/>
<path fill-rule="evenodd" clip-rule="evenodd" d="M1579.916,574.783c-1.996,1.036-4.53,1.606-5.897,3.187
	c-6.87,7.944-13.428,16.158-20.112,24.264c-2.818,3.417-5.534,6.933-8.542,10.176c-15.024,16.202-30.27,32.159-49.984,42.916
	c-8.552,4.666-17.551,7.74-27.354,8.156c-16.692,0.708-27.935-8.064-36.184-21.393c-12.773-20.638-14.019-43.04-10.184-66.434
	c3.752-22.889,13.542-43.213,25.507-62.54c8.911-14.396,20.065-27.152,31.803-39.464c16.425-17.229,35.022-31.602,55.29-43.749
	c17.77-10.649,36.646-19.087,56.433-25.557c20.218-6.61,40.637-11.583,62.052-10.81c12.528,0.452,24.305,3.781,33.788,12.379
	c5.283,4.79,8.373,11.167,9.331,18.396c2.4,18.096-4.699,33.573-13.767,48.318c-9.526,15.492-22.138,28.388-37.356,38.14
	c-12.058,7.727-25.322,13.106-39.957,14.894c-10.653,1.3-21.088,1.411-31.095-2.256c-18.656-6.838-24.622-20.259-19.561-38.253
	c6.991-24.853,25.398-38.132,49.979-43.722c7.854-1.786,15.478-1.662,22.144,3.073c3.029,2.151,5.338,5.57,7.297,8.822
	c0.596,0.989-1.067,3.34-1.695,5.066c-1.306-0.899-3.292-1.514-3.807-2.744c-3.791-9.065-11.584-12.888-21.534-11.064
	c-12.392,2.27-23.521,7.43-32.644,15.716c-10.85,9.854-18.393,21.842-17.034,37.609c0.834,9.671,9.8,18.6,20.083,20.652
	c13.757,2.745,26.256-1.306,38.537-6.398c15.72-6.52,29.668-16.145,41.782-27.868c13.224-12.797,24.62-27.285,29.046-45.793
	c2.269-9.484,3.499-18.995-2.696-27.947c-4.918-7.105-12.018-9.881-19.888-11.001c-20.289-2.888-38.987,2.956-57.398,10.731
	c-21.261,8.979-40.538,21.231-58.235,35.764c-14.725,12.091-29.049,24.823-42.376,38.422c-17.923,18.288-33.081,38.96-45.421,61.43
	c-6.939,12.639-13.271,25.755-18.373,39.226c-6.722,17.748-9.219,36.267-2.968,54.863c5.296,15.758,20.981,21.298,34.818,19.082
	c16.494-2.642,29.21-12.258,40.996-23.116c9.602-8.846,18.919-18.065,27.684-27.733c8.585-9.469,16.194-19.813,24.445-29.594
	c8.976-10.639,16.772-22.579,29.798-28.992c2.244-1.104,5.32-1.707,7.684-1.148c5.941,1.402,7.085,5.704,2.941,10.022
	c-5.066,5.28-10.524,10.193-15.467,15.583c-10.189,11.109-17.689,24.087-22.812,38.077c-9.563,26.119-17.827,52.713-27.275,78.877
	c-7.011,19.417-16.409,37.578-30.168,53.401c-15.462,17.781-34.972,27.978-57.535,32.985c-14.021,3.112-28.282,5.395-42.629,3.927
	c-26.499-2.712-52.278-8.556-75.04-23.201c-16.702-10.746-30.14-25.022-39.368-42.678c-7.379-14.117-11.644-29.443-9.976-45.462
	c2.422-23.264,12.762-42.183,34.093-53.492c12.637-6.699,26.342-7.635,40.229-4.775c17.102,3.521,32.109,11.042,43.685,24.439
	c13.303,15.397,19.853,40.603,6.042,60.037c-15.169,21.345-48.349,19.266-60.571-0.935c-2.115-3.497-2.042-8.457-2.365-12.786
	c-0.066-0.899,2.595-2.002,3.998-3.011c0.885,1.348,2.61,2.754,2.522,4.034c-0.806,11.71,4.033,18.761,15.329,21.912
	c10.966,3.061,21.105,2.001,30.642-4.834c9.203-6.596,14.604-21.219,12.662-32.61c-1.47-8.621-4.277-16.416-9.643-23.123
	c-8.412-10.517-19.398-17.131-32.5-20.418c-23.747-5.956-43.897,0.467-60.519,17.901c-10.133,10.628-15.61,23.434-15.826,38.454
	c-0.38,26.497,11.165,46.883,31.152,63.331c17.272,14.214,37,23.32,58.844,27.105c24.94,4.321,48.92,0.402,70.229-13.738
	c10.938-7.258,21.521-15.499,30.724-24.816c14.392-14.572,26.272-31.313,36.136-49.362c13.771-25.199,27.433-50.457,41.271-75.618
	c5.79-10.528,11.915-20.873,17.888-31.302C1580.666,575.87,1580.291,575.326,1579.916,574.783z"/>
<path fill-rule="evenodd" clip-rule="evenodd" d="M115.955,709.893c-20.704,0.115-40.467-4.203-59.02-13.004
	c-20.977-9.951-37.387-25.289-47.82-46.16c-4.714-9.43-7.122-19.765-8.424-30.458c-2.604-21.37,2.31-40.946,12.16-59.598
	c8.165-15.459,20.166-27.664,33.922-38.106c17.139-13.01,36.563-21.239,57.546-25.763c3.829-0.825,7.823-1.254,11.735-1.22
	c3.728,0.033,5.148-1.215,4.834-4.928c-1.042-12.324,2.476-23.371,9.993-33.076c5.697-7.355,12.495-13.618,20.756-18.014
	c12.624-6.717,25.806-11.113,40.346-12.291c24.642-1.996,46.323,4.674,64.905,20.471c5.812,4.941,9.723,12.184,14.15,18.616
	c0.685,0.995-0.542,3.307-0.884,5.009c-1.449-0.715-3.842-1.113-4.205-2.193c-5.78-17.202-20.404-23.691-35.649-28.485
	c-14.172-4.457-28.915-5.067-43.887-3.392c-14.944,1.673-28.773,5.846-41.22,14.169c-11.11,7.429-18.478,17.394-19.379,31.281
	c-0.104,1.612-0.877,3.192-0.911,4.796c-0.166,8.049,0.507,7.588,7.319,8.108c19.673,1.503,36.831,8.758,49.147,24.92
	c4.337,5.69,8.707,11.562,11.748,17.974c2.553,5.383,5.535,8.498,11.559,8.859c15.625,0.937,31.244,1.882,46.649-1.873
	c1.691-0.413,3.583-1.819,4.502-3.308c10.521-17.047,20.369-34.531,31.417-51.224c9.638-14.562,20.078-28.67,31.091-42.226
	c9.883-12.165,20.568-23.774,31.764-34.748c9.088-8.906,18.952-17.421,31.085-22.012c5.176-1.959,11.411-2.992,16.787-2.118
	c8.413,1.368,13.685,10.561,11.566,19.921c-3.429,15.148-10.653,28.809-19.878,41.134c-9.818,13.119-20.066,26.015-31.176,38.039
	c-7.995,8.654-17.584,15.872-26.687,23.462c-16.195,13.504-35.104,22.496-53.617,32.2c-2.951,1.547-4.696,6.122-6.167,9.646
	c-7.588,18.178-14.232,36.781-22.525,54.623c-6.913,14.873-14.973,29.325-23.742,43.195c-11.947,18.896-27.91,34.114-48.002,44.245
	c-13.903,7.01-28.825,11.197-44.521,12.138C127.461,708.849,121.711,709.423,115.955,709.893z M122.546,501.275
	c-10.701,3.742-21.173,6.351-30.676,10.958c-17.006,8.244-31.92,19.518-45.002,33.44c-8.988,9.564-16.846,19.811-22.694,31.362
	c-10.271,20.287-15.446,41.708-10.259,64.528c3.081,13.553,9.555,25.606,19.758,34.928c9.395,8.582,20.476,14.604,32.903,18.547
	c16.816,5.336,33.57,5.552,50.416,1.735c12.396-2.808,24.167-7.409,35.31-13.913c17.13-9.997,31.633-22.823,43.454-38.536
	c7.136-9.485,13.521-19.605,19.514-29.866c12.073-20.67,23.647-41.632,35.146-61.977c-17.491,0-34.678,0-50.784,0
	c-1.058,9.349-1.158,18.818-3.348,27.777c-4.54,18.573-13.786,34.608-28.192,47.655c-9.451,8.56-20.166,14.399-32.343,17.505
	c-14.706,3.75-29.314,2.969-43.295-3.16c-21.325-9.348-30.919-31.3-22.415-53.254c6.282-16.217,17.997-27.089,34.026-33.021
	c11.613-4.297,23.502-5.188,35.056,1.089c3.097,1.683,4.526,3.612,3.05,8.023c-1.773-0.979-3.657-1.523-4.821-2.749
	c-5.21-5.486-11.401-5.962-18.145-3.966c-16.405,4.855-28.668,15.376-38.507,28.89c-5.072,6.967-8.79,14.912-7.689,23.728
	c2.504,20.052,18.167,29.222,35.388,30.363c12.58,0.833,23.712-4.492,33.976-11.045c17.31-11.051,29.839-26.355,38.591-44.961
	c5.375-11.426,5.971-23.492,6.696-35.604C159.919,542.176,134.598,531.857,122.546,501.275z M278.412,537.169
	c1.336,0.122,2.09,0.437,2.582,0.2c8.101-3.884,16.689-7.049,24.124-11.957c11.303-7.463,22.521-15.361,32.464-24.501
	c13.364-12.283,26.061-25.423,37.925-39.162c7.611-8.812,13.635-19.114,19.556-29.226c3.914-6.685,6.944-14.032,9.357-21.414
	c2.875-8.795-0.898-16.655-8.438-17.239c-4.929-0.381-10.526,1.035-15.032,3.254c-19.303,9.506-33.145,25.424-45.835,42.074
	c-15.955,20.933-28.957,43.809-40.806,67.318C289.199,516.655,283.861,526.679,278.412,537.169z M128.908,502.837
	c9.555,23.467,34.326,36.807,57.552,40.21C182.721,518.682,158.869,499.979,128.908,502.837z"/>
<path fill-rule="evenodd" clip-rule="evenodd" d="M1436.297,240.764c-6.798,9.502-13.306,19.229-20.469,28.446
	c-8.553,11.007-17.207,22.009-26.723,32.165c-5.129,5.475-11.576,10.601-18.441,13.371c-12.276,4.954-20.771,1.435-25.793-10.682
	c-4.822-11.636-4.5-23.569-2.501-35.736c2.748-16.729,9.069-32.042,18.63-45.834c7.585-10.944,15.898-21.477,26.826-29.48
	c7.11-5.208,14.008-10.791,21.525-15.34c11.447-6.928,24.078-10.511,37.559-9.087c11.088,1.171,16.139,12.386,13.698,24.532
	c1.03-1.381,2.134-2.712,3.078-4.149c4.204-6.404,8.251-12.916,12.642-19.188c0.778-1.111,3.248-2.147,4.377-1.725
	c7.867,2.949,15.576,0.89,23.346-0.155c3.498-0.47,7.271-1.797,10.117,2.975c-1.433,0.878-2.84,2.482-4.243,2.479
	c-9.354-0.021-15.476,5.337-20.018,12.453c-6.385,10.003-12.358,20.297-17.984,30.749c-7.411,13.771-14.449,27.747-21.393,41.761
	c-6.091,12.294-11.642,24.855-17.776,37.125c-5.613,11.227-11.554,22.296-17.595,33.301c-7.59,13.826-14.736,27.969-23.367,41.126
	c-7.513,11.452-16.025,22.493-25.523,32.338c-14.7,15.237-32.909,24.14-54.403,26.438c-16.53,1.768-32.529,1.118-47.5-6.48
	c-9.979-5.064-16.495-13.015-15.463-25.103c0.667-7.816,5.427-12.301,13.169-13.487c5.951-0.912,11.675,3.646,13.286,9.914
	c1.16,4.509-1.453,7.961-4.072,10.865c-6.798,7.538-1.909,14.582,4.439,17.342c8.188,3.56,16.875,5.203,25.867,2.892
	c6.902-1.774,14.143-2.718,20.657-5.419c13.913-5.767,24.823-15.969,33.104-28.128c12.101-17.769,23.631-36.034,33.941-54.887
	c13.771-25.178,26.17-51.106,39.091-76.746c3.03-6.015,5.792-12.164,8.678-18.252
	C1436.808,241.026,1436.552,240.895,1436.297,240.764z M1352.844,300.703c0.139,9.826,7.286,13.91,12.965,12.596
	c3.489-0.809,6.858-2.975,9.796-5.178c12.399-9.3,22.061-21.301,31.118-33.639c10.028-13.66,19.539-27.743,28.528-42.109
	c8.802-14.066,16.905-28.606,21.138-44.896c2.059-7.923-2.64-14.366-10.776-13.843c-3.925,0.253-8.346,1.253-11.49,3.433
	c-6.585,4.566-12.98,9.65-18.518,15.42c-6.911,7.202-13.364,14.963-19.158,23.094c-14.312,20.084-27.559,40.877-36.916,63.823
	C1356.731,286.271,1355.042,293.591,1352.844,300.703z"/>
<path fill-rule="evenodd" clip-rule="evenodd" d="M2357.346,631.813c-5.852,8.34-11.557,16.785-17.591,24.989
	c-6.59,8.96-13.12,18.009-20.361,26.431c-5.634,6.551-12.053,12.507-18.612,18.16c-6.289,5.419-13.668,9.854-22.322,7.726
	c-9.731-2.393-13.764-10.593-15.496-19.55c-3.887-20.092,0.006-39.208,8.671-57.456c12.786-26.93,32.755-47.332,58.128-62.513
	c9.01-5.392,19.13-8.33,29.623-8.956c4.451-0.265,9.379,0.35,13.426,2.099c5.721,2.473,7.876,8.014,8.037,14.165
	c0.067,2.605,0.011,5.213,0.862,8.122c3.433-5.399,7.207-10.617,10.207-16.247c3.488-6.547,7.282-10.147,15.624-7.569
	c4.416,1.365,9.799-0.329,14.737-0.743c2.602-0.218,5.197-0.961,7.771-0.854c1.251,0.053,2.443,1.514,3.663,2.337
	c-1.001,1.161-1.953,3.286-3.008,3.338c-14.34,0.706-21.048,11.22-26.835,21.798c-10.568,19.314-20.197,39.145-30.164,58.787
	c-14.117,27.823-27.81,55.872-42.427,83.43c-8.01,15.103-16.942,29.805-26.549,43.947c-11.72,17.256-26.206,31.938-45.732,40.596
	c-10.226,4.534-20.911,7.373-32.188,7.642c-13.042,0.31-26.006,0.29-38.351-4.976c-10.096-4.307-17.509-11.057-19.448-22.19
	c-1.604-9.199,4.75-20.137,17.579-17.786c8.543,1.566,11.811,11.197,6.329,18.363c-7.126,9.314-4.92,17.229,6.426,20.47
	c17.062,4.874,33.365,2.274,48.721-6.594c15.05-8.691,26.096-21.331,34.983-35.927c9.315-15.297,18.681-30.597,27.149-46.366
	c12.721-23.689,24.73-47.763,36.932-71.729c3.793-7.451,7.225-15.087,10.822-22.638
	C2357.75,632.017,2357.547,631.915,2357.346,631.813z M2365.655,564.867c-2.418,0.832-4.933,1.456-7.238,2.528
	c-13.502,6.284-23.112,17.267-32.04,28.484c-9.933,12.479-19.031,25.723-27.454,39.278c-10.576,17.021-20.481,34.528-24.678,54.516
	c-1.066,5.085-0.684,10.294,3.309,13.696c4.104,3.498,9.342,3.025,13.693-0.111c5.5-3.965,11.402-7.748,15.815-12.767
	c9.726-11.059,19.192-22.44,27.714-34.438c9.812-13.813,19.077-28.097,27.455-42.816c5.765-10.128,10.456-21.072,14.062-32.16
	C2379.295,571.849,2374.36,564.446,2365.655,564.867z"/>
<path fill-rule="evenodd" clip-rule="evenodd" d="M1008.626,192.822c5.817-11.648,11.565-23.333,17.472-34.937
	c5.774-11.348,11.582-22.683,17.609-33.897c6.383-11.878,12.731-23.794,19.649-35.361c11.656-19.489,24.348-38.307,41.474-53.533
	c18.996-16.891,40.733-28.914,65.937-33.351c11.11-1.956,22.604-2.906,33.791,0.653c6.775,2.155,10.227,6.276,8.996,10.742
	c-1.478,5.36-9.21,12.844-14.929,11.174c-2.297-0.671-4.745-2.686-5.983-4.768c-3.518-5.912-7.571-11.426-14.514-12.74
	c-7.682-1.455-15.326,0.013-22.541,3.358c-14.533,6.738-26.462,16.661-35.738,29.63c-9.302,13.005-18.735,25.962-27.175,39.522
	c-7.377,11.854-13.467,24.51-20.1,36.825c-7.423,13.783-14.903,27.537-22.198,41.388c-6.924,13.146-13.547,26.45-20.47,39.597
	c-10.923,20.744-22.459,41.182-32.808,62.206c-5.934,12.054-10.217,24.944-14.826,37.609c-1.022,2.808-0.724,6.318-0.271,9.393
	c0.764,5.18,5.53,7.344,10.447,5.267c9.84-4.157,15.055-12.957,20.759-21.082c5.899-8.403,11.054-17.327,16.722-25.899
	c0.647-0.979,2.506-1.157,3.804-1.707c0.022,1.287,0.544,2.862-0.008,3.819c-7.594,13.192-15.194,26.413-26.015,37.341
	c-3.525,3.561-6.988,7.512-11.243,9.957c-9.397,5.401-17.798,0.914-20.702-9.604c-3.556-12.881-1.451-25.37,1.597-37.83
	c1.843-7.534,4.315-14.914,5.8-22.764c-4.062,6.075-8.246,12.072-12.16,18.24c-10.793,17.006-22.875,32.995-37.922,46.458
	c-3.864,3.458-8.808,6.159-13.72,7.894c-7.556,2.669-13.279-0.607-16.469-8.032c-5.274-12.275-4.994-24.936-2.625-37.719
	c4.202-22.68,15.007-42.287,29.139-60.056c14.221-17.881,31.646-31.97,53.532-39.447c5.26-1.797,11.438-1.897,17.061-1.367
	c5.947,0.561,10.37,11.038,8.587,18.335c-0.34,1.396-0.614,2.806-0.92,4.209C1007.986,192.504,1008.306,192.663,1008.626,192.822z
	 M907.373,304.581c2.031,3.36,3.166,6.733,5.488,8.715c3.148,2.687,6.977,1.16,9.839-1.22c5.872-4.883,12.093-9.547,17.07-15.259
	c8.153-9.358,15.935-19.134,22.945-29.368c8.552-12.483,16.4-25.472,24.082-38.519c7.85-13.33,15.393-26.863,18.03-42.473
	c1.386-8.2-3.604-14.647-11.521-12.631c-5.503,1.401-11,5.192-15.097,9.312c-12.487,12.555-23.352,26.6-32.327,41.843
	c-10.228,17.367-19.885,35.104-28.98,53.089C912.783,286.218,910.616,295.353,907.373,304.581z"/>
<path fill-rule="evenodd" clip-rule="evenodd" d="M818.198,196.636c5.219-8.854,9.998-16.964,14.84-25.18
	c7.183,7.166,14.501,3.577,21.698,1.013c4.895-1.745,9.717-3.712,14.507-5.732c6.684-2.818,12.509-0.291,17.028,3.992
	c4.409,4.179,6.158,9.593,4.919,16.466c-3.191,17.693-14.562,29.339-27.597,39.886c-12.861,10.407-28.021,15.649-44.158,18.334
	c-1.46,0.242-2.995,0.008-4.491,0.079c-3.79,0.18-6.558,1.323-8.321,5.354c-4.308,9.849-9.656,19.254-13.739,29.186
	c-3.589,8.73-5.443,17.908,0.597,26.667c3.937,5.708,12.822,8.823,19.213,6.369c8.152-3.13,15.39-7.581,21.916-13.629
	c12.621-11.696,21.911-25.884,31.671-39.78c0.916-1.305,2.797-1.932,4.229-2.873c0.051,2.061,0.951,4.698,0.01,6.085
	c-4.768,7.026-9.601,14.091-15.192,20.455c-7.812,8.892-15.853,17.694-24.657,25.573c-8.569,7.668-19.365,10.638-30.726,7.985
	c-10.996-2.566-15.626-11.547-18.65-21.481c-3.327-10.93-2.635-22.071-2.057-33.669c-3.479,4.856-6.931,9.592-10.296,14.386
	c-9.389,13.377-19.577,26.035-32.489,36.245c-8.7,6.88-20.199,6.858-24.753-0.93c-2.761-4.719-4.405-10.687-4.655-16.179
	c-1.401-30.683,8.414-58.054,26.895-82.16c15.154-19.768,33.051-36.462,57.719-43.956c3.572-1.085,7.229-2.281,10.91-2.548
	c11.386-0.824,16.192,4.651,17.15,16.007C820.077,186.863,818.833,191.262,818.198,196.636z M815.886,182.8
	c0.442-8.181-5.323-14.277-14.31-10.015c-4.351,2.064-8.393,5.185-11.909,8.527c-15.083,14.342-27.331,31.016-37.941,48.803
	c-9.831,16.481-19.368,33.184-28.006,50.309c-3.646,7.229-5.446,15.673-6.615,23.777c-0.982,6.812,4.94,10.116,11.107,7.134
	c1.76-0.851,3.509-1.772,5.12-2.87c13.212-9.008,23.083-21.328,32.374-33.98c7.509-10.225,14.181-21.116,20.611-32.071
	c8.494-14.471,16.617-29.174,24.414-44.031C813.241,193.603,814.211,188.017,815.886,182.8z M812.447,241.349
	c11.63,0.62,20.821-2.16,29.807-7.363c7.885-4.565,14.078-10.723,19.808-17.374c8.95-10.39,17.124-21.34,20.447-35.152
	c1.09-4.53-0.312-8.449-3.411-10.459c-2.325-1.508-6.967-1.44-9.568-0.106c-5.313,2.725-10.377,6.308-14.777,10.367
	c-12.275,11.327-21.25,25.281-29.916,39.407C820.772,227.292,816.843,233.999,812.447,241.349z"/>
<path fill-rule="evenodd" clip-rule="evenodd" d="M1239.673,266.827c0,1.744,0.69,3.938-0.107,5.161
	c-8.081,12.403-15.614,25.298-24.957,36.697c-5.649,6.893-13.558,12.915-24.33,8.843c-8.44-3.19-11.415-10.301-13.34-17.97
	c-3.481-13.875-1.851-27.78,2.59-41.015c5.735-17.096,12.26-33.972,19.362-50.55c6.228-14.536,13.294-28.759,20.766-42.705
	c9.242-17.25,18.808-34.368,29.117-50.995c10.395-16.763,21.793-32.907,32.923-49.205c3.223-4.719,6.824-9.222,10.621-13.495
	c10.952-12.327,23.104-23.396,37.229-31.959c17.811-10.797,36.803-18.357,58.107-18.118c5.277,0.06,10.645,0.035,15.8,0.979
	c6.993,1.281,9.909,6.378,8.335,12.989c-1.225,5.145-9.609,10.037-14.746,7.74c-2.897-1.295-5.357-4.358-7.152-7.174
	c-4.245-6.659-11.583-9.738-19.386-7.886c-13.528,3.212-24.886,9.988-35.24,19.234c-19.969,17.831-34.357,39.882-47.977,62.439
	c-11.354,18.805-21.802,38.165-32.314,57.463c-6.789,12.463-13.026,25.228-19.41,37.907c-8.35,16.583-16.918,33.067-24.806,49.869
	c-8.715,18.562-18.054,36.938-22.99,57.011c-1.599,6.501-2.702,13.332,2.379,19.15c3.427,3.924,7.652,4.292,12.07,2.068
	c6.966-3.507,11.463-9.602,15.612-15.881c5.753-8.706,11.233-17.593,16.863-26.382c0.962-1.5,2.086-2.897,3.135-4.343
	C1238.442,266.745,1239.057,266.786,1239.673,266.827z"/>
<path fill-rule="evenodd" clip-rule="evenodd" d="M2185.83,267.16c-0.272,1.914,0.046,4.211-0.908,5.683
	c-7.796,12.031-15.358,24.269-24.035,35.647c-3.236,4.245-8.925,7.13-14.059,9.303c-8.073,3.417-17.489-1.816-21.058-9.884
	c-6.001-13.564-5.502-27.359-2.444-41.331c4.729-21.614,13.377-41.817,22.806-61.695c6.379-13.446,12.576-27.021,19.785-40.022
	c11.94-21.534,24.354-42.82,37.109-63.882c7.509-12.397,15.942-24.245,24.212-36.165c3.078-4.436,6.525-8.739,10.416-12.464
	c9.904-9.485,19.58-19.354,30.399-27.705c16.383-12.644,35.413-20.18,55.908-22.864c8.755-1.146,17.959-1.982,26.766,0.777
	c5.944,1.862,8.971,7.946,6.962,13.326c-1.972,5.28-10.45,9.78-15.056,7.296c-2.735-1.477-4.907-4.371-6.768-7.023
	c-5.252-7.488-11.092-9.693-20.236-7.761c-12.87,2.721-23.413,9.475-33.181,17.938c-22.286,19.312-37.921,43.762-52.364,68.894
	c-15.509,26.983-29.924,54.602-44.532,82.093c-7.25,13.645-13.746,27.687-20.796,41.439c-11.385,22.211-21.954,44.768-29.897,68.471
	c-1.908,5.692-2.988,11.44-2.095,17.605c1.143,7.892,10.022,12.781,16.11,7.831c5.538-4.503,10.665-9.807,14.896-15.551
	c6.179-8.388,11.375-17.497,17.037-26.268c0.957-1.483,2.15-2.814,3.235-4.215C2184.638,266.809,2185.234,266.984,2185.83,267.16z"
	/>
<path fill-rule="evenodd" clip-rule="evenodd" d="M690.757,266.492c3.661,1.881,3.49,4.161,1.893,6.512
	c-7.334,10.789-14.73,21.537-22.11,32.295c-3.999,5.831-9.245,9.779-15.955,12.406c-8.534,3.343-17.425-2.255-20.701-8.415
	c-5.893-11.075-5.998-23.041-4.351-35.081c3.317-24.241,12.896-46.467,23.58-68.067c13.538-27.368,27.559-54.56,42.793-81.008
	c12.351-21.442,25.909-42.331,40.562-62.267c15.7-21.358,35.174-39.041,59.66-50.483C810.385,5.72,825.11,1.28,840.975,1.519
	c5.612,0.084,11.261,0.266,16.816,0.985c5.103,0.662,7.738,4.809,7.798,9.295c0.06,4.446-2.386,8.76-6.884,10.54
	c-4.305,1.703-8.989,2.773-12.488-1.999c-0.771-1.053-1.668-2.018-2.394-3.1c-6.143-9.163-12.986-11.742-23.636-8.408
	c-12.34,3.863-23.038,10.479-32.568,19.293c-20.444,18.907-35.417,41.92-49.311,65.645c-12.288,20.983-23.984,42.332-35.37,63.822
	c-11.922,22.502-23.692,45.114-34.538,68.145c-9.292,19.729-17.335,40.057-25.607,60.251c-2.733,6.67-4.419,13.754-1.925,21.056
	c2.669,7.817,10.375,9.888,17.001,5.054c10.001-7.296,15.466-18.032,22.016-27.952C683.649,278.443,687.066,272.513,690.757,266.492
	z"/>
<path fill-rule="evenodd" clip-rule="evenodd" d="M483.022,627.372c-8.183,11.726-16.715,23.846-25.134,36.044
	c-9.581,13.884-20.312,26.795-32.769,38.168c-4.202,3.836-8.97,7.093-15.248,6.95c-4.434-0.101-7.826-1.972-9.269-5.923
	c-1.707-4.678-3.246-9.623-3.62-14.546c-1.644-21.602,3.184-42.2,12.568-61.398c5.181-10.595,12.501-20.246,19.578-29.788
	c10.326-13.922,24.579-23.272,39.66-31.256c5.555-2.94,11.598-5.319,17.698-6.784c8.646-2.074,17.521,3.959,17.381,13.472
	c-0.055,3.661-0.009,7.324-0.009,11.885c6.783-9.391,8.614-20.752,15.304-28.716c1.894,3.013,2.812,6.426,4.844,7.328
	c5.358,2.378,10.126-0.504,14.564-3.534c1.993-1.361,4.026-2.661,6.313-2.955c-10.25,17.852-21.293,35.303-30.555,53.652
	c-12.248,24.268-23.182,49.201-34.472,73.943c-1.867,4.091-3.141,8.594-3.829,13.039c-0.583,3.767,0.715,7.452,4.427,9.575
	c4.149,2.374,7.64,0.118,10.811-2.069c9.755-6.728,14.84-17.217,20.941-26.838c3.739-5.896,7.021-12.081,10.693-18.023
	c0.893-1.445,2.509-2.443,3.793-3.647c0.641,0.428,1.28,0.855,1.921,1.283c-1.991,4.267-3.461,8.888-6.074,12.731
	c-7.43,10.932-14.909,21.886-23.254,32.109c-3.083,3.777-8.365,6.241-13.121,8.051c-5.951,2.266-12.457-2.646-14.34-9.293
	c-3.427-12.102-2.289-24.195,0.523-36.041C475.375,652.047,479.497,639.562,483.022,627.372z M500.097,572.421
	c0.545-2.551-0.801-6.428-4.827-8.654c-4.595-2.541-8.959-0.925-12.518,2.396c-4.795,4.473-9.851,8.824-13.842,13.967
	c-8.297,10.694-16.364,21.614-23.789,32.925c-7.949,12.111-15.417,24.576-22.424,37.258c-7.482,13.544-15.078,27.192-18.298,42.526
	c-0.677,3.221,0.36,8.196,2.569,10.192c1.812,1.638,7.115,1.12,9.842-0.351c4.444-2.396,8.649-5.849,11.898-9.737
	c10.807-12.935,21.688-25.871,31.505-39.55c9.756-13.594,18.683-27.836,27.178-42.262
	C494.016,599.882,499.36,587.895,500.097,572.421z"/>
<path fill-rule="evenodd" clip-rule="evenodd" d="M2241.096,665.564c0,1.447,0.547,3.221-0.089,4.29
	c-4.229,7.108-8.049,14.619-13.303,20.913c-5.015,6.009-11.43,10.92-17.556,15.912c-7.504,6.116-16.42-0.181-19.26-5.428
	c-8.901-16.442-7.513-33.229-0.437-49.576c4.577-10.574,10.474-20.635,16.411-30.546c6.534-10.906,14.293-21.097,20.521-32.161
	c3.005-5.339,4.004-11.906,5.301-18.046c0.381-1.802-0.864-5.304-2.194-5.8c-2.104-0.784-5.76-0.62-7.271,0.766
	c-7.708,7.065-15.486,14.191-22.196,22.174c-8.505,10.12-16.67,20.659-23.794,31.778c-12.825,20.014-24.881,40.526-37.026,60.968
	c-5.571,9.377-10.594,19.08-16.141,29.134c-8.771-12.693-17.759-5.152-27.008-0.958c3.831-6.56,7.673-13.113,11.493-19.679
	c6.959-11.959,14.005-23.869,20.827-35.906c5.945-10.489,11.997-20.944,17.345-31.739c7.281-14.696,15.175-29.209,18.731-45.438
	c0.835-3.808,1.695-8.22-2.624-10.651c-3.94-2.219-7.58-1.188-11.329,1.617c-9.892,7.404-15.309,18.153-21.938,28.018
	c-2.784,4.143-5.515,8.322-8.27,12.484c-0.605-0.122-1.21-0.244-1.815-0.366c0.122-1.911-0.429-4.247,0.47-5.665
	c7.626-12.031,14.903-24.382,25.5-34.169c4.895-4.521,10.704-7.672,17.629-6.276c6.857,1.382,10.42,7.391,10.827,15.939
	c0.718,15.084-3.763,29.104-8.437,43.093c-1.736,5.195-3.821,10.273-4.856,15.925c4.073-5.85,8.05-11.77,12.241-17.533
	c7.971-10.964,15.607-22.218,24.254-32.628c6.661-8.019,14.095-15.625,22.203-22.149c9.312-7.495,17.751-4.114,21.574,7.385
	c4.585,13.789,1.014,26.827-3.858,39.65c-6.019,15.841-15.635,29.674-24.79,43.773c-6.732,10.366-13.912,20.605-16.82,32.89
	c-0.822,3.472-0.958,7.351-0.36,10.864c1.228,7.216,9.591,8.979,16.368,4.053c8.918-6.481,13.691-16.066,19.44-24.953
	c2.708-4.185,5.499-8.314,8.253-12.47C2239.774,665.223,2240.435,665.394,2241.096,665.564z"/>
<path fill-rule="evenodd" clip-rule="evenodd" d="M1977.192,203.982c0.592-1.955,0.665-4.33,1.856-5.798
	c8.871-10.932,17.354-22.252,29.487-30.03c9.963-6.389,20.381-2.181,23.385,9.22c4.416,16.756,0.992,32.191-7.892,46.419
	c-9.925,15.896-20.817,31.185-30.862,47.008c-6.012,9.473-12.063,19.074-13.726,30.578c-0.616,4.265,1.085,7.546,4.136,10.273
	c2.756,2.464,5.366,1.658,8.558,0.282c8.831-3.808,14.34-11.27,19.513-18.452c13.528-18.786,26.616-37.931,38.976-57.504
	c9.977-15.799,18.702-32.392,27.852-48.706c4.204-7.497,8.092-15.17,11.732-22.028c2.265,2.419,4.087,5.997,6.819,6.939
	c5.439,1.878,10.08-1.493,14.323-4.736c1.261-0.964,2.374-2.119,4.497-2.579c-0.785,1.808-1.408,3.709-2.381,5.411
	c-10.347,18.104-21.205,35.935-30.999,54.332c-8.503,15.972-15.933,32.521-23.596,48.927c-2.536,5.43-4.761,11.093-6.312,16.867
	c-1.216,4.522-1.706,9.4-1.55,14.087c0.18,5.405,5.275,9.63,11.008,6.72c4.081-2.07,8.201-5.262,10.697-9.02
	c6.307-9.494,11.664-19.615,17.506-29.423c1.062-1.783,2.615-3.272,3.942-4.898c0.55,0.283,1.099,0.566,1.648,0.851
	c-0.333,1.915-0.146,4.144-1.083,5.695c-7.578,12.573-13.485,26.219-24.641,36.475c-9.432,8.671-20.877,5.958-25.318-6.125
	c-4.363-11.869-2.617-23.58,0.634-35.056c3.001-10.595,7.255-20.834,10.938-31.235c0.251-0.711,0.345-1.478,0.809-3.531
	c-7.902,11.798-14.664,22.731-22.273,33.04c-9.328,12.636-19.226,24.863-29.181,37.019c-3.044,3.717-6.854,6.928-10.725,9.82
	c-8.038,6.008-16.962,1.825-21.052-6.396c-7.953-15.987-5.134-31.65,1.588-47.165c7.316-16.885,18.058-31.628,28.441-46.68
	c7.256-10.516,16.117-20.139,20.074-32.829c1.538-4.931,0.234-8.69-3.107-11.444c-3.77-3.106-8.271-1.743-11.502,1.299
	c-5.467,5.151-10.598,10.683-15.604,16.293c-4.909,5.501-9.485,11.299-14.207,16.967
	C1978.798,204.572,1977.995,204.277,1977.192,203.982z"/>
<path fill-rule="evenodd" clip-rule="evenodd" d="M840.518,636.853c7.433-10.717,14.728-21.533,22.333-32.126
	c9.607-13.381,19.69-26.395,31.888-37.588c1.807-1.657,3.784-3.158,5.812-4.541c10.054-6.854,17.3-0.76,20.214,7.709
	c4.536,13.182,2.06,26.12-2.804,38.811c-6.176,16.113-15.484,30.435-24.9,44.747c-7.141,10.855-14.288,21.781-17.69,34.581
	c-2.229,8.387,0.315,15.852,6.689,16.317c3.985,0.292,9.587-1.607,12.078-4.546c7.359-8.682,13.547-18.357,20.16-27.668
	c1.686-2.373,3.248-4.834,4.867-7.255c0.593,0.071,1.186,0.143,1.778,0.213c0,1.841,0.701,4.11-0.118,5.45
	c-4.242,6.942-8.269,14.167-13.54,20.284c-5.116,5.938-11.564,10.755-17.588,15.876c-5.505,4.68-13.238,1.37-16.059-2.571
	c-6.99-9.767-9.318-20.737-7.987-32.842c2.11-19.187,11.724-35.013,21.492-50.83c7.454-12.069,15.482-23.797,22.586-36.064
	c2.421-4.181,3.602-9.491,3.907-14.376c0.335-5.353-4.404-7.925-9.055-5.007c-5.096,3.197-10.398,6.718-14.137,11.301
	c-11.157,13.679-21.971,27.677-32.189,42.067c-8.28,11.659-15.904,23.835-23.107,36.196c-10.252,17.596-19.851,35.572-29.751,53.374
	c-0.228,0.409-0.728,0.667-1.412,1.27c-8.263-12.099-16.817-5.102-26.417,0.354c0.616-1.914,0.775-3.051,1.31-3.971
	c11.209-19.299,22.693-38.443,33.626-57.897c7.765-13.816,15.146-27.877,22.03-42.151c4.292-8.897,7.546-18.323,10.818-27.669
	c0.939-2.683,0.785-5.982,0.322-8.87c-0.918-5.736-8.646-6.72-14.09-2.223c-10.437,8.619-16.852,20.206-23.789,31.442
	c-1.943,3.146-4.217,6.089-6.339,9.125c-0.548-0.12-1.095-0.239-1.642-0.359c0-1.567-0.622-3.543,0.098-4.638
	c6.082-9.263,12.083-18.613,18.8-27.409c3.4-4.452,7.742-8.63,12.524-11.478c7.555-4.499,14.56-4.88,19.415,2.08
	c1.685,2.414,2.87,5.619,3.071,8.547c0.69,10.06,0.2,20.109-2.929,29.812c-3.479,10.789-7.147,21.517-10.732,32.271
	C840.214,636.685,840.366,636.769,840.518,636.853z"/>
<path fill-rule="evenodd" clip-rule="evenodd" d="M657.065,665.826c-0.28-21.287,6.939-39.918,18.279-57.318
	c11.603-17.803,26.499-32.241,44.967-42.646c11.129-6.271,23.361-9.904,36.336-8.268c11.09,1.399,16.815,9.452,20.104,19.169
	c4.605,13.606,4.724,27.474,2.342,41.687c-2.732,16.301-8.939,30.95-18.071,44.5c-14.282,21.195-33.079,36.978-57.484,44.923
	c-7.604,2.476-16.458,3.352-24.341,2.209c-11.857-1.718-16.513-11.971-19.16-22.352C658.226,680.638,658,673.142,657.065,665.826z
	 M769.082,577.365c-0.265-0.15-0.53-0.301-0.796-0.451c-0.497-2.208-0.578-4.623-1.561-6.589
	c-5.648-11.299-19.024-13.247-30.185-4.55c-7.889,6.146-14.611,14.158-20.65,22.237c-13.543,18.116-23.562,38.354-32.138,59.184
	c-5.297,12.864-9.291,26.284-13.468,39.581c-2.273,7.238,1.461,15.802,7.337,18.641c8.685,4.195,20.235,2.231,27.76-6.216
	c8.362-9.389,16.417-19.226,23.295-29.725c12.71-19.4,23.202-40.104,31.402-61.819C763.79,597.829,766.124,587.479,769.082,577.365z
	"/>
<path fill-rule="evenodd" clip-rule="evenodd" d="M1992.222,569.481c-7.597,0-14.257-0.013-20.916,0.007
	c-2.265,0.007-4.897,0.016-4.235-3.129c0.251-1.19,2.613-2.688,4.065-2.747c6.988-0.287,14.005,0.083,20.987-0.274
	c1.828-0.094,4.378-1.515,5.224-3.071c11.979-22.043,23.717-44.217,35.552-66.339c0.312-0.583,0.997-1.114,1.622-1.313
	c0.283-0.09,1.019,0.612,1.253,1.098c2.967,6.138,7.336,7.783,13.477,4.537c3.418-1.806,6.48-4.282,10.509-6.143
	c-13.044,23.524-26.088,47.049-39.578,71.376c8.272,0,15.548-0.161,22.808,0.092c2.385,0.083,6.718-1.92,6.597,2.611
	c-0.107,4.036-4.192,3.285-7.108,3.291c-7.333,0.017-14.68,0.268-21.994-0.109c-3.413-0.176-5.192,1.287-6.548,3.857
	c-6.913,13.106-13.665,26.3-20.682,39.351c-7.576,14.093-15.596,27.952-23.027,42.119c-6.866,13.088-13.352,26.382-19.69,39.735
	c-1.657,3.491-1.504,7.57,1.497,10.62c3.107,3.158,7.174,2.69,10.175,0.448c6.145-4.589,12.627-9.168,17.42-15.021
	c7.1-8.67,12.771-18.501,19.268-27.685c0.985-1.395,3.139-1.963,4.752-2.914c-0.107,1.888,0.48,4.252-0.434,5.584
	c-5.913,8.61-11.801,17.284-18.405,25.358c-4.871,5.956-10.156,12-16.431,16.289c-11.288,7.717-22.9,3.612-26.422-10.265
	c-3.417-13.47-0.626-26.55,5.162-38.725c8.122-17.087,17.119-33.758,25.728-50.614
	C1979.193,595.079,1985.518,582.64,1992.222,569.481z"/>
<path fill-rule="evenodd" clip-rule="evenodd" d="M2483.248,577.172c-14.269,8.818-24.192,23.352-37.605,33.724
	c-0.573-0.579-1.147-1.158-1.721-1.737c2.596-3.341,4.898-6.966,7.834-9.975c18.091-18.541,38.142-34.728,60.306-48.113
	c5.752-3.474,12.48-5.653,19.037-7.384c7.141-1.886,12.807,4.673,10.211,11.646c-1.436,3.854-3.623,7.979-6.673,10.567
	c-5.945,5.044-8.891,5.094-12.547,0.327c-7.142-9.308-13.458-9.997-25.181,1.635c-7.459,7.4-11.559,16.36-13.554,26.529
	c-1.495,7.621,0.637,14.677,3.403,21.466c3.691,9.061,8.348,17.728,12.062,26.779c6.678,16.273,5.086,31.369-6.68,45.187
	c-11.195,13.148-25.146,20.115-42.267,21.791c-10.276,1.006-19.553-0.6-28.485-5.857c-8.788-5.173-15.081-19.81-12.748-31.251
	c2.579-12.65,7.229-23.767,18.129-31.349c6.538-4.549,13.738-4.547,18.64-0.63c6.118,4.888,5.886,11.212,1.134,19.496
	c-3.576,6.231-8.943,7.262-15.905,3.812c-6.333-3.14-10.831-1.447-14.395,4.707c-10.755,18.578,4.87,35.131,21.412,35.23
	c17.897,0.106,29.067-11.71,35.032-27.361c5.007-13.138,6.758-27.034,6.112-41.105c-0.339-7.383-1.621-14.729-1.835-22.11
	c-0.181-6.248-0.021-12.627,1.062-18.757C2479.083,588.474,2481.504,582.752,2483.248,577.172z"/>
<path fill-rule="evenodd" clip-rule="evenodd" d="M1120.012,576.338c-12.463,11.352-24.923,22.705-37.428,34.01
	c-0.078,0.072-0.759-0.521-2.268-1.588c6.484-6.896,12.418-14.058,19.235-20.245c8.733-7.925,17.886-15.466,27.392-22.444
	c12.176-8.938,24.051-18.54,39.444-21.97c4.198-0.936,7.556-0.156,10.334,2.371c2.965,2.696,2.915,6.421,1.186,9.981
	c-2.427,4.993-4.747,9.96-10.537,12.246c-2.885,1.139-5.023,1.156-7.034-1.243c-0.426-0.508-1.011-0.887-1.41-1.411
	c-7.215-9.456-13.823-9.229-24.833,1.641c-7.467,7.371-11.602,16.267-13.653,26.479c-1.578,7.86,0.655,14.97,3.443,21.895
	c3.531,8.771,8.045,17.143,11.697,25.869c6.94,16.585,5.455,31.959-6.608,46.072c-11.104,12.991-24.935,19.864-41.841,21.601
	c-10.258,1.054-19.55-0.556-28.541-5.677c-8.926-5.083-15.506-20.922-12.988-31.665c2.895-12.357,7.112-23.559,17.995-30.876
	c7.843-5.273,14.041-4.832,19.715-0.033c5.092,4.307,4.71,11.269,0.129,18.868c-3.61,5.991-8.942,7.033-15.576,3.778
	c-6.671-3.274-11.115-1.673-14.722,4.742c-10.38,18.464,4.414,34.674,21.216,34.984c18.126,0.334,29.073-11.205,35.241-27.037
	c5.157-13.24,6.873-27.339,6.199-41.58c-0.342-7.217-1.494-14.393-1.891-21.609c-0.692-12.596,0.674-24.877,7.06-36.184
	C1120.65,576.987,1120.331,576.662,1120.012,576.338z"/>
<path fill-rule="evenodd" clip-rule="evenodd" d="M607.707,576.066c-12.46,11.733-24.921,23.467-37.382,35.201
	c-0.577-0.512-1.153-1.023-1.73-1.534c1.826-2.653,3.311-5.642,5.532-7.907c20.557-20.956,42.634-40.052,68.816-53.76
	c5.316-2.783,11.068-5.523,17.626-3.626c4.394,1.271,7.451,5.334,6.17,9.677c-1.744,5.914-5.439,10.676-10.527,14.214
	c-3.48,2.419-6.698,1.094-9.207-1.551c-9.414-9.922-15.769-9.362-25.231,1.036c-6.506,7.149-10.633,15.093-13.004,24.321
	c-2.635,10.256,0.947,19.329,4.665,28.419c4.247,10.387,9.45,20.454,12.815,31.109c4.094,12.959-0.25,24.676-8.274,35.231
	c-9.499,12.497-22.652,19.179-37.48,22.085c-13.789,2.704-27.544,1.889-38.435-8.882c-8.812-8.716-11.038-19.583-8.059-31.27
	c2.83-11.102,7.606-21.264,17.819-27.799c7.302-4.672,14.953-4.246,20.104,0.993c4.775,4.857,3.192,12.125-1.5,19.25
	c-3.148,4.782-8.476,5.717-14.136,2.983c-7.636-3.687-11.368-2.164-15.515,5.391c-8.656,15.771,1.923,33.06,20.794,34.01
	c18.355,0.924,28.956-11.051,34.874-24.507c5.678-12.908,7.482-26.778,7.311-40.77c-0.126-10.205-1.308-20.394-1.87-30.598
	c-0.562-10.188,1.587-19.838,6.218-28.938c0.314-0.619,0.414-1.348,0.614-2.025C608.378,576.57,608.042,576.318,607.707,576.066z"/>
<path fill-rule="evenodd" clip-rule="evenodd" d="M1647.515,634.953c8.464-11.566,16.647-23.352,25.464-34.643
	c10.54-13.499,21.062-27.156,35.536-36.851c4.425-2.964,9.186-6.215,15.017-4.616c4.784,1.312,7.627,5.438,7.104,9.794
	c-1.281,10.673-4.782,20.774-14.036,27.374c-2.047,1.46-6.061,1.903-8.258,0.873c-1.848-0.867-2.501-4.51-3.42-7.02
	c-0.377-1.029-0.016-2.312-0.072-3.477c-0.216-4.41-2.9-6.413-6.392-3.865c-5.746,4.193-11.551,8.717-16.007,14.181
	c-9.077,11.132-17.686,22.703-25.715,34.614c-8.105,12.022-15.396,24.604-22.816,37.075c-5.739,9.648-11.185,19.474-16.646,29.284
	c-2.39,4.292-4.49,8.744-7.149,13.964c-2.377-7.201-7.942-9.261-14.575-6.327c-3.384,1.496-6.583,3.411-11.011,5.739
	c4.342-7.542,8.124-14.033,11.83-20.568c9.922-17.496,19.974-34.921,29.654-52.549c6.44-11.729,12.675-23.6,18.352-35.711
	c3.85-8.213,6.734-16.897,9.696-25.493c0.88-2.555,0.769-5.526,0.739-8.303c-0.047-4.466-4.025-6.86-8.206-5.26
	c-7.289,2.791-12.169,8.522-16.648,14.372c-7.238,9.451-13.802,19.416-20.832,29.031c-1.144,1.564-3.224,2.443-4.871,3.639
	c0.243-2.029-0.163-4.476,0.831-6.023c10.101-15.729,19.916-31.749,35.984-42.428c3.923-2.608,8.081-4.843,12.742-2.228
	c4.827,2.708,6.739,7.223,7.095,12.71c1.099,16.98-4.197,32.643-9.577,48.314c-1.621,4.722-3.112,9.487-4.663,14.233
	C1646.949,634.845,1647.232,634.899,1647.515,634.953z"/>
<path fill-rule="evenodd" clip-rule="evenodd" d="M1742.757,709.665c-12.623,1.458-20.859-10.31-24.799-23.801
	c-6.762-23.157-0.839-44.354,10.522-64.796c6.23-11.213,14.123-21.009,23.224-29.774c14.525-13.989,30.961-25.2,50.655-30.727
	c5.814-1.631,11.828-2.986,17.188,2.022c5.824,5.443,6.078,11.995,4.703,19.081c-3.197,16.47-13.292,28.118-26.278,37.803
	c-11.67,8.703-24.46,14.84-38.872,17.362c-1.77,0.31-3.65,0.871-5.346,0.567c-5.871-1.053-8.838,1.539-10.957,6.858
	c-4.199,10.542-9.526,20.663-13.251,31.354c-1.827,5.242-2.292,11.582-1.302,17.051c2.054,11.351,11.118,16.003,22.593,12.078
	c6.011-2.057,11.981-5.521,16.725-9.748c14.071-12.539,26.155-26.856,34.952-43.711c0.522-1.002,1.075-2.362,1.953-2.718
	c1.332-0.54,2.963-0.344,4.468-0.461c0.003,1.315,0.528,2.974-0.074,3.892c-4.829,7.356-9.679,14.717-14.912,21.788
	c-4.092,5.53-8.279,11.134-13.238,15.848C1770.423,699.413,1760.124,709.598,1742.757,709.665z M1749.299,632.217
	c0.318,0.479,0.636,0.956,0.953,1.434c2.366-0.388,4.719-0.966,7.1-1.131c9.945-0.692,18.97-4.334,26.31-10.647
	c7.548-6.493,14.846-13.691,20.566-21.773c5.543-7.83,9.354-17.009,13.019-25.966c1.031-2.52-0.291-6.935-2.042-9.415
	c-2.087-2.956-6.219-2.88-9.386-1.098c-4.524,2.547-9.146,5.178-13.016,8.579c-10.935,9.612-19.22,21.471-27.003,33.663
	C1760.224,614.599,1754.794,623.429,1749.299,632.217z"/>
<path fill-rule="evenodd" clip-rule="evenodd" d="M1853.519,709.762c-9.358,0.804-16.705-8.039-21.611-20.689
	c-5.748-14.822-4.657-29.783-0.464-44.777c4.579-16.368,13.133-30.402,24.193-43.184c16.555-19.131,36.078-33.642,60.656-40.759
	c15.305-4.432,23.484,5.837,21.31,19.387c-2.814,17.533-13.305,30.041-27.452,40.19c-11.715,8.405-24.314,14.395-38.442,17.131
	c-2.091,0.404-4.345,0.676-6.415,0.343c-4.395-0.708-7.049,1.064-8.783,4.929c-4.46,9.936-9.685,19.6-13.223,29.849
	c-2.132,6.177-2.635,13.312-2.179,19.898c0.797,11.504,12.136,16.965,22.896,12.521c6.727-2.778,13.275-6.886,18.701-11.74
	c13.293-11.895,24.482-25.665,32.815-41.586c0.524-1.001,1.077-2.362,1.954-2.715c1.334-0.535,2.964-0.334,4.468-0.445
	c-0.001,1.316,0.522,2.978-0.084,3.893c-4.946,7.47-9.911,14.943-15.262,22.124c-3.922,5.262-8.162,10.349-12.738,15.049
	C1883.614,699.701,1872.714,709.276,1853.519,709.762z M1861.811,633.701c3.989-0.521,6.65-0.932,9.326-1.207
	c9.684-0.999,18.678-4.411,25.722-10.827c8.014-7.3,15.631-15.326,21.964-24.09c5.039-6.974,8.342-15.358,11.444-23.488
	c0.982-2.573-0.223-7.249-2.176-9.284c-1.637-1.704-6.539-2.27-8.742-1.059c-6.657,3.659-14.075,7.309-18.714,12.989
	c-10.807,13.233-20.271,27.577-30.041,41.638C1867.489,622.843,1865.137,627.836,1861.811,633.701z"/>
<path fill-rule="evenodd" clip-rule="evenodd" d="M1084.986,246.863c-4.328,9.708-9.553,20.591-14.032,31.771
	c-2.924,7.3-4.046,14.936-2.276,23.039c1.977,9.051,13.101,15.34,23.087,10.883c12.037-5.373,21.703-13.562,29.521-24.01
	c7.436-9.936,14.62-20.061,22.077-29.98c1.234-1.642,3.304-2.656,4.987-3.962c0.641,0.491,1.282,0.981,1.923,1.472
	c-1.035,2.526-1.625,5.373-3.179,7.525c-9.999,13.856-19.492,28.164-32.46,39.576c-8.848,7.785-18.339,14.238-30.837,14.336
	c-7.67,0.061-13.893-2.917-18.262-8.997c-5.815-8.092-8.921-17.242-9.733-27.286c-1.705-21.073,4.664-39.67,15.779-57.297
	c13.412-21.27,31.44-37.312,53.456-48.898c7.713-4.06,15.856-7.46,25.053-7.672c10.109-0.233,14.17,5.296,14.73,14.407
	c0.667,10.828-3.406,20.409-9.685,28.714c-11.372,15.041-26.474,25.347-44.457,30.941
	C1102.945,243.832,1094.776,244.843,1084.986,246.863z M1089.23,240.659c4.527-0.257,8.154-0.074,11.625-0.724
	c18.391-3.439,30.763-15.503,41.638-29.581c6.6-8.543,12.369-17.559,15.035-28.195c0.981-3.918,0.806-8.187-2.941-10.123
	c-2.455-1.269-6.313-1.169-9.069-0.254c-7.752,2.575-13.302,8.275-18.813,14.187c-12.016,12.889-20.881,27.939-30.36,42.584
	C1093.994,232.184,1091.949,236.011,1089.23,240.659z"/>
<path fill-rule="evenodd" clip-rule="evenodd" d="M282.67,668.223c0.282-18.376,4.676-33.991,13.942-47.931
	c6.229-9.369,12.354-19.179,20.334-26.932c14.625-14.21,30.72-26.659,51.166-32.185c5.467-1.477,10.5-2.464,15.785-0.639
	c5.299,1.828,7.427,6.239,7.923,11.423c1.268,13.256-3.776,24.336-12.148,34.213c-10.954,12.923-24.736,21.837-40.543,27.384
	c-6.366,2.233-13.326,3.322-20.083,3.686c-4.158,0.224-6.619,1.68-8.055,4.949c-4.958,11.294-10.028,22.562-14.333,34.11
	c-2.537,6.804-2.815,14.185,0.295,21.073c3.488,7.727,12.347,11.429,23.462,6.71c10.222-4.339,18.643-11.431,25.649-20.128
	c4.84-6.009,9.978-11.786,14.643-17.925c3.045-4.007,5.486-8.472,8.186-12.739c0.698-1.104,1.103-2.599,2.082-3.272
	c1.412-0.971,3.227-1.355,4.869-1.99c-0.084,1.746,0.475,3.918-0.355,5.169c-5.767,8.691-11.397,17.528-17.888,25.668
	c-8.737,10.96-18.37,21.317-31.351,27.332c-9.481,4.395-19.605,6.253-28.827-0.802c-8.114-6.208-11.275-15.508-13.458-25.011
	C282.943,675.937,282.967,671.246,282.67,668.223z M315.885,633.468c2.631,0,3.963,0.128,5.259-0.035
	c1.28-0.161,2.506-0.793,3.785-0.914c12.414-1.172,22.913-6.599,31.498-15.29c6.682-6.765,13.253-13.865,18.535-21.717
	c5.099-7.579,10.385-15.571,9.918-25.563c-0.256-5.468-3.809-8.049-9.128-6.968c-6.921,1.407-12.53,5.296-16.881,10.25
	c-8.41,9.577-16.404,19.585-23.814,29.954C328.37,612.541,322.691,622.619,315.885,633.468z"/>
<path fill-rule="evenodd" clip-rule="evenodd" d="M1322.846,271.165c-0.294,1.892-0.006,4.175-0.974,5.613
	c-8.899,13.233-18.062,26.241-30.899,36.169c-9.735,7.529-20.035,5.638-25.519-5.422c-6.876-13.866-5.276-27.74,0.271-41.718
	c7.083-17.845,18.844-32.715,29.5-48.345c6.765-9.922,12.965-20.269,18.795-30.771c3.479-6.264,2.537-12.088-0.926-14.434
	c-2.904-1.967-8.717,0.139-13.743,4.142c-10.33,8.226-16.516,19.749-24.446,29.883c-2.192,2.802-4.325,5.65-6.485,8.479
	c-0.63-0.165-1.26-0.329-1.89-0.493c0.203-1.816-0.209-4.062,0.711-5.38c5.515-7.9,10.769-16.104,17.225-23.19
	c5.703-6.259,12.418-11.868,19.501-16.522c7.175-4.714,15.012-1.726,19.096,5.962c6.773,12.75,4.814,25.434-0.508,38.027
	c-7.386,17.477-19.161,32.153-30.158,47.345c-7.833,10.82-16.104,21.464-19.754,34.667c-1.428,5.164-1.656,10.354,1.202,15.255
	c1.894,3.248,4.467,4.309,8.146,3.117c9-2.917,14.46-9.94,19.82-17.004c6.116-8.06,11.981-16.309,17.98-24.457
	c0.376-0.511,0.97-0.862,1.462-1.288C1321.784,270.922,1322.315,271.044,1322.846,271.165z"/>
<path fill-rule="evenodd" clip-rule="evenodd" d="M2039.336,606.236c0.157-1.491-0.178-3.298,0.547-4.425
	c9.51-14.814,19.387-29.331,34.448-39.304c9.632-6.378,18.845-3.126,22.975,7.783c4.667,12.328,2.742,24.003-2.249,35.689
	c-7.914,18.529-20.971,33.694-32.162,50.096c-5.576,8.174-10.543,16.784-15.44,25.393c-2.846,5.002-3.765,10.496-2.661,16.37
	c1.34,7.127,5.867,9.504,12.66,6.791c8.334-3.329,12.844-10.706,18.194-16.98c5.466-6.411,9.643-13.91,14.565-20.804
	c1.125-1.574,2.992-2.619,4.518-3.908c0.586,0.416,1.172,0.832,1.757,1.248c-1.562,3.193-2.603,6.809-4.781,9.503
	c-7.854,9.711-15.826,19.358-24.303,28.523c-4.065,4.396-9.225,7.395-15.948,7.437c-6.212,0.038-10.002-3.603-12.248-7.893
	c-7.52-14.361-6.709-29.012-0.537-43.923c7.463-18.031,19.146-33.28,30.192-49.044c6.422-9.164,12.029-18.926,17.556-28.672
	c1.607-2.835,2.213-6.528,2.317-9.858c0.176-5.611-4.636-8.807-9.261-5.731c-5.946,3.953-11.764,8.533-16.413,13.901
	c-6.6,7.619-12.087,16.202-18.043,24.377c-1.076,1.478-2.122,2.978-3.182,4.467C2041.004,606.928,2040.17,606.582,2039.336,606.236z
	"/>
<path fill-rule="evenodd" clip-rule="evenodd" d="M988.09,529.322c1.47-0.607,2.924-1.7,4.41-1.744
	c11.729-0.348,19.066-7.371,25.399-16.162c3.531-4.902,6.858-10.071,11.076-14.329c4.594-4.637,11.351-4.748,16.152-0.052
	c3.344,3.271,1.572,10.056-2.529,15.125c-8.534,10.547-19.981,16.103-33.161,18.285c-5.303,0.877-10.659,1.546-16.018,1.904
	c-1.745,0.116-3.576-1.055-5.368-1.637C988.065,530.249,988.078,529.786,988.09,529.322z"/>
<path fill-rule="evenodd" clip-rule="evenodd" d="M2110.86,517.805c-0.032-9.506,9.143-22.113,17.702-25.268
	c9.011-3.322,12.761,0.479,13,8.677c0.3,10.263-7.668,22.891-17.207,26.237C2115.356,530.608,2110.828,527.296,2110.86,517.805z"/>
<path fill-rule="evenodd" clip-rule="evenodd" d="M1359.54,99.48c7.197,0.012,10.651,5.199,9.244,12.005
	c-1.71,8.278-5.422,15.58-12.274,20.616c-3.004,2.207-6.975,3.549-10.696,4.203c-3.892,0.684-7.688-4.377-7.951-9.537
	c-0.483-9.451,9.22-23.475,18.284-26.378C1357.675,99.9,1359.25,99.557,1359.54,99.48z"/>
</svg>
