<?xml version="1.0" encoding="utf-8"?>
<!-- Generator: Adobe Illustrator 16.0.0, SVG Export Plug-In . SVG Version: 6.00 Build 0)  -->
<!DOCTYPE svg PUBLIC "-//W3C//DTD SVG 1.1//EN" "http://www.w3.org/Graphics/SVG/1.1/DTD/svg11.dtd">
<svg version="1.1" id="Layer_1" xmlns="http://www.w3.org/2000/svg" xmlns:xlink="http://www.w3.org/1999/xlink" x="0px" y="0px"
	 width="2410px" height="309px" viewBox="0 0 2410 309" enable-background="new 0 0 2410 309" xml:space="preserve">
<g>
	<path d="M193,220c-2.288-1.032-2.167-1.715-4-3c0.187-21.346,2.797-38.858,7-56c5.73-23.372,6.607-47.013,12-69
		c5.174-21.094,0.448-42.384,18-51c0-0.667,0-1.333,0-2c-10.742,0.897-19.014,5.554-26,10c-8.177,37.768-12.357,79.229-22,117
		c-3.072,12.034-2.739,40.442-8,49c-0.12,6.199,0.08,11.404,2,15c10.423-0.047,32.023-3.462,38-8c0.667,0,1.333,0,2,0c0-1,0-2,0-3
		C207.103,219.741,197.636,223.112,193,220z"/>
	<path d="M435,47c-0.533,16.086-3.607,33.507-7,48c-1.943,8.299,0.067,18.731-4,25c0,0.667,0,1.333,0,2
		c-44.296-1.915-53.384,23.963-63,60c-3.71,13.903-6.365,34.425,1,46c17.014,3.926,37.014,0.187,47-9c2.285,1.469,2.936,8.71,4,11
		c11.312-0.203,27.401-4.109,34-10c0.333,0,0.667,0,1,0c0-0.667,0-1.333,0-2c-6.91,0.665-10.59,2.446-16,0
		c-4.405-11.421-0.664-31.192,2-43c0.667-7.666,1.333-15.334,2-23c5.366-23.148,6.175-49.524,12-72c3.314-12.787,1.611-33.294,11-40
		c0-0.333,0-0.667,0-1c-2,0-4,0-6,0C451.939,39.792,436.106,46.698,435,47z M414,192c-1.567,6.624,0.696,18-3,23
		c-1.333,1.803-3.672,0.987-6,2c-10.336,4.497-17.437,3.613-26-2c-6.936-30.204,5.717-82.382,27-89c6.307-1.961,11.947,2.278,17,3
		C422.864,148.562,418.27,173.957,414,192z"/>
	<path d="M583,96c2-13.999,4-28.001,6-42c1.808-4.798,6.27-8.123,9-12c1,0,2,0,3,0c0-1,0-2,0-3c-9.564,1.372-17.769,5.548-25,9
		c-5.486,24.405-8.756,51.704-15,76c-3.627,14.114-2.394,26.88-6,41c-4.81,18.833-10.668,43.81-9,64c0.333,0.333,0.667,0.667,1,1
		c10.822-0.049,32.789-3.32,39-8c0.667,0,1.333,0,2,0c0-1,0-2,0-3c-5.266,0.558-14.149,4.239-19,1c-1-0.333-2-0.667-3-1
		c-3.144-14.463,0.493-33.782,4-48C576.215,145.799,577.062,119.902,583,96z"/>
	<path d="M1044,49c-7.999,43.329-16.001,86.671-24,130c-3.187,12.897-3.226,25.937-6,38c-0.712,3.097-0.034,8.414,1,10
		c0.333,1,0.667,2,1,3c10.634-0.062,32.536-3.499,39-8c0.758-1.076,0.628-0.924,1-3c-2.75,0.284-7.08,0.704-9,2
		c-3.333,0-6.667,0-10,0c-7.23-3.399-2.057-38.561,0-47c7.329-30.071,9.621-63.083,17-93c4.491-18.206,1.006-32.617,16-40
		c0-0.667,0-1.333,0-2C1062.275,39.499,1047.132,43.53,1044,49z"/>
	<path d="M1722,47c-4.503,5.763-2.057,16.602-4,25c-2.667,16.332-5.333,32.668-8,49c-6.45,1.882-15.892-0.883-23,2
		c-28.378,11.509-32.92,30.137-41,62c-1.616,6.373-7.067,27.107-2,35c0.604,5.558,2.666,5.571,5,9c10.344,1.112,22.626,1.515,31-2
		c5.614-2.357,9.857-6.913,17-8c-0.051,4.068,0.076,8.333,1,11c12.081-0.237,27.537-4.125,35-10c0.333,0,0.667,0,1,0
		c0-0.667,0-1.333,0-2c-6.49,0.553-9.907,1.686-16,1c-5.296-12.337-0.758-34.946,2-47c0.667-7.666,1.333-15.334,2-23
		c5.389-22.841,6.148-48.871,12-71c3.048-11.528,1.096-31.438,10-37c0-0.667,0-1.333,0-2C1735.253,39.154,1726.238,42.108,1722,47z
		 M1697,210c-0.76,9.333-21.334,14.523-28,8c-6.473-2.666-9.313-17.312-7-28c6.871-31.743,7.547-43.44,27-63
		c2.054-0.399,1.927-0.248,3-1c5.31,0.035,10.949,0.588,14,3c1,0.333,2,0.667,3,1C1705,156.664,1701,183.336,1697,210z"/>
	<path d="M2285,55c-9.737,7.561-24.617,15.508-16,35c3,3.667,6,7.333,9,11c17.496,4.73,20.848,2.246,33-6
		C2317.522,72.028,2314.801,54.018,2285,55z M2307,84c-6.321,6.825-5.863,12.256-20,12c-14.17-13.185-16.509-18.749-1-33
		c3.333,0,6.667,0,10,0c2.407,2.391,6.18,5.208,9,7C2306.062,74.388,2307.104,77.778,2307,84z"/>
	<path d="M143,106c1.457-9.396,6.144-16.486,8-26c-11.471-10.589-37.185-12.377-56-7c-40.784,11.656-55.446,30.036-65,73
		c-1.792,8.061,1.168,17.083,3,22c4.445,11.933,11.618,22.258,23,27c19.491,8.121,55.683-4.974,65-14c0.333,0,0.667,0,1,0
		c-2.643,39.214-21.803,91.424-47,108c-18.952,12.468-54.562,13.096-63-10c-2.239-6.127-0.494-13.917,0-20c-1,0-2,0-3,0
		c-0.807,10.823-10.962,29.812-3,38c7.69,18.955,55.445,7.003,67,0c34.889-21.144,46.382-42.812,60-85
		c5.125-15.877,6.149-34.044,10-50c2.593-10.743,0.416-17.686,8-23c0-0.667,0-1.333,0-2c-7.483,2.073-13.039,6.935-21,8
		c-1.137,18.566-12.634,36.543-27,42c-24.627,9.354-43.908-6.854-50-23c-3.92-10.391-3.725-27.285-1-38
		c7.188-28.264,18.586-41.825,47-49c5.835-1.474,16.857-1.818,23,0c6.938,2.054,12.672,6.419,18,10c1.366,4.925,3.551,13.066,0,18
		C141.075,105.758,140.924,105.628,143,106z"/>
	<path d="M851,73c-13.573,5.036-20.849,14.01-25,29c-0.889,3.211-2.055,11.796,0,15c0.362,3.749,0.775,3.719,2,6
		c4.323-0.287,8.148-0.607,9-4c0.927-3.694-3.248-5.688-4-8c-2.406-7.392-0.03-16.779,3-22c4.828-8.319,15.021-7.63,23-13
		c5.28-0.209,11.568-0.758,14,2c0.042,0.05,0.766,7.068,0,10c-2,12.999-4,26.001-6,39c-6.406,39.938-8.653,82.044-23,115
		c-2.915,6.696-6.711,15.146-11,21c-2.43,3.317-7.137,3.987-9,8c-2.054,0.399-1.927,0.249-3,1c-12.585-0.225-13.383-6.527-20-12
		c-0.333-0.333-0.667-0.667-1-1c-1.9,3.315-2.686,9.434-5,13c-0.066,3.104-0.142,6.31,1,8c18.306,14.147,37.651-13.236,45-21
		c27.555-29.113,30.775-75.801,42-122c4.406-18.134,2.813-57.106,16-65c0-0.667,0-1.333,0-2c-11.332,0-22.668,0-34,0
		C861.167,72.371,855.628,71.283,851,73z"/>
	<path d="M1492,182c-5.101,3.975-10.563,4.119-18,6c-27.866,7.048-39.196-15.901-44-36c-8.301-34.728,19.274-67.079,40-74
		c18.659-6.231,47.453-0.398,52,14c-0.667,4.666-1.333,9.334-2,14c0.667,0,1.333,0,2,0c2.667-7,5.333-14,8-21
		c-0.182-16.039-26.138-15.65-43-15c-6.369,3.938-20.747,3.88-28,7c-27.127,11.67-41.709,33.029-49,65
		c-6.389,28.014,11.977,48.412,29,54c18.16,5.961,54.184-6.427,61-15c0.333,0,0.667,0,1,0c-0.243,37.344-22.432,91.941-45,107
		c-18.94,12.638-53.867,15.276-64-8c-2.159-4.96-1.11-14.416-1-21c-4.321,2.449-8.317,26.479-8,35c2.84,2.812,4.515,6.836,8,9
		c13.891,8.622,44.154,3.062,56-3c38.101-19.499,54.345-48.941,67-94c4.765-16.965,5.175-58.821,17-67c0-0.667,0-1.333,0-2
		c-7.782,1.958-13.155,6.313-21,8C1507.174,159.397,1501.701,174.441,1492,182z"/>
	<path d="M2072,78c0-2.667,0-5.333,0-8c-16.823,1.045-21.459,16.292-27,29c-10.956,25.127-21.508,60.09-23,93c-0.333,0-0.667,0-1,0
		c-7.52-36.933-21.128-97.465-47-115c-33.978-23.029-78.003,8.671-80,42c1,0,2,0,3,0c0.67-20.284,22.108-45.163,48-36
		c10.545,3.732,15.483,10.78,23,17c-0.438,35.784-20.31,73.086-36,95c-6.355,8.877-11.961,17.979-22,23
		c-6.48,3.241-12.357,2.141-20,2c-8.763-8.303-7.027-8.119-12-20c-8.008,0.721-9.866,5.564-15,9c-0.12,5.046-0.133,9.333,2,12
		c6.328,18.226,36.404,9.254,48,2c26.557-16.615,38.585-48.165,51-79c4.263-10.589,3.078-24.646,9-34c0.333-0.333,0.667-0.667,1-1
		c16.219,32.68,38.953,72.922,36,120c5.17-0.58,9.649-4.177,13-7c1.667-15.332,3.333-30.668,5-46
		C2037.171,137.432,2041.688,95.431,2072,78z"/>
	<path d="M640,88c0.396-3.752,1.869-7.163,0-10c-1.559-2.878-3.595-3.043-8-3c-0.769,0.689-2.229,1.318-3,2
		c-4.034,1.634-2.832,3.814-5,7c-0.043,5.036,0.487,7.194,2,10C635.694,94.187,635.344,91.988,640,88z"/>
	<path d="M1796,91c0-1.333,0-2.667,0-4c-6.782,1.612-21.456,8.759-26,13c-3.457,5.027-4.042,19.861-4,27
		c-6.666,0.333-13.334,0.667-20,1c0,1.333,0,2.667,0,4c5.745,0.441,12.045,1.061,19,1c-3.971,30.166-13.244,61.046-12,93
		c1.188,1.133,2.146,2.54,3,4c13.243-0.035,32.526-3.253,40-9c0.333,0,0.667,0,1,0c0-0.667,0-1.333,0-2
		c-7.427,1.563-13.658,2.23-21,2c-1.382-1.484-3.242-2.919-5-4c-5.947-29.353,8.477-56.198,9-84c7.189,0.125,17.45,0.996,22-2
		c0.758-1.076,0.628-0.924,1-3c-6.999-0.333-14.001-0.667-21-1C1782.422,114.083,1785.914,94.555,1796,91z"/>
	<path d="M2187,218c-7.199-29.911,5.985-58.735,9-85c4.305,0.126,11.356,0.749,14-1c4.779-0.006,6.33-0.559,9-2c0-0.667,0-1.333,0-2
		c-7.333-0.333-14.667-0.667-22-1c1.137-16.059,5.419-30.195,15-38c0-0.667,0-1.333,0-2c-10.47,1.56-20.1,9.125-28,14
		c-1,8.666-2,17.334-3,26c-6.666,0.333-13.334,0.667-20,1c0,1.333,0,2.667,0,4c5.745,0.441,12.046,1.061,19,1
		c-2.643,30.91-15.318,61.349-11,95c0.333,0.333,0.667,0.667,1,1c11.109,2.169,34.732-2.434,41-8c0.333,0,0.667,0,1,0
		c0-0.667,0-1.333,0-2C2201.671,221.212,2195.021,221.898,2187,218z"/>
	<path d="M319,169c19.105-9.922,27.811-15.793,27-43c-1.188-1.133-2.146-2.54-3-4c-11.754-2.834-27.626-2.217-34,6
		c-0.667,0-1.333,0-2,0c0.333-4,0.667-8,1-12c-10.812-0.608-14.153,2.014-15,11c-5.158-1.544-9.196-4.771-15-6
		c-8.77-1.856-17.326,4.958-22,8c-18.754,12.208-23.305,28.456-31,52c-2.327,7.121-9.874,37.271-3,46c0.333,1,0.667,2,1,3
		c18.597-0.143,27.446-5.848,40-11c3.475-1.426,6.411-1.026,9-3c5.57,2.894,7.49,10.316,14,13c24.894,10.262,41.131-15.164,56-20
		c0-1.333,0-2.667,0-4c-7.871,2.433-27.121,19.715-38,11c-5.837-1.942-15.411-23.771-9-33C296.493,174.559,312.164,172.55,319,169z
		 M316,127c2.054-0.399,1.927-0.248,3-1c6.306-0.209,8.552,0.332,10,5c2.134,2.945,1.665,6.731,1,10
		c-3.663,18.004-10.049,22.03-24,29c-3.435,1.716-6.404,1.726-9,4c-0.333,0-0.667,0-1,0C298.884,152.649,306.816,141.178,316,127z
		 M277,189c-1.145,4.41-1.729,20.958-4,23c-2.789,2.508-23.905,8.187-29,5c-7.108-3.023-6.128-21.164-4-30
		c6.684-27.749,8.684-44.538,28-60c9.394,0.469,14.805,4.419,21,8C288.371,151.996,281.122,173.123,277,189z"/>
	<path d="M2290,217c-1.401-25.14,4.657-54.354,11-77c1.942-6.936,4.751-14.415,5-23c-10.012,0.356-8.852,4.262-14,7
		c-3.476,1.848-18.386-4.533-26-2c-26.526,8.826-34.643,31.653-43,59c-2.254,7.374-9.916,37.081-3,46c0,0.667,0,1.333,0,2
		c21.627,3.912,32.248-9.727,50-12c-0.399,2.054-0.249,1.927-1,3c-0.044,5.036,0.487,7.194,2,10c12.21-0.103,32.653-6.133,39-12
		c0.333,0,0.667,0,1,0c0-0.667,0-1.333,0-2c-5.666,1.333-11.334,2.667-17,4C2292.867,218.812,2291.46,217.854,2290,217z M2270,212
		c-2.118,2.649-22.809,8.237-28,5c-1-0.333-2-0.667-3-1c-6.346-28.407,4.752-64.347,17-82c2.353-3.391,6.803-4.395,10-7
		c9.291,0.417,15.029,3.544,21,7C2281.334,159.998,2275.666,186.002,2270,212z"/>
	<path d="M727,120c-0.333,1-0.667,2-1,3c-3.783,1.997-15.788-3.244-22-1c-8.157,2.947-15.901,8.839-22,14
		c-1.472,1.246-3.427,0.844-5,2c-12.98,9.539-15.386,27.742-20,46c-2.025,8.013-7.356,33.704-1,42c0.333,1,0.667,2,1,3
		c15.094,2.893,40.203-6.926,48-14c0.333,0,0.667,0,1,0c-2.021,30.355-14.018,58.87-31,75c-5.416,5.145-20.443,14.586-30,6
		c-8.691-2.903-10.491-12.729-10-25c-5.887,3.526-8.863,9.027-14,13c-0.058,11.222,2.873,13.861,7,20
		c26.454,6.304,40.443-3.114,57-15c13.042-9.363,24.405-21.454,31-37c6.601-15.562,5.567-33.431,10-52
		c4.666-26.664,9.334-53.336,14-80c-2.205-1.015-2.838-1.599-6-2C732.314,119.122,728.879,118.845,727,120z M706,211
		c-5.768,1.78-19.691,11.593-28,6c-6.562-2.771-6.569-20.952-5-31c2.423-15.521,7.328-42.947,16-52c2.351-2.454,7.315-2.903,10-5
		c10.366-0.005,15.504,1.916,22,5C720.193,155.286,713.501,195.201,706,211z"/>
	<path d="M1302,120c-0.333,1-0.667,2-1,3c-3.494,1.839-15.238-2.85-21-1c-29.29,9.403-38.386,26.585-47,57
		c-1.744,6.157-7.725,35.641-3,43c0.54,5.074,1.943,4.909,4,8c16.487-0.053,37.83-7.443,46-15c0.333,0,0.667,0,1,0
		c-1.079,23.491-14.268,63.499-28,74c-3.329,2.546-7.317,6.414-11,8c-2.605,1.122-5.038,0.597-7,2c-19.961,0.599-25.784-9.796-24-28
		c-6.521,2.338-9.551,9.346-15,13c-0.053,7.046,0.86,12.192,4,16c13.874,19.771,52.525-4.251,62-12c12.211-9.986,23.84-22.212,30-38
		c8.612-22.073,6.858-49.005,13-74c4.228-17.207,9.558-38.122,10-57C1310.868,118.561,1305.911,117.635,1302,120z M1287,190
		c-1.632,6.176-0.524,12.893-4,17c-2.894,8.241-17.427,11.423-29,11c-1.133-1.188-2.54-2.146-4-3c-7.496-18.962,2.345-53.369,8-67
		c3.041-7.33,5.063-14.708,13-17c0.855-0.663,3.14-1.352,4-2c6.522-0.092,13.347,0.119,17,3c2.319,0.743,2.234,1.039,4,2
		C1295.559,153.048,1291.436,173.213,1287,190z"/>
	<path d="M503,171c20.595-9.018,31.939-16.893,31-45c-1.188-1.133-2.146-2.54-3-4c-5.136-1.231-10.621-2.144-18-2
		c-7.685,5.288-16.971,6.529-24,12c-16.095,12.527-18.401,34.479-24,58c-1.656,6.958-3.733,19.14-1,27c1.276,3.67,4.944,6.927,7,10
		c36.722,9.397,35.252-10.323,59-18c0-1.333,0-2.667,0-4c-7.871,2.433-27.121,19.715-38,11c-7.507-2.505-15.365-25.388-8-35
		C487.031,175.229,496.77,173.728,503,171z M506,126c6.677-0.291,9.461,0.071,11,5c2.221,3.204,1.514,7.555,1,11
		c-3.889,26.045-18.493,19.294-33,32c-0.333,0-0.667,0-1,0C484.648,150.748,493.86,137.836,506,126z"/>
	<path d="M1201,122c-4.941-1.188-9.898-2.14-17-2c-8.728,6.032-20.573,6.847-28,14c-15.908,15.32-33.14,68.177-16,94
		c17.301,4.113,24.667,0.988,36-6c5.146-3.173,10.399-4.42,15-8c9.458-7.36,11.415-23.592,15-37
		C1212.118,154.12,1212.561,138.826,1201,122z M1193,167c-1.097,18.431-7.633,47.812-23,52c-4.855,3.52-11.481,0.285-16-2
		c-6.882-26.552-2.974-67.062,13-83c1.815-1.811,5.156-2.234,7-4c4.656-0.113,7.725-0.093,10,2
		C1193.406,135.49,1193.811,153.389,1193,167z"/>
	<path d="M1615,121c-4.413-0.551-9.368-1.067-15-1c-8.416,5.803-21.684,6.988-29,14c-15.001,14.377-32.857,67.759-16,94
		c22.682,5.397,48.466-6.826,57-21c5.292-8.789,5.899-17.846,9-29c3.507-12.614,8.018-40.244,0-52
		C1619.627,123.986,1616.587,122.991,1615,121z M1589,218c-4.685,3.128-8.915,2.253-15,2c-2-1.667-4-3.333-6-5
		c-4.961-40.438-0.56-64,21-85c3,0,6,0,9,0c2.686,2.805,6.469,5.085,8,9C1615.183,162.486,1601.539,209.627,1589,218z"/>
	<path d="M2149,120c-9.09,0.182-10.789,3.515-16,7c1.203,7.48,6.201,11.717,8,19c6.125,24.795-17.832,53.198-26,67
		c-0.667,0-1.333,0-2,0c-4.315-10.488-3.777-22.879-7-35c-4.378-16.47-9.605-37.545-10-56c-0.333-0.333-0.667-0.667-1-1
		c-13.332,2-26.668,4-40,6c0.646,1.726,0.196,0.979,1,2c3.751,2.343,11.673,0.554,15,3c9.061,3.116,9.951,15.646,13,25
		c6.19,18.991,13.052,49.742,15,71c1.333,0,2.667,0,4,0c-2.146,7.088-7.51,11.398-11,17c-7.167,11.503-12.524,22.779-20,34
		c-2.82,4.232-12.494,15.5-7,24c0.333,1,0.667,2,1,3c6.82,0.196,9.794-3.357,17-5c-1.204-5.41-5.235-12.744-3-21
		c4.062-15.006,16.038-28.03,24-40c8.749-13.155,15.568-26.486,24-40c8.632-13.835,20.052-27.533,25-45
		c2.545-8.986,0.382-20.853,0-30C2151.516,123.618,2150.081,121.758,2149,120z"/>
	<path d="M643,215c-5.493,0.946-14.345,6.775-20,3c-1-0.333-2-0.667-3-1c-7.045-32.88,11.808-63.355,12-96
		c-12.332,2.333-24.668,4.667-37,7c0,0.667,0,1.333,0,2c3.626,0.189,12.241,0.223,15,2c0.667,0,1.333,0,2,0
		c3.205,18.444-5.706,52.19-10,69c-1.868,7.313-4.878,21.964-1,27c0.333,0.667,0.667,1.333,1,2c19.044-0.298,26.015-8.689,41-12
		C643,217,643,216,643,215z"/>
	<path d="M985,222c-1.902-0.341-5.215-2.297-7-3c-4.214-22.9,3.565-48.803,9-67c2.32-7.768,1.778-17.85,6-24c0-2.333,0-4.667,0-7
		c-6.333,2-12.667,4-19,6c-1.404,17.466-4.997,36.179-9,52c-2.29,9.049-0.511,20.04-5,27c-0.325,10.677-20.161,14.737-28,11
		c-5.036-22.88,2.482-51.88,8-72c1.892-6.899,0.548-14.761,4-20c-0.325-2.307-0.465-2.484-1-4c-11.359,1.546-22.326,5.024-35,5
		c-0.333,0.333-0.667,0.667-1,1c0.645,1.726,0.196,0.979,1,2c2.79,1.747,10.185,0.3,13,2c0.667,0,1.333,0,2,0
		c2.334,13.578-1.908,31.544-5,44c-1,7.666-2,15.334-3,23c-1.53,6.026-6.755,23.046-3,29c0.333,1,0.667,2,1,3
		c20.239-0.439,28.635-11.838,46-13c-0.333,4.333-0.667,8.667-1,13c12.035-0.039,28.285-1.552,36-7c0.667,0,1.333,0,2,0
		c0-0.667,0-1.333,0-2C993.44,218.947,986.644,222.294,985,222z"/>
	<path d="M2399,124c-4.007-0.817-9.61-1.089-15-1c-5.016,5.396-12.641,12.238-19,16c0-0.333,0-0.667,0-1
		c-0.707-1.357,0.293-9.691,2-12c-0.2-2.596-0.442-3.396-1-5c-11.581,1.65-22.673,5.686-36,6c0,1,0,2,0,3
		c5.9-0.004,11.354,0.468,16,1c0,0.333,0,0.667,0,1c4.769,6.534-0.067,20.127-1,28c-2.812,23.737-14.574,46.516-15,70
		c7.698-0.351,10.06-2.873,18-3c1.542-20.1,6.162-41.657,11-60c1.876-7.112,0.47-15.421,4-21c3.605-5.697,11.226-7.438,16-12
		c2.333,0.333,4.667,0.667,7,1c3.266,3.401,5.701,5.376,7,11c8.64-0.875,6.413-8.411,10-14
		C2402.46,126.926,2401.057,127.091,2399,124z"/>
</g>
</svg>
