<?xml version="1.0" encoding="utf-8"?>
<!-- Generator: Adobe Illustrator 16.0.0, SVG Export Plug-In . SVG Version: 6.00 Build 0)  -->
<!DOCTYPE svg PUBLIC "-//W3C//DTD SVG 1.1//EN" "http://www.w3.org/Graphics/SVG/1.1/DTD/svg11.dtd">
<svg version="1.1" id="Lag_1" xmlns="http://www.w3.org/2000/svg" xmlns:xlink="http://www.w3.org/1999/xlink" x="0px" y="0px"
	 width="2698.006px" height="437.546px" viewBox="0 0 2698.006 437.546" enable-background="new 0 0 2698.006 437.546"
	 xml:space="preserve">
<path fill-rule="evenodd" clip-rule="evenodd" d="M97.34,85.554c-8.23,1.937-14.233,6.083-19.355,11.896
	c-1.131,1.284-4.268,2.307-5.565,1.647c-3.521-1.788-0.287-3.794,0.828-5.188c6.181-7.742,12.375-15.352,22.374-18.832
	c3.658-1.272,6.953-3.57,7.864-8.842c1.153-6.677,4.443-12.974,6.668-19.482c0.886-2.594,1.345-5.33,2.074-7.981
	c0.999-3.635,2.186-7.222,3.084-10.88c1.97-8.02,0.092-11.055-6.774-15.041c-7.292-4.233-15.3-3.926-23.019-4.354
	C75.634,7.948,65.334,7.532,55.832,9.73c-7.771,1.797-16.287,3.618-22.784,9.616c-3.195,2.95-7.664,4.534-10.804,7.526
	c-8.042,7.663-9.737,17.487-8.77,28.198c0.857,9.494,6.998,15.263,14.196,19.616c3.643,2.202,8.839,1.924,13.363,2.544
	c2.11,0.289,4.293,0.05,6.795,0.05c0,1.967,0,3.681,0,5.943c-9.938-0.281-20.136,1.672-29.256-4.633
	c-1.396-0.965-3.683-0.678-5.015-1.687c-5.218-3.95-9.478-8.508-11.54-15.17c-2.49-8.045-2.982-15.972,0.277-23.579
	c2.365-5.522,5.788-10.705,9.413-15.533c2.358-3.14,5.667-5.78,9.022-7.896c3.605-2.272,7.644-4.04,11.712-5.351
	c4.464-1.438,9.233-1.902,13.768-3.155c6.321-1.747,12.539-3.862,18.824-5.744c0.926-0.277,1.977-0.184,2.97-0.188
	c4.333-0.018,8.71-0.403,12.99,0.073c9.429,1.05,18.926,2.01,28.169,4.036c6.32,1.386,12.385,4.243,18.292,7.023
	c1.725,0.812,2.613,3.56,3.674,5.534c0.342,0.636,0.215,1.705-0.046,2.455c-2.855,8.194-6.015,16.29-8.619,24.562
	c-2.593,8.238-4.648,16.646-6.984,25.145c12.251,0.404,24.268,0.799,36.006-2.827c3.778-1.167,10.562-11.39,11.845-16.359
	c1.59-6.163,4.363-12.012,6.41-18.068c1.215-3.596,2.015-7.331,3.225-11.835c-4.568,0.94-7.808,1.607-11.722,2.413
	c3.38-9.381,17.648-17.002,28.587-15.575c-13.471,43.297-30.351,85.297-43.668,128.436c0.628,0.523,1.257,1.047,1.885,1.57
	c4.128-1.998,8.256-3.996,12.384-5.993c0.303,0.326,0.605,0.652,0.908,0.979c-0.333,1.119-0.364,2.483-1.045,3.318
	c-6.539,8.015-15.386,12.576-24.923,15.821c-1.254,0.427-4.693-1.409-4.737-2.313c-0.181-3.695,0.318-7.486,1.061-11.141
	c0.417-2.048,2.021-3.823,2.713-5.85c3.69-10.799,7.112-21.691,10.923-32.447c2.786-7.86,6.031-15.559,9.489-24.398
	c-5.308,1.37-10.04,1.682-13.775,3.772c-5.389,3.018-10.863,3.811-16.748,3.67c-2.498-0.06-5-0.011-7.499-0.01
	c-5.878,0.004-7.805,2.269-8.755,8.065c-0.621,3.79-2.695,7.331-4.014,11.021c-0.527,1.473-0.528,3.162-1.19,4.553
	c-2.684,5.643-5.576,11.186-8.303,16.808c-1.917,3.95-3.28,8.234-5.637,11.888c-2.736,4.239-5.968,8.278-9.572,11.804
	c-4.026,3.938-8.774,7.129-13.09,10.784c-3.538,2.997-8.493,2.699-11.891,4.59c-5.157,2.87-10.034,2.066-15.088,2.441
	c-1.081,0.08-2.357-0.179-3.264-0.736c-0.796-0.489-1.553-1.575-1.656-2.476c-0.07-0.605,0.9-1.644,1.631-1.956
	c1.161-0.496,2.522-0.799,3.779-0.742c6.701,0.298,12.227-1.27,18.235-5.25c4.811-3.188,9.543-5.974,13.585-10.285
	c5.675-6.055,9.842-13.009,13.405-20.309c3.076-6.302,5.58-12.923,7.829-19.575C94.66,97.415,95.773,91.673,97.34,85.554z"/>
<path fill-rule="evenodd" clip-rule="evenodd" d="M2052.538,353.119c-7.283,0.575-14.104,3.063-18.389,9.114
	c-2.445,3.455-4.837,4.053-9.814,3.907c1.375-2.793,2.007-5.402,3.614-7.077c3.761-3.92,7.941-7.445,12.041-11.029
	c4.225-3.693,9.703-3.795,14.817-4.653c2.951-0.495,4.58-0.867,5.811-4.383c1.891-5.402,5.612-10.142,8.311-15.292
	c2.03-3.878,3.504-8.048,5.537-11.925c2.027-3.867,4.383-7.566,6.701-11.273c2.735-4.376,5.517-8.728,8.434-12.982
	c0.733-1.07,2.242-1.584,3.087-2.606c4.579-5.54,8.878-11.322,13.66-16.676c2.146-2.401,4.93-4.767,7.892-5.776
	c4.2-1.433,1.988-3.614,0.703-4.559c-2.627-1.931-5.65-3.747-8.775-4.485c-6.158-1.456-12.875-1.172-18.661-3.412
	c-6.503-2.518-12.931-2.062-19.21-1.514c-10.059,0.881-20.916,1.222-29.713,5.411c-8.186,3.897-17.168,8.163-23.121,16.371
	c-7.087,9.772-7.685,28.696-0.732,36.774c6.191,7.194,14.712,10.435,24.286,10.171c3.333-0.092,5.947,0.434,7.379,4.145
	c-4.658,2.306-8.55,4.008-14.054,1.238c-4.26-2.145-9.835-1.986-14.855-2.231c-6.562-0.32-10.705-5.252-13.915-9.154
	c-7.795-9.478-10.046-20.966-5.388-32.921c3.487-8.949,9.01-16.412,17.568-21.195c4.104-2.293,8.354-4.333,12.587-6.386
	c2.96-1.436,5.922-2.934,9.021-4.002c15.993-5.511,32.403-6.773,49.125-4.49c5.185,0.708,10.474,0.968,15.526,2.202
	c3.541,0.864,6.788,2.985,10.123,4.634c4.454,2.201,8.673,5.219,13.369,6.456c2.688,0.709,6.085-1.624,9.231-2.22
	c4.491-0.85,9.046-1.869,13.575-1.875c4.499-0.006,9,1.152,13.36,1.78c0.922,6.901-0.217,7.8-6.89,7.112
	c-5.901-0.607-11.852-0.835-17.787-0.96c-1.875-0.039-3.768,0.794-4.999,1.078c3.065,5.684,6.314,11.217,9.093,16.977
	c4.108,8.518,3.238,18.112,1.43,26.407c-1.201,5.511-1.031,12.748-6.234,17.312c-0.343,0.301-0.53,0.825-0.691,1.28
	c-2.022,5.686-3.988,11.393-6.045,17.065c-2.729,7.53-5.554,15.025-8.284,22.556c-1.171,3.231-2.293,6.487-3.256,9.784
	c-0.326,1.117-0.548,3.125-0.024,3.449c1.068,0.664,2.877,0.971,4.019,0.515c2.454-0.979,4.659-2.571,7.013-3.826
	c0.608-0.324,1.39-0.323,2.158-0.486c0.219,7.938-18.414,20.457-28.861,19.446c0.181-5.525-0.847-10.794,3.222-16.131
	c3.102-4.068,3.777-9.95,5.722-14.952c0.904-2.324,2.439-4.402,3.354-6.724c0.877-2.226,1.32-4.621,2.438-8.714
	c-3.029,1.26-4.654,2.02-6.337,2.617c-3.052,1.084-6.07,2.529-9.226,3.006c-6.824,1.029-13.718,1.63-20.598,2.236
	c-5.42,0.477-11.066-0.053-16.209,1.348c-2.619,0.713-4.543,4.553-6.443,7.221c-4.217,5.922-7.072,13.568-12.604,17.603
	c-6.638,4.84-12.687,10.67-21.381,13.462c-10.222,3.282-19.886,4.071-30.039,2.247c-1.823-0.327-4.604-2.567-4.622-3.955
	c-0.025-1.962,1.833-4.215,3.397-5.854c1.484-1.556,2.928-3.388,5.873-0.615c2.062,1.939,6.137,1.636,9.229,2.602
	c9.71,3.032,17.286-1.896,25.252-6.175c4.432-2.381,6.5-6.481,9.421-9.997c2.248-2.706,4.429-5.482,6.433-8.372
	c1.652-2.383,3-4.978,4.482-7.479C2053.293,353.897,2052.916,353.508,2052.538,353.119z M2068.915,343.069
	c5.213-0.281,9.938-0.396,14.633-0.822c6.207-0.565,12.525,1.431,18.668-1.822c4.683-2.48,10.336-3.19,14.883-5.844
	c3.261-1.902,6.256-5.32,7.854-8.766c2.516-5.42,3.971-11.376,5.478-17.208c1.507-5.834,3.128-11.754,3.532-17.716
	c0.241-3.543-2.423-7.205-2.615-10.875c-0.304-5.791-4.773-9.07-7.118-13.586c-0.298-0.574-3.136-0.668-3.98,0.019
	c-5.001,4.066-9.87,8.311-14.577,12.716c-8.398,7.86-13.704,18.001-19.586,27.647c-3.3,5.413-4.916,11.913-8.521,17.063
	C2073.463,329.737,2070.829,335.899,2068.915,343.069z"/>
<path fill-rule="evenodd" clip-rule="evenodd" d="M1943.347,20.007c-4.183,0.848-7.755,1.571-11.835,2.398
	c2.59-8.39,18.23-16.884,28.309-15.526c-0.906,3.36-1.701,6.604-2.658,9.799c-2.47,8.24-4.824,16.523-7.59,24.664
	c-1.796,5.284-4.356,10.305-6.335,15.533c-0.966,2.552-1.171,5.389-2.108,7.954c-1.073,2.939-2.868,5.626-3.836,8.59
	c-2.218,6.799-3.887,13.782-6.226,20.536c-2.148,6.2-5.642,12.015-7.167,18.331c-1.889,7.827-7.412,14.902-5.165,24.714
	c4.087-2.147,7.854-4.127,11.621-6.106c0.483,0.458,0.968,0.917,1.451,1.375c-1.002,1.646-1.804,3.462-3.04,4.906
	c-5.68,6.638-13.59,9.996-21.152,13.737c-1.654,0.818-4.818,0.699-6.068-0.389c-1.181-1.026-0.855-3.891-0.995-5.96
	c-0.066-0.989,0.326-2.01,0.501-2.959c-2.391,1.315-4.298,2.888-6.469,3.466c-8.163,2.17-15.52,6.831-24.58,6.391
	c-9.061-0.439-16.857-7.896-16.885-16.861c-0.02-6.723,0.756-12.935,3.885-19.185c2.952-5.897,4.035-12.708,6.224-19.019
	c2.463-7.098,5.426-14.023,7.827-21.14c1.976-5.853,3.402-11.887,5.164-17.813c0.69-2.32,1.627-4.567,2.469-6.842
	c0.046-0.124,0.356-0.168,0.377-0.28c1.977-10.458,9.773-19.812,6.078-31.305c-0.566-1.763-1.812-4.049-3.314-4.638
	c-5.579-2.187-10.714-5.558-17.266-5.241c-6.569,0.318-13.194-0.766-19.796-0.783c-5.766-0.015-11.927-0.572-17.209,1.205
	c-8.241,2.773-16.789,4.601-24.546,9.409c-7.343,4.552-12.907,9.979-16.75,17.408c-1.088,2.103-1.812,4.575-1.983,6.931
	c-0.312,4.311-0.906,8.868,0.131,12.937c1.139,4.466,3.162,9.274,6.261,12.554c6.525,6.906,15.372,8.672,24.706,8.628
	c1.591-0.008,3.191,1.857,4.787,2.857c-1.598,0.999-3.12,2.702-4.806,2.883c-12.305,1.318-24.23-0.723-34.122-8.182
	c-6.582-4.964-9.958-12.721-11.094-21.212c-1.111-8.309,1.083-16.302,5.587-22.491c2.863-3.936,4.532-10.606,11.326-11.093
	c0.377-0.027,0.777-0.471,1.072-0.805c7.256-8.222,17.247-10.674,27.297-13.146c6.833-1.681,13.561-3.788,20.354-5.634
	c1.096-0.298,2.291-0.298,3.441-0.309c3.833-0.035,7.708-0.378,11.491,0.058c9.591,1.104,19.179,2.347,28.692,3.975
	c4.947,0.847,9.921,2.18,14.554,4.09c7.081,2.92,8.384,7.576,6.399,13.007c-2.228,6.098-3.162,12.664-5.324,18.792
	c-2.435,6.898-5.802,13.464-8.406,20.31c-2.03,5.339-3.459,10.904-5.253,16.336c-2.359,7.143-4.859,14.238-7.206,21.385
	c-0.804,2.449-1.232,5.021-2.008,7.48c-0.743,2.354-1.658,4.657-2.594,6.943c-3.166,7.735-4.707,15.776-2.46,23.899
	c1.497,5.413,7.955,7.923,15.336,5.35c7.005-2.441,13.582-6.239,20.085-9.906c1.717-0.968,2.794-3.522,3.603-5.57
	c3.115-7.896,6.099-15.849,8.946-23.846c2.571-7.22,4.735-14.587,7.383-21.776c2.604-7.071,5.793-13.929,8.342-21.018
	c2.093-5.818,3.521-11.872,5.45-17.754c0.779-2.376,2.399-4.482,3.126-6.866C1940.818,30.452,1941.905,25.613,1943.347,20.007z"/>
<path fill-rule="evenodd" clip-rule="evenodd" d="M558.039,78.856c-4.716,7.002-11.072,4.944-15.777,4.013
	c-6.622-1.311-14.226-3.556-18.727-8.074c-4.702-4.72-10.947-10.089-10.373-18.475c0.182-2.653,0.301-5.363-0.023-7.989
	c-0.95-7.704,2.935-13.242,7.306-19.011c9.504-12.543,22.226-18.938,37.065-23.406c12.047-3.628,23.878-7.01,36.347-5.458
	c9.189,1.145,18.675,1.172,27.376,5.586c3.633,1.843,8.267,1.599,12.197,2.999c5.611,1.998,7.21,7.094,4.918,12.403
	c-1.074,2.486-0.928,5.48-1.868,8.049c-2.257,6.161-5.07,12.123-7.205,18.322c-2.003,5.817-3.416,11.838-5.11,17.762
	c-0.221,0.771-0.587,1.5-0.864,2.257c-2.021,5.519-4.01,11.049-6.061,16.557c-3.662,9.832-7.395,19.639-11.031,29.48
	c-1.839,4.977-3.184,10.167-5.385,14.971c-2.525,5.513-5.752,10.705-8.674,16.036c-1.359,2.48-2.556,5.068-4.111,7.417
	c-3.379,5.1-6.737,10.237-10.504,15.046c-2.318,2.959-5.37,5.345-8.11,7.968c-0.216,0.207-0.81,0.234-0.83,0.396
	c-0.757,5.939-6.476,7.354-10.122,10.195c-8.27,6.445-18.203,10.185-28.698,10.204c-13.679,0.025-24.16-6.779-29.361-19.407
	c-3.955-9.6-4.06-20.566-0.521-30.046c3.758-10.068,9.068-19.715,16.282-28.311c5.992-7.14,12.823-12.968,19.848-18.871
	c8.201-6.893,17.706-11.794,27.267-15.658c7.727-3.123,16.125-6.638,25.209-5.61c4.068,0.461,8.232,0.078,12.693,0.078
	c0,1.878-0.118,3.199,0.023,4.491c0.389,3.55-1.292,4.255-4.624,4.634c-12.015,1.368-24.263,2.169-35.845,5.312
	c-7.078,1.921-13.263,7.498-19.541,11.874c-4.624,3.225-8.947,6.958-13.02,10.866c-2.208,2.118-3.782,4.978-5.334,7.681
	c-2.032,3.541-3.251,7.658-5.729,10.812c-4.577,5.828-4.644,12.757-5.946,19.428c-0.658,3.372-2.288,6.899-1.771,10.079
	c0.932,5.743,2.403,11.657,5.021,16.802c2.941,5.779,14.312,9.257,21.081,7.878c11.427-2.329,20.085-8.688,27.936-17.156
	c8.109-8.747,14.31-18.467,19.644-29.021c3.272-6.474,6.665-12.681,8.448-19.886c1.675-6.764,5.292-13.022,7.623-19.654
	c2.31-6.568,3.868-13.401,6.155-19.979c1.839-5.287,4.305-10.354,6.424-15.546c0.608-1.492,0.993-3.078,1.454-4.629
	c2.363-7.964,3.48-16.625,7.453-23.682c3.378-6.003,3.331-11.658,3.549-17.747c0.124-3.472-1.449-5.478-4.704-6.975
	c-14.199-6.53-28.989-5.636-44.065-5.004c-8.241,0.345-15.025,4.405-22.764,5.809c-4.166,0.755-7.422,5.598-11.567,7.609
	c-6.976,3.386-9.916,10.265-13.302,16.037c-2.512,4.28-1.464,10.914-1.251,16.471c0.354,9.27,6.151,15.323,13.764,19.391
	c3.547,1.896,7.991,2.104,12.021,3.107C553.975,77.694,555.611,78.185,558.039,78.856z"/>
<path fill-rule="evenodd" clip-rule="evenodd" d="M902.891,319.624c0.477,6.088-0.865,7.577-6.645,7.655
	c-1.167,0.016-2.357,0.155-3.496-0.022c-9.813-1.527-19.078,1.648-28.073,4.383c-6.022,1.831-10.854,7.267-16.737,9.953
	c-5.723,2.613-10.52,5.896-14.648,10.59c-6.758,7.685-12.533,15.792-17.011,25.169c-3.731,7.814-4.76,15.723-4.972,23.891
	c-0.207,7.986,1.097,16.063,6.731,22.146c2.348,2.533,6.51,4.396,9.996,4.671c9.83,0.772,19.135-0.953,26.608-8.496
	c3.159-3.188,7.334-5.352,10.612-8.443c2.604-2.457,4.759-5.476,6.736-8.492c4.2-6.408,8.513-12.786,12.101-19.536
	c3.139-5.902,5.407-12.274,7.951-18.483c2.116-5.164,4.276-10.325,6.053-15.611c2.542-7.562,4.536-15.31,7.168-22.837
	c2.329-6.659,5.538-13.016,7.753-19.706c2.139-6.461,2.479-13.71,5.542-19.609c2.323-4.473,4.193-8.773,5.225-13.621
	c0.512-2.401,1.527-4.696,2.317-7.038c1.391-4.122-2.701-12.002-7.002-12.924c-5.553-1.189-11.565-1.1-16.682-3.233
	c-5.82-2.428-11.595-2.104-17.213-1.55c-9.89,0.975-20.56,1.226-29.271,5.282c-13.447,6.262-26.061,15.222-29.408,31.394
	c-0.981,4.743-1.82,10.21,2.396,14.873c2.802,3.098,3.772,7.98,6.786,10.721c2.989,2.718,7.421,3.993,11.385,5.453
	c3.601,1.327,7.424,2.053,11.119,3.734c-3.174,2.11-5.011,6.562-10.214,2.683c-2.478-1.847-6.985-0.971-10.573-1.328
	c-6.624-0.659-10.99-5.09-15.306-9.417c-6.441-6.457-9.879-14.611-8.642-23.462c0.854-6.11,3.714-12.266,6.934-17.649
	c6.273-10.492,16.722-15.457,27.444-20.941c17.024-8.706,34.693-8.83,52.684-8.396c7.979,0.191,16.129,1.103,23.816,3.139
	c5.55,1.47,10.707,4.992,15.493,8.372c1.211,0.855,0.74,4.738,0.324,7.104c-0.705,4.009-1.79,7.98-3.076,11.847
	c-1.14,3.426-2.89,6.643-4.159,10.03c-2.982,7.959-5.907,15.941-8.712,23.964c-1.122,3.21-1.637,6.639-2.838,9.812
	c-1.919,5.072-4.233,9.993-6.264,15.024c-0.533,1.323-0.471,2.88-0.968,4.224c-1.235,3.341-2.8,6.567-3.91,9.945
	c-0.694,2.112-0.411,4.58-1.254,6.603c-2.279,5.472-4.955,10.778-7.405,16.182c-0.601,1.324-0.736,2.881-1.435,4.136
	c-4.308,7.747-8.711,15.44-13.091,23.146c-1.631,2.868-2.845,6.118-5.005,8.514c-6.43,7.131-12.992,14.184-20.001,20.734
	c-3.214,3.004-7.462,5.021-11.467,7.036c-10.368,5.216-21.361,6.645-32.356,2.828c-3.966-1.376-7.418-4.827-10.554-7.894
	c-10.051-9.829-9.427-22.666-8.161-34.981c0.614-5.979,4.156-11.793,6.987-17.37c3.476-6.844,8.702-12.536,13.26-18.654
	c5.697-7.646,13.366-12.598,20.255-18.408c6.072-5.12,14.232-7.771,21.488-11.479c8.925-4.562,18.478-6.104,28.413-6.099
	c1.704,0.001,3.469-1.892,5.102-1.744C897.726,317.677,900.345,318.866,902.891,319.624z"/>
<path fill-rule="evenodd" clip-rule="evenodd" d="M1679.274,320.611c-4.844,3.682-8.078,4.363-12.764,2.015
	c-3.673-1.841-8.801-0.513-13.088-1.466c-4.77-1.062-9.804-1.824-12.604-7.215c-1.288-2.479-4.628-3.868-6.962-5.843
	c-0.591-0.5-1.167-1.306-1.277-2.042c-1.04-6.954-5.387-13.648-3.244-20.776c2.973-9.892,6.112-19.258,15.338-26.473
	c7.828-6.122,16.397-9.991,25.013-13.908c5.474-2.489,12.044-3.19,18.177-3.462c10.007-0.442,19.92,0.078,29.943,2.288
	c8.889,1.96,16,7.286,24.41,10.048c5.3,1.74,9.687,7.042,13.814,11.382c6.304,6.626,12.407,13.52,17.859,20.848
	c3.354,4.506,5.336,10.031,8.076,15.375c3.774-5.126,7.363-10.226,11.193-15.138c3.974-5.099,8.177-10.019,12.293-15.006
	c0.514-0.622,1.076-1.214,1.674-1.756c1.191-1.08,2.332-2.282,3.71-3.04c0.309-0.169,2.22,1.346,2.17,1.991
	c-0.155,2.005-0.271,4.595-1.518,5.836c-6.737,6.704-12.713,13.942-17.853,21.948c-2.043,3.183-4.978,5.778-7.299,8.8
	c-3.52,4.582,0.074,9.193,0.314,13.782c0.098,1.881,2.011,3.702,2.008,5.549c-0.019,13.236,0.418,26.546-0.877,39.675
	c-0.549,5.557-4.718,10.852-7.621,16.052c-2.631,4.713-7.624,7.136-11.667,5.007c-2.939-1.548-6.891-4.934-6.935-7.559
	c-0.183-10.674,0.241-21.482,1.868-32.021c1.204-7.798,3.061-16.366,7.479-22.553c4.428-6.197,2.859-9.945-0.315-14.802
	c-2.523-3.86-5.062-7.711-7.565-11.584c-1.943-3.008-3.62-6.218-5.812-9.028c-3.251-4.167-5.221-9.262-9.646-12.608
	c-3.095-2.339-7.188-1.562-8.244,2.162c-2.132,7.512-3.567,15.271-6.297,22.552c-3.41,9.098-7.818,17.823-11.83,26.694
	c-2.012,4.448-3.893,8.974-6.217,13.256c-1.916,3.529-4.374,6.767-6.635,10.104c-2.23,3.29-4.813,6.38-6.708,9.849
	c-3.116,5.707-7.637,9.906-12.63,13.907c-5.094,4.081-9.618,8.866-14.594,13.107c-1.425,1.214-3.486,1.867-5.366,2.326
	c-6.451,1.573-12.896,3.413-19.458,4.197c-3.219,0.384-6.9-0.88-9.948-2.305c-1.356-0.634-2.188-3.486-2.268-5.373
	c-0.055-1.296,1.422-3.611,2.522-3.816c3.081-0.574,6.399-0.76,9.485-0.254c9.459,1.55,18.853,2.675,26.878-4.051
	c6.139-5.146,12.785-9.744,17.042-16.971c3.728-6.328,8.666-11.946,12.339-18.3c1.564-2.708,1.465-6.053,3.703-9.071
	c2.986-4.029,3.936-9.542,5.907-14.356c2.41-5.885,5.112-11.653,7.402-17.582c0.921-2.386,0.893-5.122,1.633-7.599
	c1.727-5.777,3.307-11.644,5.668-17.165c1.02-2.383,3.848-3.98,5.814-5.975c1.085-1.101,2.948-2.306,2.919-3.421
	c-0.042-1.516-1.224-3.48-2.521-4.373c-2.137-1.468-5.263-1.689-7.083-3.389c-6.308-5.888-13.94-7.906-22.145-8.853
	c-4.062-0.469-8.192-2.221-12.101-1.763c-9.549,1.12-19.689,1.618-28.216,5.437c-5.504,2.465-11.55,6.29-15.869,12.319
	c-5.773,8.057-8.639,16.26-8.56,25.852c0.077,9.325,6.948,17.357,15.253,21.516c5.733,2.87,11.233,3.474,17.204,3.831
	C1676.075,317.506,1677.4,319.262,1679.274,320.611z M1778.877,323.877c-1.338,0.54-2.298,0.639-2.434,1.025
	c-2.146,6.124-4.316,12.246-6.173,18.461c-0.55,1.84,0.545,4.339-0.297,5.896c-3.884,7.193-2.597,14.903-2.594,22.44
	c0,1.444,1.865,3.374,3.355,4.175c1.153,0.62,3.786,0.419,4.504-0.452c1.979-2.403,3.896-5.177,4.747-8.119
	c1.49-5.148,2.181-10.53,3.165-15.821c0.118-0.639,0.058-1.338-0.049-1.987c-0.955-5.794-1.945-11.582-2.91-17.375
	C1779.756,329.501,1779.355,326.876,1778.877,323.877z"/>
<path fill-rule="evenodd" clip-rule="evenodd" d="M2263.028,77.281c0,2.196,0,3.81,0,5.922c-10.488-0.143-20.948,1.407-30.462-4.631
	c-2.273-1.442-4.987-2.195-7.508-3.243c-0.297-0.123-0.855,0.017-0.957-0.159c-2.333-4.035-5.168-7.895-6.763-12.21
	c-1.674-4.532-2.95-9.505-2.959-14.288c-0.013-7,3.231-13.023,6.578-19.343c3.631-6.857,9.732-10.724,15.059-14.19
	c6.933-4.514,15.009-8.447,24.177-9.128c6.214-0.462,12.229-3.5,18.354-5.313c1.086-0.322,2.278-0.393,3.421-0.398
	c7.164-0.034,14.426-0.756,21.466,0.176c8.222,1.089,16.263,3.586,24.358,5.57c3.892,0.953,7.896,1.748,11.529,3.34
	c2.462,1.079,4.672,3.177,6.391,5.307c0.828,1.026,0.688,3.303,0.25,4.797c-1.422,4.852-3.096,9.637-4.84,14.385
	c-2.377,6.468-5.095,12.815-7.323,19.331c-2.417,7.068-4.255,14.336-6.7,21.395c-1.613,4.653-4.31,8.953-5.715,13.653
	c-2.701,9.032-5.063,18.184-7.104,27.389c-1.166,5.265-2.201,10.783-1.84,16.088c0.283,4.168,1.668,9.939,4.604,11.83
	c3.83,2.466,9.735,2.62,14.635,2.254c4.812-0.36,8.57-4.312,12.782-6.562c8.221-4.388,11.907-12.808,18.796-18.285
	c3.538-2.812,5.194-8.001,7.676-12.131c4-6.66,8.789-12.995,11.742-20.094c3.093-7.436,4.535-15.578,6.463-23.471
	c1.239-5.075,2.465-10.216,2.967-15.397c1.046-10.819-1.265-20.957-6.678-30.528c-1.603-2.833-1.869-6.588-2.135-9.968
	c-0.349-4.431,3.109-7.839,6.275-8.568c2.164-0.498,5.996,2.963,7.93,5.524c2.76,3.658,4.326,8.023,3.793,13.025
	c-0.475,4.447-0.377,9.006-0.043,13.479c0.736,9.853-0.806,19.395-3.23,28.867c-1.976,7.719-3.218,15.715-6.066,23.094
	c-2.869,7.433-7.363,14.231-11.059,21.354c-2.322,4.477-4.258,9.169-6.805,13.508c-1.443,2.456-3.729,4.433-5.709,6.555
	c-5.401,5.786-10.114,12.596-16.492,16.97c-5.268,3.613-10.2,8.503-17.492,9.362c-4.36,0.514-8.105,3.3-13.229,1.906
	c-13.379-3.64-20.113-8.076-20.987-25.577c-0.628-12.568,3.652-23.864,8.594-35.074c1.289-2.925,1.354-6.366,2.403-9.425
	c2.185-6.361,4.829-12.564,6.958-18.942c2.563-7.682,4.87-15.452,7.13-23.229c1.768-6.084,3.797-12.159,4.759-18.386
	c0.696-4.502-1.288-8.486-6.13-10.38c-5.012-1.96-9.699-4.438-15.463-4.289c-7.584,0.197-15.19-0.746-22.791-0.822
	c-12.914-0.129-24.997,3.337-36.32,9.404c-6.669,3.573-13.477,7.393-17.116,14.287c-3.429,6.494-5.848,13.466-5.062,21.21
	c1.022,10.089,7.157,16.804,15.018,21.651c3.59,2.213,8.856,1.8,13.391,2.352C2257.828,77.51,2260.17,77.281,2263.028,77.281z"/>
<path fill-rule="evenodd" clip-rule="evenodd" d="M1411.646,362.273c-5.054,3.206-9.086,5.975-13.312,8.406
	c-13.059,7.513-27.245,8.727-41.432,5.187c-7.833-1.954-15.959-5.355-22.174-10.328c-4.816-3.854-9.57-9.011-11.011-16.54
	c-1.511-7.896-4.57-15.488-3.492-23.73c0.466-3.566,0.62-7.429,2.158-10.544c2.7-5.471,2.396-11.55,4.965-17.31
	c3.127-7.011,6.9-13.57,11.03-19.741c4.324-6.461,10.788-11.447,15.849-17.471c6.056-7.208,14.916-10.143,22.349-15.199
	c3.766-2.562,9.234-3.041,14.032-3.575c9.247-1.031,18.429,0.083,27.271,2.995c2.445,0.805,5.062,2.27,6.659,4.207
	c2.936,3.56,3.426,0.64,4.628-1.173c1.162-1.752,2.441-3.426,3.669-5.134c1.769,2.103,4.946,4.128,5.065,6.321
	c0.562,10.314,0.416,20.679,0.159,31.017c-0.036,1.449-2.083,2.848-3.199,4.271c-1.494-1.364-3.466-2.481-4.336-4.167
	c-0.758-1.469-0.341-3.58-0.323-5.407c0.061-6.572-3.468-10.732-7.986-15.359c-13.659-13.989-29.352-9.383-44.446-5.291
	c-6.354,1.722-11.803,7.443-17.184,11.923c-7.715,6.423-12.604,15.218-17.229,23.865c-3.974,7.431-6.765,15.526-7.236,24.229
	c-0.266,4.895-1.427,9.733-1.896,14.624c-0.95,9.918,1.754,19.329,7.354,27.076c4.821,6.672,11.974,11.996,20.714,12.678
	c7.365,0.575,15.069,0.686,22.226-0.852c10.419-2.237,19.101-8.207,25.984-16.586c2.539-3.091,6.218-5.454,8.038-8.864
	c1.657-3.104,1.501-7.175,2.452-12.568c-3.967,1.529-6.419,2.613-8.964,3.392c-1.113,0.341-2.418,0.057-3.635,0.057
	c0.296-1.141,0.283-2.515,0.94-3.382c3.553-4.688,8.707-7.003,13.997-9.108c2.156-0.858,4.324-1.8,6.274-3.037
	c3.027-1.921,5.134-0.716,5.046,2.24c-0.201,6.816-0.988,13.633-1.897,20.4c-0.344,2.557-1.677,4.981-2.563,7.465
	c-2.086,5.836-3.855,11.812-6.361,17.462c-2.032,4.581-4.897,8.8-7.486,13.123c-4.543,7.586-9.641,14.798-16.516,20.439
	c-5.429,4.455-10.842,9.261-17.041,12.341c-4.93,2.45-10.996,3.081-16.636,3.52c-7.287,0.567-14.689,0.604-21.973,0.009
	c-7.438-0.608-14.909-1.872-20.198-8.252c-2.445-2.95-5.586-5.385-7.697-8.532c-1.748-2.606-2.268-6.014,1.32-8.019
	c3.879-2.166,9.583-0.748,11.433,2.513c4.413,7.78,9.779,14.03,19.952,13.543c2.171-0.104,4.542,2.053,6.596,1.73
	c8.53-1.337,17.086-2.822,25.389-5.132c2.812-0.782,4.951-4.104,7.309-6.358c3.148-3.011,6.658-5.781,9.209-9.247
	c4.555-6.188,8.558-12.786,12.667-19.292C1410.883,365.954,1411.007,364.422,1411.646,362.273z"/>
<path fill-rule="evenodd" clip-rule="evenodd" d="M610.629,329.1c-4.178,1.572-6.882,2.727-9.679,3.574
	c-1.09,0.33-2.389-0.033-3.593-0.08c0.341-1.125,0.377-2.505,1.072-3.33c3.699-4.396,8.502-7.167,13.883-9.086
	c2.179-0.777,4.249-1.896,6.296-2.996c3.487-1.873,5.498-0.962,5.543,2.871c0.084,7.282,0.255,14.511-3.713,21.241
	c-1.392,2.36-0.495,5.983-1.645,8.589c-4.525,10.258-8.606,20.865-14.489,30.325c-4.859,7.815-11.738,14.482-18.298,21.086
	c-3.011,3.031-7.455,4.61-11.16,6.987c-13.72,8.799-29.111,6.002-43.896,5.696c-8.567-0.178-16.343-4.72-22.14-11.46
	c-1.956-2.273-3.886-5.132-4.312-7.951c-0.259-1.714,2.275-5.399,3.742-5.502c3.067-0.213,7.729,0.344,9.139,2.381
	c5.28,7.637,10.446,14.438,21.054,13.971c2.672-0.117,5.547,2.096,8.089,1.699c7.879-1.23,15.644-3.202,23.452-4.886
	c0.16-0.034,0.387-0.02,0.469-0.12c6.548-8.014,17.309-11.905,21.291-22.595c1.77-4.75,5.321-8.827,7.97-13.266
	c0.773-1.296,1.223-2.785,2.2-5.075c-5.692,3.768-10.21,7.265-15.169,9.945c-13.997,7.566-28.944,8.238-43.895,3.945
	c-6.696-1.922-12.971-5.631-19.065-9.169c-2.228-1.293-3.081-4.753-5.091-6.669c-3.156-3.007-5-6.182-6.095-10.629
	c-1.9-7.712-4.446-15.208-3.367-23.277c0.477-3.565,1.272-7.092,2.014-10.616c0.936-4.449,1.28-9.185,3.104-13.247
	c3.081-6.864,6.733-13.554,10.869-19.841c4.192-6.375,8.59-12.901,14.135-18.022c5.653-5.223,12.094-9.681,18.85-13.839
	c10.958-6.746,22.207-9.018,34.457-8.407c8.624,0.43,16.466,3.434,23.484,9.462c1.043-1.841,1.791-3.403,2.764-4.81
	c0.913-1.319,2.063-2.475,3.109-3.701c1.404,1.287,3.362,2.324,4.085,3.921c1.115,2.462,1.922,5.308,1.915,7.988
	c-0.021,8.418-0.345,16.845-0.917,25.243c-0.092,1.337-2.071,2.546-3.179,3.813c-1.562-1.422-3.464-2.626-4.561-4.345
	c-0.684-1.071-0.187-2.92-0.157-4.418c0.128-6.577-3.358-10.826-7.848-15.476c-12.879-13.336-27.896-9.911-42.347-5.65
	c-7.083,2.089-13.624,6.918-19.505,12.52c-7.144,6.804-12.407,14.761-16.75,23.09c-3.909,7.497-6.823,15.844-7.59,24.613
	c-0.457,5.223-1.213,10.425-1.985,15.614c-1.47,9.874,2.882,18.57,7.579,26.158c4.102,6.626,11.406,11.87,19.964,12.524
	c7.538,0.576,15.344,0.765,22.732-0.551c11.389-2.028,20.17-9.24,27.552-17.825c3.346-3.89,5.88-8.527,8.419-13.031
	C610.298,334.927,610.083,332.746,610.629,329.1z"/>
<path fill-rule="evenodd" clip-rule="evenodd" d="M1134.827,97.163c0.457-5.583-0.188-11.555,1.615-16.663
	c3.207-9.085,3.967-19.311,11.009-26.825c5.069-5.41,9.351-13.539,15.529-15.445c8.442-2.604,8.083-9.894,12.33-14.415
	c6.519-6.938,12.177-14.769,22.017-17.604c3.29-0.947,6.449-2.469,9.527-4.011c9.63-4.824,17.869-0.447,26.511,3.288
	c5.432,2.347,10.363,5.052,13.751,9.826c3.165,4.462,6.215,9.121,8.479,14.075c2.646,5.785,5.688,11.881,6.177,18.03
	c0.562,7.067,1.871,14.373-1.139,21.71c-2.041,4.977-0.762,11.289-2.698,16.34c-2.032,5.298-1.264,11.671-6.046,16.051
	c-1.213,1.111-0.959,3.691-1.758,5.422c-0.908,1.973-2.272,3.731-3.381,5.617c-1.569,2.673-3.168,5.334-4.611,8.075
	c-4.875,9.26-12.661,16.202-20.35,22.661c-5.389,4.526-13.377,5.858-19.992,9.056c-6.575,3.179-13.488,3.386-20.403,2.846
	c-11.817-0.922-23.107-4.033-31.003-13.517c-5.257-6.315-10.312-12.949-11.527-21.791c-1.035-7.542-3.332-14.912-5.07-22.358
	C1134.137,97.409,1134.482,97.286,1134.827,97.163z M1167.61,44.828c-0.483-0.312-0.967-0.624-1.45-0.936
	c-1.606,0.967-3.503,1.658-4.752,2.967c-1.82,1.905-2.933,4.492-4.775,6.368c-4.644,4.727-7.05,10.59-7.3,16.868
	c-0.485,12.183-0.664,24.431,0.088,36.586c0.353,5.692,2.601,11.495,5.036,16.764c2.061,4.458,5.139,8.722,8.664,12.148
	c3.647,3.546,8.017,7.095,12.724,8.61c5.637,1.814,11.973,1.984,17.992,1.902c4.42-0.062,9.83-0.386,13.006-2.878
	c5.676-4.455,13.198-6.213,17.275-13.479c2.246-4.004,6.604-7.207,8.771-11.77c1.467-3.088,2.76-6.309,4.621-9.148
	c4.157-6.346,6.569-13.25,7.699-20.692c0.613-4.034,1.428-8.038,2.108-12.063c0.951-5.633,2.526-11.267,2.581-16.912
	c0.045-4.625-1.792-9.258-2.701-13.905c-0.815-4.164-0.636-8.786-2.454-12.428c-2.552-5.109-6.524-9.515-9.93-14.191
	c-3.649-5.012-9.511-8.032-14.697-8.899c-8.191-1.37-17.267-2.292-24.79,3.805c-1.144,0.927-3.436,0.881-4.047,1.945
	c-3.882,6.755-10.024,11.968-10.439,21.004c-0.668,14.55-3.288,28.998-4.544,43.536c-0.724,8.381-4.242,15.008-10.097,20.665
	c-1.083,1.046-2.363,1.908-3.628,2.743c-2.916,1.926-5.791,3.951-8.887,5.539c-0.701,0.359-2.23-0.896-3.379-1.407
	c0.512-0.856,0.864-1.888,1.568-2.536c1.602-1.474,3.646-2.534,5.016-4.176c1.993-2.39,4.722-4.99,5.082-7.768
	c1.226-9.454,1.555-19.024,2.213-28.552c0.069-0.996-0.082-2.023,0.104-2.992C1165.356,55.966,1166.495,50.399,1167.61,44.828z"/>
<path fill-rule="evenodd" clip-rule="evenodd" d="M1196.283,369.677c-0.496,5.303-1.009,8.81-4.173,13.014
	c-7.279,9.67-17.073,11.794-27.507,11.322c-9.025-0.408-16.122-4.738-20.861-13.827c-3.457-6.631-3.231-13.001-3.537-18.394
	c-2.581,3.538-6.634,7.423-8.563,12.17c-2.323,5.712-7.208,8.412-11.047,12.335c-1.331,1.36-3.224,2.324-5.03,3.039
	c-7.481,2.962-15.166,6.818-23.262,4.71c-7.31-1.904-14.173-4.617-18.203-12.944c-3.906-8.072-5.051-15.704-2.769-23.826
	c1.57-5.592,4.629-10.753,6.857-16.174c2.974-7.235,8.028-12.861,13.989-17.593c6.685-5.305,13.572-9.867,22.834-10.448
	c9.293-0.583,17.095,2.035,22.692,8.764c3.366,4.044,4.637,9.948,6.371,15.175c0.697,2.098,0.115,4.62,0.115,8.194
	c2.001-2.212,4.021-3.477,4.549-5.199c1.916-6.261,6.686-10.414,11.128-14.366c5.309-4.724,11.688-8.312,17.862-11.95
	c1.639-0.965,4.231-0.354,6.388-0.386c2.997-0.044,6.095,0.472,8.974-0.114c5.417-1.104,9.393,2.206,13.218,4.566
	c1.904,1.176,1.697,5.773,2.531,9.171c-5.446,0.68-9.341,0.845-12.691-3.348c-3.62-4.53-9.327-3.76-14.215-3.131
	c-8.986,1.155-15.198,6.38-20.072,14.166c-6.669,10.653-9.127,21.875-8.887,34.31c0.131,6.809,4.212,10.678,7.507,15.494
	c3.636,5.312,8.878,3.99,13.693,3.691c2.053-0.128,4.388-1.784,5.895-3.398c3.533-3.784,9.93-4.757,10.805-11.331
	C1191.038,372.138,1193.858,371.26,1196.283,369.677z M1131.392,343.503c-0.411-4.254-0.32-8.641-1.397-12.719
	c-0.795-3.008-2.469-6.536-4.877-8.225c-7.163-5.021-24.278-1.91-29.718,5.759c-4.199,5.921-8.228,12.604-9.866,19.532
	c-1.872,7.917-1.162,16.477-1.3,24.761c-0.124,7.427,8.186,15.43,15.432,15.769c3.653,0.17,6.27-1.421,9.331-2.887
	c7.146-3.421,12.574-8.657,16-15.425C1129.153,361.858,1131.83,353,1131.392,343.503z"/>
<path fill-rule="evenodd" clip-rule="evenodd" d="M745.723,380.067c-1.083,0.776-2.135,1.235-2.765,2.029
	c-3.976,5.013-8.597,8.032-15.215,9.762c-4.317,1.128-8.461,2.271-12.933,2.44c-7.795,0.294-19.341-8.754-17.724-17.982
	c0.819-4.671-0.41-9.854,1.037-14.226c2.093-6.323,5.326-12.405,8.905-18.063c3.502-5.536,7.597-10.874,12.272-15.438
	c3.861-3.769,8.877-6.395,13.521-9.304c2.998-1.88,6.307-3.258,9.368-5.044c3.017-1.762,12.913-1.197,15.502,0.961
	c1.423,1.187,3.13,2.044,4.494,3.285c1.196,1.089,2.093,2.507,3.405,4.129c7.54-20.477,15.312-40,20.774-61.853
	c-4.532,2.045-7.452,3.363-10.44,4.712c-1.467-8.051,12.521-16.2,25.544-14.716c-1.496,5.341-2.869,10.615-4.471,15.82
	c-0.916,2.977-2.252,5.82-3.315,8.755c-3.507,9.681-7.021,19.36-10.445,29.071c-2.551,7.229-4.785,14.576-7.499,21.742
	c-2.608,6.886-5.896,13.517-8.431,20.426c-2.064,5.626-3.35,11.534-5.188,17.25c-1.205,3.747-2.854,7.351-4.153,11.07
	c-0.521,1.492-0.639,3.124-1.255,6.334c2.962-1.437,4.68-2.581,6.569-3.097c1.773-0.483,3.728-0.302,5.603-0.412
	c-0.738,1.2-1.493,2.392-2.213,3.603c-4.261,7.175-12.141,8.501-18.948,11.426c-1.03,0.442-3.05-1.419-4.694-2.257
	C743.895,387.143,744.701,384.023,745.723,380.067z M746.727,320.277c-4.32,0.967-10.018,0.658-14.111,5.868
	c-3.266,4.156-8.308,7.017-11.158,11.371c-3.235,4.942-4.936,10.896-7.248,16.432c-1.073,2.569-2.613,5.131-2.887,7.804
	c-0.476,4.642-0.2,9.369-0.118,14.058c0.132,7.552,5.98,11.972,13.337,9.661c5.91-1.855,11.267-4.224,15.803-9.376
	c7.498-8.518,12.469-18.249,15.838-28.637c1.872-5.771,1.094-12.514,0.919-18.803C756.927,322.413,754.237,320.302,746.727,320.277z
	"/>
<path fill-rule="evenodd" clip-rule="evenodd" d="M1812.479,328.816c-1.892-3.916,0.014-5.676,3.624-7.596
	c7.178-3.817,13.466-9.876,23.794-7.269c-0.921,2.51-1.779,4.861-2.646,7.21c-0.339,0.917-0.691,1.829-1.048,2.739
	c-2.744,7.004-5.513,13.998-8.214,21.018c-0.462,1.2-0.49,2.569-0.967,3.76c-3.221,8.034-6.784,15.944-9.637,24.104
	c-1.139,3.256-1.794,7.375-0.797,10.506c1.208,3.796,5.254,1.39,7.739,0.815c3.757-0.867,7.298-2.741,10.872-4.32
	c6.961-3.074,11.961-8.287,14.861-15.189c4.611-10.974,8.587-22.217,13.259-33.163c2.563-6.006,5.571-11.941,9.316-17.247
	c1.086-1.538,5.416-0.787,8.923-1.155c-0.602,2.545-0.654,4.442-1.469,5.919c-3.837,6.961-6.393,14.244-8.197,22.052
	c-1.404,6.077-5.704,11.437-7.541,17.473c-2.121,6.966-7.139,13.108-6.2,20.999c0.254,2.135-0.228,4.365,0.083,6.484
	c1.499,10.206-1.097,19.95-5.43,28.692c-2.604,5.25-6.521,10.233-12.174,14.225c-5.827,4.113-11.587,6.277-18.088,7.649
	c-8.038,1.697-16.124,1.347-23.761-1.524c-4.854-1.825-9.964-4.188-13.566-7.729c-2.821-2.771-3.505-7.72-5.144-11.715
	c8.032-3.274,9.041-3.464,12.916,2.526c6.101,9.435,15.034,13.228,25.296,11.89c8.01-1.045,16.369-1.945,22.108-10.639
	c3.715-5.625,4.603-11.32,5.507-17.021c1.151-7.262,0.279-14.845,0.279-22.478c-7.905,4.404-14.009,11.505-23.66,11.61
	c-1.686,0.019-3.325,1.48-5.039,2.139c-5.139,1.974-11.039,1.428-13.458-2.831c-1.902-3.35-0.294-8.917,0.355-13.412
	c0.414-2.864,1.834-5.606,2.962-8.338c2.763-6.688,5.887-13.242,8.362-20.032c2.708-7.427,4.852-15.06,7.648-23.889
	C1818.854,326.625,1815.877,327.648,1812.479,328.816z"/>
<path fill-rule="evenodd" clip-rule="evenodd" d="M250.088,72.354c0,2.49,0.348,3.589-0.054,4.104
	c-3.833,4.915-2.916,11.808-7.44,16.673c-2.021,2.174-1.537,6.516-2.692,9.691c-2.68,7.369-5.065,14.942-8.677,21.854
	c-4.739,9.068-4.107,18.563-3.996,28.102c0.109,9.392-1.728,18.043-7.953,25.441c-1.521,1.807-2.349,4.202-3.889,5.987
	c-9.846,11.412-23.166,14.08-37.071,12.775c-7.295-0.685-14.813-3.562-21.217-7.223c-3.157-1.805-4.851-7.471-5.674-11.688
	c-0.838-4.289,3.452-6.227,7.257-3.748c0.917,0.597,2.023,1.244,2.479,2.151c3.07,6.11,8.977,9.049,14.078,12.895
	c0.117,0.088,0.105,0.366,0.223,0.435c4.014,2.316,23.885-0.346,27.259-3.623c4.142-4.023,9.025-7.271,10.718-13.456
	c2.366-8.643,3.747-25.681,2.192-33.902c-7.094,8.151-16.43,11.984-26.997,13.513c-2.419,0.351-4.734,1.361-7.13,1.93
	c-4.018,0.952-8.026-1.405-8.828-4.09c-1.083-3.625,0.482-8.054,0.996-12.127c0.073-0.582,0.726-1.068,0.932-1.661
	c2.55-7.334,4.939-14.728,7.634-22.009c2.113-5.709,4.801-11.209,6.832-16.944c1.283-3.623,1.827-7.509,2.841-11.874
	c-4.275,1.683-7.62,2.998-11.412,4.49c-0.864-8.129,5.661-8.857,9.314-11.586c3.315-2.476,7.653-3.733,11.707-4.997
	c1.637-0.511,5.2,0.073,5.334,0.705c0.578,2.701,0.862,5.815,0.043,8.395c-1.869,5.888-4.436,11.554-6.741,17.302
	c-2.589,6.456-5.329,12.855-7.769,19.367c-2.538,6.775-5.019,13.592-6.98,20.545c-0.37,1.311,1.854,4.809,2.812,4.782
	c3.769-0.104,7.622-0.874,11.223-2.063c2.455-0.811,4.432-2.964,6.82-4.104c5.914-2.821,10.088-6.693,12.262-13.325
	c2.055-6.27,5.985-11.898,8.621-18.012c2.058-4.774,2.401-10.571,5.307-14.623c3.546-4.945,2.466-12.041,7.854-15.64
	C243.014,74.988,246.291,74.036,250.088,72.354z"/>
<path fill-rule="evenodd" clip-rule="evenodd" d="M1220.777,386.115c6.51,0,11.364,0.889,15.72-0.205
	c6.79-1.705,12.727-5.725,17.342-11.057c3.494-4.037,7.059-8.353,9.178-13.167c4.02-9.131,7.379-18.587,4.237-28.98
	c-2.59-8.566-11.32-12.995-19.37-8.66c-8.924,4.805-16.053,10.609-21.148,19.593c-2.2,3.878-3.24,7.762-4.646,11.753
	c-2.18,6.188-5.002,12.146-7.454,18.239c-0.661,1.642-0.769,3.516-1.486,5.124c-1.734,3.895-3.145,8.125-5.752,11.361
	c-1.431,1.776-5.022,1.812-7.92,2.72c-0.481-4.512-0.883-9.069,3.147-12.757c0.631-0.577,0.741-1.77,0.999-2.703
	c1.552-5.641,2.693-11.431,4.715-16.896c2.211-5.979,5.265-11.643,7.861-17.484c0.583-1.313,0.694-2.829,1.188-4.191
	c2.901-8.009,5.975-15.958,8.745-24.011c2.221-6.453,3.915-13.089,6.171-19.527c2.225-6.349,5.121-12.466,7.232-18.848
	c1.55-4.681,2.308-9.623,3.748-15.879c-4.562,2.074-7.474,3.398-10.343,4.702c-3.278-5.102,2.134-6.045,4.127-8.063
	c5.348-5.417,12.107-7.266,21.584-6.556c-8.01,25.396-17.315,50.055-27.041,76.007c2.987-1.935,4.911-3.182,6.837-4.427
	c4.328-2.797,8.379-6.3,13.079-8.156c3.466-1.368,7.809-0.36,11.711-0.824c4.528-0.537,8.27,1.015,11.385,3.925
	c4.19,3.916,7.525,8.541,7.505,14.593c-0.015,4.426,0.102,9.05-1.102,13.222c-1.473,5.11-4.148,9.896-6.518,14.718
	c-1.806,3.675-3.353,7.741-6.075,10.636c-3.906,4.154-7.018,8.854-11.842,12.591c-5.09,3.943-10.623,6.705-15.911,10.033
	c-5.044,3.176-10.854,3.159-16.227,1.661C1222.871,394.158,1222.338,389.944,1220.777,386.115z"/>
<path fill-rule="evenodd" clip-rule="evenodd" d="M2695.743,138.752c2.099,2.729,2.579,5.507-1.771,7.227
	c-5.557,2.197-11.045,4.896-16.829,6.089c-4.759,0.98-6.8-3.081-4.774-8.05c-3.022,2.065-5.79,4.814-9.12,6.057
	c-7.52,2.807-15.353,5.546-23.499,4.064c-6.454-1.174-13.372-2.928-16.065-10.013c-2.989-7.862-1.626-15.351,2.33-22.967
	c2.752-5.299,6.797-9.267,10.262-13.828c0.454-0.599,1.116-1.204,1.805-1.431c3.846-1.262,4.941-4.145,5.14-7.847
	c0.62-11.603,10.331-22.022,21.635-22.839c4.227-0.305,8.433-1.942,12.602-1.781c6.833,0.264,14.268,2.146,17.529,8.137
	c2.743,5.04,3.543,12.084,2.706,17.879c-0.961,6.646-4.765,12.861-7.155,19.33c-1.121,3.032-1.759,6.238-2.729,9.331
	c-1.616,5.15-3.324,10.272-4.992,15.406c0.436,0.468,0.872,0.937,1.309,1.405C2687.92,142.906,2691.717,140.89,2695.743,138.752z
	 M2636.19,133.861c0,1.832,0.306,3.729-0.061,5.485c-0.938,4.5,1.814,6.311,5.24,7.548c8.901,3.214,28.289-4.223,31.599-13.039
	c3.043-8.104,9.884-14.488,10.046-23.921c0.089-5.183-0.635-11.049-4.776-11.342c-4.167-0.294-7.571-3.446-12.937-0.841
	c-5.104,2.477-10.7,3.64-15.278,7.731C2641.444,113.15,2636.153,122.132,2636.19,133.861z M2688.188,98.401
	c0-2.905,0.065-4.57-0.01-6.229c-0.348-7.592-9.465-15.254-16.9-13.759c-2.823,0.567-5.254,2.87-8.06,3.779
	c-5.294,1.716-6.311,7.27-9.909,10.468c-0.35,0.311,0.227,1.664,0.395,2.659C2664.75,89.451,2684.224,89.265,2688.188,98.401z"/>
<path fill-rule="evenodd" clip-rule="evenodd" d="M934.271,144.823c3.757-1.795,7.678-3.667,11.73-5.604
	c2.374,2.604,1.355,5.065-1.454,7.146c-5.717,4.23-13.345,6.256-21.309,5.591c-0.292-2.308-0.597-4.717-0.901-7.124
	c-9.149,5.145-18.683,10.775-30.259,9.416c-13.25-1.556-22.637-8.45-19.455-23.614c1.366-6.51,4.216-13.652,10.354-18.401
	c3.34-2.585,6.405-5.81,8.742-9.313c1.832-2.747,3.109-6.322,3.307-9.608c0.445-7.408,5.627-11.523,10.701-14.783
	c6.754-4.339,14.925-6.162,22.991-5.051c5.091,0.701,9.956,3.201,14.838,5.11c0.896,0.351,1.733,1.65,2.001,2.669
	c1.32,5.031,3.732,10.225,3.31,15.151c-0.543,6.345-3.371,12.504-5.321,18.709c-0.354,1.125-1.464,2.016-1.806,3.142
	c-1.654,5.437-3.16,10.919-4.729,16.382C936.106,137.791,931.04,139.412,934.271,144.823z M886.19,133.239
	c0,13.963,0.086,13.936,13.188,14.087c6.972,0.081,13.036-2.47,17.87-6.933c4.132-3.816,7.908-8.484,10.392-13.494
	c2.7-5.446,4.081-11.647,5.347-17.664c0.749-3.557,0.521-7.75-3.182-9.958c-6.388-3.81-13.505-2.776-19.587-0.099
	c-6.258,2.756-12.19,6.528-15.948,13.211C890.394,119.28,884.638,125.202,886.19,133.239z M937.847,97.626
	c0.523-7.862,0.468-14.672-8.912-17.779c-4.119-1.364-6.853-2.028-10.747,0.241c-4.241,2.471-9.424,3.392-10.986,9.092
	c-0.421,1.536-1.437,2.908-2.179,4.356c0.49,0.295,0.981,0.591,1.472,0.887c0.963-0.692,1.884-1.909,2.896-1.991
	c6.242-0.505,12.536-1.267,18.751-0.898C931.931,91.759,936.804,91.885,937.847,97.626z"/>
<path fill-rule="evenodd" clip-rule="evenodd" d="M1712.406,145.236c4.602-2.196,8.514-4.064,12.534-5.984
	c3.041,2.57,0.949,5.547-1.353,6.791c-4.796,2.594-9.964,5.05-15.263,6.026c-6.705,1.237-6.854,0.554-7.442-6.951
	c-2.84,1.503-5.354,2.979-7.985,4.2c-8.902,4.134-17.729,7.255-27.874,3.302c-3.465-1.35-6.708-1.801-9.334-5.058
	c-5.928-7.353-5.144-14.182-1.946-22.718c2.661-7.104,7.923-11.722,11.603-17.709c0.733-1.193,2.717-1.556,3.964-2.51
	c3.971-3.037,4.521-7.628,4.803-12.06c0.381-6.022,11.773-17.156,17.373-17.373c2.393-0.093,4.709-1.521,7.123-1.798
	c8.475-0.977,16.468,0.941,23.782,5.153c1.371,0.789,1.95,3.29,2.488,5.12c1.236,4.203,2.563,8.435,3.155,12.75
	c0.26,1.899-1.2,4.025-1.843,6.06c-2.204,6.978-4.13,14.057-6.671,20.908c-1.978,5.336-4.842,10.338-7.027,15.606
	C1711.92,140.374,1712.406,142.194,1712.406,145.236z M1677.204,147.281c13.599,1.249,21.851-8.514,28.654-19.205
	c3.434-5.396,4.468-12.395,6.192-18.775c1.328-4.916-1.732-10.942-5.563-10.856c-3.911,0.088-7.371-1.481-11.783-0.764
	c-6.656,1.083-11.63,4.295-16.03,8.017c-7.021,5.938-11.608,14.138-14.122,23.023C1661.22,140.501,1665.664,147.28,1677.204,147.281
	z M1682.601,94.191c0.339,0.319,0.678,0.639,1.017,0.958c6.469-4.261,13.717-4.182,20.888-3.781
	c4.754,0.266,10.339-0.437,12.165,7.229c1.514-13.41-4.354-20.837-15.164-20.19c-2.302,0.137-4.544,1.789-6.753,2.866
	c-3.158,1.541-7.713,1.536-7.677,6.779c0.002,0.399-0.877,0.747-1.204,1.218C1684.749,90.887,1683.687,92.548,1682.601,94.191z"/>
<path fill-rule="evenodd" clip-rule="evenodd" d="M1079.262,144.881c3.482-1.847,6.966-3.694,10.667-5.658
	c2.807,1.918,3.633,3.358-0.544,5.904c-5.419,3.304-10.517,6.956-17.13,7.135c-5.909,0.159-5.911,0.088-6.21-6.516
	c-1.328,0.361-2.698,0.535-3.872,1.109c-1.234,0.604-2.19,1.773-3.423,2.381c-7.467,3.682-15.455,6.491-23.65,4.758
	c-4.729-1-10.525-0.91-13.969-5.86c-3.401-4.887-6.812-10.26-4.712-16.037c2.577-7.096,4.298-14.618,10.769-20.267
	c3.282-2.866,6.325-6.416,9.827-9.331c0.661-0.551,1.159-1.786,1.085-2.651c-0.465-5.459,1.396-9.691,4.615-14.288
	c3.348-4.78,6.965-8.354,12.404-9.621c5.559-1.295,11.376-2.796,16.939-2.37c5.273,0.402,10.841,2.387,15.42,5.116
	c6.172,3.68,7.539,19.69,3.358,25.911c-1.175,1.748-0.909,4.396-1.742,6.454c-2.412,5.957-5.342,11.719-7.501,17.76
	c-1.704,4.771-2.568,9.841-3.807,14.778C1078.279,144.019,1078.77,144.45,1079.262,144.881z M1041.127,147.268
	c6.437,0.219,12.429-0.873,17.288-5.587c3.452-3.349,8.572-6.008,10.102-10.052c2.012-5.319,7.736-8.905,6.933-15.566
	c-0.241-2.006,1.57-4.278,2.501-6.401c1.177-2.687-2.619-11.593-5.15-11.145c-4.356,0.771-7.836-2.931-12.895-0.666
	c-4.516,2.022-9.285,2.954-13.675,6.128c-8.95,6.474-13.665,15.664-16.681,25.351
	C1025.941,140.919,1030.836,147.281,1041.127,147.268z M1082.277,99.188c1.105-5.2-1.351-15.054-3.466-16.629
	c-8.491-6.329-17.015-3.672-24.577,1.113c-3.183,2.015-4.347,7.22-6.429,10.975c10.592-5.313,20.866-3.553,30.935-2.172
	C1079.838,94.559,1080.813,96.41,1082.277,99.188z"/>
<path fill-rule="evenodd" clip-rule="evenodd" d="M379.228,144.965c3.775-2.084,7.551-4.167,11.396-6.288
	c2.435,2.646,2.101,4.782-1.417,6.763c-5.221,2.939-9.897,6.875-16.419,6.907c-4.475,0.021-7.73-0.668-6.354-7.267
	c-2.929,1.648-5.114,2.953-7.364,4.133c-7.576,3.971-15.723,6.166-24.153,4.889c-5.931-0.899-12.308-2.459-15.544-8.522
	c-2.896-5.428-2.731-11.213-1.328-17.199c2.48-10.583,9.072-17.939,17.408-24.277c1.45-1.103,2.731-3.662,2.579-5.418
	c-0.608-7.027,4.109-11.253,7.464-16.357c3.358-5.109,8.238-6.391,13.688-7.082c4.382-0.556,8.766-1.973,13.102-1.803
	c6.126,0.241,12.644,1.71,16.272,6.975c5.591,8.111,7.241,16.997,1.286,26.086c-0.976,1.49-0.426,3.898-1.129,5.665
	c-2.61,6.567-5.678,12.961-8.115,19.589c-1.367,3.717-1.834,7.766-2.706,11.665C378.338,143.937,378.783,144.45,379.228,144.965z
	 M340.218,147.281c10.753,0,20.243-3.708,25.081-10.816c5.422-7.966,10.322-16.3,12.423-26.009
	c0.923-4.267,0.415-8.238-2.791-10.464c-3.004-2.086-7.136-2.913-10.889-3.417c-2.235-0.301-4.824,0.805-7.028,1.785
	c-3.439,1.528-7.082,3.015-9.917,5.383c-3.682,3.075-6.65,7.002-9.938,10.55c-0.965,1.04-2.374,1.872-2.883,3.091
	c-1.465,3.51-2.411,7.235-3.86,10.753c-2.123,5.154-1.946,9.997,0.76,14.928C333.438,147.188,336.95,147.732,340.218,147.281z
	 M348.506,94.767c12-3.706,23.653-7.401,34.576,2.204c0.338-11.118-5.501-18.394-15.012-18.688
	C360.424,78.046,348.602,88.01,348.506,94.767z"/>
<path fill-rule="evenodd" clip-rule="evenodd" d="M2157.556,145.372c4.079-2.392,7.468-4.378,11.12-6.52
	c3.534,2.271,3.626,4.379-1.087,6.643c-5.368,2.578-9.929,6.905-16.45,6.816c-6.256-0.085-7.592-1.563-6.247-7.873
	c-8.543,6.389-17.899,10.146-28.406,9.741c-6.585-0.254-12.965-1.758-17.846-6.985c-3.175-3.4-4.573-13.81-2.358-18.015
	c0.779-1.48,0.27-3.672,1.111-5.082c4.218-7.057,8.215-14.291,15.338-19.113c1.581-1.071,3.238-3.341,3.308-5.119
	c0.406-10.259,9.166-24.444,22.023-24.688c4.043-0.076,8.061-1.75,12.1-1.792c9.314-0.099,17.469,3.972,20.351,12.59
	c1.843,5.511,2.783,12.788-1.132,18.865c-0.605,0.938-0.863,2.115-1.21,3.204c-2.121,6.66-4.193,13.336-6.338,19.987
	c-1.498,4.646-3.112,9.254-4.602,13.901C2157.051,142.494,2157.331,143.2,2157.556,145.372z M2120.208,147.281
	c9.646,0.498,17.187-3.738,23.277-10.762c5.316-6.13,9.236-13.092,11.143-21.086c0.756-3.172,2.503-6.358,2.286-9.432
	c-0.178-2.528-2.026-5.876-4.15-7.104c-2.952-1.706-6.839-2.272-10.353-2.373c-2.651-0.076-5.317,1.469-8.024,2.078
	c-12.828,2.884-24.697,21.126-26.023,32.084C2107.072,141.362,2108.252,148.168,2120.208,147.281z M2161.964,98.011
	c0.587-10.615-2.479-16.151-12.649-19.328c-6.16-1.924-12.062,2.328-16.906,5.81c-2.789,2.005-3.703,6.617-5.461,10.057
	c0.452,0.188,0.904,0.377,1.356,0.565c1.201-0.936,2.386-2.657,3.606-2.684C2142.21,92.207,2153.367,87.131,2161.964,98.011z"/>
<path fill-rule="evenodd" clip-rule="evenodd" d="M455.43,145.182c3.764-1.923,7.528-3.846,11.542-5.896
	c2.679,2.804,1.309,5.793-1.698,7.174c-6.427,2.954-12.516,7.711-21.006,5.261c-0.267-1.959-0.591-4.345-0.855-6.292
	c-6.393,2.758-13.258,6.072-20.377,8.699c-8.609,3.179-24.881-2.243-28.232-10.597c-1.972-4.915-1.631-11.94,0.341-16.968
	c2.72-6.936,7.958-12.883,12.133-19.243c0.242-0.369,0.583-0.851,0.954-0.931c7.457-1.617,6.348-8.208,8.072-13.333
	c1.262-3.751,2.918-7.841,5.639-10.521c4.124-4.062,8.786-7.792,15.524-7.426c3.656,0.198,7.549-2.145,11.065-1.601
	c5.42,0.839,10.639,3.087,15.864,4.955c0.893,0.319,1.793,1.643,2.011,2.648c1.202,5.556,5.352,10.651,3.67,16.597
	c-1.739,6.148-4.426,12.023-6.527,18.078c-0.794,2.286-0.776,4.88-1.711,7.088c-2.282,5.397-5.018,10.604-7.312,15.997
	c-0.6,1.408-0.256,3.219-0.345,4.845C454.597,144.204,455.013,144.693,455.43,145.182z M407.19,132.928
	c0,2.846,0.292,4.573-0.053,6.162c-1.161,5.349,2.762,7.032,6.346,8.033c9.244,2.58,25.271-3.932,30.324-12.09
	c4.971-8.023,9.794-16.067,10.443-25.972c0.388-5.901-2.094-10.1-7.709-10.783c-0.494-0.061-1.157,0.125-1.466-0.134
	c-5.188-4.347-10.043,0.093-14.257,1.496c-7.085,2.36-13.017,7.337-16.626,14.447C410.957,120.465,404.967,125.835,407.19,132.928z
	 M459.031,98.282c4.105-11.137-6.468-20.616-15.953-19.978c-0.92,0.062-2.143,0.121-2.675,0.693
	c-3.565,3.832-11.159,2.923-11.885,10.068c-0.007,0.064-0.381,0.06-0.425,0.158c-0.678,1.511-1.329,3.034-1.986,4.554
	c0.517,0.222,1.032,0.443,1.548,0.666c0.797-0.679,1.564-1.904,2.395-1.948c7.034-0.372,14.079-0.657,21.123-0.7
	C455.301,91.771,457.984,94.024,459.031,98.282z"/>
<path fill-rule="evenodd" clip-rule="evenodd" d="M740.19,143.406c-7.212,2.894-14.564,6.148-22.14,8.756
	c-3.812,1.312-8.039,1.398-12.062,2.135c-3.403,0.623-5.377-1.733-5.557-4.13c-0.325-4.358-0.052-8.932,0.96-13.18
	c1.524-6.402,3.674-12.686,5.973-18.864c2.457-6.607,5.528-12.984,8.075-19.561c1.609-4.154,2.75-8.489,4.479-13.935
	c-4.854,2.111-8.39,3.649-12.537,5.453c0-2.917,0-4.537,0-5.967c8.139-5.296,16.277-10.297,26.543-10.841
	c0.528,6.091,0.107,11.282-3.166,16.554c-2.769,4.461-3.688,10.044-5.629,15.051c-2.519,6.5-5.264,12.912-7.865,19.38
	c-2.047,5.089-4.295,10.122-5.932,15.343c-0.949,3.031,2.332,6.292,5.668,5.513c4.56-1.065,9.191-2.438,13.326-4.578
	c7.239-3.748,13.352-9.037,16.727-16.706c2.329-5.291,3.979-10.878,6.23-16.207c2.61-6.179,5.643-12.178,8.306-18.335
	c1.544-3.571,2.415-7.455,4.149-10.917c1.937-3.864,5.8-4.761,10.882-5.276c-0.654,3.337-0.875,6.225-1.803,8.863
	c-2.826,8.038-5.802,16.03-8.959,23.943c-2.382,5.968-5.463,11.67-7.633,17.706c-2.331,6.486-3.963,13.224-5.899,19.853
	c0.572,0.429,1.146,0.858,1.718,1.288c3.757-2.309,7.515-4.616,10.967-6.736c4.171,5.609-1.344,7.281-3.165,8.47
	c-4.225,2.757-9.351,4.433-14.33,5.652c-5.512,1.35-7.298-0.55-7.325-6.289C740.185,144.684,740.19,143.522,740.19,143.406z"/>
<path fill-rule="evenodd" clip-rule="evenodd" d="M950.566,324.533c-3.933,1.704-6.731,2.988-9.596,4.108
	c-0.766,0.299-2.318,0.396-2.483,0.067c-0.436-0.863-0.766-2.335-0.31-2.979c1.05-1.483,2.434-2.861,3.962-3.851
	c4.361-2.825,8.667-5.883,13.387-7.955c2.65-1.164,6.077-0.559,9.739-0.787c-0.677,5.563,0.316,10.508-3.686,15.018
	c-1.896,2.137-1.333,6.283-2.505,9.276c-2.237,5.717-5.083,11.193-7.373,16.893c-2.515,6.258-5.451,12.511-6.669,19.052
	c-0.564,3.03-4.843,6.018-0.953,10.002c3.002,3.075,6.078,1.45,8.55,0.69c7.698-2.367,14.886-6.157,20.305-12.256
	c2.408-2.71,3.746-6.432,5.313-9.812c2.771-5.977,5.519-11.977,7.955-18.095c2.223-5.581,3.618-11.518,6.127-16.952
	c2.142-4.638,5.067-9.006,8.259-13.006c0.909-1.14,3.954-0.576,7.631-0.963c-1.897,5.44-3.424,9.866-4.998,14.275
	c-0.25,0.701-0.812,1.291-1.059,1.993c-1.996,5.702-3.823,11.467-5.952,17.118c-2.584,6.858-5.515,13.587-8.102,20.444
	c-1.827,4.844-3.331,9.811-5.493,16.253c5.486-1.416,9.926-2.562,14.523-3.749c-1.704,8.626-11.55,13.088-24.845,11.512
	c0-3.017,0-6.103,0-10.054c-3.023,1.908-5.338,3.36-7.643,4.827c-1.985,1.265-3.802,3.075-5.969,3.725
	c-7.323,2.195-14.327,5.663-22.388,5.084c-3.267-0.235-4.827-1.883-4.945-4.347c-0.346-7.264-0.833-14.675,3.87-21.065
	c0.384-0.522,0.712-1.126,0.902-1.743c1.825-5.901,3.342-11.916,5.493-17.695c2.157-5.794,5.07-11.304,7.375-17.049
	C949.852,330.365,949.932,327.904,950.566,324.533z"/>
<path fill-rule="evenodd" clip-rule="evenodd" d="M2478.82,73.874c-3.042,5.396-1.876,11.906-6.256,16.713
	c-0.531,0.582-0.882,1.401-1.114,2.172c-1.786,5.904-3.304,11.901-5.343,17.716c-1.651,4.713-3.815,9.257-5.925,13.795
	c-2.871,6.176-6.282,12.163-5.895,20.851c3.664-2.015,6.611-3.681,9.605-5.257c0.947-0.498,2.021-0.754,3.036-1.12
	c0.155,1.319,0.479,2.648,0.398,3.954c-0.044,0.719-0.597,1.745-1.207,2.038c-7.11,3.418-13.488,9.181-22.783,7.188
	c0-3.384,0-6.809,0-10.77c-5.011,3.005-9.424,5.759-13.953,8.306c-1.521,0.854-3.299,1.363-5.024,1.717
	c-5.438,1.115-10.869,2.439-16.372,2.992c-4.524,0.454-6.553-2.138-6.836-6.685c-0.427-6.855,1.756-12.849,4.696-18.951
	c2.774-5.757,4.157-12.169,6.435-18.186c2.386-6.303,5.256-12.424,7.585-18.745c0.639-1.736,0.097-3.908,0.097-5.911
	c-3.708,1.45-7.38,2.886-11.052,4.321c-0.303-0.602-0.606-1.203-0.91-1.806c3.538-7.409,10.482-10.396,17.783-12.881
	c0.908-0.309,1.946-0.212,2.906-0.396c2.04-0.391,4.067-0.841,6.1-1.268c0.234,2.312,1.245,4.888,0.566,6.891
	c-2.918,8.609-6.273,17.073-9.586,25.545c-2.722,6.964-5.711,13.825-8.383,20.808c-1.574,4.111-2.81,8.356-4.104,12.57
	c-0.75,2.442,2.905,6.058,5.688,5.766c4.845-0.509,9.291-2.212,13.188-5.024c4.881-3.522,9.695-7.179,14.185-11.175
	c1.338-1.191,1.473-3.723,2.186-5.63c2.213-5.916,4.38-11.851,6.684-17.73c1.317-3.361,2.887-6.623,4.306-9.945
	c2.244-5.257,4.64-10.46,6.613-15.818C2467.256,76.87,2473.532,73.232,2478.82,73.874z"/>
<path fill-rule="evenodd" clip-rule="evenodd" d="M821.705,84.901c-4.987,2.107-8.745,3.695-13.286,5.613
	c-0.189-4.72,0.905-6.724,3.996-8.083c6.427-2.826,12.625-6.171,19.043-9.02c2.842-1.262,5.526,1.703,4.621,5.391
	c-1.009,4.106-2.677,8.051-4.059,12.066c-1.955,5.68-3.705,11.44-5.923,17.016c-2.255,5.668-5.008,11.137-7.459,16.729
	c-0.642,1.464-1.014,3.052-1.439,4.602c-0.774,2.817-1.495,5.649-2.241,8.475c-0.392,1.482-1.463,4.018-1.072,4.266
	c1.934,1.233,4.381,2.819,6.413,2.545c11.578-1.565,20.691-7.625,26.919-17.352c3.035-4.741,4.669-10.376,6.97-15.591
	c0.868-1.967,1.987-3.835,2.719-5.848c2.168-5.965,4.725-11.857,6.151-18.006c1.756-7.564,8.147-14.417,15.194-14.161
	c-1.302,5.711-1.423,11.324-5.001,16.581c-2.658,3.903-3.324,9.128-5.089,13.683c-2.673,6.903-5.529,13.734-8.305,20.598
	c-0.233,0.578-0.431,1.171-0.657,1.752c-1.307,3.354-2.794,6.65-3.864,10.077c-0.753,2.408-0.939,4.994-1.379,7.501
	c0.45,0.445,0.9,0.892,1.351,1.337c4.029-2.373,8.059-4.745,12.623-7.434c0.131,2.539,0.215,4.163,0.322,6.242
	c-4.882,2.419-9.709,5.046-14.726,7.241c-7.619,3.333-10.196,1.65-10.345-6.324c-0.021-1.094-0.143-2.186-0.248-3.732
	c-8.042,5.764-15.717,10.916-25.534,11.373c-3.228,0.15-6.409,1.225-9.619,1.837c-3.452,0.659-5.281-1.972-5.38-4.31
	c-0.317-7.511-0.959-15.044,4.124-21.883c2.527-3.4,3.227-8.185,4.648-12.378c2.143-6.316,4.132-12.686,6.319-18.985
	c0.652-1.875,1.909-3.536,2.604-5.402C820.753,89.557,821.036,87.656,821.705,84.901z"/>
<path fill-rule="evenodd" clip-rule="evenodd" d="M1998.031,144.738c3.021-1.707,6.024-3.442,9.069-5.104
	c0.828-0.451,1.779-0.678,2.674-1.007c0.336,1.165,0.953,2.34,0.914,3.493c-0.027,0.857-0.703,2.117-1.436,2.46
	c-5.696,2.665-11.347,5.534-17.278,7.555c-3.776,1.285-6.484-0.363-5.823-5.143c0.243-1.758,0.039-3.577,0.039-4.903
	c-6.98,3.191-13.617,6.748-20.629,9.251c-4.85,1.732-10.194,2.387-15.369,2.712c-1.576,0.099-4.773-2.528-4.745-3.855
	c0.137-6.517,0.454-13.176,1.997-19.469c1.214-4.954,4.642-9.32,6.479-14.177c2.699-7.134,4.794-14.495,7.275-21.715
	c1.022-2.976,2.38-5.837,3.585-8.751c-0.398-0.321-0.799-0.643-1.198-0.964c-3.872,1.611-7.744,3.224-12.108,5.04
	c-0.761-7.963,5.486-9.073,9.043-11.568c3.953-2.772,9.235-3.724,14.021-5.205c2.847-0.882,4.915,0.944,4.481,3.502
	c-0.755,4.445-2.405,8.743-3.757,13.079c-0.234,0.752-1.013,1.33-1.267,2.081c-1.975,5.829-3.852,11.691-5.837,17.518
	c-0.376,1.103-1.198,2.047-1.645,3.135c-0.843,2.052-1.522,4.17-2.343,6.232c-0.739,1.858-1.66,3.648-2.353,5.522
	c-1.913,5.181-4.184,10.287-5.449,15.627c-0.734,3.1,1.802,5.311,5.076,5.108c5.774-0.356,11.178-2.315,15.67-5.931
	c4.282-3.445,8.165-7.397,12.103-11.25c0.92-0.9,1.428-2.265,1.994-3.477c2.941-6.281,5.962-12.529,8.688-18.903
	c1.008-2.354,1.003-5.133,1.955-7.521c2.742-6.876,5.169-13.987,8.9-20.308c1.577-2.671,6.112-3.596,9.304-5.313
	c0.502,0.453,1.004,0.906,1.506,1.359c-3.899,11.717-6.989,23.789-11.925,35.053c-4.986,11.379-9.093,22.915-13.156,34.534
	C1997.002,143.871,1997.516,144.305,1998.031,144.738z"/>
<path fill-rule="evenodd" clip-rule="evenodd" d="M251.908,89.636c-1.738-4.521,0.307-5.822,2.945-7.731
	c6.831-4.947,14.31-7.606,23.024-9c0.188,2.899,0.344,5.312,0.542,8.382c1.66-1.064,2.947-2.143,4.423-2.792
	c6.89-3.033,14.005-5.666,21.631-5.114c7.341,0.53,13.327,5.216,14.851,13.711c1.253,6.99,0.94,13.634-1.063,20.356
	c-3.375,11.321-8.229,21.51-16.627,30.374c-5.874,6.2-12.402,10.589-20.008,13.454c-6.423,2.42-13.402,4.569-20.265,2.792
	c-9.388-2.431-13.255-7.41-12.889-18.434c0.243-7.32,2.889-14.626,4.932-21.804c1.944-6.828,4.458-13.498,6.829-20.199
	c0.497-1.405,1.676-2.574,2.138-3.983c0.354-1.078,0.072-2.364,0.073-3.559c-1.006,0.047-2.11-0.159-2.999,0.188
	C256.906,87.267,254.457,88.48,251.908,89.636z M272.092,148.2c4.355-1.551,10.083-2.227,13.901-5.285
	c5.104-4.089,9.825-9.483,12.703-15.31c3.39-6.862,8.216-13.56,7.606-22.032c-0.142-1.98,1.188-4.047,1.712-6.105
	c0.197-0.776,0.183-1.683-0.005-2.464c-0.532-2.221-1.697-4.403-1.719-6.61c-0.046-4.73-3.627-8.839-9.34-9.089
	c-9.207-0.404-23.832,9.457-27.618,19.143c-3.617,9.253-7.202,18.609-9.58,28.222c-1.41,5.696-2.185,12.545,3.542,17.007
	C265.254,147.204,268.401,147.208,272.092,148.2z"/>
<path fill-rule="evenodd" clip-rule="evenodd" d="M1278.028,85.506c-3.129,1.492-6.031,2.877-9.185,4.382
	c-0.726-4.712,2.905-10.158,6.912-11.589c4.584-1.636,9.086-3.567,13.771-4.817c1.696-0.453,5.342,0.427,5.469,1.157
	c0.423,2.422-0.274,5.064-0.71,7.594c-0.152,0.889-0.791,1.693-0.858,2.814c7.368-5.139,15.034-8.908,23.948-9.84
	c2.905-0.304,5.728-1.731,8.613-1.82c4.964-0.152,7.037,2.4,7.23,7.355c0.352,9.043-4.149,16.455-7.834,24.157
	c-0.211,0.44-0.467,0.862-0.637,1.317c-3.362,9.018-6.783,18.014-10.025,27.074c-0.869,2.432-1.261,5.048-1.719,7.606
	c-0.151,0.84-0.115,2.029,0.375,2.574c0.433,0.48,1.836,0.669,2.432,0.326c2.926-1.684,5.727-3.587,8.605-5.436
	c1.38,5.592,0.37,7.965-6.415,10.729c-5.002,2.038-10.507,2.843-16.563,4.396c-0.018-6.512-1.211-11.344,2.438-16.228
	c2.163-2.895,2.111-7.383,3.306-11.074c2.31-7.141,4.754-14.238,7.224-21.325c1.713-4.918,3.825-9.711,5.282-14.699
	c1.943-6.65,0.333-7.58-6.593-7.105c-8.361,0.572-14.767,5.646-20.231,10.177c-5.255,4.356-9.337,11.305-10.953,19.168
	c-1.252,6.091-4.999,11.653-7.505,17.508c-2.095,4.893-4.019,9.859-5.979,14.808c-2.613,6.595-4.73,7.921-12.604,7.132
	c1.731-4.931,3.334-9.73,5.121-14.461c0.656-1.735,2.021-3.217,2.6-4.967c3.371-10.194,5.992-20.691,10.133-30.554
	C1275.884,96.607,1278.677,91.855,1278.028,85.506z"/>
<path fill-rule="evenodd" clip-rule="evenodd" d="M1327.883,151.753c0.521-2.042,0.393-4.702,1.644-5.822
	c3.009-2.694,2.794-6.193,3.861-9.479c2.08-6.403,5.003-12.532,7.557-18.784c0.183-0.447,0.159-0.975,0.307-1.441
	c2.06-6.507,4.049-13.038,6.253-19.496c0.629-1.843,2.152-3.379,2.794-5.22c0.652-1.873,0.725-3.949,1.189-6.777
	c-4.357,2.086-7.747,3.708-11.136,5.33c-0.531-0.55-1.062-1.1-1.594-1.649c1.188-1.916,1.933-4.552,3.649-5.608
	c4.653-2.863,9.713-5.069,14.635-7.489c0.405-0.2,1.085,0.133,1.47-0.082c2.43-1.358,5.508-3.95,7.356-0.817
	c1.207,2.046-0.284,5.682-0.558,8.606c-0.03,0.327-0.004,0.659-0.004,1.261c5.923-2.669,11.652-5.647,17.67-7.831
	c4.406-1.599,9.151-2.703,13.818-3.044c7.18-0.525,10.129,3.471,8.515,10.572c-1.009,4.436-1.651,9.031-3.294,13.229
	c-2.141,5.468-5.45,10.475-7.631,15.931c-2.441,6.109-4.055,12.545-6.289,18.745c-0.95,2.636-2.796,4.946-3.772,7.577
	c-0.479,1.286,0.101,2.965,0.2,4.467c1.357-0.436,2.791-0.714,4.055-1.338c2.622-1.298,5.154-2.78,8.014-4.345
	c1.378,3.558,0.819,6.019-2.773,8.013c-5.34,2.964-10.278,6.608-16.927,6.095c-2.822-0.218-4.082-1.302-3.671-3.978
	c0.895-5.826,1.642-11.45,4.571-17.035c3.576-6.818,4.836-14.822,7.397-22.209c2.15-6.201,4.831-12.218,7.064-18.392
	c0.756-2.089,0.863-4.411,1.342-7.037c-7.977-1.532-14.693-1.026-20.562,4.724c-2.753,2.697-6.616,4.241-9.467,6.862
	c-3.568,3.28-7.031,6.771-7.509,12.21c-0.162,1.841-1.831,3.518-2.649,5.343c-0.843,1.88-1.437,3.869-2.229,5.773
	c-2.692,6.47-5.443,12.916-8.122,19.392c-0.422,1.02-0.731,2.131-0.843,3.226C1341.495,148.291,1335.806,152.758,1327.883,151.753z"
	/>
<path fill-rule="evenodd" clip-rule="evenodd" d="M702.227,99.666c0.308,11.364-2.857,20.598-8.673,28.986
	c-3.408,4.918-6.058,10.907-10.61,14.344c-5.425,4.094-10.952,9.11-18.662,9.379c-2.725,0.095-5.446,1.918-8.112,1.787
	c-10.692-0.526-19.16-3.481-24.531-14.788c-3.651-7.686-4.211-14.545-2.268-21.784c1.967-7.324,4.4-15,8.659-21.105
	c4.789-6.866,11.794-12.206,17.975-18.062c0.973-0.922,2.647-1.239,4.061-1.534c6.061-1.265,12.204-3.614,18.205-3.313
	c8.056,0.404,15.369,3.351,19.664,11.683C700.532,90.294,703.046,94.925,702.227,99.666z M690.532,103.853
	c-0.447-0.12-0.896-0.24-1.343-0.36c0-1.332,0.131-2.68-0.022-3.994c-0.738-6.312-0.799-13.043-7.204-16.821
	c-12.155-7.171-26.693,1.479-31.537,10.838c-4.165,8.049-9.582,16-8.798,25.868c0.012,0.143-0.188,0.293-0.202,0.447
	c-0.826,8.564,0.055,16.906,6.001,23.495c2.005,2.22,5.907,3.641,9.019,3.785c11.312,0.523,23.591-7.478,27.192-17.934
	C686.481,120.924,688.273,112.308,690.532,103.853z"/>
<path fill-rule="evenodd" clip-rule="evenodd" d="M676.448,313.091c8.224-1.538,15.095,4.479,19.274,11.78
	c4.262,7.444,7.382,16.21,2.724,25.447c-1.623,3.22-0.795,7.694-2.467,10.869c-4.134,7.85-8.206,15.442-15.555,21.6
	c-6.289,5.269-12.876,8.673-20.218,10.82c-9.572,2.801-19.469,0.479-26.122-6.044c-4.101-4.02-7.774-10.862-6.954-18.225
	c0.638-5.727,0.145-11.633,1.272-17.233c0.82-4.072,3.008-8.094,5.404-11.573c3.596-5.22,7.077-10.384,11.984-14.884
	C654.211,317.928,663.141,313.147,676.448,313.091z M689.437,343.83c-0.416-0.124-0.832-0.248-1.248-0.371
	c0-1.33,0.205-2.698-0.034-3.984c-1.359-7.315-2.22-15.128-10.522-18.228c-2.795-1.044-6.11-0.742-9.195-0.953
	c-7-0.478-13.134,3.815-16.583,7.957c-6.156,7.392-10.252,16.733-11.664,26.742c-0.569,4.036-1.996,8.101-1.725,12.062
	c0.25,3.624,2.387,7.09,3.471,10.691c1.352,4.487,8.875,10.493,13.482,10.533c8.041,0.07,14.381-4.402,19.263-9.619
	c4.558-4.87,8.514-10.787,9.725-18.086C685.352,354.872,687.708,349.403,689.437,343.83z"/>
<path fill-rule="evenodd" clip-rule="evenodd" d="M1484.346,312.426c11.057-1.005,18.616,5.634,22.948,13.287
	c3.906,6.9,6.775,15.722,2.165,24.682c-2.928,5.691-3.646,12.507-6.478,18.266c-2.308,4.694-5.845,9.025-9.645,12.676
	c-3.678,3.533-8.142,6.465-12.696,8.817c-7.744,4-16.188,6.167-24.673,3.001c-5.222-1.947-10.137-3.649-13.539-10.125
	c-4.513-8.591-3.582-16.5-3.512-25.192c0.083-10.323,5.688-18.529,10.966-25.496c5.61-7.404,12.969-15.205,23.594-17.121
	C1477.149,314.559,1480.726,313.372,1484.346,312.426z M1500.333,343.924c-0.514-0.079-1.027-0.158-1.541-0.237
	c2.168-7.888-3.119-13.562-5.565-20.074c-0.19-0.507-0.737-1.022-1.245-1.246c-14.553-6.425-27.998,1.728-33.685,12.326
	c-3.163,5.894-4.893,12.62-6.776,19.113c-1.221,4.206-2.3,8.711-2.06,13.004c0.212,3.773,2.486,7.396,3.599,11.16
	c1.412,4.776,7.937,10.14,12.76,10.321c8.294,0.313,14.727-4.319,19.805-9.575c4.253-4.402,6.65-10.837,9.07-16.701
	C1497.093,356.199,1498.494,349.971,1500.333,343.924z"/>
<path fill-rule="evenodd" clip-rule="evenodd" d="M2545.077,101.612c1.413,9.406-3.086,18.104-7.584,27.016
	c-4.822,9.555-12.277,16.178-21.351,21.051c-6.074,3.263-13.014,5.801-19.83,4.379c-9.056-1.89-18.004-3.885-21.545-15.387
	c-2.76-8.963-2.448-16.545-0.116-25.459c2.061-7.875,5.373-14.625,10.102-20.664c3.466-4.426,8.876-7.277,12.702-11.483
	c5.673-6.236,13.385-6.951,20.588-7.558C2533.566,72.201,2547.032,84.219,2545.077,101.612z M2533.188,103.229
	c0-1.33,0.19-2.693-0.029-3.985c-2.178-12.808-5.176-20.007-17.982-18.825c-4.701,0.434-10.482,1.087-13.621,3.977
	c-6.014,5.535-9.584,13.021-12.857,20.887c-3.939,9.473-5.393,18.601-3.307,28.245c0.818,3.782,2.86,8.249,5.807,10.437
	c7.836,5.819,18.24,4.298,26.174-2.703C2528.846,131.136,2532.223,117.696,2533.188,103.229z"/>
<path fill-rule="evenodd" clip-rule="evenodd" d="M1416.918,132.967c1.155,2.203,2.192,3.769,2.835,5.482
	c2.29,6.107,6.053,9.158,12.679,8.712c5.465-0.367,11.103-1.122,16.199-2.978c3.311-1.205,5.723-4.78,8.675-7.119
	c1.187-0.941,2.744-1.415,4.293-2.181c0.816,5.167-1.763,9.524-6.559,12.391c-4.396,2.628-8.55,5.289-14.13,5.178
	c-4.357-0.087-8.901,2.218-13.077,1.584c-6.347-0.963-12.628-2.491-17.553-7.941c-3.796-4.202-4.623-9.113-4.816-13.72
	c-0.319-7.647-0.29-15.85,2.179-22.915c2.327-6.662,5.266-13.775,11.393-18.725c4.126-3.333,7.41-7.689,11.284-11.362
	c1.289-1.222,3.16-2.144,4.91-2.512c6.384-1.342,12.348-4.441,19.256-3.662c10.445,1.179,18.77,11.268,15.493,20.581
	c-3.125,8.883-7.383,17.372-15.069,23.605c-7.415,6.013-15.094,11.036-24.995,12.043
	C1425.633,129.863,1421.492,131.676,1416.918,132.967z M1415.304,125.375c0.615,0.492,1.231,0.985,1.847,1.478
	c2.427-0.854,4.841-2.388,7.284-2.436c7.619-0.147,14.098-2.154,20.561-6.711c5.542-3.907,9.277-8.956,11.31-14.504
	c1.893-5.167,0.875-11.453,0.858-17.245c-0.013-4.235-3.408-5.4-6.68-5.583c-6.646-0.371-12.555,1.084-17.556,6.357
	c-5.951,6.277-11.811,12.315-12.822,21.446c-0.159,1.441-0.643,2.854-1.045,4.26
	C1417.827,116.755,1416.559,121.063,1415.304,125.375z"/>
<path fill-rule="evenodd" clip-rule="evenodd" d="M1523.287,10.454c-1.504,3.881-3.005,7.763-4.517,11.641
	c-0.058,0.147-0.247,0.245-0.302,0.394c-2.097,5.746-4.197,11.491-6.271,17.246c-2.322,6.443-4.614,12.897-6.929,19.344
	c-0.331,0.919-0.787,1.798-1.062,2.732c-1.746,5.937-3.138,11.999-5.261,17.796c-2.645,7.223-5.964,14.195-8.806,21.351
	c-0.695,1.749-0.347,3.91-1.027,5.669c-2.134,5.517-4.539,10.928-6.818,16.388c-0.688,1.65-1.37,3.309-1.951,4.998
	c-1.063,3.095-2.126,6.194-3.019,9.34c-0.239,0.846,0.136,1.867,0.258,3.109c3.464-1.42,6.597-2.703,11.021-4.515
	c0,2.073,0.61,4.082-0.112,5.303c-2.437,4.116-19.415,11.212-25.74,10.612c0.698-1.763,1.459-3.298,1.916-4.918
	c0.833-2.953,1.216-6.056,2.265-8.92c2.6-7.097,5.667-14.025,8.175-21.152c2.588-7.353,4.688-14.874,7.089-22.294
	c2.643-8.165,4.176-17.032,8.517-24.184c2.824-4.654,2.76-9.37,4.59-13.818c1.985-4.827,4.796-9.322,6.686-14.18
	c1.34-3.444,1.616-7.287,2.62-10.882c0.611-2.19,2.123-4.179,2.483-6.38c0.544-3.327-1.48-3.987-4.181-2.749
	c-1.534,0.702-2.799,2.154-4.367,2.559c-1.013,0.261-2.678-0.48-3.426-1.326c-0.408-0.461,0.132-2.617,0.847-3.08
	c5.238-3.397,10.477-6.861,16.036-9.668c2.797-1.411,6.265-1.493,9.429-2.177C1522.048,9.279,1522.667,9.867,1523.287,10.454z"/>
<path fill-rule="evenodd" clip-rule="evenodd" d="M792.561,135.472c0,2.681,0.647,5.226-0.101,5.74
	c-7.488,5.149-14.293,12.087-25.662,10.875c1.333-4.098,2.466-7.871,3.787-11.576c2.478-6.948,5.091-13.848,7.588-20.789
	c0.77-2.14,1.262-4.378,2.026-6.52c2.638-7.391,5.339-14.76,8.019-22.136c1.98-5.45,3.971-10.896,5.945-16.35
	c1.475-4.07,2.92-8.15,4.399-12.22c2.54-6.99,5.106-13.971,7.643-20.963c1.668-4.598,3.528-9.145,4.827-13.846
	c0.441-1.598-0.329-5.04-0.963-5.146c-2.003-0.335-4.26,0.327-6.306,0.966c-1.301,0.406-2.401,1.454-3.888,2.403
	c-1.229-7.688,15.126-17.415,27.271-16.101c-1.371,4.003-2.558,7.761-3.945,11.442c-1.558,4.129-3.537,8.11-4.902,12.297
	c-2.266,6.946-3.92,14.099-6.332,20.989c-2.222,6.349-5.201,12.429-7.637,18.708c-0.813,2.097-0.698,4.551-1.49,6.66
	c-2.539,6.766-5.355,13.426-7.945,20.172c-0.633,1.648-0.588,3.561-1.237,5.199c-2.484,6.263-5.238,12.421-7.671,18.702
	c-1.769,4.565-3.284,9.239-4.611,13.949c-0.121,0.428,2.285,2.336,2.959,2.081C786.772,139.089,788.97,137.535,792.561,135.472z"/>
<path fill-rule="evenodd" clip-rule="evenodd" d="M1012.22,381.038c3.903-1.516,6.884-2.673,10.857-4.216
	c1.79,0.925,2.174,3.219-0.296,5.058c-3.978,2.962-8.334,5.432-12.625,7.948c-3.783,2.219-7.787,2.481-12.091,1.03
	c3.123-9.23,6.003-18.076,9.12-26.838c2.146-6.032,4.822-11.879,6.895-17.935c2.261-6.604,3.882-13.43,6.188-20.018
	c1.95-5.573,4.521-10.928,6.725-16.416c0.601-1.494,0.744-3.168,1.312-4.678c3.104-8.259,6.368-16.46,9.389-24.749
	c1.564-4.293,2.949-8.679,3.981-13.124c0.387-1.662-0.458-3.611-0.741-5.43c-1.906,0.528-3.803,1.09-5.721,1.574
	c-1.754,0.443-3.529,0.803-5.295,1.199c0.818-1.596,1.246-3.695,2.53-4.69c3.254-2.524,6.683-5.041,10.432-6.649
	c4.193-1.8,8.817-2.597,13.255-3.83c0.49,0.5,0.98,0.999,1.471,1.498c-0.788,3.164-1.273,6.444-2.429,9.468
	c-2.345,6.133-5.338,12.024-7.522,18.207c-1.889,5.348-2.7,11.075-4.586,16.423c-2.133,6.049-5.037,11.82-7.402,17.794
	c-1.308,3.301-2.053,6.82-3.309,10.146c-2.467,6.529-5.291,12.928-7.626,19.501c-1.794,5.051-2.833,10.369-4.624,15.42
	c-2.252,6.348-4.972,12.527-7.381,18.821C1012.314,377.633,1012.44,378.919,1012.22,381.038z"/>
<path fill-rule="evenodd" clip-rule="evenodd" d="M2054.098,76.625c2.959-0.452,5.93-0.595,8.692-1.427
	c2.306-0.695,4.367-2.198,7.411-3.805c-0.187,2.444,0.166,4.031-0.43,4.567c-2.643,2.381-5.348,4.842-8.437,6.534
	c-2.666,1.46-5.927,1.795-8.829,2.884c-1.23,0.462-2.773,1.353-3.215,2.438c-2.24,5.517-4.152,11.166-6.205,16.76
	c-2.627,7.159-5.459,14.25-7.854,21.485c-1.485,4.482-2.325,9.179-3.57,14.255c3.947-1.619,6.823-2.799,9.721-3.986
	c1.252,4.846,1.261,4.857-3.922,8.424c-5.9,4.062-11.676,8.477-20.622,7.237c6.215-22.628,15.634-43.988,23.101-67.619
	c-4.63,2.436-7.839,4.124-11.231,5.908c-0.72-5.03,2.64-11.599,7.115-11.738c8.393-0.261,8.398-7.533,10.957-12.094
	c2.721-4.851,3.502-10.812,4.96-16.333c0.446-1.686,0.33-3.52,0.53-6.021c-4.234,0.935-7.908,1.745-11.583,2.556
	c4.91-8.419,12.444-12.689,20.909-15.218c4.739-1.416,6.652,0.901,5.11,5.724c-2.69,8.412-5.776,16.696-8.526,25.089
	C2056.69,66.793,2055.551,71.457,2054.098,76.625z"/>
<path fill-rule="evenodd" clip-rule="evenodd" d="M2078.323,84.796c-2.033,1.128-4.003,2.402-6.125,3.33
	c-1.369,0.599-2.961,0.688-4.453,1.007c0.407-1.133,0.813-2.266,1.221-3.398c1.596-4.442,4.508-7.044,9.402-7.678
	c1.691-0.219,3.987-1.59,4.627-3.042c2.094-4.76,3.449-9.838,5.293-14.716c1.277-3.378,3.17-6.541,4.244-9.971
	c0.584-1.864,0.031-4.084-0.009-6.144c-1.731,0.354-3.458,0.734-5.194,1.059c-2.262,0.422-4.531,0.801-7.991,1.407
	c6.09-8.597,13.458-12.813,21.866-15.22c5.035-1.442,7.024,0.746,5.424,5.809c-2.453,7.756-5.347,15.371-7.958,23.078
	c-1.761,5.196-3.356,10.448-5.165,16.112c4.848-0.825,10.142,1.64,13.332-3.887c0.145-0.251,1.697-0.104,1.738,0.066
	c0.258,1.053,0.772,2.578,0.273,3.188c-1.938,2.371-3.94,4.899-6.464,6.524c-2.387,1.537-5.472,2.816-8.221,2.763
	c-3.733-0.072-4.794,1.705-5.748,4.619c-2.478,7.562-5.167,15.056-7.716,22.595c-2.233,6.611-4.312,13.276-6.62,19.861
	c-0.899,2.563-2.235,4.975-3.372,7.456c0.438,0.193,0.878,0.387,1.316,0.58c2.572-0.983,5.11-2.071,7.732-2.893
	c0.894-0.279,2.778-0.091,2.863,0.234c0.293,1.124,0.253,2.506-0.172,3.587c-0.306,0.777-1.367,1.342-2.197,1.813
	c-7.064,4.015-13.114,10.556-23.546,9.065c6.483-22.669,15.541-44.178,22.827-66.242
	C2079.129,85.439,2078.726,85.117,2078.323,84.796z"/>
<path fill-rule="evenodd" clip-rule="evenodd" d="M1526.421,24.444c-1.915-5.912,13.937-15.961,25.553-14.622
	c-1.477,5.868-2.848,11.605-4.39,17.297c-0.601,2.221-1.505,4.371-2.419,6.49c-0.897,2.08-2.219,3.999-2.944,6.128
	c-2.731,8.01-5.156,16.126-7.967,24.107c-2.285,6.491-5.142,12.782-7.397,19.282c-1.86,5.36-2.16,11.547-5.036,16.203
	c-4.318,6.994-5.068,15.077-8.643,22.197c-1.891,3.768-3.289,7.825-4.496,11.876c-0.621,2.086-0.339,4.441-0.48,6.964
	c3.424-1.326,6.269-2.429,10.282-3.983c-0.642,3.228-0.514,5.541-1.533,7.105c-2.215,3.397-17.624,8.919-22.569,8.399
	c-0.383-5.007-0.414-9.787,3.297-14.037c1.137-1.302,0.921-3.719,1.543-5.552c0.741-2.184,1.862-4.243,2.553-6.44
	c0.772-2.456,0.986-5.106,1.902-7.496c2.348-6.128,5.176-12.077,7.389-18.249c2.301-6.421,3.97-13.064,6.168-19.525
	c2.089-6.141,4.521-12.165,6.771-18.252c1.092-2.956,2.109-5.939,3.159-8.91c2.83-8.018,5.748-16.006,8.428-24.073
	c0.652-1.967,0.521-4.194,0.896-7.649C1532.724,22.729,1529.753,23.537,1526.421,24.444z"/>
<path fill-rule="evenodd" clip-rule="evenodd" d="M2605.432,85.145c-3.289,1.597-6.578,3.193-9.771,4.744
	c-2.608-6.924,3.569-10.365,6.643-11.021c6.516-1.388,8.637-5.865,10.624-10.462c2.571-5.946,4.127-12.343,5.952-18.594
	c0.445-1.528,0.238-3.246,0.379-5.688c-4.209,0.867-7.953,1.64-11.699,2.411c-0.252-0.415-0.503-0.83-0.755-1.245
	c2.384-2.62,4.351-5.921,7.25-7.703c4.286-2.634,9.111-4.588,13.938-6.096c5.198-1.623,7.243,0.674,5.526,5.994
	c-3.11,9.636-6.593,19.151-9.773,28.766c-1.051,3.174-1.648,6.498-2.777,11.066c5.142-1.533,9.854-2.938,14.88-4.437
	c0.797,1.936,0.348,3.362-1.979,5.403c-4.534,3.975-10.021,5.292-15.186,7.666c-2.711,1.247-3.913,6.167-5.389,9.604
	c-1.709,3.981-2.934,8.168-4.438,12.239c-0.901,2.44-2.071,4.787-2.886,7.253c-2.676,8.102-5.245,16.238-8.128,25.21
	c4.632-1.445,7.646-2.386,10.819-3.376c0.483,7.638-12.883,15.774-25.239,15.168c1.224-4.237,2.229-8.192,3.517-12.054
	c1.649-4.946,3.521-9.818,5.309-14.718c3.298-9.038,6.601-18.073,9.907-27.107c1.48-4.046,2.974-8.087,4.462-12.131
	C2606.221,85.741,2605.827,85.442,2605.432,85.145z"/>
<path fill-rule="evenodd" clip-rule="evenodd" d="M1650.209,77.534c5.537-1.835,9.916-3.287,14.24-4.721
	c1.531,5.606-7.121,12.118-17.809,12.595c-2.896,7.441-6.015,14.988-8.767,22.667c-2.232,6.228-3.357,12.94-6.235,18.821
	c-2.131,4.351-4.06,8.26-3.109,13.352c3.085-1.152,6.023-2.249,10.229-3.819c-0.896,3.435-0.852,5.873-2.033,7.285
	c-3.038,3.63-17.207,8.658-22.202,8.3c-0.572-4.495-0.54-8.697,2.475-12.726c1.229-1.641,0.69-4.488,1.517-6.564
	c2.727-6.849,5.843-13.542,8.525-20.406c1.05-2.685,0.512-6.338,2.156-8.37c3.818-4.718,1.214-12.018,6.864-15.789
	c0.373-0.249,0.049-1.543,0.049-3.681c-3.091,1.489-5.457,2.778-7.942,3.771c-1.407,0.562-3.009,0.639-4.523,0.935
	c0.322-1.839-0.006-4.465,1.089-5.368c3.063-2.53,6.551-4.712,10.179-6.348c3.689-1.662,6.015-3.66,6.414-7.991
	c0.226-2.442,1.436-4.969,2.777-7.093c2.036-3.224,4.331-14.93,2.993-18.896c-1.555,0.667-3.054,1.477-4.653,1.949
	c-1.611,0.478-3.322,0.62-4.989,0.91c-0.282-0.413-0.564-0.826-0.847-1.238c2.078-2.545,3.694-5.842,6.339-7.464
	c4.349-2.666,9.261-4.573,14.15-6.121c1.896-0.6,4.377,0.647,6.591,1.054c-0.457,1.818-0.911,3.639-1.373,5.456
	c-0.521,2.051-0.908,4.15-1.604,6.143c-2.801,8.03-5.776,16.002-8.514,24.054C1651.364,70.676,1651.088,73.312,1650.209,77.534z"/>
<path fill-rule="evenodd" clip-rule="evenodd" d="M1927.727,312.438c1.771,5.064-2.06,7.103-5.238,8.822
	c-3.393,1.836-7.314,2.68-10.971,4.052c-1.139,0.428-2.828,0.933-3.127,1.796c-1.646,4.763-2.682,9.743-4.424,14.464
	c-1.937,5.246-4.416,10.291-6.629,15.437c-0.19,0.442-0.068,1.014-0.234,1.474c-2.16,5.995-4.383,11.969-6.491,17.982
	c-0.358,1.021-0.259,2.202-0.52,4.796c3.901-1.759,6.896-3.109,10.039-4.526c1.511,2.234,1.899,3.861-1.325,5.672
	c-3.59,2.016-6.42,5.376-9.998,7.42c-2.76,1.576-6.164,2.024-9.584,3.066c-2.752-2.233-4.216-7.405-1.153-10.616
	c3.107-3.259,2.504-7.079,3.947-10.482c2.289-5.395,4.7-10.738,6.915-16.163c0.666-1.631,0.698-3.513,1.289-5.185
	c0.988-2.799,2.275-5.491,3.277-8.285c0.701-1.953,1.109-4.01,1.696-6.006c1.012-3.443,2.062-6.876,3.407-11.35
	c-3.568,1.572-7.038,3.102-11.352,5.003c-2.376-1.217-1.193-3.846,0.637-5.298c3.496-2.772,7.477-4.948,11.322-7.261
	c2.907-1.746,4.509-3.747,5.219-7.509c1.229-6.502,4.044-12.69,5.947-19.084c0.64-2.148,0.527-4.52,0.759-6.789
	c-0.475-0.215-0.948-0.43-1.423-0.645c-1.931,1.208-3.758,2.672-5.837,3.513c-0.991,0.4-2.785-0.025-3.598-0.76
	c-0.509-0.461-0.302-2.814,0.326-3.252c4.218-2.94,8.568-5.712,13.017-8.294c2.247-1.304,4.715-2.371,7.217-3.062
	c4.366-1.204,7.271,1.491,6.216,5.812c-0.538,2.209-1.999,4.178-2.882,6.321c-1.233,2.994-2.325,6.048-3.463,9.081
	c-2.498,6.665-5.023,13.32-7.437,20.017c-0.317,0.882-0.043,1.977-0.043,4.589C1918.422,315.487,1923.03,313.978,1927.727,312.438z"
	/>
<path fill-rule="evenodd" clip-rule="evenodd" d="M2581.418,77.412c5.34-1.73,9.851-3.192,14.262-4.622
	c0.448,3.867-4.408,9.479-9.21,10.499c-2.88,0.612-6.552,0.576-8.365,2.359c-2.383,2.342-3.458,6.118-4.795,9.4
	c-4.028,9.893-8.149,19.758-11.747,29.809c-1.716,4.795-2.329,9.983-3.615,15.775c3.821-1.576,6.796-2.804,9.869-4.071
	c3.416,2.995,0.676,5.934-1.289,7.3c-4.278,2.975-9.117,5.224-13.924,7.32c-2.298,1.002-5.043,0.98-8.6,1.599
	c1.456-12.719,7.585-23.131,10.807-34.38c3.188-11.129,7.848-21.837,12.309-33.941c-3.101,1.407-5.451,2.549-7.863,3.542
	c-1.414,0.582-2.925,0.93-4.393,1.383c0.295-1.955-0.116-4.747,1.019-5.701c3.017-2.535,6.543-4.633,10.163-6.234
	c3.556-1.572,5.553-3.721,6.246-7.604c0.465-2.607,2.357-4.971,2.769-7.576c0.968-6.137,5.185-11.736,3.672-18.719
	c-4.003,1.196-7.418,2.217-10.833,3.236c-0.27-0.459-0.538-0.918-0.808-1.377c2.683-3.683,5.403-7.17,10.207-8.867
	c3.938-1.393,7.521-3.827,11.491-5.068c1.707-0.533,3.992,0.782,6.015,1.259c-0.433,1.687-0.838,3.381-1.306,5.059
	c-1.087,3.898-2.182,7.796-3.326,11.679c-0.292,0.99-0.813,1.911-1.177,2.885c-2.606,6.987-5.225,13.972-7.755,20.987
	C2580.987,74.045,2581.288,74.948,2581.418,77.412z"/>
<path fill-rule="evenodd" clip-rule="evenodd" d="M1562.845,381.203c4.152-1.522,7.213-2.646,11.09-4.067
	c-0.212,1.295,0.115,3.579-0.852,4.487c-4.837,4.547-9.788,9.069-16.955,9.744c-1.229,0.115-2.366,1.226-3.536,1.872
	c-2.922-2.479-4.094-8.606-1.322-11.508c2.553-2.674,2.277-5.683,3.229-8.627c1.944-6.013,4.946-11.684,7.487-17.506
	c0.192-0.441,0.114-0.994,0.278-1.454c1.753-4.899,3.619-9.76,5.271-14.692c1.497-4.468,2.768-9.011,4.547-14.868
	c-4.036,1.784-7.515,3.321-11.313,5c-2.405-2.149-0.341-7.235,4.669-9.258c1.885-0.76,4.065-1.019,5.697-2.12
	c3.455-2.334,5.799-4.863,6.505-9.897c0.884-6.301,4.764-12.147,7.011-18.314c0.59-1.618-0.078-3.694-0.168-5.561
	c-2.263,0.352-4.548,0.6-6.78,1.091c-1.382,0.304-2.683,0.976-4.02,1.482c-0.139-1.29-0.827-3.415-0.332-3.74
	c5.314-3.492,10.771-6.777,16.293-9.938c1.688-0.967,3.646-1.629,5.564-1.993c4.171-0.792,5.444,1.839,4.855,5.224
	c-0.411,2.366-1.944,4.523-2.859,6.82c-0.76,1.908-1.304,3.902-2.026,5.827c-0.969,2.578-2.003,5.132-3.046,7.682
	c-0.181,0.442-0.65,0.771-0.812,1.215c-1.393,3.828-2.829,7.643-4.072,11.52c-0.625,1.948-0.876,4.017-1.688,7.907
	c5.984-1.956,10.57-3.454,15.202-4.968c1.906,5.681-2.921,7.41-6.147,9.313c-3.142,1.854-7.115,2.268-10.673,3.463
	c-0.981,0.33-2.309,1.015-2.589,1.839c-3.254,9.557-6.168,19.23-9.521,28.75c-2.4,6.813-5.36,13.429-7.992,20.164
	C1563.396,377.228,1563.35,378.52,1562.845,381.203z"/>
<path fill-rule="evenodd" clip-rule="evenodd" d="M1930.774,380.825c4.032-1.662,7.051-2.906,10.252-4.226c0,1.759,0,3.392,0,5.777
	c-6.942,3.7-14.163,7.549-21.383,11.397c-0.598-0.235-1.195-0.47-1.794-0.705c0.189-4.085-0.444-8.427,0.731-12.205
	c2.88-9.255,6.511-18.283,10.004-27.34c2.364-6.131,5.217-12.08,7.435-18.26c1.065-2.968,1.167-6.282,1.845-10.256
	c-3.631,1.723-6.975,3.31-10.271,4.874c-1.973-6.021,2.047-8.916,5.981-10.083c7.565-2.244,10.487-7.079,11.834-14.352
	c0.967-5.22,3.585-10.12,5.258-15.231c0.541-1.653,0.423-3.523,0.735-6.548c-3.616,1.022-6.451,1.823-10.082,2.85
	c0-0.791-0.615-2.806,0.102-3.567c4.245-4.512,8.793-8.743,15.345-9.668c0.493-0.069,1.009-0.013,1.49-0.119
	c2.177-0.482,4.345-1.002,6.517-1.508c0.153,2.621,1.073,5.488,0.324,7.819c-2.955,9.19-6.444,18.209-9.713,27.3
	c-1.048,2.915-2.025,5.855-3.063,8.866c5.885,2.691,10.305-1.518,15.194-3.765c2.252,5.726-2.538,7.564-5.021,10.027
	c-1.812,1.798-5.05,2.824-7.714,2.958c-5.669,0.283-7.59,3.365-8.75,8.375c-1.572,6.788-3.648,13.492-5.998,20.058
	c-2.318,6.474-5.395,12.672-7.829,19.107C1931.316,374.746,1931.317,377.425,1930.774,380.825z"/>
<path fill-rule="evenodd" clip-rule="evenodd" d="M1534.089,376.838c1.391,1.88,2.338,3.653-1.374,5.569
	c-3.709,1.914-6.836,4.922-10.406,7.149c-3.496,2.182-9.712,2.478-13.379,0.828c7.566-21.432,15.146-42.902,22.726-64.373
	c-0.42-0.393-0.84-0.786-1.26-1.18c-2.484,1.354-4.934,2.78-7.477,4.016c-0.81,0.393-1.999,0.591-2.763,0.272
	c-0.473-0.197-0.909-2.016-0.612-2.286c3.056-2.791,4.364-7.404,9.801-7.849c2.193-0.18,4.938-3.151,6.028-5.503
	c3.312-7.142,6.102-14.543,8.739-21.97c0.872-2.456,0.665-5.295,1.06-8.969c-4.5,1.892-7.359,3.095-10.357,4.355
	c-0.497-0.521-1.248-1.308-1.927-2.018c4.905-6.21,10.794-10.912,19.12-11.712c2.011-0.192,3.973-0.889,5.956-1.354
	c0.098,2.489,0.714,5.094,0.191,7.446c-1.285,5.786-2.719,11.598-4.79,17.139c-2.44,6.528-5.615,12.783-8.732,19.739
	c4.445-0.382,8.427,2.012,11.411-2.591c0.755-1.164,3.56-0.998,5.473-1.455c0.479,3.523-3.362,8.767-7.29,10.094
	c-3.538,1.195-7.227,1.954-10.734,3.221c-1.246,0.45-2.761,1.645-3.118,2.814c-1.942,6.358-3.262,12.916-5.384,19.207
	c-1.836,5.445-4.685,10.544-6.666,15.949c-1.977,5.395-3.431,10.98-5.491,17.716
	C1527.112,379.478,1530.218,378.303,1534.089,376.838z"/>
<path fill-rule="evenodd" clip-rule="evenodd" d="M1610.545,96.128c-0.926-14.946-5.06-19.535-18.487-17.689
	c-1.177,2-2.352,3.997-3.906,6.638c1.761,2.871,3.593,6.454,5.98,9.619c3.862,5.119,7.888,10.148,12.216,14.875
	c4.906,5.357,4.962,11.962,4.603,18.285c-0.329,5.797-1.878,12.102-6.319,16.073c-4.633,4.143-9.742,8.328-16.772,8.446
	c-2.547,0.043-5.073,1.181-7.616,1.787c-0.479,0.114-1.018,0.196-1.486,0.095c-8.431-1.812-18.487-1.608-23.215-9.81
	c-2.659-4.615-1.354-11.602-1.541-17.528c-0.154-4.898,3.467-7.046,7.349-8.613c0.96-0.388,2.302,0.171,3.468,0.294
	c-0.188,1.043-0.242,2.133-0.586,3.121c-1.282,3.688-2.966,7.263-3.922,11.027c-1.173,4.621,6.969,14.388,11.87,14.507
	c4.825,0.116,9.656,0.086,14.482,0.011c6.632-0.104,13.572-7.056,13.486-13.678c-0.056-4.272,0.277-8.81-1.05-12.724
	c-1.105-3.256-4.351-5.798-6.697-8.616c-2.057-2.47-4.354-4.758-6.231-7.354c-2.249-3.108-4.102-6.5-6.239-9.693
	c-4.354-6.502-0.058-17.38,7.262-19.757c3.842-1.247,8.005-1.88,12.048-2.004c2.673-0.082,5.38,1.711,8.09,1.765
	c2.056,0.04,4.14-1.34,6.382-2.148C1616.482,93.231,1616.168,95.597,1610.545,96.128z"/>
<path fill-rule="evenodd" clip-rule="evenodd" d="M1006.045,85.76c-4.454-1.836-7.45,8.229-12.086,1.241
	c3.8-5.349,8.83-9.062,15.065-11.113c2.493-0.819,4.917-1.931,7.464-2.484c2.875-0.625,5.059,0.454,4.15,3.815
	c-1.233,4.566-2.999,8.985-4.41,13.506c-2.08,6.666-3.893,13.418-6.112,20.036c-1.968,5.865-4.271,11.622-6.546,17.379
	c-1.703,4.308-3.729,8.489-5.381,12.814c-2.434,6.372-4.281,12.999-7.121,19.176c-1.759,3.823-4.951,6.974-7.394,10.499
	c-1.864,2.691-3.585,5.483-5.329,8.256c-5.93,9.428-14.614,15.084-25.066,18.297c-0.766,0.235-1.826,0.37-2.455,0.021
	c-1.625-0.903-3.086-2.105-4.613-3.188c1.617-0.911,3.141-2.299,4.869-2.633c3.418-0.659,6.468-0.932,9.492-3.644
	c5.947-5.334,11.16-11.009,14.581-18.239c2.793-5.905,5.741-11.749,8.232-17.781c3.433-8.312,6.636-16.725,9.685-25.186
	c2.939-8.16,4.981-16.693,8.516-24.571C1003.991,96.601,1006.78,91.678,1006.045,85.76z"/>
<path fill-rule="evenodd" clip-rule="evenodd" d="M2171.209,333.278c9.961-7.747,17.02-19.178,30.793-20.491
	c3.301,7.062,2.645,7.853-4.593,11.613c-6.857,3.562-14.362,6.823-19.701,12.115c-6.097,6.043-13.701,11.25-16.171,20.664
	c-1.4,5.336-5.005,10.063-7.312,15.201c-1.927,4.29-3.491,8.751-5.065,13.189c-1.336,3.768-3.576,6.051-7.852,5.802
	c-0.481-0.027-1.006,0.669-1.907,1.313c-2.279-5.437,0.588-10.112,2.126-14.913c0.405-1.265,1.17-2.409,1.663-3.651
	c2.762-6.965,5.724-13.862,8.176-20.936c3.104-8.951,5.783-18.05,8.646-27.084c-0.448-0.295-0.896-0.591-1.345-0.886
	c-1.675,0.778-3.312,1.659-5.038,2.302c-1.383,0.516-2.874,0.743-4.316,1.098c0.274-1.693-0.025-4.377,0.916-4.924
	c7.945-4.618,15.049-11.627,25.158-10.394C2179.417,321.347,2170.561,326.235,2171.209,333.278z"/>
<path fill-rule="evenodd" clip-rule="evenodd" d="M1538.286,140.18c2.993-1.225,5.985-2.449,10.001-4.093
	c0,2.03,0.669,4.904-0.104,5.364c-7.644,4.562-14.098,12.102-25.462,10.529c0.729-1.866,1.494-3.398,1.926-5.02
	c0.748-2.814,0.972-5.805,1.985-8.507c2.313-6.161,5.066-12.155,7.44-18.294c0.871-2.253,0.967-4.798,1.781-7.08
	c2.697-7.555,5.626-15.027,8.299-22.591c0.478-1.352,0.159-2.985,0.208-4.489c-1.419,0.279-2.84,0.546-4.254,0.846
	c-0.315,0.067-0.596,0.323-0.91,0.373c-2.37,0.371-4.923,4.974-6.835,0.418c-0.516-1.229,2.454-4.866,4.577-6.073
	c5.485-3.118,11.353-5.584,17.163-8.089c1.056-0.455,2.883-0.28,3.765,0.386c0.72,0.542,1.035,2.406,0.709,3.42
	c-2.453,7.616-5.104,15.169-7.708,22.736c-0.423,1.227-0.932,2.423-1.391,3.637c-2.604,6.879-5.354,13.707-7.744,20.659
	c-1.208,3.512-1.648,7.28-2.668,10.867c-0.443,1.562-1.468,2.958-2.229,4.43C1537.32,139.799,1537.803,139.989,1538.286,140.18z"/>
<path fill-rule="evenodd" clip-rule="evenodd" d="M2147.623,227.181c-3.744,1.987-7.9,4.568-12.354,6.442
	c-3.654,1.538-7.21,0.819-10.187-2.329c-1.09-1.152-3.314-1.199-4.486-2.312c-7.997-7.604-5.575-20.322,4.606-24.791
	c9.953-4.368,15.974-2.891,21.633,6.089c1.576,2.501,1.943,5.978,2.157,9.056C2149.156,221.691,2148.204,224.125,2147.623,227.181z
	 M2125.19,218.321c-0.001,5.46,2.817,9.014,7.104,8.957c3.657-0.049,8.973-5.819,8.859-9.618c-0.129-4.336-3.504-7.333-8.31-7.378
	C2127.558,210.232,2125.191,212.719,2125.19,218.321z"/>
<path fill-rule="evenodd" clip-rule="evenodd" d="M1571.8,37.754c3.536,17.783-6.794,26.345-18.277,26.304
	c1.062-1.748,1.532-3.302,2.578-4.105c4.183-3.217,4.718-6.221,2.696-11.086c-0.648-1.561,0.052-4.394,1.174-5.838
	C1562.788,39.401,1565.775,35.337,1571.8,37.754z"/>
<path fill-rule="evenodd" clip-rule="evenodd" d="M1034.168,37.986c0,4.368,0.731,9.152-0.248,13.557
	c-0.698,3.144-3.317,6.173-5.781,8.513c-2.039,1.936-4.99,3.177-7.753,3.997c-2.232,0.664-5.26,0.986-5.171-1.398
	c3.233-3.36,5.681-5.595,7.692-8.17c0.657-0.84,0.746-3.238,0.118-3.769c-2.391-2.021-4.765-5.01-2.197-6.959
	C1024.456,41.004,1026.964,34.905,1034.168,37.986z"/>
<path fill-rule="evenodd" clip-rule="evenodd" d="M387.324,46.387c2.066,2.923,3.507,4.511,4.422,6.358
	c1.387,2.799,2.603,5.836-0.551,8.375c-2.204,1.774-4.529,3.398-6.801,5.089c-1.717-2.677-5.014-5.498-4.787-7.999
	c0.357-3.943,2.911-7.768,4.95-11.41C384.963,46.075,387.238,46.396,387.324,46.387z"/>
<path fill-rule="evenodd" clip-rule="evenodd" d="M431.512,66.011c-1.926-2.81-3.515-4.729-4.616-6.896
	c-0.597-1.175-0.998-3.219-0.383-4.096c1.947-2.774,4.301-5.299,6.723-7.692c1.56-1.542,3.29-2.344,4.058,0.988
	c0.541,2.349,1.625,4.565,2.336,6.882C441.358,60.832,436.727,66.38,431.512,66.011z"/>
<path fill-rule="evenodd" clip-rule="evenodd" d="M349.212,56.117c2.815-3.391,5.405-6.634,8.192-9.697
	c0.308-0.338,2.293,0.07,2.562,0.605c1.548,3.077,3.047,6.222,4.096,9.493c0.726,2.265-5.727,9.602-8.219,9.667
	c-0.53,0.014-1.319-0.364-1.572-0.803C352.657,62.583,351.158,59.717,349.212,56.117z"/>
<path fill-rule="evenodd" clip-rule="evenodd" d="M461.679,66.41c-6.812-6.148-6.227-15.793,1.139-19.755
	c0.651-0.351,2.717,0.789,3.339,1.748c1.523,2.347,3.823,5.151,3.524,7.477c-0.38,2.943-2.916,5.67-4.753,8.33
	C464.295,65.127,462.972,65.566,461.679,66.41z"/>
</svg>
