<?xml version="1.0" encoding="utf-8"?>
<!-- Generator: Adobe Illustrator 16.0.0, SVG Export Plug-In . SVG Version: 6.00 Build 0)  -->
<!DOCTYPE svg PUBLIC "-//W3C//DTD SVG 1.1//EN" "http://www.w3.org/Graphics/SVG/1.1/DTD/svg11.dtd">
<svg version="1.1" id="Lag_1" xmlns="http://www.w3.org/2000/svg" xmlns:xlink="http://www.w3.org/1999/xlink" x="0px" y="0px"
	 width="1732.95px" height="955.841px" viewBox="0 0 1732.95 955.841" enable-background="new 0 0 1732.95 955.841"
	 xml:space="preserve">
<path fill-rule="evenodd" clip-rule="evenodd" d="M1107.843,348.693c0.19,4.886-1.615,7.027-6.261,7.35
	c-1.161,0.08-2.343,0.116-3.497,0c-14.229-1.433-15.423,3.322-20.844,14.731c-10.922,22.982-15.89,47.815-20.181,72.736
	c-2.41,14-5.357,27.96-6.734,42.068c-1.113,11.423-0.447,23.044-0.157,34.567c0.134,5.305,3.434,8.12,8.743,7.841
	c6.978-0.366,13.929-1.24,21.328-1.937c-0.924,0.652-1.555,1.383-2.33,1.604c-12.361,3.51-24.703,7.097-37.127,10.371
	c-11.465,3.021-14.051,1.243-15.463-12.408c-0.656-6.347,1.215-12.999,2.236-19.466c2.063-13.062,4.36-26.087,6.498-39.137
	c0.889-5.433,1.617-10.892,2.51-16.956c-9.376,0-17.832,0-26.287,0c-9.667,0-19.338,0.17-28.998-0.087
	c-3.688-0.098-5.381,1.234-6.234,4.681c-5.109,20.628-12.9,40.211-26.304,56.824c-13.485,16.716-30.302,28.324-53.09,27.52
	c-7.69-0.271-15.563-0.397-22.981-2.155c-9.894-2.345-15.729-15.214-12.23-24.613c1.611-4.332,12.471-9.458,15.908-6.701
	c2.214,1.774,3.278,5.832,3.557,8.98c0.468,5.305,1.013,10.237,4.598,14.597c5.368,6.529,16.566,6.986,24.047,4.166
	c18.892-7.122,30.392-21.72,36.14-39.71c7.809-24.438,13.244-49.649,19.297-74.627c2.53-10.442,3.984-21.145,6.016-31.712
	c1.254-6.528-0.135-9.693-6.858-9.87c-13.689-0.361-27.222,1.089-38.02,11.154c-7.781,7.254-9.224,16.092-6.929,26.109
	c0.473,2.064-0.027,4.9-1.21,6.589c-0.697,0.996-4.244,1.259-5.389,0.385c-1.697-1.297-3.166-3.809-3.406-5.952
	c-2.096-18.653,11.273-32.879,26.993-38.78c9.446-3.546,19.164-4.289,28.928-4.681c12.06-0.484,24.154-0.116,36.363-0.116
	c-0.222,0.767-0.273,1.315-0.4,1.334c-7.576,1.073-9,6.263-10.218,12.948c-3.209,17.618-7.274,35.085-11.287,52.547
	c-0.889,3.868-0.087,5.216,3.822,5.199c16.499-0.069,32.999,0.006,49.499-0.056c3.845-0.015,6.128-1.148,7.44-5.788
	c5.171-18.289,10.891-36.437,16.939-54.459c3.715-11.065,12.475-18.271,21.735-24.637c5.366-3.688,11.131-6.817,16.831-9.992
	C1099.01,346.83,1103.409,346,1107.843,348.693z"/>
<path fill-rule="evenodd" clip-rule="evenodd" d="M1013.035,743.732c0.36-2.833,0.388-5.759,1.151-8.478
	c1.621-5.769-1.135-10.088-4.961-13.322c-7.857-6.64-17.457-9.3-27.599-9.846c-14.456-0.778-27.791,2.197-40.028,10.617
	c-13.232,9.105-21.403,21.35-25.6,36.545c-4.296,15.557-4.183,30.944,0.885,46.456c6.666,20.401,25.247,29.256,45.807,25.632
	c22.275-3.927,31.88-19.237,37.203-38.772c1.157-4.243,2.283-7.123,6.864-8.584c5.699-1.818,11.093-4.594,17.394-7.287
	c-0.391,1.635-0.336,3.237-0.906,3.504c-6.209,2.909-5.939,9.122-7.033,14.296c-4.277,20.243-7.528,40.72-12.314,60.836
	c-5.315,22.344-13.736,43.65-28.445,61.665c-15.749,19.288-35.595,33.199-60.329,37.623c-11.968,2.142-24.663,0.979-36.96,0.211
	c-6.272-0.393-11.968-4.427-15.27-9.869c-1.727-2.846-1.817-7.313-1.225-10.808c1.33-7.839,3.522-15.534,5.427-23.272
	c0.4-1.624,1.076-3.182,1.625-4.77c0.45,0.044,0.899,0.088,1.349,0.131c0,3.019,0.205,6.053-0.034,9.052
	c-1.324,16.6,8.172,23.912,20.13,28.488c20.051,7.674,38.48,2.816,55.065-10.343c16.021-12.713,24.457-30.342,31.779-48.662
	c7.531-18.843,11.312-38.688,15.018-58.531c0.113-0.605-0.139-1.279-0.193-1.716c-8.084,3.555-15.955,7.443-24.132,10.521
	c-15.58,5.863-31.546,9.283-47.848,2.977c-14.979-5.795-24.839-16.848-27.591-32.545c-4.242-24.2,2.019-46.004,17.852-65.038
	c15.521-18.655,35.756-28.317,59.238-32.468c15.655-2.767,31.048-2.241,45.933,3.195c9.576,3.498,9.742,4.946,6.807,13.02
	c-2.42,6.656-4.953,13.272-7.437,19.906C1014.116,743.975,1013.575,743.854,1013.035,743.732z"/>
<path fill-rule="evenodd" clip-rule="evenodd" d="M540.044,406.74c0.344-2.845,0.545-5.715,1.059-8.528
	c1.247-6.822-1.923-11.363-7.141-15.223c-6.687-4.944-14.42-7.037-22.355-7.81c-16.541-1.609-32.181,1.528-45.544,11.952
	c-13.739,10.718-22.12,24.949-24.934,42.164c-2.2,13.456-1.701,26.78,2.846,39.886c6.813,19.641,25.143,28.387,44.774,25.182
	c21.056-3.437,31.857-16.79,37.05-35.662c2.027-7.369,5.265-11.77,12.522-13.791c4.235-1.18,8.21-3.295,12.731-4.51
	c-8.548,5.736-7.348,15.049-8.878,23.063c-5.743,30.078-10.553,60.33-23.49,88.54c-13.522,29.486-35.014,50.629-65.398,61.702
	c-16.238,5.918-33.483,6.46-50.507,2.271c-2.923-0.72-5.804-2.306-8.257-4.103c-5.525-4.046-7.882-9.076-5.633-16.33
	c2.402-7.746,3.575-15.87,5.39-23.806c0.219-0.959,1.084-1.77,2.789-2.459c0,3.541,0.135,7.087-0.025,10.62
	c-0.516,11.377,5.217,18.882,14.721,24.093c19.626,10.761,38.245,7.034,56.051-4.36c11.14-7.129,18.925-17.438,25.32-28.868
	c13.641-24.38,20.65-50.865,24.974-78.217c0.321-2.035,0.788-4.047,1.304-6.656c-6.333,2.973-11.83,5.722-17.46,8.162
	c-12.864,5.575-26.111,9.648-40.358,8.987c-16.069-0.744-28.213-8.151-36.857-21.691c-8.208-12.855-7.832-26.806-5.3-40.896
	c3.229-17.969,11.72-33.287,25.315-45.49c14.31-12.845,31.05-20.978,50.131-23.85c6.972-1.05,14.165-2.501,21.054-1.791
	c9.965,1.028,19.81,3.595,29.574,6.028c4.69,1.169,6.216,4.948,4.487,9.564c-2.769,7.396-5.687,14.735-8.541,22.099
	C540.987,406.923,540.515,406.831,540.044,406.74z"/>
<path fill-rule="evenodd" clip-rule="evenodd" d="M1627.887,762.863c2.713-6.588,8.568-4.675,13.636-4.611
	c0.795,0.011,2.396,2.314,2.222,3.313c-3.748,21.517-7.816,42.978-11.566,64.493c-2.887,16.564-5.173,33.236-8.184,49.776
	c-3.065,16.842-10.294,31.803-21.214,45.105c-13.66,16.643-30.786,28.058-51.514,33.146c-8.183,2.009-17.379,1.998-25.735,0.618
	c-9.032-1.491-14.341-12.21-12.421-21.186c0.13-0.605,0.381-1.289,0.801-1.715c4.517-4.583,9.078-9.122,14.534-14.58
	c0.233,2.596,0.723,4.051,0.424,5.32c-3.82,16.203,10.046,27.968,25.573,25.266c14.83-2.58,24.658-12.044,31.954-24.542
	c10.836-18.564,16.34-38.907,19.727-59.938c0.146-0.906,0.567-1.769,1.28-3.91c-7.535,3.413-14.075,6.42-20.652,9.343
	c-7.578,3.367-14.894,7.021-23.593,7.553c-9.158,0.56-13.701-2.402-14.049-11.962c-0.93-25.484,3.272-49.946,15.133-72.789
	c5.094-9.813,13.929-15.443,23.186-20.563c4.86-2.688,9.671-5.5,14.697-7.843C1610.498,759.257,1619.102,761.506,1627.887,762.863z
	 M1570.072,842.388c0,3.329-0.348,6.702,0.071,9.979c0.937,7.338,3.613,11.584,11.076,10.655c4.519-0.562,9.148-0.992,13.454-2.352
	c9.289-2.933,16.652-7.97,17.399-18.974c0.188-2.757,0.796-5.489,1.282-8.221c3.224-18.127,6.523-36.241,9.603-54.392
	c0.273-1.609-0.298-4.367-1.419-5.054c-12.361-7.575-31.473-7.312-38.612,9.455C1574.899,802.335,1570.588,821.932,1570.072,842.388
	z"/>
<path fill-rule="evenodd" clip-rule="evenodd" d="M1295.779,521.597c-8.074,3.712-15.786,7.176-23.426,10.791
	c-7.634,3.612-15.394,6.308-24.071,5.734c-5.783-0.382-8.703-2.235-9.096-8.11c-0.479-7.16-0.756-14.442,0.006-21.552
	c1.092-10.2,2.581-20.445,5.033-30.393c3.143-12.749,7.507-25.404,17.84-34.285c10.191-8.758,21.962-15.22,34.78-19.553
	c0.759-0.256,1.647-0.152,2.477-0.165c8.811-0.142,17.792,1.837,26.187-2.999c1.766-1.017,4.616-0.148,7.737-0.148
	c-0.791,5.341-1.4,10.305-2.276,15.222c-2.576,14.448-5.298,28.871-7.89,43.316c-4.033,22.479-7.647,45.04-12.147,67.424
	c-2.504,12.459-8.85,23.465-16.689,33.423c-13.349,16.955-30.285,28.879-51.023,35.145c-9.876,2.983-19.836,4.343-29.923,0.708
	c-10.867-3.917-14.169-17.518-6.264-25.611c3.215-3.292,6.096-6.911,9.128-10.381c0.635,0.351,1.27,0.702,1.903,1.053
	c0,4.05-0.247,8.117,0.045,12.146c0.989,13.644,15.218,18.88,24.626,17.406c16.854-2.639,27.079-13.709,34.717-27.666
	c9.412-17.2,14.523-35.879,17.646-55.146c0.154-0.948,0.728-1.833,0.852-2.78C1296.073,524.229,1295.875,523.241,1295.779,521.597z
	 M1259.071,505.721c0,2.499-0.253,5.029,0.045,7.493c1.107,9.174,4.063,14.104,13.533,12.694c5.882-0.876,11.779-2.645,17.243-5
	c4.316-1.859,8.842-4.329,9.82-9.977c0.61-3.526,1.694-6.969,2.336-10.491c3.356-18.451,6.847-36.883,9.737-55.408
	c0.46-2.945,3.319-7.267-1.215-9.724c-12.709-6.889-31.561-6.786-38.706,10.394C1263.881,464.896,1259.635,484.926,1259.071,505.721
	z"/>
<path fill-rule="evenodd" clip-rule="evenodd" d="M1356.278,0.008c-7.912,7.325-7.242,16.877-9.045,25.393
	c-3.814,18.021-6.907,36.202-9.963,54.375c-2.032,12.094-3.477,24.286-5.207,36.431c-1.591,11.168-3.563,22.296-4.723,33.508
	c-1.169,11.311-1.754,22.695-2.146,34.063c-0.128,3.708,1.912,6.631,6.48,6.293c3.907-0.29,7.822-0.477,12.573-0.759
	c-1.467,1.049-2.311,2.007-3.354,2.341c-9.917,3.175-19.822,6.406-29.829,9.276c-5.097,1.462-6.91-0.257-6.992-5.67
	c-0.03-1.977-0.005-3.953-0.005-6.872c-4.498,1.952-8.373,3.523-12.153,5.297c-9.566,4.49-19.317,7.66-30.164,7.485
	c-15.286-0.247-17.354-7.055-17.464-17.252c-0.254-23.847,4.916-46.688,15.491-68.242c5.155-10.509,14.689-15.846,23.833-21.927
	c6.601-4.389,13.796-6.587,21.426-7.499c3.178-0.38,6.518,0.407,9.762,0.837c2.842,0.376,3.874-1.201,4.234-3.568
	c2.365-15.507,4.713-31.017,7.042-46.528c1.359-9.05,2.648-18.11,4.049-27.154c0.138-0.887,0.636-2.151,1.315-2.454
	C1339.1,3.977,1346.69,0.241,1356.278,0.008z M1317.29,94.725c-2.135-0.839-3.494-1.395-4.869-1.91
	c-9.097-3.414-17.3-2.443-24.383,4.743c-8.167,8.288-12.702,18.602-15.847,29.465c-2.571,8.882-5.012,17.993-5.793,27.149
	c-0.767,8.991-2.122,18.243,0.641,27.284c1.617,5.293,5.487,8.365,10.423,9.45c8.806,1.937,16.942-1.032,24.716-4.942
	c0.846-0.425,1.665-1.646,1.813-2.604c2.096-13.555,4.041-27.134,6.092-40.696c1.512-10.007,3.157-19.994,4.678-29.999
	C1315.667,106.705,1316.448,100.727,1317.29,94.725z"/>
<path fill-rule="evenodd" clip-rule="evenodd" d="M749.097,423.841c1.668-9.894,3.383-19.679,4.954-29.488
	c2.041-12.742,3.971-25.503,5.939-38.258c0.349-2.256,1.156-4.58,0.883-6.765c-0.6-4.784,2.839-6.008,5.984-7.119
	c6.324-2.233,12.802-4.034,19.549-5.345c-7.134,6.716-6.388,15.889-8.078,23.795c-4.365,20.408-7.78,41.032-11.131,61.642
	c-2.415,14.855-4.161,29.821-6.129,44.747c-2.031,15.417-4.161,30.826-5.81,46.285c-0.383,3.588,0.68,7.46,1.686,11.029
	c1.071,3.806,4.616,3.711,7.697,3.39c3.3-0.344,6.547-1.185,9.817-1.809c0.147,0.451,0.295,0.903,0.441,1.354
	c-3.981,1.572-7.887,3.39-11.962,4.66c-6.516,2.032-13.137,3.732-19.728,5.518c-7.008,1.897-8.124,1.015-8.142-6.274
	c-0.005-1.628-0.001-3.256-0.001-5.804c-6.799,2.917-13.026,5.24-18.934,8.205c-9.229,4.631-19.02,4.934-28.924,4.391
	c-6.893-0.378-11.874-5.849-12.041-14.153c-0.546-27.185,4.737-53.072,18.93-76.622c4.758-7.896,13.046-11.843,20.627-16.321
	C724.934,424.869,725.057,425.078,749.097,423.841z M733.256,428.102c-0.128-0.307-0.257-0.612-0.385-0.919
	c-3.08,1.279-6.396,2.178-9.199,3.906c-9.936,6.125-14.751,16.25-18.39,26.548c-3.609,10.215-6.339,20.914-7.896,31.627
	c-1.283,8.833-0.702,18.021-0.165,27.006c0.377,6.309,5.686,10.425,11.812,11.903c6.815,1.646,12.877-0.554,18.965-2.654
	c3.939-1.359,8.006-2.986,7.282-8.758c-0.292-2.328,0.66-4.812,1.043-7.226c1.915-12.09,3.911-24.168,5.719-36.273
	c1.522-10.188,2.45-20.478,4.327-30.595c2.043-11.013,1.235-12.731-9.621-14.54C735.614,427.938,734.421,428.102,733.256,428.102z"
	/>
<path fill-rule="evenodd" clip-rule="evenodd" d="M920.374,113.011c-2.67-4.244-3.944-7.655-6.35-9.798
	c-4.729-4.214-10.682-4.539-16-1.44c-6.608,3.852-12.813,8.051-14.369,16.883c-3.477,19.729-7.688,39.328-11.582,58.984
	c-1.012,5.108-2.274,10.197-2.807,15.359c-0.303,2.938-1.553,3.967-4.094,4.54c-5.17,1.166-10.303,2.497-16.611,4.045
	c0.991-5.252,1.613-9.544,2.625-13.743c4.878-20.242,10.144-40.397,14.656-60.719c1.626-7.317,1.82-15.004,2.148-22.544
	c0.348-7.972-1.213-9.313-9.335-9.507c-3.106-0.074-6.215-0.012-10.05-0.012c0.868-1.365,1.205-2.509,1.698-2.58
	c12.838-1.867,25.692-3.622,39.259-5.495c-0.925,5.825-1.819,11.464-2.714,17.102c0.308,0.282,0.615,0.563,0.923,0.845
	c4.251-3.275,8.751-6.28,12.692-9.894c5.333-4.891,11.001-8.273,18.537-6.965c1.92,0.334,4.73,0.173,5.569,1.352
	c4.992,7.019,11.038,2.927,16.712,1.973c9.001-1.513,17.944-3.358,26.941-4.891c3.57-0.608,3,2.332,2.772,4.213
	c-0.569,4.695-1.493,9.347-2.257,14.018c-1.896,11.599-3.897,23.182-5.64,34.804c-1.479,9.868-2.97,19.755-3.828,29.688
	c-0.389,4.499,0.299,9.229,1.309,13.67c0.953,4.188,7.003,5.444,12.218,3.267c12.298-5.136,20.337-14.845,27.051-25.696
	c9.671-15.629,15.002-32.635,14.185-51.222c-0.231-5.258-1.006-10.405-5.422-14.184c-2.388-2.043-2.319-4.077,0.939-5.093
	c3.895-1.214,8.007-3.404,11.781-2.984c8.778,0.976,11.397,6.631,9.719,16.983c-3.188,19.668-10.644,37.496-21.902,53.898
	c-14.604,21.276-34.697,34.785-58.96,42.597c-1.074,0.346-2.238,0.537-3.367,0.572c-9.198,0.288-8.223-1.487-7.563-9.021
	c0.841-9.601,2.495-19.131,3.813-28.689c1.608-11.664,3.562-23.292,4.744-34.999c0.912-9.038,1.139-18.178,0.998-27.262
	c-0.026-1.692-3.239-3.339-4.996-4.99c-0.089-0.084-0.323-0.015-0.49-0.014c-4.331,0.017-9.43-1.354-12.755,0.483
	c-2.741,1.514-3.142,6.961-5.041,10.411C924.344,109.113,922.303,110.802,920.374,113.011z"/>
<path fill-rule="evenodd" clip-rule="evenodd" d="M1160.066,104.676c8.743-3.724,16.648-7.61,24.909-10.471
	c9.172-3.176,18.588-5.762,28.052-7.935c5.588-1.283,8.703,1.471,7.9,7.09c-1.587,11.117-4.004,22.116-6.058,33.168
	c-2.947,15.859-5.901,31.718-8.789,47.589c-0.498,2.735-0.937,5.525-0.965,8.294c-0.091,8.874,4.624,12.443,13.42,10.442
	c1.932-0.438,3.918-0.634,5.879-0.94c0.108,0.528,0.217,1.057,0.326,1.585c-5.706,1.434-11.377,3.034-17.128,4.257
	c-6.057,1.289-12.157,2.51-18.302,3.204c-4.331,0.49-7-2.816-6.137-7.004c2.397-11.637,5.138-23.207,7.337-34.88
	c3.049-16.187,5.82-32.427,8.485-48.682c0.534-3.256,0.562-6.781-0.096-9.995c-0.648-3.179-3.408-5.323-6.736-4.194
	c-10.312,3.5-20.548,7.248-30.65,11.305c-1.532,0.615-2.773,3.269-3.174,5.183c-4.207,20.095-8.227,40.229-12.273,60.357
	c-1.381,6.869-2.533,13.79-4.166,20.598c-0.326,1.357-2.183,2.783-3.652,3.347c-4.078,1.564-8.324,2.691-13.199,4.207
	c0.783-5.465,1.42-10.55,2.255-15.602c2.21-13.363,4.457-26.721,6.782-40.063c2.268-13.017,4.251-26.101,7.08-38.996
	c3.937-17.946,8.286-35.812,12.961-53.581c2.758-10.479,8.948-19.251,16.51-26.881c8.343-8.42,15.896-17.967,27.145-22.796
	c4.23-1.816,9.05-2.85,13.656-3.063c6.387-0.296,12.873,0.171,19.222,1.019c2.677,0.357,5.113,2.518,8.157,4.12
	c-2.123,2.692-3.467,5.016-5.377,6.695c-4.865,4.279-7.04,3.942-11.027-1.126c-3.667-4.663-13.064-7.088-19.46-5.316
	c-9.08,2.516-14.498,9.062-18.925,16.732c-9.812,17.001-14.734,35.716-18.951,54.66c-1.663,7.469-3.199,14.967-4.711,22.468
	C1160.082,100.878,1160.185,102.364,1160.066,104.676z"/>
<path fill-rule="evenodd" clip-rule="evenodd" d="M1326.948,773.057c-5.743,0-11.278-0.092-16.809,0.034
	c-3.356,0.077-4.608-1.284-3.798-4.663c7.023-0.533,14.071-1.068,21.584-1.639c1.049-7.892,2.065-15.8,3.169-23.696
	c0.44-3.15,1.479-5.692,4.937-7.118c7.688-3.171,15.177-6.823,22.776-10.215c0.899-0.401,1.979-0.402,3.28-0.218
	c-14.207,10.371-13.389,26.522-16.593,40.721c20.932,5.281,40.699-3.271,61.929-5.561c-1.305,7.204-2.374,13.562-3.618,19.886
	c-3.866,19.668-8.004,39.286-11.565,59.009c-0.938,5.19-0.659,10.742-0.071,16.032c0.855,7.715,4.788,10.045,12.408,8.174
	c2.362-0.58,4.725-1.206,7.015-2.015c2.286-0.808,4.481-1.87,7.625-2.094c-0.708,1.118-1.177,2.895-2.162,3.256
	c-12.341,4.522-24.602,9.382-37.216,12.994c-6.897,1.976-9.368-0.445-8.634-7.388c1.235-11.688,3.112-23.321,5.104-34.912
	c2.735-15.906,5.609-31.797,8.836-47.61c2.981-14.618-0.943-15.483-13.979-14.911c-7.481,0.328-14.935,1.285-22.4,1.959
	c-3.062,0.276-5.031,1.846-5.62,4.909c-3.355,17.45-7.067,34.846-9.861,52.387c-1.318,8.278-1.444,16.866-1.049,25.264
	c0.399,8.503,8.827,12.383,15.521,11.119c4.48-0.845,9.02-1.377,13.532-2.05c0.172,0.529,0.343,1.058,0.515,1.586
	c-3.003,1.141-5.929,2.579-9.021,3.364c-8.982,2.28-17.938,4.976-27.078,6.24c-10.648,1.474-10.985-0.488-12.434-10.421
	c-0.743-5.094,0.296-10.527,1.019-15.739c1.412-10.19,3.104-20.343,4.793-30.492
	C1321.546,804.459,1324.111,789.687,1326.948,773.057z"/>
<path fill-rule="evenodd" clip-rule="evenodd" d="M19.069,810.534c0,8.414-0.001,15.815,0,23.217
	c0.002,16.451,9.975,30.383,26.037,33.626c20.577,4.154,44.534-4.789,51.107-25.616c4.072-12.903-0.396-23.434-8.76-32.666
	c-7.261-8.016-15.131-15.493-22.917-23.018c-13.963-13.496-17.031-39.503-5.426-55.036c9.85-13.184,21.884-23.879,38.638-26.573
	c10.704-1.722,21.776-1.259,31.673,4.485c1.125,0.653,2.14,3.037,1.861,4.328c-2.227,10.333-4.754,20.602-7.282,30.868
	c-0.173,0.703-1.091,1.224-1.662,1.829c-0.42-0.75-1.19-1.494-1.204-2.252c-0.088-4.854,0.669-9.826-0.126-14.545
	c-1.729-10.255-9.172-16.707-19.681-18.104c-18.155-2.413-34.877,12.456-34.222,30.611c0.352,9.761,4.756,18.067,11.237,24.909
	c6.681,7.054,14.143,13.398,21.511,19.767c16.62,14.364,23.084,35.832,10.053,54.327c-9.656,13.706-20.927,26.567-37.679,32.189
	c-6.417,2.153-13.287,3.14-20.029,4.102c-9.459,1.35-19,1.442-28.338-0.966c-14.483-3.735-23.745-13.089-23.855-29.85
	c-0.071-10.62,0.856-20.808,9.136-28.555C12.046,814.893,15.66,812.928,19.069,810.534z"/>
<path fill-rule="evenodd" clip-rule="evenodd" d="M332.436,862.227c-0.786,0.776-1.44,1.956-2.381,2.266
	c-12.021,3.961-24.02,8.022-36.167,11.563c-5.422,1.58-8.586-1.938-7.625-7.532c0.384-2.23,0.734-4.468,1.177-7.176
	c-11.567,4.241-22.431,8.473-33.476,12.162c-5.039,1.683-10.396,2.595-15.683,3.298c-4.353,0.579-7.793-4.038-8.204-10.291
	c-1.293-19.68,2.423-38.523,9.712-56.721c2.844-7.099,6.119-14.023,9.024-21.099c3.668-8.933,11.42-13.706,18.889-18.695
	c8.7-5.811,17.918-10.391,28.883-8.904c3.204,0.434,6.521,0.911,9.469,2.134c2.983,1.237,4.677,0.434,7.009-1.447
	c2.849-2.3,6.238-4.129,9.669-5.447c3.089-1.188,4.944,0.592,4.211,3.901c-3.66,16.514-7.617,32.962-11.144,49.503
	c-3.238,15.185-7.183,30.284-6.757,46.032c0.213,7.895,2.665,10.007,10.223,8.267c2.058-0.474,4.068-1.146,6.119-1.647
	c2.013-0.493,4.049-0.888,6.075-1.324C331.785,861.454,332.111,861.841,332.436,862.227z M251.07,846.843
	c0,1.998-0.051,3.998,0.009,5.994c0.208,6.835,3.704,10.784,10.312,10.068c7.237-0.784,14.464-2.361,21.438-4.452
	c2.189-0.655,4.522-3.843,5.131-6.285c5.394-21.611,10.243-43.359,15.608-64.979c3.382-13.622,2.936-14.691-10.613-18.768
	c-9.783-2.944-16.743,0.546-21.542,7.749C257.147,797.584,253.398,822.004,251.07,846.843z"/>
<path fill-rule="evenodd" clip-rule="evenodd" d="M1428.197,876.724c5.082-23.213,10.177-45.268,14.655-67.446
	c2.291-11.344,3.616-22.896,4.932-34.404c0.124-1.084-2.8-3.289-4.582-3.659c-3.993-0.83-8.168-0.764-12.247-1.242
	c-0.654-0.077-1.199-1.08-1.795-1.655c0.593-0.414,1.139-1.089,1.783-1.201c11.729-2.056,23.468-4.053,35.212-6.021
	c0.774-0.13,1.604,0.07,3.385,0.174c-0.957,5.982-1.869,11.676-2.851,17.809c11.991-5.081,23.664-10.273,35.547-14.93
	c4.312-1.689,9.088-2.633,13.72-2.961c6.796-0.482,10.354,4.467,8.999,11.229c-3.999,19.963-8.346,39.871-11.638,59.952
	c-1.519,9.259-1.141,18.868-1.134,28.318c0.003,4.128,3.087,5.767,7.104,4.749c3.737-0.946,7.491-1.827,11.237-2.736
	c0.238,0.478,0.476,0.955,0.714,1.433c-1.419,0.962-2.714,2.283-4.279,2.826c-8.593,2.979-17.224,5.857-25.906,8.564
	c-2.612,0.815-5.621,1.751-8.088,1.15c-1.622-0.395-3.887-3.624-3.653-5.271c1.393-9.826,3.464-19.556,5.241-29.329
	c2.539-13.957,5.042-27.92,7.512-41.89c0.739-4.179,1.316-8.388,1.968-12.582c1.684-10.838-4.545-16.293-15.035-12.948
	c-6.804,2.169-13.555,4.547-20.18,7.207c-1.562,0.628-3.289,2.605-3.632,4.237c-4.522,21.514-8.853,43.068-13.132,64.633
	c-1.175,5.918-1.923,11.921-3.066,17.847c-0.437,2.265-0.803,4.419-4.285,4.77C1439.417,873.879,1434.233,875.432,1428.197,876.724z
	"/>
<path fill-rule="evenodd" clip-rule="evenodd" d="M582.609,760.791c-0.628,4.039-1.046,6.934-1.534,9.816
	c-0.457,2.691-0.988,5.37-1.558,8.437c13.379-5.565,26.327-11.114,39.427-16.283c3.099-1.223,6.688-1.507,10.074-1.63
	c6.512-0.236,10.153,3.923,8.983,10.354c-2.071,11.376-4.676,22.656-6.625,34.051c-2.341,13.678-4.402,27.41-6.218,41.168
	c-0.608,4.607-0.35,9.383-0.009,14.046c0.298,4.085,3.158,5.672,7.198,4.655c3.735-0.939,7.49-1.802,11.236-2.697
	c0.229,0.483,0.458,0.967,0.688,1.451c-1.453,0.955-2.788,2.256-4.382,2.807c-8.141,2.811-16.321,5.515-24.548,8.063
	c-2.919,0.904-6.007,1.746-9.017,1.742c-3.079-0.005-4.692-2.479-4.165-5.458c2.301-12.991,4.902-25.93,7.199-38.922
	c2.357-13.333,4.493-26.705,6.71-40.062c0.375-2.258,0.923-4.525,0.955-6.794c0.15-10.4-4.154-14.019-14.187-11.221
	c-7.492,2.09-14.753,5.039-22.037,7.814c-1.114,0.425-2.355,1.866-2.598,3.032c-4.466,21.526-8.849,43.071-13.104,64.641
	c-1.264,6.405-1.953,12.923-3.176,19.337c-0.397,2.083-1.217,3.897-4.279,4.235c-5.286,0.584-10.473,2.066-16.289,3.297
	c4.094-19.286,8.248-37.62,11.813-56.068c2.691-13.928,4.851-27.971,6.813-42.022c1.03-7.376,0.607-7.34-6.814-7.564
	c-3.271-0.099-6.54-0.58-9.775-1.104c-0.589-0.096-1.009-1.238-1.611-2.035C555.336,765.523,568.425,763.252,582.609,760.791z"/>
<path fill-rule="evenodd" clip-rule="evenodd" d="M579.84,93.126c2.341-0.685,4.64-1.641,7.029-2.008
	c9.86-1.515,19.798-2.584,29.601-4.394c3.542-0.654,3.792,0.508,3.242,3.093c-3.491,16.4-7.573,32.697-10.399,49.21
	c-2.21,12.909-3.282,26.055-4.114,39.144c-0.627,9.854,3.915,13.125,13.483,10.547c5.162-1.392,10.16-3.389,15.251-5.056
	c4.966-1.626,4.302-6.384,4.955-9.883c4.613-24.695,8.907-49.452,13.158-74.214c0.771-4.491,2.18-7.655,7.302-8.611
	c4.11-0.768,8.074-2.487,11.993-4.059c3.157-1.266,3.785-0.52,2.983,2.65c-3.509,13.886-7.316,27.716-10.223,41.729
	c-2.847,13.724-4.785,27.638-7.005,41.487c-0.57,3.562-1.029,7.201-0.948,10.792c0.13,5.732,5.8,10.24,11.326,9.377
	c1.271-0.198,2.501-0.739,3.771-0.834c1.944-0.145,3.908-0.038,5.862-0.038c0.085,0.405,0.17,0.81,0.255,1.215
	c-4.454,1.104-8.873,2.381-13.368,3.276c-8.15,1.622-16.342,3.042-24.526,4.494c-3.007,0.533-4.474-1.164-4.263-3.879
	c0.272-3.52,1.06-6.999,1.812-11.653c-4.221,1.625-7.846,3.128-11.543,4.423c-9.973,3.492-19.966,6.928-29.98,10.3
	c-1.52,0.511-3.189,0.757-4.797,0.787c-5.506,0.105-7.001-1.015-6.516-6.647c0.729-8.46,2.064-16.879,3.409-25.272
	c2.039-12.73,4.345-25.417,6.464-38.135c1.369-8.215,2.437-16.482,3.951-24.669c1.532-8.276-0.742-11.238-9.217-11.24
	c-2.806,0-5.611,0-8.417,0C580.196,94.414,580.018,93.771,579.84,93.126z"/>
<path fill-rule="evenodd" clip-rule="evenodd" d="M497.394,87.213c-1.06,4.143-2.228,8.261-3.158,12.432
	c-4.429,19.854-9.101,39.661-13.03,59.614c-1.578,8.015-1.667,16.352-2.071,24.56c-0.288,5.842,5.167,10.118,11.041,9.169
	c2.891-0.468,5.794-0.858,8.691-1.283c0.129,0.501,0.257,1.002,0.386,1.503c-4.771,1.282-9.508,2.723-14.323,3.805
	c-5.878,1.321-11.806,2.452-17.745,3.469c-10.179,1.741-9.44,0.264-8.897-8.781c0.104-1.727,0.628-3.428,1.121-5.984
	c-12.394,4.519-23.905,8.835-35.513,12.874c-3.505,1.219-7.244,2.062-10.936,2.37c-4.693,0.391-7.607-3.243-6.808-7.924
	c3.926-22.987,8.042-45.943,11.76-68.964c1.229-7.606,1.403-15.38,2.181-23.065c0.458-4.515-2.104-5.823-5.901-5.932
	c-2.664-0.075-5.342,0.123-7.993-0.073c-1.42-0.104-2.797-0.785-4.193-1.206c0.046-0.451,0.092-0.903,0.138-1.354
	c7.461-1.126,14.923-2.25,22.385-3.379c4.522-0.684,9.216-0.832,13.52-2.202c5.066-1.611,4.352,1.723,3.872,4.082
	c-1.683,8.286-4.137,16.426-5.598,24.744c-2.994,17.043-5.702,34.142-8.157,51.271c-0.705,4.922-0.67,10.091-0.048,15.03
	c1.079,8.561,3.975,7.789,11.741,6.78c6.171-0.803,12.094-3.669,18.046-5.84c0.938-0.342,1.89-1.766,2.094-2.831
	c4.741-24.817,9.404-49.649,14.009-74.492c0.566-3.054,0.502-6.233,1.171-9.257c0.294-1.327,1.447-3.001,2.638-3.501
	c5.91-2.483,11.963-4.628,17.965-6.892C496.317,86.374,496.855,86.794,497.394,87.213z"/>
<path fill-rule="evenodd" clip-rule="evenodd" d="M220.777,81.569c-1.562,3.464-3.56,6.237-7.846,5.456
	c-3.835-0.699-4.162-3.84-5.008-6.971c-3.327-12.309,3.866-28.308,13.607-35.766c11.327-8.673,24.359-12.189,38.459-12.227
	c7.664-0.021,15.328-0.07,22.99,0.044c1.883,0.027,3.758,0.645,5.948,1.613c-8.879,1.574-7.621,9.019-8.654,14.429
	c-4.346,22.75-8.296,45.578-12.141,68.42c-4.085,24.276-8.855,48.387-17.079,71.649c-5.715,16.169-13.752,31.081-26.025,43.33
	c-6.617,6.604-13.102,13.453-20.418,19.212c-8.002,6.299-17.522,6.347-26.979,3.211c-1.357-0.45-3.457-2.163-3.334-3.023
	c0.947-6.644,1.037-13.696,6.637-19.248c0.716,1.034,1.312,1.729,1.727,2.52c6.412,12.245,19.544,14.312,29.821,5.014
	c7.738-7.001,12.213-16.147,15.304-25.484c6.171-18.645,11.662-37.596,15.981-56.747c3.801-16.851,5.637-34.146,8.311-51.249
	c2.674-17.108,5.333-34.219,7.946-51.336c0.47-3.077,0.682-6.193,1.033-9.289c0.692-6.115-1.628-8.584-8.317-7.867
	c-9.56,1.025-18.976,2.596-26.956,8.815c-10.261,7.998-11.896,21.786-8.016,32.106C218.232,79.408,219.608,80.29,220.777,81.569z"/>
<path fill-rule="evenodd" clip-rule="evenodd" d="M1396.64,201.467c-1.896-3.268-3.896-5.396-4.434-7.846
	c-5.196-23.701-9.891-47.517-15.337-71.158c-1.506-6.537-4.808-12.718-7.716-18.858c-3.008-6.349-8.721-8.492-15.406-8.542
	c-2.797-0.021-5.594-0.004-8.391-0.004c-0.044-0.709-0.088-1.418-0.132-2.127c2.929-0.62,5.833-1.412,8.79-1.832
	c10.532-1.492,21.07-2.978,31.644-4.125c1.35-0.146,3.997,1.509,4.223,2.68c2.92,15.215,5.348,30.524,8.232,45.747
	c2.789,14.721,5.931,29.375,9.029,44.036c0.27,1.275,1.372,2.375,2.088,3.557c1.192-0.767,2.87-1.25,3.504-2.341
	c8.183-14.08,17.178-27.801,24-42.524c6.046-13.05,4.865-26.801-3.392-39.271c-3.443-5.201-3.238-6.404,1.932-9.841
	c1.223-0.812,2.416-1.688,3.708-2.373c7.015-3.726,12.533-1.458,13.876,6.214c2.004,11.451,2.658,23.283-2.376,33.909
	c-5.778,12.199-12.725,23.937-20.092,35.271c-16.538,25.444-33.707,50.479-50.496,75.763c-5.039,7.587-9.09,15.673-7.771,25.226
	c0.528,3.825,1.664,7.566,2.559,11.504c-4.103,1.973-8.411,4.277-12.907,6.128c-3.292,1.354-6.216-1.157-6.766-4.635
	c-1.631-10.32,4.133-17.876,9.269-25.65c10.612-16.062,21.34-32.047,31.997-48.078
	C1396.702,201.654,1396.895,200.857,1396.64,201.467z"/>
<path fill-rule="evenodd" clip-rule="evenodd" d="M437.95,849.652c0.595-19.077,3.112-35.875,9.331-51.855
	c4.977-12.789,13.821-22.302,26.087-28.935c8.533-4.614,16.901-9.322,26.796-9.754c13.461-0.587,20.294,7.364,21.79,19.005
	c2.976,23.155-2.325,45.171-11.181,66.346c-3.427,8.194-8.868,15.158-17.517,19.072c-8.129,3.679-15.695,8.915-24.109,11.54
	c-5.859,1.828-12.79,0.946-19.14,0.287c-7.256-0.753-9.547-6.878-10.802-12.919C438.208,857.639,438.215,852.631,437.95,849.652z
	 M456.638,836.928c0.479,5.402,0.804,10.823,1.47,16.203c1.65,13.338,15.204,15.44,23.213,10.211
	c7.72-5.042,11.414-12.803,14.728-20.846c3.995-9.697,6.05-19.812,7.237-30.267c1.241-10.925,1.8-21.732-2.383-31.988
	c-3.604-8.84-11.466-13.638-20.958-7.896c-4.246,2.568-7.999,6.87-10.507,11.23C459.982,800.014,457.004,818.144,456.638,836.928z"
	/>
<path fill-rule="evenodd" clip-rule="evenodd" d="M296.673,172.905c0.691-18.195,3.734-35.842,10.806-52.614
	c5.26-12.476,14.84-20.889,26.767-26.866c8.296-4.157,16.316-8.763,26.179-8.451c11.696,0.369,19.693,7.434,20.613,19.379
	c1.817,23.614-2.51,46.045-12.838,67.416c-4.819,9.972-13.473,15.248-22.5,20.389c-9.638,5.487-19.407,9.863-31.015,9.014
	c-10.106-0.74-15.561-5.513-16.621-15.532C297.615,181.393,297.137,177.149,296.673,172.905z M315.642,162.774
	c0.478,5.734,0.74,11.497,1.484,17.197c1.009,7.736,8.724,12.837,16.403,11.341c11.459-2.233,16.262-11.258,20.407-20.496
	c4.966-11.068,7.119-22.874,8.43-34.988c1.172-10.818,1-21.271-2.678-31.486c-2.161-6.002-7.168-9.251-13.034-9.288
	c-10.132-0.064-15.193,7.09-19.281,14.552C318.339,126.095,315.919,144.19,315.642,162.774z"/>
<path fill-rule="evenodd" clip-rule="evenodd" d="M592.208,538.277c-14.147,0.839-18.137-4.812-19.562-12.589
	c-1.453-7.932-0.987-16.321-0.538-24.465c0.422-7.642,1.685-15.266,2.997-22.825c2.357-13.566,6.826-26.892,16.887-36.186
	c11.591-10.707,25.199-19.254,41.965-20.152c13.289-0.711,19.814,8.863,21.081,19.804c2.547,22.003-2.671,42.816-10.477,63.071
	c-4.166,10.812-12.306,18.251-22.728,23.15c-6.883,3.235-13.736,6.575-20.807,9.35C598.385,538.473,595.166,538.04,592.208,538.277z
	 M637.475,459.414c-0.727-3.603-1.585-10.432-3.533-16.934c-3.104-10.362-13.209-13.53-22.255-7.527
	c-9.85,6.537-13.221,17.035-16.574,27.419c-4.918,15.224-5.766,31.003-4.877,46.816c0.272,4.854,1.338,10.479,4.111,14.215
	c6.832,9.203,19.391,6.661,26.566-3.162C633.374,503.184,636.238,483.169,637.475,459.414z"/>
<path fill-rule="evenodd" clip-rule="evenodd" d="M1225.258,528.463c-1.727,0.845-3.369,2.041-5.194,2.477
	c-10.291,2.451-20.608,4.803-30.952,7.026c-9.069,1.95-12.736-2.45-10.964-12.177c2.838-15.574,5.189-31.236,7.968-46.822
	c2.403-13.48,5.187-26.893,7.671-40.359c3.166-17.165,6.104-34.373,9.325-51.527c2.225-11.853,4.729-23.653,7.178-35.462
	c1.017-4.898,3.93-7.942,8.919-9.227c5.824-1.501,11.537-3.431,17.329-5.063c1.024-0.289,2.2-0.041,3.663,0.934
	c-1.75,0.814-3.554,1.533-5.242,2.461c-6.758,3.713-8.526,10.493-9.798,17.192c-3.224,16.988-6.063,34.049-9.012,51.088
	c-3.729,21.551-7.588,43.081-11.057,64.674c-2.309,14.368-4.587,28.782-5.841,43.265c-0.928,10.703,4.474,14.328,15.267,11.914
	c3.389-0.758,6.833-1.265,10.252-1.887C1224.933,527.467,1225.096,527.965,1225.258,528.463z"/>
<path fill-rule="evenodd" clip-rule="evenodd" d="M582.633,0.105c-1.632,1.108-2.321,1.758-3.138,2.104
	c-8.45,3.578-11.157,10.776-12.47,19.091c-1.983,12.562-4.19,25.089-6.4,37.614c-2.464,13.962-5.073,27.898-7.553,41.858
	c-2.48,13.968-5.112,27.914-7.246,41.937c-1.894,12.445-3.69,24.945-4.604,37.489c-0.754,10.358,4.379,13.934,14.517,11.568
	c3.461-0.808,6.994-1.303,10.495-1.94c0.186,0.441,0.372,0.884,0.558,1.326c-1.948,0.952-3.803,2.296-5.861,2.792
	c-10.276,2.473-20.586,4.819-30.924,7.02c-7.741,1.647-10.497-0.336-9.797-8.257c0.903-10.233,2.668-20.402,4.348-30.552
	c2.368-14.312,4.957-28.589,7.529-42.866c2.688-14.917,5.39-29.832,8.227-44.721c3.169-16.636,6.494-33.242,9.753-49.861
	c0.721-3.676,0.862-7.613,2.355-10.943c1.289-2.873,3.649-6.127,6.367-7.322c6.2-2.728,12.898-4.338,19.426-6.293
	C579.239-0.158,580.432,0.105,582.633,0.105z"/>
<path fill-rule="evenodd" clip-rule="evenodd" d="M214.604,849.993c-0.938,1.378-1.579,3.188-2.859,4.065
	c-9.155,6.269-18.113,12.936-27.777,18.321c-9.755,5.437-20.751,5.977-31.051,1.769c-7.894-3.226-11.444-10.671-11.782-19.051
	c-0.93-23.061,4.151-45.252,14.554-65.431c8.113-15.736,22.525-25.88,40.422-29.481c4.499-0.905,9.417-0.68,13.997,0.004
	c6.832,1.018,11.024,6.61,9.799,13.397c-1.261,6.985-3.171,13.942-5.696,20.569c-1.039,2.727-4.069,5.245-6.811,6.678
	c-13.317,6.959-26.79,13.631-40.332,20.144c-3.648,1.755-5.254,4.132-5.011,8.045c0.347,5.586,0.277,11.22,0.978,16.758
	c1.957,15.459,14.361,21.453,29.164,14.602c7.201-3.333,14.079-7.364,21.103-11.08C213.736,849.532,214.17,849.763,214.604,849.993z
	 M164.005,816.852c7.955-3.908,14.931-7.336,21.907-10.765c12.235-6.014,16.789-16.269,16.144-29.352
	c-0.27-5.462-3.442-10.267-7.017-10.656c-5.013-0.546-9.754,0.387-12.919,4.539c-3.844,5.042-7.953,10.118-10.564,15.812
	C167.359,795.579,164.185,805.221,164.005,816.852z"/>
<path fill-rule="evenodd" clip-rule="evenodd" d="M1294.353,849.68c-0.615,1.203-0.913,2.885-1.895,3.534
	c-10.19,6.735-20.251,13.723-30.837,19.785c-8.378,4.798-17.835,4.411-26.918,1.966c-8.139-2.191-12.9-9.329-13.687-17.821
	c-2.173-23.483,4.56-45.238,13.362-66.371c4.238-10.175,13.19-16.877,22.281-22.931c8.054-5.364,16.727-8.955,26.545-8.747
	c15.276,0.325,17.05,8.184,15.594,19.097c-0.718,5.382-2.598,10.795-4.973,15.7c-1.425,2.944-4.428,5.688-7.393,7.228
	c-13.049,6.776-26.135,13.569-39.648,19.318c-5.369,2.284-4.643,6.171-5.25,9.832c-1.431,8.636-0.203,17.113,4.124,24.72
	c4.453,7.828,12.944,10.474,23.239,6.469c7.663-2.98,14.648-7.702,21.946-11.629c0.687-0.37,1.448-0.6,2.175-0.895
	C1293.464,849.184,1293.909,849.432,1294.353,849.68z M1243.02,816.931c6.84-3.209,12.959-5.761,18.777-8.872
	c16.788-8.979,20.238-15.698,19.26-33.377c-0.324-5.857-3.333-8.578-9.113-8.646c-4.779-0.056-8.658,1.961-11.649,5.373
	C1249.19,784.074,1245.483,799.603,1243.02,816.931z"/>
<path fill-rule="evenodd" clip-rule="evenodd" d="M1205.44,848.161c-0.635,2.421-0.556,4.259-1.33,4.749
	c-11.822,7.488-23.367,15.575-35.822,21.84c-6.624,3.332-14.814,2.362-22.406,0.396c-8.372-2.167-13.114-10.242-13.735-18.42
	c-1.782-23.479,4.479-45.594,13.801-66.633c4.606-10.396,14.204-17.489,24.025-23.494c9.612-5.877,19.711-9.349,31.161-6.553
	c5.986,1.462,9.288,4.965,8.818,11.021c-0.487,6.303-1.43,12.659-3.057,18.757c-1.453,5.445-4.728,9.678-10.398,12.265
	c-13.941,6.359-27.616,13.304-41.383,20.045c-0.689,0.337-1.729,0.942-1.768,1.483c-0.803,11.181-2.896,22.689,4.489,32.597
	c5.473,7.341,12.107,9.063,22.291,5.098c7.372-2.871,14.142-7.284,21.182-11.008C1202.262,849.801,1203.223,849.311,1205.44,848.161
	z M1154.49,817.166c9.018-4.641,17.022-8.591,24.866-12.837c10.406-5.634,13.62-15.312,13.631-26.276
	c0.01-9.1-5.29-14.141-12.683-11.729c-4.112,1.342-8.44,4.231-11.021,7.664C1160.067,786.245,1156.136,800.596,1154.49,817.166z"/>
<path fill-rule="evenodd" clip-rule="evenodd" d="M1161.358,513.07c-1.127,1.003-2.154,2.155-3.397,2.983
	c-9.227,6.15-18.451,12.307-27.766,18.321c-7.583,4.896-30.684,6.409-37.369-2.911c-5.142-7.167-6.825-15.216-5.533-23.307
	c2.227-13.946,5.41-27.772,8.855-41.483c5.203-20.709,19.574-33.418,38.41-41.658c7.499-3.281,15.457-4.067,23.5-1.889
	c5.444,1.475,9.205,7.61,7.847,14.682c-1.245,6.479-3.5,12.828-5.963,18.973c-0.903,2.252-3.388,4.316-5.655,5.502
	c-12.879,6.731-25.795,13.418-38.959,19.562c-4.144,1.934-6.726,4.154-6.993,8.674c-0.584,9.885-1.018,19.73,5.094,28.456
	c3.911,5.584,10.968,8.155,17.599,6.697c9.108-2.004,16.867-6.672,24.568-11.579c1.52-0.968,3.297-1.529,4.956-2.278
	C1160.82,512.234,1161.089,512.652,1161.358,513.07z M1109.639,479.522c2.504-1.112,4.003-1.688,5.421-2.423
	c7.923-4.101,16.132-7.754,23.654-12.495c8.274-5.214,12.405-21.798,8.56-30.911c-2.184-5.175-5.523-6.839-11.072-5.649
	c-6.105,1.31-10.441,5.305-13.051,10.435c-4.104,8.065-7.631,16.484-10.648,25.021
	C1110.813,468.279,1110.639,473.595,1109.639,479.522z"/>
<path fill-rule="evenodd" clip-rule="evenodd" d="M828.379,176.101c-0.618,0.723-1.113,1.628-1.873,2.14
	c-8.117,5.463-16.354,10.752-24.403,16.31c-9.986,6.896-20.979,8.279-32.355,5.391c-9.034-2.295-14.345-10.512-14.721-19.845
	c-0.883-21.903,4.513-42.538,12.989-62.386c5.221-12.226,15.578-20.031,26.756-26.521c6.988-4.057,14.463-6.493,22.869-6.237
	c13.188,0.402,18.339,6.609,15.166,19.549c-1.08,4.406-2.521,8.733-3.972,13.038c-2.509,7.451-9.85,9.194-15.655,12.34
	c-10.762,5.832-21.901,10.998-33.062,16.05c-3.352,1.518-4.324,3.414-4.094,6.793c0.474,6.936,0.211,13.954,1.143,20.816
	c1.43,10.533,12.218,18.545,22.775,14.41c7.663-3.001,14.922-7.039,22.35-10.637c1.679-0.813,3.312-1.72,4.966-2.583
	C827.632,175.187,828.006,175.644,828.379,176.101z M777.081,142.942c8.889-4.43,17.196-8.1,25.035-12.589
	c10.623-6.085,14.577-16.136,13.842-27.861c-0.675-10.772-7.408-15.152-15.818-10.343c-3.217,1.84-6.565,4.234-8.596,7.229
	C782.896,112.132,779.046,126.619,777.081,142.942z"/>
<path fill-rule="evenodd" clip-rule="evenodd" d="M1109.29,175.904c-0.626,0.81-1.096,1.853-1.902,2.394
	c-8.939,5.99-17.851,12.03-26.932,17.802c-9.449,6.005-19.931,6.469-30.33,3.763c-8.322-2.165-13.708-10.709-14.087-19.399
	c-0.961-22.071,4.42-42.876,13.051-62.859c5.271-12.203,15.596-19.994,26.804-26.453c6.861-3.955,14.15-6.413,22.379-6.189
	c13.434,0.363,18.524,6.177,15.637,19.189c-1.018,4.583-2.63,9.044-4.126,13.509c-2.513,7.493-9.959,9.074-15.738,12.234
	c-10.738,5.872-21.929,10.932-33.036,16.103c-2.961,1.378-4.26,3.002-4.004,6.359c0.541,7.096,0.187,14.294,1.177,21.312
	c1.541,10.911,13.015,18.293,22.408,14.333c7.739-3.264,15.216-7.151,22.803-10.774c1.662-0.794,3.301-1.637,4.95-2.457
	C1108.659,175.148,1108.974,175.526,1109.29,175.904z M1057.988,143.023c8.618-4.326,16.188-8.031,23.669-11.905
	c11.75-6.083,16.088-16.427,15.282-28.927c-0.671-10.424-7.526-14.763-15.146-10.248c-3.575,2.118-7.247,4.817-9.578,8.159
	C1063.56,112.505,1060.208,126.849,1057.988,143.023z"/>
<path fill-rule="evenodd" clip-rule="evenodd" d="M748.18,190.978c-0.578,0.311-1.121,0.762-1.738,0.912
	c-12.61,3.077-25.158,6.476-37.88,8.995c-5.168,1.024-8.666-2.361-8.358-7.745c0.702-12.306,1.733-24.622,3.354-36.838
	c1.737-13.09,4.301-26.07,6.513-39.097c0.791-4.663,1.624-9.318,2.407-13.982c0.261-1.555,0.423-3.126,0.613-4.564
	c-7.099-2.275-14.951,2.026-21.1-2.666c0.073-0.646,0.146-1.293,0.22-1.939c7.039-0.461,14.078-0.923,21.735-1.424
	c1.008-6.412,2.708-13.097,2.931-19.83c0.219-6.587,2.857-10.507,8.73-12.966c7.346-3.074,14.566-6.449,22.53-9.195
	c-5.247,5.641-10.509,11.191-12.052,18.963c-1.511,7.604-3.032,15.204-4.675,23.437c8.814,0,16.556,0,24.297,0
	c0.222,0.58,0.443,1.16,0.665,1.741c-2.373,1.093-4.676,2.885-7.133,3.131c-4.947,0.496-9.979,0.206-14.975,0.127
	c-2.467-0.039-3.781,0.471-4.305,3.412c-3.141,17.64-6.835,35.184-9.79,52.853c-1.352,8.079-1.795,16.36-1.999,24.565
	c-0.195,7.842,6.377,14.615,13.189,13.971c5.45-0.516,10.838-1.697,16.253-2.584C747.803,190.494,747.992,190.735,748.18,190.978z"
	/>
<path fill-rule="evenodd" clip-rule="evenodd" d="M782.222,785.202c-0.772-2.339-1.726-4.336-2.071-6.434
	c-1.324-8.057-7.721-9.97-14.111-11.582c-6.186-1.56-14.367,1.303-16.867,5.602c-3.697,6.356-5.135,13.354-0.235,19.293
	c4.389,5.319,10.282,9.392,15.476,14.054c4.725,4.242,9.769,8.203,14.016,12.884c7.408,8.163,7.834,17.945,4.592,27.934
	c-1.019,3.138-2.735,6.632-5.214,8.604c-7.896,6.284-15.742,13.026-24.647,17.541c-10.976,5.564-22.995,4.487-34.519,0.163
	c-4.334-1.626-2.465-5.148-2.12-8.043c0.753-6.324,1.654-12.632,2.571-18.935c0.252-1.731,0.771-3.423,2.344-5.421
	c0.542,1.129,1.445,2.219,1.573,3.394c1.932,17.701,11.07,24.604,29.024,21.812c8.766-1.363,15.224-7.838,16.023-16.132
	c0.991-10.277-4.287-17.537-11.593-23.762c-5.743-4.893-11.612-9.639-17.318-14.573c-10.37-8.969-9.098-28.696,0.555-36.548
	c5.682-4.621,11.617-9.086,17.967-12.69c8.438-4.789,17.621-4.214,26.609-1.227c1.158,0.385,2.751,2.246,2.63,3.239
	c-0.787,6.463-1.976,12.879-3.098,19.299C783.739,784.067,783.118,784.363,782.222,785.202z"/>
<path fill-rule="evenodd" clip-rule="evenodd" d="M411.787,785.109c-0.59-1.449-1.327-2.713-1.624-4.072
	c-2.076-9.5-5.995-13.112-15.337-13.972c-8.174-0.752-14.56,2.184-17.168,7.892c-3.23,7.069-2.08,15.58,3.779,20.806
	c6.837,6.097,14.354,11.423,21.405,17.286c6.597,5.484,10.775,12.062,11.397,21.189c0.903,13.259-3.736,22.57-15.894,28.292
	c-2.877,1.354-5.028,4.198-7.615,6.228c-12.728,9.981-26.853,8.923-41.25,4.988c-2.646-0.723-4.123-2.275-3.531-5.741
	c1.373-8.052,2.085-16.214,3.216-24.311c0.126-0.897,1.227-1.66,1.875-2.485c0.675,1.141,1.96,2.301,1.925,3.419
	c-0.208,6.659,1.874,12.272,6.887,16.705c11.53,10.198,32.2,5.501,36.466-5.729c4.3-11.322-0.419-21.633-9.769-29.388
	c-5.681-4.712-11.138-9.721-17.05-14.12c-10.613-7.9-10.284-29.901,2.229-39.095c5.369-3.945,10.929-7.727,16.76-10.929
	c8.429-4.629,17.383-3.63,26.18-0.889c0.995,0.31,2.304,2.124,2.188,3.086c-0.74,6.137-1.825,12.233-2.844,18.334
	c-0.101,0.603-0.447,1.213-0.83,1.702C412.921,784.641,412.4,784.772,411.787,785.109z"/>
<path fill-rule="evenodd" clip-rule="evenodd" d="M1727.987,784.811c-0.6-2.102-1.375-4.17-1.768-6.309
	c-1.453-7.925-7.765-10.246-14.197-11.251c-6.535-1.02-13.249-0.443-17.187,6.467c-3.964,6.958-4.479,14.034,1.446,19.846
	c6.368,6.246,13.266,12.057,20.47,17.324c12.213,8.929,17.673,22.884,12.084,38.05c-1.334,3.62-4.656,6.843-7.763,9.401
	c-5.4,4.449-11.398,8.165-17.047,12.323c-7.085,5.215-15.099,6.279-23.509,5.386c-5.013-0.533-10.013-1.314-14.96-2.282
	c-2.841-0.555-3.986-2.658-3.484-5.579c1.544-8.982,3.07-17.969,5.653-27.331c0.447,1.151,1.275,2.301,1.281,3.455
	c0.057,10.038,4.313,17.407,13.835,20.968c9.393,3.513,18.453,2.268,26.146-4.298c7.057-6.022,7.758-21.044-1.212-29.581
	c-7.264-6.913-15.114-13.207-22.667-19.818c-10.793-9.447-7.782-31.108,2.644-38.225c7.829-5.345,14.649-12.503,24.397-13.624
	c6.172-0.711,12.614,0.771,18.909,1.493c0.745,0.086,1.996,1.696,1.882,2.422c-1.106,7.015-2.455,13.992-3.735,20.979
	C1728.8,784.688,1728.394,784.749,1727.987,784.811z"/>
<path fill-rule="evenodd" clip-rule="evenodd" d="M1533.509,88.123c-1.178,6.937-2.359,13.898-3.541,20.86
	c-0.399,0.089-0.798,0.178-1.197,0.268c-0.562-0.984-1.473-1.916-1.632-2.962c-1.315-8.633-4.569-12.538-12.98-14.01
	c-3.521-0.615-7.4-0.552-10.882,0.239c-10.463,2.377-12.165,14.986-9.017,22.915c2.964,7.461,10.075,10.881,15.796,15.695
	c5.853,4.926,11.925,9.825,16.747,15.686c7.097,8.625,6.451,30.173-5.597,36.829c-7.81,4.315-14.353,11.142-22.4,14.751
	c-11.147,5-23.075,3.742-34.446-0.758c-0.757-0.3-1.444-2.059-1.34-3.052c0.928-8.794,1.995-17.574,3.176-26.337
	c0.114-0.849,1.271-1.557,2.285-2.725c0.71,4.604,0.719,8.671,2.013,12.276c3.321,9.253,11.639,15.718,24.737,14.447
	c6.352-0.616,12.201-1.8,15.773-7.31c6.643-10.244,5.289-20.834-3.181-29.409c-6.097-6.174-13.087-11.484-19.825-17.002
	c-13.515-11.066-12.298-31.17,3.504-42.1c6.07-4.199,12.706-7.82,19.529-10.619C1517.317,83.229,1528.4,85.046,1533.509,88.123z"/>
<path fill-rule="evenodd" clip-rule="evenodd" d="M1048.318,767.624c13.333-2.199,26.666-4.398,40.976-6.758
	c-1.008,6.292-1.938,12.093-3.05,19.04c5.412-4.146,10.556-7.337,14.76-11.48c6.48-6.385,13.792-7.53,22.073-5.27
	c3.414,0.932,6.029,5.887,4.953,9.563c-1.137,3.887-2.452,7.751-4.107,11.438c-0.563,1.256-2.357,2.6-3.659,2.675
	c-1.011,0.059-2.495-1.601-3.144-2.827c-4.953-9.372-12.788-10.952-21.907-5.858c-10.021,5.599-12.287,14.775-14.166,24.684
	c-3.155,16.646-6.578,33.241-9.778,49.879c-0.926,4.811-1.688,9.674-2.129,14.549c-0.316,3.499-1.754,5.238-5.259,5.866
	c-3.979,0.713-7.889,1.878-11.783,3.002c-3.524,1.018-4.591-0.403-3.801-3.636c4.325-17.692,9.109-35.285,12.928-53.085
	c2.905-13.542,4.897-27.305,6.708-41.046c0.771-5.851-1.194-7.254-7.063-7.298c-2.832-0.021-5.692,0.231-8.485-0.101
	c-1.609-0.191-3.108-1.303-4.657-2C1047.923,768.516,1048.121,768.069,1048.318,767.624z"/>
<path fill-rule="evenodd" clip-rule="evenodd" d="M682.76,745.148c0.743-1.025,1.271-2.379,2.262-3.026
	c12.932-8.448,20.324-20.411,23.109-35.486c0.898-4.859,5.753-8.235,10.058-7.508c3.657,0.617,7.04,5.57,5.711,9.58
	c-1.357,4.092-3.313,8.156-5.802,11.669c-6.842,9.657-16.307,16.434-26.331,22.434c-2.448,1.466-5.161,2.49-7.752,3.718
	C683.597,746.068,683.178,745.608,682.76,745.148z"/>
<path fill-rule="evenodd" clip-rule="evenodd" d="M1416.069,718.983c-0.055,7.391-5.498,12.961-12.308,13.141
	c-5.294,0.14-5.832-2.854-5.732-7c0.204-8.499,4.258-13.148,11.702-13.064C1414.956,712.118,1416.111,713.38,1416.069,718.983z"/>
</svg>
