<?xml version="1.0" encoding="utf-8"?>
<!-- Generator: Adobe Illustrator 16.0.0, SVG Export Plug-In . SVG Version: 6.00 Build 0)  -->
<!DOCTYPE svg PUBLIC "-//W3C//DTD SVG 1.1//EN" "http://www.w3.org/Graphics/SVG/1.1/DTD/svg11.dtd">
<svg version="1.1" id="Layer_1" xmlns="http://www.w3.org/2000/svg" xmlns:xlink="http://www.w3.org/1999/xlink" x="0px" y="0px"
	 width="1993px" height="908px" viewBox="0 0 1993 908" enable-background="new 0 0 1993 908" xml:space="preserve">
<g>
	<path stroke="#FFFFFF" stroke-miterlimit="10" d="M601,418c6.807-8.38,18.438-13.19,25-22c11.493-15.428,23.179-31.09,33-48
		c0.333,0,0.667,0,1,0c-9.122,22.926-14.146,49.653-2,68c23.095,4.835,33.216-19.694,42-33c3.56-5.393,8.698-9.359,9-18
		c-8.002,1.742-10.087,12.036-14,18c-8.332,12.698-15.64,25.049-31,31c-1.345-1.252-1.755-1.413-4-2
		c-5.548-25.86,20.966-64.813,32-83c6.992-11.524,10.566-24.129,17-36c22.563-41.63,44.983-85.904,70-125
		c14.752-23.054,31.63-48.637,69-49c6.129,5.718,11.006,7.781,15,16c1.726,0.645,0.979,0.196,2,1c9.85,0.302,14.244-3.519,16-11
		c1.652-3.432-2.029-6.233-4-9c-92.153-20.964-134.653,74.721-168,131c-6.478,10.932-11.329,23.189-17,34
		c-2.158,4.115-2.742,9.047-6,12c0,0.667,0,1.333,0,2c-3.748-2.476-0.699-9.873-4-14c-1.527-3.785-4.338-3.594-7-6
		c-12.229-0.084-20.674,2.646-29,7c-34.322,17.948-86.898,81.611-60,134C592.912,418.911,594.771,417.149,601,418z M602,368
		c12.891-24.811,25.998-46.675,42-68c5.902-7.865,16.03-12.433,22-20c2.319-0.227,2.821-0.197,4-1c3.41,0.211,5.105,0.479,7,2
		c0.333,0,0.667,0,1,0c6.722,17.238-5.698,33.998-12,45c-14.677,25.622-29.143,48.166-46,71c-5.409,7.327-15.419,10.99-21,18
		c-5.969-0.012-6.759-0.954-10-3C585.881,394.754,595.893,379.754,602,368z"/>
	<path stroke="#FFFFFF" stroke-miterlimit="10" d="M319,379c-3.949,15.727,3.314,35.97,13,39c5.184,3.773,14.502,0.979,19-2
		c8.869-5.874,27.145-31.479,30-43c0.807-1.028,0.369-0.246,1-2c-0.333-0.333-0.667-0.667-1-1c-2.054,0.399-1.927,0.248-3,1
		c-4.745,2.459-5.209,8.511-8,13c-5.861,9.429-14.768,26.193-26,30c-1.67,1.141-4.91,1.094-8,1c-1.133-1.188-2.54-2.146-4-3
		c-8.403-21.661,15.612-61.545,24-79c20.098-41.82,42.263-81.676,64-121c11.905-21.537,23.3-42.303,39-60
		c8.558-9.646,40.579-40.091,60-30c4.492,2.334,9.513,10.233,13,14c8.297-0.528,9.427-3.404,14-7c0.438-6.705-0.119-8.128-3-13
		c-6.932-1.677-13.353-3.192-23-3c-6.7,4.138-18.524,2.425-26,5c-13.061,4.499-29.184,12.434-39,21
		c-51.173,44.656-83.126,111.218-115,175C330.205,333.601,324.313,357.838,319,379z"/>
	<path stroke="#FFFFFF" stroke-miterlimit="10" d="M899,386c3.127-4.944,7.434-8.187,8-16c-8.726,1.133-10.151,11.827-14,18
		c-6.795,10.897-15.28,18.213-24,27c-3.104,0.066-6.31,0.142-8-1c-2.501-1.161-2.875-2.544-5-4c-2.309-32.159,18.132-61.316,30-85
		c27.973-55.825,54.358-110.561,89-159c14.365-20.087,34.255-47.144,67-45c2.333,1.667,4.667,3.333,7,5
		c3.038,3.396,5.925,13.115,13,9c6.776-0.657,6.821-4.042,10-8c-0.023-2.727-0.039-4.583-1-6c-3.161-8.921-23.006-10.189-35-7
		c-23.102,6.144-41.315,14.729-58,27c-20.626,15.169-34.615,38.45-49,60c-26.202,39.254-50.391,82.27-70,128
		c-9.266,21.608-23.331,64.19-8,85c2.027,2.752,6.46,3.726,9,6C882.708,420.26,890.17,399.961,899,386z"/>
	<path stroke="#FFFFFF" stroke-miterlimit="10" d="M1919,122c-41.139,17.593-74.158,62.706-96,100c-16.89,28.84-31.605,58.965-47,89
		c-5.944,11.596-7.561,22.668-13,35c-7.023,15.924-13.996,41.477-7,60c3.147,8.334,14.179,19.052,26,12
		c10.092-6.021,33.289-33.735,34-48c-7.549,0.989-7.688,7.919-11,13c-8.272,12.693-16.211,21.289-26,32
		c-3.104,0.066-6.311,0.142-8-1c-3.216-1.082-3.963-1.739-5-5c-3.662-5.663-1.302-16.632,1-23c6.181-17.1,13.697-34.969,22-51
		c18.034-34.819,35.042-71.094,55-104c12.129-19.998,20.737-40.391,34-59c3.95-5.542,9.953-10.566,14-16
		c9.979-13.398,21.292-23.198,37-31c3.989-1.981,13.872-6.772,19-4c9.249,0.959,13.445,9.955,19,15c3.844-0.09,5.931-0.335,8-2
		c3.477-1.375,3.693-3.667,6-6C1981.247,101.349,1931.577,116.622,1919,122z"/>
	<path stroke="#FFFFFF" stroke-miterlimit="10" d="M196,475c72.679-36.719,61.446-156.146,123-204c-0.106-2.533-0.123-3.705-1-5
		c0-0.667,0-1.333,0-2c-1.726-0.645-0.979-0.196-2-1c-18.764-0.001-26.898,15.065-35,26c-18.634,25.149-41.726,49.371-66,69
		c-12.8,10.351-44.223,17.236-56,1c-19.628-27.06,2.837-74.727,14-93c29.51-48.307,58.392-82.921,104-115
		c7.579-5.33,15.906-8.088,24-13c16.457-9.988,51.462-25.796,77-17c21.36,7.357,18.28,36.751,8,54
		c-9.503,15.945-24.718,31.789-40,42c-6.547,4.375-14.027,5.923-21,10c-9.008,5.267-28.819,11.499-40,7
		c-6.542-2.632-9.899-8.2-15-12c-3.869-28.039,8.219-41.822,30-53c4.623-2.373,18.338-9.991,26-5c9.318,0.82,7.891,6.319,12,12
		c0,0.333,0,0.667,0,1c2.32-0.743,2.234-1.039,4-2c-0.024-2.727-0.039-4.583-1-6c-4.017-11.876-25.74-11.669-38-7
		c-27.665,10.536-62.623,59.51-18,78c7.979,3.306,19.701-0.077,28,1c30.531,3.962,69.847-36.947,82-60
		c12.294-23.321,9.448-50.044-11-62c-27.799-16.253-84.225,4.486-104,14c-9.946,4.785-18.893,6.584-28,12
		c-45.039,26.782-82.405,62.708-104,113c-14.377,33.481-17.204,75.457,5,103c10.078,12.501,32.17,16.145,49,9
		c23.923-10.156,51.162-37.183,66-57c5.552-7.415,12.354-22.237,23-24c-1.407,8.757-8.043,14.538-12,21
		c-6.878,11.232-12.398,23.124-19,34c-7.355,12.117-9.557,20.841-16,33c-19.476,36.756-45.905,73.845-83,93
		c-51.997,26.85-122.439-9.722-140-51c-21.41-50.324,25.537-98.366,71-82c6.914,2.489,13.897,3.688,19,8
		c16.024,13.539,30.922,47.238,8,64c-10.9,7.971-35.267,8.26-43-3c-3.535-5.147-2.175-13.11-4-18c-2.054,0.399-1.927,0.248-3,1
		c-2.865,3.584-1.523,7.908-1,13c5.966,6.392,9.864,12.628,19,16c26.697,9.854,56.979-17.082,48-48
		c-12.397-42.69-78.02-66.782-112-28c-20.798,23.737-16.528,62.291-1,87c7.895,12.563,16.963,24.76,29,33
		C84.812,485.145,151.46,497.503,196,475z"/>
	<path stroke="#FFFFFF" stroke-miterlimit="10" d="M1355,483c4.936,1.349,14.479,4.053,20,4c4.832-0.046,19.666-1.076,26-1
		c5.412,0.064,19.861-0.292,29-3c49.475-14.661,78.581-41.644,106-78c8.429-11.177,12.099-28.242,18-42
		c5.374-12.529,15.214-32.824,17-47c13.046,0.02,25.862-2.44,35-9c3.666-3.666,7.333-7.333,11-11c-0.132-3.854,0.022-4.263-2-6
		c-1.118-1.199-16.228,15.623-22,18c-3.872,1.595-8.8,0.87-12,3c-2.667,0-5.333,0-8,0c3.461-14.599,10.563-29.087,16-42
		c19.661-46.696,38.156-91.914,77-119c14.562-10.155,32.19-6.417,46-15c1.249-4.817,3.598-11.623,0-16c-0.667-1-1.333-2-2-3
		c-9.857,0.601-11.042,8.688-17,13c-6.335,4.586-16.028,8.6-24,11c-11.763,3.542-26.333,3.293-36,6
		c-47.772,13.376-102.1,23.778-128,59c-24.864,33.812-16.871,70.193,15,93c7.866,5.629,17.679,13.174,30,14
		c-4.593,18.277-17.831,40.848-27,56c-3.802,6.283-5.159,12.846-9,19c-20.346,32.594-45.178,67.099-82,83
		c-41.812,18.056-94.825,10.4-125-12c-27.301-20.266-31.134-58.966-17-91c14.06-31.866,43.895-55.801,76-70
		c24.168-10.689,59.623-14.492,81,1c15.258,11.057,20.474,38.153,10,59c-13.898,27.663-39.843,43.628-70,52
		c-22.631,6.282-45.052-9.58-49-23c-4.75-16.144,16.456-35.449,28-30c7.122,0.189,8.67,4.558,10,10c2.307-0.325,2.484-0.464,4-1
		c0.129-2.865,0.708-1.455,0-3c-0.54-5.074-1.943-4.909-4-8c-28.232-6.806-43.893,7.167-41,38c3.99,4.206,6.986,10.979,12,14
		c34.248,20.639,80.186,3.614,104-20c20.717-20.544,29.276-52.798,9-81c-17.963-24.984-66.918-36.721-106-22
		c-45.565,17.164-73.041,45.692-85,97c-5.138,22.042,6,43.472,13,55C1299.453,463.743,1318.602,473.052,1355,483z M1533,299
		c-13.847-9.038-28.2-33.416-20-60c14.552-47.178,49.912-60.948,92-77c15.533-5.924,37.126-13.541,53-15c0,1,0,2,0,3
		c-9.455,6.198-16.568,15.655-24,24c-4.616,5.183-10.418,9.761-15,15c-17.65,20.183-29.806,46.656-44,70
		c-8.498,13.974-12.716,36.156-23,48C1548.382,309.962,1536.008,300.964,1533,299z"/>
	<path stroke="#FFFFFF" stroke-miterlimit="10" d="M1030,213c-1.188-1.133-2.146-2.54-3-4c-2.73-0.567-5.177-1.018-9-1
		c-4.602,4.163-23.604,17.373-17,28c0.416,4.042,1.106,3.924,2,7C1021.229,246.913,1030.564,228.745,1030,213z"/>
	<path stroke="#FFFFFF" stroke-miterlimit="10" d="M1643,402c-3.834,5.089-10.637,7.436-15,12c-2.533-0.105-3.705-0.123-5-1
		c-2.697-0.922-2.928-1.717-5-3c-2.655-46.631,77.258-86.284,42-138c-3.333-0.333-6.667-0.667-10-1c-4.607,3.851-10.775,5.796-15,10
		c-7.541,7.504-12.596,17.344-20,25c0,1,0,2,0,3c1,0.333,2,0.667,3,1c9.012-13.679,20.519-23.842,32-35c3.41,0.211,5.105,0.479,7,2
		c1,1,2,2,3,3c0.686,14.728-10.031,24.031-17,34c-17.992,25.737-50.152,66.07-26,103c3,0.667,6,1.333,9,2
		c2.155-1.644,5.543-1.413,8-3c13.021-8.414,27.891-33.414,37-47c4.947-7.379,13.118-14.82,16-24c0.667,0,1.333,0,2,0
		c-5.602,22.873-20.734,44.363-4,70c2.127,0.506,3.616,0.895,5,2c19.708-0.198,33.533-30.32,40-45c-1.333-0.667-2.667-1.333-4-2
		c-5.777,11.488-11.527,23.904-19,34c-2.702,3.65-7.77,5.798-11,9c-3.41-0.211-5.105-0.479-7-2c-8.299-6.833-0.594-26.704,4-36
		c12.341-24.974,26.082-49.422,39-73c5.434-9.917,9.368-22.182,17-30c0-0.333,0-0.667,0-1c-4.358,0.87-10.981,5.181-14,8
		c-2.533-0.105-3.705-0.123-5-1c-3.68-1.261-4.501-2.584-5-7c-0.667,0-1.333,0-2,0c-4.689,16.785-17.338,31.714-25,46
		C1681.576,347.623,1663.162,375.243,1643,402z"/>
	<path stroke="#FFFFFF" stroke-miterlimit="10" d="M553,360c-9.916,0.887-12.362,13.58-17,20c-10.783,14.927-26.323,33.986-52,34
		c-2.593-2.56-6.171-5.869-9-8c-2.662-22.68,7.179-38.579,18-56c11.529-2.141,23.512-2.475,33-7c21.203-10.112,45.171-28.312,45-60
		c-4.161-4.297-6.24-9.18-13-11c-9.596-2.584-18.145,5.823-24,8c-8.681,3.228-12.63,0.089-19-2c-3.251,6.516-7.116,14.847-12,20
		c0,0.667,0,1.333,0,2c-0.667,0-1.333,0-2,0c2.41-5.687,4.043-14.681,0-20c-1.323-3.199-3.499-4.989-7-6
		c-12.868-8.904-40.894,12.851-48,18c-28.348,20.54-72.285,83.731-44,125c4.983,1,9.721,0.438,15,0c3.985-4.025,9.466-6.516,14-10
		c1.68-1.292,1.667-3.254,3-5c3-2.667,6-5.333,9-8c6.966-9.354,14.101-18.87,20-29c0.333,0,0.667,0,1,0
		c-5.315,25.838,3.999,61.651,35,53c19.93-5.562,31.977-25.028,43-40C546.032,372.524,552.289,368.875,553,360z M541,282
		c3.461-2.5,7.807-3.308,11-6c2.333,0,4.667,0,7,0c11.358,19.669-20.283,53.462-34,62c-5.929,3.69-14.721,3.091-21,7
		c-2.667,0-5.333,0-8,0C504.611,326.972,525.972,292.853,541,282z M437,394c-7.216,8.119-17.16,12.516-25,20
		c-4.042-0.416-3.924-1.106-7-2c-3.483-18.053,6.934-33.451,14-47c14.547-27.895,33.581-60.017,56-80c4.152-3.701,10.594-4.49,15-8
		c2,0.667,4,1.333,6,2c4.713,19.434-5.906,31.093-13,44C468.989,348.493,455.541,373.14,437,394z"/>
	<path stroke="#FFFFFF" stroke-miterlimit="10" d="M816,273c-2.323,1.617-4.771,0.802-8,2c-7.673,2.846-17.068,7.457-24,12
		c-18.211,11.936-33.589,29.146-44,49c-3.201,6.104-13.116,23.449-10,31c-3.127,18.805,1.749,40.352,13,48
		c24.606,16.728,57.415-23.412,69-40c2.907-4.162,4.145-8.861,8-12c-0.2-2.596-0.442-3.396-1-5c-2.055,0.399-1.927,0.248-3,1
		c-5.647,2.463-7.853,11.868-11,17c-6.911,11.269-19.135,22.351-30,30c-4.124,2.903-13.36,12.443-21,8
		c-5.575-0.573-6.484-2.712-10-5c-1.322-5.652-3.88-13.478-3-19c1.697-10.642,11.546-33.644,18-40c5.406-3.317,12.821-0.778,17-2
		c22.022-6.437,39.937-19.274,51-37c3.509-5.622,11.945-21.808,5-31C829.583,273.196,821.377,273.869,816,273z M789,338
		c-5.33,2.921-12.79,2.651-18,6c-3,0-6,0-9,0c7.764-15.41,18.58-28.563,28-42c3.685-5.256,7.079-12.115,12-16
		c4.295-3.391,9.986-5.281,14-9c2.667,0,5.333,0,8,0C834.828,295.998,801.539,331.128,789,338z"/>
	<path stroke="#FFFFFF" stroke-miterlimit="10" d="M939,418c5.924,0.24,9.952,0.864,15-2c8.272-4.693,31.597-31.237,32-43
		c-1,0-2,0-3,0c-8.847,17.264-21.867,29.908-36,42c-5.301-0.458-5.789-1.932-9-4c-3.757-21.094,8.615-32.062,17-44
		c8.635-12.294,15.732-24.105,24-37c5.373-8.379,15.509-24.113,11-41c-1.46-5.47-5.271-9.799-8-14c-27.456-6.398-37.073,25.89-51,40
		c0.398,2.055,0.248,1.927,1,3c0,0.333,0,0.667,0,1c9.072-3.264,12.154-16.187,18-23c3.162-3.685,10.268-12.478,14-15
		c2.82-1.906,6.473-1.953,9-4c2.615,0.802,2.369,1.241,5,2c3.113,16.16-7.381,25.511-14,35C944.98,341.269,907.145,386.175,939,418z
		"/>
	<path stroke="#FFFFFF" stroke-miterlimit="10" d="M1006,359c-5.915,18.089-5.724,51.849,10,57c9.779,6.95,20.611-3.085,26-7
		c14.652-10.643,25.698-26.048,37-40c5.062-6.25,7.42-14.346,13-20c0-0.333,0-0.667,0-1c0.667,0,1.333,0,2,0
		c-11.314,26.753-25.344,53.791-40,78c-3.556,5.873-4.679,11.944-8,18c-11.381,20.751-24.614,41.114-41,57
		c-16.875,16.36-43.825,29.87-70,13c-0.645-1.726-0.196-0.979-1-2c-0.218-14.13,11.933-13.701,2-29c-3.333-0.667-6.667-1.333-10-2
		c-1.734,1.665-3.939,1.49-6,3c-2.228,1.631-2.736,5.214-5,7c-0.939,50.583,77.617,36.001,100,20
		c47.287-33.805,68.86-106.211,99-158c10.607-18.226,24.328-59.527,40-70c4.096-2.737,11.689-2.747,16-5
		c-0.325-2.307-0.464-2.484-1-4c-10.75,0.203-24.662,4.325-31,0c-8.675,1.782-12.42,16.406-18,22c0,0.667,0,1.333,0,2
		c-2.139-3.663-0.317-10.816-2-15c-3.1-7.707-14.016-7.878-21-9c-2.799,1.74-7.403,0.903-11,2c-5.682,1.732-12.631,4.072-18,7
		C1040.475,298.01,1016.465,326.993,1006,359z M1083,290c5.275-4.671,12.412-6.516,18-11c2.469,0.746,7.077,0.371,10,3
		c2.405,1.31,2.361,2.038,3,5c5.274,9.023-8.896,28.467-13,36c-14.027,25.747-29.157,50.02-48,71c-7.054,7.854-16.333,12.75-24,20
		c-4.423,0.069-6.844-0.012-9-2c-2.288-1.032-2.167-1.715-4-3c-0.875-22.171,9.683-38.928,19-54
		C1049.436,331.647,1062.027,308.572,1083,290z"/>
	<path stroke="#FFFFFF" stroke-miterlimit="10" d="M1043,511c-34.705,18.303-62.172,69.489-33,112c2.99,4.357,8.662,7.827,13,11
		c41.642,30.458,95.871,7.198,110-38c8.638-27.632-8.746-64.327-41-56c-29.349,7.577-63.141,46.049-31,72c2.596-0.2,3.396-0.442,5-1
		c-1.382-6.139-5.932-4.564-8-10c-5.352-7.393,0.267-20.375,3-26c7.195-14.812,31.194-42.294,54-27c3.074,2.062,6.28,3.789,8,7
		c7.919,14.791-0.477,35.549-6,46c-9.155,17.324-22.263,29.397-40,38c-33.876,16.429-60.631-10.146-67-36
		c-5.146-20.891,14.276-46.075,26-57c19.574-18.241,41.695-27.745,72-36c9.114-2.483,22.798-2.573,29-4c4.666,0,9.334,0,14,0
		c8.288-1.926,21.034-1.002,31-1c16.998,0,34.002,0,51,0c6.333,0,12.667,0,19,0c8.065-1.552,27.396-3.814,37-10
		c2.412-1.553,3.336-5.233,6-7c-0.083-4.496-0.628-5.458-2-8c-2,0-4,0-6,0c-3.46,4.058-5.132,12.429-10,15
		c-6.712,3.546-58.175,7.333-73,4c-8.086-1.818-19.062-1.994-30-2c-5.333,0-10.667,0-16,0
		C1128.302,490.587,1065.983,498.879,1043,511z"/>
	<path stroke="#FFFFFF" stroke-miterlimit="10" d="M796,490c-7.7,4.882-19.793,3.061-28,7c-21.799,10.462-45.753,25.009-59,44
		c-17.239,24.713-33.711,51.614-48,79c-7.143,13.69-12.394,27.346-20,40c-2.535,4.218-2.883,9.499-6,13c0,0.333,0,0.667,0,1
		c-1.851-3.01,0.464-6.143,0-9c-0.872-5.373-4.619-8.283-7-12c-44.526-2.233-75.942,41.054-92,78c-8.737,20.103-12.51,42.561,1,63
		c14.6,3.425,22.342-4.028,30-13c14.388-16.856,31.22-33.687,41-55c0.333-0.333,0.667-0.667,1-1c0.333,0,0.667,0,1,0
		c-3.549,14.407-10.33,31.179-9,43c1.524,13.54,0.123,24.47,12,27c7.505,1.599,13.419-6.01,17-9c12.788-10.68,17.924-26.634,29-39
		c-0.227-2.319-0.197-2.82-1-4c0-0.333,0-0.667,0-1c-6.556,2.463-8.474,11.337-12,17c-3.899,6.26-8.47,12.93-13,19
		c-4.333,4-8.667,8-13,12c-5.03,0.121-4.828,0.22-9,0c-9.646-20.173,15.468-56.907,24-71c8.443-13.946,13.16-28.562,21-43
		c24.535-45.181,48.663-97.293,76-137c10.276-14.925,24.487-30.296,42-38c4.476-1.969,15.979-8.353,23-4
		c8.41,0.869,14.184,11.762,20,17c7.715-1.155,9.287-5.296,14-9C831.376,487.734,812.912,489.317,796,490z M619,698
		c-13.345,25.651-28.819,46.951-45,69c-4.185,5.703-21.545,30.219-32,24c-10.133-5.35,3.827-35.66,7-42
		c14.033-28.043,33.468-62.23,55-83c5.181-4.997,12.023-5.961,18-10c2,0.667,4,1.333,6,2C632.107,674.574,625,686.467,619,698z"/>
	<path stroke="#FFFFFF" stroke-miterlimit="10" d="M402,642c-0.333-0.333-0.667-0.667-1-1c-3.333-0.333-6.667-0.667-10-1
		c-5.314,5.354-12.948,8.378-18,14c-25.489,28.363-45.923,63.444-79,84c-14.306,8.891-43.186,13.668-53-3
		c-15.341-26.056,0.787-66.558,12-88c29.944-57.262,76.84-101.714,133-133c13.689-7.626,48.036-23.843,71-17
		c9.493,2.829,12.563,8.675,19,14c3.72,45.931-29.701,75.793-65,92c-12.811,5.882-35.635,14.451-51,4
		c-9.448-6.426-9.813-26.186-4-37c9.843-18.311,40.292-39.173,63-24c0.333,2.333,0.667,4.667,1,7c0.333,0.333,0.667,0.667,1,1
		c2.307-0.325,2.484-0.464,4-1c0.645-1.726,0.196-0.979,1-2c-0.885-5.767-3.493-7.212-6-11c-3.386-0.895-7.231-3.13-10-4
		c-17.261-5.424-47.414,16.439-54,26c-17.565,25.499-8.704,47.059,18,57c7.537-1.819,18.712,2.103,28,0
		c35.946-8.136,62.293-33.202,76-64c7.59-17.055,13.823-42.7-4-55c-27.685-19.106-75.523-3.72-101,6
		c-62.562,23.869-107.235,62.378-137,119c-8.584,16.33-22.406,52.092-16,76c2.525,9.424,5.188,15.567,9,24
		c11,24.332,34.927,33.697,63,19c28.444-14.892,59.996-52.643,79-78c1,0,2,0,3,0c-0.778,9.17-7.179,13.75-11,20
		c-7.271,11.894-12.981,24.435-20,36c-7.852,12.937-12.065,27.004-20,40c-21.513,35.236-45.229,71.192-85,88
		c-19.445,8.218-47.846,6.223-67,0c-35.219-11.443-61.45-31.075-71-68c-3.287-12.709,0.19-26.532,5-36
		c15.514-30.535,53.189-47.38,87-25c9.25,6.123,17.732,16.999,21,29c6.787,24.92-14.114,49.527-39,42c-5.856-1.771-10.41-5.946-15-9
		c-0.758-3.632-2.116-15.251-4-17c-0.333-0.333-0.667-0.667-1-1c0,0.333,0,0.667,0,1c-1,0.333-2,0.667-3,1
		c-2.343,49.21,80.964,32.669,68-16c-12.64-47.455-82.839-72.971-114-30c-20.764,28.634-14.623,64.966,4,91
		c20.028,27.998,39.709,36.971,77,48c7.177,2.123,21.79,5.932,29,5c4.597-0.594,12.854,1.283,22-1c2.032-0.507,8.315-3.004,10-3
		c8.993,0.02,22.42-3.527,31-8c32.198-16.784,49.666-48.357,63-84c16.967-45.354,24.208-94.919,61-120
		C402.271,644.883,402.217,646.114,402,642z"/>
	<path stroke="#FFFFFF" stroke-miterlimit="10" d="M1211,733c36.387-67.707,74.88-142.602,127-198c13.887-14.76,34.538-28.289,57-34
		c18.547-4.716,21.917,16.134,32,11c2.48-1.263,4.019-5.084,6-7c-0.18-4.238-0.796-5.334-2-8c-38.61-15.567-82.12,18.209-102,33
		c-31.441,23.393-51.944,58.12-71,94c-14.842,27.946-31.172,58.066-45,87c-12.606,26.376-23.485,52.619-37,77c-1,0.333-2,0.667-3,1
		c-8.084-18.454,8.217-51.738,14-67c17.681-46.666,43.546-93.692,53-141c3.383-16.932,13.33-50.104,3-70
		c-2.333-0.333-4.667-0.667-7-1c-25.267,25.799-44.601,58.421-64,90c-8.891,14.473-21.417,29.833-32,43
		c-3.234,4.024-4.239,8.574-7,13c-2.667,2.667-5.333,5.333-8,8c-9.236,12.897-18.799,24.329-29,36
		c-16.188,18.523-30.188,38.126-50,53c-23.588,17.708-62.291,50.678-109,37c-7.158-2.096-15.384-4.52-22-8
		c-22.231-11.695-46.656-48.069-26-80c19.588-30.28,83.565-60.469,123-32c4.967,3.586,7.116,10.454,9,14
		c17.588,33.114-22.742,57.037-44,63c-17.392,4.878-33.974-4.254-39-13c-1.722-2.996-5.145-10.262-2-15
		c0.809-9.575,8.799-11.949,16-15c0-1.333,0-2.667,0-4c-3.296-0.472-3.264-0.872-5,0c-10.216,1.006-11.538,9.372-17,15
		c-0.446,2.361-2.864,10.338-1,16c5.735,17.414,33.341,31.586,58,23c27.948-9.731,50.903-38.785,39-71
		c-2.924-7.914-6.861-15.454-13-20c-42.679-31.603-104.583-12.413-127,25c-12.705,21.204-10.946,60.591,4,78
		c20.198,23.527,63.526,46.274,110,33c16.916-4.832,33.57-13.015,47-22c39.168-26.204,68.737-76.994,95-117
		c24.729-37.67,47.748-77.262,73-115c6.304-9.421,14.968-18.424,21-28c1,0,2,0,3,0c-0.063,22.661-20.397,57.654-29,75
		c-11.563,23.317-22.685,47.928-32,72c-4.594,11.873-6.821,26.799-10,37c-8.741,28.051-12.768,74.567,4,96
		c10.51-1.52,12.163-9.668,16-18c3.468-7.53,8.819-16.034,13-23C1205.5,748.502,1206.822,740.775,1211,733z"/>
	<path stroke="#FFFFFF" stroke-miterlimit="10" d="M770,591c0-1.333,0-2.667,0-4c-6.696,1.802-8.021,11.345-11,17
		c-7.605,14.436-22.543,34.54-27,50c-10.162-0.06-21.738-0.115-29,2c0.325,2.307,0.464,2.484,1,4c7.082,1.385,13.375,1.161,23,1
		c-2.116,10.331-9.99,18.417-14,27c-8.847,18.933-17.53,36.261-27,55c-4.987,9.868-12.286,29.604-6,44
		c1.974,4.521,7.051,6.461,10,10c4.281-0.048,8.191-0.302,10,0c3.042-3.759,8.586-4.637,12-8c10.956-10.794,17.359-25.863,28-37
		c-0.227-2.319-0.197-2.82-1-4c-0.948-1.087-2.527-0.119-4,1c-5.583,4.507-7.89,13.97-12,20c-6.977,10.237-16.658,16.057-26,24
		c-6.969-0.09-6.708-1.755-10-5c0.448-13.748,8.145-21.676,13-31c11.567-22.214,22.593-43.878,35-65c3.189-5.43,11.955-28.855,16-31
		c7.416-3.932,22.836,2.878,29-1c1-0.333,2-0.667,3-1c-0.2-2.596-0.442-3.396-1-5c-8.666,0-17.334,0-26,0
		c4.515-16.175,19.174-33.659,27-48c3.558-6.521,5.22-13.777,10-19c0-0.333,0-0.667,0-1c-4.008,0.846-8.431,4.429-11,7
		C776.486,593.095,773.102,592.667,770,591z"/>
	<path stroke="#FFFFFF" stroke-miterlimit="10" d="M1464,699c6.371-11.625,17.125-24.854,21-38c9.346,0.213,27.672,2.339,32-3
		c0.784-0.621,0.251-0.032,0-1c-0.333-1-0.667-2-1-3c-8.666,0-17.334,0-26,0c5.115-15.496,16.773-30.68,25-44
		c4.304-6.969,5.9-16.904,12-22c0-0.667,0-1.333,0-2c-4.905,1.669-12.465,11.035-20,6c-0.667,0-1.333,0-2,0
		c-0.333-1.667-0.667-3.333-1-5c-6.696,1.833-7.939,12.289-11,18c-8.558,15.972-19.533,32.003-27,49c-9.176-0.123-21.958-1.17-28,2
		c-0.333,1-0.667,2-1,3c0.667,0.667,1.333,1.333,2,2c3.598-0.082,9.305-0.264,10,0c4.333,0,8.667,0,13,0
		c-7.751,13.594-13.537,27.737-21,42c-8.939,17.083-20.882,34.103-27,54c-2.742,8.917-3.266,24.322,1,32c1.73,3.115,6.701,5.162,9,8
		c25.939,0.014,37.728-29.99,50-45c-0.227-2.319-0.197-2.82-1-4c-1.029-0.807-0.246-0.369-2-1c-7.383,9.208-12.196,21.094-20,30
		c-5.792,6.609-13.239,10.285-20,16c-2.533-0.105-3.705-0.123-5-1c-3.284-1.312-2.912-2.802-5-5c1.427-16.405,12.816-31.205,20-43
		C1449.911,729.369,1455.719,714.11,1464,699z"/>
	<path stroke="#FFFFFF" stroke-miterlimit="10" d="M1628,588c-2.125-1.435-7.329-1.141-11-1c-12.489,11.785-18.234,11.598-17,33
		c1.667,2,3.333,4,5,6c6.104,0.605,9.536,1.774,14,0c8.786-3.493,23.509-22.333,14-34C1631.511,589.764,1630.927,588.947,1628,588z
		 M1615,623c-21.106-0.084-9.018-26.815,3-30c0.855-0.663,3.14-1.352,4-2C1645.841,599.77,1621.918,616.943,1615,623z"/>
	<path stroke="#FFFFFF" stroke-miterlimit="10" d="M1613,758c-5.291,8.53-10.819,18.03-17,26c-2.76,3.559-7.905,5.68-11,9
		c-8.296,0.074-7.363-1.998-11-6c0.493-21.267,13.079-36.255,20-52c12.56-28.572,28.615-64.132,47-87c0-0.333,0-0.667,0-1
		c-6.346,1.231-12.684,9.902-19,7c-2.055-0.399-1.927-0.248-3-1c-1.623-1.401-1.736-3.287-3-5c0-0.333,0-0.667,0-1
		c-6.196,3.059-11.483,19.253-14,26c-0.333,0.333-0.667,0.667-1,1c-0.333,0-0.667,0-1,0c1.048-2.81,1.919-10.258,0-13
		c-0.355-5.069-1.928-7.674-6-9c-11.283-8.21-37.821,9.951-45,16c-25.426,21.423-39.603,40.243-50,77
		c-3.892,13.757,1.002,32.601,0,42c3.063,2.384,4.194,5.062,8,7c6.631,6.096,18.899-8.202,23-12c12.375-11.462,24.627-25.774,34-40
		c4.802-7.288,8.02-15.902,14-22c0-0.333,0-0.667,0-1c0.667,0,1.333,0,2,0c-5.273,12.429-20.514,58.97-8,72
		c1.366,3.01,3.484,4.184,7,5c4.398,2.399,9.984-2.508,14-6c9.305-8.091,30.049-31.282,31-46
		C1616.663,745.545,1616.396,752.525,1613,758z M1537,769c-8.271,9.348-15.818,23.586-31,20c-3.494-18.654,7.538-32.678,14-45
		c13.837-26.384,28.895-50.048,46-73c2.018-2.707,9.412-11.06,12-13c2.438-1.828,5.072-1.705,7-4c2,0,4,0,6,0
		c1.133,1.188,2.54,2.146,4,3c4.891,12.567-2.237,26.787-7,36C1573.674,720.71,1556.776,746.647,1537,769z"/>
	<path stroke="#FFFFFF" stroke-miterlimit="10" d="M515,690c1.918-21.87-7.342-42.488-32-42c-1.76,1.121-4.253,0.172-7,1
		c-8.085,2.436-17.146,5.736-24,10c-24.525,15.258-45.27,41.099-54,72c-7.587,26.857,0,58.6,19,66c11.1,4.323,31.406-6.123,37-9
		c33.99-17.483,52.587-46.434,61-84C516.437,697.583,514.51,695.585,515,690z M495,700c-8.498,22.656-22.388,44.11-35,63
		c-7.277,10.899-13.945,23.124-26,29c-3.805,1.854-10.731,1.007-16,1c-3.059-3.136-6.454-4.17-8-9c-6.049-9.973,6.426-34.409,9-41
		c11.201-28.681,24.604-56.245,43-78c5.235-6.191,14.289-7.896,20-13c2.562,0.291,8.896-0.259,12,2
		C510.051,659.754,499.603,687.728,495,700z"/>
	<path stroke="#FFFFFF" stroke-miterlimit="10" d="M1433,656c1-1.333,2-2.667,3-4c-11.478-4.899-28.751,4.393-37-3
		c-5.319,2.698-7.201,11.684-10,17c-5.856,11.123-12.188,22.902-19,34c-14.854,24.199-30.421,48.368-47,71
		c-5.333,5.333-10.667,10.667-16,16c-2.885,2.067-5.849,2.243-8,5c-23.049-0.103-12.123-20.546-6-31
		c13.555-23.145,32.974-40.31,41-70c3.739-13.833,1.542-35.996-10-40c-2.932-2.134-12.354-0.08-16,3
		c-7.677,6.487-27.541,26.923-28,39c7.888-1.586,9.196-9.303,13-15c6.107-9.146,15.61-15.569,22-24c2.915-0.031,5.451-0.049,7,1
		c2.501,1.217,2.276,2.268,4,4c0.046,19.539-10.131,30.209-19,41c1.354,2.594-5.112,8.152-7,11c-6.7,10.105-14.178,21.673-19,33
		c-5.263,12.364-8.997,34.25-2,43c2.277,6.599,7.979,6.295,13,10c23.667-1.675,37.08-27.622,48-43c4.968-6.997,13.114-14.303,16-23
		c0.667,0,1.333,0,2,0c-4.145,15.383-16.794,33.181-24,47c-19.434,37.268-35.35,76.125-64,104c-9.394,9.14-42.941,25.286-58,11
		c-9.033-3.885-5.108-14.83,1-19c0.066-3.104,0.142-6.31-1-8c-1.508-4.354-3.898-4.458-7-7c-8.275-0.312-13.1,1.036-15,7
		c-3.141,4.247-1.566,11.34-1,17c4.005,4.199,6.779,10.082,12,13c24.077,13.459,61.515,5.525,81-8
		c25.503-17.702,39.688-46.052,56-73c2.449-4.046,2.605-8.86,5-13c15.127-26.15,29.331-55.526,42-83
		C1394.022,699.435,1409.763,652.714,1433,656z"/>
	<path stroke="#FFFFFF" stroke-miterlimit="10" d="M1757,651c-6.537-6.115-20.916,6.236-25,10c-12.067,11.12-24.591,24.438-34,38
		c-5.435,7.834-9.356,16.445-16,23c0,0.333,0,0.667,0,1c-0.333,0-0.667,0-1,0c4.344-15.646,9.963-30.864,14-48
		c1.89-8.022-0.624-19.637-5-22c-2.172-2.627-5.011-3.111-10-3c-9.347,7.527-18.908,13.326-26,23c-5.002,6.824-8.648,17.519-15,23
		c0.398,2.054,0.248,1.927,1,3c0,0.333,0,0.667,0,1c8.109-2.905,9.128-12.75,14-19c8.128-10.428,17.195-17.781,26-27
		c2.533,0.105,3.705,0.123,5,1c1,0.333,2,0.667,3,1c3.177,16.219-6.107,28.543-12,40c-7.487,14.557-12.539,29.218-21,43
		c-5.292,8.62-12.323,18.167-17,27c-4.97,9.385-9.161,22.438-17,29c0,0.667,0,1.333,0,2c3.899-1.348,10.413-4.425,14-7
		c6.611,0.015,8.852,1.502,10,7c5.927-3.415,15.991-28.622,20-36c13.188-24.271,29.519-48.649,47-69
		c6.783-7.897,10.165-17.029,22-20c3.414,4.915,0.78,7.004,2,11c0.51,1.67,3.052,3.382,4,5c2.533-0.105,3.705-0.123,5-1
		c11.93-1.342,16.579-20.491,16-32C1759.667,653.667,1758.333,652.333,1757,651z"/>
</g>
</svg>
