<?xml version="1.0" encoding="utf-8"?>
<!-- Generator: Adobe Illustrator 16.0.0, SVG Export Plug-In . SVG Version: 6.00 Build 0)  -->
<!DOCTYPE svg PUBLIC "-//W3C//DTD SVG 1.1//EN" "http://www.w3.org/Graphics/SVG/1.1/DTD/svg11.dtd">
<svg version="1.1" id="Lag_1" xmlns="http://www.w3.org/2000/svg" xmlns:xlink="http://www.w3.org/1999/xlink" x="0px" y="0px"
	 width="1670.882px" height="845.574px" viewBox="0 0 1670.882 845.574" enable-background="new 0 0 1670.882 845.574"
	 xml:space="preserve">
<path fill-rule="evenodd" clip-rule="evenodd" d="M94.082,515.142c-11.931-4.715-19.011,3.142-28.455,7.719
	c0.902-2.948,0.955-4.52,1.747-5.487c6.319-7.72,13.583-14.154,24.368-13.594c4.351,0.226,5.928-1.439,7.154-5.273
	c3.911-12.235,8.17-24.359,12.345-36.509c3.447-10.031-1.006-14.896-9.525-17.808c-11.433-3.907-23.552-5.907-35.775-3.532
	c-9.077,1.765-18.412,3.041-27.015,6.209c-13.208,4.864-23.596,14.097-26.202,28.318c-2.928,15.981,1.176,29.59,21.84,33.459
	c3.047,0.57,6.185,0.988,9.27,0.93c2.736-0.053,4.337,1.111,4.121,3.501c-0.087,0.968-2.422,2.421-3.782,2.476
	c-10.265,0.412-20.195-0.761-29.55-5.709c-8.998-4.76-13.377-12.331-14.354-21.956c-2.075-20.451,7.98-33.954,25.263-43.326
	c19.442-10.543,40.487-12.154,61.825-10.66c9.482,0.664,18.804,3.71,28.172,5.796c1.715,0.382,3.406,1.17,4.929,2.072
	c5.397,3.201,6.464,6.838,3.974,14.274c-5.265,15.726-10.656,31.408-16.113,47.453c7.618,0.962,12.553-4.741,18.391-7.465
	c2.818,7.155-2.948,9.464-6.903,12.177c-3.562,2.442-8.068,3.461-11.939,5.519c-1.876,0.997-4.037,2.642-4.732,4.495
	c-6.257,16.688-12.817,33.24-22.913,48.046c-8.895,13.044-20.078,23.627-35.853,27.614c-6.921,1.749-14.236,2.045-21.403,2.609
	c-1.164,0.091-2.489-1.863-3.739-2.873c1.209-0.983,2.427-2.836,3.625-2.823c23.02,0.25,39.095-11.468,49.788-30.486
	C80.738,545.903,86.918,530.422,94.082,515.142z"/>
<path fill-rule="evenodd" clip-rule="evenodd" d="M320.922,356.174c3.441-1.159,6.882-2.318,10.314-3.476
	c1.859,5.757-12.896,15.413-23.217,14.652c0.689-3.77,1.367-7.473,1.824-9.969c-5.682,3.267-11.684,7.602-18.354,10.251
	c-4.681,1.86-10.311,2.13-15.45,1.854c-8.371-0.45-14.325-8.145-14.891-17.154c-0.743-11.826,3.017-22.443,9.287-31.936
	c8.14-12.323,18.218-22.857,32.26-28.879c11.976-5.135,18.805-3.457,26.552,7.436c0.705-0.951,1.578-1.692,1.895-2.622
	c6.075-17.864,12.137-35.734,18.014-53.664c0.486-1.482-0.365-3.403-0.595-5.12c-1.373,0.45-2.796,0.787-4.106,1.376
	c-2.091,0.938-4.117,3.3-6.37-0.246c5.562-7.522,13.848-10.732,22.063-13.85c3.146-1.193,4.961,1.413,3.806,5.292
	c-1.485,4.987-3.122,9.937-4.875,14.837c-7.233,20.218-14.58,40.395-21.797,60.618c-5.844,16.375-11.56,32.795-17.332,49.195
	C320.274,355.237,320.598,355.706,320.922,356.174z M273.209,346.729c0,0.831-0.107,1.679,0.016,2.491
	c1.531,10.046,4.934,13.87,14.391,12.17c4.859-0.874,10.006-3.418,13.743-6.677c12.574-10.969,18.555-25.83,21.643-41.761
	c1.139-5.876-0.856-12.054-6.032-15.792c-4.634-3.347-10.108-1.938-14.354,0.94c-5.315,3.605-10.594,7.697-14.684,12.586
	C279.29,321.017,274.392,333.193,273.209,346.729z"/>
<path fill-rule="evenodd" clip-rule="evenodd" d="M158.832,583.98c3.262-9.081,6.478-18.083,9.728-27.072
	c3.982-11.014,8.055-21.996,11.922-33.05c0.547-1.563,0.154-3.457,0.196-5.197c-1.683,0.355-3.369,0.693-5.047,1.071
	c-1.567,0.353-3.125,0.747-4.687,1.123c0.502-1.646,0.495-4.134,1.591-4.798c6.102-3.691,12.252-7.477,18.822-10.161
	c4.718-1.928,6.675,0.671,5.325,5.835c-0.479,1.834-0.888,3.687-1.171,4.875c9.047-3.388,18.179-6.979,27.449-10.165
	c2.554-0.878,5.819-1.367,8.209-0.507c1.873,0.674,2.898,3.703,4.452,5.901c5.149-1.68,11.354-3.929,17.689-5.712
	c7.988-2.249,15.234,1.122,11.819,11.786c-4.107,12.83-9.001,25.41-13.663,38.06c-2.25,6.104-4.749,12.118-7.243,18.447
	c5.45,3.619,9.05-2.107,14.79-1.667c-1.367,1.992-2.296,4.896-4.184,5.801c-5.188,2.485-10.7,4.405-16.24,6.01
	c-3.495,1.013-4.96-1.317-4.332-4.59c0.609-3.177,1.438-6.347,2.531-9.39c5.336-14.847,10.808-29.645,16.189-44.475
	c0.551-1.519,1.016-3.117,1.185-4.714c0.539-5.094-2.467-7.438-7.504-6.533c-13.044,2.346-19.647,10.633-23.592,22.812
	c-4.403,13.596-10.166,26.754-15.441,40.061c-2.088,5.269-5.367,7.086-11.72,6.479c4.792-13.228,9.49-26.306,14.272-39.353
	c2.909-7.937,6.049-15.79,8.826-23.771c0.469-1.347,0.161-3.806-0.767-4.582c-1.129-0.944-3.506-1.289-4.978-0.797
	c-14.664,4.897-24.953,14.239-30.116,29.197c-3.924,11.367-8.576,22.485-13.008,33.672
	C168.413,582.922,164.221,584.944,158.832,583.98z"/>
<path fill-rule="evenodd" clip-rule="evenodd" d="M331.474,138.241c1.995,4.526-1.188,6.622-3.395,7.749
	c-4.724,2.412-9.881,4.087-15.004,5.566c-2.958,0.854-5.476-0.272-4.832-4.103c0.59-3.514,1.15-7.097,2.325-10.438
	c5.448-15.496,11.193-30.888,16.651-46.381c2.541-7.213,0.215-10.567-6.898-8.714c-5.949,1.549-12.223,4.325-16.664,8.399
	c-3.492,3.202-4.516,9.17-6.445,13.985c-5.445,13.59-10.783,27.223-16.181,40.831c-1.891,4.766-5.86,5.985-11.738,6.932
	c3.567-9.817,6.708-18.45,9.842-27.086c4.493-12.385,9.05-24.747,13.374-37.189c0.484-1.394,0.192-3.809-0.744-4.732
	c-0.934-0.922-3.315-1.14-4.746-0.681c-15.757,5.061-25.943,15.435-30.918,31.433c-3.18,10.224-7.581,20.075-11.58,30.036
	c-2.19,5.455-5.086,7.36-11.812,7.682c1.428-4.554,2.609-8.831,4.104-12.995c5.77-16.071,11.68-32.092,17.405-48.179
	c0.53-1.488,0.116-3.312,0.14-4.98c-1.562,0.364-3.131,0.7-4.683,1.101c-1.645,0.425-3.274,0.911-5.867,0.396
	c0.698-1.465,1.007-3.666,2.159-4.275c6.707-3.553,13.512-6.967,20.494-9.933c3.193-1.356,5.381,0.853,4.622,4.147
	c-0.573,2.486-1.532,4.885-2.504,7.895c1.381-0.592,2.566-0.9,3.529-1.542c9.398-6.259,19.889-9.554,30.899-11.381
	c3.803-0.632,5.561,2.173,4.794,7.457c5.898-2.079,11.637-4.546,17.619-6.039c3.377-0.842,7.745-1.248,10.623,0.21
	c5.378,2.725,3.969,8.765,2.615,12.945c-3.946,12.194-8.866,24.073-13.41,36.073c-2.016,5.323-4.101,10.621-6.022,15.979
	c-0.38,1.059-0.518,3.192-0.143,3.351c1.212,0.511,2.873,0.769,4.074,0.332C325.99,141.065,328.655,139.581,331.474,138.241z"/>
<path fill-rule="evenodd" clip-rule="evenodd" d="M378.133,151.846c2.507-7.235,4.545-13.353,6.74-19.412
	c5.429-14.988,10.967-29.937,16.332-44.946c0.462-1.29,0.494-3.801-0.19-4.21c-1.408-0.841-3.607-1.233-5.184-0.779
	c-15.69,4.519-25.438,15.002-30.676,30.327c-3.469,10.15-7.773,20.013-11.574,30.053c-1.884,4.977-5.052,8.156-12.112,8.926
	c1.614-5.242,2.863-9.917,4.487-14.457c5.697-15.928,11.56-31.797,17.239-47.732c0.465-1.305,0.019-2.935-0.004-4.413
	c-1.521,0.226-3.089,0.286-4.549,0.716c-1.941,0.572-3.798,1.433-5.691,2.169c-0.313-0.361-0.626-0.723-0.938-1.084
	c0.862-1.414,1.386-3.472,2.644-4.135c7.004-3.688,14.151-7.117,21.376-10.353c0.558-0.249,3.025,1.705,2.999,2.586
	c-0.096,3.133-0.887,6.245-1.453,9.598c12.192-6.286,23.777-13.804,38.374-12.148c0.193,2.666,0.345,4.759,0.439,6.061
	c7.754-2.045,15.356-4.22,23.047-6.019c5.15-1.205,9.21,1.634,8.569,6.71c-0.806,6.374-2.545,12.745-4.742,18.805
	c-4.715,13.001-10.029,25.783-14.959,38.708c-0.573,1.504-0.269,3.342-0.371,5.025c1.826-0.075,3.664-0.056,5.474-0.271
	c0.767-0.091,1.439-0.84,2.216-1.007c1.683-0.361,3.405-0.54,5.111-0.794c-0.845,1.79-1.219,4.465-2.62,5.211
	c-4.832,2.573-9.892,4.903-15.116,6.506c-4.889,1.5-7.523-1.491-5.829-6.553c5.78-17.269,11.842-34.442,17.773-51.66
	c0.58-1.685,1.041-3.415,1.484-5.143c0.938-3.655-0.969-6.198-4.801-6.465c-7.505-0.522-18.511,5.372-21.393,12.294
	c-6.251,15.014-11.96,30.253-18.104,45.313c-1.92,4.706-3.23,10.139-9.053,11.962C382.028,151.562,380.862,151.524,378.133,151.846z
	"/>
<path fill-rule="evenodd" clip-rule="evenodd" d="M1359.972,289.269c-1.678,5.33-3.115,10.751-5.077,15.974
	c-5.949,15.838-12.156,31.579-18.082,47.426c-0.546,1.459,0.284,3.397,0.324,5.116c0.313,13.23,0.006,26.457-7.995,37.797
	c-7.63,10.814-18.413,16.401-31.679,17.081c-10.544,0.54-20.879-0.639-29.399-7.262c-3.159-2.456-5.032-6.981-6.506-10.931
	c-0.438-1.171,2.162-4.504,3.973-5.145c1.341-0.475,4.179,1.38,5.443,2.934c4.503,5.534,8.815,11.691,16.272,12.786
	c18.173,2.668,35.337-0.726,38.852-24.417c1.201-8.101,1.058-16.4,1.612-26.083c-2.565,1.619-3.89,2.332-5.08,3.225
	c-9.369,7.021-19.717,11.499-31.549,11.854c-6.346,0.19-9.3-3.599-7.318-9.894c3.851-12.232,8.046-24.358,12.259-36.474
	c2.083-5.99,4.61-11.825,6.73-17.804c0.469-1.321,0.069-2.951,0.069-5.321c-4.229,1.906-7.415,3.342-10.602,4.778
	c-0.427-0.29-0.854-0.58-1.28-0.87c0.864-1.734,1.271-4.256,2.671-5.069c6.297-3.664,12.749-7.13,19.406-10.079
	c3.398-1.507,5.927,1.092,4.651,4.662c-4.646,13-9.586,25.896-14.405,38.835c-2.496,6.704-5.166,13.354-7.344,20.16
	c-0.678,2.115-0.902,5.577,0.303,6.77c1.315,1.303,4.651,1.28,6.896,0.816c18.176-3.755,27.863-15.914,33.233-32.961
	c3.365-10.682,8.186-20.899,12.222-31.376c1.837-4.77,5.913-5.903,9.897-7.327C1358.97,288.736,1359.471,289.003,1359.972,289.269z"
	/>
<path fill-rule="evenodd" clip-rule="evenodd" d="M174.77,367.172c4.66-13.309,9.091-26.219,13.7-39.064
	c5.825-16.234,11.825-32.406,17.691-48.627c4.15-11.474,8.311-22.946,12.211-34.506c0.818-2.425,0.518-5.228,0.732-7.855
	c-0.474-0.224-0.947-0.446-1.42-0.67c-1.709,1.038-3.316,2.359-5.16,3.026c-1.571,0.568-3.415,0.385-5.225-0.091
	c5.482-8.221,13.697-11.548,21.985-14.57c2.953-1.077,4.879,1.438,3.788,4.969c-1.729,5.594-3.851,11.066-5.807,16.59
	c-6.354,17.939-12.713,35.877-19.047,53.823c-0.249,0.705-0.262,1.493-0.475,2.792c4.596-3.305,8.587-6.677,13.034-9.271
	c10.791-6.296,23.335-7.894,31.407,1.503c5.466,6.364,5.885,14.219,4.68,21.92c-3.03,19.364-13.718,34.211-29.298,45.399
	c-7.146,5.131-15.277,9.021-24.705,8.138c-2.667-0.249-4.87-0.619-4.701-4.18c0.156-3.286,1.601-4.86,4.887-4.842
	c6.718,0.038,13.597,0.81,19.303-4.025c14.091-11.939,23.698-26.185,21.741-45.592c-1.061-10.52-9.823-17.997-20.917-12.231
	c-11.304,5.875-20.012,14.37-24.167,27.11c-3.628,11.124-8.133,21.97-12.442,32.861C184.035,366.169,181.315,367.837,174.77,367.172
	z"/>
<path fill-rule="evenodd" clip-rule="evenodd" d="M1324.701,86.722c0.87-1.551,1.354-3.826,2.675-4.529
	c6.42-3.421,13.018-6.523,19.648-9.526c3.27-1.48,4.879,0.44,4.081,3.414c-1.675,6.249-3.712,12.419-5.924,18.503
	c-5.279,14.515-10.81,28.938-16.09,43.454c-1.255,3.45,0.073,5.495,4.068,5.655c10.853,0.434,27.995-10.594,31.917-20.714
	c5.76-14.865,11.194-29.869,17.471-44.512c1.337-3.12,5.69-4.947,9.162-7.785c2.849,5.483-0.058,8.881-1.31,12.282
	c-6.183,16.796-13.252,33.296-18.679,50.324c-2.228,6.992-1.106,15.049-1.519,22.621c-0.803,14.734-6.874,26.776-19.576,34.443
	c-13.355,8.061-37.995,8.081-50.638-2.91c-2.43-2.112-3.697-5.973-4.571-9.273c-0.388-1.463,1.138-4.478,2.53-5.075
	c1.41-0.605,4.172,0.389,5.563,1.587c3.829,3.296,6.796,7.736,10.917,10.523c13.578,9.184,41.182,4.013,44.68-17.645
	c1.279-7.922,1.533-16.02,2.003-24.052c0.09-1.533-1.002-3.136-1.611-4.888c-11.229,8.632-22.628,14.476-36.544,14.139
	c-4.214-0.102-6.233-2.209-5.602-5.639c1.406-7.634,3.109-15.291,5.602-22.629c4.025-11.856,8.818-23.45,13.18-35.194
	c0.439-1.184,0.136-2.643,0.177-3.975c-1.63,0.204-3.312,0.221-4.877,0.659c-1.816,0.51-3.528,1.389-5.286,2.106
	C1325.667,87.633,1325.185,87.178,1324.701,86.722z"/>
<path fill-rule="evenodd" clip-rule="evenodd" d="M267.733,801.467c1.308-4.418,2.26-8.341,3.622-12.116
	c7.064-19.595,14.288-39.132,21.348-58.729c6.287-17.45,12.445-34.947,18.614-52.44c0.479-1.358,0.824-2.843,0.834-4.271
	c0.02-2.867-1.278-3.955-4.141-2.643c-2.291,1.05-4.671,1.906-7.012,2.849c-0.407-0.524-0.815-1.049-1.222-1.573
	c1.985-2.02,3.689-4.479,6.015-5.965c4.536-2.898,9.33-5.442,14.213-7.716c1.519-0.707,3.954-0.604,5.399,0.18
	c0.722,0.392,0.564,3.278,0.101,4.825c-2.055,6.849-4.23,13.668-6.609,20.411c-5.143,14.577-10.431,29.104-15.672,43.646
	c-0.977,2.709-2.014,5.396-2.296,8.824c2.789-2.227,5.447-4.646,8.392-6.646c8.693-5.9,18.064-8.805,28.666-6.134
	c6.818,1.717,9.688,6.736,11.194,12.898c2.98,12.196-0.353,23.519-6.143,33.946c-8.416,15.157-20.104,27.083-37.434,31.895
	c-3.713,1.03-7.827,0.914-11.73,0.736c-0.943-0.043-2.463-2.428-2.473-3.745c-0.01-1.329,1.245-3.311,2.457-3.844
	c1.541-0.677,3.629-0.416,5.422-0.155c9.67,1.406,16.497-3.855,22.391-10.182c7.405-7.947,13.441-17.072,15.03-28.056
	c1.088-7.526,2.207-15.556-4.109-21.919c-4.245-4.276-10.424-5.412-15.813-2.693c-12.532,6.321-21.222,15.876-25.675,29.436
	c-3.652,11.12-8.042,22-12.176,32.96C277.433,799.206,273.87,801.284,267.733,801.467z"/>
<path fill-rule="evenodd" clip-rule="evenodd" d="M904.135,582.495c-4.757,10.285-9.204,20.255-13.964,30.073
	c-3.256,6.719-7.797,12.513-14.931,15.459c-2.904,1.2-6.194,1.467-9.31,2.158c-0.393-0.471-0.785-0.94-1.179-1.41
	c0.893-1.354,1.713-3.824,2.688-3.887c8.129-0.521,11.748-6.667,14.259-12.596c6.213-14.668,11.657-29.679,16.97-44.706
	c5.204-14.723,9.899-29.625,14.712-44.482c0.521-1.605,0.342-3.437,0.568-6.126c-4.221,1.976-7.137,3.341-10.098,4.727
	c-1.062-6.781,14.114-16.396,25.539-15.825c-0.438,3.83-0.868,7.606-1.324,11.594c3.061-2.133,6.14-4.319,9.26-6.445
	c5.267-3.587,11.015-5.233,17.473-5.488c8.122-0.321,13.88,7.003,14.42,13.847c1.469,18.616-6.466,33.665-17.734,47.535
	c-5.34,6.573-11.564,11.97-19.188,15.727C922.984,587.237,913.68,588.602,904.135,582.495z M958.568,526.038
	c1.493-8.311-8.808-15.285-19.614-9.237c-2.117,1.185-4.021,2.829-5.83,4.474c-13.761,12.506-19.746,28.816-22.558,46.62
	c-0.868,5.498,2.585,11.501,7.17,11.587c4.132,0.078,8.976-0.038,12.276-2.067c5.301-3.258,10.337-7.583,14.15-12.493
	C952.499,554.188,957.449,541.848,958.568,526.038z"/>
<path fill-rule="evenodd" clip-rule="evenodd" d="M725.34,353.69c2.4,2.447,2.323,4.471-0.286,6.686
	c-4.271,3.625-8.276,7.342-14.499,7.391c-3.584,0.028-5.161-1.208-6.439-4.511c-4.051-10.465-8.507-20.772-12.84-31.127
	c-0.365-0.873-0.974-1.645-1.847-3.088c-7.874,6.944-17.369,11.755-20.257,22.835c-0.937,3.591-2.381,7.092-3.966,10.458
	c-1.849,3.926-4.985,5.946-10.341,5.004c1.904-5.897,3.556-11.584,5.567-17.141c7.145-19.729,14.471-39.392,21.611-59.121
	c5.535-15.292,10.988-30.614,16.248-46.002c0.858-2.512,0.528-5.43,0.735-8.008c-4.981-0.853-7.226,6.269-12.115,1.85
	c5.723-7.766,14.014-10.966,22.227-14.089c3.144-1.194,4.984,1.418,3.817,5.28c-1.553,5.139-3.289,10.227-5.105,15.279
	c-9.901,27.547-19.854,55.076-29.78,82.613c-0.365,1.014-0.646,2.058-0.271,3.566c8.268-7.268,16.339-14.777,24.865-21.729
	c7.201-5.869,14.854-11.2,22.48-16.52c1.926-1.343,4.471-2.152,6.82-2.416c1.716-0.193,4.227,0.383,5.197,1.578
	c1.021,1.257,1.27,3.925,0.63,5.469c-0.428,1.03-2.977,1.559-4.612,1.647c-8.389,0.452-15.306,4.278-21.643,9.312
	c-3.61,2.868-6.729,6.362-10.369,9.187c-3.079,2.39-3.144,4.96-1.738,8.114c3.979,8.929,7.835,17.914,11.913,26.799
	c2.932,6.388,4.415,6.699,10.296,2.876C722.847,355.099,724.118,354.411,725.34,353.69z"/>
<path fill-rule="evenodd" clip-rule="evenodd" d="M806.062,354.348c-0.734,2.054-0.927,4.628-2.306,6.062
	c-3.879,4.037-8.204,7.414-14.44,7.359c-3.375-0.03-4.944-1.175-6.15-4.26c-4.144-10.604-8.583-21.092-12.938-31.612
	c-0.304-0.734-0.829-1.375-1.734-2.841c-7.172,6.387-15.957,10.575-19.328,20.308c-1.54,4.447-3.002,8.962-5.041,13.184
	c-1.846,3.82-5.077,5.896-10.371,4.654c3.32-9.598,6.47-18.938,9.78-28.222c5.571-15.625,11.236-31.217,16.877-46.816
	c5.695-15.753,11.494-31.468,17.023-47.278c0.834-2.386,0.444-5.198,0.609-7.654c-4.945-1.179-7.209,6.025-12.219,1.695
	c5.994-7.757,14.261-11.638,23.065-14.049c4.032-1.104,3.675,2.888,2.944,5.438c-1.433,5-3.094,9.943-4.864,14.837
	c-7.525,20.801-15.138,41.571-22.69,62.362c-2.817,7.755-5.559,15.536-7.467,23.948c5.479-4.782,10.795-9.766,16.469-14.301
	c10.087-8.062,20.318-15.949,30.667-23.671c1.99-1.485,4.737-2.171,7.246-2.691c3.082-0.64,5.597,0.188,6.022,4.006
	c0.411,3.678-1.008,4.958-4.771,4.938c-8.602-0.046-15.619,4.175-22.085,9.322c-3.478,2.77-6.476,6.153-10.011,8.838
	c-3.524,2.676-3.217,5.416-1.578,8.949c3.838,8.274,7.417,16.669,11.09,25.021c3.319,7.549,4.802,8.045,11.449,3.76
	c0.951-0.613,1.859-1.295,2.788-1.944C804.754,353.908,805.408,354.128,806.062,354.348z"/>
<path fill-rule="evenodd" clip-rule="evenodd" d="M1435.422,545.45c-3.853,3.319-7.204,6.508-10.863,9.292
	c-6.745,5.133-8.797,12.778-11.332,20.202c-2.62,7.674-5.427,9.941-12.407,9.232c2.658-7.603,5.21-15.059,7.867-22.479
	c11.849-33.091,23.729-66.17,35.588-99.257c0.6-1.673,1.803-3.547,1.446-5.018c-0.306-1.259-2.638-3.084-3.738-2.877
	c-2.465,0.464-4.722,2.037-7.269,3.257c-1.745-4.817,2.164-6.777,4.588-8.438c4.39-3.005,9.402-5.156,14.309-7.313
	c1.282-0.564,4.117-0.355,4.513,0.4c0.778,1.489,0.896,3.8,0.332,5.441c-5.498,16.005-11.152,31.957-16.845,47.895
	c-5.965,16.7-12.021,33.368-18.024,50.055c-0.149,0.415-0.138,0.888-0.39,2.652c3.706-3.056,6.635-5.429,9.518-7.855
	c10.688-8.996,21.072-18.39,32.188-26.822c4.201-3.187,9.997-4.418,15.218-6.055c2.784-0.873,4.087,0.826,4.175,3.895
	c0.086,3.032-0.83,5.023-3.906,4.938c-15.963-0.439-24.787,11.234-34.977,20.531c-0.729,0.664-0.863,2.76-0.408,3.816
	c4.39,10.184,8.903,20.316,13.521,30.399c1.818,3.973,5.036,4.394,8.753,1.895c1.476-0.992,3.542-1.105,5.34-1.618
	c-0.603,1.981-0.595,4.715-1.928,5.798c-3.383,2.75-7.171,5.215-11.164,6.946c-4.265,1.848-7.411,0.008-9.128-4.223
	c-4.47-11.01-8.943-22.019-13.457-33.012C1436.71,546.571,1436.09,546.172,1435.422,545.45z"/>
<path fill-rule="evenodd" clip-rule="evenodd" d="M1340.084,764.809c4.042-3.551,8.011-7.189,12.14-10.635
	c9.452-7.885,18.78-15.942,28.586-23.367c3.648-2.763,8.393-4.235,12.829-5.726c1.782-0.6,4.078,0.334,6.334,0.592
	c0,2.361,0,4.449,0,6.876c-13.244,0.192-23.546,6.087-32.524,15.235c-7.489,7.631-7.841,7.424-3.774,16.79
	c3.378,7.778,6.945,15.478,10.57,23.145c2.53,5.354,4.035,5.71,8.771,2.554c0.814-0.543,1.551-1.302,2.443-1.598
	c0.92-0.305,2.487-0.581,2.87-0.12c0.56,0.673,0.809,2.516,0.33,2.987c-2.503,2.465-4.98,5.206-8.012,6.839
	c-10.63,5.725-11.334,5.365-16.002-5.832c-3.946-9.467-7.789-18.977-11.722-28.448c-0.23-0.555-0.858-0.944-1.649-1.777
	c-5.171,4.419-11.273,8.042-15.069,13.323c-3.856,5.366-5.66,12.287-7.946,18.677c-1.837,5.134-5.687,6.649-11.724,7.818
	c1.835-5.988,3.165-11.087,4.95-16.021c6.754-18.668,13.742-37.252,20.477-55.927c6.237-17.296,12.277-34.663,18.358-52.015
	c0.477-1.36,0.822-2.844,0.831-4.272c0.018-2.87-1.283-3.95-4.145-2.637c-2.29,1.052-4.671,1.904-7.012,2.846
	c-0.419-0.55-0.837-1.1-1.256-1.648c2.257-2.206,4.201-4.938,6.839-6.502c4.737-2.807,9.74-5.34,14.92-7.176
	c4.244-1.503,5.668,0.306,4.308,4.667c-1.84,5.904-3.705,11.807-5.799,17.624c-9.205,25.567-18.501,51.103-27.749,76.654
	c-0.778,2.151-1.441,4.345-2.158,6.519C1339.427,764.438,1339.756,764.623,1340.084,764.809z"/>
<path fill-rule="evenodd" clip-rule="evenodd" d="M189.582,0.816c-0.739,2.053-1.395,4.142-2.26,6.14
	c-0.309,0.713-1.236,1.131-1.688,1.812c-5.094,7.688-12.621,8.804-20.957,7.896c-12.557-1.367-25.098-2.952-37.685-3.948
	c-16.106-1.275-32.307-3.386-48.363-2.704c-18.369,0.78-35.038,7.354-44.094,25.178c-5.104,10.047-5.12,20.54,1.649,30.188
	c4.736,6.751,11.799,9.469,19.71,10.247c2.476,0.243,5.117-0.409,7.448,0.219c1.502,0.405,2.843,2.249,3.679,3.766
	c0.249,0.451-1.438,2.862-2.273,2.883c-12.104,0.293-24.103-0.781-34.219-8.17c-9.277-6.776-11.953-16.965-11.17-27.828
	c0.566-7.854,3.528-14.972,8.675-21.397c6.856-8.561,15.913-13.499,25.657-17.328C64.832,3.39,76.434,1.145,88.534,0.475
	c16.198-0.896,32.158,0.725,48.207,2.072c12.829,1.077,25.717,1.864,38.579,1.868c4.211,0.001,8.424-2.862,12.636-4.415
	C188.498,0.271,189.04,0.544,189.582,0.816z"/>
<path fill-rule="evenodd" clip-rule="evenodd" d="M1587.907,354.863c-0.012,7.869-11.26,13.383-23.357,12.539
	c-0.207-2.128-0.421-4.328-0.71-7.303c-1.529,0.858-2.621,1.392-3.63,2.051c-10.014,6.536-20.727,8.948-32.677,6.707
	c-13.009-2.439-14.763-13.052-12.887-21.994c2.486-11.856,9.271-21.049,19.069-28.14c0.967-0.699,1.432-2.575,1.508-3.939
	c0.361-6.473,2.98-12.049,7.176-16.695c7.784-8.619,24.097-11.862,34.953-7.477c11.234,4.539,13.939,16.298,10.93,26.348
	c-3.633,12.133-8.406,23.925-12.677,35.867c-0.328,0.919-0.789,1.856-0.823,2.799c-0.043,1.168-0.04,2.609,0.595,3.427
	c0.375,0.483,2.11,0.248,3.06-0.117C1581.418,357.789,1584.317,356.428,1587.907,354.863z M1526.204,350.719
	c-0.979,9.852,2.949,12.765,12.928,12.653c5.227-0.058,11.014-2.139,15.511-4.96c11.301-7.089,16.045-18.581,19.938-30.995
	c3.015-9.612-6.278-16.388-13.502-15.721C1541.756,313.482,1524.771,337.195,1526.204,350.719z M1579.394,312.938
	c3.224-9.056-3.655-16.882-11.881-18.179c-9.504-1.498-21.274,6.238-21.921,16.221
	C1557.239,306.38,1568.821,302.809,1579.394,312.938z"/>
<path fill-rule="evenodd" clip-rule="evenodd" d="M333.104,576.263c3.856-1.462,7.712-2.924,11.567-4.386
	c0.384,0.187,0.768,0.374,1.151,0.561c-1.058,2.091-1.582,5.166-3.276,6.085c-4.661,2.528-9.663,4.859-14.81,5.949
	c-5.99,1.269-6.388,0.381-6.684-7.335c-3.169,1.808-6.025,3.798-9.155,5.155c-9.677,4.195-19.596,6.065-29.969,2.404
	c-5.971-2.107-9.317-7.039-9.795-13.28c-1.216-15.884,7.895-26.133,18.656-35.672c1.15-1.021,2.291-2.793,2.311-4.231
	c0.188-13.857,12.99-24.849,26.194-25.746c4.539-0.309,9.358-0.131,13.703,1.073c10.437,2.893,16.516,13.707,13.371,24.187
	c-4.06,13.529-8.902,26.822-13.388,40.225c-0.402,1.2-0.651,2.451-0.972,3.68C332.374,575.374,332.739,575.818,333.104,576.263z
	 M296.237,579.661c0.155,0.426,0.31,0.853,0.464,1.278c5.098-1.851,10.642-2.959,15.205-5.7
	c11.151-6.696,16.643-17.744,20.132-29.755c1.227-4.222,1.801-8.555-1.976-12.725c-4.579-5.058-12.997-5.172-20.061-1.989
	c-14.067,6.338-22.458,17.433-25.912,32.334C281.629,573.715,286.063,581.625,296.237,579.661z M337.711,529.557
	c1.013-9.475-3.731-16.485-11.551-17.776c-10.276-1.697-21.014,4.019-23.553,16.209
	C314.479,522.771,326.142,520.428,337.711,529.557z"/>
<path fill-rule="evenodd" clip-rule="evenodd" d="M530.029,576.771c-8.952,6.609-18.514,10.286-29.12,9.77
	c-7.734-0.377-16.475-1.319-18.574-10.495c-1.347-5.886-0.645-12.717,0.89-18.673c2.389-9.272,9.779-15.39,16.618-21.655
	c1.136-1.041,2.242-2.816,2.26-4.266c0.159-13.765,13.08-24.861,26.252-25.689c4.543-0.285,9.211,0.277,13.732,1.003
	c10.979,1.76,15.944,16.22,13.309,24.329c-4.115,12.665-8.569,25.22-12.829,37.839c-0.661,1.96-1.052,4.011-2.012,7.753
	c5.257-1.905,9.223-3.343,14.91-5.404c-1.689,3.271-2.242,6.32-3.963,7.285c-4.488,2.516-9.338,4.781-14.323,5.917
	C530.996,585.894,530.365,584.855,530.029,576.771z M505.279,579.661c0.136,0.391,0.271,0.781,0.406,1.172
	c4.989-1.715,10.452-2.642,14.876-5.298c11.286-6.776,16.984-17.878,20.483-30.092c1.162-4.056,1.826-8.258-1.686-12.333
	c-4.967-5.764-13.405-5.444-20.395-2.315c-14.097,6.312-22.457,17.456-25.889,32.348
	C490.651,573.667,494.963,581.616,505.279,579.661z M546.596,529.234c1.387-8.918-3.687-16.267-11.698-17.504
	c-10.812-1.669-21.639,5.247-22.983,16.223C523.703,522.411,535.34,520.783,546.596,529.234z"/>
<path fill-rule="evenodd" clip-rule="evenodd" d="M702.804,139.744c-1.25,1.832-2.093,4.437-3.827,5.35
	c-4.839,2.551-9.936,4.755-15.149,6.403c-3.485,1.103-6.361-0.068-5.655-4.785c0.135-0.901-0.133-1.863-0.173-2.318
	c-6.237,2.534-12.159,5.626-18.457,7.323c-7.685,2.072-15.65,1.805-23.242-1.125c-6.092-2.352-9.627-12.268-7.895-20.467
	c2.491-11.788,9.944-20.025,18.686-27.529c1.153-0.99,1.95-2.96,2.043-4.527c0.546-9.157,5.282-16.294,12.438-20.852
	c9.259-5.897,19.978-7.175,30.454-3.076c10.343,4.045,13.306,15.433,10.562,25.331c-3.593,12.96-8.882,25.447-13.317,38.181
	c-0.462,1.325-0.09,2.94-0.104,4.421c1.53-0.109,3.164,0.086,4.568-0.393c2.588-0.885,5.041-2.165,7.551-3.279
	C701.791,138.849,702.297,139.296,702.804,139.744z M676.025,95.309c-2.068,0.387-4.146,0.735-6.205,1.166
	c-9.978,2.086-16.585,8.91-22.259,16.596c-5.478,7.419-8.742,15.929-7.133,25.286c0.459,2.672,3.076,6.102,5.542,7.089
	c7.41,2.966,14.92,1.327,21.534-2.73c11.628-7.133,17.652-18.233,20.794-31.18C690.817,101.156,686.643,95.659,676.025,95.309z
	 M693.948,94.784c1.771-6.092-1.285-11.735-7.371-14.862c-7.646-3.929-15.102-1.889-21.175,3.384
	c-3.016,2.617-6.927,5.899-6.065,10.487c6.363-1.463,12.202-3.968,17.962-3.798C682.885,90.16,688.39,93.073,693.948,94.784z"/>
<path fill-rule="evenodd" clip-rule="evenodd" d="M1588.729,534.203c-0.862-7.419,1.642-13.374,6.071-18.602
	c8.699-10.268,24.059-12.33,35.301-8.365c10.428,3.677,14.416,14.592,11.42,25.35c-3.783,13.586-9.15,26.73-13.814,40.072
	c-0.263,0.751-0.346,1.563-0.838,3.874c4.9-1.528,8.927-2.784,14.147-4.413c-0.477,1.635-0.504,3.436-1.4,4.516
	c-4.364,5.257-13.988,8.505-22.204,7.63c-0.121-2.358-0.246-4.782-0.389-7.552c-4.15,2.276-7.949,4.711-12.025,6.521
	c-8.499,3.773-17.526,4.725-26.384,2.057c-10.967-3.305-12.96-12.367-10.957-22.216
	C1570.216,550.489,1578.167,541.225,1588.729,534.203z M1592.302,579.984c2.411-0.365,4.91-0.44,7.219-1.143
	c16.326-4.965,23.389-18.021,27.555-32.962c3.555-12.749-4.334-20.048-17.222-16.418c-16.56,4.665-25.99,16.699-30.394,32.404
	C1576.045,574.043,1580.794,579.661,1592.302,579.984z M1598.69,526.579c5.678-0.957,11.49-1.958,17.312-2.912
	c6.601-1.083,11.983,1.556,16.771,6.752c1.045-10.501-4.204-18.143-11.988-18.754
	C1609.437,510.774,1599.073,518.104,1598.69,526.579z"/>
<path fill-rule="evenodd" clip-rule="evenodd" d="M1557.249,572.389c1.955,6.398-11.412,13.438-22.876,11.745
	c-0.119-2.351-0.24-4.756-0.312-6.173c-7.535,2.685-14.948,5.747-22.611,7.938c-7.578,2.166-14.96,0.326-21.708-3.481
	c-4.287-2.419-6.929-13.021-5.187-19.564c3.305-12.413,10.736-21.784,21.378-28.771c-2.245-8.021,4.671-19.378,11.557-23.505
	c8.971-5.376,18.517-6.192,28.44-3.841c7.477,1.771,12.991,9.945,13.307,18.7c0.379,10.554-4.904,19.487-8.036,29.026
	c-2.227,6.78-4.842,13.433-7.283,20.143c0.265,0.515,0.53,1.03,0.796,1.545C1548.794,574.926,1552.876,573.701,1557.249,572.389z
	 M1506.455,579.661c12.261,0.412,19.864-3.879,25.897-10.802c6.402-7.347,10.351-16.098,12.588-25.606
	c1.416-6.02-1.664-11.566-7.389-13.637c-5.294-1.914-10.432-1.196-15.217,1.083c-13.13,6.255-21.782,16.642-25.83,30.507
	C1493.022,573.136,1497.753,579.661,1506.455,579.661z M1515.661,527.595c11.704-4.603,23.334-7.807,34.178,2.412
	c0.942-10.141-4.301-17.743-12.077-18.342C1526.387,510.789,1515.998,518.157,1515.661,527.595z"/>
<path fill-rule="evenodd" clip-rule="evenodd" d="M1347.888,576.705c4.998-1.65,8.902-2.94,13.983-4.618
	c-0.389,1.602-0.259,3.575-1.173,4.427c-6.106,5.69-13.196,9.004-22.192,7.975c-0.195-2.571-0.387-5.084-0.628-8.252
	c-9.039,6.862-18.635,11.042-29.411,10.298c-14.363-0.992-21.408-5.192-19.999-21.381c0.482-5.545,3.109-11.408,6.289-16.085
	c3.891-5.723,9.392-10.352,14.765-16.056c-1.311-7.12,4.014-20.054,17.352-25.205c7.621-2.944,15.455-2.952,23.221-1.039
	c9.433,2.324,15.964,15.128,12.61,25.737c-4.306,13.624-9.42,26.993-14.167,40.479
	C1348.325,573.585,1348.307,574.253,1347.888,576.705z M1313.275,579.979c2.414-0.357,4.917-0.42,7.226-1.121
	c16.33-4.958,23.392-18.021,27.572-32.953c3.571-12.755-4.332-20.091-17.2-16.457c-16.548,4.673-25.99,16.692-30.416,32.394
	C1297.034,573.984,1301.802,579.661,1313.275,579.979z M1319.535,527.656c11.961-4.721,23.429-7.707,34.099,2.135
	c2.865-9.89-5.209-17.166-11.235-18.064C1331.372,510.083,1320.458,517.63,1319.535,527.656z"/>
<path fill-rule="evenodd" clip-rule="evenodd" d="M528.736,139.562c-1.161,1.842-1.896,4.497-3.564,5.37
	c-4.983,2.61-10.178,5.081-15.575,6.565c-6.844,1.882-5.02-3.993-5.507-7.133c-6.251,2.558-12.275,5.82-18.712,7.449
	c-7.668,1.939-15.688,1.74-23.255-1.249c-6.043-2.388-9.387-12.439-7.683-20.595c2.317-11.09,8.822-19.583,17.429-25.964
	c4.187-3.104,3.662-6.579,4.228-10.098c1.708-10.626,12.443-19.68,23.568-21.271c7.231-1.034,14.198-0.873,20.802,2.783
	c8.169,4.522,10.554,16.401,8.045,24.327c-4.013,12.683-8.834,25.109-13.202,37.683c-0.475,1.363-0.221,2.979-0.305,4.479
	c1.67-0.071,3.451,0.201,4.986-0.292c2.562-0.824,4.969-2.137,7.44-3.243C527.867,138.77,528.302,139.166,528.736,139.562z
	 M466.126,134.794c-0.73,7.774,2.628,10.806,8.092,11.654c10.785,1.676,20.292-2.122,27.428-10.036
	c6.555-7.271,10.943-16.044,13.157-25.786c1.497-6.589-1.519-13.626-7.325-14.682c-3.638-0.661-7.677-0.482-11.292,0.361
	c-10.239,2.391-17.317,9.201-23.073,17.674C468.991,120.046,466.062,126.457,466.126,134.794z M519.576,96.417
	c1.314-8.641-0.494-13.229-6.952-16.495c-7.675-3.881-14.805-1.574-21.322,3.209c-3.972,2.916-6.171,7.919-5.236,11.489
	C497.421,89.037,508.734,86.257,519.576,96.417z"/>
<path fill-rule="evenodd" clip-rule="evenodd" d="M874.116,143.207c-3.363,1.861-6.081,3.296-8.732,4.845
	c-9.505,5.554-19.635,5.521-30.064,3.649c-6.831-1.226-10.599-7.057-11.104-13.68c-1.19-15.598,7.877-25.801,18.496-35.238
	c1.156-1.027,2.325-2.739,2.392-4.185c0.656-14.133,11.234-24.199,24.295-25.753c5.632-0.671,11.806-0.427,17.187,1.204
	c11.124,3.371,14.684,15.977,11.87,24.831c-3.936,12.385-8.565,24.549-12.724,36.866c-0.659,1.951-0.398,4.212-0.562,6.329
	c2.124-0.388,4.235-0.872,6.374-1.138c2.133-0.265,4.229-4.183,6.088-0.739c0.488,0.905-2.21,4.423-4.141,5.552
	c-3.866,2.261-8.107,4.032-12.388,5.4C875.151,153.054,872.491,150.295,874.116,143.207z M849.084,147.335
	c3.721-1.064,7.61-1.739,11.131-3.266c11.69-5.07,18.005-14.927,21.918-26.415c1.52-4.463,3.134-9.704,2.174-14.029
	c-1.885-8.486-10.275-9.863-19.175-7.16c-15.543,4.723-24.595,16.724-28.658,31.692C832.753,141.862,839.456,147.63,849.084,147.335
	z M854.933,93.897c5.741-1.384,11.684-4.017,17.568-3.896c5.867,0.121,11.678,3.003,17.437,4.652
	c0.871-8.932-4.532-15.503-14.422-16.897C867.404,76.612,857.026,84.918,854.933,93.897z"/>
<path fill-rule="evenodd" clip-rule="evenodd" d="M170.516,356.44c-0.646,1.436-0.903,3.57-2.006,4.185
	c-4.651,2.59-9.344,5.701-14.416,6.803c-7.816,1.697-8.636,0.502-8.958-7.663c-8.387,6.806-17.728,9.961-28.378,9.975
	c-20.317,0.024-23.69-13.653-18.875-28.086c3.393-10.168,10.042-18.274,19.508-23.734c-1.478-11.894,6.733-25.65,22.791-28.08
	c5.937-0.897,12.571-0.909,18.22,0.835c10.14,3.131,15.47,14.627,12.161,25.036c-4.033,12.685-8.887,25.106-13.233,37.695
	c-0.576,1.667-0.254,3.646-0.348,5.479c1.783-0.269,3.624-0.34,5.334-0.851c2.509-0.75,4.925-1.814,7.38-2.745
	C169.969,355.673,170.242,356.057,170.516,356.44z M122.354,363.68c2.461-0.722,7.505-1.345,11.678-3.587
	c11.961-6.429,18.202-17.542,21.894-30.05c3.663-12.413-1.816-16.657-9.62-17.93c-4.725-0.771-10.7,0.73-14.913,3.232
	c-12.543,7.449-21.177,18.097-23.68,33.14C106.246,357.302,110.931,363.588,122.354,363.68z M161.673,313.546
	c1.543-7.275-0.359-12.343-5.394-15.785c-6.612-4.522-13.786-4.063-20.235,0.106c-4.342,2.808-8.445,6.519-8.656,13.33
	C139.509,305.909,150.995,303.197,161.673,313.546z"/>
<path fill-rule="evenodd" clip-rule="evenodd" d="M1033.636,574.834c5.229,2.66,8.544-2.198,13.05-3.056
	c1.195,2.99,0.633,5.372-2.383,6.84c-4.069,1.98-8.087,4.176-12.349,5.627c-6.223,2.118-8.293,0.49-9.227-6.988
	c-1.995,1.061-3.828,1.903-5.528,2.96c-10.591,6.586-21.825,8.281-33.74,4.394c-6.522-2.129-11.158-10.374-10.209-17.111
	c1.914-13.581,8.83-23.92,19.781-31.879c1.088-0.791,2.094-2.565,2.076-3.869c-0.205-15.109,12.422-24.648,25.594-25.976
	c6.331-0.638,12.69-0.472,18.741,2.812c5.757,3.124,7.971,8.024,8.707,13.888c0.987,7.858-1.022,15.241-3.955,22.518
	c-3.522,8.739-6.648,17.639-9.898,26.487C1033.93,572.479,1033.872,573.591,1033.636,574.834z M998.81,580.841
	c4.98-1.746,10.475-2.67,14.84-5.4c10.617-6.64,16.514-16.935,19.63-28.907c1.264-4.854,2.261-9.724-1.63-13.902
	c-4.198-4.509-9.839-5.192-15.109-3.541c-17.264,5.407-27.367,17.83-31.172,35.112C983,574.96,987.467,579.661,998.81,580.841z
	 M1038.085,530.38c4.134-5.981,0.737-10.097-2.013-13.809c-3.982-5.375-10.242-5.998-16.015-4.61
	c-7.891,1.896-13.672,6.816-15.735,15.158c5.907-1.192,11.484-2.596,17.147-3.386C1027.795,522.85,1033.643,524.081,1038.085,530.38
	z"/>
<path fill-rule="evenodd" clip-rule="evenodd" d="M1082.631,356.402c-0.788,1.559-1.174,3.857-2.437,4.544
	c-4.64,2.526-9.381,5.419-14.439,6.489c-6.853,1.45-7.018,0.763-7.975-7.379c-8.709,7.026-18.544,9.938-29.612,9.682
	c-14.944-0.347-22.702-10.646-18.512-25.056c2.945-10.126,8.653-18.16,17.161-24.406c1.619-1.189,3.154-3.642,3.244-5.579
	c0.569-12.369,9.427-21.846,20.997-24.841c8.416-2.179,16.935-2.111,24.615,2.838c7.47,4.813,10.325,15.751,6.767,26.302
	c-3.947,11.704-8.254,23.285-12.253,34.973c-0.513,1.499-0.113,3.312-0.137,4.979c1.646-0.215,3.378-0.178,4.916-0.706
	c2.119-0.728,4.092-1.882,6.127-2.854C1081.606,355.726,1082.119,356.063,1082.631,356.402z M1020.149,350.113
	c0.603,7.273,1.385,11.558,9.086,13.054c6.712,1.304,12.939-0.69,18.717-3.812c12.335-6.668,17.725-18.479,21.05-31.082
	c3.077-11.667-4.766-18.14-16.873-15.812c-9.702,1.865-15.997,8.154-21.942,14.91
	C1024.391,333.957,1020.875,341.846,1020.149,350.113z M1073.077,313.192c2.85-4.086,2.739-6.452,0.014-10.852
	c-3.325-5.367-10.533-9.02-16.483-7.559c-8.333,2.046-14.45,6.908-17.146,15.574c5.909-1.272,11.49-2.835,17.178-3.601
	C1062.924,305.909,1068.757,307.329,1073.077,313.192z"/>
<path fill-rule="evenodd" clip-rule="evenodd" d="M1609.267,143.347c3.76-1.613,7.519-3.226,11.278-4.839
	c0.457,0.379,0.913,0.758,1.37,1.136c-1.225,1.836-2.056,4.283-3.757,5.378c-3.518,2.265-7.331,4.397-11.322,5.527
	c-8.317,2.354-9.005,1.666-9.931-5.881c-6.09,2.431-12.152,6.111-18.622,7.089c-6.924,1.046-14.358,0.233-21.335-1.048
	c-6.31-1.159-8.359-6.644-8.764-12.703c-0.968-14.501,5.691-25.175,16.752-33.637c2.836-2.169,4.516-4.373,4.422-8.433
	c-0.204-8.861,9.224-19.593,18.892-22.195c7.496-2.018,15.026-2.496,22.55,0.158c9.748,3.438,15.055,16.235,10.704,28.101
	c-3.976,10.845-7.888,21.715-11.731,32.607c-0.84,2.383-1.271,4.909-1.89,7.37C1608.344,142.434,1608.805,142.89,1609.267,143.347z
	 M1595.312,95.31c-2.234,0.405-4.588,0.491-6.684,1.269c-16.285,6.035-25.502,18.269-29.301,34.729
	c-1.611,6.986,2.107,14.089,7.549,15.051c3.657,0.646,7.688,0.5,11.327-0.307c14.015-3.11,21.633-13.324,26.892-25.66
	c1.764-4.14,2.781-8.639,3.771-13.057C1610.344,100.743,1604.353,95.662,1595.312,95.31z M1613.902,94.739
	c1.001-8.597-4.573-15.444-14.349-16.943c-8.557-1.312-19.264,7.186-20.762,16.003c5.71-1.348,11.645-3.928,17.521-3.801
	C1602.108,90.124,1607.845,92.99,1613.902,94.739z"/>
<path fill-rule="evenodd" clip-rule="evenodd" d="M1556.583,789.112c-1.711,8.068-8.677,8.578-13.856,11.491
	c-0.526,0.296-1.328,0.048-1.962,0.211c-7.473,1.921-9.167,0.529-8.258-7.31c-1.436,0.818-2.705,1.434-3.859,2.218
	c-10.888,7.399-22.849,8.562-35.35,5.836c-5.769-1.259-9.669-6.891-10.128-12.983c-1.148-15.228,6.86-25.671,17.628-34.861
	c1.528-1.305,3.136-3.445,3.271-5.304c1.049-14.415,10.013-22.764,23.437-24.559c5.967-0.798,12.332-0.286,18.283,0.852
	c10.87,2.078,14.286,15.94,11.634,24.23c-3.962,12.384-8.506,24.581-12.795,36.86c-0.322,0.923-0.825,1.874-0.808,2.804
	c0.026,1.304,0.053,3.048,0.841,3.768c0.725,0.661,2.582,0.574,3.725,0.186C1551.185,791.599,1553.859,790.282,1556.583,789.112z
	 M1507.652,798.32c3.544-1.071,7.294-1.712,10.597-3.289c13.931-6.65,21.105-18.752,24.804-32.987
	c2.346-9.026-0.745-14.928-7.744-16.166c-6.233-1.103-12.475-0.327-18.031,3.237c-11.821,7.582-19.752,17.881-22.251,31.958
	C1493.213,791.29,1499.007,798.228,1507.652,798.32z M1513.412,744.958c12.171-3.763,23.784-8.331,34.607,1.472
	c2.617-6.558-1.446-15.403-8.112-17.435C1529.36,725.782,1516.87,731.332,1513.412,744.958z"/>
<path fill-rule="evenodd" clip-rule="evenodd" d="M1461.509,794.09c5.247-2.16,8.616-3.547,11.986-4.935
	c0.385,0.55,0.771,1.101,1.156,1.65c-1.809,1.782-3.343,4.067-5.486,5.235c-3.68,2.007-7.646,3.624-11.66,4.852
	c-6.861,2.097-8.928,0.198-7.958-6.697c-5.977,2.551-11.79,5.778-18.021,7.497c-7.471,2.062-15.244,1.801-22.739-0.874
	c-5.879-2.098-8.105-6.708-8.57-12.47c-1.236-15.324,7.048-25.692,17.988-34.776c1.424-1.183,2.76-3.313,2.881-5.09
	c0.992-14.522,9.993-22.735,23.318-24.642c5.826-0.834,12.129-0.702,17.852,0.597c11.673,2.649,14.837,15.501,12.19,24.362
	c-3.9,13.062-8.888,25.795-13.182,38.744C1460.666,789.349,1461.379,791.588,1461.509,794.09z M1424.645,798.328
	c3.544-1.071,7.294-1.713,10.597-3.29c13.927-6.653,21.109-18.748,24.812-32.984c2.348-9.028-0.731-14.96-7.735-16.166
	c-6.391-1.1-12.674-0.221-18.418,3.525c-11.807,7.701-19.604,18.135-22.035,32.103
	C1410.372,790.09,1414.876,798.114,1424.645,798.328z M1430.525,744.864c11.816-3.467,23.504-8.341,34.663,1.782
	c2.227-4.657,0.829-8.561-1.683-12.083c-4.429-6.211-10.781-7.738-17.761-5.796C1437.86,730.962,1432.563,736.095,1430.525,744.864z
	"/>
<path fill-rule="evenodd" clip-rule="evenodd" d="M1266.924,793.493c3.902-1.596,7.268-2.971,11.855-4.847
	c-2.91,8.451-9.833,8.998-14.933,11.947c-0.658,0.381-1.608,0.222-2.393,0.429c-6.775,1.791-8.88-0.045-7.955-6.838
	c-5.811,2.51-11.479,6.31-17.589,7.25c-7.408,1.142-15.323,0.66-22.765-0.608c-6.079-1.036-8.454-6.542-8.951-12.566
	c-1.25-15.174,7.137-25.349,17.628-34.555c1.514-1.327,3.11-3.454,3.248-5.315c1.06-14.373,9.97-22.754,23.425-24.529
	c6.117-0.807,12.729-0.433,18.731,1.01c11.108,2.671,13.702,15.781,11.418,23.587c-3.872,13.23-8.792,26.165-13.588,39.107
	C1263.938,790.585,1264.479,792.192,1266.924,793.493z M1229.044,798.182c3.259-0.927,6.717-1.43,9.74-2.855
	c11.961-5.641,19.38-15.396,23.366-27.717c1.451-4.487,3.084-9.687,2.138-14.015c-1.846-8.447-10.386-9.966-19.15-7.101
	c-16.015,5.236-25.33,17.326-28.857,33.572C1213.889,791.081,1218.989,797.7,1229.044,798.182z M1269.369,746.805
	c1.785-5.176,0.47-9.101-2.324-12.8c-4.719-6.245-11.165-6.821-18.029-5.178c-7.149,1.713-12.604,8.045-14.114,15.953
	C1246.38,741.341,1257.876,736.656,1269.369,746.805z"/>
<path fill-rule="evenodd" clip-rule="evenodd" d="M713.459,794.124c5.249-2.175,8.615-3.57,12.596-5.221
	c-0.514,6.635-5.611,7.386-9.021,9.613c-1.95,1.273-4.555,1.598-6.903,2.197c-7.53,1.925-9.382,0.408-8.469-6.57
	c-5.964,2.547-11.845,5.814-18.147,7.555c-7.462,2.061-15.22,1.752-22.729-0.865c-6.017-2.098-8.018-7.011-8.516-12.572
	c-1.37-15.304,7.025-25.654,17.985-34.703c1.421-1.174,2.724-3.341,2.831-5.123c0.837-13.819,10.395-22.998,23.345-24.61
	c5.852-0.729,12.258-0.937,17.809,0.686c10.516,3.073,15.615,13.621,12.271,24.287c-4.078,13.004-8.944,25.758-13.242,38.696
	C712.664,789.312,713.349,791.561,713.459,794.124z M677.018,798.178c3.26-0.922,6.698-1.451,9.748-2.835
	c12.125-5.5,19.282-15.477,23.374-27.704c1.496-4.47,3.112-9.688,2.167-14.018c-1.838-8.421-10.325-10.022-19.144-7.142
	c-16.007,5.229-25.352,17.312-28.879,33.561C661.883,791.104,666.957,797.695,677.018,798.178z M717.222,746.599
	c2.25-5.302,0.404-9.244-2.563-13.007c-4.733-6.002-11.086-6.328-17.703-4.732c-7.222,1.742-12.757,8.261-13.934,15.637
	C706.871,739.596,708.768,739.691,717.222,746.599z"/>
<path fill-rule="evenodd" clip-rule="evenodd" d="M416.959,793.517c3.551-1.475,7.05-2.928,11.721-4.869
	c-2.669,8.534-9.496,9.177-14.682,11.935c-0.97,0.516-2.182,0.578-3.283,0.844c-5.677,1.365-8.218-1.334-6.551-8.148
	c-3.41,1.868-6.292,3.403-9.133,5.011c-9.723,5.503-20.096,5.365-30.575,3.272c-5.551-1.108-9.907-7.468-10.291-13.395
	c-0.977-15.102,7.152-25.367,17.744-34.493c1.431-1.232,3.06-3.169,3.16-4.864c0.828-13.959,9.634-22.348,22.473-25.069
	c6.624-1.404,13.384-1.527,19.75,1.011c9.405,3.75,14.523,13.955,11.438,23.735c-4.146,13.148-8.879,26.119-13.669,39.053
	C413.952,790.533,414.433,792.177,416.959,793.517z M400.941,745.297c-2.062,0.401-4.205,0.569-6.176,1.24
	c-15.281,5.197-23.577,16.946-28.378,31.458c-1.662,5.023-1.561,10.576,1.974,15.313c4.179,5.599,12.372,5.578,19.888,2.281
	c14.581-6.396,21.738-18.906,25.834-33.377C417.154,751.359,412.335,745.658,400.941,745.297z M384.433,744.944
	c12.16-3.731,23.771-8.327,34.592,1.494c2.602-6.598-1.469-15.424-8.129-17.448C400.311,725.772,387.809,731.405,384.433,744.944z"
	/>
<path fill-rule="evenodd" clip-rule="evenodd" d="M185.327,790.589c-1.355,4.686-5.465,6.391-9.492,8.125
	c-1.777,0.766-3.607,1.559-5.492,1.898c-7.558,1.36-8.963,3.699-9.457-6.139c-6.081,2.487-12.106,5.846-18.562,7.324
	c-5.669,1.299-12.075,1.634-17.706,0.378c-12.034-2.684-16.018-11.554-11.958-25.334c2.91-9.875,8.769-17.976,17.572-23.518
	c2.344-1.476,3.333-2.921,2.975-5.502c-1.554-11.188,10.222-23.448,23.55-24.06c5.912-0.271,12.044-0.2,17.771,1.081
	c7.62,1.704,11.212,7.767,11.766,15.532c0.583,8.182-2.15,15.448-4.933,22.812c-3.103,8.212-6.181,16.437-9.044,24.734
	c-0.471,1.366,0.218,3.134,0.37,4.716c1.578-0.208,3.22-0.204,4.717-0.67c2.394-0.746,4.69-1.803,7.028-2.729
	C184.729,789.689,185.028,790.139,185.327,790.589z M159.35,745.388c-2.1,0.298-4.321,0.252-6.28,0.947
	c-16.08,5.712-25.798,17.417-29.682,33.637c-2.772,11.578,3.388,18.73,14.357,17.616c9.011-0.915,16.956-5.061,21.961-12.399
	c4.776-7.003,8.373-14.979,11.451-22.929C174.943,752.479,169.73,745.663,159.35,745.388z M141.798,744.439
	c6.532-1.386,12.173-3.541,17.802-3.511c5.747,0.03,11.482,2.207,17.784,3.565c2.506-3.673-0.543-7.68-2.995-10.855
	c-4.554-5.897-11.457-6.97-18.109-4.763C149.185,731.229,144.337,736.522,141.798,744.439z"/>
<path fill-rule="evenodd" clip-rule="evenodd" d="M601.025,359.347c3.9-1.299,7.802-2.598,12.757-4.247
	c-0.235,1.415,0.02,3.242-0.772,4.092c-5.583,5.986-12.896,8.123-20.796,8.293c-0.978,0.021-2.663-2.131-2.861-3.449
	c-0.349-2.312,0.201-4.758,0.315-6.334c-7.475,3.302-15.157,7.094-23.147,10.054c-3.882,1.438-8.325,1.528-12.543,1.842
	c-3.791,0.282-6.221-1.934-5.661-5.662c0.911-6.076,1.953-12.246,3.958-18.023c4.799-13.832,10.242-27.439,15.238-41.206
	c0.383-1.055-0.698-2.64-1.098-3.977c-3.607,1.615-6.52,2.92-9.585,4.293c-1.792-4.628,1.476-6.612,3.862-7.982
	c5.334-3.062,11.034-5.522,16.71-7.937c3.383-1.438,5.514,0.245,4.693,3.736c-1.256,5.347-3.019,10.601-4.92,15.764
	c-5.565,15.111-11.501,30.088-16.869,45.266c-1.872,5.291,0.271,7.727,5.627,6.692c12.511-2.416,23.563-7.757,29.147-19.959
	c5.548-12.123,10.11-24.697,15.074-37.086c0.847-2.112,1.48-4.309,2.311-6.428c2.206-5.625,3.572-6.635,12.261-8.593
	c-0.934,3.37-1.509,6.233-2.51,8.938c-7.002,18.926-14.097,37.816-21.144,56.726c-0.443,1.188-0.74,2.433-1.104,3.65
	C600.32,358.322,600.673,358.834,601.025,359.347z"/>
<path fill-rule="evenodd" clip-rule="evenodd" d="M1315.278,72.051c-0.357,2.327-0.341,4.38-1.001,6.185
	c-7.156,19.542-14.441,39.037-21.611,58.574c-0.566,1.544-0.541,3.304-0.791,4.964c1.824-0.06,3.761,0.249,5.445-0.266
	c2.441-0.744,4.701-2.084,7.039-3.17c0.413,0.34,0.827,0.679,1.241,1.018c-0.963,1.764-1.512,4.511-2.96,5.119
	c-5.769,2.424-11.728,4.543-17.794,6.061c-4.122,1.031-5.027-1.919-4.38-5.443c0.29-1.575,0.619-3.144,0.765-3.876
	c-8.615,3.639-17.236,7.678-26.166,10.847c-3.421,1.214-7.565,0.719-11.348,0.48c-3.028-0.191-5.495-5.411-4.301-9.255
	c2.795-8.993,5.742-17.944,8.867-26.828c3.182-9.047,6.694-17.977,9.94-27.001c0.435-1.208,0.158-2.672,0.21-4.018
	c-1.501,0.093-3.067-0.052-4.488,0.335c-2.082,0.566-4.061,1.514-6.084,2.298c-0.401-0.512-0.803-1.024-1.204-1.536
	c1.688-1.959,3.013-4.571,5.134-5.75c5.496-3.056,11.21-5.836,17.096-8.036c4.221-1.579,6.211,0.583,4.772,4.848
	c-2.544,7.537-5.358,14.987-8.216,22.413c-4.324,11.234-8.956,22.354-13.06,33.667c-0.987,2.723-0.412,6.013-0.556,9.041
	c3.184,0.103,6.539,0.915,9.521,0.19c15.656-3.804,24.817-14.28,29.899-29.247c3.97-11.691,8.724-23.12,13.26-34.614
	C1306.206,74.754,1309.67,72.639,1315.278,72.051z"/>
<path fill-rule="evenodd" clip-rule="evenodd" d="M201.947,139.374c-11.298,7.807-22.035,13.753-35.176,13.312
	c-5.455-0.183-7.263-1.221-6.373-6.74c1.205-7.47,3.381-14.855,5.849-22.033c4.017-11.682,8.644-23.151,12.899-34.753
	c0.427-1.163,0.068-2.615,0.074-3.934c-1.509,0.151-3.09,0.071-4.51,0.511c-1.924,0.595-3.724,1.587-5.577,2.408
	c-0.438-0.399-0.875-0.8-1.312-1.199c0.857-1.655,1.29-4.105,2.644-4.829c6.41-3.426,13.037-6.454,19.659-9.467
	c2.889-1.313,4.75,0.101,3.979,3.036c-1.681,6.403-3.688,12.741-5.944,18.968c-5.257,14.512-10.814,28.914-16.077,43.424
	c-1.237,3.411,0.132,5.469,4.113,5.616c10.869,0.402,27.968-10.609,31.885-20.723c5.753-14.856,11.185-29.849,17.454-44.482
	c1.338-3.124,5.677-4.962,8.633-7.393c0.731,0.428,1.462,0.856,2.192,1.284c-0.858,3.388-1.405,6.894-2.627,10.146
	c-6.924,18.413-14.041,36.754-20.972,55.164c-0.449,1.193-0.384,3.162,0.336,4.021c0.536,0.639,2.639,0.398,3.831-0.035
	c2.795-1.017,5.462-2.385,9.433-3.033c-0.604,1.722-0.736,4.45-1.894,4.995c-5.656,2.661-11.42,5.537-17.467,6.788
	c-5.528,1.145-6.611-0.776-5.765-6.526C201.417,142.666,201.622,141.437,201.947,139.374z"/>
<path fill-rule="evenodd" clip-rule="evenodd" d="M1202.654,71.671c-0.933,3.467-1.405,6.036-2.306,8.446
	c-7.004,18.736-14.145,37.423-21.064,56.19c-0.633,1.717-0.023,3.892,0.008,5.854c1.789-0.444,3.637-0.731,5.351-1.374
	c2.117-0.794,4.124-1.884,7.48-2.364c-0.64,1.741-0.761,4.216-2.008,5.098c-5.639,3.988-13.367,8.82-22.485,6.765
	c0-3.432,0-6.91,0-9.57c-7.098,3.278-14.373,7.242-22.084,9.974c-4.647,1.646-9.961,1.568-14.999,1.901
	c-3.595,0.237-4.617-2.844-4.21-5.38c1.104-6.877,2.174-13.882,4.441-20.426c4.732-13.655,10.228-27.046,15.441-40.631
	c-4.872-4.419-8.392,3.518-13.003,0.939c2.239-7.165,9.301-8.676,14.577-12.118c2.216-1.446,5.252-1.581,7.836-2.529
	c3.788-1.39,5.299,0.669,4.449,3.703c-1.919,6.854-4.384,13.567-6.851,20.254c-5.062,13.723-10.376,27.354-15.357,41.104
	c-1.562,4.312-0.004,6.18,4.681,6.122c10.709-0.132,26.873-8.555,32.62-23.857c5.032-13.396,10.4-26.666,15.426-40.064
	C1192.458,74.747,1196.399,73.122,1202.654,71.671z"/>
<path fill-rule="evenodd" clip-rule="evenodd" d="M937.813,305.03c-0.788-6.844,15.438-16.85,25.146-15.983c0,3.072,0,6.173,0,8.38
	c6.419-2.603,13.05-5.838,20.016-7.986c10.822-3.338,19.786,3.384,21.293,14.65c2.425,18.138-4.116,33.228-15.005,47.021
	c-9.362,11.86-21.565,17.947-36.692,18.595c-16.318,0.697-20.456-11.784-17.743-23.659c3.059-13.391,8.49-26.235,12.772-39.356
	c0.484-1.485,0.206-3.22,0.281-4.838c-1.578,0.272-3.21,0.376-4.719,0.862C941.378,303.29,939.7,304.196,937.813,305.03z
	 M956.271,364.555c4.513-1.668,9.519-2.579,13.449-5.14c14.188-9.242,20.778-23.423,23.315-39.56
	c0.748-4.763,0.326-10.084-1.029-14.719c-2.384-8.148-9.969-10.91-17.474-7.175c-8.8,4.38-15.931,10.732-19.763,19.804
	c-4.652,11.014-11.309,21.474-10.611,34.231C944.545,359.056,948.901,363.599,956.271,364.555z"/>
<path fill-rule="evenodd" clip-rule="evenodd" d="M1133.958,505.147c-1.24,4.509-1.91,7.977-3.138,11.234
	c-6.94,18.416-14.03,36.775-20.995,55.182c-0.35,0.924-0.423,2.637,0.106,3.054c0.89,0.698,2.56,1.18,3.56,0.816
	c2.999-1.092,5.833-2.637,8.834-4.054c2.231,3.582-0.206,5.69-2.281,6.696c-5.242,2.541-10.701,4.773-16.283,6.423
	c-3.443,1.017-5.805-0.967-5.525-4.913c0.134-1.886,0.575-3.749,1.019-6.494c-3.715,2.232-6.554,4.519-9.792,5.768
	c-7.398,2.854-14.881,5.632-22.541,7.626c-7.046,1.835-11.767-3.967-9.275-11.544c4.563-13.885,9.678-27.588,14.581-41.36
	c1.363-3.829,2.91-7.598,4.122-11.473c0.369-1.178-0.102-2.617-0.188-3.937c-1.373,0.177-2.802,0.169-4.105,0.571
	c-2.139,0.659-4.195,1.585-6.997,2.674c1.895-7.913,16.538-16.153,26.828-15.419c-0.921,4.339-1.292,8.726-2.789,12.686
	c-6.099,16.131-12.633,32.098-18.772,48.213c-1.069,2.806-1.014,6.039-1.502,9.239c7.751,2.736,13.751-0.796,19.846-3.486
	c13.779-6.081,17.759-19.181,22.574-31.698c3.795-9.866,7.699-19.692,11.652-29.497
	C1124.674,507.045,1128.61,506.262,1133.958,505.147z"/>
<path fill-rule="evenodd" clip-rule="evenodd" d="M1221.722,300.524c-3.9,1.819-6.68,3.116-9.605,4.481
	c-2.261-3.577,0.146-5.566,2.186-6.741c5.469-3.15,11.089-6.13,16.908-8.556c5.247-2.188,6.031-1.377,5.982,4.284
	c-0.013,1.473-0.166,2.943-0.197,3.447c6.406-2.613,13.064-5.873,20.059-8.055c10.342-3.227,19.424,3.022,21.127,13.813
	c2.851,18.062-3.752,33.227-14.263,47.288c-7.836,10.483-18.403,16.451-31.024,18.72c-4.12,0.741-8.704,0.726-12.746-0.277
	c-9.218-2.287-14.552-12.815-11.484-23.016c3.973-13.209,8.733-26.18,12.982-39.31
	C1222.197,304.901,1221.722,302.865,1221.722,300.524z M1218.04,349.091c-0.768,10.023,5.481,15.761,13.539,14.442
	c4.223-0.691,8.733-1.915,12.254-4.215c14.194-9.269,20.709-23.464,23.211-39.609c0.714-4.605,0.289-9.732-0.991-14.229
	c-2.415-8.487-9.867-11.317-17.651-7.452c-8.818,4.38-15.788,10.837-19.727,19.856
	C1224.273,327.963,1218.822,337.771,1218.04,349.091z"/>
<path fill-rule="evenodd" clip-rule="evenodd" d="M751.424,86.147c2.744-2.478,5.172-5.508,8.308-7.3
	c4.463-2.551,9.341-4.51,14.238-6.127c4.291-1.417,5.788,0.446,4.729,4.991c-0.277,1.188-0.317,2.433-0.425,3.314
	c5.745-2.66,11.083-5.771,16.824-7.649c10.56-3.457,19.29-0.575,21.94,6.751c2.214,6.121,3.466,13.212,2.785,19.623
	c-1.265,11.918-6.123,22.809-13.489,32.508c-11.188,14.729-25.712,21.996-44.312,20.35c-6.247-0.553-10.73-5.585-11.866-11.904
	c-1.685-9.375,0.819-18.01,3.95-26.612c3.058-8.4,6.122-16.8,9.083-25.234c0.37-1.055,0.127-2.323,0.168-3.493
	c-1.348,0.092-2.758-0.037-4.029,0.322c-2.229,0.631-4.375,1.56-6.556,2.363C752.322,87.415,751.873,86.781,751.424,86.147z
	 M772.151,147.635c4.036-1.491,8.342-2.497,12.062-4.562c13.106-7.273,18.831-19.901,22.927-33.399
	c2.605-8.589,3.438-17.288-2.03-25.321c-2.172-3.189-5.044-5.177-9.159-4.695c-8.346,0.978-14.427,5.96-19.637,11.866
	c-9.177,10.405-12.861,23.607-16.599,36.473C756.713,138.33,762.01,148.137,772.151,147.635z"/>
<path fill-rule="evenodd" clip-rule="evenodd" d="M1080.969,722.376c-1.344,4.431-2.257,8.132-3.579,11.681
	c-6.646,17.837-13.439,35.62-20.042,53.473c-0.521,1.409,0.019,3.211,0.065,4.83c1.613-0.08,3.351,0.193,4.812-0.319
	c2.443-0.856,4.711-2.214,7.052-3.361c0.433,0.245,0.866,0.49,1.3,0.735c-1.02,1.806-1.619,4.598-3.132,5.24
	c-5.619,2.385-11.429,4.585-17.382,5.827c-4.129,0.861-5.463-1.43-4.486-5.646c0.327-1.411,0.529-2.852,0.797-4.323
	c-6.397,3.18-12.31,6.925-18.753,9.081c-5.769,1.931-12.097,2.444-18.23,2.936c-3.592,0.287-6.138-4.313-4.834-8.519
	c3.27-10.543,6.697-21.04,10.272-31.482c2.687-7.847,5.763-15.56,8.505-23.389c0.405-1.155-0.076-2.621-0.147-3.942
	c-1.207,0.13-2.473,0.075-3.61,0.429c-2.247,0.699-4.424,1.624-6.63,2.456c-0.404-0.49-0.809-0.98-1.213-1.471
	c1.655-1.922,2.946-4.538,5.035-5.633c5.725-3,11.693-5.601,17.745-7.886c3.755-1.418,5.622,0.479,4.278,4.28
	c-3.685,10.42-7.647,20.741-11.555,31.08c-3.394,8.979-7.064,17.862-10.156,26.942c-0.793,2.327-0.856,6.426,0.526,7.583
	c1.717,1.438,5.451,1.356,8.025,0.733c16.087-3.892,25.315-14.815,30.595-30.014c4.056-11.674,8.822-23.1,13.236-34.649
	C1071.279,724.297,1075.455,723.57,1080.969,722.376z"/>
<path fill-rule="evenodd" clip-rule="evenodd" d="M271.784,723.392c-2.18,6.025-4.287,12.077-6.553,18.069
	c-5.87,15.522-11.863,31-17.619,46.563c-0.448,1.21,0.159,3.303,1.039,4.336c0.578,0.678,2.721,0.623,3.825,0.134
	c2.627-1.165,5.053-2.783,7.56-4.218c0.453,0.285,0.905,0.57,1.357,0.854c-0.599,1.545-0.79,4.002-1.865,4.482
	c-5.855,2.618-11.771,5.464-17.975,6.822c-5.004,1.097-5.932-0.626-5.331-5.99c0.157-1.399,0.383-2.791,0.738-5.337
	c-8.709,6.819-17.256,11.078-26.779,12.981c-3.684,0.735-7.687,0.948-11.335,0.272c-1.497-0.277-3.73-3.78-3.42-5.39
	c1.499-7.775,3.301-15.558,5.836-23.053c3.959-11.706,8.632-23.17,12.888-34.778c0.426-1.16,0.057-2.613,0.058-3.93
	c-1.51,0.161-3.089,0.1-4.513,0.54c-1.922,0.593-3.726,1.572-5.58,2.386c-0.453-0.442-0.906-0.885-1.358-1.328
	c1.039-1.691,1.678-4.173,3.187-4.938c6.208-3.146,12.688-5.752,19.052-8.594c3.322-1.483,4.817,0.312,4.09,3.093
	c-1.595,6.092-3.68,12.073-5.853,17.993c-5.265,14.348-10.774,28.604-16.016,42.96c-1.961,5.369,2.292,8.545,7.268,7.165
	c14.697-4.075,25.552-12.343,30.827-27.372c4.631-13.195,9.75-26.254,15.466-39.009c1.285-2.867,5.948-4.22,9.056-6.27
	C270.482,722.356,271.133,722.874,271.784,723.392z"/>
<path fill-rule="evenodd" clip-rule="evenodd" d="M967.932,722.235c-1.864,5.624-3.239,10.361-4.992,14.953
	c-6.15,16.115-12.491,32.158-18.6,48.288c-0.982,2.595-2.752,5.747,1.341,7.823c3.467-1.61,7.084-3.29,10.899-5.062
	c0.296,7.238-11.162,12.886-23.956,12.244c0-3.459,0-6.94,0-10.467c-4.424,2.5-8.932,5.238-13.611,7.645
	c-6.632,3.412-13.63,5.399-21.23,5.046c-5.479-0.255-7.357-1.239-6.372-6.747c1.505-8.411,4.006-16.702,6.752-24.818
	c3.997-11.812,8.588-23.422,12.231-36.626c-3.887,1.106-7.772,2.213-12.328,3.51c1.872-7.574,8.478-8.557,13.081-11.64
	c2.33-1.561,5.441-2.021,8.254-2.778c5.325-1.431,7.214,0.34,5.489,5.563c-1.936,5.86-4.456,11.523-6.637,17.305
	c-5.106,13.537-10.301,27.043-15.165,40.668c-1.805,5.055,1.407,8.661,6.597,7.42c14.148-3.383,24.969-11.074,30.478-25.059
	c5.247-13.32,10.516-26.633,15.611-40.011C957.75,724.301,962.262,723.826,967.932,722.235z"/>
<path fill-rule="evenodd" clip-rule="evenodd" d="M1488.155,84.472c-3.507,1.151-7.015,2.304-10.521,3.455
	c-0.395-0.554-0.789-1.107-1.184-1.661c1.938-2.048,3.525-4.755,5.885-6.01c5.555-2.954,11.452-5.276,17.261-7.735
	c4.226-1.79,4.943,0.907,4.528,4.089c-0.327,2.505-1.305,4.925-1.889,7.006c8.222-3.409,16.367-6.912,24.623-10.135
	c2.526-0.985,5.343-1.608,8.045-1.676c4.57-0.113,8.389,5.786,6.781,10.742c-3.505,10.807-7.193,21.561-11.112,32.224
	c-3.248,8.837-6.934,17.515-10.474,26.384c5.582,4.613,8.772-3.069,13.613-2.342c1.191,3.037,0.643,5.31-2.708,6.581
	c-5.424,2.059-10.74,4.454-16.271,6.161c-3.295,1.018-5.342-1.046-4.45-4.42c1.694-6.413,3.684-12.763,5.851-19.035
	c4.46-12.905,9.215-25.709,13.647-38.623c1.833-5.342-0.267-8.185-5.843-7.746c-9.896,0.779-26.658,10.573-31.851,25.358
	c-4.576,13.029-10.163,25.703-15.347,38.517c-1.865,4.61-5.887,5.406-11.417,6.563c4.287-12.088,8.073-22.913,11.967-33.7
	c3.902-10.814,7.911-21.59,11.873-32.383C1488.828,85.548,1488.491,85.01,1488.155,84.472z"/>
<path fill-rule="evenodd" clip-rule="evenodd" d="M748.688,571.463c1.295,4.002,0.07,6.354-3.286,7.548
	c-5.439,1.934-10.857,3.97-16.399,5.561c-2.622,0.753-4.133-0.922-3.769-3.698c0.358-2.734,0.575-5.566,1.476-8.139
	c5.803-16.566,11.828-33.056,17.666-49.609c1.977-5.605-1.679-9.953-7.212-8.327c-14.345,4.216-25.424,12.357-30.931,26.894
	c-4.435,11.705-8.96,23.377-13.589,35.006c-2.511,6.306-5.258,8.071-11.793,7.568c0.99-3.32,1.789-6.541,2.905-9.648
	c6.152-17.133,12.422-34.225,18.513-51.38c0.52-1.463,0.021-3.287-0.004-4.944c-1.457,0.355-2.921,0.688-4.37,1.073
	c-1.785,0.475-3.559,0.993-5.337,1.493c-0.373-0.573-0.746-1.146-1.12-1.719c2.536-2.268,4.805-4.982,7.672-6.695
	c4.028-2.406,8.407-4.33,12.828-5.928c1.927-0.695,4.331-0.068,6.519-0.042c-0.075,1.852-0.046,3.715-0.255,5.551
	c-0.196,1.728-0.644,3.427-0.926,4.861c7.61-3.205,15.05-6.553,22.665-9.438c2.983-1.131,6.341-1.469,9.563-1.729
	c4.456-0.359,6.404,1.95,6.783,6.465c0.647,7.729-2.536,14.408-5.146,21.241c-4.815,12.604-9.854,25.123-14.741,37.7
	c-0.425,1.094-0.819,3.263-0.535,3.391c1.398,0.628,3.224,1.33,4.541,0.903C743.161,574.529,745.692,572.946,748.688,571.463z"/>
<path fill-rule="evenodd" clip-rule="evenodd" d="M1468.815,300.964c4.581-2.312,8.731-4.751,13.146-6.543
	c5.396-2.189,10.911-4.271,16.562-5.606c6.906-1.632,11.793,4.851,9.208,12.636c-3.783,11.396-8.216,22.58-12.458,33.821
	c-2.469,6.541-5.193,12.986-7.585,19.555c-0.428,1.175-0.253,3.196,0.512,3.981c0.609,0.626,2.637,0.243,3.866-0.181
	c2.904-0.999,5.707-2.289,8.551-3.461c0.412,0.604,0.824,1.209,1.237,1.813c-1.483,1.688-2.742,3.67-4.493,5.006
	c-4.772,3.642-10.027,5.993-16.309,5.748c-3.895-0.152-5.519-1.37-4.193-5.352c3.28-9.859,6.436-19.762,9.79-29.597
	c3.148-9.229,6.62-18.353,9.623-27.628c0.533-1.648,0.102-4.442-1.024-5.568c-1.225-1.226-3.991-1.93-5.718-1.473
	c-15.423,4.086-26.763,12.869-32.315,28.412c-4.154,11.631-8.773,23.098-13.229,34.62c-1.827,4.726-5.197,6.655-11.034,6.016
	c0.504-2.381,0.727-4.793,1.526-6.996c6.379-17.575,12.868-35.11,19.318-52.659c0.167-0.454,0.409-0.933,0.393-1.393
	c-0.05-1.438-0.208-2.874-0.324-4.312c-1.382,0.275-2.863,0.322-4.122,0.877c-2.195,0.968-4.229,3.674-6.682-0.006
	c5.937-7.826,14.499-11.056,23.248-13.778c0.907-0.282,3.61,1.81,3.686,2.921C1470.181,294.613,1469.341,297.478,1468.815,300.964z"
	/>
<path fill-rule="evenodd" clip-rule="evenodd" d="M1087.882,738.167c1.292-6.61,6.264-7.998,9.965-10.19
	c3.993-2.365,8.621-3.776,13.112-5.141c3.268-0.993,4.714,0.985,4.189,4.145c-0.415,2.492-1.212,4.921-1.556,6.268
	c9.497-3.196,19.181-6.768,29.059-9.684c7.989-2.358,12.776,2.68,10.092,10.834c-3.758,11.41-8.213,22.594-12.458,33.841
	c-2.47,6.543-5.241,12.976-7.579,19.562c-0.526,1.484,0.189,3.409,0.333,5.131c1.645-0.207,3.392-0.134,4.909-0.688
	c2.177-0.796,4.187-2.051,6.268-3.109c0.469,0.423,0.938,0.845,1.406,1.268c-0.821,1.424-1.295,3.489-2.526,4.158
	c-4.691,2.547-9.478,5.088-14.513,6.787c-5.484,1.851-8.611-1.356-6.769-6.77c5.765-16.925,11.801-33.758,17.701-50.638
	c1.276-3.651,3.808-7.848,0.188-10.968c-3.616-3.118-7.959-1.003-11.998,0.536c-14.636,5.577-22.729,16.701-27.528,31.086
	c-3.343,10.019-7.419,19.794-11.246,29.647c-1.923,4.952-6.312,7.491-12.116,6.784c3.269-9.111,6.473-18.102,9.72-27.077
	c3.982-11.013,8.059-21.992,11.946-33.039c0.624-1.773,0.477-3.819,0.687-5.739c-1.802,0.422-3.614,0.807-5.403,1.275
	C1092.104,736.881,1090.468,737.405,1087.882,738.167z"/>
<path fill-rule="evenodd" clip-rule="evenodd" d="M1432.204,317.766c1.335,18.356-14.919,44.932-34.524,50.101
	c-11.056,2.914-21.49,3.336-30.169-5.482c-6.287-6.389-8.098-14.643-7.162-23.157c1.641-14.95,8.071-27.792,19.027-38.219
	c7.18-6.834,15.68-11.574,25.556-12.197C1419.721,287.879,1433.24,297.349,1432.204,317.766z M1421.202,319.479
	c0-1.998,0.238-4.03-0.04-5.988c-1.413-9.912-6.446-16.354-13.711-17.73c-8.675-1.645-16.312,1.869-21.647,8.103
	c-10.405,12.154-16.129,26.176-13.674,42.797c2.557,17.31,17.502,20.316,29.791,12.568
	C1416.265,350.186,1420.654,335.591,1421.202,319.479z"/>
<path fill-rule="evenodd" clip-rule="evenodd" d="M656.199,505.619c11.129-0.931,22.455,8.534,24.066,21.252
	c2.679,21.137-5.771,37.396-21.303,50.882c-6.495,5.64-14.312,7.985-22.413,8.746c-14.121,1.326-26.547-8.37-27.394-23.783
	c-0.977-17.785,5.853-32.387,18.169-44.511C635.049,510.602,644.289,505.431,656.199,505.619z M620.204,556.412
	c0,1.164,0.01,2.329-0.002,3.493c-0.073,8.015,2.908,15.101,10.017,18.429c7.99,3.74,16.289,1.391,22.919-4.231
	c12.353-10.478,16.999-24.681,16.868-40.304c-0.062-7.429-2.146-14.626-9.325-19.39c-9.253-6.141-21.206,0.238-27.098,6.685
	C624.56,530.965,620.394,543.02,620.204,556.412z"/>
<path fill-rule="evenodd" clip-rule="evenodd" d="M1128.204,342.027c-1.268-22.046,19.312-48.585,40.312-52.633
	c14.055-2.709,27.236,5.03,30.64,19.665c2.961,12.733-0.853,24.286-6.938,35.179c-6.831,12.229-16.376,21.171-30.62,24.516
	C1143.315,373.047,1126.947,363.224,1128.204,342.027z M1139.205,339.992c0,1.831-0.052,3.663,0.009,5.491
	c0.239,7.242,6.048,16.032,11.901,16.993c9.472,1.554,18.299-0.628,24.644-8.046c10.703-12.515,15.393-27.174,12.278-43.601
	c-1.294-6.827-5.099-13.122-12.117-14.896c-7.243-1.832-14.365,0.585-20.091,5.665
	C1144.351,311.782,1139.495,324.92,1139.205,339.992z"/>
<path fill-rule="evenodd" clip-rule="evenodd" d="M1075.601,153.715c-16.467,0.308-26.463-12.182-26.562-27.215
	c-0.144-22.16,16.678-47.282,37.916-53.158c18.739-5.184,33.984,6.202,34.037,25.253c0.062,22.424-9.341,40.275-30.111,50.609
	C1086.198,151.533,1080.715,152.254,1075.601,153.715z M1110.144,106.728c0.32-12.935-2.237-20.697-9.756-25.948
	c-8.242-5.756-20.98,0.1-27.432,7.793c-9.299,11.089-13.567,24.155-12.688,38.647c0.453,7.457,2.985,14.332,10.095,17.907
	c6.921,3.48,14.048,1.542,20.013-2.36C1104.681,133.406,1109.082,118.763,1110.144,106.728z"/>
<path fill-rule="evenodd" clip-rule="evenodd" d="M1420.103,153.035c-15.937,0.896-25.817-11.433-26.068-26.266
	c-0.374-22.013,16.882-47.527,37.689-53.34c19.215-5.369,33.717,6.684,34.472,25.396c0.848,20.993-14.702,48.205-37.386,52.933
	C1425.943,152.355,1423.007,152.618,1420.103,153.035z M1405.106,123.07c-0.1,7.845,1.34,15.126,7.706,20.416
	c7.722,6.415,20.729,2.177,26.809-3.798c13.144-12.918,17.614-28.686,14.497-46.63c-1.569-9.037-11.279-16.515-19.433-14.107
	c-5.706,1.684-11.727,4.757-15.819,8.952C1409.532,97.471,1405.505,109.708,1405.106,123.07z"/>
<path fill-rule="evenodd" clip-rule="evenodd" d="M838.927,802.771c-14.754,1.235-24.867-11.193-24.877-26.345
	c-0.014-21.627,15.548-46.359,36.944-52.06c10.672-2.843,21.054-2.393,28.833,6.599c6.274,7.252,7.711,16.451,6.178,25.593
	c-2.234,13.32-7.828,25.274-17.902,34.65C860.298,798.474,851.192,802.888,838.927,802.771z M875.178,756.393
	c0.258-12.658-2.312-20.402-9.832-25.636c-8.229-5.728-20.986,0.161-27.404,7.829c-9.281,11.086-13.523,24.137-12.687,38.618
	c0.468,8.101,3.668,15.122,11.141,18.948c6.667,3.414,13.117,0.884,18.784-3.007C869.354,783.415,874.158,768.903,875.178,756.393z"
	/>
<path fill-rule="evenodd" clip-rule="evenodd" d="M398.91,350.786c0.802,6.552-2.969,9.316-6.322,11.614
	c-10.539,7.225-22.35,9.303-34.655,5.991c-8.24-2.218-13.041-8.295-14.719-16.704c-3.125-15.661,1.834-29.427,10.589-41.964
	c7.336-10.506,17.053-17.918,30.089-20.438c7.07-1.365,13.633-0.594,18.718,4.476c4.912,4.897,4.591,11.697,3.062,17.741
	c-3.815,15.084-14.321,24.823-28.072,30.742c-6.132,2.639-13.209,3.176-19.913,4.348c-3.023,0.529-3.749,1.195-2.84,4.497
	c2.942,10.68,12.786,15.092,25.23,10.948c5.255-1.75,9.833-5.545,14.699-8.445C395.956,352.89,397.057,352.052,398.91,350.786z
	 M353.215,341.598c15.306,0.567,27.736-4.259,37.074-15.692c5.039-6.171,7.217-13.734,5.789-21.652
	c-1.807-10.019-12.348-11.313-20.825-5.891C359.885,308.192,354.386,323.586,353.215,341.598z"/>
<path fill-rule="evenodd" clip-rule="evenodd" d="M111.147,129.875c-1.404,9.314-18.883,20.279-30.569,19.464
	c1.274-5.44,2.065-10.852,3.816-15.931c5.726-16.604,11.852-33.071,17.728-49.625c5.439-15.325,10.807-30.678,16.052-46.07
	c0.557-1.633,0.082-3.618,0.085-5.44c-1.764,0.337-3.542,0.61-5.287,1.029c-1.408,0.338-2.775,0.85-4.2,1.298
	c-1.901-3.691,0.999-5.617,3.106-6.918c6.697-4.133,13.701-7.77,21.011-11.835c2.687,6.233,0.508,10.89-1.01,15.352
	c-7.437,21.862-15.112,43.645-22.731,65.444c-3.971,11.361-8.046,22.687-11.937,34.075c-0.45,1.316-0.013,2.937,0.013,4.416
	c1.538-0.133,3.229,0.097,4.583-0.473C104.734,133.428,107.49,131.785,111.147,129.875z"/>
<path fill-rule="evenodd" clip-rule="evenodd" d="M1257.288,573.328c3.768-1.422,6.858-2.588,9.956-3.756
	c1.773,5.963-13.06,15.585-23.199,14.729c0.371-1.875,0.511-3.761,1.119-5.48c6.571-18.561,13.247-37.084,19.783-55.656
	c0.523-1.488,0.222-3.267,0.304-4.91c-1.776,0.399-3.614,0.632-5.313,1.245c-1.726,0.623-3.316,1.623-5.608,2.783
	c0.039-6.258,3.924-9.65,7.705-10.55c7.383-1.755,9.32-6.918,11.162-12.881c1.872-6.058,4.103-12.007,5.913-18.082
	c0.376-1.262,0.064-3.412-0.792-4.146c-0.708-0.605-2.701,0.221-4.104,0.514c-2.17,0.455-4.322,0.997-6.482,1.502
	c1.382-2.09,2.313-4.864,4.237-6.132c4.592-3.025,9.583-5.485,14.56-7.865c1.794-0.857,4.01-0.834,7.371-1.463
	c-1.073,4.914-1.542,8.926-2.839,12.648c-3.741,10.741-7.815,21.365-11.846,32.271c5.823,1.77,10.638-0.087,15.062-3.733
	c1.108,4.401-0.037,7.246-4.291,9.246c-3.635,1.709-7.626,2.644-11.397,4.082c-1.218,0.465-2.878,1.206-3.255,2.222
	c-6.118,16.475-12.072,33.011-18.012,49.552C1257.058,570.201,1257.288,571.112,1257.288,573.328z"/>
<path fill-rule="evenodd" clip-rule="evenodd" d="M1131.473,236.166c-4.619,2.162-7.4,3.464-10.182,4.766
	c-0.43-0.269-0.859-0.538-1.289-0.808c0.72-1.625,0.989-3.999,2.235-4.748c5.812-3.498,11.825-6.693,17.934-9.651
	c1.479-0.716,4.018-0.748,5.263,0.096c0.815,0.552,0.644,3.402,0.12,4.956c-4.463,13.246-9.01,26.466-13.723,39.625
	c-5.755,16.067-11.756,32.046-17.536,48.104c-4.394,12.205-8.61,24.474-13.374,38.052c4.498-1.542,7.937-2.72,11.37-3.896
	c1.69,5.891-13.084,15.492-23.262,14.661c0.37-2.182,0.43-4.436,1.144-6.458c11.795-33.414,23.693-66.792,35.512-100.198
	c2.061-5.825,4.001-11.702,5.706-17.64C1131.915,241.2,1131.473,239.095,1131.473,236.166z"/>
<path fill-rule="evenodd" clip-rule="evenodd" d="M483.04,791.048c4.355-1.993,7.261-3.322,10.226-4.679
	c1.524,5.866-13.978,15.757-23.887,14.765c2.061-6.809,3.806-13.488,6.097-19.975c6.442-18.242,13.187-36.379,19.664-54.609
	c5.825-16.394,11.514-32.837,17.089-49.316c0.603-1.78,0.055-3.949,0.041-5.938c-1.79,0.353-3.594,0.648-5.366,1.074
	c-1.796,0.432-3.562,0.99-5.34,1.494c-0.316-0.454-0.634-0.907-0.95-1.361c1.401-1.646,2.496-3.822,4.259-4.844
	c5.599-3.244,11.325-6.331,17.239-8.941c3.95-1.743,6.106,0.444,4.977,4.837c-1.051,4.086-2.528,8.068-3.943,12.052
	c-6.313,17.771-12.674,35.523-19.015,53.284c-6.67,18.681-13.354,37.355-19.971,56.055
	C483.619,786.472,483.552,788.165,483.04,791.048z"/>
<path fill-rule="evenodd" clip-rule="evenodd" d="M433.305,801.342c2.129-7.069,3.82-13.638,6.078-20.007
	c6.408-18.084,13.137-36.055,19.571-54.13c5.89-16.542,11.614-33.145,17.251-49.774c0.615-1.814,0.164-3.99,0.207-5.998
	c-1.923,0.359-3.858,0.666-5.768,1.093c-1.664,0.372-3.298,0.878-4.945,1.324c-0.341-0.428-0.681-0.855-1.021-1.283
	c1.332-1.622,2.354-3.771,4.053-4.77c5.581-3.276,11.273-6.439,17.186-9.053c4.24-1.874,6.414,0.422,5.143,5.108
	c-1.105,4.075-2.519,8.074-3.947,12.053c-9.29,25.857-18.642,51.693-27.929,77.553c-3.792,10.559-7.514,21.144-11.157,31.754
	c-0.516,1.502-0.405,3.22-0.67,5.613c4.047-1.797,7.065-3.138,10.218-4.538C458.333,792.367,443.456,801.84,433.305,801.342z"/>
<path fill-rule="evenodd" clip-rule="evenodd" d="M147.543,569.634c0.991,6.101-13.006,15.225-23.377,14.867
	c0.32-1.861,0.378-3.734,0.97-5.419c10.447-29.757,20.98-59.483,31.442-89.235c3.344-9.509,6.536-19.072,9.789-28.613
	c0.312-0.916,0.837-1.87,0.779-2.776c-0.092-1.429-0.227-3.156-1.073-4.11c-0.439-0.494-2.456,0.354-3.739,0.678
	c-2.169,0.545-4.323,1.155-6.483,1.738c1.198-1.954,2.003-4.371,3.664-5.777c6.04-5.112,12.697-9.114,21.201-9.477
	c1.812,7.048-1.899,12.759-3.852,18.575c-5.38,16.022-11.507,31.793-17.215,47.707c-7.41,20.657-14.703,41.356-22.036,62.042
	c-0.213,0.602-0.311,1.244-0.806,3.283C140.925,571.781,144.222,570.712,147.543,569.634z"/>
<path fill-rule="evenodd" clip-rule="evenodd" d="M1223.054,135.019c0.344,1.887,1.124,3.377,0.71,4.368
	c-1.958,4.689-17.476,12.475-24.312,11.717c1.36-5.105,2.348-10.164,4.051-14.969c6.411-18.093,13.119-36.08,19.593-54.15
	c6.143-17.15,12.13-34.356,18.194-51.535c0.107-0.305,0.439-0.565,0.458-0.859c0.18-2.786,0.314-5.574,0.462-8.362
	c-2.348,0.657-4.681,1.377-7.05,1.945c-1.211,0.291-2.487,0.312-3.734,0.454c-0.348-0.513-0.694-1.025-1.042-1.539
	c3.173-2.785,6.072-6.004,9.596-8.236c3.531-2.237,7.634-3.635,11.599-5.095c1.26-0.464,3.613-0.495,4.166,0.246
	c0.87,1.168,1.253,3.36,0.782,4.764c-4.14,12.337-8.465,24.612-12.826,36.873c-9.812,27.585-19.695,55.145-29.474,82.74
	c-0.644,1.816-0.652,3.858-0.956,5.795c2.104-0.544,4.254-0.963,6.297-1.684C1220.583,137.133,1221.403,136.221,1223.054,135.019z"
	/>
<path fill-rule="evenodd" clip-rule="evenodd" d="M619.949,76.614c4.982-1.569,9.965-3.139,15.876-5
	c-1.229,2.406-1.824,5.647-3.709,6.824c-3.749,2.343-8.305,3.349-12.33,5.311c-1.995,0.972-4.479,2.499-5.162,4.355
	c-5.727,15.564-11.115,31.255-16.502,46.942c-0.406,1.183-0.022,2.636-0.006,3.963c1.181-0.158,2.453-0.091,3.522-0.524
	c1.949-0.791,3.777-1.879,7.061-3.564c-0.8,2.923-0.725,5.693-1.887,6.387c-6.254,3.73-12.796,6.984-19.299,10.283
	c-0.769,0.391-1.907,0.053-4.043,0.053c6.161-23.303,16.21-44.659,22.807-67.07c-0.463-0.277-0.926-0.556-1.389-0.833
	c-3.309,1.714-6.617,3.428-10.353,5.363c-1.075-5.854,3.393-9.214,6.262-9.896c10.256-2.438,11.226-11.138,14.295-18.496
	c1.624-3.891,2.93-7.949,3.943-12.04c0.398-1.608,0.12-3.92-0.839-5.12c-0.545-0.682-3.136,0.065-4.726,0.477
	c-1.942,0.503-3.801,1.328-5.695,2.014c-0.252-0.347-0.504-0.693-0.757-1.041c0.792-1.34,1.255-3.268,2.429-3.922
	c6.637-3.701,13.401-7.185,20.217-10.551c2.549-1.259,3.912,0.307,3.461,2.736c-0.707,3.808-1.676,7.603-2.94,11.262
	c-3.548,10.261-7.304,20.448-10.978,30.665C619.455,75.666,619.702,76.14,619.949,76.614z"/>
<path fill-rule="evenodd" clip-rule="evenodd" d="M74.586,261.096c1.858-1.956,3.412-4.412,5.637-5.765
	c4.719-2.868,9.712-5.326,14.756-7.59c1.552-0.695,4.477-0.965,5.261-0.084c1.024,1.151,1.149,3.835,0.606,5.519
	c-2.346,7.271-5.068,14.419-7.671,21.606c-2.042,5.64-4.11,11.271-6.37,17.464c6.219,0.78,11.128-0.965,15.495-4.783
	c1.182,4.716-1.101,8.439-6.657,10.958c-2.06,0.934-4.427,2.312-6.436,2.016c-5.351-0.789-6.338,3.027-7.564,6.414
	c-5.368,14.835-10.573,29.729-15.794,44.617c-0.409,1.166-0.489,2.448-0.985,5.069c4.251-1.591,7.425-2.778,10.637-3.98
	c1.176,6.698-13.381,15.876-23.528,14.587c0.568-2.838,0.788-5.764,1.745-8.423c6.394-17.748,12.975-35.429,19.382-53.173
	c0.469-1.299,0.051-2.917,0.045-4.387c-1.665,0.359-3.418,0.5-4.969,1.137c-1.771,0.728-3.359,1.897-5.401,2.356
	c0.349-7.236,5.752-9.796,10.963-11.509c3.017-0.992,4.319-2.578,5.18-4.949c2.718-7.488,5.387-15.002,7.74-22.61
	c0.641-2.072,0.097-4.511,0.097-7.43c-4.402,1.994-7.656,3.468-10.911,4.942C75.425,262.432,75.006,261.764,74.586,261.096z"/>
<path fill-rule="evenodd" clip-rule="evenodd" d="M964.691,801.388c0.684-3.484,0.905-6.607,1.914-9.452
	c13.264-37.383,26.638-74.726,39.984-112.079c0.383-1.07,1.063-2.137,1.078-3.212c0.023-1.833-0.372-3.672-0.592-5.508
	c-1.626,0.333-3.279,0.57-4.871,1.023c-1.795,0.511-3.534,1.217-5.298,1.838c-0.425-0.513-0.85-1.025-1.274-1.538
	c2.042-2.217,3.724-5.033,6.202-6.521c4.71-2.828,9.824-5.017,14.892-7.189c1.178-0.505,3.392-0.406,4.137,0.368
	c0.878,0.914,1.266,3.056,0.85,4.334c-2.865,8.804-5.946,17.539-9.051,26.262c-11.231,31.551-22.521,63.08-33.692,94.651
	c-0.561,1.584-0.232,3.483-0.318,5.236c1.739-0.395,3.52-0.665,5.206-1.22c1.653-0.542,3.212-1.373,5.531-2.394
	C987.489,793.312,973.591,801.776,964.691,801.388z"/>
<path fill-rule="evenodd" clip-rule="evenodd" d="M526.466,261.434c1.514-2.019,2.619-4.708,4.62-5.924
	c5.124-3.111,10.591-5.685,16.028-8.244c3.662-1.724,5.626-0.07,5.006,3.739c-0.649,3.984-1.684,7.959-3.035,11.765
	c-3.476,9.787-7.221,19.478-10.192,30.705c4.994-1.644,9.988-3.286,15.13-4.978c1.492,4.623-2.676,6.706-5.77,9.046
	c-1.88,1.423-4.513,2.967-6.633,2.749c-6.385-0.655-7.734,3.93-9.261,8.113c-5.405,14.811-10.58,29.705-15.823,44.575
	c-0.211,0.6-0.23,1.268-0.604,3.44c3.189-1.174,5.531-2.157,7.953-2.874c1.089-0.322,2.335-0.113,3.511-0.145
	c-0.082,1.163,0.222,2.554-0.308,3.452c-3.193,5.419-17.13,11.377-24.513,10.154c3.894-11.14,7.719-22.157,11.595-33.157
	c3.837-10.892,7.725-21.765,11.591-32.646c-0.458-0.262-0.916-0.524-1.374-0.786c-3.541,1.553-7.083,3.104-10.625,4.657
	c1.848-5.816,4.848-9.938,10.362-11.444c3.376-0.921,5.329-2.636,6.376-6.372c2.188-7.812,5.318-15.354,7.794-23.094
	c0.427-1.335-0.039-3.456-0.928-4.513c-0.485-0.577-2.815,0.07-4.14,0.602c-1.743,0.699-3.315,1.828-4.961,2.772
	C527.666,262.496,527.065,261.965,526.466,261.434z"/>
<path fill-rule="evenodd" clip-rule="evenodd" d="M433.382,300.422c-3.535,1.548-7.07,3.097-10.605,4.645
	c1.84-5.809,4.835-9.938,10.355-11.435c3.385-0.917,5.324-2.657,6.373-6.377c2.202-7.809,5.32-15.355,7.793-23.096
	c0.427-1.334-0.045-3.456-0.936-4.51c-0.488-0.577-2.816,0.077-4.141,0.609c-1.749,0.704-3.327,1.832-5.165,2.885
	c-2.182-4.312,0.851-6.316,3.032-7.643c5.122-3.115,10.594-5.682,16.032-8.24c3.671-1.726,5.64-0.042,4.995,3.751
	c-0.704,4.14-1.824,8.256-3.227,12.219c-3.408,9.637-7.084,19.178-9.996,30.247c4.995-1.646,9.991-3.291,15.131-4.984
	c1.48,4.628-2.678,6.714-5.777,9.052c-1.884,1.421-4.497,2.939-6.637,2.752c-5.983-0.525-7.546,3.369-9.077,7.653
	c-5.418,15.157-10.829,30.316-16.217,45.485c-0.156,0.439-0.02,0.984-0.02,2.856c2.828-1.045,5.171-2.031,7.594-2.749
	c1.088-0.322,2.335-0.107,3.511-0.136c-0.084,1.164,0.218,2.555-0.314,3.454c-3.206,5.427-17.137,11.375-24.508,10.145
	c3.892-11.14,7.717-22.159,11.593-33.161c3.836-10.889,7.724-21.76,11.588-32.639C434.301,300.944,433.841,300.684,433.382,300.422z
	"/>
<path fill-rule="evenodd" clip-rule="evenodd" d="M642.771,726.057c6.666,2.05,10.968-2.171,15.712-4.813
	c0.334,0.311,0.668,0.62,1.002,0.931c-0.592,1.499-0.828,3.321-1.84,4.441c-3.849,4.263-8.39,7.21-14.527,7.178
	c-1.306-0.007-3.379,1.367-3.816,2.571c-5.888,16.194-11.571,32.464-17.224,48.743c-0.527,1.517-0.491,3.229-0.849,5.801
	c4.117-1.853,7.122-3.204,10.237-4.605c1,5.835-13.688,15.357-23.423,15.187c0.367-2.239,0.413-4.492,1.119-6.514
	c6.804-19.489,13.72-38.939,20.587-58.407c0.194-0.551,0.192-1.172,0.523-3.343c-4.39,2.128-7.784,3.773-11.665,5.654
	c-1.421-5.117,2.545-7.847,5.288-8.824c7.919-2.82,11.665-8.253,13.623-15.961c1.396-5.495,3.817-10.723,5.456-16.167
	c0.407-1.354,0.049-3.62-0.875-4.473c-0.727-0.672-2.914,0.008-4.365,0.405c-2.06,0.565-4.038,1.424-6.052,2.156
	c-0.355-0.508-0.711-1.016-1.066-1.523c1.403-1.647,2.51-3.783,4.266-4.85c5.266-3.197,10.705-6.144,16.26-8.808
	c1.474-0.707,4.11-0.701,5.274,0.195c0.937,0.721,0.963,3.429,0.508,4.999c-1.354,4.678-3.126,9.237-4.766,13.831
	C649.055,708.557,645.93,717.244,642.771,726.057z"/>
<path fill-rule="evenodd" clip-rule="evenodd" d="M1192.303,507.143c3.252,6.878,2.951,18.617-1.486,21.647
	c-0.568-3.102-0.809-6.14-1.707-8.97c-2.089-6.581-9.733-11.219-15.143-9.482c-6.555,2.104-8.73,7.288-4.632,12.762
	c4.325,5.777,9.65,10.795,14.167,16.442c6.707,8.388,8.343,17.857,4.638,28.022c-3.562,9.772-10.655,15.313-20.871,17.132
	c-8.704,1.55-17.164,1.83-25.465-2.117c-11.848-5.635-12.266-21.901-5.004-29.944c0.818-0.906,2.085-1.678,3.263-1.911
	c1.214-0.24,2.574,0.253,3.87,0.425c-0.383,1.152-0.664,2.352-1.166,3.448c-2.162,4.717-4.754,9.179-2.738,14.841
	c1.921,5.398,5.069,9.221,10.736,10.356c9.302,1.863,18.699,2.402,25.424-5.812c6.401-7.818,6.908-17.241-0.037-24.851
	c-4.121-4.516-8.754-8.645-12.361-13.533c-7.801-10.573-8.146-23.828,4.982-28.847c4.055-1.551,9.243-0.179,13.911-0.073
	C1185.507,506.743,1188.327,506.945,1192.303,507.143z"/>
<path fill-rule="evenodd" clip-rule="evenodd" d="M916.609,117.469c-1.141,3.26-2.362,6.494-3.408,9.785
	c-3.662,11.523,4.102,18.871,13.379,20.085c5.402,0.706,11.338-0.874,16.75-2.421c9.949-2.844,14.735-20.904,5.339-29.493
	c-5.07-4.635-9.619-10.008-13.622-15.606c-7.491-10.477-3.821-25.759,10.166-27.557c3.254-0.419,6.688,0.603,10.042,0.93
	c2.774,0.271,5.553,0.495,9.79,0.868c3.16,3.317,3.447,18.424-1.421,21.879c-0.161-1.688-0.326-3.046-0.415-4.408
	c-0.484-7.372-7.061-14.434-13.302-14.963c-4.193-0.356-7.127,1.629-8.332,4.815c-0.929,2.453-0.719,6.344,0.688,8.464
	c2.889,4.351,7.001,7.872,10.462,11.863c5.675,6.545,9.938,13.361,9.664,22.847c-0.462,16.002-8.865,23.68-22.63,27.044
	c-7.483,1.829-14.914,1.277-22.3-0.942c-15.547-4.672-15.438-25.932-6.271-32.439c1.231-0.874,2.774-1.31,4.174-1.948
	C915.778,116.67,916.194,117.069,916.609,117.469z"/>
<path fill-rule="evenodd" clip-rule="evenodd" d="M427.039,549.251c-0.408,2.508-0.229,4.557-1.07,6.017
	c-3.266,5.661-4.202,11.608-1.124,17.309c3.203,5.931,8.933,8.528,15.633,8.009c4.833-0.375,10.107-0.418,14.318-2.426
	c10.812-5.155,13.277-21.186,3.446-31.004c-3.97-3.965-8.052-7.934-11.327-12.449c-4.588-6.328-6.386-13.136-2.88-21.092
	c2.771-6.289,13.027-9.48,20.51-7.36c3.446,0.977,7.243,0.718,11.86,1.1c0,5.97,0,13.446,0,20.923
	c-0.213,0.189-0.426,0.378-0.639,0.566c-0.522-1.037-1.297-2.021-1.527-3.119c-1.507-7.171-4.058-13.351-12.04-15.658
	c-4.286-1.239-7.488,0.534-9.294,3.696c-1.213,2.125-1.641,6.088-0.437,7.94c3.374,5.19,7.489,9.994,11.842,14.431
	c5.951,6.065,9.064,12.88,8.981,21.512c-0.126,13.308-6.362,22.398-19.274,26.118c-11.147,3.211-22.019,3.403-32.016-3.23
	c-5.195-3.447-6.696-9.396-6.619-15.083C415.497,557.1,419.133,552.378,427.039,549.251z"/>
<path fill-rule="evenodd" clip-rule="evenodd" d="M413.463,507.397c0,5.984,0,13.495,0,21.005c-0.246,0.16-0.492,0.32-0.739,0.479
	c-0.509-1.089-1.246-2.129-1.49-3.273c-1.529-7.179-4.177-13.336-12.133-15.594c-4.27-1.212-7.426,0.686-9.293,3.822
	c-1.176,1.976-1.593,5.772-0.452,7.501c3.497,5.306,7.608,10.3,12.042,14.872c5.917,6.103,9.04,12.911,8.891,21.55
	c-0.237,13.719-6.492,22.147-18.9,25.914c-11.247,3.414-22.326,3.543-32.496-3.171c-5.457-3.603-6.67-9.936-6.385-15.66
	c0.325-6.518,2.729-12.825,11.675-15.613c-0.516,2.626-0.447,4.632-1.285,6.132c-3.169,5.678-4.117,11.581-0.986,17.308
	c3.149,5.764,8.683,8.093,15.191,7.981c3.311-0.057,6.762,0.346,9.903-0.441c15.055-3.776,19.169-22.113,8.155-33.138
	c-4.083-4.087-8.407-8.106-11.635-12.831c-4.025-5.894-5.763-12.303-2.86-19.842c2.852-7.409,13.721-10.242,20.976-8.078
	C404.92,507.299,408.579,507.003,413.463,507.397z"/>
<path fill-rule="evenodd" clip-rule="evenodd" d="M602.012,722.967c0,7.498,0,14.997,0,22.495c-0.556,0.126-1.112,0.252-1.669,0.377
	c-0.379-1.301-1.007-2.584-1.099-3.905c-0.544-7.814-6.925-14.847-13.419-15.37c-4.22-0.34-7.104,1.701-8.283,4.885
	c-0.909,2.454-0.648,6.325,0.768,8.449c2.896,4.345,6.861,7.991,10.488,11.83c9.12,9.654,11.971,20.521,7.668,33.426
	c-3.276,9.823-10.939,13.729-19.778,16.199c-7.724,2.159-15.58,1.873-23.227-0.734c-12.568-4.285-17.15-21.659-8.001-30.594
	c1.462-1.427,3.705-2.053,5.588-3.049c0.485,0.404,0.972,0.81,1.457,1.214c-1.1,2.824-2.346,5.601-3.275,8.479
	c-3.998,12.373,5.032,20.257,14.318,21.777c8.951,1.464,19.884-1.576,24.691-12.739c2.956-6.865,1.751-14.365-3.306-19.87
	c-4.672-5.088-9.474-10.128-13.502-15.707c-2.181-3.021-3.859-7.075-4.034-10.745c-0.523-10.955,6.688-17.741,18.994-16.252
	c4.577,0.554,9.466,4.594,13.969-0.941C600.911,722.45,601.461,722.708,602.012,722.967z"/>
<path fill-rule="evenodd" clip-rule="evenodd" d="M1019.115,88.21c1.781-2.735,2.391-4.788,3.729-5.535
	c6.356-3.551,12.861-6.85,19.419-10.021c3.066-1.483,4.334,0.325,3.88,3.186c-0.507,3.194-1.191,6.416-2.28,9.453
	c-7.14,19.907-14.205,39.845-21.703,59.618c-5.772,15.221-12.576,29.994-24.979,41.21c-6.556,5.928-13.897,10.354-24.702,9.289
	c1.161-1.917,1.865-4.398,2.857-4.52c12.764-1.559,19.339-10.619,25.47-20.358c9.485-15.069,14.125-32.16,20.271-48.612
	c3.7-9.904,7.068-19.936,10.363-29.982c0.625-1.904,0.206-4.151,0.269-6.24c-2.049,0.286-4.11,0.5-6.142,0.881
	C1023.892,86.893,1022.253,87.405,1019.115,88.21z"/>
<path fill-rule="evenodd" clip-rule="evenodd" d="M784.82,736.428c1.633-1.648,2.996-3.802,4.951-4.849
	c5.566-2.98,11.376-5.508,17.088-8.216c3.682-1.745,4.647,0.344,4.27,3.366c-0.34,2.714-1.088,5.427-2.02,8.009
	c-7.941,22.02-15.466,44.21-24.15,65.935c-5.278,13.204-11.864,26.035-22.974,35.674c-6.012,5.216-12.566,9.471-20.962,9.217
	c-1.135-0.034-2.231-1.345-3.103-2.688c16.816-2.923,24.781-15.217,31.046-28.244c6.607-13.738,11.615-28.262,17.034-42.551
	c3.804-10.029,7.229-20.208,10.567-30.403c0.606-1.853-0.014-4.107-0.068-6.177c-1.916,0.314-3.851,0.55-5.744,0.969
	c-1.675,0.371-3.306,0.946-4.955,1.431C785.474,737.409,785.146,736.918,784.82,736.428z"/>
<path fill-rule="evenodd" clip-rule="evenodd" d="M803.407,584.965c1.355-4.524,2.25-8.088,3.481-11.53
	c6.079-16.997,12.282-33.949,18.317-50.962c0.451-1.274-0.064-2.892-0.131-4.349c-1.293,0.336-2.582,0.692-3.882,1.004
	c-2.154,0.516-4.314,1.003-6.472,1.502c1.389-2.088,2.316-4.926,4.256-6.118c4.943-3.039,10.278-5.473,15.582-7.873
	c1.817-0.822,4.005-0.825,6.198-1.235c2.04,9.134-4.416,15.47-5.207,23.697c4.494-4.59,8.757-9.441,13.556-13.686
	c3.759-3.324,8.125-5.984,12.332-8.773c2.705-1.795,5.79-1.747,7.268,1.273c1.466,2.998,1.035,6.19-2.949,7.551
	c-12.181,4.159-21.529,12.253-30.306,21.336c-6.785,7.021-10.883,15.437-14.235,24.363c-2.115,5.631-4.059,11.326-6.229,16.936
	C813.235,582.628,809.435,584.193,803.407,584.965z"/>
<path fill-rule="evenodd" clip-rule="evenodd" d="M52.466,801.699c8.103-22.467,15.899-44.081,23.695-65.694
	c-0.282-0.476-0.563-0.951-0.845-1.427c-3.501,1.09-7.003,2.181-10.505,3.271c-0.365-0.424-0.73-0.847-1.095-1.271
	c1.674-1.92,2.99-4.523,5.093-5.625c5.428-2.843,11.153-5.149,16.875-7.374c1.426-0.554,4.158-0.605,4.74,0.214
	c0.814,1.145,0.631,3.487,0.077,5.031c-2.111,5.884-4.541,11.652-6.852,17.465c-0.355-0.407-0.71-0.813-1.065-1.22
	c4.094-3.189,8.413-6.134,12.228-9.629c5.223-4.784,10.203-9.882,17.297-11.706c1.807-0.465,5.504,0.032,5.68,0.742
	c0.701,2.838,1.405,5.897-2.642,7.878c-6.541,3.203-13.006,6.75-18.952,10.936c-12.007,8.452-20.188,19.915-25.049,33.839
	c-2.247,6.437-5.051,12.687-7.786,18.94C61.488,800.347,57.729,801.354,52.466,801.699z"/>
<path fill-rule="evenodd" clip-rule="evenodd" d="M1578.406,772.69c1.78-5.871,3.173-11.281,5.053-16.515
	c5.774-16.077,11.808-32.061,17.6-48.13c4.522-12.549,8.847-25.169,13.228-37.769c0.422-1.214,0.823-2.497,0.877-3.764
	c0.168-3.942-1.626-4.555-4.955-2.899c-2.055,1.021-4.321,1.615-6.493,2.4c-0.249-0.386-0.498-0.772-0.747-1.158
	c1.08-1.564,1.816-3.706,3.302-4.593c5.724-3.415,11.488-6.91,17.625-9.437c4.657-1.918,6.323,0.138,4.721,4.953
	c-3.491,10.498-6.965,21.004-10.683,31.423c-6.123,17.16-12.475,34.238-18.649,51.381c-3.141,8.72-5.961,17.557-9.21,26.233
	C1588.354,769.408,1584.929,772.275,1578.406,772.69z"/>
<path fill-rule="evenodd" clip-rule="evenodd" d="M871.815,573.845c4.349-2.036,7.304-3.42,11.149-5.22
	c-0.133,2.11,0.362,4.337-0.411,4.942c-6.412,5.018-12.916,10.021-21.405,11.06c-0.456,0.056-0.944-0.148-2.317-0.39
	c0.703-3.338,1.052-6.703,2.129-9.816c5.688-16.44,11.581-32.811,17.338-49.228c0.528-1.506,0.918-3.188,0.823-4.756
	c-0.155-2.568-1.617-3.491-4.031-2.118c-0.992,0.564-1.857,1.519-2.906,1.771c-1.481,0.357-3.08,0.229-4.628,0.308
	c0.656-1.518,0.89-3.733,2.043-4.434c5.678-3.45,11.518-6.668,17.494-9.567c1.457-0.706,4.1-0.51,5.34,0.418
	c0.839,0.627,0.648,3.424,0.113,4.971c-4.839,13.979-9.86,27.894-14.817,41.831c-1.635,4.594-3.302,9.178-4.822,13.811
	C872.419,568.912,872.357,570.538,871.815,573.845z"/>
<path fill-rule="evenodd" clip-rule="evenodd" d="M629.946,302.695c5.554-6.918,12.784-10.334,20.408-13.032
	c1.515-0.536,4.359-0.842,4.809-0.129c0.917,1.455,1.204,3.838,0.722,5.549c-1.499,5.313-3.401,10.521-5.288,15.718
	c-4.994,13.755-10.074,27.478-15.069,41.232c-0.324,0.893-0.222,1.94-0.453,4.293c3.942-1.395,7.215-2.552,10.54-3.728
	c0.799,6.643-12.927,15.441-24.026,14.788c1.23-4.302,2.219-8.426,3.585-12.419c5.631-16.454,11.417-32.854,16.997-49.325
	c0.397-1.175,0.016-3.548-0.75-3.952c-1.031-0.546-2.975-0.067-4.193,0.59C634.923,303.522,632.961,306.307,629.946,302.695z"/>
<path fill-rule="evenodd" clip-rule="evenodd" d="M821.654,303.221c6.073-8.047,14.304-11.341,22.56-14.399
	c3.061-1.135,4.93,1.328,3.874,5.385c-1.225,4.707-3.021,9.271-4.674,13.859c-5.291,14.688-10.644,29.352-15.92,44.044
	c-0.317,0.882-0.175,1.93-0.343,4.226c3.798-1.357,6.959-2.486,10.114-3.613c1.886,6.072-12.439,15.433-23.456,14.61
	c0.781-3.168,1.295-6.274,2.312-9.207c5.655-16.282,11.432-32.521,17.172-48.773c0.271-0.767,0.876-1.523,0.844-2.265
	c-0.08-1.889-0.433-3.767-0.677-5.648c-1.688,0.504-3.405,0.927-5.053,1.539c-1.061,0.394-1.995,1.442-3.03,1.508
	C824.31,304.553,823.188,303.784,821.654,303.221z"/>
<path fill-rule="evenodd" clip-rule="evenodd" d="M855.907,302.837c5.795-7.587,13.877-10.857,21.966-13.927
	c3.496-1.327,5.451,1.431,4.173,5.936c-1.241,4.376-2.872,8.645-4.424,12.928c-5.313,14.675-10.682,29.329-15.976,44.012
	c-0.367,1.019-0.292,2.197-0.587,4.681c3.988-1.49,7.145-2.669,10.318-3.855c1.521,6.417-12.935,15.689-23.563,14.612
	c0.906-3.793,1.476-7.6,2.729-11.167c5.496-15.647,11.199-31.223,16.798-46.834c0.437-1.215,0.909-2.512,0.898-3.767
	c-0.012-1.373-0.159-3.199-1.018-3.959c-0.623-0.551-2.664,0.007-3.78,0.61C861.138,303.352,859.234,306.277,855.907,302.837z"/>
<path fill-rule="evenodd" clip-rule="evenodd" d="M717.787,88.284c-1.513-5.033,1.481-6.239,3.851-7.494
	c5.432-2.874,10.973-5.552,16.545-8.145c3.049-1.418,4.583,0.226,3.936,3.106c-1.208,5.372-2.658,10.723-4.475,15.92
	c-5.041,14.422-10.348,28.751-15.458,43.149c-0.432,1.217-0.179,2.676-0.244,4.022c1.31-0.152,2.709-0.063,3.909-0.511
	c1.959-0.729,3.788-1.806,5.672-2.736c0.464,0.343,0.928,0.686,1.393,1.028c-1.276,2.021-2.095,4.761-3.918,5.925
	c-4.907,3.132-10.205,5.672-15.437,8.266c-1.378,0.684-3.081,0.711-6.236,1.378c1.484-5.152,2.49-9.296,3.866-13.312
	c5.688-16.604,11.52-33.16,17.186-49.771c0.395-1.156,0.331-3.372-0.325-3.771c-0.996-0.605-2.795-0.345-4.077,0.08
	C721.944,86.091,720.06,87.203,717.787,88.284z"/>
<path fill-rule="evenodd" clip-rule="evenodd" d="M1401.982,505.883c1.278,8.494-3.271,15.156-5.714,22.281
	c-4.691,13.684-9.83,27.214-14.715,40.832c-0.359,1.001-0.175,2.198-0.307,4.331c3.786-1.424,6.872-2.584,9.96-3.745
	c1.872,5.879-12.862,15.505-23.132,14.771c0.358-1.873,0.491-3.746,1.08-5.464c6.006-17.535,12.092-35.042,18.132-52.565
	c0.475-1.378,0.961-2.8,1.092-4.233c0.099-1.082-0.003-2.631-0.674-3.206c-0.675-0.58-2.283-0.552-3.269-0.197
	c-2.272,0.819-4.416,1.999-6.683,3.065C1376.979,515.053,1391.851,505.306,1401.982,505.883z"/>
<path fill-rule="evenodd" clip-rule="evenodd" d="M1291.95,736.903c1.069-1.557,1.79-3.771,3.27-4.556
	c6.159-3.27,12.531-6.143,18.857-9.091c3.357-1.565,4.418,0.394,4.051,3.221c-0.375,2.878-1.098,5.769-2.095,8.497
	c-6.086,16.655-12.337,33.251-18.39,49.919c-0.546,1.505-0.072,3.382-0.072,5.784c3.723-1.632,6.747-2.957,9.839-4.312
	c1.133,5.714-13.526,15.265-23.356,15.132c0.363-2.234,0.415-4.472,1.104-6.493c5.977-17.558,12.065-35.076,18.128-52.604
	c0.266-0.768,0.89-1.525,0.848-2.26c-0.091-1.608-0.016-3.662-0.947-4.637c-0.656-0.687-2.917-0.109-4.355,0.288
	c-2.075,0.574-4.055,1.498-6.075,2.272C1292.486,737.678,1292.218,737.29,1291.95,736.903z"/>
<path fill-rule="evenodd" clip-rule="evenodd" d="M519.011,791.058c4.361-2,7.261-3.329,10.213-4.684
	c1.623,5.823-13.849,15.729-23.998,14.766c2.3-7.126,4.373-14.031,6.753-20.828c4.57-13.05,9.396-26.011,13.885-39.088
	c0.576-1.677-0.229-3.826-0.396-5.757c-1.776,0.25-3.583,0.374-5.322,0.785c-1.815,0.428-3.565,1.132-5.345,1.716
	c-0.337-0.461-0.675-0.921-1.012-1.382c1.659-1.712,3.032-3.957,5.034-5.036c5.707-3.078,11.639-5.75,17.547-8.44
	c2.528-1.151,4.079,0.14,3.745,2.696c-0.418,3.199-1.165,6.416-2.237,9.46c-5.836,16.568-11.837,33.08-17.714,49.634
	C519.62,786.432,519.542,788.13,519.011,791.058z"/>
<path fill-rule="evenodd" clip-rule="evenodd" d="M1651.712,596.442c0.838-0.943,1.501-2.193,2.54-2.778
	c6.23-3.507,7.11-7.615,2.964-13.616c-0.584-0.844-0.842-2.82-0.311-3.381c3.197-3.371,6.669-6.482,10.33-9.948
	c4.636,6.631,4.402,12.391,1.802,18.452C1666.195,591.794,1659.845,597.178,1651.712,596.442z"/>
<path fill-rule="evenodd" clip-rule="evenodd" d="M1647.882,133.73c5.285,7.79,3.841,14.588,0.204,21.14
	c-3.354,6.044-9.225,9.036-16.711,8.396c1.95-1.675,3.134-3.018,4.599-3.889c4.71-2.803,5.532-7.34,2.71-11.991
	c-0.854-1.407-0.631-4.539,0.409-5.806C1641.416,138.75,1644.563,136.597,1647.882,133.73z"/>
<path fill-rule="evenodd" clip-rule="evenodd" d="M651.453,279.094c1.304-1.469,2.06-2.778,3.189-3.517
	c5.357-3.503,5.695-5.759,2.189-11.229c-0.734-1.146-0.483-3.763,0.374-4.908c1.53-2.046,3.684-3.8,5.907-5.117
	c4.544-2.692,5.462-2.21,6.809,2.657C673.003,268.116,663.154,280.67,651.453,279.094z"/>
<path fill-rule="evenodd" clip-rule="evenodd" d="M842.831,279.126c2.085-1.882,3.146-3.113,4.453-3.97
	c4.634-3.034,5.014-6.025,1.703-10.675c-0.777-1.092-1.031-3.805-0.308-4.493c2.816-2.683,6.051-4.964,9.327-7.089
	c0.486-0.315,2.646,0.756,2.993,1.608c2.549,6.268,1.495,12.469-2.22,17.758C855.542,276.877,851.204,280.654,842.831,279.126z"/>
<path fill-rule="evenodd" clip-rule="evenodd" d="M876.82,279.208c2.066-1.905,3.102-3.156,4.399-4.003
	c4.651-3.032,5.114-6.248,1.842-10.701c-0.796-1.084-1.132-3.795-0.438-4.457c2.814-2.688,6.037-4.984,9.31-7.116
	c0.511-0.333,2.692,0.677,3.033,1.505c2.579,6.256,1.539,12.446-2.143,17.765C889.602,276.853,885.248,280.56,876.82,279.208z"/>
<path fill-rule="evenodd" clip-rule="evenodd" d="M1397.087,493.921c2.133-1.351,4.417-2.517,6.364-4.098
	c2.849-2.312,2.606-5.403,0.446-7.806c-2.555-2.842-2.2-5.091,0.564-7.021c2.828-1.975,6.494-5.465,8.84-4.821
	c4.301,1.181,2.974,6.332,2.831,9.962c-0.286,7.273-6.469,14.605-13.433,16.283c-1.164,0.28-2.453,0.04-3.685,0.04
	C1398.373,495.614,1397.729,494.768,1397.087,493.921z"/>
<path fill-rule="evenodd" clip-rule="evenodd" d="M888.649,496.153c0.975-1.381,1.515-2.676,2.479-3.428
	c6.304-4.921,6.461-6.088,1.742-12.271c-0.474-0.62-0.302-2.203,0.17-2.97c0.765-1.24,1.86-2.464,3.11-3.181
	c2.805-1.607,5.79-2.898,8.702-4.318c0.78,3.239,2.6,6.632,2.147,9.688C905.639,488.885,899.296,497.182,888.649,496.153z"/>
<path fill-rule="evenodd" clip-rule="evenodd" d="M1056.106,35.421c6.002,4.273,4.706,11.796,1.772,18.72
	c-2.448,5.78-8.734,8.794-16.427,8.151c1.744-1.577,2.845-2.75,4.116-3.691c4.096-3.029,4.24-5.938,1.855-10.542
	c-0.885-1.709-0.26-5.192,1.019-6.797C1050.388,38.822,1053.503,37.314,1056.106,35.421z"/>
<path fill-rule="evenodd" clip-rule="evenodd" d="M550.188,685.479c5.915,4.206,4.63,11.72,1.693,18.657
	c-2.446,5.78-8.742,8.801-16.353,8.154c1.336-1.227,2.07-2.043,2.939-2.674c5.096-3.697,5.322-6.265,2.626-11.908
	c-0.808-1.69,0.28-5.137,1.667-6.816C544.646,688.607,547.65,687.246,550.188,685.479z"/>
<path fill-rule="evenodd" clip-rule="evenodd" d="M806.619,711.824c1.369-1.036,2.296-1.748,3.231-2.445
	c4.632-3.452,4.808-6.307,2.275-11.636c-0.809-1.702,0.82-4.618,1.499-6.931c0.144-0.49,1.01-0.771,1.545-1.144
	c1.988-1.389,3.978-2.775,5.896-4.114c4.86,4.165,5.528,11.507,1.928,18.573C819.99,710.025,813.544,713.292,806.619,711.824z"/>
<path fill-rule="evenodd" clip-rule="evenodd" d="M737.234,61.887c1.969-1.497,3.166-2.452,4.41-3.344
	c4.391-3.146,4.743-6.66,1.452-11.026c-0.662-0.878-0.789-3.31-0.176-3.808c3.298-2.676,6.908-4.967,10.411-7.391
	c0.956,1.538,2.361,2.972,2.753,4.643c0.48,2.051,0.304,4.32,0.079,6.461C755.336,55.328,747.036,65.143,737.234,61.887z"/>
<path fill-rule="evenodd" clip-rule="evenodd" d="M1313.354,712.033c2.234-1.811,3.875-2.845,5.139-4.225
	c2.602-2.843,4.417-5.879,0.946-9.454c-2.708-2.789-0.945-5.393,1.04-7.299c2.299-2.208,5.184-3.805,7.737-5.612
	c4.854,4.691,5.374,10.273,1.942,17.415C1326.431,710.615,1321.972,713.279,1313.354,712.033z"/>
<path fill-rule="evenodd" clip-rule="evenodd" d="M1610.96,349.853c2.035,3.847,3.961,6.702,5.097,9.844
	c1.257,3.479-3.103,9.679-6.802,9.755c-1.14,0.022-2.912-1.487-3.354-2.68c-0.983-2.658-2.374-5.892-1.63-8.276
	C1605.172,355.61,1608.106,353.36,1610.96,349.853z"/>
<path fill-rule="evenodd" clip-rule="evenodd" d="M165.24,262.543c8.1,9.176,7.411,14.504-2.219,19.011
	C156.446,275.486,155.963,269.803,165.24,262.543z"/>
<path fill-rule="evenodd" clip-rule="evenodd" d="M136.24,262.543c8.1,9.176,7.411,14.504-2.219,19.011
	C127.446,275.486,126.963,269.803,136.24,262.543z"/>
<path fill-rule="evenodd" clip-rule="evenodd" d="M1588.724,45.933c1.188,1.871,2.254,3.318,3.077,4.893
	c3.071,5.866,2.141,9.711-3.505,13.008c-0.968,0.565-3.344,0.05-4.247-0.821C1578.793,57.946,1580.511,50.728,1588.724,45.933z"/>
<path fill-rule="evenodd" clip-rule="evenodd" d="M1617.832,46.073c1.037,1.649,2.193,3.237,3.085,4.962
	c2.95,5.711,1.779,10.025-3.777,12.979c-0.95,0.506-3.129,0.036-3.955-0.779C1607.867,57.991,1609.274,50.677,1617.832,46.073z"/>
<path fill-rule="evenodd" clip-rule="evenodd" d="M1430.685,44.733c1.604,3.254,2.592,5.27,3.59,7.281
	c2.882,5.811,2.2,7.316-2.91,11.221c-2.924,2.234-4.396,1.229-5.948-1.096c-3.382-5.064-3.014-8.136,1.2-12.447
	C1427.881,48.399,1428.928,46.893,1430.685,44.733z"/>
<path fill-rule="evenodd" clip-rule="evenodd" d="M1459.689,44.756c1.585,3.199,2.579,5.212,3.577,7.223
	c2.898,5.842,2.223,7.318-2.874,11.23c-3.226,2.477-4.724,1.11-6.14-1.49c-2.599-4.771-3.726-7.795,1.321-12.021
	C1456.942,48.552,1457.909,46.928,1459.689,44.756z"/>
<path fill-rule="evenodd" clip-rule="evenodd" d="M1396.975,262.049c1.938,3.532,4.331,6.231,4.772,9.218
	c0.359,2.441-1.174,5.532-2.718,7.741c-0.867,1.24-3.805,2.2-5.21,1.678c-4.061-1.512-5.475-9.049-2.651-12.417
	C1392.759,266.369,1394.546,264.634,1396.975,262.049z"/>
<path fill-rule="evenodd" clip-rule="evenodd" d="M1425.903,261.888c2,3.683,3.939,6.506,5.115,9.617
	c1.331,3.526-3.133,9.986-6.746,9.925c-1.104-0.019-2.651-1.309-3.18-2.408c-1.324-2.754-4.456-5.237-2.017-8.887
	c0.357-0.534,0.511-1.225,0.923-1.699C1421.736,266.439,1423.537,264.498,1425.903,261.888z"/>
<path fill-rule="evenodd" clip-rule="evenodd" d="M1551.72,281.638c-5.906-8.326-5.92-9.416-0.339-16.463
	c2.181-2.752,3.985-2.778,5.86,0.492C1562.037,274.034,1560.921,277.558,1551.72,281.638z"/>
<path fill-rule="evenodd" clip-rule="evenodd" d="M1580.798,281.538c-6.01-7.551-6.067-9.491-0.342-16.468
	c1.943-2.367,3.801-2.736,5.658,0.255C1591.21,273.525,1589.829,277.838,1580.798,281.538z"/>
<path fill-rule="evenodd" clip-rule="evenodd" d="M1586.237,794.071c-0.977,3.72-5.329,8.413-8.154,8.583
	c-2.498,0.149-5.735-4.384-5.873-8.225c-0.108-3.034,4.79-9.629,6.52-8.516C1581.736,787.85,1583.786,791.272,1586.237,794.071z"/>
</svg>
