<?xml version="1.0" encoding="utf-8"?>
<!-- Generator: Adobe Illustrator 16.0.0, SVG Export Plug-In . SVG Version: 6.00 Build 0)  -->
<!DOCTYPE svg PUBLIC "-//W3C//DTD SVG 1.1//EN" "http://www.w3.org/Graphics/SVG/1.1/DTD/svg11.dtd">
<svg version="1.1" id="Lag_1" xmlns="http://www.w3.org/2000/svg" xmlns:xlink="http://www.w3.org/1999/xlink" x="0px" y="0px"
	 width="1532.358px" height="728.214px" viewBox="0 0 1532.358 728.214" enable-background="new 0 0 1532.358 728.214"
	 xml:space="preserve">
<path fill-rule="evenodd" clip-rule="evenodd" d="M99.302,432.109c6.73-3.045,12.289-5.559,17.847-8.072
	c0.437,0.568,0.873,1.137,1.31,1.705c-2.343,2.496-4.609,5.073-7.067,7.449c-1.027,0.992-2.645,1.37-3.684,2.354
	c-3.567,3.379-10.144,1.402-12.391,6.975c-1.886,4.676-3.672,9.393-5.467,14.105c-6.552,17.199-15.007,33.17-29.164,45.499
	c-8.397,7.312-18.18,11.356-29.215,12.325c-3.68,0.323-7.415,0.401-11.091,0.131c-1.104-0.082-2.094-1.719-3.548-3.008
	c7.693-1.253,14.34-1.608,20.519-3.498c11.642-3.562,19.601-12.086,26.513-21.738c9.52-13.294,14.695-28.629,20.741-43.559
	c0.336-0.828,0.043-1.911,0.043-2.598c-9.396-3.729-15.794,3.273-23.108,6.893c-0.362-0.424-0.724-0.849-1.086-1.273
	c0.911-1.734,1.498-3.773,2.79-5.151c5.472-5.836,11.912-9.899,20.338-9.11c3.385,0.317,5.191-0.97,6.264-4.092
	c4.23-12.306,8.868-24.479,12.757-36.891c2.238-7.144-1.281-12.571-9.111-14.989c-11.528-3.56-23.208-4.82-35.386-3.266
	c-11.546,1.474-22.238,4.225-31.928,11.02c-12.74,8.934-18.404,25.936-11.864,39.938c3.073,6.58,8.906,10.915,16.381,12.178
	c3.547,0.6,7.201,0.566,10.753,1.146c1.185,0.194,2.203,1.406,3.298,2.153c-0.839,0.852-1.649,2.412-2.521,2.447
	c-9.908,0.404-19.511-0.786-28.609-5.249c-6.727-3.3-10.559-8.746-12.373-15.604c-4.227-15.981,2.528-32.55,17.254-41.166
	c11.61-6.793,23.997-10.438,37.406-11.835c17.446-1.819,34.336-0.127,50.964,5.132c1.389,0.438,2.732,1.04,4.066,1.635
	c4.577,2.037,6.241,5.272,4.519,10.218c-5.134,14.742-10.154,29.523-15.211,44.293C100.036,429.204,99.909,429.83,99.302,432.109z"
	/>
<path fill-rule="evenodd" clip-rule="evenodd" d="M319.505,200.745c-2.612,1.25-5.226,2.5-7.839,3.75
	c-0.375-0.204-0.75-0.407-1.126-0.61c0.774-1.633,1.11-4.014,2.398-4.765c5.191-3.028,10.603-5.718,16.104-8.146
	c1.372-0.605,3.642-0.196,4.98,0.608c0.593,0.357,0.229,2.975-0.261,4.368c-11.068,31.469-22.229,62.905-33.332,94.361
	c-1.734,4.912-3.344,9.871-4.869,14.852c-0.496,1.62-0.54,3.379-0.859,5.539c3.922-1.264,7.121-2.294,10.319-3.324
	c0.206,0.562,0.413,1.122,0.619,1.684c-5.271,5.765-11.889,9.51-19.202,12.092c-3.196,1.128-3.841-1.103-3.573-3.552
	c0.253-2.312,0.917-4.578,1.15-5.684c-6.515,3.258-13.122,7.652-20.393,9.803c-4.597,1.359-10.331-0.038-15.29-1.267
	c-6.077-1.506-7.802-6.904-8.511-12.494c-3.113-24.508,21.645-53.073,41.052-57.566c7.073-1.638,13.727-2.041,18.787,4.462
	c0.722,0.927,1.265,1.991,2.592,2.754c6.228-19.05,14.57-36.888,18.838-56.014C320.562,201.312,320.034,201.028,319.505,200.745z
	 M295.807,271.394c0.004-15.562-7.753-20.295-19.052-14.36c-0.86,0.452-1.731,0.925-2.488,1.525
	c-15.375,12.21-23.438,27.918-22.4,47.768c0.386,7.373,5.416,10.804,12.591,9.175c7.762-1.763,13.156-6.627,17.79-12.859
	C289.81,292.471,294.624,281.311,295.807,271.394z"/>
<path fill-rule="evenodd" clip-rule="evenodd" d="M238.459,492.529c-4.08,7.229-14.585,12.895-20.577,11.833
	c-1.158-0.206-2.877-1.898-2.9-2.938c-0.057-2.55,0.372-5.243,1.224-7.661c5.134-14.567,10.413-29.084,15.717-43.591
	c1.078-2.946,2.732-6.373-0.522-8.266c-2.123-1.235-5.546-0.951-8.203-0.422c-8.608,1.715-13.493,7.209-16.382,15.549
	c-4.734,13.666-10.242,27.069-15.614,40.508c-1.702,4.257-5.168,6.566-11.242,6.982c1.712-5.262,3.111-9.992,4.784-14.625
	c5.303-14.682,10.75-29.312,15.999-44.015c0.438-1.226,0.328-3.404-0.456-4.114c-0.944-0.854-3.065-1.176-4.362-0.756
	c-12.743,4.128-22.055,11.694-26.477,25.008c-3.685,11.096-8.229,21.929-12.866,32.674c-1.716,3.976-5.901,5.278-11.345,6.253
	c3.729-10.341,7.1-19.692,10.474-29.043c3.367-9.33,6.783-18.644,10.049-28.01c0.405-1.162,0.021-2.599,0.002-3.908
	c-1.374,0.179-2.806,0.172-4.107,0.581c-1.772,0.556-3.446,1.428-5.162,2.165c-0.391-0.443-0.781-0.886-1.172-1.329
	c1.673-1.919,3.001-4.441,5.089-5.634c4.624-2.642,9.54-4.851,14.526-6.734c1.755-0.663,4.063,0.137,6.119,0.269
	c-0.126,1.84-0.157,3.693-0.408,5.516c-0.189,1.375-0.66,2.711-1.143,4.606c10.035-5.771,19.761-10.354,30.809-10.89
	c5.744-0.279,6.263,0.625,4.847,5.919c5.743-1.78,11.668-3.595,17.58-5.455c7.108-2.236,14.493,1.088,11.051,10.782
	c-4.457,12.554-9.273,24.98-13.934,37.463c-1.537,4.114-3.15,8.203-4.545,12.365c-0.304,0.906-0.169,2.404,0.411,3.016
	c0.443,0.467,1.988,0.186,2.903-0.146C231.522,495.431,234.352,494.199,238.459,492.529z"/>
<path fill-rule="evenodd" clip-rule="evenodd" d="M305.525,128.144c-5.79,6.742-12.946,10.235-22.293,9.168
	c-1.943-7.718,2.352-14.002,4.601-20.64c4.019-11.861,8.518-23.561,12.491-35.438c0.623-1.862,0.258-5.026-0.978-6.268
	c-1.234-1.24-4.155-1.159-6.299-1.031c-1.882,0.113-3.7,1.132-5.566,1.685c-7.211,2.138-10.272,7.758-12.734,14.293
	c-5.221,13.856-10.699,27.619-16.352,41.306c-1.798,4.352-5.064,7.25-10.994,5.735c3.793-10.46,7.503-20.681,11.206-30.903
	c3.158-8.721,6.418-17.407,9.356-26.201c0.51-1.526,0.187-3.959-0.776-5.134c-0.673-0.821-3.258-0.681-4.705-0.167
	c-12.49,4.435-21.402,12.37-25.771,25.354c-3.419,10.163-7.676,20.053-11.762,29.98c-2.651,6.441-5.507,8.075-11.544,6.862
	c4.131-11.366,8.25-22.651,12.334-33.95c2.709-7.494,5.399-14.996,8.01-22.524c0.327-0.942,0.118-2.069,0.157-3.111
	c-1.193,0.051-2.462-0.143-3.562,0.203c-1.963,0.617-3.825,1.559-5.729,2.364c-0.406-0.399-0.812-0.799-1.218-1.197
	c1.586-1.92,2.8-4.554,4.834-5.616c4.875-2.546,10.033-4.673,15.273-6.363c4.623-1.49,6.286,0.398,5.17,5.146
	c-0.358,1.524-0.954,2.993-1.534,4.773c11.593-5.849,22.631-11.964,36.142-9.836c-0.186,2.211-0.313,3.73-0.379,4.521
	c6.713-1.598,13.373-3.357,20.11-4.739c6.855-1.405,10.417,1.512,8.65,8.128c-2.59,9.696-6.375,19.08-9.787,28.548
	c-2.648,7.347-5.578,14.592-8.209,21.945c-0.564,1.578-0.379,3.424-0.594,5.733c4.714-1.781,8.244-3.114,11.774-4.448
	C305.073,126.929,305.299,127.536,305.525,128.144z"/>
<path fill-rule="evenodd" clip-rule="evenodd" d="M347.182,137.573c1.494-4.832,2.559-8.884,3.992-12.8
	c5.482-14.975,11.143-29.884,16.55-44.885c0.547-1.52,0.398-3.908-0.488-5.111c-0.601-0.814-3.173-0.665-4.672-0.251
	c-15.214,4.201-23.318,14.939-27.897,29.501c-2.971,9.444-7.199,18.495-10.921,27.7c-1.692,4.186-5.311,5.28-10.96,6.188
	c2.164-6.292,3.921-11.567,5.789-16.803c4.758-13.332,9.598-26.635,14.297-39.987c0.417-1.185,0.047-2.646,0.042-3.978
	c-1.297,0.204-2.651,0.24-3.877,0.655c-1.49,0.505-2.873,1.328-4.303,2.013c-0.419-0.318-0.838-0.638-1.257-0.956
	c0.822-1.645,1.228-4.148,2.538-4.785c5.946-2.886,12.047-5.539,18.293-7.688c3.913-1.346,5.161,0.218,4.036,4.053
	c-0.497,1.691-1.087,3.355-1.985,6.105c11.946-5.738,22.956-12.038,36.302-10.087c0.096,2.115,0.17,3.749,0.214,4.718
	c6.368-1.599,12.76-3.207,19.153-4.808c6.865-1.719,11.529,3.013,9.487,9.561c-2.271,7.283-5.054,14.411-7.726,21.564
	c-3.303,8.842-6.782,17.618-10.042,26.476c-0.705,1.916-0.799,4.058-1.387,7.244c4.563-1.956,8.051-3.451,11.539-4.946
	c0.318,0.23,0.636,0.46,0.954,0.69c-0.577,1.24-0.835,3.165-1.783,3.606c-5.388,2.504-10.777,5.328-16.489,6.706
	c-4.389,1.059-5.834-1.128-4.377-5.486c3.71-11.101,7.729-22.099,11.562-33.16c2.129-6.143,4.249-12.293,6.152-18.508
	c1.245-4.064-1.574-7.632-5.462-6.478c-5.268,1.562-11.265,2.982-15.064,6.499c-3.492,3.232-4.613,9.11-6.563,13.911
	c-5.082,12.516-10.012,25.094-15.077,37.617C356.083,135.79,352.663,137.288,347.182,137.573z"/>
<path fill-rule="evenodd" clip-rule="evenodd" d="M245.437,686.797c3.479-9.689,6.917-19.305,10.384-28.907
	c9.774-27.068,19.565-54.131,29.328-81.203c0.494-1.368,1.02-2.797,1.103-4.223c0.085-1.481-0.35-2.992-0.558-4.491
	c-1.291,0.326-2.595,0.608-3.87,0.988c-1.876,0.56-3.731,1.188-6.156,1.967c1.988-7.438,15.439-14.231,24.897-12.79
	c-8.225,23.373-16.388,46.566-24.203,68.773c5.716-3.072,11.749-7.351,18.46-9.653c7.881-2.705,16.333-2.735,22.533,4.395
	c5.15,5.923,5.432,13.387,4.022,20.58c-3.912,19.978-16.257,34.044-33.331,43.921c-5.357,3.099-11.816,6.221-18.57,3.207
	c-1.275-0.569-2.24-2.807-2.431-4.384c-0.082-0.684,2.146-2.337,3.356-2.369c6.556-0.172,13.255,0.679,18.745-4.208
	c10.001-8.903,18.351-18.856,19.589-32.887c0.377-4.275,0.65-8.897-0.552-12.904c-2.686-8.95-12.228-11.717-20.371-6.62
	c-9.948,6.228-16.91,14.543-20.368,26.035c-2.805,9.322-6.604,18.355-10.157,27.439C254.76,685.927,251.499,687.911,245.437,686.797
	z"/>
<path fill-rule="evenodd" clip-rule="evenodd" d="M160.141,321.936c1.812-5.966,3.098-10.95,4.831-15.774
	c7.042-19.595,14.259-39.128,21.338-58.71c4.589-12.694,9.062-25.432,13.558-38.16c0.539-1.527,1.055-3.1,1.265-4.693
	c0.122-0.926-0.088-2.287-0.698-2.808c-0.597-0.509-2.017-0.515-2.857-0.186c-2.094,0.821-4.064,1.959-7.154,2.271
	c0.744-1.569,1.067-3.864,2.305-4.581c5.341-3.095,10.888-5.862,16.509-8.422c1.261-0.574,3.552-0.349,4.562,0.484
	c0.716,0.592,0.457,2.959-0.015,4.307c-7.461,21.332-15.028,42.627-22.56,63.934c-0.151,0.43-0.167,0.907-0.046,0.212
	c6.091-3.017,12.431-7.087,19.361-9.339c7.718-2.507,15.699-2.146,21.667,4.919c4.077,4.827,5.418,10.672,4.467,16.61
	c-3.512,21.94-15.895,37.774-35.252,47.982c-4.54,2.395-10.311,2.661-15.589,3.292c-1.182,0.141-3.385-2.076-3.869-3.604
	c-0.941-2.968,1.344-3.954,3.931-4.17c0.331-0.028,0.679-0.07,0.997-0.003c15.51,3.326,22.323-8.306,29.735-17.973
	c5.8-7.563,7.795-16.682,7.271-26.431c-0.633-11.778-9.862-17.237-20.404-11.931c-12.548,6.315-18.655,17.21-22.768,29.923
	c-2.75,8.504-6.062,16.833-9.309,25.169C169.719,318.621,165.916,320.456,160.141,321.936z"/>
<path fill-rule="evenodd" clip-rule="evenodd" d="M1183.373,263.228c2.779-8.091,15.689-14.347,25.862-13.282
	c-0.839,3.303-1.359,6.609-2.512,9.679c-5.945,15.835-12.126,31.582-18.012,47.438c-0.721,1.943-1.055,5.215,0.024,6.328
	c1.226,1.267,4.42,1.495,6.45,0.975c13.404-3.438,22.732-11.548,27.586-24.716c4.273-11.594,8.688-23.14,13.293-34.605
	c1.804-4.491,5.593-6.046,11.29-5.245c-1.724,5.082-3.165,9.824-4.93,14.442c-5.106,13.374-10.467,26.653-15.414,40.084
	c-0.878,2.381-0.765,5.419-0.243,7.977c4.468,21.929-9.593,44.876-31.691,48.688c-12.356,2.132-25.604,2.161-35.515-8.392
	c-1.435-1.528-2.289-3.941-2.607-6.064c-0.226-1.507,0.737-4.5,1.457-4.593c2.057-0.264,4.789-0.044,6.298,1.174
	c3.66,2.952,6.368,7.167,10.189,9.822c12.228,8.492,34.356,2.962,39.786-14.599c2.841-9.187,2.628-18.707,1.742-28.006
	c-7.516,3.532-14.505,7.217-21.813,10.086c-3.695,1.45-7.963,1.468-11.982,2.059c-4.194,0.617-6.152-1.977-5.68-5.463
	c0.78-5.753,1.968-11.549,3.835-17.037c4.083-12.005,8.734-23.815,13.046-35.745c0.433-1.194,0.13-2.655,0.168-3.993
	c-1.314,0.19-2.671,0.24-3.935,0.605C1188.144,261.398,1186.287,262.174,1183.373,263.228z"/>
<path fill-rule="evenodd" clip-rule="evenodd" d="M1246.769,125.543c-9.293,7.976-19.031,11.999-29.635,13.715
	c-9.554,1.546-10.9-2.805-8.791-12.331c2.056-9.286,6.157-18.123,9.412-27.139c2.32-6.427,4.776-12.805,7.045-19.249
	c0.362-1.03,0.056-2.297,0.059-3.453c-1.203,0.095-2.475-0.026-3.593,0.332c-1.952,0.626-3.81,1.547-5.706,2.344
	c-0.363-0.299-0.727-0.599-1.09-0.897c0.657-1.432,0.937-3.626,2.033-4.167c6.058-2.993,12.188-5.938,18.547-8.187
	c4.198-1.484,5.597,0.052,4.122,4.079c-4.64,12.673-9.565,25.24-14.349,37.859c-1.9,5.016-3.982,9.987-5.452,15.13
	c-0.623,2.183-0.771,5.654,0.488,6.897c1.259,1.245,4.696,1.021,6.915,0.438c14.495-3.806,23.144-13.572,28.067-27.444
	c3.918-11.037,8.258-21.954,13.12-32.602c1.112-2.437,5.137-3.543,7.821-5.263c0.431,1.422,1.574,3.092,1.18,4.226
	c-3.21,9.216-6.688,18.339-10.125,27.474c-2.981,7.922-6.546,15.673-8.833,23.787c-1.396,4.952-1.347,10.47-1.103,15.694
	c0.619,13.22-3.303,24.621-13.868,32.652c-5.153,3.917-11.498,7.382-17.756,8.481c-10.892,1.914-22.01,1.021-31.732-5.52
	c-3.909-2.629-6.332-6.068-5.811-11.23c0.367-3.626,2.323-4.39,4.995-3.099c2.145,1.036,4.271,2.727,5.63,4.67
	c7.338,10.5,18.203,12.602,30.09,9.401c10.717-2.885,16.64-12.398,18.241-22.73c0.931-6.004,0.85-12.173,1.066-18.272
	C1247.811,129.643,1247.248,128.122,1246.769,125.543z"/>
<path fill-rule="evenodd" clip-rule="evenodd" d="M837.918,442.104c-4.024,1.882-6.752,3.156-9.479,4.432
	c-0.351-0.244-0.701-0.488-1.053-0.732c0.889-1.654,1.36-4.076,2.741-4.828c5.252-2.861,10.733-5.341,16.273-7.609
	c1.608-0.659,3.698-0.141,5.567-0.162c-0.019,2.001,0.069,4.01-0.097,5.998c-0.104,1.251-0.59,2.471-0.537,2.262
	c5.971-2.6,12.487-6.124,19.427-8.295c10.132-3.169,18.475,3.592,19.083,14.376c0.51,9.041-2.693,17.156-6.611,24.823
	c-5.892,11.528-13.956,21.518-25.229,28.322c-9.017,5.443-18.574,6.931-28.865,2.331c-4.039,8.695-7.932,17.794-12.455,26.567
	c-3.087,5.987-7.034,11.649-13.739,14.192c-3.079,1.167-6.468,1.517-9.717,2.236c-0.256-0.514-0.513-1.026-0.769-1.54
	c0.744-0.805,1.396-2.188,2.248-2.323c8.829-1.406,12.293-8.51,15.125-15.308c5.183-12.442,9.532-25.242,13.946-37.991
	c4.578-13.224,8.859-26.549,13.162-39.865C837.54,447.137,837.517,445.082,837.918,442.104z M835.668,488.823
	c-0.763,10.187,5.567,15.452,16.604,9.74c2.007-1.038,4.002-2.263,5.668-3.771c11.891-10.765,18.223-24.522,20.76-40.088
	c0.78-4.786,0.071-10.052-4.403-12.821c-4.603-2.847-9.897-2.223-14.323,1.017c-3.361,2.46-6.715,5.172-9.318,8.382
	C841.794,462.204,837.43,475.029,835.668,488.823z"/>
<path fill-rule="evenodd" clip-rule="evenodd" d="M704.523,285.526c-11.197,6.475-17.451,15.992-20.696,27.799
	c-1.409,5.128-5.365,7.402-11.386,8.315c1.671-5.321,2.981-10.091,4.656-14.729c8.509-23.568,17.151-47.088,25.664-70.654
	c3.482-9.641,6.864-19.32,10.021-29.07c0.541-1.671-0.283-3.784-0.477-5.693c-1.498,0.488-3.018,0.921-4.487,1.481
	c-1.341,0.511-2.629,1.161-5.219,1.025c0.636-1.482,0.856-3.665,1.977-4.326c5.167-3.052,10.506-5.852,15.963-8.349
	c1.525-0.698,3.666-0.054,5.523-0.024c-0.062,1.686,0.286,3.515-0.248,5.035c-10.08,28.71-20.265,57.383-30.423,86.066
	c-0.527,1.49-1.006,2.998-1.874,5.594c7.075-6.25,13.255-11.834,19.572-17.257c7.925-6.803,15.439-14.242,25.438-18.086
	c2.075-0.798,4.547-1.35,6.67-1c1.871,0.308,3.51,2.031,5.251,3.13c-1.642,1.233-3.271,3.499-4.926,3.519
	c-6.716,0.076-12.589,2.279-17.704,6.264c-4.806,3.743-9.247,7.973-13.645,12.199c-0.775,0.746-1.134,2.783-0.696,3.799
	c4.185,9.736,8.608,19.37,12.904,29.06c1.581,3.567,3.672,3.862,6.482,1.352c0.717-0.64,1.561-1.367,2.445-1.536
	c1.259-0.241,2.608-0.003,3.92,0.03c-0.3,1.321-0.162,3.347-0.971,3.848c-4.677,2.899-9.417,5.861-14.519,7.791
	c-1.209,0.457-4.755-2.554-5.729-4.662c-4.022-8.706-7.446-17.688-11.151-26.543C706.199,288.319,705.243,286.857,704.523,285.526z"
	/>
<path fill-rule="evenodd" clip-rule="evenodd" d="M1246.42,644.086c4.927,11.187,9.264,21.196,13.753,31.137
	c1.583,3.507,3.487,6.371,7.562,2.037c1.174-1.247,3.422-1.484,5.177-2.185c0.412,0.341,0.824,0.681,1.237,1.021
	c-0.716,1.557-1.025,3.643-2.228,4.564c-2.953,2.266-6.197,4.239-9.544,5.884c-5.021,2.468-7.763,1.249-9.917-3.793
	c-3.841-8.985-7.847-17.902-11.526-26.953c-1.516-3.729-2.918-4.279-5.789-1.235c-2.247,2.382-4.853,4.451-7.436,6.485
	c-5.914,4.656-6.163,12.049-8.852,18.233c-2.491,5.729-5.205,8.075-11.438,7.737c1.539-5.069,2.822-10.047,4.553-14.864
	c7.044-19.597,14.258-39.133,21.343-58.716c4.648-12.848,9.272-25.707,13.679-38.639c0.74-2.173,0.318-4.742,0.456-7.604
	c-4.149,1.525-7.1,2.61-10.05,3.695c-0.283-0.427-0.566-0.853-0.85-1.279c1.068-1.198,1.922-2.77,3.242-3.53
	c5.059-2.917,10.173-5.78,15.479-8.197c1.527-0.696,3.768,0.171,5.682,0.32c-0.146,1.648,0.05,3.42-0.49,4.927
	c-10.794,30.16-21.673,60.289-32.521,90.429c-0.041,0.114,0.121,0.301,0.306,0.722c8.459-7.365,16.812-14.722,25.26-21.97
	c7.066-6.064,14.067-12.363,23.557-14.372c1.907-0.404,4.184,0.125,6.072,0.817c0.83,0.305,1.636,2.167,1.494,3.19
	c-0.129,0.933-1.422,2.158-2.429,2.438c-4.675,1.302-10.074,1.261-14.019,3.663C1260.416,632.781,1253.437,638.811,1246.42,644.086z
	"/>
<path fill-rule="evenodd" clip-rule="evenodd" d="M630.378,203.717c0.716-1.477,1.038-3.641,2.214-4.312
	c5.502-3.147,11.175-6.027,16.946-8.651c1.195-0.544,3.339,0.014,4.515,0.829c0.569,0.396,0.205,2.667-0.236,3.911
	c-9.457,26.675-18.986,53.323-28.497,79.979c-1.236,3.466-2.448,6.939-2.759,11.153c3.857-3.321,7.684-6.682,11.581-9.956
	c8.046-6.758,15.959-13.69,24.268-20.11c4.41-3.408,9.619-5.835,15.511-4.964c1.39,0.205,2.586,1.718,3.871,2.63
	c-1.012,1.401-2.089,4.065-3.024,4.017c-13.921-0.729-22.411,8.772-31.636,16.68c-1.433,1.229-2.411,4.698-1.737,6.389
	c3.676,9.223,7.878,18.238,12.042,27.259c0.8,1.734,2.239,3.174,3.401,4.771c2.335-1.436,4.31-2.812,6.44-3.875
	c0.786-0.393,2.535-0.402,2.793,0.034c0.459,0.779,0.537,2.663,0.049,2.985c-4.716,3.113-9.423,6.352-14.536,8.662
	c-1.08,0.487-4.722-2.239-5.615-4.2c-4.721-10.358-8.94-20.946-13.352-31.495c-10.79,6.038-17.647,14.709-20.443,26.348
	c-1.379,5.74-5.238,8.3-11.26,10.011c0.166-2.087-0.052-3.856,0.482-5.358c7.084-19.92,14.274-39.803,21.438-59.694
	c5.677-15.763,11.364-31.521,17.011-47.294c0.547-1.526,1.036-3.125,1.18-4.724c0.096-1.059-0.169-2.476-0.847-3.166
	c-0.472-0.48-2.032-0.263-2.912,0.105c-1.932,0.81-3.74,1.913-5.599,2.896C631.237,204.289,630.808,204.003,630.378,203.717z"/>
<path fill-rule="evenodd" clip-rule="evenodd" d="M1304.972,470.979c12.141-10.172,23.837-20.551,36.221-30.031
	c4.307-3.297,10.226-4.658,15.586-6.336c2.695-0.844,4.902,0.845,4.973,3.981c0.074,3.325-2.512,2.816-4.64,2.902
	c-10.287,0.411-18.205,5.721-25.29,12.521c-8.201,7.872-8.029,7.901-3.099,18.246c3.225,6.763,6.101,13.691,9.151,20.538
	c1.515,3.398,3.475,4.183,6.676,1.615c1.551-1.245,3.803-1.615,6.385-2.638c-1.612,6.874-11.568,14.021-16.783,12.495
	c-1.926-0.563-3.889-2.869-4.757-4.853c-3.846-8.79-7.26-17.77-10.937-26.636c-0.608-1.466-1.749-2.712-2.751-4.22
	c-3.687,3.174-7.003,6.322-10.621,9.074c-5.459,4.152-6.15,10.587-8.245,16.334c-2.516,6.899-5.909,10.11-12.391,10.344
	c1.204-4.216,2.111-8.251,3.5-12.113c7.043-19.588,14.259-39.114,21.318-58.696c4.963-13.766,9.781-27.584,14.636-41.389
	c0.429-1.219,0.779-2.494,0.931-3.771c0.132-1.117-0.069-2.273-0.123-3.412c-1.391,0.113-2.877-0.044-4.146,0.409
	c-1.62,0.578-3.064,1.65-4.584,2.509c-0.462-0.288-0.923-0.577-1.385-0.865c0.64-1.479,0.872-3.468,1.984-4.355
	c8.862-7.076,17.793-9.909,22.58-7.04C1327.806,407.274,1316.415,439.056,1304.972,470.979z"/>
<path fill-rule="evenodd" clip-rule="evenodd" d="M175.863,2.606c-4.18,3.619-7.949,7.984-12.686,10.593
	c-3.112,1.714-7.66,1.398-11.495,1.1c-7.989-0.623-15.92-1.949-23.897-2.786c-13.385-1.403-26.77-2.873-40.186-3.909
	C69.707,6.221,52.498,8.925,38.774,21.33C26.61,32.325,25.068,57.226,40.859,65.756c4.26,2.301,9.616,2.615,14.501,3.695
	c1.749,0.386,3.655,0.115,5.365,0.592c0.82,0.229,1.951,1.585,1.853,2.274c-0.115,0.801-1.414,2.034-2.215,2.046
	c-13.849,0.214-27.72-0.268-37.3-12.317c-5.35-6.728-6.28-15.05-4.837-23.409C21.286,20.901,34.21,12.45,49.417,6.544
	C59.85,2.493,70.718,0.2,82.017,0.481c14.288,0.356,28.591,0.401,42.861,1.115c9.987,0.5,19.914,2.291,29.9,2.698
	c4.023,0.163,8.125-1.873,12.21-2.825c2.462-0.573,4.962-0.985,7.446-1.47C174.91,0.869,175.387,1.737,175.863,2.606z"/>
<path fill-rule="evenodd" clip-rule="evenodd" d="M1416.702,497.458c4.699-1.763,8.151-3.058,11.604-4.352
	c0.295,0.46,0.589,0.92,0.884,1.38c-0.773,1.136-1.292,2.78-2.365,3.319c-4.76,2.392-9.518,5.017-14.585,6.502
	c-5.172,1.516-6.124,0.207-6.668-5.927c-5.492,2.162-10.936,5.134-16.745,6.351c-5.387,1.129-11.39,1.409-16.728,0.248
	c-11.539-2.508-12.832-10.509-10.655-21.458c2.177-10.944,8.16-18.016,18.869-25.085c-1.332-10.774,4.92-22.176,19.423-24.791
	c5.175-0.934,10.695-0.573,15.988-0.065c6.979,0.669,12.958,5.884,13.743,12.663c0.571,4.934,0.208,10.329-1.227,15.069
	c-3.051,10.086-7.123,19.861-10.644,29.812C1416.998,492.82,1417.062,494.753,1416.702,497.458z M1371.445,489.059
	c0.868,2.247,1.541,6.127,3.644,8.936c3.194,4.268,13.593,3.697,19.822-0.084c11.637-7.062,17.882-17.728,20.89-30.609
	c2.144-9.181-4.628-16.205-13.743-13.776c-5.051,1.346-10.379,3.159-14.487,6.228
	C1378.417,466.588,1373.486,476.312,1371.445,489.059z M1420.107,453.734c3.017-4.992,0.245-8.264-2.254-11.747
	c-4.07-5.675-13.085-5.339-18.113-3.372c-5.854,2.289-9.762,8.071-9.538,13.407C1400.215,449.096,1410.237,446.013,1420.107,453.734
	z"/>
<path fill-rule="evenodd" clip-rule="evenodd" d="M912.914,458.229c-2.929-5.953,3.269-17.656,8.729-20.683
	c9.615-5.327,19.675-6.743,30.2-3c8.109,2.883,12.354,13.543,9.105,23.35c-3.685,11.122-7.654,22.149-11.377,33.259
	c-0.579,1.727-0.5,3.673-0.826,6.351c4.449-1.744,7.894-3.094,11.338-4.442c0.304,0.353,0.606,0.705,0.91,1.058
	c-0.486,1.046-0.697,2.646-1.504,3.048c-5.197,2.583-10.363,5.409-15.855,7.168c-5.377,1.723-6.418-2.131-5.955-6.245
	c-5.712,2.349-11.151,5.428-16.987,6.733c-5.222,1.169-11.103,1.396-16.302,0.256c-11.935-2.618-13.081-10.354-11.057-21.343
	C895.416,472.44,902.661,464.15,912.914,458.229z M903.412,489.938c0.843,1.981,1.594,5.448,3.556,7.978
	c3.214,4.146,13.83,3.676,19.92,0.022c11.725-7.033,17.651-17.974,20.881-30.671c2.313-9.099-4.617-16.18-13.695-13.752
	c-5.042,1.348-10.378,3.138-14.464,6.213C910.208,466.808,905.147,476.772,903.412,489.938z M922.023,452.294
	c15.449-5.255,21.257-4.399,30.103,1.159c3.252-3.999,0.758-7.444-1.434-10.418c-3.942-5.351-10.521-6.931-17.232-4.755
	C926.482,440.542,922.292,445.497,922.023,452.294z"/>
<path fill-rule="evenodd" clip-rule="evenodd" d="M633.297,130.374c3.936-0.38,6.652-5.172,11.713-2.829
	c-6.259,7.369-13.49,10.823-23.019,9.741c-0.125-2.293-0.239-4.378-0.316-5.792c-7.095,2.571-14.009,5.685-21.245,7.527
	c-7.062,1.799-14.464,0.449-20.127-4.031c-4.555-3.604-5.464-9.822-4.327-15.464c2.106-10.459,7.37-19.053,16.312-25.363
	c1.802-1.271,3.276-4.243,3.37-6.494c0.483-11.688,10.671-19.903,21.051-21.101c4.133-0.478,8.367-0.13,12.554-0.07
	c12.12,0.171,18.578,13.411,15.995,21.898c-3.45,11.337-7.748,22.415-11.599,33.634C632.73,124.734,630.069,127.507,633.297,130.374
	z M587.808,121.479c0,9.582,3.268,13.728,11.14,12.852c4.221-0.47,8.77-1.753,12.291-4.03c10.269-6.642,16.549-16.27,19.718-28.208
	c1.559-5.87,1.126-11.056-4.173-13.692c-3.629-1.806-8.742-2.239-12.763-1.349C601.076,89.92,586.135,109.016,587.808,121.479z
	 M604.475,85.751c10.994-3.539,21.52-6.264,31.293,1.407c2.243-6.695-1.664-13.88-9.101-16.182
	C618.889,68.568,608.32,72.608,604.475,85.751z"/>
<path fill-rule="evenodd" clip-rule="evenodd" d="M1474.62,130.876c4.621-1.704,8.459-3.118,12.298-4.533
	c0.201,0.591,0.402,1.182,0.604,1.772c-5.722,6.787-12.986,10.045-22.477,9.231c-0.141-2.24-0.271-4.339-0.402-6.429
	c-5.185,2.275-10.234,4.65-15.406,6.721c-6.478,2.593-13.19,2.398-19.792,0.624c-7.771-2.089-12.386-10.72-10.462-19.084
	c2.404-10.451,7.652-18.959,16.58-25.235c1.684-1.185,3.156-4.071,3.086-6.116c-0.379-11.091,11.227-20.327,20.888-21.279
	c3.653-0.36,7.413-0.432,11.052-0.009c14.854,1.726,21.353,11.729,16.66,25.958c-3.614,10.959-7.804,21.728-11.642,32.614
	C1475.041,126.715,1475.008,128.505,1474.62,130.876z M1430.808,121.593c0,9.358,3.1,13.464,10.742,12.724
	c4.371-0.423,9.084-1.757,12.756-4.082c10.39-6.579,16.245-16.54,19.651-28.3c1.72-5.936,0.907-11.045-4.284-13.63
	c-3.603-1.794-8.705-2.025-12.767-1.178C1444.261,89.766,1429.024,109.103,1430.808,121.593z M1478.583,87.074
	c2.095-4.292,1.521-7.327-2.173-11.493c-4.57-5.153-11.104-6.577-17.991-3.918c-5.527,2.134-9.977,8.073-10.11,13.498
	C1466.998,80.025,1472.554,82.466,1478.583,87.074z"/>
<path fill-rule="evenodd" clip-rule="evenodd" d="M305.191,497.856c4.861-1.969,8.432-3.415,12.002-4.86
	c0.232,0.554,0.465,1.106,0.698,1.66c-4.469,5.734-10.785,8.545-17.771,9.728c-4.729,0.801-4.846,0.315-5.679-6.422
	c-5.58,2.383-11.009,5.872-16.865,6.881c-6.163,1.062-12.915,0.585-19.078-0.748c-6.681-1.445-9.775-8.757-9.224-15.678
	c0.999-12.539,7.817-21.158,17.306-28.393c1.127-0.859,2.016-2.66,2.144-4.102c1.061-11.889,5.864-18.416,17.862-21.561
	c5.328-1.396,11.432-1.861,16.775-0.763c13.651,2.805,18.901,13.973,13.828,27.082c-4.109,10.621-8.057,21.306-11.933,32.014
	C304.78,494.012,305.191,495.648,305.191,497.856z M304.812,466.158c-0.017-9.284-5.939-14.438-12.516-13.514
	c-18.475,2.594-32.806,22.84-31.579,37.771c0.602,7.331,4.124,10.643,11.41,10.403c11.074-0.363,18.355-7.011,24.312-14.942
	C301.183,479.562,304.559,472.162,304.812,466.158z M278.158,452.401c10.618-3.8,21.129-6.039,31.21,1.218
	c2.248-8.307-4.152-15.231-10.493-16.083C288.181,436.101,280.397,441.686,278.158,452.401z"/>
<path fill-rule="evenodd" clip-rule="evenodd" d="M148.003,687.096c-0.185-2.184-0.345-4.089-0.579-6.865
	c-8.356,6.277-16.96,9.253-26.46,9.235c-11.903-0.021-18.28-4.478-18.654-15.91c-0.207-6.309,3.271-13.093,6.327-19.024
	c1.993-3.867,6.175-6.626,9.449-9.808c2.155-2.095,3.525-4.103,3.917-7.518c1.377-11.992,8.841-19.01,21.253-20.599
	c4.921-0.63,10.165-0.743,14.985,0.251c10.665,2.2,16.338,13.217,12.693,24.027c-3.844,11.401-8.117,22.657-12.05,34.029
	c-0.515,1.487-0.124,3.288-0.153,4.944c1.65-0.268,3.306-0.508,4.95-0.809c2.258-0.413,4.508-0.872,6.761-1.312
	c-1.372,1.573-2.493,3.515-4.161,4.654C160.909,686.063,155.131,688.657,148.003,687.096z M113.808,671.936
	c-0.002,10.377,4.68,13.402,14.499,11.947c16.098-2.386,27.442-21.784,29.438-34.32c1.107-6.953-1.215-11.055-7.232-12.67
	c-2.79-0.749-6.07-0.842-8.875-0.173C126.615,640.302,113.474,657.344,113.808,671.936z M161.927,637.246
	c2.245-5.59,0.04-9.253-3.632-12.893c-4.623-4.582-9.792-4.721-15.333-2.79c-6.798,2.37-10.863,7.172-12.227,14.557
	C141.408,631.919,151.61,629.536,161.927,637.246z"/>
<path fill-rule="evenodd" clip-rule="evenodd" d="M156.854,311.772c-4.99,6.056-11.937,8.665-19.448,9.557
	c-3.97,0.472-3.877-3.096-3.328-7.301c-2.145,1.05-3.542,1.622-4.828,2.382c-9.384,5.537-19.307,7.693-30.084,5.105
	c-7.945-1.909-13.087-10.258-11.155-18.424c2.571-10.869,8.013-19.849,17.215-26.458c1.216-0.874,2.425-2.688,2.476-4.109
	c0.561-15.554,12.048-21.81,23.892-23.013c1.648-0.168,3.339,0.104,4.991-0.043c15.434-1.372,25.207,11.759,19.67,27.122
	c-3.856,10.702-7.72,21.401-11.472,32.141c-0.422,1.208-0.134,2.665-0.175,4.006c1.506-0.104,3.07,0.014,4.504-0.365
	c2.409-0.636,4.734-1.586,7.094-2.404C156.422,310.569,156.638,311.171,156.854,311.772z M99.808,305.165
	c0,7.979,2.107,11.62,7.592,12.245c5.47,0.625,10.611-0.475,15.482-3.363c11.153-6.614,16.458-16.929,20.202-28.873
	c3.063-9.771-3.841-17.284-14.147-15.591C113.43,272.132,98.704,291.416,99.808,305.165z M148.408,270.971
	c1.032-10.338-5.013-17.662-14.066-17.413c-8.405,0.23-17.967,7.753-16.936,15.412C127.797,264.924,138.086,262.883,148.408,270.971
	z"/>
<path fill-rule="evenodd" clip-rule="evenodd" d="M1443.581,314.021c4.842-1.537,8.738-2.774,13.899-4.414
	c-2.837,6.1-7.47,7.597-11.507,9.75c-1.251,0.668-2.798,0.802-4.221,1.128c-7.209,1.651-7.578,1.397-8.344-6.347
	c-1.552,0.839-2.863,1.486-4.114,2.234c-9.362,5.596-19.295,7.71-30.068,5.143c-8.2-1.955-13.132-10.395-11.075-18.836
	c2.651-10.888,8.131-19.787,17.47-26.234c1.095-0.755,2.054-2.525,2.098-3.857c0.511-15.439,11.938-22.188,24.312-23.028
	c3.921-0.267,8.096-0.412,11.813,0.616c13.155,3.639,17.209,15.081,11.357,29.585c-3.951,9.792-7.321,19.819-10.896,29.761
	C1443.932,310.556,1443.935,311.726,1443.581,314.021z M1399.808,304.838c-0.001,8.184,1.907,11.819,7.27,12.539
	c5.443,0.73,10.685-0.272,15.541-3.144c11.274-6.665,16.849-17.043,20.523-29.216c2.943-9.749-4.009-17.23-14.375-15.412
	C1413.121,272.351,1398.894,291.485,1399.808,304.838z M1417.122,268.306c5.366-0.954,10.638-2.768,15.833-2.571
	c5.267,0.199,10.459,2.384,15.598,3.678c0.9-8.544-3.877-14.91-13.201-15.803C1428.601,252.963,1417.475,258.89,1417.122,268.306z"
	/>
<path fill-rule="evenodd" clip-rule="evenodd" d="M507.885,492.887c-0.917,7.211-11.687,12.223-20.896,11.179
	c-0.112-2.034-0.229-4.134-0.348-6.293c-5.494,2.321-10.646,5.469-16.204,6.585c-6.004,1.206-12.58,1.532-18.562,0.407
	c-8.919-1.676-12.927-10.593-10.773-20.097c2.449-10.811,8.96-18.582,17.424-25.16c1.089-0.847,2.225-2.548,2.174-3.807
	c-0.461-11.403,6.985-19.371,17.105-21.434c6.693-1.364,14.154-1.633,20.758-0.132c9.659,2.194,14.54,13.65,10.835,24.199
	c-3.83,10.901-7.797,21.755-11.684,32.637c-0.377,1.057-0.822,2.159-0.859,3.254c-0.106,3.166,1.356,3.743,4.022,2.262
	C503.172,495.213,505.546,494.081,507.885,492.887z M452.808,487.859c0,0.831-0.001,1.663,0,2.495
	c0.011,7.216,2.122,10.495,9.171,10.441c5.046-0.038,10.694-1.64,14.982-4.302c10.653-6.616,15.926-17.09,19.085-29.123
	c2.682-10.21-4.965-15.192-12.231-14.627C466.697,454.077,452.037,473.484,452.808,487.859z M470.346,452.342
	c10.119-3.781,20.208-6.036,29.862,1.144c2.198-3.588,1.934-6.694-0.733-9.854c-5.316-6.298-11.261-7.858-18.943-5.182
	C475.28,440.279,469.283,446.939,470.346,452.342z"/>
<path fill-rule="evenodd" clip-rule="evenodd" d="M1249.581,495.115c-5.891,6.405-13.311,9.304-22.438,9.502
	c-0.195-2.381-0.366-4.464-0.576-7.014c-4.729,2.211-9.118,5.286-13.935,6.266c-6.533,1.329-13.505,2.008-20.083,1.229
	c-8.57-1.016-13.445-9.817-11.676-18.67c2.199-11,8.214-19.433,17.116-26.08c1.356-1.013,2.77-3.17,2.676-4.708
	c-0.582-9.54,7.769-19.417,16.806-21.481c8.144-1.859,16.013-2.965,23.842,1.181c6.903,3.656,11.349,12.67,8.908,20.174
	c-3.869,11.892-8.32,23.594-12.323,35.444c-0.603,1.783-0.114,3.935-0.131,5.915c1.68-0.62,3.332-1.336,5.047-1.835
	c2.079-0.605,4.212-1.028,6.322-1.531C1249.284,494.043,1249.432,494.579,1249.581,495.115z M1236.782,463.565
	c0.562-4.895-2.101-8.064-6.177-9.603c-4.256-1.606-8.738-1.355-13.201,0.303c-14.441,5.369-26.526,22.111-24.684,38.026
	c0.507,4.373,2.315,7.438,6.481,8.021c3.521,0.492,7.367,0.293,10.812-0.599C1225.072,495.816,1235.18,477.369,1236.782,463.565z
	 M1241.125,454.62c1.7-5.823-0.062-10.263-3.489-13.547c-4.651-4.455-10.609-4.776-16.536-2.644
	c-6.412,2.309-10.511,6.613-11.196,13.961C1220.631,448.848,1230.902,445.829,1241.125,454.62z"/>
<path fill-rule="evenodd" clip-rule="evenodd" d="M653.485,680.199c5.325,0.714,8.18-5.318,13.346-2.671
	c-4.474,6.124-10.559,8.756-17.237,9.864c-6.023,1-7.311-0.648-6.215-6.39c-5.013,2.212-9.997,4.733-15.209,6.628
	c-6.438,2.34-13.153,2.527-19.768,0.636c-8.558-2.447-12.765-10.865-10.293-20.429c2.645-10.233,8.559-18.186,16.955-24.53
	c1.425-1.077,2.704-3.521,2.606-5.253c-0.649-11.545,12.042-21.266,21.589-21.498c5.268-0.129,10.754-0.389,15.786,0.854
	c10.097,2.493,14.991,13.139,11.325,23.91c-3.663,10.764-7.732,21.388-11.503,32.116
	C654.137,675.515,653.961,677.787,653.485,680.199z M609.808,671.924c0,8.66,2.211,12.652,8.209,12.354
	c5.048-0.252,10.647-1.214,14.885-3.738c11.785-7.021,17.563-18.528,20.669-31.532c1.197-5.015-2.302-11.321-7.481-12.246
	c-3.321-0.592-7.005-0.421-10.303,0.356C622.887,640.158,607.94,658.689,609.808,671.924z M627.164,635.44
	c10.315-3.275,20.271-5.488,30.08,1.144c3.404-3.677,0.604-7.001-0.899-9.783c-2.646-4.896-10.592-7.562-16.091-6.062
	C633.349,622.622,626.83,628.603,627.164,635.44z"/>
<path fill-rule="evenodd" clip-rule="evenodd" d="M1492.849,497.505c4.562-1.801,7.924-3.128,11.287-4.455
	c0.301,0.379,0.603,0.759,0.903,1.138c-0.521,1.046-0.774,2.639-1.609,3.05c-5.2,2.562-10.352,5.491-15.872,7.055
	c-4.855,1.376-6.226-0.756-5.36-7.349c-1.457,0.891-2.507,1.439-3.455,2.126c-9.422,6.829-20.107,7.837-30.986,5.727
	c-10.948-2.125-12.487-11.886-10.323-21.345c2.277-9.949,8.417-17.464,16.43-23.632c1.402-1.08,2.949-3.328,2.789-4.865
	c-1.074-10.277,8.46-19.576,18.684-21.306c4.884-0.826,10.177-1.094,14.988-0.133c13.89,2.774,19.035,12.07,14.54,25.567
	c-3.593,10.789-7.643,21.424-11.349,32.177C1492.934,492.945,1493.104,494.89,1492.849,497.505z M1492.96,461.705
	c-0.977-1.48-2.125-4.3-4.168-6.107c-5.058-4.475-14.015-2.992-20.061,0.548c-11.547,6.76-18.13,17.066-20.8,30.039
	c-1.073,5.214,2.296,13.714,6.162,14.13c3.898,0.419,8.092,0.422,11.847-0.565C1481.073,495.771,1491.206,476.705,1492.96,461.705z
	 M1466.333,452.374c10.143-3.929,20.232-5.953,29.847,1.231c2.063-3.51,1.073-7.443-1.837-11.18
	c-5.033-6.463-13.721-5.775-18.887-3.688C1469.438,441.172,1465.74,447.09,1466.333,452.374z"/>
<path fill-rule="evenodd" clip-rule="evenodd" d="M461.753,130.907c-3.479,1.754-6.327,3.194-9.179,4.627
	c-8.73,4.384-17.708,5.202-27.015,1.984c-5.589-1.932-8.443-5.908-8.79-11.661c-0.855-14.223,6.054-24.25,16.835-32.424
	c1.182-0.896,1.993-2.884,2.142-4.444c1.184-12.387,8.422-20.625,21.84-22.391c4.754-0.626,9.808-0.714,14.486,0.188
	c10.539,2.027,16.656,12.655,13.271,23.49c-3.676,11.761-8.303,23.223-12.407,34.854c-0.488,1.383-0.298,3.005-0.421,4.517
	c1.639-0.138,3.376,0.021,4.893-0.483c2.259-0.75,4.361-1.969,7.52-2.128c-0.636,1.246-0.95,3.104-1.961,3.635
	c-4.714,2.472-9.468,5.055-14.505,6.666C464.225,138.69,460.822,137.222,461.753,130.907z M427.808,122.217
	c0.038,8.996,4.564,13.332,13.057,12.201c2.532-0.337,5.091-1.129,7.427-2.179c11.168-5.022,17.579-14.24,21.445-25.396
	c1.282-3.697,2.766-7.889,2.201-11.553c-1.391-9.021-8.153-10.05-16.387-8.479C441.469,89.497,427.747,107.658,427.808,122.217z
	 M446.164,84.67c5.4-0.753,10.546-2.161,15.635-1.98c4.804,0.171,9.548,2.014,14.833,3.24c1.918-4.013-0.179-8.209-3.424-11.312
	c-5.052-4.829-11.188-5.442-17.674-2.438C449.22,75.104,446.011,79.328,446.164,84.67z"/>
<path fill-rule="evenodd" clip-rule="evenodd" d="M1159.328,681.297c4.666-2.035,8.17-3.562,12.311-5.368
	c-0.119,1.668,0.13,2.759-0.295,3.41c-2.924,4.486-14.787,9.619-19.706,7.898c-1.571-0.55-2.193-3.812-3.228-5.79
	c-4.075,1.801-9.066,4.397-14.324,6.23c-6.614,2.306-13.458,2.439-20.258,0.344c-8.062-2.484-11.994-10.301-9.863-19.79
	c2.34-10.422,8.689-18.105,16.662-24.798c1.515-1.272,3.113-3.648,3.023-5.432c-0.573-11.457,12.033-21.26,21.718-21.446
	c5.269-0.103,10.739-0.307,15.785,0.914c9.936,2.403,14.82,12.939,11.327,23.552c-3.56,10.815-7.756,21.42-11.535,32.165
	C1160.167,675.4,1159.998,677.828,1159.328,681.297z M1115.808,672.01c0,8.544,2.299,12.602,8.293,12.271
	c5.046-0.279,10.631-1.265,14.863-3.798c12.117-7.251,17.914-19.123,20.773-32.531c0.967-4.534-3.529-10.863-8.211-11.314
	c-3.359-0.324-6.907,0.045-10.225,0.773C1128.308,640.267,1113.849,659.412,1115.808,672.01z M1163.571,636.803
	c2.403-4.637,0.263-8.051-2.094-11.026c-4.214-5.323-11.734-6.932-18.317-3.954c-5.502,2.487-10.429,6.878-9.755,13.524
	C1143.383,632.18,1153.339,629.927,1163.571,636.803z"/>
<path fill-rule="evenodd" clip-rule="evenodd" d="M1415.745,681.117c4.459-1.912,7.938-3.404,11.417-4.896
	c0.287,0.318,0.574,0.638,0.861,0.956c-0.512,1.047-0.754,2.44-1.581,3.083c-5.373,4.174-11.17,7.789-18.271,7.013
	c-1.686-0.185-3.084-2.994-4.615-4.597c0.226-0.44,0.45-0.88,0.676-1.32c-0.973,0.383-2.034,0.624-2.905,1.17
	c-10.344,6.489-21.261,9.02-33.169,4.942c-5.108-1.748-8.019-6.083-8.389-11.535c-0.972-14.287,6.226-24.185,16.801-32.486
	c1.181-0.927,2.025-2.87,2.178-4.425c1.213-12.384,8.122-20.331,21.344-22.419c6.869-1.085,13.91-1.121,20.465,2.198
	c5.397,2.733,7.448,7.52,8.25,13.108c1.285,8.97-3.348,16.509-6.018,24.504c-2.06,6.167-4.521,12.199-6.585,18.365
	C1415.656,676.416,1415.917,678.324,1415.745,681.117z M1401.429,636.487c-0.311,0.054-2.14,0.148-3.817,0.7
	c-15.592,5.134-23.572,16.91-26.651,32.164c-1.991,9.863,3.671,16.064,12.628,15.067c2.537-0.282,5.094-1.068,7.463-2.053
	c9.794-4.071,15.896-11.944,20.265-21.115c2.129-4.469,3.253-9.492,4.309-14.378C1416.79,641.479,1410.474,636.495,1401.429,636.487
	z M1418.572,637.119c2.572-4.01,2.156-8.231-1.789-12.039c-4.475-4.318-11.104-7.21-20.6-1.688c-5.074,2.951-7.73,7.664-6.53,11.814
	C1399.435,632.316,1409.182,629.289,1418.572,637.119z"/>
<path fill-rule="evenodd" clip-rule="evenodd" d="M823.894,127.157c-0.304,0.873-0.346,2.046-0.951,2.571
	c-5.448,4.735-11.576,8.285-19.02,7.524c-1.635-0.167-2.977-3.198-4.926-5.459c-1.812,0.905-4.691,2.301-7.532,3.771
	c-8.905,4.607-18.111,4.926-27.512,1.869c-4.771-1.552-7.753-6.124-8.188-11.197c-1.214-14.117,5.745-23.998,16.062-32.396
	c1.474-1.199,2.62-3.466,2.883-5.38c1.785-12.968,9.459-20.646,22.898-21.898c4.466-0.416,9.147-0.64,13.496,0.226
	c10.461,2.081,16.656,13.101,13.236,23.551c-3.891,11.888-8.394,23.574-12.531,35.383c-0.424,1.211-0.163,2.661-0.22,4
	c1.338-0.064,2.783,0.173,3.992-0.257c2.542-0.902,4.96-2.156,7.429-3.266C823.305,126.519,823.6,126.838,823.894,127.157z
	 M766.808,122.102c0.018,9.138,4.364,13.381,12.943,12.316c2.533-0.313,5.123-1.05,7.435-2.132
	c13.739-6.434,20.213-18.285,23.577-32.315c0.384-1.602,0.44-3.41,0.138-5.026c-1.635-8.73-8.695-9.59-16.244-8.182
	C780.686,89.369,766.78,107.576,766.808,122.102z M814.753,87.203c2.617-7.771-0.864-13.817-8.99-16.259
	c-9.318-2.799-18.999,3.942-21.547,15.002C794.459,82.314,804.689,79.063,814.753,87.203z"/>
<path fill-rule="evenodd" clip-rule="evenodd" d="M980.14,314.248c5.067-1.686,8.63-2.87,12.293-4.089
	c0.214,1.158,0.414,1.535,0.31,1.786c-1.626,3.91-16.025,10.83-19.921,9.368c-0.91-0.341-1.607-1.858-1.94-2.973
	c-0.395-1.323-0.291-2.795-0.373-3.829c-6.484,2.587-12.368,6.048-18.659,7.121c-5.898,1.005-12.481,0.419-18.303-1.162
	c-7.269-1.974-10.433-9.907-8.606-18.168c2.362-10.685,7.987-19.175,16.97-25.521c1.337-0.944,2.793-2.929,2.767-4.406
	c-0.253-13.715,10.434-21.715,22.907-22.732c5.313-0.435,10.913,0.18,16.117,1.427c8.197,1.966,13.519,14.031,9.532,24.593
	c-3.733,9.89-7.325,19.834-10.87,29.794C981.516,307.836,981.104,310.37,980.14,314.248z M936.857,304.928
	c-0.307,4.831-0.796,10.548,5.661,12.216c3.302,0.854,7.317,0.415,10.657-0.6c15.854-4.816,22.22-17.424,26.958-32.088
	c3.015-9.326-5.028-16.395-14.082-14.905C949.983,272.194,935.185,292.01,936.857,304.928z M983.816,270.485
	c2.936-3.461,2.576-6.401-1.298-11.654c-3.454-4.684-11.796-6.27-18.227-3.466c-6.716,2.929-10.705,8.472-9.89,13.455
	C964.437,265.655,974.44,262.143,983.816,270.485z"/>
<path fill-rule="evenodd" clip-rule="evenodd" d="M1352.049,675.706c-0.394,2.14-0.257,3.215-0.72,3.642
	c-5.604,5.163-12.037,8.727-19.859,7.884c-1.433-0.154-2.539-3.339-4.138-5.611c-0.22,0.103-1.244,0.472-2.158,1.023
	c-10.394,6.282-21.32,8.843-33.194,4.805c-4.78-1.626-7.783-6.106-8.213-11.183c-1.213-14.323,5.85-24.306,16.473-32.647
	c1.276-1.003,2.387-3.021,2.463-4.62c0.547-11.427,9.901-21.597,21.36-22.435c4.98-0.364,10.179-0.766,14.994,0.228
	c13.016,2.686,15.829,14.262,12.935,23.885c-3.602,11.973-8.269,23.624-12.381,35.446c-0.371,1.066-0.516,2.812,0.081,3.442
	c0.573,0.605,2.37,0.512,3.409,0.128C1345.793,678.7,1348.364,677.38,1352.049,675.706z M1294.808,671.321
	c-0.015,9.868,3.867,14.012,12.65,13.09c2.689-0.282,5.446-1.082,7.905-2.222c13.656-6.323,20.074-18.227,23.326-32.003
	c2.394-10.138-4.644-13.898-11.841-13.796C1309.924,636.631,1295.439,656.682,1294.808,671.321z M1342.724,637.252
	c2.681-7.796-0.763-13.803-8.926-16.277c-9.29-2.816-18.799,3.735-21.657,14.993
	C1322.426,632.293,1332.675,629.074,1342.724,637.252z"/>
<path fill-rule="evenodd" clip-rule="evenodd" d="M381.713,680.697c3.48-1.491,6.96-2.982,10.44-4.473
	c0.298,0.332,0.596,0.665,0.894,0.998c-0.633,1.144-0.982,2.847-1.947,3.337c-4.886,2.481-9.736,5.506-14.973,6.7
	c-5.995,1.368-6.833-0.103-5.941-6.804c-3.444,1.798-6.631,3.529-9.876,5.143c-8.398,4.174-16.945,4.715-26.079,2.157
	c-6.154-1.723-8.683-5.811-9.312-11.234c-1.139-9.82,1.922-18.487,8.955-25.539c2.905-2.912,6.166-5.468,9.154-8.304
	c0.746-0.707,1.556-1.902,1.497-2.82c-0.891-13.958,9.687-21.743,21.037-23.242c4.903-0.648,10.213-0.822,14.946,0.358
	c12.874,3.209,15.554,12.456,12.673,24.31c-2.444,10.053-6.924,19.604-10.382,29.42c-1.051,2.984-1.698,6.11-2.53,9.172
	C380.751,680.149,381.232,680.424,381.713,680.697z M368.465,636.119c-2.061,0.408-4.148,0.713-6.178,1.241
	c-14.271,3.716-25.074,19.618-26.43,33.358c-0.908,9.199,4.163,14.608,12.655,13.7c2.538-0.271,5.141-0.974,7.465-2.028
	c13.086-5.936,20.12-16.949,23.657-30.191C382.392,641.881,378.132,636.494,368.465,636.119z M353.898,635.629
	c1.452-0.5,2.345-0.857,3.266-1.115c8.472-2.365,16.906-4.06,25.093,1.048c0.667,0.416,2.412,0.458,2.466,0.291
	c0.42-1.305,1.007-2.82,0.692-4.054c-2.617-10.286-14.351-14.731-23.484-8.845C357.527,625.792,353.821,629.306,353.898,635.629z"/>
<path fill-rule="evenodd" clip-rule="evenodd" d="M185.752,629.996c1.84-8.122,19.257-16.082,26.252-12.049
	c-4.022,10.393-8.094,20.938-12.185,31.475c-2.65,6.824-5.719,13.52-7.825,20.506c-1.013,3.358-0.233,7.258-0.266,10.912
	c3.613-0.432,7.475-0.188,10.795-1.414c12.019-4.438,19.2-13.379,23.401-25.412c3.964-11.354,8.766-22.423,13.448-33.513
	c1.762-4.174,6.37-5.402,10.435-3.244c-7.208,18.793-14.48,37.583-21.55,56.449c-0.673,1.796-0.09,4.063-0.09,6.786
	c4.117-1.67,7.521-3.051,10.924-4.431c0.383,0.492,0.766,0.985,1.148,1.479c-1.104,1.308-1.952,3.144-3.359,3.825
	c-4.644,2.249-9.38,4.437-14.296,5.948c-3.333,1.024-6.484,0.267-5.8-4.62c0.226-1.613,0.174-3.266,0.227-4.418
	c-6.818,3.009-13.824,6.234-20.949,9.171c-2.522,1.04-5.304,1.593-8.022,1.986c-7.054,1.021-11.128-3.598-8.802-10.645
	c4.224-12.796,8.977-25.417,13.539-38.101c1.101-3.06,2.512-6.023,3.39-9.141c0.383-1.36-0.22-2.998-0.375-4.509
	c-1.296,0.277-2.617,0.473-3.881,0.854C190.007,628.466,188.144,629.17,185.752,629.996z"/>
<path fill-rule="evenodd" clip-rule="evenodd" d="M1082.208,130.36c3.619-1.393,7.144-2.748,10.667-4.104
	c0.228,0.62,0.454,1.241,0.682,1.861c-5.428,5.966-12.484,8.72-20.452,9.183c-1.024,0.059-2.787-2.205-3.141-3.654
	c-0.428-1.75,0.281-3.778,0.595-6.527c-3.366,2.006-6.15,4.187-9.303,5.435c-6.468,2.561-13.023,5.051-19.747,6.768
	c-6.768,1.727-10.91-2.667-8.759-9.45c4.709-14.854,9.989-29.525,15.033-44.272c0.054-0.156,0.069-0.325,0.107-0.487
	c0.635-2.691,1.27-5.383,1.904-8.074c-2.378,0.687-4.742,1.428-7.141,2.035c-1.074,0.271-2.217,0.275-3.42,0.411
	c1.65-7.702,17.521-15.275,26.263-12.022c-3.884,9.95-7.82,19.873-11.632,29.844c-3.136,8.204-6.122,16.465-9.186,24.696
	c-0.227,0.606-0.691,1.151-0.807,1.769c-1.29,6.959,1.289,9.131,8.161,7.062c14.543-4.379,23.059-14.409,27.829-28.492
	c3.44-10.157,7.685-20.043,11.598-30.039c0.476-1.214,0.826-2.972,1.748-3.42c2.65-1.29,5.564-2.037,8.376-2.998
	c-0.194,2.038,0.037,4.233-0.647,6.091c-6.077,16.48-12.363,32.884-18.464,49.356
	C1081.404,124.216,1079.097,127.292,1082.208,130.36z"/>
<path fill-rule="evenodd" clip-rule="evenodd" d="M1185.144,130.865c4.862-1.971,8.447-3.424,12.032-4.877
	c-2.87,6.724-14.425,12.592-20.479,11.343c-1.16-0.239-2.487-2.243-2.749-3.62c-0.343-1.806,0.296-3.797,0.563-6.152
	c-4.638,2.507-8.902,5.429-13.601,7.194c-5.582,2.097-11.462,3.707-17.354,4.584c-5.355,0.798-6.552-1.006-6.785-6.393
	c-0.438-10.071,4.72-18.547,7.73-27.607c2.869-8.635,6.41-17.045,9.575-25.584c0.272-0.737,0.206-2.271-0.164-2.443
	c-0.896-0.416-2.176-0.568-3.099-0.247c-2.11,0.732-4.1,1.812-6.138,2.751c-0.427-0.353-0.854-0.705-1.28-1.058
	c0.991-1.724,1.562-4.264,3.046-5.024c5.607-2.876,11.461-5.302,17.344-7.586c1.244-0.483,3.354-0.105,4.383,0.724
	c0.633,0.51,0.31,2.756-0.162,4.004c-6.097,16.128-12.462,32.156-18.34,48.362c-1.259,3.471-0.849,7.546-1.207,11.343
	c3.59-0.295,7.419,0.114,10.726-1.012c11.94-4.066,19.393-12.668,23.665-24.445c4.158-11.465,8.413-22.926,13.433-34.024
	c1.17-2.587,5.603-3.698,8.534-5.488c0.499,1.288,1.744,2.853,1.385,3.825c-6.703,18.159-13.648,36.23-20.379,54.381
	C1185.096,125.774,1185.38,128.109,1185.144,130.865z"/>
<path fill-rule="evenodd" clip-rule="evenodd" d="M991.678,617.084c-7.028,18.678-14.007,37.066-20.815,55.518
	c-0.821,2.227-0.726,4.791-1.184,8.146c4.725-1.906,8.135-3.282,12.295-4.961c-0.319,2.011-0.154,3.137-0.61,3.515
	c-5.779,4.79-12.296,7.97-19.937,8.029c-0.862,0.007-2.292-1.744-2.492-2.854c-0.396-2.203-0.116-4.527-0.116-7.365
	c-1.976,1.273-3.885,2.374-5.653,3.666c-7.348,5.369-15.888,7.606-24.644,8.567c-6.902,0.757-8.669-2.726-7.466-9.707
	c1.063-6.165,3.639-12.091,5.76-18.047c3.598-10.107,7.419-20.135,10.989-30.251c0.454-1.286-0.036-2.904-0.089-4.369
	c-1.517,0.268-3.079,0.388-4.539,0.84c-1.659,0.515-3.227,1.326-4.833,2.008c-0.369-0.519-0.737-1.037-1.105-1.556
	c1.418-1.647,2.52-3.937,4.313-4.822c5.663-2.793,11.5-5.301,17.444-7.429c2.94-1.053,4.873,1.909,3.592,5.771
	c-1.584,4.774-3.674,9.381-5.521,14.07c-4.409,11.199-9.098,22.304-13.026,33.67c-1.18,3.412-0.23,7.561-0.257,11.371
	c3.778-0.502,7.793-0.352,11.292-1.621c13.962-5.066,20.121-16.784,24.74-29.832c3.416-9.649,7.292-19.137,11.034-28.67
	C982.349,616.955,987.342,615.157,991.678,617.084z"/>
<path fill-rule="evenodd" clip-rule="evenodd" d="M195.814,130.788c4.325-1.824,7.788-3.284,11.251-4.745
	c0.326,0.398,0.652,0.798,0.978,1.196c-0.748,1.24-1.202,3.089-2.294,3.616c-4.968,2.399-10.002,4.782-15.24,6.46
	c-3.392,1.087-6.403,0.106-5.735-4.7c0.219-1.579,0.034-3.215,0.034-4.479c-6.534,3.051-12.678,6.213-19.061,8.782
	c-3.423,1.378-7.222,2.196-10.91,2.462c-7.212,0.52-9.017-2.672-7.77-9.943c1.03-6.004,3.616-11.759,5.683-17.563
	c3.655-10.267,7.481-20.472,11.113-30.745c0.418-1.185,0.057-2.645,0.057-3.977c-1.511,0.154-3.092,0.083-4.515,0.521
	c-1.694,0.521-3.253,1.48-4.872,2.251c-0.432-0.535-0.865-1.07-1.297-1.605c1.602-1.826,2.862-4.334,4.874-5.345
	c5.06-2.543,10.366-4.694,15.751-6.458c4.295-1.406,6.19,0.57,4.792,5.025c-1.554,4.951-3.828,9.675-5.723,14.523
	c-4.385,11.214-8.925,22.374-12.974,33.71c-1.224,3.424-1.042,7.351-1.562,11.505c10.055,0.746,17.342-3.555,24.169-9.056
	c7.571-6.1,9.979-15.117,13.289-23.626c3.656-9.398,7.281-18.81,11.047-28.163c1.478-3.672,6.953-5.254,10.616-3.248
	c-7.231,19.496-14.494,38.992-21.638,58.531C195.399,127.024,195.814,128.657,195.814,130.788z"/>
<path fill-rule="evenodd" clip-rule="evenodd" d="M877.846,675.815c-1.438,6.622-13.689,12.221-22.906,11.295
	c0-3.032,0-6.121,0-8.876c-7.438,3.247-14.543,6.578-21.838,9.419c-2.974,1.159-6.342,1.547-9.566,1.766
	c-4.856,0.329-7.125-1.517-6.582-6.195c0.632-5.438,1.903-10.906,3.707-16.08c4.121-11.824,8.793-23.456,13.077-35.227
	c0.527-1.447,0.056-3.258,0.047-4.9c-1.521,0.232-3.089,0.304-4.547,0.742c-1.623,0.488-3.146,1.311-4.713,1.988
	c-0.404-0.434-0.809-0.866-1.213-1.299c1.408-1.723,2.476-4.116,4.29-5.042c5.179-2.641,10.531-5.105,16.066-6.837
	c4.722-1.477,6.432,0.486,4.894,5.253c-1.594,4.938-3.889,9.646-5.703,14.52c-4.765,12.794-9.614,25.562-14.062,38.467
	c-1.979,5.746,0.495,8.122,6.338,6.472c13.192-3.725,22.845-11.415,27.661-24.709c4.21-11.62,8.79-23.106,13.264-34.629
	c1.861-4.794,6.943-6.99,11.551-4.847c-5.574,14.681-11.178,29.378-16.728,44.096c-1.779,4.717-3.535,9.448-5.048,14.253
	c-0.46,1.462-0.071,3.192-0.071,5.107C869.981,678.898,873.609,677.477,877.846,675.815z"/>
<path fill-rule="evenodd" clip-rule="evenodd" d="M976.207,445.505c1.227-1.851,2.036-4.431,3.759-5.414
	c4.912-2.804,10.065-5.313,15.371-7.265c4.932-1.814,7.093,0.175,5.419,4.953c-4.078,11.648-8.584,23.147-12.953,34.693
	c-2.185,5.772-4.716,11.429-6.606,17.294c-2.346,7.276-0.186,9.42,7.197,7.734c15.385-3.513,23.499-14.176,28.466-28.308
	c3.557-10.117,7.68-20.039,11.699-29.987c2.198-5.439,5.446-7.11,11.541-6.075c-3.81,10.595-7.495,21.145-11.4,31.613
	c-3.834,10.28-7.892,20.479-11.852,30.713c0.478,0.401,0.955,0.803,1.434,1.204c3.998-1.196,7.996-2.392,11.994-3.588
	c0.214,0.478,0.428,0.955,0.643,1.433c-3.875,5.257-9.969,6.955-15.862,8.947c-0.603,0.203-1.34-0.028-1.986,0.091
	c-5.823,1.074-7.078-0.08-6.201-5.849c0.137-0.898,0.556-1.755,1.218-3.766c-1.943,0.873-3.058,1.223-4.011,1.827
	c-8.643,5.474-17.452,10.053-28.222,9.89c-5.041-0.076-6.879-2.055-5.954-6.396c1.581-7.429,3.337-14.865,5.73-22.062
	c3.229-9.713,7.195-19.178,10.67-28.812c0.516-1.428,0.07-3.203,0.07-4.817c-1.43,0.287-2.907,0.434-4.276,0.899
	c-1.523,0.518-2.947,1.327-4.414,2.009C977.189,446.146,976.698,445.825,976.207,445.505z"/>
<path fill-rule="evenodd" clip-rule="evenodd" d="M573.535,249.368c-1.783,4.942-3.226,9.016-4.721,13.069
	c-5.684,15.414-11.41,30.812-17.027,46.25c-0.438,1.206-0.156,2.674-0.209,4.021c1.499-0.093,3.058,0.038,4.48-0.341
	c1.394-0.37,2.592-1.465,3.984-1.853c1.019-0.284,2.213,0.062,3.329,0.127c-0.364,0.954-0.472,2.468-1.134,2.772
	c-5.409,2.485-10.743,5.499-16.455,6.854c-5.337,1.266-6.083-0.234-5.061-5.814c0.205-1.116,0.029-2.301,0.029-3.353
	c-6.216,3.089-12.132,6.643-18.493,8.981c-4.497,1.653-9.583,1.808-14.438,2.356c-3.578,0.405-5.537-1.681-4.933-5.099
	c1.158-6.542,2.207-13.198,4.336-19.454c3.929-11.543,8.642-22.818,12.905-34.251c0.374-1.002-0.148-2.338-0.255-3.52
	c-1.028,0.125-2.104,0.101-3.075,0.405c-2.198,0.688-4.346,1.539-7.089,2.532c1.814-7.695,15.482-14.407,25.773-12.949
	c-1.631,5.015-2.993,9.949-4.829,14.701c-4.983,12.903-10.354,25.66-15.139,38.635c-1.151,3.121-1.999,7.674-0.55,10.13
	c2.228,3.774,6.571,0.798,9.68-0.226c11.929-3.927,19.785-12.139,24.151-23.914c4.298-11.591,8.876-23.078,13.31-34.62
	C563.925,250.074,567.878,249.614,573.535,249.368z"/>
<path fill-rule="evenodd" clip-rule="evenodd" d="M714.125,72.498c6.827-2.201,14.029-4.998,21.476-6.777
	c6.229-1.489,13.024,3.44,15.266,9.563c4.649,12.702,0.684,24.286-5.201,35.166c-6.942,12.835-16.411,23.39-31.407,27.185
	c-6.333,1.602-12.826,3.599-18.998-0.14c-2.457-1.489-5.228-3.633-6.23-6.131c-2.953-7.349-2.064-14.92,0.555-22.308
	c3.258-9.192,6.527-18.381,9.687-27.607c0.47-1.372,0.359-2.942,0.518-4.421c-1.517,0.219-3.091,0.255-4.534,0.708
	c-1.513,0.476-2.899,1.353-5.875,2.8c0.84-2.829,0.846-5.145,1.773-5.604c6.486-3.22,13.094-6.229,19.818-8.917
	c2.285-0.914,4.106,0.438,3.803,3.266C714.604,70.853,714.147,72.394,714.125,72.498z M696.227,122.298
	c0.915,2.228,1.827,5.687,3.636,8.589c3.458,5.55,11.879,4.58,19.112-0.211c12.307-8.15,18.329-20.538,21.832-34.41
	c1.62-6.414,1.457-12.614-1.935-18.511c-3.229-5.613-7.849-7.565-13.525-4.953c-3.365,1.549-6.525,3.755-9.396,6.126
	c-10.74,8.869-13.373,22.136-18.061,34.245C696.967,115.558,696.926,118.283,696.227,122.298z"/>
<path fill-rule="evenodd" clip-rule="evenodd" d="M1109.409,261.487c1.345-1.423,2.458-3.237,4.079-4.191
	c4.199-2.473,8.469-4.967,12.993-6.72c7.067-2.738,8.351-1.714,8.704,5.652c3.807-1.697,7.449-3.943,11.406-4.924
	c4.703-1.166,9.703-1.852,14.527-1.646c6.443,0.274,11.465,6.955,11.659,14.757c0.62,24.93-10.56,43.087-32.334,54.674
	c-6.453,3.434-13.841,4.134-21.12,3.308c-7.081-0.805-11.964-6.636-11.296-15.19c0.588-7.513,2.715-14.975,4.787-22.281
	c2.036-7.18,4.913-14.118,7.28-21.21c0.349-1.044-0.083-2.349-0.153-3.532c-1.182,0.129-2.418,0.079-3.531,0.425
	c-2.056,0.639-4.04,1.509-6.054,2.282C1110.042,262.422,1109.725,261.955,1109.409,261.487z M1161.859,272.029
	c1.368-7.375-1.893-13.365-7.677-16.033c-6.106-2.816-12.002,1.066-16.854,5.465c-5.681,5.15-10.081,11.004-12.726,18.4
	c-3.296,9.218-8.016,17.92-6.877,28.271c0.617,5.604,4.1,9.807,9.727,9.203c4.247-0.455,8.994-1.351,12.396-3.686
	C1154.374,303.683,1160.477,288.94,1161.859,272.029z"/>
<path fill-rule="evenodd" clip-rule="evenodd" d="M858.382,263.235c2.655-7.795,16.061-14.303,25.454-13.34
	c-0.186,2.321-0.373,4.667-0.524,6.558c4.822-1.975,9.827-4.72,15.184-6.081c14.055-3.573,22.779,1.606,23.442,17.41
	c0.868,20.716-16.837,50.04-42.61,54.368c-3.871,0.65-8.031,0.677-11.896,0.028c-6.137-1.03-10.656-6.228-10.435-12.912
	c0.225-6.771,1.305-13.665,3.121-20.196c2.345-8.431,5.841-16.537,8.714-24.828c0.419-1.207,0.136-2.657,0.178-3.995
	c-1.314,0.185-2.67,0.224-3.932,0.589C863.158,261.392,861.302,262.172,858.382,263.235z M910.803,271.828
	c0-1.332,0.091-2.671-0.016-3.994c-0.667-8.359-8.075-14.818-15.022-12.005c-5.104,2.066-10.167,5.579-13.776,9.729
	c-9.091,10.45-12.687,23.673-16.029,36.776c-2.151,8.435,3.866,15.753,12.435,14.987c3.71-0.332,7.77-1.772,10.791-3.936
	C903.324,303.262,909.35,288.677,910.803,271.828z"/>
<path fill-rule="evenodd" clip-rule="evenodd" d="M1313.721,321.646c0.302-2.091,0.27-3.878,0.831-5.454
	c6.047-17,12.222-33.954,18.25-50.961c0.601-1.693,0.465-3.648,0.76-6.279c-3.893,1.723-6.435,2.848-9.402,4.161
	c0.6-7.38,13.645-14.148,24.854-13.306c-0.626,3.11-1.233,6.129-1.889,9.384c5.117-2.307,10.043-4.959,15.265-6.746
	c4.403-1.508,9.117-2.522,13.755-2.829c6.08-0.402,8.978,3.367,6.946,9.085c-5.546,15.613-11.473,31.092-17.246,46.623
	c-0.511,1.372-1.224,2.716-1.439,4.134c-0.172,1.124-0.063,2.604,0.571,3.421c0.378,0.485,2.082,0.212,3.07-0.101
	c2.703-0.854,5.344-1.909,8.324-2.277c-1.872,5.296-6.396,7.343-10.817,8.785c-3.473,1.132-7.442,0.738-11.191,1.022
	c0.482-3.939,0.312-8.101,1.562-11.779c4.915-14.46,10.405-28.725,15.417-43.153c2.303-6.633-0.433-9.473-7.117-7.891
	c-14.649,3.467-23.519,12.956-28.404,26.876c-3.497,9.965-7.398,19.791-11.26,29.623
	C1322.784,318.508,1319.013,320.587,1313.721,321.646z"/>
<path fill-rule="evenodd" clip-rule="evenodd" d="M644.823,442.107c-3.938,1.889-6.552,3.142-9.164,4.395
	c-0.394-0.238-0.788-0.477-1.183-0.715c0.927-1.702,1.428-4.186,2.857-4.968c5.247-2.871,10.733-5.349,16.287-7.585
	c1.566-0.632,3.669,0.066,5.525,0.154c-0.095,1.691-0.079,3.398-0.319,5.068c-0.204,1.411-0.705,2.779-0.93,3.623
	c8.265-3.034,16.545-6.455,25.088-8.988c2.696-0.8,6.569-0.022,9.063,1.453c3.596,2.128,3.165,6.021,1.75,9.713
	c-6.048,15.785-12.06,31.586-17.969,47.424c-0.633,1.695-0.517,3.669-0.831,6.183c4.95-1.96,8.584-3.398,13.312-5.271
	c-3.608,6.868-14.587,12.855-20.436,11.745c-1.195-0.227-3-2.332-2.891-3.403c0.361-3.518,1.194-7.055,2.349-10.411
	c4.757-13.839,9.812-27.576,14.455-41.452c0.725-2.166,0.803-6.046-0.454-7.017c-1.758-1.357-5.295-1.526-7.648-0.812
	c-12.444,3.777-21.364,11.502-25.854,24.067c-3.611,10.104-7.548,20.094-11.473,30.082c-2.376,6.046-5.867,8.725-12.364,8.936
	c1.95-5.687,3.692-10.965,5.568-16.195c4.829-13.469,9.744-26.908,14.539-40.389C644.591,446.369,644.5,444.787,644.823,442.107z"/>
<path fill-rule="evenodd" clip-rule="evenodd" d="M1377.877,75.388c7.193-2.73,14.359-5.537,21.598-8.146
	c2.263-0.815,4.697-1.379,7.092-1.563c5.165-0.397,8.655,3.026,7.311,8.172c-2.17,8.307-5.154,16.416-8.087,24.503
	c-3.271,9.021-6.949,17.896-10.248,26.908c-0.553,1.512-0.078,3.399-0.078,5.197c4.777-0.472,7.491-5.288,12.551-2.892
	c-6.286,7.297-13.474,10.854-22.782,9.717c-1.96-7.546,2.164-13.591,4.28-19.95c4.002-12.033,8.646-23.853,12.668-35.88
	c0.661-1.977,0.252-5.213-1.027-6.657c-1.066-1.203-4.296-1.258-6.293-0.747c-15.575,3.975-24.385,14.558-29.125,29.527
	c-2.893,9.132-6.684,18.002-10.464,26.821c-1.72,4.011-4.745,7.108-10.901,7.097c0.93-3.724,1.469-7.163,2.645-10.37
	c5.489-14.971,11.21-29.856,16.677-44.835c0.573-1.57,0.021-3.552-0.009-5.343c-1.651,0.383-3.328,0.682-4.945,1.175
	c-1.441,0.439-2.816,1.096-4.221,1.655c-0.396-0.441-0.793-0.883-1.189-1.325c1.305-1.581,2.295-3.786,3.97-4.629
	c5.483-2.758,11.163-5.155,16.89-7.377c1.425-0.553,3.309,0.08,4.982,0.168c-0.092,1.518-0.076,3.052-0.305,4.548
	C1378.625,72.729,1378.149,74.262,1377.877,75.388z"/>
<path fill-rule="evenodd" clip-rule="evenodd" d="M987.426,686.842c3.261-9.09,6.475-18.084,9.712-27.068
	c3.419-9.49,6.906-18.955,10.236-28.476c0.469-1.341,0.209-2.937,0.286-4.414c-1.386,0.223-2.835,0.262-4.142,0.713
	c-1.65,0.57-3.185,1.476-4.769,2.237c-0.438-0.415-0.874-0.83-1.311-1.245c1.533-1.916,2.685-4.581,4.677-5.602
	c5.038-2.581,10.364-4.695,15.748-6.473c4.153-1.371,5.661,0.241,4.881,4.556c-0.307,1.699-0.975,3.334-1.657,5.589
	c8.871-4.946,17.277-9.232,27.028-10.469c6.412-0.813,11.565,2.745,9.354,9.841c-2.221,7.126-4.946,14.101-7.608,21.08
	c-3.25,8.519-6.77,16.935-9.938,25.48c-0.872,2.352-0.911,5.011-1.514,8.613c4.551-1.947,8.058-3.447,11.564-4.947
	c0.312,0.249,0.623,0.499,0.936,0.748c-0.62,1.247-0.928,3.175-1.913,3.629c-5.396,2.484-10.8,5.265-16.515,6.638
	c-4.304,1.033-5.712-1.176-4.239-5.581c3.657-10.944,7.574-21.803,11.403-32.689c2.053-5.833,4.342-11.594,6.09-17.516
	c0.542-1.833,0.394-4.909-0.761-5.947c-1.525-1.371-4.766-2.347-6.54-1.646c-5.26,2.076-10.304,4.822-15.173,7.738
	c-7.863,4.708-10.263,13.119-13.402,20.95c-3.634,9.06-7.105,18.186-10.828,27.207C996.392,686.187,993.603,687.852,987.426,686.842
	z"/>
<path fill-rule="evenodd" clip-rule="evenodd" d="M1344.808,91.169c0.093,18.562-14.232,40.807-33.762,46.75
	c-14.249,4.338-27.703-1.756-31.43-13.009c-2.119-6.4-2.417-12.802-0.794-19.298c4.555-18.224,14.112-32.393,32.793-38.323
	c7.516-2.386,15.437-2.282,22.498,2.104C1341.025,73.686,1344.809,81.794,1344.808,91.169z M1333.918,93.134
	c0.205-7.776-1.256-15.074-8.099-19.522c-8.251-5.364-18.983-1.858-25.084,5.787c-9.235,11.573-13.678,24.886-11.055,40.201
	c2.114,12.337,13.107,19.147,25.052,11.307C1328.186,122.075,1333.126,108.553,1333.918,93.134z"/>
<path fill-rule="evenodd" clip-rule="evenodd" d="M770.158,689.519c-13.423-1.037-21.405-5.994-23.313-20.742
	c-2.673-20.648,12.107-46.232,33.808-51.704c15.489-3.907,30.459,2.439,32.196,20.674c1.285,13.478-3.937,24.665-11.8,34.996
	C793.175,683.083,782.645,688.5,770.158,689.519z M802.663,642.629c-0.297-2.262-0.522-4.536-0.905-6.784
	c-1.062-6.237-6.877-13.744-11.387-14.284c-7.154-0.856-13.668,0.626-19.035,5.887c-12.211,11.97-15.428,26.892-13.234,43.054
	c0.795,5.86,3.817,11.357,10.941,13.079c8.941,2.161,15.519-2.474,20.785-7.981C798.428,666.602,802.122,655.053,802.663,642.629z"
	/>
<path fill-rule="evenodd" clip-rule="evenodd" d="M582.003,505.842c-15.771,1.643-25.454-12.908-23.4-28.724
	c2.244-17.286,10.163-30.527,24.817-39.638c11.174-6.947,26.917-7.427,35.502,2.668c6.928,8.146,7.493,17.78,4.773,27.427
	c-4.997,17.729-14.452,31.854-33.485,37.036C587.56,505.333,584.744,505.447,582.003,505.842z M613.807,459.906
	c0-1.83,0.089-3.666-0.017-5.49c-0.367-6.367-5.708-14.446-11.82-16.052c-6.631-1.741-17.508,2.132-21.956,8.607
	c-7.989,11.63-12.452,24.157-10.25,38.583c2.308,15.119,14.452,18.868,25.126,12.09
	C608.442,489.038,613.608,475.553,613.807,459.906z"/>
<path fill-rule="evenodd" clip-rule="evenodd" d="M961.808,114.571c-0.438-19.488,14.596-42.352,33.567-47.248
	c8.687-2.242,17.248-2.446,24.399,3.76c7.957,6.905,10.257,15.767,8.222,26.225c-2.819,14.484-9.43,26.491-21.576,34.942
	c-9.699,6.749-20.497,9.647-31.936,4.958C968.085,134.584,961.046,126.735,961.808,114.571z M972.808,112.119
	c0,0.998-0.05,1.998,0.008,2.992c0.395,6.698,1.951,12.984,8.02,16.839c6.939,4.407,13.293,1.759,19.409-2.267
	c13.199-8.686,20.956-30.983,16.188-46.734c-1.661-5.484-5.222-10.338-11.576-11.398c-8.801-1.47-15.951,2.308-21.217,8.821
	C976.259,89.502,972.826,100.311,972.808,112.119z"/>
<path fill-rule="evenodd" clip-rule="evenodd" d="M1057.446,322.599c-18.027,0.836-25.465-16.031-23.378-29.676
	c1.637-10.704,5.937-20.217,12.787-28.521c9.745-11.812,23.899-17.979,39.268-13.713c7.265,2.017,14.062,11.899,14.697,20.441
	c1.521,20.479-14.592,46.582-37.435,51.06C1061.453,322.568,1059.428,322.474,1057.446,322.599z M1089.808,276.532
	c0-1.164,0.092-2.338-0.016-3.492c-0.695-7.462-2.965-14.32-10.327-17.527c-6.13-2.671-11.926-0.564-17.525,2.872
	c-12.347,7.578-20.41,33.427-15.558,47.57c3.976,11.592,14.852,14.328,24.029,8.431
	C1084.212,305.519,1089.092,292.096,1089.808,276.532z"/>
<path fill-rule="evenodd" clip-rule="evenodd" d="M1313.808,275.28c-0.178,19.973-15.535,43.237-37.949,47.001
	c-17.572,2.951-30.715-8.42-28.295-28.646c1.422-11.887,6.505-21.648,13.521-30.883c6.521-8.581,24.778-15.741,35.021-13.05
	C1305.872,252.27,1314.846,260.959,1313.808,275.28z M1302.91,276.862c0.384-7.217-0.617-14.044-6.346-18.938
	c-8.095-6.915-17.757-3.348-23.968,2.549c-11.743,11.15-15.923,25.26-13.884,41.397c0.822,6.506,3.436,11.74,9.218,14.443
	c6.37,2.979,12.442,0.796,17.84-3.28C1297.803,303.943,1302.378,291.337,1302.91,276.862z"/>
<path fill-rule="evenodd" clip-rule="evenodd" d="M89.762,124.495c4.805-2.234,8.527-3.966,12.25-5.696
	c-3.393,8.88-19.205,18.164-28.039,17.072c1.39-5.425,2.36-10.833,4.157-15.951c9.755-27.78,19.715-55.489,29.602-83.225
	c0.327-0.917,0.864-1.838,0.888-2.768c0.047-1.805-0.201-3.616-0.326-5.426c-1.716,0.297-3.448,0.525-5.143,0.914
	c-1.227,0.28-2.405,0.774-3.682,1.199c-0.312-5.672,15.337-15.281,24.786-14.839c-0.857,4.032-1.29,8.051-2.574,11.774
	c-6.84,19.841-13.889,39.608-20.874,59.398c-3.461,9.809-7.051,19.575-10.326,29.446C89.721,118.689,90.01,121.33,89.762,124.495z"
	/>
<path fill-rule="evenodd" clip-rule="evenodd" d="M326.235,301.697c-1.381,9.896,7.492,18.521,19.007,15.322
	c5.734-1.594,10.916-5.443,16.08-8.696c2.147-1.354,3.599-3.006,5.459-0.039c-9.374,14.338-26.378,16.331-39.413,12.908
	c-7.728-2.029-13.205-10.762-13.53-20.618c-0.619-18.752,11.049-42.63,31.999-49.277c5.898-1.871,12.98-1.483,19.218-0.399
	c6.292,1.094,9.346,9.315,8.254,15.78c-3.418,20.229-27.901,34.836-44.717,34.822C327.788,301.5,326.984,301.632,326.235,301.697z
	 M324.54,297.938c4.502-0.568,8.115-0.674,11.547-1.518c14.781-3.635,24.54-12.668,27.383-27.809
	c0.623-3.315-1.042-7.755-3.059-10.721c-3.783-5.562-10.222-4.573-17.169-0.092C329.241,266.828,325.966,281.408,324.54,297.938z"/>
<path fill-rule="evenodd" clip-rule="evenodd" d="M1010.422,310.822c4.396-1.386,7.518-2.37,10.64-3.354
	c0.184,0.542,0.367,1.083,0.551,1.625c-6.012,6.358-13.468,10.229-22.991,12.883c0.418-3.135,0.332-5.713,1.128-7.983
	c10.477-29.907,21.096-59.765,31.633-89.651c2.105-5.97,4.171-11.965,5.908-18.047c0.398-1.396-0.631-3.199-1.004-4.815
	c-1.38,0.381-2.798,0.66-4.129,1.168c-1.575,0.602-3.076,1.4-5.516,1.257c0.466-1.05,0.64-2.59,1.444-3.069
	c5.971-3.557,11.847-7.419,18.204-10.125c4.048-1.724,5.856,0.318,4.45,4.519c-4.279,12.782-8.855,25.465-13.384,38.163
	c-8.352,23.418-16.766,46.814-25.104,70.237C1011.52,305.689,1011.159,307.884,1010.422,310.822z"/>
<path fill-rule="evenodd" clip-rule="evenodd" d="M142.931,388.097c1.354-8.328,18.542-16.327,24.733-12.109
	c-13.944,39.095-27.925,78.294-42.262,118.493c4.56-1.592,7.391-2.624,10.269-3.503c0.239-0.073,0.795,0.887,1.52,1.738
	c-6.676,6.205-13.726,10.931-23.908,12.009c1.128-4.278,1.785-7.759,2.955-11.057c11.958-33.712,23.999-67.395,36.021-101.085
	c0.438-1.227,1.173-2.414,1.3-3.667c0.122-1.203,0.021-2.859-0.708-3.582c-0.589-0.583-2.345-0.335-3.435,0.011
	C147.443,385.971,145.583,386.944,142.931,388.097z"/>
<path fill-rule="evenodd" clip-rule="evenodd" d="M1112.609,127.463c3.648-1.212,6.684-2.22,9.719-3.229
	c0.19,0.493,0.381,0.986,0.571,1.479c-5.956,6.616-12.974,11.289-23.443,12.037c0.956-4.015,1.45-7.475,2.602-10.7
	c7.824-21.907,15.849-43.742,23.684-65.646c4.599-12.857,9.016-25.78,13.366-38.724c0.449-1.337-0.112-3.015-0.205-4.534
	c-1.422,0.313-2.86,0.566-4.262,0.954c-1.784,0.494-3.538,1.097-5.65,1.76c1.029-6.772,14.619-13.935,24.057-12.929
	c-0.479,2.683-0.588,5.448-1.476,7.936c-9.184,25.739-18.515,51.425-27.756,77.143c-3.466,9.645-6.841,19.322-10.17,29.016
	C1113.087,123.65,1112.983,125.431,1112.609,127.463z"/>
<path fill-rule="evenodd" clip-rule="evenodd" d="M426.672,571.084c1.741-7.011,14.646-13.867,24.391-13.381
	c-0.521,2.864-0.647,5.753-1.581,8.352c-8.745,24.339-17.68,48.609-26.45,72.939c-3.971,11.016-7.732,22.108-11.491,33.199
	c-0.536,1.58-0.521,3.348-0.802,5.319c3.628-1.3,6.583-2.358,10.333-3.702c-3.794,7.971-14.896,14.096-23.6,13.255
	c0.979-3.296,1.774-6.512,2.883-9.616c11.766-32.936,23.59-65.85,35.362-98.783c0.817-2.288,1.547-4.647,1.925-7.035
	c0.179-1.131-0.223-2.827-1.013-3.483c-0.601-0.5-2.274,0.092-3.39,0.451C431.229,569.246,429.28,570.083,426.672,571.084z"/>
<path fill-rule="evenodd" clip-rule="evenodd" d="M443.705,677.542c3.617-1.31,6.576-2.381,10.269-3.718
	c-3.475,7.823-14.642,14.046-23.317,13.298c0.52-2.196,0.823-4.371,1.546-6.396c12.142-34.011,24.344-67.999,36.497-102.005
	c0.818-2.289,1.552-4.646,1.939-7.033c0.185-1.138-0.185-2.828-0.965-3.509c-0.586-0.511-2.282,0.025-3.39,0.385
	c-2.02,0.654-3.97,1.524-6.552,2.542c1.643-7.289,15.278-14.296,24.383-13.057c-0.522,2.684-0.703,5.447-1.602,7.955
	c-9.156,25.572-18.458,51.094-27.656,76.651c-3.524,9.795-6.927,19.634-10.284,29.487
	C444.032,673.73,444.018,675.497,443.705,677.542z"/>
<path fill-rule="evenodd" clip-rule="evenodd" d="M914.513,570.856c-2.092-4.554,1.729-5.644,3.558-6.799
	c3.955-2.499,8.378-4.367,12.798-5.973c1.788-0.648,4.07,0.063,6.127,0.157c-0.09,1.836,0.259,3.829-0.333,5.486
	c-11.417,31.993-22.964,63.94-34.427,95.917c-1.697,4.735-3.163,9.558-4.602,14.38c-0.262,0.879,0.132,1.953,0.223,2.937
	c0.963-0.296,1.922-0.603,2.889-0.886c2.191-0.641,4.386-1.27,6.849-1.203c-5.609,7.459-13.138,11.228-23.48,13.327
	c1.133-4.79,1.67-8.57,2.922-12.097c6.471-18.228,13.194-36.365,19.693-54.583c5.517-15.461,10.855-30.984,16.245-46.489
	c0.423-1.218,0.733-2.497,0.907-3.773c0.412-3.01-0.535-4.391-3.718-2.892C918.421,569.188,916.638,569.924,914.513,570.856z"/>
<path fill-rule="evenodd" clip-rule="evenodd" d="M1149.554,447.374c1.038-7.568,5.901-8.932,10.36-10.905
	c1.729-0.765,3.929-1.97,4.533-3.514c2.901-7.414,5.465-14.971,7.82-22.578c0.495-1.6-0.395-3.627-0.646-5.456
	c-1.432,0.449-2.858,0.912-4.294,1.345c-1.64,0.495-3.286,0.963-5.151,1.507c0.619-7.161,17.221-15.098,24.756-11.903
	c-4.507,12.881-9.032,25.814-13.558,38.747c0.336,0.491,0.672,0.982,1.008,1.474c4.541-1.489,9.082-2.978,13.623-4.467
	c-2.672,6.771-7.502,9.762-13.864,10.99c-1.861,0.359-4.386,1.866-4.987,3.459c-5.228,13.841-10.142,27.802-14.985,41.784
	c-0.623,1.799-0.314,3.922-0.444,6.014c3.378-1.08,6.485-2.073,9.594-3.067c0.237,0.692,0.475,1.384,0.712,2.076
	c-6.627,5.509-13.349,10.841-23.8,11.867c0.976-4.002,1.492-7.318,2.593-10.429c5.425-15.333,11.042-30.599,16.473-45.931
	c0.577-1.63,0.379-3.534,0.541-5.312c-1.771,0.492-3.592,0.854-5.295,1.517C1153.16,445.131,1151.918,446.031,1149.554,447.374z"/>
<path fill-rule="evenodd" clip-rule="evenodd" d="M482.907,225.033c1.406-8.057,18.194-16.251,25.205-12.692
	c-4.696,13.168-9.422,26.418-14.72,41.273c5.751-1.972,10.402-3.566,15.233-5.223c-1.226,7.455-9.02,10.461-17.441,11.409
	c-5.891,16.559-11.81,33.197-18.151,51.023c4.439-1.33,7.758-2.324,11.076-3.318c0.148,0.477,0.296,0.952,0.444,1.428
	c-4.835,6.395-11.813,9.575-19.071,12.173c-3.563,1.274-4.059-1.514-3.57-3.927c0.607-3.005,1.827-5.894,2.863-8.803
	c5.339-15.006,10.717-29.998,16.028-45.014c0.329-0.931,0.202-2.022,0.287-3.04c-1.184-0.044-2.546-0.484-3.516-0.05
	c-2.086,0.935-3.969,2.32-6.677,3.976c0.176-6.735,4.301-9.25,8.553-10.401c4.193-1.136,5.981-3.813,7.228-7.175
	c2.26-6.093,4.298-12.277,6.138-18.509c0.544-1.843,0.115-3.973,0.132-5.971c-1.785,0.312-3.599,0.512-5.345,0.971
	C486.239,223.521,484.958,224.199,482.907,225.033z"/>
<path fill-rule="evenodd" clip-rule="evenodd" d="M60.715,310.876c3.662-1.485,6.524-2.646,9.385-3.806
	c0.32,0.388,0.641,0.774,0.961,1.162c-0.644,1.142-1.002,2.779-1.98,3.343c-5.485,3.159-11.088,6.123-16.734,8.99
	c-0.992,0.503-3.101,0.711-3.436,0.212c-0.698-1.041-1.078-2.825-0.678-3.992c3.958-11.533,8.125-22.994,12.185-34.492
	c2.587-7.329,5.091-14.688,7.632-22.034c-0.295-0.392-0.591-0.784-0.887-1.176c-3.25,1.5-6.501,3.001-10.276,4.744
	c0.227-5.821,3.627-8.293,7.755-9.603c4.438-1.407,7.195-3.785,8.521-8.396c1.929-6.707,4.479-13.232,6.611-19.884
	c0.381-1.189,0.027-2.614,0.013-3.93c-1.538,0.134-3.108,0.119-4.607,0.438c-1.997,0.426-3.938,1.111-6.051,1.122
	c4.614-8.293,19.378-14.496,25.021-10.889c-4.576,12.949-9.194,26.02-13.812,39.089c0.429,0.468,0.857,0.935,1.286,1.401
	c4.602-1.592,9.203-3.185,13.804-4.776c-3.164,6.418-8.185,9.556-14.493,11.134c-1.62,0.405-3.636,1.95-4.196,3.448
	C71.494,277,66.495,291.111,61.522,305.229C60.971,306.796,61.025,308.576,60.715,310.876z"/>
<path fill-rule="evenodd" clip-rule="evenodd" d="M548.396,127.643c3.9-1.484,6.805-2.59,10.515-4.002
	c-2.801,7.06-15.473,14.165-23.396,13.465c0.664-3.003,1.001-6.026,2.002-8.811c5.883-16.36,11.943-32.656,17.852-49.008
	c0.362-1.002-0.062-2.288-0.153-4.108c-3.734,2.092-6.659,3.73-9.652,5.407c-0.768-3.858,2.056-8.739,6.771-9.703
	c5.628-1.149,7.584-4.729,9.062-9.45c1.747-5.58,3.957-11.02,5.599-16.627c0.654-2.234,0.324-4.757,0.468-7.662
	c-4.086,1.621-6.974,2.768-9.86,3.913c-0.309-0.405-0.617-0.811-0.927-1.216c0.692-1.107,1.12-2.679,2.119-3.245
	c5.504-3.126,11.055-6.209,16.807-8.83c1.459-0.664,3.882,0.072,5.498,0.887c0.51,0.257,0.147,2.974-0.347,4.379
	c-3.669,10.424-7.502,20.791-11.2,31.206c-0.52,1.466-0.589,3.092-1.166,6.314c5.604-2.354,10.02-4.207,14.922-6.266
	c-1.444,6.344-7.267,11.18-13.407,11.067c-3.607-0.065-4.809,1.38-5.845,4.427c-4.657,13.691-9.566,27.297-14.29,40.966
	C549.092,122.694,548.94,124.822,548.396,127.643z"/>
<path fill-rule="evenodd" clip-rule="evenodd" d="M397.736,259.301c-3.143,1.344-6.284,2.688-9.446,4.039
	c-0.367-3.815,2.675-8.544,7.275-9.587c4.192-0.951,6.354-3.088,7.571-6.958c2.194-6.974,4.655-13.863,6.835-20.841
	c0.369-1.181-0.111-2.627-0.198-3.95c-1.51,0.186-3.084,0.166-4.513,0.612c-1.621,0.507-3.112,1.43-4.659,2.172
	c-0.377-0.307-0.753-0.613-1.129-0.92c0.654-1.432,0.922-3.567,2.029-4.179c5.519-3.043,11.208-5.797,16.958-8.385
	c1.27-0.572,3.952-0.614,4.364,0.072c0.792,1.319,0.941,3.501,0.449,5.032c-1.988,6.188-4.312,12.27-6.532,18.383
	c-2.046,5.631-4.12,11.252-6.183,16.878c0.283,0.481,0.565,0.964,0.848,1.445c4.642-1.567,9.283-3.136,14.355-4.85
	c-1.192,6.68-6.397,9.125-10.901,9.824c-5.915,0.918-8.204,3.937-9.849,8.846c-4.342,12.956-8.858,25.853-13.26,38.789
	c-0.488,1.436-0.683,2.972-1.128,4.979c3.841-1.139,6.87-2.064,9.929-2.885c0.205-0.056,0.624,0.685,1.946,2.216
	c-7.654,4.292-15.022,8.423-22.39,12.555c-0.506-0.462-1.013-0.924-1.519-1.385c0.42-3.16,0.307-6.508,1.348-9.447
	c6.021-17.002,12.314-33.908,18.516-50.847C398.214,260.374,397.975,259.837,397.736,259.301z"/>
<path fill-rule="evenodd" clip-rule="evenodd" d="M567.302,630.9c-0.414-5.101,3.966-9.608,9.944-11.484
	c1.603-0.502,3.576-1.859,4.136-3.306c2.934-7.58,5.576-15.28,8.051-23.024c0.521-1.627-0.088-3.615-0.196-5.833
	c-3.817,1.439-6.754,2.547-9.69,3.654c-0.318-0.38-0.637-0.759-0.955-1.139c0.729-1.238,1.157-3.024,2.241-3.623
	c5.407-2.985,10.901-5.856,16.563-8.312c1.528-0.662,3.748,0.27,5.651,0.47c-0.201,1.653-0.114,3.406-0.649,4.943
	c-4.11,11.82-8.341,23.6-12.649,35.714c5.962,1.941,9.862-2.733,14.7-5.05c-0.394,6.1-6.698,11.034-13.002,11.713
	c-1.853,0.2-4.557,1.648-5.127,3.176c-5.521,14.776-10.705,29.679-15.856,44.591c-0.408,1.182,0.151,2.697,0.241,3.811
	c3.671-1.241,6.591-2.229,9.51-3.215c0.24,0.559,0.481,1.118,0.722,1.678c-6.219,6.084-13.253,10.722-22.693,12.39
	c-1.39-6.347,1.69-11.071,3.408-15.982c4.939-14.119,10.12-28.154,15.134-42.248c0.38-1.067,0.188-2.338,0.261-3.515
	c-1.347,0.188-2.855,0.056-4.002,0.638C571.185,627.891,569.564,629.304,567.302,630.9z"/>
<path fill-rule="evenodd" clip-rule="evenodd" d="M1048.568,472.702c-1.119,5.808-1.956,10.064-2.756,14.327
	c-1.463,7.786,7.148,14.389,14.695,14.71c11.75,0.501,19.421-5.991,21.886-16.195c1.6-6.62-1.855-11.026-5.548-15.422
	c-2.455-2.923-5.479-5.359-8.041-8.199c-4.65-5.153-7.85-11.276-6.477-18.205c1.695-8.553,10.071-13.028,18.777-11.066
	c3.488,0.785,6.957,3.504,10.529,0.021c0.161-0.156,2.281,0.939,2.331,1.546c0.443,5.431,0.753,10.883,0.745,16.328
	c-0.001,0.795-1.884,1.587-3.859,3.135c0.52-8.874-2.314-14.587-9.336-17.07c-2.319-0.821-6.209-0.448-7.882,1.051
	c-1.729,1.55-2.994,5.795-2.067,7.692c2.163,4.43,5.852,8.095,8.757,12.187c3.572,5.031,7.86,9.801,10.257,15.364
	c4.262,9.889-3.084,24.794-13.185,28.857c-10.954,4.406-21.3,5.261-32.058-0.098c-9.297-4.63-9.55-18.666-3.896-25.801
	C1042.766,474.193,1045.789,473.871,1048.568,472.702z"/>
<path fill-rule="evenodd" clip-rule="evenodd" d="M391.979,473.312c-1.181,5.349-2.778,9.823-3.033,14.374
	c-0.41,7.331,6.376,13.349,13.749,13.88c12.925,0.93,19.952-5.505,22.323-13.408c2.148-7.161,0.271-12.781-4.831-17.83
	c-5.475-5.418-11.522-10.493-13.517-18.434c-1.292-5.145-2.287-10.308,2.008-14.798c4.484-4.689,10.001-5.151,15.939-4.278
	c3.314,0.487,6.663,3.93,10.03-0.117c0.206-0.248,2.693,0.644,2.74,1.138c0.547,5.704,0.903,11.432,1.061,17.16
	c0.016,0.564-1.624,1.175-1.602,1.16c-2.873-4.691-5.084-9.324-8.24-13.184c-3.53-4.313-7.714-4.459-11.706-1.489
	c-2.606,1.938-3.312,8.407-0.678,11.751c3.361,4.271,7.302,8.084,10.956,12.128c4.372,4.838,7.669,10.115,7.657,17.003
	c-0.025,14.671-8.075,22.923-21.286,25.992c-9.124,2.12-18.018,1.724-26.402-3.694c-7.74-5.002-8.377-20.746-0.707-26.112
	C387.976,473.479,390.375,473.64,391.979,473.312z"/>
<path fill-rule="evenodd" clip-rule="evenodd" d="M508.004,657.493c-4.665,5.206-4.773,11.071-4.047,16.799
	c0.779,6.147,7.704,11.156,15.54,11.107c12.807-0.081,21.961-7.839,20.97-20.913c-0.339-4.468-4.284-8.881-7.191-12.874
	c-2.897-3.979-7.06-7.065-9.778-11.137c-5.125-7.675-4.647-17.006,1.572-21.676c5.425-4.073,11.635-2.893,17.705-1.818
	c1.241,0.22,2.495,1.148,3.641,0.993c6.217-0.843,7.072-0.57,7.259,5.487c0.134,4.365,1.732,9.328-3.392,13.716
	c-0.586-2.479-1.215-4.345-1.443-6.259c-0.687-5.776-5.89-11.533-11.06-11.295c-2.457,0.112-5.381,1.072-7.152,2.684
	c-3.002,2.73-2.136,6.508,0.035,9.365c3.67,4.832,7.487,9.639,11.817,13.867c13.729,13.405,7.278,37.104-12.72,41.808
	c-7.521,1.769-15.064,1.824-22.777-0.638c-11.923-3.806-13.67-17.875-8.739-25.919C500.09,657.78,503.003,655.265,508.004,657.493z"
	/>
<path fill-rule="evenodd" clip-rule="evenodd" d="M882.892,87.894c0.414-8.102-1.345-14.042-7.341-16.866
	c-2.902-1.366-7.675-1.483-10.342,0.039c-3.6,2.054-3.457,6.746-0.994,10.114c3.481,4.76,7.946,8.819,11.264,13.675
	c2.961,4.336,5.985,9.106,7.124,14.107c2.308,10.134-1.88,18.269-10.177,24.445c-8.55,6.364-29.061,7.44-37.669,0.115
	c-6.441-5.48-7.39-20.796,0.539-25.733c1.196-0.745,2.986-0.536,4.502-0.768c-0.127,1.438,0.123,3.05-0.444,4.286
	c-2.738,5.963-3.865,12.163,0.504,17.458c4.478,5.427,10.32,7.271,17.964,6.08c8.981-1.399,16.676-9.631,16.653-18.963
	c-0.01-3.885-2.84-8.325-5.553-11.523c-5.487-6.47-12.181-11.898-14.495-20.649c-2.947-11.142,4.905-18.457,15.76-17.733
	c4.216,0.28,8.378,3.941,12.925,0.723c0.366-0.259,3.352,1.712,3.443,2.788c0.406,4.796,0.361,9.652,0.09,14.464
	C886.588,84.961,884.882,85.877,882.892,87.894z"/>
<path fill-rule="evenodd" clip-rule="evenodd" d="M378.125,452.57c-1.684-4.295-2.446-8.547-4.803-11.549
	c-2.022-2.577-5.672-4.537-8.948-5.319c-5.196-1.241-9.478,5.562-6.805,10.897c1.873,3.742,4.697,7.037,7.288,10.384
	c2.905,3.75,6.684,6.971,8.938,11.053c9.361,16.958-2.95,34.627-18.864,36.36c-5.614,0.611-11.442,0.736-17.017-0.039
	c-14.785-2.056-17.156-17.872-11.8-27.452c1.613-2.886,4.366-3.598,8.722-2.771c-2.644,5.81-5.58,11.533-3.026,18.207
	c1.979,5.174,7.236,8.827,12.814,9.2c8.816,0.59,16.23-1.325,21.177-9.47c2.641-4.347,3.177-14.989-1.607-19.831
	c-4.614-4.669-8.982-9.651-12.928-14.895c-4.635-6.159-4.771-14.496-1.009-19.78c3.298-4.635,11.218-6.218,18.563-4.254
	c2.204,0.59,4.836-0.601,7.182-0.294c1.526,0.2,4.018,1.502,4.137,2.535c0.568,4.909,0.607,9.898,0.477,14.85
	C380.594,451.231,378.802,452.012,378.125,452.57z"/>
<path fill-rule="evenodd" clip-rule="evenodd" d="M676.104,728.163c1.018-1.618,1.562-3.442,2.311-3.531
	c11.744-1.389,17.623-10.126,23.231-18.803c8.923-13.804,13.361-29.61,18.946-44.875c3.459-9.453,6.628-19.016,9.708-28.6
	c0.489-1.524-0.177-3.421-0.31-5.146c-1.558,0.357-3.134,0.649-4.667,1.092c-1.221,0.353-2.39,0.887-5.268,1.982
	c1.153-2.844,1.336-5.125,2.482-5.821c6.728-4.087,13.113-9.508,22.742-7.821c-1.288,4.38-2.211,8.297-3.581,12.052
	c-7.242,19.852-14.246,39.802-22.035,59.438c-5.214,13.145-12.418,25.223-24.021,34.059
	C690.741,725.922,683.075,728.623,676.104,728.163z"/>
<path fill-rule="evenodd" clip-rule="evenodd" d="M891.871,174.794c10.937-0.434,18.023-6.888,22.736-15.323
	c6.083-10.891,11.461-22.279,16.014-33.896c5.748-14.664,10.394-29.764,15.394-44.716c0.38-1.137-0.195-2.594-0.327-3.901
	c-1.211,0.16-2.476,0.152-3.62,0.519c-1.922,0.616-3.767,1.471-5.644,2.225c-0.385-0.442-0.769-0.885-1.153-1.327
	c1.447-1.723,2.562-4.073,4.405-5.048c4.981-2.635,10.165-4.99,15.478-6.864c3.983-1.405,5.633,0.603,4.251,4.816
	c-2.481,7.566-5.037,15.114-7.775,22.592c-5.536,15.114-10.894,30.308-16.931,45.223c-5.474,13.521-13.05,25.844-25.438,34.246
	c-3.54,2.401-7.901,3.772-12.068,4.992C895.132,178.935,891.881,179.426,891.871,174.794z"/>
<path fill-rule="evenodd" clip-rule="evenodd" d="M736.016,504.658c4.837-13.333,9.26-25.543,13.694-37.748
	c2.33-6.413,4.783-12.786,6.934-19.259c0.413-1.243-0.324-2.869-0.531-4.318c-1.266,0.378-2.579,0.645-3.786,1.159
	c-1.595,0.679-3.106,1.551-4.793,2.411c-1.032-6.322,13.479-14.719,24.047-14.223c1.286,7.538-4.249,13.279-5.66,19.439
	c6.216-5.324,12.599-10.915,19.148-16.305c1.44-1.186,3.512-1.575,5.22-2.47c3.171-1.658,6.127-1.396,7.324,2.105
	c1.227,3.588-2.154,4.683-4.608,5.957c-4.467,2.32-9.186,4.231-13.416,6.917c-12.64,8.025-20.848,19.558-25.81,33.588
	c-2.004,5.666-4.309,11.233-6.652,16.771C745.302,502.993,741.506,504.062,736.016,504.658z"/>
<path fill-rule="evenodd" clip-rule="evenodd" d="M1446.995,661.606c1.798-5.952,3.178-11.349,5.05-16.569
	c5.762-16.062,11.779-32.031,17.564-48.084c3.58-9.937,7.013-19.93,10.273-29.976c0.576-1.776-0.024-3.936-0.082-5.917
	c-1.771,0.418-3.554,0.797-5.312,1.266c-1.44,0.383-2.853,0.872-4.277,1.314c-0.344-0.515-0.687-1.03-1.03-1.546
	c1.885-1.72,3.528-3.881,5.704-5.068c4.531-2.475,9.22-4.786,14.079-6.499c4.145-1.462,5.855,0.419,4.522,4.561
	c-2.14,6.649-4.482,13.235-6.839,19.813c-9.315,26.005-18.645,52.006-28.031,77.985
	C1456.9,657.641,1453.738,660.878,1446.995,661.606z"/>
<path fill-rule="evenodd" clip-rule="evenodd" d="M48.404,686.906c4.902-13.396,9.652-26.339,14.372-39.294
	c2.056-5.646,4.099-11.297,6.021-16.988c0.355-1.053,0.098-2.312,0.124-3.475c-1.196,0.057-2.468-0.126-3.572,0.223
	c-1.961,0.62-3.82,1.563-6.238,2.591c-0.389-5.58,3.85-6.852,6.757-8.323c5.734-2.904,11.363-7.61,19.339-4.163
	c-2.553,6.437-4.908,12.374-7.263,18.311c0.282,0.268,0.564,0.535,0.847,0.803c4.297-4.493,8.282-9.354,12.998-13.354
	c3.369-2.857,7.69-4.609,11.64-6.756c2.54-1.38,5.551-0.815,5.947,1.744c0.285,1.844-1.758,4.768-3.58,6.051
	c-2.845,2.006-6.574,2.712-9.592,4.527c-14.035,8.439-24.592,19.841-29.933,35.665c-1.919,5.687-4.263,11.234-6.51,16.806
	C58.011,685.609,54.048,687.677,48.404,686.906z"/>
<path fill-rule="evenodd" clip-rule="evenodd" d="M672.585,126.47c-6.687,4.965-12.993,10.674-23.051,11.232
	c0.468-2.746,0.55-4.994,1.245-7.032c5.309-15.547,10.75-31.049,16.105-46.58c0.47-1.362,0.885-2.839,0.864-4.256
	c-0.046-3.155-1.438-4.191-4.461-2.507c-1.84,1.025-3.877,1.697-6.361,2.757c1.258-7.764,17.662-15.676,25.326-12.65
	c-7.034,19.761-14.079,39.554-21.523,60.465c4.751-1.562,7.944-2.611,11.139-3.66C672.108,124.982,672.346,125.727,672.585,126.47z"
	/>
<path fill-rule="evenodd" clip-rule="evenodd" d="M805.557,442.759c-4.21,1.451-7.211,2.486-10.212,3.521
	c-0.238-0.632-0.477-1.264-0.715-1.896c5.652-6.599,13.148-10.193,21.588-11.778c3.549-0.666,3.954,1.356,2.754,4.659
	c-6.106,16.796-11.961,33.685-17.839,50.563c-0.642,1.842-0.862,3.829-1.423,6.413c3.988-1.313,7.028-2.314,10.646-3.507
	c-2.085,6.094-15.94,13.998-23.069,13.242c0.844-3.498,1.392-6.982,2.527-10.263c5.157-14.896,10.551-29.71,15.655-44.624
	C806.114,447.206,805.557,444.911,805.557,442.759z"/>
<path fill-rule="evenodd" clip-rule="evenodd" d="M1190.621,677.25c2.801-1.065,5.602-2.131,9.601-3.651
	c-0.708,2.3-0.704,3.753-1.345,4.14c-5.404,3.262-10.754,6.705-16.473,9.324c-4.016,1.84-5.918-0.018-4.534-4.206
	c4.076-12.335,8.476-24.562,12.755-36.829c1.606-4.604,3.403-9.151,4.741-13.831c0.437-1.523-0.307-3.384-0.51-5.091
	c-1.509,0.184-3.077,0.171-4.513,0.601c-1.636,0.49-3.153,1.373-5.596,2.481c0.457-6.043,4.804-7.296,8.038-9.082
	c11.213-6.193,12.336-6.274,17.06-3.04c-6.945,19.485-13.932,39.087-20.918,58.688
	C1189.492,676.919,1190.056,677.084,1190.621,677.25z"/>
<path fill-rule="evenodd" clip-rule="evenodd" d="M471.679,630.064c2.046-8.235,18.487-16.031,24.866-12.395
	c-5.752,20-15.02,38.996-20.435,60.125c4.17-1.541,7.118-2.631,10.752-3.975c-3.094,7.629-14.301,13.966-23.063,13.389
	c0.24-1.378,0.288-2.765,0.728-4.013c5.284-15.01,10.643-29.993,15.937-45c0.862-2.444,1.697-4.93,2.171-7.466
	c0.21-1.129-0.143-2.857-0.918-3.521c-0.637-0.545-2.339-0.115-3.458,0.236C476.309,628.058,474.445,628.942,471.679,630.064z"/>
<path fill-rule="evenodd" clip-rule="evenodd" d="M1266.558,493.795c4.759,0.587,6.64-5.683,10.732-1.905
	c-4.912,6.562-16.062,12.782-22.9,12.147c0.622-3.205,0.871-6.452,1.896-9.432c5.123-14.896,10.457-29.721,15.694-44.578
	c0.374-1.06,0.769-2.178,0.793-3.276c0.025-1.122-0.095-2.5-0.738-3.282c-0.351-0.426-1.923,0.144-2.94,0.292
	c-0.138,0.021-0.237,0.277-0.379,0.307c-2.149,0.442-4.303,0.864-6.455,1.291c1.457-1.943,2.517-4.569,4.45-5.693
	c4.599-2.672,9.55-4.783,14.495-6.783c1.318-0.533,3.544-0.368,4.571,0.453c0.715,0.571,0.481,2.95,0.009,4.287
	c-5.799,16.385-11.749,32.715-17.575,49.09C1267.445,488.867,1267.152,491.191,1266.558,493.795z"/>
<path fill-rule="evenodd" clip-rule="evenodd" d="M789.657,310.844c3.959-1.361,7.077-2.434,10.195-3.506
	c0.228,0.55,0.455,1.1,0.683,1.65c-5.006,6.426-12.131,9.958-19.667,12.219c-3.794,1.139-3.431-2.914-2.783-5.122
	c1.825-6.229,4.014-12.354,6.162-18.484c3.815-10.887,7.761-21.729,11.493-32.645c0.429-1.252,0.367-3.396-0.408-4.128
	c-0.751-0.709-2.78-0.384-4.135-0.051c-1.626,0.398-3.132,1.285-4.689,1.961c-0.396-0.443-0.791-0.887-1.186-1.33
	c1.672-1.916,3.011-4.395,5.088-5.625c3.896-2.309,8.131-4.144,12.407-5.663c1.808-0.643,4.076,0.012,6.135,0.076
	c-0.072,1.831,0.292,3.814-0.285,5.469c-6.054,17.342-12.263,34.63-18.406,51.941C790.004,308.328,789.968,309.128,789.657,310.844z
	"/>
<path fill-rule="evenodd" clip-rule="evenodd" d="M582.367,310.862c4.398-1.416,7.525-2.422,10.651-3.429
	c-3.73,7.047-11.492,11.594-22.308,14.159c0.338-2.721,0.236-5.284,1.005-7.552c5.323-15.702,10.835-31.341,16.258-47.009
	c0.422-1.219,0.733-2.497,0.909-3.773c0.412-3.012-0.52-4.348-3.725-2.907c-2.144,0.964-4.379,1.722-6.573,2.571
	c-0.358-0.474-0.717-0.948-1.074-1.422c1.386-1.459,2.513-3.438,4.205-4.28c5.619-2.798,11.312-5.572,17.242-7.566
	c2.925-0.983,4.466,0.708,3.125,4.346c-6.072,16.469-11.923,33.021-17.796,49.562C583.55,305.635,583.153,307.828,582.367,310.862z"
	/>
<path fill-rule="evenodd" clip-rule="evenodd" d="M758.533,310.771c4.295-1.341,7.415-2.315,10.535-3.29
	c0.184,0.537,0.366,1.074,0.55,1.611c-6.058,6.308-13.421,10.354-22.571,12.598c-1.038-7.448,2.5-13.487,4.691-19.768
	c4.177-11.972,8.625-23.85,12.72-35.85c0.575-1.685-0.211-3.835-0.367-5.77c-1.737,0.389-3.48,0.756-5.211,1.173
	c-1.519,0.366-3.024,0.788-4.536,1.185c-0.275-0.376-0.551-0.751-0.825-1.127c1.285-1.375,2.327-3.213,3.9-4.042
	c5.426-2.857,10.874-5.834,16.639-7.823c3.396-1.172,5.599,0.269,3.888,4.895c-6.255,16.922-12.171,33.969-18.174,50.983
	C759.26,306.994,759.049,308.549,758.533,310.771z"/>
<path fill-rule="evenodd" clip-rule="evenodd" d="M1496.434,147.999c1.138-0.842,2.229-1.761,3.423-2.513
	c4.351-2.741,5.064-6.984,2.301-11.327c-0.686-1.077-0.508-3.252,0.126-4.481c0.8-1.549,2.477-2.645,3.772-3.938
	c4.568-4.556,6.783-4.048,8.509,2.282C1516.765,136.095,1507.978,149.365,1496.434,147.999z"/>
<path fill-rule="evenodd" clip-rule="evenodd" d="M1514.358,515.174c1.141-1.062,2.214-2.208,3.435-3.168
	c4.353-3.424,4.716-6.398,1.936-11.3c-0.674-1.188-0.238-3.306,0.294-4.776c0.41-1.134,1.632-2.154,2.737-2.816
	c2.122-1.271,4.419-2.251,6.644-3.353c1.044,3.11,3.333,6.406,2.901,9.295c-1.421,9.51-7.697,14.995-16.812,17.316
	C1515.114,515.973,1514.736,515.573,1514.358,515.174z"/>
<path fill-rule="evenodd" clip-rule="evenodd" d="M490.765,605.933c2.042-1.524,3.296-2.204,4.214-3.193
	c2.602-2.806,4.419-5.67,1.292-9.493c-0.824-1.008-1.072-3.74-0.341-4.532c2.144-2.322,4.702-4.56,7.548-5.783
	c1.07-0.46,4.377,1.581,4.956,3.123C511.915,595.325,501.978,607.303,490.765,605.933z"/>
<path fill-rule="evenodd" clip-rule="evenodd" d="M596.453,239.262c9.038-6.377,9.63-8.823,3.667-15.185
	c2.759-2.47,5.22-5.445,8.352-7.271c3.498-2.039,7.987,2.198,7.208,6.751c-1.33,7.777-6.666,14.694-13.74,16.272
	C600.651,240.118,599.177,239.575,596.453,239.262z"/>
<path fill-rule="evenodd" clip-rule="evenodd" d="M772.845,239.196c8.756-6.651,9.184-8.601,3.369-15.173
	c2.539-2.336,4.844-5.068,7.71-6.939c3.582-2.337,7.77,0.965,7.847,5.845c0.105,6.598-7.883,16.251-14.548,17.355
	C776.156,240.462,774.941,239.748,772.845,239.196z"/>
<path fill-rule="evenodd" clip-rule="evenodd" d="M954.578,55.947c2.078-1.47,3.303-1.981,4.003-2.896
	c2.362-3.086,5.621-6.191,1.189-10.12c-0.124-0.11-0.331-0.236-0.333-0.358c-0.021-1.388-0.583-3.515,0.09-4.036
	c2.903-2.251,6.07-4.252,9.4-5.778c0.601-0.275,3.062,1.876,3.57,3.298C975.663,44.918,965.526,57.189,954.578,55.947z"/>
<path fill-rule="evenodd" clip-rule="evenodd" d="M1281.678,422.705c2.841-4.516,12.288-7.912,1.894-15.597
	c3.573-2.719,6.438-5.441,9.79-7.277c2.761-1.514,5.79,1.365,6.366,5.474c1.088,7.764-9.018,18.595-16.905,18.096
	C1282.554,423.384,1282.303,423.096,1281.678,422.705z"/>
<path fill-rule="evenodd" clip-rule="evenodd" d="M738.822,606.003c2.21-1.771,3.666-2.707,4.832-3.921
	c2.603-2.709,4.963-5.379,1.275-9.258c-0.827-0.87-0.624-4.288,0.266-4.934c2.853-2.068,6.941-5.369,9.28-4.552
	c3.972,1.388,3.446,6.146,2.391,10.213C754.773,601.61,747.869,606.971,738.822,606.003z"/>
<path fill-rule="evenodd" clip-rule="evenodd" d="M814.104,421.781c0.861-0.422,1.794-0.741,2.571-1.283
	c4.774-3.328,5.298-6.011,2.692-11.047c-1.605-3.102,0.259-5.027,2.716-6.859c2.39-1.782,4.618-4.511,7.729-2.4
	c2.986,2.024,2.99,5.223,2.098,8.727c-2.49,9.764-8.449,15.003-16.778,14.224C814.789,422.688,814.447,422.234,814.104,421.781z"/>
<path fill-rule="evenodd" clip-rule="evenodd" d="M677.115,56.009c2.075-2.849,4.261-5.486,5.966-8.405
	c0.515-0.88,0.157-2.992-0.596-3.762c-2.688-2.747-2.043-4.925,0.561-7.072c0.999-0.824,1.999-1.686,3.115-2.324
	c5.389-3.086,6.486-2.582,7.796,3.432c1.93,8.863-6.825,19.188-15.754,18.555C677.785,56.401,677.384,56.118,677.115,56.009z"/>
<path fill-rule="evenodd" clip-rule="evenodd" d="M1204.933,606.139c2.128-3.008,4.307-5.521,5.744-8.404
	c0.568-1.139,0.005-3.961-0.938-4.527c-2.978-1.788-2.111-3.177-0.25-4.906c0.365-0.339,0.671-0.748,1.063-1.047
	c2.662-2.025,4.382-6.406,8.944-3.806c2.646,1.509,3.3,7.426,1.431,11.67C1217.176,603.641,1212.503,606.907,1204.933,606.139z"/>
<path fill-rule="evenodd" clip-rule="evenodd" d="M805.573,239.702c0.674-1.056,1.148-2.344,2.057-3.128
	c4.024-3.471,4.294-5.854,1.647-10.544c-0.648-1.148-0.518-3.634,0.31-4.536c1.821-1.984,4.104-3.938,6.584-4.838
	c4.032-1.462,7.907,3.187,6.501,7.933C820.269,232.696,815.658,238.861,805.573,239.702z"/>
<path fill-rule="evenodd" clip-rule="evenodd" d="M1480.665,58.382c-5.975-5.186-6.408-9.502-1.31-14.858
	c2.177-2.287,4.353-2.611,6.332,0.525C1489.914,50.75,1488.625,54.562,1480.665,58.382z"/>
<path fill-rule="evenodd" clip-rule="evenodd" d="M1311.988,40.171c1.996,3.815,3.375,6.032,4.352,8.413
	c1.481,3.611-3.454,10.271-7.156,9.861c-2.758-0.305-5.613-7.675-3.74-10.919C1306.892,45.017,1309.333,43.079,1311.988,40.171z"/>
<path fill-rule="evenodd" clip-rule="evenodd" d="M1459.244,233.588c-3.428,3.145-5.993,5.497-8.559,7.849
	c-1.954-2.525-4.469-4.81-5.691-7.65c-1.038-2.414,4.336-9.047,6.26-8.034C1454.151,227.278,1456.185,230.444,1459.244,233.588z"/>
<path fill-rule="evenodd" clip-rule="evenodd" d="M1417.876,234.317c0.903-4.245,4.115-8.702,6.765-8.815
	c2.816-0.12,7.09,4.716,5.867,8.284c-1.031,3.014-4.637,5.146-7.103,7.667C1421.563,239.074,1419.72,236.696,1417.876,234.317z"/>
<path fill-rule="evenodd" clip-rule="evenodd" d="M1453.998,59.255c-6.766-10.062-6.896-10.169,1.645-17.799
	c4.082,1.994,6.437,6.135,5.718,9.78C1460.772,54.22,1456.677,56.513,1453.998,59.255z"/>
<path fill-rule="evenodd" clip-rule="evenodd" d="M1337.9,41.35c7.957,9.835,7.85,11.054-2.229,17.031
	C1328.779,52.428,1329.214,48.645,1337.9,41.35z"/>
<path fill-rule="evenodd" clip-rule="evenodd" d="M150.771,224.725c2.987,0.799,7.997,7.497,6.818,9.329
	c-1.842,2.862-4.848,4.975-7.361,7.405c-1.797-2.851-5.067-5.749-4.978-8.539C145.34,230.132,148.792,227.452,150.771,224.725z"/>
<path fill-rule="evenodd" clip-rule="evenodd" d="M117.888,233.97c0.994-4.239,4.35-8.541,7.024-8.468
	c2.756,0.075,6.967,5.263,5.611,8.541c-1.232,2.978-4.832,4.975-7.387,7.404C121.387,238.955,119.637,236.462,117.888,233.97z"/>
<path fill-rule="evenodd" clip-rule="evenodd" d="M1484.015,315.418c-3.547,2.764-6.302,4.91-9.057,7.057
	c-1.709-2.843-5.053-5.924-4.684-8.466c0.401-2.763,4.254-5.025,6.602-7.506C1479.074,309.248,1481.271,311.992,1484.015,315.418z"
	/>
<path fill-rule="evenodd" clip-rule="evenodd" d="M1299.753,234.612c1.119-4.842,5.064-10.214,7.053-8.867
	c2.602,1.762,4.584,5.04,5.786,8.08c0.965,2.438-4.899,8.522-7.056,7.395C1303.119,239.954,1301.64,236.893,1299.753,234.612z"/>
<path fill-rule="evenodd" clip-rule="evenodd" d="M1272.917,234.657c0.928-4.158,5.901-10.246,7.764-8.914
	c2.587,1.851,5.898,5.781,5.406,8.071c-0.632,2.941-4.728,5.141-7.33,7.659C1276.81,239.201,1274.865,236.929,1272.917,234.657z"/>
<path fill-rule="evenodd" clip-rule="evenodd" d="M1447.974,671.386c2.167,3.288,4.168,5.656,5.324,8.383
	c0.52,1.227-0.164,3.612-1.152,4.69c-1.798,1.96-4.054,4.231-6.45,4.709c-2.47,0.492-4.87-7.667-3.054-10.935
	C1443.865,676.034,1445.743,674.199,1447.974,671.386z"/>
</svg>
