<?xml version="1.0" encoding="utf-8"?>
<!-- Generator: Adobe Illustrator 16.0.0, SVG Export Plug-In . SVG Version: 6.00 Build 0)  -->
<!DOCTYPE svg PUBLIC "-//W3C//DTD SVG 1.1//EN" "http://www.w3.org/Graphics/SVG/1.1/DTD/svg11.dtd">
<svg version="1.1" id="Lag_1" xmlns="http://www.w3.org/2000/svg" xmlns:xlink="http://www.w3.org/1999/xlink" x="0px" y="0px"
	 width="2039.886px" height="499.615px" viewBox="0 0 2039.886 499.615" enable-background="new 0 0 2039.886 499.615"
	 xml:space="preserve">
<path fill-rule="evenodd" clip-rule="evenodd" d="M691.691,391.665c-2.308,2.689-4.11,6.286-7.016,7.902
	c-9.771,5.438-19.816,10.43-30.005,15.044c-3.937,1.782-8.042,0.262-11.298-2.824c-4.006-3.797-3.941-8.685-2.878-13.338
	c1.319-5.77,3.504-11.341,5.337-17.067c-13.455,11.782-28.131,21.23-45.713,25.001c-7.17,1.538-14.894,3.378-21.419-3.064
	c-3.806,2.198-7.521,4.871-11.638,6.59c-5.063,2.114-10.355,4.177-15.736,4.936c-10.414,1.469-20.833-5.267-16.209-17.88
	c3.632-9.908,7.858-19.601,11.936-29.34c0.993-2.372,2.547-4.505,3.612-6.853c0.314-0.693-0.162-1.746-0.276-2.634
	c-0.734,0.202-1.642,0.196-2.179,0.639c-10.276,8.46-20.066,17.364-27.36,28.706c-3.294,5.12-7.035,9.954-10.64,14.87
	c-0.676,0.922-1.529,1.985-2.532,2.354c-9.555,3.513-18.927,8.079-28.808,10.008c-12.713,2.481-20.519-7.441-16.03-19.755
	c3.996-10.965,9.294-21.455,13.983-32.17c0.606-1.386,1.016-2.858,1.516-4.292c-0.498-0.388-0.996-0.775-1.495-1.164
	c-6.197,5.737-12.977,10.975-18.451,17.334c-7.553,8.775-13.947,18.537-21.227,27.563c-1.941,2.409-5.296,3.68-8.002,5.473
	c-0.493-0.489-0.986-0.979-1.48-1.467c2.299-4.72,4.604-9.437,6.895-14.16c5.559-11.46,10.993-22.983,16.721-34.358
	c2.507-4.979,6.506-8.489,13.629-9.8c-4.923,10.33-9.498,19.933-14.074,29.534c0.401,0.251,0.802,0.502,1.203,0.752
	c1.276-1.489,2.421-3.122,3.853-4.443c7.758-7.16,15.428-14.432,23.497-21.227c2.179-1.835,5.979-3.452,8.435-2.823
	c3.17,0.811,3.701,3.861,1.712,7.543c-5.528,10.231-10.674,20.692-15.426,31.306c-1.542,3.443-1.679,7.62-1.969,11.497
	c-0.656,8.797,7.616,11.553,13.909,10.639c11.984-1.741,17.501-9.954,22.061-19.819c5.507-11.914,11.116-23.807,17.406-35.312
	c1.859-3.401,6.168-5.463,9.354-8.139c0.639,0.493,1.276,0.987,1.914,1.48c-4.596,9.832-9.191,19.663-13.787,29.494
	c0.337,0.255,0.674,0.51,1.012,0.765c5.159-5.35,10.041-11.009,15.559-15.959c5.227-4.689,11.023-8.772,16.795-12.798
	c1.229-0.856,4.345-1.043,4.988-0.246c1.11,1.377,1.81,4.11,1.179,5.665c-1.564,3.863-3.867,7.451-6.068,11.029
	c-6.426,10.441-11.696,21.226-11.398,33.938c0.175,7.502,5.469,11.228,12.946,9.906c7.552-1.335,13.692-4.937,19.409-9.686
	c-1.896-12.253,4.313-21.537,11.543-30.274c8.368-10.112,18.833-17.497,31.451-21.209c2.823-0.831,7.214-0.08,9.44,1.723
	c3.016,2.442,1.018,6.434-1.311,8.659c-4.545,4.345-9.25,8.782-14.616,11.945c-6.854,4.038-14.478,6.75-21.648,10.28
	c-1.503,0.74-3.138,2.367-3.565,3.905c-0.952,3.426-2.284,7.328-1.484,10.545c1.893,7.622,8.854,7.687,17.92,5.739
	c16.618-3.57,30.042-13.356,42.201-24.622c3.632-3.365,5.437-8.879,7.467-13.667c0.479-1.133-1.508-3.312-2.55-5.386
	c0.598-0.201,1.394-0.521,2.217-0.739c4.539-1.201,6.986-4.517,9.459-8.292c11.571-17.665,22.901-35.528,35.37-52.551
	c7.956-10.861,17.768-20.36,26.684-30.525c0.915-1.043,1.604-2.395,2.046-3.721c1.622-4.864,2.494-10.075,4.746-14.611
	c5.087-10.246,10.445-20.4,16.402-30.158c6.708-10.987,14.116-21.553,21.365-32.202c7.058-10.367,14.301-20.607,22.366-32.204
	c-2.348,0.82-3.451,1.31-4.605,1.579c-1.214,0.283-2.703,0.816-3.641,0.358c-0.627-0.308-0.886-2.241-0.647-3.298
	c1.611-7.142,3.494-14.222,5.104-21.364c1.755-7.781,3.672-15.556,4.816-23.435c0.687-4.729,3.754-3.471,6.251-3.372
	c2.818,0.11,3.782,2.017,2.979,4.745c-2.601,8.829-5.323,17.626-7.726,26.509c-1.141,4.219-1.661,8.606-2.571,13.496
	c10.739-3.584,46.326-53.826,44.388-61.468c3.996-1.519,5.853,1.931,7.252,4.082c0.855,1.314-0.191,4.834-1.51,6.439
	c-11.24,13.688-23.169,26.829-34.047,40.792c-12.717,16.323-24.866,33.109-36.737,50.062
	c-10.995,15.702-20.849,32.133-27.625,50.209c-1.934,5.156-3.97,10.274-5.959,15.409c0.398,0.299,0.798,0.598,1.197,0.896
	c2.862-1.468,6.062-2.516,8.516-4.491c4.847-3.901,6.996-0.165,7.927,3.118c1.809,6.381,3.888,13.141,3.456,19.583
	c-0.499,7.446-3.21,14.847-5.641,22.037c-3.39,10.028-11.897,16.343-19.357,22.843c-9.365,8.16-19.837,15.23-30.491,21.681
	c-9.398,5.689-19.579,10.165-29.677,14.579c-3.594,1.572-6.636,3.013-8.321,6.686c-5.051,11.001-10.394,21.875-15.112,33.015
	c-1.273,3.006-1.113,6.8-0.92,10.192c0.188,3.284,5.427,6.227,9.34,5.426c9.938-2.033,18.317-7.084,25.897-13.671
	c1.948-1.693,4.223-3.013,6.347-4.503L691.691,391.665z M671.601,353.564c0.974-0.512,1.927-1.069,2.925-1.527
	c9.232-4.235,18.79-7.882,27.643-12.8c16.51-9.172,31.391-20.616,43.472-35.307c9.811-11.93,10.516-29.971,3.366-43.214
	c-0.968-1.792-4.34-3.164-6.605-3.173c-3.494-0.013-5.355,2.572-5.345,6.308c0.005,1.604-0.655,3.201-0.741,4.816
	c-0.438,8.269-0.998,16.586,6.779,22.425c0.626,0.47,0.689,1.688,1.015,2.56c-2.571-0.89-4.265-2.391-6.12-3.652
	c-6.528-4.438-12.42-9.262-11.794-19.795C703.887,296.474,686.833,324.346,671.601,353.564z M590.952,380.623
	c3.837-1.526,6.62-2.393,9.179-3.698c7.062-3.602,15.088-6.082,19.116-13.686c1.205-2.273,0.862-5.367,1.228-8.085
	c-2.965,0.052-6.863-1.097-8.735,0.36C603.337,362.053,596.244,369.933,590.952,380.623z"/>
<path fill-rule="evenodd" clip-rule="evenodd" d="M712.02,18.938c-10.357,26.521-22.185,52.691-36.993,78.239
	c7.981-2.98,15.355-5.81,22.784-8.488c8.175-2.949,16.215-6.745,24.659-8.34c7.566-1.429,11.981-5.459,15.648-11.405
	c12.934-20.971,28.955-38.972,50.785-50.975c4.715-2.593,10.345-4.03,15.723-4.78c7.332-1.023,11.688,5.441,9.587,12.694
	c-4.058,14.006-14.529,22.44-25.868,30.037c-12.941,8.67-27.531,13.886-42.128,18.889c-3.724,1.276-5.626,3.459-7.118,6.649
	c-4.183,8.941-9.199,17.588-12.403,26.862c-3.341,9.67-7.071,19.506-4.697,30.355c2.729,12.477,13.896,17.223,24.848,14.931
	c4.995-1.045,9.801-2.991,14.692-4.529c0.449,0.511,0.898,1.021,1.348,1.532c-0.825,0.227-1.706,0.336-2.467,0.698
	c-11.417,5.434-23.362,8.957-36.062,7.593c-12.83-1.378-17.929-13.145-15.799-24.65c3.264-17.627,10.508-33.795,19.511-49.213
	c0.545-0.934,0.77-2.054,1.389-3.768c-18.419,6.37-36.232,12.486-53.99,18.756c-1.518,0.536-3.074,1.848-3.936,3.224
	c-9.87,15.769-21.419,30.087-35.906,41.866c-3.587,2.916-7.245,5.931-11.326,8.004c-5.194,2.64-7.257,6.884-7.05,12.034
	c0.215,5.332,0.704,10.938,2.56,15.863c4.568,12.129,11.898,21.403,26.895,20.51c-6.071,2.86-12.398,1.99-17.624-0.756
	c-17.077-8.972-17.758-24.558-14.709-40.367c-8.679,1.897-16.985,4.826-25.424,5.271c-10.041,0.529-19.741-2.417-27.369-9.742
	c-8.513-8.176-7.603-18.831-7.335-29.253c0.017-0.647,0.809-1.274,1.42-2.175c-0.407,6.995,1.878,12.501,5.945,17.882
	c4.235,5.603,9.789,8.494,15.991,10.578c11.978,4.026,24.098,3.905,36.282,0.744c5.354-1.389,4.498-6.944,7.162-10.156
	c6.129-7.388,11.203-15.852,18.176-22.285c7.789-7.187,17.461-12.291,25.779-18.967c3.146-2.525,4.933-6.828,7.107-10.46
	c7.512-12.543,14.999-25.103,22.327-37.753c2.653-4.58,5.002-9.359,7.173-14.19c1.567-3.488-0.958-3.868-3.578-3.882
	c-9.38-0.048-18.437,0.747-27.682,3.512c-10.694,3.198-19.649,8.484-26.594,16.6c-9.555,11.166-16.277,23.957-16.677,39.228
	c-0.022,0.85-0.359,1.691-0.696,3.188c-2.16-5.867-1.84-12.153,1.961-20.861c5.888-13.487,13.14-26.234,24.816-35.668
	c12-9.695,25.207-16.78,41.212-17.037c3.937-0.063,8.012-0.111,11.743-1.162C708.361,23.181,710.069,20.628,712.02,18.938z
	 M744.055,72.346c0.397,0.429,0.796,0.856,1.194,1.285c10.488-4.619,21.339-8.571,31.376-14.022
	c13.009-7.065,23.338-17.191,27.965-31.803c0.721-2.274,0.006-5.574-1.234-7.709c-0.902-1.553-4.27-3.226-5.665-2.666
	c-5.788,2.322-12.091,4.514-16.634,8.53c-7.652,6.768-14.572,14.519-20.937,22.541C754.181,55.986,749.366,64.362,744.055,72.346z
	 M620,151.134c17.852-7.467,39.133-31.702,41.94-44.19C644.163,117.957,629.394,131.069,620,151.134z"/>
<path fill-rule="evenodd" clip-rule="evenodd" d="M1406.883,87.172c-1.404,1.31-2.595,3.066-4.247,3.855
	c-11.446,5.462-23.015,10.667-34.463,16.124c-1.319,0.63-2.503,2.141-3.136,3.523c-5.477,11.967-11.042,23.902-16.102,36.048
	c-2.855,6.857,0.126,13.44,6.896,13.855c4.544,0.279,9.749-1.646,13.831-4.013c11.932-6.919,22.029-16.135,31.818-25.921
	c8.161-8.159,11.724-18.928,18.576-27.702c2.963-3.794,6.444-4.073,10.776-3.389c-10.126,15.173-19.518,29.999-24.17,47.101
	c0.741,0.577,1.482,1.153,2.224,1.729c3.305-2.89,7.328-5.274,9.781-8.764c7.944-11.301,15.308-23.01,22.917-34.547
	c0.51-0.773,1.327-1.357,1.775-2.156c1.39-2.477,3.47-4.332,5.619-1.684c1.05,1.293,0.731,4.651-0.199,6.432
	c-4.093,7.833-8.815,15.336-12.937,23.155c-1.951,3.702-3.581,7.748-4.361,11.828c-0.462,2.414,0.261,5.865,1.823,7.646
	c1.863,2.124,4.946,3.521,8.394,1.774c4.719-2.39,10.374-3.532,14.243-6.834c4.133-3.526,6.83-8.83,9.847-13.555
	c7.78-12.186,16.402-23.557,29.668-30.249c2.311-1.166,5.739-1.827,8.005-0.984c3.803,1.414,6.787,1.519,9.684-1.738
	c0.371,0.283,0.743,0.566,1.114,0.85c-1.146,2.368-2.089,4.862-3.469,7.084c-9.267,14.913-15.967,30.915-19.301,48.114
	c-0.578,2.984,1.744,7.432,4.131,9.775c1.606,1.577,6.306,1.803,8.525,0.604c5.318-2.873,9.984-6.953,14.934-10.516
	c0.516-0.371,1.172-0.545,1.764-0.811l-0.136-0.125c-0.51,1.246-0.66,3.033-1.589,3.65c-6.061,4.032-12.077,8.222-18.526,11.549
	c-5.641,2.909-11.553,1.384-15.818-2.961c-4.536-4.621-4.514-10.444-1.88-16.374c1.873-4.217,3.284-8.64,5.189-13.739
	c-4.219,4.48-7.696,8.656-11.688,12.264c-3.221,2.91-6.868,5.488-10.679,7.567c-4.058,2.215-7.395-0.253-7.622-5.085
	c-0.052-1.098-0.158-2.192-0.218-3c-5.791,2.769-11.222,5.934-17.047,7.97c-4.562,1.595-9.947,1.396-13.57-2.166
	c-3.328-3.271-5.68-7.674-3.372-12.873c0.246-0.554,0.091-1.285-0.808-2.752c-3.484,3.75-6.714,7.79-10.532,11.162
	c-3.285,2.901-6.835,6.33-11.878,4.994c-1.396-0.37-3.49-2.387-3.369-3.428c0.424-3.637,1.656-7.183,2.624-10.752
	c0.39-1.437,0.888-2.844,0.341-4.874c-5.417,4.858-10.572,10.053-16.309,14.5c-10.113,7.84-20.94,14.129-34.128,15.834
	c-8.696,1.125-14.194-8.875-10.927-16.612c1.179-2.79,1.699-5.857,2.613-9.133c-2.851,1.723-5.159,3.117-7.467,4.511l0.142,0.142
	c1.022-1.495,1.72-3.485,3.12-4.403c8.869-5.819,10.608-16.134,15.46-24.44c0.775-1.327-1.056-4.178-1.853-6.912
	c10.224-0.543,11.979-9.861,15.89-16.195c11.703-18.955,24.205-37.304,38.906-53.983c9.598-10.891,20.285-20.849,30.836-30.854
	c2.942-2.791,7.144-4.248,10.75-6.348c3.435-1.999,5.453-0.671,7.001,2.63c4.907,10.466,4.817,21.322,2.372,32.245
	c-2.805,12.534-10.666,21.995-20.098,30.047c-8.134,6.943-16.885,13.168-25.443,19.603c-1.236,0.929-2.927,1.254-4.398,1.853
	c2.098-1.594,4.286-3.067,6.262-4.786c8.43-7.33,16.643-14.918,25.223-22.066c14.438-12.027,16.615-32.583,9.798-48.567
	c-1.853-4.344-5.136-5.559-9.314-2.964c-3.651,2.267-7.326,4.867-10.115,8.08c-8.268,9.524-16.724,18.988-23.951,29.287
	c-9.125,13.004-17.165,26.773-25.562,40.281c-3.438,5.531-6.587,11.242-9.868,16.871c0.306,0.361,0.611,0.723,0.917,1.084
	c9.036-4.364,18.06-8.757,27.116-13.08C1400.413,89.943,1403.667,88.596,1406.883,87.172z M1467.494,149.268
	c0.456,0.287,0.912,0.575,1.368,0.862c0.867-0.337,1.977-0.439,2.562-1.048c5.229-5.424,10.857-10.562,15.396-16.523
	c4.993-6.558,9.076-13.829,13.248-20.969c0.653-1.118,0.187-4.189-0.649-4.615c-1.896-0.965-5.227-1.931-6.41-0.97
	c-4.283,3.479-8.497,7.347-11.65,11.832c-3.643,5.182-6.445,11.033-9.027,16.854
	C1470.264,139.349,1469.074,144.394,1467.494,149.268z"/>
<path fill-rule="evenodd" clip-rule="evenodd" d="M1164.101,275.012c-1.367,2.452-1.873,4.431-3.146,5.479
	c-17.774,14.649-34.096,30.752-47.272,49.667c-8.808,12.644-15.078,26.709-17.441,42.109c-1.232,8.035,0.024,16.133,6.63,21.51
	c8.036,6.54,17.235,6.611,26.683,2.34c13.711-6.199,24.875-15.456,34.183-27.162c7.312-9.196,15.7-17.691,21.901-27.569
	c5.956-9.487,9.498-20.46,14.495-30.584c5.753-11.653,11.752-23.195,18.03-34.572c2.479-4.492,6.159-8.273,11.997-8.129
	c1.267,0.031,3.512,0.944,3.586,1.637c0.294,2.728,0.006,5.544-0.407,8.276c-0.038,0.252-2.538,0.396-3.812,0.153
	c-5.858-1.116-12.141,2.924-15.064,10.098c-4.781,11.731-10.041,23.317-13.97,35.333c-4.16,12.724-6.545,26.021-10.563,38.799
	c-3.173,10.088-3.844,20.243-3.888,30.63c-0.023,5.433,1.461,10.637,5.626,13.517c4.993,3.452,10.736,1.162,15.771-1.44
	c8.141-4.207,14.064-10.945,19.604-17.997c4.12-5.244,7.948-10.717,11.907-16.088c0.389,0.166,0.778,0.332,1.167,0.498
	c-1.157,2.478-1.909,5.27-3.544,7.376c-5.799,7.473-11.704,14.882-17.94,21.988c-5.846,6.662-13.552,10.808-21.776,13.77
	c-11.693,4.212-21.547-3.13-21.806-15.617c-0.267-12.826,3.045-24.947,6.591-37.052c1.624-5.544,3.431-11.035,5.121-16.445
	c-5.532,7.141-10.929,14.469-16.708,21.481c-8.901,10.803-18.968,20.294-30.688,28.176c-9.173,6.168-19.146,9.123-29.807,10.7
	c-8.974,1.328-20.84-7.071-23.651-15.188c-4.39-12.67,0.925-23.069,5.77-33.928c6.306-14.133,16.11-25.841,25.925-37.437
	c6.973-8.239,15.172-15.438,22.79-23.136c1.703-1.721,3.264-3.582,5.69-6.263c-8.764,0.388-16.575,0.442-24.33,1.134
	c-19.707,1.759-39.423,4.249-57.693,12.183c-14.941,6.487-25.099,18.124-29.939,33.981c-0.174,0.569-0.385,1.128-0.578,1.691
	c-0.451-0.078-0.902-0.155-1.354-0.233c0.397-2.102,0.495-4.316,1.239-6.287c6.089-16.122,17.039-27.966,32.55-35.271
	c9.456-4.454,19.08-8.854,29.068-11.779c8.678-2.541,17.936-3.354,27.005-4.245c10.987-1.079,22.062-1.253,33.062-2.24
	C1157.747,278.639,1160.23,276.735,1164.101,275.012z"/>
<path fill-rule="evenodd" clip-rule="evenodd" d="M691.821,391.784c3.858-3.941,8.231-7.51,11.435-11.926
	c3.49-4.811,5.896-10.408,8.764-15.668c0.072-0.133,0.107-0.389,0.031-0.485c-4.862-6.14,2.118-5.934,4.337-8.493
	c3.116-3.597,5.776-7.614,8.415-11.595c5.539-8.357,10.53-17.108,16.484-25.151c9.499-12.832,19.446-25.343,29.49-37.759
	c9.119-11.273,19.772-20.93,31.978-28.869c6.72-4.372,11.588-1.875,13.277,7.319c2.701,14.701,1.157,28.754-7.255,41.477
	c-2.3,3.479-5.329,6.475-8.347,10.078c2.41,0.891,6.683-1.02,6.547,3.68c-0.115,3.979-3.943,8.006-8.129,8.572
	c-2.854,0.386-4.074-1.017-3.676-3.778c0.174-1.21,0.647-2.377,0.834-3.028c-10.673,7.578-21.14,15.909-32.484,22.793
	c-9.8,5.948-20.536,10.387-30.989,15.21c-3.657,1.687-7.274,3.138-9.026,7.057c-5.316,11.893-11.117,23.606-15.69,35.779
	c-3.378,8.99,2.179,14.218,11.533,12.079c12.828-2.934,22.164-11.438,31.803-19.552c7.757-6.531,11.813-15.604,17.049-23.893
	c4.238-6.709,8.706-13.271,13.315-20.268c3.489,3.951,4.397,6.953,1.489,11.236c-6.833,10.063-13.314,20.383-19.511,30.852
	c-2.109,3.563-3.355,7.794-4.248,11.883c-1.025,4.702,3.717,7.885,8.901,6.125c9.275-3.147,17.587-8.084,24.699-14.779
	c7.093-6.679,13.969-13.604,20.639-20.705c2.033-2.164,3.756-5.102,4.442-7.967c2.743-11.45,11.573-15.179,21.432-18.064
	c4.192-1.227,8.067-1.571,11.478,1.502c1.016,0.916,1.83,2.435,1.98,3.763c0.072,0.631-1.633,1.463-2.744,2.376
	c-2.034-6.561-5.203-7.706-10.803-5.255c-8.531,3.733-11.41,11.158-13.11,19.303c-3.266,15.639-7.002,31.169-14.631,45.311
	c-6.889,12.769-16.831,22.812-31.332,26.29c-10.802,2.59-21.843,2.677-30.2-6.899c-1.06-1.215-1.601-2.884-1.855-4.843
	c4.941,7.691,12.295,10.161,20.68,10.518c10.738,0.456,18.75-4.542,25.502-12.47c7.947-9.333,12.466-20.101,14.881-31.998
	c0.993-4.897,2.864-9.614,4.283-14.428c0.332-1.126,0.45-2.314,0.914-4.804c-6.337,6.304-11.446,11.886-17.077,16.88
	c-10.301,9.136-21.454,17.023-34.865,21.083c-2.009,0.607-4.031,1.403-6.09,1.562c-5.658,0.438-8.579-3.684-7.131-9.976
	c0.506-2.201,1.327-4.342,2.148-6.453c0.745-1.916,1.686-3.755,2.632-5.83c-6.161,4.816-11.741,10.23-18.267,14.009
	c-7.812,4.521-16.256,8.128-24.758,11.221c-6.385,2.323-13.207-3.254-12.802-10.001c0.394-6.556,1.542-13.065,2.264-18.83
	c-2.267,1.479-5.506,3.595-8.756,5.701C691.691,391.665,691.821,391.784,691.821,391.784z M727.937,353.093
	c0.303,0.237,0.604,0.475,0.907,0.712c7.196-3.284,14.443-6.461,21.577-9.874c17.682-8.459,33.381-19.666,47.09-33.739
	c8.92-9.157,14.361-19.637,13.491-32.635c-0.289-4.313-1.338-8.681-2.719-12.795c-3.279-9.767-8.48-9.689-14.303-4.047
	c-7.484,7.253-15.231,14.468-21.408,22.782c-9.983,13.437-18.948,27.647-28.014,41.743
	C738.713,334.328,733.457,343.796,727.937,353.093z"/>
<path fill-rule="evenodd" clip-rule="evenodd" d="M1899.52,392.64c-2.693,1.464-5.241,3.368-8.105,4.311
	c-8.461,2.784-16.974,5.482-25.606,7.654c-7.957,2.001-14.394-5.389-11.146-13.394c3.89-9.593,9.063-18.665,13.672-27.968
	c0.283-0.57,0.539-1.166,0.701-1.779c0.073-0.276-0.115-0.622-0.059-0.363c-11.157,0-22.182,0-33.667,0
	c-2.461,11.671-7.639,23.004-16.396,32.248c-5.679,5.994-12.02,11.592-21.156,11.664c-6.354,0.05-9.939-4.581-8.353-10.753
	c0.194-0.756,0.521-1.478,0.098-2.979c-1.935,1.547-3.84,3.131-5.808,4.634c-6.433,4.912-13.09,8.748-21.665,9.298
	c-8.039,0.516-13.812-5.625-12.933-13.569c0.124-1.122,0.181-2.253,0.32-4.037c-2.616,2.834-4.632,5.627-7.229,7.687
	c-3.684,2.923-7.609,5.663-11.772,7.827c-4.945,2.57-8.565-0.044-7.192-5.412c1.557-6.084,3.715-12.166,6.624-17.719
	c4.823-9.206,10.438-17.998,15.754-26.945c2.622-4.415,7.199-5.653,10.871-3.425c-3.517,5.36-7.547,10.479-10.455,16.171
	c-4.498,8.806-8.293,17.976-12.199,27.071c-0.431,1.003,0.361,2.53,0.586,3.814c1.01-0.432,2.141-0.695,3.01-1.321
	c9.579-6.894,15.21-16.981,21.365-26.63c3.696-5.794,7.146-11.75,10.996-17.438c0.791-1.168,2.865-1.467,4.349-2.166
	c0.609,2.069,2.137,4.41,1.623,6.147c-0.87,2.943-3.197,5.42-4.617,8.241c-4.641,9.227-9.427,18.401-13.506,27.876
	c-0.969,2.252-0.389,6.755,1.247,8.147c2.101,1.789,6.175,2.467,9.067,1.907c12.087-2.337,21.07-9.856,26.838-20.195
	c6.243-11.192,15.602-18.786,25.387-26.246c1.046-0.797,1.955-1.787,3.044-2.514c2.294-1.532,4.638-4.007,7.015-4.069
	c1.797-0.048,3.42,3.572,5.577,4.625c4.12,2.012,8.45,4.066,12.905,4.79c5.033,0.816,10.369-0.335,15.448,0.326
	c5.847,0.762,8.236-2.305,11.266-6.547c8.744-12.249,18.187-24,27.354-35.946c0.573,0.406,1.146,0.812,1.72,1.218
	c-8.646,13.035-17.294,26.07-25.941,39.105c0.285,0.476,0.569,0.95,0.854,1.425c9.197-0.437,18.402-1.314,27.589-1.158
	c6.504,0.11,13.292-2.341,19.623,1.449c0.654,0.392,2.687-0.405,3.3-1.23c5.489-7.385,10.635-15.027,16.219-22.337
	c4.778-6.253,9.999-12.167,15.023-18.231c0.418,0.302,0.836,0.604,1.254,0.904c-8.726,13.083-17.451,26.166-26.484,39.711
	c15.848,0,31.391,0,46.934,0c0.062,0.233,0.126,0.466,0.188,0.699c-0.896,0.266-1.782,0.723-2.688,0.768
	c-14.362,0.709-28.73,1.314-43.087,2.121c-1.307,0.073-3.241,1.064-3.706,2.139c-3.872,8.947-7.805,17.897-11.033,27.087
	c-2.31,6.576,0.731,12.241,5.703,11.382c5.991-1.036,11.84-3.073,17.628-5.038c3.692-1.253,7.163-3.158,10.733-4.771
	c0.248,0.433,0.496,0.865,0.744,1.298c-2.299,1.557-4.396,3.72-6.932,4.562c-8.914,2.961-17.891,5.828-27.014,8.027
	c-6.459,1.558-11.467-3.123-11.26-9.848c0.242-7.877,3.95-14.576,7.744-21.209c2.48-4.335,4.9-8.703,7.567-13.447
	c-1.474-0.129-2.287-0.104-3.055-0.282c-4.571-1.06-9.39,2.729-14.159-1.651c-1.698-1.561-6.573,0.414-10.007,0.651
	c-7.749,0.535-15.504,0.994-24.196,1.543c-3.701,9.162-7.994,18.847-11.504,28.808c-2.365,6.712,0.885,12.342,6.224,11.468
	c5.698-0.933,11.271-2.885,16.746-4.824c3.76-1.332,7.258-3.402,10.872-5.142C1898.755,391.452,1899.137,392.046,1899.52,392.64z
	 M1798.687,395.515c0.627,1.327,1.488,5.63,3.052,5.902c2.534,0.441,6.125-1.106,8.196-2.993c3.597-3.277,6.929-7.13,9.376-11.323
	c4.771-8.174,6.24-17.43,6.708-26.764c0.169-3.375-1.736-5.068-4.932-2.726c-2.91,2.133-5.665,4.537-8.204,7.103
	C1804.883,372.8,1799.979,382.412,1798.687,395.515z"/>
<path fill-rule="evenodd" clip-rule="evenodd" d="M356.368,279.143c-2.113,1.625-4.193,3.298-6.348,4.867
	c-14.17,10.323-26.644,22.377-37.979,35.772c-9.578,11.319-16.842,23.777-21.129,37.894c-2.682,8.828-4.32,17.882-1.472,27.077
	c4.084,13.185,13.005,21.283,26.379,24.204c13.757,3.004,27.145,0.702,40.017-4.349c19.442-7.629,36.812-18.711,51.044-34.034
	c15.319-16.495,26.47-35.4,30.273-58.059c2.109-12.564,1.401-24.264-6.721-35.053c-4.884-6.488-11.251-9.345-18.608-10.328
	c-9.495-1.268-18.625,0.897-27.173,5.118c-7.834,3.869-14.547,18.722-12.455,27.401c0.401,1.663,1.656,3.121,1.914,6.024
	c-3.193-1.323-7.372-1.837-9.309-4.192c-2.024-2.464-3.389-5.975-1.541-10.393c4.118-9.847,11.998-15.354,20.566-20.186
	c12.838-7.239,26.65-10.179,41.151-6.399c13.788,3.594,21.414,13.049,24.172,26.968c2.091,10.549-0.331,20.213-3.729,30.075
	c-7.934,23.019-23.632,40.385-40.939,56.374c-17.551,16.214-37.645,28.261-61.064,34.595c-11.47,3.102-23.186,3.828-34.369,2.054
	c-12.763-2.024-25.113-7.688-31.113-20.538c-3.79-8.116-3.522-17.061-1.452-25.981c3.634-15.653,12.432-28.38,21.9-40.844
	c10.714-14.102,24.098-25.389,37.923-36.199c6.024-4.711,12.311-9.087,18.478-13.614
	C355.312,277.979,355.839,278.561,356.368,279.143z"/>
<path fill-rule="evenodd" clip-rule="evenodd" d="M1334.343,360.243c-5.465,0-10.279,0-15.093-0.062
	c-0.007,0-0.001-0.929-0.001-2.163c4.406,0,8.832,0.261,13.199-0.13c1.736-0.154,3.854-1.358,4.93-2.754
	c9.131-11.861,18.016-23.911,27.112-35.799c1.076-1.407,2.979-2.182,4.792-2.409c-8.742,13.089-17.483,26.177-26.109,39.092
	c14.236,0,27.796-0.074,41.352,0.08c2.039,0.023,4.051,1.503,6.104,1.584c1.469,0.059,3.551-0.662,4.396-1.771
	c9.208-12.073,18.192-24.317,27.34-36.438c1.053-1.395,2.723-2.322,4.855-2.732c-8.732,13.057-17.466,26.113-26.604,39.776
	c16.167,0,31.708,0,48.71,0c-2.003,0.859-2.725,1.416-3.472,1.453c-14.529,0.719-29.064,1.315-43.588,2.143
	c-1.467,0.083-3.695,1.148-4.156,2.316c-3.933,9.966-7.808,19.973-11.126,30.155c-1.65,5.063,2.188,8.324,7.472,7.771
	c8.295-0.868,15.782-3.712,22.888-7.911c1.279-0.756,2.931-0.881,4.41-1.297c0.221,0.443,0.442,0.887,0.663,1.33
	c-4.135,2.166-8.074,4.926-12.448,6.36c-6.769,2.22-13.754,4.124-20.794,5.08c-8.444,1.146-12.523-0.376-12.201-9.903
	c0.205-6.035,2.877-10.863,5.492-15.871c3.071-5.882,6.187-11.74,9.794-18.579c-4.282,0.532-7.632,1.175-10.995,1.259
	c-1.398,0.035-2.817-1.145-4.244-1.729c-0.969-0.396-1.989-1.072-2.951-1.018c-10.2,0.579-20.421,1.036-30.563,2.169
	c-1.854,0.207-4.094,3.016-4.943,5.114c-3.508,8.671-6.901,17.422-9.638,26.358c-1.814,5.923,2.327,9.067,7.67,8.651
	c9.427-0.734,17.338-5.27,25.642-8.92c0.4-0.176,0.869-0.195,1.824-0.396c-0.232,0.891-0.204,1.731-0.534,1.91
	c-11.718,6.33-23.581,12.138-37.513,11.096c-4.926-0.368-7.049-2.888-6.919-7.659c0.05-1.827,0.008-3.658,0.008-6.232
	c-3.027,2.419-5.654,4.443-8.199,6.565c-6.214,5.177-13.122,8.429-21.417,8.308c-7.797-0.113-12.223-4.32-12.381-12.04
	c-0.022-1.097-0.003-2.193-0.003-3.637c-4.691,4.042-8.808,7.924-13.283,11.332c-3.211,2.445-7.282,5.34-11.056,2.172
	c-3.807-3.196-1.611-7.692,0.266-11.286c6.931-13.268,14.043-26.442,21.185-39.599c1.63-3.002,8.061-4.157,10.563-2.313
	c-10.648,14.172-18.47,29.731-24.206,46.348c0.411,0.455,0.822,0.91,1.232,1.365c1.544-0.742,3.523-1.104,4.56-2.289
	c6.033-6.905,12.198-13.743,17.626-21.115c4.82-6.548,8.572-13.874,13.167-20.604c1.223-1.791,3.805-2.653,5.764-3.941
	c-0.094,2.856,0.82,6.305-0.45,8.471c-6.579,11.214-14.206,21.86-16.434,35.108c-1.067,6.345,3.185,10.551,9.446,8.771
	c12.362-3.513,22.525-9.72,27.995-22.274C1326.314,372.997,1330.449,367.051,1334.343,360.243z"/>
<path fill-rule="evenodd" clip-rule="evenodd" d="M1630.552,416.064c-4.673-7.533-4.707-7.559,0.24-14.326
	c11.386-15.575,18.174-32.87,20.42-52.091c1.176-10.068,1.759-19.99-1.1-29.826c-4.61-15.864-15.927-25.159-31.312-28.493
	c-12.286-2.662-23.707,2.042-33.309,9.965c-5.835,4.814-10.945,10.504-16.432,15.748c-0.879,0.842-2.019,1.411-3.037,2.106
	c-0.375-0.353-0.75-0.705-1.125-1.058c4.912-5.977,9.453-12.312,14.823-17.845c7.641-7.872,16.602-14.401,27.051-17.775
	c5.616-1.814,12.059-1.17,18.138-1.425c10.25-0.43,18.603,4.042,25.01,11.483c9.695,11.259,12.881,24.597,10.106,39.221
	c-1.481,7.814-2.83,15.692-4.978,23.334c-2.365,8.423-5.453,16.653-8.471,24.879c-1.656,4.515-3.815,8.846-6.147,14.17
	c17.318-9.444,33.975-17.738,49.793-27.406c12.302-7.518,23.102-17.091,32.465-28.415c8.574-10.369,15.89-21.267,18.752-34.353
	c2.147-9.817,1.159-19.5-7.579-26.812c-3.861-3.231-7.934-3.449-12.435-2.812c-1.995,0.282-3.997,0.521-6.104,0.176
	c6.552-5.79,13.981-8.965,22.632-7.011c7.698,1.738,12.813,7.117,13.925,14.728c1.493,10.234-0.23,20.292-5.15,29.619
	c-7.869,14.914-18.39,27.703-30.657,39.214c-12.5,11.729-27.245,20.017-41.935,28.479c-11.952,6.886-24.24,13.374-33.309,24.251
	C1637.474,407.812,1634.104,411.822,1630.552,416.064z"/>
<path fill-rule="evenodd" clip-rule="evenodd" d="M1260.234,8.042c-2.81,3.176-5.393,5.382-7.083,8.136
	c-6.639,10.81-12.766,21.938-19.515,32.676c-8.568,13.634-17.5,27.041-26.381,40.476c-8.07,12.209-16.291,24.318-24.417,36.489
	c-0.714,1.069-1.22,2.277-1.877,3.523c3.259,2.771,6.393,5.434,10.34,8.789c-6.257,1.489-11.201,5.633-15.788,0.013
	c-9.808,12.523-19.376,24.848-29.061,37.08c-11.482,14.502-25.438,26.305-41.583,35.105c-5.588,3.046-12.684,3.918-19.204,4.49
	c-6.534,0.574-13.216-0.388-19.819-0.863c-1.343-0.097-2.582-1.232-3.946-1.509c-1.416-0.285-3.289-0.687-4.329-0.031
	c-3.943,2.479-5.55,1.828-7.485-2.388c-5.104-11.113-4.13-22.854-3.885-34.488c0.091-4.317,3.11-7.359,6.9-9.779
	c0,5.283-0.659,10.673,0.166,15.823c1.038,6.476,2.551,13.086,5.195,19.044c3.774,8.504,11.839,10.727,20.492,11.419
	c18.573,1.485,33.211-7.005,46.168-18.796c7.879-7.17,15.103-15.17,21.889-23.4c7.689-9.324,14.498-19.372,21.821-29.005
	c2.879-3.786,3.306-5.968-0.781-10.153c-9.451-9.679-17.538-20.894-19.603-34.691c-0.826-5.521,0.667-11.816,2.578-17.24
	c5.242-14.876,15.522-25.828,29.665-32.532c14.334-6.795,29.058-12.788,43.736-18.829c6.744-2.775,13.009-5.794,17.099-12.263
	C1245.836,8.321,1252.835,8.304,1260.234,8.042z M1234.101,28.348c-0.396-0.397-0.791-0.795-1.188-1.193
	c-13.721,5.282-27.466,10.504-41.157,15.862c-13.982,5.474-26.25,13.3-33.805,26.782c-3.51,6.264-6.418,12.846-4.19,20.5
	c4.197,14.417,12.9,25.703,24.7,36.338C1197.169,93.589,1215.635,60.969,1234.101,28.348z"/>
<path fill-rule="evenodd" clip-rule="evenodd" d="M77.848,371.691c4.329-2.863,8.532-5.945,13.018-8.536
	c6.027-3.479,12.196-6.738,18.455-9.783c3.612-1.757,7.428-3.277,11.318-4.23c4.406-1.08,7.495,2.878,6.356,7.889
	c-0.888,3.913-1.893,7.827-3.226,11.606c-2.941,8.338-6.123,16.592-9.534,25.762c9.58-5.446,18.806-10.475,27.811-15.872
	c8.888-5.327,17.957-10.495,26.176-16.746c5.651-4.298,10.326-9.863,17.474-11.895c1.525-0.434,3.613-1.228,4.661-0.584
	c4.148,2.549,7.686,2.297,11.019-1.671c0.275,0.304,0.551,0.606,0.827,0.91c-1.06,2.016-2.08,4.054-3.185,6.044
	c-7.489,13.496-15.23,26.885-18.32,42.279c-0.642,3.196-1.808,6.52-1.456,9.641c1.085,9.622,6.305,11.317,14.14,7.401
	c10.522-5.26,19.057-13.288,25.537-23.302c0.742-1.146,1.966-1.98,2.967-2.959c0.359,0.326,0.718,0.652,1.077,0.978
	c-2.324,2.999-4.257,6.438-7.047,8.91c-7.788,6.899-15.439,14.163-24.128,19.753c-4.833,3.108-11.702,3.349-17.313-0.455
	c-5.513-3.736-6.475-8.972-4.434-15.046c1.026-3.054,1.927-6.149,2.875-9.229c0.424-1.379,0.826-2.764,1.268-4.246
	c-6.477,5.404-12.284,10.811-18.731,15.3c-2.031,1.414-6.392,1.378-8.515,0.083c-1.358-0.828-1.573-5.627-0.567-7.868
	c3.885-8.66,8.466-17.008,12.896-25.685c-0.913,0.445-2.277,0.945-3.464,1.718c-10.307,6.705-20.794,13.16-30.81,20.277
	c-10.879,7.731-19.891,16.735-26.522,29.117c-8.62,16.096-19.819,30.937-30.972,45.503c-6.729,8.789-15.212,16.32-23.389,23.896
	c-9.041,8.375-20.292,10.323-32.021,8.133c-5.985-1.118-12.875-5.79-12.017-14.952c0.459-4.906,0.627-9.839,0.927-14.76
	c0.446,0.022,0.891,0.046,1.336,0.069c0.227,2.566,0.211,5.183,0.725,7.69c1.572,7.673,7.233,11.69,14.916,12.286
	c15.707,1.218,27.352-6.475,38.633-15.936c15.15-12.706,24.744-29.708,36.032-45.397c2.82-3.92,4.559-8.602,7.047-12.782
	c1.546-2.599,1.718-4.94-0.317-7.139c-2.616-2.825-2.255-4.896,1.394-6.041c6.516-2.045,9.386-7.057,11.007-13.116
	c1.848-6.906,3.249-13.959,5.536-20.713c1.243-3.67,0.635-6.789-2.214-8.115c-2.776-1.292-6.966-1.9-9.594-0.717
	c-8.203,3.693-15.954,8.39-23.901,12.658c-0.928,0.499-1.986,0.756-2.984,1.124C78.36,372.526,78.104,372.109,77.848,371.691z
	 M155.088,398.087c0.622,0.379,1.244,0.759,1.867,1.139c0.955-0.474,2.128-0.734,2.829-1.456c3.606-3.714,7.465-7.267,10.539-11.396
	c6.166-8.28,11.886-16.894,17.776-25.379c1.918-2.764,0.822-5.123-1.934-5.73c-3.074-0.676-6.7-1.223-9.005,2.184
	c-5.518,8.152-11.437,16.078-16.333,24.591C158.039,386.885,156.944,392.705,155.088,398.087z"/>
<path fill-rule="evenodd" clip-rule="evenodd" d="M1029.689,153.664c-2.516,2.932-4.589,6.496-7.655,8.639
	c-4.192,2.93-8.965,5.276-13.803,6.982c-9.372,3.306-17.625-2.563-16.955-12.371c0.445-6.514,2.561-12.914,3.854-19.015
	c-2.346,2.521-4.923,5.784-8.005,8.47c-3.531,3.078-7.347,5.907-11.334,8.366c-4.972,3.066-7.897,1.531-9.073-4.787
	c-2.03,1.868-3.749,3.626-5.646,5.165c-6.651,5.401-12.744,11.556-21.376,14.102c-5.55,1.638-10.551,1.206-14.604-2.842
	c-3.673-3.669-5.014-8.196-3.104-13.502c1.796-4.991,3.099-10.16,4.979-16.458c-4.004,4.176-7.177,7.833-10.726,11.08
	c-3.192,2.921-6.584,5.771-10.324,7.878c-1.556,0.876-4.905,0.497-6.237-0.676c-1.476-1.299-2.669-4.508-2.103-6.286
	c4.719-14.82,13.334-27.326,24.667-37.796c4.286-3.96,9.662-6.781,14.704-9.854c1.271-0.775,3.406-1.132,4.741-0.623
	c4.213,1.606,8.167,2.346,11.957-1.836c0.174,0.453,0.347,0.907,0.521,1.361c-3.339,5.938-6.992,11.724-9.931,17.854
	c-3.073,6.413-5.676,13.078-8.076,19.78c-1.788,4.991-2.804,10.254-4.39,15.325c-1.332,4.258-1.112,8.344,2.052,11.444
	c3.584,3.511,8.334,2.578,12.005,0.495c9.104-5.166,16.968-12.072,22.796-20.795c4.136-6.191,6.833-13.346,10.98-19.528
	c6.19-9.23,13.993-17.13,23.722-22.67c2.483-1.413,6.009-1.22,9.07-1.332c3.326-0.122,6.67,0.261,10.33,0.438
	c-0.839,1.566-2.131,4.338-3.736,6.915c-7.91,12.697-13.906,26.244-17.448,40.757c-0.961,3.939-0.729,8.315-0.295,12.411
	c0.516,4.867,6.956,7.327,12.332,4.272c5.703-3.239,10.851-7.456,16.241-11.246L1029.689,153.664z M941.245,109.083
	c-4.933-5.479-9.406-5.414-13.253,0.414c-6.026,9.131-12.051,18.297-17.368,27.843c-1.971,3.537-1.942,8.188-2.825,12.332
	c0.604,0.267,1.209,0.534,1.812,0.801C923.284,139.297,933.331,125.247,941.245,109.083z M976.549,149.296
	c0.7,0.411,1.4,0.822,2.101,1.233c14.306-11.343,24.509-25.806,31.851-42.328c-5.743-5.416-9.526-3.893-14.372,2.66
	c-6.218,8.41-11.207,17.775-16.222,27.002C978.052,141.274,977.626,145.463,976.549,149.296z"/>
<path fill-rule="evenodd" clip-rule="evenodd" d="M1334.051,143.936c-4.731,3.349-9.14,7.373-14.295,9.838
	c-4.381,2.095-9.365,3.591-14.684,1.355c-5.05-2.123-7.044-5.642-6.975-10.789c0.021-1.496,0.003-2.992,0.003-5.662
	c-3.642,3.577-6.52,6.644-9.654,9.419c-3.322,2.941-6.54,6.15-11.602,5.958c-5.694-0.217-7.347-2.267-4.897-7.365
	c5.536-11.525,11.374-22.904,17.068-34.354c0.288-0.58,0.377-1.26,0.729-2.49c-12.355,2.173-24.492,5.995-36.424,0.516
	c-2.616,7.157-4.383,13.799-7.397,19.814c-4.55,9.077-11.497,16.409-19.845,22.187c-2.572,1.78-5.811,2.986-8.907,3.546
	c-8.433,1.525-12.614-5.165-9.418-15.037c4.17-12.881,12.982-22.419,23.166-30.739c5.495-4.49,11.544-8.304,17.716-12.688
	c4.838,11.753,15.711,10.386,24.731,12.387c3.672,0.815,7.798-0.529,11.726-0.722c4.315-0.211,7.178-2.267,9.449-5.931
	c2.49-4.016,6.573-4.852,10.748-2.938c-10.372,14.284-19.138,29.337-22.981,46.834c7.024-1.563,10.829-6.79,14.307-11.503
	c7.304-9.901,13.461-20.642,20.341-30.868c1.276-1.898,4.51-4.647,5.51-4.178c3.652,1.718,2.355,5.053,0.816,7.868
	c-4.852,8.878-9.951,17.627-14.552,26.631c-1.509,2.954-2.248,6.498-2.523,9.84c-0.459,5.584,4.455,9.181,9.798,7.142
	c6.172-2.355,12.134-5.262,18.188-7.929L1334.051,143.936z M1217.711,154.051c3.997-1.931,6.901-2.634,8.855-4.393
	c11.235-10.118,16.629-22.932,16.472-38.026c-0.016-1.488-0.532-3.802-1.489-4.23c-1.095-0.49-3.217,0.323-4.42,1.211
	c-11.231,8.289-18.567,19.232-20.84,33.057C1215.691,145.312,1217.102,149.285,1217.711,154.051z"/>
<path fill-rule="evenodd" clip-rule="evenodd" d="M1459.802,387.635c-5.827,4.555-11.641,9.129-17.493,13.651
	c-1.285,0.993-2.639,2.394-4.09,2.574c-2.887,0.359-6.982,1.132-8.496-0.368c-1.604-1.588-1.839-6.035-0.857-8.517
	c7.009-17.716,18.116-32.459,34.095-43.031c3.466-2.293,7.795-5.151,12.706-1.393c1.003,0.768,3.835-0.774,5.792-1.362
	c1.096-0.329,2.125-0.885,3.69-1.555c-5.604,10.556-11.606,19.996-15.731,30.197c-3.551,8.783-5.298,18.362-7.219,27.717
	c-1.803,8.78,5.786,12.58,13.521,8.451c10.584-5.648,19.079-13.82,25.781-23.812c0.615-0.916,1.426-1.701,2.146-2.547
	c0.478,0.375,0.954,0.751,1.432,1.127c-1.985,2.407-3.944,4.838-5.962,7.219c-7.099,8.38-15.068,15.74-24.692,21.194
	c-4.562,2.585-14.329,2.53-17.874-0.231c-5.314-4.142-6.467-9.333-3.791-17.184c0.839-2.46,1.688-4.918,2.598-7.352
	c0.839-2.243,1.767-4.453,2.655-6.678C1458.609,386.369,1459.206,387.002,1459.802,387.635z M1437.447,398.354
	c0.681,0.442,1.36,0.885,2.041,1.328c2.879-2.26,6.371-4.05,8.528-6.862c7.589-9.897,14.785-20.101,21.939-30.321
	c0.884-1.264,1.302-3.666,0.687-4.936c-0.604-1.248-2.713-2.088-4.313-2.472c-3.996-0.96-6.123,2.072-8.455,4.501
	c-6.908,7.193-11.614,15.837-15.739,24.76C1440.082,388.794,1438.979,393.674,1437.447,398.354z"/>
<path fill-rule="evenodd" clip-rule="evenodd" d="M958.926,347.929c-9.377,15.201-16.547,30.585-21.588,46.907
	c-1.137,3.681-1.111,7.793-1.184,11.715c-0.14,7.538,5.941,11.473,12.688,8.064c9.201-4.649,16.801-11.309,22.866-19.678
	c1.56-2.151,3.052-4.363,4.771-6.379c0.382-0.447,1.599-0.183,3.369-0.316c-9.681,11.96-19.354,22.548-32.265,29.438
	c-4.724,2.521-15.334,2.529-19.222-2.802c-3.544-4.858-2.754-10.027-1.464-15.088c1.228-4.813,3.28-9.417,4.97-14.112
	c0.435,0.441,0.869,0.884,1.304,1.326c-5.39,4.539-10.782,9.076-16.167,13.621c-0.38,0.321-0.688,0.726-1.062,1.055
	c-3.698,3.241-9.988,4.715-12.129,2.39c-3.311-3.598-1.737-7.454-0.02-11.389c6.229-14.274,14.937-26.674,27.267-36.29
	c3.497-2.727,7.545-4.75,11.364-7.057c0.396-0.24,0.971-0.337,1.439-0.285C948.863,349.599,954.001,353.814,958.926,347.929z
	 M945.883,358.463c-4.461-4.678-10.032-4.653-13.605,0.061c-3.305,4.361-6.713,8.705-9.46,13.416
	c-4.855,8.327-9.628,16.782-10.568,26.779C919.121,398.724,933.43,381.443,945.883,358.463z"/>
<path fill-rule="evenodd" clip-rule="evenodd" d="M2020.007,408.957c-5.211,8.09-21.504,14.299-29.022,7.061
	c-3.239-3.119-4.952-6.846-3.853-11.23c1.559-6.211,3.568-12.31,5.386-18.456c0.472,0.431,0.944,0.861,1.417,1.291
	c-4.975,4.233-9.873,8.562-14.961,12.653c-2.133,1.715-4.513,3.538-7.067,4.189c-2.288,0.584-5.591,0.417-7.273-0.907
	c-1.276-1.004-1.51-4.622-0.834-6.611c5.799-17.088,15.591-31.407,30.472-41.918c2.723-1.924,5.653-3.809,8.777-4.82
	c2.127-0.689,5.203-0.592,7.072,0.497c4.341,2.528,6.188-1.908,10.427-3.033c-0.848,1.956-1.273,3.137-1.851,4.239
	c-4.198,8.013-8.619,15.916-12.577,24.045c-2.545,5.226-4.812,10.658-6.479,16.215c-1.393,4.64-2.373,9.606-2.295,14.408
	c0.045,2.813,1.91,7.171,4.05,7.994c2.947,1.136,7.067,0.054,10.424-0.951c2.963-0.887,5.567-2.969,8.33-4.523L2020.007,408.957z
	 M1972.729,398.188c0.356,0.357,0.713,0.714,1.069,1.071c1.299-0.448,2.854-0.58,3.856-1.393
	c12.302-9.985,20.39-23.281,28.306-36.654c1.963-3.315,0.043-5.768-3.761-6.255c-4.131-0.529-7.108,1.34-9.084,4.393
	c-5.637,8.71-11.188,17.498-16.248,26.549C1974.794,389.606,1974.068,394.068,1972.729,398.188z"/>
<path fill-rule="evenodd" clip-rule="evenodd" d="M901.234,316.809c-8.754,13.114-17.509,26.229-26.508,39.71
	c16.163,0,31.652,0,47.141,0c0.033,0.398,0.067,0.796,0.101,1.194c-1.666,0.102-3.331,0.222-4.998,0.303
	c-13.861,0.674-27.745,1.089-41.561,2.289c-1.996,0.173-4.334,3.834-5.364,6.352c-3.369,8.224-6.39,16.604-9.182,25.044
	c-1.825,5.516,2.002,9.084,7.691,8.663c9.07-0.67,16.742-4.941,24.758-8.427c0.691-0.301,1.396-0.568,2.095-0.852
	c0.241,0.428,0.481,0.855,0.723,1.282c-3.868,2.157-7.523,4.953-11.651,6.332c-7.521,2.514-15.273,4.417-23.027,6.134
	c-5.458,1.209-10.054-3.169-10.404-8.743c-0.458-7.278,2.725-13.33,5.927-19.403c2.872-5.449,5.907-10.812,8.783-16.055
	c-4.956-2.291-10.073,1.656-14.641-0.335c0.033-0.76,0.065-1.52,0.099-2.279c4.524,0,9.066,0.228,13.562-0.122
	c1.592-0.124,3.539-1.298,4.534-2.598c9.158-11.953,18.114-24.062,27.22-36.055c0.984-1.296,2.549-2.15,3.845-3.21
	C900.662,316.292,900.948,316.55,901.234,316.809z"/>
<path fill-rule="evenodd" clip-rule="evenodd" d="M840.882,158.219c1.478-5.232,2.843-10.5,4.458-15.69
	c3.127-10.049,6.18-20.129,9.667-30.055c3.181-9.055,4.98-10.35,15.479-13.186c-8.041,13.704-14.909,27.296-16.864,44.079
	c5.225-3.435,9.556-6.126,13.718-9.057c5.071-3.569,10.269-7.041,14.879-11.152c2.265-2.019,3.405-5.344,4.914-8.152
	c1.942-3.614-1.118-5.654-2.294-8.474c-0.792-1.896,1.715-5.169,2.808-7.984c6.63,3.918,8.133,9.146,5.557,15.264
	c-3.031,7.202-9,11.687-14.898,16.092c-8.841,6.602-18.533,11.974-25.245,21.31c-2.499,3.476-7.291,5.304-11.038,7.883
	C841.642,158.804,841.262,158.511,840.882,158.219z"/>
<path fill-rule="evenodd" clip-rule="evenodd" d="M1016.104,63.637c-0.018,5.154-5.479,10.814-8.86,10.102
	c-1.25-0.264-2.793-2.339-2.99-3.757c-0.474-3.396,4.859-9.117,8.207-8.771C1013.984,61.367,1015.346,63.1,1016.104,63.637z"/>
<path fill-rule="evenodd" clip-rule="evenodd" d="M962.802,62.984c0.476,0.698,2.003,1.957,2.176,3.381
	c0.488,4.03-4.232,8.886-8.312,8.511c-1.261-0.116-3.259-1.764-3.39-2.888C952.8,67.895,957.386,63.141,962.802,62.984z"/>
<path fill-rule="evenodd" clip-rule="evenodd" d="M1023.481,74.685c-1.135-4.785-0.468-8.896,4.458-10.885
	c1.563-0.632,4.471-0.664,5.29,0.292c1.011,1.179,1.327,4.287,0.459,5.486C1031.326,72.843,1028.462,76.136,1023.481,74.685z"/>
<path fill-rule="evenodd" clip-rule="evenodd" d="M138.109,320.479c-0.021-5.791,3.081-9.355,6.849-9.477
	c2.448-0.078,4.221,0.351,4.17,3.408c-0.058,3.441-4.765,8.885-7.984,8.449C139.781,322.676,138.631,320.916,138.109,320.479z"/>
<path fill-rule="evenodd" clip-rule="evenodd" d="M937.911,74.438c-3.838-5.855-0.721-12.896,5.165-13.272
	c0.905-0.058,2.679,0.922,2.682,1.43c0.014,2.474,0.331,5.487-0.926,7.284C943.401,71.924,940.419,72.883,937.911,74.438z"/>
<path fill-rule="evenodd" clip-rule="evenodd" d="M2020.149,409.099c1.065-1.275,2.105-2.573,3.201-3.822
	c4.713-5.375,9.429-10.747,14.185-16.083c0.475-0.533,1.226-0.821,2.352-0.691c-5.841,7.597-10.189,16.549-19.878,20.455
	C2020.007,408.957,2020.149,409.099,2020.149,409.099z"/>
<path fill-rule="evenodd" clip-rule="evenodd" d="M1520.845,153.809c4.429-5.282,8.857-10.565,13.286-15.848
	c0.411,0.291,0.821,0.582,1.232,0.874c-2.347,3.152-4.429,6.559-7.124,9.378c-2.109,2.206-4.979,3.687-7.52,5.48
	C1520.709,153.684,1520.845,153.809,1520.845,153.809z"/>
<path fill-rule="evenodd" clip-rule="evenodd" d="M1029.82,153.783c4.4-5.306,8.801-10.612,13.202-15.918
	c0.361,0.199,0.724,0.397,1.085,0.597c-0.52,1.126-0.833,2.422-1.596,3.349c-2.703,3.285-5.44,6.561-8.419,9.59
	c-1.099,1.117-2.901,1.542-4.393,2.273C1029.689,153.664,1029.82,153.783,1029.82,153.783z"/>
</svg>
