<?xml version="1.0" encoding="utf-8"?>
<!-- Generator: Adobe Illustrator 16.0.0, SVG Export Plug-In . SVG Version: 6.00 Build 0)  -->
<!DOCTYPE svg PUBLIC "-//W3C//DTD SVG 1.1//EN" "http://www.w3.org/Graphics/SVG/1.1/DTD/svg11.dtd">
<svg version="1.1" id="Lag_1" xmlns="http://www.w3.org/2000/svg" xmlns:xlink="http://www.w3.org/1999/xlink" x="0px" y="0px"
	 width="2993.573px" height="606.489px" viewBox="-1189.417 89.924 2993.573 606.489"
	 enable-background="new -1189.417 89.924 2993.573 606.489" xml:space="preserve">
<path d="M-1053.873,438.991c-2.424-33.306-4.848-66.609-7.159-98.363c-3.108,13.945-6.122,29.38-10.06,44.575
	c-3.613,13.941-9.006,27.316-17.971,38.818c-8.693,11.153-19.209,19.441-34.402,18.938c-1.586-0.053-3.205-0.521-4.72-1.048
	c-3.836-1.335-5.529-4.205-4.632-8.095c0.742-3.22,5.729-5.091,9.449-4.623c4.921,0.616,10.167,1.773,14.823,0.719
	c9.905-2.246,15.179-10.549,19.753-18.691c9.78-17.413,14.429-36.588,17.758-56.092c1.564-9.167,2.68-18.409,4.063-28.059
	c-17.516-0.643-32.612,4.439-43.363,18.154c-5.818,7.421-5.376,15.232,0.332,23.266c1.039,1.462,2.636,2.9,2.836,4.492
	c0.268,2.135,0.113,5.034-1.155,6.429c-1.041,1.144-4.926,1.528-5.887,0.574c-3.008-2.985-6.642-6.453-7.488-10.295
	c-2.535-11.502,0.929-21.703,8.948-30.536c9.668-10.65,21.704-15.977,35.801-17.158c9.463-0.794,18.934-1.507,28.947-2.299
	c0,1.154-0.094,2.758,0.014,4.347c1.306,19.235,2.669,38.467,3.955,57.703c0.512,7.662,0.866,15.335,1.38,24.592
	c21.602-34.161,40.843-68.348,72.981-92.465c-10.314,39.296-20.504,78.121-31.018,118.177c8.958,0,16.522,0,24.064,0
	c0.162,4.896-0.613,6.093-4.716,5.891c-8.045-0.397-16.066-1.4-24.111-1.617c-3.962-0.107-7.956,0.979-12.13,1.552
	c8.046-30.208,16.042-60.224,24.037-90.24c-0.169-0.188-0.338-0.376-0.507-0.562c-5.454,7.287-11.092,14.446-16.311,21.898
	c-5.235,7.475-10.152,15.18-15.025,22.899c-4.964,7.862-9.841,15.789-14.505,23.833c-4.527,7.808-8.737,15.8-13.086,23.711
	C-1053.277,439.272-1053.575,439.132-1053.873,438.991z"/>
<path d="M647.887,433.188c0.932,3.186-0.802,4.993-4.564,4.769c-8.366-0.502-16.712-1.445-25.083-1.753
	c-3.484-0.128-7.013,0.907-10.644,1.432c5.402-19.753,10.812-39.529,16.416-60.016c-2.221-0.228-4.098-0.671-5.942-0.567
	c-10.197,0.576-20.382,1.382-30.582,1.883c-2.67,0.131-3.89,0.749-4.851,3.569c-3.983,11.691-7.622,23.611-12.926,34.712
	c-5.405,11.312-13.939,20.49-26.619,24.063c-6.92,1.95-14.104,1.505-20.434-2.516c-1.827-1.161-3.605-3.227-4.206-5.234
	c-0.492-1.651,0.229-4.398,1.45-5.622c1.223-1.225,3.967-1.947,5.621-1.459c2.017,0.596,4.209,2.338,5.25,4.188
	c3.827,6.808,10.855,7.438,16.347,1.43c3.756-4.11,7.067-9.292,8.688-14.575c8.396-27.345,16.188-54.876,24.182-82.346
	c0.722-2.479,1.368-4.981,2.241-8.175c-13.455,0.194-25.864,1.716-35.501,11.823c-4.022,4.219-4.676,9.175-2.096,14.401
	c0.94,1.906,2.04,3.755,2.768,5.74c1.27,3.467,0.765,6.434-2.955,8.207c-3.735,1.779-6.636,0.886-8.613-2.703
	c-5.075-9.205-2.418-17.777,2.963-25.574c8.073-11.698,20.271-15.892,33.831-16.831c9.201-0.638,18.424-0.964,27.342-1.415
	c-5.032,16.86-9.903,33.176-14.771,49.476c10.87,0,20.739,0.001,30.606-0.004c0.332,0,0.687-0.137,0.994-0.062
	c8.624,2.083,10.295-3.91,12.216-10.134c3.744-12.13,7.595-24.177,14.898-34.893c10.771-15.799,24.314-18.302,38.754-14.78
	c2.788,0.681,5.3,3.653,7.301,6.093c2.257,2.751,1.527,6.158-1.604,7.491c-2.063,0.877-5.14,0.243-7.439-0.598
	c-1.702-0.622-3.021-2.557-4.276-4.097c-4.962-6.083-10.52-5.92-16.562,2.017c-9.778,12.845-13.611,28.413-17.959,43.556
	c-4.664,16.25-8.425,32.759-12.536,49.167c-1.225,4.889-2.443,9.786-3.323,14.741c-0.175,0.976,1.128,3.131,1.906,3.212
	C634.48,432.456,640.826,432.744,647.887,433.188z"/>
<path d="M-1081.897,223.348c7.65,0.373,15.058,0.734,22.765,1.109c-0.423,1.44-0.852,2.896-1.189,4.043c-13.297,0-26.279,0-39.365,0
	c5.28-19.451,10.584-38.988,16.121-59.386c-7.914,0-15.275-0.1-22.633,0.039c-4.108,0.078-8.205,0.631-12.312,0.823
	c-3.581,0.168-5.454,1.12-6.834,5.266c-4.146,12.453-8.447,25.021-14.427,36.65c-5.923,11.519-15.693,19.931-29.16,21.874
	c-6.518,0.94-13.057-0.662-18.204-5.455c-2.889-2.69-2.974-6.181-0.598-8.814c2.495-2.766,5.912-2.25,8.817,0.107
	c0.771,0.626,1.487,1.35,2.111,2.123c6.633,8.227,13.632,8.268,18.675-1.144c5.193-9.69,9.709-19.947,12.937-30.444
	c6.354-20.667,11.619-41.669,17.317-62.538c0.801-2.934,1.503-5.895,2.455-9.648c-14.115,1.41-27.397,2.131-36.703,13.729
	c-2.436,3.035-2.697,10.52-0.509,14.086c0.513,0.837,1.219,1.564,1.669,2.43c1.965,3.774,0.963,9.534-1.802,10.666
	c-3.72,1.521-8.751-1.001-10.197-5.447c-2.681-8.248-0.785-15.903,3.962-22.823c7.148-10.419,17.644-15.287,29.842-16.532
	c10.594-1.082,21.249-1.576,32.679-2.387c-2.271,6.133-4.46,11.196-6.022,16.445c-3.107,10.442-5.724,21.032-8.869,31.463
	c-0.861,2.856,0.392,3.455,2.403,3.358c11.866-0.572,23.728-1.237,35.574-2.108c0.892-0.066,1.949-1.858,2.421-3.049
	c4.797-12.104,8.732-24.617,14.406-36.288c6.665-13.706,17.584-22.315,33.918-21.473c5.312,0.273,10.313,1.202,14.063,5.762
	c2.587,3.146,3.613,6.097,0.262,8.907c-2.808,2.354-6.048,2.185-8.878-0.426c-1.101-1.016-2.185-2.059-3.187-3.169
	c-6.612-7.333-11.855-5.636-17.502,1.917c-7.614,10.183-11.441,22.301-14.944,34.302c-4.966,17.014-9.143,34.261-13.495,51.449
	C-1078.325,206.642-1079.934,214.617-1081.897,223.348z"/>
<path d="M-481.736,533.64c-1.712,10.689-3.465,21.633-5.304,33.116c-0.611,0.039-1.997,0.129-3.399,0.22
	c-0.231-0.732-0.474-1.186-0.508-1.652c-0.368-5.084-0.438-10.206-1.108-15.249c-1.216-9.135-9.374-14.743-17.026-16.055
	c-15.402-2.637-27.699,4.259-38.82,13.521c-13.751,11.453-21.68,26.638-24.752,44.07c-2.023,11.482-2.443,23.338,3.797,33.879
	c8.504,14.366,23.35,17.526,40.346,10.938c8.78-3.402,8.327-10.683,10.48-17.175c0.407-1.226,0.563-2.534,0.85-3.8
	c1.05-4.638-1.562-8.186-6.372-8.422c-2.979-0.147-5.971-0.027-9.108-0.027c-0.334-5.831,4.716-4.231,6.97-4.674
	c3.91-0.765,8.163,0.422,12.271,0.406c4.423-0.017,8.842-0.522,13.267-0.717c2.482-0.109,4.974-0.021,9.365-0.021
	c-1.783,2.047-2.546,3.784-3.691,4.09c-5.436,1.45-7.148,5.636-8.515,10.35c-4.299,14.827-7.86,29.94-13.287,44.349
	c-4.989,13.249-12.431,25.432-26.129,31.938c-8.661,4.113-17.994,4.896-26.806,1.791c-4.243-1.495-7.486-6.229-10.791-9.854
	c-2.403-2.636-0.319-5.328,1.781-6.646c1.709-1.071,4.894-1.619,6.458-0.721c3.361,1.936,6.515,4.605,9.009,7.598
	c5.42,6.498,14.663,5.576,19.203-0.11c4.312-5.401,8.101-11.476,10.85-17.805c3.532-8.133,5.798-16.814,8.965-26.328
	c-2.224,1.004-3.43,1.592-4.668,2.102c-13.063,5.374-26.378,6.422-39.771,1.576c-13.104-4.74-19.123-15.721-21.612-28.221
	c-3.829-19.223,0.912-37.352,11.99-53.159c12.623-18.014,29.503-31.369,51.794-34.456c10.116-1.4,20.856,1.47,31.283,2.663
	C-490.218,531.671-485.784,532.847-481.736,533.64z"/>
<path d="M346.732,607c1.031-5.651,5.351-4.506,7.979-4.791c4.183-0.452,8.51,0.694,12.774,0.686c4.6-0.011,9.193-0.618,13.797-0.874
	c2.136-0.118,4.284-0.021,7.424-0.021c-1.009,1.748-1.474,3.555-2.208,3.673c-8.256,1.32-8.827,8.31-10.431,14.23
	c-4.768,17.603-8.813,35.404-17.843,51.557c-9.77,17.479-22.097,26.117-42.621,24.465c-6.662-0.537-11.896-4.13-15.545-9.768
	c-2.38-3.678-0.79-6.447,2.208-8.972c2.973-2.501,5.237-0.726,7.396,1.052c1.919,1.58,3.574,3.484,5.327,5.265
	c10.098,10.254,20.195,5.936,24.796-2.641c5.267-9.824,8.949-20.508,13.165-30.881c1.075-2.646,1.562-5.53,2.637-9.46
	c-10.581,6.436-21.154,6.648-31.91,6.548c-19.023-0.181-30.579-15.432-33.615-30.238c-2.995-14.605-0.712-28.896,5.304-42.245
	c5.64-12.518,13.89-23.442,25.319-31.489c9.647-6.792,19.736-12.43,31.749-14.419c9.374-1.552,18.333-0.045,27.392,1.421
	c6.271,1.017,12.478,2.437,18.186,3.57c-1.657,10.675-3.376,21.747-5.134,33.062c-1.096,0-2.838,0-4.938,0
	c2.192-7.877,0.806-15.135-2.131-22.192c-3.31-7.954-16.236-12.239-23.812-11.135c-12.216,1.779-22.642,7.242-31.775,15.08
	c-8.876,7.614-14.687,17.687-19.022,28.363c-3.899,9.604-5.897,19.873-5.108,30.291c1.094,14.429,5.373,27.58,23.422,31.995
	c10.298,2.52,19.235-1.263,27.898-6.129c0.735-0.413,1.333-1.521,1.513-2.407c1.134-5.584,2.309-11.172,3.12-16.809
	c0.689-4.78-0.975-6.528-5.778-6.775c-1.494-0.076-2.998-0.014-4.497-0.014C350.291,607,348.814,607,346.732,607z"/>
<path d="M1136.127,534.013c-3.877,0.354-7.377,0.495-10.817,1.022c-8.82,1.354-17.818,1.739-25.812,6.73
	c-7.156,4.472-10.271,12.327-7.767,19.794c0.853,2.54,0.341,5.927-0.642,8.512c-0.423,1.114-4.577,2.237-5.378,1.517
	c-2.348-2.116-5.389-5.126-5.441-7.84c-0.23-11.791,4.801-20.958,15.349-27.068c8.922-5.168,18.69-6.561,28.6-7.646
	c4.564-0.5,9.167-0.648,14.576-1.013c-5.764-4.648-8.285-9.993-7.873-16.872c0.425-7.094,6.989-14.719,13.714-15.146
	c9.835-0.628,17.932,4.831,19.377,12.912c1.725,9.639-2.894,16.604-10.521,20.18c-1.134,0.53-2.213,2.239-2.407,3.54
	c-2.462,16.488-4.927,32.98-7.047,49.517c-2.209,17.228-4.069,34.501-6.03,51.76c-0.76,6.682-0.696,6.698,6.057,7.088
	c4.476,0.259,8.95,0.487,13.707,0.744c0.896,3.241-0.703,4.441-4.123,4.271c-7.596-0.38-15.193-0.738-22.795-0.989
	c-4.062-0.135-8.131-0.023-12.465-0.023c1.532-5.163,3.483-10.9,4.898-16.767c1.22-5.061,1.896-10.258,2.68-15.413
	c0.418-2.758-0.97-3.946-3.756-3.836c-9.762,0.384-19.531,0.614-29.287,1.122c-1.241,0.063-2.788,1.146-3.564,2.213
	c-8.252,11.346-15.893,23.174-24.691,34.068c-6.834,8.462-14.184,17.094-25.532,19.855c-3.919,0.954-8.221,0.856-12.287,0.521
	c-3.39-0.28-6.558-5.116-5.679-8.056c1.084-3.622,3.787-5.985,7.495-4.571c14.76,5.628,23.811-3.076,31.174-13.218
	c16.579-22.833,32.111-46.422,48.461-69.424c8.621-12.128,18.067-23.669,27.121-35.489
	C1135.684,535.659,1135.734,535.146,1136.127,534.013z M1096.081,601.927c2.595,0.478,4.219,1.006,5.851,1.032
	c6.324,0.101,12.65,0.064,18.976,0.034c5.528-0.026,6.489-1.362,7.162-6.951c1.343-11.186,3.064-22.326,4.672-33.479
	c0.715-4.964,1.526-9.911,2.297-14.867c-0.47-0.177-0.939-0.354-1.408-0.528C1121.389,565.019,1109.148,582.87,1096.081,601.927z
	 M1157.984,512.789c-0.169-4.819-5.829-10.533-10.455-10.557c-4.809-0.025-10.753,6.225-10.515,11.053
	c0.26,5.236,5.949,10.521,10.956,10.174C1153.317,523.087,1158.165,517.921,1157.984,512.789z"/>
<path d="M1152.475,410.636c2.24-9.345,4.138-18.444,6.629-27.377c4.104-14.706,8.106-29.472,13.082-43.893
	c3.529-10.233,9.271-19.586,20.742-22.608c4.691-1.235,9.99-1.232,14.836-0.543c6.03,0.857,9.16,7.969,5.15,10.971
	c-2.132,1.595-6.561,2.063-9.01,0.956c-10.963-4.955-18.812-1.517-22.854,9.208c-5.097,13.521-10.036,27.168-13.868,41.084
	c-5.567,20.222-10.098,40.732-15.026,61.13c-0.303,1.252-0.229,2.595-0.437,5.237c-17.078-32.93-26.436-67.43-37.759-102.161
	c-3.475,14.374-6.362,27.873-10.052,41.148c-3.912,14.074-7.86,28.221-13.153,41.806c-4.451,11.429-12.812,19.777-25.944,21.307
	c-6.488,0.756-19.177-2.037-21.525-7.943c-1.195-3.007-1.727-5.769,0.916-7.381c1.855-1.132,4.781-0.883,7.161-0.626
	c1.262,0.136,2.454,1.52,3.551,2.483c9.835,8.654,17.841,6.252,24.911-3.27c7.385-9.944,10.992-21.875,14.018-33.688
	c5.449-21.279,10.086-42.768,14.98-64.187c0.354-1.547,0.047-3.244,0.047-5.251c-10.105,1.644-19.779,3.145-28.749,7.868
	c-12.591,6.63-17.284,21.476-9.863,33.542c2.146,3.487,2.984,6.459-0.451,9.066c-2.775,2.107-7.915,0.374-9.688-3.339
	c-3.833-8.026-3.115-16.479-0.248-24.438c5.354-14.863,16.666-22.936,31.962-25.72c9.301-1.693,18.623-3.265,27.927-4.938
	c3.287-0.592,3.675,1.565,4.282,3.966c2.915,11.507,5.449,23.146,9.083,34.428c5.635,17.495,12.046,34.74,18.163,52.079
	C1151.425,409.947,1151.975,410.195,1152.475,410.636z"/>
<path d="M757.293,652.854c-16.505-32.651-26.078-66.854-36.941-100.362c-6.823,25.099-13.255,50.033-20.496,74.729
	c-2.716,9.259-8.018,17.312-15.955,23.58c-6.793,5.363-26.916,6.309-33.103-1.385c-2.427-3.018-4.479-6.476-1.173-8.929
	c2.016-1.495,6.265-0.567,9.312,0.135c1.87,0.431,3.317,2.558,5.039,3.81c7.744,5.636,16.733,1.508,20.897-4.126
	c7.084-9.584,11.084-20.687,14.031-32.057c4.856-18.737,9.237-37.601,13.653-56.449c1.176-5.016,1.748-10.172,2.778-16.343
	c-14.881,3.002-29.929,3.373-38.912,16.854c-4.715,7.077-5.431,15.205-0.722,23.172c1.595,2.695,4.082,5.891,1.25,9.012
	c-1.29,1.421-4.552,2.912-5.667,2.253c-2.519-1.488-5.427-3.99-6.112-6.618c-2.946-11.298-1.308-22.015,5.827-31.656
	c7.608-10.279,18.185-14.81,30.448-16.513c9.027-1.254,18.003-2.877,27.581-4.43c6.426,31.199,17.714,61.095,29.149,92.472
	c4.86-19.536,9.069-37.632,13.929-55.552c3.078-11.352,7.628-22.154,14.88-31.688c5.334-7.012,19.833-11.378,27.704-7.869
	c4.386,1.955,6.667,5.677,5.384,8.779c-1.881,4.544-5.031,5.523-10.41,3.236c-10.943-4.655-16.912-2.502-22.2,8.146
	c-8.471,17.06-12.811,35.482-17.405,53.785C765.641,616.453,761.688,634.181,757.293,652.854z"/>
<path d="M-107.308,417.148c1.077,1.031,2.152,2.061,3.5,3.35c-6.695,5.559-12.737,11.438-19.621,16.062
	c-7.838,5.267-13.976,2.747-15.363-3.784c-0.84-3.954-0.762-8.46,0.23-12.383c3.545-14.022,7.664-27.9,11.546-41.838
	c0.696-2.5,1.552-4.996,1.843-7.551c0.144-1.26-0.477-3.064-1.405-3.85c-0.804-0.68-2.737-0.738-3.817-0.264
	c-12.903,5.661-21.315,15.075-24.666,29.036c-3.188,13.28-6.896,26.437-10.436,39.868c-4.292,0-8.742,0-13.648,0
	c3.224-13.055,6.36-25.816,9.528-38.57c2.157-8.684,4.424-17.341,6.461-26.053c0.291-1.24,0.008-3.381-0.801-3.92
	c-1.035-0.69-3.098-0.674-4.328-0.111c-16.096,7.366-24.351,20.57-27.733,37.443c-1.823,9.098-4.135,18.098-5.888,27.206
	c-0.625,3.244-1.861,4.535-5.175,4.265c-3.131-0.256-6.3-0.055-9.856-0.055c5.524-23.385,10.96-46.387,16.562-70.098
	c-8.682,0.63-12.841,6.559-18.041,10.758c-0.855-1.165-1.696-2.308-2.814-3.829c8.38-8.442,17.55-15.611,29.279-18.718
	c5.57-1.476,7.505,0.837,6.122,6.513c-1.188,4.876-2.238,9.785-3.698,16.216c5.934-5.101,10.428-9.687,15.631-13.233
	c5.169-3.523,10.827-6.599,16.677-8.781c6.87-2.563,11.716,2.656,9.88,9.9c-0.75,2.96-1.495,5.922-2.516,9.967
	c5.284-4.668,9.456-9.086,14.348-12.464c4.744-3.276,10.019-6.066,15.442-7.995c5.42-1.927,10.71,2.332,9.879,8.221
	c-1.244,8.812-3.547,17.496-5.745,26.146c-2.524,9.934-5.519,19.747-8.107,29.667c-0.771,2.953-0.868,6.084-1.346,9.672
	C-116.604,428.251-112.979,421.586-107.308,417.148z"/>
<path d="M858.508,119.091c-12.269-0.688-23.328,1.974-33.308,8.851c-6.233,4.295-7.898,11.307-4.29,17.91
	c0.993,1.817,2.106,4.027,1.902,5.921c-0.231,2.138-1.507,5.457-3.008,5.886c-2.891,0.826-6.57,1.435-8.781-2.394
	c-3.192-5.528-2.412-11.068-0.255-16.525c6.021-15.232,17.811-22.914,33.652-24.685c10.409-1.163,20.88-1.775,30.449-2.562
	c-6.669,16.992-13.646,33.821-19.814,50.942c-2.567,7.129-4.562,14.847-4.772,22.354c-0.316,11.205,1.158,22.562,12.298,29.207
	c9.276,5.535,18.835,3.957,27.955-0.308c11.993-5.608,20.492-15.244,27.257-26.287c9.117-14.882,14.92-30.971,17.361-48.409
	c1.813-12.958,0.813-25.134-5.425-36.734c-0.53-0.987-0.838-2.103-1.181-3.181c-1.114-3.508-0.712-6.415,3.006-8.241
	c4.091-2.01,7.521-0.548,9.214,2.937c2.025,4.166,4.031,8.917,3.994,13.397c-0.094,11.51-0.51,23.136-2.272,34.485
	c-3.019,19.419-10.963,37.202-21.386,53.744c-10.262,16.289-23.682,28.964-43.268,33.161c-10.249,2.196-20.62,2.512-29.771-3.646
	c-7.55-5.079-11.399-12.896-13.022-21.665c-3.51-18.959,3.196-36.119,10-53.147C849.15,139.823,853.844,129.778,858.508,119.091z"/>
<path d="M35,183.722c1.795-28.919,12.861-52.877,39.146-67.005c14.465-7.775,30.813-8.751,46.177-2.311
	c13.75,5.763,21.104,17.495,23.683,32.157c3.937,22.374-3.466,41.886-16.572,59.155c-13.504,17.793-31.995,26.534-54.726,24.207
	c-23.117-2.365-38.684-22.088-37.713-43.207C35.04,185.722,35,184.721,35,183.722z M127.287,159.038
	c-0.584-3.981-0.793-10.158-2.468-15.907c-4.556-15.64-13.105-24.426-29.405-25.729c-12.223-0.978-23.305,5.147-30.222,15.506
	c-14.189,21.245-16.919,44.574-9.056,68.798c4.298,13.239,14.301,21.021,28.048,21.613c11.276,0.486,20.882-4.611,28.115-13.895
	C123.432,195.141,126.259,178.488,127.287,159.038z"/>
<path d="M1341.247,428.812c2.784-1.82,5.05-3.003,6.963-4.604c10.138-8.486,20.044-17.355,26.16-29.279
	c5.062-9.87,9.396-19.997,3.029-31.459c-3.444-6.2-0.096-11.168,6.128-10.34c1.613,0.215,3.912,1.718,4.347,3.111
	c1.146,3.684,2.215,7.688,1.941,11.465c-1.045,14.415-7.011,26.917-15.775,38.289c-11.313,14.681-24.914,26.569-41.421,35.066
	c-0.84,0.433-1.757,0.713-3.542,1.424c-1.944-10.274-3.808-20.122-5.892-31.139c-12.104,12.209-23.949,24.464-40.92,31.169
	c-1.14-5.614-2.332-10.754-3.2-15.945c-1.457-8.699-3.601-17.41-3.813-26.156c-0.246-10.111,3.35-19.584,9.627-27.698
	c2.729-3.525,6.044-6.598,9.997-10.849c-9.931,1.312-18.956,0.774-26.899,5.707c-4.598,2.855-2.576,6.635-1.584,10.514
	c0.437,1.703-0.243,5.079-1.262,5.465c-1.847,0.7-5.475,0.505-6.295-0.71c-1.588-2.351-2.716-5.812-2.311-8.56
	c1.367-9.285,8.645-13.099,16.639-15.085c5.83-1.448,12.021-1.385,18.018-2.246c3.942-0.565,7.792-1.844,11.741-2.28
	c2.069-0.229,5.099-0.068,6.224,1.21c2.279,2.592-0.184,4.219-2.192,6.291c-3.166,3.264-5.744,7.24-7.962,11.252
	c-5.221,9.448-8.301,19.717-7.819,30.496c0.358,8.046,2.287,16.021,3.669,25.021c3.532-2.421,6.373-3.813,8.499-5.928
	c5.989-5.954,11.812-12.093,17.405-18.419c1.34-1.516,1.919-3.996,2.188-6.115c1.154-9.096,1.455-18.347,3.299-27.286
	c1.043-5.051,4.139-9.826,7.009-14.274c1.056-1.634,4.537-3.166,6.176-2.603c2.229,0.767,4.938,3.379,5.321,5.57
	c0.694,3.97,0.427,8.361-0.538,12.309c-1.306,5.344-4.401,10.303-5.345,15.67c-1.076,6.122-1.129,12.545-0.717,18.775
	C1338.607,413.757,1340.076,420.807,1341.247,428.812z"/>
<path d="M857.407,435.791c-2.865,11.146-5.831,21.798-8.288,32.564c-1.591,6.969,1.065,10.278,8.351,11.605
	c3.655,0.667,7.329,1.237,11.222,1.89c-0.486,1.688-0.817,2.834-1.054,3.648c-16.277,0-32.279,0-48.282,0
	c-0.272-0.337-0.546-0.675-0.817-1.012c1.861-1.187,3.581-2.969,5.608-3.45c7.326-1.74,10.188-7.372,11.75-13.607
	c6.517-26.038,12.764-52.144,18.982-78.255c1.396-5.863,2.371-11.835,3.343-17.789c0.259-1.578-0.217-3.276-0.354-4.919
	c-1.854,0.276-4.158-0.05-5.475,0.939c-4.2,3.163-8.034,6.814-12.119,10.372c-1.055-1.107-2.185-2.295-3.534-3.714
	c7.433-8.192,14.817-16.136,25.814-19.143c2.788-0.763,5.933-1.19,8.694-0.653c1.298,0.252,3.096,3.273,2.916,4.839
	c-0.68,5.909-2.077,11.736-3.391,18.551c1.97-1.944,3.519-3.481,5.076-5.009c6.564-6.436,13.093-12.978,21.809-16.51
	c13.425-5.44,19.967-0.403,21.147,13.354c1.264,14.7-3.012,28.573-10.29,41.321c-4.811,8.428-10.561,16.147-18.67,21.962
	c-9.455,6.776-19.289,8.223-29.999,3.65C859.265,436.18,858.61,436.1,857.407,435.791z M905,380.434c0-0.831,0.002-1.662,0-2.493
	c-0.02-8.921-5.873-13.516-13.856-9.729c-9.752,4.625-17.985,11.925-21.879,22.098c-3.8,9.928-5.389,20.683-8.554,30.886
	c-0.938,3.021,0.045,4.422,1.857,5.81c10.856,8.312,20.185,6.896,27.881-3.24C900.049,411.123,903.962,396.162,905,380.434z"/>
<path d="M768.944,435.953c-2.676,12.068-5.396,23.938-7.898,35.854c-0.907,4.322,1.813,6.323,5.63,7.178
	c4.573,1.021,9.157,2,13.942,3.042c-0.413,1.496-0.73,2.646-0.959,3.475c-16.269,0-32.268,0-48.267,0
	c-0.276-0.329-0.556-0.658-0.833-0.987c1.839-1.191,3.53-2.971,5.541-3.473c7.212-1.8,10.28-6.974,11.865-13.516
	c6.624-27.347,13.234-54.694,19.789-82.058c1.062-4.433,1.963-8.917,2.644-13.422c0.268-1.775-0.277-3.674-0.452-5.516
	c-1.982,0.333-4.422,0.049-5.861,1.115c-4.099,3.034-7.789,6.618-11.901,10.214c-0.955-1.109-2.021-2.347-3.349-3.888
	c7.247-8.062,14.673-15.921,25.601-19.026c2.775-0.789,5.829-0.964,8.733-0.851c3.761,0.146,3.539,3.572,3.237,5.81
	c-0.604,4.478-2.003,8.845-3.016,13.271c-0.24,1.052-0.248,2.158-0.425,3.816c5.229-4.685,9.626-9.501,14.867-13.079
	c5.693-3.887,11.929-7.29,18.389-9.64c4.793-1.743,10.489,0.981,12.877,7.677c3.678,10.309,1.785,20.41-0.911,30.387
	c-3.88,14.355-11.504,26.559-22.03,37.122c-8.45,8.479-22.491,12.608-34.725,6.745C771.02,436.005,770.469,436.094,768.944,435.953z
	 M817,380.491c0-0.832-0.097-1.678,0.016-2.494c1.016-7.422-5.275-14.151-14.095-9.742c-9.618,4.811-17.868,12.075-21.704,22.324
	c-3.678,9.825-5.329,20.394-8.444,30.458c-0.9,2.908-0.263,4.379,1.669,5.872c10.644,8.232,20.086,7.261,27.931-3.061
	C811.976,411.215,816.146,396.306,817,380.491z"/>
<path d="M177.202,585.821c9.065-6.578,18.146-13.254,27.343-19.768c1.814-1.285,3.99-2.275,6.146-2.83
	c8.688-2.231,14.123,3.183,11.786,11.782c-4.093,15.062-8.511,30.036-12.466,45.134c-1.391,5.312-1.823,10.875-2.693,16.324
	c0.613,0.461,1.229,0.922,1.842,1.383c5.956-4.246,11.912-8.493,19.322-13.775c-0.317,2.626,0.074,4.765-0.771,5.518
	c-5.751,5.131-11.584,10.208-17.753,14.816c-3.934,2.938-9.012,4.438-13.328,1.443c-5.064-3.515-4.4-9.501-3.162-14.557
	c4.021-16.416,8.635-32.688,12.785-49.073c0.481-1.901,0.145-4.757-1.036-6.077c-0.835-0.934-4.027-0.628-5.667,0.163
	c-15.188,7.326-25.236,18.812-28.584,35.741c-2.148,10.865-4.688,21.652-7.103,32.7c-4.69,0-9.312,0-14.343,0
	c1.835-7.457,3.75-14.906,5.496-22.396c5.692-24.402,11.21-48.849,17.015-73.226c4.604-19.334,14.825-34.136,34.698-40.293
	c4.144-1.283,8.686-1.621,13.06-1.723c4.173-0.095,7.376,3.441,7.191,7.141c-0.225,4.51-3.424,6.52-7.2,6.601
	c-4.891,0.105-9.876-0.441-14.688-1.384c-6.914-1.353-12.028,1.074-14.025,8.106c-2.93,10.314-5.533,20.73-8.014,31.166
	C180.88,567.893,179.066,577.131,177.202,585.821z"/>
<path d="M-544.158,436c3.748-15.314,7.392-29.814,10.831-44.362c4.195-17.738,8.002-35.57,12.375-53.263
	c4.731-19.141,15.641-33.047,35.349-38.354c4.503-1.213,9.526-1.269,14.204-0.8c3.477,0.348,4.787,3.53,4.424,7.146
	c-0.352,3.498-2.184,5.627-5.632,5.567c-6.603-0.114-13.204-0.519-19.795-0.961c-4.998-0.335-8.299,1.703-9.67,6.513
	c-2.359,8.271-4.846,16.519-6.832,24.883c-2.849,12.002-5.297,24.099-7.787,35.562c7.459-5.755,15.15-11.861,23.049-17.688
	c2.706-1.996,5.827-3.531,8.94-4.851c3.678-1.559,7.612-2.648,11.085,0.55c3.713,3.418,3.205,7.887,2.084,12.024
	c-4.167,15.372-8.742,30.634-12.88,46.015c-1.172,4.354-1.378,8.97-2.038,13.547c5.436,1.362,7.963-1.874,10.889-4.414
	c2.836-2.461,5.857-4.709,8.798-7.051c2.792,2.033,2.904,3.883,0.324,5.886c-6.332,4.913-12.401,10.216-19.054,14.644
	c-3.154,2.102-7.365,4.434-11.341,1.037c-4.178-3.566-4.996-8.394-3.722-13.435c4.225-16.706,8.706-33.347,12.893-50.062
	c0.508-2.028,0.504-5.781-0.458-6.242c-1.867-0.896-4.896-0.694-6.897,0.232c-15.674,7.254-24.73,19.669-28.013,36.563
	c-1.769,9.104-4.134,18.093-5.874,27.2c-0.637,3.33-2.052,4.404-5.266,4.165C-537.3,435.817-540.459,436-544.158,436z"/>
<path d="M-318.829,625.188c-0.127,1.505,0.346,3.695-0.472,4.408c-8.481,7.399-16.778,15.195-28.135,18.13
	c-5.902,1.525-8.982-1.584-7.548-7.614c0.97-4.079,2.12-8.114,2.937-11.213c-7.426,5.373-15.164,11.205-23.184,16.621
	c-2.179,1.472-5.162,2.088-7.856,2.396c-7.858,0.9-13.213-4.85-13.87-15.315c-0.845-13.466,4.265-25.444,10.787-36.652
	c4.243-7.292,9.578-14.109,15.293-20.343c7.541-8.226,16.825-13.72,28.661-12.562c4.581,0.448,4.289-3.109,5.188-5.698
	c2.61-7.514,4.497-15.354,7.827-22.527c7.64-16.456,21.262-25.186,38.967-27.752c3.86-0.561,7.553,0.272,9.764,4.015
	c2.688,4.55-0.308,9.924-5.674,9.856c-4.934-0.061-9.916-0.305-14.781-1.072c-8.518-1.346-12.613,0.636-15.029,8.94
	c-2.95,10.143-5.546,20.396-7.987,30.675c-5.077,21.378-9.961,42.8-14.884,64.213c-0.256,1.112-0.244,2.321-0.162,3.473
	c0.183,2.57,0.488,5.131,0.744,7.695c2.877-0.926,6.021-1.396,8.565-2.89c3.344-1.962,6.214-4.729,9.288-7.149
	C-319.87,624.942-319.35,625.064-318.829,625.188z M-381.988,621.61c0,1.499-0.146,3.015,0.025,4.492
	c0.757,6.542,6.779,10.113,12.684,7.576c10.713-4.603,17.08-13.064,20.148-23.919c3.005-10.63,5.378-21.442,7.767-32.232
	c0.288-1.303-0.681-3.9-1.702-4.311c-7.63-3.057-19.33,0.024-24.105,6.567C-376.238,592.207-380.735,606.363-381.988,621.61z"/>
<path d="M345.504,416.234c2.775,2.035,3.495,3.527,0.245,5.646c-7.892,5.147-15.452,10.811-23.42,15.829
	c-2.013,1.268-5.046,1.149-7.624,1.231c-4.108,0.131-4.91-2.589-4.163-5.907c1.018-4.519,2.307-8.976,3.561-13.77
	c-6.156,5.155-11.746,10.272-17.815,14.737c-3.071,2.26-6.864,4-10.585,4.826c-9.414,2.09-16.049-3.775-16.74-13.747
	c-0.913-13.159,3.58-24.967,9.752-35.974c4.52-8.058,10.133-15.763,16.486-22.459c6.903-7.274,15.619-13.283,26.24-12.353
	c6.084,0.533,6.636-1.837,7.68-6.4c2.813-12.298,6.61-24.472,15.52-33.801c9.755-10.215,21.723-16.598,36.409-14.818
	c2.194,0.266,5.312,3.932,5.578,6.297c0.326,2.9-1.607,6.519-5.863,6.387c-6.603-0.205-13.195-0.681-19.798-0.944
	c-5.085-0.202-8.639,2.258-9.967,7.07c-3.801,13.777-7.538,27.579-10.935,41.46c-4.485,18.335-8.643,36.75-12.881,55.145
	c-0.33,1.436-0.335,2.988-0.229,4.468c0.17,2.383,0.558,4.75,0.854,7.123c2.377-0.58,5.092-0.624,7.061-1.857
	C338.597,422.088,341.898,419.068,345.504,416.234z M325.688,365.746c-7.229-2.401-13.279-3.319-19.593,0.151
	c-7.378,4.057-11.278,10.545-14.508,17.882c-4.66,10.586-8.25,21.341-7.604,33.131c0.349,6.354,6.399,10.849,11.983,8.587
	c8.566-3.469,15.638-9.351,18.508-17.929C318.999,394.046,321.955,379.998,325.688,365.746z"/>
<path d="M1374.927,110.157c-4.175,7.367-8.308,14.335-12.124,21.472c-5.429,10.15-7.543,21.184-7.768,32.583
	c-0.176,8.861-0.141,17.73,0.004,26.593c0.089,5.519,0.555,11.03,0.938,18.123c4.108-4.668,7.089-8.327,10.354-11.712
	c12.107-12.557,24.584-24.771,36.373-37.616c7.183-7.825,13.925-16.192,19.847-25c7.457-11.091,10.214-23.296,4.171-36.205
	c-1.821-3.895,0.938-6.354,3.43-7.614c1.752-0.888,5.121-0.108,7.006,1.108c4.094,2.643,4.756,7.339,4.786,11.789
	c0.087,12.74-4.688,23.839-12.089,33.967c-12.518,17.127-27.242,32.258-42.149,47.271c-12.021,12.106-23.548,24.705-35.229,37.146
	c-2.582,2.751-4.891,5.758-7.844,9.262c-0.6-5.649-1.266-10.436-1.586-15.244c-0.768-11.523-1.359-23.059-2.051-34.588
	c-0.295-4.936-0.71-9.863-0.984-14.799c-0.929-16.719,4.337-31.545,13.863-45.054c0.376-0.534,0.771-1.056,1.117-1.609
	c0.503-0.81,0.968-1.644,1.796-3.062c-10.999,0.241-20.474,3.673-29.271,9.087c-7.047,4.336-13.406,9.299-15.67,18.018
	c-1.176,4.531-1.329,8.618,1.06,12.785c1.025,1.791,2.03,3.981,1.919,5.925c-0.11,1.896-1.346,4.928-2.65,5.263
	c-1.848,0.475-5.053-0.41-6.2-1.873c-3.306-4.215-4.888-9.253-3.684-14.771c4.671-21.419,19.438-32.451,39.516-37.229
	c8.384-1.995,17.2-2.17,25.82-3.172C1369.986,110.726,1372.348,110.455,1374.927,110.157z"/>
<path d="M1514.383,373.654c3.951-7.366,7.236-13.659,10.676-19.866c6.607-11.924,13.739-23.592,23.783-32.916
	c6.748-6.264,13.352-13.212,23.01-15.235c1.907-0.399,3.962-0.811,5.836-0.511c3.249,0.52,5.799,2.799,5.083,6.056
	c-0.48,2.182-2.738,4.723-4.834,5.617c-2.896,1.235-6.41,0.948-9.621,1.53c-10.229,1.854-16.464,9.559-22.574,16.707
	c-10.213,11.945-18.201,25.459-25.075,39.638c-7.67,15.821-12.062,32.623-15.646,49.7c-0.49,2.332-0.777,4.707-1.238,7.562
	c8.192,0,15.748,0,23.209,0c-0.5,3.911-1.506,5.097-6.02,5.011c-7.437-0.142-14.863-0.746-22.3-0.902
	c-7.922-0.166-15.849-0.037-25.154-0.037c2.098-1.572,3.583-3.285,5.444-3.971c5.501-2.025,9.7-4.8,11.185-11.098
	c3.019-12.812,7.32-25.374,9.562-38.303c1.922-11.086-0.221-22.326-4.461-32.845c-2.307-5.719-5.192-11.254-8.35-16.555
	c-1.206-2.024-4.386-4.855-5.837-4.438c-11.547,3.318-22.073,8.748-28.548,19.418c-3.062,5.051-5.959,10.78-3.28,17.002
	c1.062,2.467,3.254,4.489,5.096,6.568c3.309,3.735,3.544,6.722,0.552,9.457c-2.062,1.886-6.922,0.762-9.312-2.151
	c-7.428-9.049-5.477-18.875-1.404-28.213c7.105-16.295,21.203-24.127,37.461-28.875c4.201-1.227,8.384-2.518,12.922-3.884
	C1507.154,333.78,1512.588,352.253,1514.383,373.654z"/>
<path d="M-550.118,360.777c-0.646,0-1.927,0-3.461,0c-0.131-0.869-0.32-1.813-0.411-2.767c-0.684-7.172-0.704-14.482-2.196-21.479
	c-1.525-7.154-8.237-11.415-15.701-11.532c-16.825-0.265-28.709,8.377-38.156,21.283c-14.214,19.417-20.122,41.337-18.875,65.18
	c0.519,9.902,3.021,19.416,9.965,27.016c9.834,10.765,24.98,12.107,38.416,1.363c4.394-3.513,7.661-8.404,11.798-12.287
	c1.352-1.269,3.826-1.34,5.787-1.959c-0.161,1.772,0.33,4.042-0.584,5.238c-7.985,10.449-17.044,19.86-30.39,23.015
	c-16.41,3.878-31.815,0.196-42.954-14.688c-9.073-12.123-10.854-26.051-9.239-40.917c2.71-24.954,13.471-45.721,31.903-62.315
	c11.805-10.629,25.667-18.244,42.16-16.673c9.706,0.925,19.172,4.38,28.383,6.61C-545.918,338.021-547.949,349.025-550.118,360.777z
	"/>
<path d="M-580.225,111.562c-3.095,8.793-6.255,16.769-8.715,24.955c-7.156,23.815-14.05,47.71-21.011,71.583
	c-3.555,12.191-8.369,23.854-17.219,33.127c-6.96,7.292-15.29,12.807-26.044,12.752c-6.35-0.032-13.059,1.211-18.286-3.893
	c-2.04-1.991-3.905-4.212-5.562-6.532c-2.63-3.682-0.163-6.124,2.434-8.404c2.892-2.54,5.18-0.6,7.386,1.13
	c3.993,3.131,7.495,7.229,11.95,9.358c8.305,3.969,16.887-0.536,20.247-10.544c7.603-22.645,14.916-45.389,22.062-68.182
	c4.813-15.354,9.144-30.857,13.674-46.299c0.18-0.611,0.192-1.272,0.36-2.456c-11.659-0.78-22.15,1.548-31.35,8.664
	c-4.895,3.786-9.291,8.122-8.577,14.94c0.31,2.961,1.796,5.858,3.051,8.648c1.855,4.128,0.971,7.735-2.591,9.355
	c-3.358,1.528-6.748-0.152-8.731-4.355c-3.401-7.209-1.751-14.218,1.926-20.511c8.896-15.228,22.783-21.75,40.142-21.963
	C-596.995,112.838-588.919,112.065-580.225,111.562z"/>
<path d="M-183,530c-3.332,9.428-6.844,18.186-9.528,27.189c-7.017,23.532-13.639,47.185-20.482,70.771
	c-4.116,14.187-11.078,26.709-22.691,36.11c-7.496,6.067-16.415,7.395-25.951,7.092c-6.467-0.205-11.427-2.475-15.661-6.988
	c-3.137-3.343-3.625-8.604-1.104-11.181c2.097-2.143,7.466-1.24,10.721,1.837c1.451,1.373,2.759,2.909,4.273,4.205
	c10.446,8.933,19.588,6.482,24.753-4.212c5.141-10.646,8.64-22.118,12.4-33.382c3.966-11.876,7.501-23.9,11.022-35.919
	c4.574-15.608,8.832-31.312,13.512-46.888c0.922-3.067-0.092-3.712-2.55-3.604c-13.493,0.594-26.001,3.757-34.456,15.355
	c-3.7,5.076-2.865,10.674-0.129,16.263c1.071,2.186,1.654,5.44,0.773,7.481c-0.669,1.55-4.301,3.051-6.082,2.576
	c-2.218-0.59-4.879-2.893-5.624-5.051c-3.328-9.633,0.271-18.114,6.229-25.442c9.177-11.286,21.672-15.976,35.968-16.192
	C-199.508,529.898-191.404,530-183,530z"/>
<path d="M-279.04,207.398c0.814,0.87,1.833,1.959,2.994,3.199c-7.873,7.513-14.921,15.691-25.541,19.817
	c-6.374,2.477-11.851-3.516-10.71-9.797c0.597-3.292,0.815-6.653,1.104-9.116c-8.428,5.555-16.992,11.478-25.871,16.883
	c-2.653,1.614-6.146,2.193-9.329,2.512c-4.501,0.449-8.08-3.281-7.433-8.903c0.908-7.891,2.765-15.704,4.661-23.441
	c2.827-11.534,6.148-22.948,9-34.478c0.535-2.165-0.143-4.631-0.346-8.618c-4.748,3.308-8.098,5.541-11.334,7.927
	c-2.796,2.061-5.313,5.403-9.827,0.098c8.556-5.638,16.466-12.329,25.552-16.396c8.133-3.64,12.168-1.192,10.964,7.235
	c-1.402,9.812-3.84,19.491-6.105,29.163c-1.967,8.392-4.576,16.638-6.354,25.064c-0.545,2.585-0.18,7.015,1.383,7.975
	c1.966,1.209,6.128,0.622,8.405-0.748c11.635-7,19.899-16.625,22.954-30.405c2.533-11.426,5.936-22.658,8.88-33.995
	c0.623-2.396,1.712-3.62,4.421-3.428c3.306,0.234,6.64,0.056,10.67,0.056c-3.414,12.542-6.769,24.66-10.003,36.81
	c-2.429,9.124-4.738,18.279-7.005,27.443c-0.312,1.26-0.077,2.655-0.087,3.988c-0.026,3.683,2.079,4.613,4.709,2.717
	C-288.495,215.501-284.073,211.53-279.04,207.398z"/>
<path d="M-179.972,584.696c-0.797-0.911-1.778-2.033-3.006-3.438c7.984-6.448,14.871-14.475,25.259-17.211
	c2.678-0.705,6.752-0.817,8.442,0.717c1.8,1.634,2.584,5.779,1.995,8.423c-3.784,16.978-8.08,33.84-12.168,50.748
	c-0.494,2.047-0.998,4.146-1.06,6.231c-0.111,3.788,3.956,5.888,7.905,3.953c13.207-6.47,21.917-16.703,25.611-31.07
	c2.874-11.176,5.98-22.294,8.67-33.513c0.852-3.553,2.322-5,6.008-4.604c2.948,0.318,5.959,0.064,9.042,0.064
	c-5.388,20.748-10.698,41.165-15.979,61.59c-0.364,1.411-0.786,2.899-0.685,4.315c0.138,1.934,0.754,3.833,1.165,5.747
	c2.226-0.68,4.914-0.791,6.58-2.154c3.454-2.825,6.365-6.315,9.786-9.825c1.289,1.032,2.376,1.901,3.356,2.688
	c-0.107,0.615-0.046,1.073-0.234,1.229c-7.181,5.953-14.092,12.306-21.753,17.564c-2.504,1.72-7.771,1.938-10.335,0.418
	c-3.357-1.993-4.68-6.398-3.019-10.977c0.908-2.501,0.877-5.344,1.123-7.036c-8.123,5.33-16.611,11.053-25.28,16.484
	c-2.278,1.429-5.05,2.271-7.711,2.847c-5.55,1.198-10.297-2.353-9.571-8.063c1.187-9.329,3.212-18.58,5.359-27.753
	c2.479-10.598,5.515-21.063,8.201-31.614c0.394-1.544,0.191-3.241,0.278-5.178C-170.545,573.913-173.656,581.946-179.972,584.696z"
	/>
<path d="M-419.24,207.258c1.067,1.003,2.154,2.023,3.778,3.549c-6.455,5.48-12.487,10.843-18.809,15.84
	c-2.229,1.762-5.067,2.921-7.8,3.846c-5.538,1.873-9.939-1.395-9.893-7.261c0.033-4.198,0.405-8.393,0.575-11.607
	c-8.192,5.398-16.746,11.307-25.608,16.708c-2.653,1.616-6.126,2.219-9.303,2.565c-4.518,0.493-8.007-3.165-7.547-8.806
	c0.526-6.454,1.905-12.892,3.476-19.197c3.218-12.929,6.842-25.757,10.204-38.651c0.367-1.408,0.272-2.994,0.114-4.468
	c-0.233-2.18-1.08-3.554-3.521-1.869c-3.477,2.4-7.13,4.568-10.451,7.163c-2.515,1.965-4.527,2.166-6.871-0.673
	c7.565-6.937,15.092-14.004,24.894-17.679c2.666-1,7.616-1.273,8.752,0.221c1.897,2.497,2.686,6.932,1.988,10.123
	c-3.715,16.994-8.05,33.852-12.121,50.769c-0.381,1.579-0.592,3.241-0.583,4.863c0.024,4.225,2.385,6.124,6.258,4.545
	c11.761-4.796,20.657-12.903,24.601-25.077c4.252-13.126,7.59-26.558,10.994-39.94c0.799-3.144,1.835-4.55,5.166-4.275
	c3.129,0.257,6.296,0.055,10.048,0.055c-3.95,14.627-7.886,28.804-11.584,43.041c-2.044,7.866-4.11,15.77-5.367,23.781
	c-0.822,5.244,1.441,6.539,5.918,3.451C-427.481,215.203-423.687,211.183-419.24,207.258z"/>
<path d="M1492.658,148.217c4.406,0,8.697,0,13.692,0c-1.563,6.304-2.993,12.259-4.523,18.188
	c-4.104,15.906-8.321,31.784-12.27,47.729c-0.379,1.528,0.333,3.991,1.456,5.001c0.799,0.719,3.565,0.279,4.714-0.604
	c4.178-3.215,8.042-6.834,13.118-11.252c0.376,2.148,1.438,4.671,0.815,5.196c-7.121,6.005-13.913,12.775-21.972,17.189
	c-8.175,4.478-14.159-1.397-12.647-11.163c0.422-2.729,0.986-5.436,1.568-8.601c-5.277,4.228-9.886,8.664-15.195,11.972
	c-5.723,3.565-11.945,6.486-18.251,8.904c-4.453,1.708-8.851-2.546-9.21-7.512c-0.842-11.634,4.087-22.096,6.495-33.057
	c2.091-9.521,4.793-18.906,7.15-28.37c0.812-3.266-1.234-5.329-4.146-3.705c-4.669,2.604-8.879,6.031-13.618,9.344
	c-0.506-0.617-1.454-1.775-2.631-3.211c7.243-7.113,14.683-14.23,24.707-17.642c7.964-2.71,11.799,0.544,10.05,8.774
	c-3.584,16.872-7.572,33.658-11.406,50.478c-0.434,1.896-1.389,3.797-1.289,5.652c0.093,1.753,0.812,4.01,2.074,5.007
	c1.153,0.909,3.743,1.119,5.119,0.447c12.795-6.242,22.056-15.531,25.648-29.865
	C1485.351,174.188,1489.069,161.378,1492.658,148.217z"/>
<path d="M1001.208,209.014c-5.083,4.422-8.764,8.545-13.272,11.323c-6.434,3.966-13.312,7.342-20.312,10.211
	c-4.846,1.987-9.227-2.011-9.687-7.257c-0.904-10.321,3.421-19.576,5.619-29.241c2.413-10.604,5.596-21.032,8.209-31.595
	c0.32-1.295-0.422-3.313-1.385-4.302c-0.625-0.641-2.854-0.502-3.828,0.124c-3.151,2.031-6.315,4.184-8.981,6.793
	c-2.632,2.575-4.421,2.418-6.914-1.554c7.203-5.169,14.41-10.514,21.832-15.539c1.777-1.204,4.244-1.724,6.446-1.904
	c6.113-0.499,9.322,3.381,7.867,9.337c-4.169,17.062-8.471,34.092-12.544,51.176c-0.604,2.536-0.812,5.429-0.222,7.926
	c0.868,3.669,3.452,4.213,6.895,2.54c14.871-7.225,23.312-19.251,27.053-35.086c2.466-10.444,5.261-20.814,8.132-31.156
	c0.315-1.143,2.034-2.562,3.215-2.676c3.625-0.351,7.305-0.128,11.359-0.128c-3.418,12.803-6.804,25.312-10.091,37.847
	c-2.475,9.436-4.92,18.883-7.125,28.384c-0.336,1.447,0.208,3.836,1.242,4.65c0.967,0.763,3.611,0.64,4.676-0.183
	c4.564-3.523,8.818-7.449,13.177-11.22c0.729,1.022,1.56,2.186,3.069,4.304c-7.275,5.75-14.393,11.742-21.927,17.15
	c-3.151,2.262-7.413,3.562-11.048,0.818c-3.594-2.713-4.15-6.956-3.591-11.191C999.43,215.871,1000.242,213.237,1001.208,209.014z"
	/>
<path d="M242.275,428.079c8.963-0.119,11.908-9.071,19.805-12.131c0,1.507,0.636,3.595-0.1,4.353
	c-6.854,7.062-13.337,14.675-23.243,17.795c-7.155,2.253-12.167-0.856-11.554-8.357c0.647-7.913,2.39-15.797,4.298-23.534
	c2.647-10.731,5.997-21.288,8.797-31.985c0.532-2.031-0.092-4.365-0.183-6.559c-2.026,0.096-4.301-0.379-6.039,0.378
	c-14.624,6.372-24.657,16.764-28.068,32.815c-2.268,10.672-4.598,21.331-7.161,31.934c-0.309,1.272-2.172,2.911-3.47,3.062
	c-3.596,0.422-7.272,0.146-11.611,0.146c5.523-23.589,12.005-46.473,15.748-69.898c-0.673-0.462-1.346-0.924-2.02-1.386
	c-5.433,3.887-10.865,7.773-16.475,11.786c-0.466-0.403-1.339-1.158-2.604-2.253c8.842-9.343,17.936-17.338,30.503-20.156
	c5.001-1.121,7.006,0.734,6.075,5.755c-1.11,5.991-2.475,11.937-3.946,18.934c5.164-4.538,9.28-8.825,14.051-12.181
	c6.091-4.284,12.491-8.282,19.212-11.438c2.604-1.224,7.888-1.046,9.388,0.697c2.207,2.566,3.478,7.403,2.75,10.752
	c-2.135,9.823-5.622,19.343-8.26,29.068c-2.469,9.102-4.604,18.297-6.687,27.495C241.167,424.562,241.941,426.202,242.275,428.079z"
	/>
<path d="M247.851,227c3.66-15.158,7.207-29.511,10.571-43.906c1.74-7.447,3.211-14.959,4.657-22.47
	c0.202-1.054-0.135-2.979-0.759-3.246c-0.967-0.413-2.669-0.127-3.581,0.529c-4.258,3.061-8.351,6.35-12.96,9.91
	c-0.652-0.519-1.742-1.382-2.724-2.161c0.097-0.612,0.028-1.085,0.214-1.229c7.123-5.461,13.984-11.345,21.549-16.11
	c3.169-1.997,7.822-1.867,11.837-2.123c0.933-0.06,3.047,2.443,2.863,3.446c-1.22,6.663-2.916,13.239-4.396,19.578
	c7.707-5.995,15.208-12.382,23.307-17.891c3.875-2.636,8.769-4.522,13.406-5.111c6.755-0.858,10.763,4.405,8.99,11.048
	c-2.93,10.985-6.417,21.823-9.303,32.82c-2.144,8.163-3.822,16.456-5.415,24.748c-0.292,1.516,0.824,3.303,1.292,4.964
	c1.6-0.614,3.438-0.91,4.75-1.904c3.272-2.481,6.192-5.432,9.492-7.872c1.188-0.879,3.057-0.841,4.613-1.221
	c-0.383,1.525-0.26,3.625-1.23,4.48c-5.66,4.979-11.458,9.826-17.481,14.354c-1.831,1.377-4.472,1.929-6.83,2.303
	c-7.069,1.12-9.992-2.953-9.494-9.185c0.645-8.059,2.507-16.082,4.497-23.956c2.626-10.389,6.021-20.581,8.765-30.942
	c0.552-2.087,0.479-5.515-0.779-6.576c-1.271-1.069-4.706-0.644-6.62,0.297c-15.544,7.628-25.189,19.746-28.16,37.124
	c-1.505,8.804-4.1,17.416-5.825,26.188c-0.653,3.325-2.059,4.397-5.269,4.16C254.701,226.818,251.545,227,247.851,227z"/>
<path d="M155.867,227c2.512-10.487,4.934-20.428,7.268-30.389c2.746-11.72,5.456-23.448,8.059-35.201
	c0.271-1.224,0.139-3.312-0.592-3.782c-0.893-0.576-2.938-0.329-3.92,0.363c-4.284,3.021-8.363,6.333-12.928,9.855
	c-0.679-0.566-1.751-1.462-2.726-2.275c0.141-0.625,0.102-1.08,0.297-1.229c6.99-5.37,13.701-11.197,21.15-15.836
	c3.324-2.069,8.123-1.97,12.297-2.324c0.941-0.08,3.119,2.257,2.947,3.131c-1.308,6.669-3.057,13.251-4.816,20.467
	c5.634-4.643,10.659-9.136,16.057-13.127c4.705-3.479,9.535-7.105,14.873-9.296c3.382-1.387,8.44-1.535,11.581,0.059
	c3.971,2.014,4.145,6.684,2.775,11.332c-4.408,14.964-8.551,30.01-12.514,45.098c-1.07,4.074-1.37,8.398-1.602,12.631
	c-0.191,3.51,1.509,4.691,4.572,2.358c4.947-3.768,9.836-7.611,14.749-11.422c0.465,0.167,0.93,0.334,1.396,0.501
	c-0.711,1.979-0.857,4.578-2.232,5.824c-5.338,4.843-10.985,9.359-16.699,13.762c-1.615,1.244-3.785,2.129-5.81,2.416
	c-8.725,1.242-13.191-4.961-10.631-14.766c4.271-16.351,8.737-32.649,12.921-49.021c0.559-2.186-0.05-4.669-0.118-7.015
	c-2.446,0.159-5.243-0.4-7.284,0.593c-15.607,7.596-25.116,19.809-28.03,37.201c-1.449,8.646-4.133,17.081-5.782,25.702
	c-0.678,3.548-2.11,4.695-5.515,4.44C162.499,226.815,159.356,227,155.867,227z"/>
<path d="M926.604,373.566c-1.273-1.564-2.308-2.833-3.629-4.455c7.428-4.598,14.719-9.208,22.111-13.648
	c3.684-2.212,6.349-2.082,9.4,2.162c10.798,15.017,15.878,31.983,18.458,49.907c0.866,6.026,1.034,12.153,1.634,19.653
	c3.504-7.558,6.806-14.069,9.574-20.803c3.686-8.964,6.629-18.226,5.759-28.091c-0.412-4.669-1.703-9.271-2.727-13.873
	c-1.522-6.858,1.524-11.225,7.601-10.364c4.979,0.706,6.089,5.133,6.021,8.833c-0.113,6.34-1.012,12.743-2.302,18.97
	c-6.006,28.977-19.965,54.354-37.125,77.93c-8.914,12.248-19.938,22.926-35.702,26.192c-5.087,1.054-10.497,1.094-15.713,0.789
	c-3.917-0.228-6.711-4.897-5.911-8.91c0.778-3.899,3.537-5.29,7.335-4.856c5.037,0.574,10.103,0.985,15.102,1.796
	c7.326,1.188,13.239-1.826,18.412-6.3c8.725-7.547,15.977-16.396,17.281-28.293c0.781-7.112,0.777-14.551-0.408-21.584
	c-1.912-11.353-4.645-22.627-7.934-33.665c-1.538-5.159-4.824-9.946-7.997-14.421c-2.457-3.465-6.104-4.572-10.261-1.815
	C932.748,370.602,929.58,371.984,926.604,373.566z"/>
<path d="M-1044.169,160.69c5.938-3.898,11.614-7.704,17.369-11.386c9.786-6.261,11.841-4.192,16.651,3.483
	c8.052,12.85,12.626,27.143,15.068,42.032c1.278,7.796,1.65,15.74,2.511,24.421c3.904-9.282,7.749-18.348,11.532-27.438
	c5.206-12.51,4.333-25.161,1.007-37.938c-1.165-4.475,1.26-8.358,4.944-8.858c4.074-0.553,7.771,2.756,8.071,7.37
	c0.613,9.461-0.98,18.633-3.505,27.728c-7.666,27.615-20.994,52.251-38.693,74.669c-8.334,10.556-18.305,18.917-31.469,22.285
	c-5.33,1.363-11.214,1.126-16.791,0.765c-3.931-0.255-6.858-3.243-6.35-7.395c0.511-4.176,3.572-6.728,8.009-6.373
	c5.374,0.43,10.712,1.78,16.068,1.789c3.931,0.006,8.373-0.61,11.704-2.503c11.296-6.417,19.396-15.945,21.979-28.851
	c1.407-7.029,1.937-14.658,0.792-21.68c-2.087-12.805-5.496-25.416-8.829-37.981c-1.017-3.835-3.23-7.509-5.533-10.812
	c-4.372-6.271-9.52-6.91-17.068-1.512C-1040.31,165.088-1042.005,164.397-1044.169,160.69z"/>
<path d="M796.762,581.918c-3.624-2.38-3.793-4.273,0.339-6.652c5.927-3.41,11.433-7.551,17.36-10.955
	c4.951-2.845,7.26-1.906,10.612,2.985c10.475,15.289,15.963,32.34,17.919,50.628c0.604,5.662,0.994,11.349,1.536,17.648
	c6.581-11.996,11.503-24.055,14.523-36.936c1.948-8.303,0.247-16.213-1.182-24.313c-0.601-3.404,0.257-7.271,1.355-10.63
	c0.289-0.884,4.186-1.378,6.031-0.8c4.578,1.435,6.255,5.481,5.638,9.808c-1.354,9.508-2.508,19.15-5.107,28.354
	c-7.273,25.739-20.203,48.833-36.522,69.76c-8.219,10.537-18.061,20.474-32.104,23.401c-5.594,1.167-11.605,1.157-17.324,0.608
	c-3.769-0.361-6.483-3.516-5.751-7.81c0.71-4.152,3.936-6.127,7.867-5.916c4.71,0.253,9.614,0.56,14.011,2.072
	c6.252,2.152,11.282-0.494,15.582-3.604c13.403-9.694,22.42-22.504,21.293-39.762c-1.232-18.906-3.826-37.72-12.908-54.857
	c-1.205-2.277-3.012-4.282-4.755-6.221c-2.781-3.091-6.087-3.571-9.762-1.497C802.586,578.827,799.704,580.328,796.762,581.918z"/>
<path d="M-765.356,361.288c2.816-1.619,5.669-3.178,8.441-4.868c5.604-3.418,9.095-3.553,11.847,1.253
	c4.831,8.436,9.968,17.021,12.76,26.218c3.57,11.762,5.041,24.173,7.17,36.347c0.338,1.933-0.615,4.091-0.972,6.145
	c0.418,0.173,0.837,0.347,1.255,0.521c3.269-6.97,7.099-13.739,9.65-20.962c2.696-7.631,4.863-15.6,5.927-23.599
	c0.641-4.819-1.259-9.978-2.031-14.981c-0.225-1.45-0.463-2.9-0.758-4.338c-1.116-5.439,0.333-8.569,4.207-9.017
	c5.135-0.592,9.146,2.655,8.744,8.091c-0.625,8.473-1.097,17.127-3.234,25.285c-7.033,26.852-19.788,51.024-36.617,73.014
	c-8.386,10.957-18.045,20.746-31.756,24.697c-5.562,1.604-11.662,1.628-17.532,1.777c-3.68,0.094-7.897-4.628-7.738-7.668
	c0.188-3.584,3.811-6.433,8.607-6.134c5.051,0.312,10.057,1.521,15.103,1.668c3.495,0.103,7.579,0.034,10.444-1.615
	c14.908-8.585,24.795-20.823,24.784-38.911c-0.013-20.004-3.459-39.391-12.135-57.591c-1.156-2.428-2.938-4.729-4.922-6.554
	c-4.223-3.883-9.43-3.184-16.147,1.751c-0.791,0.581-1.467,1.321-2.426,2.197c-1.117-1.527-2.171-2.968-3.227-4.41
	c3.669-2.901,7.191-5.687,10.715-8.473L-765.356,361.288z"/>
<path d="M-22.312,416.241c0.659,0.698,1.541,1.633,2.677,2.836c-9.013,8.268-17.48,16.794-29.699,19.485
	c-2.311,0.51-5.811,0.281-7.213-1.138c-1.276-1.29-0.861-4.734-0.447-7.101c0.637-3.631,1.911-7.15,2.881-10.598
	c-6.568,5.082-12.923,10.44-19.738,15.13c-5.004,3.442-10.667,5.783-16.996,3.186c-5.545-2.276-7.992-7.288-7.913-12.446
	c0.116-7.607,0.684-15.572,3.089-22.699c4.101-12.146,11.076-22.94,20.328-32.029c10.002-9.826,21.693-15.615,36.101-14.906
	c3.297,0.162,6.713,0.812,9.099-3.006c0.811-1.299,3.695-1.303,5.978-2.004c-4.189,15.322-8.422,30.094-12.222,44.976
	c-2.212,8.66-3.807,17.482-5.523,26.263c-0.642,3.28,1.717,4.911,4.993,3.132C-32.077,422.689-27.527,419.521-22.312,416.241z
	 M-42.57,367.557c-14.285-3.661-24.506,0.955-31.635,12.267c-7.443,11.812-11.14,24.742-9.798,38.865
	c0.528,5.562,6.279,9.295,11.711,6.927c5.518-2.407,11.235-5.034,14.053-10.931c2.852-5.969,5.893-11.931,7.895-18.2
	C-47.338,387.065-45.164,377.379-42.57,367.557z"/>
<path d="M169.834,416.035c0.535,0.566,1.496,1.587,2.712,2.877c-9.206,8.449-17.681,16.973-29.901,19.659
	c-2.307,0.507-5.812,0.265-7.205-1.159c-1.273-1.301-0.832-4.734-0.436-7.11c0.604-3.634,1.819-7.165,2.709-10.491
	c-6.011,4.685-12.078,9.571-18.334,14.204c-2.203,1.633-4.765,2.916-7.342,3.883c-9.978,3.735-18.39-2.146-19.082-12.879
	c-0.641-9.925,1.348-19.309,5.685-28.087c5.833-11.811,13.005-22.599,23.665-30.909c9.402-7.331,19.753-10.564,31.504-10.049
	c2.847,0.125,5.635,0.559,7.738-2.693c0.935-1.445,3.904-1.575,6.107-2.357c-4.428,16.611-8.851,32.68-12.952,48.831
	c-1.879,7.399-3.205,14.946-4.617,22.457c-0.617,3.286,1.728,4.896,5.011,3.095C159.928,422.654,164.46,419.455,169.834,416.035z
	 M149.407,367.438c-1.404-0.253-1.876-0.368-2.354-0.415c-0.495-0.049-1.021,0.064-1.491-0.055
	c-9.132-2.305-16.938,0.411-23.033,7.129c-11.66,12.852-15.968,28.34-14.364,45.404c0.364,3.879,2.94,6.998,7.783,6.505
	c7.284-0.742,13.298-4.15,16.938-10.266c3.604-6.051,6.594-12.625,8.784-19.318C144.738,387.048,146.814,377.35,149.407,367.438z"/>
<path d="M477.604,416.205c2.415,2.096,2.648,3.723-0.543,5.867c-6.896,4.634-13.357,9.919-20.324,14.434
	c-2.453,1.589-5.82,2.11-8.839,2.4c-4.867,0.467-6.908-2.257-5.762-7.152c0.479-2.047,1.22-4.033,1.849-6.044
	c0.622-1.987,1.253-3.972,1.933-6.126c-6.097,4.748-11.983,9.458-18.021,13.968c-2.069,1.545-4.41,2.847-6.807,3.817
	c-12.014,4.871-19.072-0.893-20.04-13.032c-1.389-17.418,6.415-31.734,16.298-45.082c7.319-9.886,16.176-18.262,28.463-21.445
	c5.479-1.419,11.36-1.355,17.074-1.763c2.434-0.173,4.521,0.028,6.351-2.457c1.134-1.541,3.925-1.863,6.9-3.128
	c-2.445,8.191-4.928,15.457-6.769,22.882c-3.951,15.933-7.612,31.938-11.246,47.947c-0.284,1.251,0.14,3.271,1.013,3.997
	c0.811,0.672,2.949,0.581,4.007-0.03C467.917,422.497,472.516,419.432,477.604,416.205z M457.357,367.159
	c-1.843-0.086-2.845,0.007-3.781-0.197c-10.033-2.183-18.13,1.105-24.72,8.677c-7.413,8.516-11.021,18.753-12.735,29.647
	c-0.693,4.405-0.411,9.034-0.037,13.519c0.407,4.892,3.406,7.384,8.17,7.16c6.684-0.312,11.565-4.244,15.674-8.941
	c7.104-8.121,9.222-18.512,12.018-28.517C453.862,381.642,455.461,374.688,457.357,367.159z"/>
<path d="M-798.019,207.577c2.65,1.741,2.717,3.337-0.451,5.525c-6.844,4.726-13.195,10.205-20.248,14.568
	c-2.958,1.831-7.161,1.994-10.84,2.215c-3.512,0.211-5.079-2.016-4.126-5.538c1.222-4.519,2.554-9.009,4.173-14.687
	c-5.473,4.854-9.862,9.146-14.669,12.904c-5.121,4.006-10.305,7.962-17.571,7.521c-6.719-0.408-10.592-3.204-12.251-9.73
	c-2.369-9.322-0.424-18.111,2.987-26.779c7.37-18.728,18.386-34.646,37.304-42.892c6.504-2.834,14.556-2.079,21.884-3.093
	c1.448-0.2,2.891-0.851,4.204-1.543c2.219-1.172,4.332-2.544,6.49-3.832c0.373,0.41,0.746,0.82,1.12,1.23
	c-2.935,10.028-6.159,19.984-8.729,30.105c-3.041,11.978-5.558,24.091-8.194,36.169c-0.347,1.59-0.052,3.318-0.06,4.983
	c-0.014,3.158,1.418,3.883,4.023,2.274C-808.121,213.983-803.314,210.913-798.019,207.577z M-817.107,158.719
	c-11.27-1.646-21.152-1.794-27.961,6.154c-10.793,12.6-16.136,27.603-14.855,44.458c0.418,5.503,5.195,9.54,9.42,8.444
	c7.856-2.038,14.716-6.531,17.651-13.74C-826.915,189.458-822.42,174.293-817.107,158.719z"/>
<path d="M1798.898,143.775c-4.111,15.365-8.352,30.697-12.277,46.109c-1.848,7.246-3.227,14.621-4.51,21.991
	c-0.308,1.758,0.61,3.729,0.967,5.603c1.779-0.434,3.803-0.469,5.291-1.378c4.165-2.546,8.109-5.453,12.542-8.491
	c0.67,0.621,1.815,1.683,3.244,3.007c-8.335,6.626-15.179,14.906-25.608,18.072c-2.914,0.885-6.117,1.281-9.144,1.113
	c-1.195-0.066-3.332-2.395-3.219-3.506c0.507-4.955,1.673-9.844,2.579-14.653c-6.087,4.786-12.181,9.689-18.396,14.432
	c-4.835,3.688-10.498,4.425-16.368,3.895c-3.252-0.294-7.98-6.468-9.045-10.778c-2.062-8.346-0.092-16.34,2.559-23.969
	c4.274-12.31,11.07-23.342,20.396-32.546c8.558-8.447,18.14-15.094,30.99-14.702c3.009,0.092,6.044,0.169,9.025-0.146
	c1.291-0.137,2.469-1.295,3.71-1.968c2.138-1.159,4.284-2.302,6.426-3.451C1798.341,142.864,1798.62,143.319,1798.898,143.775z
	 M1739.015,204.685c0,1.165-0.12,2.344,0.021,3.492c1.036,8.514,6.342,11.653,14.072,8.206c6.141-2.737,11.711-6.796,13.96-13.087
	c5.016-14.032,9.159-28.378,13.497-42.645c0.188-0.621-1.188-2.456-1.911-2.503c-8.63-0.548-17.056-0.368-23.804,6.448
	C1743.824,175.733,1740.539,189.843,1739.015,204.685z"/>
<path d="M739.88,350.633c-2.923,10.299-5.861,19.702-8.235,29.246c-3.413,13.72-6.464,27.531-9.519,41.337
	c-0.28,1.269,0.103,3.505,0.935,3.99c1.099,0.641,3.231,0.492,4.423-0.188c4.648-2.656,9.103-5.658,14.042-8.793
	c2.363,1.735,3.088,3.418-0.402,5.81c-6.854,4.693-13.383,9.868-20.301,14.46c-2.196,1.458-5.152,2.036-7.847,2.429
	c-5.729,0.835-8.108-1.972-6.668-7.546c1.044-4.036,2.218-8.039,3.509-12.688c-8.72,7.916-16.343,16.021-27.304,19.454
	c-10.55,3.305-16.464-2.821-17.407-12.536c-1.741-17.903,5.93-32.802,16.363-46.521c7.347-9.656,15.787-18.19,28.096-21.126
	c5.355-1.277,11.029-1.169,16.505-2.04c2.411-0.384,4.697-1.612,7.021-2.51C735.116,352.627,737.113,351.769,739.88,350.633z
	 M721.684,367.282c-2.404-0.188-3.764-0.081-4.994-0.427c-8.89-2.488-16.842,0.737-22.332,6.724
	c-10.359,11.292-15.334,25.603-15.067,40.815c0.172,9.805,3.594,13.284,11.233,11.269c4.881-1.288,10.076-4.655,13.234-8.606
	C715.165,402.781,715.569,384.377,721.684,367.282z"/>
<path d="M-745.781,210.241c-6.303,5.265-11.982,10.45-18.15,14.971c-3.041,2.229-6.854,4.054-10.543,4.632
	c-11.825,1.854-15.285-4.452-16.4-14.986c-1.178-11.125,2.87-21.363,7.993-30.92c7.733-14.427,17.724-27.253,33.416-33.42
	c6.55-2.574,14.312-2.021,21.504-3.039c1.567-0.223,3.096-0.981,4.552-1.68c2.237-1.074,4.396-2.31,7.662-4.048
	c-4.214,15.204-8.25,28.566-11.56,42.105c-2.396,9.801-3.962,19.814-5.627,29.778c-0.676,4.038,1.169,5.284,4.792,2.959
	c4.657-2.988,9.296-6.008,14.116-9.127c0.566,0.938,1.312,2.172,2.598,4.305c-7.67,5.342-15.073,10.927-22.943,15.751
	c-2.868,1.758-6.819,2.144-10.326,2.368c-4.599,0.293-5.842-1.658-4.672-6.106C-748.221,219.411-747.055,215.043-745.781,210.241z
	 M-733.7,158.618c-10.692-1.521-20.579-1.687-27.387,6.271c-10.787,12.608-16.158,27.617-14.823,44.466
	c0.529,6.683,5.523,9.698,11.723,7.598c8.784-2.977,15.01-9.2,18.009-17.565C-741.481,186.284-737.959,172.76-733.7,158.618z"/>
<path d="M732.359,219.016c6.043-4.162,11.246-7.746,16.772-11.553c0.606,0.709,1.576,1.843,3.422,4
	c-7.752,5.49-15.277,11.182-23.212,16.23c-2.566,1.634-6.182,2.032-9.359,2.21c-5.945,0.333-7.324-1.653-5.693-7.477
	c1.122-4.01,2.438-7.966,3.571-11.634c-6.379,5.003-12.79,10.1-19.277,15.096c-4.812,3.708-10.4,4.632-16.304,4.099
	c-4.079-0.367-8.816-7.438-9.323-13.067c-1.47-16.321,5.273-30.053,13.823-43.004c5.61-8.5,12.706-16.021,21.85-20.786
	c4.907-2.558,10.587-3.902,16.077-4.984c3.865-0.761,8.005-0.034,12.009-0.243c1.104-0.059,2.173-1.062,3.23-1.68
	c2.298-1.341,4.578-2.712,7.761-4.602c-4.644,17.469-8.976,33.249-12.991,49.109c-1.873,7.397-3.292,14.925-4.538,22.456
	C729.924,214.717,731.375,216.528,732.359,219.016z M686.998,205.79c0.174,0.673,0.688,2.221,0.968,3.81
	c1.294,7.322,5.718,9.93,12.541,7.156c8.16-3.316,14.267-9.298,17.099-17.337c4.354-12.36,7.521-25.145,10.97-37.809
	c0.258-0.943-1.166-3.345-1.967-3.421c-8.7-0.831-17.265-0.33-23.767,6.534C692.229,175.928,688.491,189.963,686.998,205.79z"/>
<path d="M-22.341,207.653c0.722,0.982,1.399,1.905,2.28,3.104c-9.598,8.484-18.127,18.774-32.502,19.197
	c-4.881,0.144-6.338-2.214-4.891-7.061c1.143-3.827,2.244-7.666,2.472-12.236c-1.453,1.395-2.772,2.97-4.382,4.151
	c-6.567,4.819-12.994,9.891-19.922,14.136c-4.984,3.056-13.185,1.508-15.725-2.688c-1.957-3.232-3.581-7.137-3.839-10.847
	c-1.14-16.396,5.789-30.29,15.111-43.006c7.026-9.584,15.174-18.585,26.911-22.198c6.643-2.045,14.006-1.712,21.025-2.598
	c1.448-0.183,2.887-0.882,4.199-1.586c2.189-1.175,4.273-2.546,6.402-3.835c0.324,0.394,0.648,0.787,0.973,1.181
	c-2.687,9.42-5.646,18.773-7.997,28.276c-3.434,13.87-6.473,27.839-9.531,41.799c-0.225,1.026,0.446,2.67,1.264,3.372
	c0.671,0.577,2.446,0.634,3.272,0.145C-32.18,213.978-27.271,210.771-22.341,207.653z M-83.999,203.601
	c0,1.665-0.036,3.332,0.006,4.996c0.177,6.967,5.34,10.642,11.772,8.369c7.86-2.777,14.081-8.037,16.867-15.592
	c4.765-12.921,8.33-26.29,12.164-39.539c0.284-0.982-1.055-3.329-2.079-3.654c-7.936-2.516-20.88,1.628-25.915,8.63
	C-79.05,177.749-84.269,189.757-83.999,203.601z"/>
<path d="M-226.114,211.496c-7.808,5.556-15.204,12.432-23.895,16.618c-12.439,5.993-19.893,0.125-20.868-12.718
	c-1.245-16.382,5.876-30.303,15.187-43.03c6.629-9.062,14.449-17.053,25.208-21.563c7.403-3.103,14.969-3.812,22.854-3.12
	c1.33,0.116,2.819-1.085,4.169-1.801c2.189-1.16,4.323-2.423,7.527-4.234c-4.493,16.588-8.756,31.375-12.444,46.305
	c-2.068,8.373-3.272,16.967-4.65,25.496c-0.234,1.455,0.623,3.086,1.192,5.587c6.486-4.211,12.05-7.824,17.798-11.557
	c0.494,0.797,1.175,1.895,2.622,4.229c-7.73,5.38-15.338,11.032-23.347,16.044c-2.584,1.616-6.198,1.982-9.383,2.151
	c-5.333,0.281-6.793-1.977-5.264-7.082C-228.204,218.805-227.064,214.77-226.114,211.496z M-214.451,158.528
	c-11.552-1.723-21.735-0.664-28.705,8.357c-9.626,12.459-13.989,26.852-12.87,42.754c0.337,4.788,5.379,10.021,11.401,7.5
	c6.132-2.565,10.943-6.22,14.822-11.594c6.424-8.9,8.041-19.441,10.795-29.613C-217.454,170.194-215.993,164.432-214.451,158.528z"
	/>
<path d="M1213.35,211.149c-6.134,4.838-12.504,10.014-19.041,14.97c-4.836,3.666-10.771,5.173-16.31,3.543
	c-3.156-0.928-6.479-4.698-7.755-7.961c-3.754-9.595-1.224-19.192,2.145-28.435c3.961-10.875,10.02-20.704,18.019-28.922
	c8.737-8.979,18.531-16.825,32.298-16.369c3.348,0.111,6.712,0.156,10.048-0.075c1.104-0.076,2.146-1.104,3.205-1.716
	c2.309-1.333,4.609-2.679,7.832-4.554c-4.404,15.892-8.562,30.067-12.213,44.372c-2.255,8.83-3.82,17.841-5.472,26.812
	c-0.239,1.311,0.354,3.45,1.316,4.113c0.938,0.646,3.139,0.365,4.266-0.339c4.431-2.77,8.652-5.866,13.222-9.026
	c0.635,0.594,1.694,1.586,2.735,2.561c-0.109,0.39-0.101,0.747-0.272,0.907c-7.569,7.014-14.802,14.588-25.027,17.743
	c-3.06,0.944-6.46,1.145-9.675,1.005c-0.941-0.041-2.688-2.567-2.512-3.715C1210.969,220.824,1212.333,215.671,1213.35,211.149z
	 M1217.146,157.996c-8.31-0.529-15.363,2.486-20.316,8.912c-3.635,4.713-6.528,10.174-8.854,15.68
	c-3.889,9.21-6.438,18.812-3.94,28.977c1.252,5.104,5.254,7.12,10.436,5.646c12.325-3.505,17.825-13.221,21.413-24.18
	c3.276-10.006,5.376-20.393,8.427-30.48c1.094-3.613,0.117-4.579-3.173-4.551C1219.809,158.012,1218.479,158.002,1217.146,157.996z"
	/>
<path d="M1691.713,351.105c-7.64,24.733-14.832,49.026-18.188,74.695c8.963,0.758,12.959-6.227,19.163-9.493
	c0.712,0.75,1.568,1.65,2.679,2.817c-8.357,8.323-16.421,16.562-28.228,19.147c-2.692,0.589-6.256,0.604-8.35-0.758
	c-1.219-0.794-0.723-4.921-0.273-7.418c0.648-3.609,1.955-7.103,2.322-11.313c-1.074,1.032-2.086,2.143-3.232,3.088
	c-5.439,4.486-10.554,9.503-16.468,13.25c-8.776,5.562-17.249,6.12-21.321-1.206c-2.482-4.47-4.207-10.481-3.51-15.407
	c3.385-23.855,15.299-42.869,35.284-56.483c7.409-5.047,16.007-6.309,24.875-6.06c3.145,0.088,6.421,0.903,8.565-3.089
	C1685.729,351.575,1689.123,351.723,1691.713,351.105z M1631,412.812c0,0.666-0.012,1.33,0.002,1.994
	c0.193,9.865,5.283,14.234,15.498,9.307c7.322-3.532,12.607-9.393,15.141-16.747c4.218-12.241,7.321-24.87,10.715-37.384
	c0.207-0.766-0.961-2.566-1.832-2.857c-8.021-2.68-20.22,0.71-25.416,7.362C1636.339,385.709,1631.641,398.543,1631,412.812z"/>
<path d="M-557.783,230.248c-14.398,1.022-22.572-10.026-22.998-22.77c-0.759-22.706,8.089-41.564,26.364-55.453
	c8.052-6.119,17.65-7.039,27.308-5.867c7.257,0.881,14.592,9.965,16.107,18.63c3.145,17.971-1.839,33.517-13.519,47.32
	c-6.925,8.185-14.846,14.672-25.42,17.291C-552.47,230.025-555.165,229.983-557.783,230.248z M-564.446,195.97
	c0.493,4.901,0.345,9.981,1.645,14.658c1.582,5.69,4.312,11.515,11.215,12.206c6.187,0.621,10.881-2.861,14.561-7.688
	c6.123-8.031,9.152-17.395,9.826-27.173c0.66-9.579,1.454-19.475-3.68-28.47c-3.409-5.973-9.074-8.6-14.325-5.622
	c-3.614,2.05-7.222,4.813-9.648,8.125C-562.197,172.029-564.716,183.601-564.446,195.97z"/>
<path d="M-451.624,647.399c-14.592-0.399-23.321-9.263-23.387-23.958c-0.088-19.901,7.178-36.65,21.479-50.389
	c9.068-8.71,20.262-11.662,32.236-9.775c6.807,1.071,11.877,6.303,14.202,13.005c6.962,20.067,1.118,37.428-11.831,53.165
	c-6.336,7.699-13.615,14.062-23.512,16.628C-445.412,646.847-448.557,646.977-451.624,647.399z M-420.641,596.984
	c-0.468-4.237-0.562-8.56-1.495-12.691c-1.212-5.368-2.58-10.756-8.571-13.368c-6.566-2.862-13.659,1.396-17.992,7.586
	c-9.906,14.157-11.77,30.226-8.905,46.777c0.773,4.475,3.337,9.61,6.739,12.455c6.946,5.806,15.58,0.59,19.742-5.514
	C-423.924,621.672-420.823,609.786-420.641,596.984z"/>
<path d="M24.965,646.93c-16.021,2.265-24.041-12.326-24.086-23.806c-0.084-20.892,7.958-37.94,23.25-51.623
	c8.41-7.524,18.881-9.792,29.879-8.31c7.734,1.042,15.795,10.841,16.968,19.492c3.368,24.854-6.992,43.603-26.344,58.052
	C38.815,645.079,32.202,648.186,24.965,646.93z M55.118,596.4c-0.31-3.232,0.002-7.887-1.356-11.985
	c-1.463-4.413-3.645-9.277-7.017-12.224c-6.739-5.89-15.318,0.423-19.692,6.753c-10.626,15.379-12.016,32.402-7.812,50.039
	c0.792,3.321,3.404,6.862,6.197,8.917c5.581,4.104,14.021,1.521,18.498-4.493C51.869,622.748,54.687,610.58,55.118,596.4z"/>
<path d="M1589.298,173.363c-0.552,23.877-11.442,40.82-30.355,52.437c-9.21,5.656-19.874,7.013-29.849,1.104
	c-6.623-3.925-9.461-10.533-10.117-18.163c-1.666-19.4,5.577-35.738,17.908-49.921c9.405-10.819,22.107-15.206,36.031-12.451
	c7.895,1.562,12.729,8.487,14.967,16.308C1588.952,166.407,1588.939,170.447,1589.298,173.363z M1534.959,197.317
	c-0.3,6.232,0.962,13.375,4.747,20.006c2.662,4.66,7.649,7.265,12.371,4.866c4.366-2.219,9.177-5.204,11.671-9.183
	c9.396-14.981,11.141-31.641,7.071-48.599c-2.671-11.127-11.526-15.543-20.917-7.746c-2.929,2.433-5.604,5.473-7.538,8.741
	C1536.812,174.795,1534.896,185.204,1534.959,197.317z"/>
<path d="M405.001,621.031c0.526-21.716,9.314-39.312,26.809-52.186c7.594-5.588,16.721-6.97,25.871-5.682
	c8.533,1.2,16.081,10.659,17.272,21.009c2.81,24.416-7.7,42.715-26.655,57.013c-8.229,6.208-17.775,6.805-27.366,5.577
	c-7.799-0.996-15.557-11.275-15.918-19.733C404.929,625.033,405.001,623.03,405.001,621.031z M420.78,614.007
	c0.378,3.449,0.363,7.479,1.337,11.256c1.589,6.175,3.467,12.471,10.702,14.61c3.894,1.151,12.197-2.079,16.18-8.188
	c10.346-15.87,11.899-32.977,7.788-50.807c-2.289-9.933-10.31-13.665-18.116-8.922c-3.284,1.996-6.257,4.925-8.567,8.027
	C422.722,589.895,421.698,601.69,420.78,614.007z"/>
<path d="M492.646,204.236c0.148,1.684,1.116,4.147,0.328,5.017c-7.445,8.206-15.757,15.548-26.233,19.515
	c-3.312,1.254-8.431,1.563-11.107-0.177c-4.777-3.106-3.282-9.312-2.287-13.851c4.771-21.771,9.953-43.459,15.432-65.064
	c2.989-11.796,5.543-23.981,10.635-34.898c7.595-16.285,21.812-24.237,39.873-24.739c5.357-0.149,8.832,2.941,8.713,7.211
	c-0.113,4.042-3.538,6.943-8.562,6.684c-3.902-0.202-7.793-0.899-11.653-1.578c-6.065-1.067-13.06-0.271-15.193,8.403
	c-4.704,19.109-9.812,38.118-14.556,57.218c-3.767,15.159-7.314,30.374-10.735,45.614c-0.413,1.842,0.58,3.998,0.921,6.009
	c1.652-0.41,3.597-0.398,4.908-1.302C479.457,213.941,485.616,209.339,492.646,204.236z"/>
<path d="M443.932,204.604c1.915,1.25,3.457,3.08,0.524,5.402c-7.565,5.99-15.062,12.098-22.976,17.599
	c-2.471,1.718-6.153,2.076-9.334,2.296c-4.934,0.342-7.612-2.056-7.012-7.12c1.21-10.192,2.646-20.419,4.966-30.403
	c4.974-21.392,10.417-42.678,15.986-63.923c2.065-7.88,5.071-15.363,10.523-21.861c6.808-8.113,15.17-13.253,25.33-15.507
	c3.652-0.811,7.513-1.089,11.259-0.977c4.048,0.121,7.365,3.927,6.719,7.545c-0.695,3.896-3.067,6.603-7.401,6.296
	c-4.236-0.3-8.479-0.819-12.657-1.578c-6.171-1.119-13.205-0.108-15.235,8.315c-5.029,20.869-10.456,41.642-15.614,62.48
	c-3.284,13.268-6.461,26.563-9.453,39.899c-0.451,2.013,0.367,4.311,0.599,6.477c1.942-0.516,4.219-0.553,5.771-1.631
	C431.977,213.713,437.797,209.183,443.932,204.604z"/>
<path d="M-50.168,622.036c0.554,0.57,1.529,1.575,2.612,2.689c-8.146,9.394-17.087,16.707-28.002,21.438
	c-5.785,2.508-12.854,0.634-13.321-3.737c-0.384-3.603-0.566-7.438,0.237-10.923c6.067-26.318,12.247-52.612,18.724-78.833
	c2.772-11.222,5.846-22.569,14.21-31.209c6.573-6.79,14.446-11.871,23.98-13.346c4.246-0.657,8.735-0.567,13.005,0.004
	c3.861,0.518,5.303,3.658,4.658,7.411c-0.606,3.531-2.867,5.58-6.504,5.422c-4.931-0.215-9.914-0.357-14.754-1.213
	c-7.385-1.306-11.855,0.596-13.742,7.746c-5.517,20.908-10.724,41.899-15.928,62.891c-3.249,13.109-6.349,26.258-9.317,39.433
	c-0.464,2.061,0.133,4.356,0.239,6.544c1.924-0.433,4.179-0.364,5.713-1.385C-62.387,631-56.645,626.688-50.168,622.036z"/>
<path d="M-367.777,204.661c0.599,0.571,1.676,1.6,2.769,2.643c-7.755,8.589-15.976,16.083-26.39,20.784
	c-4.265,1.926-8.979,3.664-13.028,0.7c-4.379-3.205-3.208-8.748-2.271-13.002c4.511-20.483,9.351-40.902,14.53-61.228
	c3.285-12.892,6.479-25.93,11.332-38.266c5.451-13.856,16.601-22.322,31.338-25.149c4.48-0.86,9.362-0.511,13.92,0.193
	c3.562,0.549,3.949,4.024,3.517,7.12c-0.466,3.33-2.591,5.482-5.93,5.454c-4.427-0.038-8.923-0.272-13.259-1.1
	c-9.837-1.878-13.894,0.015-16.672,9.949c-3.719,13.3-6.816,26.775-10.062,40.205c-4.927,20.393-9.788,40.802-14.543,61.235
	c-0.343,1.474-0.135,3.901,0.793,4.613c0.941,0.723,3.464,0.417,4.653-0.387C-380.718,214.134-374.557,209.543-367.777,204.661z"/>
<path d="M-925.27,220.564c2.904-2.24,5.141-3.788,7.177-5.566c12.229-10.681,23.838-21.911,29.827-37.513
	c2.774-7.23,3.586-14.573-0.376-21.811c-0.755-1.381-1.103-3.06-1.32-4.645c-0.498-3.633,1.142-6.129,4.683-6.967
	c2.865-0.679,6.629,2.635,7.281,5.965c2.061,10.525-0.229,20.471-4.538,29.938c-10.309,22.649-27.469,38.837-48.91,50.846
	c-1.948,1.091-3.875,2.219-6.56,3.759c-2.4-14.841-5.763-28.909-6.621-43.128c-0.65-10.767,3.293-21.195,11.136-29.429
	c2.293-2.407,4.777-4.632,8.041-7.776c-10.285-0.667-19.221-0.076-27.114,5.205c-1.439,0.963-1.644,3.87-2.233,5.933
	c-0.137,0.479,0.577,1.151,0.743,1.776c0.739,2.785,2.588,5.907-0.811,7.998c-1.284,0.791-4.409,0.964-4.91,0.219
	c-1.673-2.491-3.745-5.638-3.493-8.33c0.803-8.569,8.269-15.49,17.771-16.936c6.965-1.061,14.049-1.312,21.052-2.16
	c2.878-0.349,5.653-1.603,8.53-1.898c1.771-0.183,3.648,0.667,5.478,1.054c-0.469,1.744-0.361,4.234-1.499,5.115
	c-9.01,6.974-11.999,17.134-15.081,27.298c-3.509,11.567-1.743,23.052,0.524,34.53C-926.153,215.764-925.845,217.49-925.27,220.564z
	"/>
<path d="M-137.59,168.376c-0.906-1.11-2.028-2.485-3.346-4.1c8.861-7.691,17.464-15.686,29.444-18.517
	c6.478-1.53,9.254,0.768,7.521,7.07c-8.584,31.196-16.953,62.461-26.214,93.457c-3.389,11.341-9.296,21.988-20.077,28.343
	c-8.329,4.91-17.269,6.521-26.396,1.467c-3.345-1.852-4.317-4.864-2.816-7.879c1.645-3.303,4.926-4.216,8.518-2.677
	c2.547,1.091,5.094,2.19,7.588,3.395c7.472,3.606,14.398-0.358,16.357-7.476c4.313-15.677,8.605-31.359,12.836-47.059
	c4.781-17.745,9.498-35.507,14.186-53.276c0.288-1.093,0.067-2.319,0.084-3.482c-1.353,0.118-3.041-0.24-4.001,0.435
	C-128.594,161.373-133.086,164.945-137.59,168.376z"/>
<path d="M1604.872,415.861c-9.806,8.68-19.333,18.194-32.745,21.35c-6.208,1.46-13.451,3.249-18.287-3.126
	c-2.113-2.784-3.496-6.745-3.695-10.258c-1.396-24.621,7.57-45.17,25.479-61.901c6.592-6.158,14.76-8.376,23.524-7.795
	c4.488,0.298,8.507,2.424,10.476,7.012c2.748,6.4,1.472,12.693-2.932,17.326c-5.191,5.462-11.278,10.307-17.661,14.338
	c-6.301,3.979-13.464,6.582-20.217,9.854c-0.979,0.475-2.532,1.327-2.531,2.006c0.001,5.578-0.466,11.331,0.748,16.681
	c1.109,4.895,6.069,6.588,11.877,4.027c6.49-2.863,12.744-6.509,18.541-10.605C1600.736,412.445,1602.643,411.783,1604.872,415.861z
	 M1567.354,396.435c0.525,0.32,1.053,0.64,1.578,0.959c5.718-3.333,11.843-6.14,17.033-10.151
	c4.824-3.729,9.882-7.956,10.289-14.951c0.199-3.416-0.124-6.782-3.422-8.899c-3.102-1.99-6.032-1.66-9.146,0.299
	c-5.071,3.193-8.38,7.595-10.157,13.251C1571.485,383.444,1569.413,389.938,1567.354,396.435z"/>
<path d="M1244.835,415.832c-9.568,8.942-19.203,17.974-32.453,21.205c-4.382,1.068-9.208,1.177-13.707,0.654
	c-4.499-0.523-8.319-7.812-8.713-14.088c-0.682-10.854,1.052-21.326,5.123-31.312c5.331-13.078,12.434-25.011,24.413-33.249
	c5.738-3.947,12.305-5.362,19.111-4.944c4.73,0.29,8.865,2.274,11.004,7.022c2.804,6.226,1.067,11.962-2.469,17.099
	c-5.938,8.625-14.737,13.636-24.062,17.828c-5.208,2.34-10.412,4.688-15.568,7.139c-0.641,0.303-1.379,1.244-1.388,1.899
	c-0.069,5.156-0.535,10.401,0.237,15.447c0.725,4.731,7.044,7.287,12.63,4.78c6.48-2.907,12.75-6.525,18.55-10.631
	C1240.889,412.314,1242.73,411.98,1244.835,415.832z M1207.096,396.291c0.604,0.427,1.206,0.854,1.81,1.277
	c6.044-3.697,12.438-6.941,18.018-11.243c4.284-3.304,9.206-7.062,9.328-13.217c0.06-3.023-1.162-6.558-2.963-9.009
	c-2.141-2.912-6.049-3.17-8.804-0.751c-3.471,3.051-7.268,6.374-9.188,10.406C1211.876,380.939,1209.758,388.745,1207.096,396.291z"
	/>
<path d="M389.301,207.324c-11.179,9.873-21.979,20.108-37.311,22.513c-11.068,1.735-17.173-3.353-17.814-16.114
	c-1.004-19.971,6.354-37.4,18.543-53.031c5.4-6.924,11.795-12.358,20.436-14.153c4.47-0.93,9.332-0.926,13.876-0.308
	c5.79,0.787,9.599,9.801,7.563,16.654c-2.895,9.755-10.576,15.271-18.675,20.007c-7.155,4.184-14.899,7.352-22.277,11.171
	c-1.415,0.732-3.241,2.349-3.329,3.661c-0.297,4.421-0.559,9.037,0.394,13.305c1.551,6.96,6.952,8.825,14.686,5.002
	c5.965-2.947,11.71-6.479,17.107-10.368C385.517,203.486,387.116,203.865,389.301,207.324z M351.239,186.941
	c0.519,0.423,1.037,0.845,1.557,1.268c7.354-2.875,14.564-6.195,20.227-11.903c3.021-3.048,5.778-6.718,7.476-10.62
	c1.742-4.006,0.263-8.257-3.382-10.927c-3.687-2.7-7.447-1.258-10.564,1.328c-2.122,1.76-4.417,3.817-5.485,6.247
	C357.51,170.413,354.474,178.721,351.239,186.941z"/>
<path d="M-909.367,412.068c0.728,1.137,1.573,2.457,2.664,4.16c-10.013,8.785-19.777,17.963-32.913,21.282
	c-4.832,1.222-10.506-0.586-15.727-1.438c-1.237-0.202-2.467-1.961-3.233-3.275c-4.412-7.569-3.622-15.856-2.306-23.873
	c2.819-17.165,10.01-32.513,22.452-44.751c7.941-7.812,17.693-12.207,29.425-9.197c4.85,1.244,7.446,4.65,8.062,9.812
	c1.211,10.151-4.423,16.984-11.777,21.891c-8.614,5.746-18.085,10.289-27.464,14.771c-4.443,2.123-5.93,5.125-5.822,9.57
	c0.044,1.83-0.182,3.689,0.073,5.485c1.51,10.673,7.391,11.883,17.165,7.54C-922.138,421.103-916.279,416.421-909.367,412.068z
	 M-944.449,396.144c0.549,0.356,1.098,0.713,1.647,1.069c8.969-3.948,17.709-8.506,23.979-16.243
	c2.33-2.875,3.409-7.365,3.638-11.204c0.362-6.071-5.326-9.251-10.837-6.779c-4.318,1.936-7.832,4.755-9.563,9.211
	C-938.668,380.13-941.508,388.156-944.449,396.144z"/>
<path d="M1649.634,203.283c2.784,2.522,3.102,4.425-1.096,7.023c-8.729,5.405-16.919,11.678-25.646,17.086
	c-2.745,1.702-6.461,2.237-9.796,2.5c-4.853,0.382-8.488-2.876-7.957-7.732c0.993-9.062,2.439-18.116,4.39-27.021
	c2.436-11.119,5.58-22.082,8.374-33.124c0.196-0.777,0.025-1.647,0.025-2.914c-4.897,0-9.674,0-14.997,0
	c0.551-2.624,0.989-4.722,1.487-7.102c4.158,0,8.143-0.075,12.12,0.026c2.654,0.068,4.122-0.422,4.631-3.646
	c0.807-5.115,2.389-10.125,3.898-15.101c0.406-1.343,1.498-2.961,2.699-3.492c4.13-1.826,8.445-3.227,13.762-5.183
	c-2.397,9.407-4.587,17.994-6.93,27.18c6.606,0,12.675,0,18.631,0c1.271,6.331,0.61,7.197-5.047,7.215
	c-4,0.012-8.026-0.271-11.981,0.146c-1.471,0.156-3.658,1.692-4.012,3.006c-4.146,15.391-8.128,30.83-11.804,46.34
	c-0.541,2.281-0.006,5.627,1.422,7.286c0.981,1.142,4.802,1.037,6.595,0.076C1635.548,212.021,1642.393,207.635,1649.634,203.283z"
	/>
<path d="M630.7,158.945c-5.338,0-10.313,0-15.263,0c-0.49-6.463,3.031-7.57,8.215-7c2.791,0.307,5.645,0.055,8.81,0.055
	c1.521-5.983,3.218-11.869,4.453-17.851c0.616-2.987,2.001-4.444,4.887-5.252c3.848-1.076,7.557-2.645,12.05-4.264
	c-2.45,9.442-4.709,18.145-7.069,27.246c6.776,0,13.077,0,19.404,0c-0.685,7.119-0.685,7.119-7.634,7.12c-4.316,0-8.635,0-13.491,0
	c-4.339,17.27-8.721,34.396-12.821,51.588c-0.372,1.562,0.551,4.448,1.765,5.13c1.683,0.944,4.649,1.203,6.299,0.321
	c7.156-3.83,14.033-8.182,21.451-12.606c0.714,0.675,2.005,1.895,3.723,3.518c-11.544,8.079-21.581,17.953-35.098,22.118
	c-9.534,2.938-13.467,0.476-13.062-9.413c0.382-9.317,3.212-18.568,5.302-27.771C625.097,180.977,627.935,170.15,630.7,158.945z"/>
<path d="M1681.933,158.964c-5.208,0-9.839,0-14.993,0c0.537-2.504,0.988-4.607,1.493-6.966c4.337,0,8.513,0.264,12.62-0.146
	c1.403-0.14,3.383-1.725,3.819-3.066c1.657-5.094,2.677-10.392,4.2-15.535c0.396-1.34,1.512-2.949,2.719-3.481
	c4.125-1.819,8.438-3.214,13.741-5.161c-2.403,9.424-4.595,18.013-6.937,27.195c6.623,0,12.696,0,18.665,0
	c1.208,6.382,0.596,7.178-5.104,7.194c-3.999,0.012-8.027-0.273-11.981,0.147c-1.464,0.155-3.633,1.711-3.988,3.03
	c-4.147,15.392-8.135,30.829-11.812,46.339c-0.54,2.277,0.018,5.631,1.453,7.279c0.993,1.141,4.805,1.019,6.604,0.056
	c7.022-3.76,13.744-8.079,20.795-12.319c3.665,2.816,3.72,3.726-0.337,6.483c-8.63,5.868-17.146,11.922-26.021,17.397
	c-2.75,1.696-6.466,2.224-9.802,2.481c-4.867,0.377-8.44-2.857-7.933-7.764c0.925-8.912,2.249-17.831,4.174-26.578
	c2.479-11.273,5.726-22.378,8.597-33.566C1682.105,161.208,1681.933,160.337,1681.933,158.964z"/>
<path d="M991.523,620.477c0.661,0.917,1.594,2.206,3.138,4.346c-8.831,6.134-17.288,12.521-26.288,18.017
	c-3.84,2.346-8.742,3.48-13.294,3.997c-5.605,0.636-8.524-2.157-7.923-7.946c0.938-9.06,2.557-18.087,4.496-26.995
	c2.557-11.746,5.703-23.364,8.77-35.74c-5.434,0-10.307,0-15.277,0c-0.049-5.484,1.965-7.813,7.162-7.223
	c3.278,0.373,6.635,0.069,10.229,0.069c1.281-5.319,2.936-10.437,3.656-15.682c0.661-4.832,3.62-6.866,7.587-8.224
	c2.915-0.997,5.898-1.792,9.57-2.893c-2.184,8.964-4.284,17.586-6.481,26.604c6.627,0,12.909,0,19.21,0
	c-0.493,7.189-0.493,7.189-7.136,7.191c-2.332,0.001-4.716,0.307-6.988-0.062c-5.445-0.881-7.736,1.349-8.943,6.681
	c-3.23,14.274-7.192,28.384-10.503,42.643c-0.556,2.396-0.179,6.248,1.354,7.531c1.501,1.257,5.483,0.949,7.583-0.167
	C978.193,629.035,984.575,624.753,991.523,620.477z"/>
<path d="M898.574,569c1.545-6.504,2.889-12.692,4.566-18.79c0.349-1.265,1.74-2.624,2.991-3.188
	c4.004-1.806,8.168-3.257,13.306-5.243c-2.276,9.353-4.361,17.916-6.569,26.986c6.705,0,13.107,0,19.329,0
	c0.621,6.2-2.277,7.784-7.598,7.324c-4.281-0.369-9.701-1.458-12.645,0.598c-2.712,1.894-2.955,7.508-4.009,11.556
	c-3.362,12.903-6.701,25.814-9.754,38.793c-0.419,1.779,0.231,4.979,1.457,5.697c1.743,1.021,4.926,1.202,6.711,0.261
	c7.179-3.788,14.057-8.146,21.515-12.572c0.525,0.85,1.416,2.288,2.527,4.085c-10.857,8.336-21.138,17.019-33.68,22.1
	c-8.306,3.363-14.537-0.794-13.516-9.505c1.305-11.127,3.926-22.118,6.355-33.086c1.759-7.933,4.171-15.719,6.184-23.599
	c0.312-1.223,0.043-2.593,0.043-4.335c-4.842,0-9.62,0-14.604,0c-0.016-5.147,1.57-7.8,6.937-7.155
	C891.403,569.321,894.77,569,898.574,569z"/>
<path d="M599.933,620.428c0.929,1.378,1.837,2.729,2.936,4.358c-8.826,6.105-17.494,12.493-26.59,18.196
	c-3.435,2.151-7.779,3.115-11.849,3.931c-6.961,1.393-9.613-3.551-9.25-8.947c0.502-7.447,1.863-14.899,3.548-22.189
	c2.782-12.041,6.139-23.949,9.184-35.932c0.27-1.061,0.035-2.248,0.035-3.803c-5.084,0-9.862,0-14.496,0
	c-0.421-6.171,2.538-7.805,7.834-7.111c2.938,0.386,5.968,0.069,9.206,0.069c1.372-5.45,3.253-10.699,3.887-16.096
	c0.575-4.897,3.736-6.415,7.378-7.782c2.889-1.084,5.909-1.819,9.602-2.929c-2.183,8.942-4.285,17.562-6.487,26.589
	c6.604,0,12.875,0,19.162,0c-0.404,7.215-0.404,7.216-7.037,7.218c-2.166,0.001-4.332-0.018-6.497,0.003
	c-9.477,0.088-7.063-1.152-9.335,7.107c-3.923,14.265-7.32,28.68-10.631,43.103c-0.483,2.104-0.019,5.463,1.371,6.659
	c1.329,1.145,4.864,1.039,6.683,0.073C585.767,629.129,592.656,624.758,599.933,620.428z"/>
<path d="M1047.411,159.154c-0.448-6.922,3.216-7.711,8.146-7.206c2.802,0.287,5.655,0.052,8.934,0.052
	c1.505-6.081,2.832-12.222,4.628-18.222c0.53-1.771,2.075-3.798,3.696-4.569c3.637-1.73,7.613-2.748,12.574-4.438
	c-2.232,9.296-4.32,17.986-6.501,27.057c6.624,0,12.913,0,19.226,0c-0.558,7.17-0.558,7.17-7.209,7.172
	c-1.999,0.001-4-0.027-5.999,0.005c-9.729,0.154-7.308-1.488-9.845,7.685c-3.299,11.915-6.252,23.926-9.307,35.907
	c-0.682,2.677-1.35,5.38-1.7,8.112c-0.633,4.939,2.596,7.674,7.221,5.429c7.562-3.67,14.736-8.139,22.599-12.564
	c0.442,0.399,1.645,1.484,3.41,3.077c-11.428,8.751-21.907,18.683-35.675,22.846c-10.293,3.111-14.497-2.527-12.227-14.721
	c3.185-17.087,8.025-33.864,12.12-50.783c0.343-1.415,0.401-2.899,0.655-4.838C1057.049,159.154,1052.278,159.154,1047.411,159.154z
	"/>
<path d="M503.831,576.045c-4.965,0-9.747,0-14.383,0c-0.418-6.164,2.53-7.811,7.833-7.114c2.938,0.387,5.969,0.069,9.099,0.069
	c1.503-5.61,3.425-10.988,4.265-16.529c0.59-3.896,2.369-5.618,5.814-6.646c3.564-1.065,7.023-2.479,11.075-3.938
	c-2.263,9.052-4.432,17.729-6.727,26.912c6.789,0,13.203,0,19.358,0c0.739,6.312-2.358,7.661-7.611,7.3
	c-4.414-0.303-10.131-1.343-12.977,0.88c-2.752,2.15-2.595,8.047-3.68,12.307c-3.087,12.135-6.317,24.237-9.092,36.444
	c-0.536,2.359-0.08,6.031,1.446,7.435c1.254,1.151,5.181,0.581,7.22-0.524c6.868-3.723,13.422-8.023,20.332-12.249
	c0.834,1.181,1.854,2.623,3.094,4.373c-8.85,6.12-17.511,12.498-26.598,18.197c-3.435,2.154-7.775,3.109-11.841,3.959
	c-7.003,1.464-9.757-3.871-9.32-9.424c0.534-6.802,1.76-13.604,3.313-20.26c2.885-12.355,6.252-24.599,9.336-36.907
	C504.095,579.114,503.831,577.759,503.831,576.045z"/>
<path d="M1157.922,203.523c1.863,1.255,3.684,3.369,0.301,5.664c-9.842,6.675-19.603,13.546-29.953,19.345
	c-3.094,1.732-8.816,1.587-11.929-0.179c-4.837-2.746-4.091-8.907-3.056-13.586c3.759-16.981,8.107-33.831,12.198-50.739
	c0.342-1.415,0.419-2.894,0.688-4.843c-5.098,0-9.854,0-14.555,0c-0.636-6.08,2.081-7.861,7.38-7.251
	c3.104,0.357,6.284,0.065,9.573,0.065c1.529-6.398,2.827-12.584,4.577-18.638c0.467-1.619,2.047-3.426,3.58-4.128
	c3.671-1.678,7.617-2.75,12.666-4.482c-2.232,9.288-4.312,17.941-6.507,27.067c6.726,0,13.146,0,19.271,0
	c0.764,6.322-2.363,7.647-7.622,7.28c-4.407-0.308-10.12-1.335-12.962,0.889c-2.751,2.152-2.562,8.049-3.69,12.294
	c-2.675,10.055-5.386,20.101-8.032,30.163c-0.702,2.667-1.389,5.356-1.798,8.078c-0.737,4.918,2.584,7.916,7.065,5.73
	C1142.681,212.566,1149.854,208.084,1157.922,203.523z"/>
<path d="M-230.705,417.079c-11.461,6.99-22.655,14.248-34.334,20.619c-2.73,1.487-8.824,1.361-10.325-0.489
	c-2.396-2.956-3.687-8.271-2.918-12.08c3.635-18.014,7.965-35.896,12.436-53.727c1.033-4.121-0.444-4.51-3.658-4.423
	c-3.493,0.094-6.99,0.021-10.495,0.021c-0.583-4.748,1.48-6.196,6.023-6.089c10.514,0.248,10.518,0.06,13.051-10.015
	c0.356-1.42,0.706-2.842,1.076-4.259c2.094-8.01,8.303-12.421,17.448-12.273c-2.08,8.479-4.151,16.921-6.413,26.139
	c6.52,0,12.861,0,19.742,0c-0.545,2.607-0.916,4.387-1.356,6.497c-5.375,0-10.69,0.088-16-0.038c-2.643-0.062-4.1,0.488-4.861,3.495
	c-3.715,14.659-7.973,29.186-11.487,43.891c-0.768,3.207-0.448,7.891,1.436,10.236c2.925,3.643,6.625-0.259,9.571-1.752
	c4.786-2.426,9.695-5.018,13.654-8.546C-234.543,411.104-233.022,411.968-230.705,417.079z"/>
<path d="M566.92,230.839c-5.637-1.121-10.027-1.665-14.215-2.897c-7.821-2.3-12.005-11.988-9.407-17.706
	c1.657-3.648,4.54-4.778,8.013-4.129c3.258,0.608,4.715,2.95,4.742,6.457c0.079,9.675,7.513,14.45,16.859,11.017
	c11.341-4.166,14.299-12.879,7.396-22.755c-3.553-5.085-7.699-9.754-11.593-14.6c-12.186-15.173-6.666-34.296,12.137-39.293
	c8.169-2.171,17.429-3.365,24.562,4.012c3.655,3.778,3.552,6.771-0.019,10.148c-3.279,3.102-5.954,2.853-9.704-0.908
	c-2.162-2.168-4.106-4.625-6.53-6.444c-3.54-2.657-7.317-2.558-10.812,0.423c-3.7,3.157-5.938,7.39-3.688,11.741
	c2.948,5.701,7.229,10.702,10.804,16.093c3.586,5.407,8.173,10.518,10.249,16.479c3.738,10.733-1.81,21.812-13.125,27.44
	C577.475,228.462,571.573,229.428,566.92,230.839z"/>
<path d="M-330.695,437.971c-7.011,0.215-13.712,0.054-18.983-5.952c-3.354-3.82-3.854-7.963-3.048-12.382
	c0.732-4.014,5.208-6.354,9.395-4.353c2.047,0.979,4.122,4.562,4.016,6.866c-0.277,6.053,1.726,9.668,7.602,10.812
	c5.73,1.117,15.317-2.305,17.564-6.728c2.944-5.795,3.572-11.434-2.02-18.115c-5.422-6.479-10.51-13.369-14.807-20.633
	c-8.46-14.304,4.223-30.058,16.862-32.463c7.494-1.426,14.852-2.048,21.673,2.761c3.127,2.204,5.376,4.969,4.203,8.483
	c-0.751,2.251-3.516,5.098-5.599,5.29c-2.188,0.202-4.686-2.374-6.954-3.876c-0.951-0.631-1.658-1.627-2.482-2.451
	c-5.383-5.386-9.138-6.204-14.137-3.082c-3.927,2.452-5.545,9.458-2.85,14.976c1.694,3.469,4.236,6.554,6.593,9.663
	c3.654,4.824,7.94,9.231,11.136,14.331c8.469,13.515,1.393,27.107-10.662,33.28c-5.189,2.655-11.416,3.283-17.171,4.834
	C-330.475,438.812-330.585,438.392-330.695,437.971z"/>
<path d="M6.121,437.854c-8.295,0.693-15.593-0.129-20.882-7.037c-2.542-3.321-3.69-10.644-0.763-13.277
	c1.958-1.762,5.704-2.641,8.327-2.159c1.663,0.306,4.221,4.247,3.779,5.835c-1.101,3.957-0.501,7.012,2.521,9.217
	c3.553,2.594,7.561,2.984,12.124,2.038c13.439-2.788,17.381-15.633,5.953-28.042c-5.218-5.666-10.312-12.14-13.118-19.182
	c-5.447-13.668,4.078-28.194,18.82-30.157c4.595-0.611,9.452-0.709,13.977,0.121c3.091,0.567,6.21,2.719,8.608,4.931
	c3.782,3.488,3.432,7.232-0.197,10.068c-3.578,2.796-7.313,2.099-10.197-1.751c-1.471-1.962-3.008-3.929-4.8-5.585
	c-3.782-3.497-8.2-3.366-11.944-0.41c-3.463,2.733-5.634,7.029-3.778,11.346c2.019,4.695,4.904,9.156,8.09,13.182
	c5.456,6.894,12.109,12.95,13.938,22.098c1.265,6.322-0.131,12.072-4.218,17.017C25.458,434.451,16.984,439.467,6.121,437.854z"/>
<path d="M-874.666,435.818c-4.694,0-9.324,0-14.165,0c5.649-23.166,11.247-46.115,17.01-69.745
	c-9.649-0.333-12.424,7.174-18.169,10.955c-0.91-0.739-1.993-1.618-3.304-2.684c0.625-0.845,1.014-1.557,1.571-2.094
	c7.953-7.668,16.315-14.775,27.401-17.425c2.16-0.517,5.071-0.541,6.749,0.56c1.024,0.672,0.776,4.011,0.368,6.002
	c-1.15,5.609-2.68,11.142-4.233,17.404c6.988-8,13.113-15.5,19.8-22.459c3.298-3.433,7.022-7.559,12.646-6.186
	c2.19,0.535,5.359,2.515,5.601,4.192c0.3,2.087-1.378,5.594-3.241,6.644c-5.794,3.266-12.479,5.022-18.087,8.533
	c-9.933,6.218-16.439,15.861-20.001,26.66C-868.935,408.952-871.366,422.315-874.666,435.818z"/>
<path d="M-765.197,361.131c-10.324,3.957-21.055,7.081-28.55,16.169c-8.321,10.089-12.699,21.81-15.278,34.423
	c-1.627,7.955-3.584,15.844-5.454,24.029c-4.617,0-9.385,0-14.345,0c5.621-23.097,11.204-46.041,16.956-69.681
	c-9.566-0.332-12.357,7.133-18.104,10.938c-0.896-0.708-1.986-1.569-3.312-2.615c0.719-0.956,1.192-1.808,1.866-2.45
	c7.865-7.495,16.091-14.502,27.015-17.07c2.174-0.512,5.128-0.67,6.739,0.438c1.069,0.734,0.819,4.102,0.408,6.139
	c-1.12,5.541-2.64,11.002-4.226,17.402c6.921-7.946,13.042-15.234,19.484-22.227c2.173-2.358,4.909-4.784,7.845-5.682
	c2.744-0.839,6.796-0.717,9.021,0.809c3.678,2.522,2.107,6.353-0.217,9.527C-765.356,361.288-765.197,361.131-765.197,361.131z"/>
<path d="M1203.818,587.63c6.775-7.783,13.116-15.448,19.92-22.679c2.501-2.659,5.961-4.53,9.225-6.324
	c3.244-1.785,6.372-0.428,8.251,2.306c1.864,2.714,1.339,5.811-1.54,7.816c-2.234,1.559-4.611,3.203-7.175,3.954
	c-18.875,5.527-28.196,19.721-33.381,37.234c-3.396,11.469-5.681,23.266-8.459,34.903c-4.996,0-9.629,0-14.368,0
	c4.384-17.642,8.795-35.093,13.019-52.589c1.182-4.895,1.982-9.898,2.62-14.896c0.379-2.974-1.299-4.172-3.854-2.313
	c-4.634,3.365-9.06,7.014-13.564,10.54c-0.68-0.927-1.438-1.963-2.739-3.741c1.646-1.366,3.306-2.994,5.2-4.27
	c6.345-4.27,12.755-8.44,19.19-12.569c0.926-0.595,2.119-1.014,3.209-1.064c2.98-0.139,5.974-0.036,8.962-0.029
	c-0.176,2.518-0.071,5.095-0.586,7.542C1206.62,576.81,1205.18,582.104,1203.818,587.63z"/>
<path d="M-453.001,435.997c5.772-23.597,11.357-46.427,17.107-69.934c-9.622-0.331-12.468,7.657-19.23,10.518
	c-0.42-0.424-1.276-1.288-2.471-2.493c8.698-8.539,17.244-16.303,29.046-19.136c2.104-0.506,5.614-1.127,6.321-0.146
	c1.197,1.663,1.226,4.674,0.772,6.921c-1.21,5.997-2.938,11.89-4.331,17.322c6.826-7.731,13.768-15.794,20.952-23.634
	c3.153-3.441,7.012-6.433,12.055-5.261c2.009,0.467,4.177,2.339,5.203,4.171c0.615,1.099-0.301,4.039-1.467,4.954
	c-2.762,2.166-5.902,4.157-9.208,5.267c-17.324,5.816-26.605,18.864-31.633,35.374c-3.264,10.717-5.346,21.79-8.223,32.633
	c-0.363,1.368-2.243,3.112-3.601,3.287C-445.291,436.302-448.975,435.997-453.001,435.997z"/>
<path d="M1720.771,435.888c-5.156,0-9.639,0-14.317,0c4.997-23.271,12.953-45.745,16.014-69.927
	c-8.502,0.436-12.013,6.87-17.31,11.14c-0.942-0.716-1.948-1.48-3.02-2.293c0.368-0.56,0.572-0.982,0.877-1.313
	c8.094-8.824,17.246-16.033,29.125-19.085c5.068-1.302,6.985,0.48,5.916,5.572c-1.296,6.167-2.631,12.327-4.062,19.015
	c5.573-6.634,10.446-13.193,16.132-18.954c4.41-4.47,8.285-10.774,15.91-9.861c2.106,0.253,4.757,2.288,5.715,4.221
	c1.157,2.333,0.368,5.236-2.672,6.589c-1.465,0.652-2.828,1.597-4.346,2.059c-20.901,6.369-31.668,21.64-36.705,41.857
	C1725.479,415.141,1723.208,425.442,1720.771,435.888z"/>
<path d="M135.029,625.122c0.348,0.904,0.986,2.571,1.625,4.239c-9.152,7.433-18.659,14.434-30.462,16.812
	c-4.878,0.983-10.228,1.017-15.129,0.154c-6.666-1.17-9.759-9.562-9.974-16.923c-0.546-18.779,6.146-35.085,17.643-49.737
	c6.15-7.84,13.373-14.049,23.251-16.011c5.871-1.166,12.089-2.103,17.806,1.288c3.699,2.191,6.012,5.081,4.171,9.562
	c-1.745,4.25-5.093,5.013-9.153,3.528c-2.739-1-5.542-1.884-8.16-3.144c-8.818-4.243-15.986-2.379-20.587,6.159
	c-6.693,12.424-10.318,25.78-9.926,39.95c0.1,3.605,1.427,7.342,2.902,10.705c2.226,5.071,7.894,7.214,13.955,4.629
	C120.55,633.111,127.691,628.91,135.029,625.122z"/>
<path d="M537.318,206.726c1.352,1.308,2.519,2.438,4.512,4.366c-8.365,6.102-16.098,12.137-24.289,17.468
	c-2.336,1.521-6.344,1.989-8.948,1.092c-2.04-0.703-4.552-4.406-4.336-6.521c0.856-8.394,2.249-16.8,4.287-24.991
	c2.939-11.81,6.67-23.42,9.919-35.156c0.533-1.928,0.329-4.062,0.497-6.563c-6.505,0.581-9.646,4.929-13.31,8.438
	c-3.708,3.552-3.693,3.565-7.482-0.355c7.854-8.328,15.745-16.383,27.653-18.978c7.52-1.639,10.866,1.382,8.918,8.936
	c-1.621,6.284-3.631,12.468-5.331,18.732c-3.486,12.853-7.012,25.698-10.182,38.63c-0.513,2.093,0.729,4.615,1.161,6.939
	c1.994-0.878,4.242-1.423,5.933-2.704C529.979,213.284,533.35,210.135,537.318,206.726z"/>
<path d="M-379.151,364.387c-4.078,3.164-8.372,6.095-12.16,9.575c-2.574,2.366-4.354,2.777-6.442-0.498
	c7.235-7.733,14.375-15.739,25.299-18.554c2.491-0.642,5.271-1.211,7.709-0.735c2.854,0.556,5.302,1.989,4.124,6.178
	c-5.101,18.14-10.05,36.325-14.733,54.577c-1.062,4.135-3.41,8.619,0.286,13.939c5.559-4.322,10.804-8.402,16.406-12.76
	c0.976,0.895,2.273,2.084,3.972,3.642c-7.183,5.621-13.985,11.275-21.156,16.417c-3.572,2.562-8.084,4.534-12.343,1.907
	c-4.87-3.004-4.555-8.2-3.334-12.949c4.567-17.769,9.428-35.462,14.014-53.227c0.545-2.111,0.074-4.484,0.074-6.736
	C-378.008,364.904-378.58,364.646-379.151,364.387z"/>
<path d="M-831.682,116c5.751,0.015,8.78,3.079,8.681,8.782c-0.099,5.653-3.245,8.268-9.891,8.218
	c-5.108-0.039-8.058-3.078-8.107-8.355C-841.055,118.815-838.002,115.983-831.682,116z"/>
<path d="M-747.639,116c5.535,0.017,8.576,2.948,8.638,8.325c0.066,5.81-3.041,8.667-9.434,8.675
	c-5.518,0.006-8.528-2.945-8.564-8.398C-757.038,118.787-753.985,115.981-747.639,116z"/>
<path d="M-803.666,133c-6.502,0.858-8.807-4.036-9.251-8.334c-0.463-4.477,4.306-8.713,9.191-8.666
	c5.76,0.056,8.827,3.146,8.725,8.792C-795.097,130.109-798.166,133.017-803.666,133z"/>
<path d="M-719.419,133c-6.19,0.01-9.632-3.071-9.576-8.575c0.043-4.338,4.424-8.429,9.021-8.425
	c5.903,0.006,8.989,2.945,8.973,8.544C-711.017,129.968-714.026,132.991-719.419,133z"/>
<path d="M-354.877,312.002c3.361,0.055,6.889,3.692,6.862,7.077c-0.037,4.795-5.895,11.011-10.187,10.81
	c-3.721-0.175-6.968-3.871-6.792-7.731C-364.752,316.864-359.828,311.921-354.877,312.002z"/>
<path d="M-92,111.07c-0.014,5.64-4.125,10.057-9.24,9.928c-4.346-0.109-6.85-3.005-6.759-7.815c0.097-5.137,3.966-9.157,8.838-9.183
	C-93.907,103.974-91.987,105.869-92,111.07z"/>
<path d="M540.01,104c5.125,0.005,7.021,1.953,6.99,7.185c-0.032,5.532-3.771,9.712-8.779,9.813
	c-3.788,0.077-7.222-3.268-7.219-7.031C531.007,108.229,534.833,103.996,540.01,104z"/>
</svg>
