<?xml version="1.0" encoding="utf-8"?>
<!-- Generator: Adobe Illustrator 16.0.0, SVG Export Plug-In . SVG Version: 6.00 Build 0)  -->
<!DOCTYPE svg PUBLIC "-//W3C//DTD SVG 1.1//EN" "http://www.w3.org/Graphics/SVG/1.1/DTD/svg11.dtd">
<svg version="1.1" id="Layer_1" xmlns="http://www.w3.org/2000/svg" xmlns:xlink="http://www.w3.org/1999/xlink" x="0px" y="0px"
	 width="612px" height="792px" viewBox="0 0 612 792" enable-background="new 0 0 612 792" xml:space="preserve">
<g>
	<path d="M10,56c2.333,0,4.667,0,7,0c0-16.665,0-33.335,0-50c4.666,0,9.334,0,14,0c0-2,0-4,0-6c-4.666,0-9.334,0-14,0
		c-0.426-11.719,3.618-15.23,14-16c0-2,0-4,0-6c-3.667,0.333-7.334,0.667-11,1c-5.853,5.782-10.243,7.59-10,20
		C9.667-0.667,9.333-0.333,9,0C6.333,0,3.667,0,1,0c0,2,0,4,0,6c3,0,6,0,9,0C10,22.665,10,39.335,10,56z"/>
	<path d="M-419,56c13.656,0.211,11.129-9.888,15-19c5.401-12.713,10.274-26.488,16-40c2.342-5.527,6.271-10.996,7-18
		c-12.097,0.033-10.722,10.584-14,19c-4.181,10.732-9.624,22.471-14,33c-2.1,5.052-2.098,9.983-5,14c-0.333,0.333-0.667,0.667-1,1
		c-8.666-22.331-17.334-44.669-26-67c-2.667,0-5.333,0-8,0c7.095,16.479,11.824,33.019,19,50C-426.455,37.39-420.999,46.216-419,56z
		"/>
	<path d="M-366-21c-2.333,0-4.667,0-7,0c0,4.333,0,8.667,0,13c2.333,0,4.667,0,7,0C-366-12.333-366-16.667-366-21z"/>
	<path d="M-317,56c2.333,0,4.667,0,7,0c0-16.665,0-33.335,0-50c4.333,0,8.667,0,13,0c0-2.333,0-4.667,0-7c-4.333,0-8.667,0-13,0
		c0-6.666,0-13.334,0-20c-2.333,0-4.667,0-7,0c0,6.666,0,13.334,0,20c-4,0-8,0-12,0c0,2.333,0,4.667,0,7c4,0,8,0,12,0
		C-317,22.665-317,39.335-317,56z"/>
	<path d="M-205,35c0-0.333,0-0.667,0-1c4.562,1.664,15.71,17.287,18,22c3,0,6,0,9,0c-1.412-3.995-17.618-24.367-21-27
		c1.168-6.2,15.328-24.727,20-28c0-0.667,0-1.333,0-2c-2.667,0-5.333,0-8,0c-8.333,11.332-16.667,22.668-25,34c-0.333,0-0.667,0-1,0
		c0-17.998,0-36.002,0-54c-2.333,0-4.667,0-7,0c0,25.664,0,51.336,0,77c2.333,0,4.667,0,7,0C-213.177,44.872-210.477,40.14-205,35z"
		/>
	<path d="M-154,35c0-0.333,0-0.667,0-1c4.562,1.664,15.71,17.287,18,22c3,0,6,0,9,0c-1.412-3.995-17.618-24.367-21-27
		c1.168-6.2,15.328-24.727,20-28c0-0.667,0-1.333,0-2c-2.667,0-5.333,0-8,0c-8.333,11.332-16.667,22.668-25,34c-0.333,0-0.667,0-1,0
		c0-17.998,0-36.002,0-54c-2.333,0-4.667,0-7,0c0,25.664,0,51.336,0,77c2.333,0,4.667,0,7,0C-162.177,44.872-159.477,40.14-154,35z"
		/>
	<path d="M235,56c2.333,0,4.667,0,7,0c0-16.665,0-33.335,0-50c4.333,0,8.667,0,13,0c0-2.333,0-4.667,0-7c-4.333,0-8.667,0-13,0
		c0-6.666,0-13.334,0-20c-2.333,0-4.667,0-7,0c0,6.666,0,13.334,0,20c-3.667,0-7.334,0-11,0c0,2.333,0,4.667,0,7
		c3.666,0,7.333,0,11,0C235,22.665,235,39.335,235,56z"/>
	<path d="M442,57c11.136,3.773,27.082-1.154,30-9c0.333,0,0.667,0,1,0c0,2.667,0,5.333,0,8c2.667,0,5.333,0,8,0
		c0-25.664,0-51.336,0-77c-2.667,0-5.333,0-8,0c0,9.333,0,18.667,0,28c-2.775-1.91-5.127-5.464-8-7
		c-18.904-10.102-37.803,4.533-42,19C417.443,38.154,431.116,53.313,442,57z M443,6c1.74-1.374,5.144-1.712,7-3
		c26.69,1.367,32.771,41.106,9,47c-3.362,2.504-10.823,2.501-14,0C425.941,46.954,425.137,11.119,443,6z"/>
	<path d="M501,56c2.333,0,4.667,0,7,0c0-16.665,0-33.335,0-50c4.333,0,8.667,0,13,0c0-2.333,0-4.667,0-7c-4.333,0-8.667,0-13,0
		c0-6.666,0-13.334,0-20c-2.333,0-4.667,0-7,0c0,6.666,0,13.334,0,20c-4,0-8,0-12,0c0,2.333,0,4.667,0,7c4,0,8,0,12,0
		C501,22.665,501,39.335,501,56z"/>
	<path d="M867,48c11.46,7.785,13.202,10.196,32,9c4.956-4.54,11.339-7.18,15-13c7.823-12.439,2.235-34.246-7-41
		c-10.153-7.425-34.381-8.706-39,5c-0.333,0-0.667,0-1,0c0-9.666,0-19.334,0-29c-2.667,0-5.333,0-8,0c0,25.664,0,51.336,0,77
		c2.667,0,5.333,0,8,0C867,53.333,867,50.667,867,48z M870,13c3.681-5.547,10.622-6.069,16-10c27.109,1.228,33.423,40.144,10,47
		c-4.133,2.928-9.425,1.398-15,1c-3-2-6-4-9-6C866.204,37.436,863.95,22.117,870,13z"/>
	<path d="M1001-21c-2.333,0-4.667,0-7,0c0,4.333,0,8.667,0,13c2.333,0,4.667,0,7,0C1001-12.333,1001-16.667,1001-21z"/>
	<path d="M1062,48c0.333,0,0.667,0,1,0c0,2.667,0,5.333,0,8c2.333,0,4.667,0,7,0c0-25.664,0-51.336,0-77c-2.333,0-4.667,0-7,0
		c0,9.333,0,18.667,0,28c-4.08-2.706-8.226-7.27-13-9c-20.523-7.438-34.429,10.172-38,24C1004.173,52.305,1047.711,70.816,1062,48z
		 M1020,19c3.357-3.574,4.881-9.232,9-12c2.967-1.994,7.273-1.915,10-4c16.721,0.893,31.802,17.678,22,37
		c-3.333,3.333-6.667,6.667-10,10c-6.555,0.889-9.786,1.368-17,1C1022.599,40.397,1018.689,40.211,1020,19z"/>
	<path d="M-272,57c11.389,3.855,27.031-1.037,30-9c0.333,0,0.667,0,1,0c0,2.667,0,5.333,0,8c2.333,0,4.667,0,7,0
		c0-18.998,0-38.002,0-57c-2.333,0-4.667,0-7,0c0,2.667,0,5.333,0,8c-2.775-1.909-5.127-5.465-8-7
		c-21.903-11.699-39.036,7.086-43,24C-295.684,39.718-281.708,53.714-272,57z M-280,12c3.533-4.999,10.042-5.366,15-9
		c19.061,0.448,24.589,12.271,24,33c-4.997,5.406-5.6,11.715-14,14c-4.133,2.928-9.425,1.398-15,1c-2.355-2.316-6.931-3.495-9-6
		C-285.058,37.666-285.836,20.26-280,12z"/>
	<path d="M-84,57c9.625-3.158,12.488-10.729,18-18c0-0.333,0-0.667,0-1c-11.471,0.308-7.89,5.578-14,10
		c-5.682,4.112-12.013,3.334-20,3c-6.342-6.244-13.676-8.444-14-21c16.665,0,33.335,0,50,0c0.098-38.737-47.271-43.52-57-11
		C-127.68,41.328-107.404,64.678-84,57z M-111,15c2.728-7.948,9.916-7.527,16-12c12.566,0.674,22.327,8.358,23,21
		c-13.999,0-28.001,0-42,0C-113.71,19.961-112.934,17.333-111,15z"/>
	<path d="M-44,14c1.846-5.621,6.634-7.898,13-9c0-2.667,0-5.333,0-8c-6.844,0.759-11.069,3.391-14,8c-0.333,0-0.667,0-1,0
		c0-2,0-4,0-6c-2.333,0-4.667,0-7,0c0,18.998,0,38.002,0,57c2.333,0,4.667,0,7,0C-46.13,46.155-48.118,19.365-44,14z"/>
	<path d="M52,56c6.539,2.9,14.408,1.494,22,1c6.045-5.576,13.736-8.62,17-17c9.457-24.281-8.545-43.574-32-43
		c-9.551,6.546-17.256,7.615-22,19C30.179,32.371,40.857,51.057,52,56z M46,13c3.676-5.55,10.626-6.067,16-10
		c18.279,1.049,23.575,12.497,23,33c-5.082,5.5-5.384,11.694-14,14c-3.851,2.864-8.802,1.498-14,1c-3-2-6-4-9-6
		C42.958,38.41,40.395,21.464,46,13z"/>
	<path d="M113,14c1.846-5.621,6.634-7.898,13-9c0-2.667,0-5.333,0-8c-6.845,0.759-11.069,3.391-14,8c-0.333,0-0.667,0-1,0
		c0-2,0-4,0-6c-2.333,0-4.667,0-7,0c0,18.998,0,38.002,0,57c2.333,0,4.667,0,7,0C110.87,46.155,108.882,19.365,113,14z"/>
	<path d="M214,41c0.758-1.075,0.628-0.924,1-3c-11.923,0.3-9.688,9.201-19,12c-3.362,2.504-10.823,2.501-14,0
		c-10.557-1.821-10.067-10.598-15-18c0-0.667,0-1.333,0-2c16.665,0,33.335,0,50,0c0.08-22.348-9.49-21.081-19-32
		c-6.033-0.429-12.211-2.052-18,0c-13.282,4.709-26.319,23.678-18,43C170.717,61.246,206.87,65.119,214,41z M186,3
		c14.949,0.38,19.796,8.729,24,20c-10.586,3.563-29.414,1.139-42,1C168.523,9.207,177.341,9.407,186,3z"/>
	<path d="M304,56c14.024,2.057,26.35,2.52,33-8c0.333,0,0.667,0,1,0c0.036,10.745-2.305,14.708-6,21c-7.262,2.031-11.902,3.78-21,3
		c-5.287-5-9.618-6.753-13-14c-2.333,0-4.667,0-7,0c4.323,19.821,35.572,30.58,49,12c9.416-13.028,5.494-49.68,5-71
		c-2.333,0-4.667,0-7,0c0,2.667,0,5.333,0,8c-4.404-3.068-16.73-15.27-26-9c-17.569,0.773-29.028,23.199-22,42
		C292.632,47.042,299.66,50.657,304,56z M299,15c2.728-7.948,9.916-7.527,16-12c18.279,1.049,23.575,12.497,23,33
		c-5.082,5.5-5.384,11.694-14,14c-3.851,2.864-8.803,1.498-14,1c-3-2-6-4-9-6C296.513,39.136,292.822,22.364,299,15z"/>
	<path d="M391,58c33.4-8.084,30.853-61.976-10-61c-10.388,7.029-18.026,6.859-23,20C350.136,37.777,369.443,63.218,391,58z M366,37
		c-6.226-8.45,0.762-25.132,6-29c3.146-2.324,7.839-2.714,11-5c19.694,0.433,24.842,14.621,23,34c-4.587,4.874-5.635,10.682-13,13
		c-4.133,2.928-9.425,1.398-15,1C373.322,46.338,367.992,44.571,366,37z"/>
	<path d="M572,52c-6.264-0.47-7.258-2.516-11-5c-0.333-2.333-0.667-4.667-1-7c-2.333,0-4.667,0-7,0c0.131,7.759,3.038,14.061,9,16
		c4.112,3.048,10.497,1.554,16,1c2.333-2,4.667-4,7-6c0.506-2.127,0.895-3.616,2-5c0.543-20.207-10.869-22.213-24-28
		c-0.567-2.73-1.018-5.177-1-9c1.188-1.133,2.146-2.54,3-4c2-0.667,4-1.333,6-2c1.537,1.525,4.091,2.939,6,4c0.333,2,0.667,4,1,6
		c2.333,0,4.667,0,7,0c0-4.165-0.118-5.962-2-8c-4.059-12.443-23.859-8.584-27,2c-1.537,2.285-1.147,8.128-1,12
		c2.333,2.667,4.667,5.333,7,8c5.941,3.955,26.961,6.958,16,21C576.341,50.076,574.06,50.375,572,52z"/>
	<path d="M614,57c11.389,3.855,27.03-1.037,30-9c0.333,0,0.667,0,1,0c0,2.667,0,5.333,0,8c2.333,0,4.667,0,7,0
		c0-18.998,0-38.002,0-57c-2.333,0-4.667,0-7,0c0,2.667,0,5.333,0,8c-2.775-1.909-5.126-5.465-8-7
		c-21.903-11.699-39.036,7.086-43,24C590.316,39.718,604.292,53.714,614,57z M606,12c3.533-4.999,10.042-5.366,15-9
		c19.061,0.448,24.589,12.271,24,33c-4.997,5.406-5.6,11.715-14,14c-4.133,2.928-9.425,1.398-15,1c-2.355-2.316-6.931-3.495-9-6
		C600.942,37.666,600.164,20.26,606,12z"/>
	<path d="M673,14c2.958-3.125,3.302-6.388,8-8c3.897-3.026,10.947-2.077,14,1c10.778,4.278,7.405,33.949,7,49c2.333,0,4.667,0,7,0
		c-0.071-18.307-0.791-37.421,5-49c5.879-1.677,12.833-4.91,18,0c10.778,4.278,7.405,33.949,7,49c2.333,0,4.667,0,7,0
		c0.403-22.97,4.155-52.148-14-57c-9.135-6.923-22.058,1.626-25,8c-4.432-2.163-5.673-6.304-11-8c-6.656-5.052-18.689-0.654-22,4
		c-0.333,0-0.667,0-1,0c0-1.333,0-2.667,0-4c-2.667,0-5.333,0-8,0c0,18.998,0,38.002,0,57c2.667,0,5.333,0,8,0
		C673,42.001,673,27.999,673,14z"/>
	<path d="M777,57c11.389,3.855,27.03-1.037,30-9c0.333,0,0.667,0,1,0c0,2.667,0,5.333,0,8c2.333,0,4.667,0,7,0
		c0-18.998,0-38.002,0-57c-2.333,0-4.667,0-7,0c0,2.667,0,5.333,0,8c-2.775-1.909-5.127-5.465-8-7
		c-21.903-11.699-39.036,7.086-43,24C753.316,39.718,767.292,53.714,777,57z M769,12c3.533-4.999,10.042-5.366,15-9
		c19.061,0.448,24.589,12.271,24,33c-4.997,5.406-5.6,11.715-14,14c-4.133,2.928-9.425,1.398-15,1c-2.355-2.316-6.931-3.495-9-6
		C763.942,37.666,763.164,20.26,769,12z"/>
	<path d="M838,14c1.846-5.621,6.634-7.898,13-9c0-2.667,0-5.333,0-8c-6.845,0.759-11.069,3.391-14,8c-0.333,0-0.667,0-1,0
		c0-2,0-4,0-6c-2.333,0-4.667,0-7,0c0,18.998,0,38.002,0,57c2.333,0,4.667,0,7,0C835.87,46.155,833.882,19.365,838,14z"/>
	<path d="M963,57c9.625-3.158,12.488-10.729,18-18c0-0.333,0-0.667,0-1c-11.471,0.308-7.89,5.578-14,10
		c-5.682,4.112-12.013,3.334-20,3c-6.343-6.244-13.676-8.444-14-21c16.665,0,33.335,0,50,0c0.098-38.737-47.271-43.52-57-11
		C919.32,41.328,939.596,64.678,963,57z M936,15c2.728-7.948,9.915-7.527,16-12c12.566,0.674,22.327,8.358,23,21
		c-13.999,0-28.001,0-42,0C933.29,19.961,934.066,17.333,936,15z"/>
	<path d="M1135,41c0.758-1.075,0.628-0.924,1-3c-11.923,0.3-9.688,9.201-19,12c-3.362,2.504-10.823,2.501-14,0
		c-10.557-1.821-10.067-10.598-15-18c0-0.667,0-1.333,0-2c16.665,0,33.335,0,50,0c0.08-22.348-9.49-21.081-19-32
		c-6.033-0.429-12.211-2.052-18,0c-13.282,4.709-26.319,23.678-18,43C1091.717,61.246,1127.87,65.119,1135,41z M1107,3
		c14.949,0.38,19.796,8.729,24,20c-10.586,3.563-29.414,1.139-42,1C1089.523,9.207,1098.341,9.407,1107,3z"/>
	<path d="M-366-1c-2.333,0-4.667,0-7,0c0,18.998,0,38.002,0,57c2.333,0,4.667,0,7,0C-366,37.002-366,17.998-366-1z"/>
	<path d="M983,69c0,2.333,0,4.667,0,7c4.423,0.069,6.844-0.011,9-2c13.362-4.939,9.398-54.908,9-75c-2.333,0-4.667,0-7,0
		c0.006,22.604,1.486,50.018-3,68C987.761,67.862,987.114,68.725,983,69z"/>
	<path d="M206,103c-1.633,1.432-4.192,2.92-6,4c-0.645,1.726-0.196,0.979-1,2c-0.146,9.241,1.687,10.158,5,15
		c8.153,0.14,9.717-1.137,14-4c0.639-3.092,1.062-6.677,1-11c-1.188-1.133-2.146-2.54-3-4C212.958,103.732,210.697,102.984,206,103z
		 M213,116c-0.333,1-0.667,2-1,3c-3.087-0.048-5.125-0.348-7-1c-0.645-1.726-0.196-0.979-1-2c0.256-5.756,1.321-5.192,4-8
		c2.945,0.82,3.804,1.74,6,3C213.895,113.533,213.877,114.705,213,116z"/>
	<path d="M212,119"/>
	<path d="M204,116c0.804,1.021,0.355,0.274,1,2"/>
	<path d="M214,111"/>
	<path d="M-233,115c0-2,0-4,0-6c-5.046-0.12-9.333-0.133-12,2c-6.516,2.608-9.333,9.427-9,19c-3,0-6,0-9,0c0,2.333,0,4.667,0,7
		c3,0,6,0,9,0c0,16.665,0,33.335,0,50c2.333,0,4.667,0,7,0c0-16.665,0-33.335,0-50c4.666,0,9.334,0,14,0c0-2.333,0-4.667,0-7
		c-4.666,0-9.334,0-14,0c0.041-7.077,1.567-8.909,4-13C-239.422,116.044-238.025,115.036-233,115z"/>
	<path d="M-498,110c-2.333,0-4.667,0-7,0c0,4.333,0,8.667,0,13c2.333,0,4.667,0,7,0C-498,118.667-498,114.333-498,110z"/>
	<path d="M-409,179c0.333,0,0.667,0,1,0c0,2.667,0,5.333,0,8c2.667,0,5.333,0,8,0c0-25.664,0-51.336,0-77c-2.667,0-5.333,0-8,0
		c0,9.333,0,18.667,0,28c-3.441-2.376-5.999-6.282-10-8c-19.338-8.302-36.04,6.069-40,20C-467.306,182.736-423.531,202.385-409,179z
		 M-442,138c3.137-2.134,7.775-1.948,11-4c3,0.333,6,0.667,9,1c3.88,3.81,8.777,8.788,13,12c2.685,20.187-0.246,20.219-9,33
		c-6.777,1.636-10.089,2.433-18,2c-4.139-3.831-10.284-5.788-13-11C-454.9,159.677-449.102,142.829-442,138z"/>
	<path d="M-295,136c0-2,0-4,0-6c-4.333,0-8.667,0-13,0c0-6.666,0-13.334,0-20c-2.333,0-4.667,0-7,0c0,6.666,0,13.334,0,20
		c-3.666,0-7.334,0-11,0c0,2,0,4,0,6c3.666,0,7.334,0,11,0c0,16.998,0,34.002,0,51c2.333,0,4.667,0,7,0
		c-0.086-15.179-3.346-37.966,1-51C-303,136-299,136-295,136z"/>
	<path d="M-130,187c2.333,0,4.667,0,7,0c0-25.664,0-51.336,0-77c-2.333,0-4.667,0-7,0C-130,135.664-130,161.336-130,187z"/>
	<path d="M-35,139c-0.333,0-0.667,0-1,0c0-9.666,0-19.334,0-29c-2.333,0-4.667,0-7,0c0,25.664,0,51.336,0,77c2.333,0,4.667,0,7,0
		c0-2.667,0-5.333,0-8c3.883,1.457,4.15,4.099,7,6c6.696,4.467,15.677,3.55,25,3c8.073-7.348,15.752-10.506,19-23
		C23.241,133.298-20.29,115.472-35,139z M-27,138c3.128-2.134,7.824-1.893,11-4c3,0.333,6,0.667,9,1c3.34,3.306,8.111,7.489,12,10
		c1.827,7.209,5.414,18.36,0,25c-3.43,10.289-13.816,12.836-26,12c-11.663-10.865-15.974-10.612-14-33
		C-32.023,145.867-30.589,140.449-27,138z"/>
	<path d="M654,166c0-0.333,0-0.667,0-1c4.713,2.188,15.223,17.123,18,22c3,0,6,0,9,0c-5.975-9.802-18.215-18.011-22-29
		c8.012-7.602,12.002-20.524,21-27c0-0.333,0-0.667,0-1c-16.518-0.16-23.851,23.853-33,33c0,0.333,0,0.667,0,1c-0.333,0-0.667,0-1,0
		c0-17.998,0-36.002,0-54c-2.333,0-4.667,0-7,0c0,25.664,0,51.336,0,77c2.333,0,4.667,0,7,0C645.73,175.911,647.71,170.217,654,166z
		"/>
	<path d="M1007,110c-2.333,0-4.667,0-7,0c0,4.333,0,8.667,0,13c2.333,0,4.667,0,7,0C1007,118.667,1007,114.333,1007,110z"/>
	<path d="M1102,110c-2.333,0-4.667,0-7,0c0,6.666,0,13.334,0,20c-4,0-8,0-12,0c0,2,0,4,0,6c4.325-0.059,9.106,0,12,1
		c0,16.665,0,33.335,0,50c2.333,0,4.667,0,7,0c0-16.998,0-34.002,0-51c4.333,0,8.667,0,13,0c0-2,0-4,0-6c-4.333,0-8.667,0-13,0
		C1102,123.334,1102,116.666,1102,110z"/>
	<path d="M1123,123c2.333,0,4.667,0,7,0c0-4.333,0-8.667,0-13c-2.333,0-4.667,0-7,0C1123,114.333,1123,118.667,1123,123z"/>
	<path d="M-389,150c-6.45,21.676,13.719,46.293,37,38c9.646-3.437,12.004-11.029,18-18c0-0.333,0-0.667,0-1
		c-12.383,0.198-10.499,9.144-20,12c-9.759,7.007-23.846-4.289-26-12c-1.46-1.922-1.889-4.697-2-8c16.665,0,33.335,0,50,0
		C-331.996,121.996-379.275,117.317-389,150z M-368,136c3.968-2.81,8.606-1.376,14-1c6.125,5.748,12.736,8.149,14,19
		c-13.999,0-28.001,0-42,0C-381.021,145.469-375.508,137.95-368,136z"/>
	<path d="M-212,187c6.444,2.759,13.559,1.483,21,1c5.858-5.336,13.619-8.198,17-16c10.708-24.714-8.061-44.486-31-44
		c-8.136,5.475-16.327,6.237-21,15C-235.165,160.187-224.406,181.689-212,187z M-221,149c2.98-3.132,4.41-8.548,8-11
		c2.948-2.013,7.145-1.977,10-4c19.885,0.367,24.86,14.528,23,34c-4.839,5.163-5.874,10.847-14,13c-3.699,2.745-7.973,1.502-13,1
		C-218.577,171.223-222.96,171.174-221,149z"/>
	<path d="M-138,136c0-2.667,0-5.333,0-8c-7.304,0.851-9.959,3.22-14,7c0,0.333,0,0.667,0,1c-0.333,0-0.667,0-1,0c0-2,0-4,0-6
		c-2.333,0-4.667,0-7,0c0,18.998,0,38.002,0,57c2.333,0,4.667,0,7,0c-0.13-9.845-2.118-36.635,2-42
		C-149.314,139.809-144.611,136.317-138,136z"/>
	<path d="M-97,131c-8.965,5.302-19.29,21.163-14,37c1.065,3.188,3.842,6.511,5,10c-1.667,1.667-3.333,3.333-5,5
		c0.743,2.32,1.039,2.234,2,4c3.139-1.064,4.421-2.492,6-5c8.797,3.249,19.149,10.635,32,5c11.166-4.896,26.023-34.337,11-46
		c0.733-4.098,2.147-5.228,5-7c-0.879-2.36-0.376-1.65-2-3c0-0.333,0-0.667,0-1c-3.139,1.064-4.421,2.492-6,5
		c-8.223-2.841-12.171-7.269-25-7C-91,129-94,130-97,131z M-64,146c3.583,15.092,1.733,31.48-12,35c-4.067,2.977-12.556,1.952-16-1
		c-2.654-0.934-2.604-0.994-4-3c-0.333-0.333-0.667-0.667-1-1c5.776-3.798,9.833-9.504,14-15c4.52-5.962,11.746-9.435,16-16
		C-66,145.333-65,145.667-64,146z M-69,140c-8.098,12.152-22.074,19.469-30,32c-0.667,0-1.333,0-2,0c-2.646-5.628-3.24-12.831-3-22
		c3.676-3.916,5.477-9.986,10-13c3-1,6-2,9-3C-77.578,134.552-73.839,137.181-69,140z"/>
	<path d="M26,130c0,18.998,0,38.002,0,57c2.333,0,4.667,0,7,0c-0.119-22.818-2.028-35.842,7-50c6.051-1.556,14.342-3.656,19,1
		c11.215,5.22,8.45,32.467,8,49c2.333,0,4.667,0,7,0c0.017-14.135,2.524-34.147-2-45c-1.56-3.742-5.073-6.28-7-10
		c-10.504-3.057-24.916-7.271-31,4c-0.333,0-0.667,0-1,0c0-2,0-4,0-6C30.667,130,28.333,130,26,130z"/>
	<path d="M85,150c-6.45,21.676,13.719,46.293,37,38c9.646-3.437,12.004-11.029,18-18c0-0.333,0-0.667,0-1
		c-12.383,0.198-10.499,9.144-20,12c-9.759,7.007-23.846-4.289-26-12c-1.46-1.922-1.89-4.697-2-8c16.665,0,33.335,0,50,0
		C142.004,121.996,94.725,117.317,85,150z M134,154c-13.999,0-28.001,0-42,0c0.979-8.531,6.492-16.05,14-18
		c3.968-2.81,8.606-1.376,14-1C126.125,140.748,132.735,143.149,134,154z"/>
	<path d="M179,152c-8.166,31.115,35.09,49.555,50,27c0.333,0,0.667,0,1,0c0,2.667,0,5.333,0,8c2.333,0,4.667,0,7,0
		c0-18.998,0-38.002,0-57c-2.333,0-4.667,0-7,0c0,2.667,0,5.333,0,8c-3.369-2.26-6.331-6.358-10-8
		C199.544,120.847,182.858,137.3,179,152z M228,149c8.996,11.989-4.05,29.861-13,32c-3.968,2.811-8.606,1.376-14,1
		c-11.823-11.084-15.369-10.8-14-33c3.011-3.149,4.638-8.257,8-11c2.863-2.337,7.892-1.938,11-4
		C217.291,134.532,225.624,139.584,228,149z"/>
	<path d="M250,130c0,18.998,0,38.002,0,57c2.333,0,4.667,0,7,0c-0.13-9.845-2.118-36.635,2-42c1.686-5.191,6.389-8.683,13-9
		c0-2.667,0-5.333,0-8c-7.304,0.851-9.959,3.22-14,7c0,0.333,0,0.667,0,1c-0.333,0-0.667,0-1,0c0-2,0-4,0-6
		C254.667,130,252.333,130,250,130z"/>
	<path d="M330,128c-11.588,7.728-18.101,6.16-23,22c-5.906,19.095,12.021,44.164,33,39C373.692,180.708,372.332,126.802,330,128z
		 M342,181c-3.968,2.811-8.606,1.376-14,1c-8.165-7.634-22.493-20.623-11-38c3.845-5.814,9.969-6.162,16-10c3,0.333,6,0.667,9,1
		c4.953,4.596,11.634,7.898,14,15C360.965,164.902,350.722,178.748,342,181z"/>
	<path d="M429,130c-2.333,0-4.667,0-7,0c0,2.667,0,5.333,0,8c-4.805-2.359-7.443-7.117-13-9c-20.02-6.784-33.465,9.348-37,23
		c-7.862,30.364,33.667,50.127,48,27c0.667,0,1.333,0,2,0c-0.208,10.307-3.151,14.941-7,21c-7.063,1.976-11.271,3.733-20,3
		c-5.163-4.838-10.847-5.874-13-14c-2.667,0-5.333,0-8,0c2.404,6.075,5.109,12.477,10,16c13.409,9.658,35.75,3.997,42-8
		C432.303,184.9,429.4,148.008,429,130z M407,181c-3.699,2.745-7.973,1.502-13,1c-11.998-11.178-15.386-10.48-14-33
		c2.98-3.132,4.41-8.548,8-11c2.948-2.013,7.145-1.977,10-4c11.345,0.214,19.677,5.789,22,15
		C428.996,160.989,415.95,178.861,407,181z"/>
	<path d="M475,177c-2,2-4,4-6,6c0.743,2.32,1.039,2.234,2,4c4.263-0.772,4.46-1.759,6-5c7.539,1.705,13.215,9.829,25,7
		c16.777-4.027,35.98-31.932,18-49c1.202-3.397,3.164-4.423,6-6c0-0.667,0-1.333,0-2c-1-0.333-2-0.667-3-1
		c-2.466-1.022-4.446,1.335-6,4c-7.795-2.834-11.803-7.236-24-7c-3.214,2.071-7.843,1.89-11,4
		C472.612,138.274,460.683,165.86,475,177z M517,147c3.517,22.995-1.718,36.587-26,35c-2.027-1.968-4.302-2.604-6-5
		c-0.333,0-0.667,0-1,0c5.996-13.117,22.152-20.206,30-32C515,145.667,516,146.333,517,147z M485,138c2.95-2.01,7.105-2.035,10-4
		c7.816,0.525,11.227,2.966,16,6c-8.075,12.345-21.958,19.829-30,32c-0.667,0-1.333,0-2,0C475.886,159.547,474.815,144.939,485,138z
		"/>
	<path d="M545,147c1.031-3.465,3.812-5.522,5-9c5.153-1.492,13.538-5.476,19-1c12.84,4.512,9.453,32.645,9,50c2.333,0,4.667,0,7,0
		c0.057-13.02,3.049-33.058-1-44c-1.789-4.833-6.331-8.001-9-12c-9.416-2.448-25.392-6.015-29,5c-0.667,0-1.333,0-2,0c0-2,0-4,0-6
		c-2.333,0-4.667,0-7,0c0,18.998,0,38.002,0,57c2.333,0,4.667,0,7,0C544.002,174.384,541.763,157.875,545,147z"/>
	<path d="M607,181c-4.001-1.506-5.026-4.527-5-10c-2.333,0-4.667,0-7,0c0.003,4.203,0.209,6.774,2,9c1.18,3.586,3.375,5.864,7,7
		c3.977,2.951,9.653,1.541,15,1c2.636-2.772,6.009-6.702,9-9c0.423-5.671,0.426-9.329,0-15c-6.841-6.579-13.643-10.613-23-15
		c-1.092-2.577-2.342-4.671-1-7c0.579-6.1,2.531-5.212,6-8c2.977,0.448,3.376,0.505,5,2c3.829,1.507,3.752,4.185,5,8
		c2.333,0,4.667,0,7,0c-0.486-6.249-2.631-8.954-5-13c-5.006-1.459-11.862-5.216-17-1c-3.457,1.223-4.282,3.193-7,5
		c-1.249,4.817-3.598,11.623,0,16c1.967,5.6,17.708,12.762,23,16c0.103,7.066-0.705,10.077-3,14
		C613.62,182.128,610.658,183.925,607,181z"/>
	<path d="M743,161c0.89-38.43-44.898-43.037-56-13c-7.501,20.295,11.502,45.88,32,41c11.932-2.841,15.553-9.831,22-18
		c0-0.667,0-1.333,0-2c-11.24,0.412-8.565,6.84-15,11c-5.293,3.422-11.27,2.277-18,2c-3.712-3.55-9.211-5.566-12-10c-1-3-2-6-3-9
		c0-0.667,0-1.333,0-2C709.665,161,726.335,161,743,161z M694,149c8.999-9.711,8.699-15.557,27-14c2.896,2.715,7.643,3.77,10,7
		c2.342,3.21,2.673,7.717,5,11c0,0.333,0,0.667,0,1c-13.999,0-28.001,0-42,0C694,152.333,694,150.667,694,149z"/>
	<path d="M768,138c3-0.667,6-1.333,9-2c0-2.667,0-5.333,0-8c-8.275,0.949-10.514,3.683-15,8c0,0.333,0,0.667,0,1
		c-0.333,0-0.667,0-1,0c0-2.333,0-4.667,0-7c-2.333,0-4.667,0-7,0c0,18.998,0,38.002,0,57c2.333,0,4.667,0,7,0
		C760.877,165.566,759.616,150.794,768,138z"/>
	<path d="M848,188c9.646-3.437,12.004-11.029,18-18c0-0.333,0-0.667,0-1c-12.383,0.198-10.499,9.144-20,12
		c-9.759,7.007-23.846-4.289-26-12c-1.46-1.922-1.89-4.697-2-8c16.665,0,33.335,0,50,0c0.004-39.004-47.275-43.683-57-11
		C804.55,171.676,824.719,196.293,848,188z M832,136c3.968-2.81,8.606-1.376,14-1c6.125,5.748,12.735,8.149,14,19
		c-13.999,0-28.001,0-42,0C818.979,145.469,824.492,137.95,832,136z"/>
	<path d="M887,136c-0.333,0-0.667,0-1,0c0-2,0-4,0-6c-2.333,0-4.667,0-7,0c0,18.998,0,38.002,0,57c2.333,0,4.667,0,7,0
		c-0.119-22.818-2.028-35.842,7-50c6.051-1.556,14.342-3.656,19,1c11.215,5.22,8.45,32.467,8,49c2.333,0,4.667,0,7,0
		c0.017-14.135,2.524-34.147-2-45c-1.56-3.742-5.073-6.28-7-10C907.496,128.943,893.084,124.729,887,136z"/>
	<path d="M991,136c0-2.667,0-5.333,0-8c-7.304,0.851-9.96,3.22-14,7c0,0.333,0,0.667,0,1c-0.333,0-0.667,0-1,0c0-2,0-4,0-6
		c-2.333,0-4.667,0-7,0c0,18.998,0,38.002,0,57c2.333,0,4.667,0,7,0c-0.13-9.845-2.118-36.635,2-42
		C979.686,139.809,984.389,136.317,991,136z"/>
	<path d="M1067,138c-11.164-7.62-12.658-10.17-31-9c-9.123,8.282-15.595,11.411-19,26c-6.483,27.774,34.956,46.393,49,24
		c0.333,0,0.667,0,1,0c-0.333,4.333-0.667,8.667-1,13c-3.581,3.933-11.948,16.764-21,11c-8.457-0.267-15.985-6.299-17-14
		c-2.667,0-5.334,0-8,0c4.291,19.684,35.643,30.336,49,12c9.445-12.966,5.497-49.733,5-71c-2.333,0-4.667,0-7,0
		C1067,132.667,1067,135.333,1067,138z M1053,181c-3.968,2.811-8.606,1.376-14,1c-8.165-7.634-22.493-20.623-11-38
		c3.845-5.814,9.969-6.162,16-10c3,0.333,6,0.667,9,1c4.953,4.596,11.634,7.898,14,15C1071.965,164.902,1061.722,178.748,1053,181z"
		/>
	<path d="M1189,179c0.333,0,0.667,0,1,0c-0.333,4.333-0.667,8.667-1,13c-3.581,3.933-11.948,16.764-21,11
		c-8.457-0.267-15.985-6.299-17-14c-2.667,0-5.334,0-8,0c4.291,19.684,35.643,30.336,49,12c9.445-12.966,5.497-49.733,5-71
		c-2.333,0-4.667,0-7,0c0,2.667,0,5.333,0,8c-11.164-7.62-12.658-10.17-31-9c-9.123,8.282-15.595,11.411-19,26
		C1133.517,182.774,1174.956,201.393,1189,179z M1151,144c3.845-5.814,9.969-6.162,16-10c3,0.333,6,0.667,9,1
		c4.953,4.596,11.634,7.898,14,15c4.965,14.902-5.278,28.748-14,31c-3.968,2.811-8.606,1.376-14,1
		C1153.835,174.366,1139.507,161.377,1151,144z"/>
	<path d="M-498,130c-2.333,0-4.667,0-7,0c0,18.998,0,38.002,0,57c2.333,0,4.667,0,7,0C-498,168.002-498,148.998-498,130z"/>
	<path d="M1000,187c2.333,0,4.667,0,7,0c0-18.998,0-38.002,0-57c-2.333,0-4.667,0-7,0C1000,148.998,1000,168.002,1000,187z"/>
	<path d="M1123,187c2.333,0,4.667,0,7,0c0-18.998,0-38.002,0-57c-2.333,0-4.667,0-7,0C1123,148.998,1123,168.002,1123,187z"/>
	<path d="M-307,552c2.878-5.189,8.709-14.619,4-21c-0.333-1-0.667-2-1-3c-6.269,1.231-14.444,19.069-17,25
		c-9.084,3.018-18.018,1.67-25,6c-21.177,13.134-30.628,38.453-50,53c-6.195,4.652-12.55,10.025-19,14c-5,2-10,4-15,6
		c-3.411-0.211-5.105-0.479-7-2c-2.11-1.512-2.385-3.087-4-5c1.124-17.685,12.208-40.373,20-53c2.346-3.802,5.664-6.862,7-12
		c0.807-1.029,0.369-0.246,1-2c-0.333-0.333-0.667-0.667-1-1c-16.244,1.446-19.513,20.533-27,31c-12.75,17.824-39.288,45.967-69,46
		c-1.133-1.188-2.54-2.146-4-3c-4.698-21.697,8.057-42.095,17-57c5.094-8.491,7.249-18.145,13-26c2.896-3.955,7.674-4.327,12-7
		c7.696-4.754,17.349-11.711,24-18c20.021-18.928,36.854-39.013,53-62c10.214-14.542,18.523-27.948,26-46
		c1.688-4.075,7.122-12.846,4-18c-2.728-6.341-11.098-3.598-16-1c-12.005,6.361-24.627,15.677-34,25
		c-20.667,20.557-34.433,48.376-49,75c-12.973,23.711-29.413,47.36-41,72c-13.999,4-28.001,8-42,12c-6.335,1.917-13.595,1.299-18,5
		c-0.667,0-1.333,0-2,0c3.207-4.516,18.603-19.062,13-28c-0.333-1-0.667-2-1-3c-8.013,0.776-22.095,3.812-28,8
		c-5.962,4.229-8.919,12.938-16,16c-12.423,5.373-33.969,0.643-40-7c-0.921-1.1,2.598-8.302,4-11c5.28-10.16,10.528-22.091,15-33
		c20.825-50.799,14.578-136.94-48-136c-3.979,2.543-9.498,2.084-14,4c-12.57,5.348-23.667,17.384-29,30
		c-17.489,41.371,20.689,93.318,37,116c4.932,6.859,9.099,15.221,16,20c-2.162,3.573-6.462,2.838-10,5
		c-6.542,3.997-15.419,10.932-20,17c-5.688,7.536-11.677,15.219-16,24c-1.333,4-2.667,8-4,12c0.529,16.086-15.158,19.678-31,19
		c-1.907-2.016-4.749-4.422-7-6c-2.788-11.88-2.066-20.097-1-33c16.24-7.161,28.525-10.489,38-24c3.515-5.012,4.36-11.903,8-17
		c-0.474-3.153-1.003-3.771-2-6c-10.285-0.025-21.397,2.195-26,8c-0.667,0-1.333,0-2,0c4.64-7.99,10.366-17.953,18-23
		c0-0.667,0-1.333,0-2c-4.655-0.04-10.133,0.049-13,2c-6.064,2.333-11.487,15.238-13,22c-22.74-6.381-33.061,14.107-44,26
		c-16.753,18.212-38.348,48.99-72,49c-1.133-1.188-2.54-2.146-4-3c-4.698-21.697,8.057-42.095,17-57c5.094-8.491,7.249-18.145,13-26
		c2.896-3.955,7.674-4.327,12-7c7.696-4.754,17.348-11.711,24-18c20.021-18.928,36.854-39.013,53-62
		c10.214-14.542,18.523-27.948,26-46c1.688-4.075,7.122-12.846,4-18c-3.015-7.005-13.219-2.884-18,0
		c-12.829,7.739-29.108,18.228-38,30c-34.191,45.266-57.518,99.532-88,149c-9.986,16.205-28.102,38.203-16,61
		c35.861,9.115,57.268-19.287,76-37c0-0.333,0-0.667,0-1c0.333,0,0.667,0,1,0c-1.723,5.946-12.22,24.654-8,31c0.333,1,0.667,2,1,3
		c17.544,1.215,32.693-20.295,40-33c0.333,0,0.667,0,1,0c-7.832,18.938-4.439,28.917,5,42c11.29,2.596,24.039,3.955,34-2
		c3.9-2.332,7.462-6.37,12-8c3.917-0.816,7.356,8.018,14,4c8.882-0.86,13.715-7.362,18-13c9.469-12.46,28.856-31.462,33-48
		c8.062,2.831,28.769,18.566,41,7c0.667,0,1.333,0,2,0c-2.817,9.224-22.906,39.407-11,52c1.543,4.388,3.125,3.994,7,6
		c15.473,8.008,26.602-3.376,36-10c0-0.667,0-1.333,0-2c-5.082,1.823-7.775,6.483-12,9c-2.568,1.53-5.82,1.316-8,3
		c-6.119-0.227-7.448-1.748-11-4c-6.83-31.215,12.646-54.277,24-74c1.726-0.645,0.979-0.196,2-1c3.087,0.048,5.125,0.348,7,1
		c-0.023,16.282-8.914,23.853-19,30c0.333,0.333,0.667,0.667,1,1c1.708,1.104,13.545-3.535,18-5c11.712-3.852,26.187-7.399,38-11
		c6.387-1.947,13.283-1.505,18-5c0.667,0,1.333,0,2,0c-6.261,20.896-31.2,37.981-17,65c4.662,1.195,9.933,4.611,17,3
		c25.183-5.742,48.967-23.822,61-43c0.333,0,0.667,0,1,0c-3.126,10.922-9.32,16.741-9,32c2.517,2.42,3.149,4.701,7,6
		c5.819,4.105,17.188,1.221,23-1c12.605-4.818,33.148-20.444,40-31c0.333,0,0.667,0,1,0c-3.244,6.457-14.509,24.773-7,34
		c0.333,0.667,0.667,1.333,1,2c16.562,0.053,38.274-28.368,44-40c0.333,0,0.667,0,1,0c-14.969,31.178-29.391,63.979-47,93
		c-6.012,9.909-9.406,19.905-15,30c-16.29,29.395-38.816,59.197-66,78c-28.111,19.445-69.885,31.783-103,7
		c-8.011-5.995-14.202-17.982-17-29c-2.027-7.981,2.896-19.011,1-23c-0.333-0.333-0.667-0.667-1-1
		c-16.641,63.512,57.479,89.562,111,66c31.526-13.879,48.548-45.619,66-74c19.732-32.09,39.914-66.039,58-99
		c7.34-13.376,12.62-27.425,21-40C-325.622,589.928-317.002,570.034-307,552z M-454,501c15.263-24.229,27.673-49.818,44-73
		c6.507-9.238,16.383-16.175,23-25c1.333,0,2.667,0,4,0c0.667,0.667,1.333,1.333,2,2c-0.184,24.303-11.425,38.311-20,54
		c-11.47,20.987-30.717,47.226-49,61c-8.928,6.726-20.329,12.918-28,21c-0.333,0-0.667,0-1,0
		C-474.083,526.345-461.837,513.441-454,501z M-799,501c15.263-24.229,27.673-49.818,44-73c6.507-9.238,16.383-16.175,23-25
		c1.333,0,2.667,0,4,0c0.667,0.667,1.333,1.333,2,2c-0.184,24.303-11.425,38.311-20,54c-11.47,20.987-30.717,47.226-49,61
		c-8.928,6.726-20.329,12.918-28,21c-0.333,0-0.667,0-1,0C-819.083,526.345-806.837,513.441-799,501z M-716,558
		c-0.168,16.715-13.378,34.832-29,36C-743.889,577.037-733.34,559.146-716,558z M-783,623c-2.596-0.2-3.396-0.442-5-1
		c0.612-17.586,14.619-39.744,23-51c2.784-3.74,7.688-5.748,11-9c2,0,4,0,6,0c1,1,2,2,3,3C-746.068,582.322-772.928,612.062-783,623
		z M-646,574c-5.494,16.817-19.967,31.732-30,45c-4.333,4-8.667,8-13,12c-2,0-4,0-6,0c-0.333-3.333-0.667-6.667-1-10
		c10.335-9.562,16.002-21.978,25-33c0-0.333,0-0.667,0-1c-4.918,1.377-15.344,20.408-20,25c0,0.333,0,0.667,0,1
		c-0.333,0-0.667,0-1,0c1.832-11.572,19.029-38.075,27-44c2.795-2.078,6.315-2.818,9-5c3.264,2.128,7.785,5.791,10,9
		c0.333,0.333,0.667,0.667,1,1C-645.333,574-645.667,574-646,574z M-644,569c-4.666-4.333-9.334-8.667-14-13
		c-18.766-25.198-31.624-51.901-42-86c-5.326-17.502-7.208-43.153,2-58c6.408-10.333,14.248-9.682,24-16
		c53.158-0.221,64.801,78.389,49,128c-4.933,15.489-14.112,30.581-18,45C-643.333,569-643.667,569-644,569z M-362,614
		c-4.067,5.453-7.111,12.475-14,15c-1.029,0.807-0.246,0.369-2,1c-0.333-0.333-0.667-0.667-1-1c2.729-21.817,18.593-56.282,33-66
		c2.962-1.998,7.169-1.938,10-4c3.666,0,7.334,0,11,0C-334.085,579.948-349.167,596.797-362,614z"/>
	<path d="M1058,559c7.333,0,14.667,0,22,0c-0.646-1.726-0.196-0.979-1-2c-10.666,0-21.334,0-32,0c1.496-7.719,17.503-32.552,23-37
		c0-0.667,0-1.333,0-2c-0.333-0.333-0.667-0.667-1-1c-3.916,0.565-10.897,1.904-14,4c-4.8,3.779-16.235,29.088-20,36
		c-7.571-0.114-31.473-1.886-36,1c-0.667,0-1.333,0-2,0c0.923,2.697,1.717,2.928,3,5c4.486,0.85,17.496,0.976,22-2
		c3.666,0,7.333,0,11,0c-2.653,5.51-5.994,10.106-9,15c-13.656,3.719-35.022,6.511-44-5c-0.937-1.044,2.614-8.343,4-11
		c5.293-10.146,10.551-22.088,15-33c20.856-51.156,13.388-123.951-37-136c-8.691-2.079-16.944,2.075-22,4
		c-20.61,7.849-43.291,32.805-35,65c8.746,33.962,22.662,56.779,40,81c4.91,6.859,9.104,15.239,16,20
		c-3.062,5.262-14.338,7.009-19,11c-8.802,7.535-17.852,15.805-28,22c-5.577,3.404-12.819,4.142-18,8c-6.206-0.05-8.168-1.169-12-3
		c-2.969-16.418,6.918-25.626,8-40c-28.814-0.103-48.809,26.394-59,46c-3.697,7.112-10.06,23.004-3,32
		c3.385,4.313,14.212,3.362,19,1c11.079-5.467,20.882-19.484,26-31c19.801,2.217,40.582-8.122,51-19c0.333,0,0.667,0,1,0
		c-7.085,11.448-16.396,21.083-16,40c2.092,2.103,4.449,5.519,6,8c2.75,0.616,5.547,1.659,8,0c8.882-0.86,13.715-7.362,18-13
		c9.469-12.46,28.855-31.462,33-48c10.769,3.745,30.814,19.058,45,5c0.333,0,0.667,0,1,0c-3.819,14.18-13.327,26.636-18,41
		c-1.61,4.951-1.709,13.605,1,17c1,1.333,2,2.667,3,4c21.022,4.002,41.802-10.099,52-21c0.333,0,0.667,0,1,0c0-0.333,0-0.667,0-1
		c-14.832,1.731-20.364,15.075-39,14c-1.133-1.188-2.54-2.146-4-3c0.543-32.575,18.641-46.722,26-71
		C1048.305,560.126,1055.356,560.749,1058,559z M871,590c-2.134,6.041,1.681,10.398,1,15c-1.403,9.487-18.404,28.723-28,31
		c-0.929-0.911-1.743-1.35-3-2c-3.72-19.889,11.318-45.065,20-57c4-3.667,8-7.333,12-11c2.848,0.11,4.275,0.401,6,1
		C877.215,575.397,873.495,582.938,871,590z M973,574c-5.494,16.817-19.967,31.732-30,45c-4.333,4-8.667,8-13,12c-2,0-4,0-6,0
		c-3.323-17.687,19.514-54.222,30-62c2.799-2.076,6.309-2.823,9-5c3.265,2.128,7.786,5.791,10,9c0.333,0.333,0.667,0.667,1,1
		C973.667,574,973.333,574,973,574z M975,569c-4.666-4.333-9.334-8.667-14-13c-18.766-25.198-31.624-51.901-42-86
		c-5.326-17.502-7.208-43.153,2-58c6.408-10.333,14.248-9.682,24-16c53.158-0.221,64.8,78.389,49,128
		c-4.934,15.489-14.112,30.581-18,45C975.667,569,975.333,569,975,569z"/>
	<path d="M111,603c4.063-5.389,7.53-12.093,13-16c0-0.667,0-1.333,0-2c-6.785,2.602-10.874,11.504-15,17
		c-8.507,11.332-21.982,19.011-35,26c-6.009,3.226-18.419,10.169-26,3c-2.893-3.898-2.678-14.379-1-20
		c4.437-14.858,15.179-37.101,23-50c2.187-3.607,5.713-12.221,9-15c7.1-6.002,19.125-11.224,27-17c11.615-8.519,31.383-27.569,40-39
		c13.291-17.629,28.508-36.128,39-56c4.289-8.124,6.727-22.011,12-29c0.097-6.626-0.769-8.457-3-12c-22.12,0.544-33.746,18.95-47,29
		c-16.764,12.711-25.686,33.774-37,52c-20.742,33.413-41.025,69.632-60,104c-11.021,19.961-19.653,34.582-38,47
		c-4.461,3.02-14.749,12.892-23,8c-7.906-3.593-1.718-15.823,1-21c6.649-12.664,14.341-25.35,22-38c2.036-3.363,7.547-9.17,4-15
		c-0.333-1-0.667-2-1-3c-11.184,0.444-13.313,13.918-18,21c-9.674,14.618-20.54,28.256-31,42c-5.333,4.333-10.667,8.667-16,13
		c-4.459-0.102-4.683,0.361-6-3c-1.944-3.087,5.879-13.476,8-17c6.342-10.542,16.48-19.571,23-30c3.6-5.758,4.128-13.155,8-19
		c-0.602-3.854-1.521-4.444-3-7c-16.519-3.127-24.215,8.41-35,14c-0.129,2.865-0.708,1.455,0,3c1.049,1.173,18.542-13.78,27-15
		c-0.718,15.746-21.202,34.107-29,45c-3.111,4.345-7.017,10.234-9,15c-1.124,2.701-0.604,5.877-2,8c0.422,3.138,1.067,4.655,2,7
		c5.563,2.266,11.039,1.44,18,1c9.999-9.666,21.369-16.898,29-29c0.333,0,0.667,0,1,0c-1.945,12.364-7.15,19.188,0,31
		c18.965,3.795,27.829-6.376,38-14c4.15-3.11,10.088-5.789,12-11c0.667,0,1.333,0,2,0c-3.776,9.727-1.37,19.444,3,26
		C62.838,647.383,99.851,617.785,111,603z M121,479c13.037-20.726,23.701-41.838,38-61c4.272-5.726,11.104-9.834,16-15
		c1.333,0,2.667,0,4,0c0.333,0.333,0.667,0.667,1,1c3.44,18.917-9.4,38.685-17,51c-14.858,24.078-29.492,43.953-49,63
		c-8.523,8.322-23.117,13.298-30,23c-0.667,0-1.333,0-2,0C94.458,519.859,108.14,499.446,121,479z"/>
	<path d="M-67,566c-7.46,1.654-21.571,15.995-31,20c-7.563,3.212-24.945,4.294-31,8c-7.666,0-15.334,0-23,0
		c7.125-14.563,15.687-29.312,24-43c13.213-21.756,22.155-46.261,34-69c2.778-5.333,5.373-12.746,9-18
		c3.519-5.097,11.813-5.385,14-12c-0.667-6.333-1.333-12.667-2-19c-0.333-0.333-0.667-0.667-1-1c-13.776,1.717-11.707,19.419-21,25
		c-3.333,0.667-6.667,1.333-10,2c-9.691,3.25-20.759,6.722-31,11c-29.421,12.291-58.035,28.136-74,54
		c-22.412,36.308,7.891,69.934,44,71c-22.151,46.628-44.472,102.573-90,126c-42.06,21.642-110.438-14.089-90-64
		c-1-0.333-2-0.667-3-1c-23.031,54.766,22.283,99.311,80,76c43.888-17.726,64.383-52.028,88-90c7.711-12.399,22.26-30.245,26-45
		c31.781-0.247,53.69-2.973,73-15c5.246-3.267,9.722-8.621,15-12C-67,568.667-67,567.333-67,566z M-164,590
		c-4.362,1.825-13.29-4.579-17-7c-18.788-12.259-30.131-34.208-18-62c9.936-22.762,36.856-34.312,59-45
		c11.124-5.369,27.411-4.807,37-12c1.333,0,2.667,0,4,0c-18.282,31.016-34.321,65.109-51,97
		C-154.973,570.508-157.166,582.277-164,590z"/>
	<path d="M1163,664c-12.268-8.002-24.495-31.446-19-56c11.962-53.449,42.891-85.866,83-111c9.729-6.097,19.2-11.41,31-16
		c3.728-1.45,10.067-5.965,15-3c0.667,0,1.333,0,2,0c2.995,16.018-8.144,30.727-14,42c-13.835,26.629-28.578,50.74-44,75
		c-5.6,8.809-9.843,19.663-17,27c0.172,7.112,2.279,7.034,5,11c8.567-1.119,9.312-10.035,13-16c9-14.558,17.019-30.374,27-44
		c30.478-41.608,67.465-76.237,111-105c15.043-9.939,27.851-21.182,53-21c1.382,1.484,3.242,2.919,5,4
		c4.428,23.19-12.871,39.297-22,53c-21.909,32.886-45.941,62.058-68,95c-7.677,11.465-16.522,23.159-21,38
		c-1.676,5.556-1.766,15.25,1,19c2.308,12.428,22.861,19.425,41,15c16.727-4.081,31.106-11.906,43-21c3.985-3.047,5.982-8.823,10-12
		c0-1.333,0-2.667,0-4c-7.568,1.774-9.535,10.895-15,15c-13.039,9.794-25.693,17.297-49,17c-3.906-3.665-8.116-4.048-10-10
		c-2.968-3.965-2.567-14.299-1-20c4.318-15.708,11.239-28.886,19-41c21.484-33.537,44.059-63.479,66-96
		c10.305-15.273,26.621-26.035,26-52c-1.717-1.636-2.921-3.721-4-6c-3.337-0.854-6.364-3.199-9-4c-15.594-4.738-49.665,15.823-58,21
		c-27.542,17.107-52.719,35.71-75,58c-6.742,6.745-13.226,14.349-19,22c-2.667,2.333-5.334,4.667-8,7c-3.557,4.722-6.04,9.716-11,13
		c0,0.333,0,0.667,0,1c-0.333,0-0.667,0-1,0c11.152-19.51,22.498-39.085,34-58c4.42-7.269,5.907-16.36,11-23
		c0.051-4.068-0.076-8.333-1-11c-19.318-3.64-38.455,9.402-51,17c-39.475,23.907-86.84,52.703-104,98
		c-14.52,38.327,5.298,89.748,42,91C1178.06,666.925,1167.884,667.186,1163,664z"/>
	<path d="M-903,527c-12.057,12.042-22.885,28.315-32,43c-3.188,5.136-7.703,18.996-12,22c-3.333,1-6.667,2-10,3
		c-24.631,10.324-68.148,13.314-79-12c-11.623-27.113,4.835-55.823,15-71c15.463-23.087,38.025-41.657,66-52
		c6.333-1.333,12.667-2.667,19-4c15.48-4.927,42.636-7.851,60-2c5.925,1.997,17.316,7.312,21,12c2.429,3.09,3.376,7.155,6,10
		c0,0.333,0,0.667,0,1c0.333,0,0.667,0,1,0c0.146-28.261-27.857-33.722-57-33c-3.726,2.338-10.141,0.767-15,2
		c-9.283,2.356-19.75,4.276-29,8c-42.062,16.932-86.558,42.663-104,84c-18.47,43.772,18.223,78.83,67,68
		c12.629-2.804,25.554-2.179,34-9c0.667,0,1.333,0,2,0c-4.11,14.481-15.557,28.78-23,41c-27.146,44.57-48.936,91.514-103,109
		c-36.651,11.854-71.974-3.312-83-28c-3.325-7.446-7.518-27.689-1-36c0-1,0-2,0-3c-0.667,0-1.333,0-2,0
		c-2.354,5.123-4.514,12.168-6,18c-2.735,10.733-0.069,22.555,3,30c15.977,38.761,76.245,35.476,110,15
		c47.5-28.814,79.557-78.168,109-125c6.959-11.068,11.263-23.438,19-34c2.328-3.178,7.77-4.617,11-7
		c7.095-5.233,12.927-12.393,20-18c4.182-3.315,16.91-18.363,20-23c2.46-3.692,3.103-7.88,6-11
		C-870.754,501.797-897.47,521.477-903,527z M-920,576c-0.333,0-0.667,0-1,0c2.079-6.343,6.833-10.895,10-16
		c7.912-12.751,14.157-25.371,23-37c1.969-2.59,5.694-3.719,8-6c1,0,2,0,3,0c0.667,0.667,1.333,1.333,2,2
		C-875.425,544.838-908.891,559.572-920,576z"/>
	<path d="M849,525c-0.754-23.203-27.47-3.523-33,2c-12.057,12.042-22.885,28.315-32,43c-3.188,5.136-7.703,18.996-12,22
		c-3.333,1-6.667,2-10,3c-24.631,10.324-68.148,13.314-79-12c-11.623-27.113,4.835-55.823,15-71c15.463-23.087,38.024-41.657,66-52
		c6.333-1.333,12.667-2.667,19-4c15.48-4.927,42.636-7.851,60-2c5.925,1.997,17.316,7.312,21,12c2.429,3.09,3.376,7.155,6,10
		c0,0.333,0,0.667,0,1c0.333,0,0.667,0,1,0c0.146-28.261-27.857-33.722-57-33c-3.726,2.338-10.141,0.767-15,2
		c-9.284,2.356-19.75,4.276-29,8c-42.062,16.932-86.558,42.663-104,84c-18.47,43.772,18.224,78.83,67,68
		c12.629-2.804,25.554-2.179,34-9c0.667,0,1.333,0,2,0c-4.11,14.481-15.557,28.78-23,41c-27.146,44.57-48.937,91.514-103,109
		c-36.651,11.854-71.974-3.312-83-28c-3.326-7.446-7.518-27.689-1-36c0-1,0-2,0-3c-0.667,0-1.333,0-2,0
		c-2.354,5.123-4.514,12.168-6,18c-2.735,10.733-0.069,22.555,3,30c15.977,38.761,76.245,35.476,110,15
		c47.5-28.814,79.557-78.168,109-125c6.959-11.068,11.263-23.438,19-34c2.328-3.178,7.77-4.617,11-7
		c7.095-5.233,12.928-12.393,20-18c4.183-3.315,16.91-18.363,20-23C845.46,532.308,846.103,528.12,849,525z M799,576
		c-0.333,0-0.667,0-1,0c2.079-6.343,6.833-10.895,10-16c7.912-12.751,14.157-25.371,23-37c1.97-2.59,5.694-3.719,8-6c1,0,2,0,3,0
		c0.667,0.667,1.333,1.333,2,2C843.575,544.838,810.109,559.572,799,576z"/>
	<path d="M1639,526c3.747,2.767,7.634,1.382,13,1c5.098-4.663,21.65-16.063,12-28c-1.601-2.474-2.833-3.981-6-5
		c-2.125-1.435-7.329-1.141-11-1c-3.14,3.089-8.365,6.688-12,9c-1.401,5.642-3.136,9.184-3,17
		C1634.692,521.841,1634.692,524.504,1639,526z M1647,499c0.855-0.663,3.14-1.352,4-2c13.476,2.94,11.777,20.818,0,24
		c-3.578,2.444-9.283,0.34-12-1C1635.176,511.094,1638.673,501.475,1647,499z"/>
	<path d="M-389,509c-0.007-3.326-0.287-5.951-1-8c-2.333,0-4.667,0-7,0c-2.848,3.058-5.093,6.908-8,10c0.106,2.533,0.123,3.705,1,5
		c0,0.667,0,1.333,0,2C-395.227,519.576-393.342,514.481-389,509z"/>
	<path d="M571,621c0.333,0,0.667,0,1,0c0-0.333,0-0.667,0-1c-14.832,1.731-20.364,15.075-39,14c-1.133-1.188-2.54-2.146-4-3
		c0.543-32.575,18.641-46.722,26-71c4.305,0.126,11.357,0.749,14-1c7.333,0,14.667,0,22,0c-0.646-1.726-0.196-0.979-1-2
		c-10.666,0-21.334,0-32,0c1.496-7.719,17.503-32.552,23-37c0-0.667,0-1.333,0-2c-0.333-0.333-0.667-0.667-1-1
		c-3.916,0.565-10.897,1.904-14,4c-4.8,3.779-16.235,29.088-20,36c-7.571-0.114-31.473-1.886-36,1c-0.667,0-1.333,0-2,0
		c0.923,2.697,1.717,2.928,3,5c4.486,0.85,17.496,0.976,22-2c3.667,0,7.333,0,11,0c-3.562,7.132-11.848,6.479-20,9
		c-10.242,3.167-22.503,6.608-33,10c-6.58,2.126-14.025,1.429-19,5c-0.667,0-1.333,0-2,0c0-0.333,0-0.667,0-1
		c4.99-2.436,18.973-19.204,13-28c0-0.667,0-1.333,0-2c-31.092,1.023-45.585,24.145-55,47c-5.445,13.217-8.597,35.83,7,40
		c12.739,9.136,28.311-6.559,35-11c0-0.667,0-1.333,0-2c-7.486,1.896-18.024,17.824-28,10c-2.636-1.213-3.134-2.048-4-5
		c-3.728-5.854-0.771-16.123,1-22c6.313-20.952,14.694-34.285,25-50c22.065-0.111-5.208,27.45-11,30c0,1,0,2,0,3
		c15.599-4.368,36.094-10.299,52-16c11.02-3.95,24.089-2.982,33-9c0.333,0,0.667,0,1,0c-4.926,16.932-16.729,31.85-23,49
		c-1.912,5.229-3.548,15.542,0,20c1,1.333,2,2.667,3,4C540.022,646.002,560.802,631.901,571,621z"/>
	<path d="M1552,561c4.727-3.055,26.89-2.177,35-2c0-1,0-2,0-3c-0.333,0.333-0.667,0.667-1,1c-10.666,0-21.334,0-32,0
		c3.056-9.354,16.263-29.477,23-36c-0.399-2.054-0.249-1.927-1-3c-1.856-0.892-10.463,1.045-13,3c-5.654,3.998-6.417,12.927-11,18
		c0,0.333,0,0.667,0,1c-0.333,0-0.667,0-1,0c0.758-3.331,2.161-10.851,0-14c-1.312-3.284-2.802-2.912-5-5
		c-21.812,0.075-32.644,16.214-42,29c-6.695,9.149-15.439,17.636-22,27c-9.775,13.952-17.094,29.305-28,42
		c-2.971,3.458-8.724,4.792-12,8c-2.055-0.399-1.927-0.248-3-1c-0.667,0-1.333,0-2,0c0.443-17.924,13.03-38.055,21-50
		c3.126-4.685,8.08-7.864,10-14c0.807-1.029,0.369-0.246,1-2c-1-1-2-2-3-3c-12.158,3.018-25.369,9.396-36,15
		c0.645,1.726,0.196,0.979,1,2c2.719,1.2,11.455-3.413,14-6c2.319,0.227,2.82,0.197,4,1c1.387,2.333-3.137,12.411-5,16
		c-5.01,9.651-12.536,19.663-18,29c-2.334,3.988-2.323,8.588-5,12c0.147,5.029,1.096,6.391,2,10c9.062,1.587,21.395-4.562,27-10
		c0.333,0,0.667,0,1,0c-16.405,34.378-38.385,66.939-60,97c-4.52,6.285-11.431,11.849-16,18c-20.103,27.066-45.752,52.363-79,66
		c-39.292,16.116-91.35,2.842-109-24c-5.256-7.993-13.884-31.665-5-44c0-1.667,0-3.333,0-5c-0.667,0-1.333,0-2,0
		c-14.595,56.81,23.211,106.969,88,89c15.747-4.367,31.303-10.113,44-18c51.923-32.254,90.21-86.143,123-138
		c6.399-10.121,15.158-20.513,21-31c17.44-31.31,33.792-64.267,55-92c4.138-5.411,11.839-7.546,17-12c9.688-0.061,13.411,1.708,19,5
		c1.127,2.61,2.169,5.768,2,7c-1.438,5.162-4.529,8.174-6,13c-11.508-0.083-28.42-2.212-38,1c0.565,3.168,0.878,2.909,2,5
		c3.478,0.657,19.49,0.294,23-2c3.333,0,6.667,0,10,0c-7.237,25.083-31.776,43.929-29,76c1.188,1.133,2.146,2.54,3,4
		c21.605,8.441,41.475-11.704,54-20c0-0.333,0-0.667,0-1c-15.035,2.732-25.689,20.764-42,11c-3.611-19.943,9.847-39.216,17-53
		C1546.088,572.05,1547.534,565.479,1552,561z"/>
	<path d="M343,528c-4.771,7.996-10.079,16.294-14,25c-11.326,3.867-19.196,1.843-28,8c-18.907,13.223-32.728,41.129-64,41
		c-1.382-1.484-3.242-2.919-5-4c-0.251-14.432,4.542-25.666,9-38c-0.333-0.333-0.667-0.667-1-1c-33,0.516-64.51,37.506-64,73
		c1.667,2.333,3.333,4.667,5,7c19.738,4.14,38.45-17.325,42-32c17.336,1.208,43.548-8.625,51-19c0.333,0,0.667,0,1,0
		c-3.93,7.422-25.362,37.338-16,49c0.333,0.667,0.667,1.333,1,2c16.562,0.053,38.274-28.368,44-40c0.333,0,0.667,0,1,0
		c-14.969,31.178-29.391,63.979-47,93c-6.013,9.909-9.406,19.905-15,30c-16.29,29.395-38.816,59.197-66,78
		c-28.111,19.445-69.885,31.783-103,7c-8.011-5.995-14.202-17.982-17-29c-2.027-7.981,2.896-19.011,1-23
		c-0.333-0.333-0.667-0.667-1-1c-16.644,63.545,57.465,89.519,111,66c31.522-13.848,48.563-45.634,66-74
		c27.808-45.238,52.274-93.464,80-139c11.472-18.841,20.01-39.363,31-58c3.191-5.413,5.779-14.855,1-20
		C344.924,528.242,345.076,528.372,343,528z M219,592c-1.151,4.215,2.276,11.001,2,12c-3.202,11.595-15.958,28.846-28,32
		c-1.133-1.188-2.54-2.146-4-3c-1.383-20.771,17.25-60.831,33-66c1.284-0.879,2.468-0.926,5-1
		C226.557,576.854,221.268,583.693,219,592z M288,614c-4.067,5.453-7.111,12.475-14,15c-1.029,0.807-0.246,0.369-2,1
		c-0.333-0.333-0.667-0.667-1-1c2.729-21.817,18.593-56.282,33-66c2.962-1.998,7.169-1.938,10-4c3.666,0,7.333,0,11,0
		C315.915,579.948,300.833,596.797,288,614z"/>
	<path d="M1777,559c-3.597-2.062-17.15,4.119-26,2c-7.489-1.793-12.157-5.794-21-6c-13.716,13.976-29.699,21.202-41,39
		c-0.333,0-0.667,0-1,0c2.666-8.666,5.333-17.334,8-26c-0.808-1.029-0.369-0.246-1-2c-5.516-0.928-17.915,0.598-23,4
		c-0.667,0-1.333,0-2,0c0,1,0,2,0,3c2.055-0.398,1.927-0.248,3-1c4.505,0.261,4.802,1.063,8,2c1.925,10.146-2.84,17.49-6,25
		c-9.066,21.544-18.207,45.239-49,45c-1.133-1.188-2.54-2.146-4-3c-4.873-26.48,23.811-61.851,33-82c3.296-0.089,7.162-0.238,9,1
		c0.667,0,1.333,0,2,0c0-0.667,0-1.333,0-2c-2.836-1.183-4.729-1.928-9-2c0.701-2.696,1.381-4.327,3-6c-1.162-2.223-1.448-1.505-3-3
		c-14.92,0.044-6.952,5.472-14,9c-6.184,3.095-14.928,1.891-21,5c-21.563,11.042-48.324,36.146-48,69c1.525,1.537,2.938,4.091,4,6
		c15.443,0.754,28.04-12.087,35-23c0.333,0,0.667,0,1,0c-1.776,7.903-2.506,14.066-2,23c3.156,3.232,7.338,7.53,10,11
		c13.31,1.078,25.591-1.502,32-10c4.129,0.833,5.269,3.039,7,6c10.842-1.404,13.23-18.074,18-26c10.736-17.839,21.016-37.53,39-48
		c10.144-5.905,18.867,3.499,30,1c8.434-1.893,22.722-4.975,29-10c0.333-0.333,0.667-0.667,1-1C1777.667,559,1777.333,559,1777,559z
		 M1605,619c-3.254,4.292-9.185,6.237-13,10c-2.055-0.399-1.927-0.248-3-1c-0.667,0-1.333,0-2,0c-3.812-20.191,22.437-54.748,35-63
		c4.251-2.792,9.82-3.063,14-6c2,0,4,0,6,0C1631.707,580.5,1618.827,600.762,1605,619z"/>
</g>
</svg>
