<?xml version="1.0" encoding="utf-8"?>
<!-- Generator: Adobe Illustrator 16.0.0, SVG Export Plug-In . SVG Version: 6.00 Build 0)  -->
<!DOCTYPE svg PUBLIC "-//W3C//DTD SVG 1.1//EN" "http://www.w3.org/Graphics/SVG/1.1/DTD/svg11.dtd">
<svg version="1.1" id="Lag_1" xmlns="http://www.w3.org/2000/svg" xmlns:xlink="http://www.w3.org/1999/xlink" x="0px" y="0px"
	 width="1410.529px" height="806.578px" viewBox="0 0 1410.529 806.578" enable-background="new 0 0 1410.529 806.578"
	 xml:space="preserve">
<path fill-rule="evenodd" clip-rule="evenodd" d="M399.546,36.421c-5.198-0.837-9.604-1.873-14.062-2.206
	c-15.455-1.154-30.917-2.372-46.4-2.984c-17.419-0.688-34.912-1.706-52.282-0.81c-17.29,0.892-34.597,3.25-51.662,6.282
	c-23.125,4.109-45.519,11.363-67.035,20.675c-17.498,7.573-34.666,16.129-51.234,25.559c-14.417,8.206-28.405,17.464-41.431,27.719
	c-10.456,8.232-19.394,18.456-28.628,28.155c-11.375,11.947-19.857,25.845-27.127,40.665c-8.242,16.802-11.911,34.395-10.7,52.88
	c1.164,17.771,4.999,34.861,15.833,49.7c6.69,9.162,14.731,16.746,24.278,22.842c1.41,0.899,2.219,2.739,3.307,4.144
	c-0.516,0.662-1.031,1.324-1.547,1.986c-4.237-2.069-8.785-3.677-12.658-6.286c-20.524-13.828-33.064-32.894-36.254-57.61
	C0.807,238.329-0.011,229.414,0,220.552c0.019-15.402,4.05-30.176,10.366-44.037c6.064-13.31,13-26.308,20.596-38.808
	c5.403-8.891,12.19-17.022,18.962-24.98c23.16-27.221,53.37-44.566,85.106-59.551c26.779-12.644,54.988-21.159,83.981-26.812
	c13.31-2.594,26.904-4.044,40.44-5.087c15.991-1.231,32.067-2.137,48.091-1.944c17.312,0.207,34.649,1.395,51.896,3.002
	c13.652,1.272,27.184,3.831,40.771,5.794c0.641,0.093,1.315-0.05,2.476-0.107c2.555-5.798,5.168-11.729,8.025-18.214
	c5.917,4.716,7.451,11.285,8.064,18.076c0.284,3.148,0.561,4.614,4.355,5.617c10.203,2.696,20.16,6.359,30.138,9.857
	c5.861,2.055,9.425,6.405,9.183,10.095c-14.481-5.07-29.072-10.179-44.054-15.424c-2.43,5.635-4.437,10.049-6.253,14.54
	c-6.867,16.982-16.703,32.258-28.481,46.059c-17.027,19.953-34.618,39.45-52.542,58.605c-16.699,17.848-34.009,35.134-51.324,52.393
	c-9.136,9.107-18.78,17.714-28.331,26.396c-16.979,15.435-34.156,30.654-51.076,46.153c-18.546,16.987-36.997,34.081-55.239,51.393
	c-3.362,3.19-5.854,7.457-8.167,11.554c-2.58,4.568-0.539,7.796,4.689,6.852c5.851-1.057,11.746-2.854,17.121-5.391
	c27.457-12.963,52.323-30.124,76.457-48.36c17.622-13.315,35.114-26.811,52.424-40.528c10.813-8.57,21.142-17.748,31.756-26.571
	c10.976-9.123,22.068-18.105,33.045-27.228c8.85-7.354,17.58-14.851,26.405-22.235c10.077-8.432,20.109-16.919,30.326-25.179
	c10.693-8.645,21.54-17.103,32.399-25.54c13.183-10.241,26.235-20.67,39.733-30.481c16.101-11.704,32.43-23.119,48.993-34.158
	c25.444-16.958,51.848-32.326,79.657-45.11c17.772-8.171,36.105-15.041,55.374-18.687c22.167-4.193,44.13-3.862,64.805,6.75
	c14.001,7.187,22.089,19.056,25.624,34.184c0.323,1.387,0.043,2.914,0.043,5.759c-2.444-2.307-4.308-3.611-5.589-5.347
	c-9.793-13.27-22.971-20.65-39.203-22.677c-6.84-0.854-13.713-1.782-20.588-1.943c-19.793-0.465-38.628,4.649-56.78,11.771
	c-15.472,6.07-30.798,12.802-45.427,20.657c-20.54,11.029-40.952,22.499-60.378,35.354c-29.39,19.45-58.128,39.917-86.662,60.614
	c-16.694,12.109-32.493,25.458-48.626,38.335c-18.573,14.824-37.099,29.708-55.59,44.634
	c-14.423,11.641-28.627,23.555-43.176,35.034c-16.059,12.672-32.079,25.434-48.706,37.332
	c-17.498,12.522-35.48,24.407-53.652,35.938c-14.474,9.185-29.758,17.036-46.707,20.728c-4.136,0.9-8.69,0.957-12.878,0.297
	c-6.757-1.064-9.634-8.844-7.302-17.096c3.383-11.968,10.748-21.585,18.249-31.017c21.946-27.596,47.591-51.735,72.52-76.519
	c13.521-13.443,27.591-26.333,41.385-39.503c15.602-14.896,31.391-29.604,46.682-44.812c11.508-11.446,22.569-23.362,33.455-35.408
	c18.834-20.84,38.042-41.396,53.826-64.772C393.681,46.368,396.311,41.695,399.546,36.421z"/>
<path fill-rule="evenodd" clip-rule="evenodd" d="M1261.476,289.366c-5.548,8.011-10.308,15.18-15.378,22.121
	c-5.204,7.124-10.664,14.063-16.149,20.975c-0.684,0.861-2.211,1.053-3.347,1.554c-0.573-1.47-1.661-2.949-1.632-4.407
	c0.13-6.431,0.045-12.939,1.043-19.262c1.519-9.626,3.218-19.319,6.038-28.62c3.211-10.591,8.446-20.424,18.371-26.421
	c3.956-2.391,8.651-3.618,13.099-5.112c2.317-0.779,3.275-1.789,3.453-4.438c0.759-11.298,1.858-22.574,2.871-33.854
	c0.259-2.89-1.124-3.995-3.828-3.74c-3.89,0.368-7.774,0.791-11.662,1.191c-0.111-0.677-0.224-1.354-0.335-2.031
	c2.081-0.39,4.154-0.826,6.245-1.158c2.583-0.41,5.207-0.605,7.765-1.132c2.379-0.49,4.749-1.145,7.021-1.998
	c2.389-0.896,4.656-2.116,7.332-3.359c-1.63,10.403-3.168,20.126-4.675,29.854c-1.625,10.488-3.339,20.964-4.798,31.476
	c-1.778,12.803-3.602,25.611-4.869,38.47c-0.649,6.599-0.451,13.336,0.035,19.961c0.166,2.275,2.115,6.018,3.694,6.266
	c3.507,0.553,8.552,0.594,10.665-1.491c2.977-2.937,4.697-1.56,7.278-0.716c4.124,1.349,8.267,2.767,12.513,3.572
	c4.528,0.859,6.098-2.421,6.608-6.136c0.833-6.058-1.769-11.204-4.842-16.123c-2.418-3.87-4.629-7.952-7.563-11.402
	c-10.362-12.183-2.411-32.193,12.483-37.133c3.508-1.163,7.295-1.542,10.983-2.082c2.551-0.374,4.75,0.715,3.808,3.515
	c-0.867,2.577-0.827,6.798-5.408,6.167c-2.388-0.328-4.698-1.255-7.023-1.977c-6.576-2.04-10.308,0.555-10.374,7.401
	c-0.072,7.536,4.196,13.214,8.466,18.803c5.024,6.575,9.279,13.017,8.729,22.17c-0.654,10.893-13.511,25.269-24.474,23.917
	c-1.969-0.242-3.998-0.13-5.99-0.015c-3.941,0.228-6.533-0.923-5.65-6.544c-8.24,2.52-15.807,4.834-24.909,7.617
	C1258.608,319.21,1259.993,304.804,1261.476,289.366z M1237.588,318.541c4.754-6.703,8.665-11.905,12.241-17.329
	c7.026-10.654,13.204-21.747,14.772-34.697c0.225-1.857-0.583-5.158-1.794-5.658c-8.186-3.381-18.018-1.687-20.873,8.576
	c-4.009,14.406-6.904,28.999-6.008,44.079C1236.002,314.775,1236.725,316,1237.588,318.541z"/>
<path fill-rule="evenodd" clip-rule="evenodd" d="M283.23,667.77c-6.386,12.08-8.218,24.122-9.288,36.285
	c-0.68,7.729-1.025,15.517-0.991,23.275c0.048,10.76,1.048,21.529,0.791,32.273c-0.23,9.616-1.432,19.423-6.746,27.725
	c-6.771,10.579-16.982,16.77-29.315,18.664c-5.875,0.903-12.035,0.615-18.003,0.117c-17.016-1.42-20.152-20.702-14.222-30.68
	c4.388-7.383,10.1-14.208,16.233-20.257c5.265-5.192,7.167-10.442,7.444-17.817c0.668-17.742,4.504-34.944,14.311-50.184
	c6.917-10.75,17.653-15.598,29.725-17.991C276.189,668.582,279.275,668.313,283.23,667.77z M265.186,709.438
	c-12.157,14.06-25.485,28.548-37.658,43.949c-5.949,7.528-11.159,16.034-10.756,26.722c0.462,12.255,5.989,18.908,19.393,20.915
	c7.19,1.076,19.971-3.624,22.631-14.401c2.062-8.354,4.343-16.826,4.875-25.35C264.768,743.636,264.766,725.931,265.186,709.438z
	 M239.725,734.229c4.468-5.017,8.098-8.982,11.606-13.054c8.957-10.394,15.108-22.334,19.224-35.363
	c0.737-2.333,0.412-3.852-2.496-4.793c-7.014-2.271-15.941,1.212-19.643,8.054c-6.77,12.509-8.151,26.29-9.496,40.074
	C238.805,730.328,239.282,731.567,239.725,734.229z"/>
<path fill-rule="evenodd" clip-rule="evenodd" d="M756.91,705.546c9.813-13.562,17.748-28.205,33.19-38.137
	c-0.522,6.075-0.776,11.091-1.416,16.057c-1.505,11.679-3.412,23.309-4.711,35.008c-0.587,5.288-0.349,10.708-0.042,16.043
	c0.26,4.527,3.042,6.249,7.545,5.461c0.994-0.174,2.138,0.506,2.869,1.776c-6.302,2.18-12.686,4.15-18.872,6.618
	c-3.533,1.41-4.873,0.313-4.538-3.025c0.604-6.021,1.557-12.006,2.347-18.008c1.538-11.684,3.072-23.368,4.591-35.054
	c0.419-3.226,0.772-6.46,0.459-9.928c-17.349,17.53-24.872,39.219-26.538,63.539c-2.262,0-4.205,0-6.706,0
	c2.16-21.247,4.324-42.532,6.551-64.429c-10.862,6.033-23.802,38.922-25.955,64.343c-2.185,0-4.401,0-6.083,0
	c1.106-11.925,2.227-23.659,3.275-35.4c0.718-8.029,1.348-16.066,1.986-24.103c0.093-1.159,0.071-2.335,0.003-3.498
	c-0.358-6.12-2.367-7.997-9.949-10.174c7.47-1.411,14.94-2.822,22.927-4.331c-1.87,11.417-3.698,22.579-5.526,33.741
	c0.402,0.146,0.806,0.291,1.208,0.437c6.83-13.374,14.367-26.158,27.233-34.497c0.507,0.19,1.014,0.381,1.521,0.571
	C760.489,680.887,758.699,693.216,756.91,705.546z"/>
<path fill-rule="evenodd" clip-rule="evenodd" d="M629.879,672.464c1.76-0.438,3.502-0.978,5.283-1.293
	c4.323-0.766,8.662-1.446,13.001-2.118c1.178-0.182,2.379-0.213,3.57-0.312c0.056,1.212,0.329,2.461,0.133,3.631
	c-1.688,10.069-3.459,20.125-4.675,30.452c7.692-13.312,14.881-26.876,29.968-35.763c-2.041,13.609-3.868,25.795-5.695,37.98
	c10.357-12.763,17.31-28.08,33.142-37.463c-0.3,4.274-0.324,7.421-0.771,10.507c-1.897,13.101-4.175,26.151-5.782,39.285
	c-0.703,5.746-0.561,11.69,0.011,17.465c0.381,3.849,3.237,5.866,7.509,5.077c1.042-0.193,2.213,0.309,3.324,0.491
	c-0.012,0.417-0.023,0.834-0.036,1.251c-7.382,2.632-14.765,5.264-23.864,8.507c3.041-23.605,5.908-45.862,8.776-68.12
	c-0.557-0.092-1.112-0.184-1.669-0.276c-16.226,18.233-24.375,39.878-25.891,64.129c-2.898,0-4.992,0-6.646,0
	c2.201-21.468,4.381-42.728,6.679-65.145c-8.078,6.42-12.301,14.221-15.055,22.238c-4.259,12.403-7.321,25.265-10.105,38.102
	c-1.014,4.671-2.617,5.821-7.244,4.603c0.744-6.67,1.442-13.304,2.237-19.927c0.526-4.385,1.485-8.735,1.733-13.13
	c0.533-9.422,0.848-18.861,1.031-28.297C639.007,675.92,638.135,675.011,629.879,672.464z"/>
<path fill-rule="evenodd" clip-rule="evenodd" d="M967.397,615.316c-1.106,6.756-2.392,14.414-3.608,22.082
	c-1.664,10.483-3.397,20.958-4.88,31.468c-2.104,14.908-4.264,29.817-5.874,44.782c-0.709,6.59-0.509,13.346-0.019,19.975
	c0.474,6.4,4.312,8.459,10.601,6.496c0.892-0.278,1.77-0.604,3.164-1.083c-0.195,1.32-0.101,2.851-0.489,2.985
	c-7.559,2.616-15.175,5.068-24.279,8.046c1.568-16.066,2.998-30.711,4.405-45.124c-10.953,14.75-22.095,29.754-33.236,44.758
	c-0.72-0.165-1.438-0.33-2.158-0.495c-0.376-2.492-1.187-5.01-1.046-7.474c0.44-7.708,1.191-15.399,1.91-23.089
	c1.522-16.297,6.353-31.511,17.286-43.88c3.547-4.012,9.333-6.459,14.536-8.496c8.434-3.302,8.649-2.906,9.146-11.756
	c0.426-7.596,1.003-15.205,0.866-22.797c-0.053-2.981,4.196-7.184-1.016-8.91c-2.802-0.928-6.342,0.476-9.559,0.646
	c-1.379,0.073-2.781-0.315-4.174-0.493c1.231-0.604,2.403-1.454,3.704-1.773C950.974,619.146,959.298,617.226,967.397,615.316z
	 M920.891,732.444c1.896-0.938,2.084-0.973,2.177-1.086c12.677-15.304,24.011-31.298,26.807-51.73
	c0.52-3.796-1.827-5.008-4.832-5.436c-10.639-1.512-16.837,2.759-19.135,13.478c-1.875,8.743-3.748,17.521-4.878,26.378
	C920.294,719.819,920.891,725.76,920.891,732.444z"/>
<path fill-rule="evenodd" clip-rule="evenodd" d="M389.172,739.082c-0.542,1.616-0.631,3.07-1.147,3.243
	c-7.475,2.492-15.006,4.813-23.991,7.636c1.547-15.884,2.974-30.538,4.38-44.99c-11.008,14.799-22.211,29.859-33.414,44.92
	c-0.661-0.247-1.323-0.494-1.984-0.741c-0.378-2.108-1.249-4.264-1.053-6.316c1.171-12.234,2.129-24.518,4.054-36.644
	c1.901-11.984,7.205-22.885,15.442-31.7c3.667-3.924,9.438-6.239,14.646-8.281c8.005-3.139,8.226-2.767,8.745-11.6
	c0.447-7.594,1.008-15.205,0.873-22.797c-0.054-3.002,4.133-7.235-0.94-8.938c-2.91-0.978-6.626,0.527-9.989,0.774
	c-1.313,0.096-2.654-0.195-3.737-1.359c9.5-2.365,19-4.731,28.521-7.103c-0.933,5.062-2.123,10.888-3.062,16.755
	c-1.628,10.165-3.123,20.351-4.629,30.534c-1.22,8.248-2.715,16.475-3.481,24.768c-1.408,15.242-2.77,30.511-3.346,45.799
	C374.783,740.338,379.205,742.06,389.172,739.082z M342.905,731.624c0.639,0.105,1.277,0.212,1.916,0.317
	c1.839-2.249,3.817-4.398,5.492-6.763c9.712-13.706,19.273-27.481,21.52-44.806c0.485-3.752-1.039-5.618-4.543-6.19
	c-10.415-1.701-17.146,2.774-19.377,13.242c-1.864,8.745-3.749,17.521-4.868,26.378
	C342.306,719.656,342.905,725.678,342.905,731.624z"/>
<path fill-rule="evenodd" clip-rule="evenodd" d="M621.31,207.751c9.395-2.263,18.788-4.526,28.514-6.87
	c-0.626,3.832-1.347,8.115-2.023,12.405c-1.983,12.581-4.074,25.147-5.889,37.753c-2.12,14.736-4.356,29.473-5.83,44.279
	c-0.822,8.271-0.909,16.765,0.012,25.008c0.652,5.842,3.539,6.783,9.338,5.614c1.057-0.214,2.22,0.101,3.334,0.172
	c-0.979,0.701-1.865,1.65-2.954,2.061c-4.721,1.776-9.474,3.479-14.272,5.03c-1.94,0.627-4.027,0.795-7.192,1.384
	c1.573-15.154,3.056-29.432,4.538-43.71c-11.159,15.043-21.17,30.803-35.146,43.436c-1.046-21.069-0.099-41.439,8.942-60.505
	c5.808-12.249,14.494-21.112,28.451-23.806c1.437-0.277,3.471-2.412,3.582-3.815c0.936-11.845,1.492-23.719,2.141-35.586
	c0.035-0.634-0.125-1.277-0.251-2.44c-5.17,0.297-10.188,0.586-15.205,0.874C621.369,208.606,621.339,208.179,621.31,207.751z
	 M604.058,317.136c0.92-0.269,1.435-0.289,1.771-0.544c0.657-0.5,1.282-1.076,1.802-1.717c8.895-10.965,16.202-22.962,21.677-35.92
	c1.908-4.516,1.912-9.88,2.467-14.892c0.131-1.184-0.694-3.201-1.646-3.662c-8.306-4.018-19.047,1.352-21.235,10.424
	c-0.951,3.944-1.799,7.915-2.812,11.843C603.165,293.96,603.775,305.404,604.058,317.136z"/>
<path fill-rule="evenodd" clip-rule="evenodd" d="M795.75,537.575c-7.651,2.46-15.302,4.92-24.481,7.872
	c1.653-15.938,3.138-30.235,4.621-44.534c-11.274,14.869-21.013,30.848-34.471,43.776c-0.613-0.28-1.227-0.561-1.841-0.84
	c0.453-9.848,0.054-19.831,1.599-29.504c1.524-9.543,4.482-18.964,7.77-28.094c4.864-13.508,14.012-22.857,28.556-26.214
	c1.65-0.381,4.068-2.342,4.179-3.725c0.967-12.174,1.494-24.383,2.134-36.582c0.017-0.305-0.159-0.619-0.422-1.566
	c-4.88,0.297-9.896,0.603-14.91,0.908c-0.048-0.456-0.096-0.913-0.144-1.369c9.35-2.234,18.699-4.47,28.485-6.809
	c-0.604,3.597-1.342,7.672-1.962,11.765c-2.354,15.509-4.763,31.01-6.969,46.54c-2.118,14.907-4.254,29.819-5.868,44.785
	c-0.557,5.164-0.222,10.636,0.875,15.714c1.442,6.681,3.419,7.423,9.874,6.107c0.988-0.201,2.109,0.25,3.17,0.399
	C795.88,536.663,795.814,537.119,795.75,537.575z M749.978,526.717c0.69,0.155,1.38,0.31,2.07,0.465
	c0.618-0.515,1.329-0.951,1.842-1.556c9.473-11.172,16.904-23.667,22.587-37.075c1.908-4.502,1.775-9.906,2.301-14.928
	c0.108-1.034-0.714-2.773-1.594-3.211c-8.164-4.06-19.098,1.331-21.286,10.356c-0.956,3.943-2.256,7.856-2.702,11.861
	C751.93,503.971,751.024,515.352,749.978,526.717z"/>
<path fill-rule="evenodd" clip-rule="evenodd" d="M997.92,207.727c9.492-2.307,18.985-4.613,28.291-6.875
	c-2.714,16.88-5.685,34.15-8.211,51.485c-1.699,11.665-2.951,23.404-4.069,35.143c-0.936,9.831-1.619,19.7-1.979,29.568
	c-0.286,7.825,3.182,10.354,10.794,8.787c0.938-0.192,2.034,0.384,3.057,0.604c-0.769,0.573-1.456,1.374-2.32,1.683
	c-5.059,1.807-10.136,3.567-15.255,5.191c-1.822,0.578-3.779,0.732-7.073,1.337c1.455-15.291,2.833-29.784,4.304-45.243
	c-4.875,7.007-9.077,13.303-13.545,19.405c-5.786,7.902-11.743,15.681-17.744,23.421c-0.703,0.907-2.296,1.864-3.211,1.652
	c-0.862-0.2-1.943-1.919-1.934-2.96c0.032-3.263,0.822-6.523,0.805-9.782c-0.085-15.388,1.878-30.434,8.132-44.586
	c4.983-11.276,11.402-21.239,24.576-24.825c8.956-2.438,8.767-2.897,9.357-12.42c0.571-9.19,1.28-18.371,1.964-27.554
	c0.221-2.974-1.381-3.848-3.981-3.599c-3.883,0.371-7.761,0.795-11.641,1.196C998.131,208.813,998.025,208.27,997.92,207.727z
	 M981.544,318.428c4.391-6.079,8.147-10.956,11.555-16.065c7.355-11.027,13.796-22.513,15.589-35.939
	c0.227-1.694-0.07-4.482-1.138-5.153c-5.85-3.679-17.41-2.445-19.987,4.729c-1.636,4.556-2.749,9.3-4.075,13.965
	c-3.082,10.848-4.005,21.939-3.557,33.159C979.986,314.518,980.746,315.886,981.544,318.428z"/>
<path fill-rule="evenodd" clip-rule="evenodd" d="M540.946,707.165c-2.085,12.756-4.169,25.512-6.318,38.662
	c-1.299,0.115-2.713,0.24-4.671,0.414c0-3.918-0.288-7.561,0.058-11.141c0.789-8.147,2.047-16.249,2.828-24.397
	c1.444-15.047,2.718-30.111,3.989-45.175c0.458-5.421,0.728-10.858,1.04-16.29c0.359-6.262,0.83-12.521,0.963-18.789
	c0.143-6.718-2.396-8.876-8.881-8.371c-1.376,0.107-2.814-0.593-3.954-1.932c8.48-1.757,16.962-3.514,25.18-5.217
	c-1.717,12.944-3.649,26.448-5.263,39.989c-1.63,13.678-2.943,27.395-3.938,41.327c8.986-12.989,18.745-24.938,33.204-32.366
	c2.816,15.507-3.599,35.794-20.42,42.437c-0.706,0.279-1.454,2.098-1.205,2.893c2.233,7.124,4.284,14.354,7.233,21.187
	c1.639,3.796,4.137,8.315,10.03,4.904c0.845-0.488,2.386,0.229,3.943,1.604c-6.672,4.185-13.344,8.37-20.02,12.558
	c-4.521-14.391-4.714-29.491-11.792-42.5C542.284,707.029,541.615,707.098,540.946,707.165z M564.095,676.055
	c-9.667,7.645-15.176,17.106-19.41,27.822c6.287,3.289,11.26,0.312,14.672-3.189C565.605,694.274,567.147,686.073,564.095,676.055z"
	/>
<path fill-rule="evenodd" clip-rule="evenodd" d="M367.95,415.588c8.485-1.685,16.971-3.369,24.96-4.956
	c-3.192,26.707-6.399,53.548-9.607,80.388c0.406,0.134,0.812,0.267,1.218,0.4c8.235-11.739,17.176-22.783,29.624-30.313
	c0.907-0.549,2.046-0.717,3.139-1.083c2.682,16.086-4.025,35.223-22.933,42.937c2.949,7.964,5.721,16.043,8.953,23.934
	c1.725,4.21,4.68,6.769,9.657,3.812c0.854-0.507,2.266-0.071,3.42-0.071c0.202,0.536,0.403,1.072,0.605,1.609
	c-6.68,4.177-13.359,8.354-20.328,12.711c-3.095-13.067-5.847-25.113-8.895-37.083c-0.443-1.744-2.3-3.128-3.503-4.678
	c-0.794,1.785-1.995,3.5-2.315,5.366c-1.883,10.942-3.56,21.921-5.368,33.278c-1.271,0.106-2.684,0.225-4.619,0.387
	c0-4.26-0.287-8.235,0.058-12.155c0.79-8.979,1.952-17.925,2.848-26.896c1.369-13.724,2.665-27.454,3.938-41.188
	c0.441-4.757,0.775-9.524,1.058-14.293c0.39-6.595,0.859-13.19,0.978-19.791c0.172-9.549-0.897-10.55-10.125-10.76
	c-0.819-0.019-1.637-0.126-2.455-0.192C368.153,416.495,368.052,416.042,367.95,415.588z M405.486,472.344
	c-8.299,6.498-13.81,14.897-17.692,24.57c-1.476,3.676,0.048,4.499,3.191,4.209C404.705,499.854,411.523,481.489,405.486,472.344z"
	/>
<path fill-rule="evenodd" clip-rule="evenodd" d="M1123.824,333.719c0.743-6.8,1.441-13.311,2.17-19.817
	c0.948-8.468,2.024-16.922,2.86-25.4c1.401-14.223,3.056-28.438,3.848-42.698c0.639-11.484,0.175-23.031,0.169-34.55
	c-0.001-3.17-2.074-3.315-4.476-2.935c-2.376,0.378-4.76,0.713-7.141,1.066c-0.135-0.52-0.271-1.038-0.406-1.557
	c8.437-2.418,16.873-4.837,25.813-7.399c-3.226,27.298-6.462,54.674-9.775,82.716c5.272-6.579,9.706-12.853,14.914-18.399
	c5.086-5.419,10.961-10.097,16.489-15.1c0.437,0.217,0.873,0.435,1.309,0.651c-0.288,4.052-0.448,8.117-0.892,12.151
	c-0.859,7.812-2.333,15.583-2.738,23.413c-1,19.281-9.038,34.351-25.747,44.273C1135.519,332.928,1130.322,335.287,1123.824,333.719
	z M1157.852,262.864c-1.667,0.892-2.196,1.021-2.494,1.356c-12.049,13.588-20.387,29.094-23.382,47.104
	c-1.305,7.84-0.373,9.044,5.172,10.458c4.509,1.15,12-0.393,13.895-6.34c1.958-6.148,3.782-12.432,4.704-18.796
	c1.198-8.276,1.497-16.688,2.077-25.048C1158.007,268.941,1157.852,266.262,1157.852,262.864z"/>
<path fill-rule="evenodd" clip-rule="evenodd" d="M224.125,554.221c-1.741-0.867-3.46-1.724-5.548-2.764
	c4.119-4.555,3.372-8.696,0.726-13.873c-4.106-8.03-2.756-17.142-2.072-25.791c0.456-5.771,2.021-11.535,3.727-17.107
	c3.346-10.927,10.128-19.721,18.391-27.409c1.154-1.074,2.761-1.752,4.264-2.343c2.696-1.062,6.212-1.199,8.017-3.054
	c1.971-2.025,2.389-5.562,3.517-8.526c1.632,1.093,3.112,2.085,5.147,3.448c-4.91,6.299-1.758,12.5-0.889,19.256
	c3.029,23.543-0.263,45.866-19.102,62.994c-2.531,2.302-5.98,3.779-9.234,5.047C227.817,545.364,227.493,545.32,224.125,554.221z
	 M229.561,525.131c5.471-15.322,10.644-29.097,15.089-43.102c0.596-1.878-2.144-5.24-4.049-7.237
	c-0.601-0.63-3.764,0.588-5.304,1.628c-1.395,0.94-2.541,2.648-3.169,4.263C226.668,494.708,225.028,509.027,229.561,525.131z
	 M247.455,489.236c-4.893,13.792-9.786,27.584-14.636,41.253c7.204,5.367,9.677,4.879,13.032-2.273
	c0.41-0.874,0.724-1.797,1.029-2.715C250.844,513.596,250.724,501.536,247.455,489.236z"/>
<path fill-rule="evenodd" clip-rule="evenodd" d="M534.269,601.545c1.445-4.297,2.674-8.466,4.32-12.463
	c0.389-0.942,2.147-1.76,3.341-1.857c7.923-0.655,13.352-4.341,14.995-12.359c2.45-11.951,5.095-23.889,6.842-35.949
	c2.137-14.758,3.53-29.627,5.048-44.467c0.701-6.859,0.933-13.767,1.409-21.145c-2.45-0.515-5.079-1.068-8.615-1.812
	c8.985-4.658,10.592-12.98,12.302-21.334c1.106-5.403,2.184-10.875,4.016-16.053c3.45-9.753,10.174-17.199,18.766-22.656
	c2.275-1.445,6.054-1.093,8.964-0.573c0.733,0.131,1.838,4.859,0.917,6.12c-1.65,2.259-4.646,3.596-7.215,5.083
	c-0.75,0.435-1.965,0.014-2.96,0.083c-8.265,0.577-10.694,3.029-11.533,11.37c-0.951,9.463-1.938,18.923-3.01,28.372
	c-0.45,3.972,1.436,5.345,5.098,5.261c3.477-0.079,6.956-0.017,11.058,1.055c-0.812,0.64-1.545,1.665-2.451,1.854
	c-3.988,0.83-8.092,1.178-12.013,2.224c-1.414,0.377-3.326,2.105-3.496,3.414c-1.271,9.759-1.834,19.615-3.252,29.349
	c-1.929,13.23-4.637,26.348-6.613,39.572c-2.2,14.721-7.279,28.387-14.344,41.354c-2.172,3.986-4.984,7.641-7.668,11.328
	C545.03,601.633,540.743,603.132,534.269,601.545z"/>
<path fill-rule="evenodd" clip-rule="evenodd" d="M1091.536,467.861c7.77-1.315,14.807-2.507,22.32-3.779
	c-5.579,21.828-7.366,43.592-8.026,65.604c16.507-18.713,23.493-41.564,29.477-65.191c1.359,0,2.889,0,3.626,0
	c-1.371,13.596-2.981,26.918-3.959,40.286c-0.561,7.66-0.313,15.402-0.022,23.093c0.246,6.515,3.456,8.646,9.934,7.378
	c0.891-0.175,1.874,0.125,2.814,0.206c0.144,0.548,0.288,1.097,0.432,1.645c-7.819,2.586-15.64,5.171-24.88,8.226
	c0.896-13.506,1.68-25.319,2.482-37.428c-4.017,6.094-7.812,12.032-11.796,17.841c-3.229,4.708-6.552,9.365-10.106,13.827
	c-1.391,1.745-3.344,3.286-5.364,4.226c-2.915,1.355-4.871-0.435-4.543-3.568c1.349-12.886,2.812-25.763,3.898-38.671
	c0.666-7.906,0.666-15.865,1.079-23.795c0.218-4.163-0.048-7.759-5.536-7.934C1092.84,469.81,1092.348,468.767,1091.536,467.861z"/>
<path fill-rule="evenodd" clip-rule="evenodd" d="M880.643,748.742c3.857-22.169,6.73-44.508,7.216-67.193
	c-16.747,18.271-23.49,40.815-28.534,64.377c-1.51,0-3.126,0-5.58,0c0.382-2.568,0.815-5.045,1.107-7.537
	c0.706-6.027,1.563-12.047,1.967-18.096c0.824-12.355,1.539-24.722,2.005-37.095c0.293-7.79,0.055-7.8-7.607-9.549
	c-0.108-0.442-0.218-0.884-0.327-1.326c7.114-1.089,14.229-2.178,21.809-3.338c-2.015,12.084-4.124,24.74-6.233,37.396
	c0.404,0.149,0.808,0.299,1.212,0.448c8.673-14.369,15.951-29.906,32.231-39.58c-0.434,5.784-0.611,10.462-1.166,15.095
	c-1.185,9.91-2.727,19.779-3.805,29.699c-0.658,6.063-0.907,12.188-1.015,18.29c-0.147,8.448,0.956,9.385,9.408,9.318
	c0.509-0.004,1.023,0.686,2.372,1.65C897.067,743.866,889.177,746.209,880.643,748.742z"/>
<path fill-rule="evenodd" clip-rule="evenodd" d="M851.903,541.45c0.766-7.647,1.483-15.301,2.317-22.94
	c0.443-4.062,1.391-8.088,1.584-12.155c0.511-10.751,0.707-21.517,1.091-32.273c0.095-2.671-0.814-3.987-3.699-4.007
	c-1.476-0.01-2.946-0.828-4.061-2.214c7.112-1.053,14.224-2.105,21.458-3.176c-2.068,12.381-4.152,24.854-6.236,37.328
	c0.292,0.079,0.583,0.158,0.875,0.237c4.756-7.433,9.133-15.147,14.391-22.205c4.024-5.402,9.092-10.044,13.87-14.851
	c0.841-0.846,2.543-0.835,4.613-1.446c-0.937,7.938-1.928,15.047-2.585,22.186c-1.311,14.234-2.655,28.472-3.525,42.735
	c-0.318,5.225,2.915,6.983,11.02,8.168c-7.87,2.363-15.74,4.727-23.687,7.112c2.663-22.125,5.326-44.253,7.989-66.381
	c-0.661-0.312-1.323-0.625-1.984-0.938c-3.151,4.175-6.795,8.069-9.363,12.576c-8.865,15.552-14.494,32.337-18.253,49.815
	c-0.336,1.561-2.826,2.658-4.315,3.971C852.902,542.479,852.403,541.965,851.903,541.45z"/>
<path fill-rule="evenodd" clip-rule="evenodd" d="M963.071,536.902c-7.828,2.308-15.656,4.614-23.732,6.995
	c2.657-22.033,5.324-44.15,8.129-67.407c-6.622,3.509-9.314,8.809-12.096,13.786c-8.571,15.341-14.036,31.83-17.675,48.997
	c-0.312,1.471-3.013,2.435-4.604,3.634c-0.386-0.424-0.772-0.849-1.158-1.272c0.719-7.637,1.376-15.278,2.18-22.905
	c0.463-4.389,1.464-8.735,1.697-13.13c0.528-9.916,0.668-19.852,1.098-29.774c0.158-3.644-0.238-6.353-4.979-5.77
	c-0.976,0.12-2.088-0.868-4.409-1.924c8.62-1.294,15.717-2.358,23.056-3.46c-2.042,12.305-4.125,24.856-6.209,37.409
	c9.66-14.102,17.389-29.253,32.146-38.439c0.484,0.253,0.97,0.505,1.454,0.758c-0.789,7.104-1.688,14.198-2.346,21.314
	c-1.316,14.228-2.725,28.453-3.632,42.709c-0.355,5.577,3.33,7.714,10.423,7.086C962.633,535.974,962.852,536.438,963.071,536.902z"
	/>
<path fill-rule="evenodd" clip-rule="evenodd" d="M305.354,477.032c-15.68,18.688-22.618,41.291-27.693,64.881
	c-1.909,0-3.662,0-5.209,0c0.826-9.141,1.682-18.064,2.429-26.997c1.042-12.453,1.979-24.915,3.008-37.369
	c0.382-4.631-0.496-8.008-6.293-7.507c-0.62,0.054-1.347-1.129-2.333-2.017c7.855-1.222,14.894-2.315,22.009-3.422
	c-2.182,12.723-4.411,25.717-6.639,38.712c9.868-14.062,16.487-30.494,33.543-40.17c-0.525,6.891-0.767,12.45-1.408,17.963
	c-1.172,10.07-2.688,20.101-3.849,30.171c-0.584,5.066-1.071,10.193-0.953,15.277c0.177,7.625,3.169,9.942,10.658,8.746
	c0,0.812,0.177,2.182-0.025,2.24c-7.707,2.234-15.449,4.348-22.804,6.371c2.644-22.146,5.279-44.227,7.915-66.308
	C306.926,477.413,306.14,477.223,305.354,477.032z"/>
<path fill-rule="evenodd" clip-rule="evenodd" d="M563.843,333.871c2.684-22.648,5.268-44.458,7.852-66.268
	c-0.775-0.188-1.55-0.376-2.325-0.564c-15.728,18.672-22.582,41.317-27.764,64.943c-1.062,0.059-2.027,0.157-2.993,0.149
	c-0.801-0.006-1.601-0.139-2.164-0.192c0.83-9.177,1.686-18.103,2.434-27.038c1.041-12.453,1.978-24.915,3.009-37.369
	c0.385-4.647-0.526-7.996-6.31-7.493c-0.613,0.053-1.336-1.143-2.289-2.018c7.834-1.22,14.873-2.315,21.982-3.422
	c-2.183,12.728-4.411,25.718-6.639,38.707c9.863-14.072,16.5-30.486,32.175-39.396c0.49,0.209,0.981,0.417,1.472,0.626
	c-0.918,8.438-1.871,16.874-2.745,25.317c-1.25,12.07-2.842,24.125-3.515,36.229c-0.438,7.873,2.983,10.409,10.589,9.237
	c0,0.805,0.176,2.174-0.025,2.231C578.797,329.795,570.973,331.919,563.843,333.871z"/>
<path fill-rule="evenodd" clip-rule="evenodd" d="M1123.369,737.04c-7.497,4.775-15.424,8.783-24.378,13.234
	c-1.182-15.577,2.135-29.49,4.037-45.065c-11.905,16.463-21.26,33.161-38.14,44.767c-0.193-20.423,2.798-38.928,11.762-56.172
	c5.906-11.362,14.893-19.295,27.193-23.034c4.304-1.309,8.901-1.648,13.579-2.469c-1.654,5.949-3.754,11.668-4.77,17.572
	c-1.635,9.508-2.648,19.128-3.736,28.722c-0.557,4.907-0.82,9.857-0.977,14.796c-0.056,1.738,0.377,3.585,0.986,5.234
	c1.349,3.654,3.596,5.193,7.43,2.783c1.778-1.117,3.841-1.782,5.775-2.652C1122.544,735.517,1122.957,736.278,1123.369,737.04z
	 M1077.232,734.641c3.116-3.614,5.937-6.566,8.396-9.794c9.256-12.146,16.965-25.114,20.999-40.032
	c0.781-2.889-0.557-4.021-2.854-4.584c-6.794-1.663-16.594,2.595-19.396,9.056c-5.791,13.349-8.185,27.482-8.444,41.986
	C1075.917,732.104,1076.556,732.947,1077.232,734.641z"/>
<path fill-rule="evenodd" clip-rule="evenodd" d="M609.794,668.062c4.139,0.512,7.272,1.414,8.662,6.014
	c5.031,16.654,2.912,32.826-2.548,48.857c-3.548,10.417-10.789,17.773-19.838,23.61c-7.663,4.942-13.487,2.974-16.269-5.579
	c-3.422-10.524-1.978-21.104-0.522-31.731c1.778-12.988,8.555-23.473,16.476-33.337C599.33,671.443,604.152,668.655,609.794,668.062
	z M599.833,677.328c-2.543,3.351-5.949,6.313-7.415,10.039c-5.543,14.088-6.28,28.56-1.543,43.117
	c1.427,4.385,6.254,9.181,9.179,8.451c4.233-1.056,6.588-4.302,7.856-8.462c3.169-10.386,3.885-21.113,2.709-31.703
	C609.778,691.199,608.289,683.149,599.833,677.328z"/>
<path fill-rule="evenodd" clip-rule="evenodd" d="M219.155,692.577c-1.153,14.077-2.188,28.073-10.541,39.55
	c-4.482,6.158-10.983,11.094-17.267,15.618c-4.997,3.597-11.049,0.546-13.525-5.216c-4.167-9.696-3.029-19.653-1.782-29.582
	c1.536-12.231,6.329-23.257,13.956-32.885c2.825-3.565,6.166-7.188,10.068-9.344c10.196-5.637,15.274-2.24,17.701,8.906
	C218.703,683.933,218.737,688.438,219.155,692.577z M209.901,706.432c-1.88-6.919-3.566-14.512-6.129-21.796
	c-0.888-2.523-4.071-6.054-5.997-5.928c-2.322,0.151-5.238,3.305-6.484,5.851c-7.28,14.865-7.453,30.426-3.09,46.093
	c1.231,4.423,4.877,8.021,9.355,8.111c4.126,0.084,6.604-3.634,7.434-7.932C206.497,723.024,208.121,715.241,209.901,706.432z"/>
<path fill-rule="evenodd" clip-rule="evenodd" d="M593.878,521.698c-0.365-20.245,5.526-38.068,20.368-52.39
	c3.256-3.142,6.98-5.019,11.739-5.268c5.159-0.27,7.402,2.335,8.924,6.661c3.179,9.037,2.777,18.421,1.766,27.557
	c-1.292,11.67-3.771,23.388-11.842,32.604c-5.507,6.288-11.134,13.189-20.643,13.115c-2.132-0.017-4.819-1.726-6.255-3.473
	C594.437,536.247,593.878,532.249,593.878,521.698z M628.251,503.911c-1.843-8.018-3.264-15.861-5.601-23.422
	c-0.77-2.487-3.819-5.776-5.989-5.903c-2.187-0.127-4.678,3.108-6.828,5.097c-0.907,0.839-1.499,2.188-1.865,3.417
	c-2.875,9.633-5.342,19.453-3.925,29.523c0.82,5.829,2.412,11.874,5.151,17.028c3.525,6.635,10.723,6.179,13.159-0.839
	C625.102,520.898,626.304,512.448,628.251,503.911z"/>
<path fill-rule="evenodd" clip-rule="evenodd" d="M840.397,729.507c-6.061,5.576-11.465,11.245-17.58,15.999
	c-7.842,6.096-16.929,6.04-19.629-8.117c-3.651-19.147-0.369-37.65,9.929-54.233c3.978-6.406,9.691-12.088,17.627-14.432
	c8.773-2.591,13.874,2.215,12.221,11.137c-1.578,8.516-7.59,13.693-13.447,18.899c-4.866,4.325-10.372,7.929-15.555,11.904
	c-0.763,0.586-1.562,1.358-1.904,2.22c-1.991,5.006,3.529,19.667,8.344,22.406c5.1,2.902,8.31,1.822,12.487-4.2
	C835.964,726.658,836.643,726.451,840.397,729.507z M811.371,708.042c2.475-1.564,3.658-2.108,4.591-2.936
	c5.853-5.193,12.586-9.943,13.515-18.487c0.258-2.374-1.221-5.586-2.967-7.376c-2.65-2.717-5.181-0.09-6.998,1.904
	c-1.495,1.641-2.892,3.703-3.441,5.812C814.374,693.475,813.103,700.102,811.371,708.042z"/>
<path fill-rule="evenodd" clip-rule="evenodd" d="M1009.555,729.686c-6.929,6.001-13.358,12.439-20.664,17.649
	c-7.22,5.15-14.898,0.648-16.771-9.966c-3.39-19.215-0.272-37.666,10.01-54.244c3.97-6.401,9.706-12.084,17.643-14.423
	c8.757-2.58,13.856,2.257,12.189,11.191c-1.588,8.509-7.607,13.684-13.471,18.886c-4.87,4.322-10.371,7.93-15.552,11.908
	c-0.761,0.585-1.551,1.367-1.888,2.229c-1.863,4.774,3.548,19.32,7.881,22.288c5.281,3.616,9.76,0.771,12.988-4.134
	C1004.811,726.68,1005.73,726.488,1009.555,729.686z M980.351,708.086c2.452-1.58,3.616-2.144,4.554-2.965
	c5.892-5.156,12.607-9.904,13.547-18.449c0.263-2.389-1.152-5.622-2.887-7.413c-2.593-2.676-5.226-0.241-7.007,1.845
	c-1.542,1.808-2.953,4.02-3.554,6.283C983.319,693.739,982.083,700.211,980.351,708.086z"/>
<path fill-rule="evenodd" clip-rule="evenodd" d="M431.78,729.195c-6.524,5.932-12.106,11.893-18.564,16.67
	c-9.482,7.016-16.981,3.08-19.303-9.641c-2.985-16.353,0.06-32.068,6.587-46.97c4.167-9.511,11.226-17.193,21.457-20.497
	c6.79-2.192,14.046,0.077,12.057,10.816c-1.62,8.741-7.669,14.001-13.664,19.304c-4.879,4.314-10.365,7.939-15.535,11.932
	c-0.75,0.579-1.499,1.406-1.803,2.274c-1.623,4.64,3.52,19.279,7.63,22.01c4.802,3.191,9.222,1.923,13.199-3.71
	C425.524,728.998,426.812,725.361,431.78,729.195z M402.37,708.043c2.476-1.565,3.659-2.109,4.592-2.937
	c5.853-5.193,12.586-9.943,13.515-18.487c0.258-2.374-1.221-5.586-2.967-7.376c-2.65-2.717-5.181-0.09-6.998,1.904
	c-1.495,1.641-2.893,3.703-3.441,5.811C405.374,693.475,404.103,700.102,402.37,708.043z"/>
<path fill-rule="evenodd" clip-rule="evenodd" d="M1215.188,314.803c-6.332,5.83-12.155,11.486-18.3,16.768
	c-6.421,5.521-14.701,3.357-17.528-4.479c-6.571-18.217,0.281-53.429,15.115-66.056c4.841-4.121,9.811-7.529,16.695-6.951
	c5.178,0.435,8.552,4.634,7.386,9.784c-2.239,9.886-8.821,16.494-16.573,22.273c-3.802,2.835-7.533,5.765-11.264,8.693
	c-0.78,0.611-1.514,1.332-2.105,2.124c-4.404,5.899-0.456,11.419,1.527,16.539c1.311,3.383,4.636,6.81,7.936,8.397
	c4.392,2.113,6.775-2.672,9.756-5.108C1209.669,315.286,1210.844,311.289,1215.188,314.803z M1186.701,291.849
	c1.113,0.132,1.736,0.413,2.041,0.212c7.816-5.163,14.618-11.261,15.907-21.147c0.256-1.965-1.387-4.98-3.087-6.122
	c-1.197-0.805-4.552,0.121-5.91,1.385c-2.056,1.913-3.821,4.609-4.626,7.298C1189.237,279.448,1188.121,285.624,1186.701,291.849z"
	/>
<path fill-rule="evenodd" clip-rule="evenodd" d="M1068.295,314.706c-6.45,5.938-12.273,11.595-18.418,16.877
	c-6.406,5.508-14.72,3.325-17.527-4.505c-6.553-18.273,0.303-53.432,15.138-66.055c4.843-4.121,9.818-7.521,16.7-6.939
	c5.172,0.436,8.523,4.64,7.362,9.799c-2.228,9.9-8.842,16.479-16.583,22.262c-3.8,2.839-7.53,5.771-11.26,8.702
	c-0.779,0.612-1.517,1.33-2.105,2.124c-4.381,5.903-0.437,11.423,1.543,16.543c1.307,3.381,4.647,6.799,7.948,8.382
	c4.397,2.108,6.805-2.644,9.738-5.14C1062.681,315.182,1063.948,311.516,1068.295,314.706z M1039.734,291.46
	c0.409,0.396,0.819,0.793,1.229,1.189c1.822-1.46,3.505-3.152,5.491-4.336c6.534-3.895,9.837-10.01,11.13-17.07
	c0.367-2.007-1.424-5.116-3.182-6.529c-0.981-0.789-4.505,0.269-5.857,1.564c-2.025,1.941-3.725,4.651-4.539,7.344
	C1042.239,279.464,1041.119,285.502,1039.734,291.46z"/>
<path fill-rule="evenodd" clip-rule="evenodd" d="M865,314.952c-6.312,5.824-12.413,11.902-19.001,17.396
	c-5.961,4.972-15.208,1.473-17.026-6.351c-5.047-21.708-1.201-42.029,11.298-60.306c4.634-6.775,11.155-12.147,20.583-11.589
	c5.555,0.328,8.838,4.488,7.626,9.93c-2.215,9.941-8.954,16.359-16.662,22.166c-4.451,3.352-8.762,6.907-12.93,10.604
	c-1.069,0.948-1.991,2.816-1.901,4.19c0.43,6.574,1.946,12.904,6.364,18.079c3.74,4.381,7.642,4.422,11.742,0.356
	c1.657-1.641,3.148-3.501,5.005-4.868c1.093-0.806,2.753-0.842,4.158-1.224C864.504,313.874,864.752,314.413,865,314.952z
	 M836.534,292.317c8.852-2.592,18.667-14.763,18.176-22.189c-0.13-1.971-1.729-4.722-3.388-5.454
	c-1.488-0.658-4.558,0.386-5.901,1.717c-1.992,1.975-3.623,4.701-4.436,7.4C839.231,279.621,838.096,285.637,836.534,292.317z"/>
<path fill-rule="evenodd" clip-rule="evenodd" d="M1406.783,315.18c-5.965,5.492-11.778,11.161-17.935,16.431
	c-6.877,5.887-15.794,2.809-17.942-5.973c-4.747-19.414-1.14-37.73,8.003-55.03c3.875-7.331,9.687-13.242,17.944-15.902
	c7.476-2.408,12.57-0.376,13.567,5.86c0.45,2.81-0.58,6.123-1.734,8.875c-3.924,9.35-12.283,14.639-19.767,20.684
	c-1.646,1.329-3.521,2.374-5.167,3.703c-3.986,3.22-6.611,6.874-3.967,12.331c2.165,4.464,3.557,9.408,6.299,13.457
	c2.671,3.945,7.117,3.636,10.571,0.265c1.788-1.745,3.386-3.723,5.346-5.238c1.083-0.838,2.736-0.939,4.133-1.372
	C1406.351,313.906,1406.567,314.543,1406.783,315.18z M1378.534,292.32c8.862-2.606,18.672-14.775,18.176-22.196
	c-0.132-1.971-1.733-4.72-3.393-5.451c-1.488-0.657-4.557,0.389-5.899,1.721c-1.991,1.976-3.621,4.702-4.433,7.401
	C1381.231,279.625,1380.096,285.641,1378.534,292.32z"/>
<path fill-rule="evenodd" clip-rule="evenodd" d="M1007,524.953c-6.313,5.825-12.415,11.905-19.005,17.398
	c-5.961,4.969-15.207,1.463-17.022-6.359c-5.037-21.707-1.21-42.031,11.3-60.305c4.638-6.773,11.159-12.144,20.586-11.585
	c5.551,0.328,8.832,4.492,7.618,9.935c-2.216,9.939-8.952,16.359-16.664,22.163c-4.452,3.35-8.761,6.908-12.928,10.605
	c-1.069,0.948-1.987,2.816-1.898,4.192c0.424,6.576,1.951,12.902,6.368,18.076c3.737,4.378,7.64,4.416,11.742,0.351
	c1.656-1.642,3.148-3.502,5.005-4.869c1.091-0.804,2.751-0.836,4.154-1.216C1006.504,523.878,1006.752,524.416,1007,524.953z
	 M978.715,501.604c0.888,0.302,1.235,0.559,1.474,0.48c7.057-2.29,16.553-14.249,16.496-21.573c-0.017-2.058-1.744-4.728-3.5-5.914
	c-1.072-0.725-4.305,0.264-5.485,1.509c-2.054,2.167-3.844,4.951-4.718,7.792C981.194,489.707,980.089,495.725,978.715,501.604z"/>
<path fill-rule="evenodd" clip-rule="evenodd" d="M458.198,524.793c-6.332,5.83-12.155,11.485-18.3,16.767
	c-6.425,5.523-14.691,3.374-17.529-4.458c-6.585-18.171,0.263-53.427,15.097-66.057c4.841-4.122,9.805-7.538,16.691-6.962
	c5.183,0.435,8.576,4.628,7.403,9.772c-2.25,9.873-8.801,16.509-16.563,22.283c-3.804,2.831-7.535,5.761-11.268,8.687
	c-0.779,0.611-1.512,1.333-2.105,2.125c-4.423,5.896-0.469,11.415,1.515,16.533c1.312,3.387,4.627,6.819,7.924,8.412
	c4.392,2.121,6.78-2.658,9.762-5.098C452.658,525.296,453.83,521.307,458.198,524.793z M429.598,501.998
	c8.29-1.404,19.478-15.563,18.114-22.548c-0.363-1.86-1.936-4.245-3.546-4.876c-1.47-0.576-4.349,0.333-5.526,1.595
	c-2.036,2.183-3.791,4.974-4.673,7.817C432.206,489.668,431.115,495.559,429.598,501.998z"/>
<path fill-rule="evenodd" clip-rule="evenodd" d="M1085.827,464.876c-1.624,14.209-3.08,28.789-4.999,43.308
	c-2.72,20.569-2.62,41.635-9.168,61.529c-2.858,8.687-7.472,16.906-12.1,24.865c-3.956,6.804-10.544,9.104-18.739,6.993
	c0.887-2.188,2.136-4.344,2.625-6.66c1.245-5.889,4.156-8.735,10.609-7.881c4.321,0.572,7.453-2.562,8.408-6.305
	c2.211-8.658,4.062-17.455,5.315-26.301c1.702-12.011,3.161-24.091,3.9-36.192c0.859-14.066,1.018-28.188,1.056-42.286
	c0.011-3.811-2.498-6.3-6.961-5.893c-0.882,0.08-1.873-1.054-2.814-1.628c0.916-0.424,1.8-1.111,2.755-1.23
	C1072.622,466.334,1079.544,465.587,1085.827,464.876z"/>
<path fill-rule="evenodd" clip-rule="evenodd" d="M796.147,257.756c7.729-1.016,15.459-2.03,22.542-2.96
	c-1.912,17.746-3.626,35.907-5.891,54c-1.988,15.885-4.185,31.768-7.067,47.509c-1.955,10.671-7.093,20.254-13.561,28.975
	c-4.804,6.478-7.913,7.469-18.354,6.535c1.049-2.788,2.227-5.406,3.019-8.136c1.337-4.609,3.58-7.364,9.033-6.612
	c5.225,0.721,8.772-2.42,9.848-7.105c2.109-9.19,3.763-18.511,5.089-27.851c1.591-11.194,3.12-22.436,3.809-33.71
	c0.869-14.229,1.052-28.512,1.088-42.772c0.008-3.146-2.113-5.845-6.243-5.555c-1.22,0.086-2.505-0.75-3.759-1.163
	C795.849,258.525,795.998,258.141,796.147,257.756z"/>
<path fill-rule="evenodd" clip-rule="evenodd" d="M522.248,313.712c-2.278,5.399-7.147,8.233-10.727,12.117
	c-1.428,1.548-3.418,2.573-4.867,4.106c-3.787,4.006-8.665,5.276-13.565,3.994c-4.472-1.17-6.321-5.69-7.074-9.902
	c-2.161-12.105-1.524-24.112,1.398-36.138c2.765-11.379,7.726-21.351,17.014-28.513c3.404-2.625,8.028-4.582,12.277-5.001
	c8.02-0.792,10.917,3.913,8.578,11.942c-2.86,9.813-10.441,15.649-17.877,21.607c-3.429,2.747-7.148,5.133-10.543,7.917
	c-0.999,0.818-2.044,2.557-1.861,3.677c0.908,5.574,1.347,11.469,3.586,16.526c3.64,8.22,11.578,8.264,17.018,0.741
	C518.134,313.289,518.134,313.289,522.248,313.712z M494.752,293.084c2.081-1.396,3.544-1.983,4.446-3.048
	c4.103-4.841,8.469-9.542,11.905-14.836c2.418-3.725,0.825-9.03-2.027-10.408c-3.617-1.747-6.323,0.187-7.931,2.92
	C496.693,275.284,495.323,283.736,494.752,293.084z"/>
<path fill-rule="evenodd" clip-rule="evenodd" d="M838.259,524.106c-0.87,1.26-1.56,2.708-2.643,3.746
	c-4.649,4.46-9.277,8.959-14.173,13.141c-5.685,4.856-16.124,5.582-18.792-5.276c-3.11-12.658-2.101-25.025,0.657-37.472
	c2.559-11.545,7.696-21.722,17.198-28.945c3.422-2.602,8.049-4.492,12.309-4.929c7.67-0.786,10.921,4.079,8.675,11.637
	c-2.938,9.887-10.524,15.987-18.172,21.987c-3.458,2.713-7.18,5.1-10.524,7.938c-1.064,0.903-1.993,2.89-1.793,4.198
	c0.806,5.267,1.323,10.778,3.347,15.613c3.415,8.158,11.097,8.685,16.683,1.71c0.604-0.755,0.852-1.934,1.591-2.418
	c1.44-0.943,3.112-1.535,4.688-2.272C837.626,523.211,837.942,523.659,838.259,524.106z M810.748,503.23
	c7.149-5.333,13.665-10.111,16.47-18.05c1.213-3.433,2.115-7.488-1.838-10.136c-3.422-2.292-6.356-0.308-8.003,2.35
	C812.661,485.005,811.368,493.616,810.748,503.23z"/>
<path fill-rule="evenodd" clip-rule="evenodd" d="M691.597,314.604c-3.486,3.589-6.908,7.242-10.482,10.74
	c-1.987,1.946-4.225,3.637-6.354,5.438c-5.866,4.966-16.467,5.959-19.146-5.174c-3.046-12.651-2.077-25.019,0.737-37.473
	c2.568-11.367,7.757-21.149,16.768-28.726c3.704-3.113,7.652-5.431,12.797-5.307c7.712,0.185,10.734,4.345,8.521,12.006
	c-2.361,8.168-8.127,13.78-14.351,18.943c-4.636,3.847-9.694,7.179-14.397,10.949c-0.98,0.786-1.895,2.608-1.694,3.752
	c0.973,5.553,1.441,11.453,3.763,16.452c3.812,8.206,11.462,8.02,17.023,0.419c1.216-1.663,3.144-2.805,4.744-4.187
	C690.215,313.16,690.905,313.882,691.597,314.604z M662.793,292.015c0.563,0.158,1.127,0.315,1.69,0.474
	c10.116-7.582,12.676-10.328,15.479-16.612c2.066-4.629,1.055-9.907-2.16-11.275c-3.307-1.407-6.924,0.347-8.801,5.612
	C666.47,277.315,664.82,284.732,662.793,292.015z"/>
<path fill-rule="evenodd" clip-rule="evenodd" d="M1178.676,537.488c-7.394,2.298-14.786,4.595-23.01,7.15
	c0.498-7.106,0.784-13.489,1.432-19.836c0.764-7.482,1.886-14.927,2.77-22.398c1.347-11.382,2.651-22.769,3.913-34.16
	c0.452-4.084,0.839-8.182,1.064-12.284c0.419-7.588,0.754-15.181,1.01-22.775c0.135-4.013,0.119-8.035,0.006-12.048
	c-0.111-3.93-1.523-6.011-5.962-4.14c-1.367,0.576-3.182,0.089-4.96-0.876c7.79-3.662,16.476-3.389,23.973-6.248
	c-1.736,13.53-3.535,26.403-5.008,39.314c-1.821,15.962-3.484,31.944-4.994,47.939c-0.896,9.5-1.441,19.037-1.969,28.567
	c-0.104,1.892,0.316,3.932,0.982,5.723c1.224,3.29,2.97,5.933,7.342,4.124c1.011-0.418,2.496,0.312,3.762,0.514
	C1178.909,536.533,1178.793,537.011,1178.676,537.488z"/>
<path fill-rule="evenodd" clip-rule="evenodd" d="M461.395,670.605c6.141,0.677,11.239,1.238,16.338,1.799
	c0.029,0.41,0.059,0.819,0.088,1.229c-3.824,0.834-7.612,1.954-11.48,2.434c-5.316,0.659-7.476,3.1-7.592,8.669
	c-0.275,13.189-1.261,26.363-1.812,39.55c-0.086,2.065,0.463,4.197,0.96,6.239c2.02,8.287,7.854,9.335,14.176,6.025
	c1.343-0.703,2.862-1.069,4.3-1.591c0.246,0.445,0.493,0.892,0.739,1.338c-1.868,1.242-3.657,2.629-5.619,3.7
	c-5.134,2.804-10.19,5.832-15.564,8.091c-5.53,2.325-8.848,0.451-8.866-5.519c-0.032-10.545,0.751-21.103,1.469-31.636
	c0.568-8.347,1.565-16.664,2.335-24.997c0.168-1.814,0.423-3.677,0.178-5.453c-0.16-1.164-0.891-2.766-1.819-3.197
	c-1.714-0.798-3.762-0.881-6.314-1.389c8.981-5.463,11.2-13.718,10.942-23.013c-0.112-4.079-0.388-7.71,4.876-9.352
	c2.718-0.847,4.833-3.621,8.504-6.548C465.126,649.114,463.281,659.737,461.395,670.605z"/>
<path fill-rule="evenodd" clip-rule="evenodd" d="M1330.359,262.003c2.808-4.896,6.184-9.512,8.164-14.664
	c1.419-3.69,0.714-8.146,1.464-12.167c0.361-1.938,1.501-4.12,2.98-5.373c2.75-2.327,6.008-4.054,9.79-6.507
	c-2.046,11.476-3.891,21.822-5.929,33.26c5.87,0.32,11.311,0.617,16.75,0.914c0.104,0.434,0.206,0.867,0.31,1.3
	c-2.898,0.79-5.795,1.588-8.698,2.36c-0.312,0.083-0.666-0.004-0.996,0.026c-8.359,0.779-9.454,1.304-10.166,9.404
	c-1.1,12.489-1.575,25.038-2.069,37.572c-0.114,2.894,0.396,5.941,1.26,8.72c2.091,6.723,8.812,8.781,15.364,5.029
	c1.085-0.62,2.333-0.956,3.505-1.423c0.294,0.598,0.589,1.195,0.883,1.793c-6.043,3.302-12.036,6.699-18.156,9.852
	c-1.972,1.016-4.243,1.527-6.435,2.018c-3.434,0.768-5.284-1.473-5.354-4.277c-0.232-9.34-0.355-18.71,0.145-28.033
	c0.43-7.998,1.77-15.946,2.708-23.917c0.307-2.599,0.495-5.218,0.953-7.79C1337.997,263.551,1337.049,262.436,1330.359,262.003z"/>
<path fill-rule="evenodd" clip-rule="evenodd" d="M367.266,462.825c-0.46,3.779-0.395,5.65-0.954,7.311
	c-1.005,2.982-2.402,5.355-6.371,3.165c-2.077-1.146-4.614-1.531-6.989-2.055c-4.798-1.057-7.613,1.61-8.149,6.54
	c-1.02,9.366,4.712,15.65,9.595,22.334c3.874,5.305,7.643,10.509,7.516,17.572c-0.256,14.287-12.016,27.433-26.364,26.472
	c-1.49-0.1-3.107,0.342-4.464-0.096c-2.136-0.688-5.599-1.662-5.812-2.959c-0.396-2.402,0.531-5.656,2.124-7.511
	c0.91-1.06,4.311-0.424,6.429,0.099c3.55,0.877,6.906,2.976,10.459,3.299c6.241,0.566,10.459-4.722,8.062-10.564
	c-2.994-7.298-7.176-14.11-10.89-21.109c-0.607-1.146-1.354-2.248-2.193-3.236c-9.482-11.143-1.23-30.322,10.944-34.824
	C355.271,465.39,360.698,464.496,367.266,462.825z"/>
<path fill-rule="evenodd" clip-rule="evenodd" d="M448.452,334.15c-0.998,0-1.997,0.004-2.995-0.001
	c-6.331-0.031-7.749-1.706-6.539-7.724c0.814-4.053,2.754-4.834,6.75-3.373c4.376,1.599,8.844,3.107,13.4,3.999
	c4.753,0.931,6.281-2.49,6.794-6.45c0.765-5.914-1.874-10.866-4.759-15.657c-2.35-3.903-4.605-7.964-7.564-11.383
	c-10.399-12.014-2.757-31.812,11.704-37.035c3.618-1.307,7.58-1.728,11.419-2.336c2.767-0.438,5.119,0.753,4.001,3.759
	c-0.903,2.429-0.735,6.896-5.575,5.809c-2.371-0.532-4.692-1.295-7.021-2.004c-6.119-1.864-10.029,0.842-10.161,7.277
	c-0.159,7.718,4.361,13.404,8.559,19.262c4.233,5.909,8.418,11.402,8.722,19.654C475.636,320.139,461.833,336.595,448.452,334.15z"
	/>
<path fill-rule="evenodd" clip-rule="evenodd" d="M468.879,468.809c6.64-3.681,14.527-2.052,22.129-5.431
	c-0.887,9.966-1.675,18.807-2.413,27.106c5.402-7.577,10.773-15.249,16.334-22.781c1.021-1.382,2.672-2.649,4.287-3.157
	c2.282-0.719,4.65-1.269,5.8,2.418c2.103,6.742,1.336,9.282-5.278,10.686c-11.712,2.486-16.98,11.109-19.701,21.281
	c-2.805,10.491-4.206,21.362-6.134,32.082c-0.521,2.896-0.13,6.116-1.288,8.675c-0.721,1.593-3.564,2.224-6.557,3.903
	c0.334-6.091,0.618-10.587,0.82-15.086c0.683-15.179,1.336-30.357,1.999-45.536c0.007-0.166,0.001-0.333,0.001-0.499
	C478.878,471.678,478.878,471.678,468.879,468.809z"/>
<path fill-rule="evenodd" clip-rule="evenodd" d="M1142.413,746.062c-2.106,0-3.928,0-6.341,0c0.275-4.259,0.612-8.414,0.801-12.576
	c0.695-15.364,1.347-30.731,1.995-46.098c0.07-1.663,0.051-3.334,0.001-4.998c-0.156-5.292-2.254-7.533-7.474-8.284
	c-0.96-0.138-1.843-0.813-2.408-2.181c7.166-1.062,14.331-2.124,21.906-3.246c-0.769,8.624-1.559,17.501-2.44,27.402
	c4.612-7.016,8.364-13.057,12.48-18.839c1.996-2.806,4.447-5.399,7.1-7.598c3.338-2.766,5.792-1.71,6.908,2.497
	c1.917,7.227,1.331,8.335-5.891,10.035c-9.493,2.236-14.384,9.199-17.898,17.434c-4.807,11.262-5.807,23.356-7.28,35.332
	C1143.434,738.507,1142.939,742.064,1142.413,746.062z"/>
<path fill-rule="evenodd" clip-rule="evenodd" d="M666.937,491.676c3.854-9.745,9.578-18.233,17.3-25.198
	c1.578-1.423,4.399-2.124,6.543-1.938c0.847,0.073,1.725,3.422,2.032,5.366c0.635,4.012,0.216,7.237-5.129,7.948
	c-12.5,1.664-17.56,11.254-20.596,21.677c-2.583,8.867-3.597,18.199-5.186,27.346c-0.862,4.959-1.478,9.962-2.213,15.006
	c-2.426,0-4.518,0-6.61,0c0.626-3.958,1.556-7.638,1.736-11.354c0.805-16.526,1.417-33.062,2.03-49.598
	c0.06-1.613-0.245-3.262-0.551-4.861c-0.753-3.931-2.328-6.861-7.216-5.995c-0.932,0.165-2.028-0.594-3.049-0.927
	c-0.011-0.484-0.021-0.969-0.032-1.452c7.498-1.188,14.996-2.374,22.61-3.579c-1.031,9.518-1.995,18.416-2.958,27.313
	C666.078,491.512,666.507,491.594,666.937,491.676z"/>
<path fill-rule="evenodd" clip-rule="evenodd" d="M715.751,331.877c-2.77,0-4.727,0-6.715,0c0.642-3.8,1.603-7.31,1.771-10.858
	c0.808-17.026,1.417-34.062,2.04-51.097c0.047-1.28-0.299-2.586-0.549-3.862c-0.773-3.942-2.354-6.843-7.229-5.985
	c-0.933,0.163-2.027-0.6-3.047-0.936c-0.01-0.481-0.02-0.963-0.029-1.445c7.502-1.186,15.004-2.371,22.613-3.573
	c-1.029,9.518-1.992,18.414-2.955,27.311c0.288,0.087,0.575,0.174,0.862,0.261c2.128-3.876,3.904-8.005,6.468-11.568
	c3.537-4.918,7.461-9.61,11.667-13.968c1.31-1.357,4.16-1.93,6.126-1.641c0.92,0.135,1.704,3.114,2.046,4.901
	c0.865,4.526-0.098,8.073-5.584,8.622c-8.695,0.869-14.226,6.503-17.02,13.835c-3.329,8.734-5.309,18.043-7.233,27.236
	C717.419,316.582,716.797,324.252,715.751,331.877z"/>
<path fill-rule="evenodd" clip-rule="evenodd" d="M889.834,331.936c-2.659,0-4.617,0-6.482,0c0.854-8.635,2.001-17.049,2.448-25.5
	c0.631-11.917,0.786-23.86,1.031-35.795c0.036-1.747-0.615-3.499-0.841-5.263c-0.51-3.979-2.548-5.835-6.697-5.292
	c-0.985,0.129-2.069-0.499-3.107-0.779c-0.029-0.518-0.06-1.036-0.089-1.554c7.412-1.22,14.824-2.439,22.489-3.7
	c-1.006,9.499-1.95,18.432-2.982,28.183c4.492-7.007,8.214-13.216,12.368-19.119c2.076-2.95,4.752-5.564,7.502-7.93
	c3.253-2.799,6.908-1.177,7.396,3c0.874,7.493,0.325,8.434-6.909,9.929c-7.602,1.571-12.832,6.441-15.407,13.128
	c-3.307,8.586-5.626,17.63-7.538,26.653C891.361,315.696,890.871,323.742,889.834,331.936z"/>
<path fill-rule="evenodd" clip-rule="evenodd" d="M362.479,333.446c1.265-8.361,2.613-16.712,3.771-25.089
	c1.299-9.392,2.474-18.802,3.605-28.216c0.47-3.911,0.898-7.848,0.978-11.78c0.146-7.309-0.376-7.78-8.104-9.627
	c0.986-0.525,2.249-1.736,2.916-1.468c5.896,2.379,10.75-1.282,16.009-2.493c0.773-0.178,1.521-0.468,3.59-1.115
	c-1.118,4.423-2.246,7.972-2.894,11.607c-2.573,14.433-5.013,28.89-7.461,43.346c-0.437,2.576-1.022,5.196-0.943,7.778
	c0.224,7.35,3.521,9.204,10.155,6.16c1.327-0.608,2.962-0.547,4.455-0.794c0.195,0.734,0.39,1.47,0.585,2.204
	c-8.382,3.71-16.764,7.419-25.146,11.129C363.489,334.541,362.984,333.994,362.479,333.446z"/>
<path fill-rule="evenodd" clip-rule="evenodd" d="M1103.994,659.15c-3.461,0.249-7.188-0.035-9.187-4.245
	c-2.243-4.728-0.704-9.097,1.908-12.931c3.642-5.345,13.099-8.272,18.727-5.327c2.156,1.129,3.958,4.857,4.124,7.514
	C1120.12,652.997,1113.568,659.147,1103.994,659.15z M1099.876,650.211c-0.242,3.288,0.485,5.955,4.936,5.974
	c4.875,0.021,8.197-3.164,9.013-10.795c0.399-3.741-1.745-5.979-5.433-6.185C1103.701,638.943,1099.922,643.872,1099.876,650.211z"
	/>
<path fill-rule="evenodd" clip-rule="evenodd" d="M1183.893,749.29c-3.141-2.346-6.265-4.64-9.343-6.991
	c-3.145-2.402-1.225-4.71,0.446-6.666c2.573-3.013,5.438-5.775,8.825-9.318c4.224,3.877,8.148,7.479,11.793,10.824
	C1191.617,741.282,1187.844,745.194,1183.893,749.29z"/>
<path fill-rule="evenodd" clip-rule="evenodd" d="M367.386,247.084c3.526-5.181,6.952-10.434,10.617-15.514
	c2.131-2.956,5.74-3.913,8.035-1.337c2.26,2.536,0.821,5.635-2.317,7.666c-5.12,3.313-10.068,6.895-15.089,10.363
	C368.217,247.87,367.801,247.477,367.386,247.084z"/>
<path fill-rule="evenodd" clip-rule="evenodd" d="M1073.651,457.521c0.794-1.617,1.402-3.362,2.417-4.826
	c2.771-4,5.338-8.266,8.769-11.626c1.427-1.396,5.88-1.921,7.137-0.8c2.504,2.232,0.72,5.171-1.741,6.975
	c-5.078,3.723-10.27,7.292-15.415,10.924C1074.429,457.953,1074.04,457.737,1073.651,457.521z"/>
<path fill-rule="evenodd" clip-rule="evenodd" d="M806.71,247.663c0.743-1.608,1.282-3.357,2.27-4.799
	c2.75-4.013,5.312-8.276,8.725-11.656c1.458-1.444,5.818-2.144,7.146-1.067c2.608,2.115,1.028,5.133-1.477,6.973
	c-5.189,3.814-10.491,7.476-15.747,11.199C807.321,248.097,807.016,247.88,806.71,247.663z"/>
</svg>
