<?xml version="1.0" encoding="utf-8"?>
<!-- Generator: Adobe Illustrator 15.0.0, SVG Export Plug-In . SVG Version: 6.00 Build 0)  -->
<!DOCTYPE svg PUBLIC "-//W3C//DTD SVG 1.1//EN" "http://www.w3.org/Graphics/SVG/1.1/DTD/svg11.dtd">
<svg version="1.1" id="Lag_1" xmlns="http://www.w3.org/2000/svg" xmlns:xlink="http://www.w3.org/1999/xlink" x="0px" y="0px"
	 width="2381.742px" height="815.895px" viewBox="0 0 2381.742 815.895" enable-background="new 0 0 2381.742 815.895"
	 xml:space="preserve">
<path d="M479.068,445.988c-6.657-23.414-13.314-46.826-20.084-70.631c3.927-0.557,7.297-1.52,8.764,3.921
	c3.85,14.284,8.102,28.463,12.164,42.69c0.261,0.914,0.267,1.9,1.328,3.121c6.782-16.673,13.564-33.347,20.35-50.02
	c0.426-0.116,0.853-0.233,1.277-0.354c6.682,16.906,13.362,33.811,20.345,51.475c4.065-14.114,7.936-27.497,11.765-40.886
	c0.763-2.658,0.69-5.91,2.271-7.872c1.441-1.795,4.597-2.217,6.996-3.243c0.3,0.466,0.599,0.932,0.896,1.395
	c-6.733,23.485-13.47,46.974-20.205,70.46c-0.53,0.043-1.062,0.086-1.594,0.129c-6.893-17.602-13.786-35.201-21.056-53.763
	c-7.368,18.384-14.443,36.039-21.521,53.689C480.2,446.062,479.635,446.026,479.068,445.988z"/>
<path d="M233.913,199.702c9.505,19.43,19.01,38.858,28.917,59.109c9.861-19.943,19.366-39.164,28.87-58.384
	c0.463,0.018,0.926,0.035,1.388,0.053c3.395,23.646,6.79,47.295,10.232,71.284c-2.711,0-4.653,0-6.984,0
	c-2.248-16.414-4.507-32.903-6.766-49.395c-0.304-0.179-0.604-0.356-0.906-0.536c-8.403,16.713-16.807,33.428-25.967,51.646
	c-8.922-18.054-17.312-35.027-26.318-53.253c-1.582,11.544-3.018,21.76-4.368,31.986c-0.751,5.685-1.039,11.45-2.131,17.062
	c-0.967,4.972-4.922,2.033-7.592,2.49c3.33-24.039,6.62-47.792,9.911-71.544C232.769,200.051,233.34,199.875,233.913,199.702z"/>
<path d="M1607.05,386.573c-1.951,1.807-3.773,3.496-5.601,5.191c-8.237-7.241-17.565-12.534-28.787-11.628
	c-17.213,1.392-30.987,12.818-30.467,31.378c0.461,16.439,13.514,28.562,29.627,29.895c9.396,0.771,18.426-0.912,24.767-8.693
	c2.983-3.664,4.84-8.248,7.808-13.467c-8.936,0-16.312,0-24.035,0c0-2.555,0-4.604,0-6.951c10.024,0,20.093,0,30.14,0
	c2.146,17.937-10.826,33.392-27.804,35.776c-11.375,1.601-21.969,0.121-31.493-6.418c-10.66-7.315-16.168-17.25-16.343-30.584
	c-0.248-18.913,11.479-32.032,27.136-36.468c14.237-4.033,27.526-1.149,39.557,7.466c0.929,0.662,1.869,1.305,2.75,2.021
	C1605.181,384.809,1605.996,385.612,1607.05,386.573z"/>
<path d="M659.966,68.934c-7.553,0-14.502,0-21.703,0c0-2.287,0-4.226,0-6.55c9.944,0,20.006,0,30.604,0
	c-0.33,8.51-1.911,16.685-7.354,23.554c-14.164,17.875-43.934,16.168-58.071,1.821c-10.81-10.965-14.502-24.322-9.17-39.229
	c5.153-14.405,15.711-22.495,30.829-24.522c15.386-2.062,29.526,2.65,39.343,13.341c-1.845,1.293-3.726,2.61-5.218,3.657
	c-6.015-2.957-12.228-7.06-19.056-9.146c-12.638-3.864-23.839-0.057-32.883,9.431c-7.729,8.105-9.346,18.143-6.135,28.373
	c6.481,20.655,32.737,29.274,50.583,15.897C656.859,81.719,660.066,76.368,659.966,68.934z"/>
<path d="M1284.041,69.038c-7.775,0-15.068,0-22.285,0c-1.438-6.506-1.074-7.021,4.869-7.033c8.289-0.017,16.576-0.004,24.773-0.004
	c3.129,16.34-9.828,34.317-28.684,36.195c-11.453,1.143-21.644-0.604-31.148-6.978c-13.986-9.375-19.682-28.862-12.873-44.459
	c5.77-13.23,15.777-20.584,30.105-22.872c13.756-2.196,25.381,1.751,35.895,10.271c1,0.812,2.146,1.442,4.225,2.819
	c-2.396,1.313-4.422,2.422-6.447,3.53c0.287,0.567,0.572,1.138,0.859,1.705c-3.465-2.269-6.928-4.541-10.396-6.804
	c-17.768-11.579-42.438-1.854-48.369,17.285c-5.153,16.633,6.847,34.405,24.152,38.349c16.252,3.698,30.727-4.485,34.963-18.396
	C1283.961,71.729,1283.886,70.706,1284.041,69.038z"/>
<path d="M1396.216,777.149c0-17.401,0-34.808,0-52.173c7.779-0.51,7.779-0.51,7.779,6.396c0,19.979,0.01,39.957-0.02,59.936
	c-0.002,1.729-0.243,3.449-1.594,5.643c-15.545-17.798-31.088-35.593-47.451-54.326c0,18.592,0,35.719,0,52.758
	c-7.678,2.699-7.938,2.519-7.938-5.342c-0.002-19.812,0-39.623,0-59.438c0-1.774,0-3.554,0-5.328
	c0.52-0.317,1.041-0.642,1.561-0.959c15.529,17.731,31.062,35.47,46.59,53.198C1395.504,777.392,1395.859,777.271,1396.216,777.149z
	"/>
<path d="M1799.962,604.731c0-19.03,0-36.589,0-54.437c2.447,0,4.492,0,6.533,0c0,23.805,0,47.451,0,71.1
	c-0.396,0.201-0.791,0.404-1.188,0.607c-15.439-17.74-30.887-35.479-46.965-53.951c-0.156,2.201-0.334,3.549-0.336,4.896
	c-0.021,14.981-0.166,29.974,0.094,44.951c0.064,3.789-2.131,3.75-4.508,4.058c-2.969,0.385-3.629-1.33-3.621-3.914
	c0.056-22.144,0.041-44.287,0.068-66.433c0-0.448,0.23-0.899,0.852-3.146C1767.379,567.369,1783.158,585.463,1799.962,604.731z"/>
<path d="M1038.232,757.33c10.67,3.323,15.434,10.604,14.761,21.049c-0.521,8.033-8.407,16.699-16.688,17.516
	c-7.572,0.75-15.226,0.904-22.84,0.896c-1.158-0.002-3.309-2.318-3.318-3.58c-0.205-21.816-0.123-43.636-0.182-65.451
	c-0.007-2.815,1.151-4.012,3.893-3.75c6.812,0.646,13.631,1.219,20.428,1.988c6.432,0.729,10.914,4.778,12.288,10.567
	c1.427,6.015,1.509,12.62-4.062,17.42C1041.379,754.959,1040.157,755.832,1038.232,757.33z M1017.207,788.801
	c5.775,0,11.596,0.617,17.221-0.162c6.387-0.885,11.262-6.795,11.556-12.34c0.235-4.502-4.898-12.195-9.562-12.977
	c-6.233-1.048-12.62-1.191-19.214-1.748C1017.207,771.142,1017.207,779.733,1017.207,788.801z M1016.996,742.929
	c0,12.422,0,12.422,12.021,11.062c4.795-0.541,9.828-5.021,10.889-9.95c0.953-4.447-1.051-8.312-4.707-9.98
	c-3.735-1.7-8.254-1.672-12.418-2.465c-4.893-0.93-6.506,1.205-5.827,5.871C1017.212,739.252,1016.996,741.106,1016.996,742.929z"/>
<path d="M865.991,271.805c-2.574,0-4.519,0-6.995,0c0-10.966,0-21.746,0-32.526c0-9.713-3.316-14.646-10.264-15.272
	c-8.727-0.785-16.852,5.262-17.606,14.119c-0.872,10.209-0.796,20.5-1.134,30.754c-0.027,0.814-0.081,1.629-0.141,2.777
	c-2.19,0-4.237,0-6.855,0c0-11.117,0.003-22.229-0.001-33.342c-0.003-7.097-4.243-13.431-9.56-14.292
	c-6.828-1.106-15.444,3.671-17.31,10.162c-1.2,4.188-1.856,8.627-2.045,12.984c-0.338,7.813-0.137,15.654-0.185,23.48
	c-0.002,0.296-0.233,0.589-0.461,1.11c-1.854,0-3.795,0-6.092,0c0-17.342,0-34.738,0-52.448c2.035,0,4.09,0,6.489,0
	c0,2.364,0,4.638,0,8.116c5.163-6.896,11.353-10.521,18.741-10.256c7.57,0.271,13.674,3.869,16.036,12.01
	c4.991-4.893,8.612-10.397,16.272-11.436c11.248-1.521,20.553,4.951,20.996,16.684C866.349,246.719,865.991,259.038,865.991,271.805
	z"/>
<path d="M638.97,742.192c0,18.692,0,36.239,0,53.959c-2.441,0.153-4.396,0.278-6.653,0.427c0-23.843,0-47.748,0-73.197
	c16.309,18.637,31.938,36.506,48.356,55.271c0.157-2.642,0.312-4.034,0.312-5.433c0.019-14.828-0.002-29.655,0.022-44.483
	c0.004-2.067-0.591-4.704,2.812-4.666c3.019,0.034,4.296,1.328,4.269,4.748c-0.18,22.455-0.093,44.914-1.162,68.058
	C671.239,778.988,655.552,761.101,638.97,742.192z"/>
<path d="M596.454,621.66c-15.511-17.75-31.022-35.5-47.204-54.02c0,18.543,0,36.091,0,53.596c-7.252,0.693-7.254,0.693-7.254-6.354
	c0-21.473,0-42.945,0-64.42c0.418-0.299,0.835-0.599,1.253-0.896c15.601,17.972,31.199,35.938,47.556,54.78
	c0-18.59,0-36.225,0-54.098c2.572,0,4.51,0,6.824,0c0,23.434,0,46.953,0,70.473C597.237,621.037,596.845,621.347,596.454,621.66z"/>
<path d="M1851.223,446.521c0-23.692,0-47.418,0-71.145c0.358-0.263,0.724-0.522,1.082-0.783
	c15.608,17.969,31.222,35.938,47.594,54.789c0-18.662,0-36.317,0-54.171c2.552,0,4.49,0,6.769,0c0,23.435,0,46.843,0,71.285
	c-1.721-1.099-3.33-1.688-4.312-2.818c-7.485-8.635-14.832-17.393-22.263-26.077c-6.948-8.127-13.944-16.217-21.707-25.229
	c-0.186,2.512-0.37,3.875-0.373,5.238c-0.02,14.49-0.008,28.979-0.016,43.472C1857.99,447.353,1857.908,447.412,1851.223,446.521z"
	/>
<path d="M1473.906,43.807c0,17.582,0,35.163,0,52.965c-2.334,0-4.275,0-6.564,0c0-23.808,0-47.638,0-73.045
	c16.494,18.979,32.109,36.95,48.549,55.866c0-18.844,0-36.396,0-54.266c2.473,0,4.52,0,6.838,0c0,23.801,0,47.53,0,72.777
	c-16.438-18.832-32.094-36.767-47.75-54.7C1474.621,43.542,1474.263,43.674,1473.906,43.807z"/>
<path d="M1692.337,198.995c16.385,18.824,32.017,36.78,48.563,55.795c0-19.045,0-36.6,0-54.469c2.466,0,4.515,0,6.832,0
	c0,23.813,0,47.545,0,72.967c-16.549-18.918-32.22-36.83-48.608-55.572c0,18.552,0,36.201,0,54.062c-2.562,0-4.504,0-6.787,0
	C1692.337,247.956,1692.337,224.129,1692.337,198.995z"/>
<path d="M804.062,577.194c0-10.233,0-19.478,0-28.948c2.325,0,4.267,0,6.935,0c0,1.51,0,3.102,0,4.691
	c0,21.132-0.029,42.264,0.035,63.395c0.009,2.817,0.053,5.605-3.646,5.549c-3.291-0.053-3.679-2.568-3.401-5.267
	c0.084-0.819,0.016-1.653,0.016-2.979c-6.398,5.418-12.916,9.642-21.387,9.394c-8.224-0.238-15.073-3.604-20.454-9.494
	c-9.314-10.201-8.529-28.918,1.122-38.146C772.771,566.312,787.505,561.508,804.062,577.194z M783.4,616
	c11.281,1.49,20.332-10.242,20.918-19.351c0.791-12.274-10.385-23.151-21.036-22.771c-11.562,0.416-20.563,9.299-20.739,20.498
	C762.347,606.851,771.777,617.056,783.4,616z"/>
<path d="M1271.92,613.174c0,9.537,0,18.342,0,27.484c-2.264,0-4.311,0-6.924,0c0-2.3,0-4.58,0-6.863
	c0-19.658,0.172-39.318-0.115-58.974c-0.074-5.133,1.06-7.67,7.07-6.433c0,2.521,0,5.229,0,8.271
	c16.592-12.079,30.629-12.021,41.061-1.062c9.785,10.279,9.48,29.08-0.646,39.611C1301.992,626,1287.974,625.604,1271.92,613.174z
	 M1291.767,616.002c12.031,0.311,22.766-9.189,22.062-20.535c-0.736-11.86-8.89-20.539-19.461-21.551
	c-12.718-1.218-22.336,10.596-22.424,18.592C1271.781,607.088,1278.863,615.666,1291.767,616.002z"/>
<path d="M792.996,53.554c0-6.021,0-10.783,0-15.545c0-4.803,0-9.606,0-14.705c2.398,0,4.447,0,6.752,0c0,24.402,0,48.667,0,73.312
	c-2.021,0-4.064,0-6.525,0c-0.125-2.315-0.256-4.745-0.451-8.356c-6.992,6.851-14.543,10.748-23.989,9.785
	c-9.479-0.968-16.418-5.994-20.883-13.857c-6.853-12.072-4.315-24.762,4.771-34.163c5.473-5.662,12.639-7.396,20.708-7.209
	C781.548,43.006,787.146,47.079,792.996,53.554z M792.996,70.491c0.807-10.584-8.617-21.812-20.854-21.394
	c-12.522,0.427-20.922,9.045-20.916,21.396c0.007,11.854,8.729,21.12,20.938,21.43C784.4,92.231,793.811,81.083,792.996,70.491z"/>
<path d="M1312.984,402.323c0-10.305,0-19.535,0-29.039c2.451,0,4.496,0,7.012,0c0,6.973,0,13.758,0,20.541
	c0,15.811,0.002,31.623,0,47.433c0,2.701,0.703,5.736-3.744,5.668c-4.553-0.072-2.877-3.416-3.256-5.709
	c-0.08-0.488-0.094-0.988-0.221-2.385c-9.34,9.299-19.977,11.637-31.799,7.069c-6.527-2.521-10.543-7.935-13.883-13.731
	c-5.088-8.844-1.441-26.807,6.439-33.039C1285.138,389.963,1299.752,388.284,1312.984,402.323z M1271.996,420.025
	c-0.389,13.104,9.752,21.744,18.43,21.662c15.115-0.145,23.213-8.021,23.236-21.883c0.02-11.024-7.424-20.347-20.879-20.954
	C1281.88,398.362,1270.695,408.76,1271.996,420.025z"/>
<path d="M1541.334,219.23c2.312,0,4.264,0,6.496,0c0,2.671,0,5.122,0,8.851c5.885-7.787,13.252-11.02,21.551-10.922
	c8.562,0.1,15.732,3.979,21.176,10.854c7.686,9.697,8.121,26.467-2.115,36.977c-8.66,8.888-26.014,13.181-40.312-2.053
	c0,9.644,0,18.646,0,27.846c-2.564,0-4.508,0-6.791,0C1541.334,267.047,1541.334,243.314,1541.334,219.23z M1547.996,245.622
	c-1.361,11.924,9.438,21.135,20.312,21.154c11.029,0.021,20.428-8.556,20.902-21.415c0.43-11.463-9.938-21.347-21.115-21.524
	C1558.308,223.679,1546.529,233.26,1547.996,245.622z"/>
<path d="M1479.877,263.856c0,9.021,0,17.811,0,26.866c-2.211,0-4.145,0-6.479,0c0-23.582,0-47.289,0-71.359c1.898,0,3.945,0,6.375,0
	c0.115,2.206,0.236,4.474,0.413,7.691c6.319-6.551,13.466-10.58,22.196-9.954c8.824,0.634,16.229,4.907,21.072,12.095
	c7.699,11.423,6.604,26.455-3.479,36.028C1510.398,274.321,1497.023,277.963,1479.877,263.856z M1520.996,245.184
	c1.645-10.163-10.67-21.854-21.111-21.306c-12.731,0.668-20.319,10.103-20.762,21.727c-0.42,11.109,10.033,21.646,21.199,21.248
	C1510.886,266.477,1521.556,258.308,1520.996,245.184z"/>
<path d="M1381.152,237.252c-12.486,0-24.086,0-36.062,0c0,11.512,0,22.779,0,34.396c-2.746,0-5.129,0-7.812,0
	c0-23.734,0-47.463,0-71.419c2.476,0,4.75,0,7.562,0c0,9.719,0,19.455,0,29.478c12.129,0,23.73,0,35.889,0
	c0-9.565,0-19.291,0-29.356c2.595,0,4.645,0,6.979,0c0,23.737,0,47.469,0,71.426c-2.138,0-4.078,0-6.562,0
	C1381.152,260.4,1381.152,248.997,1381.152,237.252z"/>
<path d="M946.732,621.638c-1.854,0-3.682,0-5.826,0c0-2.756,0-5.348,0-9.149c-6.715,7.847-14.721,10.726-23.669,10.364
	c-8.144-0.321-14.787-4.418-19.589-10.829c-8.678-11.597-7.616-29.272,5.018-39.076c11.117-8.627,26.871-8.321,38.126,4.742
	c0-10.084,0-19.569,0-29.365c2.243,0,3.958,0,5.938,0C946.732,572.793,946.732,597.203,946.732,621.638z M940.996,595.049
	c0.168-11.789-9.201-20.756-20.98-21.172c-11.301-0.396-20.851,10.026-20.934,20.928c-0.076,9.906,7.475,21.73,20.293,21.64
	C932.058,616.349,940.493,608.918,940.996,595.049z"/>
<path d="M1191.04,226.624c0-9.406,0-18.812,0-28.412c2.071,0,3.688,0,5.628,0c0,24.406,0,48.809,0,73.496c-1.756,0-3.475,0-5.574,0
	c0-2.732,0-5.332,0-9.189c-7.43,8.134-15.834,11.617-25.672,10.363c-7.117-0.906-12.918-4.82-17.306-10.366
	c-8.396-10.61-8.394-25.269,1.366-36.364c5.281-6.009,12.451-9.178,20.494-9.048c8.035,0.129,14.742,3.77,19.846,10.358
	C1190.229,227.182,1190.633,226.902,1191.04,226.624z M1190.996,245.437c0.961-11.206-10.262-21.623-20.857-21.569
	c-11.885,0.057-21.303,10.189-21.026,21.315c0.302,12.275,9.547,21.896,21.498,21.572
	C1180.718,266.484,1191.318,259.229,1190.996,245.437z"/>
<path d="M590.302,213.237c-1.918,1.396-3.588,2.609-5.215,3.794c-19.32-15.375-37.64-16.075-49.812-1.733
	c-10.359,12.205-10.469,30.996,1.306,42.418c12.146,11.785,33.299,13.408,47.97-2.615c1.738,1.296,3.513,2.619,5.269,3.928
	c-11.527,18.137-43.513,17.039-55.802,6.691c-17.383-14.639-18.748-42.719-1.513-58.062
	C546.593,195.116,575.658,193.575,590.302,213.237z"/>
<path d="M1793.957,795.396c11.354-24.028,22.529-47.679,33.705-71.321c0.479-0.025,0.961-0.05,1.438-0.074
	c11.16,23.904,22.32,47.807,33.482,71.717c-6.5,2.354-6.729,2.217-9.629-3.809c-2.613-5.434-5.189-10.895-8.146-16.136
	c-0.744-1.321-2.846-2.603-4.363-2.649c-7.98-0.262-15.984-0.32-23.963,0.029c-1.791,0.077-4.197,1.67-5.113,3.262
	c-3.082,5.348-5.498,11.072-8.398,16.533C1800.314,797.955,1799.554,798.065,1793.957,795.396z M1816.254,765.776
	c8.199,0,15.801,0,24.148,0c-4.068-8.696-7.918-16.925-12.051-25.748C1824.195,748.879,1820.332,757.095,1816.254,765.776z"/>
<path d="M774.122,771.438c1.136,9.425,5.763,16.82,14.759,19.212c10.979,2.913,19.69-1.995,25.461-11.623
	c6.838,2.733,7.002,3.108,2.92,8.164c-12.354,15.297-38.031,15.075-47.939-5.535c-5.242-10.903-0.77-27.222,7.923-33.823
	c12.864-9.777,29.94-6.515,37.884,2.889c3.931,4.652,6.643,10.004,6.893,16.328c0.104,2.67-0.779,4.063-3.686,3.971
	c-10.674-0.338-21.35-0.727-32.024-0.793C782.275,770.201,778.241,771.004,774.122,771.438z M814.004,764.26
	c-1.473-10.11-9.13-14.764-18.504-16.004c-8.345-1.104-16.708,5.744-20.007,16.004C788.241,764.26,800.893,764.26,814.004,764.26z"
	/>
<path d="M1935.545,595.785c-16.01,0-31.68,0-47.717,0c1.789,9.994,5.664,17.455,15.467,20.17c9.262,2.562,17.5-1.354,25.346-12.039
	c1.732,0.85,3.547,1.74,5.326,2.611c-3.51,11.832-17.455,18.428-28.496,16.096c-17.016-3.592-27.137-17.002-24.399-30.787
	c3.813-19.25,17.538-25.771,28.405-24.678C1928.893,569.106,1936.964,581.959,1935.545,595.785z M1889.266,588.553
	c0.969,0.443,1.94,1.279,2.916,1.279c10.801,0.006,21.601-0.088,32.396-0.23c2.174-0.023,4.407-0.314,2.971-3.518
	c-3.047-6.783-8.174-11.062-15.573-12.037C1901.912,572.719,1894.586,576.158,1889.266,588.553z"/>
<path d="M1585.16,621.642c-7.361,0.666-8.543-0.105-11.004-6.182c-1.896-4.679-3.664-9.455-6.125-13.83
	c-0.965-1.715-3.623-3.373-5.588-3.469c-7.98-0.39-15.99-0.08-23.988-0.205c-2.719-0.043-3.881,0.782-4.857,3.553
	c-1.834,5.211-4.467,10.147-6.889,15.144c-2.832,5.837-3.711,6.146-10.277,4.08c11.074-23.537,22.137-47.045,33.85-71.938
	c2.158,3.453,4.211,6.094,5.598,9.049c8.024,17.11,15.906,34.291,23.812,51.459C1581.504,613.256,1583.218,617.258,1585.16,621.642z
	 M1562.816,590.724c-3.957-8.42-7.775-16.549-11.994-25.521c-4.174,8.848-8.006,16.969-12.041,25.521
	C1546.871,590.724,1554.441,590.724,1562.816,590.724z"/>
<path d="M370.818,595.836c-1.726,6.147,3.356,15.694,10.155,18.625c10.525,4.537,22.168,1.062,29.249-10.236
	c1.753,0.855,3.553,1.732,5.331,2.604c-4.991,13.248-19.646,19.342-34.645,14.62c-16.237-5.11-23.402-26.465-13.785-41.728
	c5.918-9.391,14.938-13.582,25.785-12.559c11.62,1.098,19.778,7.371,23.501,18.748c0.65,1.994,1.171,4.059,1.484,6.131
	c0.384,2.523-0.311,3.916-3.47,3.871c-12.987-0.188-25.979-0.076-38.968-0.076C373.926,595.836,372.391,595.836,370.818,595.836z
	 M370.784,589.09c6.71,0,13.082,0,19.455,0c6.562,0,13.125,0,19.698,0c-1.186-8.572-9.148-14.908-19.854-15.486
	C382.551,573.197,375.188,578.793,370.784,589.09z"/>
<path d="M434.098,771c-0.956,8.569,6.503,17.154,13.603,19.36c9.981,3.104,18.213-0.319,26.128-11.271
	c6.828,1.807,6.685,2.379,2.364,8.356c-8.873,12.284-27.807,13.298-38.318,5.491c-9.426-6.997-12.223-16.95-10.738-27.967
	c1.389-10.293,7.356-18.387,17.188-21.438c12.104-3.761,24.15-2.237,32.86,10.507c2.779,4.067,3.354,9.689,4.538,14.696
	c0.083,0.349-3.133,2.104-4.841,2.146c-9.205,0.225-18.419,0.11-27.631,0.113C444.312,771,439.376,771,434.098,771z
	 M434.964,764.181c13.097,0,25.97,0,38.847,0.005c-1.598-9.964-10.361-15.062-17.096-15.578
	C445.404,747.733,438.398,752.856,434.964,764.181z"/>
<path d="M887.288,770.724c-0.989,8.136,6.092,17.041,12.312,19.293c8.726,3.16,19.183,0.729,24.412-6.811
	c2.888-4.162,5.146-4.854,8.75-1.529c-5.716,16.304-28.287,20.668-42.468,11.021c-7.916-5.39-11.788-20.032-9.618-30.183
	c4.019-18.776,27.699-27.104,43.342-15.065c6.754,5.197,9.752,12.297,10.848,20.39c0.104,0.758-1.412,2.433-2.277,2.504
	c-4.08,0.354-8.193,0.356-12.298,0.371C909.334,770.748,898.38,770.724,887.288,770.724z M926.948,764.229
	c-2.438-11.407-12.271-15.744-20.114-15.683c-9.008,0.074-17.24,6.433-18.339,15.683
	C901.297,764.229,914.045,764.229,926.948,764.229z"/>
<path d="M1385.998,595.72c-16.26,0-31.924,0-47.455,0c-1.469,8.295,5.021,16.959,12.191,19.582
	c7.357,2.691,19.012,2.063,27.252-11.326c1.846,0.962,3.701,1.929,5.523,2.878c-4.045,12.022-18.424,18.084-30.689,15.881
	c-13.922-2.502-23.598-14.073-21.729-31.832c1.291-12.274,10.274-22.562,24.447-23.823
	C1371.879,565.621,1380.802,574.011,1385.998,595.72z M1377.802,589.252c-3.008-11.166-11.407-15.83-20.396-15.621
	c-7.088,0.164-16.659,4.414-18.28,15.621C1352.025,589.252,1364.826,589.252,1377.802,589.252z"/>
<path d="M1606.193,770.979c-2.146,6.09,5.67,17.041,13.309,19.278c10.375,3.043,20.377-0.94,26.416-11.592
	c1.922,0.991,3.867,1.996,5.74,2.963c-5.365,16.096-28.689,20.711-41.111,11.576c-9.365-6.886-12.854-16.347-11.41-27.408
	c1.385-10.559,6.842-18.353,17.488-22.1c18.01-6.343,34.939,4.592,37.26,24.318c0.443,3.771-2.912,2.541-4.705,2.604
	c-7.812,0.264-15.637,0.293-23.457,0.348C1619.295,771.013,1612.867,770.979,1606.193,770.979z M1645.818,764.149
	c-1.943-10.5-11.879-15.89-20.396-15.655c-9.322,0.252-16.6,6.66-17.979,15.655C1620.246,764.149,1632.98,764.149,1645.818,764.149z
	"/>
<path d="M1257.98,771.199c-0.119,8.229,4.211,14.506,11.326,18.299c5.021,2.676,11.277,3.09,16.453,0.295
	c4.889-2.64,9.012-6.693,13.869-10.438c0.834,0.408,2.432,1.197,4.02,1.982c-2.332,8.192-14.342,17.315-22.525,16.521
	c-5.355-0.522-10.967-1.267-15.832-3.37c-12.646-5.479-17.369-22.205-12.891-34.301c2.062-5.566,5.162-10.322,10.465-13.736
	c16.293-10.5,39.477-1.984,42.186,17.936c0.928,6.812,1.131,6.795-5.826,6.611c-11.053-0.293-22.104-0.674-33.157-0.844
	C1263.558,770.115,1261.039,770.783,1257.98,771.199z M1298.058,764.086c-2.87-9.037-11.029-15.881-18.512-16.043
	c-9.254-0.199-15.914,4.762-20.771,16.043C1272.033,764.086,1284.933,764.086,1298.058,764.086z"/>
<path d="M2104.462,778.735c2.256,1.146,3.844,1.957,5.416,2.759c-3.252,10.17-15.629,17.514-27.756,16.334
	c-10.998-1.07-19.064-6.654-23.093-17.234c-4.537-11.914-2.341-22.738,6.647-31.604c7.514-7.406,17.127-8.818,26.932-5.854
	c10.08,3.055,16.638,9.938,18.379,20.703c1.218,7.521,1.166,7.524-8.653,7.156c-5.543-0.207-11.086-0.509-16.632-0.568
	c-6.23-0.067-12.469,0.137-18.7,0.117c-2.729-0.011-3.239,1.479-3.002,3.748c0.694,6.621,7.81,14.75,14.452,16.487
	c7.795,2.036,18.097-1.31,22.343-7.226C2101.929,781.979,2103.148,780.461,2104.462,778.735z M2104.061,764.142
	c-3.082-10.727-10.164-15.659-19.423-15.76c-9.689-0.104-16.73,5.158-19.678,15.76
	C2078.05,764.142,2090.929,764.142,2104.061,764.142z"/>
<path d="M2039.645,778.769c2.146,1.145,3.715,1.975,5.278,2.804c-9.905,17.173-26.799,21.231-42.922,10.431
	c-6.888-4.615-12.065-18.818-9.78-27.404c2.937-11.024,9.01-19.305,20.735-22.041c14.729-3.438,30.11,5.449,33.034,20.709
	c0.186,0.955,0.23,1.978,0.613,2.849c1.606,3.683-0.746,4.72-3.508,4.744c-9.927,0.101-19.853-0.084-29.775-0.11
	c-3.836-0.013-7.758,0.637-11.479,0.018c-3.881-0.646-3.047,1.832-2.688,3.404c2.207,9.769,8.057,15.967,18.297,16.969
	c8.196,0.802,14.815-2.354,19.576-9.2C2037.763,780.871,2038.675,779.929,2039.645,778.769z M2038.879,764.293
	c-2.801-9.621-10.959-16.765-18.977-16.049c-8.77,0.78-17.9,4.696-19.557,16.049
	C2013.089,764.293,2025.738,764.293,2038.879,764.293z"/>
<path d="M1758.5,770.533c-6.926,0-13.691-0.005-20.457,0c-8.332,0.006-16.668-0.102-24.988,0.221
	c-0.732,0.029-2.143,2.953-1.92,4.315c1.195,7.343,8.402,15.149,16.453,15.979c10.385,1.069,17.986-2.808,23.078-12.162
	c2.057,1.033,4.055,2.035,6.049,3.037c-7.729,15.5-23.938,18.828-37.207,13.815c-11.016-4.159-18.613-19.731-15.297-32.713
	c2.938-11.498,12.158-22.306,29.199-20.996C1743.843,742.836,1757.578,750.011,1758.5,770.533z M1750.433,764.129
	c-1.855-11.516-10.061-15.387-20.197-15.75c-9.408-0.336-17.225,7.703-18.186,15.75
	C1724.73,764.129,1737.326,764.129,1750.433,764.129z"/>
<path d="M1683.474,96.306c11.266-23.868,22.482-47.653,33.703-71.438c0.513-0.068,1.021-0.138,1.527-0.205
	c11.157,23.896,22.312,47.789,33.516,71.776c-5.137,1.361-8.239,0.835-10.121-4.643c-2.197-6.414-5.811-12.346-8.963-18.795
	c-9.209,0-18.689-0.131-28.164,0.146c-1.375,0.041-3.197,1.766-3.939,3.171c-2.664,5.048-5.213,10.188-7.308,15.491
	C1691.869,96.516,1689.004,98.189,1683.474,96.306z M1730.099,65.915c-4.195-8.785-8.061-16.865-12.129-25.367
	c-4.123,8.724-7.967,16.853-11.991,25.367C1714.259,65.915,1721.714,65.915,1730.099,65.915z"/>
<path d="M1042.045,432.635c-9.599,14.924-24.242,19.617-38.516,12.484c-11.396-5.693-17.657-20.979-12.446-35.002
	c5.354-14.41,17.604-19.729,30.427-17.8c15.81,2.379,24.271,17.722,22.029,28.582c-15.658,0-31.421,0-47.299,0
	c0.881,7.931,3.767,13.921,10.333,18.368c5.665,3.844,22.471,1.848,26.483-5.104
	C1036.118,428.869,1036.982,428.974,1042.045,432.635z M1035.679,414.801c0.766-8.146-8.351-14.728-14.545-15.687
	c-12.477-1.938-20.66,3.657-23.78,15.687C1010.159,414.801,1022.929,414.801,1035.679,414.801z"/>
<path d="M1414.716,421c-15.603,0-30.879,0-46.049,0c-2.445,8.557,4.901,16.723,10.67,18.836c9.02,3.305,20.683,2.826,28.488-10.9
	c1.854,0.939,3.725,1.888,5.569,2.816c-4.573,13.543-18.743,18.883-31.619,15.812c-17.319-4.134-23.532-17.104-20.373-34.421
	c2.741-15.028,15.354-22.501,29.97-20.987C1406.183,393.688,1415.796,405.825,1414.716,421z M1407.8,414.875
	c-2.942-13.722-13.979-17.466-24.987-15.658c-7.634,1.255-14.138,9.419-13.146,15.658
	C1382.24,414.875,1394.836,414.875,1407.8,414.875z"/>
<path d="M1723.455,421c-0.898,7.414,3.996,15.412,11.225,18.885c8.984,4.314,17.709,1.121,28.762-10.656
	c1.75,0.923,3.562,1.875,5.316,2.8c-4.068,7.832-9.631,13.026-18.291,15.235c-18.127,4.625-34.256-8.303-34.582-25.223
	c-0.217-11.302,3.43-20.615,13.078-26.27c16.824-9.854,38.361-0.008,41.209,19.564c0.795,5.459-1.021,5.812-5.412,5.741
	C1750.974,420.865,1737.183,421,1723.455,421z M1724.279,414.72c13.034,0,25.727,0,38.473,0
	c-2.578-12.531-11.951-16.954-23.935-15.659C1731.904,399.807,1723.043,408.562,1724.279,414.72z"/>
<path d="M1975.807,420.965c-15.959,0-31.565,0-47.069,0c-2.355,7.666,5.309,17.467,12.02,19.18
	c11.498,2.938,18.791,1.613,27.632-10.932c1.771,0.932,3.575,1.879,5.348,2.809c-5.496,14.355-22.178,19.171-35.153,14.564
	c-13.567-4.814-19.951-17.604-17.259-31.734c3.095-16.224,15.591-24.216,29.957-22.731
	C1966.462,393.685,1976.021,406.329,1975.807,420.965z M1967.709,414.811c-1.242-9.774-8.771-16.815-22.58-15.854
	c-7.826,0.545-15.562,8.104-15.629,15.854C1942.23,414.811,1954.957,414.811,1967.709,414.811z"/>
<path d="M2100.634,421.056c-15.596,0-30.877,0-46.103,0c-1.233,8.48,3.869,16.402,12.024,19.104
	c11.109,3.676,21.191-0.42,27.156-11.229c1.988,0.99,3.986,1.984,5.965,2.97c-5.664,13.438-20.94,19.81-36.162,14.229
	c-13.782-5.053-19.407-19.121-16.026-33.541c3.59-15.31,16.101-21.948,29.967-20.419
	C2092.379,393.809,2102.004,406.077,2100.634,421.056z M2055.227,414.719c13.091,0,25.778,0,38.521,0
	c-2.298-11.839-11.927-17.089-23.938-15.688C2062.402,399.891,2055.355,407.435,2055.227,414.719z"/>
<path d="M609.729,421.015c-16,0-31.607,0-47.197,0c-0.512,9.861,4.81,16.432,13.023,19.746c9.043,3.65,19.576-1.012,26.774-11.549
	c1.763,0.904,3.562,1.826,5.347,2.74c-6.927,15.801-21.807,18.771-35.332,14.586c-13.18-4.082-19.297-19.02-17.05-30.996
	c3.521-18.774,18.05-25.005,30.396-23.367C601.832,394.316,610.153,406.685,609.729,421.015z M563.234,414.729
	c12.852,0,25.679,0,38.505,0c0.024-9.673-10.856-15.462-18.192-15.892C571.711,398.146,563.966,406.668,563.234,414.729z"/>
<path d="M1880.27,273.402c-6.192-14.021-11.703-26.499-17.459-39.53c-5.899,13.115-11.562,25.688-17.698,39.334
	c-7.925-18.664-15.337-36.125-22.771-53.631c6.845-1.152,7.087-0.822,9.664,5.614c4.104,10.244,8.479,20.38,13.172,31.599
	c5.943-13.369,11.423-25.689,16.896-38.011c0.452,0.021,0.903,0.041,1.354,0.062c5.527,12.365,11.058,24.731,16.951,37.928
	c5.662-13.128,10.937-25.348,16.24-37.651c2.174,0,4.321,0,7,0C1895.953,236.943,1888.377,254.555,1880.27,273.402z"/>
<path d="M420.846,420.953c-15.672,0-30.938,0-46.081,0c-2.445,7.141,2.606,15.428,9.589,18.448
	c12.303,5.323,22.594,1.183,29.537-10.106c5.516,1.646,7.083,2.129,2.82,8.299c-5.991,8.67-20.922,13.062-31.743,9.33
	c-11.216-3.865-17.953-14.826-18.136-24.84c-0.199-10.914,2.916-19.666,12.267-25.699c9.23-5.955,19.123-6.098,28.347-0.979
	C416.777,400.586,421.953,408.979,420.846,420.953z M375.224,414.725c13.083,0,25.777,0,38.523,0
	c-2.554-12.506-11.916-16.924-23.924-15.68C382.42,399.811,375.369,407.424,375.224,414.725z"/>
<path d="M1769.232,245.874c-0.52,9.08,3.357,15.655,11.834,19.06c12.51,5.021,21.307-0.896,28.213-10.817
	c1.969,1.038,3.688,1.943,5.387,2.841c-7.346,16.579-24.476,18.67-35.424,14.506c-13.052-4.968-19.691-16.123-16.986-31.918
	c2.274-13.283,11.058-21.1,25.342-22.396c7.91-0.718,15.134,2.238,20.938,7.915c5.688,5.562,7.83,12.612,7.976,20.811
	C1801.037,245.874,1785.314,245.874,1769.232,245.874z M1770.232,239.725c13.088,0,25.771,0,38.482,0
	c-1.006-9.818-12.447-17.091-22.801-15.737C1777.8,225.049,1770.336,232.32,1770.232,239.725z"/>
<path d="M2003.307,245.811c1.012,12.481,7.474,19.981,18.924,20.848c8.976,0.678,16.938-3.324,21.362-13.035
	c1.98,1.303,3.771,2.48,5.496,3.617c-5.881,13.44-20.646,18.9-35.812,13.887c-11.938-3.947-19.015-19.543-16.824-28.912
	c4.029-17.264,15.906-27.17,29.162-25.205c17.703,2.621,25.729,14.638,25.166,28.803
	C2035.052,245.811,2019.298,245.811,2003.307,245.811z M2043.266,239.84c-0.798-9.344-9.729-15.414-17.36-15.805
	c-11.439-0.584-18.779,4.859-21.548,15.805C2017.35,239.84,2030.307,239.84,2043.266,239.84z"/>
<path d="M367.53,246.096c-15.548,0-30.823,0-46.048,0c-1.093,8.261,2.971,14.901,11.258,18.829
	c9.562,4.533,16.809,1.86,28.676-10.657c1.652,0.83,3.354,1.686,5.034,2.528c-5.34,14.535-23.457,19.532-35.505,14.532
	c-15.461-6.418-19.515-19.355-16.377-33.082c3.856-16.883,17.322-22.543,29.354-20.972
	C361.168,219.532,369.691,233.319,367.53,246.096z M360.724,239.749c-2.824-13.328-15.424-17.234-23.731-15.58
	c-8.88,1.767-16.324,10.004-14.396,15.58C335.283,239.749,347.979,239.749,360.724,239.749z"/>
<path d="M926.755,227.653c0.17-3.374,0.29-5.773,0.422-8.402c2.182,0,4.125,0,6.445,0c0,17.287,0,34.662,0,52.396
	c-1.933,0-3.978,0-6.392,0c-0.136-2.384-0.271-4.808-0.47-8.359c-9.136,9.062-19.315,12.313-31.039,7.93
	c-6.758-2.529-11.457-7.496-14.604-13.893c-6.463-13.132-1.329-28.803,9.812-35.752C902.997,214.043,916.88,216.374,926.755,227.653
	z M926.996,245.454c0.973-11.229-10.286-21.781-20.932-21.562c-11.918,0.247-21.045,9.679-20.809,21.073
	c0.25,12.108,8.562,22.016,21.346,21.809C918.061,266.588,927.423,257.75,926.996,245.454z"/>
<path d="M1450.656,228.204c0.229-3.812,0.375-6.199,0.537-8.892c2.143,0,4.203,0,6.532,0c0,17.454,0,34.833,0,52.449
	c-2.129,0-4.062,0-6.476,0c-0.149-2.449-0.311-4.969-0.537-8.646c-7.555,7.693-15.986,11.159-25.777,9.709
	c-7.072-1.052-13.139-4.895-17.072-10.687c-8.188-12.041-8.332-24.166,2.023-36.333c5.168-6.068,12.554-9.016,20.578-8.694
	C1438.304,217.426,1444.933,221.013,1450.656,228.204z M1450.996,245.499c0.988-11.277-10.271-21.707-20.768-21.615
	c-11.93,0.104-21.329,9.877-21.055,21.799c0.277,11.869,9.365,21.345,21.402,21.072
	C1440.673,266.523,1451.293,259.26,1450.996,245.499z"/>
<path d="M2116.664,271.797c-2.264,0-4.209,0-6.59,0c0-2.6,0-5.008,0-8.92c-9.658,9.774-20.039,12.74-31.893,8.054
	c-6-2.373-10.221-6.748-13.351-12.433c-6.979-12.67-2.696-28.473,6.804-35.295c12.961-9.312,27.174-7.896,38.118,4.278
	c0.14-2.981,0.248-5.346,0.375-8.096c2.065,0,4.121,0,6.53,0C2116.664,236.604,2116.664,253.983,2116.664,271.797z
	 M2109.996,245.293c0.004-11.946-9.137-21.26-20.857-21.297c-12.271-0.041-20.965,9.271-20.846,21.318
	c0.111,11.065,7.816,21.416,21.07,21.463C2100.464,266.818,2110.502,258.148,2109.996,245.293z"/>
<path d="M816.655,446.806c-7.742-0.006-6.304-0.387-7.013-7.662c-7.104,7.154-15.61,10.021-25.185,8.729
	c-6.313-0.854-11.909-4.248-15.854-9.004c-9.676-11.67-9.244-29.576,3.332-40.544c10.263-8.951,23.916-8.312,37.787,3.449
	c0.178-3.003,0.334-5.685,0.502-8.549c2.188,0,4.139,0,6.43,0C816.655,410.941,816.655,428.681,816.655,446.806z M790.263,399
	c-12.236-0.004-21.209,9.099-21.281,21.441c-0.065,10.994,8.94,21.318,20.64,21.109c13.771-0.248,20.797-9.291,21.222-20.932
	C811.296,408.147,800.962,398.318,790.263,399z"/>
<path d="M871.998,577.244c0-2.443,0.079-3.904-0.018-5.355c-0.185-2.711,0.972-4.502,3.684-3.727
	c1.348,0.387,3.126,2.348,3.182,3.66c0.311,7.309,0.15,14.637,0.15,21.959c0,9.146,0,18.297,0,27.428
	c-6.865,0.803-6.865,0.803-7.146-6.779c-18.49,13.211-34.59,12.638-45.816-8.832c-5.758-11.004-1.165-26.123,9.872-33.805
	C844.327,565.929,858.77,563.099,871.998,577.244z M851.914,574c-12.171,0.01-20.908,8.908-20.918,21.303
	c-0.009,12.104,9.251,20.953,22.177,21.195c9.718,0.184,20.232-10.695,19.734-21.127C872.364,584.006,864.667,573.789,851.914,574z"
	/>
<path d="M659.734,576.83c0.605-8.729,0.605-8.729,7.256-8.509c0,16.772,0.227,33.571-0.116,50.356
	c-0.129,6.373-4.255,1.688-6.839,2.115c0-2.275,0-4.093,0-7.062c-7.117,6.36-14.709,10.104-23.578,9.166
	c-8.9-0.942-15.982-5.565-20.475-13.322c-7.655-13.228-4.495-29.722,8.012-37.812C635.797,564.133,647.849,564.668,659.734,576.83z
	 M639.825,574c-11.497,0.018-21.011,9.396-20.779,20.94c0.259,13.036,8.746,21.069,19.624,21.53
	c14.973,0.633,22.213-11.137,22.251-21.34C660.962,584.008,651.711,573.455,639.825,574z"/>
<path d="M1067.666,271.782c-2.307,0-4.257,0-6.555,0c0-2.473,0-4.732,0-8.127c-7.393,7.508-15.744,10.342-25.073,9.188
	c-7.726-0.955-13.778-5.573-18.188-11.676c-7.408-10.25-7.105-26.385,4.388-37.004c10.815-9.996,23.918-9.443,38.521,2.555
	c0.142-2.521,0.267-4.74,0.41-7.336c2.037,0,4.1,0,6.498,0C1067.666,236.622,1067.666,254.013,1067.666,271.782z M1019.996,244.836
	c0.229,13.209,9.619,22.054,20.479,21.867c12.397-0.214,21.035-7.264,21.367-21.844c0.254-11.17-9.222-21.115-20.851-20.904
	C1029.392,224.165,1020.013,233.308,1019.996,244.836z"/>
<path d="M2274.906,402.622c0-3.623,0-6.246,0-9.385c1.979-0.09,3.715-0.169,5.773-0.263c0,18.004,0,35.744,0,53.355
	c-8.225,2.358-4.83-4.433-6.133-8.396c-7.246,8.396-16.004,11.627-26.562,9.586c-6.86-1.325-12.284-4.941-16.336-10.45
	c-8.737-11.879-7.659-28.651,4.606-38.78C2246.809,389.581,2262.904,389.135,2274.906,402.622z M2254.062,441.002
	c11.604,1.817,22.217-10.428,21.068-22.76c-1.021-11.042-10.73-19.508-23.533-19.242c-9.689,0.201-18.842,10.917-18.615,21.673
	C2233.193,430.719,2242.923,443.213,2254.062,441.002z"/>
<path d="M1286.767,227.469c0.156-3.145,0.277-5.553,0.408-8.198c1.922,0,3.646,0,5.599,0c0,17.485,0,34.759,0,52.379
	c-1.771,0-3.481,0-5.567,0c0-2.584,0-5.188,0-8.947c-6.795,6.643-13.777,10.588-22.654,10.35
	c-8.938-0.24-15.957-4.283-20.981-11.166c-8.406-11.51-7.396-26.586,3.521-37.445
	C1257.734,213.842,1269.941,214.663,1286.767,227.469z M1265.879,224c-11.586-0.359-20.592,9.781-20.836,20.955
	c-0.256,11.709,10.059,22.146,20.812,21.85c10.553-0.293,21.312-6.887,21.154-22.121
	C1286.895,233.263,1277.496,223.989,1265.879,224z"/>
<path d="M1079.976,588.17c0,11.498,0,22.451,0,33.274c-2.27,0-4.269,0-6.979,0c0-11.563,0-23.438,0-35.312
	c0-11.799,0-23.601,0-36.39c12.819,1.938,26.029-3.485,37.909,4.646c5.899,4.039,7.717,10.14,6.935,16.658
	c-0.823,6.867-3.957,13.271-11.395,14.76c-7.491,1.504-15.279,1.525-22.938,2.187C1082.536,588.08,1081.558,588.094,1079.976,588.17
	z M1080.237,581c6.306,0,12.264,0.049,18.222-0.015c5.539-0.062,11.098-4.625,11.533-9.354c0.71-7.709-2.01-12.465-8.955-13.558
	c-6.75-1.062-13.674-1.021-20.8-1.479C1080.237,565.08,1080.237,572.672,1080.237,581z"/>
<path d="M362.996,769.828c0.313,17.17-12.335,27.932-27.527,28.088c-14.565,0.149-28.326-11.935-27.663-29.053
	c0.567-14.645,13.016-27.355,28.471-27.002C349.218,742.153,364.161,753.688,362.996,769.828z M355.996,770.039
	c0.467-9.47-7.553-21.238-20.295-21.554c-10.908-0.271-21.268,10.72-20.81,21.668c0.478,11.368,9.354,20.423,20.468,20.957
	C346.393,791.644,357.119,779.789,355.996,770.039z"/>
<path d="M1186.521,623c-18.26-0.334-28.406-12.803-28.193-28.146c0.227-16.368,10.699-27.229,27.479-27.696
	c16.773-0.47,28.06,12.854,28.195,27.826C1214.142,610.146,1201.166,623.588,1186.521,623z M1186.724,616
	c10.66,1.166,20.341-10.195,20.139-20.443c-0.207-10.483-7.289-21.291-20.807-21.604c-11.191-0.259-21.457,11.278-20.836,21.278
	C1165.913,606.44,1172.963,616.271,1186.724,616z"/>
<path d="M648.996,446.674c-6.999-0.25-7-0.25-7-6.869c0-20.32,0-40.642,0-60.962c0-1.797,0-3.594,0-5.604c2.408,0,4.348,0,6.875,0
	c0,9.296,0,18.663,0,27.357c5.346-2.643,10.312-5.596,15.634-7.62c8.964-3.41,21.708,2.073,23.175,14.016
	c1.506,12.273,1.027,24.804,1.131,37.224c0.01,0.74-2.56,2.113-3.879,2.058c-1.019-0.048-2.781-1.854-2.806-2.91
	c-0.219-9.655,0.201-19.338-0.293-28.973c-0.198-3.867-1.432-8.161-3.562-11.348c-4.279-6.41-14.973-5.662-21.424-0.552
	c-6.813,5.398-7.282,12.942-7.746,20.397C648.621,430.683,648.996,438.528,648.996,446.674z"/>
<path d="M1118.996,769.812c0.387,15.514-12.234,28.23-27.868,28.171c-12.771-0.054-28.392-10.38-27.433-29.957
	c0.64-13.06,13.193-26.235,27.214-26.181C1107.118,741.916,1119.572,755.604,1118.996,769.812z M1070.996,770.156
	c-0.818,11.799,8.773,20.59,20.367,20.934c11.572,0.346,20.486-10.74,20.805-20.846c0.299-9.539-9.371-21.855-21.089-21.355
	C1079.419,749.386,1070.994,757.845,1070.996,770.156z"/>
<path d="M1480.996,595.153c-0.283,16.388-11.84,27.714-27.82,27.89c-13.994,0.154-28.436-11.314-27.483-30.265
	c0.646-12.981,13.024-25.61,26.332-25.745C1468.898,566.863,1481.134,579.074,1480.996,595.153z M1454.119,574
	c-11.021-0.933-21.107,9.93-21.287,20.235c-0.244,13.851,9.881,22.623,20.375,22.334c12.254-0.339,20.449-9.271,20.896-21.663
	C1474.507,583.824,1462.4,572.926,1454.119,574z"/>
<path d="M1653.996,594.918c-1.656-15.756,12.82-27.978,27.555-27.986c13.556-0.012,27.74,12.191,27.615,28.601
	c-0.104,13.185-12.334,28.16-28.879,27.653C1668.211,622.815,1651.961,610.944,1653.996,594.918z M1660.996,595.047
	c-1.688,11.834,9.277,21.375,19.457,21.437c13.764,0.075,21.361-10.429,21.506-21.669c0.148-11.62-10.223-21.104-20.742-20.881
	C1669.67,574.181,1660.996,582.979,1660.996,595.047z"/>
<path d="M1444.472,742c16.658-0.527,28.693,13.188,28.363,27.953c-0.383,17.109-11.031,26.994-25.848,27.752
	c-18.688,0.953-29.543-11.683-29.826-27.607C1416.908,755.865,1428.046,741.92,1444.472,742z M1444.882,749
	c-12.949-0.336-20.791,11.203-20.688,21.051c0.127,11.969,9.036,20.896,20.683,21c11.729,0.104,21.205-9.223,20.93-21.75
	C1465.584,759.172,1457.564,748.666,1444.882,749z"/>
<path d="M2056.996,595.199c-0.027,14.975-12.363,27.784-26.689,27.811c-19.311,0.035-29.151-13.082-28.896-27.598
	c0.312-17.889,10.496-27.854,28.478-28.188C2045.238,566.94,2056.673,579.285,2056.996,595.199z M2029.484,616
	c11.621,0.983,20.668-9.984,20.414-20.91c-0.275-11.873-8.836-20.555-21.191-21.197c-9.441-0.487-21.131,10.449-20.463,21.693
	C2008.932,607.158,2016.275,616.008,2029.484,616z"/>
<path d="M314.996,446.506c-2.383-0.244-4.549-0.467-6.818-0.697c-0.064-1.315-0.174-2.473-0.174-3.629
	c-0.01-22.809-0.008-45.618-0.008-68.802c2.279,0,4.328,0,6.765,0c0,9.179,0,18.449,0,28.115c3.998-2.688,7.327-5.555,11.155-7.371
	c9.874-4.688,21.857-1.688,25.925,8.078c2.075,4.979,2.694,10.751,3.029,16.224c0.487,7.967,0.248,15.99,0.015,23.979
	c-0.043,1.478-1.449,4.08-2.363,4.144c-2.551,0.174-4.911-0.213-4.677-4.39c0.497-8.806,0.466-17.668,0.035-26.479
	c-0.266-5.424-0.595-11.164-6.037-14.749c-4.591-3.022-9.28-3.247-14.172-1.143c-8.707,3.75-12.412,10.836-12.629,19.896
	C314.832,428.502,314.996,437.324,314.996,446.506z"/>
<path d="M756.996,770.205c1.1,13.672-11.094,27.797-27.717,27.633c-15.039-0.146-27.696-12.947-27.479-29.291
	c0.172-12.856,12.854-27.342,28.885-26.688C744.612,742.426,757.683,753.988,756.996,770.205z M749.996,770.002
	c1.271-9.812-9.866-21.854-20.368-21.174c-11.562,0.75-20.61,9.239-20.632,20.955c-0.021,11.686,8.941,20.975,19.949,21.28
	C741.539,791.412,751.177,780.646,749.996,770.002z"/>
<path d="M1135.996,96.776c-2.626,0-4.566,0-6.73,0c0-24.607,0-48.994,0-73.576c2.205,0,4.146,0,6.687,0c0,9.398,0,18.754,0,29.01
	c6.562-5.893,12.697-9.426,21.162-9.498c8.625-0.074,16.991,6.981,17.637,15.955c0.896,12.5,0.226,25.11,0.226,38.008
	c-1.338,0-3.386,0-5.978,0c0-10.172,0.347-20.301-0.166-30.387c-0.213-4.191-1.515-8.729-3.644-12.328
	c-3.446-5.836-9.42-5.953-15.358-4.287c-6.928,1.943-11.589,6.633-12.665,13.592c-1.079,6.971-0.896,14.146-1.145,21.232
	C1135.882,88.461,1135.996,92.436,1135.996,96.776z"/>
<path d="M74.996,419.818c-0.901-14.441,11.967-27.736,27.361-27.872c15.227-0.133,27.978,13.593,27.825,28.381
	c-0.162,15.788-13.191,27.575-27.098,27.855C86.904,448.515,74.015,435.146,74.996,419.818z M81.996,420.109
	c0.002,12.611,8.306,20.781,20.523,21.195c11.878,0.404,21.07-11.104,20.608-20.869c-0.562-11.84-9.244-21.435-20.534-21.437
	C91.042,398.997,81.994,408.271,81.996,420.109z"/>
<path d="M142.999,373.208c2.595,0,4.538,0,6.851,0c0,9.453,0,18.715,0,29.231c4.89-6.397,10.656-9.671,17.306-10.311
	c11.531-1.107,20.606,5.492,21.677,19.341c0.806,10.432,0.162,20.969,0.164,31.459c0,1.146,0,2.293,0,3.365
	c-6.602,1.315-6.986,1.037-6.996-4.979c-0.016-8.991,0-17.981-0.005-26.978c-0.004-7.825-3.564-13.774-9.163-15.298
	c-8.502-2.312-16.521,1.92-19.705,8.049c-1.74,3.348-2.795,7.361-2.995,11.139c-0.438,8.301-0.104,16.646-0.161,24.969
	c-0.013,1.942,0.281,3.728-3.158,3.466c-2.653-0.203-3.843-0.3-3.837-3.171C143.017,420.207,142.999,396.922,142.999,373.208z"/>
<path d="M2342.992,446.569c-6.15,1.293-7.338-1.345-7.105-6.435c0.396-8.478,0.109-16.985,0.107-25.479
	c-0.002-8.205-3.584-13.966-9.346-15.66c-8.432-2.48-17.535,3.162-19.809,8.719c-1.387,3.395-2.512,7.104-2.727,10.734
	c-0.42,7.139-0.123,14.316-0.123,21.479c0,6.56-0.002,6.56-6.742,6.676c0-24.395,0-48.791,0-73.394c2.193,0,4.133,0,6.67,0
	c0,9.369,0,18.729,0,28.047c4.182-2.672,7.67-5.81,11.762-7.354c14.15-5.345,26.539,2.626,27.203,17.608
	C2343.404,423.145,2342.992,434.812,2342.992,446.569z"/>
<path d="M678.996,70.697c0-17.36,10.84-27.354,29.009-27.812c13.363-0.336,26.431,12.553,26.104,27.514
	c-0.302,13.633-10.561,28.004-28.546,27.82C690.65,98.068,677.093,83.407,678.996,70.697z M685.996,70.67
	c-1.253,10.195,8.705,21.605,20.507,21.156c11.483-0.439,20.339-8.552,20.47-21.263c0.131-12.565-9.381-20.928-20.317-21.483
	C695.556,48.516,684.431,60.016,685.996,70.67z"/>
<path d="M1024.031,43c13.668-1.834,28.22,10.795,28.031,27.438c-0.149,13.693-10.568,27.744-28.041,27.789
	c-14.445,0.038-28.485-13.229-27.256-29.563C997.859,54.194,1008.722,43,1024.031,43z M1003.996,70.312
	c-1.329,11.021,9.163,22.068,20.646,21.515c11.635-0.564,20.271-8.808,20.332-21.4c0.062-12.555-9.586-20.901-20.463-21.348
	C1013.206,48.613,1002.513,60.383,1003.996,70.312z"/>
<path d="M1330.16,43c15.805-1.699,27.717,13.207,27.785,27.188c0.078,15.668-13.766,28.718-29.113,28.066
	c-13.002-0.553-26.932-12.17-26.742-27.881C1302.27,55.543,1314.058,41.344,1330.16,43z M1350.996,70.438
	c-0.631-11.976-9.764-21.331-20.666-21.277c-11.57,0.055-20.76,8.928-21.271,21.682c-0.436,10.822,10.197,21.095,21.396,21.154
	C1340.931,92.051,1351.035,81.45,1350.996,70.438z"/>
<path d="M896.998,373.229c2.633,0,4.578,0,6.917,0c0,9.471,0,18.723,0,27.235c5.173-2.541,10.079-5.696,15.444-7.433
	c12.046-3.896,22.533,4.826,23.406,16.027c0.965,12.393,0.223,24.917,0.223,37.657c-2.102,0-3.816,0-5.992,0
	c0-8.647,0.107-17.113-0.046-25.569c-0.079-4.267-0.351-8.569-1.054-12.771c-1.278-7.629-11.133-12.224-19.416-8.593
	c-8.42,3.692-11.967,10.303-12.396,18.795c-0.414,8.146-0.195,16.329-0.031,24.491c0.058,2.771-1.028,4.215-3.557,3.597
	c-1.347-0.33-3.344-2.06-3.354-3.171C896.95,420.193,896.998,396.896,896.998,373.229z"/>
<path d="M604.328,198.219c1.954,0,3.568,0,5.645,0c0,9.605,0,19.006,0,27.562c5.377-2.636,10.442-6.12,16.045-7.659
	c12.562-3.451,22.319,5.172,22.83,15.406c0.625,12.539,0.148,25.135,0.148,38.094c-1.262,0-3.308,0-6,0
	c0-10.83,0.134-21.771-0.061-32.705c-0.092-5.185-1.469-10.125-6.369-12.982c-10.854-6.327-24.604,2.164-25.518,14.494
	c-0.766,10.365-1.051,20.766-1.559,31.359c-1.604,0-3.219,0-5.165,0C604.328,247.396,604.328,222.999,604.328,198.219z"/>
<path d="M709.945,393.35c0,2.797,0,5.272,0,8.481c2.939-2.293,5.289-4.427,7.92-6.123c12.828-8.271,30.377-2.229,31.109,14.333
	c0.49,11.067,0.58,22.155,1.09,33.225c0.145,3.138-1.676,3.744-3.728,3.281c-1.292-0.293-3.163-2.074-3.196-3.231
	c-0.264-9.146-0.041-18.302-0.209-27.447c-0.054-2.901-0.443-5.922-1.354-8.666c-3.456-10.431-15.551-10.877-23.397-4.954
	c-6.666,5.032-7.768,12.286-8.102,19.692c-0.367,8.131-0.084,16.284-0.084,24.394c-6.658,1.112-6.996,0.852-6.999-5.287
	c-0.004-13.979-0.005-27.951,0.001-41.928C703.001,392.747,703.009,392.747,709.945,393.35z"/>
<path d="M1640.974,620.94c-1.252,0.196-3.344,0.53-5.979,0.948c0-10.182,0.319-19.791-0.142-29.36
	c-0.216-4.423-1.065-9.261-3.175-13.054c-4.918-8.852-18.084-6.592-23.813-0.229c-4.254,4.723-5.737,10.184-5.84,16.2
	c-0.127,7.328-0.035,14.659-0.029,21.989c0.002,2.201,0.248,4.604-3.045,4.523c-3.108-0.074-4.047-1.742-4.021-4.812
	c0.14-14.825,0.056-29.652,0.07-44.479c0.004-2.099-0.51-4.658,2.875-4.617c3.098,0.039,4.719,1.439,4.146,4.793
	c-0.188,1.111-0.027,2.281-0.027,2.297c5.562-2.483,11.096-6.266,17.114-7.369c12.519-2.301,20.646,5.164,21.61,15.938
	C1641.814,595.869,1640.974,608.194,1640.974,620.94z"/>
<path d="M1102.995,446.535c-6.13,1.162-7.427-1.396-7.126-6.723c0.477-8.469,0.131-16.982,0.126-25.479
	c-0.004-7.863-3.565-13.687-9.174-15.31c-8.454-2.445-16.784,2.485-19.698,8.104c-1.736,3.349-2.763,7.36-2.993,11.142
	c-0.454,7.473-0.132,14.984-0.135,22.48c-0.002,6.301-0.005,6.301-6.845,5.873c0-17.619,0-35.248,0-53.25c2.127,0,4.173,0,6.613,0
	c0,2.52,0,5.112,0,7.771c4.254-2.656,7.983-5.587,12.18-7.496c11.646-5.304,26.459,1.663,26.982,18.704
	C1103.278,423.668,1102.995,435.004,1102.995,446.535z"/>
<path d="M1873.004,743.299c0.938-0.135,1.449-0.346,1.896-0.246c1.57,0.354,3.125,0.81,5.076,1.328c0,2.217,0,4.438,0,7.086
	c8.752-9.059,17.973-11.578,27.227-7.793c8.469,3.463,11.174,10.816,11.656,18.877c0.586,9.785,0.15,19.633,0.127,29.453
	c-0.008,2.248,0.604,5.055-3.088,4.951c-3.078-0.086-4.025-1.791-3.971-4.854c0.188-9.48,0.133-18.975,0.043-28.463
	c-0.053-6.014-1.545-11.707-7.834-13.828c-5.582-1.883-13.023-1.577-17.936,3.328c-4.24,4.238-6.232,9.027-6.217,14.875
	c0.027,8.488,0.125,16.98-0.133,25.463c-0.037,1.195-2.201,3.449-2.881,3.273c-1.492-0.386-3.787-1.994-3.805-3.131
	C1872.927,776.842,1873.004,760.058,1873.004,743.299z"/>
<path d="M318.183,620.385c0-23.235,0-46.51,0-70.084c11.903,0,23.623,0,35.577,0c0,2.105,0,4.047,0,6.523
	c-9.339,0-18.743,0-28.451,0c0,7.596,0,14.672,0,22.338c9.384,0,18.74,0,28.096,0c1.353,6.982,0.339,8.012-7.024,7.864
	c-6.933-0.14-13.869-0.028-21.382-0.028c0,9.705,0.003,19.151-0.001,28.602C324.992,622.845,324.988,622.845,318.183,620.385z"/>
<path d="M0.002,375.213c12.282,0,23.873,0,35.727,0c0,2.127,0,4.062,0,6.531c-9.257,0-18.645,0-28.378,0c0,7.559,0,14.604,0,22.182
	c9.389,0,18.778,0,28.398,0c0,2.465,0,4.404,0,6.863c-9.296,0-18.693,0-28.753,0c0,10.914-0.106,21.33,0.056,31.74
	c0.061,3.838-1.327,5.25-4.914,3.87c-0.896-0.347-2.042-1.614-2.046-2.47C-0.021,421.166,0.002,398.398,0.002,375.213z"/>
<path d="M1940.261,743.506c0,2.9,0,5.596,0,9.127c5.941-6.879,12.287-10.856,20.787-10.668c8.209,0.187,16.777,5.762,17.535,13.676
	c1.229,12.838,1.074,25.812,1.215,38.732c0.009,0.744-2.621,2.164-3.937,2.067c-1.024-0.073-2.713-1.998-2.737-3.134
	c-0.222-9.657-0.125-19.328-0.129-28.994c-0.007-8.113-3.902-14.4-9.712-15.275c-9.633-1.449-17.653,1.357-20.25,10.785
	c-2.444,8.863-2.202,18.48-3,27.781c-0.252,2.943-0.038,5.93-0.038,9.141c-2.033,0-3.64,0-5.649,0
	c-0.107-1.141-0.332-2.4-0.334-3.662c-0.021-14.998,0.092-30-0.084-44.998C1933.879,743.844,1935.229,742.153,1940.261,743.506z"/>
<path d="M1137.996,796.812c-2.15,0-3.768,0-6,0c0-4.343,0-8.616,0-12.896c0-11.826,0.128-23.654-0.07-35.478
	c-0.067-4.093,1.299-5.896,5.954-5.224c0,2.642,0,5.351,0,7.229c5.401-2.653,10.459-5.935,15.999-7.688
	c10.741-3.412,22.018,3.812,22.968,14.979c1.014,11.856,0.801,23.821,1.159,35.737c0.087,2.857-1.147,2.968-3.809,3.182
	c-3.438,0.271-3.166-1.488-3.176-3.439c-0.055-9.66,0.312-19.338-0.192-28.973c-0.204-3.854-1.614-8.014-3.632-11.328
	c-4.301-7.068-19.911-5.361-25.395,4.334c-3.276,5.801-3.143,11.979-3.67,18.055
	C1137.533,782.231,1137.996,789.256,1137.996,796.812z"/>
<path d="M1454.945,393.37c0,2.764,0,5.239,0,7.721c4.438-2.738,8.451-6.086,13.066-7.896c11.15-4.369,25.027,2.688,25.844,17.278
	c0.663,11.92,0.137,23.906,0.137,35.861c-2.068,0.172-3.834,0.315-5.996,0.493c0-5.862,0.131-11.483-0.033-17.101
	c-0.188-6.594-0.271-13.225-1.059-19.76c-1.271-10.539-11.979-14.517-22.059-9.21c-6.682,3.521-9.479,9.781-9.771,16.968
	c-0.342,8.474,0.059,16.976-0.229,25.449c-0.047,1.308-1.838,3.272-3.186,3.66c-2.723,0.778-3.705-1.045-3.695-3.729
	c0.062-16.459,0.029-32.916,0.029-49.738C1450.287,393.37,1452.33,393.37,1454.945,393.37z"/>
<path d="M1245.996,446.658c0-9.339,0.111-18.334-0.055-27.326c-0.066-3.596-0.359-7.271-1.221-10.744
	c-2.621-10.621-13.963-12.641-22.188-7.498c-6.779,4.238-9.451,10.947-9.523,18.748c-0.069,8.164-0.031,16.33-0.055,24.496
	c-0.002,0.321-0.121,0.645-0.189,0.965c-6.766,1.871-6.768,1.871-6.77-5.094c0-15.482,0-30.968,0-46.826c2.266,0,4.309,0,6.795,0
	c0.109,2.504,0.223,5.103,0.348,7.969c3.23-2.228,6.191-4.635,9.476-6.471c14.582-8.16,29.89,2.106,29.435,17.921
	c-0.269,9.324-0.047,18.664-0.049,27.996C1251.994,446.431,1251.99,446.431,1245.996,446.658z"/>
<path d="M1198.505,796.373c-1.599,0.221-3.334,0.461-5.312,0.735c0-18.035,0-35.647,0-53.274c8.023-2.556,5.07,4.244,5.957,7.444
	c3.704-2.519,6.979-5.261,10.688-7.16c10.822-5.556,26.82-0.931,28.062,14.841c0.901,11.532,0.785,23.146,1.086,34.727
	c0.062,2.461-0.799,2.761-3.536,2.896c-3.175,0.163-3.429-0.811-3.438-3.066c-0.02-9.485,0.011-18.978-0.026-28.465
	c-0.008-1.642,0.099-3.397-0.433-4.897c-3.336-9.494-5.45-12.312-17.352-11.146c-6.207,0.604-13.814,8.907-14.181,15.685
	C1199.457,775.094,1199.017,785.506,1198.505,796.373z"/>
<path d="M1089.996,271.833c-2.184,0-3.794,0-5.703,0c0-17.514,0-34.896,0-52.555c1.812,0,3.533,0,5.529,0
	c0.125,2.574,0.24,4.979,0.4,8.282c4.946-5.301,10.045-8.954,16.637-10.003c10.404-1.657,21.363,4.348,21.973,15.379
	c0.705,12.821,0.164,25.713,0.164,38.821c-1.395,0-3.334,0-6,0c0-9.332,0.088-18.752-0.047-28.166
	c-0.049-3.416-0.083-6.994-1.074-10.205c-2.861-9.274-12.9-12.543-21.357-7.42c-6.297,3.813-9.303,9.334-9.554,16.613
	c-0.163,4.764-0.766,9.512-0.931,14.272C1089.866,261.659,1089.996,266.471,1089.996,271.833z"/>
<path d="M884.073,404.148c-2.947,2.441-4.62,3.968-8.573,0.396c-9.71-8.765-25.498-7.371-33.298,1.526
	c-6.567,7.491-7.539,21.311,1.298,28.967c10.946,9.482,25.428,8.691,35.087-2.548c1.697,1.313,3.437,2.662,5.173,4.011
	c-1.412,1.494-2.719,3.106-4.257,4.459c-11.647,10.235-30.104,9.135-41.825-0.853c-9.016-7.683-10.097-24.048-3.037-35.309
	C844.771,388.636,872.229,387.314,884.073,404.148z"/>
<path d="M1623.005,393.226c6.979-0.385,6.983-0.385,6.99,6.011c0.006,8.824-0.027,17.647,0.008,26.472
	c0.039,9.44,6.002,14.738,15.408,15.438c10.243,0.766,16.812-7.508,16.645-15.295c-0.234-10.775-0.061-21.564-0.061-32.599
	c2.366,0,4.309,0,7,0c0,8.144,0.104,16.396-0.041,24.646c-0.08,4.42-0.355,8.864-0.963,13.241
	c-1.3,9.353-6.961,14.847-16.104,16.381c-10.862,1.822-21.506,0.32-26.85-12.559c-1.041-2.512-1.896-5.306-1.947-7.986
	C1622.88,415.854,1623.005,404.723,1623.005,393.226z"/>
<path d="M294.861,435.817c-6.87,11.604-20.771,14.043-31.399,11.69c-14.81-3.271-21.472-13.34-22.372-24.412
	c-1.051-12.938,5.977-24.409,17.165-28.735c13.135-5.078,28.712-1.798,37.001,10.031c-1.887,1.157-3.751,2.305-5.605,3.442
	c-5.399-7.588-16.043-11.533-25.678-8.619c-8.151,2.465-13.765,8.203-15.838,16.701c-1.889,7.742,2.43,17.6,9.921,22.543
	c6.14,4.053,20.8,4.678,27.236-1.881C289.747,432.041,290.023,432.312,294.861,435.817z"/>
<path d="M1861.996,568.617c6.766-1.261,7.455,2.301,7.055,7.329c-0.822,10.321-0.863,20.729-2.117,30.989
	c-1.312,10.787-8.393,14.543-17.709,15.884c-10.776,1.55-20.922-1.748-25.26-14.243c-1.154-3.328-1.771-6.98-1.881-10.505
	c-0.264-8.646-0.072-17.306-0.096-25.954c-0.007-2.562,0.197-3.796,3.74-3.761c3.646,0.034,3.25,1.692,3.258,3.815
	c0.021,8.983-0.037,17.971,0.021,26.955c0.056,7.727,3.812,13.729,9.798,15.896c7.424,2.685,15.521,1.112,19.75-5.494
	c2.438-3.812,3.036-9.192,3.299-13.937C1862.345,586.642,1861.996,577.642,1861.996,568.617z"/>
<path d="M996.544,640.636c2.437-5.723,4.468-11.801,7.536-17.299c2.637-4.721,1.672-8.633-0.322-12.979
	c-6.361-13.862-12.601-27.785-19.094-42.146c4.878,0.002,7.988,0.307,10.016,5.646c4.377,11.528,9.992,22.59,15.653,35.06
	c3.938-9.229,7.362-17.336,10.862-25.412c1.168-2.695,2.758-5.226,3.744-7.979c1.666-4.642,3.354-8.935,10.229-6.817
	c-3.5,8.291-7.008,16.795-10.672,25.229c-5.439,12.524-10.991,25.006-16.498,37.504c-0.592,1.343-1.38,2.625-1.771,4.021
	C1004.814,640.521,1001.621,642.215,996.544,640.636z"/>
<path d="M1523.996,742.901c2.541,0.546,4.574,0.979,5.967,1.276c0,12.629,0.678,25.076-0.26,37.4
	c-0.545,7.161-6.979,14.146-15.855,15.493c-8.807,1.337-17.395,1.312-23.448-6.399c-2.505-3.188-4.796-7.359-5.147-11.271
	c-0.986-10.871-0.965-21.839-1.221-32.771c-0.121-5.154,3.711-3.283,6.969-3.611c0,9.691-0.187,19.148,0.094,28.596
	c0.109,3.659,0.49,7.691,2.121,10.85c3.705,7.17,11.18,10.383,18.24,8.269c8.774-2.632,12.078-7.151,12.459-17.099
	C1524.296,763.513,1523.996,753.365,1523.996,742.901z"/>
<path d="M532.996,743.354c6.135-0.84,7.432,1.74,7.092,6.729c-0.648,9.563-0.253,19.219-1.219,28.74
	c-1.193,11.78-8.152,18.195-20.607,18.739c-10.408,0.45-18.604-2.509-22.562-12.562c-1.751-4.451-2.336-9.525-2.593-14.361
	c-0.409-7.805-0.048-15.645-0.146-23.471c-0.031-2.475,0.376-4.059,3.361-3.92c2.704,0.123,3.832,1,3.755,4.004
	c-0.226,8.652-0.21,17.316-0.051,25.973c0.286,15.562,11.918,20.332,23.041,16.673c5.88-1.937,9.852-8.729,9.91-16.604
	C533.054,763.315,532.996,753.336,532.996,743.354z"/>
<path d="M928.995,44.174c2.521,0,4.461,0,6.079,0c0,12.675,0.51,25.226-0.178,37.711c-0.477,8.693-6.756,13.634-14.81,15.398
	c-8.97,1.965-18.129,1.793-24.325-6.307c-2.838-3.706-5.146-8.704-5.47-13.273c-0.78-11.059-0.254-22.209-0.254-33.509
	c2.437,0,4.377,0,6.955,0c0,9.67,0.263,19.284-0.069,28.88c-0.379,10.982,4.062,17.262,15.688,18.569
	c7.259,0.818,16.271-4.76,16.354-13.979C929.073,66.687,928.995,55.708,928.995,44.174z"/>
<path d="M381.938,815.026c3.009-6.899,6.07-13.709,8.899-20.614c0.529-1.289,0.622-3.188,0.072-4.424
	c-6.134-13.85-12.49-27.598-18.6-41.449c-0.64-1.453-0.065-3.441-0.058-5.181c2.038,0.815,5.112,1.063,5.929,2.556
	c3.028,5.52,5.256,11.473,7.893,17.215c2.987,6.51,6.093,12.969,9.516,20.234c5.028-11.604,9.778-22.459,14.438-33.357
	c1.834-4.285,3.688-8.332,10.354-6.35c-2.409,5.607-4.784,11.213-7.215,16.788c-7.714,17.701-15.399,35.414-23.283,53.039
	c-0.524,1.177-2.541,1.938-4.016,2.349C384.876,816.104,383.616,815.412,381.938,815.026z"/>
<path d="M1110.778,57.902c-13.726-11.655-27.359-12.243-37.075-0.963c-7.314,8.495-6.861,19.508,1.568,28.486
	c7.117,7.58,21.652,11.418,35.619-2.572c1.543,0.972,3.158,1.984,4.973,3.123c-4.277,7.824-11.531,10.834-19.18,11.808
	c-14.293,1.816-25.904-2.311-32.521-16.605c-8.284-17.903,6.575-37.922,24.041-38.234c7.845-0.141,15.412,0.256,22.021,5.114
	c0.664,0.487,1.306,1.02,1.902,1.584C1116.05,53.342,1117.672,55.562,1110.778,57.902z"/>
<path d="M1987.996,200.667c-6.611,10.902-13.258,21.68-19.666,32.596c-1.254,2.138-2.172,4.807-2.23,7.254
	c-0.242,10.291-0.104,20.59-0.104,31.184c-2.74,0-5.121,0-8,0c0-8.932-0.404-17.739,0.133-26.489c0.4-6.52-1.812-11.693-5.23-16.912
	c-5.87-8.971-11.363-18.188-17.076-27.396c6.678-1.777,7.219-1.515,10.396,3.598c5.078,8.157,10.252,16.258,15.877,25.155
	c5.101-8.354,10.043-16.284,14.812-24.321C1980.416,199.415,1980.607,199.225,1987.996,200.667z"/>
<path d="M435.932,219.691c4.646-1.998,7.197-0.326,8.972,3.804c4.312,10.036,8.807,19.998,13.274,29.967
	c0.708,1.58,1.673,3.041,2.913,5.264c5.205-12.168,10.161-23.598,14.979-35.086c2.024-4.831,1.894-4.887,9.635-4.416
	c-10.477,23.945-20.897,47.775-31.352,71.674c-2.199,0-4.353,0-7.14,0c2.722-6.621,4.879-13.232,8.116-19.268
	c2.201-4.104,0.782-7.104-0.747-10.502C448.37,247.325,442.156,233.52,435.932,219.691z"/>
<path d="M548.925,743.615c11.097-2.143,12.57,6.741,17.059,11.572c1.865,2.016,3.281,4.443,5.345,7.298
	c3.515-5.002,6.938-9.271,9.674-13.938c2.806-4.787,6.822-5.697,12.25-5.336c-5.39,7.787-10.335,15.295-15.703,22.489
	c-1.848,2.478-1.353,3.627,0.339,5.843c5.838,7.646,11.306,15.569,16.914,23.393c-3.968,2.975-7.427,2.189-10.686-2.516
	c-3.521-5.09-6.997-10.213-10.567-15.271c-0.634-0.896-1.63-1.539-2.753-2.567c-4.758,6.733-9.298,13.155-13.832,19.579
	c-2.352,3.33-5.217,3.718-9.188,0.94c6.464-8.955,12.929-17.909,19.341-26.793C561.064,760.097,555.218,752.16,548.925,743.615z"/>
<path d="M1584.052,44.54c-9.791,22.41-19.502,44.446-29.012,66.569c-1.762,4.103-4.041,6.118-9.168,4.345
	c1.912-4.539,3.31-9.4,5.856-13.557c4.009-6.527,3.11-12.32-0.062-18.854c-6.176-12.713-11.723-25.731-17.48-38.524
	c6.74-2.578,8.365,2.08,10.262,6.396c4.764,10.86,9.551,21.713,14.781,33.598c2.521-5.865,4.689-10.877,6.842-15.896
	c2.754-6.43,5.705-12.783,8.164-19.324C1576.02,44.542,1578.855,42.777,1584.052,44.54z"/>
<path d="M1993.996,393.206c0,9.543-0.479,18.708,0.188,27.789c0.367,5.004,1.848,10.321,4.281,14.684
	c3.803,6.804,13.021,6.316,18.021,4.986c6.281-1.671,10.451-8.257,10.49-15.482c0.062-10.475,0.019-20.948,0.019-31.8
	c2.271,0,4.317,0,7.5,0c-0.554,12.936,0.187,26.16-2.011,38.876c-2.405,13.94-14.012,17.112-26.049,15.422
	c-13.688-1.922-18.57-11.875-18.465-23.444c0.1-10.277,0.021-20.559,0.021-31.027
	C1990.117,393.206,1991.729,393.206,1993.996,393.206z"/>
<path d="M1629.117,258.614c5.561-12.9,10.559-25.123,16.24-37.021c0.918-1.926,4.875-2.401,7.428-3.549
	c0.266,0.426,0.531,0.851,0.797,1.273c-10.402,23.817-20.805,47.637-31.254,71.562c-2.121,0-4.271,0-7.248,0
	c2.738-6.469,4.949-12.851,8.092-18.732c2.314-4.331,0.959-7.606-0.787-11.403c-6.254-13.609-12.322-27.306-18.49-41.035
	c4.57-1.875,7.166-0.477,8.979,3.73c4.582,10.636,9.412,21.161,14.174,31.718C1627.492,256.148,1628.162,257.04,1629.117,258.614z"
	/>
<path d="M1144.996,393.181c2.161,0,3.771,0,6,0c0,9.176-0.309,18.287,0.132,27.363c0.212,4.401,1.265,8.963,2.917,13.055
	c2.678,6.635,9.814,9.15,18.312,7.23c6.701-1.521,11.519-7.945,11.606-15.101c0.117-9.146,0.029-18.297,0.029-27.446
	c0-1.619,0-3.238,0-5.064c2.442,0,4.383,0,7.56,0c-0.619,13.188-0.131,26.503-2.174,39.419
	c-2.017,12.75-14.421,16.918-25.829,15.131c-13.563-2.127-18.836-12.273-18.601-23.615
	C1145.162,414.02,1144.996,403.883,1144.996,393.181z"/>
<path d="M475.429,615.086c9.854,0,18.921,0,27.963,0c1.151,6.354,0.654,6.979-4.492,6.938c-10.244-0.087-20.49-0.019-30.735-0.033
	c-1.303-0.002-2.605-0.127-5.097-0.258c9.947-15.679,19.488-30.709,30.048-47.345c-6.078,0-10.985-0.004-15.895,0
	c-3.062,0.004-6.287,0.576-9.125-0.221c-1.324-0.373-1.905-3.39-3.028-5.611c14.004,0,26.722,0,39.873,0
	C495.075,584.108,485.593,599.06,475.429,615.086z"/>
<path d="M866.996,25.22c2.771,0,5.044,0,7.729,0c0.09,1.432,0.258,2.869,0.261,4.309c0.021,14.646,0.108,29.296-0.048,43.939
	c-0.047,4.421-0.25,8.972-1.323,13.224c-2.97,11.729-15.661,14.688-26.687,9.663c-1.768-0.807-3.449-1.87-5.021-3.018
	c-2.054-1.498-2.41-2.988-0.604-5.377c1.65-2.183,2.517-2.371,4.599-0.707c1.75,1.399,3.993,2.188,6.039,3.207
	c7.474,3.729,15.012-0.853,15.041-9.239c0.059-16.812,0.017-33.621,0.017-50.433C866.996,29.004,866.996,27.219,866.996,25.22z"/>
<path d="M2141.334,398.342c-2.873,4.869-5.291,5.268-8.734,2.672c-3.139-2.364-6.725-3.643-10.791-1.448
	c-4.076,2.202-5.518,7.567-2.023,10.534c4.199,3.57,8.756,6.879,13.594,9.5c6.283,3.404,9.48,12.836,6.111,19.521
	c-3.354,6.651-11.527,10.73-18.967,8.592c-2.768-0.797-5.273-2.445-7.938-3.625c-3.654-1.621-3.459-4.029-1.352-6.703
	c2.352-2.985,3.963-0.67,5.594,0.957c3.307,3.306,7.621,4.277,11.432,2.363c3.318-1.666,7.127-4.654,5.576-9.393
	c-0.779-2.381-2.865-4.643-4.924-6.229c-4.369-3.373-9.332-5.988-13.633-9.438c-5.066-4.062-4.773-11.391-2.299-15.995
	c3.443-6.397,9.605-9.147,16.049-7.024C2133.218,394.008,2137.097,396.334,2141.334,398.342z"/>
<path d="M1993.77,568.526c-8.06,17.763-15.948,35.161-23.843,52.562c-0.582,0.123-1.161,0.246-1.741,0.367
	c-8.168-17.509-16.336-35.02-24.604-52.746c4.933-1.812,7.549-0.103,9.396,3.989c4.969,11.005,10.104,21.933,15.678,33.976
	c3.697-7.896,7.048-14.971,10.322-22.072c2.049-4.438,4.055-8.896,5.965-13.396C1986.593,567.31,1989.591,567.715,1993.77,568.526z"
	/>
<path d="M1809.974,399.032c-2.479,3.871-4.579,4.76-8.023,2.088c-3.039-2.356-6.738-3.668-10.814-1.746
	c-4.403,2.078-5.916,7.688-2.26,10.808c4.193,3.574,8.766,6.865,13.6,9.496c6.671,3.629,9.729,12.664,6.238,19.595
	c-3.459,6.881-10.84,10.758-18.973,7.95c-4.166-1.438-8.062-3.649-12.353-5.641c1.971-2.476,3.09-3.879,3.987-5.008
	c3.843,1.491,7.568,3.334,11.509,4.366c4.217,1.104,7.604-0.614,9.428-4.755c1.865-4.241,0.714-7.758-3.006-10.321
	c-3.614-2.493-7.213-5.116-11.129-7.062c-8.007-3.969-8.959-14.85-5.162-20.938c3.627-5.819,12.647-7.737,19.75-3.875
	C1805.312,395.381,1807.558,397.323,1809.974,399.032z"/>
<path d="M702.739,623.108c-8.729-18.909-16.88-36.562-25.121-54.413c4.974-1.779,7.558-0.025,9.368,4.064
	c4.996,11.291,10.166,22.508,15.557,34.395c5.023-11.162,9.916-21.646,14.457-32.271c2.734-6.397,3.989-7.41,10.364-5.5
	C719.291,586.998,711.263,604.511,702.739,623.108z"/>
<path d="M1253.308,573.215c-2.37,4.664-4.586,5.508-8.553,2.865c-5.604-3.738-10.928-3.043-13.215,0.846
	c-2.787,4.742-1.058,8.732,4.951,12.256c4.073,2.392,8.01,5.033,11.887,7.736c6.115,4.262,5.412,12.948,3.342,17.521
	c-2.654,5.864-11.803,10.271-17.895,8.306c-4.515-1.455-8.646-4.102-13.015-6.246c2.688-4.494,4.14-6.726,9.019-2.67
	c5.592,4.645,12.825,3.334,15.971-3.175c2.097-4.338,0.263-7.276-2.896-9.604c-4.33-3.188-9.019-5.894-13.459-8.935
	c-5.354-3.659-7.308-10.803-4.66-16.5c2.962-6.373,10.767-10.354,17.043-8.139C1245.752,568.865,1249.339,571.192,1253.308,573.215z
	"/>
<path d="M1565.97,781.754c5.283-11.521,10.324-22.09,14.959-32.834c1.963-4.551,4.312-7.113,9.855-4.725
	c-7.918,17.332-15.836,34.661-23.752,51.993c-0.518,0.03-1.027,0.065-1.541,0.103c-8.061-17.324-16.113-34.646-24.322-52.299
	c3.803-1.021,6.822-1.938,8.896,2.875C1554.996,758.322,1560.384,769.582,1565.97,781.754z"/>
<path d="M976.866,224.415c-1.718,1.312-2.538,1.896-3.308,2.539c-0.633,0.529-1.203,1.135-1.244,1.172
	c-4.115-1.475-7.733-3.17-11.541-4.019c-3.605-0.801-6.609,0.918-7.571,4.648c-0.938,3.635,0.114,6.972,3.394,9.112
	c4.084,2.668,8.457,4.908,12.438,7.712c7.183,5.058,8.798,11.614,5.063,19.053c-3.226,6.429-11.961,10.341-18.951,7.854
	c-4.021-1.431-7.641-3.984-11.635-6.141c1.938-2.339,3.166-3.821,4.396-5.306c-0.074,0.459-0.149,0.918-0.225,1.377
	c4.562,1.19,9.101,3.125,13.692,3.271c2.34,0.073,5.604-2.58,6.965-4.881c1.651-2.79,1.493-6.55-1.869-8.798
	c-4.188-2.803-8.635-5.23-12.767-8.112c-7.573-5.285-9.917-13.47-4.649-21.157c3.378-4.931,11.641-6.907,18.093-4.024
	C970.232,220.094,973.021,222.129,976.866,224.415z"/>
<path d="M712.793,262.043c4.904,1.498,8.854,3.199,12.965,3.83c4.562,0.701,7.694-2.445,8.819-6.365
	c1.019-3.551-0.354-6.871-4.229-8.889c-4.317-2.246-8.391-4.992-12.473-7.668c-5.512-3.613-7.398-11.021-4.941-16.98
	c2.461-5.975,9.826-10.445,16.354-8.184c4.145,1.438,7.998,3.715,12.538,5.881c-2.353,2.416-3.733,3.836-4.137,4.25
	c-4.604-1.492-8.291-2.971-12.115-3.842c-3.812-0.871-6.176,1.887-6.84,4.938c-0.459,2.107,0.386,5.474,1.924,6.846
	c3.479,3.105,7.718,5.387,11.715,7.896c5.285,3.316,8.562,7.41,8.777,14.237c0.352,10.962-11.771,16.788-19.918,14.627
	c-2.455-0.651-4.897-1.688-7.068-3.008C708.396,266.11,708.447,265.375,712.793,262.043z"/>
<path d="M258.275,791.056c1.737-2.592,2.727-4.064,3.969-5.924c1.807,0.994,3.649,1.873,5.35,2.976
	c4.055,2.623,8.8,4.354,13.032,2.362c4.899-2.305,6.444-7.403,6.409-12.92c-0.108-16.33-0.09-32.664,0.054-48.994
	c0.012-1.35,1.003-3.385,2.099-3.893c2.967-1.375,4.879-0.58,4.854,3.338c-0.107,17.664,0.24,35.336-0.138,52.994
	c-0.308,14.346-11.241,19.778-23.481,16.026C266.328,795.769,262.623,793.235,258.275,791.056z"/>
<path d="M2204.996,375.226c2.633,0,4.574,0,7,0c0,8.822,0,17.433,0,26.037c0,9.479-0.084,18.961,0.029,28.443
	c0.08,6.754-1.52,12.735-7.627,16.413c-7.268,4.373-14.539,2.959-21.561-0.851c-1.988-1.079-3.769-2.555-5.644-3.846
	c2.271-6.008,2.731-6.002,8.086-3.467c3.571,1.688,7.61,3.701,11.317,3.483c5.439-0.315,8.369-5.597,8.384-12.556
	c0.03-15.969,0.011-31.938,0.011-47.904C2204.996,379.184,2204.996,377.381,2204.996,375.226z"/>
<path d="M1606.035,24.385c0,6.527,0,12.791,0,19.57c3.736,0,7.141,0,10.736,0c0,2.133,0,3.74,0,5.869c-3.354,0-6.758,0-10.658,0
	c0,15.868,0,31.239,0,46.889c-2.547,0-4.592,0-7.145,0c0-15.545,0-30.92,0-46.637c-3.094,0-5.693,0-8.633,0c0-2.061,0-3.771,0-5.867
	c2.707-0.131,5.443-0.265,8.521-0.412c0-6.508,0-12.771,0-19.412C1601.259,24.385,1603.304,24.385,1606.035,24.385z"/>
<path d="M1416.818,44.075c4.129,0,7.396,0,10.918,0c0,1.939,0,3.545,0,5.676c-3.273,0-6.664,0-10.562,0c0,15.875,0,31.244,0,46.928
	c-2.545,0-4.59,0-7.143,0c0-15.438,0-30.814,0-46.538c-3.086,0-5.688,0-8.787,0c-0.098-2.046-0.175-3.765-0.277-6.021
	c3.021,0,5.748,0,8.996,0c0-6.89,0-13.287,0-19.893c2.457,0,4.396,0,6.854,0C1416.818,30.577,1416.818,36.974,1416.818,44.075z"/>
<path d="M1382.992,49.947c0,15.884,0,31.259,0,46.837c-2.438,0-4.373,0-6.812,0c0-15.369,0-30.746,0-46.648
	c-3.199,0-5.924,0-8.906,0c0-2.244,0-3.961,0-6.021c2.803,0,5.408,0,8.546,0c0-6.709,0-13.104,0-19.801c2.562,0,4.604,0,7.011,0
	c0,6.354,0,12.619,0,19.426c3.715,0,7.1,0,10.821,0c0,2.25,0,3.968,0,6.207C1390.279,49.947,1386.882,49.947,1382.992,49.947z"/>
<path d="M766.175,271.803c-2.768,0-4.705,0-7.143,0c0-15.561,0-30.938,0-46.66c-3.086,0-5.688,0-8.789,0
	c-0.097-2.051-0.175-3.771-0.279-6.021c3.02,0,5.754,0,8.996,0c0-6.89,0-13.287,0-19.894c2.457,0,4.396,0,6.854,0
	c0,6.344,0,12.743,0,19.663c3.886,0,7.287,0,10.922,0c0,2.128,0,3.729,0,5.854c-3.271,0-6.661,0-10.562,0
	C766.175,240.624,766.175,255.993,766.175,271.803z"/>
<path d="M1689.996,399.04c-3.156,0-5.76,0-8.676,0c0-2.062,0-3.779,0-5.851c2.652,0,5.264,0,8.406,0c0-6.366,0-12.426,0-18.829
	c2.572,0,4.617,0,7.193,0c0,6.01,0,12.071,0,18.487c3.771,0,7.037,0,10.812,0c0.104,2.056,0.188,3.775,0.299,6.027
	c-3.676,0-7.076,0-10.887,0c0,16.239,0,31.974,0,48.123c-1.387-0.388-2.471-1.093-3.127-0.81c-4.08,1.765-4.023-0.875-4.023-3.562
	c-0.002-13.306-0.002-26.609-0.002-39.912C1689.996,401.73,1689.996,400.747,1689.996,399.04z"/>
<path d="M963.977,398.984c-3.191,0-5.8,0-8.688,0c0-2.062,0-3.778,0-5.84c2.749,0,5.358,0,8.504,0c0-6.375,0-12.44,0-18.817
	c2.562,0,4.604,0,7.188,0c0,6.117,0,12.188,0,17.606c3.608,3.164,11.683-3.004,10.885,6.992c-3.514,0-6.932,0-10.871,0
	c0,12.246,0,24.005,0,35.766c0,1.495-0.167,3.021,0.03,4.487c0.702,5.25-0.214,8.879-7.052,7.184
	C963.977,430.928,963.977,415.312,963.977,398.984z"/>
<path d="M1633.066,96.756c0-15.549,0-30.795,0-46.57c-3.037,0-5.76,0-8.771,0c0-2.247,0-3.964,0-6.02c2.723,0,5.332,0,8.473,0
	c0-6.703,0-13.1,0-19.824c2.562,0,4.605,0,7.182,0c0,6.395,0,12.789,0,19.531c3.439,0,6.375,0,9.799,0
	c0.094,2.053,0.172,3.771,0.274,6.023c-3.358,0-6.429,0-9.985,0c0,15.878,0,31.253,0,46.858
	C1637.601,96.756,1635.662,96.756,1633.066,96.756z"/>
<path d="M959.996,723.724c0,4.986,0.43,9.695-0.111,14.289c-0.632,5.354,2.197,6.08,6.137,5.345
	c4.826-0.905,5.279,1.526,4.785,5.526c-3.476,0-6.768,0-10.518,0c0,15.692,0,31.088,0,46.332c-7.107,2.289-7.291,2.168-7.292-4.504
	c-0.003-12.146-0.001-24.295-0.001-36.443c0-1.618,0-3.241,0-5.188c-3.118,0-5.723,0-8.252,0c-1.251-6.056,0.077-7.027,8.252-5.355
	c0-4.881-0.001-9.575,0-14.271C952.999,722.826,953.032,722.797,959.996,723.724z"/>
<path d="M1134.816,568.344c0.129,2.115,0.257,4.234,0.41,6.832c3.113-2.551,5.574-5.699,8.763-6.863
	c3.11-1.137,6.967-0.247,10.759-0.247c-0.857,4.812-2.84,6.228-6.809,6.036c-6.741-0.315-11.314,7.144-11.889,15.438
	c-0.733,10.694-1.057,21.42-1.557,32.125c-6.484,0.639-6.495,0.639-6.499-5.718c-0.007-13.485-0.002-26.976-0.002-40.459
	C1127.996,568.606,1127.997,568.606,1134.816,568.344z"/>
<path d="M2135.578,271.814c-2.076,0-4.018,0-6.271,0c0-17.481,0-34.862,0-52.528c2.131,0,4.189,0,6.529,0
	c0.096,2.082,0.184,4.027,0.299,6.631c5.484-5.59,10.627-11.359,19.668-6.985c-0.895,1.956-1.725,3.762-2.52,5.502
	c-9.172-1.397-15.967,5.122-16.312,15.101C2136.611,250.104,2136.068,260.67,2135.578,271.814z"/>
<path d="M378.184,271.614c0-17.523,0-34.777,0-52.32c2.24,0,4.303,0,6.647,0c0.098,2.062,0.188,4.008,0.312,6.597
	c5.473-5.552,10.604-11.347,19.662-6.968c-0.893,1.953-1.716,3.756-2.509,5.494c-9.206-1.357-15.979,5.129-16.323,15.096
	c-0.365,10.572-0.906,21.141-1.389,32.104C382.732,271.614,380.688,271.614,378.184,271.614z"/>
<path d="M2354.996,393.194c2.604,0,4.555,0,6.812,0c0.11,2.108,0.218,4.049,0.362,6.79c5.765-5.271,11.181-11.19,19.568-5.958
	c-1.521,3.86-3.854,5.312-7.97,5.11c-5.321-0.26-9.965,5.078-10.649,12.701c-0.83,9.188-0.807,18.461-1.114,27.699
	c-0.075,2.312-0.013,4.633-0.013,6.916c-6.848,0.829-6.998,0.711-6.998-5.523C2354.994,425.162,2354.996,409.395,2354.996,393.194z"
	/>
<path d="M1665.004,723.224c2.424,0,4.363,0,6.604,0c0.125,1.068,0.37,2.182,0.373,3.287c0.021,21.826,0.021,43.652,0.009,65.479
	c-0.002,2.264,0.553,5.268-3.074,4.854c-1.398-0.16-3.73-1.977-3.742-3.057C1664.953,770.34,1665.004,746.89,1665.004,723.224z"/>
<path d="M428.996,548.197c2.586,0,4.525,0,6.729,0c0,24.596,0,48.995,0,73.396c-6.729-0.256-6.729-0.256-6.729-6.621
	c0-20.303,0-40.604,0-60.907C428.996,552.258,428.996,550.449,428.996,548.197z"/>
<path d="M1684.996,723.174c2.547,0,4.482,0,6.703,0c0.104,1.43,0.281,2.713,0.284,3.994c0.019,21.442-0.017,42.887,0.045,64.33
	c0.007,2.616,0.035,5.25-3.312,5.375c-3.664,0.139-3.769-2.562-3.76-5.424C1685.027,768.865,1684.996,746.278,1684.996,723.174z"/>
<path d="M834.253,796.092c0-24.223,0-48.447,0-72.879c2.193,0,4.134,0,6.743,0c0,1.776,0,3.543,0,5.31c0,20.284,0,40.569,0,60.854
	C840.996,796.011,840.996,796.011,834.253,796.092z"/>
<path d="M668.996,271.809c-2.578,0-4.52,0-6.729,0c0-17.562,0-34.935,0-52.558c2.236,0,4.312,0,6.565,0
	c0.099,1.782,0.188,3.396,0.284,5.151c3.15-2.19,5.915-5.022,9.254-6.164c3.021-1.03,6.673-0.218,10.646-0.218
	c-1.875,4.463-3.269,6.807-8.053,6.203c-4.717-0.593-10.377,5.971-10.889,12.001c-0.67,7.878-0.803,15.805-1.064,23.715
	C668.892,263.739,668.996,267.543,668.996,271.809z"/>
<path d="M45.232,393.241c2.484,0,4.439,0,6.611,0c0.099,2.166,0.188,4.107,0.271,5.93c2.872-2.035,5.447-4.705,8.581-5.84
	c3.063-1.109,6.694-0.652,10.664-0.922c-1.104,4.561-2.332,6.834-6.411,6.67c-4.959-0.199-9.463,2.914-10.752,7.76
	c-1.205,4.527-1.861,9.275-2.112,13.962c-0.347,6.479-0.086,12.986-0.087,19.48c-0.001,6.182-0.002,6.182-6.762,6.418
	C45.232,428.965,45.232,411.24,45.232,393.241z"/>
<path d="M1403.188,574.642c5.448-5.395,10.856-9.549,19.015-6.049c-1.246,2.916-1.869,5.873-6.26,5.479
	c-4.684-0.42-9.348,2.845-10.752,7.74c-1.156,4.021-1.938,8.265-2.104,12.438c-0.319,8.131,0.002,16.287-0.217,24.426
	c-0.029,1.045-2.029,3.053-2.539,2.881c-1.595-0.528-4.136-1.873-4.15-2.936c-0.262-16.746-0.184-33.498-0.184-50.189
	C1402.812,567.664,1402.814,567.666,1403.188,574.642z"/>
<path d="M415.996,271.808c-2.485,0-4.426,0-6.687,0c0-17.483,0-34.885,0-52.545c2.179,0,4.253,0,6.519,0
	c0.101,1.787,0.191,3.417,0.268,4.76c2.946-1.968,5.829-4.188,8.979-5.919c3.484-1.914,6.839-1.021,10.092,1.536
	c-1.031,1.596-1.987,3.074-2.95,4.554c-9.515-1.654-15.371,4.312-16.118,16.592c-0.523,8.635-0.102,17.323-0.102,25.988
	C415.996,268.39,415.996,270.008,415.996,271.808z"/>
<path d="M1766.996,96.778c-2.621,0-4.562,0-6.729,0c0-17.615,0-35.015,0-52.594c2.219,0,4.16,0,6.555,0
	c0.105,1.748,0.215,3.442,0.37,5.981c4.5-4.781,8.896-8.521,15.312-7.104c1.219,0.271,2.262,1.334,3.385,2.032
	c-1.178,1.494-2.146,4.043-3.562,4.314c-11.048,2.133-15.283,6.881-15.318,18.079C1766.97,77.127,1766.996,86.761,1766.996,96.778z"
	/>
<path d="M951.329,23.206c1.931,0,3.543,0,5.411,0c0,24.588,0,48.979,0,73.578c-1.852,0-3.463,0-5.411,0
	C951.329,72.407,951.329,48.016,951.329,23.206z"/>
<path d="M203.242,446.627c0-24.377,0-48.787,0-73.408c1.855,0,3.471,0,5.367,0c0.125,1.066,0.367,2.18,0.368,3.294
	c0.023,21.825-0.062,43.649,0.086,65.473C209.093,446.303,207.627,447.815,203.242,446.627z"/>
<path d="M1427.273,393.202c2.188,0,4.129,0,6.723,0c0,3.963,0,7.889,0,11.814c0,12.458-0.133,24.919,0.092,37.375
	c0.062,3.195-1.1,4.343-3.963,4.522c-3.371,0.22-3.127-2.133-3.127-4.325c0-15.615-0.002-31.232,0.014-46.85
	C1427.011,394.952,1427.17,394.163,1427.273,393.202z"/>
<path d="M737.332,568.748c6.132-1.229,6.657-0.838,6.661,5.071c0.009,14.142-0.204,28.282,0.112,42.414
	c0.113,5.166-1.748,6.647-6.773,5.452C737.332,604.258,737.332,586.692,737.332,568.748z"/>
<path d="M455.767,621.604c-6.493,0.605-6.76,0.41-6.766-5.264c-0.015-13.832-0.006-27.664-0.005-41.496
	c0.001-6.312,0.003-6.312,6.771-6.461C455.767,586.136,455.767,603.883,455.767,621.604z"/>
<path d="M627.667,446.638c-1.95,0-3.649,0-5.418,0c0-17.737,0-35.479,0-53.427c1.86,0,3.474,0,5.418,0
	C627.667,410.951,627.667,428.688,627.667,446.638z"/>
<path d="M223.243,446.22c0-17.907,0-35.353,0-53.001c1.856,0,3.471,0,5.753,0c0,3.912,0,7.85,0,11.787
	c0,12.158,0.009,24.313-0.004,36.477C228.984,447.383,228.964,447.383,223.243,446.22z"/>
<path d="M694.31,219.227c1.982,0,3.6,0,5.445,0c0,17.479,0,34.737,0,52.528c-1.668,0.084-3.387,0.17-5.445,0.272
	C694.31,254.361,694.31,236.971,694.31,219.227z"/>
<path d="M1707.996,10.469c0.002-6.846,3.568-10.512,10.184-10.469c6.049,0.041,9.781,3.778,9.816,9.836
	c0.035,5.975-4.738,11.187-10.119,11.049C1712.314,20.747,1707.994,16.19,1707.996,10.469z M1717.779,15.034
	c3.457,0.02,5.422-1.385,5.159-4.693c-0.229-2.857-0.94-5.471-4.841-5.387c-3.476,0.074-5.131,1.479-5.137,5.031
	C1712.961,13.525,1714.617,15.11,1717.779,15.034z"/>
<path d="M1632.244,548.901c1.24,1.341,2.408,2.601,3.58,3.858c-4.447,5.197-11.086,7.031-18.357,3.188
	c-6.039-3.193-7.971-2.732-13.922,1.213c-1.146-1.479-2.312-2.98-3.455-4.451c5.053-5.703,10.478-6.92,18.525-3.295
	C1623.423,551.584,1627.703,551.521,1632.244,548.901z"/>
<path d="M2013.166,733.428c2.242-9.356,10.061-15.416,19.475-15.084C2029.83,725.334,2018.209,734.334,2013.166,733.428z"/>
<path d="M738.722,546.933c5.057,0.086,7.879,1.896,7.017,5.545c-0.513,2.15-3.323,4.771-5.525,5.26
	c-3.058,0.678-5.43-1.221-5.296-5.223C735.037,548.877,736.243,546.854,738.722,546.933z"/>
<path d="M697.3,207.991c-4.226,0.393-6.076-2.504-6.055-5.623c0.021-2.855,1.833-5.349,5.725-5.465
	c4.15-0.121,5.483,2.803,5.518,5.508C702.515,205.062,701.366,208.434,697.3,207.991z"/>
<path d="M798.946,728.36c0.669-2.733,0.995-5.812,5.378-5.707c3.479,0.082,5.326,1.388,5.704,4.938c0.405,3.854-2.095,5.961-5,6.058
	C802.459,733.729,798.998,732.711,798.946,728.36z"/>
<path d="M784.39,722.731c4.25-0.185,5.562,1.927,5.637,5.502c0.074,3.884-2.688,5.457-5.553,5.558
	c-3.19,0.11-5.486-2.412-5.354-5.722C779.247,724.922,780.564,722.127,784.39,722.731z"/>
<path d="M223.861,372.176c6.085-0.543,7.84,2.338,7.914,5.463c0.074,3.188-2.48,5.271-5.85,5.3c-3.836,0.032-5.794-2.896-5.56-5.952
	C220.525,374.928,223.166,373.061,223.861,372.176z"/>
<path d="M87.004,377.725c-0.229-4.206,2.964-5.189,5.722-5.188c3.548,0.002,5.997,2.775,5.028,6.188
	c-0.592,2.085-3.439,4.853-5.374,4.933C89.34,383.786,86.456,381.704,87.004,377.725z"/>
<path d="M457.999,553.136c-0.363,2.383-1.854,4.879-5.72,4.826c-3.819-0.056-4.999-3.092-5.142-5.992
	c-0.173-3.559,2.373-4.946,5.806-4.994C456.479,546.928,458.102,548.576,457.999,553.136z"/>
<path d="M1436.121,377.438c-0.467,3.271-2.346,6.032-5.588,5.292c-2.146-0.489-4.711-3.272-5.271-5.487
	c-0.641-2.552,0.75-5.389,4.666-5.293C1433.67,372.038,1435.695,373.622,1436.121,377.438z"/>
<path d="M625.16,372.022c3.922-0.661,5.09,2.512,5.331,5.312c0.271,3.14-1.845,5.363-5.259,5.631c-3.098,0.244-6.678-2.84-6.1-5.608
	C619.737,374.467,621.044,371.652,625.16,372.022z"/>
<path d="M107.004,377.733c-0.229-4.188,2.928-5.146,5.697-5.224c3.3-0.096,5.383,2.307,5.211,5.714
	c-0.167,3.296-2.305,5.825-5.541,5.565C109.244,383.54,106.447,381.688,107.004,377.733z"/>
</svg>
