<?xml version="1.0" encoding="utf-8"?>
<!-- Generator: Adobe Illustrator 15.0.0, SVG Export Plug-In . SVG Version: 6.00 Build 0)  -->
<!DOCTYPE svg PUBLIC "-//W3C//DTD SVG 1.1//EN" "http://www.w3.org/Graphics/SVG/1.1/DTD/svg11.dtd">
<svg version="1.1" id="Layer_1" xmlns="http://www.w3.org/2000/svg" xmlns:xlink="http://www.w3.org/1999/xlink" x="0px" y="0px"
	 width="2047px" height="615px" viewBox="0 0 2047 615" enable-background="new 0 0 2047 615" xml:space="preserve">
<path d="M1480,313c5.599-3.044,14.263-12.798,16-19c1.683-6.01-2.786-15.059-1-23c6.53-29.033,10.936-57.297,21-83
	c24.344-62.17,66.608-122.007,123-152c28.736-15.284,119.136-35.722,131,9c1,0.667,2,1.333,3,2c9.241-1.183,14.092-7.339,20-12
	c-2.949-29.736-37.947-30.08-63-35c-10.666,1.333-21.334,2.667-32,4c-13.665,4.666-27.335,9.334-41,14
	c-76.826,34.869-155.63,140.282-171,237c-0.667,0.333-1.333,0.667-2,1c-14.999-33.997-30.001-68.003-45-102c-1,0-2,0-3,0
	c-5.012,2.921-13.47,11.229-15,17c0.333,7.999,0.667,16.001,1,24c-6.333,30.664-12.667,61.336-19,92c-0.667,1-1.333,2-2,3
	c-8.197-2.84-6.485-10.863-11-17c-10.213,8.292-22.845,38.87,1,42c22.797-12.443,38.795-77.074,42-110c0.667-0.333,1.333-0.667,2-1
	c16.367,32.421,34.313,70.758,43,108C1478.667,312.333,1479.333,312.667,1480,313z"/>
<path d="M355,258c0.333,0,0.667,0,1,0c1.144,15.617-2.199,37.935,2,53c1,0.667,2,1.333,3,2c24.713-1.951,45.639-39.569,53-60
	c-0.667-0.667-1.333-1.333-2-2c-1,0.333-2,0.667-3,1c-11.53,9.34-14.121,25.218-28,33c-6.834-10.401-7.511-40.895-5-59
	c6.981-50.336,26.068-115.79,26-175c-11.996,1.47-30.03,22.061-34,32c-0.333,1.333-0.667,2.667-1,4c0.333,0.333,0.667,0.667,1,1
	c3.333-2,6.667-4,10-6c0.667,0.667,1.333,1.333,2,2c-3.666,29.331-7.334,58.669-11,88c-4.344,4.693-28.379,6.158-36,13
	c-22.008,19.759-42.914,93.802-17,126c25.474-3.416,23.999-35.869,38-51C354.333,259.333,354.667,258.667,355,258z M329,281
	c-12.148-16.074,3.355-66.43,6-81c6.538-4.813,16.68-6.664,28-7C362.704,213.4,339.554,268.813,329,281z"/>
<path d="M654,283c-1,0-2,0-3,0c0.176-25.178,5.605-46.621,10-70c4.333-33.663,8.667-67.337,13-101c3-12.999,6-26.001,9-39
	c-13.023,1.612-29.651,21.48-31,35c1.667,0,3.333,0,5,0c-3.666,22.665-7.334,45.335-11,68c-9.789,54.333-4.512,71.465-36,107
	c-3.625-0.965-2.037,0.066-4-2c-8.625-13.378,14.679-77.099,16-94c-1.667-0.333-3.333-0.667-5-1c-13.73,10.049-45.418,78.888-53,98
	c-1,0.667-2,1.333-3,2c-8.07-31.285,5.974-68.619,7-99c-1.333-0.333-2.667-0.667-4-1c-11.801,8.3-28.417,29.585-32,45
	c6.868-0.744,6.735-2.433,11-5c0-0.667,0-1.333,0-2c8.705,12.752-11.852,69.838-1,84c1,1,2,2,3,3c0.667,0.667,1.333,1.333,2,2
	c15.123-7.566,33.957-27.006,38-45c0.667-0.333,1.333-0.667,2-1c1.284,11.299-4.393,24.601-1,37c1.333,1.333,2.667,2.667,4,4
	c19.711-0.007,34.26-21.079,39-36c0.667-0.333,1.333-0.667,2-1c0,13.666,0,27.335,0,41c19.496,3.294,57.106-48.355,59-67
	c-3,0-6,0-9,0C672.001,257.666,662.999,270.334,654,283z"/>
<path d="M1923,104c-0.005-7.135-1.125-8.809-3-13c-4-0.333-8-0.667-12-1c-9.375,9.626-17.576,12.591-23,27
	c0.886,8.347,3.979,9.322,8,14C1910.769,130.937,1918.387,117.229,1923,104z M1899,107c1.333-1,2.667-2,4-3c1,0.333,2,0.667,3,1
	c0.667,0.667,1.333,1.333,2,2c0.333,2.667,0.667,5.333,1,8c-1.333,0.667-2.667,1.333-4,2c-2-2-4-4-6-6
	C1899,109.667,1899,108.333,1899,107z"/>
<path d="M1909,115c-0.333-2.667-0.667-5.333-1-8c-0.667-0.667-1.333-1.333-2-2c-1-0.333-2-0.667-3-1c-1.333,1-2.667,2-4,3
	c0,1.333,0,2.667,0,4c2,2,4,4,6,6C1906.333,116.333,1907.667,115.667,1909,115z"/>
<path d="M888,305c2-8.999,4-18.001,6-27c5.717-19.687,16.661-41.355,31-53c2.758,26.717-13.438,56.181-8,85
	c0.667,0.667,1.333,1.333,2,2c20.143-1.839,37.622-35.259,43-52c0-0.333,0-0.667,0-1c-9.941-1.766-20.778,19.491-24,28
	c-0.667,0.333-1.333,0.667-2,1c-1-0.667-2-1.333-3-2c1.767-16.438,16.272-65.891,9-79c-2.338-3.035-3.45-3.033-9-3
	c-9.937,7.015-25.575,21.11-30,33c-1,0-2,0-3,0c2.171-42.822,9.27-83.291,15-122c0-0.333,0-0.667,0-1c-1.667-0.333-3.333-0.667-5-1
	c-11.596,8.74-27.162,30.24-33,44c-0.333,0.667-0.667,1.333-1,2c0.333,0.667,0.667,1.333,1,2c7.512-2.5,10.411-9.506,16-14
	c-0.031,47.968-6.818,153.748-56,139c-10.232-22.849-5.304-56.662,6-75c7.348,1.318,10.717,4.622,12,12c2,0.333,4,0.667,6,1
	c10.057-11.255,16.681-30.428-7-33c-22.938,11.568-65.004,90.796-27,117c24.19,6.02,43.51-16.646,49-35c1-0.667,2-1.333,3-2
	c-1.667,13.999-3.333,28.001-5,42C881.4,312.306,884.895,309.528,888,305z"/>
<path d="M1302,159c-2.725-11.532,4.154-21.314,5-33c-1.667-0.333-3.333-0.667-5-1c-11.268,11.602-14.842,17.888-21,36
	c-6.333,0.667-12.667,1.333-19,2c0.333-9.666,0.667-19.334,1-29c0-0.667,0-1.333,0-2c-14.091,3.499-39.858,41.347-47,54
	c0.333,0.667,0.667,1.333,1,2c6.999-1,14-2,21-3c5.015,24.893-33.903,120.686-2,128c11.141-6.265,16.55-14.753,26-22
	c0.667,4.333,1.333,8.667,2,13c1.333,1.333,2.667,2.667,4,4c29.157-3.287,49.433-32.675,59-56c-11.286-6.851-20.778,31.178-42,33
	c-2.834-8.097,7.323-105.993,11-109c11.332-1.333,22.668-2.667,34-4c14.921-3.371,42.151-17.657,47-31c-12.332,5-24.668,10-37,15
	C1327.334,157,1314.666,158,1302,159z M1252,289c-2,0-4,0-6,0c-6.155-10.259,4.813-94.39,12-106c0.333-1,0.667-2,1-3
	c4-0.333,8-0.667,12-1c1.667,0.333,3.333,0.667,5,1C1275.319,212.822,1267.521,269.536,1252,289z"/>
<path d="M223,200c-37.436,9.792-19.767,88.798-75,89c-43.029-38.068-8.072-160.852,57-138c8.607,12.041,7.118,19.591,2,33
	c0,0.333,0,0.667,0,1c0.667,0.333,1.333,0.667,2,1c7.333-6.333,14.667-12.667,22-19c9.408-18.332-4.315-41.622-25-39
	c-31.506,3.994-68.79,35.671-82,59c-14.1,24.899-24.177,87.51-5,115c21.665,31.056,63.336-8.291,71-27c1-0.667,2-1.333,3-2
	c0.333,0.333,0.667,0.667,1,1c-3.861,32.054-8.049,69.564-18,98C151.376,442.368,82.132,539.044,0,549c0,2.333,0,4.667,0,7
	c50.153-0.631,83.681-35.941,109-63c27.993-29.917,59.211-63.578,76-104c20.918-50.363,33.644-126.079,41-186
	C225,202,224,201,223,200z"/>
<path d="M1139,211c-1,0-2,0-3,0c-14.323,9.436-14.472,19.601-24,34c-10.094,15.254-28.218,34.509-45,43
	c-58.17-0.753-7.092-160.542,36-139c8.643,3.897,9.732,11.769,9,25c1.333,0.333,2.667,0.667,4,1c14.188-7.739,19.166-19.145,14-38
	c-4.811-3.458-7.963-5.017-15-7c-48.736,21.183-76.421,44.147-90,100c-7.154,29.425-8.57,67.57,17,78
	c18.143,7.487,56.199-33.151,61-44c1,0,2,0,3,0c-14.424,88.85-47.022,213.277-89,276c-13.946,20.838-36.685,41.5-57,56
	c-8.195,5.849-17.715,9.261-23,18c0,0.333,0,0.667,0,1c22.153-3.965,58.596-41.765,73-57c76.037-80.423,92.971-220.517,129-341
	C1139,215,1139,213,1139,211z"/>
<path d="M484,190c0.667,0.667,1.333,1.333,2,2c6.284-3.496,14.204-10.114,17-17c1,0,2,0,3,0c-7.985,138.75-36.527,319.089-153,357
	c-1.333,2.667-2.667,5.333-4,8c18.491,17.31,72.721-47.537,81-58c36.484-46.107,61.847-95.918,78-164
	c1.667-19.332,3.333-38.668,5-58c1.304-34.517,10.357-85.377,18-121c0-0.333,0-0.667,0-1c-2-0.333-4-0.667-6-1
	C513.179,152.705,490.042,170.489,484,190z"/>
<path d="M1989,230c0.667-12.999,1.333-26.001,2-39c-1.667,0-3.333,0-5,0c-23.062,23.207-29.186,72.102-50,101c-0.667,0-1.333,0-2,0
	c-12.827-9.228-13.064-29.997-15-50c9.821-5.574,27.364-14.65,31-26c-13.5,2.009-17.133,10.084-33,11
	c-4.357-28.325-8.691-57.096-13-82c-1.333-0.333-2.667-0.667-4-1c-11.288,7.698-33.082,23.794-36,39c1,0,2,0,3,0
	c5.666-4,11.334-8,17-12c0.667,0.333,1.333,0.667,2,1c-15.44,29.437-46.952,111.718-77,121c-7.333-1-14.667-2-22-3
	c-6.081,4.639-13.239,13.287-14,23c41.833,9.117,70.691-33.181,85-64c12.332-0.333,24.668-0.667,37-1
	c16.461,17.458-5.429,59.337,24,65c17.966,3.188,38.443-28.302,43-43c1-0.667,2-1.333,3-2c3.512,13.6-4.654,29.029-2,39
	c0,0.667,0,1.333,0,2c1.667-0.333,3.333-0.667,5-1c21.733-10.442,18.467-51.434,31-71c10.459-16.329,33.821-21.435,48-34
	c0-1.333,0-2.667,0-4c0-0.333,0-0.667,0-1C2016.683,190.226,2008.458,223.399,1989,230z M1894,229c-6,0.667-12,1.333-18,2
	c-2.333,0-4.667,0-7,0c5.666-12.332,11.334-24.668,17-37C1892.655,197.226,1894.342,219.328,1894,229z"/>
<path d="M1762,195c21.812-6.95,48.527-27.152,59-46c-0.667-0.667-1.333-1.333-2-2c-6.333,6-12.667,12-19,18
	c-18.03,13.268-46.658,16.386-76,16c1.333-11.999,2.667-24.001,4-36c-1.667,0-3.333,0-5,0c-15.496,14.29-11.712,16.48-20,35
	c0,0.667,0,1.333,0,2c-8.333,0-16.667,0-25,0c-3.364-11.989,1.7-19.495,3-30c0-0.333,0-0.667,0-1c-1.333-0.333-2.667-0.667-4-1
	c-16.151,11.159-27.593,35.351-38,52c4.003,3.044,7.421,1.64,14,1c8.616,34.801-14.917,78.066,0,110
	c17.042,3.412,26.269-8.879,34-18c2,6.666,4,13.334,6,20c31.085,6.208,57.324-34.99,61-60c-1.973-1.597-1.365-1.356-5-2
	c-7.666,13.332-15.334,26.668-23,40c-4.666,0.667-9.334,1.333-14,2c-6.964-18.145,1.007-76.223,8-93
	C1725.495,194.84,1751.228,198.432,1762,195z M1676,295c-2-0.333-4-0.667-6-1c-11.513-23.313,0.845-65.235,3-92
	c8.999-0.333,18.001-0.667,27-1c0.333,0.667,0.667,1.333,1,2C1691.915,234.547,1697.69,276.197,1676,295z"/>
<path d="M1195,168c-35.341,15.555-76.896,91.758-50,137c42.89,10.187,72.583-85.251,64-131
	C1204.657,170.753,1202.321,168.862,1195,168z M1169,286c-1.667-0.333-3.333-0.667-5-1c-18.207-26.135,0.847-77.185,20-96
	C1211.174,202.745,1177.334,274.241,1169,286z"/>
<path d="M298,182c-4.666-0.333-9.334-0.667-14-1c-14.297,7.886-28.547,18.396-38,31c-15.642,20.856-39.474,81.359-4,99
	c30.374-0.816,52.717-54.8,61-81C307.935,214.392,309.978,191.417,298,182z M264,284c-3.294,2.065-4.012,2.875-10,3
	c-20.441-27.66-1.513-68.729,18-86c2.667,0.333,5.333,0.667,8,1C298.124,227.91,273.628,264.015,264,284z"/>
<path d="M1560,286c-1.333,0-2.667,0-4,0c-8.327-16.167,2.24-76.862,7-100c-0.333-0.667-0.667-1.333-1-2
	c-14.494,3.626-23.766,26.117-29,39c-2.187,2.059-1.941,1.349-3,5c5.441-1.347,6.364-3.27,10-6c0.333,0,0.667,0,1,0
	c-2.281,25.271-13.386,63.049-4,82c2.333,1.667,4.667,3.333,7,5c13.546-3.352,45.368-45.45,50-59c0.667-0.333,1.333-0.667,2-1
	c4.503,18.8-14.346,67.022-19,85c-16.283,62.896-51.497,138.096-96,172c-8.275,6.304-20.514,8.632-29,15c0,0.333,0,0.667,0,1
	c0.333,0.667,0.667,1.333,1,2c5,0,10,0,15,0c27.232-12.664,43.007-44.483,61-67c48.65-60.883,66.582-136.56,88-227
	c4.333-15.665,8.667-31.335,13-47c-1.333-0.667-2.667-1.333-4-2C1601.205,212.142,1586.865,256.596,1560,286z"/>
<path d="M811,241c3.485-14.621,3.614-36.55-8-42c-3.667-0.333-7.334-0.667-11-1c-7.333,4.333-14.667,8.667-22,13
	c-8.643,10.618-33.161,72.461-18,92c2.452,3.935,5.405,5.21,10,7C788.386,308.729,805.445,264.305,811,241z M777,288
	c-1,0.333-2,0.667-3,1c-25.111-13.333-0.71-63.354,11-73C809.4,225.336,792.151,279.156,777,288z"/>
<path d="M775,362c-3.068,3.925-6.351,5.479-8,11c20.735-7.975,43.849-4.837,56-23c0-0.333,0-0.667,0-1c-1.333,0-2.667,0-4,0
	C815.46,352.881,783.926,357.657,775,362z"/>
<path d="M1007,415c4,0,8,0,12,0c7.623-3.299,17.724-13.306,21-21c0.333-2.333,0.667-4.667,1-7c-3.942-3.913-10.697-6.591-14-11
	c-0.667,0-1.333,0-2,0c5.312-5.177,12.329-5.959,17-12c-2.338-1.87-4.266-2.058-9-2c-8.846,5.307-18.312,8.682-23,18
	c-0.333,1-0.667,2-1,3c5.152,4.985,14.613,8.473,18,15c0,1,0,2,0,3c-1.514,1.907-1.77,1.804-4,3c-5.875-2.51-6.978-4.945-10-10
	c-2.333,0.333-4.667,0.667-7,1c-3.169,4.119-6.431,6.778-4,14C1003.667,411,1005.333,413,1007,415z"/>
<path d="M1152,381c4-4.666,8-9.334,12-14c0-0.333,0-0.667,0-1c-7.333,5.333-14.667,10.667-22,16c-0.667,0.667-1.333,1.333-2,2
	c-1-7-2-14-3-21c-1.333,0-2.667,0-4,0c-1.667,2.333-3.333,4.667-5,7c-3.204,4.728-2.322,26.619-2,40c6.94-1.71,11.944-7.459,13-15
	c1,0,2,0,3,0c3.666,3.667,7.333,7.333,11,11c2,0.667,4,1.333,6,2c2.667-2.667,5.333-5.333,8-8c0-1.333,0-2.667,0-4
	c-4.333-4.666-8.667-9.334-13-14C1153.333,381.667,1152.667,381.333,1152,381z"/>
<path d="M1248,364c-12.429,13.321-23.405,29.995-32,47c0.333,0.667,0.667,1.333,1,2c7.898-2.301,9.038-8.094,15-12
	c7.333-0.333,14.667-0.667,22-1c2.333,3.333,4.667,6.667,7,10c1.333,0,2.667,0,4,0c3-2.667,6-5.333,9-8
	c-2.013-15.676-14.302-23.907-19-37C1252.667,364.667,1250.333,364.333,1248,364z M1249,389c-3.333,0-6.667,0-10,0
	c1-2.667,2-5.333,3-8c4.292,1.469,3.454,0.95,5,5c0.667,0.667,1.333,1.333,2,2C1249,388.333,1249,388.667,1249,389z"/>
<path d="M1358,391c7.178-3.831,12.112-8.56,12-20c-1-1.667-2-3.333-3-5c-5.333-0.667-10.667-1.333-16-2
	c-5.802,2.711-11.437,3.046-17,5c-7.705,11.24-4.703,27.582-6,42c1,0,2,0,3,0c3.666-2.667,7.333-5.333,11-8
	c9.086,3.954,13.97,11.691,25,13c3.333-2.667,6.667-5.333,10-8c0-1.333,0-2.667,0-4c-4.333-2-8.667-4-13-6
	C1362,395.667,1360,393.333,1358,391z M1348,393c-1.333-0.333-2.667-0.667-4-1c-3.68-3.564-2.036-13.304,0-17
	c2.667,0.333,5.333,0.667,8,1C1358.391,384.659,1356.076,387.202,1348,393z"/>
<path d="M914,367c-4.333,3.333-8.667,6.667-13,10c-1.667,1.667-3.333,3.333-5,5c-0.667-3.333-1.333-6.667-2-10c0-0.667,0-1.333,0-2
	c-7.286,2.349-9.237,8.277-15,12c1.636,7.316,2.347,22.379,2,36c0.333,0.333,0.667,0.667,1,1c1,0,2,0,3,0
	c9.567-11.085,10.62-28.171,20-40c1.333,0,2.667,0,4,0c6.333,8.814,9.061,21.73,7,34c0.333,0.667,0.667,1.333,1,2c1,0,2,0,3,0
	C927.936,405.244,940.045,367.712,914,367z"/>
<path d="M795,369c-12.892,10.958-29.5,11.989-27,36c7.997,7.51,14.071,10.397,29,9c7.132-7.15,16.101-12.634,21-22
	C825.347,376.326,809.25,368.115,795,369z M805,400c-10.383,6.523-17.366-0.456-24-6c0.333-3.333,0.667-6.667,1-10
	c1-1.333,2-2.667,3-4c7.044-0.099,11.473,0.758,15,4c4.603,2.413,5.64,5.411,6,12C805.667,397.333,805.333,398.667,805,400z"/>
</svg>
