<?xml version="1.0" encoding="utf-8"?>
<!-- Generator: Adobe Illustrator 16.0.0, SVG Export Plug-In . SVG Version: 6.00 Build 0)  -->
<!DOCTYPE svg PUBLIC "-//W3C//DTD SVG 1.1//EN" "http://www.w3.org/Graphics/SVG/1.1/DTD/svg11.dtd">
<svg version="1.1" id="Lag_1" xmlns="http://www.w3.org/2000/svg" xmlns:xlink="http://www.w3.org/1999/xlink" x="0px" y="0px"
	 width="4433.455px" height="892px" viewBox="0 0 4433.455 892" enable-background="new 0 0 4433.455 892" xml:space="preserve">
<path fill-rule="evenodd" clip-rule="evenodd" d="M3985,0c10.279,0.635,20.562,1.212,30.838,1.913
	c78.323,5.347,153.721,22.42,224.537,57.088c57.936,28.362,107.943,66.517,144.563,120.504
	c26.989,39.789,42.798,83.736,47.066,131.627c8.968,100.619-23.894,186.658-91.685,260.25
	c-41.902,45.49-91.805,80.445-146.088,109.404c-67.197,35.85-138.461,60.931-212.252,79.149
	c-59.907,14.791-120.583,25.207-182.096,30.031c-34.01,2.667-68.129,4.518-102.231,5.265c-68.649,1.504-137.187-1.877-205.595-7.506
	c-74.714-6.146-149.01-15.746-222.879-28.526c-29.676-5.134-59.266-10.765-88.922-16.011c-2.275-0.402-5.128-0.212-7.117,0.834
	c-60.505,31.794-124.28,55.28-189.671,74.585c-71.442,21.092-144.11,36.749-217.652,48.501
	c-69.782,11.15-139.93,18.812-210.515,22.214c-23.448,1.13-46.938,1.406-70.408,2.105c-1.303,0.039-2.597,0.375-3.895,0.572
	c-7.667,0-15.333,0-23,0c-1.632-0.198-3.261-0.54-4.896-0.571c-18.818-0.366-37.642-0.519-56.455-1.047
	c-54.299-1.526-108.441-5.175-162.327-12.245c-7.067-0.928-14.3-2.348-21.295-1.727c-17.899,1.591-35.671,4.572-53.559,6.337
	c-51.897,5.12-103.934,7.884-156.088,8.388c-9.462,0.091-18.921,0.566-28.381,0.865c-7.333,0-14.667,0-22,0
	c-1.631-0.198-3.259-0.529-4.895-0.573c-20.475-0.548-40.968-0.693-61.425-1.636c-66.585-3.067-132.829-9.688-198.755-19.573
	c-75.136-11.267-149.428-26.488-222.536-47.247c-69.928-19.855-138.165-44.17-202.696-78.045c-3.647-1.914-6.965-2.333-10.919-1.527
	c-11.9,2.425-23.858,4.567-35.803,6.779c-93.047,17.229-186.617,30.554-280.993,38.008c-66.113,5.223-132.316,8.561-198.623,7.004
	c-37.76-0.887-75.547-3.034-113.181-6.265c-67.306-5.777-133.539-18.177-198.688-36.07
	c-78.522-21.566-153.775-51.044-223.237-94.098c-53.137-32.935-100.459-72.466-137.482-123.384
	c-31.467-43.276-52.239-91.059-59.929-144.21C2.199,379.827,1.261,368.391,0,357c0-9.667,0-19.333,0-29
	c0.627-6.265,1.25-12.529,1.882-18.794C7.23,256.221,26.144,208.545,58.305,166.18C93.049,120.413,137.77,86.828,188.72,61.265
	C260.277,25.361,336.688,7.67,416.176,2.014C427.109,1.236,438.059,0.666,449,0c11.667,0,23.333,0,35,0
	c12.611,0.681,25.233,1.198,37.831,2.068c96.47,6.661,189.92,25.64,277.233,68.979c35.575,17.657,68.259,39.624,96.163,68.161
	c32.268,33,54.445,71.524,61.352,117.591c10.049,67.018-8.605,125.274-55.889,173.938c-35.759,36.802-79.681,60.274-127.95,76.122
	c-52.178,17.131-105.76,23.588-160.562,20.193c-61.067-3.783-120.033-16.235-175.294-43.281
	c-32.825-16.065-62.156-36.87-84.263-66.594c-20.929-28.141-31.013-59.801-29.518-94.875c2.034-47.685,44.502-94.745,94.61-96.346
	c5.283-0.169,10.619,0.258,15.872,0.893c1.614,0.195,3.034,2.004,4.543,3.073c-1.634,0.712-3.207,1.803-4.911,2.074
	c-11.626,1.856-23.819,1.917-34.823,5.581c-34.234,11.4-54.548,36.754-62.087,71.038c-8.566,38.956,3.372,73.132,30.713,101.771
	c23.452,24.567,53.011,39.328,84.454,50.712c33.968,12.297,69.133,19.459,104.887,24.029c35.254,4.507,70.652,6.773,106.17,5.69
	c60.194-1.835,118.428-12.86,172.915-39.59c35.896-17.609,66.866-41.255,88.324-75.767c20.051-32.247,26.353-67.615,22.656-104.951
	c-6.388-64.531-40.735-112.475-90.705-150.78c-41.464-31.785-88.415-52.804-137.805-68.782
	c-48.146-15.576-97.518-25.376-147.743-31.217c-41.111-4.781-82.354-6.912-123.693-5.54
	c-87.645,2.909-172.146,19.742-251.297,58.938c-36.205,17.928-69.367,40.379-98.11,68.927
	C50.868,187.949,21.911,242.701,14.93,307.862C4.848,401.979,32.021,484.204,96.104,553.983
	c36.147,39.36,79.388,69.344,126.443,94.069c64.823,34.062,133.793,56.58,204.916,72.974c59.96,13.82,120.638,23.283,181.964,28.016
	c37.337,2.882,74.776,4.716,112.204,6.067c59.135,2.135,118.209-0.374,177.249-3.844c69.526-4.086,138.746-11.3,207.755-20.513
	c36.13-4.823,72.142-10.534,108.202-15.868c1.12-0.166,2.198-0.606,3.99-1.116c-6.027-4.271-11.612-8.094-17.058-12.106
	c-32.989-24.312-62.328-52.175-84.016-87.335c-18.413-29.852-29.268-61.983-27.639-97.474c1.266-27.555,9.988-52.234,30.341-71.764
	c12.053-11.565,26.227-18.335,43.363-16.358c23.66,2.729,31.904,17.669,30.649,37.811c-0.989,15.872-2.527,15.854-16.996,10.645
	c-10.95-3.941-20.703-10.092-28.489-18.824c-3.926-4.403-7.057-9.517-11.082-15.044c-2.436,1.907-5.869,4.115-8.729,6.911
	c-19.873,19.423-27.849,43.776-28.336,70.879c-0.653,36.353,12.056,68.514,32.353,97.949c26.092,37.839,60.754,66.441,99.306,90.692
	c1.353,0.852,3.492,1.058,5.125,0.771c54.258-9.545,108.562-18.849,162.728-28.892c88.032-16.322,175.872-33.701,263.988-49.548
	c60.599-10.898,121.414-20.733,182.338-29.638c69.233-10.12,138.865-16.75,208.866-18.874c51.496-1.562,102.881-0.233,154.248,4.027
	c13.464,1.116,27.221-1.058,40.828-1.962c44.251-2.941,88.544-3.882,132.838-1.738c32.759,1.585,65.537,3.382,98.19,6.366
	c35.308,3.228,70.576,7.259,105.687,12.184c43.842,6.149,87.587,13.089,131.222,20.568c50.519,8.66,100.899,18.132,151.291,27.516
	c84.581,15.75,169.108,31.788,253.691,47.529c24.055,4.477,48.215,8.385,72.351,12.416c1.777,0.297,4.09,0.027,5.57-0.905
	c40.856-25.745,77.322-56.25,103.62-97.43c18.52-28.999,29.456-60.461,27.715-95.297c-1.259-25.207-9.301-47.964-27.694-66.136
	c-3.015-2.978-6.606-5.371-9.791-7.922c-10.416,20.634-27.225,31.665-48.284,37.168c-3.348,0.875-5.358-0.3-6.228-3.736
	c-6.539-25.866,5.185-49.543,37.205-47.612c20.126,1.214,34.301,12.761,45.585,28.185c16.365,22.368,21.7,47.971,19.905,75.173
	c-3.095,46.938-25.072,85.265-55.513,119.544c-20.136,22.676-43.365,41.811-68.378,58.848c-1.361,0.927-2.699,1.89-5.146,3.605
	c6.258,1.081,11.457,2.152,16.704,2.86c59.562,8.025,119.003,17.179,178.734,23.631c53.774,5.808,107.827,9.37,161.839,12.528
	c37.548,2.195,75.234,2.812,112.857,2.741c62.656-0.117,125.143-3.875,187.383-11.487c74.19-9.073,147.27-23.329,218.496-46.256
	c65.615-21.119,128.175-48.709,184.487-89.098c46.235-33.161,85.063-73.106,111.792-123.881
	c20.805-39.518,31.762-81.741,33.824-126.279c3.85-83.163-22.875-154.766-81.527-214.123c-42.74-43.254-94.37-72.278-150.889-93.202
	c-47.707-17.661-97.075-28.249-147.625-33.56c-64.62-6.789-129.053-4.602-193.348,3.986c-61.968,8.277-122.34,22.749-180.055,47.199
	c-40.582,17.192-78.462,38.853-110.972,69.039c-33.837,31.419-57.913,68.654-66.267,114.694
	c-13.268,73.126,10.532,131.752,70.343,175.628c33.815,24.807,72.196,39.603,112.607,49.538
	c52.924,13.013,106.61,15.219,160.774,11.429c44.319-3.101,88.059-9.346,130.661-22.286c31.911-9.693,62.27-22.671,88.475-43.849
	c31.437-25.405,48.641-57.809,47.1-98.869c-1.479-39.459-32.72-91.608-95.366-92.261c-3.034-0.032-6.065-0.347-9.672-0.564
	c2.006-5.136,5.75-5.188,9.043-5.435c19.643-1.474,38.336,2.116,54.942,12.874c36.562,23.686,55.005,56.877,51.472,101.139
	c-3.599,45.071-25.47,80.246-59.268,108.753c-34.094,28.758-73.961,46.423-116.307,58.946
	c-39.464,11.671-79.852,17.904-120.962,19.626c-69.954,2.931-136.991-9.21-200.194-39.754
	c-46.006-22.233-85.094-52.862-111.785-97.398c-22.442-37.448-30.415-78.185-26.169-121.367
	c5.616-57.104,32.905-102.937,74.637-140.932c41.561-37.841,90.55-62.911,142.858-82.089
	c51.486-18.877,104.578-31.402,158.972-37.729c31.55-3.67,63.358-5.115,95.05-7.582c0.977-0.076,1.936-0.376,2.902-0.571
	C3961.667,0,3973.333,0,3985,0z M1274.371,740.464c11.659,5.574,21.865,10.707,32.274,15.389
	c80.031,35.992,163.769,60.387,249.258,79.181c84.347,18.544,169.605,31.055,255.663,38.25
	c66.281,5.542,132.656,8.133,199.141,5.852c46.088-1.582,92.148-4.007,138.212-6.251c9.813-0.479,19.586-1.81,29.378-2.747
	c-0.386-0.861-0.683-1.023-0.999-1.084c-40.439-7.83-80.241-17.832-117.919-34.955c-23.992-10.904-46.255-24.345-63.955-44.348
	c-28.616-32.337-32.002-78.685-8.152-113.164c12.116-17.518,28.535-30.151,46.885-40.457c27.23-15.292,56.638-24.789,86.84-31.988
	c13.584-3.238,27.325-5.816,41.853-8.875c-1.857-0.236-2.839-0.459-3.822-0.474c-23.804-0.354-47.608-0.928-71.413-0.969
	c-39.844-0.068-79.523,2.943-119.146,6.944c-57.851,5.842-115.392,14.092-172.297,25.812
	c-86.527,17.822-172.789,36.948-259.084,55.883c-72.81,15.977-145.5,32.5-218.261,48.703
	C1304.589,734.337,1290.271,737.149,1274.371,740.464z M3158.973,740.547c-2.836-0.723-4.368-1.171-5.926-1.502
	c-42.967-9.146-86.016-17.922-128.889-27.486c-106.856-23.839-213.528-48.512-320.476-71.93
	c-77.111-16.885-154.925-30.032-233.461-38.452c-58.855-6.309-117.887-8.975-177.083-7.188c-7.17,0.217-14.333,0.64-21.499,0.967
	c27.073,5.433,53.853,11.349,79.876,20.238c28.535,9.748,55.707,22.083,78.437,42.582c34.301,30.937,42.281,78.255,19.534,116.575
	c-10.529,17.737-25.539,31.031-42.642,42.108c-30.974,20.062-65.355,31.972-100.706,41.326
	c-16.753,4.434-33.746,7.963-51.415,12.085c3.029,0.415,5.311,0.872,7.612,1.021c37.881,2.442,75.736,5.479,113.652,7.108
	c55.252,2.372,110.536,2.654,165.83,0.312c60.779-2.575,121.273-8.01,181.554-16.107c66.538-8.938,132.47-21.079,197.638-37.227
	c72.638-17.998,143.812-40.378,211.889-71.852C3141.293,749.245,3149.564,745.095,3158.973,740.547z M2452.303,727.588
	c0.151-23.495-9.657-43.184-26.671-59.693c-19.547-18.967-43.445-30.511-68.573-39.793c-34.503-12.747-70.337-20.096-106.668-25.036
	c-13.945-1.896-27.794-4.929-42.145-3.268c-37.427,4.333-74.501,10.419-110.63,21.312c-28.819,8.688-56.543,19.829-80.482,38.727
	c-45.702,36.075-48.054,94.283-5.496,133.784c18.872,17.517,41.256,29.07,64.911,38.422c34.035,13.453,69.471,21.78,105.435,27.938
	c17.131,2.934,34.016,6.501,51.896,3.287c38.199-6.865,76.231-14.127,112.86-27.291c25.658-9.222,50.218-20.617,71.123-38.578
	C2439.026,779.216,2452.185,756.937,2452.303,727.588z"/>
<path fill-rule="evenodd" clip-rule="evenodd" d="M2217.182,688.165c3.801-11.715,8.59-21.202,16.931-28.631
	c24.054-21.424,63.183-9.877,69.384,20.914c3.232,16.048-1.108,31.329-9.358,45.001c-7.547,12.507-16.241,24.375-25.059,36.049
	c-15.462,20.471-31.581,40.482-42.517,63.917c-3.506,7.514-6.239,15.389-9.388,23.249c-0.22-0.263-0.785-0.643-0.914-1.137
	c-5.491-20.981-16.252-39.291-28.876-56.607c-14.032-19.248-28.497-38.186-42.309-57.589c-9.065-12.734-16.128-26.493-15.845-42.815
	c0.295-16.958,7.542-30.086,22.782-37.627c15.132-7.489,30.077-5.562,43.96,3.947c9.132,6.255,14.702,15.248,18.794,25.295
	C2215.386,683.648,2215.985,685.175,2217.182,688.165z"/>
</svg>
