<?xml version="1.0" encoding="utf-8"?>
<!-- Generator: Adobe Illustrator 16.0.0, SVG Export Plug-In . SVG Version: 6.00 Build 0)  -->
<!DOCTYPE svg PUBLIC "-//W3C//DTD SVG 1.1//EN" "http://www.w3.org/Graphics/SVG/1.1/DTD/svg11.dtd">
<svg version="1.1" id="Lag_1" xmlns="http://www.w3.org/2000/svg" xmlns:xlink="http://www.w3.org/1999/xlink" x="0px" y="0px"
	 width="1455px" height="412px" viewBox="0 0 1455 412" enable-background="new 0 0 1455 412" xml:space="preserve">
<path fill-rule="evenodd" clip-rule="evenodd" d="M0,147c1.517-7.649,2.434-15.479,4.66-22.915
	c7.282-24.323,22.612-42.853,43.397-56.82c31.397-21.1,66.079-29.099,103.599-24.205c4.54,0.593,8.982,2.368,13.3,4.034
	c1.928,0.744,3.437,2.573,4.549,4.821c-0.633,0-1.348,0.195-1.889-0.028c-21.481-8.882-43.276-6.454-64.716-0.679
	c-33.529,9.032-60.152,27.81-75.566,59.675c-20.298,41.963-8.186,92.396,28.71,123.314c24.874,20.845,54.188,32.187,85.28,39.502
	c36.444,8.573,73.448,10.314,110.709,8.165c1.13-0.065,2.248-0.338,3.849-0.588c-2.333-5.958-4.77-11.533-6.724-17.272
	c-18.338-53.863-3.423-108.604,40.091-147.331c28.789-25.621,62.913-40.797,99.732-50.522
	c38.144-10.074,77.065-13.056,116.373-12.129c69.411,1.638,135.887,16.679,199.66,43.917c3.099,1.323,5.524,1.022,8.443-0.377
	c68.188-32.673,138.664-58.944,212.505-75.794c45.375-10.354,91.239-17.277,137.73-19.827c10.639-0.583,21.295-0.857,31.941-1.319
	c1.129-0.049,2.243-0.406,3.364-0.621c6.333,0,12.667,0,19,0c1.121,0.215,2.234,0.565,3.363,0.623
	c15.627,0.789,31.279,1.211,46.879,2.358c42.113,3.098,83.578,10.098,124.076,22.204c36.411,10.885,71.111,25.505,101.591,48.771
	c28.514,21.765,49.37,48.847,57.455,84.496c1.608,7.093,2.444,14.36,3.636,21.548c0,6.333,0,12.667,0,19
	c-2.168,10.376-3.445,21.039-6.668,31.076c-10.663,33.218-32.484,58.464-59.315,79.743c-33.546,26.605-71.721,44.449-112.001,58.084
	c-58.629,19.844-119.122,29.531-180.812,31.734c-61.768,2.206-123.167-1.334-183.726-14.695
	c-38.846-8.57-76.525-20.505-111.082-40.663c-11.734-6.845-22.695-15.016-33.805-22.443c-7.192,6.7-14.333,14.206-22.324,20.657
	c-48.644,39.265-105.366,58.535-166.551,66.44c-10.2,1.317-20.476,2.059-30.717,3.066c-11.667,0-23.333,0-35,0
	c-1.451-0.263-2.894-0.621-4.356-0.773c-13.738-1.433-27.561-2.295-41.207-4.336c-45.334-6.781-88.503-20.316-128.391-43.256
	c-29.982-17.244-56.257-38.796-74.645-68.593c-3.702-5.998-6.992-7.899-14.239-7.369c-38.393,2.812-76.542,0.272-114.231-7.799
	c-27.34-5.855-53.591-14.744-77.488-29.597c-25.388-15.778-45.066-36.419-53.554-65.867C2.51,176.156,1.589,167.481,0,159
	C0,155,0,151,0,147z M773.772,315.5c2.108,1.703,5,4.188,8.042,6.472c27.229,20.451,57.91,33.962,90.151,44.073
	c68.377,21.444,138.651,28.448,210.017,27.287c41.587-0.676,82.738-4.971,123.471-13.274c48.848-9.957,95.946-25.009,139.709-49.315
	c28.773-15.981,54.866-35.372,75.048-61.829c40.224-52.73,37.46-119.685-7.173-168.205c-17.743-19.288-39.585-32.956-63.232-43.818
	c-49.986-22.961-103.187-32.753-157.454-37.881c-38.524-3.64-77.137-4.06-115.791-2.288c-49.016,2.246-97.456,8.566-145.251,19.771
	c-56.943,13.348-111.301,33.95-164.331,58.303c-11.766,5.403-23.491,10.896-35.47,16.456c0.745,0.683,1.055,1.115,1.475,1.332
	c21.583,11.134,43.153,22.294,64.818,33.267c1.461,0.739,3.905,0.621,5.461-0.07c29.753-13.221,61.084-20.803,93.099-25.6
	c51.724-7.749,103.677-10.324,155.848-5.139c31.091,3.09,61.589,9.018,90.859,20.226c20.993,8.038,40.846,18.152,56.355,34.984
	c11.196,12.15,17.659,26.096,14.711,43.231c-2.935,17.061-13.379,28.646-27.265,37.636c-18.45,11.944-39.133,17.647-60.704,19.654
	c-37.91,3.528-75.497,0.463-112.722-7.383c-47.313-9.972-91.514-28.236-133.76-51.254c-28.932-15.764-57.226-32.702-85.742-49.222
	c-2.688-1.558-4.779-2.335-7.634-0.286c-6.348,4.558-13.277,8.36-19.334,13.258c-33.832,27.353-42.683,66.239-23.625,102.993
	c6.012,11.595,13.983,21.699,24.106,30.835c13.638-18.671,25.024-37.47,22.77-61.801c2.02,3.193,3.854,6.451,3.595,9.534
	c-0.702,8.376-0.97,17.168-3.841,24.893C785.791,293.605,779.479,304.084,773.772,315.5z M782.528,157.064
	c-0.499-0.62-0.646-0.95-0.898-1.094c-20.524-11.716-41.025-23.475-61.659-34.995c-1.471-0.821-4.201-0.465-5.875,0.332
	c-9.613,4.575-19.09,9.441-28.605,14.224c-63.479,31.901-126.993,63.729-193.049,90.115c-53.4,21.331-107.834,39.375-164.282,50.767
	c-20.016,4.039-40.247,7.014-60.842,10.555c1.365,2.21,2.716,4.629,4.282,6.899c20.865,30.252,49.69,50.681,82.388,66.121
	c42.188,19.921,86.963,30.051,133.22,34.271c53.208,4.854,105.812,1.412,157.528-12.331c37.372-9.932,72.344-25.017,101.925-50.677
	c5.459-4.735,10.213-10.283,15.32-15.483c-23.816-23.616-38.272-50.82-34.206-85.088
	C731.901,195.902,754.354,174.214,782.528,157.064z M695.413,107.438c-2.575-1.268-4.334-2.182-6.132-3.013
	c-68.412-31.624-140.158-46.736-215.609-43.684c-34.272,1.387-67.93,6.309-100.522,17.264
	c-35.723,12.007-67.956,29.713-93.189,58.47c-34.694,39.538-41.709,92.356-18.601,139.237c1.297,2.633,2.363,4.905,6.176,4.183
	c11.928-2.26,23.99-3.855,35.858-6.379c52.938-11.26,103.47-29.85,153.147-50.935c59.295-25.167,116.818-54.064,174.312-83.024
	C652.085,128.863,673.42,118.373,695.413,107.438z M806.74,150.887c1.425,0.973,2.041,1.479,2.73,1.852
	c41.606,22.394,82.822,45.556,124.938,66.943c42.752,21.71,87.515,38.239,135.602,43.857c27.474,3.211,54.844,3.176,81.717-4.564
	c16.662-4.799,32.407-11.505,44.319-24.724c14.812-16.437,15.71-37.51,1.697-54.583c-5.623-6.852-12.491-13.044-19.793-18.089
	c-24.676-17.051-52.886-25.517-81.854-31.619c-38.651-8.143-77.78-10.565-117.214-9.261c-37.84,1.251-75.426,4.669-112.562,12.252
	C846.256,137.049,826.586,142.483,806.74,150.887z"/>
</svg>
