<?xml version="1.0" encoding="utf-8"?>
<!-- Generator: Adobe Illustrator 16.0.0, SVG Export Plug-In . SVG Version: 6.00 Build 0)  -->
<!DOCTYPE svg PUBLIC "-//W3C//DTD SVG 1.1//EN" "http://www.w3.org/Graphics/SVG/1.1/DTD/svg11.dtd">
<svg version="1.1" id="Layer_1" xmlns="http://www.w3.org/2000/svg" xmlns:xlink="http://www.w3.org/1999/xlink" x="0px" y="0px"
	 width="2431px" height="612px" viewBox="0 0 2431 612" enable-background="new 0 0 2431 612" xml:space="preserve">
<path stroke="#FFFFFF" stroke-miterlimit="10" d="M1599,212c8.629-0.172,32.512-4.206,38-8c1-0.333,2-0.667,3-1c0-1,0-2,0-3
	c-2.085,0.414-5.479,0.949-7,2c-4.333,0-8.667,0-13,0c-6.661-3.156-2.924-30.157-1-38c8.07-32.903,10.813-68.547,19-101
	c4.095-16.231,0.31-33.522,16-38c0-1,0-2,0-3c-4.605,0.625-24.106,6.257-26,9c-5.167,7.485-3.45,21.563-6,31
	c-5.898,21.83-8.29,47.011-14,69c-1,7.666-2,15.334-3,23c-2.885,11.144-5.886,24.894-7,37c-0.433,4.705-2.88,11.785-1,15
	C1597.362,209.749,1597.775,209.719,1599,212z"/>
<path stroke="#FFFFFF" stroke-miterlimit="10" d="M714,129c18.665,0,37.335,0,56,0c-0.655,25.936-16.632,61.076-6,83
	c8.422,1.469,39.472-6.413,46-11c0.667,0,1.333,0,2,0c0-0.667,0-1.333,0-2c-3.809,0.081-7.681,0.371-10,2c-5,0-10,0-15,0
	c-6.329-3.025-5.119-37.128-3-46c8.561-35.843,10.083-81.59,28-108c2-2,4-4,6-6c8.268-0.536,13.904,1.449,20-4
	c-0.2-2.596-0.442-3.396-1-5c-32.25-0.269-48.763,32.074-57,57c-3.187,9.644-2.637,23.047-8,31c0,0.667,0,1.333,0,2
	c-3.104-0.066-6.31-0.142-8,1c-14.331,0.085-35.764,3.084-48-1c1.052-12.998,4.863-25.687,8-37c1.84-6.635,0.705-13.914,4-19
	c0.156-7.38,3.856-8.058,10-9c0-0.667,0-1.333,0-2c-46.18-0.532-88.49-2.338-88,44c1.188,1.133,2.146,2.54,3,4
	c4.167-0.199,4.582-0.698,7-2c-1.132-26.312,1.797-31.022,23-38c4.18-1.376,17.069-4.293,22-1c1,0.333,2,0.667,3,1
	c-0.218,23.136-6.373,44.193-12,63c-11.1,37.1-14.826,83.984-62,81c-2.333-1.667-4.667-3.333-7-5c-3.576-5.198-3.201-16.576-6-22
	c-9.08,0.045-10.949,2.629-16,6c-0.113,12.667,2.43,16.104,7,23c50.099,12.182,71.705-10.731,89-44
	C706.182,155.032,712.463,142.075,714,129z"/>
<path stroke="#FFFFFF" stroke-miterlimit="10" d="M1276,261c18.185,13.024,42.965-18.761,49-27c3.335-4.554,7.97-9.039,11-14
	c15.923-26.07,18.449-63.791,27-97c5.648-21.935,3.363-48.829,13-67c1.333,0,2.667,0,4,0c0-1,0-2,0-3
	c-45.822-1.753-77.717,1.444-76,48c1.188,1.133,2.146,2.54,3,4c6.296-0.072,6.017-1.15,9-4c-0.853-4.092-2.987-4.15-4-7
	c-2.118-5.957-0.17-10.271,0-16c11.605-12.636,15.909-22.315,41-19c0.333,0.333,0.667,0.667,1,1c-0.904,25.131-5.392,52.326-11,75
	c-1.667,11.666-3.333,23.334-5,35c-4.714,18.569-9.271,37.14-16,53c-3.562,8.396-6.021,17.102-12,23c-2.877,2.838-7.862,3.414-11,6
	c-10.679,0.2-17.018-3.528-19-12c-2.055,0.399-1.927,0.249-3,1c-3.209,4.025-2.166,11.39-5,16
	C1273.082,260.034,1272.919,259.962,1276,261z"/>
<path stroke="#FFFFFF" stroke-miterlimit="10" d="M1064,77c4.284-1.513,4.335-4.133,7-7c-0.029-5.1-0.669-7.708-2-11
	c-2.835-1.183-4.729-1.928-9-2c-2.716,2.062-6.722,3.624-8,7C1048.693,72.732,1057.034,81.981,1064,77z"/>
<path stroke="#FFFFFF" stroke-miterlimit="10" d="M1109,77c4.284-1.513,4.335-4.133,7-7c-0.029-5.1-0.669-7.708-2-11
	c-2.835-1.183-4.729-1.928-9-2c-2.716,2.062-6.722,3.624-8,7C1093.693,72.732,1102.034,81.981,1109,77z"/>
<path stroke="#FFFFFF" stroke-miterlimit="10" d="M1175,77c4.284-1.513,4.335-4.133,7-7c-0.029-5.1-0.669-7.708-2-11
	c-2.835-1.183-4.729-1.928-9-2c-2.716,2.062-6.722,3.624-8,7C1159.693,72.732,1168.034,81.981,1175,77z"/>
<path stroke="#FFFFFF" stroke-miterlimit="10" d="M1216,57c-2.716,2.062-6.722,3.624-8,7c-3.307,8.732,5.034,17.981,12,13
	c4.284-1.513,4.335-4.133,7-7c-0.029-5.1-0.669-7.708-2-11C1222.165,57.817,1220.271,57.072,1216,57z"/>
<path stroke="#FFFFFF" stroke-miterlimit="10" d="M1067,198c-0.333,0.333-0.667,0.667-1,1c-0.107,5.744,0.251,9.739,2,13
	c17.011-0.553,26.85-8.909,41-12c0-1,0-2,0-3c-4.671,1.163-14.128,5.347-18,3c-1.726-0.645-0.979-0.196-2-1
	c-3.443-4.641-2.594-18.436-1-25c3.786-15.596,6.892-33.18,11-48c2.065-7.45,1.16-16.193,5-22c-0.2-2.596-0.442-3.396-1-5
	c-1.667,0-3.333,0-5,0c-2.97,2.809-6.605,3.498-9,7c-7.125-0.498-13.153-4.722-21-3c-31.383,6.885-40.1,30.342-50,59
	c-2.021,5.849-9.36,34.741-4,43c0.464,4.502,1.292,4.275,3,7c14.773-0.19,38.373-7.267,47-14C1065,198,1066,198,1067,198z M1034,194
	c-3.937-6.161-1.036-18.294,0-26c2.447-18.208,11.441-51.994,26-57c0.855-0.663,3.14-1.352,4-2c7.962,1.655,14.224,3.725,20,7
	c-1.117,18.905-8.244,38.057-13,55c-2.022,7.204-1.119,15.696-5,21c-3.735,4.722-10.758,3.7-16,7
	C1041.983,199.408,1035.948,200.016,1034,194z"/>
<path stroke="#FFFFFF" stroke-miterlimit="10" d="M1202,200c-1-0.333-2-0.667-3-1c-4.613-25.186,5.309-52.578,11-73
	c2.058-7.382,1.127-16.342,5-22c-0.2-2.596-0.442-3.396-1-5c-1.667,0-3.333,0-5,0c-2.97,2.809-6.605,3.498-9,7
	c-7.125-0.498-13.153-4.722-21-3c-31.383,6.885-40.1,30.342-50,59c-2.021,5.849-9.36,34.741-4,43c0.464,4.502,1.292,4.275,3,7
	c14.566-0.189,38.475-7.354,47-14c1,0,2,0,3,0c-0.333,0.333-0.667,0.667-1,1c-0.107,5.744,0.251,9.739,2,13
	c17.011-0.553,26.85-8.909,41-12c0-1,0-2,0-3C1215.329,198.163,1205.872,202.347,1202,200z M1182,171
	c-2.022,7.204-1.119,15.696-5,21c-3.735,4.722-10.758,3.7-16,7c-8.017,0.408-14.052,1.016-16-5c-3.957-6.088-1.038-18.281,0-26
	c2.447-18.208,11.441-51.996,26-57c0.855-0.663,3.14-1.352,4-2c7.962,1.655,14.224,3.725,20,7
	C1193.883,134.905,1186.756,154.057,1182,171z"/>
<path stroke="#FFFFFF" stroke-miterlimit="10" d="M1857,200c0-1,0-2,0-3c-4.076,0.857-9.93,1.812-13,4c-5.095-0.261-5.081-1.162-8-3
	c-1.385-24.771,4.728-52.728,11-75c2.073-7.36,4.994-14.295,5-24c-10.934,0.429-9.029,4.947-14,7c-4.573,1.889-11.604-2.258-15-3
	c-6.628-1.447-14.44,1.945-19,4c-27.194,12.259-50.437,64.112-40,104c20.651,3.659,33.698-10.534,51-13
	c-0.267,5.577-0.584,7.932,0,13c0.333,0.333,0.667,0.667,1,1c16.939-0.573,25.471-9.25,40-11
	C1856.333,200.667,1856.667,200.333,1857,200z M1821,165c-2.146,7.108-1.313,16.244-5,22c-0.216,8.487-21.943,16.735-30,11
	c-1-0.333-2-0.667-3-1c-6.112-27.307,4.72-63.183,17-80c2.93-4.013,8.12-4.892,12-8c8.633,1.102,14.587,4.035,21,7
	C1830.712,132.385,1825.588,149.799,1821,165z"/>
<path stroke="#FFFFFF" stroke-miterlimit="10" d="M803,112c7.167-0.17,14.646,0.072,19,3c6.323,4.251,7.104,14.11,10,22
	c6.716,18.298,14.029,50.896,16,72c1.333,0,2.667,0,4,0c-2.425,8.024-8.781,13.662-13,20c-7.115,10.688-12.96,21.26-20,32
	c-2.64,4.028-11.043,14.208-6,22c1.034,2.719,1.435,2.201,3,4c4.656-0.845,11.915-4.083,15-7c0.517-3.665-5.044-13.972-2-22
	c4.947-13.048,15.437-24.227,23-35c15.031-21.412,29.406-43.825,43-66c7.853-12.811,15.295-38.898,5-55
	c-8.758,0.094-10.815,2.86-16,6c0.387,9.677,5.975,13.755,8,22c5.805,23.639-19.819,49.656-27,64c-1,0-2,0-3,0
	c-4.623-20.21-6.642-40.874-12-62c-2.089-8.238-4.789-18.296-5-28c-0.333-0.333-0.667-0.667-1-1c-13.665,2-27.335,4-41,6
	C803,110,803,111,803,112z"/>
<path stroke="#FFFFFF" stroke-miterlimit="10" d="M1397,210c12.742,9.147,32.046-4.719,39-9c5.015-3.087,10.599-4.437,14-9
	c9.013-12.093,22.86-52.678,16-76c-1.418-4.82-5.443-8.232-8-12c-5.136-1.231-10.621-2.144-18-2c-9.494,6.507-21.017,8.476-30,15
	c-14.452,10.497-17.405,33.487-22,54C1384.735,185.575,1387.729,206.773,1397,210z M1420,119c2.354-3.104,7.179-4.316,10-7
	c5.1,0.029,7.708,0.669,11,2c15.065,18.346,6.154,55.696-3,73c-2.884,5.452-11.308,19.965-21,14c-4.461-0.457-4.967-1.49-8-3
	C1402.099,171.464,1406.457,136.864,1420,119z"/>
<path stroke="#FFFFFF" stroke-miterlimit="10" d="M986,108c1.111,5.083,4.691,6.421,6,11c6.93,24.241-13.659,56.613-23,66
	c-6.252,6.282-14.532,16.053-26,11c-6.788-31.37,8.945-61.775,9-93c-13.332,2.333-26.668,4.667-40,7c-0.333,0.333-0.667,0.667-1,1
	c2.771,4.121,15.212,0.927,19,4c3.102,4.135,2.539,16.904,1,24c-3,20.998-6,42.002-9,63c0,3,0,6,0,9
	c14.064,2.788,25.017-5.463,34-11c28.158-17.357,52.657-45.389,52-91C1000.809,102.181,994.578,102.66,986,108z"/>
<path stroke="#FFFFFF" stroke-miterlimit="10" d="M1503,114c-0.575,34.541-13.193,60.444-13,94c1.188,1.133,2.146,2.54,3,4
	c18.673-0.874,29.515-12.009,46-14c-0.191,4.611-1.438,9.592,0,12c0,0.667,0,1.333,0,2c9.494-0.17,32.395-3.756,38-8
	c0.333,0,0.667,0,1,0c-3.204-4.727-7.961,0.916-14-1c-1.246-0.395-3.468-2.346-5-3c-6.42-36.166,15.538-65.487,16-97
	c-6.39,0.868-14.656,3.546-19,7c-4.779,6.554-2.8,19.11-5,28c-3.667,18.332-7.334,36.668-11,55c-4.717,2.313-19.822,10.075-26,6
	c-4.579-2.438-5.723-15.067-4-23c3.21-14.777,5.273-31.314,9-45c2.096-7.697,0.921-17.212,5-23c-0.2-2.596-0.442-3.396-1-5
	c-11.666,2-23.334,4-35,6c-0.667,0-1.333,0-2,0c0,1,0,2,0,3c5.9-0.004,11.354,0.468,16,1
	C1502.333,113.333,1502.667,113.667,1503,114z"/>
<path stroke="#FFFFFF" stroke-miterlimit="10" d="M1653,112c4.099-0.123,10.523-0.645,13,1c1,0.333,2,0.667,3,1
	c2.913,16.851-5.003,47.083-9,63c-1.589,6.326,0.057,14.092-3,19c-0.122,6.425-0.009,12.23,2,16c19.548-0.692,29.792-11.953,47-14
	c-0.399,2.054-0.249,1.927-1,3c-0.051,4.068,0.076,8.333,1,11c9.512-0.267,31.326-3.703,37-8c0.667,0,1.333,0,2,0
	c-2.857-4.185-12.546,0.158-17-3c-1-0.667-2-1.333-3-2c-1.309-24.142,4.934-48.903,11-69c2.29-7.586,1.907-17.004,6-23
	c-0.399-2.054-0.249-1.927-1-3c-4.412-1.966-12.964,4.132-19,5c-6.479,18.562-6.897,44.91-12,64c-1.811,6.774-0.655,14.753-4,20
	c-4.952,4.06-13.381,3.425-19,7c-4.779-0.006-6.33-0.559-9-2c-6.754-33.647,11.788-63.053,12-95c-11.666,2-23.334,4-35,6
	c-0.667,0-1.333,0-2,0C1653,110,1653,111,1653,112z"/>
<path stroke="#FFFFFF" stroke-miterlimit="10" d="M820,378c4.103-16.291,0.266-32.489,16-37c0-1,0-2,0-3
	c-4.613,0.632-24.101,6.25-26,9c-5.27,7.634-6.076,34.633-9,46c-6.237,24.241-7.423,50.428-14,76c-4.221,16.412-9.27,35.945-9,55
	c1.188,1.133,2.146,2.54,3,4c8.989-0.172,32.335-4.083,38-8c1-0.333,2-0.667,3-1c0-1,0-2,0-3c-4.425,1.041-15.191,4.259-20,1
	c-7.274-3.891-2.153-36.259,0-45C809.473,441.665,812.412,408.129,820,378z"/>
<path stroke="#FFFFFF" stroke-miterlimit="10" d="M875,381c4.367-17.338,0.114-35.269,17-40c0-1,0-2,0-3
	c-6.379,0.882-18.263,3.411-23,7c-8.131,3.354-8.255,29.675-11,40c-7.245,27.257-9.934,58.462-17,86c-2.77,10.793-2.296,34.108-7,42
	c-0.12,6.199,0.08,11.404,2,15c9.672-0.192,35.227-4.647,41-9c0.333,0,0.667,0,1,0c0.442-1.958-0.435-1.287-1-2
	c-0.75-0.441-4.234-0.275-6,1c-6.425,0.122-12.23,0.009-16-2c-3.829-17.526,1.792-41.271,6-58
	C867.525,432.056,868.761,405.769,875,381z"/>
<path stroke="#FFFFFF" stroke-miterlimit="10" d="M1436,353c-3.333-0.333-6.667-0.667-10-1c-9.365,9.409-33.63,19.216-40,29
	c-5.811,8.925-3.25,24.425-6,36c-3.711,15.617-3.961,32.521-8,49c-2.586,10.553-5.639,23.128-6,35
	c-14.577,6.215-49.673,27.028-69,14c-8.813-5.941-12.64-23.887-9-39c5.585-23.194,8.096-48.823,14-71c1.933-7.26,2.131-22.136,6-27
	c1.35-1.697,5.383-2.443,7-4c0.758-1.076,0.628-0.924,1-3c-8.648-0.006-44.484,2.197-49,5c-0.667,0-1.333,0-2,0c0,1,0,2,0,3
	c5.01-0.017,15.396-0.32,19,2c1,0.333,2,0.667,3,1c-0.424,21.733-5.004,42.051-10,60c-4.424,15.893-5.395,32.448-9,48
	c-6.334,27.326,10.178,45.297,38,38c7.46-1.957,16.069-5.471,23-8c10.06-3.67,25.586-5.224,33-12c3.301,2.086,2.261,11.719,2,17
	c0.333,0.333,0.667,0.667,1,1c19.705-0.256,32.215-6.042,48-8c0-1.333,0-2.667,0-4c-4.188,1.8-18.154,5.989-24,2
	c-2.319-0.743-2.234-1.039-4-2c-3.708-19.249,0.625-43.278,5-61c6.512-26.379,5.131-54.667,15-77c2.275-5.148,7.053-8.614,10-13
	c3.334-0.506,7.186-1.901,10,0c7.502,0.189,8.528-0.7,12-4C1436.89,356.152,1436.599,354.725,1436,353z"/>
<path stroke="#FFFFFF" stroke-miterlimit="10" d="M398,368c-5.055,3.049-15.939,0.415-22,2c-10.529,2.753-22.452,6.637-31,12
	c-19.63,12.315-32.648,33.408-40,58c-11.351,37.968,0.614,75.036,27,86c11.054,4.594,31.852,3.819,44,1
	c9.243-2.145,16.232-1.752,24-5c27.608-11.544,42.692-35.915,51-67c2.548-9.533,2.004-19.792,2-31
	C452.987,384.956,437.28,367.711,398,368z M432,443c-0.333,6-0.667,12-1,18c-5.616,23.281-13.715,40.415-31,52
	c-7.542,5.055-20.934,13.463-36,10c-59.37-13.646-46.534-92.892-18-129c5.185-6.562,17.677-13.956,26-17
	c4.881-1.785,11.773-0.436,16-3c21.74,3.922,32.555,9.358,40,27C432.339,411.283,434.765,429.912,432,443z"/>
<path stroke="#FFFFFF" stroke-miterlimit="10" d="M1989,369c-4.614-0.401-9.256-1.573-13,1c-1,0.333-2,0.667-3,1
	c0.639,5.797,3.771,8.879,5,14c3.283,13.672-6.965,34.229-11,42c-11.99,23.094-27.508,41.513-45,59c-7.493,7.491-17.542,13.59-24,22
	c-0.667,0-1.333,0-2,0c-0.123-22.144-1-45.563-1-69c0-10.024-0.779-22.635,1-31c1.371-6.447-1.967-16.228,1-21
	c-0.064-4.586-0.079-9.873,1-13c3.106-0.638,7.702-1.356,10-3c0.667-0.333,1.333-0.667,2-1c0-0.667,0-1.333,0-2
	c-35.368,0.437-64.349,2.793-79,24c-3.599,5.208-12.118,19.729-5,29c1,1,2,2,3,3c15.661-2.252,1.008-12.653,4-24
	c2.55-9.671,25.643-30.993,39-24c1.333,0,2.667,0,4,0c3.03,15.833,2,34.812,2,53c0,33.269-0.811,68.292-1,100
	c16.912-0.604,23.057-16.057,32-25c25.348-25.348,53.701-49.815,71-83c3.867-7.419,20.19-37.419,12-48
	C1991,371.667,1990,370.333,1989,369z"/>
<path stroke="#FFFFFF" stroke-miterlimit="10" d="M89,374c-2.709,2.764-8.964,10.169-5,16c0.333,1,0.667,2,1,3
	c10.053,0.191,10.375-2.399,15-7c0.059-4.326,0-9.106-1-12C95.667,374,92.333,374,89,374z"/>
<path stroke="#FFFFFF" stroke-miterlimit="10" d="M925,392c4.354-1.508,4.459-3.898,7-7c0.051-4.068-0.076-8.333-1-11
	c-3.333,0-6.667,0-10,0c-1.133,1.188-2.54,2.146-4,3c-0.442,2.078-0.95,4.562-2,6c-0.043,5.036,0.487,7.194,2,10
	C920.104,393.066,923.31,393.142,925,392z"/>
<path stroke="#FFFFFF" stroke-miterlimit="10" d="M1080,430c2.157-0.916,1.454-0.867,3-2c0-0.667,0-1.333,0-2
	c-5.775,0.132-17.161,1.495-21-1c-0.667,0-1.333,0-2,0c2.737-13.76,4.021-30.287,15-36c0-1,0-2,0-3
	c-10.869,2.609-19.433,8.157-28,13c-1,8.666-2,17.334-3,26c-1.726,0.645-0.979,0.196-2,1c-6.202-0.076-14.389-0.572-19,1
	c0.398,2.054,0.248,1.927,1,3c3.992,2.486,13.977-0.433,18,2c1.661,2.709-1.989,13.954-3,18c-4.695,18.784-4.838,38.583-9,57
	c-1.274,5.64-0.157,15.194,2,18c5.534,6.665,38.449-2.771,43-7c0.333,0,0.667,0,1,0c0-0.333,0-0.667,0-1
	c-14.015,0.624-16.9,3.58-27-3c-5.521-28.47,7.045-56.77,10-83C1064.775,431.132,1076.161,432.495,1080,430z"/>
<path stroke="#FFFFFF" stroke-miterlimit="10" d="M1622,517c-6.618-2.57-8.271-17.556-6-28c3.666-18.998,7.333-38.002,11-57
	c5.948-1.915,18.658,0.716,23-3c0.758-1.076,0.628-0.924,1-3c-5.775,0.132-17.161,1.495-21-1c-0.667,0-1.333,0-2,0
	c5.302-15.101,3.733-29.104,16-37c0-0.667,0-1.333,0-2c-11.24,1.661-20.451,8.172-29,13c-1,8.666-2,17.334-3,26
	c-1.726,0.645-0.979,0.196-2,1c-11.226,0.083-27.685,2.125-37-1c0.821-12.957,4.598-32.337,15-36c0-1,0-2,0-3
	c-11.118,1.851-18.41,9.09-28,12c-0.168,5.4-0.477,15.116-3,19c-0.006,4.779-0.559,6.33-2,9c-6.202-0.076-14.389-0.572-19,1
	c0.325,2.307,0.464,2.484,1,4c6,0,12,0,18,0c-0.623,14.125-3.859,28.363-7,41c-1,8.333-2,16.667-3,25c-2.137,8.93-3.261,22.692,1,30
	c9.719,1.854,33.726-3.107,40-8c0.667,0,1.333,0,2,0c0-0.667,0-1.333,0-2c-13.568,0.838-16.165,3.423-26-3
	c-4.08-18.388,0.719-40.733,5-57c2.08-7.902,0.937-17.849,5-24c0-0.667,0-1.333,0-2c12.999,0,26.001,0,39,0
	c-1.939,14.45-4.587,30.275-8,44c-0.667,6.333-1.333,12.667-2,19c-2.425,10.332-4.32,23.699,0,33c14.354,2.672,30.494-3.463,42-8
	c0.333-0.333,0.667-0.667,1-1c0-0.333,0-0.667,0-1C1636.595,517.411,1627.299,521.208,1622,517z"/>
<path stroke="#FFFFFF" stroke-miterlimit="10" d="M2283,514c-4.434-19.985,1.352-44.419,6-62c1.693-6.405,0.747-14.074,4-19
	c0-0.667,0-1.333,0-2c8.02,0.124,17.934,0.672,23-2c0-1,0-2,0-3c-7.028,0.078-16.62,0.827-22-1c1.43-13.058,4.173-32.173,15-36
	c0-1,0-2,0-3c-11.118,1.851-18.41,9.09-28,12c-0.168,5.4-0.477,15.116-3,19c0,2.667,0,5.333,0,8c-5.533,1.153-33.515,2.912-38,0
	c-0.667,0-1.333,0-2,0c5.251-14.921,3.856-29.177,16-37c0-0.667,0-1.333,0-2c-11.004,1.647-19.055,7.907-28,12
	c-1.333,8.999-2.667,18.001-4,27c-1.726,0.645-0.979,0.196-2,1c-6.202-0.076-14.389-0.572-19,1c0.325,2.307,0.464,2.484,1,4
	c6.333,0,12.667,0,19,0c-1.134,12.65-4.077,26.238-7,38c-1,8.333-2,16.667-3,25c-2.49,10.309-4.242,23.854,0,33
	c14.354,2.672,30.494-3.463,42-8c0.333-0.333,0.667-0.667,1-1c0-0.333,0-0.667,0-1c-7.405,0.411-16.701,4.208-22,0
	c-6.52-2.532-8.227-16.696-6-27c4.203-19.454,8.608-38.791,11-58c0.333-0.333,0.667-0.667,1-1c12.665,0,25.334,0,38,0
	c-0.624,14.125-3.859,28.363-7,41c-1,8.666-2,17.334-3,26c-2.042,8.712-3.204,21.79,1,29c9.844,1.89,33.692-3.079,40-8
	c0.667,0,1.333,0,2,0c0-0.667,0-1.333,0-2C2295.432,517.838,2292.835,520.423,2283,514z"/>
<path stroke="#FFFFFF" stroke-miterlimit="10" d="M189,516c-0.667,0-1.333,0-2,0c-7.599-35.73,14.839-66.741,15-101
	c-10.938,0.435-9.023,4.942-14,7c-5.314,2.197-19.344-4.915-29-1c-33.863,13.728-52.118,58.213-46,105c0.333,0.333,0.667,0.667,1,1
	c12.963,2.419,40.912-6.737,49-13c2.684,1.756,1.763,8.897,2,13c0.333,0.333,0.667,0.667,1,1c17.198-0.461,25.495-9.214,40-11
	c0.333-0.333,0.667-0.667,1-1c0-1,0-2,0-3C202.457,514.202,193.314,518.757,189,516z M166,503c-0.219,8.478-21.648,16.945-30,11
	c-1-0.333-2-0.667-3-1c-5.718-25.243,7.657-80.716,26-86c0.855-0.663,3.14-1.352,4-2c7.135,2.602,13.969,4.274,20,7
	C177.334,455.664,171.666,479.336,166,503z"/>
<path stroke="#FFFFFF" stroke-miterlimit="10" d="M1160,516c-1-0.333-2-0.667-3-1c-4.067-22.235,4.001-45.991,9-64
	c2.796-10.075,1.753-22.965,7-31c-0.2-2.596-0.442-3.396-1-5c-1.333,0-2.667,0-4,0c-0.889,0.696-9.979,6.992-10,7
	c-3.468,1.365-6.321-1.556-8-2c-8.012-2.119-16.724-0.621-23,2c-26.235,10.953-33.57,35.019-42,64c-1.814,6.237-6.946,27.216-2,35
	c0.464,4.502,1.292,4.275,3,7c15.169-0.193,38.167-7.105,47-14c1,0,2,0,3,0c-0.645,1.726-0.196,0.979-1,2
	c-0.095,5.514,0.333,8.898,2,12c16.849-0.541,27.144-8.652,41-12c-0.645-1.726-0.196-0.979-1-2
	C1173.906,511.894,1164.707,518.662,1160,516z M1141,483c-2.081,7.412-1.148,16.288-5,22c-1.206,9.007-10.744,6.236-17,10
	c-8.017,0.408-14.052,1.016-16-5c-3.736-5.858-1.391-19.12,0-27c3.129-17.732,11.458-50.838,26-56c0.855-0.663,3.14-1.352,4-2
	c7.726,1.618,14.242,3.778,20,7C1151.956,449.72,1145.42,467.252,1141,483z"/>
<path stroke="#FFFFFF" stroke-miterlimit="10" d="M1728,516c-5.742-3.075-4.805-17.324-3-25c3.673-15.622,6.911-33.179,11-48
	c2.05-7.429,1.146-16.23,5-22c-0.109-2.848-0.401-4.275-1-6c-8.051,0.583-8.422,4.483-13,7c-3.663,2.014-19.081-4.064-26-2
	c-27.772,8.285-35.253,29.308-45,56c-4.737,12.972-9.967,38.342-2,52c21.868-0.505,32.187-11.584,50-14
	c-0.519,3.41-2.005,8.049,0,11c0.333,1,0.667,2,1,3c16.873-0.571,25.448-9.248,40-11c0.333-0.333,0.667-0.667,1-1c0-1,0-2,0-3
	C1741.457,514.202,1732.313,518.757,1728,516z M1709,484c-2.16,7.214-1.19,16.356-5,22c-1.912,7.542-10.352,5.378-16,9
	c-4.666,0-9.334,0-14,0c-6.127-2.88-4.881-24.173-3-32c4.126-17.169,7.915-36.391,17-49c3.197-4.438,8.678-5.621,13-9
	c7.961,1.655,14.224,3.725,20,7C1720.263,450.063,1713.735,468.181,1709,484z"/>
<path stroke="#FFFFFF" stroke-miterlimit="10" d="M2411,514c-1.473-0.829-10.604,1.171-13,3c-4.972-0.086-5.744-0.184-7-4
	c-3.294-5.206-1.784-17.657,0-25c3.656-15.051,6.98-32.529,11-47c2.072-7.459,1.166-16.177,5-22c-0.325-2.307-0.464-2.484-1-4
	c-1.667,0-3.334,0-5,0c-2.97,2.809-6.605,3.498-9,7c-6.999-1-14.001-2-21-3c-31.904,6.423-39.614,30.584-50,59
	c-4.417,12.084-8.773,37.784-1,50c14.707-0.189,38.407-7.299,47-14c0.667,0,1.333,0,2,0c-0.115,5.972,0.167,10.574,2,14
	c17.011-0.553,26.85-8.909,41-12C2411.354,514.274,2411.804,515.021,2411,514z M2374,486c-2.11,7.511-1.129,16.272-5,22
	c-2.97,3.887-21.478,11.239-29,6c-6.297-3.295-6.021-18.192-4-27c4.336-18.904,10.543-54.743,27-60c0.855-0.663,3.14-1.352,4-2
	c7.36,2.617,13.862,4.221,20,7C2385.348,450.493,2378.71,469.232,2374,486z"/>
<path stroke="#FFFFFF" stroke-miterlimit="10" d="M745,418c-6.798,4.646-15.573,5.404-22,10c-17.037,12.181-20.867,30.382-27,54
	c-2.259,8.7-6.002,27.327,0,35c3.375,9.507,18.565,14.094,32,10c13.079-3.986,21.213-16.671,34-21c0-1.333,0-2.667,0-4
	c-13.246,3.982-17.552,13.404-37,13c-2.307-2.134-6.221-3.404-8-6c-2.844-4.149-7.686-23.001-3-30c2.496-4.562,10.324-5.578,15-8
	c14.148-7.329,29.119-10.875,35-27c1.895-5.195,5.251-15.344,1-21C761.405,417.817,754.146,417.624,745,418z M717,471
	c-0.667,0-1.333,0-2,0c0.382-24.071,10.62-35.004,23-47c4.949,0.02,7.01,0.646,10,2C760.838,457.329,731.067,460.42,717,471z"/>
<path stroke="#FFFFFF" stroke-miterlimit="10" d="M986,418c-10.01,7.693-24.169,9.213-28,23c-3.229,4.568-2.506,16.214,0,21
	c6.749,12.886,25.529,15.938,30,31c2.504,3.362,2.501,10.823,0,14c-0.901,5.745-4.701,8.761-10,10c-4.477,3.165-12.212,1.571-18,1
	c-4.086-3.905-9.79-6.246-12-12c-1.35-3.516-0.252-8.151-2-11c-0.333-0.333-0.667-0.667-1-1c-3.112,9.108-2.195,20.364-5,29
	c24.418,11.524,32.899,2.796,49-8c8.592-5.762,20.988-12.475,16-31c-4.877-18.111-23.061-19.795-32-32
	c-3.145-4.294-5.995-13.533-2-19c1.122-3.4,2.559-4.923,6-6c4.061-3.004,9.33-1.415,15-1c2.232,2.141,6.339,3.379,8,6
	c1.267,2,0.809,6.133,2,8c0,0.667,0,1.333,0,2c4.147-2.609,2.451-11.847,5-16c0-2,0-4,0-6C1001.034,418.66,994.252,417.852,986,418z
	"/>
<path stroke="#FFFFFF" stroke-miterlimit="10" d="M2161,418c-9.433,6.543-21.032,8.491-30,15c-17.893,12.986-30.101,66.294-17,92
	c24.908,6.691,50.662-6.369,61-23c4.622-7.436,5.176-15.593,8-25c6.11-20.356,6.945-39.791-3-56
	C2174.236,419.424,2169.633,417.814,2161,418z M2155,511c-2.541,3.417-7.658,4.333-11,7c-8.159-0.038-10.399-2.041-15-5
	c-6.084-26.539-1.453-59.799,11-77c2.648-3.658,7.737-4.936,11-8c2.333,0,4.667,0,7,0c2.103,2.092,5.519,4.449,8,6
	C2172.958,460.627,2168.324,493.08,2155,511z"/>
<path stroke="#FFFFFF" stroke-miterlimit="10" d="M56,425c0,0.667,0,1.333,0,2c3.493-0.104,8.008-0.337,10,1
	c4.167,0.199,4.582,0.698,7,2c-0.265,16.702-2.584,33.527-6,48c-4.041,17.124-4.049,34.459-8,50c-5.984,23.535-4.061,40.531-18,56
	c-4.915-0.307-7.516-1.398-10-4c-6.969,0.09-6.708,1.755-10,5c0.399,2.054,0.248,1.927,1,3c2.764,4.903,11.338,2.625,17,2
	c6.26-6.222,14.039-10.437,19-18c14.651-22.333,17.702-59.436,25-89c0.667-6.666,1.333-13.334,2-20c1.617-6.543,9.754-42.467,9-44
	C87.674,423.285,65.084,423.489,56,425z"/>
<path stroke="#FFFFFF" stroke-miterlimit="10" d="M550,495c3.956-18.106,6.532-36.915,11-54c1.148-4.39,2.311-14.255,0-18
	c-0.333-1-0.667-2-1-3c-14.144-0.418-40.692,8.694-50,16c-0.667,0-1.333,0-2,0c0.47-4.804,3.14-12.498,2-15c0-0.667,0-1.333,0-2
	c-10.356,3.839-24.141,6.24-37,6c0,1,0,2,0,3c3.978,0.088,12.128,0.139,15,2c0.667,0,1.333,0,2,0c-0.849,36.419-14.569,64.898-18,98
	c6-1,12-2,18-3c0-0.333,0-0.667,0-1c3.953-5.899,2.099-16.284,4-24c3.38-13.716,6.56-48.366,13-58c2.016-4.993,26.892-12.731,32-9
	c0.667,0,1.333,0,2,0c3.641,17.451-2.288,47.248-7,65c-1.55,5.84-7.569,22.171-4,28c0,0.667,0,1.333,0,2
	c9.981-0.135,31.626-6.22,37-11c0.333,0,0.667,0,1,0c0-0.667,0-1.333,0-2c-4.108,0.269-8.381,1.075-11,3
	C548.812,516.85,547.805,505.048,550,495z"/>
<path stroke="#FFFFFF" stroke-miterlimit="10" d="M661,495c3.952-18.091,6.55-36.981,11-54c1.148-4.39,2.311-14.255,0-18
	c0-0.667,0-1.333,0-2c-3-0.667-6-1.333-9-2c-8.336,1.195-36.405,12.553-42,17c-0.667,0-1.333,0-2,0c0.177-3.316,0.536-6.911,2-9
	c0-2.667,0-5.333,0-8c-11.582,4.222-25.662,3.164-38,7c0,0.333,0,0.667,0,1c3.751,1.316,12.416,0.796,16,3c0.667,0,1.333,0,2,0
	c-0.851,36.391-14.578,64.887-18,98c6-1,12-2,18-3c0-0.333,0-0.667,0-1c3.953-5.899,2.099-16.284,4-24
	c3.38-13.716,6.56-48.366,13-58c2.016-4.993,26.892-12.731,32-9c0.667,0,1.333,0,2,0c4.329,19.778-3.108,46.46-8,65
	c-1.847,6.999-0.458,16.431-4,22c0.007,3.326,0.287,5.951,1,8c9.981-0.135,31.626-6.22,37-11c0.333,0,0.667,0,1,0
	c0-0.667,0-1.333,0-2c-4.108,0.269-8.381,1.075-11,3C659.812,516.85,658.805,505.048,661,495z"/>
<path stroke="#FFFFFF" stroke-miterlimit="10" d="M910,513c-1.66-2.848-1.959-12.613-1-17c3.493-15.983,5.724-33.764,10-49
	c1.715-6.112,0.78-14.252,4-19c0-3,0-6,0-9c-12.332,2.333-24.668,4.667-37,7c-0.333,0.333-0.667,0.667-1,1c0,0.333,0,0.667,0,1
	c4.953,1.65,13.859,1.246,18,3c2.393,14.037-2.812,30.559-6,43c-1,7-2,14-3,21c-1.479,5.564-6.944,20.849-4,26
	c0.11,2.848,0.401,4.275,1,6c17.62,3.165,29.254-8.659,44-12c0-1,0-2,0-3c-4.236,0.536-9.22,1.794-12,4
	C917.34,516.017,912.046,516.512,910,513z"/>
<path stroke="#FFFFFF" stroke-miterlimit="10" d="M1504,517c-5.218-21.636,3.451-49.488,9-68c2.312-7.71,1.849-16.993,6-23
	c0-2.333,0-4.667,0-7c-6.333,2-12.667,4-19,6c-4.046,10.98-2.91,23.798-6,36c-3.837,15.154-8.364,33.276-10,49
	c-6.531,1.125-19.03,9.577-26,5c-0.667,0-1.333,0-2,0c-4.853-22.016,1.946-47.882,7-67c2.045-7.735,0.97-17.167,5-23
	c-0.105-2.533-0.123-3.705-1-5c-4.304-1.945-29.155,4.085-37,5c0.645,1.726,0.196,0.979,1,2c2.574,1.707,11.752,1.736,15,2
	c0.333,0.333,0.667,0.667,1,1c-0.529,25.048-4.698,46.727-10,68c-1.837,7.373-4.814,23.06-1,28c0.333,0.667,0.667,1.333,1,2
	c10.686-0.265,37.792-9.265,44-14c1,0,2,0,3,0c-0.645,1.726-0.196,0.979-1,2c-0.059,4.326,0,9.106,1,12
	c9.512-0.267,31.326-3.703,37-8c0.333,0,0.667,0,1,0C1520.935,518.401,1507.413,517.706,1504,517z"/>
<path stroke="#FFFFFF" stroke-miterlimit="10" d="M2076,519c-1.721-0.605-3.327-3.012-5-4c-1.208-23.899,4.881-48.971,11-69
	c2.257-7.388,1.976-17.097,6-23c-0.399-2.054-0.249-1.927-1-3c-4.325-2.081-15.984,4.612-20,7c-0.72,19.349-5.451,39.895-10,57
	c-2.167,8.146-0.868,18.591-5,25c-4.952,4.06-13.381,3.425-19,7c-4.779-0.006-6.33-0.559-9-2c-6.74-33.585,11.809-62.983,12-95
	c-11.666,2-23.334,4-35,6c-0.667,0-1.333,0-2,0c0,1,0,2,0,3c5.732-0.151,11.905-0.456,15,2c0.667,0.333,1.333,0.667,2,1
	c-0.691,19.921-4.712,39.606-9,57c-1.895,7.687-0.198,17.937-4,24c-0.122,6.425-0.009,12.23,2,16c19.457-0.688,29.996-11.939,47-14
	c-0.227,2.319-0.197,2.82-1,4c-0.039,3.816,0.15,7.552,1,10c9.922-0.187,31.829-3.675,38-8c0.333,0,0.667,0,1,0
	C2087.673,515.166,2082.288,521.21,2076,519z"/>
</svg>
