<?xml version="1.0" encoding="utf-8"?>
<!-- Generator: Adobe Illustrator 16.0.0, SVG Export Plug-In . SVG Version: 6.00 Build 0)  -->
<!DOCTYPE svg PUBLIC "-//W3C//DTD SVG 1.1//EN" "http://www.w3.org/Graphics/SVG/1.1/DTD/svg11.dtd">
<svg version="1.1" id="Lag_1" xmlns="http://www.w3.org/2000/svg" xmlns:xlink="http://www.w3.org/1999/xlink" x="0px" y="0px"
	 width="2709.003px" height="305.53px" viewBox="0 0 2709.003 305.53" enable-background="new 0 0 2709.003 305.53"
	 xml:space="preserve">
<path fill-rule="evenodd" clip-rule="evenodd" d="M1062.564,223.991c2.999,6.818,6.107,13.592,8.975,20.466
	c5.941,14.244,11.763,28.538,17.611,42.821c0.604,1.478,0.827,3.154,1.623,4.505c4.271,7.244,4.314,7.219,13.689,10.771
	c-8.137,0-15.166,0-21.555,0c-0.351-2.606-0.275-4.645-0.926-6.415c-2.357-6.412-4.803-12.804-7.589-19.036
	c-0.6-1.34-2.713-2.718-4.209-2.813c-5.311-0.341-10.731,0.425-15.967-0.287c-5.515-0.749-7.731,1.993-9.253,6.345
	c-1.444,4.133-2.831,8.286-4.236,12.433c-1.411,4.162-2.917,8.365,4.524,9.16c-0.29,0.405-0.579,0.811-0.869,1.216
	c-7.37,0-14.744,0.127-22.111-0.035c-7.418-0.164-14.83-0.616-21.187-0.896c-1.213-9.693-2.564-18.811-3.44-27.973
	c-0.871-9.125-1.265-18.296-3.015-27.746c-2.269,4.36-4.629,8.676-6.789,13.089c-6.561,13.403-13.041,26.844-19.559,40.268
	c-1.428,2.941-3.045,3.384-4.707,0.213c-6.676-12.734-13.367-25.46-19.946-38.244c-2.421-4.703-4.549-9.557-6.811-14.342
	c-0.438,0.096-0.875,0.192-1.312,0.288c-0.642,9.091-1.179,18.191-1.964,27.27c-0.423,4.886-1.22,9.741-1.935,14.598
	c-1.18,8.009-0.33,9.626,8.074,12.987c-8.142,0-14.987,0-21.832,0c8.044-2.212,7.302-8.661,7.827-14.861
	c0.939-11.096,2.472-22.141,3.716-33.211c0.769-6.848,1.422-13.708,2.208-20.553c0.364-3.165,0.922-6.309,1.392-9.462
	c0.638-0.172,1.276-0.344,1.915-0.516c10.856,21.312,21.712,42.623,33.057,64.894c10.722-21.892,21.182-43.25,31.642-64.608
	c0.462,0,0.925,0.001,1.387,0.001c0.53,2.382,1.26,4.738,1.559,7.148c1.992,16.089,3.914,32.187,5.806,48.287
	c0.479,4.064,0.766,8.151,1.141,12.229c0.486,5.283,3.252,8.624,8.595,9.125c8.622,0.808,13.126-1.422,15.467-7.293
	c6.864-17.218,13.744-34.43,20.522-51.682c2.35-5.981,4.42-12.072,6.617-18.113C1061.321,224.009,1061.943,224,1062.564,223.991z
	 M1071.57,270.039c-3.752-9.938-7.322-19.395-10.894-28.852c-0.457,0.006-0.914,0.013-1.371,0.019
	c-3.299,9.478-6.598,18.955-10.035,28.833C1057.047,270.039,1063.864,270.039,1071.57,270.039z"/>
<path fill-rule="evenodd" clip-rule="evenodd" d="M600.692,30.156c0,11.614,0,22.427,0,34.29c8.021-0.396,15.873-0.782,23.479-1.157
	c0,2.966,0,7.306,0,13.189c-5.375-13.073-15.365-6.365-23.578-8.893c0,9.498-0.213,17.958,0.202,26.388
	c0.071,1.459,2.697,3.83,4.316,3.986c5.282,0.511,10.85,1.066,15.9-0.123c3.211-0.756,5.699-4.577,8.743-7.225
	c-0.582,3.252-1.195,7.162-2.057,11.019c-0.142,0.63-1.374,1.445-2.106,1.45c-13.904,0.086-27.81,0.063-42.109-0.443
	c9.319-2.58,7.992-9.901,8.085-16.496c0.083-5.798,0.018-11.598,0.018-17.971c-6.641,0-12.937-0.312-19.164,0.204
	c-1.711,0.142-3.584,2.517-4.75,4.284c-4.186,6.343-8.636,12.601-11.973,19.388c-3.707,7.539-2.79,8.544,5.269,9.495
	c-2.313,1.901-63.96,2.759-74.577,0.729c9.02-1.226,7.09-7.11,7.192-12.032c0.345-16.427,0.732-32.854,0.948-49.283
	c0.04-3.088-0.249-6.301-1.137-9.229c-0.441-1.455-2.485-2.552-3.997-3.507c-0.923-0.583-2.21-0.591-3.133-1.81
	c8.381,0,16.763,0,25.145,0c0.248,0.209,0.496,0.417,0.744,0.626c-0.651,0.304-1.338,0.927-1.95,0.861
	c-5.837-0.625-5.697,3.06-5.67,7.22c0.122,18.491,0.047,36.983,0.057,55.476c0.003,5.414,1.943,7.434,7.319,7.55
	c3.33,0.071,6.707-0.332,9.986,0.084c7.377,0.937,12.473-1.453,14.354-9.363c0.461,0.202,0.923,0.403,1.385,0.605
	c-0.622,3.731-1.244,7.463-1.92,11.515c6.914-1.189,10.209-6.53,13.56-11.312c8.229-11.737,16.06-23.754,23.993-35.697
	c5.502-8.282,11.062-16.535,16.254-25.012c1.334-2.18,2.544-2.894,4.945-2.856c8.327,0.129,16.659,0.104,24.987,0.017
	c2.553-0.026,5.1-0.445,8.13-0.729c-0.854,4.382-1.66,8.514-2.466,12.645c-1.546-8.246-7.844-7.687-13.641-7.862
	C608.019,30.07,604.557,30.156,600.692,30.156z M591.361,35.971c-0.284-0.114-0.567-0.229-0.852-0.343
	c-5.771,9.233-11.544,18.468-17.668,28.265c6.858,0,12.579,0,18.52,0C591.361,54.411,591.361,45.191,591.361,35.971z"/>
<path fill-rule="evenodd" clip-rule="evenodd" d="M95.913,210.491c0.555,4.638,1.188,9.268,1.65,13.914
	c1.707,17.153,3.255,34.324,5.09,51.464c0.57,5.326,1.656,10.624,2.87,15.85c1.768,7.615,3.758,9.107,11.343,9.45
	c0.759,0.034,1.512,0.202,2.268,0.308c-0.024,0.545-0.049,1.09-0.073,1.636c-7.984-0.378-15.969-0.755-23.617-1.116
	c-1.948-22.458-3.868-44.587-5.787-66.717c-0.402-0.009-0.803-0.018-1.205-0.027c-10.574,22.323-21.149,44.646-31.723,66.969
	c-0.578,0.103-1.155,0.205-1.733,0.308c-11.99-21.295-22.223-43.517-32.287-65.828c-0.486,0.123-0.972,0.245-1.458,0.367
	c-0.892,12.577-1.709,25.16-2.706,37.729c-0.479,6.047-1.329,12.063-1.951,18.1c-0.528,5.124,1.214,8.429,6.968,8.393
	c0.253-0.001,0.531,0.333,0.75,0.557c0.078,0.08,0.012,0.299,0.012,0.543c-8.11,0-16.217,0-24.324,0
	c7.472-1.885,8.882-3.895,9.657-11.887c1.026-10.586,2.729-21.104,3.835-31.685c1.213-11.606,2.02-23.255,3.122-34.874
	c0.425-4.477,1.179-8.923,1.782-13.383c0.542-0.143,1.084-0.284,1.626-0.427c12.547,25.652,25.095,51.306,37.9,77.486
	c12.354-26.296,24.389-51.913,36.424-77.53C94.868,210.224,95.391,210.357,95.913,210.491z"/>
<path fill-rule="evenodd" clip-rule="evenodd" d="M1638.853,302.368c9.13-1.166,7.754-8.022,7.744-14.214
	c-0.033-21.661-0.012-43.322-0.013-64.983c-0.001-7.635-0.687-8.376-8.228-9.055c-0.563-0.051-1.101-0.383-1.566-1.411
	c9.502,0,19.005,0,28.541,0c-0.087,0.404-0.1,0.931-0.221,0.957c-7.525,1.658-7.526,1.654-7.526,9.506c0,9.132,0,18.264,0,27.988
	c8.472,0,16.576,0,24.682,0c7.331,0,14.664-0.073,21.994,0.029c3.799,0.053,5.407-1.611,5.354-5.388
	c-0.104-7.33-0.019-14.663-0.032-21.994c-0.015-7.124-1.394-8.644-8.567-9.713c-0.685-0.102-1.3-0.666-2.854-1.506
	c10.459,0,19.822,0,29.186,0c-8.951,1.308-7.788,7.92-7.776,13.98c0.041,20.494-0.026,40.989,0.061,61.484
	c0.014,3.092,0.117,6.371,1.161,9.2c0.616,1.669,3.02,2.955,4.896,3.785c1.323,0.584,3.113,0.112,4.695,0.112
	c0.005,0.457,0.01,0.914,0.015,1.371c-9.493,0-18.986,0-29.423,0c2.243-1.103,4.624-1.481,5.209-2.713
	c1.548-3.258,3.123-6.856,3.249-10.37c0.403-11.146,0.149-22.313,0.149-33.876c-17.208,0-34.258,0-51.997,0
	c0,6.629,0,13.391,0,20.151c0,5.499-0.006,10.998,0.002,16.496c0.01,7.114,1.505,8.664,8.582,8.965
	c0.646,0.027,1.287,0.168,1.94,1.196C1658.357,302.368,1648.605,302.368,1638.853,302.368z"/>
<path fill-rule="evenodd" clip-rule="evenodd" d="M1935.157,10.461c12.63,11.604,23.136,25.283,34.91,37.719
	c11.902,12.57,23.646,25.29,36.512,39.073c0-3.369,0.073-5.557-0.014-7.737c-0.297-7.434-0.713-14.863-0.966-22.298
	c-0.39-11.433-0.82-22.867-0.965-34.304c-0.086-6.768-4.098-9.217-9.928-10.443c8.281,0,16.562,0,24.239,0
	c-1.734,1.163-4.601,2.193-5.928,4.229c-1.296,1.988-1.369,5-1.379,7.564c-0.092,24.331-0.055,48.663-0.055,72.994
	c0,1.823,0,3.646,0,6.848c-2.274-1.59-3.92-2.402-5.133-3.64c-11.683-11.914-23.433-23.767-34.879-35.904
	c-9.856-10.45-19.337-21.255-29.004-31.885c-0.857-0.941-1.864-1.747-2.984-2.784c0,15.707-0.154,30.936,0.075,46.157
	c0.093,6.117,0.998,12.224,1.586,18.33c0.478,4.964,3.104,7.397,8.229,6.809c0.463-0.054,0.986,0.09,1.424,0.276
	c0.218,0.093,0.305,0.491,0.715,1.222c-9.431,0-18.6,0-27.912,0c0.248-0.631,0.319-1.128,0.472-1.154
	c7.827-1.347,9.383-3.125,9.396-11.38c0.04-24.331,0.015-48.663,0.015-72.994c0-1.824,0-3.648,0-5.472
	C1934.108,11.278,1934.632,10.869,1935.157,10.461z"/>
<path fill-rule="evenodd" clip-rule="evenodd" d="M2071.859,302.612c8.496-3.059,8.723-3.365,8.725-12.925
	c0.003-23.993-0.024-47.986,0.044-71.979c0.007-2.157,0.622-4.312,1.184-7.957c24.148,25.975,47.265,50.84,70.381,75.704
	c0.459-0.13,0.919-0.26,1.379-0.39c0-4.687,0.128-9.378-0.036-14.059c-0.167-4.772-0.753-9.53-0.924-14.303
	c-0.415-11.596-0.639-23.197-1.052-34.793c-0.213-5.991-1.885-7.549-7.646-7.774c-1.062-0.041-2.115-0.301-3.124-1.403
	c8.832,0,17.665,0,26.706,0c-0.27,0.492-0.431,1.181-0.701,1.228c-7.665,1.309-8.208,1.94-8.208,9.859
	c-0.002,24.825-0.001,49.651-0.001,74.477c0,1.808,0,3.615,0,6.704c-26.033-23.558-48.229-49.269-71.657-74.721
	c-0.137,1.819-0.327,3.185-0.329,4.551c-0.022,13.829-0.107,27.659,0.033,41.487c0.056,5.436,0.426,10.89,1.037,16.293
	c0.702,6.204,2.782,7.931,9.157,8.584c0.562,0.058,1.097,0.388,1.556,1.416C2089.541,302.612,2080.7,302.612,2071.859,302.612z"/>
<path fill-rule="evenodd" clip-rule="evenodd" d="M2270.856,226.428c-1.909,1.064-3.53,1.968-5.802,3.234
	c5.337,18.931,10.633,37.714,15.928,56.497c0.466-0.052,0.931-0.104,1.396-0.155c7.839-19.979,15.677-39.958,23.515-59.938
	c0.629-0.088,1.258-0.176,1.887-0.264c7.473,20.408,14.945,40.816,22.773,62.198c2.188-6.204,4.281-11.521,5.939-16.973
	c3.493-11.487,6.699-23.062,10.137-34.567c2.087-6.985,2.182-6.957-4.337-10.124c6.946,0,13.525,0,20.104,0
	c-8.431,2.188-8.743,10.36-11.429,16.429c-3.662,8.273-6.145,17.073-9.051,25.676c-3.481,10.303-6.854,20.643-10.331,30.946
	c-0.559,1.656-1.421,3.211-2.741,6.143c-1.513-2.528-2.686-3.951-3.289-5.583c-6.424-17.358-12.744-34.756-19.145-52.123
	c-0.436-1.184-1.28-2.217-2.234-3.824c-2.662,6.679-5.146,12.85-7.584,19.038c-5.064,12.86-10.073,25.743-15.217,38.572
	c-0.403,1.007-1.679,1.664-2.549,2.483c-0.689-0.833-1.709-1.56-2.018-2.516c-3.14-9.736-6.154-19.512-9.224-29.271
	c-2.681-8.525-5.387-17.043-8.083-25.563c-0.976-3.082-1.926-6.172-2.938-9.242c-2.499-7.576-2.512-7.572-10.495-11.074
	C2254.624,226.428,2262.564,226.428,2270.856,226.428z"/>
<path fill-rule="evenodd" clip-rule="evenodd" d="M1597.293,14.798c0,6.564,0,12.812,0,19.06c-0.253,0.07-0.507,0.14-0.761,0.21
	c-0.316-0.715-0.79-1.401-0.927-2.149c-1.69-9.211-8.477-14.15-16.474-15.391c-9.295-1.442-19.339-1.913-28.415,0.098
	c-10.407,2.306-18.133,9.986-21.036,20.838c-5.394,20.163-1.896,40.076,15.753,53.658c9.245,7.114,20.588,9.853,32.571,7.31
	c1.118-0.237,2.297-0.189,3.446-0.282c3.649-0.295,6.051-2.35,6.033-5.896c-0.046-8.758-0.94-17.523-0.717-26.266
	c0.16-6.265-5.258-5.079-8.451-7.578c9.308,0,18.253,0,27.454,0c-8.464,3.248-8.431,4.752-8.242,11.357
	c0.232,8.158-0.08,16.331,0.128,24.491c0.074,2.914-0.854,4.561-3.49,5.717c-10.61,4.653-21.791,4.809-32.971,3.872
	c-8.807-0.737-16.977-3.56-24.847-8.055c-7.391-4.221-12.132-10.448-14.988-17.621c-6.617-16.622-6.292-33.248,3.581-48.87
	c7.209-11.407,18.515-16.792,31.158-17.868C1569.811,10.264,1583.792,10.159,1597.293,14.798z"/>
<path fill-rule="evenodd" clip-rule="evenodd" d="M461.13,15c-0.272,6.216-0.55,12.551-0.843,19.246
	c-0.793-0.452-1.5-0.659-1.507-0.887c-0.309-10.271-7.453-15.35-15.814-16.638c-9.568-1.475-19.811-1.518-29.31,0.245
	c-12.375,2.297-19.119,11.955-21.784,23.815c-3.915,17.421-0.59,33.496,12.35,46.291c10.198,10.085,22.816,14.264,37.299,11.186
	c0.962-0.205,2.017,0.048,2.987-0.133c3.738-0.695,6.324-2.235,6.142-6.79c-0.259-6.489-0.065-12.997-0.065-19.497
	c0-9.966,0-9.966-9.279-13.571c8.928,0,17.569,0,26.211,0c-8.485,2.584-6.867,9.587-6.918,15.804
	c-0.059,7.166,0.14,14.339-0.137,21.494c-0.06,1.53-1.347,3.889-2.626,4.364c-17.134,6.371-34.493,6.267-51.328-0.523
	c-14.874-6-22.87-18.114-25.921-33.64c-3.174-16.151,1.866-30.13,12.245-42.134c6.902-7.982,16.707-11.745,26.982-12.285
	C433.614,10.621,447.577,10.13,461.13,15z"/>
<path fill-rule="evenodd" clip-rule="evenodd" d="M587.319,302.667c-8.493,0-16.986,0-25.479,0c7.165-1.823,6.82-7.272,6.786-12.818
	c-0.11-17.826-0.041-35.652-0.041-53.479c0-7.248-0.855-8.303-9.022-9.983c9.062,0,17.006,0,24.948,0
	c-6.006,0.957-6.138,5.18-5.985,9.933c0.229,7.111,0.06,14.236,0.06,21.516c1.08,0.143,1.707,0.297,2.335,0.298
	c13.979,0.014,27.958,0.011,42.588,0.011c0-8.802,0.483-17.433-0.32-25.942c-0.217-2.291-4.347-4.213-6.057-5.744
	c6.518,0,14.449,0,22.381,0c-5.673,1.407-6.071,5.559-6.011,10.544c0.216,17.491,0.026,34.985,0.107,52.479
	c0.043,9.3-2.085,9.302,8.784,13.112c-8.508,0-17.016,0-25.523,0c7.792-1.961,6.647-8.236,6.696-13.834
	c0.075-8.642,0.02-17.283,0.02-26.262c-15.007,0-29.721,0-44.955,0c0,10.838-0.207,21.616,0.107,32.379
	c0.117,4.004,2.073,7.229,7.152,6.343c0.481-0.084,1.062,0.394,1.596,0.61C587.429,302.107,587.374,302.387,587.319,302.667z"/>
<path fill-rule="evenodd" clip-rule="evenodd" d="M648.183,26.164c15.446,0,31.079-1.49,46.289,0.408
	c16.113,2.011,29.99,9.535,33.163,30.999c3.195,21.61-9.551,40.626-30.984,45.459c-1.113,0.251-2.318,0.121-3.48,0.122
	c-12.978,0.006-25.955,0.014-38.934-0.01c-1.503-0.002-3.006-0.185-4.83-0.846c6.802-0.756,6.162-5.391,6.223-9.925
	c0.22-16.407,0.704-32.812,0.897-49.22c0.048-4.084-0.449-8.203-1.078-12.247c-0.16-1.029-1.642-2.19-2.774-2.645
	c-1.355-0.542-2.988-0.39-4.5-0.538C648.177,27.203,648.18,26.684,648.183,26.164z M666.591,30.424
	c0,21.023-0.09,41.819,0.168,62.612c0.021,1.7,2.171,4.504,3.756,4.851c5.562,1.215,11.383,2.512,16.968,2.066
	c10.373-0.827,20.034-4.428,25.635-13.974c4.896-8.344,7.021-17.578,4.41-27.273c-2.819-10.466-8.044-19.269-18.225-24.218
	C688.997,29.477,678.156,28.642,666.591,30.424z"/>
<path fill-rule="evenodd" clip-rule="evenodd" d="M1716.235,26.156c13.366,0,26.736,0.216,40.095-0.084
	c7.618-0.171,14.501,2.022,21.187,5.111c14.158,6.542,21.028,22.942,18.488,38.637c-1.629,10.069-5.836,17.854-13.07,24.489
	c-5.757,5.281-12.822,8.316-20.307,8.656c-14.29,0.648-28.631,0.188-42.95,0.167c-0.609-0.001-1.219-0.206-2.713-0.476
	c1.222-0.778,1.796-1.464,2.317-1.427c4.115,0.299,5.244-2.355,5.257-5.591c0.082-20.979,0.139-41.961-0.157-62.937
	c-0.021-1.535-2.735-3.241-4.48-4.463c-0.977-0.684-2.537-0.534-3.835-0.76C1716.123,27.039,1716.179,26.598,1716.235,26.156z
	 M1734.584,61.592c0,7.992,0,15.984,0,23.976c0.001,11.026-0.073,11.36,10.582,13.715c16.627,3.675,36.041-4.098,40.271-22.682
	c3.295-14.475,0.062-27.138-10.471-37.352c-9.204-8.928-21.558-9.559-33.469-9.913c-6.59-0.196-6.911,0.92-6.913,7.781
	C1734.583,45.275,1734.584,53.434,1734.584,61.592z"/>
<path fill-rule="evenodd" clip-rule="evenodd" d="M1386.691,301.662c5.905-0.672,6.894-4.483,6.949-9.373
	c0.185-16.081,0.695-32.158,0.886-48.239c0.049-4.083,0.039-8.393-1.205-12.186c-0.779-2.378-3.909-3.985-5.984-5.939
	c-0.219,0.399-0.437,0.798-0.655,1.197c14.789,0,29.581-0.165,44.367,0.053c11.489,0.169,20.675,5.047,27.653,14.332
	c7.879,10.482,8.558,21.929,5.128,33.988c-4.559,16.024-15.78,25.178-31.72,27.36c-10.135,1.388-20.631,0.137-30.965,0.08
	c-2.377-0.013-4.755,0.026-7.133,0.032c-2.327,0.007-4.654,0.002-6.982,0.002C1386.917,302.533,1386.804,302.098,1386.691,301.662z
	 M1403.588,230.152c0,20.909-0.054,41.184,0.042,61.457c0.021,4.376,3.088,7.391,7.496,7.5c6.677,0.167,13.508,0.91,20-0.195
	c6.796-1.158,13.234-4.263,17.61-10.245c3.53-4.826,5.471-10.062,6.322-16.138c1.822-13.004-1.324-24.542-10.934-32.961
	C1432.827,229.672,1418.834,227.497,1403.588,230.152z"/>
<path fill-rule="evenodd" clip-rule="evenodd" d="M1288.584,64.464c-0.846-23.334,18.304-40.825,42.01-40.152
	c25.634,0.727,41.644,14.273,41.566,38.368c-0.08,24.911-16.952,40.778-42.668,41.416
	C1305.082,104.701,1287.632,87.033,1288.584,64.464z M1360.457,65.886c0.433-0.082,0.865-0.164,1.298-0.246
	c-1.524-6.783-1.721-14.267-4.85-20.204c-6.549-12.428-17.58-18.916-32.011-17.159c-10.463,1.273-18.141,6.862-22.893,16.729
	c-2.998,6.225-2.345,12.529-2.381,18.886c-0.081,14.329,5.087,25.521,18.454,32.554c10.629,5.592,25.767,4.316,33.926-4.288
	C1358.923,84.855,1361.58,75.933,1360.457,65.886z"/>
<path fill-rule="evenodd" clip-rule="evenodd" d="M1702.584,62.153c0.457,25.171-18.011,41.605-41.816,41.991
	c-24.107,0.391-43.318-16.37-41.217-43.411c1.555-19.989,17.539-36.719,42.285-36.47
	C1684.933,24.496,1703.206,38.949,1702.584,62.153z M1630.848,63c0,2.518-0.854,6.424,0.148,9.774
	c4.115,13.741,11.745,23.978,27.166,26.762c9.366,1.691,22.05-2.588,27.442-10.309c5.585-7.996,6.237-16.899,6.079-26.27
	c-0.226-13.422-5.036-23.989-16.812-31.01c-12-7.154-29.974-4.219-38.385,7.239C1631.403,46.113,1629.831,53.599,1630.848,63z"/>
<path fill-rule="evenodd" clip-rule="evenodd" d="M660.792,227.161c12.119,0,25.427-0.762,38.596,0.26
	c9.306,0.722,16.032,12.187,13.784,20.53c-2.67,9.91-0.942,6.602-12.482,19.809c12.203,11.846,18.546,30.039,37.991,34.353
	c-12.964,2.852-22.102,0.308-30.078-10.641c-4.816-6.61-9.952-12.993-15.141-19.318c-0.886-1.079-2.727-1.797-4.183-1.904
	c-3.635-0.268-7.302-0.088-11.492-0.088c0,8.618-0.237,17.041,0.088,25.442c0.197,5.102,4.651,5.53,8.523,6.914
	c-8.505,0-17.009,0-26.188,0c0.96-0.624,1.536-1.325,2.058-1.286c4.121,0.311,5.257-2.349,5.27-5.584
	c0.085-21.161,0.103-42.323,0.006-63.484C667.518,227.018,662.781,227.955,660.792,227.161z M677.541,247.235
	c0.015,0,0.029,0,0.044,0c0,1.832,0,3.663,0,5.495c0,13.439,0,13.475,13.684,13.386c1.9-0.013,4.131-0.026,5.64-0.96
	c8.346-5.163,8.181-20.475,4.755-26.433c-4.749-8.26-12.227-10.243-20.985-9.564c-2.584,0.2-3.525,1.191-3.253,4.101
	C677.858,237.882,677.541,242.573,677.541,247.235z"/>
<path fill-rule="evenodd" clip-rule="evenodd" d="M1299.592,242.981c0,14.629-0.055,29.258,0.046,43.886
	c0.021,2.933,0.504,5.883,1.003,8.785c0.92,5.356,5.158,5.669,9.429,6.707c-7.925,0-15.85,0-23.71,0
	c-0.016,0.045,0.064-0.506,0.204-0.521c7.98-0.9,7.927-7.036,7.966-12.705c0.141-19.985,0.055-39.974,0.055-59.96
	c0-1.579,0-3.158,0-4.737c0.474-0.259,0.947-0.518,1.422-0.776c20.246,21.275,40.491,42.551,60.988,64.09
	c0.213-0.6,0.552-1.111,0.553-1.623c0.033-13.325,0.111-26.65-0.011-39.974c-0.04-4.268-0.513-8.543-0.999-12.791
	c-0.306-2.658-0.887-5.224-4.563-5.309c-1.497-0.034-2.975-0.919-5.453-1.749c8.353,0,15.624,0,24.562,0
	c-7.938,2.096-8.624,6.967-8.574,12.73c0.188,21.446,0.075,42.896,0.075,62.679c-19.762-19.716-40.217-40.123-60.671-60.53
	C1301.139,241.782,1300.366,242.382,1299.592,242.981z"/>
<path fill-rule="evenodd" clip-rule="evenodd" d="M213.586,270.156c0,8.227-0.15,15.714,0.047,23.192
	c0.161,6.141,4.33,8.193,9.758,9.221c-8.499,0-16.998,0-25.497,0c7.455-2.247,6.676-8.394,6.683-14.128
	c0.019-17.158,0.007-34.315,0.007-51.474c0-8.019,0-8.019-6.169-9.768c11.537,0,24.873-1.007,37.977,0.304
	c11.438,1.143,17.466,16.869,11.322,26.905c-2.809,4.587-6.114,8.869-9.739,14.071c2.856,3.471,6.125,7.669,9.635,11.655
	c5.065,5.752,9.943,11.754,15.618,16.85c3.017,2.709,7.544,3.735,12.14,5.87c-2.771,0.105-5.352,0.18-7.929,0.305
	c-9.77,0.474-17.028-4.024-22.689-11.557c-4.51-6.001-9.008-12.018-13.3-18.175c-1.78-2.554-3.761-3.625-6.902-3.343
	C221.111,270.395,217.623,270.156,213.586,270.156z M213.584,247.509c0,1.833,0,3.666,0,5.499c0,14.499-1.411,13.157,13.035,13.149
	c8.132-0.005,9.531-0.984,12.372-8.835c5.303-14.659-2.781-29.928-20.582-28.217c-3.257,0.312-4.853,1.624-4.831,4.904
	C213.609,238.509,213.586,243.009,213.584,247.509z"/>
<path fill-rule="evenodd" clip-rule="evenodd" d="M2658.534,302.667c-8.7,0-17.209,0-25.717,0c6.602-1.745,6.787-6.776,6.778-11.998
	c-0.028-18.152-0.007-36.305-0.013-54.457c-0.002-6.949-1.148-8.319-7.769-10.527c13.332,0.533,26.739,0.38,39.971,1.833
	c9.364,1.029,15.676,12.499,12.304,22.113c-2.24,6.388-6.809,11.959-11.295,19.512c7.968,8.79,16.883,19.083,26.396,28.79
	c2.353,2.4,6.649,2.896,9.813,4.17c-5.037,2.859-18.043,1.134-22.7-3.876c-5.242-5.64-10.939-11.232-14.622-17.855
	c-5.331-9.589-12.63-12.022-23.057-9.55c0,7.492-0.37,15.287,0.149,23.022c0.278,4.136,2.147,8.094,7.764,7.348
	c0.454-0.061,0.979,0.107,1.408,0.306C2658.155,301.594,2658.217,302.005,2658.534,302.667z M2648.585,247.731
	c0,4.651,0.12,9.307-0.042,13.952c-0.108,3.081,0.765,4.684,4.181,4.517c3.978-0.194,8.003,0.251,11.946-0.165
	c2.1-0.223,4.684-1.148,5.994-2.667c6.209-7.192,6.673-16.744,2.334-25.191c-3.459-6.736-12.212-10.33-20.742-8.996
	c-2.336,0.365-3.839,1.261-3.724,4.1C2648.728,238.09,2648.586,242.913,2648.585,247.731z"/>
<path fill-rule="evenodd" clip-rule="evenodd" d="M294.584,270.162c0,8.272-0.036,15.765,0.013,23.256
	c0.035,5.543,1.695,7.234,7.284,7.758c0.866,0.081,1.712,0.381,2.484,1.465c-8.503,0-17.007,0-25.51,0
	c7.848-1.838,6.352-8.766,6.501-13.535c0.564-17.98,0.192-35.99,0.248-53.988c0.017-5.415-2.916-7.838-7.903-7.914
	c13.264,0,26.723-1.401,39.732,0.413c11.837,1.651,16.377,14.028,11.418,25.561c-1.82,4.232-5.264,7.85-8.338,11.429
	c-1.812,2.108-2.44,3.34-0.339,5.792c5.324,6.215,10.029,12.964,15.413,19.122c5.286,6.046,10.778,12.146,19.932,12.881
	c-0.789,0.25-1.561,0.629-2.368,0.729c-13.431,1.67-23.036-4.142-30.239-15.128c-3.488-5.319-7.461-10.332-11.412-15.327
	c-0.921-1.164-2.599-2.29-4.008-2.399C303.388,269.957,299.243,270.162,294.584,270.162z M294.584,247.287
	c0,1.828-0.001,3.655,0,5.483c0.012,14.846-1.468,13.378,13.222,13.385c7.609,0.003,10.259-1.921,12.405-9.165
	c4.438-14.977-3.032-29.172-20.645-27.892c-3.571,0.26-5.062,1.752-5,5.229C294.645,238.646,294.585,242.967,294.584,247.287z"/>
<path fill-rule="evenodd" clip-rule="evenodd" d="M2280.327,102.688c-8.837,0-17.674,0-26.51,0
	c8.586-1.397,7.427-8.562,7.585-13.766c0.496-16.31,0.183-32.645,0.183-48.97c0-10.265,0-10.265-8.924-13.236
	c1.102-0.187,2.201-0.53,3.304-0.535c10.328-0.041,20.67-0.348,30.979,0.082c7.596,0.316,14.687,2.705,17.799,10.613
	c2.995,7.605,1.992,14.996-3.016,21.59c-2.389,3.145-5.064,6.071-7.778,9.297c6.009,7.404,11.991,15.148,18.383,22.538
	c5.277,6.102,10.986,11.874,20.277,11.304c-8.075,2.698-19.966,2.189-24.415-3.298c-6.617-8.159-13.682-15.97-20.018-24.336
	c-2.068-2.731-3.826-3.917-7.163-3.882c-11.433,0.121-11.533,0.017-11.382,11.257c0.063,4.769,0.125,9.651,1.207,14.241
	c0.505,2.143,3.262,3.955,5.34,5.438c1,0.713,2.793,0.312,4.227,0.417C2280.379,101.857,2280.352,102.272,2280.327,102.688z
	 M2269.585,47.271c0,4.32-0.372,8.688,0.163,12.941c0.255,2.028,1.955,5.22,3.479,5.528c10.286,2.087,20.719,2.478,23.604-12.717
	c2.541-13.381-8.038-25.759-21.556-23.831c-3.733,0.533-6.396,1.871-5.789,6.625C2269.968,39.578,2269.584,43.449,2269.585,47.271z"
	/>
<path fill-rule="evenodd" clip-rule="evenodd" d="M541.326,214.195c0,7.645,0,14.414,0,21.183c-0.446-0.009-0.893-0.017-1.339-0.024
	c-0.575-2.652-1.118-5.311-1.731-7.954c-1.387-5.986-6.753-8.574-11.331-9.778c-14.344-3.772-28.834-4.863-41.986,4.458
	c-7.248,5.137-10.303,12.843-12.194,20.956c-3.079,13.201-0.818,25.796,6.887,36.906c11.461,16.526,31.783,24.194,51.487,16.485
	c5.911-2.312,7.721-6.981,9.462-12.112c0.254-0.75,0.437-1.53,0.764-2.246c0.1-0.22,0.571-0.269,1.769-0.772
	c-1.234,6.361-1.352,12.707-3.911,17.835c-1.374,2.753-6.902,4.665-10.628,4.788c-12.639,0.418-25.465,1.593-37.721-3.1
	c-14.386-5.508-23.991-15.313-27.737-30.55c-4.296-17.475-0.708-33.268,10.893-46.769c5.452-6.346,13.457-9.504,21.629-11.283
	C511.334,208.8,526.794,211.448,541.326,214.195z"/>
<path fill-rule="evenodd" clip-rule="evenodd" d="M1439.478,65.378c8.009,0,16.018,0,24.026,0
	c-7.548,0.938-7.137,6.334-6.965,11.826c0.193,6.156,0.022,12.324,0.056,18.486c0.013,2.273-0.261,3.634-3.053,4.683
	c-9.294,3.496-18.6,3.824-28.416,3.051c-8.957-0.705-16.642-3.235-24.262-7.955c-6.036-3.737-9.45-9.048-11.938-14.897
	c-6.674-15.703-4.133-30.581,6.585-43.631c6.161-7.502,15.082-11.232,24.583-11.596c11.995-0.457,24.043,0.438,36.045,0.75
	c0,6.909,0,12.37,0,16.664c-2.721-3.196-5.239-7.628-9.026-10.173c-3.569-2.398-8.396-3.396-12.807-3.992
	c-16.936-2.288-31.35,2.96-37.14,19.932c-3.872,11.353-2.442,23.559,4.597,33.907c10.015,14.724,23.927,19.278,41.161,15.583
	c1.705-0.365,4.275-2.396,4.343-3.758c0.359-7.287,0.093-14.608-0.04-21.916C1447.136,67.258,1443.284,66.592,1439.478,65.378z"/>
<path fill-rule="evenodd" clip-rule="evenodd" d="M971.559,65.306c7.608,0,15.217,0,22.825,0c-8.147,1.488-6.049,8.481-6.609,13.444
	c-0.761,6.738-0.189,13.627-0.189,20.937c-9.884,3.56-19.777,4.917-30.505,3.792c-9.072-0.951-17.167-3.192-24.777-8.053
	c-8.69-5.55-12.68-14.331-14.424-23.553c-2.638-13.951,0.959-26.754,11.5-37.028c6.273-6.116,14.216-8.075,22.474-9.77
	c12.468-2.559,24.344,0.944,37.025,2.241c-0.498,5.714-0.953,10.925-1.424,16.333c-0.524-0.212-1.237-0.343-1.253-0.528
	c-0.756-9.522-8.24-11.852-15.456-13.729c-8.193-2.133-16.579-2.021-24.698,1.006c-10.541,3.931-16.96,11.673-18.261,22.599
	c-1.146,9.624-0.786,19.398,4.767,28.169c6.649,10.504,15.973,16.784,28.349,17.871c4.52,0.397,9.232-0.179,13.7-1.084
	c1.568-0.318,3.711-2.895,3.801-4.537c0.408-7.472,0.336-14.985,0.03-22.467c-0.053-1.304-1.887-2.761-3.209-3.716
	c-1.029-0.743-2.542-0.815-3.841-1.186C971.442,65.8,971.5,65.553,971.559,65.306z"/>
<path fill-rule="evenodd" clip-rule="evenodd" d="M1095.264,26.421c8.205,0,16.41,0,24.615,0c0.061,0.264,0.12,0.528,0.181,0.793
	c-0.947,0.317-2.141,0.38-2.79,1.006c-1.377,1.33-3.497,2.937-3.523,4.46c-0.26,15.313-1.262,30.739,0.203,45.915
	c1.104,11.433,5.123,18.155,18.302,21.252c7.023,1.649,18.661-0.758,23.077-10.18c2.284-4.872,3.813-10.486,4.069-15.843
	c0.589-12.292,0.188-24.632,0.187-36.952c-0.002-7.438-0.008-7.421-7.081-8.842c-0.53-0.106-0.962-0.705-1.915-1.442
	c8.029,0,15.395,0,22.759,0c-7.488,1.508-6.741,7.224-6.754,12.462c-0.028,11.154,0.558,22.35-0.229,33.449
	c-0.446,6.294-2.611,12.623-4.906,18.588c-2.609,6.783-8.909,10.495-15.447,11.568c-7.468,1.225-15.581,1.578-22.895-0.037
	c-10.974-2.424-17.53-10.703-18.36-21.889c-1.041-14.027-0.841-28.146-1.168-42.226c-0.039-1.664,0.212-3.375-0.096-4.983
	c-0.604-3.161-1.406-6.299-5.917-5.437c-0.735,0.141-1.634-0.574-2.456-0.894C1095.167,26.935,1095.215,26.678,1095.264,26.421z"/>
<path fill-rule="evenodd" clip-rule="evenodd" d="M2398.306,212.508c8,0,16,0,25.517,0c-8.293,4.507-2.564,8.75-0.877,11.919
	c5.725,10.748,12.325,21.029,18.595,31.486c0.408,0.681,0.853,1.34,1.506,2.363c5.622-9.844,11.056-19.353,16.486-28.863
	c1.212-2.12,2.478-4.213,3.62-6.37c3.122-5.902,3.102-5.914-1.805-10.462c7.779,0,15.12,0,22.451,0c0,0.07,0.046,0.622-0.007,0.632
	c-11.331,2.074-15.305,11.958-20.575,20.056c-5.664,8.703-10.309,18.074-15.288,27.213c-0.753,1.383-1.267,3.087-1.285,4.648
	c-0.116,9.656-0.127,19.315-0.027,28.972c0.044,4.288,2.646,6.468,6.724,7.041c1.35,0.19,2.721,0.236,4.014,1.358
	c-9.785,0-19.569,0-29.354,0c7.067-2.432,7.585-3.112,7.585-10.638c0-8.159,0.205-16.326-0.113-24.473
	c-0.108-2.777-1.037-5.789-2.434-8.207c-7.006-12.128-14.088-24.222-21.574-36.054
	C2408.433,218.34,2404.345,214.193,2398.306,212.508z"/>
<path fill-rule="evenodd" clip-rule="evenodd" d="M2247.02,102.562c-7.232,0-14.465,0-20.146,0
	c-1.912-5.523-4.037-10.212-5.138-15.13c-2.548-11.38-9.257-14.809-20.57-13.567c-6.72,0.738-12.427,0.163-13.671,8.903
	c-0.557,3.903-2.814,7.576-4.378,11.321c-2.202,5.276,1.444,6.762,5.216,8.63c-7.834,0-15.668,0-23.502,0
	c-0.311-0.445-0.621-0.891-0.932-1.336c10.51,0.928,12.135-6.61,14.764-13.398c5.508-14.222,11.256-28.35,16.82-42.549
	c2.486-6.344,4.715-12.79,7.203-19.134c0.393-1.002,1.548-1.705,3.099-3.328c4.543,11.656,8.595,22.339,12.866,32.933
	c4.978,12.348,9.688,24.84,15.462,36.812c2.263,4.692,5.59,10.4,13.519,8.013C2247.428,101.341,2247.224,101.951,2247.02,102.562z
	 M2203.569,40.896c-0.503,0.173-1.006,0.346-1.508,0.519c-3.175,9.43-6.35,18.859-9.614,28.556c7.657,0,14.58,0,22.13,0
	C2210.812,60.026,2207.19,50.461,2203.569,40.896z"/>
<path fill-rule="evenodd" clip-rule="evenodd" d="M2566.354,302.667c-7.511,0-15.021,0-22.531,0
	c10.766-1.95,12.04-11.01,15.047-18.971c4.995-13.229,10.479-26.272,15.666-39.43c1.843-4.676,3.325-9.494,5.154-14.176
	c0.816-2.091,2.08-4.007,3.858-7.351c3.329,7.569,6.259,13.959,8.964,20.442c5.315,12.734,10.511,25.52,15.744,38.289
	c1.528,3.729,3.056,7.459,4.512,11.217c2.168,5.594,5.883,9,12.206,9.666c-7.008,0-14.017,0-19.46,0
	c-2.346-6.329-5.013-11.519-6.15-17.023c-2.175-10.523-8.67-11.895-18.085-11.469c-7.995,0.362-14.532,0.276-15.844,10.323
	c-0.449,3.436-2.407,6.696-3.812,9.979C2559.528,299.065,2561.898,301.24,2566.354,302.667z M2570.808,269.877
	c7.69,0,14.595,0,22.222,0c-3.765-9.907-7.345-19.328-11.484-30.224C2577.637,250.656,2574.252,260.183,2570.808,269.877z"/>
<path fill-rule="evenodd" clip-rule="evenodd" d="M1819.303,302.487c-7.057,0-14.114,0-19.691,0c-0.758-2.938-1.05-4.87-1.751-6.64
	c-2.324-5.87-5.112-11.576-7.081-17.557c-1.046-3.178-2.61-4.214-5.668-4.162c-5.831,0.097-11.671-0.126-17.492,0.13
	c-1.572,0.069-3.998,1.008-4.481,2.184c-2.465,5.999-4.462,12.192-6.541,18.346c-1.366,4.046-0.504,6.783,4.417,7.598
	c-7.655,0-15.311,0-22.966,0c8.962-0.566,11.149-7.01,13.704-13.942c5.209-14.137,11.178-27.993,16.749-41.998
	c2.462-6.188,4.654-12.482,7.125-18.667c0.53-1.327,1.737-2.385,2.632-3.566c0.773,1.132,1.77,2.17,2.289,3.408
	c7.922,18.894,15.79,37.809,23.641,56.731c0.867,2.088,1.446,4.297,2.333,6.376C1808.986,296.51,1812.365,301.304,1819.303,302.487z
	 M1765.522,269.832c7.512,0,14.677,0,22.365,0c-3.812-9.854-7.439-19.234-11.066-28.615c-0.46,0.117-0.92,0.235-1.379,0.354
	C1772.163,250.913,1768.883,260.256,1765.522,269.832z"/>
<path fill-rule="evenodd" clip-rule="evenodd" d="M1508.873,302.568c10.601-0.982,11.854-9.803,14.767-17.205
	c4.57-11.617,9.248-23.193,13.831-34.806c3.482-8.823,6.89-17.678,10.33-26.519c0.491-0.053,0.982-0.105,1.474-0.159
	c2.048,4.296,4.311,8.504,6.102,12.903c4.584,11.26,8.935,22.612,13.422,33.911c2.567,6.462,4.916,13.036,7.922,19.291
	c2.781,5.787,5.625,11.997,13.663,12.595c-7.002,0-14.004,0-20.088,0c-0.794-3.562-1.124-6.462-2.101-9.125
	c-2.056-5.613-4.302-11.171-6.819-16.589c-0.576-1.241-2.532-2.513-3.917-2.587c-5.479-0.296-11.055,0.429-16.458-0.275
	c-5.604-0.73-7.643,2.272-9.112,6.535c-1.531,4.442-2.674,9.03-4.397,13.392c-1.722,4.357-1.552,7.367,3.919,8.638
	C1523.897,302.568,1516.385,302.568,1508.873,302.568z M1536.252,269.711c7.877,0,14.78,0,22.055,0
	c-3.649-9.852-7.105-19.18-10.561-28.507c-0.489,0.041-0.979,0.083-1.467,0.125C1542.968,250.702,1539.657,260.074,1536.252,269.711
	z"/>
<path fill-rule="evenodd" clip-rule="evenodd" d="M1279.979,302.479c-5.712,0-12.754,0-19.438,0c0.159-1.952,0.718-3.43,0.299-4.535
	c-2.654-6.997-5.364-13.985-8.458-20.794c-0.633-1.395-2.933-2.778-4.529-2.857c-6.483-0.322-12.994-0.228-19.489-0.053
	c-1.244,0.033-3.194,0.829-3.566,1.77c-2.274,5.738-3.969,11.708-6.291,17.425c-1.849,4.554-0.612,7.191,3.907,9.071
	c-7.44,0-14.882,0-22.322,0c12.208-0.205,12.086-11.067,15.207-18.147c6.911-15.679,12.831-31.797,19.052-47.776
	c1.611-4.138,2.84-8.424,4.244-12.642c0.543-0.019,1.086-0.036,1.628-0.054c1.462,3.133,3.039,6.218,4.368,9.406
	c7.351,17.641,14.628,35.312,21.968,52.957c1.251,3.007,2.109,6.444,4.173,8.778
	C1273.459,298.114,1277.197,300.309,1279.979,302.479z M1249.997,270.012c-5.421-9.564-6.537-20.243-12.349-29.679
	c-3.718,10.534-7.024,19.902-10.476,29.679C1235.093,270.012,1242.063,270.012,1249.997,270.012z"/>
<path fill-rule="evenodd" clip-rule="evenodd" d="M1922.34,302.667c-8.842,0-17.684,0-26.525,0c7.385-1.253,6.71-6.931,6.734-11.947
	c0.089-18.146-0.121-36.297,0.131-54.44c0.074-5.376-1.038-9.069-6.998-9.098c13.122,0,26.335-0.947,39.34,0.287
	c11.249,1.067,16.075,14.304,12.45,22.941c-5.856,13.955-16.288,19.725-30.824,16.258c1.542-0.171,3.087-0.314,4.624-0.517
	c7.422-0.974,13.834-3.363,16.944-11.084c3.286-8.156-0.467-18.16-7.876-23.117c-4.749-3.179-9.609-2.932-14.615-2.623
	c-1.108,0.068-2.99,2.154-3.001,3.324c-0.186,20.644-0.164,41.288-0.112,61.934c0.011,4.126,2.328,6.272,6.427,6.582
	c1.146,0.087,2.278,0.341,3.417,0.518C1922.417,302.012,1922.379,302.34,1922.34,302.667z"/>
<path fill-rule="evenodd" clip-rule="evenodd" d="M1853.334,302.675c-8.508,0-17.017,0-25.524,0
	c8.717-1.891,6.255-9.572,6.462-14.251c0.774-17.451,0.318-34.957,0.306-52.442c-0.004-5.341-2.058-9.004-7.925-8.798
	c13.147,0,26.428-1.147,39.397,0.371c9.999,1.17,14.979,9.243,13.416,21.144c-1.664,12.672-18.203,22.446-31.029,18.462
	c3.93-1.04,7.567-1.926,11.159-2.967c9.009-2.611,12.315-11.375,10.837-18.605c-1.985-9.713-6.808-15.736-17.144-16.416
	c-1.658-0.109-3.618-0.564-4.926,0.12c-1.843,0.965-4.549,2.823-4.571,4.335c-0.303,20.312-0.288,40.63-0.129,60.945
	c0.03,3.785,2.277,6.33,6.423,6.591c1.107,0.069,2.209,0.248,3.312,0.377C1853.377,301.918,1853.356,302.297,1853.334,302.675z"/>
<path fill-rule="evenodd" clip-rule="evenodd" d="M745.209,25.935c14.979,0,29.958,0,44.905,0
	c-0.343,3.803-0.709,7.869-1.075,11.935c-2.775-6.903-3.073-7.161-13.159-7.675c-4.15-0.211-8.319-0.035-13.231-0.035
	c0,9.37-0.066,18.61,0.125,27.845c0.016,0.732,1.83,2.06,2.784,2.038c6.266-0.142,12.534-0.461,18.775-1.016
	c1.277-0.113,2.444-1.468,4.274-2.643c-0.484,5.128-0.928,9.808-1.513,15.997c-0.886-2.019-1.107-2.797-1.533-3.439
	c-0.972-1.47-1.952-4.021-3.09-4.111c-6.074-0.485-12.2-0.436-18.301-0.282c-0.554,0.015-1.492,2.072-1.512,3.193
	c-0.134,7.658-0.196,15.322-0.024,22.979c0.104,4.596,3.32,7.392,7.968,7.433c2.498,0.022,5.011-0.173,7.491,0.038
	c6.646,0.563,12.247-0.396,14.271-8.394c0,2.942,0.485,5.991-0.136,8.796c-0.628,2.834-2.161,4.855-6.164,4.713
	c-11.809-0.419-23.642-0.13-35.466-0.173c-1.532-0.006-3.062-0.334-4.557-0.838c5.558-1.995,7.501-4.51,7.52-10.649
	c0.057-18.984,0.012-37.969,0.028-56.953c0.003-4.239-1.27-7.127-6.291-6.6c-0.669,0.07-1.404-0.497-2.109-0.77
	C745.197,26.86,745.204,26.397,745.209,25.935z"/>
<path fill-rule="evenodd" clip-rule="evenodd" d="M172.054,270.752c-1.907-5.788-6.39-6.414-11.032-6.565
	c-4.289-0.14-8.586-0.029-13.423-0.029c0,9.661-0.288,18.943,0.227,28.181c0.111,2.006,2.927,5.278,4.795,5.505
	c5.908,0.717,12.111,1.048,17.884-0.084c2.641-0.518,4.542-4.806,7.525-8.244c-0.727,4.233-1.14,8.043-2.17,11.678
	c-0.266,0.937-2.482,1.894-3.786,1.87c-8.262-0.147-16.516-0.687-24.777-0.841c-3.423-0.063-6.855,0.549-10.288,0.766
	c-1.728,0.108-3.468,0.019-5.576-0.446c8.153-1.838,6.98-8.308,7.058-13.62c0.251-17.144,0.094-34.292,0.094-51.438
	c0-8.352-0.076-8.454-7.926-11.576c14.457,0,28.915,0,43.298,0c0,3.59,0,7.71,0,11.831c-1.18-4.699-4.349-6.766-8.513-7.12
	c-5.111-0.436-10.275-0.447-15.404-0.272c-0.848,0.028-2.31,1.928-2.337,2.992c-0.201,7.818-0.199,15.647-0.009,23.467
	c0.027,1.115,1.424,3.155,2.168,3.147c7.812-0.088,15.85,1.655,23.433-2.292C172.881,262.018,172.468,266.385,172.054,270.752z"/>
<path fill-rule="evenodd" clip-rule="evenodd" d="M2187.862,302.522c6.821-0.871,7.513-6.178,7.586-10.731
	c0.31-19.315,0.188-38.639,0.097-57.959c-0.024-4.997-4.308-5.852-7.882-7.938c14.45,0,28.9,0,43.858,0
	c-0.402,3.739-0.847,7.867-1.295,12.027c-0.474-0.052-1.024-0.017-1.056-0.127c-1.637-5.856-3.479-7.327-10.332-7.603
	c-4.482-0.18-8.979-0.033-14.22-0.033c0,9.24-0.053,18.319,0.087,27.395c0.014,0.852,1.237,2.407,1.912,2.414
	c6.293,0.067,12.596,0.012,18.875-0.364c1.429-0.086,2.775-1.548,5.008-2.885c-0.527,5.132-0.983,9.568-1.439,14.004
	c-1.056-6.021-5.904-6.024-9.864-6.446c-4.593-0.49-9.276-0.114-14.526-0.114c0,9.846-0.266,19.446,0.24,29.005
	c0.093,1.752,3.092,4.339,5.139,4.797c4.434,0.991,9.189,1.496,13.686,1.011c5.261-0.569,9.029-3.718,9.159-9.905
	c0.472,0.111,0.942,0.223,1.414,0.335c-0.384,3.877-0.218,7.941-1.439,11.534c-0.448,1.314-4.189,2.122-6.422,2.107
	c-7.931-0.051-15.857-0.678-23.79-0.828c-3.084-0.059-6.175,0.705-9.273,0.84C2191.554,303.137,2189.704,302.717,2187.862,302.522z"
	/>
<path fill-rule="evenodd" clip-rule="evenodd" d="M2491.319,301.671c6.464-0.52,7.274-4.844,7.271-9.765
	c-0.014-18.323-0.005-36.646-0.006-54.971c-0.001-7.392-1.038-8.75-7.957-11.094c14.812,0,29.623,0,44.525,0
	c-0.667,3.836-1.391,7.991-2.113,12.146c-1.631-8.295-7.937-7.829-13.976-7.832c-3.632-0.001-7.264,0-11.461,0
	c0,9.31-0.084,18.248,0.123,27.18c0.021,0.954,1.802,2.729,2.662,2.666c7.567-0.542,15.575,2.423,23.264-3.284
	c-0.548,5.246-1.018,9.748-1.487,14.25c-1.478-7.334-7.154-6.605-12.197-6.783c-3.953-0.14-7.915-0.028-12.361-0.028
	c0,9.056-0.176,17.672,0.07,26.275c0.131,4.567,2.086,8.229,7.406,8.465c4.147,0.185,8.689,1.21,12.354-0.102
	c3.886-1.39,6.942-5.097,10.095-7.582c-0.284,2.354-0.301,5.921-1.312,9.18c-0.396,1.276-3.025,2.639-4.631,2.631
	c-7.932-0.039-15.859-0.655-23.792-0.791c-3.424-0.059-6.854,0.608-10.289,0.836c-1.885,0.125-3.785,0.022-5.679,0.022
	C2491.659,302.617,2491.489,302.144,2491.319,301.671z"/>
<path fill-rule="evenodd" clip-rule="evenodd" d="M1149.293,225.718c0,5.316,0,9.234,0,13.166c-0.595-0.064-1.151-0.054-1.166-0.138
	c-1.506-8.567-7.172-11.539-19.49-9.576c-8.67,1.382-12.852,8.896-8.77,16.056c2.029,3.558,5.812,6.205,9.063,8.954
	c5.256,4.444,11.146,8.209,16.017,13.022c8.504,8.402,9.748,17.023,4.443,26.626c-3.657,6.621-9.891,9.375-16.39,10.01
	c-6.719,0.656-13.662-1.006-20.509-1.631c-3.418-0.312-4.149-2.36-3.959-5.435c0.219-3.528,0.051-7.08,0.051-10.401
	c3.333,4.171,5.754,8.454,9.294,11.382c8.631,7.136,25.593,0.318,26.366-10.743c0.231-3.312-2.221-7.658-4.785-10.149
	c-5.86-5.69-12.266-10.935-18.973-15.609c-8.975-6.257-12.316-20.9-5.84-29.204c3.813-4.89,9.304-7.492,15.237-7.717
	C1136.333,224.087,1142.832,225.198,1149.293,225.718z"/>
<path fill-rule="evenodd" clip-rule="evenodd" d="M881.589,229.823c0,21.624-0.117,42.248,0.069,62.869
	c0.059,6.544,0.707,6.803,9.743,9.851c-8.835,0-17.671,0-26.507,0c-0.078-0.195-0.156-0.392-0.235-0.587
	c0.883-0.279,1.985-0.318,2.605-0.886c1.55-1.419,4.097-3.062,4.116-4.642c0.271-21.929,0.184-43.861,0.184-66.497
	c-7.251,0.44-14.104,0.302-20.711,1.515c-2.897,0.532-5.289,3.823-8.334,6.19c0.805-4.137,1.498-8.149,2.471-12.094
	c0.111-0.451,1.798-0.797,2.715-0.721c4.235,0.354,8.45,1.201,12.683,1.271c11.319,0.186,22.643,0.063,33.965,0.063
	c4.903,0,9.806,0,14.558,0c0,3.747,0,8.191,0,12.637c-0.027-6.211-4.704-6.967-8.878-7.532
	C894.159,230.465,888.199,230.306,881.589,229.823z"/>
<path fill-rule="evenodd" clip-rule="evenodd" d="M825.144,225.645c0,5.311,0,9.311,0,13.679c-1.688-2.863-2.675-5.629-4.549-7.51
	c-4.953-4.967-17.153-4.578-22.192-0.101c-4.917,4.37-4.599,12.616-0.102,16.528c4.917,4.278,10.22,8.14,15.539,11.923
	c5.719,4.068,10.826,8.639,13.418,15.316c3.847,9.916,0.444,22.201-12.061,26.745c-8.465,3.076-17.111,2.815-25.61,0.34
	c-4.988-1.453-6.274-5.098-4.888-11.547c0.374-1.743,0.853-3.463,1.605-6.485c0.568,1.196,1.032,1.831,1.178,2.531
	c2.132,10.254,10.651,15.401,21.025,12.665c8.363-2.206,13.363-7.495,11.758-14.744c-0.954-4.307-4.502-8.496-7.863-11.713
	c-5.905-5.651-12.708-10.351-18.866-15.756c-6.352-5.574-7.776-12.981-5.062-20.579c3.012-8.43,10.237-12.232,18.757-12.631
	C813.186,224.027,819.206,225.151,825.144,225.645z"/>
<path fill-rule="evenodd" clip-rule="evenodd" d="M1044.737,131.486c7.254-4.774,12.604-11.068,14.813-19.494
	c1.108-4.227,1.854-8.663,1.945-13.021c0.502-23.75,0.788-47.505,1.034-71.259c0.03-2.927-0.259-5.97-1.094-8.751
	c-0.531-1.772-2.088-3.525-3.653-4.616c-1.453-1.015-3.526-1.14-5.204-2.087c8.979,0,17.958,0,26.956,0
	c-0.098,0.334-0.13,0.821-0.264,0.851c-7.958,1.75-6.582,8.605-7.643,14.068c-0.28,1.445-0.044,2.99-0.044,4.489
	c0,21.153-0.165,42.309,0.059,63.46c0.147,14.022-5.54,24.595-17.276,32.088c-2.936,1.875-5.769,3.91-8.649,5.872
	C1045.391,132.553,1045.064,132.02,1044.737,131.486z"/>
<path fill-rule="evenodd" clip-rule="evenodd" d="M2079.305,102.828c-8.812,0-17.625,0-26.438,0
	c9.853-1.922,6.895-9.688,7.816-15.902c1.971-13.271-3.753-23.843-10.907-34.065c-4.677-6.683-9.119-13.549-14.146-19.957
	c-2.057-2.62-5.38-4.246-8.241-6.411c6.713,0,13.534,0,19.406,0c0.268,2.279-0.103,4.776,0.874,6.518
	c5.34,9.527,10.992,18.88,16.599,28.256c0.475,0.794,1.398,1.319,2.612,2.424c2.352-3.877,4.553-7.413,6.661-11.004
	c3.709-6.317,7.584-12.555,10.894-19.077c0.934-1.839,0.143-4.554,0.143-7.23c4.924,0,11.107,0,16.233,0
	c-3.439,3.15-8.14,6.152-11.056,10.385c-7.022,10.19-13.559,20.765-19.509,31.613c-1.637,2.982-0.578,7.475-0.646,11.275
	c-0.073,4.165-0.045,8.333-0.011,12.499c0.054,6.395,1.922,8.412,8.214,9.045c0.563,0.057,1.101,0.379,1.649,0.578
	C2079.404,102.125,2079.354,102.477,2079.305,102.828z"/>
<path fill-rule="evenodd" clip-rule="evenodd" d="M395.01,302.511c-8.668,0-17.336,0-26.004,0c5.999-0.735,7.252-5.433,7.371-9.661
	c0.258-9.138,1.891-18.645-2.87-27.18c-3.623-6.494-7.85-12.654-11.869-18.924c-2.021-3.152-3.922-6.437-6.335-9.271
	c-3.452-4.058-7.323-7.759-10.548-11.124c5.633,0,12.352,0,18.255,0c-0.157,2.062-1.07,4.338-0.314,5.653
	c6.137,10.667,12.587,21.155,19.194,32.117c0.775-0.7,1.631-1.174,2.053-1.898c5.253-9.014,10.622-17.968,15.521-27.171
	c1.229-2.31,0.898-5.45,1.356-8.716c4.598,0,10.643,0,16.688,0c-8.253,1.999-11.41,9.271-15.563,15.245
	c-4.249,6.11-7.287,13.09-11.735,19.028c-4.452,5.944-4.928,12.319-4.651,19.165c0.148,3.658,0.026,7.327,0.026,10.991
	C385.585,299.873,386.125,300.491,395.01,302.511z"/>
<path fill-rule="evenodd" clip-rule="evenodd" d="M1805.729,38.356c1.275-5.114,2.326-9.324,3.428-13.738
	c10.695,2.888,21.265,1.203,31.75,1.478c10.587,0.276,21.188,0.061,32.179,0.061c0,3.546,0,7.945,0,12.346
	c-2.29-6.252-6.808-7.707-12.724-7.434c-3.573,0.166-7.191-0.484-10.779-0.854c-3.08-0.318-5.088,0.125-5.056,4.063
	c0.14,16.663-0.001,33.327,0.106,49.99c0.024,3.769,0.387,7.578,1.051,11.286c0.578,3.225,2.058,5.98,6.207,5.641
	c1.169-0.096,2.375,0.27,3.457,1.308c-9.118,0-18.235,0-27.354,0c5.162-0.632,7.085-3.802,7.566-8.345
	c0.105-0.989,0.023-1.998,0.023-2.998c0-20.136,0-40.271,0-59.943c-7.562,0-14.81-0.543-21.896,0.289
	C1811.145,31.804,1808.992,35.417,1805.729,38.356z"/>
<path fill-rule="evenodd" clip-rule="evenodd" d="M1978.827,302.484c6.636-1.539,7.052-6.423,6.784-11.811
	c-0.147-2.991-0.387-6.049,0.041-8.985c1.284-8.803-2.278-15.957-6.933-22.953c-5.215-7.838-9.85-16.076-15.318-23.726
	c-2.45-3.428-6.315-5.844-9.48-8.668c6.304,0,12.896,0,18.216,0c0.298,2.69-0.175,5.61,0.972,7.594
	c5.854,10.124,12.124,20.007,18.548,30.461c2.874-4.517,5.775-8.919,8.514-13.419c2.865-4.708,5.655-9.466,8.325-14.287
	c1.865-3.368,4.05-6.892-0.923-10.374c7.147,0,13.559,0,19.971,0c-7.262,1.356-10.663,7.124-14.109,12.571
	c-6.137,9.699-11.954,19.6-17.895,29.422c-0.334,0.554-0.827,1.174-0.812,1.752c0.207,8.584,0.592,17.165,0.707,25.75
	c0.058,4.298,2.669,5.165,6.116,5.356c0.947,0.053,1.887,0.237,2.808,1.316C1995.847,302.484,1987.337,302.484,1978.827,302.484z"/>
<path fill-rule="evenodd" clip-rule="evenodd" d="M2151.176,102.406c-9.11,0-18.221,0-27.33,0c8.664-0.961,7.444-8.118,7.571-13.362
	c0.435-17.974,0.101-35.964,0.224-53.947c0.024-3.522-0.794-5.438-4.732-4.927c-3.408,0.443-6.842,0.867-10.272,0.94
	c-5.517,0.117-11.567-1.19-13.054,7.374c-0.481-0.391-0.963-0.781-1.443-1.171c0.789-4.314,1.578-8.628,2.374-12.979
	c8.052,1.988,56.374,2.612,64.993,0.808c-0.416,4.578-0.815,8.962-1.289,14.171c-0.791-1.197-1.505-1.785-1.542-2.413
	c-0.256-4.307-3.273-5.386-6.726-5.705c-5.076-0.47-10.178-0.681-15.266-1.031c-2.546-0.175-4.131,0.496-4.123,3.509
	c0.056,19.648-0.078,39.298,0.09,58.945C2140.704,98.922,2142.607,100.266,2151.176,102.406z"/>
<path fill-rule="evenodd" clip-rule="evenodd" d="M1188.19,26.282c8.461,0,16.922,0,25.443,0c-0.177,0.367-0.285,0.86-0.442,0.877
	c-6.917,0.7-6.753,5.458-6.686,10.75c0.214,16.815,0.071,33.636,0.083,50.454c0.005,8.025,1.811,9.79,9.918,9.793
	c2.83,0.001,5.685-0.234,8.488,0.044c8.28,0.822,10.543-1.944,13.524-8.85c0.459,0.059,0.919,0.117,1.379,0.177
	c-0.658,3.92-1.186,7.87-2.085,11.734c-0.183,0.788-1.764,1.775-2.707,1.783c-15.069,0.111-30.14,0.078-45.588-0.385
	c8.375-2.548,7.021-9.212,7.043-15.148c0.066-16.818,0.024-33.637,0.023-50.455c-0.001-7.54-0.005-7.532-7.383-9.115
	c-0.438-0.094-0.812-0.493-1.215-0.75C1188.055,26.889,1188.123,26.586,1188.19,26.282z"/>
<path fill-rule="evenodd" clip-rule="evenodd" d="M862.634,89.467c-0.562,3.625-0.882,7.314-1.819,10.84
	c-0.31,1.165-2.201,2.709-3.383,2.721c-14.638,0.144-29.279,0.039-43.919-0.03c-0.216-0.001-0.431-0.364-1.106-0.974
	c7.95-1.236,7.069-7.153,7.193-12.638c0.283-12.417,0.819-24.83,0.916-37.248c0.051-6.588-0.374-13.206-1.107-19.752
	c-0.172-1.528-2.294-3.074-3.848-4.126c-0.963-0.652-2.547-0.387-3.742-1.668c8.255,0,16.51,0,24.751,0
	c-0.021,0.08-0.055,0.379-0.106,0.383c-8.575,0.542-6.852,6.918-6.864,12.218c-0.04,16.475-0.024,32.949-0.01,49.425
	c0.006,6.886,2.637,9.533,9.396,9.539c2.496,0.002,5.017-0.226,7.483,0.042c7.293,0.791,12.998-0.909,14.747-9.482
	C861.688,88.966,862.162,89.217,862.634,89.467z"/>
<path fill-rule="evenodd" clip-rule="evenodd" d="M900.285,26.607c-7.458,0.693-6.734,6.051-6.72,11.099
	c0.051,16.969-0.032,33.938,0.066,50.906c0.019,3.087,0.249,6.298,1.171,9.201c0.448,1.411,2.59,2.537,4.205,3.245
	c1.292,0.565,2.946,0.303,4.439,0.408c-0.03,0.404-0.062,0.809-0.093,1.212c-8.833,0-17.666,0-26.499,0
	c8.682-1.252,6.686-7.842,6.706-13.239c0.063-17.301,0.023-34.603,0.023-51.904c0-7.723,0-7.723-7.316-10.928
	C884.953,26.607,892.619,26.607,900.285,26.607z"/>
<path fill-rule="evenodd" clip-rule="evenodd" d="M767.338,302.667c-8.508,0-17.017,0-25.525,0
	c6.589-1.728,6.865-6.556,6.824-11.948c-0.139-18.297-0.192-36.598,0.042-54.893c0.062-4.763-1.002-8.022-6.003-9.377
	c7.285,0,14.57,0,21.854,0c-6.234,0.932-6.033,5.453-5.998,10.247c0.13,17.799,0.051,35.599,0.052,53.397
	C758.585,299.855,758.587,299.855,767.338,302.667z"/>
<path fill-rule="evenodd" clip-rule="evenodd" d="M2207.501,0c3.399,1.062,8.156,0.445,9.048,5.907
	c0.9,5.511-1.079,8.639-7.256,10.22c-3.586,0.919-7.537,1.312-11.186,0.85c-4.247-0.538-6.399-6.51-3.863-9.884
	C2197.426,2.859,2201.828,0.579,2207.501,0z M2198.589,9.746c0.06,2.824,2.774,5.251,5.929,5.298c3.2,0.046,7.193-3.504,7.057-6.234
	c-0.204-4.096-3.357-4.95-6.391-5.274C2201.598,3.15,2198.518,6.355,2198.589,9.746z"/>
</svg>
