<?xml version="1.0" encoding="utf-8"?>
<!-- Generator: Adobe Illustrator 16.0.0, SVG Export Plug-In . SVG Version: 6.00 Build 0)  -->
<!DOCTYPE svg PUBLIC "-//W3C//DTD SVG 1.1//EN" "http://www.w3.org/Graphics/SVG/1.1/DTD/svg11.dtd">
<svg version="1.1" id="Lag_1" xmlns="http://www.w3.org/2000/svg" xmlns:xlink="http://www.w3.org/1999/xlink" x="0px" y="0px"
	 width="1985.226px" height="840.979px" viewBox="0 0 1985.226 840.979" enable-background="new 0 0 1985.226 840.979"
	 xml:space="preserve">
<path fill-rule="evenodd" clip-rule="evenodd" d="M606.87,48.949c-13.592,0-26.546,0-39.529,0
	c1.224,11.703,6.121,17.23,16.008,18.285c6.775,0.723,11.589-2.868,15.285-7.812c2.238-2.994,3.817-2.749,6.036-0.515
	c-4.325,15.324-24.252,18.298-38.623,5.128c0,2.803,0,5.103,0,7.679c-2.002,0-3.396,0-5.15,0c0-2.386,0-4.653,0-8.181
	c-6.306,6.706-13.11,11.305-21.312,9.036c-5.189-1.436-10.868-4.679-14.113-8.838c-7.473-9.58-7.277-24.528,3.077-33.86
	c7.618-6.865,20.104-8.812,31.871,2.949c0.214-2.355,0.395-4.35,0.596-6.568c1.528,0,2.93,0,4.573,0
	c0.129,2.287,0.246,4.363,0.426,7.539c7.767-10.296,17.407-11.507,27.626-7.225C602.921,30.456,606.073,38.801,606.87,48.949z
	 M560.764,48.609c0.745-11.533-7.869-18.508-17.508-18.59c-9.193-0.079-17.589,8.29-17.302,18.303
	c0.285,9.948,5.752,18.436,17.821,18.646C553.536,67.136,560.76,59.182,560.764,48.609z M600.112,43.719
	c-1.879-9.184-7.51-13.839-16.491-13.718c-7.78,0.105-14.368,5.778-15.647,13.718C578.598,43.719,589.185,43.719,600.112,43.719z"/>
<path fill-rule="evenodd" clip-rule="evenodd" d="M399.776,375.79c-5.585-20.461-11.17-40.923-16.785-61.493
	c3.83-0.643,6.064-0.712,7.211,4.176c3.069,13.084,7.147,25.931,11.157,40.042c5.971-15.455,11.565-29.936,17.159-44.415
	c0.387,0.018,0.773,0.035,1.161,0.053c5.434,14.368,10.867,28.736,16.724,44.222c2.307-7.907,4.397-14.775,6.303-21.694
	c1.812-6.581,3.146-13.312,5.328-19.762c0.565-1.672,3.513-2.539,5.367-3.776c0.469,0.435,0.938,0.869,1.407,1.304
	c-5.677,20.451-11.353,40.901-17.028,61.353c-0.359-0.002-0.719-0.003-1.078-0.004c-5.724-15.149-11.446-30.3-17.577-46.529
	c-6.271,16.026-12.189,31.154-18.107,46.281C400.603,375.627,400.19,375.708,399.776,375.79z"/>
<path fill-rule="evenodd" clip-rule="evenodd" d="M544.102,800.001c-7.364,0-12.852,0-18.339,0c-5.472,0-10.943,0-16.701,0
	c0-2.08,0-3.797,0-5.758c13.896,0,27.651,0,41.42,0c-1.478,21.437-19.646,32.163-34.951,30.759
	c-15.795-1.45-28.681-12.444-30.683-29.884c-1.621-14.12,7.524-31.119,24.001-35.153c14.656-3.589,29.966,0.57,37.204,16.759
	c-2.77-1.075-6.278-1.424-8.181-3.354c-7.677-7.795-16.353-11.382-27.062-7.866c-10.817,3.552-17.486,10.705-19.17,22.383
	c-1.799,12.476,3.745,23.555,14.579,28.703c10.196,4.846,22.852,3.57,30.755-5.436C539.562,808.204,541.28,804.49,544.102,800.001z"
	/>
<path fill-rule="evenodd" clip-rule="evenodd" d="M1066.591,775.731c-3.456,0.354-6.09,0.68-8.846-2.912
	c-6.167-8.035-18.696-10.505-29.057-6.761c-9.027,3.262-16.355,14.354-17.024,24.022c-1.26,18.218,15.137,33.407,34.853,27.913
	c9.075-2.528,13.815-9.229,17.144-17.992c-6.049,0-11.521,0-16.992,0c-5.465,0-10.93,0-16.643,0c0-2.022,0-3.627,0-6
	c6.633,0,13.383,0,20.133,0c6.647,0,13.294,0,19.875,0c2.272,10.254-8.863,26.984-22.09,29.812
	c-21.265,4.546-35.754-4.388-40.748-21.271c-6.199-20.959,3.062-35.664,20.456-42.211
	C1043.199,754.478,1061.889,762.529,1066.591,775.731z"/>
<path fill-rule="evenodd" clip-rule="evenodd" d="M219.573,212.708c8.223-17.307,16.101-33.886,23.978-50.465
	c0.434,0.075,0.867,0.151,1.301,0.227c2.785,20.268,5.57,40.535,8.371,60.92c-4.525,1.249-6.157,0.528-6.605-4.056
	c-1.256-12.854-3.208-25.638-5.09-40.015c-7.522,15.693-14.443,30.134-22.029,45.961c-7.472-15.69-14.507-30.466-22.079-46.365
	c-1.997,15.771-3.832,30.264-5.683,44.886c-2.084,0-3.698,0-5.962,0c2.734-20.608,5.45-41.077,8.166-61.545
	c0.463-0.176,0.927-0.352,1.39-0.526C203.263,178.409,211.195,195.088,219.573,212.708z"/>
<path fill-rule="evenodd" clip-rule="evenodd" d="M1215.096,760.367c5.953-1.305,9.699-0.007,12.631,5.772
	c4.037,7.954,9.5,15.187,14.377,22.713c4.868,7.514,9.767,15.008,15.36,23.597c0-18.015,0-34.931,0-52.14c2.364,0,4.08,0,6.05,0
	c0,21.188,0,42.266,0,63.335c-3.8,0.932-6.113,0.077-8.283-3.45c-8.621-14.018-17.645-27.789-26.628-41.581
	c-2.194-3.369-4.799-6.471-7.843-10.531c0,19.123,0,37.312,0,55.704c-2.103,0-3.717,0-5.664,0
	C1215.096,802.733,1215.096,781.669,1215.096,760.367z"/>
<path fill-rule="evenodd" clip-rule="evenodd" d="M1339.818,324.61c-1.968,1.335-3.44,2.333-5.14,3.485
	c-6.117-5.285-13.06-9.774-21.229-9.886c-9.271-0.126-17.572,3.279-23.011,11.56c-6.642,10.113-6.613,20.432,0.046,30.32
	c9.156,13.595,29.842,17.419,42.04,2.465c2.057-2.521,2.836-6.084,4.629-10.119c-6.77,0-12.778,0-19.078,0c0-2.484,0-4.2,0-6.18
	c8.032,0,15.971,0,23.921,0c2.664,9.988-3.225,22.005-13.48,27.809c-17.357,9.823-43.907,1.287-48.43-21.983
	c-4.834-24.864,15.216-43.967,38.955-39.203C1327.278,314.53,1333.905,318.419,1339.818,324.61z"/>
<path fill-rule="evenodd" clip-rule="evenodd" d="M469.024,47.007c-0.097-1.498-0.19-2.944-0.304-4.706c8.634,0,17.038,0,25.44,0
	c1.464,15.76-9.015,28.497-23.858,30.53c-10.085,1.381-19.697-0.383-28.1-7.495c-7.316-6.194-13.217-20.584-11.212-29.915
	c2.884-13.429,10.218-22.997,23.665-26.687c9.164-2.515,18.333-1.361,26.702,3.451c3.368,1.937,6.381,4.494,9.87,6.996
	c-1.915,1.879-3.335,3.271-4.752,4.662c-7.449-6.441-15.323-10.861-25.578-9.932c-10.393,0.941-21.293,10.476-23.14,20.863
	c-3.347,18.823,9.782,31.17,26.601,33.03c9.445,1.044,20.052-7.136,22.898-16.662c0.894-2.989,0.007-4.098-2.819-4.124
	C479.518,46.974,474.597,47.007,469.024,47.007z"/>
<path fill-rule="evenodd" clip-rule="evenodd" d="M1164.312,18.623c-2.221,2.449-3.548,3.912-4.921,5.426
	c-6.148-6.438-13.56-9.719-21.875-10.592c-6.511-0.683-19.337,5.735-22.957,11.891c-6.578,11.186-6.018,22.05,1.506,31.884
	c5.356,7.001,13.487,10.931,22.652,10.146c10.07-0.862,17.998-5.157,21.303-15.799c1.122-3.61,0.274-4.586-3.07-4.578
	c-4.814,0.012-9.629,0.003-14.816,0.003c-0.146-1.597-0.273-2.98-0.432-4.699c8.722,0,17.13,0,25.535,0
	c0.92,16.829-10.468,29.6-26.034,30.681c-9.625,0.669-18.303-1.26-26.087-7.724c-7.226-6.001-13.073-20.722-11.098-29.947
	c2.885-13.464,10.351-22.926,23.723-26.62c7.72-2.133,15.789-1.85,23.178,1.992C1155.363,12.996,1159.559,15.784,1164.312,18.623z"
	/>
<path fill-rule="evenodd" clip-rule="evenodd" d="M800.558,63.918c-6.446,4.802-12.44,9.501-20.423,7.726
	c-6.354-1.413-12.366-4.192-15.905-9.872c-5.716-9.173-5.503-22.305,3.907-31.6c4.541-4.485,10.311-5.775,16.496-5.738
	c6.534,0.038,11.188,3.786,15.953,8.724c0.126-2.754,0.213-4.67,0.313-6.865c1.851,0,3.594,0,4.943,0
	c0,13.947,0.272,27.822-0.16,41.676c-0.137,4.356-1.548,8.955-3.477,12.906c-2.816,5.77-8.39,8.136-14.609,8.032
	c-5.023-0.083-10.1-0.664-15.032-1.635c-6.305-1.241-9.105-6.288-11.464-12.024c2.138,0,4.026,0,5.962,0
	c4.766,8.715,13.066,10.045,21.993,8.429C797.587,82.132,801.117,75.467,800.558,63.918z M800.764,47.855
	c-0.012-10.423-7.23-18.177-17.17-17.784c-11.254,0.444-17.022,7.82-17.602,17.861c-0.626,10.846,7.228,18.373,18.034,17.972
	C792.904,65.573,801.164,60.763,800.764,47.855z"/>
<path fill-rule="evenodd" clip-rule="evenodd" d="M1025.142,75.251c3.543-0.542,6.03-0.615,8.163,3.346
	c2.738,5.085,15.279,6.807,21.362,4.534c7.894-2.948,10.776-9.046,9.374-19.531c-5.434,5.539-11.657,9.418-19.21,8.179
	c-6.513-1.069-12.732-4.007-16.475-9.838c-5.705-8.89-6.128-23.046,4.306-32.225c6.6-5.806,19.738-9.591,31.888,3.186
	c0.146-2.459,0.266-4.477,0.396-6.676c1.859,0,3.482,0,5.818,0c0,5.021,0.106,10.12-0.022,15.213
	c-0.259,10.259-0.581,20.518-1.001,30.771c-0.311,7.59-6.982,15.718-14.937,16.471c-6.055,0.572-12.369-0.538-18.449-1.59
	C1029.971,85.986,1027.336,80.749,1025.142,75.251z M1064.764,47.949c-0.004-10.518-7.111-18.191-17.08-17.89
	c-10.987,0.333-17.063,7.775-17.769,18.282c-0.661,9.838,7.458,18.049,18.017,17.59
	C1056.741,65.547,1065.158,60.829,1064.764,47.949z"/>
<path fill-rule="evenodd" clip-rule="evenodd" d="M1129.743,635.775c0,14.897,0,29.796,0,44.955c-2.315,0-4.248,0-6.585,0
	c0-20.396,0-40.906,0-63.111c14.709,15.458,26.416,31.849,40.422,47.305c0-15.495,0-30.461,0-45.666c2.218,0,3.823,0,5.808,0
	c0,20.256,0,40.602,0,61.938c-13.159-15.646-25.854-30.742-38.549-45.838C1130.473,635.496,1130.108,635.635,1129.743,635.775z"/>
<path fill-rule="evenodd" clip-rule="evenodd" d="M1460.212,465.688c12.876,15.482,25.752,30.966,39.276,47.229
	c0-15.968,0-31.083,0-46.658c2.233-0.1,3.952-0.176,5.981-0.267c0,20.729,0,41.146,0,63.048
	c-13.433-16.004-26.149-31.156-39.429-46.979c0,15.5,0,30.43,0,45.645c-2.693,0-4.741,0-7.035,0c0-20.55,0-40.939,0-61.328
	C1459.409,466.147,1459.811,465.917,1460.212,465.688z"/>
<path fill-rule="evenodd" clip-rule="evenodd" d="M1411.229,161.472c12.856,15.38,25.712,30.761,39.454,47.201
	c0-16.295,0-31.291,0-46.47c2.209,0,3.822,0,5.759,0c0,20.373,0,40.718,0,62.486c-13.369-16.062-25.986-31.222-39.578-47.553
	c0,16.463,0,31.455,0,46.647c-2.543,0-4.484,0-6.763,0c0-20.515,0-41.019,0-61.523
	C1410.477,161.999,1410.853,161.735,1411.229,161.472z"/>
<path fill-rule="evenodd" clip-rule="evenodd" d="M1342.966,9.17c12.937,15.444,25.872,30.889,39.571,47.245
	c0-16.295,0-31.594,0-47.146c2.232,0,3.834,0,5.836,0c0,20.577,0,41.261,0,63.236c-13.631-16.304-26.646-31.871-40.393-48.311
	c0,16.407,0,31.767,0,47.46c-2.214,0-3.927,0-5.938,0c0-20.591,0-41.188,0-61.785C1342.351,9.637,1342.659,9.404,1342.966,9.17z"/>
<path fill-rule="evenodd" clip-rule="evenodd" d="M492.792,513.667c0-16.652,0-31.778,0-47.412c1.896-0.093,3.615-0.178,5.662-0.278
	c0,20.696,0,41.108,0,61.521c-0.289,0.291-0.577,0.583-0.866,0.874c-12.913-15.359-25.826-30.718-39.713-47.234
	c0,16.462,0,31.454,0,46.646c-2.212,0-3.825,0-5.775,0c0-20.473,0-40.967,0-62.99C465.913,481.382,478.889,496.969,492.792,513.667z
	"/>
<path fill-rule="evenodd" clip-rule="evenodd" d="M1548.691,330.89c0,14.809,0,29.618,0,44.765c-1.929,0-3.646,0-5.647,0
	c0-20.407,0-40.819,0-61.23c0.325-0.263,0.65-0.525,0.975-0.787c12.979,15.584,25.957,31.168,39.596,47.545
	c0-16.113,0-31.432,0-46.956c2.243,0,3.857,0,5.812,0c0,20.469,0,40.972,0,62.738c-13.662-16.172-26.588-31.473-39.515-46.774
	C1549.504,330.423,1549.098,330.657,1548.691,330.89z"/>
<path fill-rule="evenodd" clip-rule="evenodd" d="M532.628,634.84c0,15.253,0,30.505,0,45.952c-1.98,0-3.593,0-5.537,0
	c0-20.502,0-40.994,0-61.486c0.382-0.258,0.764-0.515,1.145-0.771c12.862,15.334,25.724,30.667,39.391,46.961
	c0-16.088,0-31.069,0-46.263c2.218,0,3.83,0,5.791,0c0,20.298,0,40.648,0,62.362c-13.662-16.296-26.641-31.775-39.618-47.255
	C533.409,634.507,533.019,634.673,532.628,634.84z"/>
<path fill-rule="evenodd" clip-rule="evenodd" d="M843.149,619.01c6.041,0,11.869-0.364,17.629,0.106
	c5.377,0.44,9.462,3.255,11.366,8.705c2.032,5.817,1.122,11.075-2.608,15.89c-0.782,1.009-1.726,1.891-2.608,2.846
	c2.303,1.637,4.647,2.901,6.487,4.687c5.195,5.044,5.697,11.521,3.607,17.809c-2.446,7.354-8.502,11.172-16.049,11.845
	c-5.771,0.515-11.624,0.103-17.824,0.103C843.149,660.435,843.149,640.069,843.149,619.01z M848.007,674.98
	c4.179,0,8.157,0.297,12.074-0.069c5.988-0.56,11.304-5.431,11.67-10.234c0.442-5.788-1.19-11.312-9.263-12.706
	c-4.745-0.819-9.625-0.854-14.481-1.246C848.007,659.332,848.007,666.925,848.007,674.98z M847.764,625.001c0,3.8,0,6.929,0,10.058
	c0,10.57,0.041,10.788,10.334,8.832c5.22-0.992,9.565-4.056,8.674-12.479c-0.425-4.012-3.861-6.386-9.49-6.408
	C854.324,624.992,851.365,625.001,847.764,625.001z"/>
<path fill-rule="evenodd" clip-rule="evenodd" d="M691.404,186.787c4.235-6.021,9.015-10.462,17.054-9.874
	c6.595,0.481,12.837,5.849,13.259,12.724c0.526,8.578,0.737,17.176,1.034,25.766c0.091,2.643,0.014,5.29,0.014,8.261
	c-2.014,0-3.729,0-6,0c0-9.621,0.035-19.234-0.013-28.848c-0.031-6.161-2.482-10.277-6.881-11.847
	c-8.081-2.883-16.758,4.012-17.131,13.446c-0.354,8.918-0.919,17.828-1.416,27.218c-1.081,0.126-2.466,0.286-4.005,0.465
	c-0.219-0.848-0.514-1.465-0.517-2.083c-0.036-8.493,0.339-17.011-0.189-25.472c-0.279-4.465-0.137-9.287-4.866-12.666
	c-7.533-5.383-18.578,2.771-18.997,11.95c-0.421,9.225-0.968,18.444-1.473,27.914c-1.318,0-2.7,0-4.297,0c0-15.171,0-30.106,0-45.44
	c1.414-0.093,2.795-0.183,4.541-0.298c0.141,2.222,0.263,4.154,0.448,7.097c4.668-4.478,8.813-8.446,15.631-8.305
	C684.868,176.946,688.051,181.298,691.404,186.787z"/>
<path fill-rule="evenodd" clip-rule="evenodd" d="M653.869,782.759c0-7.879,0-15.011,0-22.444c1.947,0,3.659,0,5.64,0
	c0,21.148,0,42.205,0,63.472c-1.826,0-3.432,0-5.421,0c-0.18-2.012-0.362-4.047-0.612-6.842c-5.715,6.613-13.002,9.084-20.545,7.749
	c-5.298-0.938-11.481-3.487-14.852-7.399c-8.574-9.95-8.741-22.477-0.802-33.322C624.528,774.066,641.018,772.346,653.869,782.759z
	 M617.764,800.107c0.123,12.384,8.209,19.281,17.961,19.786c10.016,0.52,18.803-8.749,19.032-19.215
	c0.216-9.818-9.896-20.964-18.755-20.67C625.983,780.34,617.753,789.409,617.764,800.107z"/>
<path fill-rule="evenodd" clip-rule="evenodd" d="M1100.442,375.809c-1.928,0-3.55,0-5.486,0c-0.115-2.105-0.221-4.046-0.393-7.198
	c-6.274,8.322-14.709,10.303-23.108,7.843c-5.053-1.48-10.57-5.667-13.224-10.194c-6.648-11.345-5.428-24.815,6.695-33.678
	c8.509-6.22,21.477-5.267,29.838,5.646c0-5.078,0-9.283,0-13.488c0-4.119,0-8.237,0-12.536c2.128,0,3.74,0,5.678,0
	C1100.442,333.277,1100.442,354.325,1100.442,375.809z M1060.764,353.099c-0.002,10.646,7.393,18.887,16.96,18.902
	c9.258,0.015,17.037-8.122,17.04-17.824c0.004-11.907-6.331-19.173-16.719-19.176
	C1067.382,334.999,1060.766,341.927,1060.764,353.099z"/>
<path fill-rule="evenodd" clip-rule="evenodd" d="M1270.764,32.382c0-6.998,0.179-13.596-0.064-20.178
	c-0.154-4.164,1.128-6.077,6.064-4.812c0,10.566,0,21.344,0,32.121c0,10.632,0,21.265,0,32.188c-2.069,0-3.794,0-5.824,0
	c-0.104-2.036-0.203-3.983-0.331-6.486c-6.355,4.994-12.872,9.226-21.107,7.569c-6.549-1.317-11.314-5.719-15.169-10.841
	c-6.452-8.574-4.02-25.846,4.446-32.386C1248.512,22.04,1260.998,22.578,1270.764,32.382z M1236.764,48.613
	c-1.107,9.494,7.734,18.453,17.318,18.983c9.085,0.503,17.831-9.23,17.676-19.218c-0.152-9.735-8.579-18.17-17.944-18.435
	C1245.834,29.719,1235.567,38.286,1236.764,48.613z"/>
<path fill-rule="evenodd" clip-rule="evenodd" d="M992.817,185.287c0-8.988,0-16.906,0-25.045c2.012,0,3.623,0,5.592,0
	c0,20.998,0,42.062,0,63.441c-1.68,0-3.398,0-5.469,0c-0.111-2.144-0.219-4.234-0.369-7.133c-5.102,5.373-10.611,8.41-17.612,8.51
	c-7.449,0.107-12.834-3.458-17.395-8.796c-7.177-8.4-7.33-25.807,3.835-34.542C968.732,175.985,981.338,173.537,992.817,185.287z
	 M992.764,200.79c1.195-10.567-8.725-18.907-17.729-18.732c-7.891,0.153-16.531,7.335-17.188,18.808
	c-0.527,9.2,9.394,19.733,18.08,19.021C985.721,219.083,993.804,211.424,992.764,200.79z"/>
<path fill-rule="evenodd" clip-rule="evenodd" d="M1233.919,216.45c0,8.551,0,16.362,0,24.349c-2.278,0-3.891,0-5.831,0
	c0-20.724,0-41.427,0-62.462c1.68,0,3.396,0,5.474,0c0.114,1.924,0.229,3.858,0.397,6.664c5.5-5.683,11.521-8.643,19.289-8.13
	c7.983,0.527,13.578,4.94,17.21,10.924c6.638,10.938,4.676,24.604-6.551,33.375C1256.327,227.093,1243.202,227.192,1233.919,216.45z
	 M1233.764,200.803c-1.037,10.649,7.084,18.297,16.854,19.083c8.491,0.684,17.616-9.151,18.024-18.657
	c0.398-9.271-8.506-19.156-17.285-19.232C1242.423,181.919,1232.488,190.147,1233.764,200.803z"/>
<path fill-rule="evenodd" clip-rule="evenodd" d="M1060.62,521.223c0,8.585,0.002,16.242-0.013,23.899
	c0,0.132-0.191,0.264-0.478,0.634c-1.415,0-3.025,0-5.004,0c0-20.655,0-41.383,0-62.432c1.676,0,3.397,0,5.453,0
	c0.108,1.971,0.215,3.913,0.367,6.681c5.138-5.018,10.203-9.506,17.5-8.978c6.806,0.491,12.996,2.998,17.021,8.507
	c9.105,12.458,6.613,25.131-2.325,34.386C1086.387,530.915,1071.076,532.404,1060.62,521.223z M1094.764,505.371
	c-0.005-10.545-7.218-18.553-16.934-18.321c-12.199,0.29-17.874,8.713-17.718,18.53c0.163,10.224,5.262,17.867,17.751,18.544
	C1086.325,524.582,1095.899,515.113,1094.764,505.371z"/>
<path fill-rule="evenodd" clip-rule="evenodd" d="M1290.717,216.761c0,8.604,0,16.18,0,23.987c-1.991,0-3.596,0-5.578,0
	c0-20.607,0-41.302,0-62.511c1.546-0.075,3.259-0.158,5.41-0.263c0.139,2.304,0.26,4.329,0.393,6.534
	c14.352-10.47,25.371-10.336,34.531,0.823c7.83,9.539,7.981,23.628-2.734,34.099
	C1315.797,226.213,1302.562,228.527,1290.717,216.761z M1324.764,201.163c0.015-10.809-7.53-19.192-17.418-19.134
	c-8.22,0.048-17.248,7.72-17.514,19.563c-0.208,9.269,9.222,19.047,18.033,18.255
	C1316.687,219.054,1324.622,213.411,1324.764,201.163z"/>
<path fill-rule="evenodd" clip-rule="evenodd" d="M1395.648,823.395c8.447-20.309,16.704-40.287,25.146-60.187
	c0.581-1.369,2.604-3.07,3.854-2.99c1.884,0.12,4.726,1.229,5.346,2.688c6.479,15.253,12.574,30.669,18.827,46.019
	c1.956,4.801,4.066,9.538,6.153,14.416c-4.651,1.761-7.062,0.174-8.525-3.988c-1.67-4.747-3.854-9.313-5.549-14.053
	c-0.921-2.571-2.299-3.448-5.05-3.368c-7.148,0.208-14.316-0.114-21.456,0.212c-1.594,0.072-3.812,1.587-4.525,3.037
	c-2.219,4.506-3.985,9.253-5.675,13.997C1402.744,823.253,1400.447,825.263,1395.648,823.395z M1425.278,766.281
	c-4.215,10.552-7.926,19.842-11.717,29.332c8.029,0,15.503,0,23.529,0C1433.191,785.931,1429.505,776.779,1425.278,766.281z"/>
<path fill-rule="evenodd" clip-rule="evenodd" d="M661.434,71.785c-1.607,0-2.896,0-4.5,0c-0.112-2.269-0.215-4.355-0.382-7.72
	c-7.44,7.664-15.772,11.479-25.121,7.483c-4.522-1.933-8.933-5.935-11.566-10.144c-7.657-12.236-3.518-25.85,6.054-32.79
	c9.104-6.602,21.452-6.05,30.492,4.859c0-8.969,0-17.313,0-26.017c1.886-0.215,3.274-0.373,5.023-0.573
	C661.434,28.593,661.434,50.005,661.434,71.785z M656.764,48.99c-0.001-10.834-7.555-19-17.563-18.988
	c-9.735,0.012-17.624,8.457-17.335,18.738c0.327,11.675,8.208,18.799,17.477,18.712C649.053,67.361,657.002,60.162,656.764,48.99z"
	/>
<path fill-rule="evenodd" clip-rule="evenodd" d="M784.842,489.921c0-8.634,0-16.44,0-24.619c1.58-0.099,2.964-0.185,4.645-0.29
	c0,21.056,0,41.795,0,62.731c-1.563,0-2.965,0-4.702,0c0-2.164,0-4.088,0-7.603c-6.396,8.92-14.719,10.222-23.127,8.559
	c-4.256-0.842-8.755-3.953-11.691-7.309c-8.713-9.956-8.066-23.167,0.075-32.091C758.29,480.258,769.723,475.926,784.842,489.921z
	 M767.299,487.001c-9.206-0.979-17.928,9.618-17.619,18.51c0.36,10.359,7.825,18.433,17.669,18.512
	c9.731,0.077,17.098-8.083,17.498-18.44C785.193,496.615,776.423,486.055,767.299,487.001z"/>
<path fill-rule="evenodd" clip-rule="evenodd" d="M491.792,212.914c-8.792,15.135-33.074,14.897-43.714,7.669
	c-10.729-7.289-17.267-23.298-12.814-37.771c7.639-24.828,37.658-29.641,53.783-13.819c1.208,1.186,2.074,4.332,1.361,5.548
	c-1.841,3.138-3.854,0.862-5.462-0.867c-13.34-14.346-38.871-7.958-43.469,11.176c-3.734,15.546,3.132,31.549,20.701,34.282
	c9.015,1.402,16.433-1.125,22.818-7.015C487.851,209.485,489.664,209.444,491.792,212.914z"/>
<path fill-rule="evenodd" clip-rule="evenodd" d="M675.444,527.801c-1.593,0-2.887,0-4.501,0c-0.107-2.11-0.206-4.054-0.354-6.952
	c-4.995,5.191-10.091,8.454-17.3,8.359c-7.16-0.096-12.766-2.112-17.283-7.58c-9.531-11.535-6.651-27.438,2.378-34.73
	c8.107-6.549,18.466-10.221,32.136,2.908c0-8.287,0-16.15,0-24.377c1.8-0.193,3.186-0.342,4.924-0.529
	C675.444,485.937,675.444,506.667,675.444,527.801z M653.582,487.001c-10.24,0.131-17.757,7.7-17.68,18.283
	c0.076,10.429,6.833,18.683,17.167,18.718c10.818,0.036,17.731-7.133,17.695-18.355C670.73,495.119,663.237,486.987,653.582,487.001
	z"/>
<path fill-rule="evenodd" clip-rule="evenodd" d="M1120.766,162.315c0,7.197,0.071,14.315-0.036,21.43
	c-0.043,2.829,0.708,4.343,3.903,4.298c8.806-0.125,17.613-0.043,26.958-0.043c0-8.63,0-17.024,0-25.699c2.249,0,3.962,0,5.915,0
	c0,20.524,0,40.914,0,61.499c-1.868,0-3.48,0-5.742,0c0-8.449-0.239-16.895,0.096-25.316c0.181-4.529-1.454-5.763-5.744-5.563
	c-6.645,0.311-13.323,0.285-19.971,0.007c-4.076-0.17-5.626,1.032-5.471,5.323c0.306,8.438,0.09,16.895,0.09,25.541
	c-2.113,0-3.727,0-5.671,0c0-20.39,0-40.778,0-61.476C1116.813,162.315,1118.527,162.315,1120.766,162.315z"/>
<path fill-rule="evenodd" clip-rule="evenodd" d="M1552.694,680.89c-2.652,0-4.468,0-6.277,0c-2.73-5.999-5.232-12.001-8.234-17.742
	c-0.771-1.472-3.074-2.915-4.747-3.005c-6.479-0.347-12.994-0.288-19.48-0.023c-1.397,0.057-3.336,1.279-3.992,2.515
	c-2.292,4.315-4.678,8.718-5.989,13.379c-1.308,4.646-3.644,5.842-8.406,4.487c3.521-8.107,6.918-16.165,10.504-24.137
	c5.152-11.455,10.411-22.862,15.719-34.246c0.548-1.174,1.732-2.052,2.622-3.066c0.782,1.123,1.76,2.157,2.314,3.384
	c5.176,11.435,10.299,22.894,15.395,34.364C1545.625,664.687,1549.061,672.604,1552.694,680.89z M1514.043,653.773
	c6.873,0,13.133,0,20.135,0c-3.357-7.511-6.508-14.556-9.989-22.343C1520.639,639.247,1517.436,646.3,1514.043,653.773z"/>
<path fill-rule="evenodd" clip-rule="evenodd" d="M1566.805,223.778c-4.511-10.566-9.021-21.133-13.969-32.726
	c-4.93,11.433-9.498,22.03-14.708,34.113c-6.659-16.429-12.825-31.64-18.991-46.854c3.917-1.145,6.021,0.029,7.473,3.982
	c3.402,9.271,7.353,18.343,11.579,28.717c4.985-11.736,9.496-22.357,14.586-34.341c5.12,11.939,9.745,22.728,14.699,34.281
	c3.222-7.72,6.255-14.956,9.26-22.204c1.182-2.851,1.875-6.026,3.602-8.485c1.081-1.54,3.673-2.02,5.587-2.976
	c0.281,0.406,0.562,0.812,0.843,1.219c-6.225,15.097-12.449,30.193-18.674,45.29C1567.663,223.79,1567.234,223.784,1566.805,223.778
	z"/>
<path fill-rule="evenodd" clip-rule="evenodd" d="M1292.941,464.499c9.767,21.903,18.892,42.37,28.068,62.95
	c-4.684,1.411-7.583,0.478-8.306-4.354c-0.07-0.464-0.486-0.868-0.599-1.335c-2.724-11.281-9.339-15.159-21.228-14.193
	c-7.934,0.645-13.282,1.744-15.356,9.976c-0.51,2.023-1.837,3.829-2.466,5.835c-1.262,4.02-3.682,5.625-8.676,4.028
	C1273.704,506.871,1282.986,486.425,1292.941,464.499z M1303.191,501.774c-3.414-7.562-6.566-14.544-10.19-22.571
	c-3.656,8.115-6.854,15.212-10.271,22.794c6.535,0,12.025,0.005,17.516-0.007C1300.904,501.989,1301.562,501.897,1303.191,501.774z"
	/>
<path fill-rule="evenodd" clip-rule="evenodd" d="M1519.442,71.792c-1.944,0-3.564,0-5.496,0c-0.117-2.264-0.225-4.354-0.398-7.739
	c-7.179,7.787-15.433,11.363-24.568,7.627c-4.662-1.906-9.257-5.985-11.957-10.289c-6.78-10.808-4.855-22.966,5.054-32.089
	c8.255-7.601,19.514-6.276,31.523,3.439c0.067-1.232,0.138-2.119,0.159-3.007c0.024-0.995,0.006-1.99,0.006-3.356
	c1.882,0,3.615,0,5.678,0C1519.442,41.261,1519.442,56.326,1519.442,71.792z M1513.764,48.531
	c0.001-10.198-7.55-18.487-16.879-18.529c-9.604-0.042-18.66,9.041-18.042,18.716c0.769,12.032,8.439,18.759,17.493,18.687
	C1505.673,67.33,1514.064,61.238,1513.764,48.531z"/>
<path fill-rule="evenodd" clip-rule="evenodd" d="M870.5,354.009c-13.328,0-26.286,0-39.229,0
	c-0.288,9.151,4.115,14.268,11.863,17.075c7.955,2.884,15.062-0.534,21.089-9.769c5.488,1.732,5.27,1.863,2.304,6.559
	c-6.051,9.579-15.5,10.639-24.81,8.725c-8.888-1.828-13.483-8.942-16.18-17.895c-3.207-10.646,5.454-26.185,15.241-28.895
	C858.831,324.813,871.442,339.42,870.5,354.009z M832.006,348.695c10.538,0,21.043,0,31.557,0
	c-0.274-7.104-6.121-13.123-12.541-13.734C838.599,333.776,833.419,340.01,832.006,348.695z"/>
<path fill-rule="evenodd" clip-rule="evenodd" d="M509.142,354.007c-13.937,0-27.039,0-40.136,0
	c0.069,8.359,4.821,14.773,12.447,17.238c7.768,2.512,14.445-0.697,21.071-10.143c4.115,1.133,5.187,2.649,2.382,6.849
	c-8.134,12.181-30.677,13.418-38.853-2.209c-7.471-14.279-0.739-30.745,11.72-35.222c15.007-5.391,25.577,2.734,29.902,14.965
	C508.527,347.89,508.579,350.578,509.142,354.007z M470.026,348.424c10.763,0,21.524,0,32.479,0
	c-4.099-11.22-9.017-14.351-20.382-13.419C476.34,335.48,471.189,341.194,470.026,348.424z"/>
<path fill-rule="evenodd" clip-rule="evenodd" d="M345.404,361.018c4.18,1.391,5.311,2.551,2.278,6.915
	c-6.44,9.272-15.583,10.571-24.912,8.688c-8.922-1.802-13.638-8.891-16.18-17.865c-2.964-10.461,3.541-25.399,16.426-29.501
	c10.775-3.432,24.932,4.755,27.702,16.32c0.603,2.515,0.864,5.111,1.374,8.225c-13.572,0-26.651,0-39.659,0
	c-0.974,7.235,4.01,14.667,11.166,17.229C331.788,373.962,339.096,370.684,345.404,361.018z M345.348,348.483
	c-3.463-10.992-9.358-14.736-20.564-13.475c-5.841,0.657-11.265,7.057-11.589,13.475
	C323.863,348.483,334.536,348.483,345.348,348.483z"/>
<path fill-rule="evenodd" clip-rule="evenodd" d="M1752.114,353.983c-13.898,0-26.851,0-39.763,0
	c-0.814,7.212,4.13,14.505,11.307,17.058c8.186,2.911,15.469-0.375,21.776-10.038c2.615,1.333,6.07,1.377,2.864,6.236
	c-6.231,9.445-15.403,11.215-25.108,9.491c-8.904-1.581-13.805-8.463-16.446-17.064c-3.529-11.493,3.673-26.106,15.917-30.188
	c10.853-3.617,25.257,4.31,28.062,16.157C1751.319,348.15,1751.584,350.743,1752.114,353.983z M1745.426,348.659
	c-3.606-11.219-9.472-14.933-20.664-13.649c-5.827,0.668-11.288,7.137-11.557,13.649
	C1723.761,348.659,1734.315,348.659,1745.426,348.659z"/>
<path fill-rule="evenodd" clip-rule="evenodd" d="M675.602,369.156c-12.721,12.835-27.812,9.35-35.688-1.665
	c-6.361-8.896-7.306-24.505,5.266-34.345c7.518-5.884,21.521-6.981,30.365,4.741c0.137-2.721,0.248-4.935,0.385-7.671
	c1.703-0.075,3.44-0.151,5.517-0.242c0,15.309,0,30.368,0,45.726c-1.755,0-3.479,0-5.504,0
	C675.837,373.674,675.736,371.729,675.602,369.156z M675.764,353.661c0.001-11.177-6.54-18.132-16.236-18.798
	c-10.731-0.736-17.678,7.756-18.539,17.969c-0.807,9.558,8.467,19.157,17.744,19.17
	C668.179,372.013,675.763,363.846,675.764,353.661z"/>
<path fill-rule="evenodd" clip-rule="evenodd" d="M1435.76,353.876c6.032,21.628,17.703,23.835,34.516,7.368
	c1.309,0.681,2.613,1.358,3.915,2.04c-5.324,13.611-16.822,15.782-28.525,12.946c-10.823-2.623-18.01-15.974-14.654-29.308
	c3.379-13.424,13.017-19.658,26.498-17.707c10.83,1.568,19.799,13.079,17.872,24.66
	C1462.373,353.876,1449.277,353.876,1435.76,353.876z M1469.393,348.604c-1.402-10.156-9.252-14.688-20.242-13.608
	c-6.317,0.62-11.046,6.036-11.514,13.608C1448.09,348.604,1458.523,348.604,1469.393,348.604z"/>
<path fill-rule="evenodd" clip-rule="evenodd" d="M1646.325,354.001c-6.722,0-13.196,0-19.672,0c-6.479,0-12.959,0-19.534,0
	c0.559,8.5,3.898,14.7,12.211,17.132c10.043,2.937,16.574-2.244,21.622-10.032c1.728,0.893,3.155,1.631,4.574,2.365
	c-6.624,13.872-18.093,16.02-30.203,12.343c-9.99-3.033-16.722-17.025-13.188-29.396c3.873-13.557,13.667-19.012,26.403-17.222
	C1639.796,330.772,1648.781,343.441,1646.325,354.001z M1608.33,348.519c10.636,0,21.181,0,31.799,0
	c-1.559-9.244-6.252-13.457-14.653-13.518C1614.665,334.924,1610.275,338.28,1608.33,348.519z"/>
<path fill-rule="evenodd" clip-rule="evenodd" d="M718.999,48.947c-13.638,0-26.734,0-39.798,0
	c-0.463,8.427,4.011,15.334,11.296,17.921c5.701,2.024,15.457-1.346,19.689-6.836c0.49-0.637,0.724-1.925,1.229-2.011
	c1.429-0.243,2.988-0.206,4.374,0.171c0.301,0.082,0.524,2.306,0.047,3.101c-5.26,8.768-13.938,12.896-23.648,11.619
	c-8.242-1.084-15.998-9.18-18.495-17.493c-3.235-10.77,3.067-23.826,9.84-27.69c12.682-7.236,29.638-2.711,34.162,13.602
	C718.333,43.63,718.517,46.056,718.999,48.947z M711.371,43.792c0.365-7.214-5.428-12.862-13.724-13.809
	c-8.492-0.97-17.091,4.833-17.596,13.809C690.5,43.792,700.939,43.792,711.371,43.792z"/>
<path fill-rule="evenodd" clip-rule="evenodd" d="M645.959,657.902c-0.191,8.479,4.662,15.74,11.462,17.938
	c8.285,2.679,15.614-0.945,19.758-7.063c2.392-3.529,3.975-2.956,6.509-1.052c-3.682,11.182-14.974,16.061-25.202,14.052
	c-14.699-2.886-20.289-16.746-18.454-27.214c2.37-13.521,9.739-22.408,27.446-20.576c9.654,0.998,18.533,12.613,18.065,23.915
	C672.472,657.902,659.37,657.902,645.959,657.902z M678.951,652.832c-0.021-8.48-9.838-14.208-17.028-13.819
	c-5.728,0.31-15.143,6.112-14.812,13.822C657.717,652.834,668.333,652.834,678.951,652.832z"/>
<path fill-rule="evenodd" clip-rule="evenodd" d="M1078.442,223.792c-1.945,0-3.564,0-5.498,0c-0.116-2.261-0.225-4.354-0.374-7.272
	c-5.098,5.428-10.617,8.436-17.611,8.539c-7.441,0.111-12.856-3.423-17.374-8.788c-7.472-8.873-6.911-24.762,1.704-32.857
	c8.292-7.794,20.113-10.778,33.242,1.312c0.145-2.202,0.268-4.09,0.415-6.348c1.701,0,3.435,0,5.496,0
	C1078.442,193.262,1078.442,208.326,1078.442,223.792z M1072.764,201c1.228-10.794-8.595-18.964-17.494-18.94
	c-8.403,0.022-17.066,7.832-17.399,19.045c-0.277,9.351,8.948,19.156,17.775,18.756C1064.076,219.478,1073.095,213.442,1072.764,201
	z"/>
<path fill-rule="evenodd" clip-rule="evenodd" d="M1179.25,353.915c-12.959,0-26.051,0-39.151,0
	c0.347,9.283,4.702,15.674,13.163,17.664c9.043,2.128,15.785-2.592,20.636-10.4c1.542,0.737,2.95,1.41,4.354,2.08
	c-4.312,11.187-17.252,17.53-28.233,13.353c-13.424-5.106-17.514-16.774-14.834-29.815c2.752-13.387,13.667-19.607,26.482-17.608
	C1173.185,330.984,1181.964,344.056,1179.25,353.915z M1141.24,348.175c6.733,1.68,29.527,1.091,32.334-0.725
	c-2.569-10.155-9.919-13.154-19.239-12.455C1147.541,335.505,1143.165,339.797,1141.24,348.175z"/>
<path fill-rule="evenodd" clip-rule="evenodd" d="M348.395,506.001c-6.577,0-13.204,0-19.831,0c-6.472,0-12.942,0-19.389,0
	c-0.416,8.865,4.229,15.627,11.891,17.733c8.284,2.277,16.433-1.72,21.202-10.429c1.437,0.708,2.875,1.416,4.299,2.117
	c-4.158,11.612-15.755,16.931-28.627,13.22c-9.221-2.658-17.293-17.184-14.975-27.031c3.685-15.647,14.168-21.722,26.093-20.487
	C340.408,482.298,349.351,494.034,348.395,506.001z M341.426,500.806c0.634-8.275-6.899-12.785-13.322-13.755
	c-10.394-1.57-17.979,6.728-18.017,13.755C320.54,500.806,330.991,500.806,341.426,500.806z"/>
<path fill-rule="evenodd" clip-rule="evenodd" d="M1048.983,658.001c-0.294,8.192,4.487,15.461,11.301,17.79
	c7.01,2.396,15.008-0.227,19.883-6.809c1.432-1.935,2.202-4.393,5.111-1.946c2.79,2.346,0.553,4.045-0.813,5.739
	c-11.317,14.038-30.304,11.536-38.162-1.773c-8.886-15.048,0.056-33.429,12.368-36.354c16.958-4.03,28.836,5.305,29.937,23.354
	c-6.625,0-13.229,0-19.834,0C1062.303,658.001,1055.834,658.001,1048.983,658.001z M1082.086,652.856
	c-0.481-9.191-10.907-14.667-17.863-13.803c-6.621,0.822-14.184,6.224-13.994,13.803
	C1060.693,652.856,1071.162,652.856,1082.086,652.856z"/>
<path fill-rule="evenodd" clip-rule="evenodd" d="M1764.422,223.806c-1.897,0-3.517,0-5.473,0c-0.119-2.254-0.23-4.345-0.382-7.209
	c-5.086,5.289-10.574,8.36-17.565,8.463c-7.434,0.107-12.854-3.393-17.392-8.754c-7.454-8.809-6.976-24.707,1.646-32.864
	c8.367-7.917,20.39-10.719,33.309,1.371c0.136-2.399,0.249-4.402,0.373-6.596c1.893,0,3.518,0,5.484,0
	C1764.422,193.239,1764.422,208.296,1764.422,223.806z M1758.764,200.864c-0.002-10.789-7.648-19.032-17.652-18.837
	c-7.543,0.147-16.514,7.028-17.274,18.762c-0.593,9.134,9.245,19.721,18.016,19.092
	C1751.553,219.186,1759.781,211.542,1758.764,200.864z"/>
<path fill-rule="evenodd" clip-rule="evenodd" d="M550.612,489.521c0.098-2.112,0.186-4.028,0.287-6.227c1.845,0,3.589,0,5.601,0
	c0,14.791,0,29.518,0,44.456c-1.926,0-3.663,0-5.581,0c-0.091-2.036-0.171-3.836-0.265-5.929c-4.985,3.742-9.424,7.565-16.345,7.408
	c-6.472-0.146-12.226-1.261-16.589-5.905c-10.21-10.869-8.636-25.813-1.648-34.058C525.324,478.348,535.402,478.465,550.612,489.521
	z M550.764,505.794c-0.003-10.96-6.984-18.538-16.766-18.861c-9.38-0.309-17.917,7.658-17.783,18.626
	c0.131,10.811,7.137,18.092,17.404,18.512C541.708,524.402,551.978,517.384,550.764,505.794z"/>
<path fill-rule="evenodd" clip-rule="evenodd" d="M1614.445,505.944c-14.166,0-27.271,0-40.606,0
	c0.84,8.537,4.171,15.331,12.204,17.554c9.59,2.652,16.94-1.752,21.594-10.349c4.612,2.954,4.292,6.506-0.675,10.777
	c-7.532,6.477-16.541,6.804-25.051,3.78c-7.601-2.701-11.849-9.404-13.173-17.646c-2.479-15.413,6.106-25.059,17.534-28.812
	c8.632-2.836,22.271,4.346,25.436,13.378C1612.911,498.059,1613.448,501.724,1614.445,505.944z M1607.622,500.783
	c-3.008-10.279-8.977-14.443-19.243-13.778c-6.146,0.398-12.523,6.892-13.345,13.778
	C1585.796,500.783,1596.535,500.783,1607.622,500.783z"/>
<path fill-rule="evenodd" clip-rule="evenodd" d="M401.456,658.011c-13.277,0-26.231,0-39.159,0
	c-0.579,8.841,3.826,14.61,10.688,17.576c7.813,3.378,16.362-0.448,22.663-9.811c1.495,0.616,3.081,1.271,4.706,1.941
	c-7.564,14.358-17.928,17.004-30.198,12.765c-9.341-3.227-17.497-16.041-13.03-29.945c4.56-14.192,13.66-18.258,27.501-16.36
	C393.943,635.455,402.944,647.206,401.456,658.011z M362.812,652.859c10.956,0,21.566,0,32.183,0
	c-1.17-7.846-6.823-13.207-14.576-13.853C372.127,638.316,365.859,643.081,362.812,652.859z"/>
<path fill-rule="evenodd" clip-rule="evenodd" d="M1378.355,658.019c-13.066,0-26.153,0-39.192,0
	c-0.709,7.76,3.978,15.186,10.918,17.69c8.398,3.031,15.236-1.042,20.278-6.944c3.071-3.596,2.892-3.75,6.298,0.034
	c-5.05,10.851-17.762,16.351-29.33,11.891c-10.986-4.235-16.829-17.246-14.084-27.449c4.858-18.059,14.084-20.857,28.001-18.998
	C1371.065,635.555,1378.71,645.859,1378.355,658.019z M1371.649,652.792c-1.64-8.73-8.168-14.227-16.526-13.727
	c-8.056,0.483-14.182,4.87-15.08,13.727C1350.48,652.792,1360.897,652.792,1371.649,652.792z"/>
<path fill-rule="evenodd" clip-rule="evenodd" d="M772.763,184.951c0-2.584,0-4.405,0-6.585c1.891,0,3.626,0,5.684,0
	c0,14.897,0,29.948,0,45.316c-1.715,0-3.435,0-5.497,0c-0.108-1.969-0.215-3.906-0.364-6.617
	c-5.115,4.789-10.464,8.144-17.392,7.973c-6.996-0.173-12.813-2.665-17.044-8.263c-8.087-10.699-7.69-26.092,3.101-34.899
	C747.755,176.567,760.607,172.93,772.763,184.951z M772.764,200.651c2.009-9.679-8.83-18.927-17.727-18.675
	c-8.596,0.243-16.913,9.294-17.148,18.893c-0.224,9.061,8.827,19.291,17.671,18.988C764.638,219.547,773.827,212.33,772.764,200.651
	z"/>
<path fill-rule="evenodd" clip-rule="evenodd" d="M268.03,200.849c-0.535,8.195,4.221,15.712,11.205,17.872
	c7.647,2.365,15.467,0.278,22.161-9.841c1.447,0.766,2.941,1.557,4.407,2.333c-5.892,13.598-19.37,16.028-29.969,12.279
	c-9.327-3.299-16.301-16.898-13.861-26.812c3.298-13.4,11.748-21.987,27.608-19.48c9.884,1.562,17.033,9.481,18.022,23.648
	C294.523,200.849,281.462,200.849,268.03,200.849z M268.985,195.724c10.533,0,21.023,0,31.552,0
	c-1.156-7.799-7.878-13.649-15.511-13.723C277.066,181.926,270.23,187.671,268.985,195.724z"/>
<path fill-rule="evenodd" clip-rule="evenodd" d="M1895.768,338.114c0-3.111,0-5.264,0-7.761c1.902,0,3.642,0,5.691,0
	c0,14.951,0,29.999,0,45.346c-1.766,0-3.487,0-5.516,0c-0.106-2.019-0.208-3.961-0.374-7.112
	c-6.271,8.365-14.524,9.796-23.195,8.069c-5.766-1.147-9.833-5.471-13.018-10.464c-6.931-10.866-3.866-25.331,5.594-32.675
	C1873.845,326.612,1887.109,326.552,1895.768,338.114z M1879.165,335.001c-10.162-0.878-17.834,8.789-17.483,18.201
	c0.382,10.279,7.628,19.042,16.844,18.719c12.226-0.429,17.66-8.099,18.021-18.46
	C1896.904,343.149,1888.313,333.622,1879.165,335.001z"/>
<path fill-rule="evenodd" clip-rule="evenodd" d="M1508.615,208.881c1.406,0.771,2.535,1.392,4.148,2.277
	c-1.441,2.258-2.577,4.528-4.158,6.427c-6.478,7.777-18.294,9.751-27.785,5.005c-9.788-4.894-13.854-16.799-11.771-26.762
	c2.13-10.186,10.033-20.578,25.721-18.99c9.806,0.992,16.078,7.699,19.794,24.184c-13.18,0-26.272,0-39.28,0
	c-1.652,9.113,3.693,14.286,9.786,17.586C1491.607,222.149,1498.015,219.292,1508.615,208.881z M1475.373,196.001
	c5.732,0,11.061,0,16.39,0c5.256,0,10.513,0,15.803,0c-0.641-8.461-8.312-13.429-15.832-13.938
	C1484.195,181.554,1477.031,187.756,1475.373,196.001z"/>
<path fill-rule="evenodd" clip-rule="evenodd" d="M1760.561,657.964c-13.113,0-26.207,0-39.227,0
	c-1.061,6.995,2.383,14.465,8.14,16.816c7.308,2.985,14.604,4.335,24.889-8.799c1.312,0.629,2.701,1.295,4.058,1.946
	c-4.158,12.181-16.764,15.94-26.396,13.659c-11.652-2.759-19.164-15.302-17.192-27.949c1.576-10.108,10.596-19.392,20.328-19.864
	C1748.922,633.107,1759.491,641.629,1760.561,657.964z M1753.667,652.851c-1.743-8.524-8.497-14.155-16.448-13.809
	c-7.538,0.328-14.142,4.722-15.746,13.809C1732.096,652.851,1742.712,652.851,1753.667,652.851z"/>
<path fill-rule="evenodd" clip-rule="evenodd" d="M1154.343,505.952c-12.664,0-25.399,0-38.06,0
	c-1.101,8.08,2.662,14.229,10.246,17.333c7.542,3.087,15.607-0.451,22.664-10.036c1.504,0.771,3.03,1.554,4.573,2.346
	c-7.884,12.752-20.794,18.006-31.481,12.055c-10.551-5.875-15.777-17.501-11.11-31.445c3.825-11.428,15.284-16.909,24.654-14.966
	C1147.717,483.702,1155.894,493.322,1154.343,505.952z M1148.535,500.738c-1.317-8.989-7.828-13.885-17.955-13.736
	c-7.052,0.104-13.364,6.215-14.225,13.736C1127.069,500.738,1137.785,500.738,1148.535,500.738z"/>
<path fill-rule="evenodd" clip-rule="evenodd" d="M1465.456,658.002c-13.284,0-26.243,0-39.193,0
	c-0.113,10.113,5.246,15.367,11.299,17.731c7.156,2.795,15.049,0.289,22.354-9.938c1.384,0.62,2.833,1.27,4.265,1.911
	c-3.876,11.175-14.405,15.869-25.409,14.113c-10.46-1.669-20.683-15.534-18.896-24.95c3.3-17.388,11.729-24.51,27.768-22.872
	C1456.877,634.941,1467.028,646.725,1465.456,658.002z M1459.447,652.787c-2.045-10.513-10.415-14.21-17.562-13.684
	c-6.488,0.479-13.306,4.533-14.636,13.684C1437.971,652.787,1448.69,652.787,1459.447,652.787z"/>
<path fill-rule="evenodd" clip-rule="evenodd" d="M884.823,185.075c0-2.749,0-4.679,0-6.836c1.942,0,3.56,0,5.563,0
	c0,14.963,0,29.999,0,45.531c-1.572,0.072-3.288,0.151-5.42,0.25c-0.131-2.319-0.244-4.348-0.369-6.571
	c-12.979,9.648-24.959,10.001-32.681,1.195c-9.798-11.172-9.811-25.468-0.032-35.261
	C861.137,174.117,872.429,174.467,884.823,185.075z M868.203,182.002c-8.814,0.275-18.194,8.083-17.568,19.131
	c0.693,12.223,8.161,17.896,16.995,18.714c9.056,0.838,18.284-8.849,18.025-18.73C885.359,189.839,876.553,182.225,868.203,182.002z
	"/>
<path fill-rule="evenodd" clip-rule="evenodd" d="M773.482,665.757c1.582,0.952,2.947,1.774,4.293,2.585
	c-6.577,13.288-18.876,16.47-29.731,12.114c-11.099-4.453-16.134-14.752-13.978-27.113c1.914-10.967,9.178-20.658,24.982-19.486
	c10.69,0.793,18.012,8.471,20.592,24.001c-13.134,0-26.204,0-39.179,0c-1.414,7.622,2.812,14.253,10.287,17.716
	C757.801,678.841,767.117,675.292,773.482,665.757z M772.534,652.742c-1.137-7.781-7.822-13.741-15.413-13.714
	c-8.356,0.03-15.007,4.636-16.364,13.714C751.327,652.742,761.915,652.742,772.534,652.742z"/>
<path fill-rule="evenodd" clip-rule="evenodd" d="M1706.192,658.051c-12.99,0-25.935,0-38.818,0
	c-1.193,7.086,1.93,14.027,8.506,16.868c10.656,4.604,18.357-0.426,24.553-9.133c1.441,0.805,2.694,1.504,3.925,2.19
	c-4.941,12.6-16.135,15.804-26.259,13.596c-12.242-2.669-18.914-14.79-17.271-27.647c1.318-10.318,9.933-20.031,20.025-19.988
	C1697.071,634.006,1703.463,639.825,1706.192,658.051z M1667.445,652.708c10.962,0,21.521,0,32.091,0
	c-0.538-8.608-9.567-13.752-16.227-13.622C1676.008,639.229,1668.883,643.204,1667.445,652.708z"/>
<path fill-rule="evenodd" clip-rule="evenodd" d="M1709.483,201.001c-11.698,0-23.005-0.013-34.312,0.006
	c-5.784,0.009-5.862,0.436-4.427,5.948c2.117,8.129,7.872,12.544,15.461,12.703c6.176,0.131,12.587-2.087,16.125-8.541
	c0.479-0.875,2.337-0.995,3.557-1.464c0.277,1.517,1.303,3.459,0.718,4.482c-5.423,9.494-15.158,12.186-24.442,10.557
	c-11.523-2.021-17.448-13.154-18.324-23.119c-0.855-9.737,6.604-21.438,16.098-24.029
	C1695.285,173.355,1710.153,184.102,1709.483,201.001z M1703.513,195.728c-2.698-11.019-12.148-14.437-18.804-13.703
	c-6.921,0.764-12.548,6.624-13.352,13.703C1682.053,195.728,1692.752,195.728,1703.513,195.728z"/>
<path fill-rule="evenodd" clip-rule="evenodd" d="M1209.494,186.33c0.202-3.687,0.316-5.758,0.442-8.064c1.607,0,3,0,4.611,0
	c0,15.142,0,30.081,0,45.418c-1.394,0.104-2.771,0.205-4.491,0.332c-0.199-2.465-0.376-4.642-0.578-7.149
	c-11.23,10.357-22.846,11.609-32.597,2.215c-10.457-10.074-10.888-22.443-2.012-34.46c4.043-5.473,9.998-7.707,17.253-7.85
	C1199.496,176.626,1204.1,180.412,1209.494,186.33z M1209.764,200.811c0.203-11.529-8.584-18.511-17.342-18.711
	c-7.921-0.181-17.849,7.229-17.684,18.927c0.134,9.494,8.858,19.586,17.537,18.773
	C1201.293,218.956,1209.744,214.04,1209.764,200.811z"/>
<path fill-rule="evenodd" clip-rule="evenodd" d="M727.739,490.252c0-2.884,0-4.806,0-6.978c1.746,0,3.15,0,4.791,0
	c0,14.74,0,29.348,0,44.372c-1.329,0.126-2.704,0.256-4.447,0.421c-0.199-2.323-0.375-4.354-0.56-6.501
	c-14.312,10.299-26.32,10.255-34.776-0.137c-8.145-10.01-7.898-25.439,2.522-34.4C703.58,479.884,714.865,477.098,727.739,490.252z
	 M710.373,487.001c-9.605-0.595-17.659,8.587-17.564,18.379c0.114,11.8,9.066,18.843,17.36,18.675
	c10.239-0.207,17.604-7.789,17.596-18.591C727.757,495.103,720.128,487.004,710.373,487.001z"/>
<path fill-rule="evenodd" clip-rule="evenodd" d="M900.764,527.788c-2.28,0-3.893,0-5.751,0c0-20.571,0-40.935,0-62.233
	c8.788,0.519,17.372,0.49,25.782,1.686c7.146,1.015,11.03,8,11,16.986c-0.02,5.847-3.977,12.801-11.382,13.79
	c-6.309,0.843-12.612,1.72-19.649,2.681c0,4.141,0,8.729,0,13.319C900.764,518.48,900.764,522.945,900.764,527.788z M901.052,471.51
	c0,7.705,0,14.4,0,21.485c5.388,0,10.504,0.176,15.602-0.054c4.367-0.196,8.518-4.42,9.099-8.735
	c0.68-5.043-1.772-10.082-6.555-11.045C913.461,472.007,907.487,472.039,901.052,471.51z"/>
<path fill-rule="evenodd" clip-rule="evenodd" d="M753.764,375.833c-2.182,0-3.796,0-5.705,0c0-21.199,0-42.267,0-63.579
	c1.748,0,3.355,0,5.54,0c0,8.26,0,16.628,0,26.326c5.964-7.824,12.65-11.094,21.133-9.06c8.613,2.065,11.36,9.055,11.865,16.607
	c0.651,9.751,0.159,19.579,0.159,29.618c-2.026,0-3.632,0-5.992,0c0-8.146,0.014-16.399-0.008-24.653
	c-0.007-2.493,0.249-5.061-0.245-7.464c-1.195-5.805-4.679-8.868-10.258-9.604c-3.938-0.519-11.395,3.159-13.01,7.229
	c-1.653,4.164-2.986,8.655-3.335,13.092C753.363,361.284,753.764,368.296,753.764,375.833z"/>
<path fill-rule="evenodd" clip-rule="evenodd" d="M536.095,312.216c1.946,0,3.561,0,5.557,0c0,8.458,0,16.716,0,26.396
	c4.493-6.662,9.784-9.58,16.525-9.607c7.445-0.031,14.901,5.198,15.362,12.396c0.725,11.328,0.192,22.736,0.192,34.356
	c-1.024,0-2.634,0-4.969,0c0-9.337,0.072-18.762-0.021-28.184c-0.081-8.228-6.003-14.502-12.578-13.541
	c-7.966,1.164-14.309,8.451-14.383,16.697c-0.074,8.285-0.017,16.572-0.017,25.058c-2.109,0-3.724,0-5.669,0
	C536.095,354.732,536.095,333.669,536.095,312.216z"/>
<path fill-rule="evenodd" clip-rule="evenodd" d="M938.764,823.912c-2.238,0-3.729,0-6,0c0-10.628,0-21.197,0-31.767
	c0-10.473,0-20.946,0-31.897c1.954-0.088,3.673-0.166,5.84-0.264c0,7.06,0,13.818,0,20.668c3.812-1.71,7.085-3.855,10.66-4.66
	c13.437-3.027,22.125,4.254,23.279,16.038c1.016,10.364,0.213,20.906,0.213,31.662c-1.721,0-3.103,0-4.556,0
	c-0.147-0.527-0.389-0.991-0.391-1.456c-0.033-7.825,0.223-15.661-0.113-23.473c-0.394-9.136-3.503-15.796-10.894-17.863
	c-6.495-1.817-14.064,1.671-16.031,8.204c-1.067,3.546-1.784,7.31-1.921,11.002C938.565,807.888,938.764,815.689,938.764,823.912z"
	/>
<path fill-rule="evenodd" clip-rule="evenodd" d="M581.255,776.001c12.965-2.244,24.479,11.659,23.737,24.982
	c-0.71,12.78-9.447,24.093-23.776,24.003c-12.478-0.079-24.258-9.409-23.561-26.207
	C558.202,785.631,567.681,776.001,581.255,776.001z M598.764,800.343c-0.001-10.536-4.191-16.227-14.521-19.435
	c-1.636-0.508-3.644-0.985-5.169-0.499c-11.75,3.744-16.123,10.459-15.308,22.982c0.601,9.214,10.721,18.067,19.09,16.513
	C593.913,817.85,599.916,809.583,598.764,800.343z"/>
<path fill-rule="evenodd" clip-rule="evenodd" d="M1015.764,48.612c0.988,13.444-11.182,24.374-22.309,24.395
	c-12.965,0.023-23.922-10.887-23.633-24.103c0.317-14.441,8.844-24.446,23.323-24.677
	C1005.685,24.027,1016.471,34.953,1015.764,48.612z M1009.764,48.61c0.004-10.222-7.527-18.549-16.831-18.608
	c-9.302-0.059-17.165,8.362-17.169,18.387c-0.004,10.731,7.102,18.32,16.784,18.695C1001.37,67.425,1010.646,59.426,1009.764,48.61z
	"/>
<path fill-rule="evenodd" clip-rule="evenodd" d="M870.764,800.267c-0.033,12.269-9.521,24.817-23.937,24.757
	c-14.397-0.061-24.211-11.628-23.913-25.144c0.257-11.672,7.608-25.497,27.099-24.115
	C859.429,776.432,871.269,786.73,870.764,800.267z M864.764,800.371c-0.027-10.8-8.328-20.228-17.921-20.354
	c-9.175-0.121-18.421,9.946-18.015,20.214c0.507,12.813,8.273,19.349,17.932,19.449
	C856.118,819.778,864.704,812.523,864.764,800.371z"/>
<path fill-rule="evenodd" clip-rule="evenodd" d="M1125.764,800.048c0.08,12.517-9.629,25.193-24.218,24.974
	c-14.185-0.214-23.775-11.591-23.648-24.925c0.112-11.77,7.93-25.43,26.397-24.396
	C1114.475,776.27,1126.225,786.957,1125.764,800.048z M1119.764,800.478c-0.005-10.857-8.101-20.157-17.812-20.461
	c-9.035-0.283-18.477,9.895-18.126,20.106c0.435,12.633,7.983,19.348,17.829,19.558
	C1110.899,819.878,1119.639,812.692,1119.764,800.478z"/>
<path fill-rule="evenodd" clip-rule="evenodd" d="M1401.444,529.001c-14.033,0-22.413-9.041-22.756-23.691
	c-0.336-14.287,10.439-24.107,23.384-24.263c11.581-0.14,22.549,10.997,22.73,24.333
	C1424.947,516.008,1415.319,531.214,1401.444,529.001z M1401.136,487.001c-9.512,0.022-16.314,8.416-16.396,19.969
	c-0.072,10.274,7.738,16.942,17.025,17.015c9.274,0.072,17.002-8.4,16.998-18.499
	C1418.76,495.178,1410.941,486.979,1401.136,487.001z"/>
<path fill-rule="evenodd" clip-rule="evenodd" d="M85.591,377.001c-11.974,2.095-23.084-11.816-22.918-24.12
	c0.164-12.148,10.072-24.424,23.846-23.966c12.564,0.418,21.839,10.697,22.367,24.418
	C109.365,365.795,96.945,379.332,85.591,377.001z M102.764,352.787c1.396-8.72-8.193-17.947-16.707-18.012
	c-8.706-0.065-17.647,8.449-17.401,17.979c0.315,12.193,8.276,18.805,17.476,19.182C95.363,372.314,102.767,363.542,102.764,352.787
	z"/>
<path fill-rule="evenodd" clip-rule="evenodd" d="M1204.883,634.001c12.697-1.632,23.002,12.178,23.043,23.322
	c0.047,12.818-10.342,25.09-23.099,24.757c-13.34-0.348-22.644-10.437-23.197-24.609
	C1181.169,645.667,1193.066,631.745,1204.883,634.001z M1221.764,657.941c1.027-9.953-8.449-19.142-17.176-18.853
	c-8.338,0.276-17.192,7.552-16.891,18.697c0.3,11.063,6.6,18.222,16.715,18.216C1215.099,675.996,1221.765,669.057,1221.764,657.941
	z"/>
<path fill-rule="evenodd" clip-rule="evenodd" d="M910.122,634.001c12.152-1.917,23.111,11.45,22.854,24.323
	c-0.245,12.269-10.43,24.152-23.459,23.753c-12.465-0.382-22.632-10.857-22.782-23.92
	C886.585,645.143,897.013,632.734,910.122,634.001z M926.764,658.45c1.287-11.899-9.057-19.332-17.087-19.359
	c-9.033-0.031-16.781,9.121-17.073,18.677c-0.275,8.992,7.894,19.023,17.424,18.386C920.017,675.485,926.758,668.982,926.764,658.45
	z"/>
<path fill-rule="evenodd" clip-rule="evenodd" d="M1221.764,48.405c1.052,14.288-11.166,24.676-22.355,24.619
	c-12.74-0.063-23.905-11.289-23.574-24.515c0.36-14.378,10.193-24.297,23.613-24.26C1212.894,24.287,1222.271,35.69,1221.764,48.405
	z M1215.764,48.521c1.71-10.24-9.154-18.761-16.584-18.565c-9.286,0.244-17.369,8.555-17.416,18.283
	c-0.053,10.87,7.147,18.522,17.08,18.839C1207.123,67.342,1217.315,59.569,1215.764,48.521z"/>
<path fill-rule="evenodd" clip-rule="evenodd" d="M989.238,529.001c-14.604,2.097-23.453-12.836-23.52-23.101
	c-0.09-13.733,11.337-25.208,23.129-24.874c11.368,0.322,23.85,9.304,23.044,25.603
	C1011.248,519.673,1002.385,529.001,989.238,529.001z M1005.764,506.132c0.001-11.137-6.967-19.109-16.719-19.131
	c-9.791-0.021-17.195,8.253-17.31,19.074c-0.098,9.307,7.766,18.022,16.844,17.987
	C996.892,524.031,1006.768,517.061,1005.764,506.132z"/>
<path fill-rule="evenodd" clip-rule="evenodd" d="M1691.216,529.001c-13.844,0-22.274-9.165-22.503-23.888
	c-0.227-14.628,10.484-23.616,22.524-24.008c13.367-0.435,23.393,11.721,23.54,24.527
	C1714.907,516.845,1704.568,531.19,1691.216,529.001z M1674.764,505.417c-0.884,12.13,8.244,18.523,16.952,18.576
	c9.292,0.057,17.042-8.37,17.048-18.464c0.007-10.318-7.804-18.544-17.593-18.527
	C1682.013,487.017,1674.764,495.153,1674.764,505.417z"/>
<path fill-rule="evenodd" clip-rule="evenodd" d="M1211.166,529.001c-13.73,0-22.118-9.301-22.487-23.996
	c-0.324-12.878,10.613-23.833,23.237-24.037c11.329-0.184,23.124,11.765,22.971,24.66
	C1234.754,516.602,1225.491,531.106,1211.166,529.001z M1211.77,487.001c-9.758-0.001-16.522,7.838-17.131,18.348
	c-0.689,11.914,8.982,18.626,17.042,18.678c9.585,0.062,17.045-7.803,17.073-18.152
	C1228.784,495.391,1221.197,487.002,1211.77,487.001z"/>
<path fill-rule="evenodd" clip-rule="evenodd" d="M585.764,657.879c0-14.693,8.917-23.477,23.126-23.999
	c12.618-0.465,22.806,10.96,22.867,24.352c0.056,12.199-11.343,24.446-23.671,23.895
	C595.397,681.557,585.764,671.608,585.764,657.879z M591.764,657.848c0,11.182,6.219,17.436,16.034,18.356
	c9.317,0.874,18.344-8.96,18.043-18.463c-0.304-9.568-8.224-18.66-16.98-18.738C599.426,638.919,591.764,647.365,591.764,657.848z"
	/>
<path fill-rule="evenodd" clip-rule="evenodd" d="M302.764,657.519c0,14.118-9.532,24.036-22.467,24.609
	c-12.608,0.559-23.673-12.479-23.524-24.055c0.169-13.067,9.98-25.181,24.534-24.237
	C293.784,634.644,302.764,643.806,302.764,657.519z M280.14,676.001c8.874,1.055,17.139-7.566,17.547-17.942
	c0.371-9.433-8.583-18.935-17.668-19.024c-8.506-0.085-17.524,8.898-17.311,18.442C262.949,668.304,269.971,675.998,280.14,676.001z
	"/>
<path fill-rule="evenodd" clip-rule="evenodd" d="M289.766,375.658c0-9.759,0.138-19.127-0.042-28.489
	c-0.157-8.161-2.423-11.129-9.3-12.847c-3.971-0.992-11.866,1.928-14.538,7.896c-1.81,4.042-2.668,8.711-2.996,13.169
	c-0.486,6.605-0.126,13.272-0.126,20.28c-1.632,0.124-3.016,0.229-4.711,0.357c0-21.375,0-42.433,0-63.749c1.495,0,2.875,0,4.646,0
	c0,8.438,0,16.688,0,25.844c4.92-5.33,9.748-8.802,16.545-9.218c9.479-0.58,15.883,7.312,16.37,15.53
	c0.607,10.264,0.146,20.592,0.146,31.227C293.758,375.658,292.044,375.658,289.766,375.658z"/>
<path fill-rule="evenodd" clip-rule="evenodd" d="M541.756,223.797c-1.924,0-3.211,0-4.526,0c-0.177-0.632-0.417-1.096-0.419-1.56
	c-0.034-7.325,0.267-14.668-0.159-21.969c-0.262-4.479-0.513-9.57-2.721-13.199c-4.991-8.206-17.26-6.542-21.984,3.118
	c-2.196,4.491-2.635,10.022-3.066,15.15c-0.5,5.936-0.116,11.946-0.116,18.297c-1.599,0.145-2.981,0.27-4.698,0.426
	c0-21.376,0-42.436,0-63.771c1.459,0,2.84,0,4.682,0c0,8.204,0,16.271,0,25.168c2.677-2.241,4.652-3.965,6.701-5.599
	c4.87-3.884,10.909-4.138,15.969-2.223c5.49,2.077,10.002,6.85,10.234,13.379C542.037,201.798,541.756,212.603,541.756,223.797z"/>
<path fill-rule="evenodd" clip-rule="evenodd" d="M1952.756,375.79c-1.932,0-3.216,0-4.537,0c-0.174-0.64-0.409-1.104-0.411-1.57
	c-0.032-7.163,0.07-14.327-0.092-21.486c-0.073-3.258-0.343-6.577-1.071-9.742c-2.017-8.773-10.574-10.837-17.597-6.769
	c-5.737,3.324-8.261,8.321-8.368,15.009c-0.129,8.07-0.881,16.131-1.381,24.479c-1.291,0-2.673,0-4.297,0
	c0-21.073,0-42.007,0-63.348c1.34-0.133,2.727-0.271,4.721-0.468c0,8.688,0,17.056,0,25.786c3.42-2.509,6.064-5.021,9.177-6.63
	c12.019-6.211,22.455,1.196,23.639,12.981C1953.579,354.394,1952.756,364.944,1952.756,375.79z"/>
<path fill-rule="evenodd" clip-rule="evenodd" d="M157.759,375.827c-1.883,0-3.167,0-4.488,0c-0.185-0.599-0.449-1.058-0.451-1.519
	c-0.039-6.992,0.084-13.988-0.108-20.976c-0.099-3.592-0.567-7.2-1.184-10.745c-0.925-5.319-5.099-7.787-9.688-8.337
	c-5.072-0.608-10.224,1.627-12.524,6.132c-2.427,4.754-3.77,10.324-4.38,15.676c-0.727,6.383-0.171,12.912-0.171,19.65
	c-1.754,0-3.136,0-4.76,0c0-21.061,0-41.985,0-63.33c1.314-0.142,2.701-0.291,4.686-0.506c0,8.681,0,17.052,0,25.82
	c3.418-2.513,6.058-5.011,9.157-6.633c12.147-6.359,22.765,1.512,23.739,13.393C158.424,354.684,157.759,365.04,157.759,375.827z"/>
<path fill-rule="evenodd" clip-rule="evenodd" d="M30.557,314.372c0,1.897,0,3.514,0,5.478c-7.802,0-15.413,0-23.406,0
	c0,6.724,0,13.108,0,20.035c7.648,0,15.38,0,23.349,0c0,1.917,0,3.299,0,5.039c-7.825,0-15.436,0-23.582,0
	c0,10.396,0,20.456,0,30.79c-2.584,0-4.631,0-6.917,0c0-20.445,0-40.708,0-61.342C10.04,314.372,20.09,314.372,30.557,314.372z"/>
<path fill-rule="evenodd" clip-rule="evenodd" d="M1212.764,375.758c-2.057,0-3.666,0-5.639,0c0-14.983,0-30.04,0-45.426
	c1.66,0,3.377,0,5.37,0c0.203,2.175,0.405,4.343,0.692,7.406c5.607-7.199,12.256-10.094,20.277-8.379
	c8.055,1.722,11.612,8.033,12.105,15.392c0.687,10.237,0.173,20.555,0.173,31.037c-2.091,0-3.704,0-5.979,0
	c0-9.586,0.029-19.188-0.01-28.788c-0.027-6.501-2.501-10.003-7.312-12.04c-8.333-3.526-17.742,4.807-18.559,11.954
	c-0.859,7.521-0.804,15.146-1.108,22.728C1212.698,371.601,1212.764,373.565,1212.764,375.758z"/>
<path fill-rule="evenodd" clip-rule="evenodd" d="M919.743,375.776c-2.07,0-3.684,0-5.979,0c0-9.546,0.028-19.146-0.01-28.745
	c-0.025-6.507-2.487-10.044-7.283-12.063c-8.383-3.531-17.737,4.762-18.58,11.918c-0.886,7.516-0.81,15.146-1.115,22.727
	c-0.079,1.965-0.012,3.936-0.012,6.134c-2.034,0-3.64,0-5.623,0c0-14.959,0-30.009,0-45.4c1.613,0,3.328,0,5.402,0
	c0.168,2.145,0.337,4.316,0.574,7.358c5.693-7.057,12.287-10.071,20.319-8.356c8.059,1.721,11.633,8.017,12.131,15.373
	C920.261,354.958,919.743,365.279,919.743,375.776z"/>
<path fill-rule="evenodd" clip-rule="evenodd" d="M1599.763,680.807c-2.249,0-3.863,0-6,0c0-9.95,0.106-19.721-0.031-29.489
	c-0.125-8.858-8.236-15.076-15.53-12.105c-6.968,2.837-11.376,9.646-11.427,17.815c-0.049,7.791-0.011,15.582-0.011,23.669
	c-2.067,0-3.781,0-5.75,0c0-15.166,0-30.218,0-45.48c1.83,0,3.435,0,5.427,0c0.179,2.009,0.36,4.044,0.603,6.756
	c4.43-4.338,8.582-7.716,14.896-8.132c12.041-0.793,17.045,7.734,17.68,16.665c0.636,8.938,0.143,17.955,0.144,26.938
	C1599.763,678.417,1599.763,679.39,1599.763,680.807z"/>
<path fill-rule="evenodd" clip-rule="evenodd" d="M1617.764,680.792c-2.268,0-3.882,0-5.738,0c0-15.277,0-30.351,0-45.605
	c1.873,0,3.485,0,5.486,0c0.154,2.088,0.306,4.118,0.519,6.992c4.645-5.76,9.925-8.267,16.823-8.342
	c6.376-0.069,12.428,4.368,13.904,10.265c1.022,4.083,1.763,8.321,1.92,12.517c0.298,7.953,0.086,15.925,0.086,24.129
	c-2.039,0-3.646,0-6,0c0-8.32,0.048-16.744-0.031-25.167c-0.022-2.276-0.53-4.545-0.641-6.826c-0.273-5.708-3.854-8.523-8.85-9.66
	c-5.221-1.188-11.907,1.797-14.297,6.731c-1.657,3.425-2.821,7.369-3.044,11.15C1617.444,664.755,1617.764,672.581,1617.764,680.792
	z"/>
<path fill-rule="evenodd" clip-rule="evenodd" d="M626.209,375.824c-2.61,0-4.223,0-6.445,0c0-8.518,0.247-16.959-0.111-25.375
	c-0.163-3.817-0.586-8.177-2.528-11.259c-5.116-8.12-16.676-5.753-21.179,1.777c-1.904,3.184-2.807,7.305-3.047,11.071
	c-0.476,7.455-0.171,14.96-0.205,22.444c-0.002,0.307-0.18,0.613-0.368,1.214c-1.624,0-3.338,0-5.312,0c0-15.167,0-30.219,0-45.48
	c1.83,0,3.434,0,5.427,0c0.179,2.009,0.36,4.043,0.6,6.731c4.768-4.474,9.327-8.271,16.016-8.011
	c7.655,0.297,14.969,6.009,15.583,13.645C625.513,353.436,625.702,364.345,626.209,375.824z"/>
<path fill-rule="evenodd" clip-rule="evenodd" d="M1369.241,527.812c-2.624,0-4.236,0-6.477,0c0-9.316,0.034-18.58-0.012-27.843
	c-0.034-7.009-3.299-11.678-8.93-12.967c-6.588-1.508-15.733,3.772-16.91,10.411c-0.939,5.305-0.919,10.795-1.114,16.21
	c-0.166,4.62-0.034,9.251-0.034,14.119c-2.023,0-3.624,0-5.617,0c0-14.606,0-29.312,0-44.51c1.564-0.072,3.28-0.151,5.393-0.249
	c0.138,2.209,0.257,4.126,0.381,6.123c6.12-4.95,11.93-10.259,20.84-7.22c6.471,2.208,10.285,6.734,10.866,13.169
	C1368.59,505.735,1368.728,516.488,1369.241,527.812z"/>
<path fill-rule="evenodd" clip-rule="evenodd" d="M1011.825,330.208c0,2.261,0,4.183,0,6.846c4.942-4.374,9.328-7.853,15.794-8.228
	c7.197-0.419,15.229,5.953,15.862,13.395c0.934,10.99,0.241,22.119,0.241,33.483c-1.039,0-2.756,0-4.958,0
	c0-7.763,0.086-15.392-0.045-23.016c-0.048-2.759-0.487-5.531-0.965-8.259c-1.361-7.764-4.034-9.348-9.938-10.175
	c-5.051-0.708-9.956,1.728-12.565,6.147c-1.979,3.353-3.084,7.589-3.338,11.513c-0.503,7.779-0.148,15.613-0.148,23.751
	c-2.011,0-3.728,0-5.729,0c0-15.104,0-30.18,0-45.458C1007.862,330.208,1009.469,330.208,1011.825,330.208z"/>
<path fill-rule="evenodd" clip-rule="evenodd" d="M733.773,777.238c2.312,0,3.928,0,5.991,0c0,9.011-0.183,17.805,0.097,26.583
	c0.102,3.176,0.757,6.583,2.131,9.413c2.512,5.179,10.46,7.509,17.085,5.63c4.133-1.172,8.456-7.317,8.705-12.16
	c0.253-4.932,0.775-9.852,0.946-14.785c0.166-4.794,0.036-9.599,0.036-14.645c1.787,0,3.169,0,4.775,0c0,15.465,0,30.732,0,46.404
	c-1.374,0.11-2.754,0.221-4.58,0.367c-0.126-1.982-0.233-3.68-0.396-6.241c-5.582,6.228-12.092,8.47-19.43,6.837
	c-11.625-2.586-14.025-8.192-15.151-18.722C732.983,796.565,733.773,787.019,733.773,777.238z"/>
<path fill-rule="evenodd" clip-rule="evenodd" d="M271.885,527.827c-2.291,0-3.903,0-5.819,0c0-20.498,0-40.886,0-61.55
	c9.846,0,19.568,0,29.492,0c0,1.845,0,3.457,0,5.596c-7.739,0-15.481,0-23.502,0c0,6.777,0,13.042,0,19.86c7.56,0,15.288,0,23.354,0
	c0,2.253,0,3.964,0,6.222c-7.689,0-15.429,0-23.525,0C271.885,508.07,271.885,517.667,271.885,527.827z"/>
<path fill-rule="evenodd" clip-rule="evenodd" d="M923.579,789.538c-3.365,1.21-5.871,0.295-8.229-2.392
	c-8.354-9.523-19.205-8.54-27.19-0.119c-5.323,5.613-5.121,12.256-3.82,18.941c1.378,7.078,6.423,11.123,13.129,12.981
	c6.828,1.893,12.657-0.06,17.889-4.855c2.011-1.844,4.946-2.679,7.736-3.436c-2.511,10.122-13.83,15.29-23.246,14.287
	c-13.088-1.395-20.455-9.758-21.96-20.127c-2.315-15.952,6.398-25.186,17.045-28.408
	C906.972,772.766,917.502,777.681,923.579,789.538z"/>
<path fill-rule="evenodd" clip-rule="evenodd" d="M999.245,680.808c-1.282,0-2.564,0-4.166,0c0-15.099,0-30.17,0-45.519
	c1.438,0,2.829,0,4.524,0c0.095,2.055,0.186,4.001,0.311,6.704c1.542-1.403,2.687-2.46,3.847-3.499
	c6.271-5.614,16.327-6.881,22.402-1.339c3.345,3.052,5.883,8.408,6.305,12.955c0.93,10.041,0.289,20.228,0.289,30.617
	c-2.11,0-3.826,0-5.992,0c0-9.33,0.001-18.454,0-27.577c-0.001-8.611-3.512-13.765-9.636-14.147
	c-8.039-0.502-15.493,5.094-16.262,13.015C999.959,661.378,999.774,670.808,999.245,680.808z"/>
<path fill-rule="evenodd" clip-rule="evenodd" d="M1292.707,813.613c4.542-11.065,9.082-21.278,12.866-31.765
	c1.511-4.188,3.457-5.638,7.973-4.499c-2.973,7.378-5.865,14.733-8.894,22.032c-5.24,12.627-10.851,25.111-15.693,37.889
	c-1.601,4.223-3.784,3.982-7.399,3.364c1.15-2.356,1.919-4.535,3.17-6.39c6.601-9.788,2.538-18.89-1.363-28.202
	c-3.957-9.446-7.455-19.086-11.157-28.65c4.438-1.367,6.693-0.106,8.205,4.577c2.992,9.271,6.831,18.269,10.346,27.369
	C1291.25,810.608,1291.885,811.822,1292.707,813.613z"/>
<path fill-rule="evenodd" clip-rule="evenodd" d="M1385.764,330.224c2.292,0,3.905,0,6.459,0
	c-0.52,11.436-0.268,22.732-1.811,33.778c-0.973,6.957-7.842,12.937-16.588,13.265c-14.626,0.55-20.024-8.259-20.903-19.294
	c-0.723-9.069-0.147-18.241-0.147-27.665c2.053,0,3.765,0,5.99,0c0,9.047-0.01,17.992,0.003,26.938
	c0.011,7.318,3.179,11.883,9.676,13.996c5.546,1.804,11.728-0.271,15.254-5.926c1.443-2.314,1.9-5.53,1.979-8.359
	C1385.918,348.171,1385.764,339.375,1385.764,330.224z"/>
<path fill-rule="evenodd" clip-rule="evenodd" d="M1689.764,330.237c2.319,0,3.929,0,6.463,0
	c-0.521,11.444-0.156,22.767-1.854,33.77c-1.106,7.168-6.669,13.353-17.588,13.065c-11.693-0.308-17.164-4.278-18.942-15.847
	c-0.996-6.476-0.818-13.138-1.055-19.72c-0.131-3.629-0.023-7.266-0.023-11.196c2.057,0,3.771,0,6,0
	c0,9.036-0.011,17.976,0.003,26.916c0.014,8.784,5.404,14.718,13.392,14.775c7.408,0.054,13.554-6.724,13.596-15.091
	C1689.798,348.125,1689.764,339.34,1689.764,330.237z"/>
<path fill-rule="evenodd" clip-rule="evenodd" d="M444.764,635.248c2.051,0,3.658,0,5.364,0c0,8.627,0.012,17.327-0.004,26.027
	c-0.012,6.688-2.019,12.476-7.173,17.095c-8.55,7.661-25.558,3.56-29.15-7.329c-1.155-3.502-1.818-7.293-1.948-10.979
	c-0.286-8.124-0.089-16.265-0.089-24.726c2.016,0,3.727,0,6,0c0,9.458-0.014,18.898,0.005,28.34
	c0.013,6.037,5.052,11.926,10.493,12.322c9.005,0.655,14.542-2.807,15.425-10.407c0.777-6.695,0.8-13.482,1.056-20.232
	C444.868,642.069,444.764,638.769,444.764,635.248z"/>
<path fill-rule="evenodd" clip-rule="evenodd" d="M986.763,330.163c2.194,0,3.808,0,5.005,0c0,11.354,0.688,22.602-0.229,33.717
	c-0.675,8.189-7.953,12.807-16.34,13.22c-6.73,0.332-12.562-0.858-16.447-6.735c-1.656-2.504-3.484-5.398-3.727-8.244
	c-0.895-10.508-1.159-21.069-1.673-31.877c2.473,0,4.083,0,6.411,0c0,7.343-0.1,14.773,0.046,22.199
	c0.063,3.257,0.46,6.53,0.996,9.749c1.03,6.19,8.469,10.326,14.157,9.768c6.507-0.64,11.724-6.12,11.777-12.318
	C986.826,349.998,986.763,340.354,986.763,330.163z"/>
<path fill-rule="evenodd" clip-rule="evenodd" d="M880.282,26.189c2.633,0,4.244,0,6.482,0c0,8.989-0.007,17.92,0.002,26.851
	c0.009,8.375,5.244,13.551,13.123,14.072c6.571,0.435,14.152-5.64,13.93-13.88c-0.242-8.937-0.055-17.884-0.055-27.021
	c2.114,0,3.726,0,6.543,0c-0.617,11.199-0.55,22.44-2.068,33.463c-1.15,8.344-10.035,14.037-19.627,13.358
	c-8.542-0.604-15.967-6.932-16.747-15.595C880.948,47.258,880.795,37.009,880.282,26.189z"/>
<path fill-rule="evenodd" clip-rule="evenodd" d="M1551.764,483.09c2.267,0,3.758,0,6.005,0
	c-0.689,12.016,1.792,24.051-2.067,35.819c-1.941,5.919-7.969,9.994-14.307,10.106c-6.631,0.118-13.854,1.053-17.695-5.856
	c-2.456-4.42-4.258-9.629-4.723-14.635c-0.765-8.234-0.207-16.591-0.207-25.205c2.041,0,3.757,0,5.994,0
	c0,8.855,0.216,17.648-0.054,26.426c-0.346,11.304,10.599,16.57,18.76,13.284c5.216-2.101,8.229-6.219,8.276-12.647
	C1551.813,501.422,1551.764,492.461,1551.764,483.09z"/>
<path fill-rule="evenodd" clip-rule="evenodd" d="M736.83,339.195c-1.956,2.478-2.918,3.653-6.067,0.714
	c-6.026-5.623-13.634-7.49-21.655-3.962c-7.308,3.215-11.132,9.137-11.267,17.012c-0.137,8.002,4.275,13.849,10.996,17.361
	c5.96,3.115,12.354,2.668,18.098-1.371c1.953-1.373,3.791-2.909,6.093-4.688c0.792,0.511,2.112,1.361,3.463,2.231
	c-3.906,8.406-14.85,12.716-26.589,10.466c-8.344-1.599-17.236-12.393-18.128-22.001c-0.931-10.029,6.377-21.065,16.689-24.77
	C717.38,326.982,731.28,329.358,736.83,339.195z"/>
<path fill-rule="evenodd" clip-rule="evenodd" d="M948.28,680.833c-1.354,0-2.638,0-4.219,0c0-15.164,0-30.227,0-45.555
	c1.472,0,2.858,0,4.538,0c0.12,2.236,0.233,4.319,0.395,7.309c1.296-1.194,2.172-1.769,2.74-2.562
	c4.302-6.017,15.979-8.092,22.295-4.331c4.866,2.897,7.33,7.358,7.571,12.417c0.514,10.763,0.157,21.566,0.157,32.612
	c-1.771,0-3.152,0-4.993,0c0-6.795,0.125-13.419-0.044-20.035c-0.113-4.428-0.407-8.879-1.046-13.257
	c-0.868-5.958-8.554-10.403-14.439-8.137c-6.822,2.627-11.379,6.956-11.541,15.765C949.538,663.465,948.796,671.861,948.28,680.833z
	"/>
<path fill-rule="evenodd" clip-rule="evenodd" d="M903.764,178.21c1.916,0,3.206,0,4.825,0c0.113,2.261,0.218,4.351,0.386,7.692
	c1.696-1.774,2.651-2.856,3.691-3.85c5.666-5.413,12.646-7.096,19.515-4.016c6.932,3.107,10.019,9.381,9.669,17.377
	c-0.391,8.975-0.113,17.979-0.142,26.969c-0.001,0.313-0.151,0.627-0.333,1.333c-1.266,0.082-2.648,0.171-4.048,0.262
	c-0.232-0.731-0.503-1.19-0.505-1.649c-0.04-7.826,0.269-15.67-0.188-23.47c-0.24-4.11-0.802-8.802-2.962-12.084
	c-5.687-8.64-16.951-5.537-21.654,3.362c-2.455,4.646-2.655,10.657-3.144,16.117c-0.501,5.606-0.111,11.291-0.111,17.339
	c-1.545,0.171-2.933,0.324-5,0.553c0-7.929,0-15.535,0-23.141C903.764,193.536,903.764,186.067,903.764,178.21z"/>
<path fill-rule="evenodd" clip-rule="evenodd" d="M245.79,339.274c-1.868,2.13-2.749,3.914-5.973,0.679
	c-5.61-5.63-13.194-7.347-20.773-4.52c-7.061,2.634-11.482,8.473-12.066,15.936c-0.546,6.974,2.136,13.369,8.304,17.355
	c6.123,3.958,12.696,5.135,19.348,0.932c2.058-1.3,3.94-2.936,6.114-3.973c1.116-0.532,2.699-0.083,4.071-0.077
	c-0.125,1.407,0.275,3.594-0.463,4.091c-3.84,2.587-7.735,6.019-12.043,6.812c-13.421,2.473-25.139-1.261-29.835-16.465
	c-2.794-9.044-0.639-17.814,6.355-24.436c6.729-6.369,14.964-8.301,24.11-5.67C238.241,331.464,243.028,333.556,245.79,339.274z"/>
<path fill-rule="evenodd" clip-rule="evenodd" d="M1237.314,635.27c2.244,0,3.626,0,5.45,0c0,1.839-0.052,3.472,0.009,5.1
	c0.315,8.43,0.579,16.863,1.025,25.286c0.282,5.337,6.475,9.89,12.448,10.457c7.16,0.679,13.311-5.28,13.537-10.658
	c0.418-9.905,0.969-19.805,1.49-30.229c1.438-0.065,3.158-0.145,5.884-0.269c-0.45,8.567-0.652,16.786-1.401,24.954
	c-0.41,4.478-1.041,9.177-2.815,13.231c-3.135,7.165-10.772,10.194-19.649,8.83c-7.9-1.215-13.723-6.419-14.425-14.307
	C1237.917,656.999,1237.8,646.257,1237.314,635.27z"/>
<path fill-rule="evenodd" clip-rule="evenodd" d="M404.937,178.728c-8.606,20.67-17.214,41.34-25.861,62.105
	c-1.867,0-3.803,0-5.914,0c1.764-4.43,2.923-8.974,5.254-12.805c3.352-5.508,2.729-10.308,0.1-15.845
	c-5.227-11.003-9.881-22.277-14.802-33.51c4.941-2.365,6.531,0.732,8.004,4.254c4.014,9.601,8.094,19.174,12.667,29.985
	c3.075-6.996,5.773-12.945,8.31-18.964c1.893-4.488,3.257-9.234,5.518-13.516c0.836-1.584,3.562-2.169,5.427-3.209
	C404.071,177.726,404.504,178.227,404.937,178.728z"/>
<path fill-rule="evenodd" clip-rule="evenodd" d="M309.272,635.251c4.106-0.988,6.092,0.312,7.698,4.527
	c3.751,9.839,8.401,19.336,13.125,29.955c4.485-10.612,8.898-20.128,12.475-29.948c1.545-4.241,3.551-5.556,7.993-4.431
	c-3.291,7.969-6.558,15.893-9.836,23.812c-4.666,11.269-9.358,22.526-14.003,33.804c-1.372,3.331-2.741,6.527-7.956,4.448
	c2.288-5.655,4.798-11.341,6.834-17.19c0.67-1.925,0.766-4.544,0.012-6.391C320.33,660.908,314.753,648.098,309.272,635.251z"/>
<path fill-rule="evenodd" clip-rule="evenodd" d="M1346.628,240.619c2.133-5.447,3.677-11.013,6.424-15.902
	c2.282-4.062,0.854-7.057-0.63-10.502c-5.148-11.947-10.232-23.922-15.328-35.857c4.043-1.278,6.022,0.121,7.544,3.955
	c3.953,9.961,8.43,19.715,13.146,30.585c1.878-4.34,3.459-7.932,4.99-11.544c2.92-6.891,5.561-13.917,8.883-20.605
	c0.864-1.74,3.817-2.443,5.812-3.622c0.307,0.4,0.613,0.802,0.92,1.202c-5.206,12.547-10.422,25.09-15.613,37.644
	c-3.045,7.363-6.188,14.69-9.015,22.138C1352.333,241.869,1349.758,241.131,1346.628,240.619z"/>
<path fill-rule="evenodd" clip-rule="evenodd" d="M842.436,517.709c4.104-9.998,7.586-18.937,11.459-27.703
	c1.555-3.52,2.134-9.053,8.803-6.491c-4.149,10.162-8.255,20.384-12.495,30.549c-3.886,9.314-8.333,18.419-11.703,27.911
	c-1.619,4.56-4.069,4.301-7.69,3.698c2.075-5.129,3.507-10.424,6.233-14.936c3.046-5.041,1.364-9.086-0.636-13.579
	c-4.954-11.137-9.76-22.34-14.679-33.638c3.66-1.221,5.896-0.625,7.423,3.15C833.175,496.626,837.576,506.429,842.436,517.709z"/>
<path fill-rule="evenodd" clip-rule="evenodd" d="M1398.232,26.402c5.421-2.127,6.903,1.771,8.462,5.485
	c3.892,9.265,7.754,18.542,12.158,29.084c5.164-12.387,9.78-23.461,14.496-34.775c1.753,0,3.716,0,6.057,0
	c-4.582,11.021-9.105,21.924-13.646,32.818c-3.44,8.256-6.914,16.497-10.35,24.755c-1.884,4.528-1.862,4.538-7.746,3.767
	c2.17-5.154,4.021-10.371,6.54-15.242c1.632-3.156,1.361-5.519-0.062-8.684C1408.606,51.296,1403.489,38.794,1398.232,26.402z"/>
<path fill-rule="evenodd" clip-rule="evenodd" d="M496.532,680.579c-4.769,1.303-7.42-0.219-9.561-3.863
	c-2.961-5.043-6.444-9.779-10.286-15.517c-4.688,6.709-9.094,13.016-13.721,19.641c-1.548,0-3.521,0-6.371,0
	c4.423-6.561,8.219-12.987,12.83-18.762c3.358-4.206,3.217-7.21-0.113-11.261c-3.879-4.718-7.02-10.043-10.537-15.188
	c5.122-2.23,7.681,0.66,9.987,4.294c2.349,3.703,4.809,7.335,7.554,11.505c2.999-4.043,6.296-7.42,8.278-11.444
	c2.154-4.373,4.914-5.88,9.851-4.632c-3.992,5.777-7.609,11.743-11.989,17.085c-2.767,3.374-1.723,5.375,0.4,8.271
	C487.559,667.12,491.901,673.8,496.532,680.579z"/>
<path fill-rule="evenodd" clip-rule="evenodd" d="M1656.78,162.468c-4.875,8.584-9.315,17.085-14.446,25.146
	c-2.524,3.965-3.768,7.791-3.632,12.427c0.228,7.785,0.062,15.583,0.062,23.662c-2.079,0-3.794,0-6,0
	c0-6.744-0.667-13.444,0.158-19.954c1.198-9.448-4.113-16.128-8.315-23.388c-3.478-6.008-7.076-11.943-10.651-17.961
	c5.118-1.458,7.502,0.467,9.615,4.748c3.354,6.793,7.676,13.107,12.009,20.325c4.318-7.356,8.612-14.071,12.259-21.121
	C1649.838,162.487,1652.187,160.962,1656.78,162.468z"/>
<path fill-rule="evenodd" clip-rule="evenodd" d="M689.436,809.17c2.485,0,4.111,0,5.711,0c1.838,4.517,3.79,9.171,9.234,9.738
	c8.688,0.906,11.77-1.829,12.237-12.372c0.598-13.462,0.146-26.97,0.146-40.458c0-1.81,0-3.618,0-5.748c2.025,0,3.737,0,6,0
	c0,14.146,0.064,28.256-0.045,42.363c-0.027,3.586-0.323,7.222-0.999,10.738c-1.222,6.358-6.988,11.11-13.485,11.565
	c-7.864,0.552-14.957-3.349-17.275-9.644C690.297,813.557,690.025,811.617,689.436,809.17z"/>
<path fill-rule="evenodd" clip-rule="evenodd" d="M420.773,483.209c-8.105,13.236-15.968,26.075-24.242,39.588
	c8.186,0,15.998,0,24.005,0c0,1.95,0,3.229,0,4.856c-10.776,0-21.611,0-33.325,0c8.208-13.598,16.109-26.688,24.539-40.654
	c-7.392,0-13.505-0.08-19.614,0.036c-2.78,0.053-4.13-0.649-2.88-3.826C399.5,483.209,409.749,483.209,420.773,483.209z"/>
<path fill-rule="evenodd" clip-rule="evenodd" d="M867.76,9.412c0,17.213,0.265,34.161-0.099,51.097
	c-0.222,10.33-11.68,15.744-22.076,10.771c-2.458-1.176-4.623-2.967-7.168-4.636c1.105-1.695,1.967-3.017,3.06-4.692
	c1.776,0.89,3.698,1.673,5.431,2.759c3.169,1.986,5.969,4.044,10.147,1.742c4.257-2.345,4.712-5.897,4.711-9.955
	c-0.005-14.134,0.113-28.269-0.072-42.4C861.639,9.852,863,8.163,867.76,9.412z"/>
<path fill-rule="evenodd" clip-rule="evenodd" d="M1837.764,314.182c2.161,0,3.773,0,6,0c0,3.356,0,6.634,0,9.912
	c0,13.317,0.018,26.635-0.009,39.953c-0.011,5.11-4.323,11.694-8.368,12.925c-6.591,2.004-15.982-0.167-18.733-4.836
	c-0.8-1.356,0.118-3.727,0.305-6.445c3.247,2.002,5.53,3.363,7.768,4.798c6.788,4.351,12.898-0.58,12.984-7.839
	c0.177-14.813,0.054-29.631,0.054-44.447C1837.764,317.051,1837.764,315.899,1837.764,314.182z"/>
<path fill-rule="evenodd" clip-rule="evenodd" d="M216.413,675.867c0.947-1.801,1.76-3.347,2.696-5.127
	c1.691,1.003,3.119,1.736,4.423,2.645c3.229,2.25,6.408,4.67,10.63,2.48c4.515-2.341,5.511-6.63,5.555-11.106
	c0.13-13.322,0.047-26.646,0.047-39.969c0-1.796,0-3.591,0-5.573c2.108,0,3.722,0,6,0c0,2.589,0,5.194,0,7.8
	c0,12.49,0.217,24.986-0.127,37.467c-0.108,3.94-0.822,8.394-2.829,11.642c-4.332,7.014-15.771,8.099-22.521,2.87
	C219.133,678.101,218.015,677.162,216.413,675.867z"/>
<path fill-rule="evenodd" clip-rule="evenodd" d="M1508.918,335.052c-1.133,1.259-2.209,2.457-3.281,3.648
	c-4.057-1.738-7.087-6.333-12.283-3.604c-4.065,2.137-5.176,7.018-1.775,10.056c2.891,2.582,6.241,4.763,9.66,6.618
	c9.487,5.147,9.798,16.293,2.686,22.613c-5.413,4.811-14.718,3.544-21.234-3.228c0.73-1.325,1.497-2.717,2.467-4.475
	c2.004,1.334,3.71,2.489,5.436,3.616c4.357,2.845,8.816,1.976,11.586-2.242c2.477-3.773,1.317-8.161-2.924-10.869
	c-2.744-1.751-5.401-3.708-8.323-5.095c-8.401-3.987-8.766-18.096,0.213-22.088c3.633-1.615,9.853-1.253,13.857,1.781
	C1506.274,332.75,1507.459,333.83,1508.918,335.052z"/>
<path fill-rule="evenodd" clip-rule="evenodd" d="M788.989,215.647c5.202,1.397,8.824,3.021,12.475,3.09
	c1.973,0.037,5.071-2.213,5.715-4.098c0.756-2.21,0.275-5.956-1.234-7.586c-2.694-2.908-6.456-4.912-9.963-6.966
	c-7.891-4.622-10.146-15.36-0.641-22.148c4.233-3.022,12.64-0.689,17.352,4.91c-1.218,3.376-3.21,3.442-5.975,1.612
	c-4.949-3.276-9.631-2.905-11.6,0.736c-1.976,3.653,0.088,8.07,5.057,10.886c2.411,1.367,4.976,2.546,7.159,4.217
	c4.248,3.248,7.431,7.438,6.306,13.08c-1.062,5.326-4.145,9.9-9.593,11.329c-5.452,1.429-10.916,0.134-14.922-4.127
	C788.202,219.6,788.989,217.009,788.989,215.647z"/>
<path fill-rule="evenodd" clip-rule="evenodd" d="M1353.59,760.212c2.449,0,4.062,0,6.174,0c0,3.976,0.259,7.783-0.068,11.541
	c-0.373,4.29,1.369,5.761,5.44,5.279c1.624-0.192,3.29-0.031,5.294-0.031c0.123,1.622,0.228,3.007,0.373,4.934
	c-3.729,0-7.135,0-11.027,0c0,14.218,0,27.935,0,41.85c-2.116,0-3.729,0-5.838,0c0-13.691,0-27.413,0-41.659
	c-3.534,0-6.604,0-9.903,0c0-1.911,0-3.294,0-5.02c3.139,0,6.083,0,9.556,0C1353.59,771.388,1353.59,765.993,1353.59,760.212z"/>
<path fill-rule="evenodd" clip-rule="evenodd" d="M1325.722,777.142c0-5.962,0-11.231,0-16.812c2.07,0,3.785,0,6.042,0
	c0,3.807,0.244,7.609-0.065,11.367c-0.345,4.194,1.219,5.856,5.381,5.338c1.625-0.203,3.296-0.033,5.316-0.033
	c0.146,1.58,0.274,2.967,0.453,4.896c-3.728,0-7.132,0-11.036,0c0,14.213,0,27.928,0,41.866c-2.113,0-3.722,0-5.832,0
	c0-13.64,0-27.356,0-41.6c-3.534,0-6.602,0-9.926,0c0-1.908,0-3.29,0-5.021C1319.13,777.142,1322.075,777.142,1325.722,777.142z"/>
<path fill-rule="evenodd" clip-rule="evenodd" d="M1145.939,823.8c-2.436,0-4.05,0-6.16,0c0-13.901,0-27.619,0-41.688
	c-3.427,0-6.359,0-9.651,0c-0.146-1.713-0.264-3.098-0.427-5.02c3.396,0,6.466,0,10.049,0c0-5.892,0-11.299,0-16.883
	c2.132,0,3.744,0,6.015,0c0,3.765,0.273,7.557-0.07,11.292c-0.414,4.498,1.38,6.083,5.689,5.533
	c1.607-0.205,3.263-0.033,5.121-0.033c0,1.804,0,3.187,0,4.916c-3.502,0-6.778,0-10.565,0
	C1145.939,795.961,1145.939,809.671,1145.939,823.8z"/>
<path fill-rule="evenodd" clip-rule="evenodd" d="M1783.986,334.45c-1.898,4.063-3.82,3.365-6.603,1.888
	c-2.154-1.144-5.178-1.755-7.507-1.231c-4.836,1.085-6.355,6.207-2.762,9.549c3.798,3.53,8.321,6.287,12.572,9.319
	c4.037,2.88,6.031,8.319,4.646,12.955c-1.955,6.548-5.969,10.361-11.593,9.949c-3.784-0.277-7.763-1.15-11.142-2.805
	c-3.495-1.712-4.146-4.654,0.022-7.021c1.925,1.276,3.722,2.706,5.723,3.744c4.491,2.331,8.254,1.202,10.457-2.919
	c2.382-4.458,1.221-8.234-3.099-10.915c-3.595-2.23-7.333-4.37-10.482-7.145c-4.702-4.144-5.62-10.522-2.784-14.937
	c3.545-5.52,10.424-7.608,16.479-4.712C1780.073,331.202,1781.891,332.944,1783.986,334.45z"/>
<path fill-rule="evenodd" clip-rule="evenodd" d="M1044.76,487.601c-1.47,1.332-2.672,2.42-3.708,3.358
	c-2.356-1.426-4.321-2.921-6.521-3.877c-3.591-1.56-6.685,0.168-8.192,3.134c-1.388,2.729-1.243,5.945,2.082,8.124
	c4.092,2.682,8.077,5.55,11.923,8.573c4.565,3.589,5.616,8.535,3.428,14.449c-1.7,4.593-6.242,7.464-11.477,7.68
	c-5.401,0.223-10.217-0.611-13.626-6.133c0.985-1.1,2.146-2.396,3.304-3.688c7.154,5.811,10.75,6.285,14.998,2.078
	c3.547-3.514,3.524-7.189-0.45-10.287c-3.075-2.397-6.401-4.514-9.776-6.479c-7.812-4.55-7.189-14.993-3.679-19.213
	c4.882-5.865,13.266-5.668,20.01,0.523C1043.563,486.292,1043.996,486.799,1044.76,487.601z"/>
<path fill-rule="evenodd" clip-rule="evenodd" d="M591.827,218.431c1.26-1.202,2.447-2.335,3.074-2.935
	c3.442,1.292,6.315,2.734,9.359,3.424c4.258,0.964,7.275-1.587,8.305-5.258c1.037-3.698-0.479-6.949-4.353-8.957
	c-3.311-1.717-6.437-3.886-9.384-6.188c-5.736-4.479-6.718-11.518-2.731-17.262c3.506-5.053,13.221-5.849,17.299-2.158
	c1.41,1.275,3.027,2.32,4.607,3.515c-1.982,3.348-3.571,4.386-6.741,1.571c-4.714-4.185-9.335-2.853-11.824,2.465
	c-1.691,3.612,0.351,5.604,2.668,7.356c2.724,2.06,5.715,3.787,8.686,5.491c6.044,3.469,8.337,9.078,6.686,15.28
	c-0.922,3.464-4.108,7.26-7.31,8.974c-5.405,2.894-11.14,1.559-15.844-2.727C593.476,220.25,592.726,219.37,591.827,218.431z"/>
<path fill-rule="evenodd" clip-rule="evenodd" d="M1326.03,635.549c-6.67,15.212-13.254,30.229-20.322,46.349
	c-7.089-15.997-13.859-31.277-20.646-46.592c4.315-1.054,6.331,0.236,7.904,4.465c3.339,8.976,7.598,17.608,11.522,26.362
	c0.165,0.369,0.762,0.544,1.53,1.06c2.579-5.698,5.146-11.229,7.588-16.815c1.626-3.718,3.211-7.466,4.56-11.291
	C1319.413,635.551,1321.546,634.133,1326.03,635.549z"/>
<path fill-rule="evenodd" clip-rule="evenodd" d="M585.368,527.923c-6.497-14.68-12.994-29.359-19.73-44.579
	c1.938-0.149,3.626-0.279,5.676-0.437c4.751,10.714,9.472,21.359,14.658,33.055c4.59-10.326,8.875-19.391,12.623-28.672
	c1.574-3.901,3.781-5.05,7.836-3.966c-6.559,14.972-13.108,29.926-19.658,44.88C586.304,528.111,585.835,528.017,585.368,527.923z"
	/>
<path fill-rule="evenodd" clip-rule="evenodd" d="M1620.821,483.446c4.146-1.308,6.127,0.162,7.566,3.628
	c3.623,8.718,7.562,17.304,11.397,25.934c0.257,0.579,0.7,1.074,1.574,2.383c3.979-9.105,7.726-17.625,11.425-26.164
	c1.582-3.65,2.647-7.917,8.706-5.749c-6.569,14.918-13.166,29.897-20.279,46.052
	C1633.937,513.089,1627.385,498.283,1620.821,483.446z"/>
<path fill-rule="evenodd" clip-rule="evenodd" d="M800.932,680.801c-2.427,0-4.039,0-6.147,0c0-13.57,0-26.956,0-40.683
	c-2.757,0-5.024,0-7.653,0c-0.148-1.702-0.27-3.088-0.425-4.871c2.71-0.155,5.121-0.293,8.033-0.46c0-5.896,0-11.636,0-17.567
	c2.125,0,3.737,0,5.862,0c0,5.693,0,11.432,0,17.529c3.215,0.163,5.948,0.302,8.903,0.452c0,1.61,0,2.993,0,4.715
	c-2.846,0-5.456,0-8.573,0C800.932,653.622,800.932,667.001,800.932,680.801z"/>
<path fill-rule="evenodd" clip-rule="evenodd" d="M803.791,313.233c2.289,0,3.902,0,5.856,0c0,5.481,0,10.755,0,16.557
	c3.055,0,5.773,0,8.797,0c0,1.906,0,3.286,0,5.027c-2.652,0-5.263,0-8.396,0c0,13.694,0,27.062,0,40.917
	c-2.209,0.107-3.927,0.192-6.157,0.302c0-13.672,0-27.059,0-40.778c-2.735-0.146-5-0.268-7.689-0.411c0-1.448,0-2.931,0-4.776
	c2.36,0,4.638,0,7.59,0C803.791,324.221,803.791,318.687,803.791,313.233z"/>
<path fill-rule="evenodd" clip-rule="evenodd" d="M1408.808,375.772c0-13.588,0-26.841,0-40.426
	c-2.368-0.209-4.433-0.392-6.755-0.597c0-1.498,0-2.883,0-4.556c2.08-0.116,4.034-0.225,6.506-0.362c0-5.374,0-10.778,0-16.497
	c2.227,0,3.94,0,6.179,0c0,5.415,0,10.82,0,16.562c3.109,0,5.71,0,8.668,0c0.142,1.708,0.257,3.093,0.416,5.013
	c-3.062,0-5.797,0-9.028,0c0,13.881,0,27.267,0,40.863C1412.683,375.772,1411.074,375.772,1408.808,375.772z"/>
<path fill-rule="evenodd" clip-rule="evenodd" d="M632.996,182.992c-2.757,0-4.702,0-6.927,0c0-1.706,0-3.089,0-4.779
	c2.027-0.125,3.978-0.245,6.456-0.398c0-5.338,0-10.734,0-16.463c2.223,0,3.937,0,6.185,0c0,5.363,0,10.767,0,16.515
	c3.105,0,5.704,0,8.668,0c0.163,1.705,0.295,3.09,0.479,5.013c-3.062,0-5.799,0-9.034,0c0,13.877,0,27.262,0,40.876
	c-2.104,0-3.707,0-5.826,0C632.996,210.465,632.996,197.087,632.996,182.992z"/>
<path fill-rule="evenodd" clip-rule="evenodd" d="M1457.934,71.798c-2.432,0-4.045,0-6.157,0c0-13.91,0-27.635,0-41.698
	c-2.766,0-5.036,0-7.244,0c-0.609-3.604-0.609-3.604,7.223-4.569c0-5.656,0-11.399,0-17.321c2.127,0,3.739,0,6.009,0
	c0,3.935,0.242,7.888-0.064,11.798c-0.343,4.362,0.77,6.791,5.687,6.016c2.839-0.448,3.906,0.767,2.981,3.892
	c-2.691,0-5.308,0-8.434,0C1457.934,43.95,1457.934,57.668,1457.934,71.798z"/>
<path fill-rule="evenodd" clip-rule="evenodd" d="M1168.976,781.972c-3.777,0-6.719,0-9.926,0c0-1.729,0-3.113,0-4.779
	c0.932-0.069,1.727-0.17,2.523-0.182c7.189-0.108,7.189-0.104,7.19-7.427c0-2.974,0-5.947,0-9.288c1.666-0.097,3.049-0.177,5-0.289
	c0,2.273,0,4.224,0,6.174c0,0.832-0.002,1.664,0,2.496c0.021,9.204-0.779,8.342,8.28,8.334c0.655-0.001,1.31,0.08,2.356,0.149
	c0.138,1.406,0.274,2.796,0.475,4.841c-2.114,0-3.889,0-5.662,0c-1.629,0-3.257,0-5.395,0c0,14.103,0,27.825,0,41.761
	c-1.786,0-3.062,0-4.843,0C1168.976,810.126,1168.976,796.405,1168.976,781.972z"/>
<path fill-rule="evenodd" clip-rule="evenodd" d="M1299.764,7.844c0,4.537,0.306,8.371-0.076,12.136
	c-0.499,4.923,1.432,6.746,6.185,6.048c0.782-0.115,1.608,0.074,2.373,0.12c1.288,3.235-0.078,4.247-2.847,3.825
	c-4.919-0.75-5.814,1.655-5.722,6.02c0.253,11.794,0.087,23.597,0.087,35.694c-1.714,0-3.095,0-4.674,0
	c-0.108-0.674-0.299-1.306-0.301-1.938c-0.021-11.491-0.136-22.984,0.041-34.473c0.057-3.688-0.672-5.724-4.92-5.402
	c-1.137,0.086-2.391-1.378-3.59-2.129c0.229-0.478,0.458-0.954,0.687-1.432c1.117-0.104,2.255-0.394,3.349-0.277
	c3.668,0.386,4.608-1.438,4.454-4.75c-0.192-4.146-0.046-8.307-0.046-12.866C1296.293,8.244,1297.682,8.083,1299.764,7.844z"/>
<path fill-rule="evenodd" clip-rule="evenodd" d="M509.609,7.375c0,21.552,0,42.771,0,63.963c-5.554,1.025-5.83,0.843-5.836-4.476
	c-0.021-18.269,0.085-36.538-0.078-54.806C503.657,7.788,505.061,6.181,509.609,7.375z"/>
<path fill-rule="evenodd" clip-rule="evenodd" d="M785.094,760.21c1.938,0,3.553,0,5.417,0c0,21.259,0,42.316,0,63.579
	c-1.859,0-3.473,0-5.417,0C785.094,802.734,785.094,781.676,785.094,760.21z"/>
<path fill-rule="evenodd" clip-rule="evenodd" d="M1393.5,680.776c-1.824,0-3.438,0-5.396,0c0-21.016,0-42.073,0-63.45
	c1.698,0,3.413,0,5.396,0C1393.5,638.442,1393.5,659.5,1393.5,680.776z"/>
<path fill-rule="evenodd" clip-rule="evenodd" d="M1405.091,617.213c1.947,0,3.561,0,5.42,0c0,21.263,0,42.32,0,63.579
	c-1.864,0-3.479,0-5.42,0C1405.091,659.727,1405.091,638.669,1405.091,617.213z"/>
<path fill-rule="evenodd" clip-rule="evenodd" d="M1968.615,330.373c0.109,1.757,0.21,3.354,0.272,4.367
	c3.773-1.912,7.442-4.115,11.386-5.571c1.279-0.472,3.281,1.016,4.953,1.606c-1.744,1.408-3.478,3.989-5.235,4.007
	c-5.406,0.054-8.062,3.354-9.03,7.526c-1.353,5.83-1.741,11.921-2.129,17.927c-0.327,5.09-0.067,10.217-0.067,15.538
	c-2.082,0-3.691,0-5.65,0c0-14.974,0-30.003,0-45.4C1964.86,330.373,1966.714,330.373,1968.615,330.373z"/>
<path fill-rule="evenodd" clip-rule="evenodd" d="M552.021,178.187c1.867,0,3.479,0,5.468,0c0.185,1.55,0.365,3.068,0.657,5.528
	c4.295-5.291,8.846-8.276,15.774-6.15c-0.603,1.672-1.218,3.377-1.801,4.993c-6.988-0.828-12.863,4.125-13.312,11.161
	c-0.516,8.078-0.723,16.177-1.033,24.268c-0.069,1.805-0.01,3.615-0.01,5.71c-2.069,0-3.784,0-5.743,0
	C552.021,208.508,552.021,193.437,552.021,178.187z"/>
<path fill-rule="evenodd" clip-rule="evenodd" d="M1775.104,178.195c1.925,0,3.557,0,5.406,0c0.165,1.597,0.313,3.036,0.591,5.72
	c4.383-5.15,8.85-8.855,15.611-6.368c-0.793,2.668-0.269,6.019-5.433,4.673c-3.404-0.887-9.189,6.336-9.473,11.197
	c-0.479,8.249-0.721,16.512-1.033,24.77c-0.067,1.789-0.01,3.584-0.01,5.59c-2.091,0-3.705,0-5.66,0
	C1775.104,208.749,1775.104,193.679,1775.104,178.195z"/>
<path fill-rule="evenodd" clip-rule="evenodd" d="M1530.099,26.17c1.952,0,3.594,0,5.441,0c0.154,1.514,0.295,2.888,0.503,4.931
	c4.583-4.798,8.838-9.042,16.083-5.285c-0.852,1.504-1.69,2.984-2.514,4.438c-6.492-0.773-10.464,1.219-11.691,7.461
	c-1.383,7.032-1.623,14.306-2.107,21.491c-0.276,4.108-0.05,8.25-0.05,12.575c-2.101,0-3.715,0-5.665,0
	C1530.099,56.733,1530.099,41.662,1530.099,26.17z"/>
<path fill-rule="evenodd" clip-rule="evenodd" d="M37.938,375.798c0-15.329,0-30.241,0-45.474c1.861,0,3.586,0,5.61,0
	c0.121,1.563,0.243,3.155,0.341,4.435c2.447-1.613,4.783-3.764,7.538-4.788c2.453-0.913,5.369-0.579,8.406-0.821
	c-0.685,4.535-2.19,6.12-5.794,5.937c-4.227-0.215-7.401,2.166-8.141,6.242c-1.104,6.079-1.682,12.28-2.067,18.455
	c-0.328,5.258-0.068,10.553-0.068,16.015C41.642,375.798,40.034,375.798,37.938,375.798z"/>
<path fill-rule="evenodd" clip-rule="evenodd" d="M341.083,178.176c1.937,0,3.567,0,5.479,0c0.118,1.729,0.226,3.312,0.334,4.896
	c2.323-1.858,4.328-4.265,6.887-5.284c2.593-1.033,5.732-0.695,9.757-1.06c-1.414,2.702-2.335,4.46-3.265,6.235
	c-5.361-2.967-12.177,4.32-12.481,10.098c-0.425,8.067-0.711,16.143-1.017,24.217c-0.08,2.113-0.012,4.231-0.012,6.529
	c-2.139,0-3.751,0-5.682,0C341.083,208.716,341.083,193.669,341.083,178.176z"/>
<path fill-rule="evenodd" clip-rule="evenodd" d="M321.585,178.216c0.122,1.506,0.228,2.808,0.393,4.846
	c4.436-4.743,9.229-7.498,16.128-5.496c-0.981,1.868-1.906,3.627-2.813,5.354c-5.213-1.493-9.688,0.945-11.438,6.658
	c-1.13,3.689-1.842,7.617-2,11.469c-0.307,7.445-0.09,14.912-0.09,22.656c-2.079,0-3.793,0-5.756,0c0-15.19,0-30.246,0-45.487
	C318.006,178.216,319.768,178.216,321.585,178.216z"/>
<path fill-rule="evenodd" clip-rule="evenodd" d="M941.089,483.173c1.973,0,3.613,0,5.452,0c0.156,1.508,0.297,2.87,0.481,4.66
	c4.845-3.7,8.468-9.811,16.542-4.7c-1.895,1.45-3.338,3.422-5.071,3.724c-5.88,1.023-9.547,3.688-10.608,9.658
	c-0.828,4.662-0.936,9.476-1.081,14.23c-0.172,5.615-0.04,11.24-0.04,17.049c-2.121,0-3.734,0-5.675,0
	C941.089,513.047,941.089,498.313,941.089,483.173z"/>
<path fill-rule="evenodd" clip-rule="evenodd" d="M1164.092,483.166c1.929,0,3.568,0,5.447,0c0.146,1.502,0.278,2.87,0.302,3.113
	c3.876-1.741,7.73-3.729,11.793-5.104c0.922-0.312,2.562,1.498,3.871,2.331c-1.221,1.162-2.284,3.07-3.688,3.365
	c-8.187,1.721-12.015,6.051-12.046,14.396c-0.033,8.777-0.008,17.555-0.008,26.526c-2.116,0-3.729,0-5.672,0
	C1164.092,513.064,1164.092,498.339,1164.092,483.166z"/>
<path fill-rule="evenodd" clip-rule="evenodd" d="M1466.765,823.791c-1.943,0-3.226,0-4.753,0c0-15.578,0-30.961,0-46.561
	c1.585,0,3.003,0,4.548,0c0.128,1.452,0.242,2.75,0.323,3.679c3.908-2.042,7.943-4.15,12.651-6.61c0,3.066,0,4.983,0,6.938
	c-10.091,3.231-12.538,6.82-12.746,19.331C1466.662,808.183,1466.765,815.801,1466.765,823.791z"/>
<path fill-rule="evenodd" clip-rule="evenodd" d="M729.086,7.211c1.614,0,2.898,0,4.429,0c0,21.459,0,42.725,0,64.412
	c-1.302,0.142-2.689,0.293-4.429,0.482C729.086,50.4,729.086,29,729.086,7.211z"/>
<path fill-rule="evenodd" clip-rule="evenodd" d="M932.088,7.208c1.61,0,2.897,0,4.425,0c0,21.457,0,42.722,0,64.413
	c-1.295,0.143-2.681,0.295-4.425,0.487C932.088,50.406,932.088,29.005,932.088,7.208z"/>
<path fill-rule="evenodd" clip-rule="evenodd" d="M170.089,312.208c1.606,0,2.89,0,4.424,0c0,21.122,0,42.054,0,63.413
	c-1.293,0.144-2.681,0.297-4.424,0.49C170.089,354.742,170.089,333.675,170.089,312.208z"/>
<path fill-rule="evenodd" clip-rule="evenodd" d="M700.439,680.795c-1.608,0-2.895,0-4.424,0c0-21.122,0-42.054,0-63.413
	c1.294-0.144,2.682-0.297,4.424-0.489C700.439,638.262,700.439,659.329,700.439,680.795z"/>
<path fill-rule="evenodd" clip-rule="evenodd" d="M363.502,527.78c-1.495,0-2.774,0-4.399,0c0-20.683,0-41.413,0-62.455
	c1.369,0,2.751,0,4.399,0C363.502,486.105,363.502,506.838,363.502,527.78z"/>
<path fill-rule="evenodd" clip-rule="evenodd" d="M745.091,26.213c1.947,0,3.561,0,5.419,0c0,15.264,0,30.321,0,45.58
	c-1.862,0-3.475,0-5.419,0C745.091,56.727,745.091,41.669,745.091,26.213z"/>
<path fill-rule="evenodd" clip-rule="evenodd" d="M1195.435,375.792c-1.942,0-3.555,0-5.418,0c0-15.261,0-30.317,0-45.579
	c1.861,0,3.475,0,5.418,0C1195.435,345.271,1195.435,360.329,1195.435,375.792z"/>
<path fill-rule="evenodd" clip-rule="evenodd" d="M186.04,330.241c1.782,0,3.391,0,5.365,0c0,14.981,0,30.033,0,45.422
	c-1.653,0-3.369,0-5.365,0C186.04,360.591,186.04,345.533,186.04,330.241z"/>
<path fill-rule="evenodd" clip-rule="evenodd" d="M620.398,527.828c-1.848,0-3.46,0-5.354,0c0-14.89,0-29.614,0-44.579
	c1.771,0,3.378,0,5.354,0C620.398,497.884,620.398,512.599,620.398,527.828z"/>
<path fill-rule="evenodd" clip-rule="evenodd" d="M380.437,527.79c-1.949,0-3.564,0-5.419,0c0-14.93,0-29.653,0-44.58
	c1.864,0,3.478,0,5.419,0C380.437,497.942,380.437,512.667,380.437,527.79z"/>
<path fill-rule="evenodd" clip-rule="evenodd" d="M583.451,223.78c-1.646,0-2.927,0-4.446,0c0-15.138,0-30.07,0-45.413
	c1.332-0.136,2.718-0.276,4.446-0.452C583.451,193.292,583.451,208.36,583.451,223.78z"/>
<path fill-rule="evenodd" clip-rule="evenodd" d="M523.441,375.793c-1.611,0-2.895,0-4.427,0c0-15.123,0-30.056,0-45.413
	c1.297-0.143,2.683-0.294,4.427-0.485C523.441,345.264,523.441,360.332,523.441,375.793z"/>
<path fill-rule="evenodd" clip-rule="evenodd" d="M1433.764,750.001c0,4.49-3.861,8.921-7.842,8.998
	c-4.848,0.094-9.141-4.109-9.156-8.965c-0.016-4.737,3.986-9.015,8.449-9.032C1430.822,740.98,1433.764,744.079,1433.764,750.001z
	 M1431.42,749.634c-2.737-2.084-4.663-4.582-5.965-4.291c-1.775,0.397-3.073,2.922-4.576,4.534c1.511,1.373,2.963,3.743,4.549,3.837
	C1427,753.807,1428.707,751.604,1431.42,749.634z"/>
<path fill-rule="evenodd" clip-rule="evenodd" d="M1505.763,8.635c-0.044,5.255-3.729,9.334-8.456,9.362
	c-4.928,0.029-8.646-4.226-8.542-9.773c0.087-4.662,4.033-8.33,8.844-8.222C1501.851,0.097,1505.8,4.279,1505.763,8.635z
	 M1503.454,8.949c-2.82-2.153-4.591-4.519-6.433-4.576c-1.366-0.042-4.08,3.052-3.921,4.499c0.191,1.734,2.623,4.151,4.413,4.48
	C1498.881,13.603,1500.76,11.064,1503.454,8.949z"/>
<path fill-rule="evenodd" clip-rule="evenodd" d="M1364.369,468.413c-5.107,4.931-10.228,5.961-15.449,3.076
	c-4.387-2.424-8.194-2.14-12.208,0.679c-0.965-1.31-1.811-2.456-2.657-3.603c2.463-3.761,9.339-6.066,13.492-3.639
	c3.671,2.146,7.468,2.875,11.763,1.401C1360.522,465.912,1362.445,467.565,1364.369,468.413z"/>
<path fill-rule="evenodd" clip-rule="evenodd" d="M1694.324,613.429c-3.364,3.898-6.247,7.729-9.678,10.982
	c-1.42,1.347-4.011,1.459-6.652,2.324C1682.204,615.292,1685.819,612.43,1694.324,613.429z"/>
<path fill-rule="evenodd" clip-rule="evenodd" d="M999.252,461.82c-5.559,2.973-6,12.788-14.993,10.995
	C988.203,462.91,991.315,460.509,999.252,461.82z"/>
<path fill-rule="evenodd" clip-rule="evenodd" d="M1198.973,315.935c-2.981,2.407-4.488,4.582-6.284,4.856
	c-2.905,0.443-4.828-1.729-4.854-4.747c-0.026-3.017,1.857-5.222,4.771-4.833C1194.405,311.451,1195.951,313.591,1198.973,315.935z"
	/>
<path fill-rule="evenodd" clip-rule="evenodd" d="M514.498,315.326c3.305-2.082,5.252-4.276,6.809-4.027
	c1.675,0.268,3.836,2.627,4.257,4.431c0.666,2.856-1.475,5.414-4.354,5.007C519.282,320.463,517.664,317.999,514.498,315.326z"/>
<path fill-rule="evenodd" clip-rule="evenodd" d="M746.678,16.708c-1.268-1.875-3.666-3.865-3.49-5.593
	c0.183-1.802,2.848-3.351,4.429-5.01c1.7,1.722,4.382,3.246,4.782,5.229c0.303,1.502-2.305,3.591-3.617,5.419
	C748.081,16.739,747.379,16.724,746.678,16.708z"/>
<path fill-rule="evenodd" clip-rule="evenodd" d="M190.075,310.328c1.195,1.949,3.501,4.04,3.274,5.806
	c-0.229,1.786-2.965,4.5-4.605,4.502c-1.623,0.001-4.521-2.861-4.542-4.496c-0.024-1.924,2.446-3.88,3.834-5.821
	C188.717,310.322,189.396,310.325,190.075,310.328z"/>
<path fill-rule="evenodd" clip-rule="evenodd" d="M659.489,622.711c-1.807,1.095-3.684,3.13-5.4,3.003
	c-1.531-0.112-4.298-3.002-4.029-3.984c0.584-2.131,2.759-3.825,4.283-5.698c1.765,1.496,3.529,2.993,5.294,4.49
	C659.587,621.251,659.538,621.982,659.489,622.711z"/>
<path fill-rule="evenodd" clip-rule="evenodd" d="M665.878,620.648c1.732-1.536,3.466-3.072,5.199-4.608
	c1.561,1.834,3.779,3.477,4.394,5.587c0.289,0.992-2.403,3.94-3.929,4.087c-1.716,0.164-3.64-1.83-5.474-2.886
	C666.005,622.101,665.942,621.375,665.878,620.648z"/>
<path fill-rule="evenodd" clip-rule="evenodd" d="M89.782,318.599c-0.129-4.646,1.249-7.109,4.469-6.379
	c1.756,0.398,4.507,3.455,4.182,4.486c-0.64,2.032-2.875,4.044-4.936,4.912C92.672,321.966,90.566,319.272,89.782,318.599z"/>
<path fill-rule="evenodd" clip-rule="evenodd" d="M82.615,317.822c-1.614,1.357-3.843,4.157-4.718,3.784
	c-2.045-0.873-4.042-3.048-4.814-5.151c-0.327-0.891,2.247-3.83,3.906-4.252C80.117,311.408,81.741,313.579,82.615,317.822z"/>
<path fill-rule="evenodd" clip-rule="evenodd" d="M619.281,463.348c0.827,1.631,2.154,3.198,2.373,4.908
	c0.413,3.22-1.629,5.393-4.672,4.521c-1.724-0.494-3.829-3.131-3.899-4.879c-0.062-1.541,2.461-3.187,3.842-4.787
	C617.709,463.19,618.496,463.269,619.281,463.348z"/>
<path fill-rule="evenodd" clip-rule="evenodd" d="M377.795,461.824c2.354,3.086,4.919,5.061,4.62,6.395
	c-0.412,1.843-3.021,4.471-4.619,4.423c-1.686-0.051-4.162-2.639-4.623-4.525C372.863,466.841,375.445,464.862,377.795,461.824z"/>
<path fill-rule="evenodd" clip-rule="evenodd" d="M582.254,158.228c1.169,1.749,3.424,3.647,3.211,5.208
	c-0.229,1.685-2.606,3.928-4.357,4.252c-1.163,0.216-3.932-2.418-4.057-3.937c-0.144-1.731,1.85-3.641,2.915-5.472
	C580.729,158.262,581.492,158.245,582.254,158.228z"/>
</svg>
