<?xml version="1.0" encoding="utf-8"?>
<!-- Generator: Adobe Illustrator 16.0.0, SVG Export Plug-In . SVG Version: 6.00 Build 0)  -->
<!DOCTYPE svg PUBLIC "-//W3C//DTD SVG 1.1//EN" "http://www.w3.org/Graphics/SVG/1.1/DTD/svg11.dtd">
<svg version="1.1" id="Lag_1" xmlns="http://www.w3.org/2000/svg" xmlns:xlink="http://www.w3.org/1999/xlink" x="0px" y="0px"
	 width="2859.588px" height="844.401px" viewBox="0 0 2859.588 844.401" enable-background="new 0 0 2859.588 844.401"
	 xml:space="preserve">
<path fill-rule="evenodd" clip-rule="evenodd" d="M559.686,748.655c4.121-8.233,8.175-16.892,12.713-25.289
	c11.579-21.428,24.395-42.105,40.056-60.805c2.891-3.451,8.15-4.882,12.234-7.379c4.701-2.875,9.14-6.237,14.036-8.706
	c2.195-1.106,5.228-0.554,7.88-0.754c-0.104,2.626,0.569,5.64-0.5,7.785c-1.496,3.004-4.304,3.312-7.558,1.28
	c-3.976-2.484-10.259-0.076-11.713,4.518c-1.808,5.708-3.25,11.569-4.344,17.458c-1.847,9.943-3.498,19.933-4.854,29.954
	c-1.317,9.75-2.159,19.563-3.211,29.35c-1,9.293-2.217,18.57-2.938,27.885c-0.711,9.182,4.145,12.174,12.605,11.099
	c2.342-0.297,4.753-0.045,7.133-0.045c0.048,0.497,0.095,0.993,0.143,1.49c-7.918,1.829-15.821,3.731-23.764,5.448
	c-2.708,0.586-5.511,0.906-8.28,0.993c-4.057,0.128-6.492-2.834-5.819-6.914c2.252-13.669,4.622-27.319,6.836-40.995
	c3.075-19.002,6.056-38.02,9.045-57.035c0.089-0.568-0.189-1.194-1.527-2.461c-6.493,9.235-13.649,18.085-19.315,27.804
	c-7.342,12.593-14.137,25.599-19.96,38.953c-4.649,10.663-7.425,22.138-11.209,33.191c-0.577,1.688-1.821,3.479-3.272,4.457
	c-2.09,1.411-4.653,2.121-7.77,3.453c0.689-31.158,0.223-61.523-10.567-90.602c-0.243-0.656-0.808-1.192-0.876-1.29
	c-3.479,11.328-6.397,22.94-10.606,34.063c-7.152,18.899-17.077,36.24-32.656,49.651c-9.437,8.123-20.686,11.335-32.917,9.569
	c-5.281-0.762-9.836-4.274-11.067-9.857c-0.908-4.117-0.875-8.585,3.128-11.82c4.16-3.363,6.957-2.864,8.733,2.241
	c5.371,15.438,19.807,14.363,31.269,4.827c16.429-13.669,25.836-31.765,32.259-51.572c3.349-10.327,5.641-21,8.248-31.558
	c0.318-1.288,0.096-3.183-0.671-4.191c-5.486-7.211-11.083-13.938-20.887-16.095c-8.802-1.937-15.758,1.048-22.275,5.834
	c-7.701,5.654-12.417,13.64-15.661,22.544c-0.41,1.126-1.331,2.065-2.6,2.695c2.749-12.777,9.236-22.955,19.528-31.034
	c7.056-5.538,14.864-8.927,23.48-9.671c15.908-1.374,26.887,6.499,33.978,20.281c5.494,10.678,8.642,22.146,10.166,33.981
	c1.112,8.637,1.381,17.381,2.107,26.07C558.77,741.338,559.297,745.203,559.686,748.655z"/>
<path fill-rule="evenodd" clip-rule="evenodd" d="M853.577,461.647c10.189,18.934,20.15,37.691,30.375,56.304
	c3.549,6.461,9.19,10.127,16.856,10.101c0.51-0.002,1.021,0.427,1.531,0.654c-0.03,0.427-0.06,0.853-0.09,1.279
	c-3.003,0-6.006,0-9.008,0c-5.998,0-12.033-0.404-17.981,0.138c-4.192,0.382-6.212-1.715-7.625-4.754
	c-4.167-8.964-8.076-18.048-12.12-27.069c-4.308-9.611-8.45-19.308-13.131-28.736c-1.151-2.319-3.844-4.566-6.31-5.37
	c-3.277-1.067-5.244,0.796-5.753,4.737c-1.504,11.646-3.601,23.214-5.246,34.843c-0.896,6.328-1.695,12.718-1.718,19.082
	c-0.005,1.369,3.353,3.447,5.467,3.977c4.025,1.009,8.271,1.136,12.383,2.558c-18.843,0-37.686,0-56.528,0
	c-0.058-0.268-0.116-0.534-0.174-0.802c4.146-0.534,8.296-1.053,12.441-1.607c2.589-0.347,5.243-0.505,7.724-1.236
	c1.099-0.324,2.437-1.744,2.655-2.863c3.115-15.993,6.391-31.966,8.946-48.052c2.463-15.505,4.124-31.136,6.173-46.707
	c0.598-4.537,1.576-9.041,1.907-13.594c0.331-4.55-1.638-6.142-6.179-5.515c-10.165,1.403-19.524,4.944-28.07,10.663
	c-5.56,3.719-11.188,7.062-14.551,13.45c-3.426,6.508-3.052,16.051,1.934,21.446c1.874,2.028,4.611,4.545,1.827,7.087
	c-2.231,2.037-5.854,4.001-8.618,3.71c-6.105-0.643-8.173-5.343-8.443-10.564c-0.786-15.133,5.434-25.812,17.796-34.285
	c14.621-10.022,30.379-15.423,48.016-15.524c9.996-0.058,20.006-0.323,29.985,0.085c8.49,0.348,16.7,2.584,23.982,7.105
	c9.341,5.801,7.617,24.863,1.578,31.271c-6.71,7.121-14.692,11.747-23.798,14.846C858.002,458.919,856.39,460.114,853.577,461.647z
	 M840.742,458.968c14.103-0.493,28.028-6.817,31.078-22.882c1.962-10.329,0.758-20.085-10.541-24.531
	c-4.43-1.743-9.552-1.691-14.333-2.591c-4.846-0.911-6.691,2.076-7.388,5.918c-2.462,13.596-4.769,27.22-6.896,40.87
	c-0.143,0.914,1.499,2.656,2.655,3.085C836.78,459.379,838.596,458.968,840.742,458.968z"/>
<path fill-rule="evenodd" clip-rule="evenodd" d="M107.45,28.203c-1.684,0.597-3.493,0.835-4.762,1.789
	c-1.639,1.233-3.663,2.84-4.102,4.633c-2.13,8.685-3.802,17.481-5.603,26.246c-1.333,6.488-2.614,12.988-4.04,20.093
	c14.812,0,28.772,0.129,42.722-0.213c1.291-0.032,3.174-2.882,3.655-4.718c4.323-16.503,7.075-33.854,17.365-47.812
	c7.867-10.67,18.551-18.855,33.057-19.602c0.747,5.69-2.674,8.961-8.021,7.144c-5.749-1.953-9.217,1.108-10.951,4.901
	c-4.347,9.508-7.822,19.435-11.278,29.321c-1.76,5.034-2.971,10.298-4.003,15.541c-2.172,11.028-4.283,22.076-5.998,33.182
	c-1.349,8.738-2.357,17.554-2.95,26.373c-0.316,4.722,0.453,9.535,0.947,14.285c0.35,3.359,2.616,4.803,5.843,4.595
	c5.3-0.342,10.59-0.826,16.176-0.531c-5.524,1.776-11.005,3.707-16.587,5.281c-4.688,1.322-9.469,2.355-14.253,3.29
	c-6.87,1.343-9.668-0.844-10.155-8.207c-0.18-2.73,0.454-5.539,0.902-8.281c2.292-14.011,4.694-28.003,6.926-42.023
	c0.358-2.248,0.05-4.602,0.05-7.505c-9.898,0-19.507,0-29.117,0c-3.833,0-7.685,0.237-11.493-0.071
	c-3.243-0.264-4.662,1.504-5.247,4.049c-3.167,13.78-8.375,26.756-16.344,38.389c-7.488,10.93-17.204,20.25-30.326,23.028
	c-9.436,1.997-19.686,1.188-29.436,0.229c-4.975-0.489-8.781-5.243-9.712-10.472c-0.678-3.809-2.008-8.732,2.529-11.275
	c2.799-1.569,6.376-2.531,9.5-2.309c1.057,0.076,2.458,4.598,2.562,7.134c0.431,10.421,8.144,16.686,17.991,14.202
	c15.018-3.786,25.261-13.997,29.812-28.166c6.149-19.143,10.48-38.88,15.284-58.438c2.056-8.37,3.408-16.918,4.921-25.414
	c0.414-2.322,0.505-4.771-3.113-4.905c-10.626-0.397-20.978-0.085-29.936,6.987c-4.599,3.63-7.792,11.247-6.351,16.976
	c0.08,0.315,0.434,0.619,0.402,0.898c-0.292,2.549-0.411,5.161-1.161,7.576c-0.156,0.503-3.636,0.833-3.983,0.265
	c-1.281-2.097-2.493-4.564-2.65-6.963c-0.817-12.501,10.144-24.077,22.308-27.708c15.725-4.693,31.823-2.684,47.805-2.799
	C106.816,27.197,106.996,27.625,107.45,28.203z"/>
<path fill-rule="evenodd" clip-rule="evenodd" d="M1796.573,776.01c-4.395,1.161-8.738,2.588-13.193,3.424
	c-7.372,1.384-14.812,2.41-22.23,3.541c-3.806,0.579-5.058-1.273-4.768-4.896c0.224-2.805,0.044-5.642,0.044-9.396
	c-8.006,2.889-15.459,5.771-23.039,8.268c-11.738,3.865-23.201,8.635-36.055,8.164c-9.918-0.362-18.289-7.474-17.711-17.94
	c0.61-11.062,2.479-22.087,4.308-33.042c2.949-17.675,6.359-35.272,9.468-52.921c0.596-3.386,0.617-6.869,1.051-10.289
	c0.485-3.837-1.588-4.812-4.897-4.976c-3.67-0.183-7.324-0.684-10.985-1.046c-0.02-0.629-0.038-1.259-0.058-1.888
	c13.203-1.364,26.406-2.729,40.793-4.215c-9.897,7.31-10.728,17.393-12.744,26.874c-2.812,13.218-5.854,26.412-7.951,39.749
	c-1.705,10.843-2.338,21.869-3.128,32.837c-0.721,10.009,8.515,19.087,18.8,18.991c10.874-0.102,20.299-4.095,30.019-7.703
	c3.049-1.133,5.86-3.015,8.969-3.855c5.367-1.45,5.436-5.818,6.14-9.9c1.884-10.923,3.78-21.844,5.51-32.791
	c1.301-8.234,2.305-16.515,3.526-24.762c1.291-8.714,2.27-17.508,4.244-26.069c0.743-3.225,3.346-6.614,6.053-8.683
	c8.551-6.529,17.36-12.781,26.521-18.407c2.152-1.322,6.093,0.144,9.154,0.664c0.236,0.04,0.416,2.911-0.067,4.209
	c-1.354,3.632-4.465,3.445-7.497,2.747c-7.812-1.798-12.144,0.789-15.724,7.77c-6.845,13.345-8.147,27.963-10.69,42.315
	c-2.362,13.331-5.005,26.63-6.754,40.043c-1.131,8.663-1.174,17.509-1.128,26.269c0.027,5.274,5.924,8.967,11.28,7.705
	c3.632-0.856,7.222-1.891,10.85-2.762c0.493-0.118,1.103,0.252,1.658,0.396C1796.417,774.958,1796.495,775.485,1796.573,776.01z"/>
<path fill-rule="evenodd" clip-rule="evenodd" d="M968.973,703.509c9.116-1.406,17.148-2.655,25.186-3.88
	c3.707-0.565,7.416-1.371,11.136-1.436c1.019-0.018,2.739,2.115,3.017,3.487c3.805,18.835,7.422,37.707,11.062,56.575
	c0.789,4.088,1.489,8.193,2.23,12.291c0.552,0.147,1.104,0.296,1.656,0.444c1.526-2.287,3.161-4.51,4.56-6.872
	c4.737-7.999,9.777-15.852,13.978-24.128c5.253-10.353,5.486-20.961-0.408-31.389c-1.316-2.33-4.489-5.327-1.151-7.584
	c3.169-2.143,7.473-3.871,11.145-3.645c3.542,0.22,4.158,4.459,4.062,7.98c-0.251,9.167,1.455,18.633-3.312,27.159
	c-3.962,7.084-8.159,14.058-12.634,20.827c-13.395,20.263-27.171,40.276-40.389,60.653c-5.054,7.791-5.813,16.518-1.851,25.41
	c-2.854,1.312-5.85,2.514-8.674,4.032c-3.943,2.12-6.686,0.693-7.172-3.803c-0.75-6.945,3.285-12.237,6.576-17.479
	c7.451-11.871,15.553-23.332,23.4-34.954c0.822-1.218,1.707-2.394,1.359-3.166c-1.438-3.692-3.326-7.277-4.236-11.096
	c-4.377-18.342-8.405-36.768-12.784-55.109c-0.658-2.757-2.03-5.694-3.96-7.689c-1.643-1.698-4.507-2.817-6.933-3.03
	c-5.123-0.448-10.312-0.137-16.271-0.137c-2.045,10.265-4.468,20.505-6.038,30.875c-1.496,9.879-2.3,19.878-3.021,29.852
	c-0.396,5.485,3.604,9.333,9.018,9.252c4.222-0.063,8.439-0.424,12.953,0.039c-1.298,0.64-2.533,1.517-3.905,1.88
	c-7.369,1.952-14.777,3.753-22.16,5.65c-6.436,1.654-10.283-0.944-9.884-7.488c0.478-7.83,1.643-15.621,2.614-23.417
	c1.032-8.273,2.014-16.561,3.341-24.79c1.139-7.057,2.734-14.039,4.203-21.428c-5.676-0.352-10.955-0.68-16.234-1.007
	c0.015-0.938,0.029-1.877,0.043-2.815c5.399-0.293,10.798-0.586,16.74-0.909c0.718-5.302,1.739-10.727,2.089-16.193
	c0.225-3.531,1.439-5.956,4.567-7.438c5.931-2.812,11.873-5.598,18.547-7.82C971.392,679.514,971.965,691.452,968.973,703.509z"/>
<path fill-rule="evenodd" clip-rule="evenodd" d="M1097.954,40.062c-9.509,6.817-8.991,17.617-11.777,27.163
	c-1.202,4.115,1.063,4.023,3.406,3.684c8.872-1.288,17.704-2.857,26.562-4.255c2.557-0.403,5.148-0.581,7.621-0.851
	c4.72,24.452,9.329,48.332,14.23,73.729c2.558-2.405,4.198-3.366,5.004-4.798c5.831-10.355,12.566-20.385,16.881-31.357
	c3.664-9.316,3.212-19.537-2.968-28.637c-0.897-1.321-0.739-4.536,0.276-5.748c2.608-3.113,6.502-5.247,10.525-3.678
	c3.886,1.516,4.338,5.577,4.793,9.531c1.595,13.869-3.125,25.817-10.551,37.056c-12.476,18.881-24.961,37.756-37.409,56.655
	c-3.566,5.413-7.012,10.907-10.529,16.354c-2.848,4.408-4.292,17.234,0.527,21.881c-3.822,1.766-7.361,3.797-11.16,5.025
	c-2.864,0.926-4.642-0.084-5.12-3.918c-0.938-7.504,3.03-13.054,6.596-18.591c8.291-12.876,17.105-25.414,24.719-36.633
	c-1.751-3.827-3.445-6.339-4.059-9.092c-2.014-9.055-3.573-18.21-5.43-27.302c-1.463-7.164-2.573-14.465-4.824-21.385
	c-2.123-6.524-5.37-12.714-8.516-18.85c-0.598-1.165-3.033-1.95-4.615-1.94c-4.589,0.028-9.203,0.355-13.746,0.997
	c-1.396,0.196-3.5,1.592-3.749,2.764c-4.187,19.682-9.773,39.179-8.255,59.667c0.41,5.535,5.912,8.766,13.08,7.394
	c2.714-0.521,5.462-0.863,8.195-1.287c0.12,0.436,0.241,0.87,0.361,1.306c-3.628,1.236-7.183,2.804-10.902,3.636
	c-6.185,1.383-12.462,2.364-18.723,3.378c-4.465,0.723-6.114-2.031-5.908-5.819c0.493-9.034,0.901-18.106,2.103-27.062
	c1.56-11.625,3.87-23.149,5.826-34.723c0.485-2.876,0.854-5.772,1.324-8.99c-5.445-0.328-10.353-0.623-15.259-0.918
	c-0.039-0.764-0.077-1.528-0.116-2.292c2.514-0.391,5.022-1.081,7.541-1.118c9.503-0.142,10.285-0.853,10.52-10.624
	c0.056-2.323,0.081-4.651,0.252-6.967c0.525-7.115,7.186-7.609,11.604-10.29c3.211-1.947,7.099-2.78,10.686-4.11
	C1097.298,39.385,1097.626,39.724,1097.954,40.062z"/>
<path fill-rule="evenodd" clip-rule="evenodd" d="M2594.979,149.954c-4.26,0.785-8.544,1.573-13.775,2.536
	c0.394-3.205,0.59-5.578,0.985-7.917c2.725-16.081,5.624-32.134,8.167-48.243c0.819-5.189,0.887-10.518,1.018-15.79
	c0.104-4.193-2.593-6.266-6.38-5.416c-5.811,1.303-12.166,2.316-16.901,5.511c-3.137,2.115-4.495,7.676-5.511,11.964
	c-2.175,9.189-3.676,18.541-5.33,27.849c-1.369,7.704-2.745,15.417-3.772,23.171c-0.788,5.948-1.851,7.283-8.527,8.327
	c-2.247,0.352-4.512,0.591-7.547,0.982c1.041-6.002,1.971-11.835,3.075-17.636c3.289-17.275,6.754-34.52,9.93-51.816
	c1.584-8.628,0.646-9.488-8.283-9.49c-2.514,0-5.027,0-7.542,0c-0.044-0.659-0.088-1.318-0.133-1.977
	c11.102-2.259,22.203-4.518,34.242-6.967c-0.519,5.13-0.887,8.765-1.256,12.411c13.243-4.091,25.356-10.969,39.822-11.717
	c0,4.31,0,8.077,0,11.979c9.669-3.514,18.874-6.963,28.162-10.168c2.581-0.891,5.401-1.414,8.127-1.479
	c4.12-0.098,6.59,3.318,5.749,7.273c-2.944,13.849-6.031,27.671-8.723,41.569c-1.15,5.94-1.701,12.028-2.098,18.077
	c-0.773,11.829,3.489,11.728,12.781,10.629c1.525-0.18,3.037-0.473,4.709,0.029c-10.433,3.593-20.435,8.7-32.92,8.367
	c0.478-5.116,0.576-9.856,1.413-14.462c2.444-13.458,5.327-26.837,7.729-40.302c0.863-4.84,1.192-9.841,1.144-14.762
	c-0.06-6.012-3.54-8.332-9.352-6.731c-3.438,0.947-6.772,2.713-10.245,2.998c-8.165,0.672-8.319,6.789-9.294,12.477
	c-1.954,11.407-3.897,22.817-5.751,34.241C2597.41,133.378,2596.285,141.309,2594.979,149.954z"/>
<path fill-rule="evenodd" clip-rule="evenodd" d="M2714.236,151.975c1.499-7.7,2.967-14.71,4.211-21.76
	c2.069-11.728,4.102-23.465,5.923-35.233c0.677-4.377,0.959-8.851,0.986-13.283c0.029-4.539-3.173-7.618-7.223-6.589
	c-5.798,1.474-11.482,3.516-17.034,5.76c-1.449,0.586-2.854,2.686-3.218,4.325c-3.278,14.78-6.395,29.599-9.396,44.438
	c-1.228,6.068-1.528,12.384-3.37,18.234c-0.607,1.933-4.634,3.01-7.274,4.006c-1.764,0.665-3.843,0.496-6.617,0.789
	c0.366-2.783,0.563-5.634,1.137-8.405c3.626-17.543,7.436-35.049,10.947-52.614c0.831-4.156,1.003-8.492,1.022-12.748
	c0.016-3.327-2.227-4.896-5.509-4.904c-3.387-0.01-6.772-0.002-10.159-0.002c-0.079-0.677-0.158-1.354-0.237-2.03
	c10.722-2.26,21.444-4.519,33.223-7.001c-0.472,5.206-0.813,8.978-1.156,12.759c10.857-3.97,21.247-7.987,31.792-11.538
	c5.959-2.008,8.105-0.091,8.142,6.25c0.007,1.32,0.001,2.641,0.001,4.825c3.312-0.856,6.238-1.386,9.003-2.372
	c7.176-2.56,14.194-5.598,21.455-7.867c2.944-0.92,6.888-1.414,9.419-0.164c2.95,1.456,1.95,5.15,1.29,8.433
	c-3.243,16.134-6.306,32.312-8.92,48.558c-0.862,5.361-0.519,11.002,0.008,16.444c0.133,1.373,3.006,3.347,4.769,3.519
	c3.757,0.366,7.612-0.267,11.705,0.404c-3.74,1.293-7.422,2.81-11.236,3.828c-5.631,1.502-11.331,2.77-17.048,3.904
	c-3.564,0.708-4.956-1.286-4.423-4.621c1.391-8.699,2.828-17.392,4.354-26.068c2.146-12.197,4.542-24.353,6.525-36.575
	c1.077-6.643-3.43-10.407-9.992-8.728c-5.021,1.285-10.061,2.562-14.957,4.232c-1.24,0.423-2.589,2.225-2.843,3.587
	c-3.134,16.823-6.093,33.68-9.045,50.537c-0.479,2.737-0.612,5.534-1.064,8.277c-1.221,7.412-2.548,8.643-10.021,9.373
	C2717.942,152.097,2716.455,151.975,2714.236,151.975z"/>
<path fill-rule="evenodd" clip-rule="evenodd" d="M1112.945,458.646c8.725-3.566,16.205-7.066,23.988-9.662
	c5.809-1.938,11.987-2.809,18.037-3.96c3.559-0.678,4.926,1.266,4.439,4.618c-0.796,5.49-1.399,11.03-2.599,16.436
	c-2.604,11.735-5.806,23.343-8.208,35.116c-1.078,5.281-0.987,10.83-1.135,16.265c-0.159,5.91,1.666,7.617,7.668,7.493
	c2.354-0.05,4.701-0.476,7.052-0.729c0.114,0.437,0.229,0.872,0.344,1.308c-2.76,0.803-5.487,1.741-8.284,2.379
	c-6.186,1.409-12.396,2.719-18.617,3.96c-2.504,0.5-4.395-0.228-4.184-3.275c0.261-3.761,0.3-7.58,1.025-11.258
	c3.525-17.881,7.388-35.696,10.755-53.605c0.521-2.774-0.451-6.119-1.645-8.793c-0.518-1.162-3.64-2.206-5.069-1.74
	c-7.062,2.298-14.009,4.99-20.861,7.864c-1.375,0.578-2.795,2.409-3.13,3.901c-4.132,18.407-8.163,36.838-12.005,55.307
	c-1.655,7.957-1.43,8.004-13.486,11.167c2.801-17.591,5.192-35.319,8.536-52.867c3.59-18.842,7.48-37.67,12.356-56.21
	c3.844-14.617,14.748-24.624,25.646-34.532c10.174-9.249,21.814-8.412,33.799-6.65c1.49,0.219,4.029,3.113,3.829,3.458
	c-1.503,2.586-3.36,5.084-5.602,7.045c-0.617,0.54-3.62-0.354-4.314-1.396c-5.983-8.991-20.181-5.746-25.95,1.602
	c-10.424,13.278-13.959,29.112-17.853,44.86C1115.777,443.631,1114.584,450.643,1112.945,458.646z"/>
<path fill-rule="evenodd" clip-rule="evenodd" d="M775.069,79.167c6.851-2.937,13.655-5.974,20.555-8.775
	c6.68-2.713,13.448-5.035,20.898-4.465c3.62,0.277,4.976,1.783,4.209,5.284c-2.61,11.921-5.472,23.794-7.742,35.779
	c-1.883,9.94-3.4,19.979-4.452,30.039c-0.784,7.501,2.899,10.077,10.294,8.191c1.363-0.348,2.791-0.445,4.188-0.658
	c-0.868,3.796-18.428,8.019-30.85,7.113c0.388-3.819,0.467-7.703,1.215-11.454c3.566-17.883,7.536-35.688,10.815-53.622
	c0.681-3.727,0.364-9.442-1.918-11.37c-2.059-1.738-7.606-0.091-11.315,1.043c-5.893,1.802-11.536,4.419-16.776,6.49
	c-2.174,9.771-4.373,18.958-6.24,28.212c-2.319,11.496-4.348,23.051-6.558,34.57c-0.202,1.056-0.547,2.65-1.26,2.946
	c-3.56,1.474-7.264,2.598-11.734,4.124c1.111-7.744,1.946-14.639,3.117-21.476c2.2-12.854,4.511-25.688,6.93-38.502
	c2.567-13.595,5.046-27.216,8.049-40.717c4.065-18.281,14.125-32.985,28.897-44.216c9.854-7.492,21.132-9.795,33.155-5.558
	c1.718,0.605,3.076,2.233,4.602,3.389c-2.107,2.217-4.009,4.717-6.446,6.477c-0.733,0.529-3.438-0.571-4.417-1.663
	c-6.542-7.287-16.879-7.819-24.006,0.755c-5.492,6.607-9.962,14.712-12.613,22.888c-4.641,14.313-7.54,29.192-11.141,43.841
	C774.463,78.086,774.756,78.426,775.069,79.167z"/>
<path fill-rule="evenodd" clip-rule="evenodd" d="M1774.102,145.35c-6.584,1.879-13.134,3.894-19.77,5.573
	c-2.824,0.715-5.822,0.941-8.75,1.014c-4.972,0.124-7.393-2.053-7.057-7.173c0.48-7.334,1.473-14.647,2.539-21.926
	c2.011-13.726,4.225-27.42,6.369-41.125c0.321-2.056,0.721-4.099,1.184-6.711c-10.105,0-19.731-0.078-29.352,0.121
	c-0.959,0.02-2.488,1.588-2.729,2.667c-1.844,8.258-3.657,16.535-5.036,24.88c-1.306,7.901-2.066,15.893-3.079,23.842
	c-0.31,2.432-1.209,4.932-0.893,7.272c1.291,9.537,5.819,12.515,15.324,10.995c2.296-0.367,4.606-0.643,6.911-0.96
	c0.098,0.443,0.196,0.887,0.295,1.33c-4.07,1.273-8.089,2.759-12.224,3.768c-5.047,1.231-10.152,2.558-15.301,2.944
	c-6.696,0.504-10.112-4.111-9.07-10.84c2.074-13.386,3.842-26.819,6.026-40.186c1.389-8.492,3.3-16.899,5.204-26.489
	c-5.726,0-10.947,0-16.169,0c-0.036-0.825-0.072-1.65-0.108-2.476c3.354-0.296,6.723-0.94,10.059-0.803
	c4.625,0.191,7.601-0.229,7.15-6.27c-0.295-3.944,1.162-8.033,1.93-12.039c0.6-3.129,2.084-5.429,5.34-6.698
	c4.856-1.894,9.517-4.285,14.298-6.379c0.908-0.397,1.99-0.396,3.451-0.137c-10.27,8.089-10.319,19.797-12.412,31.431
	c9.874,0,19.338,0.174,28.777-0.217c1.2-0.05,2.92-2.915,3.291-4.706c1.021-4.938,1.398-10.008,2.168-15.004
	c0.162-1.05,0.646-2.53,1.431-2.93c6.552-3.337,13.208-6.467,20.519-9.002c-9.7,8.41-9.25,20.269-12.063,31.594
	c6.024,0,11.861,0,17.698,0c0.188,0.59,0.374,1.18,0.561,1.77c-1.951,0.833-3.837,2.107-5.867,2.408
	c-4.185,0.62-9.647-0.748-12.335,1.451c-2.646,2.166-2.894,7.672-3.529,11.814c-2.304,15.005-4.339,30.051-6.453,45.085
	c-1.243,8.848,5.592,13.538,14.854,11.348c0.945-0.224,1.895-0.523,2.854-0.571c1.235-0.062,2.482,0.094,3.725,0.156
	C1773.941,144.566,1774.021,144.958,1774.102,145.35z"/>
<path fill-rule="evenodd" clip-rule="evenodd" d="M1910.682,702.012c0.537-4.87,1.109-10.372,1.764-15.863
	c0.38-3.181,1.361-5.781,4.813-7.213c5.92-2.456,11.642-5.39,18.278-7.454c-10.435,8.114-8.813,20.392-12.771,31.491
	c10.446,0,20.053,0.098,29.651-0.145c1.014-0.025,2.63-1.935,2.851-3.17c0.947-5.309,1.421-10.7,2.205-16.042
	c0.177-1.201,0.599-2.97,1.439-3.376c6.833-3.302,13.793-6.342,21.312-8.867c-9.957,8.253-9.917,19.885-12.322,31.509
	c6.517,0,12.373,0,18.229,0c0.181,0.559,0.362,1.118,0.543,1.677c-1.658,0.808-3.251,2.073-4.988,2.318
	c-2.776,0.392-5.72,0.508-8.465,0.023c-5.59-0.987-6.99,2.229-7.803,6.683c-1.549,8.483-3.462,16.903-4.863,25.409
	c-1.012,6.135-1.609,12.353-2.071,18.557c-0.309,4.158-0.432,8.4,0.042,12.527c0.549,4.783,3.752,7.108,8.604,6.897
	c4.241-0.185,8.479-0.458,13.046,0.145c-4.909,1.601-9.782,3.327-14.741,4.757c-3.276,0.945-6.695,1.389-10.018,2.191
	c-8.469,2.045-12.976-2.538-11.578-11.063c1.851-11.289,2.908-22.706,4.644-34.016c1.457-9.498,3.138-18.98,5.257-28.349
	c0.796-3.521-0.616-3.654-3.093-3.653c-9.15,0.004-18.301,0.002-28.646,0.002c-2.527,16.366-5.204,32.699-7.482,49.088
	c-0.662,4.768-0.694,9.76-0.076,14.527c0.562,4.344,3.666,6.753,8.422,6.399c4.005-0.297,8.021-0.438,12.321,0.175
	c-4.646,1.586-9.249,3.325-13.956,4.706c-3.266,0.958-6.78,1.106-10.002,2.169c-8.622,2.844-11.682-0.601-11.58-9.559
	c0.096-8.437,1.888-16.874,3.192-25.271c2.15-13.85,4.51-27.666,6.894-42.184c-5.353,0-10.241,0-15.128,0
	c-0.093-0.628-0.185-1.256-0.276-1.885C1898.406,700.208,1904.75,704.665,1910.682,702.012z"/>
<path fill-rule="evenodd" clip-rule="evenodd" d="M2512.395,777.697c-9.354,2.427-18.649,5.123-28.086,7.169
	c-4.946,1.073-7.956-1.843-7.771-7.54c0.238-7.37,1.002-14.75,1.999-22.062c1.41-10.339,3.181-20.631,4.917-30.923
	c0.943-5.601,2.134-11.159,3.329-17.342c-10.213,0-19.839-0.077-29.46,0.119c-0.979,0.02-2.568,1.557-2.783,2.612
	c-2.796,13.72-5.779,27.422-7.875,41.256c-0.989,6.531-0.735,13.398,0.024,19.991c0.439,3.815,3.416,6.584,8.216,6.065
	c4.305-0.465,8.661-0.438,13.254,0.095c-4.832,1.58-9.627,3.284-14.507,4.694c-3.276,0.948-6.686,1.43-10.015,2.208
	c-8.577,2.005-13.627-3.022-12.179-11.902c3.074-18.848,6.022-37.715,8.972-56.582c0.422-2.696,0.561-5.436,0.83-8.155
	c-2.801-0.139-5.641-0.043-8.393-0.49c-2.152-0.35-4.195-1.372-6.288-2.095c2.039-0.61,4.047-1.564,6.124-1.751
	c3.293-0.296,6.633-0.079,10.047-0.079c0.911-5.964,1.545-11.788,2.797-17.477c0.508-2.306,1.84-5.256,3.699-6.285
	c5.893-3.265,12.212-5.762,18.983-8.072c-10.052,8.312-10.048,20.029-12.022,31.506c10.475,0,20.555,0,31.202,0
	c0.665-5.216,1.565-10.497,1.95-15.816c0.335-4.654,2.545-7.266,6.817-8.959c5.328-2.113,10.433-4.791,16.303-6.645
	c-10.063,8.344-9.606,20.281-12.266,31.654c6.184,0,11.961,0,17.737,0c0.266,0.516,0.532,1.031,0.798,1.546
	c-1.37,0.849-2.685,2.298-4.12,2.429c-3.8,0.346-7.662-0.03-11.479,0.209c-1.244,0.077-3.295,0.962-3.5,1.827
	c-2.243,9.491-4.617,18.987-6.107,28.613c-1.529,9.87-2.342,19.871-3.034,29.846c-0.425,6.104,3.462,9.695,9.671,9.592
	c4.011-0.066,8.016-0.445,12.022-0.684C2512.267,776.745,2512.331,777.221,2512.395,777.697z"/>
<path fill-rule="evenodd" clip-rule="evenodd" d="M1093.554,708.758c7.334-2.711,14.246-5.426,21.274-7.798
	c3.823-1.291,7.801-2.297,11.789-2.88c3.615-0.527,5.964,1.685,6.731,5.125c2.376,10.653-0.588,15.196-8.619,21.5
	c-5.396,4.236-11.925,7.028-18.554,10.812c2.743,4.225,5.672,8.852,8.719,13.399c4.9,7.314,9.538,14.844,14.933,21.778
	c4.306,5.534,9.304,10.891,18.131,7.577c-0.075,0.617-0.149,1.234-0.224,1.852c-4.467,0.934-8.938,1.849-13.399,2.809
	c-2.857,0.615-5.673,1.636-8.557,1.877c-5.676,0.474-7.06-4.51-9.298-8.12c-7.872-12.703-13.957-26.562-24.439-37.565
	c-0.772-0.812-1.678-1.498-3.75-3.326c-1.445,5.491-2.736,10.022-3.82,14.603c-1.799,7.604-3.486,15.235-5.175,22.865
	c-0.916,4.138-3.392,6.896-7.264,8.437c-1.946,0.774-3.945,1.416-6.896,2.465c0.478-3.313,0.757-6.133,1.302-8.9
	c2.958-15.021,5.905-30.044,9.003-45.036c2.897-14.023,5.688-28.078,9.064-41.988c3.091-12.734,7.594-25.131,17.024-34.629
	c7.585-7.639,16.537-13.556,26.632-17.88c4.586-1.965,8.933-3.059,13.715-2.685c1.81,0.142,4.941,0.773,5.081,1.591
	c0.417,2.44,0.148,5.331-0.935,7.507c-0.355,0.715-4.307,0.371-6.118-0.508c-5.366-2.604-10.51-2.658-15.729,0.062
	c-8.25,4.299-14.842,10.156-17.695,19.367c-3.94,12.719-7.905,25.432-11.647,38.209
	C1093.979,702.19,1093.987,705.356,1093.554,708.758z M1096.306,734.983c9.087-1.527,19.212-4.945,25.528-14.379
	c1.756-2.623,1.569-8.084-0.041-10.935c-1.271-2.248-6.411-3.943-9.277-3.322c-6.26,1.357-12.207,4.248-18.183,6.751
	c-1.187,0.497-2.384,1.918-2.783,3.167c-1.184,3.693-1.97,7.514-2.913,11.284C1087.176,733.379,1088.459,734.99,1096.306,734.983z"
	/>
<path fill-rule="evenodd" clip-rule="evenodd" d="M1542.234,76.62c8.508-3.018,16.545-5.867,24.581-8.719
	c0.919-0.326,1.839-0.948,2.753-0.939c3.593,0.035,8.289-1.085,10.52,0.738c3.445,2.816,4.051,7.675,2.69,12.646
	c-2.216,8.098-8.273,12.403-14.773,16.312c-3.896,2.343-8.185,4.034-12.881,6.301c3.583,5.625,7.143,11.417,10.908,17.072
	c4.337,6.513,8.694,13.025,13.346,19.313c4.104,5.55,9.345,9.312,17.183,7.49c-0.066,0.436-0.133,0.87-0.199,1.305
	c-4.083,0.936-8.162,1.887-12.251,2.799c-1.747,0.39-3.521,0.664-5.27,1.049c-7.973,1.757-11.264-3.232-14.59-9.271
	c-5.394-9.792-11.358-19.281-17.389-28.701c-2.183-3.408-5.246-6.252-8.997-10.621c-1.767,5.324-3.396,9.264-4.367,13.358
	c-2.213,9.333-4.071,18.75-6.173,28.11c-0.195,0.872-0.926,1.939-1.699,2.312c-3.751,1.806-7.601,3.406-12.201,5.423
	c1.951-8.784,3.858-16.597,5.396-24.481c2.339-11.993,4.323-24.057,6.647-36.054c1.608-8.307,3.174-16.651,5.411-24.8
	c2.831-10.312,5.969-20.573,9.646-30.608c2.983-8.14,8.243-15.279,15.287-20.157c8.036-5.564,16.97-9.867,25.668-14.422
	c2.371-1.241,5.268-1.723,7.98-2.014c5.057-0.542,7.915,2.584,6.916,7.312c-0.617,2.92-2.919,4.833-5.394,3.249
	c-7.486-4.788-14.551-3.437-21.352,0.816c-6.52,4.077-11.602,9.578-14.066,17.148c-3.265,10.029-6.899,19.947-9.856,30.064
	C1544.034,64.384,1543.396,70.42,1542.234,76.62z M1536.674,101.984c4.219,0,8.228,0.698,11.887-0.136
	c9.615-2.194,18.825-5.45,23.62-15.277c2.927-6-1.238-13.152-7.859-12.392c-5.521,0.634-10.786,3.243-16.276,4.473
	c-5.576,1.247-7.459,5.139-8.481,10.012C1538.732,92.618,1537.853,96.562,1536.674,101.984z"/>
<path fill-rule="evenodd" clip-rule="evenodd" d="M2193.343,658.396c-1.497,0.532-2.954,1.315-4.496,1.552
	c-5.124,0.783-6.396,4.156-6.441,8.71c-0.293,29.749-0.683,59.497-0.931,89.247c-0.029,3.499,0.615,7.003,1.089,11.992
	c9.542-9.027,18.74-16.652,26.615-25.459c9.254-10.35,17.825-21.396,25.835-32.747c8.094-11.472,12.636-24.534,12.285-38.799
	c-0.085-3.43-1.273-7.065-2.84-10.157c-1.51-2.98-1.209-4.525,1.986-4.728c3.58-0.228,8.158-1.171,10.594,0.577
	c4.501,3.229,4.501,9.324,2.876,14.049c-3.101,9.014-7.03,17.782-11.149,26.397c-9.089,19.007-23.877,33.583-38.28,48.461
	c-10.246,10.583-20.247,21.406-30.243,32.228c-3.362,3.641-7.361,5.248-12.816,5.319c0-2.014,0-3.787,0-5.561
	c0-35.477,0-70.953,0-106.431c0-11.21-3.025-13.468-13.651-9.696c-4.244,1.507-8.391,3.457-12.3,5.697
	c-6.92,3.968-13.191,15.13-8.002,24.109c1.837,3.18,1.098,6.251-1.878,7.527c-3.103,1.331-5.405-0.271-6.384-4.076
	c-2.308-8.981,0.564-16.485,6.242-23.032c7.837-9.036,17.802-14.049,29.939-14.644c9.369-0.459,18.721-1.305,28.083-1.924
	c1.223-0.081,2.467,0.161,3.7,0.254C2193.231,657.641,2193.287,658.018,2193.343,658.396z"/>
<path fill-rule="evenodd" clip-rule="evenodd" d="M387.148,772.923c-0.967,1.742-1.177,2.754-1.675,2.924
	c-8.105,2.769-16.198,5.598-24.412,8.008c-2.24,0.657-5.805,0.923-7.075-0.335c-1.429-1.414-1.009-4.75-1.26-7.263
	c-0.067-0.675,0.348-1.398,0.892-3.368c-4.394,1.604-7.828,2.899-11.292,4.112c-7.506,2.629-14.967,5.411-22.562,7.75
	c-4.968,1.529-9.087-1.184-9.189-6.444c-0.152-7.768,0.023-15.625,1.042-23.314c1.743-13.17,7.369-25.223,13.127-36.971
	c2.392-4.879,7.093-9.213,11.745-12.271c8.963-5.891,18.649-10.225,30.029-6.422c1.809,0.604,4.383-0.776,6.502-1.527
	c1.183-0.419,2.061-1.778,3.242-2.097c1.833-0.493,3.808-0.459,5.722-0.648c0.039,1.896,0.438,3.865,0.062,5.675
	c-3.467,16.707-7.114,33.375-10.597,50.078c-0.932,4.47-1.667,9.001-2.133,13.541c-0.27,2.641-0.607,5.778,0.542,7.903
	c0.95,1.756,4.044,3.264,6.18,3.253C379.308,775.491,382.57,774.076,387.148,772.923z M367.848,707.973
	c-3.531-1.545-6.247-3.01-9.135-3.947c-11.243-3.648-16.696,2.01-21.259,11.254c-8.336,16.894-12.129,34.835-11.072,53.744
	c0.182,3.251,1.438,4.987,4.742,4.986c3.741,0,7.79,0.85,11.149-0.297c4.589-1.566,10.843-1.618,12.114-8.272
	c1.132-5.918,1.849-11.931,3.268-17.775C360.828,734.599,364.323,721.612,367.848,707.973z"/>
<path fill-rule="evenodd" clip-rule="evenodd" d="M1603.655,693.194c-0.508,4.62-0.565,8.235-1.347,11.687
	c-2.654,11.717-6.011,23.292-8.237,35.084c-1.847,9.775-2.751,19.76-3.536,29.693c-0.436,5.496,2.376,7.111,7.822,5.392
	c1.086-0.344,2.154-0.793,3.267-0.991c1.855-0.329,3.741-0.495,5.614-0.73c0.154,0.394,0.309,0.786,0.463,1.179
	c-3.393,1.473-6.716,3.145-10.195,4.371c-5.357,1.888-10.824,3.464-16.241,5.183c-6.109,1.938-7.802,0.719-7.838-5.669
	c-0.008-1.494-0.001-2.989-0.001-5.051c-6.436,2.393-12.513,4.829-18.711,6.901c-5.362,1.793-10.803,3.444-16.321,4.643
	c-3.957,0.858-6.551-1.864-6.972-6.291c-1.77-18.638,3.428-35.765,10.399-52.788c4.916-12.005,13.296-19.847,24.543-25.152
	c6.732-3.177,13.827-3.654,20.986-1.218c2.268,0.771,3.779,0.681,5.918-1.36C1595.666,695.786,1599.521,695.024,1603.655,693.194z
	 M1557.501,773.985c0.998,0,1.997,0.012,2.995-0.002c7.971-0.105,13.382-4.137,15.23-11.74c1.535-6.314,2.566-12.752,4.108-19.064
	c2.657-10.872,5.573-21.682,8.263-32.546c0.227-0.918-0.1-2.374-0.734-3.043c-6.271-6.603-19.696-6.08-25.067,1.115
	c-5.613,7.52-8.825,16.196-10.837,25.278c-1.828,8.249-3.287,16.579-4.96,24.863C1544.48,768.842,1548.387,774.25,1557.501,773.985z
	"/>
<path fill-rule="evenodd" clip-rule="evenodd" d="M2062.597,774.53c-2.162,0.84-4.3,1.754-6.491,2.507
	c-6.903,2.372-13.766,4.892-20.762,6.958c-6.61,1.953-8.538-0.15-7.01-6.98c0.174-0.774,0.023-1.621,0.023-3.339
	c-3.552,1.002-6.754,1.772-9.868,2.81c-7.361,2.453-14.733,4.891-22.001,7.603c-6.723,2.509-10.53,0.609-11.017-8.583
	c-0.819-15.494,2.629-30.149,8.829-44.334c3.537-8.093,6.375-16.377,13.617-22.255c10.11-8.206,20.87-13.354,34.316-9.685
	c1.562,0.426,3.494-0.467,5.242-0.812c0.271-0.053,0.434-0.565,0.717-0.663c3.092-1.067,6.198-2.094,9.301-3.132
	c-0.332,2.743-0.45,5.532-1.032,8.221c-3.265,15.097-6.878,30.123-9.87,45.271c-1.328,6.727-1.787,13.673-2.074,20.542
	c-0.254,6.094,2.996,8.215,8.735,6.402c1.087-0.344,2.156-0.792,3.27-0.994c1.857-0.337,3.744-0.515,5.618-0.759
	C2062.293,773.715,2062.444,774.123,2062.597,774.53z M2000.107,760.438c0.439,0.099,0.88,0.197,1.32,0.296
	c0,2.494,0.025,4.989-0.006,7.482c-0.05,4.045,2.026,6.111,5.966,6.122c6.88,0.021,13.646-0.766,19.706-4.357
	c1.047-0.62,1.981-2.04,2.257-3.252c1.51-6.647,2.658-13.377,4.194-20.018c2.848-12.321,5.911-24.593,8.759-36.913
	c0.189-0.822-0.406-2.232-1.101-2.791c-9.529-7.655-23.267-3.992-27.905,7.426c-2.239,5.512-4.768,10.968-6.325,16.679
	C2004.334,740.792,2002.36,750.653,2000.107,760.438z"/>
<path fill-rule="evenodd" clip-rule="evenodd" d="M986.594,521.596c-4.222,1.722-8.367,3.674-12.686,5.105
	c-5.08,1.684-10.293,2.982-15.479,4.326c-5.869,1.521-7.066,0.545-6.991-5.486c0.016-1.298,0.183-2.594,0.354-4.869
	c-3.761,1.236-7.428,2.471-11.113,3.648c-7.254,2.316-14.483,4.717-21.787,6.862c-6.005,1.765-9.017-0.112-9.398-6.116
	c-0.82-12.91,0.232-25.628,5.223-37.755c3.332-8.097,5.747-16.812,10.454-24.022c3.555-5.445,9.704-9.553,15.395-13.157
	c7.307-4.628,15.306-7.147,24.279-3.672c1.96,0.76,5.005-1.021,7.465-1.876c2.875-0.999,5.657-2.265,8.479-3.414
	c-0.109,2.72,0.16,5.519-0.39,8.146c-2.699,12.893-5.939,25.679-8.347,38.622c-1.731,9.314-2.713,18.795-3.526,28.244
	c-0.465,5.404,2.208,7.122,7.622,5.94c3.317-0.724,6.664-1.319,9.997-1.972C986.295,520.633,986.444,521.115,986.594,521.596z
	 M934.055,522.58c3.896-1.095,7.734-2.533,11.702-3.197c4.825-0.808,6.738-3.551,7.775-8.077c3.77-16.45,7.713-32.865,11.898-49.214
	c1.699-6.637,1.459-7.741-5.191-10.063c-1.533-0.535-3.104-0.958-4.653-1.446c-5.552-1.753-11.065-0.364-14.344,4.18
	c-5.866,8.129-9.703,17.256-11.768,27.031c-1.882,8.906-3.288,17.912-4.953,26.865C923.098,516.314,927.053,521.982,934.055,522.58z
	"/>
<path fill-rule="evenodd" clip-rule="evenodd" d="M603.492,142.494c-5.47,2.153-10.874,4.502-16.434,6.395
	c-3.967,1.35-8.109,2.249-12.232,3.05c-3.968,0.771-6.014-0.821-5.439-5.166c0.235-1.78,0.039-3.617,0.039-5.482
	c-13.66,3.626-25.665,12.298-40.326,10.562c-4.345-8.786-3.456-18.056-1.352-26.653c2.918-11.921,7.783-23.357,11.613-35.067
	c3.096-9.46,10.39-14.624,18.48-19.283c8.376-4.824,16.836-6.99,26.238-3.108c1.101,0.454,2.973-0.69,4.387-1.318
	c3.243-1.44,6.425-3.019,10.755-5.074c0,3.253,0.269,4.722-0.041,6.057c-3.821,16.455-8.131,32.812-11.426,49.37
	c-1.469,7.382-1.374,15.177-1.135,22.757c0.12,3.815,3.135,5.346,7.197,3.785c2.955-1.135,6.101-1.776,9.162-2.639
	C603.15,141.283,603.321,141.888,603.492,142.494z M583.459,75.526c-2.268-1.148-4.113-2.22-6.062-3.046
	c-9.229-3.913-16.303-1.896-21.021,7.083c-3.731,7.102-6.855,14.645-9.228,22.307c-3.348,10.813-5.37,21.951-4.771,33.427
	c0.245,4.685,3.19,7.616,6.981,7.361c5.892-0.396,11.774-2.16,17.43-4.042c1.623-0.54,2.954-3.334,3.538-5.35
	c1.445-4.989,2.275-10.152,3.542-15.198c2.767-11.02,5.744-21.987,8.428-33.027C583.059,81.913,583.103,78.61,583.459,75.526z"/>
<path fill-rule="evenodd" clip-rule="evenodd" d="M2590.723,692.897c-0.563,4.56-0.697,7.807-1.396,10.926
	c-2.595,11.57-5.517,23.068-8.044,34.652c-2.305,10.562-4.779,21.123-3.893,32.105c0.354,4.379,2.583,6.167,6.845,5.018
	c3.232-0.873,6.472-1.721,10.534-2.8c-0.725,1.409-0.906,2.434-1.394,2.608c-9.014,3.236-18,6.582-27.143,9.417
	c-3.303,1.024-5.854-0.617-5.809-4.661c0.023-2.157,0.004-4.315,0.004-6.334c-11.068,3.571-21.962,7.207-32.936,10.58
	c-6.201,1.905-8.539-0.473-9.155-6.95c-2.142-22.501,5.329-42.703,15.677-61.76c3.156-5.813,10.521-9.637,16.495-13.553
	c7.655-5.018,16.148-5.312,24.837-2.347c1.066,0.364,2.707-0.626,3.971-1.225C2582.773,696.938,2586.17,695.175,2590.723,692.897z
	 M2532.805,761.982c0.219,0.035,0.438,0.07,0.656,0.105c0,1.499-0.328,3.09,0.062,4.478c1.036,3.675,1.513,8.074,6.982,7.837
	c6.182-0.27,12.424-0.486,17.843-3.963c1.31-0.841,2.635-2.39,3.002-3.852c4.67-18.579,9.191-37.195,13.635-55.83
	c0.243-1.02-0.157-2.692-0.894-3.369c-8.401-7.716-22.156-5.612-27.079,4.754c-3.931,8.277-6.976,17.068-9.498,25.894
	C2535.287,745.83,2534.325,753.985,2532.805,761.982z"/>
<path fill-rule="evenodd" clip-rule="evenodd" d="M2091.558,440.624c-0.241,2.866-0.198,5.169-0.656,7.367
	c-3.779,18.118-7.826,36.184-11.386,54.345c-1.039,5.304-1.039,10.866-1.016,16.308c0.02,4.412,3.121,4.859,6.674,3.982
	c3.252-0.802,6.505-1.6,10.369-1.617c-0.947,0.749-1.781,1.824-2.857,2.193c-8.575,2.944-17.163,5.86-25.819,8.552
	c-3.163,0.983-5.112-0.702-5.399-3.954c-0.184-2.08-0.035-4.19-0.035-7.321c-4.629,1.688-9.337,3.562-14.146,5.124
	c-6.904,2.243-13.832,4.447-20.847,6.302c-4.117,1.088-6.67-1.785-6.822-5.272c-0.317-7.28-0.783-14.811,0.678-21.852
	c2.226-10.729,5.755-21.223,9.232-31.648c5.564-16.677,24.391-29.549,37.67-27.753c7.754,1.048,14.116,0.397,20.537-3.453
	C2088.654,441.374,2089.804,441.205,2091.558,440.624z M2033.64,508.594c0.263,0.05,0.524,0.1,0.786,0.15
	c0,0.998-0.001,1.997,0,2.996c0.01,7.847,2.628,10.852,10.329,10.082c5.077-0.507,10.063-2.377,14.946-4.055
	c1.195-0.411,2.298-2.348,2.642-3.775c2.511-10.416,4.771-20.893,7.204-31.327c1.881-8.063,4.064-16.061,5.711-24.168
	c0.306-1.505-0.822-4.053-2.112-5.01c-9.418-6.986-22.265-3.188-26.657,7.871c-2.917,7.342-5.896,14.723-7.941,22.331
	C2036.357,491.842,2035.23,500.28,2033.64,508.594z"/>
<path fill-rule="evenodd" clip-rule="evenodd" d="M1585.681,521.627c-4.015,1.755-7.954,3.715-12.063,5.209
	c-4.416,1.604-8.938,3.01-13.519,4.025c-2.328,0.516-6.083,0.93-7.06-0.302c-1.383-1.746-0.814-5.052-1.034-7.694
	c-0.035-0.426,0.173-0.871,0.552-2.604c-5.511,1.899-10.257,3.615-15.054,5.171c-6.907,2.24-13.802,4.541-20.798,6.472
	c-4.008,1.105-6.839-1.476-7.068-5.019c-0.462-7.138-0.536-14.391,0.201-21.496c1.449-13.95,7.588-26.498,12.994-39.207
	c2.979-7.001,9.106-11.128,15.19-14.978c8.367-5.295,17.171-8.64,27.326-4.47c1.625,0.667,4.306-0.645,6.271-1.539
	c3.019-1.371,5.841-3.175,10.05-5.521c-0.409,3.887-0.424,6.289-0.941,8.578c-3.692,16.326-7.829,32.562-11.087,48.972
	c-1.341,6.748-1.132,13.858-1.103,20.802c0.018,3.981,2.392,5.893,6.673,4.614c3.205-0.957,6.497-1.621,9.75-2.415
	C1585.201,520.693,1585.441,521.16,1585.681,521.627z M1523.01,508.893c0.473,0.113,0.944,0.227,1.416,0.34
	c0,0.832-0.001,1.663,0,2.495c0.01,7.853,2.621,10.858,10.308,10.095c5.074-0.504,10.058-2.37,14.939-4.043
	c1.2-0.411,2.295-2.329,2.665-3.756c1.388-5.34,2.391-10.777,3.653-16.151c3.119-13.269,6.348-26.513,9.378-39.802
	c0.251-1.097-0.285-2.836-1.091-3.639c-6.753-6.733-19.47-5.815-24.548,2.08c-3.018,4.691-5.826,9.792-7.364,15.104
	C1528.807,483.915,1526.076,496.453,1523.01,508.893z"/>
<path fill-rule="evenodd" clip-rule="evenodd" d="M1446.572,142.92c-8.677,3.019-17.204,6.628-26.077,8.869
	c-7.208,1.819-8.781-0.279-8.02-7.798c0.074-0.731,0.245-1.453,0.51-2.976c-6.745,2.514-12.798,5.088-19.052,7.004
	c-5.55,1.701-11.315,2.706-17,3.953c-3.966,0.87-6.165-1.336-6.32-4.854c-0.303-6.83-1.146-13.929,0.267-20.479
	c2.408-11.176,6.11-22.107,9.768-32.973c4.944-14.687,16.444-22.771,30.408-27.227c4.364-1.393,9.717,0.442,14.622,0.556
	c2.025,0.046,4.173-0.247,6.074-0.923c3.209-1.141,6.266-2.71,10.489-4.59c0,3.389,0.345,5.213-0.056,6.857
	c-2.8,11.515-6.098,22.918-8.555,34.502c-2.161,10.19-3.515,20.557-5.079,30.868c-1.108,7.309,3.508,11.254,10.359,9.108
	c2.359-0.739,4.779-1.285,7.172-1.919C1446.246,141.575,1446.409,142.248,1446.572,142.92z M1384.4,129.458
	c0.348,0.071,0.694,0.142,1.041,0.212c0,1.829-0.132,3.669,0.027,5.484c0.345,3.942,2.311,7.816,6.299,7.31
	c6.949-0.883,13.721-3.205,20.541-5.018c0.461-0.122,0.885-0.979,1.037-1.569c1.058-4.083,2.09-8.173,3.034-12.283
	c2.723-11.851,5.421-23.707,8.083-35.571c0.779-3.476,1.539-6.968,2.015-10.493c0.133-0.984-0.471-2.586-1.261-3.101
	c-10.407-6.779-20.742-4.375-26.704,6.773c-3.169,5.928-5.662,12.362-7.459,18.846
	C1388.372,109.722,1386.574,119.642,1384.4,129.458z"/>
<path fill-rule="evenodd" clip-rule="evenodd" d="M2518.7,63.518c-3.445,14.693-7.019,28.877-10.031,43.18
	c-1.845,8.763-3.013,17.685-4.089,26.582c-0.321,2.661,0.217,5.674,1.219,8.183c1.175,2.941,3.885,3.015,6.755,2.005
	c3.09-1.086,6.294-1.847,9.544-2.346c-4.288,4.869-25.212,11.251-33.413,10.543c0-3.199,0-6.466,0-10.686
	c-6.449,2.487-12.157,4.991-18.062,6.883c-6.163,1.974-12.094,4.992-18.981,4.218c-3.402-0.383-4.851-1.479-5.297-5.036
	c-2.457-19.549,3.651-37.153,10.802-54.921c5.572-13.847,16.536-20.659,28.976-25.619c4.411-1.76,10.341,0.417,15.583,0.544
	c2.025,0.049,4.463-0.016,6.02-1.06C2510.991,63.797,2514.099,62.101,2518.7,63.518z M2461.455,129.469
	c0,1.999-0.208,4.025,0.041,5.993c0.593,4.681,3.676,7.864,7.589,7.41c4.181-0.486,8.34-1.404,12.412-2.494
	c4.315-1.155,7.953-3.023,8.113-8.55c0.087-3.029,1.193-6.039,1.925-9.036c3.619-14.83,7.316-29.642,10.809-44.502
	c0.277-1.178-0.388-3.357-1.313-3.918c-11.112-6.729-23.003-3.404-28.386,8.291C2465.83,97.474,2462.301,113.18,2461.455,129.469z"
	/>
<path fill-rule="evenodd" clip-rule="evenodd" d="M400.066,62.891c-2.336,9.944-4.813,18.883-6.487,27.969
	c-2.894,15.712-8.232,31.062-7.19,47.394c0.339,5.306,2.081,6.64,7.32,5.076c3.063-0.914,6.171-1.679,9.259-2.511
	c0.196,0.583,0.394,1.167,0.59,1.75c-5.45,2.141-10.848,4.434-16.371,6.368c-3.661,1.282-7.455,2.579-11.276,2.929
	c-6.408,0.585-6.457,0.252-6.483-6.001c-0.006-1.328-0.001-2.656-0.001-4.794c-6.194,2.391-11.891,4.991-17.833,6.77
	c-6.024,1.804-12.272,2.894-18.46,4.108c-3.904,0.768-5.444-1.724-5.667-5.073c-1.084-16.291,0.706-32.106,7.965-47.009
	c3.619-7.43,5.236-15.953,12.145-21.551c8.469-6.86,17.163-13.124,28.887-12.332c0.165,0.011,0.348-0.042,0.497,0.008
	c6.005,2.021,11.604,2.184,16.734-2.523C394.72,62.526,397.136,63.098,400.066,62.891z M342.426,130.024c0,1-0.011,2,0.002,2.999
	c0.092,7.418,3.863,10.419,11.252,9.019c2.246-0.426,4.509-0.807,6.781-1.037c5.669-0.574,9.217-3.211,10.727-8.619
	c0.74-2.651,0.67-5.521,1.323-8.206c3.616-14.849,7.421-29.651,10.917-44.528c0.373-1.59-0.335-4.706-1.392-5.167
	c-14.009-6.12-19.76-5.836-27.393,7.625C346.341,96.75,344.279,113.475,342.426,130.024z"/>
<path fill-rule="evenodd" clip-rule="evenodd" d="M1853.091,62.903c-1.478,6.524-2.808,12.181-4.033,17.86
	c-3.226,14.938-6.635,29.842-9.467,44.855c-0.88,4.661-0.337,9.636-0.087,14.449c0.178,3.431,3.375,4.832,7.616,3.584
	c3.279-0.966,6.514-2.08,9.769-3.128c0.191,0.506,0.384,1.012,0.575,1.518c-2.645,1.292-5.206,2.812-7.952,3.828
	c-5.143,1.903-10.33,3.75-15.622,5.157c-2.944,0.782-6.147,0.866-9.213,0.739c-0.79-0.033-1.964-1.98-2.145-3.172
	c-0.345-2.271-0.101-4.631-0.101-7.594c-5.359,2.119-10.25,4.275-15.29,5.99c-6.738,2.292-13.198,5.515-20.726,5.121
	c-4.031-0.211-5.829-2.06-5.921-5.52c-0.335-12.654-0.666-25.285,4.738-37.302c3.456-7.683,5.5-16.071,9.53-23.399
	c2.654-4.826,7.156-9.188,11.829-12.22c7.033-4.562,14.562-9.473,23.671-7.582c6.109,1.269,11.671,2.054,16.731-2.774
	C1847.891,62.46,1850.158,63.045,1853.091,62.903z M1794.361,130.561c0.357,0.08,0.715,0.16,1.071,0.239
	c0,1-0.078,2.007,0.013,2.998c0.63,6.899,4.302,9.607,11.036,8.26c2.24-0.448,4.505-0.827,6.776-1.052
	c6.464-0.642,9.708-3.407,11.197-9.851c0.513-2.219,0.715-4.509,1.25-6.721c3.626-15.004,7.132-30.042,11.095-44.958
	c0.907-3.416-0.288-4.511-2.878-5.493c-1.066-0.403-2.136-0.804-3.176-1.267c-8.632-3.847-15.959-2.134-20.319,5.613
	c-2.922,5.191-6.059,10.497-7.641,16.159C1799.469,106.372,1797.112,118.522,1794.361,130.561z"/>
<path fill-rule="evenodd" clip-rule="evenodd" d="M1252.682,521.65c-3.863,1.678-7.633,3.634-11.612,4.965
	c-5.225,1.747-10.601,3.052-15.936,4.456c-5.836,1.537-6.674,0.884-6.706-4.946c-0.01-1.636-0.002-3.271-0.002-5.861
	c-5.348,2.063-9.938,4.022-14.653,5.607c-6.454,2.169-12.944,4.281-19.53,5.987c-4.957,1.284-7.544-1.281-7.85-6.535
	c-0.664-11.439-0.896-22.952,3.186-33.774c4.656-12.346,7.318-26.007,18.048-35.095c7.36-6.234,15.588-11.35,25.821-11.434
	c1.442-0.013,2.914,0.339,4.329,0.696c4.646,1.173,9.203,2.799,12.936-2.252c0.902-1.222,3.176-1.746,4.887-1.919
	c0.85-0.086,2.647,1.353,2.644,2.097c-0.01,2.576-0.425,5.197-1.038,7.716c-2.763,11.352-5.983,22.604-8.383,34.03
	c-1.938,9.237-3.067,18.656-4.265,28.031c-0.277,2.174-0.044,5.016,1.181,6.607c1.204,1.564,4.019,2.767,6.032,2.638
	c3.432-0.22,6.789-1.604,10.178-2.499C1252.192,520.661,1252.437,521.155,1252.682,521.65z M1191.426,509.199
	c0,1.164-0.007,2.329,0.001,3.493c0.047,6.801,2.85,9.681,9.635,9.213c3.539-0.244,7.077-1.107,10.518-2.05
	c4.195-1.148,7.994-2.7,8.095-8.279c0.059-3.188,1.047-6.386,1.831-9.526c3.571-14.311,7.135-28.623,10.912-42.879
	c0.723-2.729-0.156-4.374-2.116-5.757c-9.663-6.812-18.417-5.166-24.925,4.998C1195.482,473.862,1193.314,491.509,1191.426,509.199z
	"/>
<path fill-rule="evenodd" clip-rule="evenodd" d="M1936.831,70.826c9.666-1.667,19.332-3.334,29.617-5.107
	c-0.62,4.774-1.149,8.855-1.768,13.613c7.251-3.106,13.971-6.338,20.947-8.858c5.411-1.956,11.093-3.287,16.753-4.39
	c3.455-0.673,4.9,1.506,5.099,5.016c0.659,11.693-3.517,22.553-5.478,33.793c-1.974,11.321-4.603,22.589-3.594,34.24
	c0.373,4.303,3.146,5.973,8.317,4.673c1.799-0.452,3.534-1.161,5.781-1.916c-2.535,4.254-22.491,10.416-31.05,9.817
	c0-2.023-0.335-4.172,0.054-6.182c2.657-13.749,5.661-27.435,8.149-41.213c1.335-7.397,2.111-14.922,2.681-22.424
	c0.377-4.972-3.651-8.032-8.347-6.668c-5.611,1.63-11.195,3.402-16.663,5.453c-1.557,0.583-3.501,2.149-3.853,3.606
	c-2.555,10.579-4.87,21.222-7.019,31.893c-1.993,9.903-3.658,19.873-5.529,29.802c-0.448,2.379-1.325,4.051-4.442,4.206
	c-3.137,0.156-6.219,1.412-10.379,2.449c0.471-3.043,0.699-5.077,1.109-7.074c2.717-13.228,5.552-26.432,8.19-39.676
	c1.749-8.783,3.181-17.63,4.862-26.427c0.81-4.235-0.811-5.992-6.218-6.475c-2.431-0.217-4.85-0.562-7.273-0.85
	C1936.797,71.694,1936.813,71.26,1936.831,70.826z"/>
<path fill-rule="evenodd" clip-rule="evenodd" d="M1872.393,525.541c-5.877,1.481-11.731,3.062-17.642,4.399
	c-2.86,0.648-5.999,0.362-8.701,1.35c-4.436,1.622-5.886,0.207-5.642-4.138c0.107-1.908,0.018-3.828,0.018-6.443
	c-1.812,0.505-3.794,0.94-5.696,1.606c-9.031,3.16-17.999,6.511-27.08,9.519c-3.319,1.099-6.384-1.619-6.129-5.598
	c0.312-4.88,1.255-9.724,2.029-14.567c2.267-14.163,4.562-28.323,6.903-42.475c0.505-3.049,1.266-6.055,1.89-9.085
	c1.203-5.839-0.595-8.096-6.465-8.122c-2.408-0.011-4.817-0.002-7.3-0.768c9.185-4.957,19.702-3.12,30.581-7.172
	c-1.567,7.144-3.049,12.89-4.062,18.717c-2.346,13.491-4.501,27.017-6.647,40.541c-0.514,3.236-0.953,6.524-0.972,9.792
	c-0.046,7.816,3.357,10.544,10.963,8.767c3.304-0.772,6.53-1.978,9.688-3.244c4.113-1.65,4.506-5.689,5.228-9.269
	c1.836-9.102,3.533-18.233,5.11-27.383c1.439-8.351,2.748-16.727,3.915-25.119c0.526-3.787,1.034-7.079,5.642-8.222
	c3.58-0.887,6.95-2.62,11.74-4.497c-0.557,3.678-0.768,6.304-1.371,8.836c-2.595,10.887-5.725,21.664-7.849,32.639
	c-1.921,9.928-3.184,20.027-3.992,30.11c-0.632,7.88,3.623,10.846,11.435,9.007c0.938-0.221,1.859-0.543,2.808-0.674
	c0.445-0.062,0.938,0.222,1.408,0.349C1872.267,524.779,1872.33,525.16,1872.393,525.541z"/>
<path fill-rule="evenodd" clip-rule="evenodd" d="M999.474,450.141c9.743-3.097,20.1-2.858,30.979-5.504
	c-2.7,12.287-5.5,23.248-7.449,34.358c-2.225,12.682-5.084,25.402-3.394,38.401c0.22,1.691,3.146,4.545,4.388,4.334
	c6.023-1.026,12.01-2.615,17.751-4.714c1.39-0.508,2.174-3.628,2.592-5.678c1.818-8.938,3.48-17.911,5.046-26.897
	c1.763-10.117,3.246-20.284,5.141-30.374c0.325-1.73,1.749-3.867,3.265-4.641c3.724-1.899,7.796-3.113,12.498-4.895
	c0,2.618,0.419,4.772-0.069,6.697c-2.597,10.218-5.731,20.308-8.065,30.581c-1.729,7.615-2.588,15.435-3.698,23.184
	c-0.512,3.573-0.611,7.205-1.048,10.792c-1.003,8.259,4.381,9.762,11.365,9.004c1.111-0.12,2.186-0.56,3.296-0.713
	c0.372-0.051,0.805,0.331,2.592,1.144c-7.031,1.792-12.838,3.35-18.688,4.727c-2.693,0.634-5.511,0.741-8.2,1.389
	c-5.621,1.353-7.048,0.224-6.313-5.464c0.224-1.729,0.744-3.418,1.31-5.932c-7.368,2.76-13.961,5.327-20.627,7.691
	c-4.432,1.571-8.927,3.006-13.471,4.212c-3.414,0.905-6.853-2.954-6.116-7.016c1.797-9.919,4.028-19.762,5.707-29.698
	c1.633-9.665,2.812-19.407,4.152-29.12c0.402-2.921,0.626-5.866,1.023-8.788c0.54-3.969-1.435-5.35-5.093-5.251
	c-2.816,0.076-5.637,0.015-8.455,0.015C999.752,451.372,999.612,450.756,999.474,450.141z"/>
<path fill-rule="evenodd" clip-rule="evenodd" d="M2264.593,702.484c9.714-1.535,19.428-3.07,30.058-4.751
	c-1.289,6.439-2.451,12.243-3.613,18.047c-3.465,17.307-8.157,34.432-7.623,52.326c0.156,5.269,3.33,7.974,8.349,6.704
	c4.555-1.152,9.126-2.351,13.504-4.018c1.353-0.515,2.712-2.508,3.021-4.035c3.152-15.637,6.145-31.306,9.055-46.989
	c0.893-4.812,1.311-9.709,2.141-14.533c0.193-1.125,0.949-2.724,1.842-3.062c4.367-1.657,8.868-2.962,14.217-4.678
	c-0.551,3.543-0.744,6.411-1.464,9.141c-2.729,10.353-6.284,20.535-8.289,31.018c-2.155,11.262-4.454,22.626-3.43,34.292
	c0.31,3.521,1.676,5.144,5.201,5.056c3.212-0.08,6.427-0.017,9.64-0.017c0.059,0.534,0.116,1.069,0.174,1.604
	c-7.747,1.798-15.493,3.603-23.244,5.389c-1.581,0.365-3.62,1.425-4.663,0.816c-1.584-0.925-3.124-2.889-3.504-4.664
	c-0.448-2.094,0.358-4.457,0.662-7.055c-9.472,3.445-18.389,6.689-27.306,9.932c-0.914,0.332-1.812,0.737-2.753,0.962
	c-7.642,1.818-10.437-0.647-9.075-8.422c2.474-14.116,5.279-28.175,7.739-42.293c1.29-7.405,2.206-14.878,3.157-22.337
	c0.436-3.42-0.594-5.779-4.697-5.999c-3.041-0.164-6.051-0.932-9.075-1.43C2264.607,703.153,2264.6,702.819,2264.593,702.484z"/>
<path fill-rule="evenodd" clip-rule="evenodd" d="M721.893,702.846c9.64-1.55,19.279-3.1,29.772-4.787
	c-0.795,4.322-1.536,8.359-2.488,13.536c4.65-1.938,8.416-3.587,12.24-5.086c7.096-2.783,14.106-5.868,21.374-8.107
	c7.85-2.419,11.279,1.35,9.729,9.57c-3.11,16.491-6.247,32.982-8.94,49.544c-0.794,4.885-0.508,10.042-0.025,15.007
	c0.397,4.08,2.912,5.577,7.024,3.556c1.961-0.964,4.211-1.338,6.98-0.998c-1.395,0.953-2.666,2.258-4.206,2.8
	c-6.575,2.312-13.197,4.513-19.879,6.493c-1.777,0.526-4.659,0.907-5.548-0.039c-1.178-1.254-1.475-3.978-1.149-5.899
	c2.418-14.289,5.186-28.52,7.628-42.805c1.237-7.242,2.302-14.538,2.926-21.854c0.42-4.925-3.703-7.941-8.429-6.506
	c-5.748,1.745-11.392,3.832-17.097,5.723c-4.56,1.512-4.378,5.874-5.229,9.285c-2.007,8.042-3.628,16.192-5.096,24.355
	c-1.847,10.267-3.454,20.579-5.008,30.896c-0.414,2.751-0.996,4.346-4.378,4.619c-3.764,0.305-7.434,1.774-11.501,2.829
	c5.651-26.288,12.185-51.953,15.311-78.694c-5.288-0.896-9.859-1.671-14.431-2.446C721.612,703.507,721.753,703.176,721.893,702.846
	z"/>
<path fill-rule="evenodd" clip-rule="evenodd" d="M1883.5,778.475c-9.399,2.192-18.596,4.483-27.865,6.427
	c-3.604,0.756-4.956-1.403-4.16-5.795c0.318-1.763,0.598-3.532,1.057-6.259c-7.797,2.824-14.413,5.265-21.062,7.616
	c-4.404,1.558-8.781,3.39-13.331,4.219c-1.277,0.232-4.369-2.567-4.474-4.12c-0.317-4.714,0.028-9.565,0.819-14.244
	c2.44-14.442,5.326-28.81,7.78-43.25c0.794-4.673,1.078-9.489,0.959-14.224c-0.033-1.314-2.133-3.189-3.662-3.721
	c-2.837-0.985-5.952-1.169-9.045-2.587c9.414-1.579,18.828-3.157,29.147-4.888c-0.397,2.725-0.627,4.755-0.995,6.761
	c-2.736,14.882-5.602,29.742-8.202,44.647c-0.983,5.637-1.762,11.364-1.946,17.072c-0.253,7.816,2.135,9.506,9.755,7.951
	c1.753-0.357,3.549-0.515,5.328-0.737c9.065-1.136,10.577-8.062,11.829-15.282c1.725-9.946,3.616-19.864,5.334-29.812
	c1.304-7.553,2.334-15.155,3.771-22.682c0.254-1.331,1.679-2.895,2.962-3.485c3.225-1.483,6.633-2.622,10.051-3.614
	c3.017-0.877,4.094-0.344,3.055,3.413c-3.938,14.24-7.746,28.535-10.938,42.956c-1.76,7.949-2.344,16.177-3.177,24.309
	c-0.494,4.818,2.429,7.697,7.303,7.836c2.986,0.085,5.973,0.15,8.957,0.273C1882.908,777.262,1883.048,777.721,1883.5,778.475z"/>
<path fill-rule="evenodd" clip-rule="evenodd" d="M2005.374,525.792c-7.885,1.698-15.798,3.277-23.647,5.129
	c-8.448,1.993-9.542,0.918-7.411-7.782c0.189-0.773,0.025-1.634,0.025-3.044c-7.97,2.952-15.6,5.854-23.288,8.591
	c-3.51,1.249-7.081,2.464-10.727,3.153c-3.241,0.614-5.189-1.31-4.849-4.6c0.878-8.466,1.794-16.938,3.079-25.35
	c1.771-11.591,3.914-23.124,5.854-34.689c0.433-2.579,0.77-5.182,0.998-7.786c0.562-6.402-1.267-7.849-7.23-7.477
	c-2.152,0.135-4.339-0.278-6.51-0.44c-0.03-0.525-0.061-1.051-0.091-1.576c2.735-0.632,5.449-1.393,8.211-1.869
	c6.264-1.082,12.537-2.132,18.837-2.963c2.281-0.302,3.881-0.142,3.116,3.514c-3.698,17.683-6.99,35.452-10.272,53.22
	c-0.683,3.696-0.936,7.511-0.997,11.276c-0.129,8.019,3.532,10.771,11.41,8.631c3.276-0.891,6.441-2.194,9.657-3.312
	c2.691-0.937,3.646-2.539,4.077-5.654c1.092-7.876,3.287-15.592,4.762-23.424c2.141-11.365,4.357-22.735,5.864-34.191
	c0.538-4.084,2.636-5.832,5.748-6.917c3.385-1.18,6.973-1.776,10.473-2.628c-0.491,3.44-0.693,6.952-1.528,10.307
	c-2.629,10.56-6.05,20.952-8.107,31.614c-1.856,9.618-2.547,19.487-3.316,29.279c-0.455,5.791,4.413,9.309,10.233,8.058
	c1.779-0.383,3.589-0.626,5.385-0.934C2005.211,524.548,2005.293,525.169,2005.374,525.792z"/>
<path fill-rule="evenodd" clip-rule="evenodd" d="M1663.391,442.797c-2.525,1.22-4.544,2.875-6.595,2.915
	c-1.132,0.022-2.73-2.496-3.409-4.158c-3.219-7.889,1.021-23.023,12.643-30.396c6.135-3.894,12.784-6.354,20.262-6.207
	c8.656,0.169,17.316,0.074,25.975,0.117c0.274,0.001,0.547,0.253,1.238,0.594c-9.01,4.639-6.283,13.72-7.881,20.92
	c-3.912,17.634-6.598,35.536-10.186,53.247c-2.675,13.202-5.206,26.521-9.245,39.333c-3.811,12.087-9.34,23.716-18.494,32.98
	c-5.863,5.935-11.806,11.848-18.211,17.171c-5.594,4.648-12.574,2.901-19.004,2.084c-3.79-0.481-3.51-4.003-2.816-6.747
	c0.827-3.268,2.207-6.396,3.513-10.047c1.125,0.643,2.309,0.963,2.946,1.735c8.642,10.459,18.516,10.265,26.061-0.855
	c5.981-8.817,9.879-18.581,12.315-28.979c1.406-5.997,3.769-11.788,4.932-17.82c2.59-13.429,4.694-26.951,7-40.435
	c1.84-10.761,3.835-21.498,5.475-32.289c1.203-7.928,2.036-15.918,2.764-23.905c0.085-0.928-1.479-2.812-2.41-2.901
	c-10.054-0.969-24.681,2.171-29.898,13.975C1658.279,427.843,1659.23,438.08,1663.391,442.797z"/>
<path fill-rule="evenodd" clip-rule="evenodd" d="M680.897,207.203c-3.632,1.654-6.54,3.104-9.545,4.314
	c-3.617,1.456-6.27,0.042-5.743-3.792c0.715-5.217,1.598-10.934,4.296-15.26c8.277-13.274,17.463-25.981,26.263-38.933
	c0.533-0.785,0.78-1.766,1.31-3.003c-1.312-0.322-2.486-0.611-3.418-0.84c-1.903-9.531-3.649-18.985-5.706-28.371
	c-2.154-9.835-4.34-19.679-7.043-29.371c-1.335-4.782-3.201-9.719-6.092-13.658c-1.92-2.617-5.936-4.001-9.281-5.17
	c-2.484-0.868-5.399-0.504-8.123-0.688c-0.043-0.627-0.086-1.254-0.129-1.881c10.925-1.64,21.849-3.279,33.075-4.964
	c4.748,24.442,9.407,48.431,14.066,72.42c0.527,0.097,1.055,0.194,1.582,0.291c1.743-2.015,3.899-3.801,5.158-6.083
	c5.947-10.776,13.892-20.495,16.927-32.829c1.952-7.934,0.68-15.105-3.191-22.146c-1.269-2.307-4.424-4.46-1.81-7.815
	c3.076-3.947,7.689-5.808,11.738-3.993c2.297,1.029,3.626,5.846,4.053,9.131c1.672,12.863-1.952,24.489-9.103,35.23
	c-12.915,19.398-25.65,38.918-38.464,58.384c-3.317,5.039-6.94,9.904-9.905,15.144C677.552,190.85,676.31,198.801,680.897,207.203z"
	/>
<path fill-rule="evenodd" clip-rule="evenodd" d="M159.593,70.468c9.146-1.494,18.302-2.936,27.437-4.502
	c4.906-0.841,5.778,2.397,6.384,5.992c1.68,9.966,3.144,19.973,5.061,29.892c2.097,10.847,4.586,21.617,6.961,32.409
	c0.273,1.242,0.906,2.405,1.955,5.108c2.912-4.394,5.286-7.891,7.573-11.442c5.524-8.579,11.219-17.065,14.067-27.048
	c2.466-8.644,1.306-16.672-3.294-24.433c-1.132-1.909-1.991-5.369-1.029-6.858c2.449-3.793,6.843-5.584,11.212-4.301
	c1.63,0.479,3.266,3.932,3.362,6.097c0.341,7.658,1.319,15.658-0.43,22.931c-1.659,6.901-5.97,13.354-9.928,19.479
	c-13.443,20.81-27.048,41.521-41.019,61.979c-4.921,7.206-9.645,14.119-8.453,23.336c0.351,2.714,1.015,5.388,1.554,8.177
	c-2.649,1.441-5.472,3.273-8.526,4.557c-3.222,1.354-5.578-0.952-6.132-4.553c-1.338-8.7,4.512-14.491,8.451-20.803
	c7.421-11.89,15.652-23.273,22.472-33.289c-1.899-5.925-3.725-10.426-4.759-15.102c-2.038-9.218-3.399-18.586-5.488-27.791
	c-1.901-8.377-4.414-16.613-6.62-24.922c-1.877-7.071-8.499-12.256-15.753-12.437c-1.752-0.043-3.492-0.569-5.237-0.874
	C159.475,71.538,159.534,71.002,159.593,70.468z"/>
<path fill-rule="evenodd" clip-rule="evenodd" d="M1720.426,507.351c-0.871-14.178,2.669-28.312,9.737-41.493
	c2.996-5.588,7.331-10.222,13.396-12.993c4.116-1.882,7.828-4.718,12.027-6.327c3.72-1.425,7.838-2.237,11.825-2.445
	c7.235-0.377,12.238,3.061,13.966,10.234c1.178,4.894,1.306,10.205,0.952,15.264c-0.532,7.634-1.39,15.32-3.026,22.783
	c-2.177,9.92-5.142,20-13.541,26.504c-8.341,6.46-17.663,11.892-28.465,12.979c-9.671,0.973-17.715-3.537-16.9-15.121
	C1720.594,513.919,1720.426,511.079,1720.426,507.351z M1734.426,499.713c0,5.306-0.01,8.965,0.002,12.624
	c0.029,9.001,8.062,13.742,16.288,10.021c6.242-2.823,9.117-8.255,11.624-13.843c6.297-14.031,7.483-28.9,6.042-44.028
	c-0.667-6.997-6.517-14.784-14.334-12.141c-4.327,1.463-8.597,5.72-10.977,9.827C1736.12,474.174,1733.385,487.43,1734.426,499.713z
	"/>
<path fill-rule="evenodd" clip-rule="evenodd" d="M1182.428,129.21c-0.639-16.055,3.047-31.02,11.245-44.866
	c5.061-8.546,13.934-11.903,21.985-16.454c5.465-3.088,11.329-3.319,17.217-2.794c6.218,0.555,10.652,5.179,11.501,11.488
	c1.567,11.643,1.045,23.221-2.573,34.43c-2.424,7.508-4.968,15.104-8.65,22.028c-2.073,3.897-6.226,7.011-10.039,9.595
	c-8.555,5.794-17.408,10.348-28.586,9.63c-6.885-0.441-11.382-4.477-12.045-12.078
	C1182.166,136.555,1182.428,132.872,1182.428,129.21z M1196.429,120.026c0,5.978-0.708,10.299,0.215,14.238
	c0.797,3.407,2.759,7.979,5.452,9.137c3.293,1.415,8.662,1.102,11.761-0.755c7.293-4.368,10.884-12.284,13.346-20.001
	c3.948-12.371,5.07-25.308,3.137-38.233c-1.422-9.512-8.944-15.324-17.068-10.066c-4.438,2.872-8.481,7.75-10.534,12.634
	C1198.109,97.988,1195.061,109.603,1196.429,120.026z"/>
<path fill-rule="evenodd" clip-rule="evenodd" d="M2187.727,86.711c-0.639,16.561-3.498,30.612-10.248,43.443
	c-2.551,4.849-7.232,8.777-11.528,12.439c-3.038,2.59-7.188,3.826-10.616,6.019c-6.931,4.433-14.686,3.91-22.095,3.022
	c-2.825-0.338-7.083-4.215-7.424-6.894c-1.025-8.069-0.35-16.345-0.52-24.535c-0.201-9.704,2.667-18.736,6.205-27.518
	c3.077-7.64,7.186-14.724,15.233-18.435c6.304-2.907,12.34-6.585,18.884-8.738c9.448-3.109,16.875,0.092,20.183,8.646
	C2187.523,78.617,2187.327,83.811,2187.727,86.711z M2174.555,96.068c-1.374-5.815-2.477-11.713-4.204-17.421
	c-1.444-4.775-7.647-7.361-12.25-5.532c-9.414,3.74-12.79,12.262-15.577,20.809c-4.439,13.612-5.186,27.635-3.136,41.825
	c0.649,4.491,4.302,7.789,8.671,8.312c8.311,0.997,12.932-3.561,16.357-10.118C2170.564,122.175,2173.773,109.678,2174.555,96.068z"
	/>
<path fill-rule="evenodd" clip-rule="evenodd" d="M2324.427,129.926c0.403-13.969,2.321-27.514,8.619-40.333
	c4.878-9.93,13.011-15.929,22.409-20.402c4.689-2.231,10.072-3.425,15.269-4.091c11.808-1.515,15.965,6.842,16.501,15.555
	c1.132,18.391-1.721,36.388-11.606,52.259c-3.162,5.075-8.867,8.972-14.139,12.226c-6.726,4.151-13.849,7.212-22.446,7.087
	c-12.074-0.176-13.295-5.88-14.547-14.324C2324.102,135.297,2324.427,132.588,2324.427,129.926z M2337.086,122.351
	c0.447,0.089,0.895,0.178,1.342,0.268c0,2.825-0.094,5.654,0.02,8.476c0.238,5.948,3.777,12.051,7.344,12.861
	c6.992,1.59,13.259-1.424,17.041-7.77c4.542-7.618,7.51-15.575,8.953-24.473c1.677-10.339,2.716-20.361-0.304-30.578
	c-1.851-6.265-8.333-9.776-14.2-7.616c-7.775,2.861-11.391,9.719-13.479,16.413C2340.532,100.417,2339.225,111.513,2337.086,122.351
	z"/>
<path fill-rule="evenodd" clip-rule="evenodd" d="M2352.427,761.747c-0.422-12.635,2.078-25.648,7.274-37.87
	c3.469-8.16,9.078-15.175,17.727-18.963c5.287-2.315,10.334-5.325,15.796-7.044c3.427-1.078,7.573-1.034,11.133-0.269
	c6.731,1.447,10.706,7.05,11.023,14.899c0.746,18.475-2.238,36.316-11.688,52.378c-2.655,4.513-7.602,8.128-12.243,10.909
	c-5.899,3.535-12.312,7.036-18.939,8.36c-13.521,2.701-19.435-1.706-20.065-14.617
	C2352.329,767.204,2352.427,764.866,2352.427,761.747z M2366.033,754.82c0.466,4.733,0.797,9.484,1.435,14.194
	c0.741,5.476,9.062,10.299,13.642,7.516c3.651-2.218,7.609-5.059,9.599-8.64c3.577-6.438,6.571-13.438,8.38-20.566
	c3.079-12.131,4.484-24.515-0.631-36.66c-2.141-5.083-8.179-7.37-13.146-5.157c-6.641,2.957-10.229,8.442-12.844,14.771
	C2367.906,731.319,2366.155,742.88,2366.033,754.82z"/>
<path fill-rule="evenodd" clip-rule="evenodd" d="M1301.298,524.115c-2.297,0.938-4.518,2.21-6.904,2.749
	c-6.825,1.544-13.736,2.707-20.579,4.177c-6.62,1.423-9.032-0.51-7.931-6.943c3.081-17.993,6.221-35.977,9.466-53.94
	c2.924-16.192,6.001-32.357,9.041-48.529c1.984-10.561,3.929-21.132,6.132-31.648c0.349-1.662,1.66-3.904,3.065-4.427
	c6.007-2.229,12.216-3.915,18.351-5.799c0.203,0.404,0.406,0.809,0.608,1.213c-1.599,1.067-3.202,2.129-4.796,3.204
	c-5.712,3.85-6.175,10.077-7.279,16.027c-3.657,19.708-7.501,39.383-10.951,59.127c-2.922,16.723-5.454,33.516-8.01,50.299
	c-0.422,2.771-0.156,5.66-0.063,8.489c0.125,3.857,3.174,6.558,7.132,6.169c4.095-0.401,8.163-1.071,12.242-1.624
	C1300.98,523.144,1301.139,523.629,1301.298,524.115z"/>
<path fill-rule="evenodd" clip-rule="evenodd" d="M1367.45,777.624c-5.352,1.433-10.685,2.94-16.062,4.272
	c-3.945,0.978-7.971,1.633-11.92,2.597c-5.199,1.269-7.572-0.138-6.92-5.521c1.412-11.658,3.43-23.246,5.329-34.842
	c2.108-12.876,4.256-25.748,6.587-38.584c1.602-8.812,3.609-17.547,5.321-26.339c2.272-11.67,4.229-23.407,6.811-35.007
	c0.553-2.485,2.743-5.49,4.981-6.531c4.656-2.167,9.842-3.205,14.831-4.633c0.538-0.153,1.216,0.182,1.503,0.232
	c-2.863,3.354-6.611,6.286-8.321,10.127c-1.988,4.466-2.28,9.711-3.149,14.645c-2.719,15.418-5.281,30.863-8.067,46.268
	c-1.594,8.815-3.723,17.536-5.216,26.367c-1.797,10.625-3.185,21.32-4.725,31.989c-0.323,2.24-1.155,4.628-0.703,6.722
	c1.966,9.113,4.609,7.804,14.135,7.351c1.725-0.083,3.43-0.583,5.145-0.89C1367.156,776.439,1367.303,777.031,1367.45,777.624z"/>
<path fill-rule="evenodd" clip-rule="evenodd" d="M1334.291,633.345c-9.84,4.804-10.972,13.309-12.012,22.394
	c-1.109,9.686-3.395,19.235-5.119,28.853c-2.271,12.661-4.484,25.331-6.742,37.994c-1.803,10.102-4.005,20.149-5.323,30.313
	c-0.872,6.718-0.759,13.609-0.447,20.395c0.06,1.3,3.021,3.361,4.776,3.511c4.173,0.354,8.425-0.226,14.138-0.5
	c-1.854,1.37-2.632,2.364-3.591,2.589c-8.071,1.893-16.197,3.553-24.263,5.467c-5.81,1.379-9.143-1.173-8.202-7.169
	c1.587-10.128,3.709-20.169,5.462-30.271c2.229-12.847,4.214-25.735,6.499-38.571c1.541-8.652,3.477-17.232,5.133-25.865
	c2.328-12.139,4.622-24.284,6.801-36.451c0.786-4.394,2.765-7.626,7.176-9.006c4.324-1.352,8.646-2.715,13.005-3.942
	C1332.396,632.854,1333.383,633.243,1334.291,633.345z"/>
<path fill-rule="evenodd" clip-rule="evenodd" d="M1356.563,381.299c-1.814,1.164-3.765,2.161-5.417,3.521
	c-5.324,4.384-5.449,10.995-6.623,16.961c-3.555,18.069-6.842,36.193-10.006,54.336c-3.167,18.168-6.174,36.366-8.962,54.596
	c-0.476,3.111-0.254,6.775,0.981,9.602c1.962,4.49,6.17,5.13,13.637,3.351c1.615-0.386,3.308-0.444,4.965-0.654
	c0.117,0.676,0.233,1.352,0.35,2.027c-3.772,0.692-7.577,1.249-11.312,2.108c-6.019,1.386-11.996,2.955-17.983,4.478
	c-3.862,0.981-6.037-0.696-5.685-4.459c0.764-8.144,1.772-16.278,3.051-24.357c2.139-13.521,4.49-27.012,6.9-40.488
	c1.52-8.5,3.38-16.938,4.959-25.428c2.416-12.98,4.392-26.055,7.211-38.945c1.459-6.67,1.998-14.706,12.499-14.488
	c3.563,0.074,7.179-2.347,10.771-3.627C1356.12,380.321,1356.342,380.81,1356.563,381.299z"/>
<path fill-rule="evenodd" clip-rule="evenodd" d="M1932.938,379.824c-0.736,1.732-0.886,2.869-1.321,2.992
	c-6.408,1.81-8.035,7.146-9.113,12.619c-2.803,14.225-5.408,28.487-8.016,42.749c-3.047,16.672-6.158,33.335-8.951,50.051
	c-1.375,8.227-2.279,16.547-3.063,24.855c-0.918,9.729,2.406,13.167,13.385,10.692c1.95-0.439,3.892-0.924,5.837-1.388
	c0.199,0.481,0.399,0.963,0.599,1.444c-2.116,1.04-4.13,2.523-6.366,3.038c-7.455,1.716-15.006,3.012-22.489,4.613
	c-4.022,0.86-7.654-2.128-6.938-6.247c2.481-14.279,5.212-28.515,7.669-42.797c2.212-12.864,4.054-25.792,6.32-38.646
	c1.326-7.523,3.251-14.938,4.747-22.435c1.817-9.102,3.436-18.242,5.199-27.354c1.105-5.705,3.206-10.048,10.296-10.344
	C1924.46,383.512,1928.108,381.42,1932.938,379.824z"/>
<path fill-rule="evenodd" clip-rule="evenodd" d="M2242.884,71.423c10.234-1.971,20.469-3.94,32.127-6.186
	c-0.988,6.977-1.779,12.883-2.668,18.773c-1.608,10.65-3.269,21.293-4.92,31.937c-0.625,4.031-1.766,8.055-1.787,12.086
	c-0.019,3.668,0.351,7.771,2.015,10.904c2.125,3.997,6.477,2.587,9.604,1.002c10.368-5.258,16.746-14.224,22.254-24.183
	c4.869-8.802,6.749-18.342,7.592-27.986c0.394-4.506-2.085-9.269-3.303-13.904c-0.358-1.361-1.623-3.085-1.166-3.958
	c2.328-4.441,6.78-4.217,10.849-3.816c3.199,0.315,5.782,1.693,6.013,5.839c0.811,14.505-4.116,27.39-11.197,39.535
	c-3.928,6.738-8.252,13.423-13.438,19.196c-4.308,4.796-9.86,8.665-15.373,12.13c-5.047,3.173-10.776,5.26-16.213,7.811
	c-1.034,0.484-2.083,1.221-3.157,1.281c-2.648,0.149-5.754,0.764-7.803-0.377c-1.176-0.654-1.094-4.424-0.814-6.697
	c1.836-14.933,4.03-29.821,5.787-44.763c0.77-6.548,0.962-13.183,1.086-19.784c0.1-5.34-1.781-6.677-9.265-7.25
	c-1.98-0.151-3.981-0.022-5.973-0.022C2243.049,72.468,2242.967,71.946,2242.884,71.423z"/>
<path fill-rule="evenodd" clip-rule="evenodd" d="M253.789,152.65c1.407-11.698,2.714-21.929,3.852-32.177
	c1.577-14.195,5.002-28.244,3.653-42.66c-0.127-1.361-1.877-3.355-3.204-3.671c-3.805-0.906-7.78-1.101-11.95-2.479
	c10.473-2.107,20.945-4.214,32.61-6.562c-0.565,3.723-0.931,6.198-1.319,8.671c-1.998,12.734-4.156,25.447-5.945,38.211
	c-1.001,7.143-1.661,14.358-1.983,21.562c-0.31,6.931,4.718,10.271,10.672,6.992c7.366-4.057,14.133-9.104,17.952-16.932
	c3.753-7.692,8.207-15.295,10.312-23.463c1.817-7.049,0.88-14.838,0.886-22.3c0.001-1.458-0.92-3.278-2.006-4.31
	c-3.127-2.969-2.204-5.356,1.31-6.018c3.783-0.711,8.454-1.357,11.591,0.232c4.858,2.462,3.69,8.18,2.904,12.612
	c-2.383,13.432-6.912,26.261-14.81,37.392c-7.253,10.224-14.843,20.41-27.222,25.462c-4.872,1.987-9.162,5.434-14.065,7.301
	C263.34,151.918,259.098,151.862,253.789,152.65z"/>
<path fill-rule="evenodd" clip-rule="evenodd" d="M2857.643,132.882c-5.278,3.761-9.7,6.951-14.167,10.077
	c-2.534,1.773-5.128,3.463-7.718,5.152c-7.399,4.825-15.777,4.822-23.838,3.456c-6.111-1.036-9.877-6.4-10.283-12.383
	c-0.5-7.38-0.517-15.096,1.11-22.245c2.354-10.345,5.516-20.701,9.892-30.345c5.749-12.672,26.682-25.932,41.745-20.732
	c3.428,1.184,4.918,3.09,5.131,6.783c0.368,6.401-0.636,12.47-3.547,18.099c-0.976,1.887-2.769,3.747-4.652,4.701
	c-10.195,5.161-20.581,9.947-30.774,15.111c-1.398,0.709-2.865,2.755-2.974,4.276c-0.367,5.159-0.548,10.402-0.037,15.538
	c0.656,6.605,6.917,13.242,15.848,11.789c7.537-1.227,13.354-5.54,19.604-9.2c0.676-0.396,1.438-0.669,2.19-0.893
	C2855.425,131.994,2855.775,132.248,2857.643,132.882z M2817.629,108.017c5.923-2.819,10.871-5.111,15.762-7.518
	c8.704-4.282,13.667-10.826,13.11-21.027c-0.225-4.125-0.296-7.935-4.833-9.807c-4.392-1.813-7.17,1.051-9.891,3.534
	C2821.805,82.3,2820.362,94.882,2817.629,108.017z"/>
<path fill-rule="evenodd" clip-rule="evenodd" d="M1274.832,765.255c-0.966,1.181-1.727,2.657-2.932,3.493
	c-5.754,3.994-11.387,8.262-17.524,11.578c-6.763,3.653-13.881,6.013-22.049,3.823c-11.014-2.952-13.853-14.558-12.62-22.21
	c1.879-11.677,4.821-23.211,7.848-34.664c2.276-8.613,7.161-15.633,14.727-20.795c7.216-4.924,14.248-9.749,23.584-9.552
	c11.114,0.235,14.801,4.37,12.414,15.113c-0.908,4.088-1.785,8.585-4.142,11.831c-2.233,3.077-6.169,5.194-9.735,6.973
	c-8.676,4.326-17.589,8.178-26.358,12.323c-0.976,0.461-2.322,1.571-2.341,2.406c-0.192,8.467-2.058,17.312,4.398,24.566
	c3.978,4.47,13.416,5.453,19.515,2.107c4.801-2.634,9.567-5.33,14.349-7.999C1274.254,764.585,1274.543,764.92,1274.832,765.255z
	 M1236.908,739.557c4.093-1.708,7.606-2.963,10.932-4.6c12.217-6.012,18.827-11.062,17.609-26.204
	c-0.502-6.249-5.633-9.496-10.903-6.199c-3.105,1.942-5.888,4.76-8.087,7.724C1240.276,718.606,1238.333,728.486,1236.908,739.557z"
	/>
<path fill-rule="evenodd" clip-rule="evenodd" d="M1884.002,113.043c0.455,5.963,0.445,12.277,1.526,18.399
	c1.424,8.064,8.918,12.558,16.722,10.425c3.732-1.021,7.371-2.562,10.854-4.269c3.33-1.631,6.403-3.784,10.468-5.026
	c-0.526,0.854-0.851,2.018-1.61,2.517c-8.172,5.372-15.94,11.712-24.783,15.595c-7.091,3.114-15.979,3.416-22.613-1.905
	c-6.37-5.108-7.287-13.244-5.902-20.8c1.986-10.833,5.169-21.443,7.694-32.184c1.969-8.375,6.779-14.956,13.162-20.295
	c8.197-6.856,17.334-11.539,28.613-10.579c6.637,0.564,9.399,2.879,9.26,9.401c-0.238,11.162-3.415,20.242-15.166,24.878
	C1902.833,102.907,1894.012,108.065,1884.002,113.043z M1884.881,107.535c8.589-2.956,15.345-6.329,21.78-10.965
	c7.801-5.621,9.132-16.359,6.799-22.73c-1.476-4.029-4.159-5.853-8.343-4.095c-7.77,3.265-12.03,9.754-14.609,17.309
	C1888.375,93.301,1886.973,99.797,1884.881,107.535z"/>
<path fill-rule="evenodd" clip-rule="evenodd" d="M708.752,763.37c-0.587,1.903-0.579,3.126-1.131,3.483
	c-8.45,5.465-16.753,11.215-25.547,16.071c-7.117,3.932-18.55,2.701-24.399-3.994c-4.035-4.619-4.054-10.191-3.874-15.219
	c0.294-8.236,1.907-16.506,3.714-24.593c4.46-19.965,14.405-35.594,35.511-41.153c4.162-1.097,8.886-1.185,13.149-0.496
	c5.835,0.942,7.896,7.091,6.071,14.951c-2.029,8.747-5.922,15.418-15.12,18.817c-8.541,3.156-16.554,7.76-24.725,11.876
	c-1.193,0.602-2.772,2.007-2.808,3.085c-0.251,7.695-1.457,15.761,3.013,22.596c1.611,2.464,5.222,4.442,8.23,5.021
	C691.494,775.863,699.178,768.752,708.752,763.37z M671.073,739.886c5.566-2.718,9.752-4.829,13.994-6.819
	c10.28-4.821,15.423-12.515,14.473-24.2c-0.322-3.954-2.487-6.339-5.438-7.306c-2.027-0.665-5.381,0.186-7.127,1.606
	C675.799,712.263,672.178,724.799,671.073,739.886z"/>
<path fill-rule="evenodd" clip-rule="evenodd" d="M863.808,765.144c-0.792,1.115-1.336,2.69-2.416,3.274
	c-9.632,5.214-17.399,13.572-28.717,16.029c-10.264,2.229-23.561-2.375-23.332-17.576c0.284-18.816,3.333-37.106,14.312-52.524
	c8.225-11.551,20.199-18.609,35.454-17.353c5.519,0.455,9.5,4.203,9.155,9.733c-0.268,4.288-1.834,8.497-2.844,12.736
	c-2.289,9.613-11.653,10.447-18.346,14.358c-6.36,3.717-13.413,6.239-20.088,9.441c-0.894,0.43-1.786,1.693-1.946,2.688
	c-1.321,8.245-1.542,16.511,3.623,23.625c3.879,5.343,13.254,6.36,19.9,2.724c4.823-2.639,9.593-5.377,14.386-8.07
	C863.236,764.535,863.521,764.839,863.808,765.144z M825.622,738.409c0.482,0.227,0.965,0.454,1.447,0.681
	c3.275-1.368,6.589-2.654,9.82-4.12c9.118-4.137,16.687-9.692,18.329-20.532c0.64-4.222-0.566-10.197-4.611-12.699
	c-4.046-2.503-7.377,0.336-9.592,2.635c-3.771,3.915-7.414,8.428-9.505,13.368C828.74,724.289,827.513,731.489,825.622,738.409z"/>
<path fill-rule="evenodd" clip-rule="evenodd" d="M935.941,133.26c-1.956,1.816-3.731,3.896-5.908,5.391
	c-4.024,2.761-8.769,4.639-12.343,7.852c-7.261,6.525-15.845,5.784-24.341,5.376c-6.519-0.312-11.669-7.424-11.889-15.863
	c-0.318-12.225,1.694-24.026,5.635-35.693c2.484-7.357,5.011-14.46,10.327-20.194c9.545-10.294,20.818-16.804,35.47-15.083
	c4.742,0.558,8.571,7.088,7.399,12.223c-0.615,2.695-1.537,5.334-1.981,8.054c-1.486,9.118-9.394,11.533-15.948,15.099
	c-7.117,3.872-14.666,6.941-21.872,10.659c-1.612,0.832-3.508,2.801-3.693,4.427c-0.841,7.372-0.911,14.754,3.582,21.315
	c3.089,4.51,7.99,6.607,13.354,5.146c3.735-1.018,7.472-2.237,10.963-3.887c3.494-1.65,6.685-3.947,10.009-5.96
	C935.116,132.5,935.529,132.88,935.941,133.26z M898.256,107.64c4.531-2.13,8.128-4.01,11.869-5.541
	c9.232-3.779,15.66-9.968,17.168-20.153c0.627-4.232,0.297-8.536-3.764-11.388c-4.026-2.828-7.681-0.985-10.628,1.593
	C902.473,81.273,900.135,93.827,898.256,107.64z"/>
<path fill-rule="evenodd" clip-rule="evenodd" d="M1499.72,707.551c-5.771-1.581-11.394,0.885-16.248-1.663
	c0.004-0.744,0.007-1.488,0.011-2.231c5.382-0.33,10.764-0.659,16.703-1.023c1.038-6.11,1.967-12.489,3.298-18.783
	c0.341-1.613,1.625-3.569,3.034-4.319c5.924-3.153,12.059-5.909,18.81-8.154c-9.926,8.289-8.937,20.29-12.132,31.472
	c6.261,0,12.134,0,18.006,0c0.228,0.581,0.456,1.161,0.684,1.742c-1.337,0.797-2.626,2.163-4.021,2.28
	c-3.802,0.32-7.67-0.116-11.466,0.236c-1.386,0.129-3.565,1.427-3.822,2.548c-4.289,18.78-9.248,37.472-9.149,56.959
	c0.035,6.867,3.463,10.447,10.147,10.34c4.073-0.065,8.142-0.442,12.486-0.023c-4.838,1.661-9.635,3.458-14.527,4.94
	c-3.724,1.128-7.556,1.914-11.361,2.75c-6.026,1.322-10.968-0.899-10.662-8.072c0.285-6.702,1.056-13.403,1.992-20.052
	c1.477-10.494,3.217-20.953,4.952-31.409C1497.412,719.316,1498.59,713.581,1499.72,707.551z"/>
<path fill-rule="evenodd" clip-rule="evenodd" d="M1477.92,455.235c-4.875-0.481-8.806-0.695-12.659-1.357
	c-1.173-0.201-2.134-1.64-3.191-2.512c0.295-0.45,0.589-0.899,0.883-1.35c4.95,0,9.899,0,15.411,0
	c0.708-6.232,1.201-12.225,2.171-18.139c0.311-1.89,1.447-4.431,2.957-5.2c6.275-3.198,12.837-5.835,20.037-8.171
	c-9.938,8.296-9.629,20.09-12.531,31.44c6.556,0,12.317,0,18.257,0c-1.808,4.088-1.808,4.088-18.703,5.305
	c-1.995,9.148-4.5,18.393-5.933,27.801c-1.577,10.36-2.479,20.853-3.085,31.321c-0.415,7.165,6.024,11.807,12.914,10.132
	c2.771-0.673,5.602-1.093,8.781-0.506c-2.3,0.978-4.522,2.253-6.914,2.876c-5.963,1.554-12.018,2.754-18.01,4.201
	c-7.766,1.875-11.064-0.169-10.732-8.1c0.354-8.475,1.697-16.923,2.89-25.343c1.509-10.647,3.241-21.264,5.007-31.872
	C1476.024,462.417,1476.996,459.142,1477.92,455.235z"/>
<path fill-rule="evenodd" clip-rule="evenodd" d="M479.471,71.67c3.731-0.229,7.466-0.673,11.194-0.623
	c3.567,0.047,5.975-0.16,5.96-4.907c-0.014-4.687,1.818-9.405,1.613-14.055c-0.202-4.563,3.564-4.558,5.606-5.713
	c5.395-3.053,11.309-5.188,17.63-7.957c-0.277,1.49-0.2,2.17-0.469,2.359c-7.419,5.228-8.544,13.53-10.534,21.412
	c-0.318,1.261-0.771,2.501-0.955,3.78c-0.435,3.021,0.02,5.257,3.994,5.065c4.474-0.215,8.966-0.049,13.574,0.641
	c-5.114,5.492-12.184,2.124-19.226,3.933c-2.425,14.253-5.041,28.963-7.372,43.718c-0.742,4.697-0.797,9.511-1.048,14.277
	c-0.618,11.697,6.015,11.809,14.239,11.215c2.369-0.172,4.711-0.723,7.065-1.1c0.12,0.448,0.24,0.897,0.36,1.347
	c-2.94,0.983-5.826,2.206-8.834,2.898c-6.457,1.486-12.925,3.189-19.485,3.882c-6.202,0.653-7.645-0.84-7.248-7.33
	c0.548-8.977,1.672-17.933,2.899-26.85c1.468-10.654,3.295-21.261,4.994-31.883c0.334-2.091,0.445-4.312,1.269-6.209
	c1.785-4.11-0.443-4.609-3.617-4.589c-2.497,0.015-5.005,0.14-7.487-0.053c-1.431-0.11-2.819-0.754-4.227-1.158
	C479.402,73.072,479.437,72.372,479.471,71.67z"/>
<path fill-rule="evenodd" clip-rule="evenodd" d="M1323.028,73.786c1.013-0.925,1.955-1.952,3.075-2.722
	c0.455-0.314,1.296-0.064,1.962-0.079c11.641-0.265,13.763-1.854,13.133-13.77c-0.385-7.295,2.903-10.149,8.808-12.315
	c4.751-1.744,9.265-4.135,13.884-6.238c0.292,0.434,0.585,0.867,0.877,1.301c-1.894,1.962-4.66,3.604-5.517,5.946
	c-2.658,7.265-4.686,14.77-6.62,22.269c-0.153,0.591,2.245,2.579,3.549,2.674c4.613,0.336,9.267,0.131,13.904,0.131
	c0.223,0.526,0.444,1.054,0.667,1.58c-1.507,0.791-2.94,1.99-4.538,2.274c-2.261,0.403-4.642,0.145-6.972,0.146
	c-7.792,0.006-8.533,0.903-9.859,8.744c-1.599,9.453-4.152,18.769-5.316,28.263c-1.053,8.598-1.036,17.356-1.023,26.043
	c0.008,5.515,4.267,6.903,8.828,6.884c4.095-0.019,8.188-0.614,12.381-0.2c-10.094,2.731-19.465,8.017-30.348,7.363
	c-2.627-0.158-4.337-1.032-4.369-3.409c-0.105-7.486-0.465-15.048,0.396-22.45c1.354-11.643,3.573-23.188,5.528-34.756
	c0.65-3.847,1.376-7.714,2.507-11.438c1.2-3.955-0.247-5.188-3.993-5.065c-3.444,0.113-6.896,0.024-10.344,0.024
	C1323.428,74.585,1323.228,74.185,1323.028,73.786z"/>
<path fill-rule="evenodd" clip-rule="evenodd" d="M875.942,145.291c-10.335,2.293-19.994,7.362-31.052,6.715
	c-3.938-0.23-4.529-3.093-4.383-5.872c0.475-9.031,0.884-18.101,2.085-27.053c1.56-11.622,3.869-23.143,5.825-34.712
	c0.486-2.878,0.855-5.775,1.327-8.998c-5.438-0.33-10.349-0.628-15.259-0.926c-0.04-0.775-0.08-1.55-0.12-2.324
	c2.674-0.379,5.343-1.041,8.021-1.084c8.797-0.141,9.124-0.326,10.008-9.098c0.149-1.484-0.059-3.002,0.045-4.494
	c0.626-9.061,1.188-9.131,8.393-12.435c4.634-2.124,9.338-4.097,14.813-6.488c-2.844,4.629-5.788,8.139-7.296,12.184
	c-2.139,5.736-3.319,11.846-4.583,17.863c-0.116,0.551,2.093,2.229,3.287,2.301c4.628,0.275,9.282,0.111,13.927,0.111
	c0.219,0.521,0.438,1.042,0.657,1.563c-1.767,0.811-3.477,2.11-5.313,2.325c-3.287,0.384-6.685-0.162-9.965,0.248
	c-1.379,0.173-3.479,1.604-3.723,2.78c-4.088,19.694-9.812,39.172-8.252,59.666c0.42,5.513,5.952,8.742,13.104,7.363
	c2.712-0.523,5.46-0.861,8.191-1.283C875.769,144.193,875.855,144.742,875.942,145.291z"/>
<path fill-rule="evenodd" clip-rule="evenodd" d="M2414.168,75.379c-5.594-0.328-10.641-0.624-15.688-0.92
	c-0.021-0.851-0.044-1.7-0.065-2.55c3.338-0.309,6.671-0.816,10.013-0.883c6.966-0.141,8.538-0.601,7.759-7.402
	c-1.538-13.409,5.928-18.728,16.907-21.992c2.35-0.698,4.52-1.999,7.366-2.418c-11.092,7.899-9.192,20.346-12.592,31.567
	c6.436,0,12.161,0,19.246,0c-6.041,7.346-13.399,2.252-20.047,5.232c-2.094,10.551-4.697,21.948-6.526,33.47
	c-1.26,7.93-1.346,16.041-2.139,24.053c-1.117,11.286,6.027,11.971,14.206,11.31c2.413-0.195,4.795-0.771,7.506-0.038
	c-3.204,1.208-6.322,2.801-9.632,3.544c-6.499,1.461-13.082,2.6-19.674,3.582c-4.759,0.709-6.634-2.145-6.341-6.455
	c0.523-7.701,0.918-15.441,2.039-23.066C2408.777,106.973,2411.498,91.599,2414.168,75.379z"/>
<path fill-rule="evenodd" clip-rule="evenodd" d="M2117.992,145.714c-9.081,2.09-18.076,4.788-27.27,6.074
	c-7.074,0.989-10.282-4.215-9.057-11.507c1.869-11.106,3.056-22.326,4.807-33.455c1.468-9.331,2.999-18.679,5.177-27.859
	c0.882-3.715-0.389-3.945-3.156-3.997c-4.006-0.073-8.011-0.254-12.016-0.389c-0.038-0.82-0.076-1.641-0.114-2.461
	c2.965-0.379,5.924-1.02,8.896-1.084c7.319-0.159,7.271-0.059,8.197-7.178c0.567-4.366,1.269-8.719,2.024-13.058
	c0.154-0.892,0.602-2.147,1.279-2.471c6.702-3.192,13.476-6.235,20.254-9.265c0.301-0.135,0.841,0.27,2.248,0.773
	c-11.021,7.78-11.205,19.409-13.321,31.124c6.66,0,12.407,0,18.155,0c0.165,0.552,0.33,1.104,0.495,1.655
	c-2.155,0.786-4.255,1.885-6.479,2.273c-2.262,0.396-4.713,0.443-6.964,0.021c-5.22-0.978-6.893,1.833-7.699,6.237
	c-1.583,8.644-3.495,17.229-4.97,25.889c-0.959,5.637-1.376,11.364-2.059,17.048c-0.271,2.268-0.488,4.55-0.931,6.785
	c-1.812,9.157,5.003,15.902,14.153,14.027c2.679-0.549,5.415-0.812,8.125-1.206C2117.843,144.368,2117.917,145.042,2117.992,145.714
	z"/>
<path fill-rule="evenodd" clip-rule="evenodd" d="M237.584,832.844c2.264-6.607,4.236-7.494,10.024-4.824
	c6.414,2.958,11.636-0.017,13.648-8.981c3.417-15.222,6.237-30.58,9.15-45.911c2.067-10.878,4.145-21.766,5.721-32.721
	c1.445-10.051,2.234-20.196,3.295-30.302c0.469-4.472-1.503-6.502-6.048-6.15c-2.234,0.173-4.493,0.03-6.74,0.03
	c-0.037-0.491-0.073-0.982-0.11-1.475c9.76-1.456,19.52-2.912,29.776-4.442c-1.424,6.361-3.016,12.39-4.088,18.509
	c-1.772,10.114-3.03,20.319-4.838,30.427c-1.746,9.765-4.116,19.419-5.849,29.187c-2.544,14.343-6.848,28.195-13.447,41.053
	c-3.725,7.256-8.779,14.467-17.518,17.072C246.254,835.598,241.857,835.838,237.584,832.844z"/>
<path fill-rule="evenodd" clip-rule="evenodd" d="M1417.744,781.159c0.644-4.573,1.177-8.265,1.68-11.96
	c0.498-3.668,0.967-7.341,2.646-11.297c0.451,1.463,1.207,2.905,1.305,4.392c0.566,8.557,7.015,14.581,15.641,14.73
	c5.215,0.09,9.9-0.351,14.209-4.131c4.94-4.336,4.923-16.488,0.161-20.473c-5.043-4.221-9.854-8.721-14.937-12.891
	c-10.22-8.384-12.186-25.178,1.9-35.26c7.695-5.509,15.459-8.302,24.68-7.239c2.15,0.248,4.234,1.065,6.265,1.599
	c-1.011,6.244-1.885,11.644-2.759,17.042c-0.375,0.031-0.749,0.062-1.123,0.095c-0.329-1.105-0.795-2.19-0.964-3.32
	c-1.067-7.15-10.222-12.508-17.056-9.936c-9.917,3.73-12.242,13.814-4.588,21.23c4.221,4.09,8.96,7.681,13.674,11.218
	c9.83,7.375,14.263,17.62,8.841,30.724c-0.774,1.871-2.356,3.727-4.056,4.84c-6.636,4.347-13.228,8.874-20.292,12.427
	C1434.38,787.269,1425.909,784.549,1417.744,781.159z"/>
<path fill-rule="evenodd" clip-rule="evenodd" d="M923.277,715.469c-0.604-2.109-0.943-4.344-1.867-6.303
	c-1.934-4.101-9.243-7.782-13.618-7.147c-4.847,0.702-10.385,5.101-11.299,8.974c-1.129,4.779,1.793,11.876,5.579,14.971
	c6.663,5.445,13.503,10.773,19.517,16.89c7.331,7.457,4.372,26.841-6.953,30.357c-3.193,0.992-5.54,4.486-8.495,6.513
	c-9.781,6.704-20.161,6.616-30.705,2.094c-0.975-0.418-2.039-2.385-1.865-3.435c1.111-6.7,2.559-13.344,4.044-20.75
	c0.669,2.71,1.264,5.014,1.806,7.33c1.72,7.345,7.598,12.151,15.163,11.961c3.56-0.089,7.481-0.005,10.587-1.427
	c11.747-5.378,9.049-22.722-1.725-29.568c-6.195-3.938-12.393-7.965-15.699-15.101c-3.893-8.403-1.135-19.51,6.485-24.801
	c3.344-2.322,6.399-5.686,10.104-6.719c5.725-1.597,11.884-1.906,17.881-2.127c2.4-0.089,4.759,1.585,4.211,4.907
	c-0.742,4.498-1.472,8.997-2.206,13.496C923.906,715.546,923.592,715.508,923.277,715.469z"/>
<path fill-rule="evenodd" clip-rule="evenodd" d="M413.693,148.335c1.082-7.409,2.161-14.802,3.24-22.194
	c0.323-0.133,0.646-0.266,0.969-0.398c0.507,0.997,1.511,2.028,1.445,2.985c-0.856,12.525,10.671,17.599,19.946,16.263
	c5.84-0.841,10.796-3.253,12.954-8.95c2.32-6.122,1.192-11.954-3.841-16.514c-4.63-4.195-9.279-8.401-14.218-12.219
	c-10.647-8.23-10.551-25.385-0.245-33.506c10.122-7.979,20.757-11.465,33.423-7.176c-1.187,5.359-2.376,10.734-3.822,17.269
	c-0.566-1.81-0.952-2.676-1.102-3.581c-0.778-4.691-4.449-8.652-8.71-9.313c-8.35-1.294-13.656,0.559-16.146,5.637
	c-2.309,4.71-1.48,10.867,2.507,14.434c6.244,5.583,13.063,10.544,19.098,16.334c8.181,7.85,8.145,21.893,1.705,28.999
	c-4.785,5.28-11.696,8.722-17.893,12.613C435.419,153.783,420.745,153.241,413.693,148.335z"/>
<path fill-rule="evenodd" clip-rule="evenodd" d="M1043.729,66.688c-0.987,5.585-1.919,10.854-2.851,16.123
	c-0.361,0.132-0.723,0.263-1.084,0.394c-0.456-1.152-1.206-2.277-1.315-3.461c-0.424-4.589-3.8-8.312-8.324-8.738
	c-4.271-0.402-8.553-1.424-12.61,1.281c-6.557,4.372-5.339,16.2,0.526,20.61c4.693,3.529,9.426,7.006,14.173,10.461
	c11.454,8.336,12.493,28.321,3.524,34.711c-6.357,4.528-12.522,9.88-19.636,12.641c-7.406,2.874-15.878,2.593-23.55-0.845
	c-1.139-0.511-2.221-2.96-2.025-4.325c0.931-6.502,2.312-12.938,4.518-19.465c0.118,1.495,0.229,2.99,0.356,4.483
	c0.593,6.961,6.451,13.247,13.409,14.394c8.707,1.436,16.674-1.98,19.753-8.471c2.468-5.202,0.83-13.095-4.259-17.978
	c-4.501-4.319-9.282-8.38-14.19-12.235c-11.619-9.127-9.956-25.091,2.243-33.798C1023.486,64.549,1029.278,63.232,1043.729,66.688z"
	/>
<path fill-rule="evenodd" clip-rule="evenodd" d="M1261.998,125.807c0.181,1.103,0.514,1.874,0.39,2.562
	c-1.978,10.975,10.642,18.57,20.933,16.563c6.638-1.295,11.134-5.04,12.916-11.638c1.368-5.062-2.832-13.297-7.374-17.336
	c-5.78-5.14-13.094-8.489-17.061-15.85c-3.988-7.4-3.281-18.148,3.052-23.967c7.9-7.258,16.615-12.902,28.154-11.147
	c2.396,0.364,4.773,0.85,7.67,1.37c-1.32,5.679-2.575,11.081-4.181,17.987c-0.647-2.075-1.065-2.747-1.026-3.392
	c0.296-4.889-2.176-7.811-6.63-9.1c-5.279-1.527-10.413-2.948-15.424,1.476c-5.233,4.621-4.811,13.803-0.147,17.913
	c6.028,5.313,12.481,10.153,18.402,15.579c7.712,7.067,8.102,15.978,5.038,25.263c-0.734,2.227-2.227,4.625-4.076,5.986
	c-5.732,4.221-11.522,8.528-17.817,11.78c-7.803,4.032-16.321,2.507-24.556,0.906c-1.095-0.212-2.76-2.153-2.654-3.132
	c0.748-6.952,1.878-13.863,2.945-20.778C1260.598,126.556,1261.227,126.347,1261.998,125.807z"/>
<path fill-rule="evenodd" clip-rule="evenodd" d="M1155.803,758.098c0.534,2.121,1.182,4.221,1.582,6.366
	c1.465,7.858,7.01,12.522,15.065,12.511c2.489-0.004,5.08,0.293,7.451-0.272c10.215-2.437,14.455-16.468,7.222-24.383
	c-3.764-4.118-7.879-8.174-12.536-11.169c-13.89-8.934-14.344-27.028-1.114-36.184c7.25-5.018,14.028-8.938,22.918-7.946
	c2.856,0.319,5.666,1.062,8.487,1.608c-1.125,6.158-2.125,11.637-3.229,17.688c-0.545-0.783-1.147-1.248-1.117-1.666
	c0.815-11.163-14.544-15.34-22.289-9.957c-5.912,4.11-4.92,16.381,1.729,21.167c4.496,3.236,9.081,6.354,13.483,9.713
	c9.723,7.418,12.723,23.624,5.444,32.036c-3.97,4.589-9.721,7.63-14.633,11.415c-8.646,6.66-18.06,7.47-28.177,4.013
	c-3.321-1.135-5.208-1.945-3.923-6.505c1.659-5.889,1.713-12.229,2.458-18.376C1155.018,758.137,1155.41,758.118,1155.803,758.098z"
	/>
<path fill-rule="evenodd" clip-rule="evenodd" d="M1445.057,462.895c-0.211-0.831-0.477-1.653-0.622-2.496
	c-1.116-6.484-2.614-8.539-12.792-11.299c-3.477-0.943-9.835,2.314-11.883,6.239c-2.962,5.676-1.985,12.104,4.292,17.636
	c4.151,3.658,8.896,6.639,13.31,10.009c9.35,7.14,14.195,21.171,5.692,32.434c-2.436,3.228-6.879,4.865-10.087,7.6
	c-6.681,5.694-14.096,9.5-23.032,8.86c-3.994-0.285-7.994-1.474-11.805-2.792c-1.21-0.419-2.727-2.723-2.544-3.929
	c1.006-6.669,2.494-13.265,3.785-19.721c1.299,3.704,2.039,8.043,4.187,11.511c6.255,10.105,21.112,10.76,28.756,1.636
	c3.866-4.613,3.083-15.215-1.908-19.994c-4.864-4.659-10.234-8.785-15.239-13.304c-9.76-8.809-10.81-21.045-0.33-30.191
	c3.078-2.686,6.42-5.067,9.603-7.637c5.86-4.733,12.798-3.521,19.451-3.345c3.137,0.084,5.195,2.064,4.526,5.659
	c-0.813,4.373-1.691,8.735-2.541,13.102C1445.603,462.88,1445.329,462.888,1445.057,462.895z"/>
<path fill-rule="evenodd" clip-rule="evenodd" d="M977.275,65.071c-1.997,9.34-4.07,17.013-5.215,24.821
	c-2.176,14.832-6.832,29.218-6.882,44.479c-0.023,7.158,4.067,11.513,12.436,8.008c2.399-1.005,4.9-1.769,7.355-2.643
	c0.229,0.562,0.46,1.123,0.69,1.684c-3.197,1.512-6.335,3.168-9.605,4.498c-4.353,1.771-8.732,3.558-13.246,4.819
	c-3.094,0.865-6.51,1.401-9.633,0.979c-1.435-0.194-3.73-3.194-3.548-4.661c1.085-8.708,2.806-17.335,4.268-25.996
	c2.196-13.007,4.842-25.964,6.354-39.051c0.952-8.241,0.182-8.361-8.159-8.995c-1.978-0.15-3.976-0.022-5.965-0.022
	c-0.09-0.488-0.18-0.977-0.27-1.465C955.742,69.495,965.63,67.463,977.275,65.071z"/>
<path fill-rule="evenodd" clip-rule="evenodd" d="M1351.562,450.666c5.759-1.226,11.515-2.464,17.276-3.671
	c3.016-0.631,6.029-1.293,9.069-1.781c2.703-0.435,4.782-0.76,3.743,3.621c-2.962,12.486-5.633,25.057-7.9,37.687
	c-1.556,8.671-2.686,17.47-3.203,26.26c-0.54,9.173,4.312,11.966,13.237,8.419c2.345-0.931,4.784-1.62,7.181-2.421
	c0.211,0.532,0.422,1.064,0.633,1.598c-4.216,1.868-8.37,3.895-12.663,5.563c-4.984,1.938-10.065,3.637-15.149,5.302
	c-6.045,1.979-10.449-1.573-9.29-7.716c2.381-12.613,5.164-25.15,7.522-37.767c1.674-8.957,3.045-17.976,4.303-27.001
	c0.519-3.715-2.573-6.438-7.214-6.739c-2.495-0.162-5.01-0.028-7.516-0.028C1351.581,451.549,1351.571,451.107,1351.562,450.666z"/>
<path fill-rule="evenodd" clip-rule="evenodd" d="M1403.779,697.639c-0.459,3.806-0.656,6.872-1.218,9.87
	c-3.327,17.758-6.89,35.474-9.987,53.271c-0.595,3.419,0.166,7.22,0.959,10.694c0.812,3.563,3.76,4.584,7.143,3.804
	c4.181-0.965,8.31-2.152,12.461-3.243c0.161,0.408,0.321,0.818,0.481,1.227c-3.396,1.573-6.724,3.327-10.206,4.679
	c-5.895,2.288-11.827,4.514-17.854,6.409c-5.739,1.805-8.702-0.145-8.004-5.875c1.358-11.143,3.407-22.204,5.279-33.281
	c1.791-10.6,3.929-21.145,5.507-31.773c0.867-5.839-1.348-8.026-7.38-8.406c-2.415-0.151-4.847-0.025-7.271-0.025
	c-0.062-0.51-0.123-1.02-0.185-1.529C1383.283,701.58,1393.061,699.7,1403.779,697.639z"/>
<path fill-rule="evenodd" clip-rule="evenodd" d="M1640.503,141.561c-6.101,2.466-12.131,5.129-18.326,7.324
	c-3.93,1.393-8.059,2.572-12.184,2.977c-5.033,0.493-7.389-2.213-6.498-7.09c1.635-8.954,3.671-17.834,5.424-26.768
	c2.226-11.334,4.602-22.648,6.41-34.052c1.375-8.667-0.874-10.827-9.838-10.965c-1.488-0.022-2.978-0.003-4.74-1.086
	c3.415-0.964,6.799-2.063,10.253-2.858c4.59-1.056,9.254-1.787,13.851-2.817c5.426-1.217,6.689,0.074,5.56,5.514
	c-3.373,16.229-6.944,32.426-9.793,48.748c-1.018,5.834-0.587,12.023-0.079,17.987c0.372,4.377,3.92,6.127,8.136,4.844
	c3.787-1.154,7.544-2.408,11.314-3.618C1640.163,140.321,1640.333,140.941,1640.503,141.561z"/>
<path fill-rule="evenodd" clip-rule="evenodd" d="M2229.916,65.42c-0.595,3.981-0.904,6.709-1.421,9.396
	c-3.322,17.274-6.793,34.521-9.955,51.824c-0.618,3.386-0.331,6.999-0.045,10.474c0.409,4.983,4.521,7.392,9.432,5.884
	c3.251-0.998,6.53-1.902,10.046-2.92c0.126,0.612,0.415,1.705,0.347,1.729c-11.307,3.779-21.425,11.768-34.635,9.973
	c-1.313-7.602,0.009-14.761,1.57-22.104c3.116-14.656,5.622-29.447,8.128-44.225c1.912-11.275,1.022-12.13-10.708-12.48
	c-1.034-0.031-2.062-0.252-3.093-0.385c-0.026-0.427-0.053-0.854-0.08-1.28C2209.228,69.423,2218.953,67.542,2229.916,65.42z"/>
<path fill-rule="evenodd" clip-rule="evenodd" d="M1684.591,141.382c-2.686,1.214-5.353,2.47-8.06,3.633
	c-4.607,1.978-9.12,4.299-13.899,5.709c-3.546,1.046-7.458,1.165-11.189,1.06c-1.033-0.029-2.804-2.312-2.848-3.606
	c-0.121-3.579,0.188-7.24,0.868-10.765c2.435-12.622,5.161-25.187,7.638-37.8c1.257-6.401,2.44-12.835,3.216-19.307
	c0.386-3.222-0.354-6.237-4.872-6.406c-3.299-0.124-6.57-0.959-9.94-2.597c9.723-1.88,19.445-3.759,30.401-5.877
	c-1.423,7.114-2.755,13.216-3.851,19.358c-2.604,14.599-5.188,29.202-7.561,43.839c-0.503,3.104-0.353,6.394,0.01,9.538
	c0.521,4.509,3.948,6.349,8.476,5.009c3.661-1.084,7.345-2.093,11.02-3.135C1684.196,140.484,1684.394,140.933,1684.591,141.382z"/>
<path fill-rule="evenodd" clip-rule="evenodd" d="M1604.587,676.985c-5.057,0.023-5.981-1.28-6.221-7.103
	c-0.208-5.045,2.46-8.62,8.738-8.844c4.008-0.144,6.387,2.744,6.319,7.102C1613.336,673.797,1610.179,676.958,1604.587,676.985z"/>
<path fill-rule="evenodd" clip-rule="evenodd" d="M1568.502,676.985c-4.98,0.008-5.945-1.338-6.129-7.188
	c-0.148-4.745,2.015-8.225,8.321-8.762c4.189-0.356,6.987,2.667,6.688,7.188C1577.067,672.987,1574.206,677.815,1568.502,676.985z"
	/>
<path fill-rule="evenodd" clip-rule="evenodd" d="M1811.426,37.811c-0.419-4.758,1.986-8.271,8.31-8.776
	c4.14-0.332,6.737,2.434,6.689,6.637c-0.066,5.93-3.113,9.295-8.431,9.312C1813.36,45,1811.396,42.855,1811.426,37.811z"/>
<path fill-rule="evenodd" clip-rule="evenodd" d="M1847.426,38.032c-0.523-4.873,1.996-8.86,8.587-8.923
	c3.672-0.035,6.591,1.702,6.459,6.345c-0.17,5.946-3.031,9.44-8.258,9.53C1849.485,45.066,1847.439,42.969,1847.426,38.032z"/>
<path fill-rule="evenodd" clip-rule="evenodd" d="M400.269,44.983c-3.738-0.073-7.026-4.027-6.738-8.104
	c0.271-3.853,4.98-7.845,9.305-7.889c4.2-0.043,7.175,2.917,6.484,7.365C408.572,41.17,406.061,45.292,400.269,44.983z"/>
<path fill-rule="evenodd" clip-rule="evenodd" d="M373.424,36.031c-0.035,4.849-4.001,8.876-8.815,8.952
	c-3.845,0.061-7.005-3.412-7.066-7.765c-0.056-3.906,4.964-8.276,9.45-8.229C371.02,29.033,373.455,31.7,373.424,36.031z"/>
<path fill-rule="evenodd" clip-rule="evenodd" d="M1401.426,37.632c-0.017-5.244,2.891-8.463,7.799-8.633
	c4.018-0.139,7.099,2.8,7.186,6.854c0.098,4.532-4.089,9.1-8.369,9.131C1402.815,45.022,1401.444,43.498,1401.426,37.632z"/>
<path fill-rule="evenodd" clip-rule="evenodd" d="M1443.855,44.984c-5.115-0.023-6.004-1.606-6.551-7.524
	c-0.542-5.856,4.098-8.026,8.11-8.386c3.949-0.353,7.033,2.988,6.996,6.963C1452.368,40.648,1448.203,45.004,1443.855,44.984z"/>
<path fill-rule="evenodd" clip-rule="evenodd" d="M1250.426,36.33c-0.015,5.601-2.686,8.667-7.54,8.654
	c-5.408-0.013-6.471-1.205-6.46-7.251c0.009-5.275,3.062-8.792,7.591-8.744C1249.225,29.043,1250.44,30.437,1250.426,36.33z"/>
<path fill-rule="evenodd" clip-rule="evenodd" d="M1200.426,37.701c0.011-5.285,3.067-8.779,7.623-8.711
	c5.221,0.077,6.394,1.434,6.377,7.372c-0.016,5.596-2.692,8.644-7.572,8.622C1201.471,44.96,1200.414,43.762,1200.426,37.701z"/>
<path fill-rule="evenodd" clip-rule="evenodd" d="M608.426,36.121c-0.004,5.652-2.617,8.812-7.332,8.863
	c-5.558,0.062-6.668-1.112-6.668-7.041c0-5.357,2.895-8.867,7.382-8.952C606.862,28.895,608.43,30.583,608.426,36.121z"/>
<path fill-rule="evenodd" clip-rule="evenodd" d="M572.426,35.992c0.001,5.979-2.634,9.058-7.697,8.992
	c-5.183-0.067-6.297-1.289-6.303-6.913c-0.006-5.66,3.033-9.222,7.748-9.08C571.296,29.145,572.425,30.409,572.426,35.992z"/>
<path fill-rule="evenodd" clip-rule="evenodd" d="M1632.389,29.987c2.832,0.117,6.277-0.985,6.087,4.034
	c-0.214,5.643-4.972,11.158-10.024,10.916c-3.901-0.188-4.079-3.049-4.043-6.062C1624.49,31.94,1626.202,29.985,1632.389,29.987z"/>
<path fill-rule="evenodd" clip-rule="evenodd" d="M983.247,30.44c0.456,8.838-1.395,12.536-6.909,14.124
	c-4.057,1.168-6.671-0.737-6.908-5.034C969.016,32.055,973.219,29.207,983.247,30.44z"/>
<path fill-rule="evenodd" clip-rule="evenodd" d="M1409.986,661.985c2.998,8.988-2.722,16.516-8.922,14.916
	c-1.295-0.335-2.972-1.483-3.368-2.636c-2.276-6.631,2.03-12.321,9.03-12.28C1407.71,661.991,1408.694,661.985,1409.986,661.985z"/>
<path fill-rule="evenodd" clip-rule="evenodd" d="M1389.3,409.989c-1.006,3.494-1.553,7.342-3.209,10.63
	c-1.894,3.76-6.423,5.024-9.19,2.594c-1.706-1.498-1.43-6.499-0.52-9.458C1378,408.495,1382.13,407.387,1389.3,409.989z"/>
<path fill-rule="evenodd" clip-rule="evenodd" d="M288.432,676.786c0-3.376-0.41-6.562,0.153-9.565
	c0.341-1.819,1.931-4.436,3.412-4.787c2.7-0.642,5.872-0.279,8.544,0.595c0.718,0.235,0.861,3.957,0.373,5.847
	C299.117,675.815,296.856,677.202,288.432,676.786z"/>
<path fill-rule="evenodd" clip-rule="evenodd" d="M2235.946,30.175c1.8,9.517-0.886,13.497-8.467,14.604
	c-3.821,0.558-4.094-2.797-4.072-5.803C2223.464,30.885,2225.224,29.589,2235.946,30.175z"/>
<path fill-rule="evenodd" clip-rule="evenodd" d="M1669.43,38.044c0.006-6.461,1.558-7.924,7.67-8.12
	c3.623-0.116,5.688,0.534,5.396,4.852c-0.382,5.677-3.931,10.062-9.228,10.095C1668.29,44.901,1669.545,40.989,1669.43,38.044z"/>
</svg>
