<?xml version="1.0" encoding="utf-8"?>
<!-- Generator: Adobe Illustrator 16.0.0, SVG Export Plug-In . SVG Version: 6.00 Build 0)  -->
<!DOCTYPE svg PUBLIC "-//W3C//DTD SVG 1.1//EN" "http://www.w3.org/Graphics/SVG/1.1/DTD/svg11.dtd">
<svg version="1.1" id="Lag_1" xmlns="http://www.w3.org/2000/svg" xmlns:xlink="http://www.w3.org/1999/xlink" x="0px" y="0px"
	 width="2329.899px" height="688.538px" viewBox="0 0 2329.899 688.538" enable-background="new 0 0 2329.899 688.538"
	 xml:space="preserve">
<path fill-rule="evenodd" clip-rule="evenodd" d="M513.878,634.068c-9.245,1.251-18.476,2.663-27.759,3.493
	c-0.896,0.08-3.262-3.631-3.001-5.274c1.91-12.052,4.511-23.992,6.502-36.032c1.412-8.54,2.143-17.19,3.317-25.772
	c0.486-3.547,1.373-7.037,2.013-10.564c0.492-2.719,0.884-5.457,0.294-8.701c-2.934,3.533-6.219,6.836-8.728,10.649
	c-4.871,7.402-9.819,14.832-13.79,22.727c-4.841,9.624-8.882,19.668-12.928,29.668c-2.297,5.68-3.817,11.668-5.862,17.455
	c-1.566,4.433-3.515,5.673-9.048,5.947c0.271-25.104,0.579-50.273-9.592-74.436c-1.853,6.9-3.14,13.613-5.479,19.937
	c-3.132,8.464-6.606,16.878-10.825,24.841c-3.474,6.557-7.81,12.787-12.544,18.516c-7.162,8.666-17.018,13.848-28.023,13.975
	c-9.294,0.106-15.884-4.377-14.302-13.321c0.415-2.346,3.257-4.497,5.439-6.13c0.549-0.411,3.688,1.173,4.223,2.438
	c4.947,11.71,17.14,13.831,26.081,4.717c7.769-7.92,15.108-16.1,19.512-26.388c2.835-6.626,5.247-13.452,7.481-20.31
	c1.957-6.008,3.167-12.262,5.162-18.256c1.18-3.542,0.377-5.786-1.69-8.902c-4.341-6.542-10.287-10.22-17.563-11.315
	c-8.108-1.221-14.647,3.312-19.659,8.879c-4.292,4.766-7.097,10.87-11.193,16.537c0.72-2.67,1.065-5.516,2.222-7.981
	c5.885-12.55,20.468-25.461,36.088-24.649c11.19,0.582,18.887,6.226,24.132,15.884c6.539,12.041,8.5,25.15,9.578,38.532
	c0.552,6.854,1.387,13.686,2.034,19.948c2.915-5.773,5.872-11.991,9.149-18.036c4.834-8.916,9.421-18.022,14.99-26.469
	c5.925-8.986,12.626-17.503,19.52-25.782c2.133-2.561,6.028-3.634,9.076-5.457c4.304-2.574,8.458-5.432,12.92-7.686
	c1.315-0.664,3.896-0.235,5.065,0.715c0.795,0.646,0.793,3.65-0.02,4.568c-1.197,1.352-3.659,2.785-5.188,2.439
	c-7.6-1.717-9.164-0.776-11.713,6.478c-4.668,13.283-5.003,27.228-6.892,40.942c-1.001,7.273-2.5,14.485-3.327,21.775
	c-0.834,7.36-1.447,14.781-1.499,22.181c-0.026,3.753,2.255,6.394,6.763,6.028c2.917-0.237,5.869-0.045,8.806-0.045
	C513.707,632.575,513.792,633.322,513.878,634.068z"/>
<path fill-rule="evenodd" clip-rule="evenodd" d="M670.905,333.991c-8.85-0.683-16.25,1.195-22.838,6.129
	c-4.958,3.714-10.268,7.021-14.883,11.113c-4.639,4.113-5.089,15.529,0.722,20.222c2.187,1.766,2.323,4.201,0.376,6.413
	c-2.242,2.549-7.971,2.838-10.364,0.457c-4.023-4.003-3.217-9.089-2.746-13.976c1.505-15.597,13.371-22.659,25.431-28.086
	c16.358-7.36,34.045-7.938,51.745-5.452c4.835,0.679,9.856,0.967,14.41,2.541c14.241,4.924,13.955,19.977,6.276,28.781
	c-5.273,6.046-11.813,10.125-19.787,11.896c-0.836,0.186-1.925,2.785-1.614,3.911c0.947,3.429,2.294,6.798,3.895,9.984
	c4.919,9.794,10.057,19.479,15.056,29.232c3.881,7.573,9.005,13.56,18.109,15.14c-7.934,0-16.169,1.252-23.666-0.557
	c-3.462-0.835-5.951-7.422-8.064-11.795c-5.906-12.222-11.231-24.723-17.166-36.93c-1.151-2.37-4.017-3.908-7.014-5.573
	c-4.273,16.675-7.401,33.148-8.387,51.178c4.818,0.699,9.747,1.415,14.676,2.132c-0.111,0.566-0.223,1.134-0.335,1.7
	c-15.172,0-30.344,0-45.516,0c-0.1-0.322-0.199-0.646-0.299-0.968c1.976-0.552,3.921-1.311,5.934-1.595
	c1.962-0.276,4.02,0.146,5.985-0.114c4.178-0.554,7.276-1.233,7.37-7.27c0.115-7.376,2.556-14.704,3.854-22.077
	c2.008-11.405,4.103-22.802,5.773-34.259c1.323-9.075,2.087-18.232,3.046-27.359C671.036,337.359,670.905,335.878,670.905,333.991z
	 M710.941,347.232c-0.142-3.943-3.005-9.413-9.849-11.573c-4.111-1.299-8.652-1.212-12.985-1.847
	c-2.882-0.423-3.755,1.3-4.176,3.609c-1.685,9.258-3.2,18.55-5.082,27.768c-1.911,9.362-1.902,9.526,7.229,8.653
	c0.494-0.048,0.998,0.007,1.495-0.016C701.218,373.197,710.75,363.581,710.941,347.232z"/>
<path fill-rule="evenodd" clip-rule="evenodd" d="M36.068,52.527c-5.973,0.325-7.768-1.812-6.538-6.893
	c3.744-15.46,13.164-22.805,29.25-22.806c8.657,0,17.314,0,26.298,0.238c-8.228,2.097-4.907,9.636-6.9,14.521
	c-2.602,6.378-3.423,13.501-4.813,20.343c-0.482,2.377-0.375,4.874-0.574,7.881c11.72,0,22.996,0.066,34.269-0.119
	c0.957-0.016,2.418-1.561,2.745-2.662c2.811-9.466,5.101-19.095,8.154-28.478c4.498-13.823,14.568-22.303,27.924-27.124
	c1.51-0.546,3.463-0.131,5.132,0.218c0.4,0.083,0.92,2.281,0.642,2.483c-1.484,1.078-3.162,2.48-4.851,2.591
	c-9.645,0.634-11.579,2.065-14.96,12.034c-2.897,8.542-6.332,16.944-8.574,25.654c-2.102,8.165-3.288,16.614-4.271,25.009
	c-1.335,11.405-2.316,22.863-3.013,34.326c-0.402,6.616,3.341,9.199,9.771,7.694c2.919-0.683,5.913-1.045,8.873-1.553
	c0.113,0.435,0.227,0.869,0.34,1.304c-5.263,1.546-10.516,3.124-15.792,4.622c-2.027,0.576-4.274,0.621-6.133,1.509
	c-9.149,4.369-12.178-0.07-11.914-9.035c0.232-7.903,2.465-15.741,3.697-23.626c1.004-6.427,1.835-12.88,2.813-19.818
	c-11.574,0-23.19-0.064-34.804,0.115c-0.986,0.016-2.41,1.475-2.848,2.574c-3.468,8.706-6.134,17.787-10.248,26.163
	c-4.471,9.102-11.382,16.403-20.541,21.339c-7.875,4.243-28.263,5.934-34.616,0.786c-3.582-2.902-6.331-12.129-3.267-15.279
	c1.809-1.859,5.536-2.09,8.469-2.403c0.532-0.058,2.001,3.027,2.016,4.67c0.099,11.125,9.729,16.111,19.12,11.521
	c13.825-6.757,20.465-18.673,23.989-32.964c2.678-10.859,5.975-21.576,8.343-32.498c1.758-8.104,2.492-16.433,3.631-24.668
	c0.44-3.182-0.971-4.26-4.237-4.462c-8.174-0.507-15.553,1.202-22.15,6.173c-3.857,2.905-6.168,9.189-5.129,13.914
	C35.826,47.873,35.825,50.023,36.068,52.527z"/>
<path fill-rule="evenodd" clip-rule="evenodd" d="M1462.897,632.916c-9.911,2.849-19.754,6.073-30.769,4.624
	c-0.202-3.604-0.396-7.081-0.572-10.21c-12.445,3.692-24.232,6.547-35.513,10.759c-7.59,2.834-14.701,3.939-21.415-0.595
	c-2.684-1.812-5.252-5.765-5.462-8.903c-0.634-9.487-0.071-18.885,2.279-28.4c3.972-16.082,6.441-32.539,9.393-48.866
	c1.281-7.091,0.33-7.966-7.231-8.539c-2.081-0.158-4.122-0.831-6.258-2.15c10.769-1.109,21.538-2.219,31.807-3.276
	c-2.307,3.982-5.594,7.921-6.96,12.44c-1.867,6.176-2.109,12.825-3.345,19.216c-1.664,8.614-4.118,17.105-5.292,25.776
	c-1.172,8.665-2.123,17.56-1.449,26.219c0.748,9.599,9.858,15.194,19.213,12.479c9.138-2.652,18.044-6.142,26.936-9.565
	c1.528-0.588,3.254-2.526,3.568-4.104c2.219-11.156,4.128-22.376,6.068-33.587c1.861-10.755,4.629-21.472,5.198-32.3
	c0.647-12.326,10.36-15.503,17.955-21.131c3.071-2.276,5.894-5.12,9.305-6.626c2.339-1.031,5.5-0.197,8.59-0.197
	c-2.054,7.053-2.688,7.391-8.516,6.104c-4.116-0.908-7.82,0.415-9.912,3.853c-2.334,3.836-4.562,8.062-5.438,12.401
	c-3.351,16.585-6.455,33.235-9.011,49.959c-1.388,9.077-1.639,18.344-2.105,27.539c-0.291,5.724,0.89,6.772,6.812,6.948
	c2.104,0.063,4.225-0.381,6.337-0.609c1.859-0.201,3.717-0.424,5.575-0.637C1462.756,631.996,1462.827,632.456,1462.897,632.916z"/>
<path fill-rule="evenodd" clip-rule="evenodd" d="M894.778,118.312c-7.858,2.172-15.646,4.678-23.604,6.384
	c-4.499,0.964-6.118-2.797-6.165-6.466c-0.064-5.094,0.188-10.257,0.982-15.283c1.834-11.588,4.078-23.111,6.151-34.661
	c0.343-1.913,0.662-3.829,1.018-5.891c-4.597-0.543-8.762-1.036-12.928-1.528c0.04-0.744,0.08-1.488,0.119-2.233
	c4.261-0.388,8.522-0.776,12.996-1.185c1.155-5.323,2.323-10.852,3.584-16.358c0.188-0.824,0.616-1.947,1.26-2.259
	c5.01-2.423,10.1-4.682,15.731-6.456c-7.659,6.912-7.912,16.012-9.229,25.587c10.628-1.454,20.578-2.815,30.896-4.227
	c1.826,10.192,3.476,20.136,5.416,30.022c1.896,9.659,4.09,19.26,6.153,28.887c0.503,0.054,1.006,0.106,1.509,0.16
	c2.115-2.87,4.386-5.641,6.311-8.634c2.717-4.225,5.229-8.586,7.738-12.94c4.291-7.443,3.392-15.65,3.018-23.664
	c-0.103-2.206-2.152-4.28-3.121-6.496c-1.427-3.267,0.466-6.627,4.89-7.974c3.012-0.917,5.654-0.693,6.516,3.555
	c2.024,9.982,1.631,19.626-3.911,28.367c-9.793,15.449-19.938,30.675-29.897,46.02c-4.491,6.92-9.812,13.509-13.003,20.995
	c-2.083,4.889-1.014,11.12-1.356,16.75c0.499,0.078,0.998,0.155,1.497,0.233c-2.622,1.184-5.179,2.559-7.887,3.497
	c-2.673,0.926-4.22,0.144-4.643-3.156c-0.79-6.157,2.557-10.731,5.496-15.307c6.271-9.763,13.01-19.226,19.449-28.883
	c0.452-0.679,0.283-2.048-0.052-2.923c-1.159-3.03-3.006-5.875-3.71-8.989c-1.933-8.55-3.237-17.242-5.14-25.801
	c-1.368-6.156-3.152-12.234-5.049-18.253c-0.717-2.275-2.069-4.435-3.498-6.378c-1.535-2.087-3.44-2.982-6.363-1.749
	c-2.145,0.904-4.886,0.993-7.25,0.661c-5.03-0.708-6.146,2.224-6.814,6.173c-1.815,10.747-4.069,21.432-5.5,32.228
	c-0.634,4.779-1.138,10.478,0.848,14.5c3.269,6.621,9.961,3.919,15.597,2.745c0.441-0.092,0.866-0.264,1.299-0.398
	C894.346,117.427,894.562,117.87,894.778,118.312z"/>
<path fill-rule="evenodd" clip-rule="evenodd" d="M799.45,633.667c-4.021,1.378-7.988,2.947-12.078,4.073
	c-3.438,0.945-7.007,1.445-10.538,2.013c-4.44,0.713-7.733-4.467-6.885-10.081c1.783-11.795,3.214-23.644,5.009-35.437
	c0.852-5.596,2.207-11.114,3.369-16.841c-4.499-0.689-8.348-1.279-13.362-2.048c4.497-4.338,9.488-1.392,14.113-3.113
	c0.766-5.289,1.58-10.918,2.509-17.333c5.387-2.478,11.482-5.282,17.579-8.087c-6.406,7.369-8.645,16.061-9.467,26.837
	c10.601-1.624,20.528-3.146,30.76-4.714c3.867,19.838,7.74,39.703,11.601,59.506c1.246-0.145,1.702-0.071,1.8-0.226
	c7.67-12.14,17.986-23.182,17.859-38.735c-0.032-3.999-2.497-7.943-3.574-11.985c-0.498-1.87-1.087-5.235-0.36-5.642
	c2.691-1.504,5.881-2.464,8.959-2.723c0.918-0.076,2.905,2.762,3.004,4.351c0.623,10.069,0.594,19.855-5.678,28.89
	c-10.464,15.074-20.266,30.612-30.182,46.061c-4.557,7.099-9.1,14.255-12.932,21.752c-2.377,4.649-1.896,9.817,1.652,14.312
	c-4.106,1.423-8.021,2.778-11.672,4.042c-3.431-8.297,1.079-13.86,4.365-19.197c6.404-10.399,13.695-20.253,20.166-29.674
	c-1.034-1.967-2.133-3.34-2.506-4.888c-1.785-7.403-3.4-14.85-5.024-22.291c-1.381-6.331-2.195-12.838-4.178-18.971
	c-1.866-5.777-4.445-11.485-7.759-16.536c-1.015-1.546-5.498-1.12-8.38-1.049c-2.746,0.068-5.474,0.852-9.183,1.486
	c-1.796,10.279-3.685,20.977-5.525,31.682c-0.637,3.703-0.945,7.473-1.763,11.132c-2.037,9.122,3.321,14.553,12.595,12.728
	c1.756-0.346,3.638-0.049,5.461-0.049C799.288,633.163,799.369,633.415,799.45,633.667z"/>
<path fill-rule="evenodd" clip-rule="evenodd" d="M2211.17,124.955c1.011-3.888,1.992-7.081,2.657-10.34
	c1.431-7.008,2.872-14.022,3.985-21.085c1.221-7.75,2.481-15.531,2.979-23.347c0.511-8.021-3.817-10.752-11.657-8.032
	c-2.602,0.902-5.363,1.604-7.661,3.027c-1.528,0.948-3.052,2.877-3.398,4.603c-2.883,14.36-5.664,28.745-8.118,43.184
	c-1.511,8.893-5.736,12.654-13.989,11.282c1.682-7.932,3.452-15.841,5.021-23.789c2.297-11.638,4.598-23.28,6.565-34.976
	c0.529-3.146-1.984-4.545-4.96-4.632c-2.701-0.078-5.406-0.017-8.109-0.017c-0.067-0.715-0.135-1.431-0.202-2.146
	c8.641-1.805,17.281-3.608,26.571-5.548c0,3.87,0,6.641,0,10.015c4.625-1.638,8.68-3.087,12.742-4.509
	c4.592-1.608,9.121-3.467,13.813-4.693c3.275-0.855,6.086-0.043,5.52,4.473c-0.161,1.291-0.024,2.619-0.024,5.013
	c5.086-1.855,9.536-3.505,14.006-5.101c4.277-1.528,8.482-3.426,12.888-4.39c5.284-1.154,7.769,1.178,7.026,6.419
	c-0.891,6.281-2.563,12.45-3.519,18.726c-1.623,10.656-3.27,21.328-4.276,32.053c-0.569,6.059,1.998,7.593,7.961,6.184
	c1.721-0.407,3.539-0.401,5.575,0.287c-3.788,1.399-7.526,2.961-11.38,4.146c-3.096,0.951-6.366,1.317-9.496,2.175
	c-4.131,1.132-5.991,0.052-5.705-4.267c0.346-5.21,1.023-10.432,2.024-15.557c1.681-8.606,4.03-17.089,5.503-25.726
	c0.772-4.535,0.441-9.293,0.224-13.933c-0.043-0.914-1.989-2.611-2.816-2.476c-5.74,0.94-11.664,1.657-16.976,3.812
	c-1.825,0.741-2.415,5.319-2.972,8.257c-2.426,12.806-4.598,25.658-6.941,38.479c-0.605,3.312-0.55,7.448-2.538,9.596
	C2219.666,124.099,2215.497,123.904,2211.17,124.955z"/>
<path fill-rule="evenodd" clip-rule="evenodd" d="M2067.665,124.343c0.584-3.878,1.009-7.744,1.768-11.543
	c3.093-15.478,6.355-30.922,9.389-46.411c0.635-3.241-0.704-5.576-4.521-5.559c-2.723,0.013-5.445,0.003-8.167,0.003
	c-0.09-0.711-0.179-1.422-0.268-2.132c8.452-1.79,16.904-3.58,26.018-5.511c0,3.828,0,6.601,0,9.805
	c10.694-3.495,20.873-6.823,31.92-10.434c0,4.29,0,7.047,0,11.028c5.648-2.039,10.498-3.864,15.4-5.536
	c4.385-1.496,8.767-3.084,13.266-4.145c3.853-0.908,6.184,0.682,5.43,5.082c-1.129,6.583-2.379,13.145-3.429,19.739
	c-1.589,9.985-3.362,19.956-4.464,29.999c-0.884,8.049,1.213,9.593,8.938,8.205c1.606-0.289,3.311-0.042,5.18,0.557
	c-3.775,1.429-7.504,3.004-11.341,4.239c-3.074,0.989-6.315,1.451-9.423,2.354c-4.711,1.368-7.017-0.08-6.375-4.778
	c0.902-6.611,2.369-13.145,3.548-19.72c1.811-10.104,3.897-20.173,5.254-30.339c0.877-6.562-4.585-9.593-11.739-7.029
	c-2.593,0.93-5.825,1.271-7.577,3.052c-2.166,2.202-3.713,5.478-4.428,8.545c-1.438,6.182-2.13,12.537-3.133,18.82
	c-1.516,9.499-3.035,18.997-4.63,28.977c-3.227,0.965-6.919,2.068-11.518,3.443c0.613-3.432,1.153-6.342,1.651-9.259
	c1.838-10.764,3.684-21.526,5.482-32.297c0.727-4.345,1.76-8.692,1.918-13.065c0.307-8.422-3.54-11.095-11.577-8.33
	c-7.089,2.438-12.279,5.801-12.643,14.915c-0.339,8.501-3.198,16.897-4.892,25.352c-0.988,4.935-1.592,9.963-2.863,14.819
	C2078.37,122.808,2074.817,124.797,2067.665,124.343z"/>
<path fill-rule="evenodd" clip-rule="evenodd" d="M947.034,428.921c-8.155,1.742-16.312,3.485-26.128,5.584
	c1.188-7.506,2.055-13.913,3.246-20.259c1.439-7.669,3.328-15.255,4.691-22.936c0.971-5.468,1.621-11.017,1.988-16.559
	c0.287-4.331-1.581-5.759-5.697-4.488c-6.44,1.987-12.776,4.312-18.666,6.326c-3.791,18.488-7.417,36.17-11.079,54.027
	c-2.817,0.802-5.755,1.638-9.8,2.79c0.479-3.653,0.768-6.484,1.232-9.286c2.002-12.052,3.812-24.143,6.151-36.13
	c3.106-15.923,4.334-32.434,11.092-47.344c6.402-14.125,16.014-26.044,31.938-30.13c5.004-1.284,10.731,0.108,16.102,0.583
	c0.683,0.061,1.954,2.346,1.652,2.989c-0.883,1.877-2.181,3.767-3.811,4.995c-0.795,0.599-3.219,0.257-4.005-0.544
	c-7.593-7.729-19.367-5.75-23.949,4.396c-3.368,7.46-6.951,14.926-9.251,22.738c-2.671,9.071-4.043,18.525-6.126,28.518
	c8.281-3.463,15.605-6.854,23.178-9.547c3.603-1.281,7.664-1.498,11.543-1.692c2.32-0.116,4.06,1.296,3.562,4.108
	c-0.454,2.565-0.852,5.146-1.449,7.679c-3.544,15.016-7.901,29.89-8.503,45.438c-0.291,7.524,2.077,9.249,9.411,7.443
	c0.69-0.17,1.345-0.483,2.016-0.731C946.593,427.567,946.813,428.244,947.034,428.921z"/>
<path fill-rule="evenodd" clip-rule="evenodd" d="M609.197,124.115c2.062-11.241,4.157-22.122,6.029-33.041
	c1.378-8.036,2.333-16.146,3.721-24.18c1.134-6.561,2.602-13.064,3.973-19.583c2.449-11.65,6.88-22.309,14.913-31.375
	c7.395-8.347,15.724-15.126,27.244-15.912c3.689-0.252,7.601,1.503,11.236,2.819c0.688,0.249,1.255,3.214,0.657,4.124
	c-1.101,1.676-3.107,2.757-5.206,4.47c-4.307-6.717-10.077-8.084-17.059-5.662c-4.775,1.656-7.408,5.501-9.521,9.524
	c-7.474,14.227-11.36,29.565-13.3,45.447c-0.135,1.101-0.498,2.174-0.833,3.591c12.143-3.283,22.601-11.965,36.311-10.354
	c2.43,5.139,0.261,10.275-0.734,15.294c-2.723,13.725-5.88,27.361-8.647,41.077c-1.173,5.811,1.614,8.68,7.687,8.449
	c1.676-0.063,3.342-0.414,5.284,0.157c-1.653,0.764-3.235,1.826-4.973,2.234c-5.678,1.336-11.378,2.649-17.135,3.548
	c-3.994,0.623-4.322-2.73-3.825-5.252c1.664-8.438,4.049-16.737,5.59-25.192c1.751-9.615,3.161-19.312,4.183-29.03
	c0.515-4.896-1.817-6.131-6.349-4.353c-3.422,1.344-6.824,3.37-10.357,3.672c-8.238,0.705-8.817,6.962-10.099,12.686
	c-2.345,10.473-4.402,21.01-6.586,31.519c-0.133,0.64-0.547,1.306-0.45,1.897C622.332,119.104,618.185,123.113,609.197,124.115z"/>
<path fill-rule="evenodd" clip-rule="evenodd" d="M1387.996,62.017c-3.651-1.436-8.816,1.723-13.936-2.951
	c3.258-0.547,5.301-1.04,7.37-1.196c2.298-0.174,4.619-0.04,6.614-0.04c1.833-6.646,2.216-13.839,5.724-18.84
	c2.613-3.727,9.271-4.616,14.695-6.208c-6.708,7.111-7.934,15.692-8.247,25.039c7.413,0,14.888,0.171,22.337-0.177
	c1.17-0.055,2.664-2.304,3.223-3.826c0.598-1.63,0.046-3.644,0.391-5.413c0.618-3.167,0.527-7.792,2.519-9.111
	c4.984-3.302,10.969-5.094,16.946-7.015c-7.825,6.779-8.161,16.093-9.481,25.432c4.772,0,9.548,0,14.323,0
	c0.193,0.55,0.386,1.1,0.578,1.649c-2.071,0.822-4.081,2.048-6.228,2.373c-3.095,0.469-7.088-0.82-9.196,0.71
	c-1.832,1.33-1.578,5.532-2.251,8.465c-2.927,12.761-5.716,25.449-5.742,38.749c-0.014,6.992,5.888,10.262,11.535,9.018
	c2.136-0.471,4.224-1.158,6.683-0.671c-3.416,1.262-6.782,2.683-10.259,3.741c-3.564,1.084-7.254,1.745-10.856,2.714
	c-4.786,1.286-8.155-0.799-7.728-5.729c1.048-12.074,2.474-24.123,4.049-36.143c0.885-6.749,2.369-13.42,3.696-20.747
	c-7.981,0-15.927-0.112-23.86,0.139c-1.023,0.032-2.619,1.81-2.879,3.01c-1.995,9.203-4.156,18.406-5.393,27.725
	c-0.91,6.859-0.866,13.91-0.542,20.843c0.183,3.912,6.259,6.269,11.335,5.032c2.075-0.506,4.142-1.048,6.213-1.573
	c0.111,0.439,0.223,0.879,0.334,1.318c-6.384,1.816-12.714,3.867-19.177,5.336c-2.647,0.602-6.967,1.027-8.07-0.385
	c-1.816-2.325-2.119-6.203-2.168-9.44c-0.057-3.726,0.805-7.475,1.357-11.199C1383.911,89.129,1385.954,75.62,1387.996,62.017z"/>
<path fill-rule="evenodd" clip-rule="evenodd" d="M1555.889,577.436c-4.405-0.749-8.609-1.464-12.814-2.179
	c0.037-0.656,0.074-1.313,0.111-1.971c4.441,0,8.884,0,13.138,0c0.62-4.188,1.65-7.44,1.456-10.618
	c-0.396-6.471,3.108-9.247,8.565-11.088c3.441-1.161,6.649-3.012,10.564-4.146c-8.248,6.464-7.094,16.334-10.542,25.383
	c8.634,0,16.549,0.056,24.461-0.081c0.842-0.015,1.891-1.001,2.43-1.811c0.501-0.754,0.495-1.868,0.637-2.834
	c0.605-4.158-0.279-9.786,2.096-12.156c4.11-4.101,10.234-6.182,16.225-8.371c-7.446,6.899-6.537,16.423-9.413,25.307
	c5.187,0,10.029,0,14.871,0c0.097,0.621,0.193,1.243,0.29,1.865c-3.547,0.697-7.086,1.91-10.64,1.954
	c-3.981,0.049-5.14,1.101-5.647,5.301c-0.869,7.19-3.18,14.199-4.721,21.319c-0.584,2.697-0.916,5.485-1.008,8.244
	c-0.178,5.343-0.653,10.764,0.019,16.021c0.696,5.445,4.238,7.16,9.54,6.016c2.334-0.503,4.756-0.602,7.365,0.256
	c-3.217,0.999-6.411,2.081-9.657,2.976c-3.909,1.076-7.828,2.172-11.806,2.935c-4.847,0.93-9.215-3.532-8.367-8.917
	c2.024-12.86,4.453-25.657,6.581-38.502c0.825-4.982,1.277-10.026,1.989-15.767c-8.391,0-16.838,0-24.976,0
	c-2.203,9.602-4.698,18.366-6.114,27.302c-1.182,7.452-1.633,15.12-1.406,22.662c0.178,5.867,4.742,8.282,10.569,6.958
	c2.169-0.493,4.438-0.546,6.877,0.091c-3.703,1.333-7.344,2.891-11.127,3.935c-3.753,1.036-7.67,1.462-11.477,2.327
	c-3.605,0.819-7.709-4.34-6.958-9.448c2.492-16.947,5.311-33.848,8.037-50.761C1555.161,578.87,1555.604,578.154,1555.889,577.436z"
	/>
<path fill-rule="evenodd" clip-rule="evenodd" d="M2010.428,547.341c-8.346,6.442-6.534,16.573-9.907,25.477
	c8.192,0,15.797,0.08,23.395-0.104c0.913-0.022,2.311-1.322,2.594-2.29c1.003-3.432,2.55-7.079,2.175-10.454
	c-0.626-5.632,3.498-6.406,6.731-8.067c3.508-1.804,7.286-3.08,11.636-4.327c-8.002,6.511-7.934,15.985-9.899,25.146
	c4.779,0,9.541,0,14.303,0c0.182,0.354,0.363,0.708,0.545,1.062c-0.816,0.668-1.54,1.572-2.475,1.934
	c-0.875,0.338-1.976,0.054-2.972,0.123c-9.52,0.664-11.388,2.737-12.712,12.277c-1.142,8.223-3.121,16.328-4.263,24.551
	c-0.68,4.891-0.849,9.933-0.523,14.859c0.289,4.387,6.088,7.258,11.161,6.171c2.03-0.436,4.09-0.729,6.441,0.045
	c-4.209,1.359-8.382,2.848-12.641,4.025c-2.347,0.649-4.876,0.611-7.255,1.171c-6.686,1.574-10.444-2.383-9.34-9.215
	c2.058-12.737,3.611-25.555,5.535-38.314c0.482-3.195,1.633-6.285,2.356-9.45c0.35-1.528,0.422-3.12,0.713-5.421
	c-8.902,0-17.208,0-25.648,0c-2.547,12.477-5.237,24.35-7.281,36.333c-0.801,4.697-0.49,9.671-0.073,14.465
	c0.434,4.976,5.69,7.572,11.463,6.24c1.878-0.434,3.805-0.652,6.028,0.143c-4.262,1.368-8.491,2.852-12.799,4.058
	c-2.344,0.656-4.858,0.686-7.229,1.268c-6.316,1.551-10.313-1.29-9.478-7.658c1.421-10.821,3.488-21.559,5.265-32.334
	c1.188-7.205,2.342-14.416,3.531-21.754c-4.297-0.575-8.488-1.136-13.869-1.856c4.509-4.516,9.55-1.352,14.074-3.299
	c0.906-4.628,1.547-9.821,3.064-14.744c0.655-2.124,2.8-4.339,4.844-5.368C2001.873,550.038,2006.235,548.857,2010.428,547.341z"/>
<path fill-rule="evenodd" clip-rule="evenodd" d="M1266.564,84.227c6.119,9.074,11.756,17.413,17.372,25.766
	c3.961,5.891,7.85,11.871,16.653,10.521c-0.771,0.432-1.499,1.096-2.323,1.256c-4.796,0.931-9.677,1.494-14.4,2.688
	c-2.821,0.713-4.67,0.379-6.081-2.209c-2.596-4.759-5.034-9.626-7.961-14.176c-4.594-7.143-9.436-14.134-14.393-21.03
	c-1.582-2.201-3.748-1.681-4.409,0.889c-2.184,8.488-4.452,16.983-5.955,25.604c-0.787,4.514-1.78,7.727-6.913,8.426
	c-1.638,0.223-3.111,1.655-5.485,3.004c0.831-3.424,1.559-6.114,2.133-8.838c2.709-12.867,5.49-25.723,8.026-38.625
	c2.195-11.168,3.3-22.616,6.347-33.532c3.218-11.526,8.323-22.744,17.987-30.401c7.681-6.086,16.104-11.645,26.139-13.3
	c2.247-0.371,4.921,0.923,7.13,2.001c0.448,0.22-0.018,3.03-0.574,4.445c-1.199,3.048-3.513,2.602-5.659,1.143
	c-4.603-3.127-8.809-2.037-13.346,0.41c-7.922,4.272-12.765,10.586-15.073,19.277c-1.444,5.435-4.148,10.534-5.592,15.969
	c-1.653,6.221-2.537,12.646-3.784,19.135c7.204-2.618,14.127-5.13,21.046-7.652c3.609-1.316,7.395-2.729,10.55,0.557
	c2.634,2.743,2.206,10.398-0.177,13.872c-4.178,6.091-10.212,9.607-16.78,12.457C1269.586,82.511,1268.223,83.35,1266.564,84.227z
	 M1257.302,83.89c7.711-0.863,14.903-3.549,20.637-8.821c5.77-5.305,4.338-13.337-2.479-14.772
	c-2.902-0.611-6.461,0.514-9.386,1.687c-5.136,2.06-11.404,3.146-12.062,10.534c-0.187,2.1-0.438,4.277-1.172,6.227
	C1251.106,83.35,1253.14,84.376,1257.302,83.89z"/>
<path fill-rule="evenodd" clip-rule="evenodd" d="M891.023,577.731c8.572-2.95,17.047-6.014,25.627-8.746
	c3.301-1.052,6.695,2.271,7.285,6.147c1.214,7.987-3.787,12.816-9.097,17.013c-3.899,3.081-8.729,4.985-13.541,7.634
	c2.656,4.2,5.537,8.83,8.495,13.411c3.146,4.873,6.032,9.963,9.645,14.468c3.349,4.178,6.853,8.755,13.396,9.065
	c-5.821,1.024-11.623,2.226-17.484,2.909c-1.031,0.12-2.627-1.728-3.433-3.001c-6.38-10.096-12.624-20.276-18.937-30.415
	c-0.686-1.101-1.421-2.221-2.344-3.115c-2.491-2.414-4.718-1.689-5.493,1.381c-2.267,8.97-4.104,18.047-6.322,27.029
	c-0.385,1.558-1.505,3.343-2.821,4.17c-2.288,1.438-4.994,2.21-8.36,3.607c0.863-4.917,1.52-9.05,2.321-13.153
	c2.619-13.408,5.275-26.809,7.947-40.206c1.65-8.277,2.867-16.681,5.14-24.787c4.637-16.537,12.221-30.982,28.82-38.997
	c6.143-2.965,11.626-6.875,18.983-6.438c3.978,0.235,4.238,2.223,4.052,5.176c-0.232,3.681-3.222,3.59-5.102,2.747
	c-11.734-5.259-18.867,1.625-25.514,9.462c-1.803,2.126-2.968,5.008-3.762,7.735c-3.344,11.483-6.453,23.035-9.581,34.58
	C890.708,576.278,891.001,577.293,891.023,577.731z M886.158,598.189c8.184,3.128,22.194-2.297,27.864-10.608
	c1.933-2.833,3.158-5.576,0.65-8.386c-2.477-2.774-4.99-5.799-9.645-3.509c-3.021,1.485-6.567,1.922-9.546,3.468
	c-2.439,1.268-5.397,3.069-6.333,5.364C887.472,588.634,887.142,593.299,886.158,598.189z"/>
<path fill-rule="evenodd" clip-rule="evenodd" d="M1764.654,641.865c0.508-5.558,1.177-9.616,1.2-13.678
	c0.113-19.323,0.153-38.649,0.005-57.973c-0.067-8.933-0.512-17.868-1.086-26.784c-0.081-1.253-2.014-3.517-2.867-3.417
	c-9.27,1.084-17.938,3.474-23.179,12.348c-2.482,4.205-2.682,8.488-0.677,12.687c1.465,3.069,1.009,5.349-1.893,6.559
	c-3.411,1.423-4.36-1.498-4.796-3.9c-1.659-9.152,1.811-16.186,8.881-22.048c7.286-6.041,15.584-8.499,24.816-8.862
	c7.032-0.276,14.053-0.851,21.078-1.293c0.132,0.592,0.264,1.184,0.396,1.775c-2.248,0.714-4.496,1.427-7.632,2.422
	c-0.263,2.049-0.875,4.9-0.955,7.767c-0.421,15.093-0.799,30.188-1.011,45.284c-0.155,11.079-0.03,22.162-0.03,33.243
	c0.663,0.286,1.326,0.573,1.988,0.859c6.573-6.077,13.604-11.738,19.604-18.336c7.518-8.266,14.619-16.994,21.115-26.083
	c7.436-10.402,12.328-22.01,11.192-35.223c-0.28-3.253-1.812-6.397-2.843-9.845c0.578-0.186,1.16-0.545,1.732-0.529
	c3.287,0.09,8.023-0.992,9.509,0.719c2.106,2.427,3.379,7.529,2.268,10.441c-3.615,9.472-8.248,18.585-12.913,27.617
	c-7.035,13.619-18.102,23.997-28.651,34.792c-8.51,8.708-16.549,17.88-25.174,26.467
	C1772.523,639.073,1768.888,639.841,1764.654,641.865z"/>
<path fill-rule="evenodd" clip-rule="evenodd" d="M301.18,125.773c-0.202-4.084-0.339-6.858-0.496-10.048
	c-10.764,3.474-21.254,6.859-31.538,10.178c-4.898-9.299-3.057-17.507-1.963-25.809c1.495-11.343,6.99-21.13,11.32-31.387
	c0.254-0.602,0.398-1.357,0.848-1.753c8.03-7.064,16.345-14.994,27.827-12.715c6.1,1.21,10.13-0.485,14.766-2.914
	c0.681-0.357,1.559-0.34,2.868-0.6c-0.328,3.337-0.368,6.41-0.976,9.366c-1.271,6.191-2.868,12.315-4.282,18.479
	c-2.6,11.331-5.601,22.587-4.729,34.431c0.234,3.18,1.564,4.133,4.368,3.814c2.73-0.31,5.45-0.712,8.175-1.074
	c0.117,0.435,0.234,0.868,0.352,1.303C319.066,119.891,310.414,122.736,301.18,125.773z M277.854,104.726
	c0.35,0.081,0.701,0.161,1.051,0.241c0,1.332-0.016,2.665,0.003,3.997c0.088,6.322,2.484,8.153,8.972,6.949
	c0.969-0.18,1.996-0.035,2.992-0.09c6.004-0.325,9.531-2.683,10.953-8.373c3.579-14.324,6.9-28.715,10.107-43.127
	c0.242-1.087-0.925-2.955-1.973-3.783c-5.966-4.721-14.962-3.477-18.878,3.068c-2.934,4.902-5.391,10.259-7.045,15.721
	C281.515,87.655,279.871,96.247,277.854,104.726z"/>
<path fill-rule="evenodd" clip-rule="evenodd" d="M488.144,49.631c-0.964,6.245-1.426,10.921-2.449,15.471
	c-1.562,6.948-3.855,13.742-5.209,20.724c-1.553,8.006-2.759,16.115-3.47,24.235c-0.539,6.152,2.174,7.963,8.27,6.593
	c1.659-0.373,3.34-0.65,5.354,0.13c-4.42,1.682-8.825,3.401-13.266,5.025c-1.966,0.72-4.092,1.046-5.99,1.897
	c-5.725,2.565-8.222,1.057-8.492-5.3c-0.034-0.806-0.194-1.606-0.348-2.814c-3.423,1.159-6.604,2.202-9.761,3.314
	c-4.895,1.725-9.794,3.439-14.651,5.264c-4.939,1.855-7.3,0.722-8.279-4.259c-1.878-9.546-1.079-18.912,2.5-27.93
	c3.333-8.399,6.273-17.078,10.699-24.89c5.761-10.168,21.089-15.032,32.164-11.724c1.302,0.389,3.163-0.664,4.629-1.344
	C482.275,52.897,484.594,51.53,488.144,49.631z M440.237,105.678c1.172,3.155,1.904,5.63,2.989,7.939
	c2.12,4.518,6.056,2.289,9.304,2.173c8.668-0.311,12.931-4.643,13.382-13.287c0.06-1.148,0.062-2.332,0.351-3.432
	c2.791-10.627,5.659-21.234,8.457-31.859c1.075-4.085-0.813-7.29-4.765-8.317c-9.496-2.468-16.123,0.346-19.338,9.916
	C446.512,81.032,443.568,93.645,440.237,105.678z"/>
<path fill-rule="evenodd" clip-rule="evenodd" d="M2054.341,116.922c-4.454,1.633-8.897,3.293-13.366,4.885
	c-1.668,0.595-3.362,1.223-5.099,1.491c-2.427,0.377-5.753,1.477-7.138,0.351c-1.613-1.312-1.548-4.688-2.443-8.038
	c-3.356,1.232-7.475,2.824-11.647,4.254c-5.009,1.717-10.012,3.501-15.122,4.858c-3.336,0.886-6.274-1.889-6.63-5.481
	c-1.478-14.929,2.692-28.614,8.219-42.288c4.544-11.244,12.463-18.245,23.46-21.77c4.073-1.307,8.931-0.686,13.347-0.193
	c2.27,0.252,3.752,1.421,5.806-1.115c1.529-1.887,4.705-2.439,8.211-4.085c-0.195,2.763-0.087,4.354-0.447,5.833
	c-2.759,11.326-5.978,22.555-8.299,33.968c-1.465,7.208-2.162,14.678-2.195,22.035c-0.022,4.986,2.508,6.098,7.451,4.969
	c1.822-0.416,3.688-0.648,5.534-0.964C2054.102,116.062,2054.221,116.491,2054.341,116.922z M2005.906,104.307
	c0,2.16-0.06,4.322,0.013,6.479c0.137,4.074,2.52,5.888,6.61,5.233c1.3-0.208,2.644-0.146,3.968-0.189
	c7.874-0.252,11.799-3.921,12.425-11.585c0.066-0.807,0.259-1.61,0.461-2.397c3.133-12.213,6.364-24.4,9.362-36.646
	c0.881-3.598-1.475-5.527-4.685-6.311c-1.418-0.347-3.011,0.057-4.45-0.238c-5.728-1.175-11.124,0.613-13.303,5.479
	C2010.588,76.906,2005.545,89.928,2005.906,104.307z"/>
<path fill-rule="evenodd" clip-rule="evenodd" d="M1017.275,360.466c-1.407,6.282-2.874,12.553-4.205,18.851
	c-1.777,8.412-3.483,16.84-5.151,25.274c-0.854,4.315-1.567,8.658-2.321,12.993c-0.126,0.725-0.292,1.497-0.174,2.203
	c1.199,7.195,2.395,7.975,9.382,5.965c1.6-0.46,3.098-1.273,4.642-1.924c0.21,0.444,0.419,0.89,0.629,1.335
	c-2.958,1.508-5.805,3.321-8.901,4.445c-3.801,1.38-7.771,2.389-11.748,3.149c-2.011,0.385-5.032,0.67-6.088-0.438
	c-1.315-1.381-1.073-4.244-1.689-7.433c-2.641,0.914-6.064,2.156-9.524,3.286c-5.854,1.911-11.66,4.029-17.62,5.529
	c-4.406,1.109-6.322-1.967-6.535-5.8c-0.739-13.271,1.232-26.06,7.348-38.04c1.242-2.435,2.404-4.934,3.325-7.503
	c4.067-11.353,13.767-15.881,24.038-19.16c3.312-1.058,7.669-0.314,11.099,0.887c3.152,1.104,4.415-0.257,6.361-1.871
	c1.61-1.335,3.711-2.079,5.594-3.084C1016.248,359.576,1016.761,360.021,1017.275,360.466z M1004.545,370.887
	c-3.544-1.305-7.178-3.229-11.033-3.921c-5.415-0.973-13.499,6.315-15.58,13.34c-1.706,5.758-3.93,11.436-4.91,17.318
	c-1.236,7.421-1.809,15.008-1.933,22.536c-0.057,3.447,2.26,6.416,6.526,5.615c3.979-0.746,7.968-1.679,11.765-3.049
	c1.712-0.618,3.872-2.264,4.28-3.843c2.032-7.87,3.494-15.886,5.265-23.826C1000.616,387.474,1002.439,379.92,1004.545,370.887z"/>
<path fill-rule="evenodd" clip-rule="evenodd" d="M775.473,424.573c-6.807,2.346-13.132,4.604-19.512,6.692
	c-3.069,1.006-6.201,1.932-9.377,2.468c-3.899,0.657-5.452-2.334-5.523-5.273c-0.203-8.354-0.858-16.746,2.396-24.883
	c2.869-7.176,4.679-14.78,7.651-21.906c3.078-7.381,9.549-11.809,16.278-15.545c6.198-3.441,12.745-4.466,19.726-1.843
	c1.341,0.504,3.496-0.832,5.155-1.584c2.278-1.033,4.442-2.318,6.655-3.496c0.47,0.336,0.939,0.671,1.41,1.006
	c-1.434,6.077-3.092,12.112-4.256,18.241c-2.524,13.28-5.481,26.534-6.95,39.942c-1.132,10.325,2.744,8.901,9.792,6.919
	c1.545-0.435,3.047-1.025,4.568-1.544c0.183,0.496,0.366,0.993,0.549,1.49c-2.75,1.049-5.465,2.204-8.258,3.123
	c-4.767,1.569-9.52,3.263-14.396,4.402c-5.63,1.316-6.938-0.072-6.427-5.892C775.007,426.312,775.206,425.745,775.473,424.573z
	 M774.389,365.895c-2.002,1.178-3.606,1.861-4.897,2.925c-7.404,6.099-10.267,14.785-12.463,23.545
	c-1.889,7.533-2.75,15.328-3.994,23.018c-1.183,7.312,3.821,11.811,10.944,9.93c0.938-0.248,2.065-0.109,2.846-0.581
	c3.533-2.133,8.836-1.474,10.107-7.194c3.057-13.743,6.525-27.395,9.597-41.135c0.388-1.737,0.024-4.794-1.091-5.5
	C782.114,368.795,778.242,367.556,774.389,365.895z"/>
<path fill-rule="evenodd" clip-rule="evenodd" d="M1512.182,116.911c-7.619,2.633-15.193,5.413-22.886,7.812
	c-2.533,0.791-4.631-0.242-4.408-3.585c0.108-1.633,0.019-3.278,0.019-5.887c-4.668,1.66-8.692,3.116-12.733,4.521
	c-4.874,1.695-9.684,3.665-14.674,4.906c-3.22,0.801-6.639,0.248-6.588-4.4c0.081-7.483-0.927-15.264,0.781-22.376
	c2.333-9.713,6.419-19.074,10.42-28.298c4.372-10.078,23.189-17.877,33.738-14.845c1.619,0.466,3.78-0.268,5.485-0.955
	c2.294-0.925,4.389-2.345,6.568-3.552c0.465,0.31,0.929,0.62,1.394,0.931c-0.945,4.852-1.741,9.737-2.868,14.546
	c-2.039,8.694-4.553,17.285-6.333,26.027c-1.205,5.915-1.807,12-2.106,18.038c-0.32,6.431,2.335,8.238,8.643,6.718
	c1.724-0.416,3.499-0.618,5.251-0.918C1511.984,116.034,1512.083,116.473,1512.182,116.911z M1484.024,57.636
	c-1.833,0.635-5.444,0.756-6.445,2.435c-3.997,6.7-7.943,13.625-10.445,20.967c-2.323,6.818-2.64,14.302-4.101,21.439
	c-1.907,9.317,1.692,13.872,10.847,13.358c0.663-0.037,1.444,0.217,1.976-0.051c3.364-1.692,8.539-2.731,9.635-5.41
	c2.781-6.797,3.741-14.343,5.403-21.595c1.664-7.261,2.904-14.65,5.089-21.75c1.313-4.267-0.882-6.347-3.602-7.832
	C1490.217,58.016,1487.317,58.186,1484.024,57.636z"/>
<path fill-rule="evenodd" clip-rule="evenodd" d="M1292.12,425.239c-3.24,1.455-6.396,3.16-9.743,4.302
	c-3.992,1.362-8.134,2.309-12.239,3.313c-5.6,1.369-6.087,0.941-6.242-4.853c-0.025-0.979-0.158-1.956-0.275-3.336
	c-6.564,2.378-12.834,4.802-19.212,6.896c-3.209,1.053-6.593,1.856-9.94,2.064c-1.415,0.088-4.021-1.459-4.222-2.593
	c-0.671-3.777-0.958-7.753-0.547-11.562c0.751-6.959,1.069-14.237,3.46-20.681c3.31-8.918,7.185-18.149,13.084-25.403
	c4.109-5.054,11.959-7.146,18.289-10.254c1.495-0.733,3.766-0.737,5.391-0.201c5.218,1.723,9.925,2.187,14.07-2.45
	c0.593-0.664,2.752-0.255,3.991,0.195c0.345,0.126,0.151,2.213-0.071,3.346c-3.312,16.92-6.676,33.83-10.006,50.746
	c-0.307,1.555-0.881,3.211-0.624,4.696c1.406,8.114,2.7,8.78,10.584,5.883c1.158-0.426,2.262-1,3.391-1.506
	C1291.544,424.308,1291.833,424.773,1292.12,425.239z M1241.787,413.587c0.348,4.985-0.685,9.491,4.091,11.688
	c3.715,1.709,15.701-1.727,18.087-5.08c0.45-0.632,0.73-1.431,0.92-2.195c1.368-5.503,2.668-11.022,4.037-16.525
	c2.265-9.108,4.591-18.201,6.812-27.319c0.218-0.895,0.247-2.201-0.249-2.845c-5.068-6.574-16.836-5.812-21.54,1.478
	C1245.744,385.494,1243.383,399.934,1241.787,413.587z"/>
<path fill-rule="evenodd" clip-rule="evenodd" d="M2085.921,630.723c-5.8,2.194-11.01,4.408-16.38,6.116
	c-4.152,1.32-8.465,2.361-12.783,2.863c-3.63,0.422-4.654-2.863-4.737-5.559c-0.294-9.523-0.44-19.087,3.287-28.165
	c3.042-7.407,4.876-15.671,9.392-22.031c7.287-10.265,17.468-16.99,31.128-13.982c3.231,0.711,5.49,0.045,8.017-1.565
	c1.861-1.187,3.982-1.966,6.449-3.147c0.263,1.523,0.707,2.477,0.524,3.288c-2.704,12.013-5.772,23.951-8.153,36.025
	c-1.451,7.356-2.121,14.897-2.674,22.391c-0.374,5.064,1.003,5.896,5.968,4.94c2.748-0.529,5.515-0.96,8.273-1.435
	c0.124,0.443,0.249,0.887,0.372,1.33c-7.902,2.657-15.749,5.519-23.77,7.757c-1.227,0.342-3.611-1.927-4.781-3.495
	C2085.339,635.096,2085.921,633.17,2085.921,630.723z M2063.793,620.627c0.333,4.673,0.177,9.271,4.809,10.937
	c7.693,2.765,19.124-4.374,20.244-12.297c0.254-1.798-0.251-3.743,0.19-5.468c2.767-10.809,5.852-21.537,8.438-32.387
	c0.431-1.81-0.402-5.052-1.769-5.968c-7.017-4.712-15.546-3.175-19.573,4.271c-3.86,7.134-6.677,14.944-9.057,22.731
	C2065.233,608.478,2064.772,614.93,2063.793,620.627z"/>
<path fill-rule="evenodd" clip-rule="evenodd" d="M1175.595,51.934c-2.719,11.277-5.707,22.498-8.064,33.85
	c-1.654,7.963-2.808,16.073-3.511,24.176c-0.554,6.376,2.199,8.123,8.615,6.562c1.536-0.374,3.119-0.555,4.681-0.825
	c0.146,0.443,0.291,0.886,0.437,1.329c-4.581,1.601-9.151,3.23-13.748,4.787c-1.523,0.516-3.096,0.925-4.675,1.236
	c-2.453,0.485-5.938,2.021-7.157,0.978c-1.761-1.509-1.886-4.927-2.955-8.308c-1.678,0.708-4.076,1.888-6.584,2.745
	c-5.79,1.979-11.626,3.824-17.458,5.679c-5.884,1.871-7.556,0.47-8.34-5.529c-1.723-13.195,1.122-25.542,6.404-37.456
	c2.274-5.132,4.109-10.926,7.805-14.859c7.317-7.791,16.029-13.97,27.807-12.429c0.912,0.119,1.781,1.03,2.641,0.986
	c1.81-0.093,3.703-0.309,5.375-0.958c2.591-1.007,5.025-2.418,7.526-3.658C1174.793,50.804,1175.194,51.369,1175.595,51.934z
	 M1162.376,64.584c-0.329-1.216-0.303-2.813-1.083-3.704c-3.028-3.455-14.428-4.201-17.155-0.555
	c-3.921,5.242-7.699,10.91-9.967,16.983c-2.399,6.428-3.127,13.516-4.257,20.369c-0.664,4.024-1.073,8.173-0.887,12.232
	c0.178,3.882,2.502,6.851,6.707,6.752c3.01-0.07,6.002-1.175,8.988-1.876c4.884-1.148,7.166-4.602,8.15-9.234
	c1.215-5.711,2.435-11.423,3.762-17.109C1158.473,80.571,1160.413,72.724,1162.376,64.584z"/>
<path fill-rule="evenodd" clip-rule="evenodd" d="M1306.042,564.911c-0.487,4.793-0.533,8.249-1.24,11.565
	c-1.485,6.972-3.545,13.824-4.953,20.809c-2.063,10.236-5.188,20.372-3.927,31.032c0.382,3.228,1.425,5.354,5.473,3.842
	c2.373-0.887,5.062-0.928,7.983-0.246c-5.449,1.972-10.891,3.968-16.358,5.887c-0.752,0.264-1.679,0.001-2.458,0.22
	c-8.38,2.354-8.376,2.366-8.89-7.414c-5.418,2.145-10.447,4.447-15.68,6.11c-4.462,1.418-9.144,2.818-13.753,2.906
	c-4.684,0.088-5.088-4.541-5.248-7.984c-0.596-12.822,2.631-24.96,7.952-36.473c2.633-5.697,5.236-12.108,9.722-16.094
	c7.856-6.981,16.851-13.271,28.698-8.562c1.087,0.433,2.823-0.2,4.044-0.785C1299.991,568.483,1302.434,566.949,1306.042,564.911z
	 M1258.943,619.802c0.32,0.074,0.642,0.148,0.962,0.224c0,0.5,0.054,1.007-0.009,1.499c-0.555,4.39,0.395,8.413,4.719,10.155
	c3.758,1.515,16.569-2.548,17.903-5.029c0.226-0.421,0.255-0.948,0.365-1.429c3.459-15.061,6.762-30.16,10.486-45.155
	c0.882-3.55-0.693-4.443-3.259-5.207c-1.086-0.323-2.299-0.258-3.35-0.649c-6.796-2.53-11.924-0.87-15.194,5.496
	c-2.416,4.703-4.835,9.517-6.328,14.556C1262.75,602.659,1261.002,611.277,1258.943,619.802z"/>
<path fill-rule="evenodd" clip-rule="evenodd" d="M287.332,630.292c-6.166,2.427-11.596,4.848-17.218,6.683
	c-4.13,1.348-8.48,2.246-12.798,2.661c-1.344,0.13-3.62-1.683-4.2-3.119c-0.95-2.349-1.376-5.172-1.117-7.701
	c0.964-9.375,1.401-18.877,5.75-27.59c3.378-6.768,5.782-14.153,10.001-20.318c2.497-3.648,7.607-5.58,11.683-8.05
	c2.291-1.388,4.821-2.431,7.339-3.372c1.34-0.502,2.996-0.904,4.319-0.579c6.095,1.499,11.766,2.113,17.114-2.563
	c1.893-1.655,3.678-0.073,3.106,2.545c-2.146,9.834-4.647,19.597-6.531,29.479c-1.931,10.128-5.153,20.11-3.931,30.687
	c0.395,3.412,2.062,4.013,4.946,3.337c2.941-0.688,5.897-1.311,8.847-1.962c0.143,0.397,0.284,0.796,0.427,1.193
	c-5.617,2.069-11.223,4.169-16.862,6.176c-0.902,0.321-1.988,0.095-2.931,0.346C286.618,640.45,285.995,639.931,287.332,630.292z
	 M264.905,621.217c0,0.831-0.007,1.662,0.001,2.493c0.061,6.365,1.975,8.555,8.225,7.998c3.969-0.354,7.956-1.571,11.683-3.041
	c1.397-0.551,2.58-2.782,3.012-4.465c3.144-12.235,5.843-24.588,9.143-36.778c2.413-8.918,2.132-10.21-5.915-13.559
	c-5.339-2.222-9.618-0.776-13.195,4.072C268.345,590.83,267.228,606.195,264.905,621.217z"/>
<path fill-rule="evenodd" clip-rule="evenodd" d="M1704.235,360.646c-1.415,5.984-2.957,11.943-4.22,17.96
	c-2.771,13.205-5.618,26.4-7.989,39.679c-1.123,6.285,2.334,9.025,8.518,7.535c1.979-0.478,3.902-1.188,5.851-1.792
	c0.213,0.367,0.426,0.734,0.639,1.102c-2.867,1.484-5.617,3.297-8.631,4.373c-3.957,1.413-8.072,2.513-12.207,3.271
	c-7.042,1.291-8.159-0.062-6.596-8.214c-3.152,1.007-5.95,1.875-8.731,2.794c-5.994,1.98-11.936,4.137-17.983,5.936
	c-5.233,1.557-7.553-0.299-7.973-5.912c-1.013-13.567,2.118-26.281,7.479-38.668c3.472-8.022,7.438-15.323,15.145-20.227
	c7.373-4.691,15.045-7.271,23.519-4.381c2.979,1.017,4.084-0.303,5.916-1.731c1.742-1.358,3.899-2.185,5.874-3.244
	C1703.307,359.632,1703.771,360.139,1704.235,360.646z M1665.219,426.469c3.333-1.2,6.636-3.258,10.008-3.379
	c3.933-0.141,4.883-2.671,5.469-5.087c3.549-14.648,6.806-29.367,10.09-44.078c0.199-0.893,0.124-2.154-0.376-2.844
	c-3.702-5.106-14.477-6.181-18.353-0.985c-4.152,5.565-7.809,11.927-9.886,18.508c-2.565,8.129-3.196,16.857-4.822,25.296
	C1656.11,420.327,1659.536,425.845,1665.219,426.469z"/>
<path fill-rule="evenodd" clip-rule="evenodd" d="M1652.716,641.023c0-4.28,0-7.037,0-10.691
	c-6.233,2.418-11.911,4.859-17.755,6.803c-3.823,1.271-7.852,2.061-11.851,2.622c-3.813,0.535-5.122-1.685-5.263-5.377
	c-0.523-13.792,1.258-26.902,7.752-39.481c3.045-5.898,4.199-12.652,10.192-16.806c8.577-5.943,16.894-11.906,28.431-7.843
	c1.986,0.699,5.107-1.959,7.753-2.932c1.255-0.462,2.625-0.607,3.943-0.896c0.064,1.316,0.416,2.695,0.15,3.942
	c-3.284,15.411-6.885,30.761-9.869,46.229c-0.896,4.64-0.139,9.599-0.139,15.873c4.677-0.572,9.173-1.123,13.669-1.674
	c0.135,0.405,0.271,0.811,0.406,1.216C1671.357,634.896,1662.577,637.782,1652.716,641.023z M1639.623,631.82
	c2.047-0.602,6.043-1.462,9.748-3.016c1.53-0.643,3.009-2.601,3.519-4.264c1.517-4.956,2.457-10.085,3.777-15.106
	c1.977-7.512,4.182-14.964,6.085-22.494c0.674-2.667,1.221-5.541,0.906-8.212c-0.167-1.417-2.119-2.907-3.604-3.803
	c-1.468-0.885-3.343-1.368-5.074-1.476c-2.353-0.146-5.535-0.677-6.951,0.565c-3.479,3.053-6.914,6.634-9.004,10.702
	c-5.57,10.847-7.028,22.944-9.053,34.797C1628.685,627.04,1631.889,631.855,1639.623,631.82z"/>
<path fill-rule="evenodd" clip-rule="evenodd" d="M1510.078,367.155c4.448-1.606,8.694-3.139,14.093-5.088
	c-1.74,6.564-3.467,12.021-4.607,17.597c-2.7,13.209-5.586,26.41-7.474,39.744c-1.031,7.279,2.858,9.69,10.085,7.75
	c0.736-0.197,1.534-0.167,2.842,0.727c-0.841,0.637-1.606,1.669-2.533,1.844c-6.087,1.148-12.272,1.837-18.299,3.223
	c-4.734,1.089-5.642-0.424-4.344-4.625c0.275-0.893,0.04-1.944,0.04-3.533c-11.052,1.451-20.124,10.128-32.711,7.8
	c0.888-5.718,1.736-11.014,2.528-16.318c1.421-9.521,2.764-19.054,4.232-28.566c0.521-3.377,0.931-6.847,2.062-10.036
	c2.181-6.148,1.657-9.033-7.971-9.841c-0.654-0.055-1.312-0.066-2.13-1.087c7.816-1.35,15.633-2.699,24.207-4.181
	c-1.323,6.587-2.353,12.448-3.694,18.237c-2.923,12.609-5.829,25.2-5.52,38.28c0.143,6.024,2.222,7.981,7.933,6.638
	c3.303-0.776,6.567-1.904,9.656-3.302c1.1-0.497,2.062-2.156,2.352-3.449c2.053-9.184,4.114-18.374,5.777-27.634
	C1508.015,383.467,1508.899,375.505,1510.078,367.155z"/>
<path fill-rule="evenodd" clip-rule="evenodd" d="M1474.072,573.514c8.103-1.632,16.204-3.264,24.648-4.964
	c-0.693,4.872-1.057,9.038-1.914,13.101c-1.74,8.241-4.168,16.357-5.512,24.654c-1.075,6.641-1.231,13.471-1.293,20.222
	c-0.042,4.685,2.827,6.242,8.408,5.255c0.622-0.11,1.187-0.618,1.804-0.681c8.713-0.887,10.275-6.833,11.359-14.279
	c2.109-14.487,5.198-28.832,7.947-43.595c3.146-1.168,6.71-2.589,10.343-3.806c2.479-0.831,3.055,0.063,2.434,2.642
	c-3.869,16.057-7.672,32.13-11.271,48.248c-0.603,2.697-0.376,5.673-0.044,8.462c0.404,3.388,2.577,5.206,6.112,5.046
	c2.084-0.094,4.163-0.281,6.244-0.426c0.071,0.502,0.143,1.005,0.214,1.507c-7.434,1.637-14.842,3.412-22.332,4.723
	c-0.857,0.149-2.706-2.146-3.113-3.584c-0.373-1.316,0.585-3.01,1.287-5.897c-6.821,2.591-12.51,4.887-18.297,6.898
	c-3.336,1.16-6.801,2.299-10.271,2.536c-1.209,0.083-3.693-2.555-3.714-3.977c-0.066-4.555,0.553-9.152,1.262-13.678
	c1.738-11.1,3.682-22.168,5.53-33.251c0.483-2.9,0.669-5.879,1.45-8.694c1.006-3.625-0.676-4.909-3.815-5.11
	c-2.458-0.157-4.935-0.031-7.403-0.031C1474.114,574.394,1474.093,573.954,1474.072,573.514z"/>
<path fill-rule="evenodd" clip-rule="evenodd" d="M1614.285,124.35c0.845-5.765,1.626-11.54,2.548-17.292
	c1.986-12.394,4.521-24.724,5.902-37.182c0.9-8.127-3.763-10.562-11.636-7.129c-1.928,0.841-3.94,1.524-5.966,2.1
	c-3.734,1.062-6.219,2.096-6.549,7.27c-0.458,7.174-3.254,14.17-4.647,21.32c-1.778,9.115-3.156,18.31-4.794,27.99
	c-3.459,0.951-7.586,2.086-12.168,3.346c1.16-5.832,2.287-11.339,3.348-16.858c2.546-13.253,5.056-26.512,7.6-39.765
	c0.183-0.951,0.543-1.867,0.785-2.809c1.013-3.947-0.806-6.015-4.58-6.454c-2.098-0.245-4.247-0.044-6.486-1.069
	c7.88-1.332,15.76-2.664,24.657-4.168c-0.741,4.018-1.365,7.396-2.042,11.061c8.449-3.368,16.725-6.745,25.072-9.93
	c1.774-0.677,3.808-0.805,5.736-0.915c3.277-0.188,5.226,1.558,4.771,4.788c-0.954,6.764-2.392,13.458-3.443,20.209
	c-1.58,10.147-3.146,20.302-4.388,30.492c-0.322,2.641,0.58,5.43,0.986,8.683c3.526-0.715,6.578-1.334,9.629-1.953
	c0.149,0.506,0.299,1.011,0.449,1.516c-7.777,2.639-15.555,5.277-23.332,7.916C1615.252,125.127,1614.769,124.738,1614.285,124.35z"
	/>
<path fill-rule="evenodd" clip-rule="evenodd" d="M1395.799,330.503c-5.469,4.792-5.424,11.622-6.748,17.688
	c-2.361,10.816-3.722,21.848-5.765,32.739c-1.951,10.403-3.974,20.807-6.438,31.097c-3.966,16.566-10.884,31.695-23.253,43.834
	c-2.787,2.734-6.088,4.949-8.841,7.713c-4.354,4.371-9.751,3.188-14.915,3.205c-3.066,0.011-4.727-1.849-3.846-4.811
	c0.978-3.291,0.219-7.693,4.685-9.401c4.627,8.474,12.214,9.654,18.845,3.101c6.588-6.511,9.741-14.923,12.334-23.533
	c2.194-7.287,4.307-14.618,5.991-22.035c1.655-7.29,2.894-14.688,4.016-22.085c1.839-12.111,3.477-24.255,5.114-36.396
	c0.698-5.173,1.272-10.368,1.657-15.571c0.05-0.67-1.271-1.882-2.148-2.109c-7.756-2.014-20.005,2.303-23.084,9.541
	c-1.802,4.234-0.407,9.802-0.584,14.766c-0.065,1.839-0.514,3.665-0.787,5.497c-1.671-0.856-4.346-1.353-4.809-2.643
	c-1.018-2.836-1.682-6.216-1.138-9.121c2.128-11.355,12.083-20.172,23.717-21.092c8.237-0.651,16.521-0.704,24.786-0.983
	C1394.967,329.889,1395.359,330.274,1395.799,330.503z"/>
<path fill-rule="evenodd" clip-rule="evenodd" d="M1632.057,362.929c-0.404,1.778-0.701,3.291-1.094,4.778
	c-2.648,10.024-5.619,19.976-7.877,30.086c-1.562,6.995-2.311,14.189-3.129,21.329c-0.762,6.643,3.145,9.868,9.722,8.398
	c0.911-0.203,1.846-0.41,2.77-0.407c0.396,0.002,0.792,0.536,1.966,1.402c-6.892,1.564-12.94,2.949-19,4.293
	c-0.637,0.142-1.34-0.037-1.992,0.061c-5.397,0.807-6.572-0.504-5.179-5.846c0.196-0.753,0.487-1.481,1.032-3.113
	c-7.118,2.557-13.51,4.916-19.949,7.135c-2.896,0.998-5.843,2.017-8.85,2.468c-2.496,0.374-3.907-1.155-3.572-3.868
	c0.861-6.977,1.547-13.98,2.613-20.926c1.658-10.798,3.806-21.523,5.3-32.342c0.975-7.058-0.513-8.347-7.719-8.552
	c-1.114-0.032-2.228-0.118-3.476-1.05c5.528-0.982,11.039-2.093,16.594-2.889c2.607-0.374,5.303-0.141,7.957-0.183
	c-0.688,2.563-1.748,5.09-2.005,7.695c-1.569,15.915-7.651,31.197-6.351,47.539c0.538,6.758,3.205,8.716,9.63,6.029
	c2.092-0.875,4.555-1.092,6.381-2.311c1.682-1.121,3.548-3.015,3.933-4.859c2.16-10.361,3.889-20.812,5.782-31.229
	c0.759-4.169,1.704-8.31,2.316-12.499c1.043-7.134,1.964-8.272,9.281-10.188C1628.533,363.519,1629.969,363.328,1632.057,362.929z"
	/>
<path fill-rule="evenodd" clip-rule="evenodd" d="M872.433,362.169c0.197,1.708,0.591,2.717,0.371,3.568
	c-3.121,12.097-6.523,24.125-9.419,36.275c-1.321,5.544-1.977,11.295-2.406,16.991c-0.552,7.319,2.802,9.882,10.002,8.311
	c1.082-0.236,2.259-0.033,3.393-0.033c0.058,0.484,0.115,0.968,0.173,1.452c-6.167,1.365-12.331,2.741-18.504,4.079
	c-0.64,0.139-1.343-0.03-1.991,0.083c-4.836,0.85-6.051-0.401-5.013-5.282c0.224-1.053,0.626-2.068,1.161-3.797
	c-7.342,2.742-13.9,5.446-20.634,7.604c-3.668,1.175-8.498,4.145-11.202,0.665c-1.854-2.386-0.956-7.405-0.371-11.102
	c2.445-15.446,5.303-30.826,7.86-46.255c0.698-4.208-1.432-6.439-6.054-6.868c-1.637-0.151-3.299-0.023-5.08-1.198
	c8.151-1.309,16.303-2.618,24.583-3.948c-2.619,12.68-5.251,24.172-7.291,35.769c-1.19,6.766-1.709,13.685-2.024,20.559
	c-0.282,6.136,2.542,8.144,8.406,6.532c2.964-0.815,5.899-1.784,8.752-2.924c0.988-0.395,2.172-1.38,2.436-2.326
	c1.262-4.54,2.42-9.126,3.28-13.758c1.871-10.084,3.536-20.206,5.304-30.309c0.055-0.309,0.406-0.564,0.461-0.873
	c0.481-2.687-0.008-6.634,1.574-7.812C863.557,365.069,867.989,364.008,872.433,362.169z"/>
<path fill-rule="evenodd" clip-rule="evenodd" d="M649.604,633.182c-8.006,2.375-16.012,4.75-25.726,7.632
	c1.159-7.009,2.041-12.432,2.956-17.85c1.68-9.95,3.443-19.888,5.038-29.852c0.58-3.629,1.203-7.338,1.044-10.978
	c-0.206-4.697-2.444-6.343-6.839-5.181c-5.175,1.368-10.236,3.197-15.271,5.035c-0.827,0.302-1.62,1.596-1.829,2.561
	c-2.365,10.959-4.742,21.918-6.845,32.929c-1.276,6.681-2.079,13.45-3.016,19.656c-4.479,0.886-8.091,1.6-11.688,2.311
	c4.181-21.196,8.368-42.435,12.737-64.587c-4.995,0-8.518,0-12.041,0c-0.033-0.381-0.066-0.762-0.1-1.143
	c7.76-1.561,15.519-3.121,24.141-4.854c-0.517,3.688-0.995,7.104-1.564,11.165c6.927-2.786,13.69-5.527,20.471-8.227
	c2.406-0.958,4.803-2.003,7.293-2.677c5.104-1.381,8.42,1.789,7.437,6.969c-2.606,13.723-5.405,27.411-7.751,41.177
	c-0.69,4.048-0.188,8.311-0.119,12.473c0.067,4.068,3.198,3.089,5.496,2.996c1.95-0.079,3.879-0.7,5.817-1.081
	C649.366,632.165,649.485,632.673,649.604,633.182z"/>
<path fill-rule="evenodd" clip-rule="evenodd" d="M1845.088,573.238c7.644-1.464,15.286-2.929,24.103-4.617
	c-0.856,5.165-1.573,9.842-2.415,14.496c-2.257,12.49-4.568,24.971-6.849,37.456c-0.06,0.323-0.014,0.665-0.021,0.998
	c-0.214,10.518,1.982,12.18,12.754,8.949c4.997-1.498,7.878-3.48,8.626-9.783c1.663-14.02,5.606-27.767,7.331-41.782
	c0.832-6.768,6.159-6.386,9.607-9.029c1.038-0.796,2.704-0.771,5.153-1.396c-1.496,5.667-2.82,10.589-4.093,15.524
	c-3.586,13.914-7.079,27.853-7.36,42.334c-0.117,6.049,2.927,8.491,8.917,7.373c1.24-0.231,2.453-0.605,3.679-0.914
	c0.138,0.582,0.275,1.164,0.413,1.746c-7.584,1.739-15.147,3.588-22.781,5.068c-0.875,0.169-2.748-1.539-3.097-2.696
	c-0.532-1.771-0.14-3.818-0.14-5.989c-8.442,2.67-17.046,5.218-25.518,8.147c-3.973,1.374-5.931,0.55-5.453-3.729
	c0.98-8.771,2.076-17.532,3.336-26.267c1.417-9.829,3.102-19.619,4.593-29.438c0.476-3.13-0.396-5.24-4.222-4.895
	c-2.174,0.196-4.379,0.035-6.57,0.035C1845.084,574.3,1845.086,573.769,1845.088,573.238z"/>
<path fill-rule="evenodd" clip-rule="evenodd" d="M553.739,169.312c-1.855,0.822-4.349,1.9-6.819,3.026
	c-3.336,1.521-5.075-0.46-4.838-3.177c0.315-3.617,1.003-7.597,2.85-10.613c6.171-10.08,12.949-19.788,19.447-29.67
	c1.238-1.882,2.264-3.903,3.028-5.237c-0.966-1.999-2.053-3.528-2.467-5.223c-3.047-12.437-5.869-24.928-8.954-37.354
	c-1.275-5.136-2.394-10.468-4.723-15.142c-2.501-5.02-6.965-8.166-13.222-7.127c-0.456,0.076-0.988-0.082-1.435-0.258
	c-0.219-0.086-0.322-0.463-0.786-1.193c2.851-0.363,5.492-0.638,8.112-1.048c4.993-0.781,9.972-1.65,14.96-2.462
	c3.342-0.544,4.534,1.049,5.077,4.275c2.271,13.486,4.772,26.936,7.27,40.384c0.876,4.716,1.979,9.39,2.979,14.083
	c0.548,0.118,1.096,0.235,1.644,0.354c3.12-4.646,6.633-9.084,9.256-13.996c3.004-5.626,5.437-11.589,7.716-17.56
	c2.587-6.774,0.499-13.004-2.796-19.102c-0.904-1.672-1.469-5.187-0.636-5.822c2.311-1.766,5.401-3.117,8.263-3.285
	c1.314-0.076,3.989,2.972,4.03,4.653c0.204,8.32,1.598,16.921-2.839,24.692c-3.549,6.216-7.144,12.42-11.049,18.414
	c-4.751,7.292-9.903,14.321-14.781,21.532c-5.199,7.686-10.548,15.29-15.307,23.245c-2.515,4.205-4.495,8.943-5.594,13.701
	C551.481,162.202,553.039,165.509,553.739,169.312z"/>
<path fill-rule="evenodd" clip-rule="evenodd" d="M147.827,169.252c-3.929,1.495-7.49,2.85-10.933,4.159
	c-3.947-10.634,2.536-17.228,7.302-24.349c5.172-7.726,10.477-15.361,15.637-23.094c1.106-1.657,0.803-2.755-0.567-4.856
	c-2.162-3.314-2.426-7.902-3.341-11.986c-1.597-7.123-2.949-14.302-4.646-21.399c-1.434-5.996-3.154-11.927-4.851-17.855
	c-1.938-6.771-5.313-10.666-14.579-11.073c-0.602-0.027-1.193-0.294-1.849-1.354c8.343-1.246,16.685-2.491,26.018-3.885
	c1.321,7.872,2.556,15.513,3.895,23.136c1.631,9.287,3.239,18.582,5.101,27.825c0.537,2.666,1.911,5.164,3.082,8.208
	c1.069-0.671,2.244-0.998,2.701-1.758c4.451-7.405,9.062-14.735,13.073-22.378c4.75-9.051,4.273-18.188-0.743-27.179
	c-0.824-1.477-1.187-4.866-0.567-5.208c2.782-1.537,5.949-2.724,9.082-3.061c0.905-0.098,2.946,2.972,3.128,4.729
	c1.235,11.891-0.416,23.068-7.561,33.279c-10.427,14.903-20.335,30.171-30.396,45.327c-3.03,4.564-6.083,9.146-8.677,13.96
	C145.035,156.2,144.876,162.304,147.827,169.252z"/>
<path fill-rule="evenodd" clip-rule="evenodd" d="M1893.905,104.983c-0.252-13.188,2.203-25.762,9.95-36.652
	c6.042-8.493,15.061-13.457,24.973-15.255c11.075-2.008,15.186,3.171,15.933,13.413c1.035,14.218-1.245,28.171-8.278,40.711
	c-2.332,4.158-6.774,7.445-10.865,10.23c-6.003,4.087-12.507,7.524-20.166,7.392c-6.938-0.12-11.529-4.855-11.545-11.845
	C1893.9,110.312,1893.905,107.648,1893.905,104.983z M1932.903,81.388c0-5.069,0.113-8.895-0.026-12.711
	c-0.209-5.743-7.457-11.777-11.599-9.457c-2.721,1.524-5.427,3.704-7.16,6.255c-8.586,12.636-9.858,27.083-9.025,41.748
	c0.247,4.354,1.797,9.092,7.094,10.541c4.267,1.167,9.265-1.276,12.33-6.058C1930.677,102.099,1934.131,91.73,1932.903,81.388z"/>
<path fill-rule="evenodd" clip-rule="evenodd" d="M962.905,106.983c0.702-13.425,2.232-26.567,9.589-38.416
	c4.978-8.018,22.454-17.424,31.622-15.498c3.094,0.649,7.109,3.354,8.114,6.076c1.72,4.656,2.079,10.107,1.769,15.149
	c-0.417,6.787-1.336,13.701-3.265,20.197c-2.552,8.596-4.937,17.64-14.618,21.798c-4.894,2.102-9.274,5.44-14.218,7.379
	c-8.967,3.516-19.412,0.03-18.997-13.692C962.931,108.979,962.905,107.981,962.905,106.983z M973.848,98.348
	c0.352,0.065,0.704,0.13,1.057,0.195c0,3.328,0.017,6.657-0.004,9.985c-0.025,4.062,0.8,7.184,5.52,8.577
	c4.941,1.46,8.341,0.141,11.582-3.528c7.009-7.934,9.693-17.62,10.713-27.671c0.623-6.146,0.029-12.557-0.983-18.689
	c-1.13-6.838-9.207-10.921-13.482-6.896c-4.063,3.825-8.267,8.497-9.967,13.608C975.698,81.7,975.22,90.173,973.848,98.348z"/>
<path fill-rule="evenodd" clip-rule="evenodd" d="M1781.905,72.99c0.354,13.267-2.723,25.914-10.22,36.638
	c-6.226,8.906-16.356,13.416-26.982,15.005c-8.553,1.279-13.173-2.708-13.625-11.421c-0.744-14.325-0.088-28.786,7.568-41.475
	c7.021-11.635,17.76-18.255,31.599-18.845c6.151-0.262,11.562,5.433,11.652,11.604C1781.939,67.328,1781.905,70.159,1781.905,72.99z
	 M1772.176,79.297c-1.558-5.667-2.587-10.585-4.28-15.262c-1.901-5.253-8.446-7.127-12.199-3.223
	c-3.747,3.897-7.801,8.287-9.481,13.223c-3.541,10.401-5.339,21.396-4.165,32.477c0.413,3.906,0.332,8.671,5.667,10.394
	c6.013,1.942,14.773-2.162,17-9.21C1767.684,98.301,1769.769,88.628,1772.176,79.297z"/>
<path fill-rule="evenodd" clip-rule="evenodd" d="M1401.905,413.217c-1.649-11.321,1.917-21.781,6.382-31.711
	c3.335-7.419,10.349-11.875,17.495-15.665c5.557-2.947,11.276-4.23,17.628-3.112c4.376,0.771,6.292,3.622,7.542,7.228
	c2.535,7.308,1.785,14.977,0.509,22.193c-1.388,7.847-4.384,15.493-7.417,22.925c-1.375,3.371-4.012,6.766-6.99,8.831
	c-6.301,4.369-12.81,8.839-20.772,9.703c-7.02,0.762-15.544-1.435-14.427-11.415
	C1402.185,419.236,1401.905,416.211,1401.905,413.217z M1412.906,408.918c0,2.833-0.59,5.832,0.153,8.453
	c0.864,3.048,2.227,6.679,4.582,8.403c3.295,2.411,7.983,2.089,10.808-1.22c3.582-4.197,7.374-8.747,9.179-13.82
	c3.605-10.142,4.088-20.954,3.134-31.668c-0.243-2.727-1.603-5.901-3.521-7.77c-1.761-1.714-5.248-3.123-7.479-2.592
	c-5.442,1.297-8.75,5.341-11.194,10.603C1414.16,388.795,1412.631,398.637,1412.906,408.918z"/>
<path fill-rule="evenodd" clip-rule="evenodd" d="M1916.905,618.464c-1.397-10.477,2.791-21.239,7.23-31.714
	c2.904-6.854,9.373-10.757,16.015-13.882c4.678-2.2,9.06-4.719,14.778-4.198c7.246,0.659,12.662,5.173,12.931,12.76
	c0.51,14.41-2.222,28.101-8.712,41.152c-3.016,6.063-8.229,9.101-13.49,12.077c-3.993,2.258-8.589,3.686-13.09,4.764
	c-7.977,1.911-17-2.729-15.713-12.108C1917.19,624.866,1916.905,622.333,1916.905,618.464z M1926.636,615.574
	c0.425,0.091,0.849,0.181,1.273,0.271c0,2.164-0.125,4.337,0.021,6.491c0.605,8.859,6.566,12.822,14.532,9.37
	c2.103-0.911,4.001-2.893,5.351-4.83c4.743-6.807,6.953-14.735,7.948-22.758c0.835-6.73,0.878-13.752-0.061-20.459
	c-1.024-7.314-7.336-11.359-12.514-8.226c-4.066,2.461-8.496,6.457-9.915,10.719C1930.114,595.646,1928.739,605.73,1926.636,615.574
	z"/>
<path fill-rule="evenodd" clip-rule="evenodd" d="M1566.042,427.182c-1.812,0.869-3.541,2.13-5.451,2.537
	c-6.044,1.288-12.173,2.174-18.236,3.379c-3.783,0.752-5.626-0.652-5.413-4.443c0.146-2.603,0.553-5.198,0.975-7.776
	c1.975-12.067,3.893-24.146,6.032-36.185c1.652-9.293,3.6-18.534,5.422-27.797c2.512-12.771,4.893-25.573,7.7-38.279
	c0.406-1.837,2.596-3.888,4.453-4.674c4.123-1.745,8.56-2.75,13.226-3.457c-1.922,1.678-3.774,3.444-5.78,5.016
	c-4.566,3.578-2.594,8.849-3.469,13.338c-2.054,10.539-3.662,21.165-5.631,31.722c-1.698,9.108-3.917,18.125-5.41,27.263
	c-1.793,10.965-3.345,21.987-4.438,33.041c-0.578,5.846,1.708,7.213,7.755,6.079c1.291-0.242,2.667,0,3.985-0.147
	c1.237-0.138,2.451-0.496,3.675-0.757C1565.638,426.42,1565.84,426.801,1566.042,427.182z"/>
<path fill-rule="evenodd" clip-rule="evenodd" d="M1086.558,515.744c-7.118,5.688-9.338,12.466-9.874,20.866
	c-0.546,8.551-2.929,16.978-4.4,25.477c-1.527,8.817-2.858,17.668-4.397,26.482c-1.763,10.094-3.775,20.146-5.436,30.255
	c-0.559,3.402-0.881,7.004-0.372,10.372c0.468,3.093,2.634,5.207,6.431,4.46c2.657-0.522,5.381-0.704,8.075-1.038
	c0.108,0.505,0.217,1.01,0.325,1.515c-4.827,1.23-9.642,2.513-14.487,3.671c-2.368,0.565-4.839,0.729-7.181,1.375
	c-4.562,1.26-6.916-0.346-6.27-5.02c1.14-8.233,2.576-16.429,4.049-24.61c2.22-12.342,4.581-24.658,6.877-36.986
	c1.85-9.932,3.662-19.869,5.549-29.793c1.093-5.751,2.17-11.512,3.532-17.201c0.424-1.768,1.374-4.217,2.745-4.801
	C1076.513,518.727,1081.59,517.364,1086.558,515.744z"/>
<path fill-rule="evenodd" clip-rule="evenodd" d="M1113.76,634.148c-8.127,1.888-16.193,4.128-24.405,5.513
	c-4.089,0.689-4.794-3.158-4.351-6.16c1.476-10.004,3.213-19.972,5.035-29.92c2.875-15.701,5.807-31.395,8.9-47.056
	c1.638-8.288,3.719-16.487,5.481-24.752c0.409-1.917,0.15-3.975,0.544-5.896c0.308-1.506,0.77-3.735,1.814-4.209
	c5.092-2.308,10.402-4.134,16.064-6.293c-3.103,4.203-6.123,7.333-7.93,11.054c-1.434,2.949-1.347,6.628-1.992,9.973
	c-1.941,10.062-4.148,20.078-5.812,30.185c-2.281,13.849-4.138,27.767-6.219,41.648c-0.942,6.287-2.324,12.528-2.879,18.847
	c-0.441,5.027,2.979,7.29,7.895,6.293c2.516-0.51,5.152-0.421,7.733-0.602C1113.68,633.23,1113.72,633.689,1113.76,634.148z"/>
<path fill-rule="evenodd" clip-rule="evenodd" d="M1095.129,428.277c-6.717,1.517-13.432,3.045-20.154,4.54
	c-0.959,0.213-2.039,0.065-2.913,0.437c-3.428,1.455-4.443-0.364-4.105-3.222c0.938-7.947,2.07-15.873,3.205-23.796
	c1.2-8.389,2.292-16.801,3.799-25.137c1.588-8.783,3.751-17.462,5.397-26.236c1.381-7.362,2.205-14.829,3.606-22.187
	c1.03-5.406,2.548-10.723,3.969-16.047c0.21-0.785,0.955-1.787,1.671-2.019c4.932-1.602,9.922-3.024,15.287-3.964
	c-8.909,3.363-8.465,11.603-9.866,18.465c-2.543,12.446-4.433,25.028-6.536,37.563c-2.562,15.278-5.142,30.556-7.534,45.862
	c-0.574,3.677-0.776,7.488-0.523,11.195c0.204,2.98,2.493,3.993,5.467,3.619c2.932-0.369,5.896-0.485,8.846-0.713
	C1094.873,427.186,1095.001,427.731,1095.129,428.277z"/>
<path fill-rule="evenodd" clip-rule="evenodd" d="M1067.785,311.809c-7.61,2.841-7.669,9.745-8.8,15.841
	c-2.555,13.771-4.688,27.62-7.105,41.417c-2.249,12.832-4.792,25.614-6.902,38.469c-0.796,4.846-0.894,9.827-1.025,14.754
	c-0.114,4.294,1.731,5.518,6.111,4.942c2.928-0.385,5.911-0.355,9.159,0.641c-2.205,0.652-4.38,1.445-6.621,1.931
	c-5.405,1.171-10.958,1.816-16.228,3.414c-3.76,1.14-4.65-0.298-4.478-3.344c0.342-5.983,0.59-12.004,1.485-17.918
	c1.605-10.603,3.566-21.156,5.558-31.696c1.658-8.778,3.644-17.494,5.354-26.263c2.271-11.643,4.357-23.322,6.689-34.953
	c0.312-1.557,1.276-3.727,2.501-4.224c4.44-1.801,9.121-3.009,13.711-4.441C1067.392,310.854,1067.588,311.332,1067.785,311.809z"/>
<path fill-rule="evenodd" clip-rule="evenodd" d="M1876.421,55.623c2.3-0.506,5.327-1.92,8.099-1.527
	c1.969,0.279,4.836,2.783,5.156,4.661c1.398,8.175-1.657,15.796-4.566,23.224c-1.951,4.984-4.388,9.884-7.326,14.347
	c-2.858,4.34-6.394,8.313-10.058,12.026c-7.184,7.278-16.45,11.278-25.604,15.369c-6.194,2.769-8.651,1.354-8.104-5.505
	c0.674-8.449,2.34-16.813,3.274-25.247c1.047-9.455,1.944-18.938,2.416-28.434c0.074-1.503-2.146-3.698-3.825-4.562
	c-2.082-1.07-4.705-1.086-8.532-1.842c9.568-1.683,17.793-3.129,26.871-4.726c-0.576,2.655-1.039,4.318-1.288,6.012
	c-1.702,11.612-3.336,23.235-5.048,34.846c-0.499,3.383-1.668,6.741-1.644,10.104c0.023,3.312,0.755,6.794,2.062,9.818
	c0.432,0.999,4.143,1.745,5.463,1.009c9.173-5.119,15.491-12.752,20.405-22.167c3.708-7.104,4.899-14.521,5.462-22.011
	C1879.975,66.458,1877.791,61.707,1876.421,55.623z"/>
<path fill-rule="evenodd" clip-rule="evenodd" d="M201.975,58.006c7.76-1.486,15.52-2.974,24.6-4.713
	c-1.502,8.854-3.036,16.631-4.099,24.471c-1.385,10.223-2.621,20.478-3.393,30.759c-0.167,2.215,1.352,5.479,3.142,6.63
	c1.456,0.937,4.94,0.117,6.735-1.095c15.476-10.446,23.144-25.432,23.762-43.845c0.15-4.455-1.978-8.986-3.189-14.025
	c0.814-0.449,2.254-1.55,3.88-2.088c6.169-2.039,10.598,2.785,9.458,10.217c-2.648,17.275-10.07,32.197-22.5,44.472
	c-7.875,7.775-17.736,12.333-28.082,15.795c-4.066,1.36-5.91-0.51-5.363-4.927c1.971-15.913,4.483-31.78,5.783-47.747
	C213.545,61.632,214.557,59.966,201.975,58.006z"/>
<path fill-rule="evenodd" clip-rule="evenodd" d="M762.358,109.245c-4.97,3.511-9.69,7.472-14.985,10.393
	c-4.309,2.376-9.188,4.067-14.021,5.062c-7.63,1.571-15.815-5.985-15.704-15.168c0.174-14.268,4.159-27.376,9.598-40.12
	c3.889-9.113,21.945-17.896,31.859-16.568c4.243,0.568,7.293,4.735,6.781,9.323c-1.077,9.644-5.219,16.669-15.153,19.874
	c-5.626,1.814-10.811,5.014-16.154,7.668c-1.155,0.573-2.436,1.272-3.154,2.274c-2.698,3.767,0.264,19.014,4.004,22.049
	c4.431,3.596,9.153,2.635,13.637,0.663c4.248-1.869,8.174-4.473,12.242-6.753C761.657,108.377,762.007,108.811,762.358,109.245z
	 M730.838,86.852c0.496,0.222,0.993,0.442,1.49,0.664c3.364-1.531,6.783-2.952,10.081-4.614
	c11.054-5.573,14.173-11.532,11.435-22.866c-0.85-3.521-3.613-4.473-6.939-3.187c-5.472,2.118-8.31,6.749-10.227,11.827
	C734.434,74.622,732.759,80.783,730.838,86.852z"/>
<path fill-rule="evenodd" clip-rule="evenodd" d="M577.471,622.731c-1.117,1.622-1.525,2.713-2.312,3.276
	c-7.576,5.437-14.78,11.867-24.227,13.617c-9.536,1.766-19.127-3.549-19.114-15.49c0.01-10.021,3.394-19.159,5.951-28.591
	c2.435-8.978,7.693-15.37,14.789-21.128c7.248-5.881,15.311-6.099,23.645-5.315c1.389,0.131,3.376,3.417,3.551,5.382
	c1.124,12.63-3.453,19.037-16.475,24.237c-5.073,2.025-10.069,4.251-15.048,6.504c-0.843,0.381-2.038,1.375-2.019,2.056
	c0.199,6.777-2.315,13.901,2.019,20.197c3.072,4.462,8.509,5.583,13.44,3.108C566.615,628.104,571.576,625.66,577.471,622.731z
	 M547.168,603.054c9.917-5.34,22.445-7.478,22.092-22.229c-0.067-2.79,1.155-6.517-2.967-8.256
	c-3.541-1.493-5.922-0.476-8.756,1.967c-8.079,6.962-8.471,17.105-11.526,26.149C545.871,601.104,546.527,601.79,547.168,603.054z"
	/>
<path fill-rule="evenodd" clip-rule="evenodd" d="M2326.949,107.377c-0.334,1.627-0.22,2.961-0.73,3.271
	c-7.193,4.388-14.273,9.037-21.802,12.775c-4.929,2.448-10.238,2.037-15.463-0.849c-6.52-3.602-7.201-9.916-6.801-15.629
	c0.83-11.809,3.27-23.566,8.161-34.392c2.035-4.503,6.349-8.169,10.153-11.638c5.767-5.258,12.582-8.394,20.686-8.113
	c7.101,0.246,8.775,1.775,8.746,8.673c-0.053,12.225-3.912,15.687-14.703,20.416c-5.693,2.495-11.275,5.275-16.768,8.193
	c-3.654,1.941-5.209,9.179-3.205,15.437c3.205,10.013,8.977,13.66,19.988,8.209C2318.961,111.875,2322.581,109.753,2326.949,107.377
	z M2297.434,87.703c3.906-2.149,7.056-4.699,10.634-5.675c6.901-1.881,13.208-12.193,11.834-19.456
	c-0.616-3.257-5.831-7.33-8.014-6.212C2302.281,61.28,2295.852,76.86,2297.434,87.703z"/>
<path fill-rule="evenodd" clip-rule="evenodd" d="M704.25,624.18c-2.64,1.907-5.122,4.097-7.95,5.662
	c-6.039,3.343-11.948,7.629-18.474,9.224c-10.182,2.488-18.646-1.713-18.891-13.854c-0.283-13.969,3.782-27.064,9.213-39.659
	c4.538-10.521,23.711-19.364,34.483-16.688c2.966,0.737,5,5.352,4.758,9.051c-0.759,11.581-8.225,17.105-17.959,20.957
	c-5.143,2.034-10.106,4.521-15.133,6.843c-0.724,0.333-1.591,0.726-1.982,1.347c-3.599,5.71,0.502,20.982,6.746,23.636
	c2.404,1.021,5.88,1,8.353,0.077c5.524-2.062,10.727-4.99,16.06-7.564C703.733,623.533,703.992,623.856,704.25,624.18z
	 M672.172,600.661c0.525,0.595,1.052,1.189,1.577,1.784c2.648-1.181,5.234-2.538,7.958-3.51c7.925-2.828,13.917-7.659,14.656-16.427
	c0.282-3.353-1.364-7.235-3.238-10.168c-0.537-0.842-5.182,0.305-7.508,1.436c-2.026,0.985-4.122,2.938-4.999,4.975
	C677.527,585.937,674.947,593.341,672.172,600.661z"/>
<path fill-rule="evenodd" clip-rule="evenodd" d="M1567.182,108.896c-2.395,2.104-4.559,4.583-7.234,6.229
	c-4.663,2.868-9.639,5.228-14.487,7.793c-6.477,3.428-13.166,2.827-18.282-1.727c-4.914-4.373-5.853-10.742-4.796-17.614
	c1.667-10.839,4.231-21.319,8.509-31.424c4.434-10.473,24.09-23.074,34.886-18.537c2.972,1.248,4.404,2.6,4.121,5.689
	c-0.313,3.417-0.17,6.981-1.142,10.206c-1.301,4.317-3.414,7.896-8.441,9.815c-7.491,2.86-14.502,6.984-21.684,10.637
	c-0.856,0.436-1.688,1.156-2.223,1.952c-2.943,4.382-1.373,16.591,2.562,20.522c4.824,4.82,10.288,5.375,16.06,1.786
	c1.91-1.188,4.08-1.954,6.012-3.114c1.734-1.042,3.305-2.359,4.947-3.555C1566.387,108.002,1566.785,108.449,1567.182,108.896z
	 M1536.297,87.667c3.83-1.534,6.84-2.591,9.724-3.923c10.159-4.692,14.716-11.033,13.705-20.214
	c-0.285-2.585-2.228-5.612-4.347-7.121c-1.137-0.811-4.529,0.769-6.42,2.008c-1.997,1.309-3.596,3.363-5.059,5.323
	C1538.899,70.442,1537.479,78.356,1536.297,87.667z"/>
<path fill-rule="evenodd" clip-rule="evenodd" d="M1038.282,624.093c-1.15,1.326-2.043,3.179-3.495,3.89
	c-7.184,3.521-13.224,8.913-21.278,11.175c-9.23,2.592-19.975-3.535-19.802-14.329c0.217-13.58,3.751-26.155,9.069-38.311
	c4.984-11.391,21.765-19.767,34.264-17.556c1.419,0.251,3.554,2.017,3.654,3.221c0.527,6.364,1.069,12.966-2.945,18.527
	c-1.441,1.995-3.793,3.587-6.059,4.684c-6.99,3.388-14.049,6.678-21.261,9.554c-4.851,1.935-3.544,5.937-3.563,9.222
	c-0.033,5.843-0.428,11.843,5.646,15.898c5.269,3.519,9.796,1.137,14.354-0.817c3.724-1.596,7.118-3.959,10.658-5.981
	C1037.777,623.543,1038.03,623.817,1038.282,624.093z M1008.499,602.752c3.872-1.661,7.85-3.064,11.539-5.013
	c8.312-4.391,11.857-11.395,10.861-20.68c-0.439-4.1-5.438-6.919-8.846-4.764C1014.406,577.134,1006.086,593.64,1008.499,602.752z"
	/>
<path fill-rule="evenodd" clip-rule="evenodd" d="M424.645,118.423c-7.7,2.134-15.339,4.54-23.123,6.306
	c-5.163,1.171-5.489-3.58-6.513-6.811c-0.527-1.665-0.334-3.668-0.062-5.456c1.395-9.18,2.916-18.34,4.401-27.506
	c1.217-7.511,2.445-15.021,3.754-23.052c-4.294,0-8.062,0-11.828,0c-0.131-0.557-0.262-1.113-0.392-1.671
	c2.979-4.53,8.561-1.202,12.965-2.977c0.665-4.896,0.81-10.205,2.3-15.104c0.729-2.396,3.67-4.591,6.133-5.875
	c3.771-1.968,7.995-3.069,12.412-4.198c-8.47,6.104-7.122,16.175-10.745,25.206c5.021,0,9.788,0,14.555,0
	c0.115,0.73,0.229,1.461,0.345,2.191c-3.765,4.158-9.398,1.516-14.544,2.642c-4.313,16.149-8.29,32.588-7.397,49.797
	c0.249,4.815,5.368,8.044,11.017,6.826c2.164-0.466,4.266-1.221,6.396-1.845C424.427,117.406,424.536,117.915,424.645,118.423z"/>
<path fill-rule="evenodd" clip-rule="evenodd" d="M1221.603,577.279c-4.137-0.524-8.335-1.058-12.533-1.59
	c-0.083-0.556-0.166-1.11-0.249-1.665c2.077-0.398,4.147-1.099,6.231-1.141c7.42-0.153,7.421-0.068,7.854-7.325
	c0.534-8.946,5.244-14.369,14.495-16.721c1.69-0.43,3.36-0.937,5.587-1.22c-8.024,6.481-7.927,15.963-10.573,25.161
	c5.605,0,10.389,0,15.172,0c0.155,0.396,0.31,0.792,0.464,1.188c-1.049,0.617-2.037,1.598-3.157,1.783
	c-3.23,0.533-6.535,0.608-9.771,1.116c-5.223,0.819-4.351,5.745-5.029,8.904c-2.121,9.867-3.613,19.883-4.992,29.89
	c-0.541,3.925-0.519,8.024-0.061,11.964c0.54,4.657,5.835,7.223,11.257,6.036c1.985-0.434,4.012-0.681,6.286,0.041
	c-4.216,1.373-8.401,2.853-12.659,4.08c-2.804,0.809-5.719,1.226-8.573,1.867c-4.625,1.039-8.293-1.571-8.377-6.381
	c-0.054-3.089,0.4-6.211,0.869-9.281c1.206-7.897,2.526-15.778,3.84-23.66C1218.965,592.639,1220.295,584.959,1221.603,577.279z"/>
<path fill-rule="evenodd" clip-rule="evenodd" d="M1704.838,61.822c-3.521,0-6.686,0.16-9.815-0.092
	c-1.032-0.083-1.979-1.232-2.965-1.894c0.98-0.667,1.921-1.825,2.949-1.909c3.113-0.254,6.262-0.092,9.197-0.092
	c0.964-4.735,2.039-8.994,2.646-13.318c0.514-3.651,2.26-6.113,5.569-7.501c3.927-1.646,7.89-3.204,12.32-4.191
	c-7.1,6.988-7.208,15.954-9.226,24.915c5.402,0,10.008,0,15.148,0c-3.873,7.125-10.302,2.457-16.449,5.23
	c-1.982,12.61-4.127,26.385-6.325,40.15c-0.613,3.846-1.629,7.381,0.761,11.354c2.437,4.053,5.46,4.861,9.5,4.212
	c2.175-0.35,4.316-0.9,6.474-1.36c0.109,0.426,0.22,0.853,0.329,1.278c-7.352,2.072-14.646,4.39-22.077,6.119
	c-4.089,0.951-7.135-1.858-6.889-6.144c0.298-5.211,1.141-10.396,1.846-15.577c1.32-9.71,2.606-19.427,4.125-29.105
	C1702.559,70.069,1703.743,66.333,1704.838,61.822z"/>
<path fill-rule="evenodd" clip-rule="evenodd" d="M1090.303,61.688c-4.737,0-8.478,0-13.234,0c3.753-6.17,9.267-2.584,13.848-4.458
	c0.628-4.419,1.085-9.272,2.114-14.002c0.364-1.679,1.805-3.597,3.3-4.466c4.36-2.532,8.996-4.59,14.037-6.15
	c-7.342,7.06-6.348,16.382-8.705,25.119c5.29,0,9.927,0,15.237,0c-4.01,7.244-10.644,2.286-15.808,4.878
	c-2.283,10.647-5.07,21.816-6.938,33.137c-0.938,5.68-0.453,11.649-0.135,17.462c0.2,3.652,6.591,6.543,11.219,5.446
	c2.124-0.503,4.217-1.136,6.574-0.87c-2.896,1.303-5.694,2.937-8.712,3.832c-4.508,1.337-9.145,2.294-13.774,3.151
	c-4.486,0.831-7.828-2.31-7.282-8.034c0.943-9.906,2.696-19.737,4.193-29.588C1087.484,78.938,1088.851,70.748,1090.303,61.688z"/>
<path fill-rule="evenodd" clip-rule="evenodd" d="M713.837,118.324c-7.205,2.121-14.388,4.326-21.625,6.332
	c-4.266,1.182-7.204-1.308-7.316-5.805c-0.238-9.576,0.503-18.95,2.767-28.382c2.194-9.142,2.775-18.67,4.149-28.642
	c-2.529,0-5.008,0.251-7.402-0.091c-1.516-0.216-2.906-1.313-4.353-2.017c1.352-0.63,2.678-1.74,4.059-1.813
	c9.764-0.519,9.834-0.451,9.761-10.092c-0.036-4.71,0.626-8.699,5.91-10.515c4.613-1.584,9.056-3.667,13.913-5.042
	c-8.635,6.514-8.483,16.044-9.521,25.523c4.463,0,8.91,0,13.771,0c-1.223,3.847-3.89,4.016-6.716,4.06
	c-9.032,0.139-8.946,0.175-10.333,8.554c-1.251,7.555-3.07,15.03-3.979,22.62c-0.803,6.696-1.015,13.509-0.869,20.257
	c0.083,3.852,6.299,6.537,11.227,5.365c2.108-0.501,4.189-1.112,6.283-1.673C713.654,117.418,713.746,117.871,713.837,118.324z"/>
<path fill-rule="evenodd" clip-rule="evenodd" d="M1988.844,118.251c-7.5,2.185-14.939,4.622-22.523,6.465
	c-4.961,1.206-7.726-1.531-7.28-8.002c0.593-8.61,2.117-17.158,3.288-25.726c1.298-9.495,2.648-18.983,4.006-28.688
	c-4.65-0.429-8.533-0.787-12.416-1.146c-0.018-0.74-0.036-1.479-0.054-2.22c2.702-0.368,5.474-1.301,8.094-0.984
	c4.915,0.595,6.478-1.967,6.92-6.043c0.442-4.077,0.754-8.169,1.154-12.599c5.6-2.361,11.296-4.763,16.991-7.165
	c-5.84,8.646-8.616,16.95-7.641,25.672c4.376,0,8.812,0,14.154,0c-1.875,3.812-4.583,4.009-7.395,4.013
	c-2.955,0.004-5.91,0.001-8.588,0.001c-1.929,9.281-3.995,17.977-5.477,26.771c-1.114,6.612-1.811,13.337-2.086,20.035
	c-0.316,7.679,5.245,11.765,12.672,9.856c1.95-0.501,3.897-1.018,5.846-1.526C1988.622,117.394,1988.733,117.822,1988.844,118.251z"
	/>
<path fill-rule="evenodd" clip-rule="evenodd" d="M1213.981,371.112c-1.669,8.388-3.526,16.919-5.026,25.512
	c-1.235,7.08-2.472,14.207-2.93,21.363c-0.45,7.035,5.118,10.896,12.113,9.254c1.678-0.394,3.471-0.301,5.21-0.432
	c0.104,0.435,0.207,0.869,0.312,1.304c-5.65,1.572-11.297,3.159-16.957,4.693c-0.622,0.168-1.336-0.038-1.993,0.043
	c-7.682,0.954-11.041-2.812-9.772-10.761c2.058-12.896,3.89-25.828,6.063-38.703c0.67-3.966,2.146-7.795,3.308-11.882
	c-4.794-0.613-9.039-1.136-13.263-1.798c-0.124-0.02-0.016-1.518-0.016-2.682c4.109,0,8.062,0,12.374,0
	c0.872-3.835,2.122-7.391,2.402-11.021c0.4-5.17,2.935-8.629,7.322-10.738c3.587-1.726,7.424-2.934,11.696-4.075
	c-6.926,7.049-9.062,15.781-9.722,25.479c4.757,0,9.527,0,14.428,0C1228.436,370.098,1228.436,370.098,1213.981,371.112z"/>
<path fill-rule="evenodd" clip-rule="evenodd" d="M227.342,574.696c-4.08,0-7.134,0-10.188,0c-0.054-0.456-0.107-0.913-0.162-1.37
	c8.189-1.529,16.378-3.059,23.868-4.457c-2.018,10.374-4.052,20.487-5.938,30.628c-2.051,11.027-3.861,22.1-5.979,33.113
	c-1.13,5.876-2.25,11.817-4.148,17.471c-3.522,10.491-7.104,21.234-16.809,27.878c-2.747,1.88-6.686,2.221-10.157,2.735
	c-1.296,0.192-2.951-0.96-4.146-1.882c-0.321-0.247,0.132-2.411,0.775-2.804c1.346-0.823,3.031-1.176,4.623-1.475
	c0.744-0.14,1.614,0.236,2.395,0.479c5.439,1.689,9.161-0.126,10.358-5.489c3.432-15.366,7.16-30.688,9.885-46.182
	c2.093-11.9,2.841-24.037,4.191-36.068C226.349,583.383,226.796,579.493,227.342,574.696z"/>
<path fill-rule="evenodd" clip-rule="evenodd" d="M810.18,103.056c0.757,2.621,1.326,5.314,2.309,7.848
	c1.981,5.112,6.628,7.903,12.567,7.935c5.409,0.028,9.935-1.791,12.182-6.914c2.418-5.512,1.747-10.842-2.878-15.104
	c-4.098-3.776-8.471-7.254-12.571-11.027c-7.997-7.358-6.021-20.796,2.936-26.325c5.987-3.698,11.321-7.321,18.545-6.602
	c2.037,0.203,4.03,0.843,5.484,1.16c0,5.019,0,9.307,0,13.595c-2.718-5.622-5.972-10.069-12.491-9.947
	c-2.992,0.056-7.033,0.607-8.667,2.555c-2.103,2.507-4.661,6.426-1.728,10.254c2.294,2.993,4.726,5.984,7.566,8.431
	c5.047,4.345,10.679,7.94,13.639,14.372c3.686,8.008,1.761,15.85-5.531,20.638c-4.521,2.968-8.697,6.747-13.602,8.774
	c-8.787,3.63-12.276,2.986-21.333-1.469c0.865-5.919,1.766-12.083,2.667-18.248C809.576,103.005,809.877,103.03,810.18,103.056z"/>
<path fill-rule="evenodd" clip-rule="evenodd" d="M340.753,102.014c0.004,5.688,0.731,10.683,5.781,13.986
	c6.328,4.141,16.236,3.643,19.898-1.242c3.871-5.165,2.242-14.946-3.387-19.865c-3.337-2.915-6.768-5.722-10.168-8.563
	c-7.642-6.387-8.468-17.21-1.12-23.699c9.899-8.742,12.598-12.257,28.996-8.37c-1.146,4.458-2.29,8.913-3.564,13.874
	c-0.549-0.704-1.111-1.097-1.183-1.565c-1.005-6.565-3.903-9.188-10.745-9.621c-4.439-0.281-9.619,3.86-10.215,8.864
	c-0.72,6.039,3.573,9.524,7.637,12.977c4.008,3.405,8.223,6.61,11.92,10.328c6.685,6.719,5.455,20.474-4.228,26.387
	c-5.385,3.288-10.959,6.382-16.759,8.825c-2.554,1.075-5.967,0.796-8.841,0.29c-6.678-1.175-7.624-2.78-6.866-9.964
	c0.41-3.894,0.939-7.774,1.465-11.654C339.406,102.779,339.886,102.619,340.753,102.014z"/>
<path fill-rule="evenodd" clip-rule="evenodd" d="M1158.928,617.597c0.386,1.723,0.82,3.031,0.954,4.37
	c0.777,7.761,7.881,13.203,15.684,11.805c9.45-1.694,13.11-7.681,11.024-15.51c-1.03-3.87-4.79-7.195-7.788-10.312
	c-3.338-3.47-7.514-6.143-10.786-9.663c-5.383-5.792-3.549-15.372,1.445-20.533c7.396-7.642,16.356-10.53,26.804-8.865
	c0.894,0.143,1.709,0.773,2.178,0.996c-0.747,4.808-1.437,9.248-2.21,14.227c-0.579-0.712-1.206-1.123-1.213-1.545
	c-0.103-5.782-3.456-8.474-8.696-9.799c-3.729-0.942-9.306,0.859-11.418,4.006c-2.866,4.271-2.646,8.395,0.909,11.96
	c3.015,3.024,6.267,5.913,9.789,8.31c8.208,5.585,13.554,12.853,10.987,22.913c-1.067,4.184-5.099,8.064-8.658,11.031
	c-3.629,3.022-8.372,4.688-12.561,7.063c-6.113,3.47-12.103,1.087-18.084-0.332c-0.864-0.205-2.187-1.468-2.123-2.128
	c0.532-5.511,1.32-10.997,2.104-16.48C1157.323,618.738,1157.965,618.451,1158.928,617.597z"/>
<path fill-rule="evenodd" clip-rule="evenodd" d="M1140.593,412.836c1.722,12.695,13.091,19.03,22.997,12.815
	c6.215-3.898,7.222-13.753,1.934-18.955c-5.441-5.353-10.776-10.82-16.371-16.008c-3.934-3.648-3.108-8.604-1.824-12.054
	c3.677-9.872,17.712-19.633,30.137-15.629c1.129,0.363,2.32,2.655,2.299,4.034c-0.048,3.194-0.82,6.377-1.48,10.769
	c-0.756-1.757-1.166-2.458-1.367-3.215c-1.554-5.841-5.094-8.014-12.734-7.764c-4.176,0.137-9.068,4.143-8.975,8.639
	c0.096,4.593,2.486,8.522,6.557,11.397c6.186,4.369,12.658,8.555,16.084,15.785c3.525,7.442,0.573,16.283-6.459,20.494
	c-2.927,1.753-5.31,4.393-8.036,6.504c-6.904,5.346-14.795,3.993-22.53,2.957c-1.075-0.144-2.756-2.016-2.733-3.059
	c0.116-5.642,0.682-11.273,1.092-16.909C1139.652,412.704,1140.123,412.771,1140.593,412.836z"/>
<path fill-rule="evenodd" clip-rule="evenodd" d="M1026.71,102.595c1.961,9.812,6.044,14.945,13.599,16.201
	c5.078,0.844,12.402-2.248,14.086-5.948c3.051-6.701,1.409-13.345-4.303-17.993c-3.732-3.037-7.105-6.571-11.057-9.273
	c-7.496-5.127-6.104-18.895,1.376-24.952c8.226-6.66,16.685-10.2,27.512-6.124c-1.095,4.041-2.225,8.208-3.549,13.094
	c-1.357-5.601-3.677-9.382-9.675-9.892c-4.545-0.387-9.767,1.095-11.482,4.375c-2.091,3.997-0.737,10.283,2.873,13.356
	c5.224,4.448,10.807,8.545,15.587,13.427c7.723,7.885,4.611,22.285-5.229,27.028c-3.709,1.787-7.061,4.314-10.576,6.504
	c-5.805,3.614-11.888,2.824-17.928,0.91c-2.976-0.943-4.811-2.229-3.349-6.403C1026.161,112.436,1026.076,107.389,1026.71,102.595z"
	/>
<path fill-rule="evenodd" clip-rule="evenodd" d="M711.249,637.54c1.382-6.811,2.604-12.835,3.92-19.316
	c1.05,3.764,1.334,7.348,2.985,10.117c2.58,4.327,10.478,6.404,15.471,5.211c13-3.104,12.673-15.36,5.394-22.114
	c-2.545-2.361-5.188-4.722-8.123-6.534c-5.272-3.256-7.529-8.535-9.74-13.769c-1.397-3.307,3.258-13.021,6.702-15.235
	c1.542-0.991,2.98-2.158,4.574-3.051c7.749-4.344,11.729-4.962,22.533-3.525c-0.75,4.703-1.499,9.398-2.379,14.916
	c-0.849-1.4-1.648-2.104-1.581-2.71c0.532-4.776-2.01-6.62-6.247-7.874c-5.88-1.739-10.241-1.047-12.769,2.952
	c-2.526,3.995-1.192,11.827,2.836,15.143c3.407,2.804,7.093,5.265,10.604,7.945c9.722,7.419,12.218,20.008,3.809,27.621
	c-9.192,8.321-19.782,16.875-34.189,10.629C714.218,637.586,713.172,637.727,711.249,637.54z"/>
<path fill-rule="evenodd" clip-rule="evenodd" d="M979.238,582.534c-1.625-8.138-12.811-13.012-18.304-8.485
	c-5.108,4.211-5.562,13.708-0.113,17.781c4.329,3.236,8.59,6.566,12.8,9.956c8.142,6.559,9.381,22.302-1.495,28.207
	c-5.632,3.059-9.611,9.375-16.924,9.09c-5.127-0.2-10.245-0.793-15.344-1.406c-0.67-0.08-1.779-1.386-1.707-2.011
	c0.685-5.894,1.581-11.761,2.517-18.339c1.224,3.569,1.938,6.592,3.254,9.324c4.562,9.473,17.056,8.192,22.467,4.256
	c3.9-2.837,4.794-13.514,0.642-17.385c-4.255-3.967-8.72-7.707-12.989-11.658c-8.708-8.059-7.48-18.835,1.492-26.595
	c6.366-5.505,12.992-6.978,20.838-6.524c3.497,0.201,5.6,0.737,4.567,4.897C980.212,576.567,979.793,579.567,979.238,582.534z"/>
<path fill-rule="evenodd" clip-rule="evenodd" d="M1792.712,57.943c7.872-1.455,15.744-2.911,23.981-4.434
	c-2.423,21.038-10.469,40.555-8.614,61.709c5.274,3.013,10.326,1.395,15.316-1.432c0.201,0.357,0.403,0.714,0.604,1.071
	c-1.388,0.977-2.649,2.273-4.185,2.871c-5.851,2.275-11.757,4.42-17.704,6.432c-5.263,1.78-7.779,0.216-7.08-5.233
	c1.322-10.304,3.379-20.514,5.168-30.757c1.201-6.877,2.916-13.701,3.577-20.627c0.643-6.73-1.283-8.338-8.045-8.714
	c-0.978-0.055-1.955-0.105-2.933-0.158C1792.77,58.429,1792.742,58.187,1792.712,57.943z"/>
<path fill-rule="evenodd" clip-rule="evenodd" d="M1336.066,115.926c-7.901,2.962-15.72,6.179-23.741,8.77
	c-3.613,1.167-7.112-2.782-6.351-6.628c1.64-8.278,3.459-16.521,5.134-24.793c1.642-8.113,3.409-16.209,4.72-24.377
	c1.127-7.026,0.013-8.361-6.755-9.972c-1.069-0.254-2.205-0.227-3.392-1.126c7.561-1.389,15.122-2.777,23.618-4.338
	c-0.577,2.791-0.976,4.628-1.335,6.473c-3.015,15.467-6.137,30.913-8.985,46.41c-1.483,8.073,2.232,11.399,10.092,9.533
	c2.156-0.512,4.324-0.976,6.488-1.462C1335.728,114.919,1335.897,115.423,1336.066,115.926z"/>
<path fill-rule="evenodd" clip-rule="evenodd" d="M1340.399,58.121c8.831-1.659,16.396-3.08,24.453-4.594
	c0,2.224,0.258,3.739-0.041,5.136c-2.812,13.179-5.893,26.304-8.499,39.521c-0.833,4.224-1.141,8.778-0.514,13.006
	c0.862,5.807,3.371,6.894,9.025,5.205c2.155-0.645,4.284-1.378,6.433-2.048c0.099-0.03,0.271,0.173,1.348,0.909
	c-5.399,2.339-10.23,4.508-15.126,6.519c-2.544,1.045-5.177,1.898-7.815,2.682c-4.688,1.392-8.565-2.349-7.56-7.147
	c3.269-15.6,7.236-31.103,9.483-46.851C1352.946,60.94,1353.879,60.822,1340.399,58.121z"/>
<path fill-rule="evenodd" clip-rule="evenodd" d="M795.946,53.379c-1.84,8.607-3.563,15.854-4.91,23.171
	c-1.859,10.104-4.151,20.204-4.941,30.408c-0.896,11.597,4.274,10.917,12.225,8.679c1.493-0.42,2.954-0.953,4.448-1.366
	c0.11-0.03,0.373,0.496,0.754,1.025c-6.747,2.781-13.389,5.614-20.115,8.23c-1.938,0.754-4.175,1.356-6.167,1.12
	c-1.215-0.144-3.207-2.061-3.163-3.111c0.237-5.718,0.752-11.452,1.635-17.108c1.556-9.969,3.437-19.888,5.207-29.823
	c0.256-1.435,0.573-2.87,1.004-4.262c2.362-7.63,0.386-10.68-7.539-11.5c-0.804-0.083-1.623-0.011-2.552-0.943
	C779.308,56.497,786.786,55.096,795.946,53.379z"/>
<path fill-rule="evenodd" clip-rule="evenodd" d="M1101.055,367.458c7.541-1.489,15.073-3.027,22.646-4.341
	c0.449-0.078,1.871,1.777,1.731,2.525c-2.571,13.729-5.43,27.406-7.949,41.145c-0.783,4.271-1.483,8.794-0.908,13.023
	c0.834,6.138,5.068,7.733,11.064,5.115c1.897-0.828,3.867-1.491,5.803-2.23c0.211,0.54,0.422,1.08,0.633,1.619
	c-4.143,1.829-8.213,3.846-12.447,5.428c-3.627,1.355-7.414,2.318-11.179,3.264c-4.515,1.134-7.321-1.399-6.479-5.901
	c2.179-11.637,4.526-23.242,6.713-34.878c1.109-5.905,2.373-11.818,2.881-17.787c0.312-3.672-2.901-5.107-6.11-5.553
	c-2.07-0.287-4.212-0.054-6.322-0.054C1101.106,368.375,1101.081,367.916,1101.055,367.458z"/>
<path fill-rule="evenodd" clip-rule="evenodd" d="M1151.649,631.214c-8.147,2.867-16.221,5.981-24.48,8.478
	c-3.208,0.97-5.621-1.132-5.199-4.717c0.742-6.303,1.799-12.571,2.855-18.832c1.978-11.719,4.057-23.42,6.076-35.132
	c0.841-4.876-1.492-6.611-6.107-6.207c-1.781,0.156-3.588,0.025-5.526-0.914c7.615-1.663,15.231-3.326,23.894-5.217
	c-0.409,3.833-0.606,7.311-1.179,10.725c-1.61,9.613-3.346,19.206-5.092,28.796c-0.932,5.116-2.431,10.171-2.886,15.322
	c-0.773,8.731,5.331,9.607,12.183,7.485c1.634-0.506,3.262-1.034,4.893-1.552C1151.27,630.038,1151.459,630.626,1151.649,631.214z"
	/>
<path fill-rule="evenodd" clip-rule="evenodd" d="M1148.269,23.833c3.999-0.322,5.819,1.455,5.668,5.521
	c-0.151,4.03-3.103,7.397-6.852,7.473c-3.5,0.07-6.283-2.719-6.166-6.179C1141.057,26.573,1143.982,23.861,1148.269,23.833z"/>
<path fill-rule="evenodd" clip-rule="evenodd" d="M483.906,31.05c-0.017-5.163,1.961-7.163,6.638-7.253
	c3.759-0.072,5.439,1.521,5.396,5.32c-0.06,5.076-2.191,7.559-6.815,7.728C484.867,37,483.592,34.683,483.906,31.05z"/>
<path fill-rule="evenodd" clip-rule="evenodd" d="M1170.902,30.867c0.048-4.864,2.144-6.918,6.484-7.071
	c4.067-0.144,5.692,1.678,5.552,5.664c-0.177,4.987-2.442,7.373-7.157,7.388C1171.327,36.861,1170.667,34.098,1170.902,30.867z"/>
<path fill-rule="evenodd" clip-rule="evenodd" d="M465.907,28.915c-0.021,5.53-1.941,7.857-5.95,7.918
	c-3.721,0.057-5.946-1.555-6.033-5.438c-0.104-4.686,2.908-7.37,7.604-7.634C466.26,23.495,466.113,26.372,465.907,28.915z"/>
<path fill-rule="evenodd" clip-rule="evenodd" d="M1516.904,29.626c-0.083,4.305-3.022,7.432-6.841,7.186
	c-3.924-0.253-5.282-2.673-5.159-6.294c0.149-4.402,2.46-6.735,6.657-6.688C1515.827,23.879,1516.99,25.141,1516.904,29.626z"/>
<path fill-rule="evenodd" clip-rule="evenodd" d="M1482.431,23.829c4.086-0.296,5.667,1.714,5.503,5.668
	c-0.18,4.338-2.92,7.498-6.741,7.311c-3.866-0.189-5.389-2.478-5.294-6.159C1476.012,26.223,1478.285,23.819,1482.431,23.829z"/>
<path fill-rule="evenodd" clip-rule="evenodd" d="M291.909,30.807c0-4.796,2.05-7.06,6.256-6.981c3.795,0.07,5.796,1.927,5.72,5.76
	c-0.076,3.853-3.508,7.187-7.332,7.237C292.341,36.878,291.694,34.174,291.909,30.807z"/>
<path fill-rule="evenodd" clip-rule="evenodd" d="M1018.901,29.817c-0.136,4.604-2.748,7.29-6.894,6.993
	c-3.555-0.255-5.216-2.293-5.087-5.789c0.167-4.507,3.164-7.308,7.387-7.215C1018.46,23.898,1019.116,26.48,1018.901,29.817z"/>
<path fill-rule="evenodd" clip-rule="evenodd" d="M1277.457,551.827c-3.81,0.795-4.784-1.356-4.604-5.11
	c0.231-4.82,2.09-6.668,6.854-6.952c3.558-0.211,5.239,1.064,5.197,4.624C1284.851,548.855,1282.045,551.839,1277.457,551.827z"/>
<path fill-rule="evenodd" clip-rule="evenodd" d="M977.893,30.803c0.027-4.538,2.551-6.97,7.047-6.991
	c3.732-0.019,4.651,2.592,4.896,5.413c0.328,3.791-3.45,7.778-6.988,7.556C979.208,36.551,977.84,34.204,977.893,30.803z"/>
<path fill-rule="evenodd" clip-rule="evenodd" d="M332.921,28.732c0.033,4.631-3.146,8.132-7.163,8.104
	c-4.33-0.03-4.12-3.694-4.676-6.212c-0.705-3.197,3.066-6.659,6.599-6.808C331.166,23.672,332.963,25.2,332.921,28.732z"/>
<path fill-rule="evenodd" clip-rule="evenodd" d="M1309.362,539.884c4.49-0.837,4.721,2.025,4.566,5.405
	c-0.193,4.199-2.499,6.308-6.578,6.603c-5.242,0.379-4.296-3.114-4.481-6.229C1302.588,540.953,1304.913,539.354,1309.362,539.884z"
	/>
<path fill-rule="evenodd" clip-rule="evenodd" d="M789.86,33.207c0.163-7.146,2.404-9.291,7.17-9.431
	c3.69-0.109,3.984,1.962,3.898,4.776c-0.145,4.734-3.175,8.576-7.345,8.018C791.857,36.339,790.444,33.772,789.86,33.207z"/>
<path fill-rule="evenodd" clip-rule="evenodd" d="M1811.368,36.63c-1.136-6.438,0.027-10.498,4.512-12.553
	c1.427-0.653,5.282,0.419,5.308,0.86c0.186,3.168,0.742,7.244-0.937,9.317C1818.711,36.153,1814.52,35.903,1811.368,36.63z"/>
<path fill-rule="evenodd" clip-rule="evenodd" d="M1359.903,33.209c0.008-7.193,1.841-9.163,6.298-9.434
	c3.518-0.213,4.73,1.425,4.702,4.603c-0.036,4.012-4.203,8.812-7.813,8.129C1361.479,36.202,1360.294,33.646,1359.903,33.209z"/>
<path fill-rule="evenodd" clip-rule="evenodd" d="M1331.796,23.86c0.617,0.852,2.74,2.475,2.915,4.286
	c0.402,4.186-3.748,8.674-7.473,8.508c-4.244-0.188-3.339-3.597-3.318-6.253C1323.956,26.057,1326.142,23.766,1331.796,23.86z"/>
<path fill-rule="evenodd" clip-rule="evenodd" d="M1146.974,539.853c0.493,0.603,2.526,1.965,2.726,3.556
	c0.494,3.948-3.956,8.257-7.677,8.465c-3.189,0.179-4.04-1.704-4.062-4.202C1137.92,543.201,1141.195,539.777,1146.974,539.853z"/>
<path fill-rule="evenodd" clip-rule="evenodd" d="M1130.444,332.586c0.876,6.498,1.329,11.088-4.15,12.914
	c-1.416,0.472-4.674-0.295-4.773-0.882c-0.477-2.831-1.263-6.652,0.164-8.484C1123.279,334.086,1127.135,333.799,1130.444,332.586z"
	/>
<path fill-rule="evenodd" clip-rule="evenodd" d="M244.758,540.597c0.414,8.937-1.751,11.506-9.281,11.013
	C233.461,540.926,235.764,538.194,244.758,540.597z"/>
</svg>
