<?xml version="1.0" encoding="utf-8"?>
<!-- Generator: Adobe Illustrator 16.0.0, SVG Export Plug-In . SVG Version: 6.00 Build 0)  -->
<!DOCTYPE svg PUBLIC "-//W3C//DTD SVG 1.1//EN" "http://www.w3.org/Graphics/SVG/1.1/DTD/svg11.dtd">
<svg version="1.1" id="Lag_1" xmlns="http://www.w3.org/2000/svg" xmlns:xlink="http://www.w3.org/1999/xlink" x="0px" y="0px"
	 width="2211.817px" height="357.647px" viewBox="0 0 2211.817 357.647" enable-background="new 0 0 2211.817 357.647"
	 xml:space="preserve">
<path fill-rule="evenodd" clip-rule="evenodd" d="M80.191,69.234c-8.537,3.211-15.301,5.909-18.654,13.261
	c-3.554-1.06-3.743-3.04-1.816-5.442c6.124-7.636,12.024-15.545,22.518-17.742c1.046-0.219,2.205-1.829,2.58-3.022
	c2.867-9.118,5.693-18.254,8.223-27.469c1.026-3.736,1.841-7.711,1.662-11.526c-0.094-2.018-2.086-4.78-3.972-5.752
	c-17.478-9.003-35.344-8.036-53.241-1.246c-3.927,1.49-7.854,3.126-11.496,5.198C15.778,21.305,9.85,29.926,9.968,42.009
	c0.081,8.256,6.86,16.557,15.002,18.461c3.635,0.851,7.387,1.197,11.025,2.034c1.381,0.317,2.593,1.367,3.883,2.083
	c-1.087,1.271-1.962,3.33-3.294,3.687c-9.893,2.649-28.747-4.527-33.258-13.58c-2.43-4.876-2.829-10.971-3.266-16.584
	c-0.619-7.945,3.587-15.097,8.921-19.536c7.181-5.977,15.979-10.871,24.887-13.697c11.815-3.748,24.379-5.957,36.978-4.34
	c10.012,1.285,19.99,3.106,29.83,5.358c5.497,1.258,7.753,7.038,5.885,12.408c-2.237,6.431-4.495,12.855-6.647,19.315
	c-2.098,6.3-4.074,12.64-6.244,19.399c12.456,1.513,23.767-0.467,34.32-6.293c1.444-0.798,2.602-2.599,3.291-4.194
	c2.896-6.707,5.824-13.423,8.192-20.323c0.97-2.829,0.551-6.135,0.781-9.477c-2.559,0.27-5.207,0.548-7.962,0.839
	c0.622-6.481,13.304-13.603,23.327-12.719c-11.229,35.725-25.016,70.326-36.193,105.767c0.457,0.454,0.913,0.909,1.369,1.363
	c3.417-1.938,6.833-3.876,10.384-5.891c1.144,6.283-15.194,17.642-25.046,16.961c1.342-6.116,2.268-12.173,4.043-17.97
	c2.277-7.435,5.19-14.678,7.925-21.967c1.372-3.654,3.078-7.186,4.414-10.853c1.323-3.628,2.371-7.355,3.854-12.029
	c-2.062,0.558-3.593,0.558-4.553,1.299c-6.472,4.997-13.951,5.084-21.596,4.946c-9.313-0.168-9.673-0.141-12.247,8.965
	c-3.554,12.571-9.103,24.203-16.158,35.032c-7.326,11.244-16.978,20.015-30.575,23.14c-3.155,0.725-6.525,0.773-9.776,0.64
	c-0.874-0.035-2.342-1.903-2.316-2.899c0.025-0.984,1.478-2.589,2.506-2.769c3.064-0.536,6.243-0.365,9.348-0.722
	c9.755-1.118,15.981-8.521,21.162-15.068c5.643-7.133,8.205-16.77,11.777-25.451C76.19,81.885,77.824,76.173,80.191,69.234z"/>
<path fill-rule="evenodd" clip-rule="evenodd" d="M1748.016,213.519c5.942,8.322,9.81,17.044,8.97,27.374
	c-0.782,9.62-3.319,18.627-7.783,27.191c-1.792,3.438-2.896,7.241-4.233,10.907c-2.273,6.238-4.484,12.498-6.721,18.75
	c-0.437,1.221-1.153,2.424-1.235,3.669c-0.124,1.897,0.191,3.824,0.32,5.738c2.099-0.635,4.21-1.232,6.291-1.919
	c1.25-0.411,2.454-0.961,4.07-0.607c-5.979,8.756-14.229,13.576-24.085,16.396c-2.265-8.449,1.953-14.248,4.707-20.485
	c2.652-6.006,4.947-12.17,7.625-18.824c-14.641,6.222-29.869,7.05-44.912,7.792c-7.16,12.927-16.057,24.436-29.576,30.371
	c-8.803,3.864-18.94,3.645-28.583,1.381c-0.828-0.195-2.002-2.199-1.759-2.965c0.455-1.437,1.808-3.643,2.825-3.663
	c4.438-0.09,8.927,0.235,13.326,0.888c6.882,1.02,13.31-0.114,18.829-4.188c7.486-5.526,13.438-12.426,16.645-21.728
	c-6.864-0.671-11.921,1.288-15.692,7.098c-1.151,1.773-4.227,2.298-6.844,2.666c2.371-7.837,7.692-12.681,14.401-15.78
	c3.755-1.734,8.175-1.974,12.153-3.308c1.285-0.432,2.39-2.06,3.106-3.394c1.709-3.179,3.107-6.521,4.684-9.773
	c2.108-4.347,4.078-8.775,6.456-12.973c2.362-4.171,5.321-8.002,7.727-12.152c6.048-10.438,14.231-19.004,23.157-26.939
	c1.033-0.92,2.358-1.513,3.711-2.358c-4.741-5.473-11.608-6.496-18.199-8.256c-13.93-3.716-28.045-2.994-41.293,1.389
	c-13.027,4.311-25.174,10.961-28.839,26.598c-1.99,8.489,4.074,24.061,15.172,25.238c3.548,0.376,7.08,1.049,10.557,1.854
	c1.382,0.319,2.595,1.366,3.885,2.082c-1.253,1.279-2.554,3.691-3.751,3.641c-5.037-0.212-10.156-0.711-15.038-1.934
	c-9.854-2.468-17.477-7.766-20.833-18.04c-2.885-8.832-1.391-16.695,4.266-23.938c0.975-1.247,1.42-2.977,2.539-4.024
	c2.669-2.501,5.46-4.918,8.441-7.029c10.038-7.11,21.307-10.896,33.54-11.808c5.759-0.43,11.539-1.058,17.297-0.941
	c13.414,0.271,26.202,3.102,37.75,10.4c0.919,0.58,2.677,0.577,3.713,0.11c7.366-3.322,15.145-2.765,22.836-2.439
	c2.792,0.118,5.094,1.924,4.243,5.373c-0.98,3.973-4.344,2.841-6.48,2.075C1759.564,210.941,1754.004,210.578,1748.016,213.519z
	 M1694.585,280.409c11.362-0.793,21.118-0.844,30.632-2.392c5.114-0.832,10.279-2.538,14.026-7.81
	c5.585-7.859,6.31-16.913,8.712-25.577c2.586-9.331-0.772-17.623-5.181-25.573c-1.535-2.768-3.576-3.723-6.26-0.787
	c-1.98,2.167-4.887,3.555-6.63,5.857c-6.153,8.128-12.437,16.218-17.816,24.854C1705.991,258.74,1700.833,269.074,1694.585,280.409z
	"/>
<path fill-rule="evenodd" clip-rule="evenodd" d="M1592.562,15.978c-3.237,0.662-6,1.229-9.064,1.855
	c2.146-7.046,13.763-13.771,22.462-13.059c-0.358,2.853-0.342,5.799-1.15,8.498c-1.532,5.114-3.574,10.075-5.338,15.123
	c-4.174,11.947-8.25,23.929-12.476,35.857c-3.994,11.278-8.237,22.47-12.146,33.777c-1.443,4.172-2.248,8.564-3.344,12.856
	c0.416,0.337,0.833,0.674,1.25,1.01c3.13-1.763,6.26-3.526,9.387-5.291c1.494,6.159-14.672,17.41-24.002,16.445
	c-0.108-2.228-0.219-4.513-0.329-6.785c-5.882,2.159-11.652,4.593-17.617,6.369c-4.917,1.464-9.629,1.396-14.57-1.628
	c-5.438-3.328-6.09-8.266-6.547-13.388c-0.284-3.191,0.158-6.671,1.184-9.714c3.307-9.817,7.099-19.469,10.584-29.228
	c3.766-10.541,7.441-21.114,11.066-31.704c1.674-4.894,3.294-9.816,4.645-14.806c1.217-4.498,0.691-8.944-4.246-10.715
	c-6.666-2.392-13.488-4.973-20.44-5.789c-9.459-1.111-19.129-0.667-28.277,2.803c-11.524,4.371-23.415,8.313-29.074,20.871
	c-5.359,11.892-2.885,21.512,5.865,29.202c3.521,3.096,10.129,2.623,15.291,3.936c2.13,0.542,4.153,1.507,6.225,2.28
	c-2.198,1.227-4.561,3.722-6.566,3.462c-8.786-1.138-18.024-1.178-25.249-7.727c-8.275-7.502-12.447-20.248-5.516-32.795
	c6.952-12.584,17.798-18.812,30.447-22.661c12.449-3.788,25.381-6,38.456-4.479c9.691,1.128,19.317,3.068,28.855,5.178
	c5.527,1.223,7.38,7.454,4.819,15.026c-3.952,11.688-8.188,23.281-12.161,34.963c-4.108,12.081-8.113,24.198-12.025,36.345
	c-1.532,4.76-3.271,9.568-3.885,14.482c-0.958,7.677,2.296,8.108,7.741,8.683c13.091,1.381,25.334-6.067,29.348-20.068
	c3.504-12.224,8.896-23.902,13.325-35.87c0.895-2.418,0.999-5.122,1.837-7.568c2.728-7.975,5.758-15.848,8.4-23.85
	C1590.965,24.125,1591.585,20.167,1592.562,15.978z"/>
<path fill-rule="evenodd" clip-rule="evenodd" d="M457.41,64.856c-3.967,5.952-8.82,2.821-12.676,2.288
	c-9.944-1.376-17.688-6.308-22.559-15.71c-2.702-5.215-2.739-18.41,1.325-23.37c3.191-3.895,5.391-8.306,9.643-11.67
	c8.075-6.389,16.762-10.543,26.739-13.12c16.738-4.322,33.089-3.585,49.57,0.86c4.337,1.17,9.04,0.932,12.671,4.307
	c2.236,2.079,3.441,4.084,2.195,7.286c-3.527,9.061-7.096,18.118-10.173,27.336c-3.988,11.948-7.444,24.073-11.295,36.068
	c-0.99,3.088-2.73,5.926-3.901,8.965c-4.657,12.084-9.261,24.015-16.461,35.1c-4.782,7.361-9.688,14.548-15.771,20.604
	c-5.608,5.582-12.116,11.564-19.343,13.857c-7.563,2.4-16.895,2.261-24.643,0.192c-7.716-2.059-11.653-9.905-13.79-17.868
	c-2.659-9.915,0.284-18.875,3.991-27.912c3.327-8.112,8.407-15.25,14.472-21.001c8.386-7.953,17.574-14.998,28.499-20.074
	c9.725-4.519,19.781-6.16,29.873-8.395c2.954-0.653,6.325-0.266,7.035,3.498c0.551,2.916-0.164,5.409-4.314,5.422
	c-6.256,0.02-12.683-0.214-18.731,1.084c-15.066,3.232-27.9,10.974-37.283,23.166c-5.228,6.792-9.873,14.554-12.588,22.616
	c-2.929,8.696-3.901,18.45,1.156,27.085c4.311,7.359,11.705,9.134,20.134,7.107c12.228-2.941,19.839-11.521,26.906-20.775
	c4.427-5.795,9.658-11.66,11.766-18.363c2.479-7.884,6.804-14.868,9.089-22.722c1.538-5.287,3.139-10.561,4.892-15.779
	c3.037-9.039,6.178-18.043,9.344-27.037c2.101-5.963,4.663-11.787,6.378-17.854c1.312-4.643,1.776-9.554,2.249-14.382
	c0.101-1.025-1.17-2.518-2.194-3.267c-6.257-4.579-13.632-6.381-21.098-6.823c-11.162-0.662-21.948,0.351-32.576,5.42
	c-6.084,2.902-11.654,6.327-16.947,10.143c-8.079,5.825-8.896,21.178-5.034,30.353c3.873,9.202,11.561,8.657,18.465,10.98
	C454.108,63.038,455.658,64.004,457.41,64.856z"/>
<path fill-rule="evenodd" clip-rule="evenodd" d="M739.557,260.656c0.676,6.768,0.641,7.204-5.669,6.692
	c-13.508-1.097-25.127,3.339-36.752,9.817c-13.819,7.702-23.142,19.221-28.993,33.033c-3.423,8.078-4.102,17.5-2.196,26.952
	c1.252,6.208,4.691,9.494,9.375,11.866c5.03,2.548,10.356,1.66,15.658-0.507c11.394-4.659,19.471-12.95,25.896-23.002
	c9.09-14.222,16.862-29.054,20.211-45.869c0.583-2.928,2.727-5.509,3.78-8.384c3.446-9.406,6.805-18.846,10.039-28.326
	c2.718-7.965,5.307-15.976,7.775-24.021c1.628-5.308-1.942-11.433-6.445-12.752c-13.087-3.833-26.086-4.77-39.709-2.022
	c-8.313,1.678-15.307,5.578-21.992,9.749c-13.431,8.377-17.945,28.516-5.858,39.546c2.72,2.481,6.823,3.533,10.405,4.95
	c2.514,0.995,5.224,1.494,8.09,2.281c-1.519,3.783-3.114,4.706-7.179,4.119c-6.872-0.991-13.216-2.98-18.769-6.793
	c-6.481-4.45-10.271-10.302-10.537-19.006c-0.376-12.26,5.872-19.509,14.481-26.888c8.313-7.124,17.894-11.02,27.885-12.842
	c10.212-1.862,20.958-0.762,31.469-1.041c7.813-0.207,15.115,1.778,22.546,4.037c6.715,2.041,8.901,5.374,6.544,12.082
	c-1.983,5.645-2.803,11.701-4.823,17.329c-6.184,17.218-13.627,34.045-18.727,51.564c-2.958,10.162-7.388,19.445-12.128,28.549
	c-4.938,9.479-10.941,18.404-18.583,26.35c-4.839,5.031-9.825,9.588-15.691,12.917c-10.705,6.075-22.062,7.619-33.392,1.431
	c-8.273-4.52-10.654-12.852-11.128-21.187c-0.671-11.815,3.141-22.251,10.148-32.365c4.887-7.054,10.658-12.604,16.79-18.127
	c8.221-7.404,17.323-13.474,28.157-16.262c7.841-2.017,15.817-3.546,23.791-4.974C735.785,259.241,737.783,260.27,739.557,260.656z"
	/>
<path fill-rule="evenodd" clip-rule="evenodd" d="M1376.288,262.814c-2.446,0.871-5.209,2.949-7.283,2.404
	c-8.725-2.291-17.356-5.078-25.759-8.357c-2.083-0.812-3.702-3.948-4.642-6.364c-4.552-11.702-4.068-23.544,3.645-33.391
	c5.467-6.979,13.112-12.01,22.095-15.087c9.354-3.204,18.692-4.549,28.429-4.616c9.637-0.066,18.773,2.036,27.396,6.14
	c8.527,4.058,16.371,9.05,22.301,16.758c4.404,5.724,9.653,10.799,14.045,16.532c1.854,2.419,2.47,5.785,3.879,9.294
	c1.502-1.421,2.565-2.188,3.328-3.187c6.028-7.893,11.93-15.884,18.078-23.681c0.734-0.931,2.722-0.873,4.128-1.273
	c-0.089,1.743,0.511,4.051-0.38,5.138c-5.441,6.646-11.933,12.426-15.773,20.37c-1.004,2.076-3.393,3.45-4.576,5.479
	c-3.17,5.435-0.593,11.113,0.399,16.402c2.327,12.411,1.709,24.555-1.813,36.49c-1.209,4.098-3.779,8.001-6.517,11.349
	c-1.229,1.504-4.959,2.582-6.558,1.805c-2.677-1.303-5.707-3.88-6.563-6.566c-3.296-10.346,0.241-20.385,2.98-30.262
	c1.801-6.493,4.596-12.709,6.848-19.083c0.245-0.693,0.025-1.696-0.29-2.421c-4.29-9.873-10.251-18.701-17.018-27.021
	c-2.01-2.47-3.988-4.965-6.507-8.103c-1.351,1.785-2.584,2.871-3.138,4.233c-6.396,15.731-12.283,31.688-19.188,47.189
	c-3.286,7.377-8.119,14.16-12.893,20.747c-3.531,4.873-7.76,9.384-12.296,13.348c-5.173,4.521-10.727,8.794-16.678,12.185
	c-6.238,3.555-13.393,3.069-20.103,1.021c-1.672-0.51-3.484-3.319-3.593-5.169c-0.067-1.131,2.831-2.981,4.688-3.53
	c1.963-0.581,4.685-0.737,6.352,0.203c5.959,3.364,11.632,0.691,17.158-0.604c3.159-0.74,6.274-3.181,8.598-5.626
	c3.502-3.685,5.783-8.606,9.509-11.979c5.297-4.794,7.093-11.396,10.198-17.231c4.623-8.688,8.426-17.854,12.015-27.035
	c2.576-6.59,4.295-13.521,6.281-20.333c1.263-4.333,3.348-7.714,8.173-8.689c0.664-0.134,1.18-1.008,2.652-2.347
	c-2.884-1.707-5.279-3.123-7.673-4.541c-1.11-0.658-2.296-1.219-3.317-1.994c-15.662-11.883-32.742-10.899-49.734-4.353
	c-7.227,2.785-14.567,7.772-17.628,15.097c-2.47,5.909-2.509,13.228-2.099,19.825c0.354,5.705,2.375,11.638,9.106,13.689
	c4.348,1.325,8.717,2.592,13.114,3.736c2.008,0.521,4.108,0.684,6.167,1.01C1375.984,261.214,1376.136,262.014,1376.288,262.814z
	 M1458.046,265.236c-1.425,1.77-2.52,2.703-3.075,3.889c-4.957,10.581-6.31,21.864-5.884,33.37c0.062,1.683,1.767,4.222,3.268,4.733
	c2.724,0.93,4.937-0.359,5.639-3.762c1.604-7.777,3.417-15.475,1.983-23.527C1459.158,275.336,1458.744,270.663,1458.046,265.236z"
	/>
<path fill-rule="evenodd" clip-rule="evenodd" d="M1854.797,63.342c1.059,4.172-1.518,5.382-5.209,5.055
	c-9.438-0.834-18.679-2.487-26.701-8.048c-4.656-3.227-9.447-17.74-7.727-24.226c2.774-10.457,8.883-18.271,18.281-23.98
	c17.326-10.524,36.354-12.573,55.83-11.495c9.027,0.499,17.977,3.004,26.875,4.989c5.168,1.153,7.499,5.975,5.812,10.99
	c-4.794,14.265-9.623,28.518-14.504,42.753c-2.473,7.213-5.973,14.205-7.415,21.608c-1.874,9.61-5.553,18.947-3.423,29.36
	c1.822,8.908,12.343,10.569,18.609,7.396c13.766-6.971,21.876-19.205,30.098-31.342c2.656-3.922,5.058-8.194,6.632-12.64
	c5.924-16.729,12.848-33.433,6.946-51.748c-1.428-4.431-3.626-8.628-4.864-13.102c-1.104-3.987,0.562-8.191,4.762-8.022
	c2.784,0.111,6.721,3.301,7.888,6.063c3.828,9.062,2.588,18.841,1.738,28.334c-0.607,6.789-1.88,13.591-3.612,20.188
	c-1.713,6.525-4.092,12.919-6.688,19.159c-3.661,8.801-7.748,17.524-14.237,24.617c-6.452,7.053-13.368,13.707-20.396,20.196
	c-5.283,4.879-11.559,7.321-19.09,7.112c-9.366-0.261-17.81-8.32-18.398-17.933c-0.575-9.393,1.135-18.336,4.672-27.254
	c3.619-9.128,5.484-18.94,8.356-28.381c0.886-2.908,2.822-5.487,3.814-8.376c3.048-8.877,7.831-17.37,6.976-27.182
	c-0.164-1.889-1.419-4.153-2.892-5.375c-6.379-5.292-14.354-5.775-22.143-6.612c-13.586-1.459-26.281,2.191-38.695,7.077
	c-11.839,4.658-20.644,16.956-19.964,28.857c0.245,4.284,2.246,8.648,4.196,12.605c2.108,4.278,5.793,6.516,10.971,6.741
	C1845.625,60.919,1849.898,62.343,1854.797,63.342z"/>
<path fill-rule="evenodd" clip-rule="evenodd" d="M491.483,296.665c-4.007,2.623-7.787,5.738-12.088,7.729
	c-4.203,1.945-8.924,3.758-13.442,3.82c-8.001,0.109-16.523,0.289-23.88-2.277c-6.303-2.198-12.398-5.838-17.159-12.325
	c-7.979-10.874-7.416-21.992-6.018-33.913c1.792-15.286,8.997-27.984,18.771-39.375c4.055-4.724,8.159-9.882,13.333-13.069
	c11.582-7.137,24.067-12.359,38.268-9.068c3.412,0.79,6.691,2.163,10.013,3.324c2.999,1.048,6.058,3.067,7.996-1.671
	c0.32-0.785,2.337-1.431,3.364-1.206c0.91,0.2,2.113,1.654,2.194,2.637c0.828,9.981,2.507,19.997-0.739,31.571
	c-1.809-2.408-3.896-3.909-3.997-5.534c-0.552-8.846-4.594-16.184-11.781-20.305c-6.89-3.949-15.095-4.444-23.291-2.254
	c-6.023,1.609-10.936,4.69-16.212,7.828c-9.858,5.86-15.944,14.47-20.397,24.221c-5.674,12.425-8.869,25.634-7.468,39.545
	c1.141,11.315,12.124,22.183,23.118,24.257c8.887,1.677,17.401,0.828,25.341-2.627c4.949-2.154,9.303-6.138,13.25-9.989
	c3.197-3.12,5.641-7.121,7.925-11.021c1.149-1.964,1.202-4.571,2.054-8.169c-4.141,1.601-7.039,2.72-11.073,4.279
	c0.693-2.382,0.665-4.528,1.584-5.07c5.447-3.212,11.079-6.119,16.721-8.989c2.815-1.433,4.376,0.064,3.989,2.792
	c-0.936,6.591-1.494,13.39-3.622,19.62c-3.219,9.423-7.012,18.782-11.794,27.49c-2.852,5.191-6.778,9.998-11.383,14.312
	c-5.769,5.406-11.815,9.896-19.088,12.705c-9.344,3.608-19.113,4.615-28.944,2.983c-7.3-1.212-14.581-3.273-19.521-9.373
	c-1.753-2.166-3.276-5.239-3.296-7.909c-0.025-3.436,2.779-5.329,6.272-3.85c2.032,0.86,3.996,2.451,5.375,4.199
	c9.063,11.495,19.283,13.992,33.44,8.93c5.454-1.95,9.746-5.014,14.445-8.167c8.105-5.439,12.003-13.217,16.18-21.185
	c0.722-1.377,1.508-2.721,2.265-4.08C491.953,297.208,491.718,296.936,491.483,296.665z"/>
<path fill-rule="evenodd" clip-rule="evenodd" d="M1164.014,269.19c-3.139,1.338-5.635,2.401-8.337,3.553
	c-1.458-3.244-0.753-4.619,2.344-6.057c5.317-2.467,10.244-5.774,16.776-9.566c0.899,3.291,2.478,5.786,1.967,7.732
	c-3.445,13.126-5.631,26.475-12.66,38.747c-3.173,5.541-7.208,10.445-10.432,15.893c-2.285,3.863-6.394,6.868-10.182,9.562
	c-4.066,2.893-8.518,5.47-13.157,7.262c-4.321,1.669-9.079,2.764-13.7,2.992c-12.448,0.616-24.792,0.153-34.322-9.767
	c-1.086-1.131-2.229-2.248-3.099-3.537c-1.749-2.594-2.056-5.439,0.647-7.428c2.688-1.978,5.501-1.753,7.852,1.092
	c2.434,2.945,4.592,6.431,7.674,8.463c6.236,4.11,13.363,6.396,20.951,5.034c9.589-1.721,18.684-5.43,25.406-12.424
	c5.209-5.42,8.805-12.415,12.951-18.818c1.352-2.086,2.178-4.514,3.782-7.931c-8.197,6.967-15.733,12.623-25.48,13.901
	c-14.686,1.928-28.518-0.056-40.132-10.11c-6.741-5.836-9.065-14.194-9.661-22.467c-0.509-7.075,1.16-14.323,2.019-21.477
	c1.866-15.542,10.89-27.419,21.236-37.986c5.778-5.902,13.526-10.034,20.777-14.3c9.752-5.738,20.571-4.644,31.081-2.91
	c4.058,0.669,7.777,3.389,11.842,5.262c0.853-1.729,1.271-2.999,2.024-4.021c1.787-2.426,4.6-2.021,5.688,0.848
	c0.568,1.499,0.999,3.149,1.022,4.738c0.106,7.329,0.199,14.666-0.075,21.985c-0.059,1.565-1.665,3.073-2.558,4.607
	c-1.106-1.565-2.821-2.994-3.207-4.72c-1.284-5.74-2.081-10.919-6.94-15.777c-8.49-8.489-17.597-8.166-28.163-6.911
	c-7.923,0.94-13.276,6.072-19.509,9.474c-4.521,2.468-7.479,8.15-10.586,12.77c-3.325,4.945-6.673,10.066-8.792,15.58
	c-2.41,6.271-4.436,13-4.859,19.643c-0.464,7.267,0.056,14.958,2.04,21.925c2.376,8.342,9.04,14.053,17.493,16.108
	c10.739,2.612,21.96,2.683,31.263-3.964c7.504-5.362,16.059-10.53,18.408-20.736C1163.832,273.606,1163.79,271.652,1164.014,269.19z
	"/>
<path fill-rule="evenodd" clip-rule="evenodd" d="M930.94,78.842c-1.614-11.947,2.244-22.613,7.864-32.799
	c3.106-5.63,7.657-9.876,12.885-13.717c4.099-3.012,8.033-5.946,10.81-11.183c7.154-13.5,25.864-24.083,42.343-19.779
	c12.233,3.195,20.976,11.219,25.073,22.117c4.315,11.476,6.017,24.116,2.72,36.699c-1.517,5.79-1.581,12.106-3.884,17.511
	c-3.792,8.894-7.752,18.126-13.682,25.596c-7.765,9.783-17.491,18.69-29.984,21.726c-10.557,2.565-21.621,3.667-32.221-2.433
	c-16.367-9.42-22.504-23.687-21.927-41.741C930.958,80.174,930.94,79.508,930.94,78.842z M942.827,89.937
	c0.265,1.075,0.584,2.978,1.202,4.775c1.875,5.446,5.329,9.842,8.611,14.54c3.768,5.394,9.043,7.024,14.087,9.014
	c8.233,3.248,16.196,0.518,24.002-3.062c7.808-3.581,12.82-9.347,17.82-16.253c6.701-9.257,9.906-19.548,13.059-30.031
	c1.35-4.485,1.947-9.28,2.258-13.977c0.664-10.06-0.99-19.591-4.587-29.272c-3.435-9.247-16.09-19.226-25.062-19.25
	c-14.273-0.038-25.095,10.456-27.18,25.213c-1.467,10.389-2.621,20.879-2.949,31.354c-0.351,11.178-6.262,18.458-14.708,24.39
	C947.69,88.564,945.436,88.949,942.827,89.937z M941.773,86.454c2.265-1.869,3.229-3.132,4.494-3.629
	c5.905-2.32,7.606-6.918,7.718-12.775c0.145-7.587,0.612-15.167,0.946-22.751c0.172-3.896,0.355-7.794,0.57-12.469
	C938.899,49.065,940.405,67.029,941.773,86.454z"/>
<path fill-rule="evenodd" clip-rule="evenodd" d="M934.811,295.924c-3.889,5.257-7.609,10.772-11.822,15.882
	c-8.636,10.469-20.6,10.702-32.596,9.443c-4.627-0.486-13.315-12.066-13.527-19.018c-0.325-10.676,3.782-19.561,9.724-28.043
	c5.011-7.154,10.759-13.75,19.27-15.884c6.109-1.532,12.929-1.311,19.267-0.532c5.756,0.706,12.648,11.486,12.806,18.086
	c0.052,2.159,0.008,4.32,0.008,7.476c3.098-5.065,4.85-10.405,8.522-13.347c5.285-4.231,9.357-10.752,16.558-11.958
	c5.901-0.987,12.015-1.005,18.024-0.904c2.417,0.041,4.922,1.319,7.184,2.444c2.781,1.385,4.155,4.718,2.02,6.434
	c-1.743,1.399-6.525,1.542-8.135,0.143c-7.085-6.158-12.896-5.579-21.378-1.11c-6.221,3.277-8.226,8.747-10.956,13.583
	c-2.913,5.158-4.28,11.681-4.566,17.691c-0.283,5.937-0.516,12.505,5.192,17.176c6.054,4.955,12.811,3.027,18.72-0.297
	c3.769-2.119,6.295-4.916,7.918-8.836c0.4-0.967,1.732-1.548,3.422-2.965c1.359,7.15-2.586,11.166-5.952,14.756
	c-7.903,8.427-18.611,5.817-28.04,4.745C939.708,320.121,935.339,308.401,934.811,295.924z M887.94,299.077
	c0-0.741,0.055-0.234-0.009,0.257c-0.779,6.032,1.054,11.746,5.885,14.766c6.563,4.101,13.364,2.841,20.053-1.788
	c5.842-4.042,8.072-9.813,10.461-15.75c3.422-8.506,5.633-17.245,1.567-26.102c-1.779-3.877-3.884-8.065-8.804-8.978
	c-7.813-1.447-14.157,2.377-18.811,7.602C891.184,277.055,887.521,286.86,887.94,299.077z"/>
<path fill-rule="evenodd" clip-rule="evenodd" d="M628.024,263.747c2.741-8.766,5.357-17.043,7.917-25.338
	c2.542-8.237,8.213-15.519,8.044-25.54c-3.288,1.369-5.89,2.452-8.491,3.534c-0.261-0.228-0.521-0.456-0.782-0.685
	c0.734-1.248,1.207-2.801,2.248-3.691c4.592-3.933,9.674-7.083,15.663-8.456c3.543-0.812,5.079,1.128,3.71,4.985
	c-2.715,7.646-5.721,15.19-8.417,22.843c-4.409,12.515-8.617,25.1-13.004,37.621c-4.291,12.247-8.73,24.441-13.021,36.688
	c-0.606,1.731-0.737,3.629-1.089,5.449c0.366,0.217,0.732,0.434,1.099,0.651c1.675-1.122,3.29-2.354,5.056-3.307
	c0.644-0.348,2.15-0.326,2.373,0.052c0.395,0.669,0.486,2.229,0.049,2.568c-5.68,4.405-10.481,10.518-19.677,10.302
	c0.681-3.477,1.299-6.634,2.127-10.861c-3.544,2.963-6.115,5.654-9.188,7.518c-2.652,1.608-5.83,3.006-8.856,3.192
	c-5.029,0.31-10.494,0.64-15.104-0.968c-7.145-2.492-8.96-13.91-7.234-20.957c1.968-8.033,5.423-15.206,10.34-21.891
	c6.227-8.465,13.874-15.193,23.316-19.496C613.666,254.06,621.326,256.217,628.024,263.747z M581.94,302.441
	c0,1.438-0.004,2.438,0.001,3.438c0.034,7.237,4.203,9.681,11.453,9.055c7.225-0.625,11.883-4.778,15.354-9.7
	c6.535-9.267,12.814-19.168,13.022-31.006c0.156-8.92-3.159-14.313-10.84-12.494c-5.01,1.187-9.966,4.469-13.842,8.018
	c-3.499,3.204-5.649,7.958-8.122,12.188C585.186,288.408,581.066,294.823,581.94,302.441z"/>
<path fill-rule="evenodd" clip-rule="evenodd" d="M157.171,69.72c-3.084,1.074-5.641,1.964-9.809,3.415
	c1.001-2.688,1.126-4.993,2.224-5.634c5.007-2.925,10.204-5.572,15.524-7.878c1.362-0.59,4.293-0.14,4.945,0.854
	c0.83,1.266,0.544,3.75-0.083,5.395c-2.186,5.729-4.842,11.278-7.106,16.98c-3.431,8.64-6.596,17.386-10.043,26.02
	c-2.165,5.425-1.456,9.483,2.082,9.356c2.189-0.078,4.343-1.103,6.518-1.683c6.783-1.807,12.242-5.771,16.398-11.202
	c2.297-3.001,3.664-6.771,5.163-10.315c3.601-8.52,7.098-17.085,10.481-25.693c0.754-1.92,0.345-4.418,1.382-6.081
	c2.261-3.624,6.216-3.343,11.01-3.968c-3.488,8.459-6.553,15.901-9.627,23.34c-0.736,1.78-1.595,3.516-2.246,5.326
	c-2.017,5.612-4.12,11.201-5.871,16.896c-1.035,3.367-1.729,6.89-2.119,10.393c-0.833,7.496-0.799,15.131-2.164,22.516
	c-1.973,10.681-13.846,20.89-24.779,21.594c-7.664,0.494-15.393,0.28-23.08,0.011c-4.906-0.172-12.18-8.509-11.946-13.427
	c0.07-1.482,0.757-3.633,1.82-4.165c0.958-0.479,3.09,0.496,4.225,1.419c3.449,2.809,6.386,6.312,10.031,8.798
	c7.41,5.057,15.113,4.049,23.194,0.865c11.253-4.434,12.39-14.18,13.547-23.923c0.565-4.762,0.098-9.646,0.098-15.543
	c-1.895,1.293-3.136,2.396-4.577,3.081c-7.113,3.382-13.985,7.955-21.497,9.646c-10.379,2.337-11.796-4.238-9.122-12.708
	c3.744-11.859,9.07-23.213,13.524-34.857C156.287,75.885,156.506,72.917,157.171,69.72z"/>
<path fill-rule="evenodd" clip-rule="evenodd" d="M1001.22,321.119c-0.255-4.968,3.462-8.021,8.594-6.516
	c6.266,1.837,10.144-1.664,14.526-4.917c6.939-5.15,9.581-13.121,13.777-20.07c0.623-1.03,0.752-2.467,0.786-3.725
	c0.101-3.662,0.038-7.328,0.036-10.992c-0.006-8.414-7.261-12.619-15.312-9.916c-10.492,3.522-16.388,11.101-20.225,20.652
	c-3.851,9.585-6.967,19.463-10.672,29.109c-1.54,4.007-4.318,6.954-10.45,6.499c2.379-7.387,4.552-14.413,6.907-21.379
	c3.531-10.444,7.155-20.857,10.829-31.253c0.759-2.146,2.04-4.103,2.854-6.232c4.151-10.866,8.358-21.714,12.271-32.665
	c1.82-5.094,3.02-10.408,4.427-15.363c-4.488-2.486-7.681,5.141-11.405,0.152c7.094-4.738,12.928-11.434,22.338-10.917
	c2.047,6.97-2.547,12.258-4.431,18.152c-2.206,6.901-4.702,13.712-7.15,20.533c-2.012,5.607-4.111,11.183-6.222,16.754
	c-0.964,2.543-2.048,5.041-3.634,8.922c4.83-3.446,8.182-6.36,11.989-8.434c5.912-3.219,12.28-4.064,18.952-2.172
	c5.162,1.465,10.514,6.915,10.878,12.188c0.743,10.769-2.664,20.172-8.358,29.415c-4.977,8.078-11.57,14.031-19.004,19.243
	C1016.757,322.931,1009.075,323.573,1001.22,321.119z"/>
<path fill-rule="evenodd" clip-rule="evenodd" d="M1513.94,310.482c-4.436,2.907-8.178,5.524-12.079,7.88
	c-6.108,3.688-12.94,3.481-19.67,2.898c-1.181-0.103-3.061-2.388-3.106-3.717c-0.345-9.86,3.248-18.77,7.005-27.686
	c3.112-7.387,5.599-15.037,8.686-23.451c-3.89,0.846-6.608,1.437-10.415,2.264c0.887-1.911,1.125-3.204,1.894-3.956
	c4.743-4.637,10.446-7.549,17.057-8.177c4.139-0.394,4.101,2.195,2.96,5.208c-4.183,11.054-8.411,22.092-12.446,33.2
	c-2.193,6.04-4.03,12.211-6.28,19.096c10.984,1.384,18.742-2.667,24.345-9.216c8.113-9.485,11.692-21.46,15.239-33.352
	c1.385-4.645,4.444-8.96,7.467-12.863c1.278-1.651,4.428-1.854,6.727-2.716c0.305,0.422,0.61,0.844,0.915,1.267
	c-0.977,2.164-2.031,4.297-2.916,6.498c-3.979,9.906-8.532,19.64-11.672,29.809c-2.715,8.793-5.842,17.594-4.861,27.326
	c1.177,11.668-3.672,22.016-12.337,29.139c-8.048,6.616-18.514,8.973-29.148,7.085c-4.723-0.839-9.705-2.174-13.674-4.695
	c-3.251-2.063-5.474-6.047-7.487-9.561c-0.543-0.949,0.925-4.079,2.221-4.744c1.144-0.587,4.046,0.331,4.939,1.515
	c3.952,5.236,8.628,9.343,14.686,11.96c6.06,2.618,17.373-0.851,22.316-4.371c11.128-7.924,9.402-19.161,9.632-30.117
	C1513.975,315.071,1513.94,313.137,1513.94,310.482z"/>
<path fill-rule="evenodd" clip-rule="evenodd" d="M765.277,116.774c4.526-1.279,7.683-2.171,10.838-3.062
	c0.329,0.362,0.657,0.726,0.985,1.089c-0.991,1.638-1.6,3.943-3.053,4.779c-3.455,1.988-7.206,3.635-11.029,4.771
	c-5.437,1.615-6.737,0.462-7.345-5.48c-5.306,2.399-10.361,5.799-15.885,6.949c-11.285,2.349-20.644-0.076-24.007-11.22
	c-0.959-3.179-0.57-7.186,0.414-10.446c2.346-7.773,7.317-13.897,13.508-19.178c1.646-1.404,2.821-3.985,3.156-6.187
	c1.257-8.266,6.485-13.454,13.005-17.657c6.097-3.932,22.769-1.721,27.778,3.522c5.471,5.725,3.804,12.938,2.755,19.293
	c-1.084,6.565-4.479,12.736-6.732,19.126C768.19,107.259,766.947,111.527,765.277,116.774z M735.705,120.438
	c8.348,0.945,14.829-4.038,19.072-9.102c5.232-6.245,7.781-14.862,10.839-22.709c0.633-1.624-0.981-5.095-2.611-6.458
	c-6.149-5.146-20.844-2.876-25.896,3.816c-4.192,5.553-8.199,11.133-10.471,17.987C723.691,112.86,727.511,120.437,735.705,120.438z
	 M742.227,76.547c9.029-2.524,18.043-4.753,26.603,1.335c0.31-8.882-0.644-10.501-8.732-12.809
	C753.954,63.321,742.746,66.87,742.227,76.547z"/>
<path fill-rule="evenodd" clip-rule="evenodd" d="M2199.415,117.001c3.445-1.061,5.923-1.893,8.445-2.558
	c0.802-0.211,1.722,0.021,2.588,0.051c-0.193,0.846-0.164,1.842-0.615,2.514c-3.52,5.234-9.466,6.417-14.843,8.15
	c-2.872,0.927-5.091-3.122-4.425-7.46c-7.499,4.79-14.821,9.401-24.33,8.831c-13.699-0.822-18.193-11.978-15.293-22.795
	c2.327-8.678,9.093-13.274,13.841-19.721c0.998-1.355,1.673-3.046,2.131-4.685c3.228-11.562,9.741-19.69,23.144-19.832
	c4.082-0.043,8.193,0.463,12.254,1.005c3.957,0.528,10.025,8.82,9.471,14.062c-0.625,5.908-2.129,11.788-3.85,17.5
	C2205.532,100.036,2202.577,107.839,2199.415,117.001z M2169.984,120.545c8.347-0.271,14.532-4.492,20.107-10.426
	c5.753-6.123,7.215-14.009,9.567-21.49c0.541-1.721-0.764-4.866-2.251-6.231c-6.061-5.567-19.899-3.291-25.689,3.74
	c-4.536,5.51-8.811,10.832-10.533,18.269C2159.259,112.717,2162.69,120.438,2169.984,120.545z M2203.707,79.25
	c0.563-9.312-0.255-10.643-8.17-13.898c-8.046-3.31-18.099,2.684-19.278,11.494C2184.381,72.443,2198.864,73.472,2203.707,79.25z"/>
<path fill-rule="evenodd" clip-rule="evenodd" d="M300.534,117.756c-7.501,4.701-14.891,9.544-24.347,8.694
	c-13.574-1.22-17.48-8.326-15.999-20.277c0.875-7.057,4.77-12.412,10.208-17.323c2.864-2.587,5.765-5.938,7.111-10.833
	c4.687-17.039,15.1-20.342,31-18.097c11.093,1.566,16.338,13.669,12.102,24.406c-2.02,5.117-3.156,10.576-5.023,15.761
	c-1.849,5.131-4.113,10.11-6.809,16.643c4.906-1.136,8.368-1.938,11.83-2.738c-3.38,7.516-9.687,9.221-15.836,10.979
	C301.929,125.784,299.894,122.164,300.534,117.756z M279.868,120.508c8.604,0.027,14.735-4.696,20.274-10.601
	c5.673-6.046,7.185-14.001,9.528-21.483c0.524-1.675-0.93-4.741-2.432-6.137c-5.048-4.691-17.433-4.095-23.075,1.619
	c-5.965,6.041-12.327,11.863-13.335,21.492C269.85,114.736,272.583,120.437,279.868,120.508z M286.009,77.301
	c6.478-4.57,13.457-2.726,20.043-2.646c2.582,0.031,5.135,2.476,7.639,3.787c1.866-8.115-3.369-12.567-10.294-13.927
	C295.882,63.04,287.607,69.024,286.009,77.301z"/>
<path fill-rule="evenodd" clip-rule="evenodd" d="M883.988,115.96c4.214,1.812,7.016-4.8,11.058-0.936
	c-4.296,5.952-6.411,7.146-18.737,10.544c-0.834-2.445-1.682-4.931-2.504-7.343c-7.119,4.204-14.728,9.022-24.585,8.322
	c-11.171-0.794-19.672-11.447-15.101-22.771c3.171-7.854,8.44-13.843,14.369-19.586c1.551-1.503,2.204-4.192,2.722-6.461
	c4.011-17.594,19.03-19.982,31.525-17.78c10.938,1.927,16.051,13.708,11.865,24.367c-3.666,9.337-6.89,18.848-10.24,28.307
	C884,113.638,884.103,114.816,883.988,115.96z M853.653,120.476c8.714,0.488,15.365-4.175,19.763-9.803
	c4.813-6.161,7.293-14.276,10.063-21.807c0.65-1.77-0.985-5.299-2.655-6.844c-7.814-7.228-16.011-2.224-22.216,1.863
	c-7.722,5.087-14.025,12.77-14.601,23.011C843.417,117.399,845.424,121.346,853.653,120.476z M887.691,79.026
	c2.028-10.167-5.535-14.273-12.479-14.445c-7.3-0.181-15.834,5.114-14.782,12.537C867.669,72.584,880.431,73.365,887.691,79.026z"/>
<path fill-rule="evenodd" clip-rule="evenodd" d="M1403.396,117.114c4.443-1.438,7.718-2.499,11.085-3.589
	c1.435,3.725-1.056,5.377-3.451,6.794c-2.087,1.234-4.471,1.956-6.676,3.003c-6.837,3.245-7.31,3.104-11.183-4.076
	c-1.927,1.018-3.91,1.976-5.809,3.081c-7.306,4.254-15.054,5.61-23.161,3.04c-8.188-2.597-12.296-12.924-9.341-21.054
	c2.979-8.192,7.501-14.907,14.582-20.07c1.411-1.028,2.305-3.577,2.393-5.474c0.406-8.761,8.166-17.459,16.875-18.314
	c4.413-0.434,8.927-1.313,13.26-0.815c13.537,1.556,15.813,13.316,13.405,22.541c-2.436,9.327-6.613,18.195-9.941,27.296
	C1404.681,111.535,1404.287,113.724,1403.396,117.114z M1364.968,110.517c-0.699,3.487-0.217,7.662,4.607,9.698
	c4.62,1.949,21.802-3.513,23.911-8.191c3.294-7.304,9.544-13.035,9.928-22.022c0.3-7.017-3.453-12.455-10.58-11.449
	C1377.427,80.728,1364.544,94.709,1364.968,110.517z M1407.729,79.129c0.515-9.037-3.79-14.899-11.359-14.542
	c-7.591,0.358-16.126,3.549-15.91,12.549C1387.587,72.569,1400.554,73.356,1407.729,79.129z"/>
<path fill-rule="evenodd" clip-rule="evenodd" d="M373.031,115.734c3.928,2.806,7.088-4.303,11.168-0.705
	c-3.769,6.523-10.293,7.802-15.955,10.19c-2.866,1.21-5.392-2.971-4.342-7.686c-2.576,1.624-4.753,3.059-6.988,4.394
	c-6.262,3.741-13.024,5.416-20.294,4.469c-10.307-1.343-16.039-12.351-12.86-22.133c2.628-8.085,7.171-14.09,13.663-19.144
	c1.267-0.985,2.084-2.962,2.439-4.625c1.241-5.807,3.547-10.472,7.929-15.06c4.526-4.74,9.643-5.149,14.874-5.812
	c4.311-0.546,9.026-0.18,13.197,1.037c5.576,1.627,7.451,7.315,8.765,12.113c0.957,3.492-0.048,7.876-1.22,11.528
	c-3.062,9.548-6.72,18.903-10.066,28.362C372.981,113.679,373.108,114.867,373.031,115.734z M333.946,109.222
	c0,1.664-0.039,3.329,0.008,4.991c0.108,3.78,2.715,5.592,5.854,6.133c9.058,1.562,16.493-2.717,22.119-8.805
	c5.242-5.672,9.035-12.627,10.21-20.86c1.118-7.834-3.408-13.636-11.082-12.128C345.691,81.574,333.572,94.544,333.946,109.222z
	 M376.563,78.956c1.604-5.53-0.555-9.639-4.716-12.451c-6.169-4.169-12.37-1.848-17.797,1.631c-2.442,1.565-6.296,3.602-4.864,7.715
	C358.639,74.992,367.995,70.962,376.563,78.956z"/>
<path fill-rule="evenodd" clip-rule="evenodd" d="M1767.347,117.207c3.738-1.228,6.114-2.085,8.542-2.762
	c0.791-0.221,1.713,0.029,2.575,0.064c-0.155,0.878-0.16,1.823-0.507,2.617c-0.381,0.871-0.902,1.958-1.666,2.337
	c-3.597,1.782-7.186,3.706-10.989,4.913c-5.088,1.614-7.665-1.054-6.64-6.481c-7.565,4.331-14.719,8.831-24.125,8.734
	c-13.548-0.14-19.34-13.781-15.305-23.354c3.096-7.345,6.971-13.45,13.309-18.197c1.253-0.938,2.095-2.998,2.314-4.649
	c1.488-11.16,9.779-20.398,22.306-20.932c3.605-0.153,7.36-0.216,10.833,0.595c9.483,2.214,14.688,13.42,11.176,22.734
	c-3.647,9.673-6.999,19.457-10.45,29.203C1768.299,113.217,1768.065,114.47,1767.347,117.207z M1728.94,109.51
	c-0.653,7.605,0.789,10.053,6.173,10.763c10.062,1.328,17.879-3.414,23.697-11.324c2.896-3.936,5.874-8.106,7.431-12.646
	c1.432-4.174,2.385-9.519,0.906-13.322c-0.95-2.448-6.85-4.592-10.226-4.205C1741.061,80.593,1728.383,94.885,1728.94,109.51z
	 M1744.231,75.792c4.703-0.451,9.406-0.996,14.123-1.329c4.983-0.353,10.095-0.856,13.065,5.412
	c2.385-9.321-4.065-14.417-9.962-15.395C1753.911,63.231,1745.866,68.847,1744.231,75.792z"/>
<path fill-rule="evenodd" clip-rule="evenodd" d="M673.198,69.252c-3.697,1.409-6.396,2.437-9.093,3.464
	c-0.349-0.479-0.697-0.959-1.045-1.438c0.765-1.248,1.292-2.76,2.334-3.7c4.658-4.208,9.974-7.268,16.31-8.101
	c3.583-0.472,5.371,1.71,4.017,5.281c-3.266,8.614-6.759,17.145-10.262,25.667c-2.646,6.437-5.712,12.716-8.039,19.262
	c-0.793,2.229-0.502,5.343,0.511,7.475c0.416,0.876,4.215,0.772,6.178,0.162c4.616-1.437,9.977-2.429,13.334-5.476
	c4.354-3.95,7.812-9.371,10.306-14.781c5.147-11.164,9.294-22.785,14.081-34.122c1.642-3.887,5.328-3.519,9.391-3.277
	c-7.221,18.854-14.293,37.318-21.881,57.131c2.774-0.753,4.605-1.214,6.412-1.751c1.837-0.546,3.651-1.167,5.475-1.755
	c0.375,0.354,0.749,0.708,1.123,1.062c-1.216,1.606-2.098,3.863-3.713,4.693c-4.15,2.133-8.521,4.009-13.005,5.263
	c-3.406,0.951-6.454,0.049-5.722-4.762c0.139-0.913-0.121-1.888-0.152-2.279c-7.261,2.868-14.321,6.028-21.646,8.358
	c-2.749,0.875-6.896,0.921-9.023-0.595c-3.816-2.719-2.808-7.7-1.562-11.485c2.368-7.19,5.81-14.021,8.361-21.159
	C668.527,85.003,670.64,77.429,673.198,69.252z"/>
<path fill-rule="evenodd" clip-rule="evenodd" d="M2031.857,59.646c-1.275,4.331-2.162,8.225-3.558,11.926
	c-5.533,14.683-11.227,29.306-16.86,43.95c0.31,0.387,0.618,0.772,0.927,1.158c3.303-1.123,6.604-2.246,10.631-3.615
	c-0.514,6.343-5.586,7.028-9.007,9.281c-0.788,0.519-1.827,0.657-2.752,0.966c-7.967,2.66-9.05,1.91-9.306-6.426
	c-0.019-0.593-0.097-1.184-0.216-2.593c-6.142,6.906-13.955,9.129-21.645,11.468c-2.3,0.699-4.957,0.896-7.311,0.497
	c-1.401-0.237-3.483-1.98-3.619-3.226c-0.663-6.073-0.314-12.091,2.458-17.805c1.756-3.618,3.011-7.479,4.509-11.223
	c2.594-6.486,5.234-12.954,7.78-19.46c0.566-1.446,0.821-3.014,1.367-5.088c-3.529,1.036-6.366,1.868-9.203,2.701
	c-0.396-0.373-0.794-0.745-1.19-1.118c1.39-1.722,2.446-4.023,4.235-5.048c4.16-2.385,8.6-4.348,13.087-6.059
	c1.439-0.548,4.056-0.372,4.912,0.576c0.874,0.966,0.776,3.499,0.19,4.986c-5.724,14.545-11.65,29.011-17.479,43.514
	c-0.54,1.343-0.689,2.843-1.229,4.186c-1.398,3.481,1.729,5.453,3.377,4.947c6.323-1.942,13.267-2.546,18.212-8.072
	c4.1-4.583,7.748-8.722,9.443-15.269c2.529-9.767,7.577-18.862,11.265-28.355C2022.608,61.99,2025.268,59.421,2031.857,59.646z"/>
<path fill-rule="evenodd" clip-rule="evenodd" d="M636.547,59.705c-1.055,4.026-1.727,7.984-3.12,11.671
	c-5.553,14.691-11.329,29.299-17.023,43.938c0.321,0.435,0.642,0.87,0.963,1.305c3.264-1.097,6.527-2.193,9.79-3.291
	c0.383,0.332,0.765,0.663,1.147,0.994c-1.422,1.829-2.6,3.95-4.337,5.4c-1.548,1.292-3.647,2.051-5.62,2.684
	c-10.006,3.21-11.823,4.526-11.556-7.964c-6.126,6.675-14.114,8.742-21.781,11.349c-2.259,0.767-4.999,0.956-7.304,0.443
	c-1.458-0.325-3.618-2.486-3.564-3.742c0.229-5.353,0.296-10.979,2.024-15.948c3.882-11.158,8.738-21.978,13.135-32.96
	c0.455-1.138,0.485-2.445,0.798-4.128c-3.583,1.106-6.58,2.032-9.621,2.971c-0.596-6.128,11.54-13.319,22.426-12.578
	c-1.274,4.176-2.319,8.101-3.67,11.917c-3.103,8.771-6.304,17.507-9.564,26.22c-1.876,5.013-4.197,9.87-5.852,14.949
	c-1.259,3.867,1.238,5.846,5.247,4.964c8.888-1.956,15.905-6.93,22.094-13.288c0.766-0.787,1.233-1.929,1.648-2.981
	c2.484-6.304,4.976-12.607,7.343-18.956c2.029-5.446,3.867-10.964,5.844-16.431C627.577,61.861,630.495,59.299,636.547,59.705z"/>
<path fill-rule="evenodd" clip-rule="evenodd" d="M1657.773,59.955c-7.052,18.768-13.988,37.226-21.349,56.814
	c4.524-1.179,8.21-2.138,11.896-3.098c-4.624,8.099-11.4,11.043-20.214,10.726c0-3.274,0-6.21,0-8.952
	c-5.291,2.664-10.294,5.37-15.461,7.713c-3.06,1.387-6.308,2.662-9.598,3.177c-7.763,1.215-11.717-4.271-8.809-12.449
	c4.727-13.294,9.828-26.454,14.723-39.689c0.524-1.419,0.722-2.96,1.148-4.77c-3.557,1.156-6.419,2.087-9.281,3.018
	c1.994-7.692,8.2-9.363,13.656-11.962c1.011-0.48,2.179-0.931,3.257-0.895c1.562,0.053,3.717,0.062,4.496,1.013
	c0.808,0.982,0.799,3.28,0.242,4.63c-2.579,6.258-5.851,12.247-8.166,18.591c-3.519,9.642-6.602,19.452-9.562,29.284
	c-1.17,3.886,0.775,5.378,4.751,4.542c11.501-2.417,20.373-8.487,24.953-19.408c4.301-10.254,7.849-20.836,11.443-31.37
	C1647.559,62.007,1650.833,59.527,1657.773,59.955z"/>
<path fill-rule="evenodd" clip-rule="evenodd" d="M206.633,72.571c-1.026-6.077,11.32-13.575,21.04-12.838
	c0.133,1.868,0.271,3.799,0.437,6.139c1.034-0.376,2.198-0.482,2.909-1.105c7.039-6.169,15.301-6.478,23.546-4.037
	c2.574,0.762,5.506,4.276,6.112,7.011c2.162,9.751,1.747,19.525-3.196,28.609c-2.849,5.236-4.751,11.606-8.959,15.358
	c-9.466,8.441-19.788,16.369-33.878,14.693c-9.031-1.073-13.405-13.77-11.23-20.788c3.192-10.299,7.088-20.379,10.614-30.577
	c0.541-1.564,0.701-3.26,1.037-4.896c-1.59,0.395-3.192,0.75-4.768,1.196C209.074,71.683,207.883,72.145,206.633,72.571z
	 M222.596,121.076c2.215-0.788,4.528-1.376,6.626-2.402c5.545-2.714,9.469-6.868,13.358-11.894
	c7.573-9.785,9.411-20.443,8.203-31.951c-0.834-7.94-8.554-11.253-15.732-7.434c-7.188,3.826-12.066,10.195-15.735,16.918
	c-3.491,6.398-5.221,13.84-7.179,20.973C209.975,113.164,215.137,120.436,222.596,121.076z"/>
<path fill-rule="evenodd" clip-rule="evenodd" d="M778.767,266.742c-3.807,0.678-6.441,1.146-9.063,1.612
	c-0.652-5.356,10.938-11.948,20.861-11.743c1.57,7.229-2.213,13.15-4.678,19.435c-3.47,8.845-6.681,17.791-9.943,26.716
	c-0.891,2.437-1.591,4.943-2.339,7.43c-0.859,2.855,0.297,4.791,3.189,4.136c4.698-1.063,9.718-2.032,13.749-4.457
	c9.581-5.764,12.879-16.027,16.545-25.833c2.673-7.147,5.195-14.353,7.92-21.479c1.542-4.035,5.928-6.186,10.744-5.555
	c-4.831,19.152-15.115,36.537-19.396,56.57c4.387-1.269,7.638-2.209,10.888-3.149c0.298,0.74,0.597,1.479,0.896,2.22
	c-4.326,2.605-8.42,5.768-13.032,7.684c-6.807,2.829-8.104,1.667-8.167-5.529c-0.007-0.828,0-1.657,0-2.679
	c-5.602,2.888-10.76,6.452-16.475,8.214c-4.721,1.456-10.102,0.949-15.184,0.881c-0.796-0.011-2.397-2.473-2.202-3.539
	c1.169-6.364,2.473-12.734,4.294-18.937c1.448-4.938,3.824-9.595,5.565-14.456C774.936,278.705,776.688,273.04,778.767,266.742z"/>
<path fill-rule="evenodd" clip-rule="evenodd" d="M1075.765,116.425c3.226-0.843,6.45-1.687,9.867-2.58
	c0.849,3.495,0.095,5.782-4.018,6.818c-3.585,0.904-6.876,2.923-10.426,4.034c-3.366,1.054-5.438-0.441-5.194-4.114
	c0.126-1.92,0.617-3.863,1.24-5.695c3.529-10.365,7.104-20.716,10.764-31.035c1.188-3.348,2.87-6.525,3.956-9.899
	c0.553-1.717,1.063-4.4,0.184-5.375c-1.015-1.124-3.734-1.479-5.451-1.068c-8.229,1.966-15.81,5.649-20.691,12.68
	c-3.142,4.525-4.858,10.08-6.97,15.272c-2.894,7.118-5.624,14.306-8.294,21.512c-1.862,5.026-3.678,6.638-10.993,8.149
	c1.512-4.937,2.713-9.241,4.147-13.468c2.968-8.741,5.989-17.466,9.126-26.147c1.835-5.081,3.934-10.067,5.915-15.096
	c-0.431-0.192-0.861-0.384-1.292-0.575c-1.358,0.529-2.679,1.23-4.085,1.538c-1.271,0.277-2.636,0.125-3.958,0.162
	c0.459-1.387,0.496-3.473,1.445-4.046c6.27-3.783,12.099-8.929,20.978-7.827c-0.234,2.92-0.462,5.758-0.615,7.68
	c7.089-2.497,14.593-5.865,22.454-7.704c7.72-1.807,11.104,2.629,8.863,10.932c-1.086,4.02-3.486,7.666-4.914,11.617
	c-1.033,2.856-1.048,6.101-2.206,8.886c-3.368,8.099-7.083,16.053-10.661,24.062
	C1075.212,115.567,1075.489,115.997,1075.765,116.425z"/>
<path fill-rule="evenodd" clip-rule="evenodd" d="M1118.643,68.617c7.436-3.049,14.469-5.942,21.516-8.802
	c0.596-0.241,1.281-0.297,1.933-0.362c8.384-0.834,10.771,1.66,8.841,9.973c-1.314,5.66-3.053,11.259-5.074,16.71
	c-3.624,9.773-7.605,19.415-12.057,30.677c4.471-1.301,8.021-2.333,12.024-3.498c-0.129,4.83-3.682,6.326-6.527,8.114
	c-2.153,1.354-4.66,2.405-7.146,2.884c-1.986,0.382-5.07,0.448-6.045-0.711c-1.116-1.327-1.128-4.415-0.432-6.3
	c4.479-12.114,9.65-23.985,13.791-36.208c1.504-4.438,0.805-9.622,1.11-14.465c-0.678-0.41-1.355-0.82-2.033-1.229
	c-6.69,3.352-14.758,5.36-19.692,10.423c-5.196,5.333-7.517,13.528-10.879,20.574c-3.956,8.29-7.511,16.774-11.635,24.977
	c-0.954,1.896-3.513,2.986-6.189,5.136c-0.493-2.518-1.403-4.203-0.964-5.39c3.538-9.554,7.317-19.019,11.049-28.5
	c2.529-6.423,5.15-12.811,7.599-19.265c0.381-1.003,0.054-2.273,0.054-3.623c-3.477-0.266-6.437,4.083-10.643,0.89
	c6.133-5.754,12.211-10.094,20.1-11.119c3.312-0.431,4.107,1.626,3.35,4.381C1120.242,65.52,1119.344,67.036,1118.643,68.617z"/>
<path fill-rule="evenodd" clip-rule="evenodd" d="M535.997,320.999c-9.937,2.905-15.723-2.601-20.279-10.326
	c-4.268-7.234-3.842-14.867-0.663-22.141c2.766-6.329,6.392-12.313,9.967-18.252c6.744-11.208,25.279-17.159,37.205-12.074
	c7.786,3.319,10.443,10.194,11.674,17.793c1.353,8.356-2.044,15.869-5.427,23.043c-3.106,6.587-7.793,12.119-13.946,16.594
	C548.816,319.789,543.319,323.013,535.997,320.999z M564.55,280.844c-0.879-3.586-1.157-7.323-2.716-10.414
	c-1.909-3.784-3.518-8.346-8.9-9.006c-7.537-0.923-13.747,2.437-18.479,7.372c-7.638,7.966-10.282,18.332-10.409,29.183
	c-0.042,3.666,0.614,7.536,1.862,10.982c3.219,8.889,15.364,9.301,22.913,4.169C560.315,305.318,561.442,292.797,564.55,280.844z"/>
<path fill-rule="evenodd" clip-rule="evenodd" d="M2086.734,83.152c0.472,13.578-6.149,23.395-15.188,32.255
	c-7.122,6.981-15.225,12.246-25.396,10.749c-5.144-0.757-11.902-3.174-14.335-7.08c-5.035-8.082-6.309-17.409-3.072-27.437
	c4.245-13.156,12.294-22.423,23.784-29.444c9.496-5.805,25.862-2.824,31.152,6.826C2085.901,73.072,2085.787,78.403,2086.734,83.152
	z M2077.221,82.837c-0.58-2.48-1.212-6.168-2.325-9.703c-1.591-5.052-5.218-7.379-10.581-7.764
	c-10.037-0.719-19.029,6.765-22.102,14.718c-2.308,5.975-3.889,12.301-5.113,18.603c-1.099,5.653,2.111,17.36,7.442,20.028
	c6.988,3.497,17.866,0.152,23.455-7.324C2074.085,103.252,2076.06,93.891,2077.221,82.837z"/>
<path fill-rule="evenodd" clip-rule="evenodd" d="M574.939,84.204c1.296,9.856-3.997,19.645-10.517,27.296
	c-7.101,8.331-16.379,15.936-29.121,14.939c-7.189-0.562-12.077-4.285-16.166-10.197c-6.842-9.895-4.225-19.316-0.196-29.146
	c4.016-9.8,10.641-17.285,19.133-23.297c8.069-5.713,17.267-5.907,25.744-2.574c7.055,2.774,10.596,9.647,11.11,17.52
	C575.013,80.069,574.939,81.405,574.939,84.204z M567.288,84.679c-0.449-0.164-0.899-0.328-1.35-0.492
	c0-0.998,0.035-1.998-0.006-2.994c-0.296-7.271-5.955-14.377-9.483-15.548c-5.11-1.694-18.921,1.96-21.148,6.481
	c-3.092,6.276-7.246,11.976-8.68,19.266c-1.33,6.763-2.266,13.056,0.31,19.6c3.533,8.979,12.561,12.436,20.671,7.188
	c4.962-3.211,10.209-6.07,12.046-12.743C561.598,98.354,564.693,91.585,567.288,84.679z"/>
<path fill-rule="evenodd" clip-rule="evenodd" d="M1200.337,321.602c-10.673,3.1-15.407-4.228-20.077-11.514
	c-0.757-1.181-1.107-2.733-1.283-4.159c-1.518-12.304,2.014-23.237,8.904-33.362c8.566-12.587,22.435-18.169,36.416-15.286
	c7.309,1.507,14.295,11.964,14.614,17.703c0.854,15.358-5.853,27.665-16.312,38.088c-3.314,3.304-7.604,5.986-11.93,7.797
	C1207.653,322.132,1203.811,321.427,1200.337,321.602z M1227.94,281.126c0-1.831-0.145-3.676,0.025-5.49
	c0.675-7.234-6.492-15.113-14.499-14.313c-6.458,0.645-11.024,4.56-15.338,8.331c-2.8,2.448-4.103,6.866-5.491,10.618
	c-2.746,7.418-5.76,14.588-3.893,23.144c2.675,12.248,15.162,17.679,24.92,9.676C1223.618,304.926,1228.6,294.201,1227.94,281.126z"
	/>
<path fill-rule="evenodd" clip-rule="evenodd" d="M1199.783,111.164c-7.097,10.891-15.882,15.029-27.046,15.367
	c-10.54,0.32-20.004-7.901-21.765-18.481c-1.443-8.67,1.066-17.223,4.816-24.188c3.78-7.024,9.495-13.488,16.473-18.7
	c6.72-5.02,13.703-6.293,21.252-5.555c8.878,0.87,13.54,9.18,10.808,17.983c-2.764,8.908-8.537,15.246-15.761,21.126
	c-6.826,5.556-14.276,7.021-22.384,7.802c-1.1,0.106-2.93,1.106-2.995,1.821c-0.18,1.979-0.247,4.465,0.781,5.973
	c5.257,7.703,15.381,7.768,21.759,3.822c3.321-2.055,6.393-4.512,9.712-6.57C1196.286,111.034,1197.648,111.326,1199.783,111.164z
	 M1162.125,104.61c7.887-2.877,15.772-4.351,22.017-8.372c8.443-5.438,12.593-14.098,10.815-24.724
	c-0.479-2.862-1.271-5.836-4.57-5.728c-4.111,0.135-8.882,0.132-12.162,2.148C1165.25,75.909,1161.735,88.647,1162.125,104.61z"/>
<path fill-rule="evenodd" clip-rule="evenodd" d="M1259.145,17.062c-2.716,1.17-5.433,2.339-8.171,3.519
	c-1.817-5.59,12.312-14.8,20.519-13.689c2.412,6.982-2.436,12.197-4.412,18.107c-2.354,7.044-4.66,14.107-7.184,21.091
	c-3.615,10.008-7.556,19.899-11.084,29.937c-3.165,9.005-5.881,18.167-8.96,27.204c-1.22,3.58-2.885,7.009-4.347,10.506
	c0.361,0.307,0.724,0.613,1.085,0.919c1.546-0.654,3.049-1.466,4.653-1.908c1.042-0.287,2.233-0.037,3.357-0.028
	c-0.437,0.946-0.612,2.27-1.351,2.78c-5.334,3.692-10.781,7.221-16.193,10.802c-0.673-0.339-1.346-0.678-2.019-1.017
	c0-2.654-0.587-5.479,0.125-7.927c1.387-4.768,3.591-9.291,5.293-13.976c3.541-9.744,6.979-19.527,10.451-29.296
	c1.468-4.128,2.944-8.254,4.372-12.396c3.586-10.401,7.095-20.83,10.744-31.209c1.423-4.047,3.142-7.989,4.725-11.98
	C1260.215,18.021,1259.68,17.542,1259.145,17.062z"/>
<path fill-rule="evenodd" clip-rule="evenodd" d="M1235.41,16.484c-3.175,1.434-5.061,2.442-7.061,3.115
	c-0.848,0.286-1.933-0.134-2.91-0.232c0.199-0.838,0.117-2.1,0.642-2.447c5.38-3.569,10.592-7.564,16.399-10.26
	c4.196-1.948,6.599,1.059,4.962,5.716c-1.773,5.048-4.094,9.903-5.895,14.942c-3.43,9.596-6.624,19.274-9.981,28.896
	c-2.805,8.04-5.653,16.065-8.571,24.065c-3.779,10.359-7.655,20.683-11.457,31.033c-0.31,0.842-0.368,1.775-0.724,3.588
	c3.175-1.135,5.61-2.005,8.047-2.875c0.366,0.188,0.733,0.376,1.1,0.563c-1.399,2.154-2.332,5.025-4.3,6.308
	c-3.618,2.358-7.818,3.843-11.827,5.574c-3.322,1.435-4.465-0.354-3.736-3.242c1.148-4.56,2.573-9.07,4.203-13.482
	c3.764-10.187,7.993-20.207,11.531-30.468c4.373-12.681,8.167-25.56,12.356-38.305c1.771-5.389,3.973-10.634,5.857-15.986
	C1234.612,21.377,1234.769,19.623,1235.41,16.484z"/>
<path fill-rule="evenodd" clip-rule="evenodd" d="M1549.141,312.202c3.111-1.451,4.528-2.257,6.045-2.766
	c0.91-0.305,1.976-0.146,2.972-0.196c-0.133,1.213,0.087,3.287-0.451,3.507c-6.451,2.635-10.851,9.973-20.571,8.271
	c6.447-18.226,12.799-36.18,19.346-54.686c-3.08,0.835-6.07,1.645-9.021,2.444c-0.432-3.361,2.482-7.219,6.446-8.366
	c1.362-0.395,3.335-0.757,3.832-1.739c4.134-8.178,8.748-16.242,9.21-26.981c-3.299,1.439-5.817,2.539-8.697,3.797
	c0-2.008,0-3.736,0-5.812c4.959-2.399,10.027-5.042,15.271-7.273c1.597-0.68,3.674-0.229,5.531-0.297
	c-0.013,1.988,0.515,4.174-0.128,5.932c-3.006,8.22-6.393,16.299-9.496,24.483c-0.625,1.648-0.616,3.537-1.066,6.364
	c4.142-0.898,8.031-1.741,12.58-2.728c-0.387,1.15-0.438,3.32-1.438,3.927c-3.953,2.397-8.205,4.304-12.343,6.397
	c-1.008,0.51-2.618,0.812-2.911,1.597c-2.248,6.032-4.164,12.188-6.335,18.25c-1.682,4.697-3.7,9.274-5.344,13.984
	C1551.363,303.772,1550.52,307.36,1549.141,312.202z"/>
<path fill-rule="evenodd" clip-rule="evenodd" d="M1281.333,310.691c4.326,1.747,6.525-6.091,10.42-0.739
	c-6.829,7.309-14.793,11.639-21.08,11.021c2.066-19.093,13.241-35.336,16.814-54.424c-2.864,0.812-5.528,1.566-8.491,2.406
	c-0.139-4.634,2.952-7.361,6.659-8.375c6.852-1.872,8.341-6.852,9.361-12.764c0.629-3.648,2.069-7.152,3.023-10.754
	c0.418-1.575,0.53-3.232,0.781-4.853c-0.409-0.212-0.817-0.424-1.227-0.636c-1.09,0.9-2.053,2.195-3.303,2.601
	c-1.476,0.479-3.2,0.188-4.816,0.229c0.577-1.54,0.702-3.762,1.812-4.499c4.457-2.959,9.142-5.615,13.923-8.022
	c1.244-0.626,3.637-0.525,4.605,0.297c0.941,0.801,1.341,3.144,0.924,4.481c-2.02,6.491-4.454,12.852-6.619,19.299
	c-1.342,3.999-2.465,8.07-4.077,13.404c3.872-1.306,7.028-2.407,10.214-3.415c0.695-0.22,1.495-0.107,2.246-0.147
	c-0.051,0.896,0.26,2.136-0.213,2.63c-3.614,3.788-7.065,7.75-12.985,8.166c-1.522,0.107-3.652,1.844-4.231,3.328
	c-2.51,6.432-4.568,13.04-6.754,19.597C1285.954,296.624,1283.627,303.737,1281.333,310.691z"/>
<path fill-rule="evenodd" clip-rule="evenodd" d="M1248.634,310.861c4.021,1.276,6.351-5.254,10.613-0.588
	c-6.912,4.331-11.878,11.294-21.787,11.212c3.871-19.433,12.39-36.618,17.942-55.28c-2.951,0.893-5.756,1.741-9.19,2.779
	c1.35-4.081,2.529-7.127,6.882-8.77c2.779-1.048,5.736-3.784,6.906-6.499c2.545-5.91,4.057-12.273,5.836-18.497
	c0.27-0.942-0.292-2.123-0.632-4.173c-1.73,1.44-2.7,2.761-3.963,3.163c-1.467,0.469-3.191,0.132-4.804,0.146
	c0.609-1.534,0.775-3.75,1.905-4.483c4.612-2.996,9.427-5.73,14.377-8.126c1.382-0.669,4.255-0.493,5.062,0.462
	c0.959,1.136,1.008,3.732,0.447,5.347c-3.553,10.217-7.383,20.338-11.555,31.668c4.896-1.177,8.752-2.104,12.979-3.121
	c-0.067,0.528,0.173,1.983-0.373,2.396c-3.677,2.769-7.228,6.604-11.396,7.55c-3.692,0.838-4.854,2.307-5.891,5.217
	c-3.477,9.752-7.128,19.442-10.546,29.215C1250.25,303.899,1249.533,307.49,1248.634,310.861z"/>
<path fill-rule="evenodd" clip-rule="evenodd" d="M664.974,16.534c-3.261,1.358-5.642,2.35-8.994,3.746
	c0-1.018-0.495-2.589,0.079-3.313c4.122-5.195,10.239-7.62,15.953-10.314c3.795-1.789,6.029,1.206,4.403,5.763
	c-2.552,7.155-5.551,14.151-8.096,21.309c-1.402,3.943-1.998,8.175-3.419,12.109c-5.551,15.369-11.354,30.646-16.921,46.01
	c-2.621,7.234-4.916,14.588-7.831,23.298c3.183-1.259,4.994-2.081,6.879-2.668c0.749-0.233,1.66,0.057,2.497,0.108
	c-0.136,0.721-0.026,1.661-0.445,2.128c-4.53,5.056-10.581,7.849-16.656,10.334c-2.219,0.907-4.166-1.113-3.329-3.75
	c0.97-3.054,2.751-5.847,3.751-8.895c4.139-12.612,7.941-25.337,12.214-37.902c2.611-7.678,5.946-15.105,8.787-22.708
	c3.681-9.853,7.236-19.752,10.729-29.673C665.034,20.814,664.804,19.27,664.974,16.534z"/>
<path fill-rule="evenodd" clip-rule="evenodd" d="M1601.223,259.001c4.271-0.951,7.851-1.749,12.563-2.799
	c-1.229,1.946-1.891,4.149-3.36,5.086c-3.229,2.059-6.917,3.381-10.309,5.204c-1.232,0.663-2.67,1.697-3.143,2.903
	c-4.956,12.649-9.758,25.36-14.527,38.082c-0.424,1.13-0.322,2.456-0.59,4.779c3.458-1.68,6.023-2.926,8.576-4.165
	c2.156,5.065-9.916,13.727-20.139,13.007c5.401-18.504,12.792-36.078,18.999-54.606c-3.444,0.669-6.067,1.179-8.698,1.689
	c1.344-6.039,1.409-5.853,7.241-7.905c1.796-0.632,3.859-2.293,4.539-3.987c2.774-6.924,5.114-14.024,7.461-21.111
	c0.3-0.905-0.303-2.11-0.616-3.927c-1.838,1.154-3.043,2.208-4.444,2.704c-1.319,0.468-2.848,0.349-4.283,0.488
	c0.534-1.652,0.563-4.084,1.693-4.817c4.432-2.875,9.099-5.467,13.923-7.614c1.664-0.741,4.404-0.468,5.946,0.485
	c0.812,0.501,0.592,3.65-0.011,5.293c-3.02,8.229-6.378,16.335-9.477,24.537C1601.889,254.126,1601.78,256.14,1601.223,259.001z"/>
<path fill-rule="evenodd" clip-rule="evenodd" d="M1681.702,35.429c-2.994,0.966-5.621,1.813-9.409,3.035
	c4.348-9.734,12.528-10.254,19.362-12.837c0.617-0.233,2.7,1.805,3.108,3.101c0.368,1.167-0.552,2.792-1.038,4.168
	c-3.338,9.453-6.712,18.894-10.298,28.967c4.553-0.822,8.89-1.605,14.294-2.581c-4.011,5.671-8.037,9.341-13.881,10.061
	c-3.22,0.396-4.146,1.773-5.06,4.806c-2.382,7.905-5.633,15.544-8.342,23.356c-1.84,5.308-3.35,10.73-5.384,17.321
	c3.152-1.09,5-1.821,6.904-2.344c0.781-0.214,1.687,0.023,2.535,0.055c-0.229,0.843-0.186,2.129-0.728,2.46
	c-5.381,3.294-10.749,6.645-16.355,9.521c-2.919,1.498-4.09-0.769-3.32-3.207c2.932-9.287,6.138-18.489,9.271-27.713
	c1.186-3.49,2.456-6.952,3.679-10.431c1.546-4.401,3.083-8.807,4.992-14.265c-3.295,1.615-5.92,2.902-9.342,4.579
	c0-1.338-0.442-2.812,0.076-3.339c2.386-2.426,5.069-4.556,7.589-6.854c2.036-1.858,5.05-3.467,5.786-5.775
	C1678.416,50.395,1682.995,43.727,1681.702,35.429z"/>
<path fill-rule="evenodd" clip-rule="evenodd" d="M2130.33,114.454c2.21-0.674,4.178-1.371,6.197-1.847
	c0.948-0.224,1.997-0.02,3-0.009c-0.495,1.071-0.694,2.604-1.531,3.139c-5.577,3.559-11.292,6.904-16.961,10.318
	c-0.568-0.247-1.138-0.494-1.706-0.741c0-2.915-0.765-6.092,0.129-8.701c4.608-13.455,9.617-26.774,14.553-40.116
	c0.82-2.218,1.969-4.314,2.238-7.44c-2.767,1.287-5.533,2.573-8.937,4.156c-0.246-5.221,3.311-8.425,6.543-9.386
	c5.188-1.543,6.932-4.173,7.621-9.16c0.444-3.215,2.884-6.103,3.941-9.299c0.999-3.019,1.359-6.249,2.24-10.557
	c-3.966,1.37-6.608,2.284-10.063,3.478c3.346-9.762,11.523-9.899,17.795-12.656c3.506-1.542,5.262,0.995,3.831,5.097
	c-3.521,10.098-7.164,20.153-11.079,31.128c4.84-0.857,9.156-1.622,14.43-2.557c-3.735,5.911-8.348,8.715-14.076,10.23
	c-1.656,0.438-3.867,1.683-4.38,3.086c-4.889,13.361-9.47,26.836-14.114,40.286C2129.911,113.164,2130.122,113.528,2130.33,114.454z
	"/>
<path fill-rule="evenodd" clip-rule="evenodd" d="M1716.223,61.944c4.345-0.827,8.263-1.573,12.186-2.319
	c-0.127,5.263-5.963,9.193-14.679,10.142c-5.446,14.677-10.853,29.245-16.699,45.003c3.95-0.994,6.639-1.671,9.327-2.347
	c0.3,0.349,0.601,0.697,0.9,1.046c-2.101,2.143-3.916,4.729-6.375,6.315c-3.087,1.99-6.679,3.214-10.096,4.668
	c-3.426,1.46-4.481-0.484-3.687-3.282c2.775-9.77,5.736-19.434,10.044-28.743c3.291-7.112,4.89-15.007,7.475-23.301
	c-2.965,1.341-5.715,2.585-9.196,4.159c0.094-1.292-0.17-2.457,0.292-3.103c1.217-1.7,2.459-3.742,4.208-4.636
	c6.214-3.176,10.433-7.783,12.009-14.637c1.148-4.992,2.207-10.005,3.574-16.235c-3.706,1.74-6.214,2.917-8.722,4.095
	c-0.371-0.277-0.742-0.555-1.113-0.832c0.599-1.466,0.85-3.256,1.858-4.339c4.175-4.479,10.349-5.33,15.539-7.99
	c1.009-0.518,3.246-0.025,4.035,0.822c0.724,0.777,0.672,2.806,0.248,4.038C1723.829,40.733,1720.139,50.94,1716.223,61.944z"/>
<path fill-rule="evenodd" clip-rule="evenodd" d="M2096.293,115.194c3.45-1.252,5.376-2.077,7.378-2.62
	c0.896-0.244,1.946,0.076,2.926,0.141c-0.432,0.946-0.601,2.297-1.337,2.776c-5.647,3.683-11.405,7.196-17.129,10.763
	c-0.687-0.335-1.373-0.67-2.061-1.005c0.202-3.026-0.229-6.269,0.719-9.04c3.316-9.717,7.121-19.266,10.712-28.89
	c2.132-5.714,4.21-11.447,6.734-18.318c-3.59,1.539-6.43,2.757-10.544,4.521c0.93-2.451,1.117-4.254,2.108-5.271
	c1.806-1.851,3.87-3.959,6.216-4.666c5.409-1.632,6.558-5.276,7.121-10.281c0.361-3.218,2.646-6.189,3.867-9.35
	c0.967-2.504,1.627-5.127,2.887-9.193c-4.561,1.283-7.579,2.133-11.209,3.153c3.505-9.236,11.353-9.614,17.559-12.289
	c3.569-1.538,5.454,0.985,4.062,4.992c-3.247,9.344-6.644,18.636-9.944,27.96c-0.262,0.74-0.254,1.575-0.508,3.276
	c4.523-0.871,8.582-1.653,13.299-2.562c-2.575,5.828-7.268,9.26-12.031,9.681c-6.153,0.543-6.562,4.854-7.992,8.436
	c-2.746,6.877-4.824,14.021-7.186,21.051C2100.219,103.579,2098.487,108.696,2096.293,115.194z"/>
<path fill-rule="evenodd" clip-rule="evenodd" d="M854.499,214.682c-4.371-3.446-6.975,4.188-11.023-0.266
	c6.817-5.312,12.905-10.81,23.211-10.986c-1.01,4.064-1.688,7.731-2.847,11.24c-1.676,5.078-3.715,10.036-5.569,15.057
	c-4.259,11.52-8.518,23.039-12.742,34.571c-4.432,12.099-8.904,24.184-13.179,36.338c-1.161,3.303-1.673,6.834-2.604,10.771
	c3.48-1.156,6.389-2.122,9.296-3.089c0.266,0.644,0.53,1.287,0.796,1.93c-5.99,4.923-11.516,10.629-20.328,11.422
	c-0.241-0.938-0.661-1.618-0.512-2.135c2.004-6.954,3.947-13.931,6.193-20.809c2.06-6.302,4.478-12.486,6.719-18.73
	c1.466-4.085,2.811-8.216,4.364-12.267c2.425-6.325,5.084-12.561,7.452-18.906c2.479-6.643,4.872-13.325,7.031-20.078
	C852.272,224.008,853.333,219.125,854.499,214.682z"/>
<path fill-rule="evenodd" clip-rule="evenodd" d="M1341.441,68.741c-3.846,1.74-6.598,2.985-10.555,4.776
	c0.763-2.329,0.873-4.08,1.787-5.14c1.476-1.71,3.268-3.459,5.296-4.325c8.148-3.478,9.424-10.874,10.987-18.212
	c0.699-3.286,1.529-6.545,2.288-9.767c-3.98-2.01-6.613,5.442-11.161-0.435c4.425-2.52,8.557-4.926,12.745-7.23
	c1.549-0.853,3.172-1.697,4.867-2.121c1.647-0.412,3.82-0.91,5.02-0.169c0.815,0.504,0.855,3.247,0.374,4.702
	c-3.351,10.141-6.929,20.205-10.693,31.043c4.153-0.768,8.042-1.486,11.918-2.203c0.167,5.1-6.014,9.305-14.673,10.042
	c-5.39,14.695-10.771,29.367-16.691,45.509c4.05-1.448,6.496-2.323,9.67-3.458c0.016,4.509-3.618,6.286-6.004,8.172
	c-2.698,2.134-6.329,3.123-9.609,4.477c-2.892,1.192-4.87,0.11-3.906-2.994c2.92-9.405,6.262-18.679,9.415-28.013
	c1.839-5.444,3.577-10.923,5.469-16.349C1338.819,74.654,1339.923,72.356,1341.441,68.741z"/>
<path fill-rule="evenodd" clip-rule="evenodd" d="M1282.737,95.923c-0.386,1.768-0.464,3.677-1.208,5.277
	c-3.46,7.441-3.168,10.895,2.448,16.617c1.352,1.376,3.639,2.229,5.61,2.51c2.939,0.416,5.982,0.12,8.98,0.107
	c4.796-0.02,10.605-3.944,12.352-8.327c3.035-7.616,1.535-13.842-4.395-19.661c-3.707-3.639-7.61-7.227-10.581-11.435
	c-5.572-7.896,0.227-20.544,9.754-21.463c5.297-0.51,10.691-0.153,16.031,0.058c0.759,0.03,2.009,1.395,2.1,2.241
	c0.493,4.559,0.938,9.155,0.822,13.724c-0.03,1.179-2.143,2.304-3.536,3.688c-1.265-3.899-2.067-6.684-3.068-9.394
	c-1.952-5.289-6.09-7.567-11.384-6.405c-2.983,0.654-5.271,6.947-3.056,9.907c2.543,3.401,5.768,6.322,8.874,9.266
	c3.965,3.757,10.102,16.289,8.113,22.724c-4.013,12.984-13.447,21.026-26.862,20.906c-8.614-0.078-16.216-3.518-20.725-11.65
	c-3.263-5.886-0.502-14.457,5.55-17.488c0.842-0.422,1.515-1.182,2.267-1.785C1281.461,95.535,1282.099,95.729,1282.737,95.923z"/>
<path fill-rule="evenodd" clip-rule="evenodd" d="M824.117,70.133c-3.514,0.828-6.549,1.543-9.585,2.259
	c-0.159-0.546-0.318-1.092-0.479-1.638c5.734-4.703,10.855-10.323,18.961-11.297c3.953-0.476,5.272,0.729,3.906,4.402
	c-4.41,11.856-9.03,23.635-13.39,35.509c-3.341,9.1-6.072,18.437-9.706,27.412c-3.019,7.453-6.715,14.679-12.51,20.535
	c-2.078,2.101-4.121,4.238-6.14,6.398c-4.098,4.383-9.265,6.444-15.129,6.609c-1.304,0.037-2.644-1.214-3.966-1.871
	c1.146-0.671,2.245-1.453,3.452-1.986c1.729-0.765,3.836-0.964,5.259-2.074c5.887-4.591,12.928-8.156,14.355-16.784
	c0.374-2.256,2.549-4.202,3.854-6.316c6.904-11.17,9.001-24.188,13.811-36.174c2.928-7.295,4.828-15.005,7.129-22.548
	C824.208,71.693,824.083,70.696,824.117,70.133z"/>
<path fill-rule="evenodd" clip-rule="evenodd" d="M1751.481,321.031c6.572-18.162,13.005-35.938,19.711-54.468
	c-4.311,0.773-7.007,1.257-9.703,1.74c4.459-7.206,10.848-10.306,18.024-11.761c3.026-0.613,5.453,0.162,3.716,4.374
	c-1.88,4.56-3.4,9.267-5.037,13.796c3.473-3.198,6.854-6.606,10.548-9.631c3.637-2.977,7.393-5.941,11.517-8.114
	c1.406-0.74,4.089,0.941,6.188,1.516c-1.059,2.073-1.612,4.882-3.299,6.043c-2.404,1.654-5.938,1.619-8.447,3.179
	c-3.383,2.104-6.148,5.172-9.357,7.589c-8.062,6.074-13.141,14.289-17.027,23.36c-2.595,6.054-4.984,12.195-7.521,18.273
	C1759.243,320.634,1756.418,321.998,1751.481,321.031z"/>
<path fill-rule="evenodd" clip-rule="evenodd" d="M1265.35,69.619c-3.167,1.126-5.844,2.078-9.696,3.447
	c0.623-2.003,0.617-3.474,1.323-4.014c5.124-3.923,9.669-8.884,16.667-9.62c4.63-0.487,5.818,0.798,4.226,5.045
	c-4.308,11.493-8.808,22.916-12.968,34.461c-1.764,4.894-2.868,10.024-4.509,15.894c2.868-1.051,4.637-1.79,6.466-2.325
	c0.788-0.231,1.699-0.04,2.555-0.041c-0.294,0.956-0.289,2.391-0.932,2.794c-5.071,3.183-10.217,6.257-15.439,9.187
	c-3.691,2.072-4.531-0.249-3.938-3.219c0.653-3.272,1.729-6.488,2.9-9.624c3.832-10.254,7.963-20.399,11.6-30.721
	C1264.757,77.611,1264.723,73.92,1265.35,69.619z"/>
<path fill-rule="evenodd" clip-rule="evenodd" d="M1734.94,177.924c0.001-7.742,5.759-13.625,13.199-13.484
	c7.351,0.14,14.054,7.023,13.786,14.159c-0.246,6.54-7.05,12.932-13.936,12.801C1741.096,191.269,1735.111,186.658,1734.94,177.924z
	 M1748.692,171.439c-4.096-0.066-7.03,2.627-6.68,6.643c0.302,3.46,1.581,6.453,5.963,6.366c3.448-0.068,7.968-3.557,7.857-6.158
	C1755.693,174.991,1752.046,171.493,1748.692,171.439z"/>
<path fill-rule="evenodd" clip-rule="evenodd" d="M1273.087,50.615c6.321-2.964,7.784-7.004,4.218-13.01
	c-0.515-0.867,2.27-4.163,4.043-5.764c1.307-1.18,4.099-2.457,5.074-1.846c1.393,0.871,2.703,3.659,2.334,5.225
	c-1.085,4.607-2.179,9.644-4.91,13.279c-1.801,2.397-6.434,2.667-9.798,3.89C1273.728,51.797,1273.408,51.206,1273.087,50.615z"/>
<path fill-rule="evenodd" clip-rule="evenodd" d="M832.611,50.637c6.304-4.427,6.093-4.717,3.889-12.631
	c-0.452-1.625,2.188-4.486,3.95-6.225c1.207-1.19,4.425-2.402,4.89-1.897c1.364,1.48,2.778,4.02,2.411,5.775
	c-0.971,4.634-1.976,9.76-4.724,13.341c-1.759,2.292-6.64,2.187-10.121,3.156C832.807,51.651,832.709,51.144,832.611,50.637z"/>
<path fill-rule="evenodd" clip-rule="evenodd" d="M355.155,53.501c-3.624-2.072-7.522-4.275-5.924-8.644
	c0.949-2.593,4.318-4.301,6.599-6.406c1.552,2.013,3.607,3.814,4.553,6.08C362.531,49.685,357.845,51.08,355.155,53.501z"/>
<path fill-rule="evenodd" clip-rule="evenodd" d="M379.193,53.472c-6.373-4.212-7.914-7.061-5.101-9.97
	c1.905-1.971,2.913-7.237,7.127-3.922c1.998,1.573,3.692,5.228,3.336,7.613C384.208,49.517,381.069,51.423,379.193,53.472z"/>
<path fill-rule="evenodd" clip-rule="evenodd" d="M292.218,53.456c-6.362-4.147-7.056-9.862-1.835-13.923
	c1.869-1.453,2.953-1.94,4.762,0.879C300.203,48.297,297.861,47.931,292.218,53.456z"/>
<path fill-rule="evenodd" clip-rule="evenodd" d="M310.975,49.047c-0.194-6.037,1.577-9.926,5.289-10.104
	c1.766-0.085,5.266,4.789,5.218,7.365c-0.044,2.312-3.634,4.935-6.211,6.527C314.697,53.191,311.815,49.813,310.975,49.047z"/>
</svg>
