<?xml version="1.0" encoding="utf-8"?>
<!-- Generator: Adobe Illustrator 16.0.0, SVG Export Plug-In . SVG Version: 6.00 Build 0)  -->
<!DOCTYPE svg PUBLIC "-//W3C//DTD SVG 1.1//EN" "http://www.w3.org/Graphics/SVG/1.1/DTD/svg11.dtd">
<svg version="1.1" id="Lag_1" xmlns="http://www.w3.org/2000/svg" xmlns:xlink="http://www.w3.org/1999/xlink" x="0px" y="0px"
	 width="3131.614px" height="453.181px" viewBox="0 0 3131.614 453.181" enable-background="new 0 0 3131.614 453.181"
	 xml:space="preserve">
<path fill-rule="evenodd" clip-rule="evenodd" d="M220.304,339.962c-4.94-11.396-5.596-22.851-0.479-33.688
	c5.499-11.648,11.522-23.775,25.492-27.356c6.131-1.572,12.884-1.238,19.317-0.952c5.807,0.258,10.869-0.238,14.146-6.098
	c0.452,0.175,0.903,0.35,1.354,0.524c2.422,29.3,4.844,58.601,7.266,87.9c0.388,0.228,0.775,0.455,1.163,0.683
	c3.109-4.576,6.312-9.093,9.313-13.738c15.847-24.527,31.556-49.144,47.504-73.604c5.466-8.382,13.569-13.648,22.922-16.848
	c2.709-0.927,5.774-0.813,9.636-1.297c-1.718,4.891-3.025,8.962-4.661,12.896c-0.243,0.584-2.108,0.893-3.103,0.701
	c-8.584-1.646-10.968-1.168-13.984,7.075c-4.179,11.414-7.384,23.219-10.426,35.007c-3.213,12.448-5.898,25.04-8.524,37.63
	c-2.096,10.05-4.043,20.15-5.481,30.31c-0.668,4.718,1.908,6.761,6.798,6.795c5.119,0.035,10.238,0.008,15.382,0.008
	c-0.319,4.177-2.437,6.018-6.219,6.49c-8.602,1.075-17.151,2.654-25.777,3.401c-6.329,0.548-7.384-0.847-6.237-7.186
	c1.535-8.495,3.3-16.958,5.276-25.362c4.433-18.849,9.075-37.648,13.567-56.483c0.355-1.49,0.215-3.1-0.477-5.028
	c-7.923,12.639-16.138,25.105-23.69,37.961c-8.849,15.062-17.092,30.479-25.664,45.705c-1.922,3.414-4.428,6.31-8.593,7.845
	c-0.537-5.451-1.22-10.309-1.457-15.188c-0.769-15.864-1.224-31.745-2.1-47.604c-0.521-9.445-1.606-18.858-3.629-28.58
	c-1.104,4.039-2.166,8.09-3.319,12.114c-5.329,18.601-10.209,37.348-16.238,55.719c-2.818,8.59-6.834,17.334-16.434,21.016
	c-2.845,1.091-5.937,1.921-8.958,2.084c-5.961,0.322-11.953,0.096-18.832,0.096c2.738-4.381,4.765-8.459,7.645-11.804
	c1.092-1.27,4.209-1.356,6.298-1.106c8.263,0.988,15.55-1.193,19.869-8.233c4.576-7.458,8.819-15.438,11.368-23.753
	c5.288-17.252,9.369-34.873,13.906-52.354c0.326-1.254,0.326-2.594,0.511-4.183c-8.241-2.673-16.553-4.12-24.641-1.185
	c-7.896,2.866-14.267,11.154-11.253,23.069c0.876,3.465,1.505,7.167,3.229,10.204c2.97,5.233,0.351,8.093-3.459,10.795
	C225.989,336.236,223.254,337.985,220.304,339.962z"/>
<path fill-rule="evenodd" clip-rule="evenodd" d="M1064.119,327.382c-1.432,0.145-2.86,0.326-4.295,0.427
	c-6.686,0.471-13.372,0.92-21.066,1.444c-2.24,9.991-4.684,20.885-7.127,31.778c-1.089,4.854-1.923,9.651,1.099,14.233
	c2.559,3.88,5.618,4.572,9.667,2.339c4.388-2.42,8.929-4.563,13.648-6.951c1.395,3.817,0.403,6.18-2.726,8.007
	c-8.161,4.764-16.191,9.754-24.388,14.456c-5.999,3.442-7.587,2.678-10.762-3.032c-4.639-8.34-2.045-16.585-0.186-24.851
	c2.429-10.793,5.116-21.527,7.535-32.321c0.668-2.979-0.021-5.277-3.988-5.046c-3.649,0.213-7.32,0.045-11.483,0.045
	c2.539-4.928,6.115-6.318,11.239-6.117c8.87,0.348,6.071,0.741,8.27-6.938c1.699-5.935,2.659-12.079,4.252-18.049
	c0.359-1.348,1.766-2.776,3.062-3.442c3.3-1.697,6.812-2.984,11.177-4.833c-1.695,7.187-3.234,13.613-4.722,20.052
	c-0.622,2.693-0.815,5.531-1.767,8.095c-1.907,5.14,0.805,5.567,4.748,5.259c1.987-0.156,4.051-0.328,5.986,0.022
	c11.472,2.075,20.628-3.173,29.788-8.889c3.899-2.433,8.282-4.089,12.445-6.099c0.549,0.449,1.097,0.897,1.646,1.347
	c-1.387,6.717-2.772,13.433-4.421,21.424c7.611-4.566,14.456-8.751,21.381-12.8c4.363-2.551,8.74-5.131,13.328-7.221
	c1.73-0.788,4.39-0.855,6.013-0.037c0.874,0.44,0.85,3.519,0.539,5.285c-0.745,4.24-1.898,8.409-3.189,13.893
	c4.075-2.365,7.228-4.195,10.381-6.024c7.337-4.257,14.566-8.72,22.082-12.632c2.041-1.062,4.946-0.464,7.454-0.627
	c0.085,2.195,0.66,4.506,0.178,6.568c-4.219,18.061-8.612,36.081-12.991,54.104c-0.824,3.391-0.385,6.239,3.672,8.519
	c6.095-3.141,12.668-6.529,19.545-10.073c1.098,4.117,0.384,6.596-3.38,8.781c-8.448,4.904-16.391,10.682-24.847,15.574
	c-6.973,4.035-10.311,2.248-10.102-5.691c0.174-6.628,1.547-13.301,3.049-19.802c2.56-11.087,5.636-22.054,8.494-33.071
	c0.083-0.318,0.256-0.651,0.219-0.957c-0.326-2.709-0.689-5.412-1.042-8.117c-2.376,0.719-4.926,1.104-7.092,2.229
	c-4.188,2.173-7.952,5.253-12.265,7.076c-8.011,3.387-7.619,11.048-9.403,17.436c-3.368,12.06-6.06,24.307-9.299,36.403
	c-0.397,1.484-2.223,3.055-3.754,3.67c-3.411,1.371-7.056,2.164-11.013,3.311c5.158-20.31,10.272-40.41,15.363-60.517
	c0.817-3.229,1.722-6.525-2.125-8.979c-5.345,2.914-10.706,6.068-16.271,8.809c-6.39,3.148-8.562,8.743-10.042,15.136
	c-2.863,12.362-6.019,24.656-9.076,36.973c-0.691,2.784-1.793,5.024-5.148,5.674c-3.18,0.616-6.229,1.903-10.137,3.151
	c1.636-6.472,3.088-12.558,4.718-18.596c3.771-13.97,7.653-27.91,11.424-41.881c0.548-2.028,1.204-4.212,0.962-6.222
	c-0.338-2.8-1.798-5.119-5.352-3.891c-3.064,1.06-6.086,2.245-9.126,3.374C1064.639,328.174,1064.378,327.777,1064.119,327.382z"/>
<path fill-rule="evenodd" clip-rule="evenodd" d="M2193.254,33.909c1.303-5.235,4.84-5.943,9.031-6.406
	c7.275-0.805,14.488-2.186,22.366-3.426c-4.36,16.355-8.58,31.491-12.41,46.725c-4.681,18.618-9.081,37.308-13.504,55.99
	c-1.372,5.798,2.169,10.194,8.079,10.076c4.749-0.095,9.49-0.553,14.426-0.862c0.314,4.36-2.914,5.27-5.768,5.773
	c-8.846,1.562-17.746,2.827-26.642,4.094c-4.759,0.678-7.029-1.41-7.208-6.271c-0.076-2.055-0.227-4.106-0.381-6.802
	c-8.338,3.229-15.797,6.356-23.422,9.006c-8.817,3.064-17.652,5.402-27.323,3.296c-9.194-2.002-15.384-10.724-15.869-19.947
	c-0.78-14.819,3.515-28.527,9.849-41.577c6.808-14.026,14.295-27.724,21.5-41.592c-9.488-6.199-23.45-5.48-31.6,0.866
	c-5.361,4.175-9.061,9.841-7.128,17.106c1.618,6.086,4.041,11.958,6.233,18.287c-4.055,3.189-8.361,6.577-13.09,10.297
	c-5.554-8.594-7.293-17.235-4.739-26.56c4.533-16.557,14.624-28.628,30.893-34.148c6.024-2.044,13.182-1.109,19.806-0.932
	c6.29,0.17,12.643,3.611,18.71-2.092c0.318,0.573,0.637,1.146,0.956,1.72c-0.804,1.961-1.275,4.153-2.46,5.849
	c-13.756,19.698-24.382,40.892-30.153,64.276c-1.634,6.623-2.316,13.563-2.669,20.397c-0.458,8.889,8.532,21.034,22.649,17.813
	c7.389-1.686,14.577-4.431,21.668-7.183c5.998-2.328,9.126-6.928,10.718-13.469c5.806-23.859,12.175-47.581,18.432-71.328
	c1.727-6.555,0.076-8.949-6.693-8.978C2196.182,33.904,2194.854,33.909,2193.254,33.909z"/>
<path fill-rule="evenodd" clip-rule="evenodd" d="M2337.557,271.658c8.732,36.62,15.006,72.299,29.36,106.062
	c1.238-6.152,2.358-12.331,3.737-18.452c5.612-24.917,10.852-49.932,17.184-74.667c2.606-10.181,9.141-18.72,17.757-25.131
	c5.214-3.88,8.899-4.31,17.249-2.975c-1.827,4.11-3.603,8.103-4.861,10.933c-5.49,1.607-10.546,2.134-14.555,4.464
	c-7.611,4.423-9.858,12.812-11.648,20.618c-6.984,30.455-13.392,61.043-20.15,91.551c-1.24,5.602,1.68,9.855,4.16,14.037
	c4.996,8.422,11.074,15.667,21.438,18.229c5.358,1.324,8.886-1.076,12.337-3.972c3.096-2.598,5.671-5.815,8.614-8.905
	c0.494,3.944,0.954,7.772,1.457,11.595c0.55,4.177-0.578,6.077-5.376,7.2c-24.239,5.676-44.363-3.923-55.604-25.29
	c-8.955-17.022-13.758-35.462-17.986-54.058c-2.771-12.191-5.187-24.465-8.657-37.055c-0.789,2.925-1.789,5.811-2.333,8.779
	c-3.467,18.923-7.551,37.739-15.272,55.401c-4.821,11.027-11.28,21.392-24.873,23.401c-5.251,0.776-10.688,1.572-16.165-1.13
	c2.467-4.431,4.754-8.539,6.898-12.391c4.473,0,8.801,0.472,12.986-0.096c9.453-1.282,14.892-7.942,17.194-16.278
	c6.147-22.249,11.513-44.714,17.103-67.115c0.385-1.544,0.05-3.268,0.05-4.949c-9.858-2.729-19.022-1.873-27.481,3.52
	c-7.12,4.54-9.702,11.37-7.25,19.304c1.531,4.953,3.644,9.727,5.793,15.36c-3.918,3.214-8.171,6.703-12.524,10.274
	c-7.717-15.013-5.073-28.846,3.201-42.186c6.368-10.269,14.666-18.06,27.099-20.15c2.903-0.488,5.89-0.564,8.843-0.655
	C2329.655,276.798,2334.393,278.023,2337.557,271.658z"/>
<path fill-rule="evenodd" clip-rule="evenodd" d="M138.187,135.245c-1.414,1.482-2.676,4.055-4.355,4.363
	c-11.076,2.038-22.227,3.693-33.384,5.248c-4.269,0.595-5.369-1.034-4.116-5.568c4.502-16.304,8.499-32.747,12.647-49.147
	c0.387-1.528,0.495-3.127,0.93-6c-12.83,1.07-24.967,1.858-37.025,3.308c-2.024,0.243-4.741,3.037-5.382,5.179
	c-5.943,19.848-19.495,33.938-34.898,46.549c-2.59,2.121-6.521,3.312-9.935,3.569c-7.117,0.537-14.302,0.163-22.668,0.163
	c2.86-4.888,5.12-9.275,7.97-13.237c0.694-0.965,3.402-0.958,5.064-0.679c20.442,3.43,30.325-6.473,35.623-21.95
	c1.368-3.997,2.849-7.979,3.833-12.076c0.869-3.618,3.403-8.037-2.756-9.149c0-0.857-0.071-1.115,0.01-1.178
	c10.168-7.854,9.586-20.2,12.829-30.917c1.458-4.819,2.163-9.865,3.569-14.703c0.75-2.582,0.216-3.7-2.384-4.11
	c-13.765-2.172-27.11,6.545-28.806,20.122c-0.782,6.26,1.284,12.875,2.067,19.402c-4.556,1.439-9.493,3-14.416,4.557
	c-6.458-17.388,2.641-35.423,17.183-43.659c9.328-5.283,19.667-6.853,30.169-7.371c5.711-0.281,11.447-0.05,17.649-0.05
	c-0.205,0.778-0.116,2.608-0.954,3.278c-5.2,4.152-6.243,10.203-7.668,16.048c-2.385,9.78-4.579,19.607-6.994,30.024
	c1.31,0.21,2.676,0.613,4.044,0.62c10.662,0.053,21.325-0.039,31.986,0.072c2.963,0.031,3.96-0.828,4.852-3.978
	c3.184-11.235,6.443-22.536,10.905-33.302c5.805-14.008,15.901-24.933,28.962-32.55c3.907-2.278,9.292-2.021,15.312-3.179
	c-2.571,5.139-4.201,8.887-6.324,12.332c-0.612,0.993-2.632,1.53-4.025,1.567c-11.893,0.312-15.782,2.604-19.033,14.292
	c-6.361,22.867-12.093,45.91-18.028,68.896c-2.197,8.509-3.92,17.154-6.483,25.548c-1.192,3.904,0.411,5.719,3.361,6.114
	C123.938,134.553,130.451,134.713,138.187,135.245z"/>
<path fill-rule="evenodd" clip-rule="evenodd" d="M1872.979,334.232c-11.819,0.979-22.657,1.644-33.409,2.989
	c-1.837,0.23-4.191,3.116-4.808,5.215c-3.899,13.298-10.591,24.9-20.094,34.906c-3.717,3.913-7.224,8.209-11.566,11.286
	c-3.239,2.296-7.582,3.622-11.588,4.109c-5.578,0.679-11.301,0.171-17.762,0.171c2.472-4.656,4.275-9.235,7.195-12.934
	c1.059-1.341,4.882-1.108,7.277-0.677c9.456,1.703,21.366-3.158,24.609-11.242c3.672-9.153,6.388-18.708,9.11-28.206
	c0.348-1.213-1.77-3.132-3.063-5.245c0.573-0.711,1.494-2.018,2.576-3.173c6.367-6.801,5.447-16.057,8.053-24.113
	c1.744-5.394,2.487-11.106,3.775-16.654c1.048-4.514,0.164-5.976-4.438-5.707c-14.833,0.867-23.252,7.988-23.976,22.42
	c-0.278,5.541,1.67,11.193,2.627,16.936c-4.219,1.537-8.462,3.084-13.35,4.864c-2.629-6.451-2.121-13.032-0.877-19.302
	c3.545-17.872,17.152-29.349,36.225-30.974c7.497-0.639,14.996-1.251,23.335-1.946c-0.519,1.787-0.506,3.589-1.399,4.512
	c-4.362,4.504-5.256,10.379-6.542,16.021c-2.027,8.895-3.427,17.936-5.577,26.797c-0.737,3.04,0.173,3.604,2.634,3.609
	c9.829,0.02,19.665,0.19,29.479-0.191c1.46-0.058,3.646-2.568,4.087-4.303c3.621-14.204,6.757-28.499,14.046-41.509
	c5.028-8.977,11.896-16.362,19.767-22.554c3.613-2.843,9.225-3.146,13.93-4.602c0.363,0.521,0.726,1.042,1.089,1.562
	c-1.545,3.781-2.989,7.61-4.723,11.304c-0.332,0.708-1.785,1.2-2.749,1.248c-4.368,0.221-9.477-1.179-12.407,2.985
	c-2.857,4.062-5.511,8.698-6.651,13.467c-7.271,30.382-14.149,60.858-21.007,91.338c-0.804,3.572-0.537,7.145,4.705,7.349
	c5.143,0.2,10.274,0.654,16.331,1.058c-0.978,1.318-1.894,3.941-3.324,4.261c-10.941,2.446-21.982,4.444-34.344,6.844
	C1862.343,374.422,1869.56,355.382,1872.979,334.232z"/>
<path fill-rule="evenodd" clip-rule="evenodd" d="M2646.677,146.064c1.069-9.215,1.923-17.345,2.974-25.449
	c1.705-13.139,3.534-26.263,5.32-39.392c1.212-8.913,2.462-17.82,3.65-26.736c0.692-5.187,1.248-10.391,1.955-15.575
	c0.487-3.569-0.625-5.322-4.557-5.035c-18.771,1.37-32.002,15.351-25.979,34.925c0.949,3.084,1.854,6.183,2.85,9.507
	c-4.908,2.4-9.546,4.669-14.201,6.946c-11.097-25.611,1.572-51.569,30.283-56.2c11.785-1.9,23.857-2.016,36.005-2.959
	c-0.153,1.484-0.084,1.968-0.229,2.043c-8.504,4.465-9.312,12.45-10.243,20.826c-1.425,12.82-3.709,25.544-5.555,38.319
	c-1.496,10.359-2.883,20.735-4.322,31.103c-0.331,2.381-0.685,4.759-1.229,8.537c2.048-1.688,3.242-2.434,4.136-3.445
	c9.595-10.861,19.278-21.649,28.659-32.694c7.106-8.365,14.052-16.89,20.63-25.673c7.689-10.265,13.854-21.568,15.438-34.39
	c0.603-4.882-1.83-10.411-3.847-15.242c-1.188-2.846-1.522-4.044,1.35-5.669c5.213-2.948,10.203-6.292,15.831-9.811
	c3.312,6.512,4.663,12.742,3.85,19.009c-2.688,20.701-13.713,37.47-26.602,53.06c-11.011,13.316-22.6,26.158-34.025,39.128
	c-8.504,9.653-16.956,19.366-25.831,28.672C2658.832,144.227,2652.76,144.802,2646.677,146.064z"/>
<path fill-rule="evenodd" clip-rule="evenodd" d="M1396.926,63.714c-0.6,25.739-8.549,46.998-26.982,63.14
	c-16.826,14.733-36.646,21.247-59.196,17.04c-13.049-2.435-21.082-14.362-23.082-26.705c-3.46-21.361,1.27-41.168,13.041-59.021
	c10.893-16.519,26.216-27.175,45.862-31.31c10.101-2.126,20.062-2.955,30.039,0.501c11.047,3.827,16.687,12.169,18.937,23.055
	C1396.538,55.219,1396.586,60.22,1396.926,63.714z M1379.694,72.691c0.408-10.458-1.604-20.076-7.97-28.739
	c-5.699-7.753-17.335-12.034-26.837-10.262c-12.606,2.35-21.383,9.902-28.051,19.921c-11.541,17.338-15.486,36.699-11.991,57.191
	c1.416,8.306,5.383,16.027,12.615,20.983c13.307,9.12,28.294,6.507,40.679-5.096C1373.595,112.211,1379.483,93.462,1379.694,72.691z
	"/>
<path fill-rule="evenodd" clip-rule="evenodd" d="M232.489,57.711c-4.879,18.778-9.605,36.959-14.325,55.141
	c-4.167,16.052-7.837,32.253-12.625,48.117c-5.133,17.014-15.804,29.981-31.733,38.309c-8.747,4.572-18.198,3.948-27.551,3.349
	c-4.506-0.289-8.957-1.436-14.18-2.319c2.282-4.226,4.411-8.168,6.53-12.094c7.327,0.917,14.481,2.806,21.507,2.41
	c6.98-0.394,14.209-2.243,20.579-5.117c3.213-1.45,5.769-6.284,6.897-10.098c5.004-16.916,9.384-34.017,13.99-51.051
	c-0.351-0.261-0.701-0.521-1.052-0.782c-3.498,2.19-6.945,4.468-10.504,6.553c-7.326,4.292-14.692,8.516-22.08,12.7
	c-3.775,2.139-5.92,0.228-7.402-3.187c-3.293-7.588-1.285-15.062,0.483-22.524c2.888-12.192,5.906-24.354,8.732-36.561
	c1.063-4.594-1.605-7.005-5.919-5.613c-2.779,0.896-5.535,1.863-8.306,2.784c-0.133,0.044-0.313-0.052-0.493-0.087
	c-1.309-3.968-0.079-6.251,3.967-7.968c7.665-3.252,15.017-7.236,22.605-10.683c1.952-0.887,4.299-0.903,7.47-1.513
	c-1.686,7.611-3.024,14.248-4.638,20.818c-3.142,12.795-6.491,25.539-9.61,38.34c-0.46,1.89-0.418,4.018-0.111,5.957
	c0.781,4.926,4.12,6.261,8.354,3.481c5.046-3.312,9.826-7.124,15.154-9.886c5.043-2.615,7.291-6.421,8.446-11.703
	c2.468-11.286,5.269-22.501,8.059-33.714c1.026-4.12,2.544-7.775,7.556-8.914C225.668,61.091,228.801,59.255,232.489,57.711z"/>
<path fill-rule="evenodd" clip-rule="evenodd" d="M2590.176,296.733c3.969,16.09,0.465,30.962-5.667,45.282
	c-6.858,16.016-16.737,30.079-29.508,42.05c-5.479,5.136-11.649,9.405-19.031,10.487c-7.47,1.096-12.377-0.623-12.342-9.451
	c0.017-4.278,0.003-8.557,0.003-14.498c-2.35,2.543-3.667,4.015-5.033,5.44c-7.229,7.543-13.594,16.142-24.856,18.385
	c-6.503,1.295-12.652-2.417-13.207-9.796c-1.443-19.196,6.422-35.062,16.981-50.086c2.16-3.073,4.428-6.068,7.099-9.719
	c-5.042-1.146-9.442-2.735-14.673-1.168c-5.501,1.647-9.207,4.802-11.465,9.842c-2.047,4.569-3.895,9.229-5.9,14.018
	c-3.108-2.689-3.754-5.548-2.092-9.312c3.541-8.012,6.711-16.187,10.17-24.235c1.398-3.255,4.048-4.495,7.637-4.093
	c6.853,0.769,13.715,1.62,20.594,1.904c2.792,0.114,5.631-1.211,8.467-1.787c1.145-0.232,2.339-0.211,3.511-0.306
	c-0.071,1.179,0.252,2.594-0.286,3.492c-1.996,3.335-4.219,6.541-6.461,9.722c-8.101,11.485-16.345,22.987-19.707,36.876
	c-1.258,5.193-1.538,11.079-0.438,16.262c1.117,5.264,7.35,7.018,11.393,3.331c5.62-5.125,11.103-10.749,15.249-17.074
	c8.918-13.604,14.001-28.969,18.151-44.629c0.812-3.061,2.095-5.645,5.889-6.403c2.921-0.583,5.636-2.2,9.343-3.729
	c-1.82,6.076-3.451,11.281-4.936,16.527c-4.075,14.394-8.234,28.766-12.035,43.231c-1.129,4.296-0.974,8.81,2.116,12.66
	c2.959,3.687,6.547,4.242,9.753,1.005c5.256-5.308,10.671-10.661,14.845-16.794c7.985-11.736,12.332-25.197,14.519-39.082
	c0.973-6.175-0.335-12.801-1.221-19.136c-0.422-3.025-0.369-4.479,2.965-5.304C2583.429,299.8,2586.654,298.127,2590.176,296.733z"
	/>
<path fill-rule="evenodd" clip-rule="evenodd" d="M2636.92,424.908c1.798-4.546,3.115-8.777,5.184-12.603
	c0.689-1.274,3.416-2.316,5.016-2.089c10.09,1.431,20.193,1.774,29.187-3.464c4.64-2.702,9.4-6.758,11.816-11.395
	c5.391-10.346,11.062-21.083,13.406-32.33c2.402-11.531,1.67-23.9,0.985-35.826c-0.479-8.347-2.792-16.672-5.021-24.806
	c-1.624-5.93-5.247-10.95-10.892-13.993c-8.134-4.386-19.55-1.507-24.849,6.104c-6.562,9.429-5.967,19.74-3.706,30.229
	c0.716,3.321,1.703,6.584,2.719,10.456c-4.174,2.646-8.471,5.368-13.647,8.649c-1.291-4.567-2.942-8.306-3.333-12.171
	c-1.478-14.632,0.772-28.133,12.306-38.839c6.163-5.722,11.864-11.709,19.917-15.106c15.069-6.356,29.87-2.768,35.688,14.804
	c3.637,10.981,4.177,22.215,3.947,33.596c-0.033,1.659,0.069,3.323,0.173,4.981c0.013,0.203,0.424,0.381,1.214,1.044
	c0.905-1.961,1.706-3.801,2.594-5.599c7.647-15.487,14.943-31.165,23.135-46.359c3.705-6.875,9.988-11.796,18.214-12.871
	c2.646-0.347,5.441,0.464,8.425,0.771c-2.297,6.242-4.527,12.298-6.817,18.52c-6.479-1.895-12.927-3.68-17.381,2.438
	c-3.525,4.843-6.376,10.273-8.886,15.738c-5.982,13.022-11.445,26.284-17.375,39.332c-8.303,18.268-16.711,36.49-25.334,54.608
	c-3.985,8.373-9.141,16.243-17.41,20.845c-4.831,2.688-10.542,4.487-16.038,5.122
	C2652.733,425.554,2645.136,424.908,2636.92,424.908z"/>
<path fill-rule="evenodd" clip-rule="evenodd" d="M1772.84,79.033c-0.392-6.12,3.639-7.579,7.477-9.492
	c7.871-3.924,15.498-8.348,23.446-12.1c3.627-1.712,5.134-0.07,4.122,3.872c-4.814,18.752-9.701,37.484-14.508,56.237
	c-0.443,1.726-0.729,3.553-0.701,5.327c0.07,4.604,3.091,6.729,7.463,5.195c8.742-3.064,17.436-6.271,25.964-9.352
	c1.397,3.39,2.677,7.227,4.511,10.778c3.078,5.958,10.59,8.305,16.479,5.181c5.607-2.975,9.958-7.328,10.43-13.964
	c0.434-6.105-3.644-9.871-8.371-12.966c-1.507-0.986-2.805-2.344-4.394-3.143c-12.578-6.326-10.537-23.113-4.619-30.875
	c6.431-8.435,14.163-14.463,24.698-16.428c5.714-1.065,11.156,0.204,15.848,3.454c1.101,0.763,1.725,4.203,0.965,5.297
	c-2.503,3.599-5.74,6.686-8.738,10.017c-2.683-2.112-5.166-3.961-7.529-5.953c-4.673-3.939-12.097-3.135-16.375,2.981
	c-3.913,5.596-2.71,12.509,2.94,16.476c3.198,2.244,6.53,4.303,9.857,6.356c10.183,6.287,11.638,15.011,6.887,25.093
	c-6.896,14.639-19.283,22.825-35.724,23.823c-8.637,0.523-15.418-2.589-18.501-11.424c-0.311-0.89-1.019-1.641-1.782-2.829
	c-11.186,4.93-21.055,13.474-34.673,13.391c-2.242-8.36-2.262-16.669,0.038-24.807c3.671-12.988,7.874-25.825,11.704-38.771
	c0.445-1.507,0.564-3.85-0.286-4.791c-0.819-0.905-3.219-0.967-4.703-0.571C1780.87,76.086,1777.095,77.575,1772.84,79.033z"/>
<path fill-rule="evenodd" clip-rule="evenodd" d="M2198.08,373.73c-6.22,4.286-12.3,8.575-18.49,12.699
	c-3.253,2.167-6.646,4.142-10.073,6.023c-3.825,2.102-6.695,0.599-7.915-3.648c-2.822-9.834,0.436-19.146,2.388-28.534
	c1.986-9.555,4.58-18.985,6.449-28.56c0.474-2.422-0.8-5.185-1.345-8.201c-4.661,1.726-8.274,3.062-11.915,4.41
	c-1.664-4.466,0.043-6.999,3.907-8.892c6.305-3.086,12.413-6.571,18.71-9.674c1.906-0.939,4.161-1.17,7.713-2.11
	c-1.58,7.669-2.816,14.015-4.204,20.327c-2.831,12.875-5.795,25.72-8.567,38.606c-0.412,1.913-0.279,4.009-0.05,5.979
	c0.586,5.057,3.778,6.597,7.894,3.729c5.625-3.922,11.371-7.746,16.528-12.229c2.114-1.838,3.397-5.15,4.081-8.024
	c3.016-12.667,5.607-25.434,8.55-38.118c0.351-1.511,1.621-3.233,2.958-4.007c3.646-2.112,7.554-3.769,12.183-6.004
	c-3.04,12.688-5.97,24.469-8.675,36.302c-4.605,20.148-9.021,40.341-13.606,60.493c-4.104,18.042-12.903,33.377-28.185,44.021
	c-7.963,5.546-17.787,5.289-27.224,4.307c-4.044-0.421-8.027-1.426-12.67-2.281c2.036-4.116,4.072-8.229,5.493-11.102
	c10.211,0.234,19.487,1.255,28.602,0.45c11.158-0.984,15.587-9.527,17.822-19.384c3.416-15.065,6.759-30.147,10.107-45.229
	C2198.606,374.811,2198.344,374.469,2198.08,373.73z"/>
<path fill-rule="evenodd" clip-rule="evenodd" d="M562.84,323.577c-4.493,1.62-8.121,2.929-11.744,4.234
	c-1.517-4.424,0.209-6.968,4.079-8.85c6.314-3.072,12.432-6.548,18.725-9.668c1.829-0.907,3.972-1.184,7.247-2.109
	c-0.978,5.966-1.563,10.933-2.629,15.793c-3.103,14.148-6.398,28.254-9.608,42.379c-0.146,0.64-0.367,1.34-0.242,1.949
	c0.7,3.426,1.495,6.833,2.258,10.246c2.859-1.205,5.955-2.043,8.525-3.696c4.661-3,9.152-6.315,13.42-9.854
	c1.657-1.375,3.14-3.563,3.635-5.637c2.912-12.194,6.107-24.371,8.021-36.737c1.495-9.67,9.422-10.209,16.481-14.368
	c-2.132,8.583-4.125,16.069-5.845,23.619c-5.569,24.445-10.817,48.968-16.62,73.357c-4.279,17.986-12.522,33.637-28.678,44.055
	c-8.297,5.35-17.479,5.019-26.67,4.317c-4.045-0.308-8.03-1.407-12.674-2.264c2.038-4.116,4.074-8.231,5.492-11.096
	c10.223,0.232,19.55,1.44,28.607,0.371c9.044-1.068,13.831-4.593,16.863-16.593c3.986-15.769,7.435-31.674,11.08-47.528
	c0.096-0.416-0.212-0.925-0.497-2.042c-5.377,3.84-10.43,7.623-15.665,11.134c-4.196,2.813-8.55,5.409-12.95,7.896
	c-3.74,2.112-6.68,0.527-7.846-3.761c-2.29-8.427-0.48-16.553,1.453-24.734c2.622-11.09,5.185-22.199,7.392-33.375
	C564.86,328.54,563.467,326.109,562.84,323.577z"/>
<path fill-rule="evenodd" clip-rule="evenodd" d="M762.381,395.13c2.34-9.503,4.458-18.296,6.672-27.064
	c6.174-24.454,12.337-48.91,18.61-73.338c2.197-8.557,4.781-17.109,11.269-23.517c11.531-11.391,24.347-19.896,42.233-15.519
	c-1.951,3.244-3.36,7.787-6.441,9.982c-2.289,1.631-6.808,0.603-10.228,0.072c-5.895-0.915-9.404,0.494-12.926,5.23
	c-6.168,8.294-9.381,17.854-12.168,27.576c-3.03,10.572-5.714,21.244-8.981,33.498c4.068-2.562,6.78-4.419,9.63-6.035
	c9.765-5.538,19.448-11.244,29.434-16.356c4.134-2.116,6.42,0.269,5.323,4.847c-4.169,17.412-8.425,34.804-12.55,52.227
	c-1.053,4.443-3.625,9.241,2.117,13.041c6.729-3.49,13.621-7.065,20.698-10.735c1.14,3.773,1.005,6.381-3.338,8.479
	c-9.702,4.686-19.011,10.178-28.626,15.054c-1.823,0.925-4.788,1.346-6.347,0.457c-1.118-0.638-1.38-3.972-0.98-5.885
	c2.694-12.897,5.619-25.747,8.572-38.589c1.275-5.549,3.063-10.995,4.057-16.587c0.347-1.949-0.765-4.322-1.769-6.204
	c-0.195-0.365-3.233,0.263-4.532,1.098c-7.812,5.021-15.57,10.134-23.157,15.483c-1.252,0.882-1.85,3.012-2.282,4.686
	c-3.46,13.389-6.679,26.842-10.337,40.174c-0.511,1.862-2.772,3.631-4.654,4.637C769.05,393.247,766.015,393.895,762.381,395.13z"/>
<path fill-rule="evenodd" clip-rule="evenodd" d="M2107.167,306.867c-0.902,6.606-1.597,11.688-2.424,17.738
	c4.226-2.855,7.725-5.429,11.426-7.67c4.462-2.702,8.909-5.567,13.695-7.569c8.577-3.586,11.087-0.932,12.496,7.401
	c3.121,18.458-0.984,36.463-10.04,52.374c-4.818,8.465-13.271,15.506-21.494,21.119c-4.196,2.864-11.54,1.659-17.399,1.297
	c-2.672-0.166-3.357,0.002-3.905,2.465c-2.542,11.43-5.269,22.819-7.874,34.235c-0.975,4.268-1.8,8.569-2.937,14.021
	c5.068,1.308,10.42,2.688,15.772,4.067c0.146,0.408,0.292,0.815,0.438,1.224c-1.854,0.779-3.685,2.165-5.563,2.232
	c-7.322,0.263-14.664-0.036-21.99,0.159c-4.59,0.123-9.166,0.755-14.595,1.232c2.734-3.743,3.651-7.799,9.108-7.525
	c3.86,0.193,5.03-3.146,5.797-6.608c5.237-23.68,10.649-47.321,15.934-70.991c2.624-11.755,5.24-23.517,7.48-35.348
	c0.341-1.795-1.1-4.188-2.319-5.866c-0.388-0.533-2.797,0.165-4.166,0.635c-2.597,0.891-5.11,2.022-7.667,3.058
	c-1.029-3.908,0.091-6.007,3.867-7.858c5.979-2.931,11.355-7.062,17.158-10.39C2100.368,308.921,2103.209,308.308,2107.167,306.867z
	 M2130.631,334.615c0-0.832,0.006-1.664-0.001-2.496c-0.064-8.047-4.525-10.82-11.693-7.268c-1.317,0.653-2.711,1.198-3.925,2.009
	c-5.643,3.769-12.416,6.648-14.246,14.022c-2.619,10.562-4.825,21.23-6.947,31.905c-0.307,1.545,0.316,3.87,1.39,4.995
	c5.615,5.884,18.482,5.583,22.597-1.056C2125.856,363.737,2129.014,349.459,2130.631,334.615z"/>
<path fill-rule="evenodd" clip-rule="evenodd" d="M2011.959,447.742c-1.619,0.722-3.221,2.019-4.859,2.067
	c-7.49,0.225-14.994-0.041-22.486,0.153c-4.406,0.114-8.799,0.761-13.777,1.222c1.744-4.01,3.387-6.855,7.704-7.36
	c3.181-0.372,5.388-1.75,6.257-5.688c7.75-35.115,15.813-70.161,23.752-105.235c0.846-3.74,0.062-5.555-3.506-8.79
	c-3.289,1.429-6.694,2.908-10.104,4.389c-1.188-4.078,0.341-6.483,3.998-8.416c6.479-3.424,12.641-7.441,19.085-10.936
	c1.517-0.822,3.922-1.195,5.356-0.541c0.887,0.404,1.152,3.197,0.928,4.811c-0.504,3.599-1.489,7.13-2.459,11.503
	c6.529-4.258,12.155-8.173,18.034-11.662c3.165-1.879,6.799-2.953,10.157-4.524c4.446-2.08,7.617,0.126,8.322,3.938
	c1.332,7.204,2.745,14.755,1.916,21.905c-1.036,8.94-4.438,17.589-6.566,26.424c-2.662,11.046-11.42,17.352-18.715,24.86
	c-7.287,7.501-16.279,6.466-25.361,5.667c-0.929-0.082-2.677,1.06-2.87,1.902c-3.456,15.064-6.747,30.167-10.034,45.271
	c-0.793,3.646,1.841,4.523,4.508,5.169c3.433,0.83,6.898,1.525,10.35,2.279C2011.712,446.681,2011.835,447.211,2011.959,447.742z
	 M2024.883,382.987c3.017-1.729,7.494-2.86,9.575-5.729c10.113-13.938,13.356-30.291,13.916-47.067
	c0.199-5.958-5.087-8.879-10.34-6.094c-6.42,3.404-12.196,8.024-18.219,12.167c-0.497,0.342-0.95,1.004-1.075,1.592
	c-2.401,11.28-4.658,22.593-7.16,33.852c-0.924,4.156,0.907,6.626,4.284,8.201C2018.31,381.049,2020.991,381.686,2024.883,382.987z"
	/>
<path fill-rule="evenodd" clip-rule="evenodd" d="M1587.819,379.021c6.019-3.304,12.13-6.659,18.431-10.117
	c-0.094,4.591-1.328,7.701-5.844,9.987c-8.413,4.26-16.292,9.562-24.49,14.26c-5.255,3.011-6.248,2.363-6.28-3.532
	c-0.021-3.784-0.004-7.567-0.004-12.565c-5.705,3.989-10.547,7.429-15.448,10.783c-2.686,1.838-5.389,3.68-8.227,5.263
	c-6.331,3.529-8.947,2.941-10.099-3.889c-1.094-6.491-1.237-13.506-0.007-19.948c2.184-11.44,5.151-22.812,8.853-33.858
	c3.817-11.396,14.075-17.147,23.319-23.658c4.723-3.326,9.484-4.864,16.025-2.69c1.217-4.94,2.794-9.685,3.511-14.556
	c2.734-18.577,13.801-30.723,30.079-38.35c4.089-1.915,9.463-1.089,15.6-1.645c-2.427,4.475-3.934,7.458-5.671,10.301
	c-0.381,0.622-1.562,0.985-2.405,1.051c-1.987,0.151-3.993,0.053-5.991,0.053c-8.248,0.001-12.299,2.45-14.428,10.449
	c-4.014,15.074-7.595,30.27-11.057,45.482c-3.429,15.071-6.585,30.207-9.648,45.357
	C1583.198,371.351,1582.278,375.888,1587.819,379.021z M1581.334,323.882c-0.972-0.969-1.85-2.394-3.12-3.018
	c-7.94-3.903-14.681-2.997-18.729,6.033c-4.953,11.045-8.344,22.854-11.625,34.552c-1.217,4.338-0.861,9.417-0.037,13.941
	c0.812,4.456,3.829,5.466,7.649,3.031c4.257-2.714,8.241-5.888,12.151-9.097c1.883-1.546,4.286-3.397,4.805-5.514
	C1575.596,350.855,1578.292,337.784,1581.334,323.882z"/>
<path fill-rule="evenodd" clip-rule="evenodd" d="M527.196,169.659c0.214-0.772,0.272-1.631,0.664-2.291
	c2.241-3.782,4.562-7.517,6.792-11.166c11.461,1.431,22.647,2.856,32.308-5.146c8.329-6.899,14.115-15.624,17.611-25.748
	c3.074-8.901,5.453-18.041,8.394-26.992c1.221-3.716,0.571-6.602-1.815-9.6c-0.76-0.954-0.725-4.056-0.185-4.307
	c8.083-3.76,9.443-11.397,11.345-18.792c2.188-8.506,4.485-16.983,6.674-25.489c0.392-1.521,0.487-3.119,0.717-4.667
	c-18.883-3.161-32.378,11.062-28.437,29.718c0.504,2.386,1.257,4.803,1.195,7.188c-0.03,1.174-1.425,2.845-2.606,3.359
	c-3.709,1.615-7.61,2.788-11.43,4.13c-5.165-12.2-1.503-27.867,7.184-36.672c9.519-9.648,20.412-14.967,33.929-15.333
	c8.077-0.219,16.143-0.904,24.196-1.379c0.093,0.944,0.244,1.435,0.133,1.504c-9.651,6.049-10.766,16.333-13.308,26.078
	c-5.335,20.452-11.104,40.792-16.618,61.197c-5.009,18.53-17.123,31.464-32.032,42.756
	C558.458,168.193,543.608,171.033,527.196,169.659z"/>
<path fill-rule="evenodd" clip-rule="evenodd" d="M943.805,380.347c-4.546,2.734-8.581,5.458-12.882,7.663
	c-4.324,2.217-8.798,4.292-13.425,5.716c-3.249,1-5.256,0.18-6.115-4.472c-2.494-13.494,3.226-25.356,6.076-37.781
	c1.707-7.436,4.067-14.719,6.001-22.105c0.942-3.6-1.284-5.568-4.905-4.374c-3.384,1.117-6.688,2.472-11.649,4.328
	c1.319-3.09,1.623-6.127,3.216-7.142c7.947-5.062,16.096-9.855,24.459-14.195c3.981-2.066,5.967-0.137,4.943,4.156
	c-3.699,15.503-7.495,30.982-11.221,46.479c-0.95,3.955-1.969,7.909-2.611,11.918c-1.021,6.368,2.994,9.333,9.033,6.805
	c7.149-2.994,14.272-6.053,21.4-9.08c1.557,5.917,1.816,12.871,8.445,15.928c2.667,1.229,6.652,1.953,9.097,0.84
	c5.652-2.573,10.201-7.245,10.762-13.712c0.506-5.826-2.505-10.948-7.747-13.723c-16.35-8.655-15.019-27.591-4.523-38.749
	c5.132-5.457,10.496-10.823,18.395-11.233c4.353-0.227,9.046,0.589,13.111,2.161c3.049,1.181,4.495,4.184,1.174,7.562
	c-2.574,2.619-4.507,5.867-7.731,10.185c-1.757-2.429-2.835-4.35-4.314-5.885c-4.021-4.174-7.996-4.961-11.782-2.609
	c-5.118,3.18-8.293,9.051-5.786,13.603c2.412,4.381,6.109,8.635,10.277,11.362c14.696,9.617,13.32,22.135,4.869,34.121
	c-6.538,9.274-15.345,16.45-27.654,16.749C951.753,395.129,947.745,391.261,943.805,380.347z"/>
<path fill-rule="evenodd" clip-rule="evenodd" d="M2529.627,127.999c7.361-3.791,14.43-7.431,21.546-11.096
	c1.386,4.75,0.058,7.258-4.345,9.604c-9.77,5.209-18.928,11.551-28.558,17.038c-6.182,3.522-8.772,1.764-8.581-5.447
	c0.104-3.899,0.807-7.783,1.346-12.633c-6.6,4.338-12.636,8.503-18.877,12.335c-3.826,2.349-7.809,4.623-12.006,6.143
	c-5.095,1.845-8.035,0.042-8.408-5.174c-0.452-6.324-1.131-12.918,0.127-19.016c2.258-10.946,5.604-21.7,9.025-32.364
	c3.51-10.94,12.534-16.896,21.566-23.008c14.498-9.812,29.139-6.263,44.729-1.829c-11.275,10.479-10.876,25.115-15.436,37.781
	c-2.249,6.25-3.516,12.858-5.15,19.324C2525.403,124.418,2525.459,124.432,2529.627,127.999z M2485.632,118.623
	c0,0.665-0.23,1.448,0.039,1.977c1.263,2.478,2.175,5.527,4.202,7.071c1.188,0.905,4.367-0.308,6.407-1.154
	c2.065-0.857,3.996-2.249,5.694-3.739c4.253-3.733,10.269-6.904,12.115-11.649c4.634-11.903,7.439-24.529,10.688-36.941
	c0.296-1.131-1.208-3.168-2.404-4.121c-1.009-0.804-2.799-0.586-4.22-0.921c-8.742-2.06-15.298-0.419-19.039,5.96
	C2491.257,88.505,2487,103.147,2485.632,118.623z"/>
<path fill-rule="evenodd" clip-rule="evenodd" d="M1020.557,127.938c6.953-3.574,14.146-7.271,21.578-11.091
	c1.23,4.296,0.46,6.942-3.695,9.239c-9.558,5.283-18.736,11.249-28.123,16.848c-1.504,0.896-3.238,1.595-4.953,1.911
	c-3.248,0.599-5.146-0.618-4.747-4.308c0.389-3.578,0.729-7.165,0.925-10.757c0.064-1.173-0.39-2.374-0.626-3.664
	c-8.953,5.831-17.353,11.461-25.915,16.83c-7.257,4.549-13.147,1.224-13.297-7.754c-0.25-15.051,3.285-29.436,7.928-43.698
	c5.905-18.143,20.472-26.763,36.509-32.97c5.455-2.111,12.696,0.037,19.061,0.765c3.823,0.438,7.53,1.89,11.251,2.875
	c0.052,0.739,0.313,1.473,0.088,1.684c-7.86,7.318-8.55,17.668-11.35,27.071c-2.783,9.35-4.794,18.938-7.797,28.211
	C1016.105,123.105,1016.939,125.415,1020.557,127.938z M976.641,118.479c0,1.496-0.136,3.007,0.028,4.484
	c0.373,3.375,4.456,6.479,7.01,4.884c6.866-4.289,13.474-9.001,20.069-13.705c0.939-0.671,1.456-2.172,1.809-3.394
	c3.41-11.839,6.601-23.744,10.186-35.53c1.077-3.543-0.084-4.791-3.246-5.314c-1.113-0.184-2.199-0.536-3.312-0.726
	c-6.274-1.067-12.969-2.529-17.422,3.552C981.837,86.284,978.329,102.118,976.641,118.479z"/>
<path fill-rule="evenodd" clip-rule="evenodd" d="M2025.693,61.983c-1.411,2.156-2.069,3.038-2.598,3.991
	c-2.021,3.643-4.72,7.098-5.866,11.005c-4.167,14.189-7.546,28.611-11.811,42.77c-1.264,4.197,0.115,6.124,3.229,8.247
	c7.062-3.647,14.136-7.303,21.563-11.14c1.033,4.183,0.479,6.892-3.689,9.209c-9.821,5.462-19.269,11.596-28.946,17.322
	c-1.479,0.875-3.354,1.215-5.096,1.476c-2.72,0.408-4.044-0.895-3.854-3.711c0.328-4.865,0.603-9.733,0.951-15.452
	c-5.565,3.69-10.461,7.17-15.588,10.268c-4.816,2.911-9.691,5.882-14.885,7.972c-4.949,1.992-8.061,0.352-8.273-4.683
	c-0.35-8.247-0.314-16.668,0.979-24.789c2.102-13.19,5.03-26.456,13.881-37.059c3.884-4.652,8.854-8.756,14.08-11.845
	c7.38-4.362,14.896-9.392,24.329-7.646C2010.944,59.185,2017.78,60.492,2025.693,61.983z M1964.632,118.021
	c0,0.833-0.272,1.793,0.047,2.477c1.269,2.717,2.369,5.672,4.331,7.802c0.559,0.606,4.018-0.975,5.814-2.088
	c4.98-3.089,9.908-6.298,14.599-9.805c1.75-1.31,3.424-3.385,4.039-5.438c3.588-11.986,6.677-24.124,10.34-36.085
	c0.988-3.228-0.305-4.168-2.681-4.918c-1.542-0.485-3.165-0.743-4.768-1.001c-6.019-0.97-12.414-2.021-16.572,3.688
	C1969.983,86.11,1966.735,101.91,1964.632,118.021z"/>
<path fill-rule="evenodd" clip-rule="evenodd" d="M455.108,145.667c0-7.312,0-13.254,0-19.974
	c-8.963,5.896-16.918,11.842-25.53,16.601c-8.872,4.901-13.177,3.941-13.605-6.772c-0.807-20.197,3.484-39.687,14.552-57.115
	c5.136-8.089,13.625-11.924,21.53-16.525c11.624-6.766,23.465-3.705,39.078,0.736c-1.925,2.494-4.174,4.55-5.334,7.101
	c-2.008,4.411-3.603,9.057-4.905,13.733c-3.361,12.062-6.581,24.165-9.568,36.322c-0.52,2.115,0.372,4.576,0.611,6.878
	c2.261-0.254,4.774,0.042,6.733-0.863c5.883-2.719,11.55-5.906,17.438-8.981c1.279,4.218,0.475,6.962-3.352,9.16
	c-9.472,5.442-18.639,11.416-28.127,16.829C461.942,144.329,458.572,144.664,455.108,145.667z M430.663,116.838
	c-0.055,0.828-0.008,1.678-0.181,2.479c-0.834,3.873,0.779,7.128,3.964,8.522c1.661,0.728,4.567-0.886,6.704-1.885
	c2.335-1.092,4.705-2.399,6.573-4.138c4.06-3.777,10.229-5.213,11.916-11.692c2.695-10.357,5.777-20.62,8.93-30.851
	c2.551-8.277,2.631-8.607-5.698-10.197c-10.314-1.97-15.12-0.966-19.714,7C435.913,88.64,432.087,102.413,430.663,116.838z"/>
<path fill-rule="evenodd" clip-rule="evenodd" d="M3131.275,116.734c0.583,3.848,0.896,6.382-3.27,8.673
	c-10.127,5.571-19.674,12.189-29.647,18.058c-2.244,1.321-5.276,1.304-8.318,1.985c0-6.798,0-12.887,0-19.625
	c-8.756,5.661-16.754,11.169-25.114,16.056c-2.894,1.69-7.157,3.269-9.958,2.349c-3.946-1.297-4.281-6.006-4.382-10.146
	c-0.4-16.504,3.511-32.13,9.655-47.24c5.675-13.956,17.695-21.104,30.611-26.828c10.816-4.794,21.489-0.917,32.092,1.634
	c0.794,0.191,1.584,0.395,2.783,0.694c-0.925,1.609-1.841,3.062-2.618,4.586c-2.031,3.985-4.613,7.816-5.882,12.038
	c-3.975,13.229-7.479,26.601-11.068,39.943c-0.463,1.718-0.732,3.66-0.414,5.373c0.443,2.383,1.506,4.47,4.727,2.72
	c3.854-2.094,7.807-4.008,11.74-5.95C3125.11,119.621,3128.047,118.269,3131.275,116.734z M3064.596,115.812
	c0.113,11.81,4.312,14.496,11.153,10.405c5.575-3.333,10.796-7.274,16.053-11.112c0.919-0.671,1.447-2.102,1.799-3.287
	c3.272-11.046,6.347-22.153,9.729-33.165c2.284-7.442,2.358-7.802-5.082-9.41c-10.159-2.196-16.743-1.229-21.108,8.587
	c-1.446,3.252-3.57,6.269-4.585,9.635C3069.375,98.012,3066.577,108.674,3064.596,115.812z"/>
<path fill-rule="evenodd" clip-rule="evenodd" d="M1185.048,145.47c0-7.062,0-13.012,0-19.735
	c-7.927,5.206-15.118,10.122-22.521,14.696c-2.99,1.849-6.34,3.285-9.708,4.305c-3.56,1.078-7.292-3.146-7.091-8.602
	c0.297-8.036,0.492-16.203,2.104-24.03c1.858-9.021,4.524-18.021,8.075-26.514c5.56-13.295,17.438-20.104,29.901-25.555
	c11.828-5.173,23.242-0.306,35.44,2.278c-11.404,12.731-11.345,29.022-16.556,43.373c-1.604,4.415-2.86,9.018-3.646,13.642
	c-0.402,2.365,0.006,5.327,1.227,7.285c0.488,0.782,4.396,0.106,6.321-0.806c5.86-2.779,11.512-5.998,17.672-9.271
	c0.463,3.971,1.014,6.54-3.219,8.856c-10.139,5.549-19.679,12.183-29.65,18.054C1191.153,144.769,1188.128,144.768,1185.048,145.47z
	 M1159.631,118.786c0.01,8.725,4.251,11.546,11.02,7.497c5.719-3.422,11.035-7.521,16.46-11.419c0.713-0.513,1.202-1.55,1.468-2.441
	c3.695-12.44,7.346-24.894,10.979-37.353c0.854-2.93,0.516-5.147-3.312-5.19c-0.946-0.01-1.885-0.416-2.833-0.606
	c-7.072-1.418-14.385-2.486-19.067,4.578C1165.225,87.61,1161.955,103.404,1159.631,118.786z"/>
<path fill-rule="evenodd" clip-rule="evenodd" d="M404.969,62.581c-8.629,6.323-9.712,15.098-12.136,23.083
	c-3.21,10.574-5.771,21.347-8.562,32.047c-0.41,1.573-0.658,3.207-0.793,4.828c-0.321,3.852,1.958,5.889,5.372,4.317
	c6.475-2.979,12.739-6.414,19.365-9.801c1.205,4.262,0.302,7.263-3.86,9.618c-9.928,5.617-19.596,11.694-29.519,17.321
	c-1.822,1.033-4.352,0.821-6.784,1.223c0-6.607,0-12.638,0-19.349c-1.255,0.644-2.629,1.193-3.835,1.995
	c-7.199,4.79-14.198,9.909-21.617,14.325c-2.74,1.631-6.866,2.971-9.596,2.086c-3.731-1.21-4.731-5.426-4.435-9.611
	c0.282-3.978-0.669-8.158,0.198-11.958c2.709-11.867,5.347-23.828,9.289-35.315c3.979-11.597,13.77-18.194,23.947-24.395
	C375.976,54.484,389.603,58.765,404.969,62.581z M342.242,121.014c1.02,1.558,2.251,5.115,4.725,6.601
	c1.545,0.928,5.196-0.862,7.494-2.156c3.964-2.233,7.752-4.85,11.337-7.659c2.2-1.726,4.85-3.801,5.636-6.252
	c3.572-11.143,6.49-22.493,9.773-33.73c2.015-6.896,2.143-6.961-4.967-8.594c-7.112-1.634-14.312-2.312-19.059,4.754
	C348.03,87.602,344.675,103.199,342.242,121.014z"/>
<path fill-rule="evenodd" clip-rule="evenodd" d="M1505.098,143.547c5.833-20.656,11.264-39.721,16.568-58.819
	c0.953-3.431,4.066-7.262,0.572-10.484c-3.538-3.264-6.817,0.956-10.247,1.634c-1.718,0.339-3.354,1.096-4.996,1.653
	c-1.307-3.771,0.277-6.034,3.453-7.588c7.618-3.727,15.167-7.603,22.869-11.146c1.967-0.904,4.398-0.798,8.13-1.401
	c-1.731,7.575-3.229,14.124-5.07,22.179c6.54-3.772,11.596-6.811,16.765-9.64c7.019-3.841,14.051-7.672,21.245-11.159
	c1.684-0.816,4.78-1.064,5.889-0.075c1.17,1.045,1.399,4.057,0.906,5.906c-3.852,14.447-8.104,28.788-11.945,43.238
	c-1.293,4.864-2.218,9.924-2.484,14.938c-0.311,5.821,2.016,7.082,7.098,4.449c5.343-2.768,10.613-5.676,15.915-8.522
	c0.486,0.372,0.973,0.744,1.459,1.116c-1.403,2.115-2.345,4.912-4.288,6.229c-8.635,5.854-17.551,11.294-26.383,16.853
	c-1.101,0.692-2.262,1.558-3.482,1.735c-3.08,0.449-5.562,1.093-6.779-3.795c-2.03-8.148,1.031-15.249,2.772-22.571
	c3.006-12.644,6.855-25.085,10.121-37.67c0.365-1.407-0.31-3.653-1.335-4.67c-0.805-0.797-3.267-0.917-4.359-0.27
	c-7.981,4.726-16.337,9.075-23.418,14.94c-2.93,2.427-3.17,8.24-4.374,12.586c-3.125,11.28-6.049,22.616-9.23,33.881
	c-0.316,1.12-1.694,2.34-2.851,2.75C1513.876,141.15,1510.009,142.121,1505.098,143.547z"/>
<path fill-rule="evenodd" clip-rule="evenodd" d="M1409.13,143.449c5.885-20.4,11.358-39.291,16.761-58.202
	c0.757-2.648,1.597-5.392,1.62-8.099c0.027-3.081-1.554-4.956-5.154-3.601c-3.765,1.418-7.599,2.652-11.415,3.971
	c-0.941-3.475-0.102-5.479,3.343-7.027c7.999-3.599,15.708-7.836,23.636-11.599c1.804-0.855,4.021-0.837,7.496-1.495
	c-1.613,7.541-3.003,14.037-4.53,21.177c1.437-0.374,2.495-0.433,3.327-0.897c10.821-6.058,21.587-12.213,32.434-18.225
	c1.516-0.84,3.355-1.23,5.096-1.497c2.688-0.411,4.387,0.868,3.831,3.659c-1.046,5.254-2.326,10.466-3.675,15.652
	c-3.682,14.167-7.511,28.295-11.11,42.481c-0.468,1.848-0.309,4.065,0.24,5.908c0.78,2.618,2.278,4.198,5.505,2.336
	c5.63-3.251,11.468-6.143,17.513-9.341c1.152,3.714,0.679,5.637-2.884,7.646c-9.361,5.28-18.199,11.483-27.478,16.924
	c-2.12,1.243-5.236,1.333-7.759,0.982c-0.685-0.095-1.09-3.718-1.261-5.752c-1.156-13.805,4.804-26.208,7.89-39.173
	c1.469-6.17,3.461-12.214,4.971-18.376c1.249-5.101-1.01-7.316-5.678-4.922c-7.494,3.844-14.9,8.101-21.574,13.192
	c-2.847,2.172-4.334,6.718-5.435,10.479c-3.653,12.485-6.843,25.105-10.244,37.665c-0.204,0.753-0.565,1.892-1.1,2.058
	C1419.08,140.746,1414.605,141.928,1409.13,143.449z"/>
<path fill-rule="evenodd" clip-rule="evenodd" d="M947.066,57.642c-3.51,12.12-6.85,23.125-9.862,34.22
	c-2.682,9.879-5.227,19.81-7.301,29.828c-0.445,2.146,1.063,4.979,2.399,7.019c0.339,0.518,3.624-0.491,5.294-1.323
	c5.51-2.746,10.9-5.732,16.362-8.64c1.597,3.655,0.557,5.969-2.4,7.691c-9.575,5.576-19.161,11.134-28.668,16.823
	c-5.041,3.018-7.201,2.87-8.17-5.009c-0.249-2.025,0.688-4.171,0.865-6.279c0.162-1.928,0.034-3.879,0.034-7.044
	c-3.722,2.328-6.508,4.134-9.354,5.839c-6.571,3.938-13.196,7.787-19.757,11.744c-9.785,5.902-13.033,0.302-13.588-8.56
	c-0.353-5.63,1.855-11.493,3.322-17.146c2.898-11.166,6.25-22.216,9.01-33.413c0.606-2.458-0.478-5.333-0.783-8.016
	c-2.452,0.476-4.975,0.734-7.339,1.489c-2.301,0.735-4.44,1.979-7.95,3.599c0.746-2.842,0.642-5.796,1.843-6.49
	c10.252-5.93,20.742-11.449,31.16-17.091c0.536,0.422,1.071,0.844,1.607,1.266c-0.462,3.747-0.519,7.6-1.457,11.223
	c-3.954,15.26-8.336,30.409-12.201,45.689c-1.273,5.034-3.08,10.674,3.365,14.77c7.358-4.246,15.035-8.495,22.472-13.13
	c1.386-0.864,2.144-3.191,2.613-4.993c3.488-13.374,6.822-26.787,10.225-40.184c1.157-4.555,3.032-8.302,8.287-9.576
	C940.212,61.191,943.082,59.407,947.066,57.642z"/>
<path fill-rule="evenodd" clip-rule="evenodd" d="M769.631,125.211c-3.422,1.976-6.175,3.486-8.851,5.124
	c-7.231,4.426-14.258,9.22-21.691,13.271c-6.824,3.719-11.213,0.783-12.224-9.358c-0.446-4.48,1.463-9.254,2.595-13.823
	c3.32-13.411,6.97-26.744,10.101-40.199c1.127-4.846-1.505-6.591-6.139-4.613c-2.702,1.153-5.308,2.537-8.203,3.936
	c-2.245-2.94-2.471-4.837,1.558-6.777c9.539-4.596,18.835-9.694,28.251-14.55c0.541-0.279,1.267-0.199,3.512-0.505
	c-1.586,7.214-2.842,13.805-4.501,20.292c-3.302,12.913-7.165,25.693-10.061,38.692c-0.912,4.098-2.312,9.38,3.766,13.306
	c7.531-4.55,15.876-8.909,23.315-14.478c2.407-1.802,2.584-6.738,3.533-10.307c3.383-12.719,6.617-25.478,10.046-38.184
	c0.317-1.177,1.405-2.521,2.493-3.05c4.477-2.174,9.093-4.062,13.997-6.205c-4.066,14.32-8.112,28.13-11.881,42.016
	c-2,7.368-3.798,14.819-5.075,22.337c-0.365,2.146,1.102,4.858,2.416,6.858c0.34,0.518,3.473-0.325,4.996-1.146
	c5.885-3.174,11.638-6.592,17.586-10.003c0.949,9.364-7.249,10.517-12.214,13.96c-6.673,4.628-14.074,8.234-21.286,12.047
	c-4.353,2.3-5.98,1.182-6.029-3.7C769.596,135.514,769.631,130.876,769.631,125.211z"/>
<path fill-rule="evenodd" clip-rule="evenodd" d="M2823.479,57.474c-3.342,11.118-6.668,21.398-9.499,31.812
	c-2.983,10.977-5.737,22.032-8.014,33.172c-0.474,2.315,1.588,5.148,2.604,8.098c8.192-4.546,15.32-8.5,22.521-12.494
	c0.784,6.073-2.923,8.52-7.435,10.939c-8.621,4.625-16.904,9.874-25.467,14.614c-4.893,2.708-6.521,1.595-6.553-3.893
	c-0.026-4.473-0.006-8.945-0.006-14.495c-7.163,4.382-13.608,8.358-20.089,12.275c-3.629,2.193-7.222,4.48-11.004,6.382
	c-5.165,2.597-7.721,0.993-10.126-4.217c-2.263-4.902-1.883-9.484-0.526-14.31c3.828-13.616,7.676-27.229,11.44-40.862
	c0.517-1.872,0.804-3.856,0.851-5.797c0.079-3.236-2.954-4.786-6.528-3.266c-2.854,1.215-5.576,2.736-8.604,4.244
	c-0.539-1.736-1.037-3.344-1.686-5.436c11.047-5.774,21.969-11.481,32.89-17.189c0.592,0.393,1.185,0.785,1.776,1.179
	c-0.828,4.979-1.307,10.046-2.55,14.919c-3.654,14.332-7.864,28.527-11.304,42.908c-1.084,4.528-2.589,9.955,3.638,14.003
	c7.546-4.578,15.579-9.156,23.216-14.321c1.611-1.09,1.974-4.275,2.564-6.585c3.472-13.55,6.719-27.159,10.381-40.656
	c0.516-1.902,2.618-3.78,4.463-4.832C2814.355,61.433,2818.589,59.748,2823.479,57.474z"/>
<path fill-rule="evenodd" clip-rule="evenodd" d="M2291.258,125.146c-5.145,3.22-9.721,6.168-14.379,8.979
	c-4.746,2.861-9.611,5.525-14.358,8.385c-9.833,5.923-13.05,0.254-13.601-8.543c-0.353-5.628,1.86-11.488,3.314-17.144
	c2.831-11.013,5.95-21.951,8.912-32.932c0.296-1.098,0.434-2.265,0.466-3.404c0.165-5.849-1.815-7.084-7.224-4.5
	c-2.64,1.262-5.233,2.619-9.216,4.62c0.757-2.971,0.634-5.932,1.824-6.62c10.253-5.928,20.744-11.446,31.165-17.087
	c0.596,0.44,1.192,0.88,1.789,1.32c-0.803,4.646-1.297,9.37-2.465,13.922c-3.674,14.323-7.767,28.54-11.318,42.892
	c-0.897,3.627-0.744,7.651-0.271,11.391c0.128,1.009,3.789,2.798,4.826,2.268c7.391-3.781,14.599-7.945,21.662-12.316
	c1.241-0.769,1.766-3.02,2.214-4.695c3.908-14.601,7.606-29.26,11.709-43.805c0.542-1.924,2.734-3.786,4.629-4.837
	c3.543-1.966,7.427-3.314,12.07-5.307c-1.777,6.228-3.434,11.736-4.92,17.291c-4.159,15.536-8.397,31.056-12.188,46.683
	c-0.506,2.086,1.07,4.97,2.408,7.008c0.339,0.517,3.625-0.496,5.292-1.333c5.501-2.763,10.88-5.767,16.341-8.696
	c1.593,3.713,0.588,6.029-2.387,7.758c-9.577,5.568-19.159,11.129-28.664,16.818c-4.943,2.959-7.277,3.003-8.15-5.008
	c-0.328-3.022,0.601-6.174,0.863-9.273C2291.682,128.042,2291.446,127.078,2291.258,125.146z"/>
<path fill-rule="evenodd" clip-rule="evenodd" d="M271.287,74.517c-5.604-0.617-10.014-1.546-14.408-1.477
	c-5.679,0.088-9.708,3.412-12.325,8.35c-2.192,4.138-4.24,8.351-6.411,12.647c-3.709-1.61-4.236-4.066-2.907-7.331
	c2.697-6.626,5.09-13.387,8.045-19.895c3.166-6.974,8.258-9.129,15.549-7.865c5.473,0.949,11.036,1.716,16.574,1.832
	c3.953,0.084,7.931-1.046,12.728-1.757c2.292,3.229-0.852,6.369-3.127,8.849c-11.174,12.171-19.039,26.062-22.904,42.127
	c-1.295,5.382-2.138,10.832,0.583,16.194c3.075,6.06,8.442,7.41,14.294,3.923c9.057-5.396,15.381-13.315,20.549-22.128
	c7.488-12.769,12.445-26.393,11.072-41.579c-0.293-3.237-0.883-6.466-1.592-9.642c-0.587-2.624-0.626-4.472,2.744-4.997
	c1.882-0.293,3.616-1.444,5.46-2.083c7.109-2.463,7.844-1.94,8.419,5.721c1.21,16.113-3.877,30.537-11.356,44.503
	c-5.973,11.152-13.174,21.348-22.811,29.426c-6.451,5.408-13.627,10.246-21.162,13.948c-4.114,2.021-9.684,1.699-14.538,1.415
	c-4.649-0.272-7.702-6.247-8.171-13.102c-1.11-16.234,6.127-29.428,14.955-42.078C263.96,84.625,267.49,79.812,271.287,74.517z"/>
<path fill-rule="evenodd" clip-rule="evenodd" d="M1219.124,395.954c0-7.543,0-13.487,0-20.253
	c-7.61,5.561-14.521,10.604-21.423,15.661c-0.532,0.39-0.951,0.942-1.503,1.294c-6.866,4.385-12.281,1.862-12.498-6.228
	c-0.516-19.259,2.272-38.208,11.534-55.128c7.413-13.543,19.37-22.895,35.764-23.165c6.828-0.112,13.697,2.276,21.02,3.613
	c-11.276,15.078-11.021,33.061-16.353,49.228c-1.066,3.233-2.061,6.581-2.365,9.941c-0.172,1.906,0.678,4.351,1.951,5.749
	c0.61,0.671,3.47-0.145,4.965-0.938c5.287-2.809,10.424-5.899,15.84-9.011c1.381,4.472,0.398,6.99-3.612,9.405
	c-8.095,4.876-15.589,10.738-23.547,15.858C1226.158,393.744,1222.778,394.509,1219.124,395.954z M1202.046,379.238
	c4.815-3.604,10.107-7.125,14.845-11.278c2.654-2.327,5.355-5.404,6.358-8.659c3.2-10.383,5.65-20.997,8.319-31.541
	c1.639-6.475,1.344-6.869-5.309-8.56c-9.405-2.392-14.354-0.676-18.547,7.81c-6.468,13.092-10.221,27.02-11.123,41.678
	C1196.321,373.059,1197.637,376.429,1202.046,379.238z"/>
<path fill-rule="evenodd" clip-rule="evenodd" d="M1403.097,375.543c-8.18,6.14-15.19,11.794-22.648,16.778
	c-2.487,1.662-6.633,2.901-9.069,1.937c-1.984-0.786-3.485-5.115-3.594-7.935c-0.73-19.108,2.221-37.86,11.243-54.682
	c7.399-13.795,19.464-23.242,36.068-23.505c6.806-0.107,13.651,2.299,21.052,3.668c-10.94,13.689-10.576,30.224-15.46,45.005
	c-1.526,4.617-2.669,9.402-3.459,14.198c-0.283,1.717,0.498,4.212,1.723,5.365c0.835,0.786,3.549,0.36,4.962-0.391
	c5.422-2.881,10.657-6.112,16.147-9.321c1.306,4.341,0.482,7-3.259,9.323c-8.03,4.986-15.63,10.662-23.613,15.729
	c-2.878,1.826-6.352,2.716-10.093,4.256C1403.097,388.61,1403.097,382.527,1403.097,375.543z M1386.061,379.275
	c4.892-3.7,10.299-7.34,15.132-11.627c2.629-2.332,5.205-5.48,6.207-8.75c3.134-10.232,5.535-20.69,8.166-31.075
	c1.645-6.493,1.358-6.9-5.249-8.598c-9.386-2.41-14.357-0.676-18.603,7.719c-6.606,13.06-10.197,27.028-11.117,41.677
	C1380.337,372.749,1381.417,376.1,1386.061,379.275z"/>
<path fill-rule="evenodd" clip-rule="evenodd" d="M750.375,375.997c-1.669,2.2-2.898,5.088-5.083,6.482
	c-10.092,6.444-21.007,11.372-32.919,12.94c-10.277,1.354-20.647,1.537-29.876-5c-6.829-4.837-9.786-11.818-10.743-19.479
	c-2.974-23.789,2.327-45.739,15.793-65.679c10.905-16.146,26.187-26.314,44.962-29.873c9.709-1.841,20.441-2.441,29.469,4.532
	c2.828,2.184,3.892,4.246,2.384,7.734c-2.45,5.668-4.349,11.577-6.887,17.201c-0.833,1.845-2.929,3.119-4.042,4.245
	c-1.452-6.39-1.862-12.501-4.302-17.651c-2.206-4.659-6.998-7.651-12.41-9.019c-7.474-1.889-13.439,1.812-19.266,5.287
	c-11.771,7.02-18.688,18.102-23.422,30.515c-4.866,12.76-8.004,26.026-7.325,39.797c0.682,13.847,6.751,26.429,20.543,30.195
	c6.509,1.777,12.533,0.175,18.207-1.913c8.062-2.966,15.648-7.227,23.438-10.935C749.389,375.585,749.882,375.791,750.375,375.997z"
	/>
<path fill-rule="evenodd" clip-rule="evenodd" d="M1979.887,311.991c-11.19,17.009-11.627,36.322-17.195,53.999
	c-1.146,3.638-3.219,8.477,0.877,10.726c1.877,1.03,6.147-1.914,9.15-3.419c3.766-1.888,7.344-4.147,11.308-6.421
	c1.322,4.06,0.858,6.926-3.13,9.386c-8.871,5.47-17.418,11.462-26.215,17.057c-1.779,1.131-4.078,1.443-7.219,2.496
	c0-7.205,0-13.276,0-20.031c-3.895,2.831-7.744,5.797-11.764,8.511c-4.934,3.333-9.743,7.033-15.104,9.493
	c-4.561,2.093-7.377,0.357-7.803-4.493c-0.582-6.63-0.924-13.458,0.01-20.005c1.768-12.382,4.33-24.606,9.666-36.169
	c4.543-9.844,12.846-15.274,21.329-20.888C1955.837,304.267,1967.6,309.347,1979.887,311.991z M1924.679,367.911
	c0,1.894-0.155,2.923,0.025,3.888c1.22,6.502,4.804,8.063,10.197,4.274c4.278-3.006,8.542-6.091,12.442-9.557
	c1.844-1.639,3.443-4.082,4.088-6.451c2.649-9.732,4.847-19.586,7.291-29.375c2.482-9.942,2.524-9.933-7.688-11.813
	c-6.738-1.241-10.734,0.323-14.087,6.437C1929.532,338.839,1926.563,353.69,1924.679,367.911z"/>
<path fill-rule="evenodd" clip-rule="evenodd" d="M1732.254,367.131c1.405,4.894-0.422,7.693-4.329,10.101
	c-8.043,4.957-15.742,10.468-23.74,15.5c-2.216,1.395-4.985,1.906-8.08,3.035c0-7.156,0-13.292,0-20.318
	c-6.048,4.498-11.796,8.846-17.628,13.077c-2.624,1.903-5.212,4.122-8.178,5.235c-6.295,2.363-9.363-0.07-9.672-6.929
	c-0.673-14.927,2.171-29.284,6.19-43.601c4.855-17.293,16.505-28.131,32.463-34.139c5.317-2.002,12.169,0.055,18.317,0.297
	c0.629,0.025,1.236,0.395,1.871,0.498c9.1,1.494,8.646,1.616,4.764,9.217c-3.185,6.234-4.705,13.38-6.516,20.238
	c-2.615,9.906-4.486,20.019-7.373,29.837c-1.176,3.997-0.347,6.293,2.955,8.586C1719.529,374.271,1725.876,370.709,1732.254,367.131
	z M1673.634,367.836c0,1.497-0.383,3.131,0.09,4.459c0.71,1.995,1.612,4.431,3.213,5.428c1.147,0.715,3.892-0.136,5.363-1.124
	c4.329-2.908,8.592-5.995,12.45-9.487c2.099-1.898,4.029-4.554,4.816-7.227c3.115-10.587,5.722-21.323,8.574-31.989
	c1.806-6.755,1.6-7.252-5.122-8.791c-10.556-2.418-13.78-0.121-17.264,5.85C1678.067,338.128,1674.895,352.753,1673.634,367.836z"/>
<path fill-rule="evenodd" clip-rule="evenodd" d="M2854.415,377.84c6.255-3.639,12.412-7.221,18.725-10.893
	c1.315,4.47,0.365,7.401-3.79,9.933c-8.349,5.085-16.24,10.916-24.509,16.141c-2.146,1.356-4.99,1.609-7.738,2.438
	c0-7.013,0-13.046,0-19.847c-3.248,2.323-6.238,4.628-9.392,6.681c-6.353,4.137-12.685,8.326-19.25,12.104
	c-2.91,1.674-5.461-0.023-5.747-3.188c-0.625-6.886-1.673-13.934-0.845-20.708c1.498-12.254,4.295-24.27,9.214-35.809
	c3.836-8.999,10.508-14.893,18.229-19.98c5.864-3.865,11.766-8.091,19.463-6.784c5.776,0.981,11.562,1.966,17.253,3.329
	c0.913,0.219,2.204,3.266,1.878,3.603c-7.52,7.729-7.353,18.272-10.145,27.648c-2.642,8.873-4.051,18.109-6.568,27.025
	C2850.125,373.31,2851.088,375.533,2854.415,377.84z M2837.594,317.957c-5.205,0.573-8.764,3.208-11.291,7.657
	c-6.381,11.231-9.305,23.573-11.539,36.078c-0.722,4.039-0.53,8.409,0.14,12.48c0.687,4.174,3.636,5.033,7.38,2.798
	c2.508-1.498,5.24-2.788,7.362-4.729c3.831-3.503,9.017-6.824,10.553-11.284c4.06-11.78,6.555-24.109,9.413-36.281
	c0.313-1.331-0.699-4.054-1.716-4.421C2844.57,319.055,2840.958,318.644,2837.594,317.957z"/>
<path fill-rule="evenodd" clip-rule="evenodd" d="M1523.105,368.802c1.164,3.701,0.532,5.976-2.764,8.088
	c-7.966,5.105-15.481,10.911-23.445,16.019c-2.104,1.35-5.23,1.671-7.774,1.402c-0.705-0.075-1.254-3.949-1.449-6.118
	c-1.104-12.257,4.016-23.421,6.404-35.061c1.536-7.484,3.787-14.82,5.381-22.295c0.36-1.688-0.163-4.135-1.259-5.348
	c-0.647-0.717-3.544-0.21-4.864,0.632c-5.774,3.68-11.314,7.724-16.992,11.558c-6.07,4.099-5.784,11.087-7.493,17.001
	c-2.844,9.842-4.95,19.901-7.212,29.904c-0.753,3.329-2.228,5.572-5.775,6.288c-2.529,0.511-4.983,1.394-8.383,2.373
	c1.5-6.523,2.711-12.466,4.244-18.323c3.79-14.474,7.758-28.899,11.563-43.368c0.412-1.566,0.547-3.348,0.254-4.925
	c-0.449-2.41-1.347-4.397-4.677-2.876c-3.208,1.465-6.657,2.402-9.981,3.564c-0.954-3.474,0.062-5.882,3.408-7.644
	c6.499-3.42,12.767-7.28,19.285-10.66c1.882-0.976,4.291-0.932,7.798-1.617c-1.265,7.391-2.347,13.712-3.626,21.188
	c3.176-1.758,5.784-3.087,8.276-4.604c7.798-4.745,15.456-9.729,23.389-14.231c2.009-1.141,4.838-0.835,7.29-1.194
	c0.253,2.562,1.171,5.271,0.638,7.656c-1.771,7.93-4.34,15.681-6.087,23.614c-2.45,11.126-4.556,22.335-6.496,33.562
	c-0.299,1.732,1.075,3.754,1.875,6.268C1511.192,375.801,1516.925,372.433,1523.105,368.802z"/>
<path fill-rule="evenodd" clip-rule="evenodd" d="M1051.317,201.734c2.664-3.644,5.187-7.407,8.094-10.845
	c0.729-0.862,2.787-1.141,4.083-0.894c6.048,1.152,12.247,2.415,17.629-1.402c6.351-4.505,10.336-11.111,12.452-18.468
	c5.568-19.35,10.811-38.795,16.024-58.245c2.651-9.894,5.152-19.838,7.271-29.855c0.45-2.131-0.642-4.936-1.874-6.896
	c-0.465-0.739-3.442-0.303-5.095,0.194c-3.244,0.977-6.363,2.37-9.819,3.7c-1.015-4.015-0.584-6.516,3.69-8.268
	c8.895-3.646,17.505-7.979,26.287-11.908c1.529-0.685,3.327-0.771,6.678-1.498c-1.902,9.763-3.273,18.409-5.305,26.897
	c-5.11,21.345-10.2,42.704-15.919,63.889c-3.85,14.258-10.179,27.407-20.157,38.683c-6.533,7.382-13.668,13.719-23.586,15.331
	c-6.456,1.05-13.136,0.725-19.716,1.016C1051.809,202.688,1051.563,202.212,1051.317,201.734z"/>
<path fill-rule="evenodd" clip-rule="evenodd" d="M2908.629,80.261c0.188,17.301-4.46,33.303-15.643,46.43
	c-9.121,10.708-21.176,17.592-35.793,18.15c-8.84,0.338-15.523-5.948-16.547-14.859c-2.373-20.671,2.507-39.722,16.125-55.229
	c10.089-11.489,23.74-17.966,39.826-16.798c6.06,0.44,11.686,7.557,12.014,14.808C2908.724,75.257,2908.629,77.761,2908.629,80.261z
	 M2854.635,114.863c0,2.163-0.284,4.372,0.055,6.481c0.906,5.645,2.788,10.849,8.845,12.932c5.583,1.921,10.148-0.042,14.274-3.99
	c12.679-12.134,16.636-27.812,17.602-44.427c0.248-4.269-1.289-9.265-3.592-12.929c-5.019-7.981-16.521-6.834-23.131,1.653
	C2859.458,86.439,2854.696,99.824,2854.635,114.863z"/>
<path fill-rule="evenodd" clip-rule="evenodd" d="M707.63,79.881c-0.169,17.901-4.738,34.646-16.84,47.942
	c-8.994,9.882-20.647,16.663-34.745,17.03c-9.34,0.242-15.259-5.782-16.478-15.119c-2.545-19.502,2.234-37.149,14.142-52.436
	c10.049-12.899,23.689-19.948,40.479-19.33c7.946,0.292,13.023,6.582,13.429,15.914C707.704,75.879,707.63,77.882,707.63,79.881z
	 M694.782,87.217c-1.387-4.775-2.332-9.74-4.284-14.271c-1.948-4.521-7.026-6.283-11.852-5.097
	c-8.73,2.146-13.244,8.908-17.458,15.98c-6.035,10.133-7.728,21.531-8.263,32.907c-0.22,4.676,1.975,9.997,4.51,14.146
	c3.76,6.153,13.123,5.375,19.707-1.015C689.069,118.291,693.143,103.617,694.782,87.217z"/>
<path fill-rule="evenodd" clip-rule="evenodd" d="M1763.384,118.768c0.571,4.059-0.153,6.706-3.666,8.689
	c-9.22,5.205-18.174,10.881-27.389,16.095c-3.882,2.196-8.062-0.038-9.74-4.143c-3.211-7.848-0.957-15.411,1.115-22.859
	c7.489-26.92,15.085-53.812,22.933-80.63c4.39-15.002,16.085-23.98,29.21-30.058c5.83-2.699,13.948-0.456,21.495-0.456
	c-2.327,3.122-4.39,6.213-6.825,8.976c-0.811,0.92-2.653,1.548-3.894,1.375c-13.542-1.878-21.021,2.368-25.067,15.652
	c-6.579,21.598-12.706,43.336-18.872,65.058c-2.128,7.495-3.719,15.142-5.725,22.673c-1,3.756,0.278,6.854,3.247,8.514
	c1.625,0.908,4.617,0.389,6.554-0.473C1752.246,124.739,1757.504,121.79,1763.384,118.768z"/>
<path fill-rule="evenodd" clip-rule="evenodd" d="M1748.065,4.425c-3.04,4.085-5.066,7.215-7.548,9.928
	c-0.903,0.986-3.119,1.7-4.351,1.312c-10.393-3.272-19.49,2.577-23.354,12.074c-3.231,7.945-5.527,16.298-7.861,24.576
	c-5.651,20.039-11.085,40.14-16.602,60.217c-0.56,2.036-1.212,4.058-1.599,6.128c-0.694,3.715,0.142,7.383,3.518,9.039
	c1.796,0.882,4.884,0.1,6.996-0.826c5.351-2.348,10.479-5.201,15.989-8.001c0.663,4.103-0.291,6.905-4.076,8.962
	c-8.593,4.67-16.921,9.828-25.518,14.492c-6.876,3.729-10.425,1.472-12.151-5.966c-1.979-8.526,1.074-16.155,3.221-23.893
	c7.086-25.542,14.417-51.017,21.881-76.451c4.412-15.032,16.091-23.954,29.182-30.153C1731.703,3.064,1739.761,4.801,1748.065,4.425
	z"/>
<path fill-rule="evenodd" clip-rule="evenodd" d="M893.188,4.9c-3.186,3.949-5.528,7.042-8.113,9.916
	c-0.606,0.676-2.165,1.083-3.059,0.824c-11.872-3.429-21.012,3.195-24.421,13.709c-4.958,15.285-9.444,30.727-13.917,46.163
	c-3.706,12.794-7.348,25.617-10.49,38.556c-0.997,4.104-3.723,9.086,1.03,12.724c1.44,1.104,4.285,1.725,5.856,1.064
	c6.127-2.574,12.001-5.751,18.203-8.819c0.812,3.578,0.155,6.23-3.288,8.211c-8.901,5.118-17.595,10.601-26.529,15.659
	c-6.167,3.492-12.014-0.273-11.679-8.003c0.332-7.631,1.052-15.435,3.047-22.77c6.952-25.553,14.555-50.93,21.86-76.387
	c3.397-11.842,12.596-18.72,21.651-25.811c6.423-5.029,13.386-6.969,21.452-5.114C887.002,5.331,889.428,4.9,893.188,4.9z"/>
<path fill-rule="evenodd" clip-rule="evenodd" d="M1659.379,122.411c0.887,3.474-0.016,5.771-3.35,7.736
	c-11.168,6.584-22.706,12.791-35.539,14.463c-16.141,2.103-23.868-3.898-22.69-23.206c0.744-12.216,3.697-24.067,9.653-35.12
	c8.439-15.659,21.487-24.729,38.549-28.206c4.385-0.894,8.894,0.469,11.757,4.541c2.921,4.154,2.732,8.802,0.846,13.152
	c-4.073,9.393-12.059,15.334-20.009,21.067c-7.002,5.051-14.439,9.494-21.648,14.26c-5.564,3.68-6.654,6.692-4.811,12.825
	c2.003,6.661,5.723,10.491,11.646,9.791c6.543-0.773,13.007-2.737,19.323-4.755C1648.663,127.187,1653.967,124.624,1659.379,122.411
	z M1614.457,105.117c6.752-4.711,12.867-8.189,17.975-12.788c4.169-3.752,7.556-8.585,10.494-13.421
	c2.238-3.685,0.399-7.367-2.849-9.968c-2.896-2.32-5.839-1.066-7.918,1.098c-3.551,3.694-7.165,7.515-9.799,11.859
	C1618.35,88.516,1615.375,95.699,1614.457,105.117z"/>
<path fill-rule="evenodd" clip-rule="evenodd" d="M2459.399,120.089c0.797,4.349-1.278,6.969-4.395,8.685
	c-9.294,5.117-18.656,10.115-28.077,14.996c-5.126,2.656-7.876,1.401-10.685-3.597c-4.656-8.288-2.412-16.562-0.319-24.819
	c2.715-10.714,5.719-21.354,8.493-32.054c0.945-3.645-0.16-5.72-4.468-5.446c-4.138,0.262-8.305,0.056-12.896,0.056
	c2.441-4.705,5.762-6.321,10.805-6.113c9.446,0.391,9.474,0.116,11.688-8.736c0.79-3.158,1.92-6.311,2.142-9.519
	c0.754-10.864,9.322-12.095,17.508-14.489c-2.306,9.601-4.329,19.076-6.94,28.387c-1.05,3.743,0.21,4.479,3.354,4.474
	c7.645-0.013,15.289-0.004,23.127-0.004c-4.287,7.075-11.344,6.687-17.82,6.904c-11.658,0.392-11.729,0.132-14.279,11.538
	c-2.092,9.36-4.722,18.679-5.794,28.164c-0.958,8.483,5.201,12.163,12.979,8.724
	C2448.989,124.953,2454.094,122.529,2459.399,120.089z"/>
<path fill-rule="evenodd" clip-rule="evenodd" d="M2953.835,71.937c9.894,0,18.47,0,27.556,0
	c-4.036,6.689-10.467,6.084-16.213,6.913c-2.447,0.353-5.032,0.354-7.479-0.005c-4.366-0.642-6.215,1.294-7.079,5.355
	c-2.303,10.826-4.791,21.614-7.319,32.391c-1.142,4.863,1.175,8.562,4.701,10.818c1.849,1.183,5.461,0.517,7.916-0.343
	c5.526-1.934,10.828-4.508,16.222-6.821c1.038,8.704-6.855,9.432-11.663,12.557c-5.732,3.726-12.188,6.319-18.075,9.831
	c-10.175,6.067-15.484-0.645-15.462-9.905c0.021-8.848,2.277-17.754,4.123-26.514c1.674-7.944,4.088-15.734,6.235-23.576
	c0.859-3.139,0.024-4.802-3.477-4.744c-4.46,0.073-8.922,0.018-13.915,0.018c2.672-4.354,5.572-6.926,10.597-6.052
	c1.778,0.31,3.665-0.059,5.487,0.074c2.944,0.215,4.256-0.609,4.854-3.957c1.172-6.543,3.201-12.936,4.939-19.372
	c0.801-2.966,2.234-5.054,5.697-5.863c3.536-0.825,6.832-2.682,10.757-4.304C2959.385,49.814,2956.723,60.427,2953.835,71.937z"/>
<path fill-rule="evenodd" clip-rule="evenodd" d="M1886.139,77.91c2.824-6.884,8.344-6.393,13.579-5.928
	c4.439,0.394,6.894-0.685,7.832-5.543c1.198-6.202,3.71-12.154,4.829-18.363c0.593-3.294,2.152-4.322,4.832-5.227
	c3.514-1.187,6.906-2.729,11.097-4.421c-2.858,11.389-5.543,22.082-8.364,33.322c9.613,0,18.227,0,27.393,0
	c-3.728,6.982-10.252,6.177-15.894,7.08c-2.761,0.442-5.799,0.644-8.446-0.054c-4.21-1.109-5.264,1.296-5.979,4.314
	c-2.661,11.24-5.41,22.466-7.729,33.779c-0.907,4.426,1.063,8.63,4.925,10.768c1.893,1.048,5.228,0.395,7.564-0.448
	c5.581-2.015,10.958-4.599,16.314-6.908c1.078,8.719-6.752,9.354-11.429,12.461c-5.683,3.774-12.221,6.236-18.069,9.792
	c-10.589,6.438-14.859-1.052-15.96-10.081c-1.09-8.938,2.604-17.053,4.507-25.457c1.865-8.242,4.167-16.386,6.254-24.578
	c0.827-3.244-0.459-4.638-3.813-4.54C1895.17,78.008,1890.753,77.91,1886.139,77.91z"/>
<path fill-rule="evenodd" clip-rule="evenodd" d="M2987.157,77.91c2.902-6.813,8.242-6.335,13.433-5.969
	c4.212,0.297,6.668-0.712,7.442-5.587c0.99-6.231,3.003-12.306,4.686-18.417c0.693-2.518,1.729-4.522,4.899-5.21
	c3.58-0.776,6.948-2.529,11.359-4.223c-2.062,7.958-3.856,15.132-5.783,22.271c-3.009,11.145-3.046,11.134,8.312,11.134
	c5.448,0,10.896,0,16.499,0c-3.354,7.464-16.873,7.589-29.027,6.479c-1.749,6.657-3.587,13.477-5.324,20.321
	c-1.32,5.201-3.092,10.383-3.56,15.671c-0.327,3.69,0.475,7.915,2.128,11.223c1.577,3.155,5.022,4.39,8.937,2.465
	c5.558-2.732,11.283-5.125,17.012-7.697c1.69,4.492-0.285,6.637-4.211,8.58c-9.36,4.635-18.442,9.827-27.705,14.663
	c-5.159,2.694-7.293,1.91-10.513-3.078c-5.01-7.762-2.621-15.658-0.644-23.597c2.907-11.68,5.513-23.441,8.729-35.034
	c1.025-3.695-0.327-4.006-3.109-3.997C2996.275,77.92,2991.834,77.91,2987.157,77.91z"/>
<path fill-rule="evenodd" clip-rule="evenodd" d="M2382.763,38.759c-2.509,10.117-4.584,19.608-7.3,28.913
	c-1.131,3.875,0.288,4.271,3.342,4.252c7.658-0.048,15.316-0.016,23.768-0.016c-8.506,9.594-19.177,6.204-29.794,7.122
	c-1.6,6.076-3.421,12.779-5.119,19.514c-1.312,5.203-2.977,10.394-3.521,15.688c-0.361,3.534,0.253,7.57,1.729,10.786
	c1.736,3.782,5.336,5.028,9.584,2.963c5.558-2.702,11.219-5.192,16.835-7.773c1.269,4.285-0.38,6.695-4.039,8.551
	c-9.173,4.649-18.167,9.646-27.3,14.377c-6.618,3.428-9.428,1.989-12.412-4.855c-2.686-6.157-2.004-12.145-0.488-18.244
	c3.176-12.783,6.252-25.597,9.795-38.279c0.937-3.354-0.152-3.82-2.777-3.836c-4.494-0.027-8.989-0.008-14.056-0.008
	c2.322-3.788,4.553-6.228,9.245-6.101c10.153,0.274,10.164,0.06,12.91-9.957c0.516-1.883,1.252-3.759,1.411-5.678
	c0.763-9.165,5.369-14.751,14.595-16.291C2380.113,39.729,2381.012,39.317,2382.763,38.759z"/>
<path fill-rule="evenodd" clip-rule="evenodd" d="M2461.196,371.723c0.795,3.609,0.789,6.038-2.797,8.098
	c-10.032,5.762-19.816,11.835-31.362,14.381c-13.027,2.872-21.466-2.841-21.548-16.614c-0.107-17.842,3.104-34.726,13.272-49.471
	c6.911-10.021,16.256-18.055,28.792-19.966c11.299-1.722,15.193,5.204,12.442,16.723c-1.893,7.927-7.672,13.786-13.85,18.716
	c-7.901,6.305-16.36,11.909-24.526,17.886c-4.248,3.108-5.449,10.693-2.697,16.117c2.505,4.939,8.569,7.854,14.205,5.971
	c6.921-2.313,13.622-5.3,20.375-8.1C2456.037,374.412,2458.45,373.068,2461.196,371.723z M2419.664,354.501
	c9.013-5.363,16.638-10.229,21.885-17.803c2.311-3.335,4.234-7.39,4.761-11.327c0.291-2.186-2.32-5.164-4.32-7.045
	c-0.77-0.726-3.984,0.012-5.209,1.084C2426.597,328.322,2422.975,340.501,2419.664,354.501z"/>
<path fill-rule="evenodd" clip-rule="evenodd" d="M423.515,372.98c0.78,3.246-0.407,5.592-3.882,7.596
	c-9.602,5.537-18.946,11.338-30.131,13.498c-13.999,2.704-21.332-1.51-21.567-16.026c-0.343-21.137,4.054-41.427,19.567-57.404
	c6.241-6.427,13.934-11.078,22.848-12.459c9.586-1.484,15.257,4.554,12.659,15.763c-2.349,10.133-10.592,16.198-17.817,22.505
	c-6.712,5.858-14.566,10.406-21.914,15.538c-2.812,1.965-3.591,9.443-1.974,14.188c2.359,6.925,8.852,9.112,14.55,7.067
	C405.023,379.954,414.124,376.477,423.515,372.98z M382.62,353.177c9.936-5.321,18.787-10.865,24.214-20.125
	c1.424-2.431,2.736-5.542,2.464-8.17c-0.247-2.379-2.299-5.675-4.35-6.44c-1.951-0.729-5.675,0.558-7.326,2.232
	c-6.638,6.732-10.254,15.299-12.966,24.234C383.832,347.621,383.291,350.419,382.62,353.177z"/>
<path fill-rule="evenodd" clip-rule="evenodd" d="M2791.375,372.373c0.875,3.485-0.033,5.726-3.314,7.775
	c-9.858,6.16-19.848,11.988-31.397,14.196c-13.399,2.562-20.276-2.81-20.891-15.673c-0.816-17.127,2.704-33.528,11.818-48.312
	c7.275-11.799,17.577-19.935,31.421-22.265c7.955-1.339,13.117,4.288,12.43,12.467c-0.524,6.246-3.431,12.07-8.271,16.166
	c-9.868,8.35-19.747,16.784-30.356,24.12c-5.696,3.938-5.602,10.688-3.344,16.349c2.231,5.599,7.918,8.377,13.848,6.276
	c8.709-3.085,17.166-6.882,25.737-10.36C2789.806,372.809,2790.602,372.616,2791.375,372.373z M2750.213,352.862
	c0.416,0.355,0.832,0.711,1.248,1.066c3.98-2.79,8.453-5.093,11.824-8.488c4.697-4.732,9.123-9.945,12.595-15.607
	c2.146-3.497,1.743-8.541-2.275-11.018c-1.645-1.013-5.764-0.182-7.392,1.306C2756.588,328.915,2753.477,340.967,2750.213,352.862z"
	/>
<path fill-rule="evenodd" clip-rule="evenodd" d="M1266.5,368.238c1.88,4.674,2.824,9.413,5.409,12.954
	c5.401,7.398,13.253,6.473,19.656-1.383c5.384-6.605,6.855-13.665-3.278-21.771c-2.913-2.33-6.153-4.396-8.578-7.165
	c-7.289-8.325-5.045-22.189,3.032-31.447c4.859-5.57,10.169-10.339,18.172-11.826c7.531-1.399,13.083,0.318,17.941,6.246
	c-3.346,4.173-6.577,8.203-9.707,12.107c-2.785-2.42-4.897-5.332-7.71-6.397c-2.844-1.077-7.192-1.586-9.457-0.129
	c-6.022,3.872-7.955,9.276-5.488,13.671c1.854,3.305,4.612,6.272,7.493,8.792c4.619,4.039,10.491,6.839,12.594,13.205
	c2.846,8.613,0.03,16.304-5.091,22.931c-7.543,9.765-16.686,17.297-30.14,16.901c-8.573-0.253-16.751-8.407-16.656-16.908
	c0.01-0.88,0.417-2.106,1.068-2.569C1259.446,372.827,1263.261,370.388,1266.5,368.238z"/>
<path fill-rule="evenodd" clip-rule="evenodd" d="M447.518,390.462c-4.809,1.596-8.973,2.978-14.075,4.67
	c1.628-6.736,3.16-12.904,4.607-19.093c3.556-15.209,7.27-30.385,10.507-45.661c1.306-6.162-0.878-7.637-6.419-5.311
	c-2.526,1.061-5.092,2.027-7.91,3.144c-1.092-3.426-1.088-5.907,2.263-7.679c7.213-3.815,14.298-7.874,21.524-11.664
	c1.48-0.776,3.35-0.813,5.18-1.223c0,4.62,0,8.665,0,13.523c3.324-2.743,6.722-5.076,9.537-7.976
	c4.869-5.017,10.822-5.829,17.229-5.163c0.909,0.095,2.53,1.721,2.389,2.266c-1.453,5.6-3.201,11.121-5.015,17.155
	c-8.247-5.246-15.915-5.384-23.079,0.335c-1.812,1.447-3.429,3.828-3.976,6.063c-4.369,17.862-8.467,35.791-12.612,53.708
	C447.452,388.492,447.56,389.502,447.518,390.462z"/>
<path fill-rule="evenodd" clip-rule="evenodd" d="M2909.553,321.144c4.654-3.767,8.311-6.446,11.637-9.487
	c4.051-3.704,8.818-3.936,13.865-3.789c3.309,0.096,4.078,1.763,3.335,4.528c-1.299,4.834-2.734,9.633-3.825,13.443
	c-5.828-0.676-11.346-2.466-16.405-1.596c-5.697,0.98-10.658,3.754-12.075,11.306c-3.149,16.776-7.709,33.284-11.316,49.982
	c-0.793,3.669-2.393,5.621-5.752,6.629c-2.886,0.866-5.729,1.873-9.133,2.997c3.808-15.429,7.476-30.203,11.095-44.988
	c1.586-6.479,3.194-12.958,4.565-19.485c1.096-5.22-1.584-7.487-6.553-5.742c-2.592,0.91-5.125,1.986-7.659,2.979
	c-2.448-4.7,0.558-6.956,3.753-8.733c6.426-3.575,12.967-6.95,19.544-10.242c4.407-2.206,6.053-1.136,5.961,3.774
	C2910.547,314.954,2910.06,317.183,2909.553,321.144z"/>
<path fill-rule="evenodd" clip-rule="evenodd" d="M494.188,328.288c-1.233-4.478-0.363-6.743,3.502-8.541
	c6.647-3.093,12.861-7.104,19.367-10.521c1.773-0.932,3.941-1.111,6.14-1.692c0,4.709,0,8.754,0,13.395
	c4.426-3.469,8.742-6.909,13.121-10.269c5.11-3.921,10.572-3.427,16.417-1.347c-1.773,6.029-3.46,11.768-5.311,18.062
	c-7.68-4.601-15.105-5.578-22.248-0.484c-1.917,1.367-3.911,3.596-4.444,5.777c-4.249,17.391-8.212,34.853-12.125,52.323
	c-0.898,4.015-2.714,6.669-6.99,7.497c-2.521,0.489-4.931,1.559-8.205,2.635c1.965-8.049,3.803-15.547,5.625-23.049
	c3.187-13.128,6.365-26.258,9.537-39.389c0.076-0.317,0.021-0.665,0.052-0.996c0.756-8.157-0.838-9.299-8.373-6.008
	C498.341,326.518,496.42,327.33,494.188,328.288z"/>
<path fill-rule="evenodd" clip-rule="evenodd" d="M851.164,328.088c-0.539-2.165-0.962-3.863-1.493-6.003
	c7.769-4.078,15.513-8.257,23.38-12.188c1.901-0.95,4.212-1.08,6.335-1.587c0.407,2.348,1.051,4.686,1.138,7.044
	c0.056,1.528-0.702,3.086-0.313,5.286c3.699-3.002,7.538-5.85,11.06-9.048c4.066-3.694,8.844-3.885,13.88-3.717
	c3.348,0.112,3.964,1.865,3.204,4.6c-1.304,4.692-2.7,9.358-4.162,14.396c-2.61-0.867-5.146-1.764-7.716-2.551
	c-3.614-1.108-6.954-1.003-10.742,0.389c-6.286,2.311-8.881,6.525-10.188,12.765c-3.37,16.078-7.359,32.027-10.807,48.091
	c-0.772,3.6-2.011,5.748-5.822,6.452c-2.833,0.523-5.525,1.809-8.966,2.99c2.43-9.917,4.768-19.422,7.086-28.931
	c2.85-11.693,5.795-23.365,8.403-35.111c0.402-1.813-0.23-4.461-1.419-5.812c-0.795-0.903-3.518-0.563-5.205-0.122
	C856.327,325.684,853.993,326.922,851.164,328.088z"/>
<path fill-rule="evenodd" clip-rule="evenodd" d="M1796.108,29.526c5.265-3.606,9.812-6.721,14.616-10.013
	c2.741,4.69,5.261,9.002,8.223,14.069c-4.102,2.934-8.187,6.115-12.588,8.771c-0.821,0.496-3.548-0.692-4.299-1.828
	C1799.846,37.18,1798.183,33.469,1796.108,29.526z"/>
<path fill-rule="evenodd" clip-rule="evenodd" d="M1138.593,19.391c2.241,3.946,4.058,7.375,6.099,10.663
	c1.65,2.658,1.165,4.458-1.561,5.906c-1.71,0.908-3.256,2.125-4.954,3.06c-2.314,1.274-6.603,3.677-6.777,3.416
	c-2.562-3.842-4.863-7.937-6.499-12.248c-0.349-0.918,1.953-3.273,3.465-4.373C1131.479,23.549,1134.883,21.684,1138.593,19.391z"/>
<path fill-rule="evenodd" clip-rule="evenodd" d="M942.154,269.886c2.246,4.578,4.341,8.829,6.404,13.095
	c0.13,0.27,0.017,0.656,0.017,1.273c-3.855,2.938-7.83,5.966-11.717,8.927C926.655,284.082,928.518,276.195,942.154,269.886z"/>
<path fill-rule="evenodd" clip-rule="evenodd" d="M484.314,21.782c2.057,2.882,4.188,5.386,5.677,8.227
	c0.488,0.933-0.247,3.28-1.186,4.043c-2.853,2.321-6.077,4.186-9.093,6.186C471.382,30.497,472.146,27.465,484.314,21.782z"/>
<path fill-rule="evenodd" clip-rule="evenodd" d="M455.288,40.744c-3.241-0.924-8.915-7.976-7.412-9.928
	c2.484-3.227,6.439-5.321,9.775-7.893c2.315,3.117,7.01,6.876,6.383,9.201C463.116,35.535,458.391,37.921,455.288,40.744z"/>
<path fill-rule="evenodd" clip-rule="evenodd" d="M395.632,21.669c0.789,0.677,1.314,1.067,1.771,1.527
	c8.229,8.281,6.477,10.017-3.6,15.983c-0.639,0.378-2.191,0.032-2.826-0.532c-6.687-5.937-6.453-8.619,0.949-13.816
	C393.13,23.985,394.179,22.919,395.632,21.669z"/>
<path fill-rule="evenodd" clip-rule="evenodd" d="M359.298,30.333c1.989-1.474,3.471-2.757,5.126-3.751
	c2.14-1.286,5.75-3.816,6.397-3.232c2.424,2.189,4.112,5.326,5.578,8.35c0.37,0.763-0.84,2.694-1.782,3.627
	c-6.287,6.224-8.471,5.998-13.196-1.156C360.718,33.104,360.176,31.933,359.298,30.333z"/>
</svg>
