<?xml version="1.0" encoding="utf-8"?>
<!-- Generator: Adobe Illustrator 16.0.0, SVG Export Plug-In . SVG Version: 6.00 Build 0)  -->
<!DOCTYPE svg PUBLIC "-//W3C//DTD SVG 1.1//EN" "http://www.w3.org/Graphics/SVG/1.1/DTD/svg11.dtd">
<svg version="1.1" id="Lag_1" xmlns="http://www.w3.org/2000/svg" xmlns:xlink="http://www.w3.org/1999/xlink" x="0px" y="0px"
	 width="1871.707px" height="592.242px" viewBox="0 0 1871.707 592.242" enable-background="new 0 0 1871.707 592.242"
	 xml:space="preserve">
<path fill-rule="evenodd" clip-rule="evenodd" d="M42.599,99.474c-1.935,0.656-2.926,1.291-3.905,1.274
	c-4.874-0.08-7.111,3.545-7.352,7.089c-0.176,2.602,1.998,6.158,4.204,7.981c8.255,6.824,17.481,4.774,25.822,0.527
	c4.736-2.412,9.003-6.665,12.179-11.036c7.476-10.286,2.896-22.241-9.284-26.56c-16.418-5.822-30.809-0.94-44.038,8.532
	c-4.693,3.36-8.974,7.858-12.133,12.693c-9.042,13.84-2.96,26.916,8.542,35.63c12.219,9.258,26.281,10.506,41.128,8.381
	c19.011-2.722,33.692-12.455,44.784-27.455c10.957-14.817,21.16-30.209,31.314-45.599c7.948-12.045,15.683-24.119,25.839-34.58
	c8.827-9.091,18.756-15.811,31.395-20.073c-4.242-1.433-8.433-3.045-12.735-4.266c-17.637-5.008-35.758-6.551-53.871-4.987
	c-15.033,1.297-28.485,7.683-40.459,17.112c-7.767,6.116-12.381,13.84-15.251,23.257c-3.037,9.961,6.089,22.42,13.805,25.467
	c9.395,3.709,17.852,1.756,26.096-3.243c7.515-4.557,13.43-10.56,16.663-18.777c2.068-5.256,3.388-10.782-0.713-15.858
	c-4.207-5.207-10.014-5.419-15.188-2.944c-5.27,2.521-10.588,5.974-14.364,10.335c-5.394,6.229-4.465,9.649,1.451,14.644
	c0.259,0.218,0.179,0.837,0.269,1.336c-4.784-1.065-8.71-6.29-7.737-10.581c3.145-13.864,19.235-23.174,31.673-18.652
	c6.926,2.519,11.26,11.734,9.113,20.564c-5.766,23.719-32.925,35.083-52.533,22.08c-18.088-11.993-18.72-33.322-5.442-49.229
	C82.935,9.277,98.148,4.633,114.836,2.669c25.622-3.016,49.724,3.573,73.904,10.188c6.569,1.797,13.081,3.06,19.789,0.738
	c0.78-0.27,2.279-0.374,2.484-0.011c0.484,0.854,0.75,2.151,0.465,3.07c-1.213,3.905-4.305,5.11-7.826,3.94
	c-11.643-3.868-20.908,0.667-29.696,7.676c-9.823,7.833-16.368,18.191-22.052,29.055c-7.202,13.766-13.676,27.91-20.697,41.772
	c-7.1,14.017-15.709,26.963-28.568,36.464c-7.305,5.397-15.597,8.715-24.469,10.632c-15.976,3.453-31.933,3.345-47.538-1.487
	c-13.14-4.068-23.983-11.301-28.776-25.21c-4.358-12.65-0.75-23.265,7.779-32.939c9.983-11.324,23.042-15.306,37.383-15.631
	c10.019-0.227,19.172,3.602,26.072,10.75c8.579,8.888,8.76,19.824,1.034,30.175c-8.494,11.378-25.726,14.473-37.344,7.848
	c-4.09-2.332-7.033-5.666-6.867-10.992C30.128,101.8,34.417,98.175,42.599,99.474z"/>
<path fill-rule="evenodd" clip-rule="evenodd" d="M386.416,510.347c8.712-10.149,17.997-20.938,27.245-31.758
	c2.571-3.009,6.252-5.39,9.443-3.326c2.508,1.622,4.066,5.748,4.711,9.023c1.893,9.628-2.86,17.471-7.918,25.071
	c-4.697,7.062-9.437,14.097-14.121,21.168c-0.717,1.082-1.327,2.258-1.828,3.456c-1.02,2.437-3.348,5.701-0.332,7.21
	c1.76,0.882,5.889-0.714,7.625-2.49c4.205-4.306,7.607-9.392,11.395-14.113c0.936-1.166,2.106-2.145,3.698-2.701
	c-3.529,8.272-8.662,15.358-15.79,20.497c-5.532,3.988-9.575,2.387-11.813-4.241c-3.065-9.077-0.721-17.27,4.324-24.892
	c5.58-8.431,11.383-16.713,17.021-25.105c3.675-5.468,3.692-7.815-0.412-11.807c-21.742,18.941-36.63,43.115-51.476,67.905
	c-3.481-5.75-7.161-1.968-11.422-1.151c1.353-2.277,2.796-4.507,4.044-6.841c15.714-29.374,31.09-58.936,47.253-88.06
	c5.983-10.782,12.611-21.688,21.067-30.5c11.711-12.204,26.968-18.848,44.405-18.801c1.969,0.006,4.902,0.695,5.663,2.043
	c0.998,1.769,1.174,5.126,0.092,6.675c-1.493,2.138-4.415,3.613-7.21,0.835c-7.556-7.515-14.629-7.342-23.946-0.449
	c-8.847,6.544-14.86,15.319-20.012,24.596c-13.867,24.973-27.231,50.226-40.771,75.38
	C386.784,509.026,386.465,510.217,386.416,510.347z"/>
<path fill-rule="evenodd" clip-rule="evenodd" d="M1410.445,503.143c11.062-11.293,20.339-22.553,33.772-29.014
	c1.026-0.493,2.189-1.359,3.152-1.204c2.907,0.467,7.622,0.649,8.213,2.226c1.163,3.099,1.187,7.713-0.391,10.545
	c-4.674,8.389-12.967,12.761-21.652,15.996c-4.773,1.778-9.905,2.591-14.729,3.802c2.216,1.886,5.049,3.63,6.989,6.08
	c4.998,6.312,3.103,13.824,2.794,20.956c-0.15,3.489-0.637,7.384,2.954,8.869c3.488,1.442,6.013-1.121,7.795-4.309
	c1.854-3.312,4.074-6.42,6.669-10.446c1.011,7.097-6.873,16.767-12.728,17.156c-8.867,0.59-15.446-4.703-15.238-12.796
	c0.143-5.537,1.162-11.048,1.665-16.581c0.345-3.786-1.333-6.749-4.609-8.483c-1.969-1.042-3.544-0.427-5.211,1.668
	c-8.513,10.7-14.897,22.621-20.869,34.815c-0.344,0.702-0.779,1.359-1.22,2.12c-3.367-3.986-5.358-3.808-12.443,1.542
	c4.289-7.924,8.034-14.878,11.811-21.815c5.934-10.899,11.774-21.851,17.856-32.667c11.52-20.482,22.571-41.266,34.973-61.205
	c10.733-17.259,26.696-28.21,47.133-31.389c4.591-0.714,9.523,0.193,14.198,0.963c1.382,0.228,3.524,2.684,3.37,3.863
	c-0.265,2.017-1.681,4.42-3.36,5.522c-1.091,0.716-4.001-0.018-5.237-1.091c-3.718-3.227-6.848-8.259-12.523-6.272
	c-5.731,2.005-11.598,4.589-16.324,8.297c-10.238,8.032-16.826,19.285-23.143,30.389c-10.897,19.154-21.111,38.697-31.601,58.084
	C1411.923,499.85,1411.452,500.997,1410.445,503.143z M1413.824,501.647c2.229,1.179,3.013,1.977,3.661,1.879
	c10.093-1.521,19.691-4.41,27.057-11.935c2.678-2.735,5.704-6.37,2.223-10.272c-3.464-3.882-7.221-0.763-9.979,1.358
	C1429.204,488.51,1422,494.833,1413.824,501.647z"/>
<path fill-rule="evenodd" clip-rule="evenodd" d="M714.735,148.493c-3.31-3.945-5.311-3.769-12.375,1.609
	c3.572-6.465,6.615-11.937,9.626-17.427c6.284-11.462,12.512-22.954,18.833-34.396c11.366-20.57,22.105-41.529,34.394-61.535
	c10.041-16.346,24.551-28.208,43.892-32.369c5.755-1.237,11.97-0.762,17.927-0.368c1.712,0.113,4.638,2.762,4.56,4.105
	c-0.113,1.954-2.083,4.373-3.929,5.502c-2.072,1.267-4.271,0.655-5.864-2.11c-4.854-8.43-15.16-6.159-23.685-0.254
	c-12.934,8.958-20.601,22.316-28.104,35.605c-11.155,19.755-21.954,39.711-32.879,59.596c-0.116,0.211,0.108,0.609,0.26,1.33
	c4.876-5.187,9.271-10.541,14.367-15.111c6.533-5.856,12.953-11.979,21.563-15.057c3.944-1.411,7.98-1.356,9.553,2.104
	c1.246,2.742,0.872,7.432-0.745,10.038c-4.97,8.011-12.714,13-21.596,15.979c-4.875,1.635-9.937,2.715-14.806,4.016
	c2.696,2.591,6.74,4.762,7.867,7.959c1.727,4.898,1.479,10.502,1.976,15.815c0.071,0.759-0.561,1.566-0.569,2.354
	c-0.045,4.065-0.718,9.386,4.229,10.109c2.394,0.351,5.784-3.697,8.15-6.279c2.164-2.362,3.557-5.433,5.861-7.813
	c-1.278,5.888-3.731,11.125-8.717,14.602c-3.91,2.727-8.3,2.632-12.384,0.3c-4.216-2.407-7.107-6.087-7.103-11.089
	c0.007-6.101,0.698-12.198,0.851-18.304c0.043-1.716-0.374-3.697-1.266-5.131c-2.054-3.301-5.382-3.08-7.852-0.062
	c-8.646,10.563-15.595,22.124-20.862,34.71C715.669,147.494,715.15,147.949,714.735,148.493z M741.945,106.714
	c0.189,0.566,0.378,1.134,0.567,1.7c5.306-1.272,11-1.734,15.814-4.035c5.355-2.56,10.276-6.406,14.621-10.505
	c1.6-1.509,2.165-5.902,1.147-7.965c-1.405-2.848-4.938-2.689-7.8-0.821C757.094,91.097,748.103,97.339,741.945,106.714z"/>
<path fill-rule="evenodd" clip-rule="evenodd" d="M1640.243,123.688c-5.216,9.078-10.362,18.323-19.919,23.81
	c-3.151,1.81-7.943-1.056-8.188-4.781c-0.348-5.286-0.182-10.674,0.445-15.937c0.468-3.921,2.015-7.713,3.179-11.915
	c-5.416,7.16-10.368,14.211-15.874,20.8c-3.344,4.003-7.228,7.726-11.437,10.793c-5.358,3.905-10.685,1.304-12.512-5.16
	c-2.32-8.216-0.446-15.979,2.565-23.438c6.582-16.301,17.52-28.705,33.909-35.796c2.222-0.96,4.613-2.064,6.947-2.116
	c5.253-0.117,8.98,0.879,8.702,9.975c3.302-6.003,6.051-11.141,8.927-16.204c6.935-12.205,13.624-24.563,20.977-36.513
	c9.215-14.975,21.957-26.05,38.836-31.7c8.143-2.726,16.592-4.166,25.102-1.66c1.564,0.461,4.044,2.882,3.803,3.499
	c-0.894,2.282-2.471,4.54-4.386,6.057c-0.727,0.575-3.604-0.406-4.564-1.5c-3.083-3.512-5.873-7.493-11.309-6.025
	c-4.314,1.165-8.785,2.416-12.601,4.637c-11.45,6.661-18.429,17.611-24.812,28.62c-11.628,20.058-22.563,40.518-33.682,60.868
	c-5.798,10.61-11.51,21.274-16.947,32.071c-1.417,2.815-2.196,6.203-2.311,9.363c-0.158,4.376,3.194,6.162,6.315,3.152
	c4.63-4.465,8.446-9.781,12.531-14.798c1.826-2.241,3.463-4.637,5.186-6.963C1639.499,123.114,1639.871,123.401,1640.243,123.688z
	 M1626.991,87.427c-0.986-5.044-4.131-7.108-8.285-4.771c-3.099,1.743-6.208,3.895-8.505,6.561
	c-11.151,12.939-20.32,27.205-27.259,42.845c-1.18,2.659-2.5,5.437-2.777,8.255c-0.191,1.95,0.76,4.791,2.213,5.866
	c1.066,0.789,3.826-0.49,5.726-1.151c0.852-0.296,1.423-1.357,2.159-2.029c11.403-10.415,19.933-23.064,27.604-36.275
	C1621.426,100.595,1623.981,93.878,1626.991,87.427z"/>
<path fill-rule="evenodd" clip-rule="evenodd" d="M535.263,147.84c-3.798-4.211-4.808-4.146-12.06,1.411
	c3.015-5.681,5.465-10.181,7.808-14.735c7.096-13.79,14.205-27.573,21.164-41.432c1.147-2.285,1.884-4.899,2.182-7.435
	c0.146-1.235-0.862-3.031-1.913-3.828c-0.677-0.514-2.895-0.121-3.543,0.627c-5.747,6.628-11.911,13.015-16.776,20.262
	c-9.988,14.878-19.25,30.243-28.922,45.586c-3.696-5.428-7.635-0.69-11.334,0.398c9.816-17.563,19.728-35.065,29.354-52.723
	c1.825-3.349,3.071-7.238,3.586-11.015c0.558-4.096-2.003-5.602-5.414-3.111c-2.931,2.138-5.239,5.266-7.435,8.242
	c-3.249,4.407-6.153,9.068-9.205,13.622c-0.397-0.23-0.795-0.461-1.192-0.691c1.539-2.926,2.752-6.092,4.69-8.724
	c3.307-4.489,6.773-8.952,10.78-12.793c1.71-1.639,5.588-2.979,7.331-2.122c2.155,1.062,4.592,4.732,4.318,6.957
	c-0.865,7.031-2.919,13.918-4.56,20.85c-0.322,1.357-0.856,2.665-0.504,4.396c3.011-4.359,5.836-8.863,9.077-13.045
	c4.419-5.7,8.953-11.345,13.875-16.604c1.55-1.656,5.515-3.416,6.607-2.641c2.229,1.583,4.185,4.712,4.608,7.458
	c1.377,8.931-2.782,16.914-5.395,25.133c-0.19,0.599-0.323,1.216,0.047,2.133c5.509-7.417,10.797-15.014,16.613-22.182
	c3.297-4.063,7.326-7.574,11.266-11.062c4.792-4.241,11.032-1.42,11.381,5.458c0.264,5.212-0.371,11.101-2.637,15.686
	c-5.548,11.232-12.335,21.851-18.457,32.809c-0.988,1.77-1.787,4.136-1.458,6.013c0.331,1.895,1.836,4.1,3.477,5.065
	c1.066,0.628,3.953-0.161,4.891-1.271c4.417-5.238,8.445-10.804,12.604-16.259c0.634-0.831,1.226-1.694,2.856-2.111
	c-0.315,1.092-0.378,2.357-0.989,3.245c-3.146,4.566-6.23,9.201-9.734,13.487c-2.934,3.588-7.184,6.465-11.665,4.489
	c-4.521-1.992-6.304-6.748-6.67-11.864c-0.597-8.336,2.985-15.279,6.963-22.106c4.926-8.455,10.133-16.753,14.82-25.337
	c0.962-1.762,0.164-4.484,0.177-6.765c-1.889,0.575-4.351,0.588-5.565,1.825c-5.007,5.102-10.375,10.088-14.258,16.005
	c-10.101,15.395-19.483,31.26-29.177,46.923C536.467,146.728,535.816,147.241,535.263,147.84z"/>
<path fill-rule="evenodd" clip-rule="evenodd" d="M435.198,147.896c-3.6-4.267-4.535-4.213-11.97,1.155
	c5.235-9.551,10.131-17.95,14.512-26.609c5.373-10.62,10.342-21.445,15.414-32.216c0.682-1.448,1.375-3.122,1.274-4.64
	c-0.091-1.357-0.987-3.041-2.073-3.815c-0.693-0.495-2.833-0.022-3.546,0.742c-4.425,4.745-9.222,9.3-12.798,14.651
	c-11.23,16.806-21.974,33.937-32.939,50.995c-3.578-5.339-7.578-0.582-11.299,0.703c9.933-17.761,19.884-35.282,29.5-52.983
	c1.89-3.477,2.893-7.585,3.565-11.528c0.621-3.635-2.338-4.64-4.703-2.964c-3.109,2.204-5.758,5.252-8.072,8.335
	c-2.726,3.632-4.841,7.716-7.315,11.543c-0.567,0.877-1.523,1.504-3.229,1.636c1.287-2.329,2.336-4.835,3.909-6.95
	c3.713-4.989,7.415-10.041,11.679-14.54c1.528-1.612,5.479-3.05,6.867-2.196c2.285,1.406,4.958,4.925,4.689,7.229
	c-0.818,7.025-2.95,13.899-4.602,20.826c-0.323,1.353-0.781,2.672-0.453,4.351c3.035-4.401,5.881-8.95,9.151-13.168
	c4.419-5.7,8.96-11.34,13.894-16.588c1.538-1.637,5.328-3.295,6.651-2.514c2.169,1.282,4.09,4.41,4.484,7.008
	c1.383,9.101-2.677,17.262-5.462,25.608c-0.198,0.593-0.259,1.232-0.639,3.114c6.262-8.477,11.547-16.138,17.392-23.346
	c3.294-4.061,7.128-7.923,11.404-10.887c5.589-3.874,11.06-1.267,11.239,5.482c0.139,5.235-0.453,11.085-2.723,15.67
	c-5.559,11.229-12.317,21.861-18.479,32.797c-0.85,1.508-1.712,3.511-1.401,5.048c0.428,2.116,1.522,4.752,3.181,5.747
	c1.209,0.725,4.531-0.211,5.632-1.499c4.451-5.206,8.412-10.832,12.538-16.314c0.459-0.609,0.822-1.291,1.763-2.788
	c0.273,1.672,0.812,2.771,0.475,3.235c-4.126,5.687-7.953,11.696-12.811,16.696c-1.981,2.04-6.865,3.327-9.378,2.323
	c-4.359-1.739-6.146-6.461-6.574-11.335c-0.747-8.499,2.904-15.607,7-22.58c4.956-8.438,10.102-16.771,14.821-25.341
	c0.936-1.698,0.31-4.256,0.404-6.417c-2.013,0.512-4.673,0.384-5.924,1.648c-5.023,5.075-10.337,10.106-14.216,16.023
	c-10.188,15.538-19.679,31.533-29.464,47.336C436.315,146.988,435.86,147.27,435.198,147.896z"/>
<path fill-rule="evenodd" clip-rule="evenodd" d="M1190.696,348.626c-3.754-6.068-7.567-0.959-12.016-0.243
	c5.293-8.671,10.737-16.704,15.267-25.225c6.406-12.048,12.22-24.416,18.029-36.769c0.585-1.243-0.127-4.304-1.083-4.764
	c-1.273-0.613-4.096-0.106-4.999,0.971c-4.404,5.253-8.413,10.84-12.513,16.345c-1.202,1.615-2.246,3.349-3.362,5.028
	c-0.456-0.282-0.912-0.564-1.368-0.847c2.758-4.591,5.154-9.457,8.384-13.686c2.731-3.577,6.06-6.978,9.795-9.436
	c4.474-2.943,8.601-0.115,9.156,5.327c0.888,8.684-2.31,16.411-5.324,24.205c-0.229,0.593-0.448,1.189-0.638,1.796
	c-0.042,0.134,0.063,0.313,0.275,1.198c4.76-6.949,8.926-13.743,13.827-19.957c3.618-4.587,7.868-8.833,12.454-12.446
	c3.307-2.605,6.326-1.008,8.078,2.951c2.304,5.205,0.854,10.241-0.585,15.261c-1.541,5.376-3.229,10.709-4.964,16.431
	c6.797-8.9,13.187-17.564,19.93-25.944c2.541-3.158,5.602-6.101,8.954-8.354c5.116-3.44,10.25-0.192,11.037,5.994
	c1.301,10.218-3.257,18.485-8.021,26.796c-4.767,8.316-9.689,16.559-14.01,25.104c-0.865,1.71,0.016,5.093,1.264,6.892
	c1.737,2.503,4.675,1.343,6.355-0.468c3.737-4.027,7.156-8.358,10.575-12.669c1.631-2.056,2.966-4.348,4.884-6.207
	c-2.627,8.345-7.797,14.953-14.32,20.439c-3.764,3.166-9.265,1.604-11.834-2.691c-4.518-7.553-3.462-15.188,0.36-22.387
	c5.199-9.791,11.017-19.254,16.564-28.86c0.979-1.696,2.359-3.306,2.788-5.136c0.409-1.746-0.183-3.728-0.334-5.605
	c-2.014,0.444-4.66,0.231-5.925,1.451c-4.386,4.229-8.886,8.555-12.273,13.567c-11.392,16.856-22.321,34.025-33.181,50.695
	c-2.257-5.471-6.1-1.078-10.621,0.512c3.508-6.432,6.671-11.857,9.482-17.46c6.799-13.551,13.518-27.144,20.065-40.816
	c1.31-2.735,2.764-6.755-1.167-8.062c-1.866-0.621-5.746,1.584-7.238,3.601c-8.051,10.885-15.879,21.954-23.314,33.268
	C1202.706,328.202,1196.909,338.393,1190.696,348.626z"/>
<path fill-rule="evenodd" clip-rule="evenodd" d="M1088.784,303.009c5.044-8.309,8.559-17.808,17.757-22.983
	c4.984-2.805,8.89-0.178,9.467,5.551c0.842,8.355-2.278,15.752-5.055,23.269c-0.374,1.014-0.724,2.036-0.569,3.295
	c5.523-7.769,10.828-15.707,16.668-23.229c2.669-3.438,6.157-6.38,9.703-8.955c3.508-2.548,6.042-0.482,7.776,2.907
	c2.642,5.16,0.944,10.261-0.353,15.26c-1.412,5.444-3.296,10.766-5.328,17.272c5.845-7.911,10.766-15.097,16.252-21.82
	c3.812-4.672,8.001-9.231,12.755-12.888c5.099-3.921,10.402-0.457,11.191,6.023c1.223,10.054-3.268,18.184-7.884,26.356
	c-4.715,8.349-9.471,16.674-14.309,24.952c-1.776,3.041-0.898,5.882,1.564,7.289c1.563,0.895,5.114,0.562,6.362-0.66
	c3.8-3.726,6.982-8.097,10.268-12.324c1.647-2.12,2.996-4.473,4.956-7.44c0.031,6.771-11.169,19.917-15.334,22.012
	c-4.026,2.024-8.416,0.831-10.679-3c-4.539-7.686-3.563-15.475,0.403-22.845c5.254-9.761,11.082-19.212,16.604-28.83
	c1.128-1.965,2.25-4.006,2.882-6.156c0.37-1.258,0.202-3.682-0.494-4.027c-1.293-0.641-3.724-0.813-4.672-0.002
	c-3.773,3.231-7.815,6.469-10.575,10.511c-12.395,18.159-24.385,36.595-36.28,54.567c-2.237-4.976-5.897-0.954-10.53,0.726
	c3.504-6.374,6.795-11.865,9.615-17.588c6.914-14.026,13.74-28.102,20.242-42.321c0.87-1.903-0.338-4.756-0.656-7.885
	c-9.502,4.389-13.896,11.691-18.409,18.524c-10.77,16.305-21.01,32.959-31.541,49.595c-3.525-5.428-7.495-0.823-11.209,0.272
	c9.686-17.227,19.339-34.191,28.744-51.293c1.854-3.37,3.026-7.196,3.963-10.949c0.364-1.463-0.312-3.941-1.409-4.771
	c-0.863-0.651-3.774-0.037-4.618,0.979c-4.385,5.271-8.426,10.831-12.522,16.337c-1.222,1.642-2.239,3.435-3.35,5.159
	C1089.714,303.601,1089.25,303.305,1088.784,303.009z"/>
<path fill-rule="evenodd" clip-rule="evenodd" d="M282.246,3.357c-3.652,6.649-5.223,7.018-9.639,2.53
	c-4.05-4.116-8.921-3.726-13.149-1.667c-7.57,3.685-15.406,7.443-21.815,12.757c-11.325,9.39-21.338,20.349-32.513,29.936
	c-9.416,8.078-19.306,15.766-29.754,22.418c-6.162,3.924-13.822,5.495-18.931,7.418c2.855,3.434,6.943,7.476,9.972,12.197
	c4.445,6.928,4.912,15.097,5.544,23.096c0.66,8.351,0.741,16.811,2.297,24.991c0.558,2.93,4.252,6.124,7.285,7.503
	c3.716,1.689,6.754-1.455,8.727-4.55c3.105-4.87,5.872-9.957,8.784-14.957c0.16,0.093,0.631,0.229,0.638,0.388
	c0.355,8.209-9.296,21.052-17.046,22.306c-9.315,1.507-19.453-3.252-22.677-14.321c-1.579-5.421-2.481-11.134-2.909-16.773
	c-0.699-9.228-0.429-18.531-1.195-27.751c-0.605-7.291-3.491-9.694-10.734-10.454c-0.042-0.734-0.192-1.531-0.096-2.298
	c0.075-0.599,0.457-1.159,0.734-1.814c12.718,2.92,22.804-2.806,31.399-10.506c13.604-12.188,26.273-25.416,39.429-38.109
	c11.429-11.028,23.996-20.369,39.851-23.902c5.707-1.271,11.676-1.772,17.529-1.793C276.577-0.009,279.185,2.045,282.246,3.357z"/>
<path fill-rule="evenodd" clip-rule="evenodd" d="M582.072,519.904c0.651,1.572,1.412,2.54,1.179,2.975
	c-4.201,7.812-8.417,15.734-16.384,20.426c-5.537,3.261-12.826-0.513-13.85-6.963c-1.136-7.157-0.479-14.173,1.791-21.114
	c6.234-19.07,15.755-36.571,26.037-53.622c7.151-11.858,14.698-23.595,23.219-34.485c13.953-17.834,31.476-29.693,55.516-28.369
	c3.115,0.171,5.963,0.932,6.111,4.176c0.084,1.821-1.593,4.642-3.228,5.404c-2.335,1.091-5.029,1.195-7.047-2.245
	c-2.308-3.937-6.066-4.916-11.117-3.553c-13.514,3.646-22.031,13.6-29.008,24.124c-12.598,19.005-23.983,38.857-35.085,58.795
	c-7.451,13.383-13.691,27.455-20.124,41.379c-1.451,3.141-1.876,6.934-2.009,10.456c-0.153,4.076,4.457,6.853,7.284,4.147
	c5.104-4.887,9.304-10.728,13.78-16.253C580.142,523.942,580.727,522.363,582.072,519.904z"/>
<path fill-rule="evenodd" clip-rule="evenodd" d="M1065.144,519.795c0.615,1.702,1.326,2.676,1.079,3.135
	c-4.122,7.66-8.228,15.446-16.02,20.094c-5.781,3.447-13.195,0.328-14.015-6.26c-0.691-5.556-1.345-11.834,0.516-16.854
	c5.367-14.479,11.318-28.839,18.356-42.57c6.753-13.173,14.947-25.631,22.885-38.164c8.713-13.758,19.495-25.622,33.896-33.702
	c10.188-5.717,21.273-7.576,32.787-6.467c1.542,0.149,3.851,2.488,4.017,4.008c0.18,1.645-1.332,4.252-2.85,5.085
	c-1.536,0.844-4.32,0.669-5.955-0.198c-3.001-1.591-5.716-5.906-8.267-5.693c-4.942,0.413-10.539,2.129-14.332,5.198
	c-6.994,5.659-14.157,11.86-18.981,19.305c-12.316,19.006-23.812,38.583-34.805,58.393c-7.591,13.678-13.952,28.054-20.505,42.282
	c-1.44,3.127-1.786,6.943-1.862,10.459c-0.074,3.445,4.544,6.082,6.884,3.781c5.156-5.069,9.579-10.892,14.198-16.492
	C1063.179,523.91,1063.755,522.33,1065.144,519.795z"/>
<path fill-rule="evenodd" clip-rule="evenodd" d="M542.675,521.757c-2.903,4.509-5.662,9.121-8.771,13.482
	c-1.57,2.202-3.734,3.993-5.701,5.896c-2.974,2.877-6.117,4.621-10.512,2.666c-4.96-2.207-6.285-6.349-6.714-11.089
	c-0.899-9.95,2.117-19.111,6.026-28.019c10.93-24.899,24.409-48.361,39.89-70.71c10.844-15.655,24.211-28.167,42.924-33.366
	c6.212-1.726,13.03-1.502,19.579-1.603c1.498-0.022,3.938,2.083,4.306,3.605c0.399,1.654-0.603,4.758-1.919,5.436
	c-1.638,0.845-4.829,0.628-6.271-0.504c-3.018-2.368-5.292-6.688-9.61-5.567c-5.099,1.324-10.354,3.275-14.643,6.252
	c-12.979,9.01-21.145,22.283-29.22,35.428c-15.832,25.77-30.037,52.426-42.447,80.018c-1.462,3.252-2.745,6.67-3.466,10.146
	c-0.635,3.056-0.629,6.909,3.154,7.81c2.133,0.508,5.631-0.427,7.05-2.017c4.445-4.981,8.203-10.577,12.21-15.947
	c0.729-0.978,1.381-2.015,2.068-3.024C541.297,521.019,541.987,521.388,542.675,521.757z"/>
<path fill-rule="evenodd" clip-rule="evenodd" d="M893.384,125.532c-1.739,3.224-3.063,6.78-5.314,9.596
	c-3.533,4.418-7.309,8.81-11.685,12.343c-5.264,4.248-12.219-1.452-13.436-6.021c-1.937-7.269-1.009-14.332,1.32-21.243
	c6.026-17.879,14.565-34.586,24.383-50.634c6.806-11.124,13.664-22.239,21.047-32.981c10.696-15.564,24.407-27.627,43.252-32.075
	c6.022-1.421,12.579-0.73,18.887-0.645c1.051,0.015,3.035,2.02,2.92,2.884c-0.273,2.057-1.153,4.365-2.567,5.807
	c-0.785,0.801-3.218,0.354-4.752-0.081c-0.956-0.271-1.646-1.547-2.413-2.41c-2.855-3.208-5.77-4.915-10.602-3.575
	c-12.171,3.373-20.297,11.737-27.397,21.27c-22.481,30.18-38.732,63.924-55.124,97.562c-1.978,4.058-3.75,8.434-4.387,12.84
	c-0.373,2.58,1.004,6.288,2.924,7.988c1.101,0.974,5.82-0.23,7.246-1.887c4.557-5.294,8.335-11.257,12.413-16.962
	c0.613-0.858,1.225-1.721,1.837-2.581C892.418,124.995,892.902,125.264,893.384,125.532z"/>
<path fill-rule="evenodd" clip-rule="evenodd" d="M489.289,484.553c2.3-4.088,4.413-7.844,6.776-12.043
	c2.459,5.746,5.222,5.721,12.108,0.073c-0.502,1.692-0.626,2.704-1.076,3.54c-10.041,18.663-20.14,37.295-30.15,55.974
	c-0.903,1.685-1.683,3.631-1.771,5.491c-0.07,1.461,0.664,3.345,1.71,4.337c0.668,0.634,3.012,0.513,3.812-0.183
	c3.262-2.832,6.533-5.767,9.207-9.135c3.259-4.105,5.92-8.686,8.84-13.06c0.537,0.322,1.074,0.646,1.61,0.969
	c-1.527,2.609-2.788,5.427-4.638,7.783c-3.795,4.833-7.413,9.99-12.021,13.945c-4.693,4.026-9.253,1.778-10.791-4.211
	c-2.422-9.429,0.893-17.979,3.875-26.599c0.355-1.028,0.717-2.056,0.64-3.301c-5.48,7.192-10.706,14.6-16.531,21.501
	c-3.901,4.624-8.266,9.062-13.136,12.604c-4.589,3.338-8.061,1.693-9.729-3.703c-2.593-8.384-0.787-16.559,1.894-24.542
	c5.333-15.884,15.112-28.12,30.216-35.774c2.017-1.022,4.221-1.704,6.384-2.401C485.004,473.082,488.226,475.193,489.289,484.553z
	 M486.924,484.26c0.107-6.465-2.885-8.712-6.972-6.881c-1.453,0.65-2.772,1.757-3.931,2.884
	c-14.914,14.521-24.343,32.7-33.698,50.901c-0.93,1.809-1.28,4.096-1.286,6.162c-0.011,4.008,2.877,5.451,6.288,3.312
	c0.967-0.606,1.747-1.513,2.603-2.294c12.123-11.084,21.102-24.669,29.841-38.349C483.136,494.725,485.034,488.516,486.924,484.26z"
	/>
<path fill-rule="evenodd" clip-rule="evenodd" d="M1594.49,518.876c0.188,1.803,0.619,2.816,0.289,3.245
	c-5.23,6.804-9.995,14.103-16.05,20.092c-4.489,4.44-9.454,1.628-10.841-4.71c-2.149-9.829,1.901-18.534,4.427-27.54
	c0.158-0.564,0.373-1.113,0.922-2.735c-5.892,7.794-10.763,14.929-16.367,21.431c-4.38,5.081-9.314,9.851-14.671,13.866
	c-4.024,3.016-7.882,0.801-9.219-4.1c-2.552-9.346-0.175-18.212,3.021-26.812c6.367-17.134,17.716-29.644,35.296-35.75
	c9.049-3.144,11.878-1.243,13.115,8.459c2.267-3.834,4.396-7.435,6.066-10.258c2.368,1.011,4.464,2.725,6.287,2.472
	c2.194-0.305,4.157-2.28,7.519-4.321c-1.741,2.948-2.916,4.791-3.95,6.709c-9.372,17.396-18.72,34.804-28.073,52.208
	c-0.079,0.146-0.203,0.295-0.214,0.449c-0.229,3.514-4.169,8.202,0.723,10.039c2.276,0.854,7.165-2.27,9.383-4.862
	C1586.614,531.541,1590.055,525.452,1594.49,518.876z M1535.367,537.323c0.993,1.467,1.604,3.217,2.812,3.882
	c0.963,0.531,2.918,0.14,3.972-0.548c2.458-1.604,5.094-3.278,6.852-5.548c7.885-10.182,15.884-20.315,23.035-31.007
	c4.016-6.002,6.78-12.931,9.408-19.713c0.734-1.896-0.326-5.552-1.872-6.909c-1.105-0.97-4.436,0.402-6.689,1.03
	c-0.84,0.233-1.441,1.322-2.153,2.021c-13.03,12.771-21.485,28.683-30.24,44.356
	C1538.375,528.673,1537.139,532.947,1535.367,537.323z"/>
<path fill-rule="evenodd" clip-rule="evenodd" d="M1345.219,473.763c-2.752,4.512-5.748,8.895-8.209,13.56
	c-7.994,15.152-15.816,30.396-23.628,45.645c-0.725,1.416-1.303,3.128-1.229,4.669c0.072,1.511,0.715,3.354,1.773,4.329
	c0.683,0.628,3.024,0.473,3.83-0.233c3.248-2.85,6.49-5.81,9.164-9.182c3.255-4.106,5.936-8.668,8.864-13.033
	c0.527,0.329,1.056,0.658,1.584,0.986c-1.544,2.631-2.843,5.45-4.685,7.853c-3.437,4.483-7.055,8.848-10.859,13.022
	c-2.418,2.654-6.103,3.807-8.884,1.585c-2.069-1.653-4.03-5.263-3.734-7.724c0.964-8.019,2.972-15.913,4.619-23.847
	c0.219-1.053,0.682-2.054,1.519-4.504c-6.409,8.438-11.61,15.9-17.477,22.797c-4.021,4.729-8.62,9.144-13.609,12.817
	c-3.981,2.933-7.641,1.211-9.156-3.541c-2.778-8.71-0.907-17.259,1.916-25.515c5.362-15.677,15.248-27.688,30.168-35.267
	c1.876-0.953,3.879-1.725,5.902-2.309c6.928-1.998,12.235-2.761,13.245,8.584c2.283-4.035,4.403-7.785,6.791-12.007
	C1335.535,478.264,1338.251,478.233,1345.219,473.763z M1324.833,482.221c-1.357-1.975-2.302-4.797-3.699-5.043
	c-2.095-0.368-5.255,0.373-6.653,1.867c-5.714,6.105-11.725,12.175-16.149,19.188c-7.104,11.261-13.07,23.243-19.445,34.96
	c-1.533,2.817-2.076,6.372,1.146,7.72c1.665,0.695,5.09-1.126,6.896-2.735c12.259-10.928,21.169-24.583,29.867-38.288
	C1320.147,494.608,1322.07,488.419,1324.833,482.221z"/>
<path fill-rule="evenodd" clip-rule="evenodd" d="M264.225,508.896c-4.094,5.662-7.869,11.596-12.37,16.913
	c-4.755,5.617-10.001,10.873-15.481,15.788c-1.503,1.348-5.259,1.977-6.822,1.027c-2.116-1.285-4.176-4.306-4.419-6.764
	c-1.639-16.589,4.12-30.795,14.632-43.465c6.57-7.919,14.716-13.279,24.294-16.608c1.956-0.681,4.146-0.888,6.238-0.938
	c3.818-0.091,5.689,1.99,5.663,5.797c-0.009,1.401-0.001,2.803-0.001,5.521c2.857-5.121,5.049-9.049,7.347-13.165
	c3.137,5.115,5.021,5.069,12.789,0.465c-3.089,4.991-6.47,9.828-9.212,15.003c-7.731,14.593-15.214,29.316-22.745,44.014
	c-0.582,1.137-1.238,2.552-1.044,3.7c0.356,2.114,0.832,4.65,2.236,5.96c0.697,0.649,4.241-0.463,5.337-1.759
	c4.532-5.362,8.61-11.105,12.877-16.692c1.075-1.408,2.228-2.757,3.934-3.647c-4.236,8.46-8.451,17.015-16.356,22.575
	c-5.641,3.969-10.663,0.593-11.195-6.734c-0.634-8.723,1.563-16.883,4.412-24.958c0.196-0.555,0.348-1.124,0.521-1.687
	C264.647,509.127,264.436,509.012,264.225,508.896z M275.04,483.409c-1.343-2.595-1.887-5.372-3.285-5.904
	c-1.674-0.637-4.175,0.397-6.134,1.172c-1.456,0.576-2.94,1.655-3.862,2.914c-6.738,9.194-13.838,18.18-19.828,27.849
	c-5.109,8.247-9.041,17.247-13.115,26.089c-0.655,1.421,0.347,3.938,1.27,5.557c0.291,0.509,2.967,0.053,4.301-0.533
	c1.604-0.704,3.103-1.853,4.369-3.093c11.181-10.958,20.114-23.679,28.164-36.995C270.156,495.111,272.355,489.132,275.04,483.409z"
	/>
<path fill-rule="evenodd" clip-rule="evenodd" d="M792.501,520.914c-5.296,6.91-10.249,14.133-16.1,20.536
	c-1.722,1.885-6.354,2.562-8.952,1.694c-1.789-0.598-3.102-4.741-3.355-7.421c-0.832-8.788,0.603-17.308,4.637-25.287
	c0.265-0.523,0.104-1.262,0.14-1.885c-6.654,8.35-13.081,16.758-19.914,24.82c-2.79,3.292-6.181,6.271-9.8,8.615
	c-4.91,3.181-9.488,0.924-10.078-4.927c-0.501-4.968-0.76-10.143,0.064-15.025c2.207-13.083,8.223-24.597,17.933-33.519
	c5.282-4.854,11.917-8.499,18.434-11.683c10.23-4.998,13.75-2.796,14.834,8.809c2.387-4.52,4.477-8.477,6.694-12.676
	c4.268,8.568,8.438,0.95,12.429,0.318c-7.35,13.194-14.877,26.261-21.942,39.573c-3.737,7.041-6.963,14.397-9.775,21.854
	c-0.78,2.067,0.746,5.004,1.214,7.542c2.246-0.898,5.251-1.172,6.6-2.81c4.553-5.528,8.495-11.557,12.727-17.354
	c0.703-0.962,1.682-1.723,2.533-2.576C791.381,519.981,791.942,520.447,792.501,520.914z M778.803,482.612
	c-1.109-2.046-1.64-4.539-2.971-5.087c-1.579-0.65-3.951,0.09-5.784,0.761c-1.463,0.536-2.811,1.707-3.905,2.88
	c-14.212,15.235-24.26,33.15-33.112,51.814c-0.611,1.289-0.965,2.807-1.021,4.234c-0.148,3.829,2.423,5.473,5.721,3.573
	c2.246-1.294,4.737-2.656,6.249-4.648c9.669-12.736,19.351-25.479,28.456-38.616C775.406,493.24,776.666,487.771,778.803,482.612z"
	/>
<path fill-rule="evenodd" clip-rule="evenodd" d="M1524.915,520.452c-5.1,7.696-8.504,16.776-16.994,21.736
	c-2.119,1.238-5.684,1.857-7.681,0.893c-1.751-0.846-2.905-4.24-3.162-6.634c-1.032-9.62,1.125-18.813,4.464-27.893
	c-4.85,6.361-9.386,12.997-14.643,19.002c-4.688,5.355-9.841,10.435-15.423,14.831c-3.759,2.96-6.516,1.733-8.501-2.881
	c-1.131-2.631-2.065-5.688-1.893-8.479c1.014-16.403,6.718-31.104,18.84-42.347c5.613-5.206,12.668-9.202,19.658-12.496
	c9.224-4.346,13.064-1.503,13.594,9.778c2.521-4.788,4.581-8.697,6.753-12.821c4.34,8.096,8.393,1.206,13.034-0.035
	c-4.098,6.91-8.349,13.343-11.859,20.156c-7.018,13.621-13.784,27.38-20.233,41.277c-0.907,1.957,0.558,5.015,0.924,7.563
	c2.248-0.796,5.292-0.932,6.6-2.507c4.571-5.51,8.531-11.526,12.757-17.326c0.728-0.999,1.616-1.882,2.43-2.819
	C1524.024,519.785,1524.469,520.118,1524.915,520.452z M1512.285,482.769c-1.652-2.552-2.336-4.837-3.737-5.431
	c-1.438-0.609-3.735,0.092-5.367,0.847c-1.729,0.8-3.312,2.157-4.621,3.581c-13.859,15.085-23.704,32.747-32.521,51.051
	c-0.555,1.149-1.15,2.557-0.963,3.72c0.266,1.645,0.91,3.521,2.051,4.612c0.625,0.6,2.932,0.248,3.903-0.464
	c3.172-2.324,6.62-4.589,8.986-7.635c7.603-9.788,15.141-19.669,21.961-30.004C1506.11,496.779,1508.871,489.606,1512.285,482.769z"
	/>
<path fill-rule="evenodd" clip-rule="evenodd" d="M1864.041,124.552c-4.459,8.281-9.193,16.458-17.008,22.156
	c-6.922,5.048-10.547-0.823-11.065-6.374c-0.8-8.565,1.623-16.553,4.422-24.473c0.258-0.73,0.423-1.494-0.157-2.726
	c-4.104,5.623-7.886,11.524-12.401,16.795c-4.903,5.723-10.16,11.248-15.885,16.13c-4.572,3.9-10.55,0.916-10.919-5.192
	c-1.291-21.358,6.35-38.99,23.366-51.996c5.073-3.878,11.156-6.84,17.225-8.908c7.784-2.652,10.187-0.43,10.352,7.594
	c0.011,0.496,0.093,0.99,0.287,2.954c2.591-4.756,4.604-8.454,6.722-12.34c4.259,5.038,8.221,2.331,12.729,0.117
	c-2.925,4.682-6.181,9.191-8.713,14.076c-7.968,15.37-15.809,30.812-23.287,46.424c-0.956,1.996,0.522,5.159,0.873,7.782
	c2.251-0.635,5.017-0.663,6.638-2.039c2.684-2.279,4.764-5.331,6.857-8.231c2.997-4.151,5.778-8.46,8.652-12.701
	C1863.165,123.917,1863.603,124.234,1864.041,124.552z M1851.193,88.171c-1.47-2.916-2.06-6.07-3.665-6.72
	c-1.663-0.674-4.471,0.777-6.479,1.856c-1.979,1.062-3.93,2.557-5.289,4.324c-4.568,5.943-9.402,11.782-13.15,18.232
	c-6.438,11.076-12.229,22.536-18.001,33.981c-0.619,1.229,0.173,3.961,1.261,5.005c0.842,0.807,3.225,0.296,4.819-0.074
	c1.016-0.235,1.906-1.214,2.745-1.978c11.816-10.77,20.864-23.742,29.104-37.274C1845.865,100.06,1848.296,94.049,1851.193,88.171z"
	/>
<path fill-rule="evenodd" clip-rule="evenodd" d="M381.83,89.513c2.145-3.803,4.288-7.605,6.513-11.551
	c4.223,5.659,8.249,1.982,12.638-0.797c-6.678,12.003-13.046,22.91-18.876,34.099c-4.816,9.243-9.174,18.743-13.298,28.317
	c-0.742,1.724,0.638,4.361,1.037,6.577c2.229-0.48,5.312-0.204,6.53-1.579c4.317-4.875,8.021-10.297,11.906-15.548
	c1.286-1.739,2.421-3.59,3.624-5.39c0.534,0.352,1.067,0.703,1.601,1.056c-3.437,5.122-6.739,10.343-10.37,15.324
	c-1.647,2.26-3.887,4.11-5.96,6.035c-4.475,4.154-10.116,3.083-10.969-2.759c-0.847-5.795-0.212-11.937,0.622-17.807
	c0.642-4.519,2.597-8.85,3.77-12.625c-8.091,9.649-16.497,19.677-24.91,29.698c-0.319,0.382-0.64,0.863-1.066,1.038
	c-3.349,1.369-7.839,4.64-9.814,3.518c-2.636-1.497-4.458-6.357-4.664-9.888c-1.424-24.381,16.955-50.842,40.61-57.645
	C376.926,77.812,382.595,80.464,381.83,89.513z M333.149,140.133c0.904,2.339,1.191,4.785,2.09,5.034
	c1.637,0.454,4.353,0.277,5.366-0.807c6.995-7.481,13.957-15.031,20.368-23.011c7.874-9.8,14.846-20.284,18.322-32.555
	c0.576-2.031-0.175-5.678-1.631-6.699c-1.478-1.037-5.262-0.586-6.847,0.69c-3.687,2.967-7.094,6.515-9.833,10.38
	c-6.49,9.159-12.83,18.456-18.637,28.057C338.685,127.28,336.093,133.986,333.149,140.133z"/>
<path fill-rule="evenodd" clip-rule="evenodd" d="M1069.201,289.927c2.414-4.562,4.421-8.354,6.521-12.324
	c4.303,6.732,8.355,1.705,12.513,0.2c-5.378,9.495-10.819,18.741-15.904,28.179c-5.271,9.783-10.207,19.746-15.256,29.647
	c-0.435,0.853-0.924,1.856-0.859,2.752c0.19,2.682-0.319,6.445,1.202,7.777c2.802,2.452,5.503-0.339,7.354-2.721
	c4.008-5.154,7.834-10.45,11.724-15.697c0.931-1.254,1.818-2.54,2.727-3.812c0.387,0.227,0.774,0.454,1.161,0.681
	c-1.168,2.191-2.143,4.517-3.544,6.548c-2.873,4.166-5.803,8.319-9.038,12.204c-2.6,3.121-5.819,6.141-10.332,4.482
	c-5.492-2.018-5.113-7.22-4.554-11.577c1.025-7.991,2.817-15.884,4.083-22.699c-6.179,7.822-12.969,16.753-20.161,25.347
	c-2.576,3.079-5.88,5.731-9.29,7.886c-4.181,2.642-8.218,0.344-9.6-4.607c-2.527-9.057,0.072-17.542,3.088-25.806
	c6.199-16.985,17.491-29.31,34.622-35.852c1.051-0.401,2.206-0.527,3.309-0.799c7.147-1.763,9.509-0.015,9.998,7.402
	C1069.003,287.753,1069.067,288.365,1069.201,289.927z M1067.961,286.404c-1.257-2.127-1.806-4.316-3.067-4.863
	c-1.491-0.646-3.764-0.278-5.394,0.392c-1.744,0.718-3.475,2.038-4.621,3.545c-6.418,8.425-13.065,16.721-18.832,25.583
	c-4.945,7.598-8.969,15.818-13.081,23.926c-1.627,3.207-4.365,7.773-0.518,10.191c4.169,2.618,7.437-1.808,10.246-4.665
	c11.298-11.492,20.569-24.54,28.496-38.505C1063.954,297.14,1065.703,291.696,1067.961,286.404z"/>
<path fill-rule="evenodd" clip-rule="evenodd" d="M1148.743,543.774c-3.975-6.781-8.116-0.582-12.672-0.04
	c5.345-8.954,10.738-17.389,15.521-26.156c5.856-10.737,11.351-21.683,16.612-32.723c0.835-1.751-0.371-4.474-0.633-6.747
	c-2.179,0.697-5.045,0.753-6.403,2.213c-3.887,4.175-7.142,8.935-10.69,13.429c-0.843,1.067-1.86,1.996-2.798,2.988
	c-0.399-0.258-0.799-0.515-1.197-0.772c1.147-1.997,2.057-4.188,3.491-5.954c3.463-4.264,6.78-8.799,10.952-12.269
	c1.998-1.662,6.325-2.312,8.624-1.27c1.885,0.854,3.529,5.06,3.186,7.482c-1.043,7.352-3.091,14.561-4.78,21.817
	c-0.202,0.872-0.604,1.697-1.101,3.05c6.612-8.243,12.736-16.074,19.098-23.708c2.383-2.858,5.053-5.627,8.06-7.783
	c5.571-3.995,11.361-0.737,11.989,6.188c0.802,8.842-2.65,16.331-6.906,23.634c-5.071,8.701-10.195,17.372-15.219,26.102
	c-1.645,2.855-1.994,6.486,1.198,7.703c1.955,0.745,5.688-0.829,7.497-2.547c3.532-3.352,6.275-7.534,9.343-11.375
	c0.835-1.045,1.663-2.096,3.332-2.669c-0.05,0.668,0.162,1.561-0.189,1.969c-4.556,5.289-8.806,10.932-13.931,15.61
	c-4.073,3.718-7.445,2.451-10.229-2.47c-5.776-10.209-2.328-19.729,2.777-28.701c4.59-8.065,10.097-15.608,15.188-23.389
	c0.443-0.677,1.079-1.374,1.162-2.112c0.27-2.409,0.323-4.841,0.46-7.265c-2.11,0.584-4.961,0.494-6.209,1.864
	c-6.928,7.607-14.145,15.1-19.98,23.52C1165.3,516.367,1157.345,530.059,1148.743,543.774z"/>
<path fill-rule="evenodd" clip-rule="evenodd" d="M1297.954,90.146c2.8-4.772,4.848-8.265,7.04-12.002
	c4.217,5.123,8.166,2.409,12.19-0.595c-6.723,12.326-13.365,24.263-19.766,36.328c-4.203,7.921-8.389,15.887-11.851,24.14
	c-0.978,2.329-0.292,7.512,1.231,8.303c3.596,1.867,6.846-1.206,9.013-4.149c4.325-5.877,8.314-12.001,13.091-17.815
	c-0.23,0.936-0.209,2.051-0.729,2.78c-4.356,6.108-8.465,12.455-13.429,18.034c-1.698,1.91-5.786,2.875-8.479,2.431
	c-3.686-0.606-4.154-4.347-4.371-7.877c-0.616-10.027,2.35-19.268,5.484-28.621c-4.823,6.648-9.336,13.556-14.565,19.868
	c-4.481,5.41-9.452,10.535-14.823,15.053c-4.641,3.902-10.299,1.062-10.989-5.085c-1.011-9.002,0.026-17.833,3.55-26.192
	c5.227-12.396,13.033-22.86,24.822-29.699c4.574-2.653,9.706-4.501,14.78-6.086c3.958-1.237,7.378,1.738,7.781,6.023
	C1298.057,86.287,1297.954,87.611,1297.954,90.146z M1295.94,89.776c0.062-8.791-2.551-10.658-7.561-7.588
	c-3.147,1.929-6.178,4.566-8.295,7.566c-7.422,10.519-14.675,21.176-21.481,32.099c-3.343,5.364-5.833,11.324-8.114,17.243
	c-0.625,1.621,0.304,4.762,1.637,5.914c0.99,0.856,3.802-0.292,5.762-0.728c0.55-0.122,0.945-0.896,1.431-1.353
	c11.943-11.228,21.234-24.535,29.608-38.476C1292.139,99.106,1294.351,93.157,1295.94,89.776z"/>
<path fill-rule="evenodd" clip-rule="evenodd" d="M630.307,324.905c-4.115,8.277-8.536,16.487-16.51,21.812
	c-5.592,3.735-10.446,0.621-10.874-6.098c-0.619-9.737,1.778-18.823,5.407-27.7c0.218-0.533,0.355-1.099,0.637-1.986
	c-6.793,8.684-13.165,17.129-19.887,25.286c-2.993,3.633-6.406,7.056-10.137,9.908c-4.771,3.646-10.422,0.8-10.944-5.3
	c-1.499-17.505,4.049-32.604,15.904-45.467c6.903-7.491,14.78-13.366,24.988-15.646c7.457-1.665,9.823,0.065,10.079,7.82
	c0.015,0.461,0.131,0.92,0.312,2.126c2.434-4.114,4.552-7.695,6.749-11.409c4.208,4.915,8.17,2.287,12.253-0.726
	c-7.79,14.073-15.528,27.665-22.859,41.473c-3.353,6.314-6.194,12.948-8.652,19.662c-0.817,2.233,0.282,5.169,0.505,7.783
	c2.398-0.617,5.512-0.502,7.048-2.002c3.344-3.262,5.972-7.283,8.723-11.117c2.167-3.02,4.08-6.221,6.106-9.342
	C629.539,324.291,629.923,324.599,630.307,324.905z M616.923,289.806c0.12-8.931-2.481-10.718-7.833-7.466
	c-3.026,1.839-5.954,4.361-7.973,7.243c-7.384,10.542-14.619,21.208-21.396,32.146c-3.418,5.514-5.97,11.616-8.379,17.665
	c-0.59,1.479,0.379,4.393,1.639,5.53c0.938,0.847,3.544,0.074,5.324-0.337c0.849-0.196,1.527-1.206,2.243-1.89
	c12.08-11.548,21.672-25.035,30.101-39.347C613.57,298.391,615.53,292.865,616.923,289.806z"/>
<path fill-rule="evenodd" clip-rule="evenodd" d="M1132.859,474.461c4.332,6.312,7.919,0.7,12.023-0.302
	c-6.69,11.844-13.416,23.297-19.678,34.999c-3.911,7.31-7.192,14.962-10.584,22.537c-0.638,1.423-0.832,3.276-0.557,4.811
	c0.276,1.535,1.09,3.733,2.226,4.162c1.397,0.526,4.137,0.126,4.967-0.924c3.833-4.847,7.184-10.072,10.756-15.127
	c0.789-1.115,1.777-2.09,2.673-3.13c0.536,0.407,1.073,0.813,1.609,1.22c-4.021,5.774-7.794,11.748-12.175,17.235
	c-2.036,2.552-5.144,4.682-8.944,2.81c-3.566-1.756-5.73-4.639-5.162-8.695c1.118-7.979,2.547-15.914,3.76-23.328
	c-3.301,4.673-6.925,10.166-10.928,15.368c-3.807,4.947-7.986,9.609-12.045,14.36c-2.601,3.044-5.91,4.354-9.73,2.876
	c-4.132-1.601-5.612-5.222-6.108-9.349c-1.173-9.748,2.676-17.965,8.017-25.644c5.034-7.239,10.271-14.337,15.415-21.5
	c0.191-0.268,0.399-0.542,0.512-0.847c1.109-3.012,4.416-6.392,0.688-9.12c-4.186-3.063-6.959,1.453-9.43,3.673
	c-3.789,3.406-6.783,7.698-10.694,12.295c0.041-7.048,13.702-19.738,19.155-19.006c4.694,0.63,8.167,8.356,7.181,14.471
	c-1.834,11.364-9.312,19.513-15.321,28.564c-3.58,5.392-6.932,10.995-9.698,16.83c-0.881,1.857,0.453,4.764,0.773,7.19
	c2.33-0.445,5.466-0.091,6.846-1.48c4.844-4.874,9.721-9.938,13.43-15.676c10.082-15.599,19.569-31.583,29.311-47.402
	C1131.483,475.783,1132.025,475.359,1132.859,474.461z"/>
<path fill-rule="evenodd" clip-rule="evenodd" d="M965.305,490.395c5.066-4.905,9.982-9.981,15.243-14.669
	c5.396-4.808,11.526-0.891,12.439,6.838c1.333,11.273-4.423,19.794-10.525,28.262c-4.202,5.831-8.279,11.753-12.383,17.654
	c-0.461,0.663-0.823,1.429-1.074,2.197c-1.178,3.603-4.129,8.312,0.401,10.317c2.276,1.009,7.668-1.758,9.855-4.339
	c14.62-17.248,26.583-36.343,37.428-56.15c1.092-1.996,2.328-3.913,3.654-6.129c4.167,6.373,8.008,1.219,13.041-1.104
	c-4.292,7.111-8.188,13.026-11.54,19.235c-6.353,11.771-12.406,23.703-18.539,35.591c-0.591,1.146-0.917,2.44-1.276,3.691
	c-1.03,3.585-1.794,7.868,2.235,9.373c3.347,1.249,6.065-1.646,7.969-4.878c2.936-4.982,6.299-9.715,9.677-14.853
	c0.505,0.774,1.028,1.339,0.936,1.471c-4.41,6.303-8.256,13.163-13.535,18.642c-3.98,4.13-10.117,0.835-11.404-4.894
	c-1.781-7.932,1.322-15.018,3.264-22.331c0.204-0.771,0.502-1.517,0.725-2.283c0.04-0.135-0.076-0.314-0.37-1.364
	c-4.079,5.716-7.599,11.165-11.651,16.184c-4.188,5.185-8.58,10.289-13.459,14.806c-5,4.629-11.909,1.775-13.409-5.101
	c-1.438-6.593-0.854-13.13,2.631-18.833c6.031-9.869,12.652-19.377,18.96-29.078c1.418-2.181,2.914-4.424,3.705-6.855
	c0.453-1.394,0.089-3.795-0.88-4.695c-0.941-0.876-3.659-1.142-4.665-0.404c-3.154,2.311-5.94,5.149-8.732,7.922
	c-2.423,2.406-4.659,5.001-6.979,7.513C966.465,491.551,965.885,490.973,965.305,490.395z"/>
<path fill-rule="evenodd" clip-rule="evenodd" d="M299.369,490.444c4.54-4.717,8.833-9.713,13.727-14.029
	c2.427-2.141,6.193-4.43,9.274-1.273c2.153,2.207,4.021,5.465,4.426,8.468c1.512,11.224-5.293,19.421-11.063,27.972
	c-4.735,7.018-9.305,14.156-13.668,21.41c-1.705,2.835-1.955,6.701,1.313,8.165c1.694,0.758,5.616-0.859,7.077-2.615
	c7.744-9.309,15.559-18.642,22.328-28.656c7.742-11.453,14.412-23.632,21.51-35.432c3.52,4.328,4.111,4.311,13.116-1.356
	c-4.001,6.562-7.623,11.775-10.506,17.37c-7.165,13.9-14.188,27.882-20.851,42.027c-2.364,5.02-1.813,5.279,2.709,9.327
	c9.543-3.297,11.054-13.73,17.118-20.117c0.471,0.29,0.941,0.581,1.412,0.872c-2.955,4.756-5.814,9.576-8.919,14.232
	c-1.087,1.631-2.733,2.908-4.202,4.262c-4.181,3.851-10.057,2.424-12.049-2.959c-2.904-7.851,0.367-15.081,2.442-22.399
	c0.604-2.13,1.597-4.149,1.816-6.543c-5.472,7.536-10.78,15.198-16.484,22.555c-2.93,3.778-6.312,7.306-9.948,10.411
	c-4.323,3.693-10.096,1.495-12.584-4.46c-2.962-7.089-1.49-14.182,1.978-20.296c4.975-8.772,11.215-16.819,16.75-25.284
	c2.207-3.375,4.256-6.921,5.8-10.629c0.559-1.343-0.114-3.754-1.099-4.969c-0.552-0.68-3.376-0.491-4.343,0.312
	c-3.667,3.042-7.039,6.449-10.43,9.812c-1.751,1.736-3.312,3.665-4.958,5.507C300.498,491.565,299.933,491.005,299.369,490.444z"/>
<path fill-rule="evenodd" clip-rule="evenodd" d="M1029.041,82.088c-8.939-1.023-12.153,4.909-15.7,9.188
	c-13.887,16.755-25.645,34.987-35.735,54.282c-0.375,0.717-1.064,1.269-1.95,2.294c-3.985-5.356-7.903-2.519-12.484-0.56
	c3.305-5.374,6.9-10.593,9.855-16.151c7.489-14.091,14.783-28.288,21.886-42.577c0.833-1.674-0.021-4.187-0.094-6.311
	c-2.433,0.507-5.706,0.199-7.138,1.677c-3.957,4.087-7.146,8.918-10.639,13.456c-0.86,1.118-1.715,2.242-3.131,2.833
	c3.563-7.982,8.236-15.143,15.829-19.564c5.172-3.012,10.726,1.167,10.01,8.124c-0.689,6.703-3.086,13.231-4.764,19.828
	c-0.305,1.196-0.763,2.353-0.479,3.883c4.146-5.537,8.178-11.165,12.475-16.583c3.269-4.121,6.568-8.308,10.426-11.843
	c3.139-2.876,6.788-6.213,11.768-3.191c2.901,1.761,4.104,8.158,3.27,13.099c-1.89,11.194-8.607,19.914-14.328,29.169
	c-2.4,3.883-5.188,7.599-7.017,11.736c-1.127,2.552-1.17,5.784-0.973,8.661c0.18,2.631,4.86,3.582,7.263,1.151
	c3.621-3.661,6.728-7.835,10.005-11.83c1.322-1.612,2.518-3.33,3.771-5c0.513,0.351,1.025,0.7,1.539,1.051
	c-2.791,4.008-5.465,8.105-8.426,11.983c-1.39,1.821-3.141,3.517-5.059,4.757c-6.64,4.29-11.207,2.095-13.312-5.72
	c-2.497-9.267,0.07-17.495,4.758-25.235c4.64-7.662,9.857-14.975,14.497-22.637C1026.843,89.284,1027.582,85.94,1029.041,82.088z"/>
<path fill-rule="evenodd" clip-rule="evenodd" d="M1500.695,127.056c-4.093,5.594-8.055,11.291-12.337,16.736
	c-2.017,2.563-4.482,5.155-8.399,3.498c-4.126-1.746-6.395-5.49-5.802-9.393c1.188-7.812,3.504-15.453,5.353-23.165
	c0.105-0.439,0.196-0.883,0.604-2.723c-5.253,7.36-9.498,13.771-14.232,19.799c-3.862,4.918-8.024,9.681-12.574,13.958
	c-4.891,4.601-11.509,2.022-13.377-4.482c-2.403-8.367-0.265-15.955,4.068-22.867c6.489-10.35,13.547-20.345,20.376-30.481
	c1.61-2.391,2.363-4.932-0.161-6.981c-2.766-2.245-5.281-0.693-7.315,1.445c-2.952,3.105-5.717,6.39-8.624,9.54
	c-1.369,1.484-2.883,2.835-4.802,3.707c3.572-7.019,8.469-12.978,15.274-16.535c5.598-2.927,10.809,1.881,11.209,9.504
	c0.416,7.923-3.015,14.531-7.184,20.879c-5.724,8.715-11.46,17.42-17.172,26.142c-0.536,0.818-1.361,1.747-1.317,2.586
	c0.125,2.382,0.631,4.743,0.987,7.113c2.277-0.371,5.437,0.082,6.682-1.252c6.209-6.65,12.596-13.312,17.652-20.823
	c9.638-14.313,18.416-29.206,27.487-43.756c3.943,3.515,5.738,3.382,12.042-0.953c-1.607,2.794-3.321,5.533-4.806,8.391
	c-8.558,16.475-17.078,32.967-25.542,49.489c-0.568,1.108-0.969,2.593-0.732,3.757c0.365,1.795,1.072,4.68,2.13,4.921
	c1.884,0.429,4.981-0.083,6.083-1.424c3.603-4.387,6.536-9.322,9.724-14.049c0.915-1.358,1.816-2.725,2.724-4.088
	C1499.375,126.051,1500.035,126.554,1500.695,127.056z"/>
<path fill-rule="evenodd" clip-rule="evenodd" d="M850.825,127.203c-4.732,6.143-9.146,12.571-14.308,18.329
	c-3.639,4.06-8.107,2.745-10.692-2.225c-3.818-7.339-0.96-14.3,1.119-21.29c0.866-2.91,2.004-5.738,2.459-8.876
	c-4.364,5.964-8.574,12.048-13.138,17.854c-3.856,4.906-7.96,9.646-12.253,14.177c-4.971,5.247-11.987,3.169-14.042-3.882
	c-2.419-8.303-0.31-15.955,4.025-22.87c6.489-10.351,13.545-20.345,20.376-30.479c1.614-2.395,2.363-4.936-0.154-6.985
	c-2.759-2.246-5.28-0.702-7.316,1.438c-3.758,3.948-7.366,8.038-11.096,12.014c-0.577,0.615-1.47,0.936-2.505,1.051
	c3.713-6.854,8.668-12.747,15.439-16.346c5.418-2.88,10.636,1.667,11.196,8.996c0.506,6.609-1.58,12.663-5.005,18.104
	c-6.249,9.926-12.869,19.617-19.327,29.411c-0.27,0.41-0.658,0.878-0.651,1.312c0.049,2.798,0.192,5.594,0.306,8.391
	c2.566-0.508,6.104-0.123,7.53-1.677c6.057-6.597,12.112-13.357,17.01-20.818c8.845-13.472,16.854-27.492,25.241-41.266
	c0.506-0.831,1.264-1.508,1.907-2.26c3.666,3.749,5.972,3.49,12.21-0.78c-1.625,2.812-3.36,5.567-4.855,8.446
	c-8.559,16.474-17.072,32.97-25.548,49.485c-0.5,0.976-0.936,2.277-0.708,3.269c0.445,1.949,1.134,5.193,2.162,5.372
	c2.047,0.355,5.231-0.304,6.453-1.779c3.511-4.243,6.275-9.104,9.339-13.719c0.898-1.354,1.814-2.696,2.724-4.044
	C849.423,126.105,850.125,126.654,850.825,127.203z"/>
<path fill-rule="evenodd" clip-rule="evenodd" d="M953.959,494.293c1.892,23.541-21.142,46.946-43.368,50.472
	c-6.549,1.038-13.134-4.323-14.641-11.606c-2.785-13.461,0.35-25.669,8.14-36.617c7.697-10.817,17.802-18.199,30.918-22.021
	c11.201-3.265,19.497,5.644,18.965,14.778C953.876,490.957,953.959,492.628,953.959,494.293z M947.947,486.147
	c0.048-8.692-4.065-12.194-10.271-10.006c-3.679,1.298-7.601,3.641-9.958,6.653c-11.812,15.094-21.763,31.266-25.923,50.354
	c-1.399,6.421,3.172,11.253,9.364,9.417c2.849-0.845,5.755-2.476,7.908-4.517c11.153-10.569,17.837-24.068,23.846-37.901
	C945.163,494.972,946.754,489.509,947.947,486.147z"/>
<path fill-rule="evenodd" clip-rule="evenodd" d="M971.158,79.498c-0.965,1.536-2.017,3.023-2.879,4.615
	c-8.553,15.797-17.137,31.577-25.539,47.453c-1.344,2.538-2.329,5.49-2.538,8.32c-0.123,1.673,1.196,4.11,2.623,5.03
	c1.12,0.723,4.221,0.288,5.027-0.74c4.117-5.252,7.773-10.866,11.598-16.349c0.499-0.714,1.038-1.4,1.559-2.1
	c0.443,0.242,0.887,0.484,1.33,0.726c-1.176,2.276-2.211,4.641-3.562,6.809c-2.07,3.323-3.888,7.025-6.697,9.6
	c-2.391,2.19-6.161,4.4-9.089,4.127c-4.582-0.429-5.831-4.717-6.108-9.227c-0.5-8.14,2.264-15.438,5.03-22.792
	c0.324-0.86,0.636-1.725,0.519-2.812c-5.494,7.565-10.805,15.273-16.555,22.638c-3.193,4.091-6.751,8.079-10.81,11.267
	c-5.409,4.249-12.374,0.465-13.127-6.525c-1.099-10.197,2.197-19.05,7.99-27.179c5.119-7.184,10.292-14.328,15.438-21.492
	c0.193-0.269,0.41-0.536,0.529-0.838c1.207-3.07,4.281-6.444,0.338-9.249c-3.409-2.425-6.191,0.754-8.399,2.814
	c-3.235,3.019-5.893,6.652-8.846,9.979c-0.841,0.948-1.854,1.742-3.83,3.57c1.913-5.73,12.379-16.818,16.137-18.093
	c5.367-1.819,10.114,1.711,10.714,7.518c0.842,8.144-1.719,15.211-6.131,21.794c-5.54,8.267-11.193,16.458-16.678,24.761
	c-1.041,1.575-2.051,3.493-2.138,5.298c-0.111,2.321,0.723,4.688,1.15,7.034c2.558-0.688,5.927-0.581,7.523-2.211
	c4.801-4.902,9.389-10.163,13.2-15.858c10.512-15.71,20.585-31.712,30.957-47.792c3.052,4.146,6.819,2.245,10.551-1.485
	C970.683,78.572,970.92,79.035,971.158,79.498z"/>
<path fill-rule="evenodd" clip-rule="evenodd" d="M857.156,497.89c0.812-1.733,1.313-3.722,2.49-5.155
	c4.279-5.21,8.728-10.284,13.226-15.31c2.75-3.073,6.812-3.897,9.869-1.937c2.457,1.575,4.626,5.165,5.017,8.114
	c1.321,9.957-2.714,18.984-6.778,27.706c-10.366,22.247-22.563,43.479-37.915,62.686c-6.286,7.865-13.965,14.718-24.128,17.134
	c-5.262,1.251-11.001,2.282-16.096-1.765c-2.377-1.888-3.921-3.951-2.219-6.501c1.014-1.52,3.426-2.741,5.311-2.899
	c3.076-0.26,3.896,2.098,4.144,4.96c0.137,1.58,1.416,4.332,2.239,4.354c2.955,0.08,6.895,0.242,8.726-1.477
	c5.373-5.042,10.964-10.368,14.588-16.666c13.34-23.183,26.027-46.745,38.705-70.302c2.912-5.409,5.045-11.285,7.036-17.116
	c0.639-1.868-0.332-4.286-0.566-6.452c-2.219,0.612-5.204,0.524-6.518,1.963c-4.734,5.186-8.905,10.888-13.293,16.392
	c-0.827,1.038-1.675,2.061-2.513,3.09C858.039,498.436,857.597,498.163,857.156,497.89z"/>
<path fill-rule="evenodd" clip-rule="evenodd" d="M738.96,328.367c-1.787-22.227,18.134-43.293,37.118-49.02
	c17.873-5.391,22.77,8.191,21.604,22.724c-0.879,10.958-5.369,20.767-12.803,29c-8.084,8.952-17.866,15.292-29.801,17.661
	c-9.966,1.978-15.701-6.918-16.1-13.874C738.857,332.701,738.96,330.531,738.96,328.367z M744.966,336.25
	c-0.029,9.315,1.352,10.644,8.392,10.566c5.33-0.06,8.994-3.262,11.935-6.968c11.967-15.087,21.407-31.542,25.865-50.502
	c1.305-5.55-1.694-10.208-7.041-9.271c-4.512,0.79-9.743,2.948-12.681,6.256c-10.139,11.417-17.088,24.989-23.146,38.938
	C746.497,329.397,745.648,333.936,744.966,336.25z"/>
<path fill-rule="evenodd" clip-rule="evenodd" d="M1567.959,98.129c1.838,23.729-19.774,45.263-41.012,50.562
	c-8.108,2.023-15.474-3.512-17.023-11.628c-5.159-27.013,14.732-49.516,35.575-57.233
	C1560.023,74.45,1569.747,82.335,1567.959,98.129z M1562.883,88.761c0.311-7.069-6.19-10.795-11.734-8.423
	c-3.662,1.566-7.587,3.872-9.922,6.96c-11.548,15.273-21.412,31.518-25.771,50.516c-1.075,4.687,2.046,8.605,6.825,9.051
	c5.338,0.497,9.768-1.63,12.471-5.585c7.155-10.468,14.1-21.136,20.265-32.204C1558.516,102.792,1560.317,95.563,1562.883,88.761z"
	/>
<path fill-rule="evenodd" clip-rule="evenodd" d="M967.958,298.341c0.364,20.005-10.135,33.79-26.131,43.793
	c-5.33,3.333-11.863,5.455-18.111,6.419c-7.222,1.115-12.414-3.913-13.727-11.211c-3.768-20.954,4.932-36.975,20.866-49.266
	c5.705-4.4,13.117-7.041,20.15-9.151c8.95-2.686,16.577,3.628,16.939,12.922C968.03,294.009,967.958,296.177,967.958,298.341z
	 M961.96,291.242c-0.004-9.896-4.822-13.646-10.887-10.865c-3.64,1.668-7.581,3.9-9.913,6.991
	c-11.536,15.289-21.367,31.56-25.765,50.542c-1.022,4.412,2.073,8.504,6.508,8.934c5.448,0.527,10.082-1.474,12.95-5.644
	c7.009-10.189,13.899-20.525,19.889-31.329C958.386,303.299,960.267,295.749,961.96,291.242z"/>
<path fill-rule="evenodd" clip-rule="evenodd" d="M529.875,302.297c0.772-1.698,1.209-3.686,2.377-5.046
	c4.802-5.591,9.233-11.736,14.928-16.259c6.102-4.845,11.692-1.725,12.771,6.06c1.183,8.534-1.416,16.386-4.708,24.01
	c-10.007,23.169-22.74,44.797-38.046,64.826c-6.479,8.478-13.994,16.312-24.905,19.011c-4.248,1.051-9.011,1.37-13.255,0.552
	c-2.329-0.449-4.577-3.709-5.815-6.218c-0.477-0.967,1.556-4.051,3.139-4.957c2.649-1.517,4.793,0.085,5.544,2.949
	c2.261,8.62,6.598,9.807,13.321,3.873c7.524-6.639,12.992-14.812,17.71-23.469c12.186-22.358,24.191-44.815,36.083-67.332
	c2.264-4.286,3.915-8.948,5.339-13.594c0.45-1.469-0.268-3.973-1.378-5.011c-0.774-0.723-3.739-0.367-4.671,0.562
	c-4,3.992-7.712,8.291-11.323,12.648c-2.113,2.551-3.84,5.424-5.74,8.151C530.788,302.802,530.331,302.55,529.875,302.297z"/>
<path fill-rule="evenodd" clip-rule="evenodd" d="M724.595,476.737c4.779,0,8.871,0,12.963,0c0.157,0.474,0.315,0.947,0.473,1.422
	c-1.326,0.547-2.789,1.771-3.955,1.533c-9.029-1.836-13.87,2.356-17.845,10.157c-7.401,14.527-15.743,28.575-23.667,42.837
	c-0.63,1.133-1.458,2.371-1.482,3.575c-0.037,1.827-0.04,4.606,1.017,5.269c1.354,0.849,4.509,0.777,5.604-0.257
	c4.603-4.35,8.815-9.129,12.982-13.915c1.687-1.938,2.892-4.294,4.649-6.966c0.702,1.333,1.646,2.548,1.434,2.806
	c-5.438,6.566-10.224,13.988-16.736,19.272c-7.852,6.371-13.289-0.183-13.955-8.199c-0.538-6.467,1.805-12.43,4.968-18.119
	c6.571-11.822,12.906-23.775,19.437-35.855c-3.7-1.644-8.435,1.1-12.707-2.529c1.822-0.609,2.346-0.99,2.736-0.885
	c11.402,3.1,15.35-4.854,19.451-12.874c3.325-6.5,6.996-12.823,10.672-19.512c4.465,5.954,8.049,1.732,13.049-0.967
	C737.124,454.938,731.115,465.395,724.595,476.737z"/>
<path fill-rule="evenodd" clip-rule="evenodd" d="M1242.357,81.481c5.778,0,9.957,0,14.136,0c0.029,0.633,0.058,1.266,0.087,1.898
	c-3.577,0.141-7.162,0.495-10.729,0.361c-3.514-0.132-5.733,0.518-7.702,4.131c-9.047,16.605-18.593,32.939-27.951,49.375
	c-0.242,0.425-0.565,0.919-0.54,1.362c0.152,2.612,0.396,5.22,0.609,7.828c2.547-0.688,5.854-0.601,7.494-2.211
	c4.431-4.352,8.142-9.434,12.161-14.207c1.299-1.543,2.671-3.026,4.009-4.537c0.49,0.411,0.98,0.822,1.47,1.233
	c-3.467,4.514-6.875,9.073-10.433,13.515c-1.345,1.679-2.924,3.216-4.59,4.582c-3.033,2.487-6.053,5.221-10.538,3.404
	c-4.553-1.845-5.863-6.06-5.669-10.013c0.233-4.768,1.196-9.87,3.298-14.105c5.944-11.979,12.641-23.586,19.012-35.354
	c0.766-1.414,1.357-2.922,2.322-5.024c-4.242,0-7.95,0-11.658,0c-0.131-0.508-0.262-1.017-0.394-1.525
	c1.141-0.464,2.407-1.514,3.401-1.3c9.618,2.067,13.551-3.595,16.994-11.251c3.241-7.209,7.666-13.886,11.612-20.869
	c3.52,4.13,5.02,4.125,12.684-0.705C1254.881,59.557,1249.014,69.827,1242.357,81.481z"/>
<path fill-rule="evenodd" clip-rule="evenodd" d="M999.423,284.211c-3.773-1.587-8.366,1.501-11.489-1.825
	c0.063-0.528,0.127-1.057,0.19-1.585c3.426,0,6.909,0.371,10.256-0.145c1.881-0.29,4.256-1.626,5.175-3.207
	c5.482-9.435,10.604-19.078,15.893-28.732c4.332,4.362,6.216,4.229,12.661-0.265c-6.094,10.56-12.187,21.12-18.309,31.73
	c4.488,1.834,9.506-1.244,12.915,3.62c-4.079,0-8.188-0.284-12.224,0.133c-1.73,0.179-4.008,1.407-4.852,2.852
	c-9.458,16.199-18.692,32.529-27.954,48.843c-0.551,0.972-0.728,2.15-1.245,3.146c-1.343,2.586-2.989,5.826,0.542,7.152
	c2.149,0.807,6.152-0.097,7.785-1.75c4.699-4.757,8.604-10.297,12.854-15.502c0.923-1.129,1.983-2.146,2.981-3.213
	c0.404,0.301,0.809,0.602,1.214,0.902c-1.604,2.397-3.048,4.922-4.844,7.164c-3.183,3.974-6.388,7.962-9.946,11.589
	c-2.848,2.902-6.788,5.125-10.679,3.233c-3.812-1.854-5.99-5.874-5.298-10.341c0.742-4.778,1.397-9.85,3.512-14.082
	c6.055-12.119,12.844-23.87,19.3-35.79C998.544,286.882,998.933,285.467,999.423,284.211z"/>
<path fill-rule="evenodd" clip-rule="evenodd" d="M753.02,248.678c-6.069,10.479-12.138,20.959-18.242,31.499
	c4.514,1.832,9.527-1.232,12.937,3.626c-4.079,0-8.188-0.284-12.224,0.133c-1.729,0.179-4.008,1.407-4.851,2.852
	c-9.456,16.198-18.716,32.513-27.926,48.854c-1.181,2.095-2.025,4.466-2.526,6.815c-0.212,0.991,0.659,3.046,1.404,3.245
	c1.857,0.495,4.67,1.05,5.775,0.076c4.148-3.652,7.869-7.816,11.547-11.969c2.352-2.654,4.346-5.624,6.5-8.453
	c0.471,0.339,0.94,0.678,1.411,1.017c-1.607,2.402-3.055,4.933-4.856,7.18c-3.185,3.972-6.392,7.961-9.956,11.581
	c-2.851,2.895-6.788,5.102-10.682,3.212c-3.595-1.745-5.912-5.557-5.274-9.852c0.734-4.941,1.355-10.197,3.525-14.572
	c6.019-12.134,12.831-23.873,19.286-35.793c0.681-1.257,1.065-2.674,1.546-3.909c-3.764-1.615-8.366,1.521-11.479-1.849
	c0.063-0.522,0.127-1.046,0.19-1.569c3.43,0,6.915,0.372,10.265-0.145c1.881-0.29,4.246-1.63,5.175-3.213
	c5.519-9.409,10.682-19.027,15.989-28.622C744.763,253.074,746.666,252.94,753.02,248.678z"/>
<path fill-rule="evenodd" clip-rule="evenodd" d="M1796.455,81.488c5.695,0,9.873,0,14.051,0c0.02,0.771,0.039,1.542,0.059,2.313
	c-3.744,0-7.515,0.279-11.225-0.079c-3.636-0.352-5.362,1.008-7.135,4.208c-8.767,15.828-17.908,31.449-26.912,47.146
	c-0.162,0.283-0.268,0.604-0.374,0.916c-1.173,3.434-3.932,6.991-0.529,10.39c1.828,1.827,7.959-1,10.54-4.436
	c3.629-4.831,7.238-9.678,10.917-14.472c0.557-0.727,1.44-1.203,3.171-1.207c-0.629,1.283-1.033,2.754-1.923,3.818
	c-4.221,5.046-8.356,10.193-12.962,14.873c-2.705,2.75-5.977,5.017-10.521,3.129c-5.362-2.226-5.487-7.29-4.874-11.143
	c0.997-6.261,3.166-12.54,5.959-18.266c5.635-11.55,12.022-22.732,18.126-34.115c-3.544-2.477-8.795,1.493-13.048-3.764
	c4.683,0,7.988-0.219,11.252,0.061c3.37,0.287,5.029-1.307,6.511-4.078c4.763-8.914,9.753-17.707,14.655-26.546
	c0.245-0.441,0.485-0.885,0.84-1.533c3.965,6.308,7.8,1.209,12.063,0.513C1809,59.771,1803.114,69.959,1796.455,81.488z"/>
<path fill-rule="evenodd" clip-rule="evenodd" d="M317.958,126.132c-0.275,0.99-0.267,2.225-0.873,2.934
	c-4.813,5.634-9.409,11.529-14.808,16.552c-2.11,1.963-6.668,3.315-9.085,2.357c-2.412-0.956-4.568-4.987-5.045-7.957
	c-1.676-10.444,4.032-18.911,8.676-27.537c5.008-9.305,10.186-18.517,15.753-28.608c-4.678,0-8.523,0-12.369,0
	c-0.044-0.485-0.089-0.971-0.133-1.456c4.152-3.416,9.474-0.578,14.431-1.958c5.675-10.176,11.528-20.67,17.492-31.364
	c3.939,5.275,7.623,2.152,12.755-0.766c-6.521,11.363-12.348,21.519-18.461,32.173c4.648,0.249,9.025,0.482,13.403,0.716
	c0,0.711,0,1.421,0,2.131c-3.572,0.151-7.175,0.652-10.71,0.357c-3.641-0.304-5.802,0.974-7.527,4.081
	c-9.344,16.829-18.807,33.593-28.223,50.382c-0.319,0.569-0.84,1.172-0.831,1.752c0.031,2.058,0.252,4.113,0.401,6.169
	c2.298-0.167,5.495,0.573,6.735-0.659c5.058-5.021,9.522-10.639,14.189-16.051c1.087-1.26,2.111-2.573,3.165-3.862
	C317.249,125.722,317.603,125.927,317.958,126.132z"/>
<path fill-rule="evenodd" clip-rule="evenodd" d="M1376.885,101.09c3.535-7.663,7.902-15.028,14.805-20.01
	c8.5-6.136,13.231,0.545,14.305,8.614c1.316,9.905-3.639,17.706-8.133,25.718c-3.732,6.651-7.542,13.266-11.045,20.038
	c-1.79,3.462-1.658,7.324,1.496,9.909c3.396,2.784,7.549,1.867,10.299-0.894c5.617-5.641,11.366-11.382,15.741-17.959
	c4.088-6.147,6.839-13.289,9.477-20.259c1.925-5.086,2.368-10.402-1.207-15.51c-1.83-2.614-0.804-5.491,1.693-7.935
	c2.898-2.837,5.888-4.962,10.029-3.668c0.796,0.248,1.67,2.205,1.512,3.22c-0.797,5.121-1.164,10.498-3.076,15.222
	c-5.585,13.797-12.851,26.692-22.311,38.329c-4.541,5.586-9.205,10.523-16.652,12.013c-5.345,1.068-10.757-1.842-12.915-6.805
	c-4.655-10.699-0.187-19.745,4.943-28.629c4.072-7.051,8.624-13.825,12.657-20.896c1.065-1.87,1.323-4.383,1.336-6.604
	c0.007-1.364-0.935-3.672-1.845-3.888c-1.483-0.351-3.945,0.116-4.847,1.195c-4.392,5.261-8.408,10.834-12.54,16.31
	c-0.829,1.1-1.58,2.257-2.367,3.388C1377.789,101.69,1377.336,101.391,1376.885,101.09z"/>
<path fill-rule="evenodd" clip-rule="evenodd" d="M847.9,301.277c0.354-1.16,0.433-2.523,1.11-3.446
	c3.675-5.009,7.281-10.097,11.349-14.778c2.607-3.002,6.167-5.507,10.438-3.774c4.391,1.78,5.644,6.004,6.144,10.34
	c1.018,8.82-2.612,16.318-6.908,23.599c-3.894,6.598-7.823,13.175-11.711,19.776c-0.497,0.843-1.294,1.842-1.175,2.654
	c0.477,3.255,0.318,7.217,2.152,9.513c2.635,3.299,6.598,1.494,9.832-0.406c8.275-4.862,12.89-13.03,17.586-20.786
	c3.645-6.019,5.686-13.019,8.346-19.619c1.699-4.218,1.17-8.215-0.972-12.289c-2.798-5.325,1.889-12.917,7.93-13.24
	c3.266-0.175,5.438,1.47,4.834,4.695c-1.073,5.727-1.952,11.719-4.369,16.923c-7.259,15.637-15.199,30.953-28.372,42.73
	c-4.606,4.12-9.693,6.966-15.872,4.228c-6.05-2.681-8.212-7.941-8.335-14.413c-0.164-8.637,3.786-15.659,8.025-22.694
	c4.188-6.948,8.203-14.003,12.146-21.092c0.671-1.205,1.048-2.923,0.755-4.221c-0.324-1.436-1.306-3.158-2.513-3.816
	c-0.916-0.5-3.169,0.01-3.907,0.864c-4.119,4.767-7.971,9.766-11.888,14.706c-1.296,1.636-2.515,3.334-3.77,5.003
	C848.471,301.581,848.185,301.429,847.9,301.277z"/>
<path fill-rule="evenodd" clip-rule="evenodd" d="M660.941,484.717c-5.144,4.571-10.286,9.142-16.118,14.324
	c0.626-4.932,4.059-7.122,6.738-9.118c9.674-7.202,19.721-13.903,29.639-20.774c0.396-0.274,0.922-0.49,1.395-0.504
	c2.516-0.072,5.125-0.44,7.492,0.146c0.646,0.159,1.333,3.692,0.646,4.923c-1.271,2.281-3.358,4.265-5.517,5.792
	c-0.582,0.412-3.102-0.914-3.935-2.035c-2.666-3.591-5.841-3.025-8.495-0.813c-7.498,6.247-13.043,13.633-6.989,25.706
	c2.467,4.92,4.266,10.188,6.194,15.362c2.876,7.714-1.288,13.737-6.181,18.368c-7.097,6.718-16.291,8.862-26.064,7.678
	c-10.74-1.303-16.163-14.445-9.772-24.283c1.989-3.062,4.772-6.098,7.924-7.738c2.046-1.065,6.909-0.512,7.834,0.979
	c1.293,2.082,0.719,5.93-0.21,8.625c-1.06,3.07-3.867,2.8-6.666,1.539c-3.536-1.593-6.215-0.29-7.966,3.111
	c-2.01,3.904-0.786,8.98,2.432,11.937c5.611,5.154,16.915,4.282,22.161-4.636c2.93-4.979,4.612-11.118,5.239-16.91
	c0.703-6.482-0.71-13.166-0.643-19.757c0.038-3.823,1.177-7.636,1.82-11.453C661.581,485.028,661.26,484.872,660.941,484.717z"/>
<path fill-rule="evenodd" clip-rule="evenodd" d="M193.708,505.642c6.778-7.687,14.854-16.99,23.135-26.107
	c1.593-1.754,3.843-3.119,6.046-4.072c5.737-2.482,8.888-0.387,7.898,5.67c-0.55,3.365-2.546,6.636-4.473,9.565
	c-0.778,1.184-3.365,2.146-4.664,1.736c-1.217-0.385-1.916-2.668-2.655-4.206c-0.463-0.964-0.579-2.094-1.268-4.769
	c-3.977,3.628-7.583,6.147-10.211,9.445c-12.638,15.863-23.636,32.828-33.034,50.816c-0.142,0.271-0.502,0.428-0.761,0.637
	c-3.355-4.216-4.435-4.227-12.601,0.564c4.353-7.213,8.374-13.272,11.787-19.656c7.215-13.494,14.239-27.095,20.994-40.822
	c0.944-1.919-0.073-4.804-0.182-7.241c-2.448,0.897-5.587,1.131-7.208,2.821c-4.291,4.472-7.899,9.595-11.834,14.414
	c-1.08,1.322-2.352,2.487-4.053,3.229c4.473-8.46,9.375-16.62,17.807-21.553c6.055-3.543,10.059-1.254,9.371,5.607
	C196.936,490.346,194.916,498.853,193.708,505.642z"/>
<path fill-rule="evenodd" clip-rule="evenodd" d="M1733.98,88.31c-5.181,4.551-10.763,9.455-16.345,14.359
	c-0.376-0.4-0.752-0.8-1.128-1.2c5.011-4.582,9.917-9.286,15.058-13.718c7.453-6.427,15.45-11.977,24.912-15.231
	c2.946-1.014,5.277-0.881,6.596,1.843c1.81,3.736-0.896,6.36-3.53,8.055c-1.319,0.849-4.843,0.568-5.663-0.505
	c-3.244-4.245-6.533-2.828-9.744-0.674c-8.035,5.392-10.605,16.23-6.312,25.074c1.92,3.954,3.82,7.949,5.294,12.081
	c3.71,10.399,1.116,17.726-8.182,23.959c-6.501,4.357-13.359,7.061-21.462,5.511c-12.849-2.456-17.933-14.435-10.631-25.418
	c3.478-5.232,8.432-8.004,12.17-7.16c3.744,0.845,5.346,3.169,4.786,6.72c-0.566,3.594-5.052,6.909-7.955,5.6
	c-4.553-2.054-7.237-1.307-9.029,3.496c-1.642,4.398-0.544,8.951,3.192,11.727c6.422,4.769,12.401,3.67,19.091-1.811
	c5.471-4.482,7.45-11.028,7.799-17.889c0.304-5.979-0.07-11.988,0.103-17.977C1733.161,99.494,1733.644,93.847,1733.98,88.31z"/>
<path fill-rule="evenodd" clip-rule="evenodd" d="M1180.192,87.917c-5.621,4.882-11.206,9.732-16.791,14.583
	c-0.289-0.248-0.577-0.496-0.866-0.744c3.852-3.862,7.307-8.258,11.64-11.47c7.85-5.82,16.213-10.947,24.39-16.322
	c0.801-0.527,1.775-1.034,2.696-1.086c2.323-0.131,4.848-0.487,6.896,0.29c0.741,0.282,1.103,3.964,0.312,5.325
	c-1.218,2.097-3.371,3.944-5.559,5.029c-0.811,0.402-3.137-1.379-4.241-2.632c-1.862-2.112-3.576-2.476-6.017-1.056
	c-8.543,4.972-15.085,14.037-9.101,27.056c1.57,3.417,3.263,6.786,5.061,10.089c5.191,9.538,0.492,19.165-5.367,23.82
	c-7.163,5.69-15.338,8.757-24.941,7.075c-12.456-2.182-14.05-11.534-11.56-21.163c1.36-5.261,4.598-9.497,10.639-11.262
	c3.374-0.985,5.562,0.173,6.682,2.311c0.989,1.891,1.199,5.294,0.097,6.873c-1.188,1.701-4.613,3.24-6.508,2.742
	c-3.505-0.921-6.495-1.652-8.417,1.938c-2.149,4.016-2.274,8.275,0.811,12.013c5.173,6.267,17.311,5.473,22.436-1.714
	c4.023-5.643,6.747-11.885,6.519-19.135c-0.199-6.327-0.186-12.67,0.009-18.997C1179.144,97.129,1179.75,92.791,1180.192,87.917z"/>
<path fill-rule="evenodd" clip-rule="evenodd" d="M1141.211,120.49c-0.625,1.172-1.048,2.524-1.908,3.486
	c-6.318,7.064-11.959,15.017-19.288,20.831c-10.28,8.156-20.989,2.902-23.06-10.151c-2.904-18.308,6.129-31.439,18.837-42.744
	c6.754-6.009,14.521-10.452,23.594-12.342c6.264-1.305,10.714,2.914,9.173,9.062c-3.561,14.199-14.072,20.953-26.972,25.127
	c-1.233,0.399-2.62,1.158-3.75,0.908c-7.176-1.586-8.935,3.569-10.948,8.488c-1.416,3.458-2.854,6.908-4.23,10.382
	c-1.685,4.248-0.934,8.254,2.41,11.173c3.703,3.231,7.641,2.252,11.75-0.128c8.877-5.142,14.2-13.451,20.024-21.361
	c0.675-0.915,1.285-1.882,2.019-2.745c0.279-0.328,0.821-0.433,1.243-0.639C1140.474,120.055,1140.842,120.272,1141.211,120.49z
	 M1112.232,112.795c2.601,0,4.096,0.105,5.565-0.038c0.938-0.091,1.835-0.562,2.757-0.841c11.996-3.638,18.437-13.096,23.872-23.345
	c0.951-1.793-0.166-4.683-0.328-7.065c-2.435,0.331-5.342-0.083-7.226,1.113C1125.702,89.717,1120.26,101.573,1112.232,112.795z"/>
<path fill-rule="evenodd" clip-rule="evenodd" d="M1333.323,321.081c-8.504,10.373-14.641,23.256-29.574,26.805
	c-5.016,1.192-10.047-1.141-12.816-6.354c-4.269-8.035-4.067-16.427-0.982-24.703c6.92-18.562,20.297-30.539,38.834-36.876
	c3.34-1.142,7.876-1.595,9.701,1.642c1.544,2.738,1.65,7.163,0.669,10.302c-4.586,14.67-21.829,22.773-33.181,22.83
	c-2.69,0.013-4.234,0.648-5.099,3.288c-2.21,6.753-5.491,13.296-6.655,20.207c-1.088,6.467,4.099,9.465,10.493,7.725
	c8.338-2.27,12.591-9.339,18.082-14.882c2.828-2.855,4.707-6.639,7.124-9.922c0.512-0.695,1.501-1.041,2.27-1.548
	C1332.567,320.09,1332.945,320.585,1333.323,321.081z M1303.567,312.586c14.056,0.654,31.785-14.29,33.351-27.018
	c0.421-3.423-2.599-5.961-5.72-4.302c-3.553,1.891-7.394,4.001-9.856,7.033C1315.212,295.845,1309.795,303.969,1303.567,312.586z"/>
<path fill-rule="evenodd" clip-rule="evenodd" d="M1695.306,119.177c-0.655,2.268-0.65,3.899-1.46,4.79
	c-6.388,7.032-12.599,14.282-19.55,20.726c-4.298,3.984-10.125,5.397-15.741,2.183c-5.22-2.987-7.115-8.066-7.633-13.913
	c-1.542-17.422,6.447-30.228,19.229-40.925c6.849-5.73,14.064-10.515,23.012-12.362c6.717-1.387,11.354,3.112,9.522,9.695
	c-3.071,11.048-10.644,18.133-20.899,22.263c-4.446,1.79-9.494,2.046-14.207,3.241c-1.365,0.347-3.139,1.247-3.663,2.383
	c-2.582,5.596-5.373,11.208-6.924,17.12c-0.794,3.031-0.149,7.437,1.652,9.898c2.245,3.068,6.861,3.739,10.261,1.365
	c4.939-3.449,9.737-7.285,13.878-11.638c3.786-3.979,6.602-8.877,9.9-13.33C1693.018,120.221,1693.735,120.052,1695.306,119.177z
	 M1666.314,113.357c3.659-0.624,5.927-0.831,8.095-1.411c12.297-3.287,18.608-12.942,23.94-23.306
	c0.963-1.871-0.312-4.892-0.553-7.382c-2.424,0.503-5.296,0.34-7.196,1.619C1679.824,90.137,1674.045,101.458,1666.314,113.357z"/>
<path fill-rule="evenodd" clip-rule="evenodd" d="M645.047,120.216c-0.398,1.308-0.422,2.957-1.253,3.869
	c-6.401,7.023-12.64,14.249-19.589,20.7c-4.164,3.866-9.931,5.294-15.319,2.252c-5.498-3.104-7.341-8.418-8.045-14.711
	c-2.809-25.095,22.129-48.208,43.289-53.11c5.709-1.323,10.249,4.135,8.521,10.239c-2.165,7.654-6.379,13.888-13.193,18.141
	c-6.562,4.094-13.419,7.349-21.449,7.295c-1.146-0.008-2.926,0.878-3.353,1.827c-3.045,6.773-6.797,13.455-8.368,20.597
	c-1.294,5.882,4.437,10.896,10.933,8.894c6.886-2.123,11.347-7.097,15.655-12.263c3.819-4.579,7.248-9.483,10.85-14.244
	C644.167,119.873,644.607,120.044,645.047,120.216z M616.694,112.461c15.091,2.438,28.899-15.316,32.105-25.173
	c0.559-1.719-0.242-5.52-1.074-5.729c-2.079-0.521-5.155-0.285-6.726,0.999c-4.272,3.495-8.381,7.368-11.797,11.689
	C624.729,99.907,620.981,106.14,616.694,112.461z"/>
<path fill-rule="evenodd" clip-rule="evenodd" d="M1087.252,120.91c-8.218,10.688-14.216,23.675-29.514,26.991
	c-4.838,1.049-9.197-0.851-11.821-5.268c-7.188-12.101-4.15-23.902,2.209-34.773c8.493-14.52,21.117-24.362,37.747-28.483
	c4.822-1.195,7.912,1.232,8.102,6.105c0.445,11.453-6.673,17.977-15.34,23.331c-5.889,3.638-12.23,6.165-19.377,6.055
	c-1.004-0.016-2.484,0.515-2.959,1.279c-4.135,6.667-7.545,13.576-8.423,21.615c-0.794,7.273,7.273,10.566,12.432,8.031
	c10.048-4.938,15.795-13.945,22.33-22.269c1.045-1.331,2.088-2.663,3.132-3.995C1086.264,119.99,1086.758,120.45,1087.252,120.91z
	 M1059.422,113.101c2.364-0.395,4.806-0.535,7.08-1.227c11.758-3.576,18.227-12.724,23.274-23.026
	c0.909-1.855-0.192-4.695-0.365-7.081c-2.223,0.259-4.916-0.202-6.591,0.894C1071.811,89.864,1065.707,101.148,1059.422,113.101z"/>
<path fill-rule="evenodd" clip-rule="evenodd" d="M1376.196,522.729c-3.133,8.947-8.964,15.488-16.37,20.517
	c-3.381,2.296-8.41,0.229-10.441-3.514c-3.59-6.612-3.568-13.535,0.099-19.722c5.977-10.084,12.862-19.626,19.2-29.502
	c1.74-2.712,3.131-5.716,4.2-8.755c0.418-1.187-0.072-3.24-0.938-4.141c-0.596-0.618-3.075-0.462-3.812,0.263
	c-4.849,4.777-9.464,9.792-14.128,14.754c-1.036,1.101-1.965,2.303-3.532,2.983c2.785-7.066,7.359-12.785,13.075-17.629
	c1.101-0.934,2.448-1.607,3.75-2.265c4.571-2.309,8.932-0.562,10.62,4.194c3.158,8.892-0.401,16.401-5.132,23.491
	c-5.883,8.816-12.248,17.312-18.042,26.184c-2.259,3.459-5.116,8.245-0.651,11.432c4.291,3.062,7.642-1.188,10.304-4.261
	c3.42-3.946,6.431-8.246,9.68-12.345C1374.624,523.727,1375.482,523.285,1376.196,522.729z"/>
<path fill-rule="evenodd" clip-rule="evenodd" d="M595.702,495.046c1.403-2,2.609-4.18,4.247-5.963
	c3.843-4.184,7.568-8.591,12.001-12.065c2.103-1.648,6.513-2.733,8.44-1.608c2.32,1.354,3.901,5.189,4.423,8.191
	c1.732,9.961-3.734,17.578-9.214,25.056c-4.636,6.327-9.511,12.496-13.818,19.038c-1.611,2.446-2.277,5.702-2.681,8.683
	c-0.226,1.669,0.988,5.049,1.522,5.042c2.296-0.027,5.225-0.351,6.742-1.801c3.897-3.725,7.184-8.093,10.68-12.233
	c1.312-1.552,2.527-3.184,3.787-4.779c0.497,0.314,0.994,0.629,1.492,0.943c-1.831,2.957-3.369,6.157-5.567,8.81
	c-2.752,3.32-5.825,6.46-9.155,9.197c-6.191,5.093-12.695,1.936-14.458-4.964c-2.1-8.226-0.065-16.119,4.717-23.147
	c5.967-8.769,12.065-17.448,18.112-26.163c0.188-0.271,0.537-0.463,0.64-0.753c1.055-2.956,4.092-6.48,1.052-8.935
	c-3.246-2.621-6.023,0.86-8.185,3.265c-3.399,3.782-6.538,7.798-9.86,11.651c-1.12,1.298-2.463,2.404-3.703,3.599
	C596.511,495.754,596.107,495.399,595.702,495.046z"/>
<path fill-rule="evenodd" clip-rule="evenodd" d="M251.41,99.821c1.517-2.34,2.73-4.966,4.613-6.961
	c4.057-4.299,8.285-8.474,12.763-12.327c4.905-4.221,9.641,0.024,11.112,4.18c3.024,8.544-0.572,15.742-4.982,22.525
	c-6.303,9.695-13.049,19.102-19.509,28.696c-0.785,1.166-1.603,2.89-1.306,4.08c0.554,2.216,1.474,4.788,3.125,6.1
	c0.868,0.689,4.217-0.405,5.392-1.672c5.018-5.411,9.64-11.19,14.422-16.822c0.278-0.327,0.701-0.533,1.056-0.796
	c0.363,0.245,0.726,0.489,1.089,0.733c-2.276,3.442-4.124,7.296-6.936,10.225c-3.586,3.736-7.679,7.163-12.069,9.895
	c-3.343,2.08-6.264,0.264-8.332-3.194c-5.909-9.88-2.102-18.68,3.118-27.051c5.86-9.397,12.334-18.411,18.458-27.646
	c0.786-1.186,1.398-2.682,1.493-4.074c0.096-1.403-0.138-3.281-1.019-4.146c-0.625-0.613-3.074-0.414-3.833,0.324
	c-4.767,4.635-9.32,9.493-13.872,14.345c-1.288,1.373-2.336,2.971-3.495,4.466C252.268,100.407,251.839,100.114,251.41,99.821z"/>
<path fill-rule="evenodd" clip-rule="evenodd" d="M837.518,327.771c-2.227,3.214-4.247,6.598-6.736,9.592
	c-2.439,2.934-5.236,5.604-8.087,8.153c-5.238,4.685-11.422,3.24-13.96-3.173c-3.305-8.349-1.247-15.827,3.095-22.734
	c5.638-8.968,12.055-17.443,17.976-26.238c1.427-2.12,2.523-4.582,3.194-7.044c0.378-1.388,0.084-3.861-0.823-4.462
	c-1.082-0.717-3.714-0.584-4.683,0.286c-3.733,3.353-7.168,7.061-10.523,10.807c-2.166,2.417-4,5.131-5.982,7.712
	c-0.377-0.216-0.754-0.431-1.132-0.646c0.817-1.662,1.341-3.575,2.507-4.939c3.757-4.395,7.483-8.883,11.76-12.739
	c2.325-2.098,5.07-4.829,9.157-2.848c3.89,1.885,5.353,5.004,5.685,9.015c0.792,9.56-4.225,16.878-9.357,24.104
	c-4.54,6.392-9.385,12.569-13.847,19.013c-1.547,2.232-3.057,4.92-3.276,7.511c-0.19,2.242,1.055,4.976,2.527,6.794
	c0.532,0.655,4.163-0.108,5.356-1.273c4.414-4.308,8.415-9.039,12.538-13.642c1.185-1.322,2.256-2.746,3.379-4.123
	C836.696,327.187,837.107,327.479,837.518,327.771z"/>
<path fill-rule="evenodd" clip-rule="evenodd" d="M210.146,99.206c4.204-7.646,9.748-14.276,17.132-18.978
	c5.767-3.671,10.944,0.04,11.751,7.253c1.103,9.856-3.769,17.33-9.02,24.74c-5.096,7.189-10.607,14.115-15.237,21.59
	c-1.644,2.653-1.952,6.672-1.548,9.901c0.391,3.126,3.501,4.255,5.972,1.915c4.718-4.467,9.035-9.36,13.444-14.146
	c1.298-1.408,2.346-3.049,3.509-4.583c0.434,0.292,0.867,0.583,1.3,0.874c-1.425,2.15-2.643,4.479-4.317,6.413
	c-3.513,4.057-7,8.212-11.041,11.696c-1.778,1.532-5.205,2.608-7.322,1.985c-4.398-1.293-6.371-5.116-6.855-9.793
	c-0.84-8.119,1.664-15.207,6.082-21.799c6.171-9.206,12.382-18.385,18.531-27.605c0.623-0.934,1.429-2.153,1.279-3.103
	c-0.234-1.481-0.946-3.12-1.993-4.141c-0.509-0.497-2.658-0.17-3.342,0.51c-4.628,4.598-9.085,9.368-13.546,14.131
	c-1.225,1.308-2.277,2.776-3.409,4.172C211.059,99.896,210.602,99.551,210.146,99.206z"/>
<path fill-rule="evenodd" clip-rule="evenodd" d="M1398.958,448.753c0.024,4.209-4.388,10.441-8.34,11.778
	c-3.77,1.275-6.596-0.687-6.656-4.619c-0.067-4.397,4.655-10.865,8.747-11.979C1396.809,442.815,1398.932,444.453,1398.958,448.753z
	"/>
<path fill-rule="evenodd" clip-rule="evenodd" d="M644.974,447.695c-0.061,5.754-4.464,11.855-8.611,12.832
	c-1.433,0.337-3.77,0.216-4.501-0.675c-1.024-1.248-1.791-3.844-1.156-5.1c1.744-3.452,3.93-6.854,6.652-9.561
	c1.226-1.219,4.278-1.273,6.236-0.786C644.532,444.639,644.849,447.362,644.974,447.695z"/>
<path fill-rule="evenodd" clip-rule="evenodd" d="M300.958,52.593c0.114,4.381-4.542,10.869-8.643,12.045
	c-3.991,1.145-7.233-1.524-6.249-5.514c1.193-4.84,3.549-8.952,8.746-10.744C298.57,47.084,300.852,48.542,300.958,52.593z"/>
<path fill-rule="evenodd" clip-rule="evenodd" d="M858.958,252.774c0.026,4.269-4.438,10.702-8.499,11.718
	c-1.443,0.361-3.78,0.29-4.562-0.596c-1.149-1.303-2.307-4.184-1.64-5.217c2.332-3.61,5.01-7.289,8.383-9.855
	C856.052,246.229,858.93,248.356,858.958,252.774z"/>
<path fill-rule="evenodd" clip-rule="evenodd" d="M258.939,51.627c0.073,5.742-4.556,11.879-8.666,13.026
	c-3.672,1.025-6.05-0.948-5.785-4.802c0.337-4.888,3.331-8.167,7.028-10.749c1.292-0.901,3.702-1.424,4.967-0.812
	C257.91,48.98,258.619,51.148,258.939,51.627z"/>
<path fill-rule="evenodd" clip-rule="evenodd" d="M409.951,53.532c0.074,5.811-4.494,11.232-9.514,11.045
	c-1.537-0.058-3.943-2.344-4.289-3.964c-1.008-4.713,4.196-10.456,9.111-10.812C408.404,49.573,410.673,50.235,409.951,53.532z"/>
<path fill-rule="evenodd" clip-rule="evenodd" d="M893.059,454.232c1.555-2.575,2.601-5.702,4.759-7.476
	c1.98-1.627,5.161-1.794,7.812-2.604c0.431,2.486,1.801,5.31,1.059,7.375c-0.976,2.715-3.334,5.173-5.646,7.074
	c-1.266,1.04-3.899,1.35-5.468,0.771C894.461,458.963,894.098,456.519,893.059,454.232z"/>
<path fill-rule="evenodd" clip-rule="evenodd" d="M376.065,64.757c-2.054-0.182-3.247-2.077-3.123-5.222
	c0.187-4.695,4.853-9.607,9.075-9.779c3.584-0.145,4.778,2.126,4.801,4.856C386.859,59.617,381.626,64.936,376.065,64.757z"/>
<path fill-rule="evenodd" clip-rule="evenodd" d="M581.031,253.17c-2.935,3.499-5.385,7.647-8.948,10.304
	c-3.134,2.335-7.484-1.301-5.876-5.024c1.634-3.783,4.622-7.35,7.864-9.957C576.821,246.281,579.905,248.618,581.031,253.17z"/>
</svg>
