<?xml version="1.0" encoding="utf-8"?>
<!-- Generator: Adobe Illustrator 16.0.0, SVG Export Plug-In . SVG Version: 6.00 Build 0)  -->
<!DOCTYPE svg PUBLIC "-//W3C//DTD SVG 1.1//EN" "http://www.w3.org/Graphics/SVG/1.1/DTD/svg11.dtd">
<svg version="1.1" id="Lag_1" xmlns="http://www.w3.org/2000/svg" xmlns:xlink="http://www.w3.org/1999/xlink" x="0px" y="0px"
	 width="1761.711px" height="607.789px" viewBox="0 0 1761.711 607.789" enable-background="new 0 0 1761.711 607.789"
	 xml:space="preserve">
<path fill-rule="evenodd" clip-rule="evenodd" d="M272.354,133.628c-0.013,3.316-0.946,4.999-4.342,4.82
	c-8.621-0.455-17.253-0.906-25.882-0.913c-4.901-0.004-9.802,0.87-14.704,1.346c-1.896,0.185-3.794,0.362-5.691,0.543
	c-0.265-0.446-0.531-0.892-0.796-1.337c1.563-1.435,2.932-3.767,4.723-4.156c11.285-2.458,16.4-9.918,18.877-20.614
	c4.773-20.61,10.102-41.092,15.245-61.616c1.524-6.083,1.082-6.865-5.249-7.736c0.45-1.489,0.886-2.933,1.192-3.948
	c7.635-1.23,14.859-2.395,23.117-3.726c-1.448,5.84-2.708,11.118-4.071,16.37c-1.676,6.455-3.495,12.874-5.134,19.339
	c-0.606,2.392-0.146,4.096,2.964,4.444c14.145,1.583,28.21-6.485,32.609-19.85c5.03-15.28-2.759-26.853-18.097-29.006
	c-21.789-3.059-40.274,4.729-54.973,20.786c-7.761,8.478-11.89,18.791-10.691,30.654c0.714,7.068,6.33,10.812,10.57,15.529
	c1.949,2.168,4.109,4.761,1.007,7.713c-2.788,2.654-5.874,2.984-8.79,0.322c-1.806-1.648-3.568-3.497-4.819-5.576
	c-6.881-11.429-6.325-23.456-1.962-35.445c8.11-22.286,25.732-33.493,47.509-39.034c13.725-3.493,27.578-3.33,41.14,1.743
	c19.018,7.114,21.472,25.704,10.943,39.812c-7.675,10.283-18.593,15.864-32.122,17.722c2.233,4.992,4.599,9.589,6.382,14.401
	c4.517,12.194,8.285,24.689,13.286,36.674c3.879,9.292,8.906,18.166,17.294,24.486c10.459,7.881,20.396,6.846,25.438-6.657
	c1.878-5.029,4.462-6.507,8.147-4.794c3.113,1.446,3.843,5.153,2.003,9.389c-2.976,6.854-8.94,10.436-15.536,11.652
	c-11.219,2.07-21.88-0.275-31.073-7.624c-16.659-13.314-24.192-32.017-30.422-51.476c-2.429-7.587-4.563-15.27-7.109-22.815
	c-0.483-1.432-2.268-2.424-3.452-3.618c-1.124,1.275-2.892,2.384-3.272,3.852c-3.873,14.965-7.312,30.046-11.367,44.96
	c-1.118,4.111,0.569,4.27,3.441,4.142C263.216,134.185,267.735,133.889,272.354,133.628z"/>
<path fill-rule="evenodd" clip-rule="evenodd" d="M66.308,487.019c23.891,0.088,40.325,16.373,43.183,38.308
	c2.913,22.351-4.439,41.317-17.986,58.626c-7.843,10.021-17.574,17.154-29.701,20.583c-18.805,5.315-36.47,3.514-50.77-11.222
	c-6.352-6.545-9.812-14.783-10.669-24.156c-1.921-21.006,3.77-39.871,16.476-56.309c10.23-13.233,23.015-23.192,40.737-24.496
	C60.505,488.138,63.399,487.475,66.308,487.019z M92.9,534.785c-1.264-5.083-2.309-14.025-5.725-21.944
	c-5.454-12.644-14.399-18.118-27.686-18.234c-12.802-0.112-23.331,6.315-29.925,17.036c-13.012,21.154-15.584,43.904-7.165,67.5
	c3.884,10.884,11.216,18.523,23.038,20.146c12.973,1.78,23.715-2.723,32.069-13.047C88.821,572.259,91.423,555.655,92.9,534.785z"/>
<path fill-rule="evenodd" clip-rule="evenodd" d="M819.538,495.339c-13.283,0.201-25.533,2.082-35.187,11.709
	c-4.717,4.705-4.987,8.713-1.931,14.594c1.022,1.966,1.525,4.252,1.981,6.451c0.847,4.08-1.482,6.485-5.054,7.144
	c-3.743,0.689-6.805-1.723-7.393-5.088c-0.725-4.15-0.883-8.77,0.185-12.797c4.235-15.999,18.762-24.985,33.046-26.838
	c10.59-1.373,21.313-1.718,31.772-2.505c-5.18,12.137-10.384,24.222-15.499,36.345c-5.159,12.228-8.571,24.94-9.989,38.141
	c-1.398,13.007,7.179,27.981,18.194,30.417c9.619,2.127,18.794-0.106,27.289-5.457c15.504-9.765,24.325-24.713,31.213-40.807
	c5.929-13.853,10.085-28.296,9.394-43.799c-0.367-8.226-2.575-15.7-5.952-23.037c-1.695-3.683-3.766-7.506,0.143-11.229
	c3.629-3.458,8.835-1.878,11.646,4.018c1.444,3.03,2.777,6.435,2.902,9.718c0.529,13.861,1.099,27.914-3.124,41.282
	c-4.252,13.462-8.822,26.984-14.968,39.647c-7.84,16.155-19.181,29.793-35.977,37.77c-10.638,5.052-21.738,7.065-33.418,4.394
	c-10.484-2.399-19.498-12.455-21.418-23.154c-3.324-18.521,1.472-35.76,8.077-52.663c4.09-10.466,8.855-20.668,13.281-31.004
	C819.117,497.738,819.202,496.77,819.538,495.339z"/>
<path fill-rule="evenodd" clip-rule="evenodd" d="M509.173,137.398c2.224-9.093,4.325-17.437,6.302-25.811
	c5.682-24.071,11.066-48.216,17.04-72.214c4.975-19.98,17.081-33.624,37.548-38.654c3.612-0.888,7.687-0.655,11.413-0.077
	c2.956,0.459,5.226,2.346,5.058,6.221c-0.151,3.506-1.557,5.99-4.816,6.404c-3.947,0.502-8.125,0.7-12.005-0.025
	c-15.154-2.838-17.676,0.17-21.108,13.628c-4.303,16.868-7.581,33.998-11.33,51.009c-0.129,0.585-0.561,1.104-0.4,2.051
	c4.332-3.82,8.33-8.134,13.075-11.342c6.839-4.623,13.979-8.961,21.445-12.442c5.921-2.761,11.424,1.176,10.884,7.593
	c-0.541,6.435-2.04,12.85-3.705,19.117c-3.339,12.565-7.168,25-10.576,37.548c-0.718,2.644-0.495,5.541-0.703,8.285
	c5.072,0.791,6.581-0.132,19.05-11.432c1.029,0.868,2.102,1.772,3.073,2.592c-0.148,0.624-0.122,1.032-0.312,1.233
	c-7.252,7.674-14.834,14.752-25.088,18.545c-6.095,2.254-11.131-0.742-11.514-8.202c-0.557-10.843,3.275-20.879,6.423-31.013
	c2.41-7.761,5.022-15.472,7.052-23.332c0.643-2.486-0.307-5.384-0.527-8.094c-2.665,0.298-5.817-0.223-7.915,1.027
	c-13.051,7.774-23.444,17.631-26.218,33.695c-1.77,10.249-4.468,20.348-7.063,30.432c-0.343,1.332-2.453,2.915-3.915,3.111
	C516.921,137.711,513.4,137.398,509.173,137.398z"/>
<path fill-rule="evenodd" clip-rule="evenodd" d="M1305.713,606.954c-0.759-12.672-1.458-25.348-2.297-38.014
	c-0.556-8.372-1.926-16.736-1.852-25.095c0.16-17.89,4.481-34.612,16.451-48.676c-0.18-0.513-0.357-1.026-0.536-1.539
	c-6.604,1.6-13.472,2.521-19.756,4.947c-11.28,4.356-21.114,10.911-24.414,23.569c-0.8,3.069-0.051,6.669,0.527,9.929
	c0.387,2.18,2.314,4.143,2.484,6.287c0.177,2.227-0.933,4.556-1.479,6.84c-2.377-0.681-5.47-0.645-6.999-2.173
	c-5.194-5.189-4.363-12.245-2.907-18.283c4.47-18.544,18.265-28.378,35.469-33.01c11.287-3.039,23.264-3.515,36.468-5.352
	c-3.728,6.388-6.459,11.415-9.519,16.232c-5.341,8.41-8.351,17.72-9.748,27.388c-1.34,9.264-2.017,18.699-2.014,28.06
	c0.003,8.661,1.293,17.322,2.131,27.366c2.317-2.657,3.845-4.572,5.539-6.326c10.846-11.229,21.801-22.351,32.577-33.645
	c12.588-13.192,25.37-26.299,33.123-43.169c3.333-7.251,3.802-14.819,0.642-22.403c-0.619-1.485-0.772-3.158-1.275-4.7
	c-1.124-3.44-0.219-6.463,3.079-7.581c3.358-1.139,6.942-1.279,9.125,2.973c3.686,7.181,3.242,14.413,1.402,21.935
	c-2.915,11.917-9.343,21.963-17.218,30.913c-12.671,14.4-25.986,28.234-39.081,42.26c-10.51,11.257-21.118,22.42-31.632,33.673
	c-2.515,2.691-4.824,5.574-7.228,8.368C1306.422,607.471,1306.067,607.213,1305.713,606.954z"/>
<path fill-rule="evenodd" clip-rule="evenodd" d="M1138.181,28.444c-12.691-0.02-24.242,2.675-34.021,10.797
	c-5.918,4.914-7.183,12.061-3.74,19.091c1.507,3.079,3.792,6.416,0.817,9.492c-1.462,1.512-4.474,2.743-6.398,2.326
	c-3.681-0.798-4.878-4.141-5.562-7.841c-1.535-8.299,0.951-15.497,5.739-21.899c9.972-13.332,24.411-17.256,40.09-17.956
	c7.145-0.318,14.316-0.054,22.141-0.054c-2.015,5.294-4.209,10.14-5.723,15.189c-8.125,27.092-15.965,54.27-24.143,81.346
	c-4.112,13.618-10.062,26.199-20.93,36.088c-10.023,9.119-28.928,13.275-40.483,5.332c-2.74-1.883-4.984-5.152-6.229-8.274
	c-0.644-1.614,0.815-5.112,2.407-6.27c1.505-1.094,4.869-1.037,6.63-0.064c3.104,1.715,5.749,4.368,8.34,6.883
	c7.273,7.062,17.474,6.667,22.067-2.196c4.976-9.601,8.87-19.896,12.096-30.242c9.339-29.961,18.107-60.1,27.082-90.173
	C1138.447,29.728,1138.295,29.366,1138.181,28.444z"/>
<path fill-rule="evenodd" clip-rule="evenodd" d="M496.17,58.402c-4.128,15.529-8.291,30.726-12.172,45.994
	c-1.802,7.087-3.387,14.266-4.433,21.494c-0.597,4.121,1.335,5.246,4.836,2.896c4.756-3.192,9.067-7.049,13.874-10.861
	c0.766,0.717,1.916,1.794,3.646,3.414c-6.881,5.537-13.496,10.928-20.203,16.2c-1.39,1.093-3.035,2.046-4.717,2.539
	c-3.062,0.897-6.939,2.175-8.918-0.877c-1.836-2.831-2.471-6.685-2.811-10.168c-0.288-2.959,0.598-6.033,0.93-8.78
	c-5.979,4.621-11.794,9.702-18.206,13.864c-4.283,2.78-9.278,4.704-14.201,6.2c-6.613,2.01-10.579-0.959-10.207-7.961
	c0.345-6.476,1.563-12.977,3.079-19.303c3.183-13.278,6.893-26.431,10.15-39.693c0.379-1.544-0.401-3.665-1.322-5.075
	c-0.311-0.475-3.015,0.009-4.128,0.774c-3.909,2.689-7.603,5.693-11.345,8.552c-0.907-0.906-2.103-2.099-4.028-4.021
	c7.388-5.164,14.817-10.361,22.257-15.547c0.4-0.278,0.86-0.591,1.321-0.646c3.398-0.404,7.686-2.192,10.003-0.777
	c3.602,2.199,3.312,6.881,2.22,11.181c-4.122,16.226-8.003,32.513-11.975,48.776c-0.117,0.479-0.426,0.997-0.33,1.427
	c0.71,3.171,1.499,6.324,2.263,9.482c2.911-0.862,6.064-1.268,8.692-2.663c16.155-8.575,21.504-23.902,25.053-40.424
	c1.672-7.783,3.864-15.465,6.147-23.096c0.367-1.229,2.365-2.611,3.742-2.77C488.833,58.137,492.354,58.402,496.17,58.402z"/>
<path fill-rule="evenodd" clip-rule="evenodd" d="M1318.221,117.58c1.023,1.002,2.088,2.045,3.761,3.684
	c-7.187,5.791-14.041,11.381-20.99,16.852c-1.257,0.989-2.834,1.787-4.385,2.144c-3.102,0.714-6.937,1.924-8.86-1.344
	c-1.658-2.813-2.239-6.479-2.5-9.831c-0.232-2.993,0.623-6.071,0.966-8.845c-5.962,4.608-11.778,9.689-18.188,13.855
	c-4.285,2.784-9.277,4.723-14.201,6.219c-6.628,2.015-10.601-0.945-10.232-7.938c0.341-6.479,1.558-12.984,3.074-19.312
	c3.185-13.286,6.9-26.443,10.16-39.712c0.38-1.543-0.413-3.666-1.34-5.074c-0.312-0.474-3.014,0.024-4.131,0.794
	c-3.91,2.692-7.605,5.697-11.355,8.562c-0.975-0.855-2.252-1.977-4.606-4.044c8.74-5.812,16.701-12.133,25.563-16.708
	c8.664-4.472,12.185-0.028,11.26,8.536c-0.921,8.523-3.41,16.897-5.492,25.268c-2.197,8.835-4.733,17.585-7.097,26.379
	c-0.169,0.629-0.308,1.359-0.155,1.966c0.712,2.839,0.72,6.919,2.555,8.093c1.63,1.042,5.611-0.643,8.069-2.001
	c15.721-8.693,21.841-23.526,25.371-40.074c1.695-7.949,3.858-15.812,6.183-23.603c0.389-1.305,2.589-2.701,4.107-2.907
	c3.268-0.441,6.635-0.136,10.407-0.136c-2.843,10.614-5.631,20.927-8.364,31.254c-2.787,10.535-5.533,21.082-8.256,31.635
	c-0.203,0.786-0.229,1.687-0.075,2.483c0.369,1.924,0.894,3.818,1.354,5.725c2.027-0.693,4.386-0.946,6.017-2.169
	C1310.659,124.465,1314.132,121.136,1318.221,117.58z"/>
<path fill-rule="evenodd" clip-rule="evenodd" d="M1379.436,78.023c-0.837-0.812-2.007-1.947-3.45-3.349
	c7.933-7.147,15.434-14.199,25.145-18.08c9.69-3.872,11.876,1.486,11.125,9.122c-0.681,6.926-2.585,13.76-4.288,20.55
	c-2.532,10.089-5.365,20.103-8.057,30.151c-0.211,0.789-0.576,1.662-0.421,2.402c0.604,2.888,1.388,5.737,2.104,8.601
	c2.921-0.805,6.135-1.079,8.716-2.501c15.77-8.691,21.702-23.62,25.181-40.164c1.672-7.954,3.878-15.807,6.179-23.605
	c0.352-1.192,2.457-2.457,3.876-2.625c3.283-0.388,6.644-0.123,10.649-0.123c-2.907,10.7-5.788,21.085-8.542,31.503
	c-2.786,10.539-5.47,21.105-8.127,31.678c-0.277,1.102-0.229,2.349-0.049,3.483c0.235,1.48,0.46,3.938,1.211,4.152
	c1.418,0.407,3.57-0.009,4.78-0.926c4.33-3.281,8.393-6.914,12.886-10.691c0.751,0.885,1.708,2.01,2.983,3.511
	c-8.039,7.222-15.228,15.749-26.036,19.192c-6.253,1.991-11.674-3.15-10.789-9.673c0.477-3.52,1.271-6.997,1.938-10.579
	c-6.279,4.867-12.17,9.998-18.641,14.243c-4.139,2.715-8.996,4.59-13.779,6.003c-6.924,2.046-10.869-0.935-10.441-8.217
	c0.381-6.472,1.697-12.949,3.207-19.28c3.13-13.135,6.754-26.15,9.927-39.275c0.46-1.902-0.454-4.137-0.732-6.218
	c-0.624-0.141-1.249-0.282-1.874-0.423C1389.316,70.526,1384.518,74.168,1379.436,78.023z"/>
<path fill-rule="evenodd" clip-rule="evenodd" d="M1468.037,525.4c-3.376,12.778-6.692,25.289-9.983,37.806
	c-2.192,8.334-4.378,16.671-6.488,25.026c-0.278,1.103-0.293,2.358-0.08,3.476c0.29,1.521,0.51,3.671,1.516,4.26
	c0.946,0.554,3.177-0.168,4.316-1.026c4.439-3.344,8.67-6.965,14.191-11.474c-0.144,2.562,0.401,4.858-0.418,5.561
	c-6.839,5.856-13.645,11.848-21.11,16.821c-2.39,1.593-7.429,1.45-9.995-0.052c-2.98-1.745-4.211-5.782-2.864-9.983
	c0.873-2.725,0.74-5.772,1.088-8.946c-4.959,4.037-9.538,8.457-14.784,11.842c-5.273,3.401-10.993,6.419-16.917,8.424
	c-6.777,2.294-11.779-1.624-10.875-8.797c1.174-9.319,3.584-18.502,5.764-27.672c2.483-10.443,5.377-20.789,7.877-31.229
	c0.327-1.367-0.154-3.662-1.12-4.391c-0.905-0.685-3.275-0.36-4.427,0.396c-3,1.966-5.978,4.138-8.419,6.738
	c-2.936,3.128-4.867,2.621-7.217-1.158c8.323-6.65,15.448-14.696,26.059-17.916c6.958-2.111,11.195,0.542,10.1,7.685
	c-1.573,10.26-4.458,20.316-6.732,30.472c-2.062,9.202-4.453,18.357-5.917,27.656c-0.779,4.945,2.59,6.831,7.24,4.592
	c13.293-6.4,21.929-16.678,25.625-31.088c2.788-10.865,6-21.625,8.661-32.521c0.881-3.604,2.401-4.952,6.041-4.561
	C1461.962,525.641,1464.815,525.4,1468.037,525.4z"/>
<path fill-rule="evenodd" clip-rule="evenodd" d="M992.05,525.4c-5.131,19.312-10.199,38.162-15.103,57.054
	c-0.857,3.302-1.33,6.773-1.427,10.183c-0.11,3.853,2.199,5.035,5.363,2.696c4.607-3.406,8.927-7.2,14.363-11.642
	c0,2.282,0.669,4.446-0.105,5.297c-6.224,6.835-12.679,13.659-21.45,17.088c-2.937,1.148-7.801,1.182-9.944-0.551
	c-2.08-1.681-2.181-6.253-2.438-9.61c-0.22-2.859,0.572-5.796,0.965-9.097c-5.02,4.081-9.574,8.47-14.789,11.835
	c-5.273,3.401-10.984,6.419-16.898,8.457c-6.767,2.331-11.818-1.564-10.96-8.692c1.104-9.172,3.357-18.23,5.505-27.245
	c2.525-10.596,5.544-21.073,8.138-31.653c0.338-1.379-0.096-3.659-1.053-4.431c-0.864-0.698-3.264-0.409-4.408,0.334
	c-3.007,1.951-5.963,4.131-8.445,6.696c-2.838,2.935-4.859,3.031-7.159-1.177c8.317-6.32,15.188-14.666,25.878-17.802
	c7.054-2.068,11.25,0.436,10.165,7.566c-1.56,10.261-4.433,20.321-6.726,30.472c-2.042,9.04-4.528,18.016-5.91,27.157
	c-0.865,5.721,2.843,7.734,8.107,4.93c12.594-6.707,21.19-16.671,24.75-30.76c2.749-10.876,5.938-21.642,8.628-32.531
	c0.863-3.493,2.259-5.073,5.99-4.639C985.876,525.662,988.734,525.4,992.05,525.4z"/>
<path fill-rule="evenodd" clip-rule="evenodd" d="M290.552,584.178c1.013,0.968,1.839,1.758,3.192,3.051
	c-3.808,3.597-7.221,7.569-11.359,10.53c-4.719,3.377-9.919,6.217-15.217,8.609c-4.708,2.126-9.247-0.297-9.506-5.565
	c-0.321-6.521,0.073-13.312,1.605-19.636c2.982-12.312,6.97-24.38,10.551-36.546c0.092-0.312,0.447-0.604,0.424-0.884
	c-0.21-2.566,0.385-6.542-0.938-7.349c-1.825-1.114-5.479-0.577-7.708,0.537c-15.146,7.568-24.47,19.519-27.241,36.553
	c-1.541,9.47-3.896,18.814-6.146,28.152c-0.271,1.125-2.125,2.519-3.358,2.639c-3.61,0.353-7.276,0.126-11.829,0.126
	c1.754-7.066,3.48-13.583,4.98-20.151c3.588-15.713,7.082-31.446,10.564-47.183c0.211-0.955-0.015-2.007-0.038-3.014
	c-1.189,0.08-2.67-0.269-3.518,0.311c-4.858,3.314-9.566,6.85-14.325,10.31c-0.551-0.779-1.377-1.947-2.418-3.419
	c8.372-6.939,15.739-15.207,26.828-18.096c0.302-0.078,0.534-0.429,0.836-0.509c7.646-2.004,10.069,0.224,8.429,7.783
	c-0.585,2.699-1.277,5.377-1.932,8.062c-0.606,2.482-1.227,4.961-1.776,7.181c7.42-5.756,14.646-11.994,22.536-17.231
	c4.343-2.882,9.659-4.788,14.801-5.836c5.02-1.023,8.98,2.667,8.272,7.745c-1.118,8.016-3.094,15.95-5.242,23.772
	c-2.669,9.719-5.949,19.27-8.822,28.935c-0.827,2.784-1.466,5.702-1.586,8.584c-0.059,1.41,0.943,3.316,2.084,4.167
	c0.784,0.584,2.967,0.184,3.95-0.549C281.245,591.826,285.647,588.128,290.552,584.178z"/>
<path fill-rule="evenodd" clip-rule="evenodd" d="M148.688,545.643c7.392-5.735,14.596-12.012,22.513-17.2
	c4.48-2.937,9.998-4.711,15.298-5.848c4.396-0.943,8.179,2.702,7.789,7.277c-0.524,6.132-1.615,12.307-3.289,18.229
	c-3.317,11.735-7.259,23.293-10.808,34.965c-0.844,2.776-1.465,5.703-1.582,8.585c-0.058,1.408,0.951,3.314,2.094,4.161
	c0.786,0.581,2.967,0.174,3.951-0.561c4.6-3.431,9.001-7.13,13.734-10.942c0.921,0.742,1.91,1.538,3.471,2.796
	c-3.932,3.719-7.343,7.699-11.482,10.662c-4.718,3.377-9.921,6.212-15.22,8.604c-4.707,2.124-9.236-0.301-9.495-5.579
	c-0.319-6.52,0.079-13.311,1.611-19.634c2.983-12.312,6.97-24.38,10.551-36.546c0.092-0.312,0.445-0.604,0.422-0.885
	c-0.215-2.565,0.373-6.545-0.949-7.346c-1.832-1.108-5.481-0.565-7.71,0.552c-15.317,7.673-24.635,19.771-27.262,37.055
	c-1.416,9.316-3.871,18.483-6.122,27.653c-0.276,1.125-2.13,2.509-3.364,2.63c-3.609,0.352-7.275,0.125-11.82,0.125
	c1.758-7.072,3.488-13.591,4.989-20.161c3.588-15.713,7.081-31.447,10.562-47.185c0.211-0.953-0.021-2.004-0.048-3.01
	c-1.189,0.085-2.669-0.256-3.52,0.325c-4.858,3.316-9.566,6.852-14.316,10.307c-0.553-0.785-1.379-1.958-2.418-3.434
	c8.381-6.932,15.754-15.193,26.839-18.088c0.621-0.163,1.183-0.599,1.806-0.7c7.513-1.229,8.885,0.117,7.478,7.487
	c-0.518,2.713-1.311,5.373-1.949,8.063C149.815,540.641,149.227,543.289,148.688,545.643z"/>
<path fill-rule="evenodd" clip-rule="evenodd" d="M1541.698,52.405c-2.417,8.21-4.883,15.564-6.73,23.071
	c-3.961,16.098-7.63,32.267-11.307,48.433c-0.206,0.904,0.481,2.849,0.963,2.922c1.67,0.254,3.78,0.464,5.097-0.337
	c4.316-2.626,8.357-5.705,12.956-8.926c0.665,0.544,1.745,1.427,2.854,2.334c-0.296,0.678-0.363,1.271-0.692,1.525
	c-7.243,5.593-14.295,11.479-21.896,16.536c-2.76,1.837-6.816,2.09-10.332,2.33c-4.236,0.29-6.04-2.243-4.938-6.347
	c1.17-4.351,2.585-8.636,4.008-13.33c-5.739,4.709-10.918,9.237-16.41,13.348c-2.845,2.129-6.08,3.998-9.426,5.148
	c-11.167,3.842-17.955,0.299-19.277-13.157c-1.555-15.821,4.953-29.546,13.974-41.864c4.985-6.808,11.07-13.078,17.625-18.401
	c8.564-6.956,19.032-9.035,30.087-8.424c2.019,0.111,4.118-1.563,6.207-2.342C1536.619,54.121,1538.812,53.405,1541.698,52.405z
	 M1523.016,68.394c-2.391,0-3.428,0.183-4.379-0.028c-9.805-2.174-17.976,1.113-24.017,8.537
	c-10.146,12.469-14.504,27.084-13.051,43.121c0.593,6.537,6.182,9.073,12.375,6.55c7.591-3.093,13.177-8.663,16.178-15.853
	c3.86-9.25,6.349-19.079,9.296-28.699C1520.728,77.749,1521.712,73.378,1523.016,68.394z"/>
<path fill-rule="evenodd" clip-rule="evenodd" d="M1022.82,117.468c0.756,0.72,1.686,1.605,2.652,2.525
	c-0.232,0.56-0.289,1.161-0.616,1.414c-7.239,5.596-14.29,11.482-21.89,16.544c-2.76,1.839-6.813,2.095-10.329,2.344
	c-4.202,0.297-6.064-2.279-4.978-6.322c1.169-4.35,2.591-8.631,4.033-13.37c-5.753,4.72-10.922,9.24-16.402,13.343
	c-2.845,2.13-6.076,4.003-9.421,5.157c-11.189,3.863-18.008,0.312-19.294-13.119c-1.53-15.983,4.994-29.848,14.272-42.241
	c4.965-6.632,10.855-12.834,17.293-18.035c8.27-6.682,18.341-9.102,29.078-8.347c2.832,0.199,5.646,0.621,7.762-2.656
	c0.895-1.384,3.959-1.366,6.622-2.159c-2.265,7.896-4.582,15.119-6.393,22.467c-4.003,16.253-7.776,32.562-11.534,48.874
	c-0.209,0.909,0.451,2.858,0.923,2.933c1.67,0.26,3.785,0.491,5.1-0.307C1014.017,123.888,1018.057,120.807,1022.82,117.468z
	 M1002.964,68.394c-2.325,0-3.361,0.183-4.312-0.028c-10.027-2.227-18.322,1.26-24.364,8.884
	c-9.844,12.418-14.21,26.891-12.724,42.759c0.613,6.54,6.535,9.736,12.256,6.378c4.979-2.922,9.789-6.719,13.476-11.131
	c6.882-8.235,8.315-18.937,11.117-28.939C1000.016,80.596,1001.348,74.8,1002.964,68.394z"/>
<path fill-rule="evenodd" clip-rule="evenodd" d="M405.424,52.448c-4.298,15.491-8.644,30.122-12.349,44.912
	c-2.096,8.362-3.295,16.964-4.597,25.503c-0.734,4.812,1.069,6.062,5.347,3.602c4.373-2.516,8.381-5.667,12.982-8.838
	c0.592,0.515,1.653,1.436,2.755,2.394c-0.348,0.669-0.459,1.229-0.8,1.491c-7.256,5.581-14.355,11.396-21.917,16.53
	c-2.5,1.698-6.175,2.053-9.362,2.262c-5.422,0.356-6.944-1.76-5.532-6.917c1.109-4.048,2.335-8.062,3.822-13.169
	c-4.957,4.345-8.912,8.341-13.405,11.592c-4.065,2.941-8.474,5.772-13.163,7.417c-11.23,3.937-17.315-0.656-18.619-12.933
	c-1.7-16.008,5.084-29.825,14.082-42.33c4.832-6.716,10.768-12.949,17.242-18.096c8.571-6.813,18.955-9.378,30.047-8.507
	c2.518,0.198,4.955,0.491,6.845-2.469C399.726,53.445,402.768,53.35,405.424,52.448z M386.814,69.053
	c-11.566-2.993-21.158-0.865-28.219,7.852c-10.12,12.492-14.489,27.099-13.024,43.137c0.597,6.525,6.212,9.062,12.391,6.53
	c7.581-3.106,13.272-8.647,16.155-15.867c4.2-10.52,6.985-21.606,10.305-32.472C385.346,75.208,386.025,72.109,386.814,69.053z"/>
<path fill-rule="evenodd" clip-rule="evenodd" d="M711.442,583.994c2.169,2.332,2.55,4.184-1.108,6.553
	c-6.837,4.429-13.134,9.684-19.905,14.222c-2.198,1.473-5.124,2.127-7.812,2.549c-5.746,0.901-8.368-2.358-6.68-7.938
	c1.154-3.817,2.341-7.624,3.623-11.795c-5.608,4.618-10.647,9.106-16.061,13.085c-2.827,2.077-6.31,3.264-9.502,4.841
	c-11.916,5.885-19.015-3.099-19.624-13.907c-0.695-12.326,3.469-23.321,9.352-33.574c6.654-11.599,14.855-22.267,27.206-28.407
	c5.113-2.542,10.921-3.904,16.563-5.085c3.533-0.738,7.349-0.062,11.031-0.19c0.983-0.034,2.034-0.551,2.9-1.093
	c2.349-1.468,4.614-3.068,6.913-4.616c0.339,0.42,0.678,0.84,1.017,1.259c-3.146,10.851-6.646,21.614-9.347,32.574
	c-3.112,12.625-5.581,25.41-8.191,38.154c-0.685,3.34,1.544,4.858,4.839,2.975C701.712,590.711,706.455,587.273,711.442,583.994z
	 M690.909,536.267c-9.661-4.362-22.226-0.16-28.101,7.129c-10.06,12.481-14.401,26.661-13.274,42.462
	c0.484,6.794,5.073,10.587,11.345,7.633c3.191-1.503,6.511-3.076,9.154-5.34c6.662-5.707,10.443-13.169,12.54-21.713
	C685.046,556.358,688.078,546.416,690.909,536.267z"/>
<path fill-rule="evenodd" clip-rule="evenodd" d="M669.276,52.526c-4.525,16.671-9.06,32.592-13.109,48.635
	c-1.948,7.716-3.045,15.651-4.393,23.51c-0.458,2.67,2.449,3.917,5.78,2.007c3.659-2.099,6.964-4.82,10.393-7.313
	c0.789-0.573,1.452-1.321,2.42-2.216c1.131,1.062,2.152,2.021,3.623,3.403c-9.042,7.729-16.831,16.48-28.686,19.479
	c-8.151,2.062-10.811-0.443-8.832-8.641c0.829-3.438,2.044-6.782,3.427-11.288c-4.974,4.347-8.86,8.232-13.246,11.436
	c-4.058,2.965-8.385,5.947-13.06,7.604c-11.015,3.899-17.619,0.21-19.009-12.931c-1.69-15.997,5.112-29.804,14.124-42.292
	c4.84-6.706,10.77-12.935,17.242-18.077c8.571-6.809,18.955-9.354,30.04-8.48c2.519,0.198,4.956,0.476,6.835-2.492
	C663.736,53.434,666.788,53.354,669.276,52.526z M650.856,68.897c-15.433-1.821-20.958-0.762-28.278,8.095
	c-10.235,12.383-14.507,27.09-12.997,43.126c0.613,6.512,6.64,9.637,12.346,6.238c4.956-2.952,9.676-6.812,13.403-11.202
	c6.853-8.072,8.163-18.658,11.053-28.456C648.079,80.948,649.323,75.065,650.856,68.897z"/>
<path fill-rule="evenodd" clip-rule="evenodd" d="M1205.293,519.893c-3.724,13.06-7.758,26.041-11.07,39.205
	c-2.617,10.4-4.411,21.012-6.432,31.557c-0.63,3.284,1.627,4.787,4.897,2.924c4.945-2.817,9.587-6.168,14.438-9.345
	c3.143,3.38,3.108,3.332-0.895,6.223c-6.615,4.776-13.172,9.634-19.781,14.419c-0.785,0.568-1.739,1.27-2.621,1.278
	c-3.774,0.036-7.553-0.163-11.329-0.277c0.282-3.391,0.406-6.804,0.898-10.164c0.372-2.54,1.214-5.011,1.868-7.597
	c-6.116,4.759-11.963,9.798-18.326,14.068c-3.561,2.389-7.855,4.455-12.032,4.985c-7.914,1.005-13.333-3.616-14.429-14.109
	c-1.07-10.256,1.646-19.906,6.109-28.961c6.992-14.187,16.008-26.915,30.379-34.487c5.03-2.65,10.918-3.899,16.562-5.074
	c3.534-0.735,7.348-0.061,11.03-0.192c0.976-0.034,2.01-0.584,2.877-1.122c2.354-1.459,4.633-3.039,6.94-4.571
	C1204.684,519.065,1204.988,519.479,1205.293,519.893z M1186.929,536.206c-9.86-4.155-22.062-0.196-28.206,7.26
	c-10.263,12.452-14.201,26.751-13.173,42.497c0.419,6.412,4.805,10.579,11.427,7.494c3.197-1.489,6.562-3.059,9.121-5.391
	c6.416-5.848,10.479-13.122,12.508-21.732C1180.986,556.238,1184.102,546.315,1186.929,536.206z"/>
<path fill-rule="evenodd" clip-rule="evenodd" d="M1757.68,518.42c-4.536,15.996-8.921,30.415-12.653,45.001
	c-2.295,8.971-3.663,18.184-5.3,27.313c-0.546,3.044,1.777,4.744,4.653,3.089c5.076-2.923,9.842-6.384,15.035-9.816
	c0.529,0.848,1.335,2.141,2.296,3.681c-9.309,7.426-17.149,16.683-29.34,19.135c-2.482,0.5-6.004,0.191-7.713-1.286
	c-1.234-1.065-0.63-4.757-0.183-7.153c0.648-3.472,1.895-6.832,2.921-10.36c-6.25,4.864-12.13,9.938-18.534,14.229
	c-3.559,2.385-7.876,4.414-12.057,4.925c-7.879,0.963-13.513-3.704-14.286-14.223c-1.273-17.32,6.161-31.781,16.103-45.184
	c6.953-9.374,15.235-17.54,26.565-21.065c6.143-1.911,12.985-1.502,19.47-2.437c1.951-0.281,3.769-1.54,5.63-2.388
	C1752.376,520.929,1754.444,519.937,1757.68,518.42z M1738.868,536.431c-8.251-4.635-21.783-0.602-27.879,6.703
	c-10.467,12.544-14.329,26.962-13.512,42.907c0.343,6.671,4.992,9.927,11.135,7.594c3.413-1.298,6.842-3.189,9.536-5.62
	c6.455-5.823,10.428-13.155,12.463-21.753C1732.999,556.173,1736.114,546.256,1738.868,536.431z"/>
<path fill-rule="evenodd" clip-rule="evenodd" d="M939.635,353.649c-7.44,7.709-15.117,14.792-25.138,18.681
	c-2.528,0.981-5.284,1.655-7.982,1.859c-3.965,0.301-5.966-3.205-4.651-7.677c1.224-4.161,2.496-8.308,3.822-12.709
	c-6.222,5.123-11.705,10.535-18.063,14.568c-4.438,2.815-10.09,5.229-15.172,5.177c-8.342-0.088-11.257-5.701-11.91-14.566
	c-1.208-16.402,5.774-30.316,15.057-43.057c6.607-9.068,14.45-17.017,25.131-21.646c7.577-3.284,15.318-4.42,23.473-3.65
	c1.166,0.11,2.504-0.595,3.621-1.188c2.207-1.172,4.317-2.529,6.467-3.811c0.329,0.391,0.659,0.781,0.988,1.171
	c-2.714,9.418-5.768,18.754-8.062,28.273c-3.388,14.054-6.324,28.22-9.229,42.384c-0.513,2.498,0.85,4.774,3.84,3.076
	c4.089-2.322,8.002-5.014,11.743-7.87C935.874,350.904,937.629,349.946,939.635,353.649z M875.438,346.66
	c0,1.497-0.04,2.997,0.007,4.493c0.259,8.31,5.805,11.775,13.489,8.339c8.72-3.9,14.378-10.912,17.354-19.599
	c3.785-11.047,6.468-22.467,9.815-33.67c0.839-2.806-0.28-4.064-2.602-4.7c-7.987-2.186-20.438,1.955-25.393,8.799
	C880.289,321.13,875.367,333.05,875.438,346.66z"/>
<path fill-rule="evenodd" clip-rule="evenodd" d="M1156.438,113.825c0.387-17.233,6.475-32.305,18.104-44.861
	c7.446-8.04,17.207-12.638,28.113-13.426c13.525-0.978,21.91,8.05,23.708,21.69c2.882,21.859-5.79,39.446-21.904,53.433
	c-8.351,7.247-18.396,11.329-29.936,9.302c-12.114-2.129-18.292-14.01-18.087-23.641
	C1156.453,115.49,1156.438,114.657,1156.438,113.825z M1210.438,90.273c0-11.914-1.343-17.798-5.836-23.301
	c-2.495-3.056-5.284-4.889-9.955-3.807c-8.988,2.081-13.312,8.721-16.033,16.176c-2.642,7.236-3.291,15.175-5.292,22.678
	c-2.063,7.736,0.052,15.003,2.288,22.059c2.796,8.819,11.951,11.916,18.711,6.773c2.72-2.069,5.116-4.772,7.075-7.592
	C1208.267,113.371,1210.829,102.203,1210.438,90.273z"/>
<path fill-rule="evenodd" clip-rule="evenodd" d="M1480.027,581.398c2.271-24.522,10.422-44.344,32.728-55.63
	c6.738-3.41,14.184-4.528,21.552-2.846c8.153,1.861,15.138,11.818,16.176,20.917c2.449,21.471-5.454,38.934-21.104,52.88
	c-8.57,7.637-18.798,12.217-30.985,9.729c-7.716-1.574-13.235-5.745-15.811-13.121
	C1481.15,589.226,1480.721,584.773,1480.027,581.398z M1535.156,556.888c-0.906-5.628-1.316-11.394-2.832-16.853
	c-2.307-8.309-10.54-14.814-19-7.765c-4.466,3.722-8.581,8.686-10.946,13.946c-5.948,13.234-7.416,27.256-3.926,41.566
	c2.099,8.604,7.122,12.655,14.953,11.556c5.446-0.766,9.068-4.611,11.948-8.852C1532.193,580.418,1534.705,569.062,1535.156,556.888
	z"/>
<path fill-rule="evenodd" clip-rule="evenodd" d="M1369.443,114.894c0.837,0.782,1.923,1.797,3.033,2.834
	c-8.793,9.525-18.146,17.688-30.392,21.761c-7.986,2.655-12.484-0.076-11.45-8.206c1.581-12.42,3.988-24.789,6.914-36.972
	c4.939-20.559,10.063-41.101,16.04-61.375c5.376-18.236,18.532-28.686,37.005-32.402c2.885-0.581,5.996-0.298,8.977-0.072
	c3.764,0.286,6.553,2.823,6.308,6.245c-0.166,2.322-2.713,5.932-4.748,6.364c-4.472,0.951-9.465,1.042-13.938,0.071
	c-11.419-2.479-15.82,0.417-18.744,11.967c-6.386,25.235-12.562,50.523-18.767,75.805c-1.822,7.429-3.584,14.88-5.064,22.382
	c-0.344,1.738-0.021,4.459,1.101,5.378c0.98,0.804,3.898,0.285,5.299-0.646C1357.138,123.957,1363.02,119.523,1369.443,114.894z"/>
<path fill-rule="evenodd" clip-rule="evenodd" d="M769.534,114.825c0.641,0.684,1.658,1.771,2.753,2.94
	c-7.414,8.694-16.091,15.548-26.306,20.383c-4.187,1.981-8.745,3.96-13.025,0.904c-4.197-2.996-3.216-8.177-2.316-12.008
	c7.317-31.177,14.678-62.355,22.863-93.312c4.922-18.613,18.138-29.329,36.845-33.144c3.198-0.651,6.939-0.954,9.87,0.114
	c2.482,0.905,5.382,3.821,5.789,6.236c0.307,1.823-2.729,5.693-4.808,6.131c-4.473,0.94-9.406,0.915-13.941,0.108
	c-11.674-2.077-16.067,0.463-18.854,11.819c-6.197,25.264-12.467,50.509-18.655,75.775c-1.818,7.424-3.589,14.866-5.092,22.358
	c-0.354,1.764-0.156,4.42,0.935,5.447c0.88,0.828,3.893,0.432,5.26-0.475C757.105,123.959,763.113,119.442,769.534,114.825z"/>
<path fill-rule="evenodd" clip-rule="evenodd" d="M721.545,114.852c0.701,0.709,1.746,1.769,2.824,2.859
	c-7.539,8.761-16.228,15.641-26.464,20.481c-4.198,1.985-8.799,3.982-13.015,0.807c-4.238-3.192-3.092-8.518-2.208-12.543
	c5.165-23.506,10.873-46.894,16.403-70.319c2.693-11.41,5.674-22.617,11.016-33.269c7.427-14.812,27.026-23.979,41.271-22.219
	c2.536,0.313,6.034,3.452,6.653,5.902c0.715,2.826-1.285,6.565-5.353,6.799c-4.492,0.258-9.178,0.734-13.491-0.205
	c-11.359-2.475-15.79,0.332-18.731,11.954c-6.383,25.217-12.543,50.49-18.741,75.754c-1.82,7.424-3.594,14.865-5.087,22.359
	c-0.349,1.751-0.08,4.438,1.03,5.417c0.928,0.816,3.894,0.354,5.28-0.562C709.06,124.015,714.943,119.592,721.545,114.852z"/>
<path fill-rule="evenodd" clip-rule="evenodd" d="M411.321,581.825c-0.169,1.562,0.265,3.72-0.601,4.597
	c-8.665,8.785-17.877,16.846-30.124,20.401c-5.422,1.574-10.416-1.558-10.02-7.216c0.534-7.634,1.491-15.327,3.233-22.77
	c5.296-22.631,10.86-45.205,16.72-67.697c2.801-10.753,6.474-21.294,14.933-29.257c7.729-7.276,16.688-11.906,27.463-12.47
	c2.337-0.122,4.695-0.174,7.024,0.006c4.199,0.323,6.447,3.447,6.199,6.93c-0.256,3.597-3.268,6.106-7.27,6.001
	c-5.766-0.151-11.52-0.778-17.285-0.91c-7.292-0.166-10.162,1.69-12.104,8.683c-3.562,12.834-6.832,25.755-9.987,38.697
	c-3.582,14.693-6.892,29.452-10.344,44.177c-1.521,6.487-3.263,12.93-4.548,19.462c-0.336,1.707,0.086,4.485,1.217,5.294
	c1.077,0.771,3.923,0.17,5.314-0.799c4.826-3.358,9.345-7.157,14.011-10.75c1.396-1.074,2.889-2.021,4.338-3.026
	C410.102,581.394,410.712,581.609,411.321,581.825z"/>
<path fill-rule="evenodd" clip-rule="evenodd" d="M459.326,581.829c-0.172,1.562,0.257,3.718-0.608,4.596
	c-8.667,8.784-17.878,16.848-30.125,20.401c-5.421,1.573-10.413-1.563-10.016-7.225c0.535-7.633,1.494-15.326,3.235-22.768
	c5.296-22.632,10.858-45.206,16.719-67.698c2.801-10.753,6.475-21.295,14.936-29.255c7.73-7.272,16.688-11.908,27.465-12.467
	c2.336-0.121,4.695-0.176,7.023,0.006c4.196,0.329,6.446,3.449,6.195,6.935c-0.26,3.599-3.276,6.101-7.275,5.996
	c-5.766-0.151-11.52-0.778-17.286-0.91c-7.29-0.166-10.154,1.688-12.098,8.688c-3.563,12.835-6.833,25.755-9.988,38.697
	c-3.582,14.693-6.893,29.452-10.346,44.177c-1.521,6.487-3.262,12.93-4.546,19.462c-0.335,1.707,0.091,4.486,1.222,5.292
	c1.081,0.77,3.923,0.166,5.315-0.804c4.825-3.359,9.344-7.159,14.009-10.751c1.399-1.077,2.897-2.025,4.35-3.033
	C458.113,581.389,458.72,581.609,459.326,581.829z"/>
<path fill-rule="evenodd" clip-rule="evenodd" d="M821.878,312.401c-1.32-1.428-2.424-2.62-3.806-4.114
	c9.162-8.942,18.924-16.408,31.265-19.77c4.146-1.129,7.939,2.524,6.84,6.46c-8.523,30.523-16.837,61.11-25.837,91.493
	c-3.703,12.501-9.404,24.372-21.168,31.581c-8.024,4.918-16.688,6.354-25.655,1.95c-3.528-1.732-4.889-4.527-3.776-8.058
	c1.273-4.046,4.865-4.132,8.16-3.238c3.43,0.931,6.639,2.641,10.021,3.78c6.349,2.14,10.755,0.891,12.881-5.155
	c4.033-11.473,7.345-23.214,10.591-34.945c5.983-21.625,11.706-43.322,17.524-64.992c0.336-1.252,0.807-2.549,0.741-3.799
	c-0.05-0.94-0.829-2.592-1.335-2.612c-1.306-0.052-2.905,0.285-3.916,1.072C830.175,305.351,826.115,308.87,821.878,312.401z"/>
<path fill-rule="evenodd" clip-rule="evenodd" d="M352.057,579.996c0.998,1.871,1.74,3.263,2.572,4.822
	c-11.237,9.562-21.841,19.487-37.061,22.128c-7.501,1.301-13.575-1.632-16.122-8.897c-3.175-9.06-1.673-18.202,0.338-27.035
	c3.393-14.906,9.914-28.412,21.486-38.896c7.582-6.869,16.323-10.829,26.894-9.735c8.01,0.829,12.434,8.973,9.769,18.05
	c-2.78,9.471-10.146,14.658-18.091,19.081c-7.572,4.216-15.447,7.886-23.203,11.77c-0.425,0.212-1.391,0.129-1.406,0.262
	c-0.571,5.13-1.54,10.282-1.408,15.404c0.104,4.044,3.082,7.474,7.146,7.196c4.373-0.298,8.913-1.836,12.855-3.856
	C341.294,587.486,346.273,583.729,352.057,579.996z M317.863,565.67c3.765-1.904,7.193-3.326,10.295-5.271
	c6.861-4.304,14.261-8.125,17.407-16.407c1.481-3.9,1.972-8.14-1.315-10.915c-2.043-1.726-5.882-2.771-8.391-2.115
	c-2.804,0.731-5.407,3.405-7.414,5.806C321.635,544.911,319.701,554.951,317.863,565.67z"/>
<path fill-rule="evenodd" clip-rule="evenodd" d="M904.492,69.357c-5.253,0-9.883,0-14.458,0c-0.991-6.437-0.584-6.94,5.357-6.955
	c3.483-0.009,6.968-0.002,10.517-0.002c1.865-6.455,3.979-12.604,5.303-18.919c0.551-2.635,1.674-3.419,3.858-4.15
	c4.01-1.343,7.913-3.001,12.331-4.709c-2.395,9.227-4.733,18.235-7.195,27.719c6.923,0,13.378,0,19.799,0
	c0.468,6.565-3.059,7.815-8.228,7.072c-0.653-0.094-1.331-0.013-1.997-0.013c-11.549,0-11.557-0.002-14.276,11.008
	c-2.886,11.683-5.754,23.369-8.633,35.054c-0.118,0.479-0.443,0.979-0.37,1.42c0.549,3.283,1.174,6.554,1.774,9.828
	c3.172-0.729,6.69-0.824,9.442-2.324c5.278-2.876,10.04-6.688,15.214-9.78c1.062-0.635,3.373-0.34,4.444,0.439
	c2.166,1.576,0.811,2.688-0.948,3.987c-10.356,7.648-20.077,16.306-32.575,20.507c-8.089,2.72-12.221-0.473-12.452-8.944
	c-0.369-13.515,4.325-26.026,7.377-38.862C900.503,84.469,902.465,77.262,904.492,69.357z"/>
<path fill-rule="evenodd" clip-rule="evenodd" d="M1047.235,502.072c-2.233,8.541-4.482,17.14-6.86,26.234
	c6.756,0,13.176,0,20.145,0c-0.561,2.629-1.008,4.729-1.514,7.107c-6.812,0-13.443,0-20.559,0
	c-4.02,16.258-8.146,32.308-11.828,48.458c-0.639,2.802,0.601,6.032,0.973,9.065c3.122-0.479,6.648-0.194,9.287-1.589
	c6.322-3.343,12.228-7.476,18.561-11.453c0.792,0.736,1.992,1.854,3.817,3.552c-3.963,3.112-7.348,6.137-11.086,8.634
	c-8.233,5.498-15.885,12.065-25.903,14.422c-7.028,1.652-10.408-0.926-10.859-8.189c-0.706-11.377,2.894-22.006,5.506-32.794
	c2.37-9.786,5.062-19.495,7.795-29.938c-5.254,0-10.111,0-15.567,0c0.603-2.752,1.044-4.768,1.571-7.182
	c3.673,0,7.327-0.195,10.95,0.056c3.521,0.244,5.837-0.516,5.828-4.585c-0.001-0.611,0.592-1.215,0.625-1.837
	C1028.751,510.059,1034.705,502.99,1047.235,502.072z"/>
<path fill-rule="evenodd" clip-rule="evenodd" d="M1088.718,535.429c-5.377,0-10.009,0-15.385,0
	c0.472-2.518,0.864-4.612,1.316-7.029c4.194,0,8.182-0.164,12.147,0.056c2.873,0.158,4.132-0.996,4.668-3.71
	c0.882-4.47,2.045-8.883,3.021-13.335c0.681-3.108,2.343-5.033,5.541-5.947c3.691-1.056,7.246-2.593,11.363-4.105
	c-2.366,9.142-4.622,17.86-6.998,27.042c6.802,0,13.25,0,20.096,0c-0.508,2.482-0.922,4.505-1.403,6.855c-6.559,0-13.188,0-20.389,0
	c-3.445,13.318-6.943,26.46-10.204,39.66c-1.014,4.104-1.749,8.347-1.969,12.56c-0.324,6.254,2.348,7.845,8.334,5.024
	c3.672-1.729,7.127-3.951,10.567-6.127c3.293-2.081,6.442-4.39,9.8-6.698c1.029,1.093,2.15,2.281,4.013,4.258
	c-7.409,5.281-14.335,10.682-21.736,15.326c-4.763,2.987-10.067,5.326-15.409,7.118c-6.731,2.257-10.264-0.878-10.685-8.195
	c-0.654-11.373,2.914-21.997,5.562-32.78C1083.369,555.625,1085.999,545.904,1088.718,535.429z"/>
<path fill-rule="evenodd" clip-rule="evenodd" d="M1592.382,528.4c3.88,0,7.036,0,10.191,0c3.146,0,6.293,0,9.962,0
	c-0.563,2.561-1.027,4.666-1.525,6.933c-6.704,0-13.183,0-20.248,0c-3.116,11.761-6.364,23.447-9.267,35.218
	c-1.362,5.526-2.483,11.182-2.943,16.842c-0.502,6.189,2.354,7.875,8.22,5.128c3.675-1.722,7.122-3.96,10.568-6.129
	c3.312-2.083,6.491-4.377,9.8-6.626c0.978,1.021,2.113,2.208,3.949,4.127c-5.767,4.193-11.154,8.661-17.069,12.266
	c-6.343,3.865-12.955,7.508-19.867,10.156c-6.66,2.552-10.304-0.771-10.745-8.047c-0.689-11.376,2.868-22.007,5.521-32.79
	c2.404-9.777,5.057-19.494,7.779-29.929c-5.274,0-10.141,0-15.586,0c0.615-2.74,1.068-4.758,1.605-7.148
	c4.035,0,8.019-0.158,11.982,0.053c2.812,0.149,4.355-0.778,4.74-3.625c0.151-1.115,0.857-2.187,0.87-3.284
	c0.144-12.31,7.132-18.171,18.907-19.576C1597.033,510.436,1594.778,519.146,1592.382,528.4z"/>
<path fill-rule="evenodd" clip-rule="evenodd" d="M1663.225,502.077c-2.219,8.506-4.46,17.104-6.832,26.2c6.719,0,13.129,0,20.098,0
	c-0.54,2.637-0.971,4.738-1.457,7.119c-6.801,0-13.435,0-20.572,0c-4.022,16.246-8.152,32.29-11.841,48.434
	c-0.642,2.811,0.576,6.047,0.936,9.087c3.284-0.504,6.992-0.206,9.765-1.675c6.178-3.272,11.889-7.428,18.187-11.479
	c0.785,0.789,1.936,1.945,3.696,3.715c-3.889,3.057-7.273,6.072-11.002,8.576c-8.222,5.52-15.883,12.072-25.893,14.441
	c-7.062,1.671-11.285-0.941-10.694-8.127c0.801-9.726,2.424-19.438,4.46-28.993c2.367-11.115,5.562-22.054,8.578-33.763
	c-5.176,0-10.025,0-15.529,0c0.658-2.866,1.143-4.972,1.658-7.212c4.201,0,8.033-0.176,11.841,0.055
	c3.103,0.188,4.634-0.952,4.841-4.041c0.053-0.791,0.591-1.553,0.634-2.343C1644.754,510.114,1650.653,502.98,1663.225,502.077z"/>
<path fill-rule="evenodd" clip-rule="evenodd" d="M615.452,501.182c-2.423,9.3-4.66,17.885-7.064,27.113c6.795,0,13.316,0,20.187,0
	c-0.587,2.687-1.03,4.716-1.537,7.039c-6.675,0-13.306,0-20.54,0c-4.039,16.374-8.175,32.567-11.91,48.852
	c-0.614,2.677,0.526,5.755,0.855,8.648c3.275-0.467,6.972-0.125,9.741-1.564c6.197-3.222,11.933-7.331,18.193-11.291
	c0.723,0.864,1.832,2.189,3.332,3.981c-11.891,9.098-23.28,18.942-38.052,23.294c-4.915,1.448-9.612-2.667-9.059-8.738
	c0.889-9.728,2.366-19.456,4.409-29.011c2.409-11.262,5.687-22.338,8.727-34.031c-5.284,0-10.054,0-15.505,0
	c0.573-2.655,1.025-4.751,1.526-7.073c4.09,0,7.92-0.193,11.72,0.061c3.056,0.204,4.397-0.898,5.022-3.889
	c1.028-4.925,2.286-9.825,3.864-14.598c0.491-1.483,2.118-2.963,3.596-3.676C606.749,504.469,610.748,503.069,615.452,501.182z"/>
<path fill-rule="evenodd" clip-rule="evenodd" d="M844.497,140.917c-8.353-1.372-15.009-1.445-20.228-6.959
	c-3.213-3.396-4.273-6.909-3.802-11.184c0.45-4.079,2.262-6.485,6.979-6.482c4.727,0.003,6.796,2.437,6.889,6.502
	c0.111,4.931-0.317,9.585,6.072,11.168c5.82,1.442,14.986-1.038,18.456-5.516c3.307-4.269,3.733-11.004,0.394-15.615
	c-3.836-5.297-8.111-10.278-12.255-15.348c-6.378-7.803-9.485-16.486-5.394-26.179c3.783-8.961,11.098-13.416,20.781-15.092
	c6.902-1.194,12.831,0.26,18.799,3.132c3.48,1.676,5.08,4.793,4.023,8.084c-0.728,2.268-3.267,5.035-5.417,5.462
	c-2.136,0.424-5.016-1.484-7.158-2.965c-1.678-1.158-2.666-3.278-4.07-4.876c-2.855-3.25-6.134-4.977-10.416-2.555
	c-4.786,2.706-7.589,7.766-5.776,12.373c1.803,4.582,4.343,8.986,7.202,13.012c3.317,4.669,7.731,8.567,10.971,13.28
	c8.63,12.558,3.029,29.831-11.334,35.256C853.943,138.407,848.422,139.733,844.497,140.917z"/>
<path fill-rule="evenodd" clip-rule="evenodd" d="M530.529,607.332c-4.715-1.23-10.109-1.989-14.936-4.067
	c-5.57-2.398-8.918-9.949-6.9-15.428c0.839-2.277,4.195-5.098,6.331-5.036c2.415,0.069,4.785,3.048,7.074,4.888
	c0.377,0.304,0.265,1.25,0.329,1.904c1.075,11.039,7.07,14.449,17.486,9.941c11.54-4.993,12.737-15.705,3.399-25.912
	c-4.943-5.403-10.186-11.031-13.286-17.518c-6.728-14.071,2.27-27.754,14.958-31.92c7.999-2.626,15.747-2.648,23.229,1.269
	c1.75,0.916,3.2,2.763,4.299,4.492c2.335,3.675,0.73,7.316-2.397,8.866c-2.821,1.399-6.791,1.802-9.437-1.71
	c-1.477-1.959-3.023-3.891-4.738-5.64c-5.031-5.132-12.225-3.72-15.037,3.006c-3.399,8.128,1.174,14.021,5.892,19.775
	c4.162,5.075,9.087,9.661,12.495,15.19c8.174,13.26,0.714,29.744-14.09,34.845C540.793,605.797,536.01,606.228,530.529,607.332z"/>
<path fill-rule="evenodd" clip-rule="evenodd" d="M799.46,129.65c4.976-3.979,9.951-7.958,15.255-12.199
	c1.039,0.956,2.326,2.139,4.554,4.187c-8.171,5.92-15.685,12.03-23.849,17.093c-8.248,5.115-15.421-0.295-13.879-8.806
	c1.825-10.073,4.226-20.057,6.744-29.986c2.237-8.821,5.019-17.505,7.46-26.276c0.512-1.84,0.588-3.801,0.912-6.03
	c-9.164-1.135-11.338,7.675-17.461,10.782c-1.09-0.991-2.289-2.082-3.704-3.369c7.717-8.298,15.426-16.288,26.852-19.021
	c2.205-0.527,4.631-0.825,6.839-0.481c3.223,0.501,4.913,2.949,4.1,6.108c-2.511,9.757-5.302,19.441-7.998,29.15
	c-2.914,10.492-5.988,20.944-8.645,31.502c-0.516,2.047,0.571,4.497,0.919,6.762C798.192,129.26,798.826,129.455,799.46,129.65z"/>
<path fill-rule="evenodd" clip-rule="evenodd" d="M462.684,541.078c6.367-4.979,12.385-10.099,18.842-14.586
	c4.219-2.931,9.015-5.085,14.536-4.257c4.419,0.663,6.092,2.812,4.96,6.973c-2.817,10.349-5.768,20.661-8.61,31.002
	c-2.671,9.716-5.386,19.423-7.793,29.205c-0.41,1.665,0.633,3.687,1.005,5.544c1.746-0.465,3.781-0.511,5.186-1.476
	c3.907-2.684,7.553-5.749,11.667-8.948c1.075,0.696,2.499,1.618,5.078,3.288c-8.414,6.314-16.138,12.539-24.341,18.049
	c-3.18,2.137-7.453,2.764-11.057-0.278c-3.604-3.041-3.431-7.373-2.525-11.06c4.38-17.836,9.214-35.56,13.881-53.325
	c0.329-1.25,0.883-2.52,0.848-3.767c-0.034-1.206-0.396-3.109-1.148-3.423c-1.09-0.453-2.976-0.184-3.967,0.539
	c-3.047,2.224-6.047,4.602-8.65,7.317C468.38,544.187,466.516,544.891,462.684,541.078z"/>
<path fill-rule="evenodd" clip-rule="evenodd" d="M506.006,480.401c3.984,0.022,7.385,3.46,7.4,7.483
	c0.02,4.72-5.709,10.504-10.41,10.512c-3.157,0.006-6.765-3.708-6.481-7.319C496.944,485.584,499.47,479.892,506.006,480.401z"/>
<path fill-rule="evenodd" clip-rule="evenodd" d="M815.354,31.398c-4.562-0.04-6.948-2.65-6.911-7.558
	c0.038-5.103,5.147-10.588,9.721-10.435c4.026,0.134,7.443,3.807,7.228,7.766C825.101,26.464,820.215,31.441,815.354,31.398z"/>
<path fill-rule="evenodd" clip-rule="evenodd" d="M851.441,256.989c-0.05-4.814,4.914-10.437,9.315-10.55
	c3.149-0.08,7.75,4.551,7.639,7.689c-0.161,4.522-5.752,10.945-9.717,11.16C854.829,265.499,851.491,261.67,851.441,256.989z"/>
</svg>
