<?xml version="1.0" encoding="utf-8"?>
<!-- Generator: Adobe Illustrator 16.0.0, SVG Export Plug-In . SVG Version: 6.00 Build 0)  -->
<!DOCTYPE svg PUBLIC "-//W3C//DTD SVG 1.1//EN" "http://www.w3.org/Graphics/SVG/1.1/DTD/svg11.dtd">
<svg version="1.1" id="Lag_1" xmlns="http://www.w3.org/2000/svg" xmlns:xlink="http://www.w3.org/1999/xlink" x="0px" y="0px"
	 width="2365.261px" height="456.46px" viewBox="0 0 2365.261 456.46" enable-background="new 0 0 2365.261 456.46"
	 xml:space="preserve">
<path fill-rule="evenodd" clip-rule="evenodd" d="M169.364,296.961c-1.241,2.548-2.422,5.127-3.732,7.639
	c-6.394,12.264-10.727,25.079-9.325,39.124c2.055,20.602,10.61,34.041,32.074,37.816c13.803,2.428,27.495,3.161,40.993-0.766
	c21.184-6.162,33.246-21.484,38.726-41.946c6.001-22.406,0.751-43.312-12.298-61.959c-6.777-9.685-16.617-15.958-29.02-16.392
	c-17.523-0.612-32.842,11.836-33.406,28.333c-0.247,7.217,0.65,14.516,1.521,21.718c1.302,10.763,3.58,21.537-3.722,31.229
	c-0.398,0.527-0.836,1.029-1.295,1.505c-0.219,0.228-0.531,0.366-1.619,1.088c0-2.183,0.17-3.896-0.028-5.567
	c-1.173-9.902-2.333-19.808-3.681-29.688c-3.532-25.904,8.792-47.942,37.407-51.736c17.198-2.28,31.629,2.908,43.646,15.005
	c7.328,7.377,10.567,17.027,11.475,26.986c1.57,17.229-0.29,34.222-8.268,49.926c-12.215,24.047-31.336,38.766-58.666,41.023
	c-10.617,0.877-21.51,1.223-32.023-0.142c-14.999-1.947-24.707-11.384-28.502-26.088c-6.245-24.194,0.625-45.472,15.333-64.787
	c0.912-1.197,2.223-2.092,3.348-3.127C168.656,296.425,169.01,296.692,169.364,296.961z"/>
<path fill-rule="evenodd" clip-rule="evenodd" d="M21.671,46.775c-3.383,7.691-7.384,15.177-10.02,23.116
	c-5.58,16.809-4.546,33.146,5.552,48.315c4.988,7.494,12.527,10.654,20.845,12.611c14.794,3.481,29.718,4.256,44.34-0.104
	c21.691-6.467,33.728-22.461,38.663-43.598c5.603-23.996-0.431-46.051-16.398-64.437C91.495,7.528,72.007,6.033,56.166,18.312
	c-10.475,8.119-12.21,20.164-10.582,32.674c0.99,7.603,3.082,15.112,3.479,22.727c0.366,7.021-1.358,13.942-7.22,19.734
	c-0.564-5.889-0.907-11.196-1.618-16.455c-0.962-7.116-2.26-14.188-3.318-21.292c-1.882-12.634,0.981-23.993,9.376-33.772
	C55.72,10.933,68.284,6.066,82.177,6.644c23.96,0.996,42.599,13.639,46.741,38.923c5.218,31.851-4.387,59.552-29.324,80.804
	c-10.017,8.537-22.428,12.63-35.469,13.961c-8.542,0.871-17.194,1.195-25.776,0.974c-7.872-0.203-15.468-2.333-22.268-6.588
	c-8.666-5.422-12.857-13.914-14.666-23.43c-3.465-18.227-0.618-35.589,9.108-51.542c2.936-4.815,6.5-9.246,9.777-13.854
	C20.757,46.187,21.214,46.48,21.671,46.775z"/>
<path fill-rule="evenodd" clip-rule="evenodd" d="M1119.196,289.699c2.339-3.243,5.191-6.24,6.89-9.79
	c2.205-4.609,4.021-9.555,4.999-14.553c0.721-3.678-0.456-7.573-4.888-8.958c-4.312-1.349-7.835,0.595-10.069,3.872
	c-2.73,4.003-5.483,8.341-6.737,12.939c-4.703,17.248-8.814,34.657-13.117,52.015c-2.27,9.151-4.49,18.315-6.685,27.485
	c-0.192,0.803-0.026,1.692-0.026,3.143c4.022-5.188,6.932-10.538,11.29-14.13c4.762-3.925,10.603-7,16.468-8.98
	c4.661-1.574,9.473,0.863,12.597,4.93c3.003,3.905,3.172,8.49,1.558,13.04c-2.571,7.244-8.116,11.788-14.548,15.422
	c-2.117,1.196-4.333,2.218-6.829,3.484c2.39,5.159,1.747,12.367,9.537,12.676c5.435,0.215,10.918-0.814,16.311-1.281
	c-4.221,8.002-16.202,13.018-24.669,9.299c-1.222-0.537-2.372-1.829-2.987-3.056c-3.368-6.718-6.711-13.457-9.72-20.339
	c-0.907-2.076-2.457-4.7,1.083-6.651c3.252-1.791,5.298,0.005,6.748,2.029c1.718,2.398,3.735,2.943,5.77,1.595
	c3.857-2.559,8.231-5.01,10.825-8.628c3.101-4.324,1.297-8.982-2.947-12.582c-2.86-2.425-9.722-2.31-13.717,0.263
	c-7.829,5.041-13.014,12.424-17.035,20.599c-3.598,7.313-7.18,14.688-9.955,22.331c-1.674,4.608-4.307,5.185-8.715,4.262
	c2.561-8.47,5.438-16.834,7.599-25.381c4.224-16.714,8.013-33.537,12.045-50.299c3.927-16.323,8.038-32.613,16.193-47.47
	c3.876-7.061,8.456-13.625,16.837-16.101c7.969-2.354,14.953,2.939,14.977,11.28c0.02,6.553-2.807,12.129-6.542,17.062
	c-3.246,4.287-7.457,7.843-11.241,11.722C1120.061,290.531,1119.628,290.115,1119.196,289.699z"/>
<path fill-rule="evenodd" clip-rule="evenodd" d="M2156.647,39.974c2.9-4.327,6.308-8.412,8.539-13.06
	c1.771-3.688,2.39-8.026,2.988-12.153c0.522-3.602-0.415-6.838-4.438-8.36c-4.242-1.605-7.653,0.234-9.435,3.473
	c-4.057,7.371-8.651,14.812-10.757,22.821c-6.275,23.874-11.457,48.035-17.05,72.088c-0.025,0.11,0.172,0.273,0.688,1.037
	c0.838-1.084,1.475-2.047,2.248-2.884c5.1-5.517,9.764-11.568,15.499-16.326c4.489-3.724,10.317-4.859,16.562-3.283
	c6.692,1.688,9.224,8.8,8.401,13.692c-1.426,8.486-6.746,14.289-14.189,18.25c-2.307,1.229-4.701,2.294-7.055,3.435
	c-1.213,11.098,6.019,16.487,18.168,13.452c2.629-0.657,5.174-1.652,7.758-2.493c-5.207,8.312-11.699,11.905-20.815,11.803
	c-4.105-0.046-6.855-1.874-8.581-5.466c-3.112-6.476-6.432-12.867-9.161-19.5c-0.685-1.664,0.54-4.113,0.888-6.202
	c1.897,0.33,4.221,0.073,5.62,1.09c6.344,4.606,17.7,0.104,18.651-7.796c0.448-3.727,0.789-7.793-2.815-10.496
	c-4.052-3.04-8.414-2.492-12.808-0.74c-8.901,3.55-13.449,11.349-17.615,19.068c-5.012,9.283-9.072,19.081-13.629,28.838
	c-1.647,0-3.61,0-6.274,0c2.495-8.172,5.188-15.93,7.217-23.858c3.87-15.123,7.351-30.345,11.013-45.521
	c4.926-20.421,8.836-41.288,21.102-58.964c3.016-4.347,7.975-7.591,12.561-10.528c4.163-2.666,8.902-1.178,12.336,1.806
	c3.07,2.668,4.135,6.277,3.307,10.972C2173.476,26.028,2166.325,33.812,2156.647,39.974z"/>
<path fill-rule="evenodd" clip-rule="evenodd" d="M1960.729,390.014c3.174-10.747,6.741-21.508,9.504-32.472
	c4.93-19.562,9.119-39.312,14.104-58.86c3.718-14.58,8.638-28.879,18.266-40.751c5.753-7.093,16.14-11.287,22.899-3.603
	c1.482,1.687,2.609,4.331,2.636,6.549c0.161,13.617-8.808,21.674-17.854,29.602c-0.374-0.239-0.748-0.479-1.122-0.719
	c1.552-2.127,3.07-4.279,4.66-6.377c4-5.282,7.277-10.876,7.421-17.744c0.085-4.101-0.502-7.991-5.295-9.276
	c-4.545-1.218-7.962,1.029-10.35,4.458c-5.96,8.558-8.938,18.394-11.323,28.413c-5.009,21.044-9.973,42.099-14.919,63.158
	c-0.135,0.572,0.137,1.239,0.352,2.858c2.768-3.484,5.206-6.21,7.255-9.202c4.665-6.812,10.984-10.921,18.955-12.987
	c5.433-1.407,9.645,0.242,13.343,3.925c3.538,3.524,3.745,7.986,2.485,12.388c-3.062,10.703-11.606,15.683-21.108,19.597
	c2.486,12.789,3.04,16.212,25.084,11.708c-3.18,8.146-17.439,13.672-24.905,9.45c-1.435-0.811-2.52-2.588-3.296-4.152
	c-3.123-6.29-5.978-12.714-9.107-19c-1.235-2.481-1.772-5.154,0.863-6.298c1.734-0.752,5.435-0.323,6.332,0.941
	c3.342,4.708,6.846,2.808,10.049,0.719c2.82-1.841,5.737-4.173,7.403-6.999c2.739-4.65,1.233-9.052-3.009-12.655
	c-2.857-2.429-9.737-2.335-13.715,0.263c-7.035,4.595-12.318,10.889-16.001,18.379c-3.886,7.903-7.531,15.934-10.995,24.03
	C1967.648,389.312,1965.634,391.874,1960.729,390.014z"/>
<path fill-rule="evenodd" clip-rule="evenodd" d="M1014.572,140.244c-1.974,0-3.938,0-6.487,0c2.479-8.183,5.137-15.973,7.181-23.92
	c3.851-14.966,7.472-29.994,10.958-45.05c4.452-19.226,8.8-38.484,18.63-55.878c3.421-6.054,7.795-11.325,14.61-14.079
	c4.801-1.939,9.322-1.205,12.888,1.968c3.025,2.691,4.052,6.288,3.192,11.009c-2.156,11.835-9.205,19.607-18.967,25.67
	c2.9-4.211,6.479-8.122,8.505-12.719c1.909-4.335,2.74-9.369,2.925-14.139c0.084-2.159-2.094-5.033-4.057-6.488
	c-2.549-1.89-5.449-0.719-7.843,1.431c-6.931,6.224-10,14.598-12.101,23.167c-6.023,24.58-11.572,49.276-16.618,74.435
	c0.762-1.031,1.433-2.147,2.3-3.081c5.114-5.511,9.781-11.591,15.58-16.26c4.36-3.51,10.107-4.505,16.195-3.014
	c5.916,1.449,9.376,8.382,8.292,14.151c-1.965,10.455-9.385,16.035-18.369,19.921c-2.924,1.265-3.612,2.839-2.883,5.616
	c2.347,8.94,7.918,11.782,18.314,9.17c2.63-0.661,5.177-1.651,7.762-2.491c-5.243,8.337-11.732,12.323-20.817,11.57
	c-2.871-0.238-6.704-2.111-8.094-4.434c-3.923-6.557-7.002-13.653-9.942-20.732c-0.625-1.504,0.16-4.548,1.388-5.562
	c0.96-0.793,4.008-0.106,5.434,0.902c5.107,3.617,8.775,3.537,14.206-0.988c4.438-3.698,6.084-10.649,3.463-15.084
	c-2.278-3.856-7.558-5.933-14.714-2.977c-9.011,3.723-13.32,11.829-17.911,19.513c-2.662,4.456-4.444,9.439-6.607,14.193
	C1018.84,130.78,1016.714,135.505,1014.572,140.244z"/>
<path fill-rule="evenodd" clip-rule="evenodd" d="M1540.564,355.437c4.794-5.104,8.622-9.353,12.641-13.413
	c4.8-4.849,10.729-7.463,17.542-7.544c7.24-0.085,13.034,6.985,11.388,14.01c-1.963,8.373-5.566,15.963-11.644,22.296
	c-2.897,3.02-5.346,6.47-7.998,9.725c0.178,0.457,0.356,0.913,0.535,1.37c8.652-0.562,17.306-1.125,25.095-1.631
	c-6.339,9.278-12.422,11.078-34.687,10.018c2.363-3.953,4.611-7.54,6.689-11.222c4.895-8.673,9.471-17.41,11.358-27.427
	c0.747-3.963,0.271-7.42-2.806-8.876c-2.733-1.293-7.267-1.691-9.631-0.241c-4.773,2.927-9.717,6.689-12.617,11.338
	c-6.451,10.344-11.688,21.445-17.418,32.238c-0.693,1.306-1.373,2.618-2.18,4.156c-1.934,0-4.052,0-6.128,0
	c4.74-17.418,9.632-34.632,14.075-51.96c3.757-14.65,6.665-29.521,10.565-44.131c3.198-11.979,7.567-23.599,14.934-33.815
	c3.478-4.822,7.881-8.713,13.734-9.771c10.218-1.846,16.925,7.202,13.728,17.918c-2.763,9.26-9.258,15.736-16.201,21.875
	c-1.178,1.041-2.594,1.813-4.819,1.93c1.352-1.622,2.53-3.438,4.086-4.835c7.122-6.392,11.493-14.036,10.312-23.843
	c-0.297-2.461-1.79-5.765-3.736-6.805c-2.775-1.483-6.302-1.514-9.338,1.234c-6.852,6.199-9.402,14.688-11.363,22.943
	c-5.64,23.747-10.378,47.708-15.472,71.584C1541.095,353.092,1540.971,353.622,1540.564,355.437z"/>
<path fill-rule="evenodd" clip-rule="evenodd" d="M1611.405,203.726c2.448-8.751,5.291-17.415,7.267-26.272
	c4.749-21.294,8.785-42.75,13.688-64.008c4.493-19.488,8.604-39.219,19.744-56.396c2.43-3.746,5.447-7.11,8.7-10.337
	c-6.184,15.466-12.049,30.868-14.847,48.666c4.312-3.573,7.398-6.731,11.029-9.029c11.61-7.347,26.435-3.65,31.396,8.324
	c2.695,6.508,0.322,18.784-5.281,24.349c-4.505,4.474-9.284,8.672-14.859,13.843c9.322-0.561,17.866-1.075,26.234-1.579
	c-3.227,5.309-8.615,8.746-15.164,8.993c-12.745,0.482-25.521,0.142-38.284,0.142c-0.175-0.595-0.349-1.19-0.522-1.785
	c5.006-1.737,9.917-3.853,15.036-5.143c16.471-4.151,24.249-13.538,24.671-28.036c0.265-9.096-3.944-16-10.228-17.745
	c-6.933-1.925-16.281,2.983-20.873,10.064c-7.036,10.85-8.909,23.273-11.876,35.421c-4.204,17.213-8.348,34.45-13.109,51.512
	c-1.681,6.024-4.965,11.632-7.824,17.274c-0.671,1.322-2.588,2.013-3.932,2.993C1612.049,204.56,1611.728,204.143,1611.405,203.726z
	"/>
<path fill-rule="evenodd" clip-rule="evenodd" d="M1557.905,140.271c-3.286,0-6.256,0-9.725,0
	c3.633-11.887,7.295-23.457,10.652-35.115c0.938-3.26,1.312-6.775,1.356-10.182c0.088-6.711-4.64-9.541-10.559-6.217
	c-8.959,5.03-13.493,13.697-17.251,22.701c-3.004,7.195-5.416,14.639-8.063,21.982c-2.661,7.381-2.646,7.386-10.745,6.691
	c3.338-10.142,7.208-20.104,9.832-30.383c2.637-10.332,4.034-20.98,6.268-33.078c2.492,7.479,4.631,13.899,6.492,19.483
	c2.445-2.196,5.444-5.153,8.717-7.766c4.738-3.78,9.579-6.954,16.362-5.13c5.181,1.394,6.91,4.963,8.03,9.431
	c0.465,1.854,0.974,3.699,1.41,5.348c4.738-3.903,9.146-8.229,14.224-11.528c5.534-3.596,11.636-5.654,18.366-2.135
	c5.922,3.095,9.266,10.111,6.253,16.12c-3.185,6.352-7.169,12.336-11.17,18.232c-2.793,4.117-6.202,7.816-9.336,11.703
	c0.231,0.587,0.462,1.174,0.693,1.761c9.729-1.116,19.456-2.233,28.313-3.249c-8.966,13.31-23.158,12.795-38.566,10.106
	c3.029-4.828,6.045-9.526,8.949-14.292c5.017-8.229,9.842-16.537,10.873-26.428c0.419-4.022-0.772-8.07-4.272-9.187
	c-2.97-0.947-7.122,0.028-10.17,1.424c-11.317,5.18-15.188,16.218-19.393,26.654C1562.473,124.604,1560.451,132.37,1557.905,140.271
	z"/>
<path fill-rule="evenodd" clip-rule="evenodd" d="M1644.812,291.173c3.293-4.201,7.064-8.13,9.74-12.7
	c2.234-3.818,3.552-8.3,4.589-12.65c0.826-3.469,0.199-7.396-3.445-9.04c-3.854-1.739-7.902-1.104-11.219,1.937
	c-6.107,5.601-8.338,13.181-10.171,20.812c-5.131,21.361-9.488,42.926-15.238,64.115c-3.182,11.723-8.544,22.854-12.921,34.254
	c-0.336,0.876-0.648,1.761-1.504,4.088c12.664-0.71,24.458-1.371,35.431-1.986c-5.062,6.296-12.348,10.81-22.271,10.477
	c-7.155-0.24-14.325-0.047-22.062-0.047c1.368-4.47,2.8-8.646,3.926-12.904c5.906-22.326,11.563-44.72,17.646-66.997
	c4.68-17.141,9.507-34.298,19.97-49.104c3.586-5.076,8.114-9.013,14.289-10.704c7.46-2.044,14.329,3.129,14.727,10.806
	c0.569,11.024-13.161,26.868-20.576,29.841C1645.474,291.468,1645.093,291.239,1644.812,291.173z"/>
<path fill-rule="evenodd" clip-rule="evenodd" d="M1391.639,132.039c12.737-0.733,24.438-1.406,35.423-2.038
	c-4.775,6.39-12.004,10.585-21.596,10.45c-7.289-0.103-14.58-0.021-21.906-0.021c4.133-14.253,8.382-28.05,12.101-41.989
	c3.183-11.931,5.529-24.083,8.656-36.03c4.457-17.029,9.261-34.025,19.038-48.938c4.61-7.033,10.191-13.445,19.907-13.028
	c4.983,0.214,10.378,4.005,10.2,10.31c-0.185,6.598-1.765,12.3-6.071,17.113c-4.575,5.111-9.459,9.947-14.208,14.902
	c-0.492-0.418-0.985-0.836-1.479-1.255c0.352-0.688,0.581-1.485,1.075-2.05c2.936-3.347,5.957-6.619,8.903-9.957
	c4.769-5.402,5.158-11.991,4.456-18.612c-0.491-4.624-7.601-6.567-12.335-3.423c-6.041,4.013-8.843,10.362-10.46,17
	c-5.235,21.488-9.576,43.208-15.319,64.553c-3.323,12.348-8.657,24.155-13.146,36.184
	C1394.156,127.14,1393.116,128.951,1391.639,132.039z"/>
<path fill-rule="evenodd" clip-rule="evenodd" d="M589.328,382.096c13.079-0.787,24.819-1.494,35.793-2.155
	c-5.109,6.355-12.39,10.867-22.311,10.538c-7.278-0.242-14.571-0.048-21.804-0.048c5.036-16.966,10.28-33.558,14.835-50.337
	c3.282-12.09,5.233-24.541,8.524-36.627c4.028-14.797,8.809-29.419,17.953-42.054c3.288-4.544,7.177-8.417,12.968-10.115
	c9.815-2.88,17.732,3.195,15.829,13.24c-2.259,11.924-10.03,20.295-19.926,26.811c-0.314,0.207-0.952-0.076-1.672-0.156
	c2.845-3.364,6.067-6.293,8.166-9.88c2.661-4.548,4.908-9.483,6.385-14.53c1.056-3.607,0.712-8.119-3.394-9.999
	c-4.026-1.844-8.178-1.006-11.577,2.286c-5.807,5.623-8.006,13.013-9.791,20.479c-4.807,20.106-8.844,40.413-14.229,60.358
	c-3.249,12.032-8.433,23.542-12.779,35.274C591.634,376.976,590.792,378.705,589.328,382.096z"/>
<path fill-rule="evenodd" clip-rule="evenodd" d="M441.966,131.453c12.348-0.552,24.212,1.665,35.705-2.866
	c-4.932,7.651-12.369,11.819-21.095,11.84c-7.649,0.018-15.298,0.004-22.997,0.004c3.341-11.665,6.77-22.985,9.81-34.409
	c4.431-16.647,8.623-33.359,12.839-50.064c3.766-14.92,8.699-29.417,17.156-42.353c2.781-4.254,6.773-7.983,10.897-11.021
	c4.8-3.536,12.112-2.965,16.099,0.562c4.74,4.194,3.781,10.198,2.368,14.892c-3.22,10.688-11.411,17.785-20.995,23.564
	c0.31-0.695,0.474-1.52,0.953-2.064c3.162-3.591,6.548-6.995,9.562-10.702c4.25-5.225,4.543-11.552,3.886-17.836
	c-0.48-4.599-7.988-7.093-12.144-3.459c-3.614,3.161-7.268,7.435-8.554,11.894c-4.905,17.011-9.232,34.213-13.071,51.5
	c-4.32,19.456-9.507,38.549-18.564,56.411C443.248,128.476,442.774,129.655,441.966,131.453z"/>
<path fill-rule="evenodd" clip-rule="evenodd" d="M833.209,84.286c8.356,0.534,15.924,1.018,23.422,1.497
	c-0.196,1.702-0.398,3.457-0.65,5.646c-8.121,0-16.22,0-23.46,0c-2.483,7.237-4.479,13.92-7.069,20.362
	c-2.598,6.456-5.789,12.674-8.699,18.952c7.885,1.951,20.961,0.491,34.615-3.874c-9.72,18.111-27.102,12.88-42.778,13.545
	c4.44-16.566,8.804-32.841,13.306-49.637c-2.832-0.218-4.911-0.377-7.478-0.573c-0.32-3.54,0.012-6.289,4.635-5.749
	c3.561,0.416,4.363-1.324,5.405-4.544c3.295-10.186,7.042-20.256,11.258-30.096c1.445-3.371,4.792-5.929,7.271-8.857
	c0.521,0.272,1.042,0.545,1.562,0.817C840.812,55.786,837.074,69.797,833.209,84.286z"/>
<path fill-rule="evenodd" clip-rule="evenodd" d="M1938.62,140.09c4.412-16.469,8.736-32.606,13.203-49.274
	c-2.729-0.239-4.791-0.419-7.23-0.633c-0.569-3.502-0.161-6.183,4.401-5.72c3.513,0.355,4.415-1.235,5.462-4.506
	c3.167-9.896,6.886-19.639,10.893-29.231c1.273-3.049,4.059-5.496,6.306-8.085c0.482-0.557,1.628-0.538,2.468-0.784
	c0.048,0.846,0.325,1.755,0.108,2.526c-3.69,13.148-7.442,26.28-11.309,39.862c8.318,0.548,15.853,1.044,23.384,1.54
	c-0.405,5.638-0.405,5.641-6.4,5.645c-5.984,0.004-11.969,0.001-16.784,0.001c-5.431,13.671-10.609,26.711-15.69,39.503
	c11.143,0.677,20.186,2.079,34.129-4.284C1973.536,139.554,1963.521,142.694,1938.62,140.09z"/>
<path fill-rule="evenodd" clip-rule="evenodd" d="M1265.166,383.109c7.68-0.854,14.579-1.621,20.802-2.313
	c-4.556,9.309-11.522,11.289-18.058,10.574c-5.958-0.651-8.02-3.623-10.313-14.769c-4.759,3.354-9.389,6.217-13.552,9.646
	c-6.539,5.385-13.684,6.628-21.614,4.232c-6.197-1.873-8.933-11.245-6.867-18.244c5.453-18.479,16.916-31.861,35.599-38.203
	c6.211-2.108,12.487-2.477,18.582,0.595c7.088,3.572,8.137,7.378,5.747,17.812c-2.193,9.583-6.425,18.699-9.748,28.025
	C1265.588,380.902,1265.539,381.378,1265.166,383.109z M1224.261,371.777c-0.004,7.078,1.569,10.433,6.963,10.312
	c6.165-0.139,13.233-0.768,18.236-3.876c12.167-7.558,16.639-20.412,18.692-33.959c0.772-5.093-2.424-7.775-8.255-7.801
	C1240.39,336.369,1224.518,353.86,1224.261,371.777z"/>
<path fill-rule="evenodd" clip-rule="evenodd" d="M1345.218,383.11c7.66-0.855,14.559-1.626,20.78-2.32
	c-4.705,9.4-11.583,11.343-18.121,10.568c-8.042-0.953-8.819-7.563-10.111-14.878c-4.937,3.482-9.638,6.292-13.729,9.809
	c-5.758,4.949-12.408,6.155-19.376,4.989c-7.925-1.326-11.559-10.066-9.014-19.058c5.18-18.295,16.424-31.914,35.188-37.781
	c4.308-1.347,9.333-1.793,13.769-1.068c12.848,2.098,13.304,8.776,10.878,19.097c-2.251,9.577-6.436,18.699-9.756,28.025
	C1345.569,380.932,1345.541,381.416,1345.218,383.11z M1304.261,372.007c0.001,6.739,1.504,9.038,6.711,10.27
	c7.655,1.811,20.479-3.189,25.189-9.352c5.947-7.78,9.648-16.479,11.849-25.931c1.522-6.54-1.499-10.552-8.343-10.539
	C1320.238,336.491,1304.367,354.044,1304.261,372.007z"/>
<path fill-rule="evenodd" clip-rule="evenodd" d="M1700.462,383.066c7.324-0.812,14.226-1.576,20.455-2.266
	c-4.293,9.16-11.442,11.286-17.942,10.579c-6.001-0.651-8.159-3.704-10.348-14.788c-4.77,3.354-9.389,6.193-13.534,9.609
	c-6.694,5.517-14.013,6.843-22.059,4.102c-5.837-1.988-8.548-10.964-6.482-18.002c5.424-18.479,16.86-31.871,35.553-38.246
	c6.243-2.129,12.492-2.451,18.576,0.553c7.266,3.587,8.181,7.506,5.838,17.776c-2.222,9.741-6.555,19.001-9.944,28.478
	C1700.473,381.146,1700.534,381.487,1700.462,383.066z M1659.261,371.747c-0.005,7.086,1.557,10.444,6.935,10.333
	c6.166-0.128,13.24-0.741,18.242-3.847c12.167-7.553,16.656-20.4,18.716-33.949c0.779-5.124-2.387-7.801-8.226-7.831
	C1675.405,336.354,1659.54,353.835,1659.261,371.747z"/>
<path fill-rule="evenodd" clip-rule="evenodd" d="M882.339,376.733c-4.544,3.207-9.182,5.91-13.124,9.398
	c-5.71,5.053-12.302,6.231-19.323,5.185c-8.135-1.212-11.79-10.34-9.192-19.351c5.277-18.306,16.681-31.76,35.343-37.672
	c4.276-1.354,9.314-1.516,13.784-0.821c13.203,2.053,12.898,9.573,10.774,18.795c-2.312,10.042-6.643,19.619-10.578,30.774
	c7.698-0.87,14.783-1.672,21.426-2.423c-3.824,6.318-9.236,12.169-18.283,10.625C886.643,390.13,886.412,390.933,882.339,376.733z
	 M849.261,372.566c-0.5,4.562,1.01,8.223,6.344,9.622c7.774,2.04,20.705-2.847,25.613-9.351c5.789-7.672,9.521-16.154,11.659-25.478
	c1.582-6.904-1.24-10.808-8.317-10.93C866.49,336.12,849.25,353.554,849.261,372.566z"/>
<path fill-rule="evenodd" clip-rule="evenodd" d="M2170.318,383.026c7.39-0.795,14.401-1.549,20.787-2.235
	c-3.663,6.523-9.332,12.04-18.784,10.504c-8.117-1.319-8.41-8.383-9.446-15.156c-5.985,4.306-11.694,8.272-17.248,12.447
	c-5.304,3.989-11.435,3.694-17.074,2.341c-7.605-1.825-10.226-11-7.885-18.886c5.396-18.182,16.464-31.853,35.228-37.656
	c4.306-1.331,9.335-1.709,13.772-0.971c13.598,2.266,12.989,9.521,10.983,18.69c-2.132,9.742-6.553,18.983-9.957,28.449
	C2170.538,380.989,2170.546,381.483,2170.318,383.026z M2129.261,372.002c0.001,6.743,1.5,9.039,6.706,10.272
	c7.653,1.814,20.48-3.182,25.191-9.345c5.947-7.78,9.648-16.479,11.85-25.931c1.524-6.545-1.49-10.556-8.335-10.544
	C2145.244,336.488,2129.372,354.037,2129.261,372.002z"/>
<path fill-rule="evenodd" clip-rule="evenodd" d="M2090.345,383.038c7.376-0.807,14.394-1.574,20.841-2.279
	c-3.785,6.492-9.394,11.981-18.896,10.56c-5.768-0.863-7.63-4.035-9.642-15.034c-5.779,4.165-11.481,8.147-17.041,12.319
	c-5.305,3.979-11.43,3.67-17.075,2.311c-7.605-1.831-10.192-11.06-7.859-18.9c5.409-18.183,16.491-31.837,35.246-37.644
	c4.302-1.332,9.33-1.673,13.772-0.942c13.563,2.231,12.971,9.547,10.954,18.702c-2.146,9.741-6.556,18.983-9.959,28.45
	C2090.529,381.014,2090.549,381.511,2090.345,383.038z M2049.261,371.734c-0.006,7.09,1.552,10.449,6.923,10.342
	c6.166-0.124,13.243-0.73,18.245-3.834c12.168-7.551,16.66-20.398,18.725-33.946c0.783-5.137-2.37-7.811-8.214-7.842
	C2065.413,336.35,2049.551,353.82,2049.261,371.734z"/>
<path fill-rule="evenodd" clip-rule="evenodd" d="M1895.195,383.11c7.667-0.854,14.567-1.624,20.745-2.312
	c-5.434,10.309-12.128,11.453-18.532,10.475c-8.148-1.245-8.542-8.261-9.486-15.137c-5.849,4.167-11.562,7.855-16.828,12.099
	s-11.237,3.533-17.03,2.926c-4.668-0.49-8.617-6.713-8.81-12.128c-0.433-12.202,5.813-21.563,13.238-30.226
	c7.456-8.699,17.007-14.189,28.373-16.137c5.72-0.979,11.224,0.242,15.794,3.789c5.537,4.296,4.425,10.611,2.885,16.006
	c-2.71,9.498-6.49,18.69-9.811,28.015C1895.577,380.92,1895.54,381.4,1895.195,383.11z M1854.261,372.039
	c0.002,6.719,1.521,9.027,6.742,10.247c7.665,1.789,20.499-3.207,25.171-9.394c5.787-7.663,9.563-16.124,11.67-25.47
	c1.577-6.993-1.128-10.854-8.208-10.992C1871.506,336.079,1854.256,353.443,1854.261,372.039z"/>
<path fill-rule="evenodd" clip-rule="evenodd" d="M1278.031,132.985c7.329-0.766,14.07-1.471,20.372-2.129
	c-2.161,5.065-9.233,10.447-14.637,10.574c-8.034,0.188-12.026-3.575-12.52-11.785c-0.038-0.648-0.162-1.292-0.437-3.385
	c-4.665,3.242-8.815,5.894-12.703,8.886c-5.324,4.098-10.706,7.11-17.937,6.418c-7.412-0.708-13.742-7.474-12.868-14.914
	c2.164-18.426,19.39-38.468,37.339-42.852c3.601-0.88,7.597-1.605,11.148-0.961c14.333,2.604,15.306,11.422,11.979,21.529
	c-2.744,8.338-5.893,16.542-8.833,24.815C1278.621,130.069,1278.491,131.021,1278.031,132.985z M1280.252,96.952
	c0.036-8.493-1.68-10.951-7.923-10.312c-5.844,0.598-12.186,1.795-17.113,4.731c-10.32,6.151-16.842,15.345-18.142,27.949
	c-0.819,7.944,0.407,12.262,6.885,12.682c5.479,0.354,12.007-0.065,16.496-2.763C1273.061,121.664,1278.293,109.02,1280.252,96.952z
	"/>
<path fill-rule="evenodd" clip-rule="evenodd" d="M1480.913,126.166c-4.785,3.339-8.948,6.018-12.856,9.027
	c-5.328,4.103-10.722,7.091-17.956,6.373c-7.325-0.727-13.707-7.636-12.794-14.985c2.355-18.985,19.589-38.269,37.381-42.888
	c5.83-1.514,11.578-1.575,17.261,0.748c6.753,2.76,9.062,10.091,5.779,19.982c-3.016,9.081-6.426,18.03-10.181,28.482
	c7.778-0.742,14.565-1.39,20.87-1.991c-2.724,5.791-9.429,10.522-15.72,10.516c-6.459-0.008-10.762-3.899-11.428-10.355
	C1481.152,129.937,1481.101,128.791,1480.913,126.166z M1490.255,96.849c0.023-8.021-1.204-10.027-6.578-10.3
	c-10.493-0.533-19.305,3.41-26.49,11.126c-5.875,6.308-9.089,13.572-10.299,22.205c-1.35,9.621,3.016,12.626,9.631,12.39
	c4.759-0.17,10.212-0.629,14.055-3.036C1483.062,121.413,1488.326,108.904,1490.255,96.849z"/>
<path fill-rule="evenodd" clip-rule="evenodd" d="M2318.069,132.945c7.367-0.747,14.217-1.441,21.104-2.14
	c-4.631,4.351-8.05,10.812-16.249,10.656c-6.805-0.13-11.068-3.883-11.651-10.659c-0.083-0.972-0.012-1.957-0.012-4.765
	c-5.053,3.465-9.148,6.095-13.047,8.989c-5.192,3.856-10.253,7.16-17.386,6.555c-8.129-0.691-14.812-7.71-13.507-15.765
	c3.302-20.366,22.044-41.475,43.891-43.166c11.688-0.904,22.082,5.096,16.371,22.003c-2.81,8.316-5.907,16.535-8.846,24.809
	C2318.475,130.206,2318.429,131.027,2318.069,132.945z M2320.253,96.941c0.029-8.087-1.179-10.06-6.525-10.398
	c-10.992-0.696-20.115,3.79-27.358,11.753c-5.593,6.148-8.492,13.624-9.66,21.986c-0.883,6.32,1.106,11.414,7.298,11.741
	c5.494,0.29,12.001-0.116,16.493-2.82C2313.107,121.614,2318.306,108.953,2320.253,96.941z"/>
<path fill-rule="evenodd" clip-rule="evenodd" d="M2237.565,133.043c7.824-0.82,14.57-1.528,20.864-2.188
	c-2.511,5.515-9.361,10.523-15.207,10.575c-7.349,0.065-11.462-3.832-11.967-11.329c-0.055-0.812-0.157-1.622-0.382-3.894
	c-4.736,3.298-8.858,6.012-12.808,8.957c-5.198,3.878-10.303,7.085-17.44,6.423c-7.955-0.738-14.68-8.071-13.302-15.975
	c3.54-20.311,21.872-40.379,43.572-43.187c13.524-1.75,21.149,8.343,16.558,22.388
	C2244.529,113.758,2241.244,122.584,2237.565,133.043z M2240.253,96.972c0.031-8.104-1.165-10.087-6.495-10.425
	c-10.985-0.696-20.143,3.744-27.379,11.723c-5.576,6.148-8.508,13.612-9.66,21.986c-0.872,6.342,1.075,11.42,7.261,11.758
	c5.494,0.301,12.008-0.092,16.498-2.793C2233.085,121.638,2238.3,108.983,2240.253,96.972z"/>
<path fill-rule="evenodd" clip-rule="evenodd" d="M2035.047,126.738c-3.937,2.739-7.948,5.379-11.792,8.242
	c-5.18,3.858-10.206,7.224-17.364,6.606c-8.197-0.707-14.973-7.615-13.53-15.7c1.783-9.997,6.006-18.831,13.159-26.33
	c7.773-8.149,16.163-14.478,27.808-16.354c14.176-2.283,25.096,5.33,19.32,21.412c-2.969,8.263-5.935,16.525-8.877,24.798
	c-0.265,0.744-0.347,1.554-0.768,3.519c7.408-0.74,14.246-1.424,21.222-2.121c-4.7,4.312-8.053,10.794-16.239,10.651
	c-7.058-0.122-11.229-3.933-11.718-11.098c-0.056-0.812-0.008-1.631-0.008-2.447
	C2035.855,127.524,2035.451,127.132,2035.047,126.738z M2045.257,96.798c0.016-8.293-1.589-10.27-7.695-10.263
	c-3.528,0.005-7.2,0.592-10.557,1.687c-16.459,5.367-24.344,19.219-25.573,34.627c-0.312,3.9,1.04,7.777,6.412,8.915
	c6.448,1.365,12.674,0.795,17.865-2.538C2038.118,121.258,2043.38,108.793,2045.257,96.798z"/>
<path fill-rule="evenodd" clip-rule="evenodd" d="M1824.997,126.744c-3.935,2.752-7.975,5.366-11.779,8.287
	c-5.454,4.187-10.955,7.363-18.391,6.533c-7.004-0.781-13.875-8.318-12.447-15.245c4.308-20.906,16.27-35.243,36.673-42.291
	c6.177-2.134,12.212-1.889,18.146,0.483c6.456,2.581,8.742,10.25,5.633,19.712c-2.79,8.491-6.062,16.824-9.092,25.237
	c-0.267,0.741-0.312,1.562-0.674,3.483c7.369-0.746,14.22-1.44,21.103-2.137c-4.624,4.351-8.045,10.809-16.243,10.653
	c-6.805-0.129-11.069-3.882-11.652-10.657c-0.083-0.973-0.012-1.958-0.012-2.938
	C1825.841,127.492,1825.419,127.118,1824.997,126.744z M1835.258,96.716c0.011-7.949-1.289-9.945-6.748-10.183
	c-10.917-0.474-20.028,3.818-27.223,11.943c-5.427,6.129-8.356,13.316-9.466,21.555c-0.944,7.021,1.15,11.341,7.396,12.205
	c6.052,0.837,12.123,0.104,17.358-3.567C1828.383,120.39,1833.406,108.348,1835.258,96.716z"/>
<path fill-rule="evenodd" clip-rule="evenodd" d="M743.151,132.966c7.3-0.759,14.148-1.471,21.268-2.211
	c-4.887,4.198-8.115,10.699-16.074,10.694c-7.393-0.003-11.586-3.82-12.086-11.227c-0.055-0.814-0.116-1.628-0.282-3.938
	c-4.765,3.254-9.082,5.688-12.778,8.849c-5.407,4.624-11.152,7.067-18.442,6.398c-6.968-0.639-13.808-8.428-12.377-15.291
	c4.357-20.899,16.488-35.123,36.748-42.227c6.112-2.143,12.224-1.913,18.148,0.508c6.432,2.629,8.654,10.293,5.526,19.775
	c-2.801,8.487-6.075,16.817-9.104,25.23C743.431,130.267,743.436,131.104,743.151,132.966z M745.258,97.592
	c0.013-9.635-1.703-11.862-8.994-10.961c-5.65,0.699-11.658,2.229-16.483,5.106c-10.069,6.004-16.319,15.014-17.629,27.18
	c-0.939,8.727,0.274,12.646,6.9,13.128c5.349,0.39,11.772,0.104,16.119-2.526C737.702,121.936,743.179,109.413,745.258,97.592z"/>
<path fill-rule="evenodd" clip-rule="evenodd" d="M280.695,390.027c8.617-19.506,13.791-39.588,13.694-60.969
	c6.001,4.224,6.794,9.282,8.318,21.691c1.033-0.904,1.921-1.453,2.507-2.229c6.126-8.122,13.75-13.963,23.934-16.023
	c8.406-1.701,15.253,5.869,13.526,14.266c-2.244,10.916-9.161,18.941-15.6,27.339c-1.694,2.208-3.458,4.362-6.273,7.905
	c10.744-0.757,20.338-1.434,29.002-2.044c-6.03,9.145-14.473,11.736-36.588,10.254c5.483-9.873,11.23-19.667,16.373-29.768
	c1.943-3.815,2.712-8.295,3.617-12.557c1.158-5.452-2.871-10.064-10.52-8.45c-10.402,2.195-15.836,10.212-20.201,18.701
	c-4.305,8.372-8.045,17.139-10.969,26.08C289.576,390.152,286.396,391.452,280.695,390.027z"/>
<path fill-rule="evenodd" clip-rule="evenodd" d="M1767.16,382.02c9.551-0.723,19.102-1.446,27.813-2.105
	c-8.609,13.125-23.095,10.552-36.976,10.369c5.363-9.464,10.999-18.595,15.763-28.161c2.335-4.689,3.695-10.108,4.322-15.338
	c0.658-5.486-3.949-8.46-9.526-7.531c-9.997,1.664-15.717,8.675-19.935,16.71c-4.449,8.474-7.824,17.532-11.362,26.456
	c-3.249,8.192-3.069,8.264-11.657,7.812c8.685-19.498,13.815-39.708,13.777-61.776c7.215,6.063,6.951,14.145,8.226,21.689
	c3.265-3.119,6.376-6.354,9.762-9.27c6.768-5.827,14.214-9.812,23.599-7.402c4.422,1.135,7.908,7.022,7.112,11.481
	c-1.624,9.099-6.147,16.739-11.734,23.852c-3.127,3.98-6.406,7.84-9.617,11.755C1766.871,381.046,1767.016,381.533,1767.16,382.02z"
	/>
<path fill-rule="evenodd" clip-rule="evenodd" d="M165.421,140.357c5.258-9.242,10.476-17.857,15.103-26.779
	c2.373-4.575,4.39-9.57,5.31-14.605c1.181-6.466-3.016-10.907-9.572-9.882c-10.354,1.62-16.331,9.295-20.672,17.87
	c-4.477,8.844-8.389,18.057-11.583,27.436c-1.96,5.756-5.046,7.043-10.837,5.566c9.146-18.884,12.918-39.066,14.292-60.534
	c6.941,5.79,6.827,13.354,6.888,22.1c2.166-2.07,3.64-3.082,4.591-4.456c4.994-7.21,12.014-11.189,20.221-13.79
	c5.379-1.705,9.785-0.432,13.5,3.162c3.939,3.809,3.092,8.686,1.761,13.386c-2.422,8.552-7.714,15.407-13.195,22.153
	c-2.318,2.853-4.512,5.807-6.762,8.714c0.211,0.42,0.421,0.841,0.632,1.262c9.203-0.647,18.405-1.295,26.706-1.878
	C193.853,143.813,179.183,140.074,165.421,140.357z"/>
<path fill-rule="evenodd" clip-rule="evenodd" d="M515.755,329.369c7.324,5.234,10.941,14.724,9.034,22.067
	c-1.755,6.758-3.491,13.521-5.186,20.295c-1.787,7.143,1.532,11.079,8.951,10.698c8.999-0.463,15.014-5.469,19.949-12.56
	c6.104-8.768,6.747-18.853,7.798-28.913c0.181-1.725,0.562-3.628,1.51-4.989c0.472-0.678,2.802-0.849,3.633-0.282
	c0.978,0.666,1.574,2.332,1.764,3.646c2.031,14.076-1.05,27.178-7.761,39.559c-0.307,0.567-0.412,1.243-0.609,1.87
	c11.357,2.528,16.116,1.693,23.208-3.729c-3.971,6.195-7.863,12.621-15.873,14.345c-10.366,2.231-12.035-6.623-15.536-13.273
	c-3.576,3.025-6.769,5.818-10.062,8.487c-5.095,4.131-10.913,6.755-17.18,3.659c-5.786-2.857-9.231-8.499-8.899-14.825
	c0.325-6.211,1.528-12.821,4.199-18.362C519.067,347.991,520.6,339.31,515.755,329.369z"/>
<path fill-rule="evenodd" clip-rule="evenodd" d="M641.582,329.917c6.685,6.284,10.366,13.403,7.764,22.761
	c-1.696,6.104-2.855,12.356-4.476,18.484c-2.292,8.667,1.577,12.297,10.529,11.105c11.553-1.537,18.155-9.549,21.674-19.675
	c2.424-6.977,2.92-14.633,4.156-22.005c0.402-2.406-0.009-5.122,3.68-5.165c4.036-0.047,3.032,2.892,3.389,5.255
	c2.191,14.553-2.244,27.68-8.729,40.345c8.546,2.26,16.352,1.771,23.062-4.16c-1.989,6.458-10.997,14.172-15.312,14.604
	c-7.536,0.752-8.068,0.419-15.907-13.17c-3.27,2.758-6.468,5.525-9.741,8.2c-5.074,4.146-10.831,6.825-17.149,3.777
	c-6.043-2.915-9.441-8.69-9.03-15.212c0.392-6.207,1.718-12.753,4.365-18.328C644.098,347.802,645.618,339.256,641.582,329.917z"/>
<path fill-rule="evenodd" clip-rule="evenodd" d="M1457.499,330.594c6.536,4.769,9.194,13.934,6.348,24.69
	c-1.37,5.179-2.928,10.309-4.263,15.496c-2.153,8.369,3.004,13.249,11.477,11.337c13.873-3.131,19.854-13.332,23.073-25.725
	c1.386-5.335,1.492-11.007,2.118-16.533c0.274-2.429,0.58-4.578,3.892-4.455c3.245,0.121,2.874,2.297,3.165,4.507
	c1.931,14.655-1.981,28.06-8.665,40.937c8.029,2.851,15.312,1.62,22.354-2.767c-3.503,5.988-7.337,11.915-14.833,13.239
	c-7.121,1.257-7.293,0.79-15.833-12.924c-2.905,2.394-5.815,4.747-8.679,7.158c-6.841,5.761-14.419,7.799-19.189,4.397
	c-6.009-4.284-10.313-12.398-7.417-21.846c2.139-6.972,5.622-13.63,6.949-20.72C1459.046,341.779,1457.73,335.729,1457.499,330.594z
	"/>
<path fill-rule="evenodd" clip-rule="evenodd" d="M399.239,127.485c-1.966,1.746-3.321,3.083-4.812,4.247
	c-3.343,2.608-6.536,5.501-10.174,7.619c-10.67,6.214-18.241-1.485-20.971-10.675c-1.932-6.505,0.134-12.599,2.662-18.373
	c4.479-10.231,8.306-20.353,1.548-32.139c8.025,5.799,11.469,16.419,9.356,25.251c-1.735,7.254-3.435,14.553-4.458,21.929
	c-0.649,4.678,1.888,7.057,6.64,7.039c12.685-0.048,20.398-6.257,24.97-18.456c3.271-8.727,4.236-18.317,6.402-28.314
	c0.692-0.033,2.417-0.115,4.291-0.205c2.536,7.941,2.28,15.849,0.425,23.5c-1.82,7.509-4.773,14.742-7.255,22.172
	c7.079,2.522,14.16,1.612,21.141-2.865c-2.748,7.936-9.253,13.074-16.214,13.216C406.231,141.563,403.485,138.878,399.239,127.485z"
	/>
<path fill-rule="evenodd" clip-rule="evenodd" d="M534.681,85.529c1.773,0,3.261,0,5.171,0c3.985,16.124-0.341,30.867-7.661,45.224
	c7.705,2.949,14.733,1.836,21.581-2.444c-1.73,7.005-8.604,12.765-15.314,13.12c-7.047,0.374-10.162-2.523-13.951-13.473
	c-1.53,1.067-2.931,1.962-4.241,2.973c-3.622,2.794-6.948,6.077-10.857,8.373c-10.714,6.291-18.494-1.352-21.159-10.949
	c-2.234-8.048,1.181-15.177,4.255-21.964c4.168-9.198,5.244-18.021,0.463-27.64c7.34,4.714,11.043,15.738,8.974,24.528
	c-1.747,7.417-3.28,14.892-4.623,22.392c-0.805,4.493,2.307,6.493,6.054,6.659c8.541,0.38,15.63-2.777,20.883-9.775
	c6.215-8.28,8.583-17.735,9.057-27.881C533.445,91.761,534.161,88.877,534.681,85.529z"/>
<path fill-rule="evenodd" clip-rule="evenodd" d="M899.243,127.044c-3.028,2.992-5.136,5.756-7.863,7.605
	c-3.853,2.612-7.942,5.672-12.326,6.536c-8.473,1.67-13.166-4.227-15.756-12.755c-2.476-8.153,1.192-15.479,4.343-22.413
	c4.123-9.077,5.02-17.745,0.359-27.113c7.372,4.379,10.935,15.464,8.719,24.703c-1.741,7.257-3.154,14.604-4.399,21.963
	c-0.805,4.757,2.462,6.664,6.449,6.777c8.553,0.242,15.319-3.24,20.617-10.161c6.26-8.177,8.305-17.499,8.915-27.427
	c0.18-2.919,0.832-5.809,1.32-9.063c1.512-0.101,3.11-0.207,5.207-0.347c3.971,16.262-0.288,30.988-7.643,45.413
	c7.681,2.965,14.682,1.754,21.453-2.304c-1.134,6.195-8.661,12.6-15.093,12.97C906.427,141.839,903.202,138.862,899.243,127.044z"/>
<path fill-rule="evenodd" clip-rule="evenodd" d="M1199.457,85.514c2.031,0,3.522,0,5.442,0c3.845,16.175-0.411,30.961-7.749,45.329
	c7.777,2.736,14.863,1.891,21.858-2.708c-2.578,7.649-9.562,13.013-16.23,13.332c-9.159,0.438-10.25-7.113-13.742-14.025
	c-2.298,2.195-4.14,4.454-6.443,6.045c-4.131,2.852-8.25,6.598-12.896,7.637c-8.644,1.935-13.4-3.41-16.408-12.562
	c-2.019-6.144-0.104-12.088,2.283-17.487c4.658-10.536,8.756-20.858,1.776-33.315c9.598,7.762,11.791,17.856,8.283,30.071
	c-1.654,5.761-2.426,11.795-3.323,17.746c-0.723,4.792,2.494,6.61,6.484,6.785c9.983,0.436,17.788-4.247,22.165-12.733
	c3.498-6.781,5.198-14.553,7.194-22.019C1199.151,93.869,1199.03,89.828,1199.457,85.514z"/>
<path fill-rule="evenodd" clip-rule="evenodd" d="M1729.953,141.979c-6.117-0.343-11.859-1.04-16.743-5.07
	c-5.785-4.772-6.885-10.92-4.896-17.684c4.819-16.386,13.149-29.779,30.7-35.171c5.968-1.834,11.705-1.885,17.656,0.161
	c9.549,3.284,12.934,11.102,11.424,21.868c-2.045,14.58-10.975,29.145-26.671,33.672
	C1737.696,140.83,1733.782,141.254,1729.953,141.979z M1717.261,117.244c-0.725,10.595,3.611,13.484,8.394,14.734
	c4.841,1.267,10.122,1.609,15.137,1.268c6.731-0.459,13.232-1.993,15.955-9.719c3.157-8.961,3.756-17.849,0.197-26.774
	c-2.698-6.767-10.07-11.074-16.091-9.586C1726.316,90.759,1717.261,102.304,1717.261,117.244z"/>
<path fill-rule="evenodd" clip-rule="evenodd" d="M310.038,141.993c-6.126-0.336-11.822-1.1-16.785-5.015
	c-6.599-5.207-6.65-12.165-4.615-19.113c3.778-12.899,10.444-24.15,22.637-30.765c9.728-5.277,20.178-6.975,30.142-0.529
	c6.982,4.517,7.695,12.127,6.723,19.44c-1.981,14.885-11.279,29.215-26.651,33.696C317.765,140.793,313.859,141.248,310.038,141.993
	z M297.261,117.196c-0.728,10.633,3.585,13.515,8.352,14.769c4.84,1.273,10.145,1.71,15.132,1.256
	c6.216-0.565,12.658-1.396,15.604-8.769c3.355-8.399,4.019-16.876,1.634-25.433c-2.358-8.462-10.288-13.434-17.526-11.668
	C306.278,90.812,297.261,102.413,297.261,117.196z"/>
<path fill-rule="evenodd" clip-rule="evenodd" d="M456.033,392.242c-4.138-1.163-8.979-1.739-13.034-3.835
	c-7.589-3.921-9.667-10.092-6.63-20.854c4.45-15.771,13.455-28.06,29.713-33.409c9.019-2.967,17.854-2.748,25.005,4.678
	c5.713,5.933,5.961,13.291,4.035,20.657c-3.607,13.802-10.88,24.894-24.992,29.881C465.888,390.858,461.241,391.215,456.033,392.242
	z M463.237,384.528c0.119-0.366,0.238-0.732,0.357-1.099c1.165,0,2.344,0.117,3.493-0.02c7.377-0.878,14.764-1.455,17.4-10.548
	c2.211-7.622,3.134-14.966,1.06-22.899c-3.288-12.577-15.699-16.717-26.309-9.214c-6.61,4.675-11.305,10.659-13.529,18.09
	c-2.164,7.23-3.704,15.479,3.622,20.807C453.139,382.413,458.551,382.972,463.237,384.528z"/>
<path fill-rule="evenodd" clip-rule="evenodd" d="M960.011,141.988c-6.123-0.338-11.812-1.109-16.777-5.025
	c-6.616-5.219-6.6-12.196-4.581-19.12c3.762-12.903,10.459-24.129,22.643-30.751c8.005-4.351,16.655-6.229,25.805-2.756
	c9.269,3.519,12.447,11.176,11.004,21.695c-2.032,14.812-10.894,29.053-26.638,33.689
	C967.748,140.816,963.834,141.25,960.011,141.988z M989.456,108.479c-0.304-2.141-0.377-5.482-1.295-8.574
	c-2.64-8.893-10.119-15.901-21.127-11.839c-8.68,3.203-14.625,9.395-17.554,17.811c-1.775,5.104-2.34,10.953-2.018,16.383
	c0.429,7.226,5.887,9.975,12.558,10.52c18.029,1.474,25.302,0.288,28.918-16.727C989.381,113.972,989.25,111.769,989.456,108.479z"
	/>
<path fill-rule="evenodd" clip-rule="evenodd" d="M981.037,392.242c-4.139-1.163-8.979-1.738-13.036-3.833
	c-7.589-3.919-9.668-10.094-6.633-20.854c4.45-15.771,13.459-28.042,29.71-33.416c8.841-2.924,17.465-2.588,24.666,4.316
	c6.376,6.112,6.076,13.904,4.166,21.479c-3.452,13.687-10.89,24.496-24.778,29.424C990.892,390.862,986.243,391.215,981.037,392.242
	z M988.213,384.532c0.12-0.368,0.24-0.735,0.36-1.103c1.165,0,2.345,0.118,3.493-0.02c7.37-0.883,14.757-1.446,17.411-10.53
	c2.228-7.622,3.153-14.97,1.078-22.898c-3.303-12.614-15.706-16.755-26.292-9.234c-6.573,4.67-11.453,10.491-13.577,18.059
	c-2.045,7.289-3.661,15.483,3.633,20.822C978.113,382.405,983.529,382.969,988.213,384.532z"/>
<path fill-rule="evenodd" clip-rule="evenodd" d="M1205.313,376.406c-7.777,9.659-16.637,15.626-29.227,14.087
	c-5.538-0.678-11.168-0.574-16.742-1.01c-10.276-0.805-11.557-11.78-5.793-18.616c2.562-3.039,6.386-5.032,9.699-7.413
	c1.562-1.123,3.273-2.041,5.222-3.238c-1.958-1.228-3.861-1.848-4.822-3.158c-1.469-2.003-3.521-4.71-3.152-6.719
	c1.199-6.517,3.773-12.847,10.256-15.842c2.79-1.289,6.422-1.079,9.659-1.01c6.599,0.14,13.188,0.646,19.781,1.003
	c-0.428,8.372-5.944,11.73-13.32,8.104c-2.778-1.366-5.346-3.54-8.259-4.146c-2.946-0.612-6.624-0.567-9.185,0.745
	c-2.011,1.031-3.936,4.502-3.793,6.756c0.117,1.859,3.035,4.309,5.218,5.1c3.766,1.366,7.928,1.626,11.915,2.393
	c1.842,0.354,3.665,0.811,5.49,1.219c-1.729,7.77-1.781,8.323-9.21,7.624c-8.267-0.779-13.491,3.443-18.118,9.091
	c-3.602,4.396-1.552,9.171,4.019,10.062c10.494,1.68,20.963,1.824,31.274-1.019C1199.122,379.62,1201.789,377.992,1205.313,376.406z
	"/>
<path fill-rule="evenodd" clip-rule="evenodd" d="M1429.063,336.711c2.797,0,5.403,0,8.445,0
	c-2.817,10.549-5.692,20.691-8.218,30.919c-4.129,16.716-7.425,33.663-12.23,50.175c-3.437,11.807-8.751,23.068-13.267,34.558
	c-1.321,3.362-3.555,5.068-7.571,3.523C1411.7,417.403,1417.101,376.228,1429.063,336.711z"/>
<path fill-rule="evenodd" clip-rule="evenodd" d="M233.518,206.1c15.636-38.742,21.52-79.882,33.358-119.669c1.257,0,2.57,0,3.884,0
	c1.32,0,2.641,0,4.312,0c-2.35,9.228-4.664,18.099-6.863,26.997c-4.016,16.249-7.351,32.697-12.129,48.716
	c-4.027,13.502-9.635,26.536-14.683,39.725C240.11,205.227,237.723,207.337,233.518,206.1z"/>
<path fill-rule="evenodd" clip-rule="evenodd" d="M422.361,336.827c-2.44,9.749-4.834,19.182-7.16,28.632
	c-4,16.245-7.323,32.691-12.132,48.691c-3.959,13.172-9.659,25.82-14.587,38.7c-1.314,3.435-3.714,4.328-7.391,3.001
	c2.403-6.281,5.311-12.328,7.044-18.694c5.929-21.785,11.496-43.669,17.096-65.542c2.5-9.762,4.722-19.594,7.12-29.381
	C413.883,335.985,413.925,335.995,422.361,336.827z"/>
<path fill-rule="evenodd" clip-rule="evenodd" d="M805.728,381.156c9.157,0.842,17.507,0.523,25.019-4.585
	c-6.019,8.676-14.349,13.302-24.635,13.769c-9.308,0.423-18.648,0.09-27.992,0.09c0.854-7.384,1.533-7.756,8.56-8.082
	c4.853-0.226,9.99-0.386,14.434-2.07c8.921-3.381,10.101-11.243,3.523-18.036c-3.372-3.483-6.423-7.277-10.342-11.757
	c-1.26,1.363-3.058,3.386-4.94,5.325c-1.974,2.031-4.028,3.983-6.047,5.97c-0.428-0.374-0.856-0.747-1.284-1.121
	c4.723-6.888,9.168-13.99,14.279-20.576c2.727-3.513,6.278-6.653,10.055-9.003c3.564-2.219,7.722,0.279,6.748,3.491
	c-0.403,1.33-2.231,2.614-3.696,3.171c-7.581,2.879-5.885,6.964-2.522,11.742c0.852,1.211,2.152,2.099,3.058,3.279
	C817.437,362.536,814.295,372.763,805.728,381.156z"/>
<path fill-rule="evenodd" clip-rule="evenodd" d="M741.118,381.191c8.706,0.785,17.041,0.638,24.519-4.603
	c-6.023,8.788-14.433,13.359-24.857,13.767c-9.146,0.356-18.318,0.074-28.209,0.074c1.002-2.799,1.886-5.269,2.677-7.477
	c6.412-0.535,12.551-0.581,18.502-1.663c7.528-1.368,12.107-8.918,9.396-14.742c-0.8-1.718-2.5-3.014-3.779-4.509
	c-3.149-3.678-6.294-7.359-10.046-11.748c-1.472,1.634-3.288,3.74-5.203,5.754c-1.874,1.97-3.849,3.844-5.778,5.76
	c-0.425-0.351-0.851-0.7-1.275-1.051c3.92-5.813,7.505-11.895,11.865-17.356c3.593-4.501,7.88-8.543,12.354-12.182
	c1.224-0.995,5.188-0.631,6.213,0.559c2.12,2.459,0.554,4.399-2.443,5.794c-7.271,3.385-8.088,6.733-2.546,12.467
	C752.949,360.84,749.987,371.479,741.118,381.191z"/>
<path fill-rule="evenodd" clip-rule="evenodd" d="M581.548,100.492c-3.897,4.206-8.062,8.702-12.228,13.197
	c-0.4-0.326-0.802-0.652-1.202-0.978c3.817-5.663,7.491-11.43,11.501-16.952c2.982-4.107,6.237-8.051,9.704-11.756
	c1.469-1.57,3.719-3.063,5.746-3.267c1.898-0.189,3.971,1.374,5.967,2.166c-1.104,1.561-1.999,3.349-3.375,4.615
	c-1.261,1.16-3.682,1.391-4.428,2.695c-0.909,1.593-1.235,4.088-0.666,5.814c0.734,2.225,2.575,4.098,3.995,6.081
	c7.143,9.975,6.495,18.634-2.088,27.644c-0.228,0.239-0.409,0.522-0.993,1.28c8.299,1.033,15.989,0.727,23.269-3.464
	c-5.147,8.302-12.979,12.139-22.102,12.721c-9.605,0.611-19.279,0.137-28.968,0.137c1.339-7.995,1.344-7.833,8.834-8.059
	c4.233-0.128,8.547-0.471,12.648-1.451c8.854-2.117,12.756-11.855,5.032-19.119C588.629,108.444,585.457,104.672,581.548,100.492z"
	/>
<path fill-rule="evenodd" clip-rule="evenodd" d="M659.19,132.273c7.538-1.181,15.075-2.361,21.92-3.434
	c-3.051,6.628-13.439,11.088-21.376,11.475c-9.623,0.47-19.286,0.111-28.962,0.111c1.039-7.786,1.275-7.837,8.66-8.056
	c4.238-0.125,8.566-0.412,12.665-1.406c8.971-2.178,12.769-11.944,5.154-19.107c-3.568-3.358-6.733-7.146-10.563-11.255
	c-1.646,1.62-3.883,3.729-6.012,5.94c-2.19,2.274-4.276,4.649-6.408,6.98c-0.364-0.281-0.729-0.562-1.092-0.843
	c1.979-2.925,3.85-5.931,5.96-8.758c5.077-6.805,10.048-13.711,15.548-20.161c1.567-1.839,4.729-2.706,7.304-3.127
	c1.22-0.2,3.138,1.46,4.021,2.764c0.361,0.534-1.172,2.358-1.861,3.585c-0.072,0.128-0.272,0.184-0.412,0.272
	c-8.437,5.395-8.745,5.632-2.458,13.8C668.423,110.338,668.605,119.82,659.19,132.273z"/>
<path fill-rule="evenodd" clip-rule="evenodd" d="M1119.366,132.344c7.463-1.219,14.926-2.438,21.611-3.53
	c-3.037,5.633-12.154,11.229-21.229,11.539c-9.635,0.327-19.289,0.073-28.964,0.073c0.997-7.758,1.262-7.878,8.637-8.042
	c3.921-0.087,7.901-0.314,11.73-1.091c4.661-0.945,8.442-3.526,9.861-8.386c1.368-4.687-0.994-8.173-4.114-11.384
	c-3.307-3.401-6.467-6.945-9.827-10.575c-3.685,4.075-7.865,8.698-12.046,13.321c-0.612-0.532-1.226-1.063-1.839-1.596
	c1.974-2.919,3.837-5.92,5.941-8.741c5.076-6.805,10.22-13.562,15.454-20.245c0.867-1.108,2.229-1.97,3.537-2.564
	c2.947-1.341,6.308-1.553,7.551,1.791c0.424,1.142-2.258,4.349-4.169,5.278c-6.036,2.937-7.063,5.384-2.631,10.27
	c10.483,11.555,8.431,19.042,4.4,26.623c-1.113,2.095-2.916,3.823-4.402,5.72C1119.035,131.318,1119.2,131.831,1119.366,132.344z"/>
<path fill-rule="evenodd" clip-rule="evenodd" d="M1935.173,336.535c4.312,0,7.792,0,10.992,0
	c-4.581,15.118-9.164,30.246-13.989,46.171c7.712-0.394,16.062-0.819,24.096-1.229c-1.492,4.72-8.489,9.215-14.946,10.048
	c-11.199,1.444-17.678-6.785-15.125-17.332C1929.217,361.723,1932.151,349.232,1935.173,336.535z"/>
<path fill-rule="evenodd" clip-rule="evenodd" d="M1066.43,381.519c-3.538,10.012-22.285,13.955-27.662,5.68
	c-2-3.078-3.826-7.539-3.161-10.854c2.675-13.335,6.356-26.469,9.682-39.738c4.017,0,7.609,0,10.905,0
	c-4.626,15.18-9.233,30.299-14.048,46.099C1049.976,382.321,1058.363,381.912,1066.43,381.519z"/>
<path fill-rule="evenodd" clip-rule="evenodd" d="M2093.611,86.435c-4.707,15.548-9.299,30.717-14.065,46.461
	c8.208-0.586,16.904-1.208,25.27-1.806c-4.066,5.067-9.087,9.87-17.053,10.366c-13.844,0.862-16.084-9.249-14.086-19.492
	c2.172-11.128,5.602-22.017,8.715-32.943c0.312-1.097,2.148-2.265,3.427-2.472C2088.247,86.155,2090.785,86.435,2093.611,86.435z"/>
<path fill-rule="evenodd" clip-rule="evenodd" d="M1306.829,159.188c5.878-4.799,11.919-9.284,11.366-18.454
	c-4.822,0.053-6.413-2.86-5.843-7.01c0.721-5.237,5.535-9.316,10.459-9.292c3.899,0.019,7.211,2.877,7.384,6.967
	c0.259,6.107-2.069,11.392-5.932,16.076C1319.624,153.102,1313.87,157.03,1306.829,159.188z"/>
<path fill-rule="evenodd" clip-rule="evenodd" d="M1862.12,159.973c11.105-11.71,11.21-11.871,11.032-18.645
	c-5.207-1.928-6.959-4.727-5.494-8.781c2.179-6.038,7.322-9.39,12.391-8.076c3.737,0.969,6.257,6.849,4.917,11.605
	c-2.351,8.348-7.287,14.777-14.642,19.318C1867.662,157.038,1864.859,158.453,1862.12,159.973z"/>
<path fill-rule="evenodd" clip-rule="evenodd" d="M418.435,319.951c1.573-4.393,2.636-9.226,5.042-13.255
	c1.123-1.88,4.845-3.022,7.396-3.036c3.488-0.018,5.095,4.413,2.843,7.681c-3.041,4.414-6.47,8.57-9.897,12.701
	c-0.614,0.74-2.803,1.335-2.948,1.118C419.947,323.775,419.393,322.146,418.435,319.951z"/>
<path fill-rule="evenodd" clip-rule="evenodd" d="M1435.71,326.383c-2.899-7.397-0.704-13.376,1.781-19.029
	c0.794-1.806,3.719-3.474,5.822-3.687c2.218-0.225,4.62,1.366,7.309,2.289C1447.748,314.633,1442.234,320.08,1435.71,326.383z"/>
<path fill-rule="evenodd" clip-rule="evenodd" d="M271.27,76.066c1.157-6.608,1.497-12.066,3.25-17.026
	c0.833-2.357,4.149-4.228,6.754-5.401c1.257-0.566,4.146,0.489,5.055,1.724c0.877,1.19,0.878,4.055,0.008,5.319
	c-3.324,4.826-7.113,9.339-10.847,13.87C274.994,75.153,273.812,75.189,271.27,76.066z"/>
<path fill-rule="evenodd" clip-rule="evenodd" d="M1054.321,326.159c-0.982-1.414-2.05-2.26-1.939-2.9
	c0.964-5.556,1.676-11.226,3.41-16.553c1.206-3.704,5.201-3.99,8.5-3.096c3.139,0.852,4.119,4.082,2.557,6.406
	C1063.161,315.503,1058.771,320.518,1054.321,326.159z"/>
<path fill-rule="evenodd" clip-rule="evenodd" d="M1944.472,326.455c-1.159-1.726-2.197-2.567-2.091-3.223
	c0.875-5.399,1.521-10.901,3.138-16.092c1.107-3.553,4.725-4.396,8.259-3.635c2.885,0.622,4.654,2.966,3.095,5.462
	C1953.218,314.817,1948.924,320.266,1944.472,326.455z"/>
<path fill-rule="evenodd" clip-rule="evenodd" d="M2090.397,75.009c-0.126-6.139-1.008-12.329,2.629-18.031
	c2.225-3.487,6.893-4.976,10.007-2.471c0.995,0.8,1.858,3.389,1.325,4.204c-3.867,5.907-8.109,11.57-12.231,17.311
	C2091.55,75.684,2090.974,75.347,2090.397,75.009z"/>
<path fill-rule="evenodd" clip-rule="evenodd" d="M2218.239,380.047c-0.025,6.059-4.254,11.219-7.762,11.369
	c-3.501,0.151-7.042-3.465-7.176-7.327c-0.163-4.746,4.49-10.521,8.482-9.393C2214.606,375.494,2216.739,378.729,2218.239,380.047z"
	/>
<path fill-rule="evenodd" clip-rule="evenodd" d="M2365.261,131.75c0.057,4.625-3.606,9.517-7.245,9.675
	c-3.423,0.149-6.741-3.517-6.755-7.461c-0.016-4.65,3.701-9.441,7.392-9.528C2362.845,124.337,2365.201,126.945,2365.261,131.75z"/>
<path fill-rule="evenodd" clip-rule="evenodd" d="M1768.261,56.632c-0.039,5.747-4.018,10.839-8.524,10.778
	c-3.884-0.053-5.513-2.264-5.482-5.998c0.04-4.961,4.825-10.89,8.913-10.968C1766.73,50.376,1768.29,52.271,1768.261,56.632z"/>
<path fill-rule="evenodd" clip-rule="evenodd" d="M1846.249,54.8c0.04,6.856-4.801,12.55-9.348,12.629
	c-3.903,0.067-5.283-2.765-5.479-5.74c-0.292-4.428,5.77-11.328,9.571-11.173C1844.466,50.658,1846.118,52.992,1846.249,54.8z"/>
<path fill-rule="evenodd" clip-rule="evenodd" d="M1501.259,56.223c0.132,5.202-4.629,10.977-9.177,11.212
	c-3.947,0.203-5.339-2.63-5.674-5.573c-0.481-4.235,5.559-11.105,9.408-11.413C1498.521,50.232,1501.179,53.052,1501.259,56.223z"/>
<path fill-rule="evenodd" clip-rule="evenodd" d="M1735.471,57.087c-1.942,2.846-3.368,6.028-5.765,8.073
	c-1.694,1.445-5.407,2.527-6.934,1.617c-1.619-0.967-2.765-4.745-2.235-6.813c0.76-2.964,2.821-5.932,5.117-8.036
	c1.343-1.23,4.514-1.548,6.315-0.854C1733.39,51.62,1733.974,54.339,1735.471,57.087z"/>
<path fill-rule="evenodd" clip-rule="evenodd" d="M1803.677,67.406c-3.998,0.104-7.244-3.497-6.044-6.534
	c1.165-2.946,2.864-5.935,5.1-8.113c1.414-1.379,5.345-2.463,6.199-1.645c1.699,1.627,3.174,4.886,2.731,7.062
	C1810.753,62.647,1808.454,66.787,1803.677,67.406z"/>
<path fill-rule="evenodd" clip-rule="evenodd" d="M1458.74,67.399c-4.248,0.149-7.254-3.528-5.896-6.909
	c1.121-2.793,2.696-5.668,4.839-7.692c1.462-1.382,4.786-2.469,6.32-1.722c2.585,1.259,4.095,4.052,2.701,7.533
	C1465.016,62.825,1463.2,66.718,1458.74,67.399z"/>
</svg>
