<?xml version="1.0" encoding="utf-8"?>
<!-- Generator: Adobe Illustrator 16.0.0, SVG Export Plug-In . SVG Version: 6.00 Build 0)  -->
<!DOCTYPE svg PUBLIC "-//W3C//DTD SVG 1.1//EN" "http://www.w3.org/Graphics/SVG/1.1/DTD/svg11.dtd">
<svg version="1.1" id="Lag_1" xmlns="http://www.w3.org/2000/svg" xmlns:xlink="http://www.w3.org/1999/xlink" x="0px" y="0px"
	 width="1893.237px" height="364.955px" viewBox="0 0 1893.237 364.955" enable-background="new 0 0 1893.237 364.955"
	 xml:space="preserve">
<path fill-rule="evenodd" clip-rule="evenodd" d="M135.763,236.242c-3.118,8.521-6.861,16.529-8.941,24.947
	c-3.353,13.57-1.171,26.456,9.02,36.8c5.513,5.596,13.296,7.465,20.658,7.75c9.632,0.373,19.659,0.19,28.931-2.111
	c13.367-3.318,21.666-13.522,26.741-25.995c8.019-19.705,4.205-38.174-6.958-55.508c-7.407-11.503-19.634-16.372-32.352-12.821
	c-10.348,2.89-18.098,12.797-17.529,22.781c0.465,8.165,1.454,16.328,2.739,24.409c0.986,6.204-2.186,15.188-6.469,18.213
	c-1.406-11.292-3.436-23.122-4.23-35.034c-1.15-17.237,10.062-29.94,26.764-33.635c19.815-4.384,43.386,5.489,47.743,29.463
	c3.487,19.187-0.488,37.165-11.818,53.115c-10.271,14.458-24.564,21.883-42.292,23.62c-9.605,0.941-18.953,1.193-28.359-1.085
	c-11.551-2.799-17.763-10.671-20.069-21.684c-3.944-18.83,1.051-35.646,12.728-50.638
	C132.939,237.708,134.485,237.113,135.763,236.242z"/>
<path fill-rule="evenodd" clip-rule="evenodd" d="M33.587,74.71c-1.402-11.306-3.424-23.144-4.216-35.063
	C28.228,22.441,39.443,9.719,56.161,6.034c19.837-4.372,43.362,5.518,47.73,29.492c3.498,19.198-0.532,37.162-11.851,53.109
	c-10.267,14.465-24.572,21.874-42.3,23.602c-9.604,0.937-18.955,1.211-28.359-1.092C9.85,108.323,3.658,100.46,1.328,89.442
	c-3.988-18.859,1.221-35.61,12.76-50.631c0.858-1.116,2.412-1.698,3.66-2.54c-3.112,8.511-6.846,16.522-8.937,24.943
	c-3.323,13.38-1.124,26.101,8.689,36.452c5.56,5.864,13.507,7.752,21.029,8.067c9.626,0.404,19.654,0.182,28.928-2.116
	c13.378-3.314,21.646-13.54,26.72-26.012c8.02-19.71,4.189-38.176-6.969-55.508C79.803,10.599,67.539,5.742,54.835,9.31
	c-10.367,2.912-18.09,12.866-17.505,22.8c0.481,8.164,1.47,16.326,2.751,24.406C41.062,62.696,37.828,71.766,33.587,74.71z"/>
<path fill-rule="evenodd" clip-rule="evenodd" d="M1725.141,31.801c1.362-1.798,2.498-3.241,3.575-4.728
	c3.948-5.448,7.691-11.054,5.492-18.253c-1.479-4.838-5.186-5.771-8.823-2.386c-6.445,5.998-8.508,14.13-10.417,22.257
	c-4.217,17.949-8.322,35.925-12.471,53.878c3.544-3.975,6.832-8.067,10.544-11.729c5.581-5.504,15.269-6.048,20.298-2.416
	c4.507,3.255,3.642,13.695-0.466,17.408c-2.901,2.623-6.26,4.734-9.326,7.183c-1.517,1.211-4.264,3.202-3.995,3.921
	c1.079,2.886,2.515,6.521,4.931,7.84c5.073,2.77,10.35,0.351,15.309-1.75c0.364-0.154,0.715-0.341,2.167-1.039
	c-4.348,6.299-9.124,9.972-15.55,10.996c-4.984,0.795-9.078-0.537-11.19-5.818c-1.816-4.539-4.236-8.844-5.906-13.429
	c-0.592-1.627,0.241-3.772,0.423-5.681c1.906,0.253,4.203-0.082,5.645,0.873c3.859,2.557,6.621,2.434,10.797-1.376
	c3.011-2.746,4.153-8.057,2.067-11.291c-2.394-3.711-5.838-4.806-10.082-3.165c-8.716,3.369-12.544,11.231-16.697,18.587
	c-2.788,4.937-4.631,10.406-6.907,15.633c-2.127,4.884-2.133,4.881-8.107,4.443c1.97-6.662,4.147-13.196,5.822-19.856
	c4.44-17.664,8.422-35.447,13.062-53.057c2.99-11.347,6.808-22.472,13.96-32.081c4.122-5.538,11.941-8.304,16.777-5.822
	c4.679,2.4,6.354,5.048,5.07,11.397c-1.713,8.467-7.332,14.45-13.896,19.615C1726.969,32.175,1726.305,31.904,1725.141,31.801z"/>
<path fill-rule="evenodd" clip-rule="evenodd" d="M1568.687,311.685c2.85-9.981,5.872-19.919,8.528-29.953
	c5.114-19.321,9.559-38.835,15.231-57.987c2.46-8.305,6.134-16.769,14.327-21.558c2.259-1.32,5.265-2.179,7.835-1.987
	c5.638,0.419,8.957,3.365,8.732,8.976c-0.332,8.315-8.337,20.683-16.414,23.016c1.555-2.118,2.582-3.562,3.654-4.972
	c4.207-5.536,7.757-11.368,5.584-18.685c-1.315-4.43-5.202-5.318-8.63-2.249c-6.175,5.529-8.411,13.136-10.232,20.753
	c-4.414,18.464-8.508,37.005-12.737,55.514c3.296-3.743,6.245-7.901,10.014-11.094c2.868-2.43,6.607-4.279,10.26-5.231
	c5.469-1.427,10.938,1.122,13.005,5.005c1.569,2.947,0.23,11.422-2.815,14.382c-2.795,2.717-6.178,4.823-9.256,7.258
	c-1.551,1.227-4.484,3.195-4.244,3.781c1.225,2.979,2.657,6.753,5.178,8.14c5.431,2.987,10.85-0.09,15.965-2.014
	c-2.752,6.631-12.635,12.062-19.412,10.064c-1.938-0.572-3.984-2.416-4.981-4.227c-2.67-4.848-5.017-9.909-7.012-15.071
	c-0.603-1.562,0.364-3.729,0.611-5.62c1.905,0.339,4.615-0.004,5.577,1.133c4.441,5.25,7.424,0.237,10.379-1.464
	c3.573-2.058,4.647-8.289,2.341-11.481c-2.179-3.017-4.988-4.556-9.214-3.179c-9.466,3.084-13.202,11.339-17.559,18.896
	c-2.828,4.905-4.871,10.308-6.86,15.638C1575.059,311.438,1572.799,313.039,1568.687,311.685z"/>
<path fill-rule="evenodd" clip-rule="evenodd" d="M822.624,82.502c3.249-3.688,6.215-7.877,10.008-11.09
	c2.865-2.427,6.622-4.258,10.278-5.188c5.478-1.394,11.624,1.033,12.83,5.106c1.472,4.973,1.2,10.338-2.768,14.337
	c-2.739,2.76-6.189,4.808-9.264,7.247c-1.541,1.223-4.423,3.23-4.176,3.815c1.254,2.96,2.726,6.691,5.256,8.066
	c5.075,2.76,10.336,0.335,15.228-1.978c0.526-0.249,1.044-0.517,1.714-0.501c-4.677,5.853-9.632,11.101-18.043,10.776
	c-3.663-0.141-6.294-1.425-7.826-4.846c-2.201-4.914-4.707-9.707-6.6-14.734c-0.591-1.567,0.382-3.723,0.639-5.609
	c1.904,0.354,4.594,0.033,5.579,1.178c4.461,5.181,7.432,0.201,10.384-1.513c3.56-2.067,4.626-8.349,2.299-11.494
	c-2.201-2.976-5.007-4.538-9.245-3.143c-9.265,3.05-13.013,11.085-17.289,18.507c-2.744,4.763-4.5,10.101-6.633,15.208
	c-1.568,3.756-3.364,6.999-8.358,4.963c2.857-9.777,5.954-19.544,8.552-29.441c4.827-18.394,8.924-36.991,14.238-55.237
	c2.098-7.202,6.084-14.065,10.308-20.345c2.052-3.049,6.412-5.581,10.111-6.263c7.116-1.312,11.994,1.917,11.478,9.917
	c-0.494,7.633-8.892,19.93-16.375,21.858c2.506-3.372,4.753-6,6.549-8.906c2.78-4.498,4.706-9.314,2.713-14.721
	c-1.578-4.279-5.309-5.199-8.712-2.157c-6.048,5.406-8.306,12.914-10.121,20.293C830.802,45.201,826.818,63.937,822.624,82.502z"/>
<path fill-rule="evenodd" clip-rule="evenodd" d="M872.588,282.501c3.611-4.058,6.882-8.179,10.616-11.824
	c5.425-5.296,15.042-5.867,19.923-2.425c4.831,3.407,3.873,13.612-0.079,17.365c-2.83,2.688-6.19,4.814-9.269,7.249
	c-1.553,1.228-4.491,3.193-4.251,3.779c1.223,2.981,2.655,6.753,5.176,8.142c5.061,2.788,10.343,0.402,15.242-1.916
	c0.531-0.251,1.035-0.558,1.713-0.55c-4.799,6.212-10.135,11.739-18.864,10.578c-2.292-0.305-5.227-1.882-6.343-3.773
	c-3.052-5.178-5.468-10.763-7.721-16.354c-0.504-1.251,0.362-4.336,1.173-4.567c1.677-0.481,4.569-0.303,5.505,0.82
	c4.412,5.295,7.423,0.299,10.386-1.399c3.615-2.073,4.701-8.203,2.392-11.469c-2.152-3.043-4.944-4.585-9.183-3.23
	c-9.505,3.04-13.207,11.335-17.591,18.867c-2.847,4.893-4.85,10.316-6.856,15.643c-1.477,3.919-3.688,5.646-7.874,4.246
	c2.854-9.965,5.892-19.891,8.526-29.922c4.789-18.234,8.904-36.66,14.203-54.741c2.11-7.202,6.019-14.11,10.285-20.348
	c2.145-3.135,6.719-5.717,10.557-6.35c7.613-1.256,11.506,2.653,11.068,9.834c-0.463,7.604-8.695,19.778-16.453,22.071
	c2.572-3.479,4.783-6.092,6.567-8.969c2.783-4.489,4.716-9.294,2.778-14.696c-1.564-4.365-5.245-5.353-8.649-2.301
	c-6.168,5.528-8.392,13.182-10.235,20.753C880.838,245.463,876.801,264.022,872.588,282.501z"/>
<path fill-rule="evenodd" clip-rule="evenodd" d="M1253.328,233.383c2.153-2.46,4.192-5.032,6.484-7.354
	c3.95-4,5.077-8.955,5.46-14.3c0.264-3.679-1.255-6.587-4.738-6.745c-2.381-0.108-5.645,1.339-7.161,3.195
	c-6.409,7.846-7.784,17.818-9.987,27.265c-3.646,15.635-6.604,31.429-9.908,47.423c3.218-3.405,5.936-7.021,9.367-9.735
	c4.969-3.931,10.251-7.662,17.362-5.186c3.943,1.373,5.823,3.994,6.03,8.012c0.453,8.778-4.694,15.017-9.714,21.298
	c-1.909,2.388-3.903,4.708-6.377,7.683c8.331-0.125,16.029,1.72,22.874-3.315c-6.991,11.88-18.214,10.912-29.799,10.14
	c3.577-6.717,7.287-13.008,10.311-19.613c1.795-3.921,2.9-8.28,3.52-12.559c0.256-1.763-1.148-4.965-2.561-5.499
	c-2.279-0.862-5.648-0.923-7.75,0.195c-7.587,4.033-11.562,11.417-15.43,18.668c-2.531,4.747-4.908,9.619-6.816,14.64
	c-1.55,4.075-3.891,5.407-8.043,4.019c3.923-14.049,7.987-28.061,11.729-42.159c3.836-14.449,7.13-29.046,11.102-43.456
	c2.321-8.424,6.219-16.319,12.867-22.226c6.423-5.705,15.616-5.319,18.124,1.973c1.024,2.98,0.772,6.798-0.043,9.937
	c-2.248,8.656-9.596,13.161-15.435,18.855C1254.307,234.152,1253.817,233.768,1253.328,233.383z"/>
<path fill-rule="evenodd" clip-rule="evenodd" d="M1337.397,105.621c7.145-0.682,14.289-1.363,20.648-1.97
	c-3.834,5.06-9.67,8.671-17.778,8.454c-9.083-0.243-18.178-0.056-27.268-0.056c-0.135-0.49-0.27-0.98-0.405-1.471
	c4.272-1.512,8.443-3.478,12.835-4.451c14.872-3.295,20.52-16.396,18.251-26.279c-1.011-4.398-2.468-8.593-7.094-9.636
	c-5.531-1.247-10.533,0.317-14.433,5.036c-6.854,8.29-8.722,18.363-10.944,28.4c-4.179,18.877-7.161,38.114-16.052,55.627
	c-0.917,1.806-2.312,3.368-4.363,6.299c-0.678-2.693-1.479-4.038-1.227-5.144c6.175-27.105,11.954-54.317,18.961-81.208
	c3.045-11.684,8.376-22.82,13.264-33.944c1.54-3.504,5.017-6.157,7.912-9.56c-4.341,12.89-8.448,25.088-12.556,37.285
	c0.532,0.266,1.065,0.531,1.598,0.797c1.9-1.488,3.855-2.913,5.691-4.476c8.318-7.08,24.005-3.424,27.219,6.829
	c2.533,8.08-0.871,15.155-6.272,21.141c-2.394,2.652-5.406,4.746-8.139,7.094C1337.296,104.799,1337.346,105.21,1337.397,105.621z"
	/>
<path fill-rule="evenodd" clip-rule="evenodd" d="M1271.262,104.914c9.762,0.366,18.027-0.048,25.747-4.271
	c-6.723,11.446-20.82,13.696-32.916,10.081c4.34-7.768,8.927-15.489,12.971-23.484c1.413-2.793,2.049-6.272,1.989-9.419
	c-0.043-2.272-1.272-5.647-2.97-6.466c-1.915-0.925-5.251-0.145-7.437,0.953c-7.576,3.808-11.64,10.641-14.402,18.35
	c-1.701,4.75-3.389,9.508-4.92,14.313c-2.597,8.146-0.642,7.271-10.594,6.834c2.941-10.158,5.87-20.301,8.817-30.438
	c1.148-3.948,2.019-8.592-1.837-10.785c-3.867-2.201-8,0.73-10.22,3.949c-3.854,5.585-7.13,11.622-10.123,17.728
	c-2.136,4.357-4.057,9.021-4.908,13.756c-1.094,6.081-4.536,6.801-9.868,5.695c5.943-16.126,12.578-32.157,11.62-50.594
	c5.813,4.094,5.603,10.309,7.515,15.89c5.082-7.151,10.991-12.576,19.895-10.596c5.229,1.162,7.227,5.851,6.612,12.122
	c3.374-2.991,5.847-6.036,9.03-7.788c3.876-2.133,8.272-4.135,12.584-4.49c8.343-0.688,13.667,6.708,10.193,14.349
	c-2.728,6-7.008,11.31-10.74,16.829C1275.76,99.71,1273.848,101.738,1271.262,104.914z"/>
<path fill-rule="evenodd" clip-rule="evenodd" d="M472.585,305.687c10.112-0.799,19.544-1.544,28.333-2.238
	c-2.057,4.44-9.164,8.303-15.469,8.54c-6.815,0.257-13.647,0.059-20.673,0.059c2.536-8.61,5.202-16.94,7.432-25.385
	c4.151-15.721,7.67-31.618,12.177-47.232c3.289-11.393,6.56-23.081,14.919-32.101c2.765-2.983,6.414-5.914,10.2-7.025
	c8.401-2.464,14.214,4.167,11.529,13.497c-2.271,7.889-7.586,14.108-14.634,18.579c-0.736,0.467-1.779,0.448-1.752,0.442
	c3.096-5.174,6.463-10.681,9.677-16.275c0.613-1.068,0.785-2.469,0.885-3.737c0.289-3.651-0.162-7.89-4.31-8.135
	c-2.782-0.164-7.178,1.986-8.353,4.346c-3.438,6.9-6.242,14.264-8.169,21.736c-4.102,15.907-7.042,32.12-11.353,47.964
	C480.611,287.601,476.409,295.995,472.585,305.687z"/>
<path fill-rule="evenodd" clip-rule="evenodd" d="M386.548,33c3.314-5.517,6.759-11.175,10.098-16.895
	c0.464-0.794,0.514-1.885,0.574-2.849c0.237-3.779,0.087-8.25-4.374-8.604c-2.73-0.217-7.106,2.041-8.316,4.421
	c-3.418,6.728-6.212,13.929-8.116,21.239c-4.1,15.738-7.153,31.751-11.31,47.474c-2.023,7.653-5.546,14.911-8.423,22.335
	c-0.581,1.498-1.312,2.938-2.483,5.533c10.363-0.784,19.889-1.505,28.713-2.173c-2.343,4.625-9.203,8.262-15.517,8.505
	c-6.813,0.264-13.646,0.06-20.505,0.06c3.175-11.119,6.447-22,9.371-32.974c3.474-13.038,6.33-26.246,10.046-39.211
	c3.318-11.579,6.631-23.388,15.016-32.582c2.734-2.998,6.496-6.272,10.222-6.919c10.54-1.83,13.409,4.057,11.365,13.479
	c-1.721,7.932-7.494,14.105-14.544,18.586c-0.518,0.329-1.198,0.442-1.821,0.549C386.266,33.023,385.942,32.803,386.548,33z"/>
<path fill-rule="evenodd" clip-rule="evenodd" d="M1146.538,32.976c3.25-5.435,6.581-10.974,9.866-16.54
	c0.401-0.681,0.773-1.502,0.791-2.267c0.084-3.766,0.813-8.265-4.004-9.491c-3.92-0.998-6.805,1.384-9.144,4.781
	c-6.244,9.068-7.471,19.75-9.673,29.997c-4.278,19.907-8.316,39.833-16.637,58.566c-0.971,2.186-2.274,4.223-4.129,7.62
	c10.685-0.78,20.354-1.486,29.295-2.139c-2.455,4.69-9.217,8.238-15.535,8.483c-6.814,0.265-13.647,0.06-20.554,0.06
	c3.33-11.444,6.793-22.623,9.814-33.919c3.403-12.722,6.127-25.628,9.668-38.308c3.289-11.778,7.308-23.326,15.007-33.189
	c3.206-4.106,10.766-7.493,15.218-6.436c5.8,1.378,8.827,6.721,6.521,13.74c-2.563,7.802-7.672,14.086-14.751,18.532
	C1147.661,32.866,1146.804,32.904,1146.538,32.976z"/>
<path fill-rule="evenodd" clip-rule="evenodd" d="M1283.894,305.711c10.497-0.863,20.197-1.661,29.403-2.418
	c-3.854,5.104-9.535,8.669-17.102,8.743c-6.326,0.062-12.654,0.013-19.545,0.013c2.229-7.143,4.623-13.944,6.466-20.892
	c4.169-15.715,7.731-31.597,12.196-47.224c2.762-9.665,6.139-19.261,10.386-28.352c2.312-4.95,6.606-9.238,10.766-12.983
	c3.939-3.547,9.253-3.729,13.768-0.853c4.359,2.776,3.86,7.992,2.766,11.84c-2.357,8.292-7.907,14.635-15.244,19.265
	c-0.475,0.299-1.265,0.1-2.42,0.157c2.757-3.315,5.626-6.029,7.557-9.297c1.938-3.279,3.392-7.012,4.217-10.731
	c0.768-3.457,0.139-7.872-4.044-8.214c-2.79-0.229-7.308,1.768-8.467,4.07c-3.468,6.884-6.23,14.256-8.245,21.713
	c-5.343,19.775-9.964,39.745-15.297,59.523C1289.722,295.012,1286.787,299.52,1283.894,305.711z"/>
<path fill-rule="evenodd" clip-rule="evenodd" d="M1635.13,105.483c5.976-0.553,11.423-1.058,17.237-1.596
	c-3.43,4.286-6.765,8.596-12.925,9.152c-7.871,0.712-10.427-4.38-11.131-11.803c-5.028,3.621-9.127,6.8-13.45,9.637
	c-7.446,4.886-17.357,2.719-19.738-4.654c-1.029-3.187-0.993-7.284,0.055-10.477c4.72-14.37,13.828-24.845,28.861-28.92
	c5.691-1.543,11.657-2.116,16.786,2.293c3.438,2.955,4.295,6.661,2.992,10.733C1641.159,88.165,1638.229,96.394,1635.13,105.483z
	 M1611.763,105.978c3.257-1.216,6.811-1.948,9.715-3.736c9.188-5.659,12.742-15.08,14.593-24.945
	c1.29-6.872-1.227-8.966-8.318-8.197c-13.907,1.508-24.513,13.451-25.432,26.663C1601.736,104.186,1602.914,105.05,1611.763,105.978
	z"/>
<path fill-rule="evenodd" clip-rule="evenodd" d="M1467.157,105.429c5.89-0.516,11.308-0.989,16.988-1.486
	c-3.067,4.366-6.547,8.445-12.567,9.076c-7.85,0.823-10.541-4.189-11.148-11.829c-5.065,3.629-9.165,6.762-13.46,9.6
	c-7.476,4.938-17.293,2.897-19.761-4.467c-1.066-3.18-1.169-7.31-0.106-10.47c4.799-14.271,13.694-24.992,28.843-28.889
	c3.941-1.014,8.509-0.889,12.521-0.031c6.213,1.328,9.227,6.858,7.395,12.786C1473.28,88.065,1470.278,96.28,1467.157,105.429z
	 M1443.677,106.031c3.554-1.335,7.601-1.987,10.565-4.135c8.375-6.065,12.377-15.082,13.858-24.975
	c0.991-6.615-1.024-8.324-7.739-7.827c-14.013,1.037-25.047,13.15-26.038,26.556
	C1433.697,104.132,1434.917,105.049,1443.677,106.031z"/>
<path fill-rule="evenodd" clip-rule="evenodd" d="M1191.147,105.508c6.054-0.556,11.354-1.042,16.387-1.504
	c-1.146,3.517-6.668,8.471-10.865,8.997c-8.122,1.019-12.03-3.261-12.105-12.087c-4.422,3.303-7.69,5.458-10.623,8.001
	c-4.463,3.869-9.652,4.76-15.187,4.06c-6.704-0.849-10.85-8.846-8.103-16.689c5.146-14.689,14.553-25.557,30.028-29.85
	c3.396-0.941,7.358-0.739,10.888-0.105c6.717,1.205,10.149,7.139,8.112,13.749C1197.154,88.277,1194.24,96.354,1191.147,105.508z
	 M1167.538,105.957c3.282-1.163,6.878-1.812,9.789-3.584c9.216-5.608,12.808-15.033,14.742-24.877c1.378-7.013-1.018-9.07-8.116-8.4
	c-13.932,1.313-24.904,13.577-25.646,26.962C1157.855,104.206,1158.97,105.049,1167.538,105.957z"/>
<path fill-rule="evenodd" clip-rule="evenodd" d="M1378.31,303.967c-3.375,4.209-6.716,8.522-12.887,9.074
	c-7.872,0.703-10.405-4.407-11.13-11.796c-5.024,3.621-9.121,6.805-13.446,9.64c-7.445,4.881-17.367,2.696-19.735-4.681
	c-1.023-3.188-0.972-7.282,0.078-10.478c4.723-14.368,13.832-24.846,28.864-28.913c5.687-1.538,11.661-2.115,16.785,2.313
	c3.429,2.965,4.277,6.666,2.972,10.738c-2.621,8.182-5.507,16.278-8.654,25.496C1367.034,304.884,1372.527,304.438,1378.31,303.967z
	 M1337.478,305.952c3.289-1.149,6.897-1.775,9.81-3.545c9.214-5.602,12.823-15.02,14.782-24.858
	c1.396-7.014-0.996-9.099-8.065-8.453c-13.936,1.271-24.92,13.52-25.695,26.91C1327.834,304.201,1328.954,305.048,1337.478,305.952z
	"/>
<path fill-rule="evenodd" clip-rule="evenodd" d="M1510.138,301.134c-4.235,3.222-7.457,5.469-10.445,7.992
	c-4.505,3.807-9.78,4.575-15.26,3.81c-6.455-0.903-10.484-8.859-7.837-16.487c5.1-14.688,14.41-25.763,29.929-29.919
	c5.067-1.356,10.866-1.758,15.652,1.964c3.787,2.946,5.113,6.873,3.618,11.449c-2.666,8.163-5.514,16.267-8.64,25.433
	c5.917-0.485,11.429-0.938,17.291-1.419c-3.86,4.338-7.226,9.029-14.097,9.147C1512.737,313.234,1511.215,307.791,1510.138,301.134z
	 M1493.692,306.031c3.553-1.336,7.596-1.993,10.565-4.137c8.396-6.059,12.354-15.101,13.842-24.986
	c0.995-6.604-1.032-8.315-7.751-7.813c-14.006,1.046-25.043,13.162-26.024,26.569
	C1483.703,304.137,1484.917,305.049,1493.692,306.031z"/>
<path fill-rule="evenodd" clip-rule="evenodd" d="M1666.278,301.068c-4.313,3.26-7.554,5.477-10.525,8.01
	c-4.495,3.833-9.755,4.616-15.243,3.866c-6.649-0.909-10.511-8.987-7.714-16.854c5.083-14.297,13.958-25.222,29.257-29.28
	c5.697-1.512,11.663-2.111,16.786,2.317c3.43,2.965,4.277,6.666,2.973,10.738c-2.621,8.182-5.507,16.277-8.655,25.496
	c5.882-0.478,11.378-0.925,17.155-1.395c-3.376,4.209-6.716,8.521-12.887,9.074C1669.553,313.746,1667.018,308.635,1666.278,301.068
	z M1649.766,305.978c3.257-1.216,6.811-1.95,9.714-3.738c9.189-5.659,12.739-15.082,14.591-24.947
	c1.289-6.865-0.914-8.744-7.825-8.197c-13.966,1.106-25.001,13.238-25.926,26.671
	C1639.741,304.184,1640.917,305.051,1649.766,305.978z"/>
<path fill-rule="evenodd" clip-rule="evenodd" d="M1737.15,305.495c6.016-0.543,11.318-1.021,16.355-1.476
	c-1.024,3.39-6.612,8.38-10.797,8.993c-8.321,1.218-11.633-3.755-12.52-11.753c-3.885,2.844-7.097,4.814-9.848,7.296
	c-4.382,3.954-9.457,5.018-15.055,4.473c-7.019-0.685-11.482-8.621-8.651-16.709c5.137-14.675,14.518-25.602,30.012-29.857
	c3.532-0.971,7.691-0.718,11.342,0.036c6.532,1.351,9.699,7.113,7.711,13.551C1743.168,288.246,1740.252,296.324,1737.15,305.495z
	 M1713.52,305.955c3.284-1.158,6.883-1.8,9.795-3.571c9.215-5.606,12.812-15.03,14.753-24.871c1.388-7.032-0.992-9.081-8.1-8.417
	c-13.935,1.302-24.908,13.56-25.661,26.946C1703.849,304.193,1704.976,305.048,1713.52,305.955z"/>
<path fill-rule="evenodd" clip-rule="evenodd" d="M1791.136,105.512c6.095-0.573,11.527-1.085,17.29-1.627
	c-3.815,4.51-7.286,9.161-14.142,9.199c-7.441,0.042-9.429-5.008-9.68-12.099c-5.317,3.827-9.452,6.688-13.46,9.715
	c-6.71,5.07-17.946,2.851-20.096-4.609c-1.061-3.681-0.984-8.429,0.431-11.95c5.353-13.32,14.109-23.702,28.685-27.412
	c5.528-1.407,11.39-1.984,16.414,2.156c3.621,2.985,4.589,6.793,3.184,11.111C1797.108,88.161,1794.275,96.265,1791.136,105.512z
	 M1767.469,106.031c3.399-1.274,7.112-2.042,10.138-3.919c9.164-5.682,12.708-15.102,14.466-24.996
	c1.21-6.81-1.019-8.635-8.006-8.021c-13.94,1.225-24.943,13.456-25.756,26.85C1757.813,104.163,1758.965,105.047,1767.469,106.031z"
	/>
<path fill-rule="evenodd" clip-rule="evenodd" d="M1077.109,305.495c6.016-0.562,11.464-1.07,17.275-1.613
	c-3.451,4.295-6.794,8.612-12.972,9.161c-7.871,0.699-10.393-4.423-11.129-11.787c-5.021,3.618-9.118,6.803-13.445,9.637
	c-7.448,4.878-17.371,2.686-19.733-4.695c-1.021-3.188-0.959-7.282,0.091-10.478c4.722-14.372,13.841-24.843,28.868-28.909
	c5.682-1.538,11.663-2.116,16.783,2.325c3.424,2.97,4.268,6.668,2.961,10.741C1083.184,288.056,1080.299,296.153,1077.109,305.495z
	 M1053.682,305.971c3.268-1.198,6.843-1.898,9.746-3.688c9.151-5.642,12.845-14.958,14.655-24.855
	c1.272-6.957-1.144-9.05-8.215-8.329c-13.931,1.421-24.576,13.361-25.545,26.579C1043.704,304.147,1044.915,305.05,1053.682,305.971
	z"/>
<path fill-rule="evenodd" clip-rule="evenodd" d="M1848.363,101.367c-4.608,3.116-8.624,5.154-11.759,8.122
	c-3.999,3.785-8.608,3.852-13.352,3.492c-7.018-0.531-11.426-8.607-8.6-16.693c5.135-14.69,14.546-25.562,30.025-29.85
	c3.396-0.94,7.357-0.741,10.887-0.108c6.716,1.204,10.151,7.142,8.115,13.749c-2.525,8.196-5.439,16.273-8.495,25.315
	c5.818-0.486,11.218-0.938,16.923-1.414c-2.669,4.184-6.16,7.987-11.45,8.943C1852.468,114.403,1848.892,109.437,1848.363,101.367z
	 M1831.463,105.95c3.292-1.146,6.905-1.763,9.814-3.536c9.198-5.607,12.825-15.016,14.792-24.853c1.4-7.002-1.001-9.104-8.053-8.466
	c-13.937,1.262-24.925,13.508-25.708,26.897C1821.83,104.195,1822.955,105.048,1831.463,105.95z"/>
<path fill-rule="evenodd" clip-rule="evenodd" d="M1023.106,105.505c6.062-0.571,11.51-1.085,16.694-1.573
	c-3.024,5.974-9.275,9.843-14.94,9.113c-6.459-0.831-8.126-5.188-7.686-12.29c-4.387,3.146-7.578,5.862-11.162,7.882
	c-3.299,1.859-6.951,3.979-10.566,4.222c-10.588,0.709-16.118-6.679-12.616-16.799c4.974-14.37,13.991-25.212,29.265-29.267
	c5.67-1.506,11.674-2.134,16.784,2.367c3.4,2.996,4.228,6.68,2.915,10.755C1029.161,88.092,1026.286,96.19,1023.106,105.505z
	 M999.388,106.019c3.412-1.257,7.139-2,10.176-3.867c9.173-5.639,12.799-14.989,14.521-24.91c1.198-6.901-0.93-8.72-7.905-8.146
	c-13.946,1.146-24.986,13.308-25.864,26.767C989.778,104.109,990.983,105.047,999.388,106.019z"/>
<path fill-rule="evenodd" clip-rule="evenodd" d="M1013.116,305.488c5.996-0.557,11.446-1.063,16.62-1.544
	c-2.708,5.787-9.124,9.868-14.806,9.089c-5.554-0.762-6.8-2.399-8.382-11.85c-3.726,2.676-6.896,5.421-10.489,7.4
	c-3.45,1.901-7.27,4.02-11.045,4.27c-9.958,0.66-15.635-6.654-12.423-16.297c4.982-14.956,14.573-26.091,30.325-30.106
	c5.139-1.31,11.131-1.757,15.93,2.646c3.336,3.062,4.273,6.684,2.97,10.756C1019.198,288.037,1016.309,296.135,1013.116,305.488z
	 M989.56,306.043c3.393-1.295,7.103-2.084,10.118-3.979c9.095-5.712,12.771-15.018,14.409-24.97c1.125-6.837-1.042-8.63-8.057-8.001
	c-13.937,1.249-24.95,13.515-25.722,26.916C979.836,304.198,980.959,305.048,989.56,306.043z"/>
<path fill-rule="evenodd" clip-rule="evenodd" d="M595.148,105.501c6.035-0.55,11.337-1.031,16.372-1.49
	c-1.525,4.851-8.162,9.436-13.828,9.034c-6.068-0.43-7.758-2.465-8.979-11.817c-3.76,2.627-6.931,5.253-10.476,7.201
	c-3.458,1.901-7.225,4.157-10.984,4.418c-10.252,0.713-15.962-6.726-12.595-16.538c5.048-14.712,14.518-25.597,30.007-29.853
	c3.529-0.97,7.69-0.707,11.339,0.054c6.54,1.363,9.681,7.101,7.687,13.555C601.158,88.261,598.246,96.339,595.148,105.501z
	 M571.75,106c3.56-1.331,7.616-1.976,10.584-4.125c8.374-6.064,12.378-15.057,13.776-24.981c0.933-6.624-1.044-8.31-7.791-7.799
	c-13.996,1.06-25.055,13.209-25.999,26.628C561.727,104.174,562.912,105.05,571.75,106z"/>
<path fill-rule="evenodd" clip-rule="evenodd" d="M713.157,305.447c5.911-0.528,11.338-1.014,16.486-1.474
	c-2.245,5.475-8.914,9.798-14.609,9.065c-5.625-0.723-6.949-2.451-8.415-11.868c-3.742,2.669-6.916,5.385-10.499,7.361
	c-3.451,1.903-7.254,4.064-11.023,4.319c-10.007,0.678-15.715-6.551-12.521-16.212c4.942-14.95,14.522-25.996,30.245-30.206
	c3.613-0.968,7.934-0.396,11.684,0.497c6.199,1.475,9.183,6.874,7.339,12.832C719.26,288.105,716.266,296.321,713.157,305.447z
	 M689.82,305.985c3.251-1.23,6.801-1.982,9.7-3.781c9.138-5.67,12.812-14.983,14.565-24.897c1.219-6.896-1.246-8.977-8.339-8.207
	c-13.904,1.509-24.528,13.476-25.427,26.699C679.749,304.199,680.917,305.051,689.82,305.985z"/>
<path fill-rule="evenodd" clip-rule="evenodd" d="M1415.35,305.697c7.208-0.839,14.415-1.677,21.201-2.467
	c-3.269,7.655-13.931,10.852-29.975,8.305c4.436-7.894,9.084-15.678,13.188-23.74c1.494-2.938,2.201-6.511,2.366-9.839
	c0.308-6.223-3.799-8.433-9.735-5.997c-8.506,3.49-12.274,10.992-15.806,18.528c-2.89,6.165-4.618,12.896-7.744,18.918
	c-1.014,1.952-4.822,2.452-7.762,3.044c6.099-16.374,10.651-32.528,10.22-50.023c5.135,3.851,6.682,7.676,7.101,16.967
	c3.484-3.146,6.565-6.653,10.335-9.104c3.158-2.054,7.047-3.772,10.738-4.067c10.559-0.845,14.92,6.27,9.69,16.397
	c-3.407,6.601-8.341,12.412-12.571,18.591c-0.707,1.031-1.312,2.133-1.965,3.201C1414.872,304.839,1415.111,305.268,1415.35,305.697
	z"/>
<path fill-rule="evenodd" clip-rule="evenodd" d="M117.289,62.062c6.461,4.685,6.968,10.948,7.079,17.499
	c3.562-3.258,6.638-6.613,10.261-9.206c2.706-1.938,6.071-3.887,9.223-4.025c3.826-0.169,8.83,0.386,11.358,2.739
	c3.97,3.696,2.446,9.414-0.039,13.691c-3.674,6.323-8.195,12.154-12.34,18.206c-0.789,1.152-1.506,2.354-3.084,4.834
	c8.706-0.947,16.046-1.746,23.214-2.525c-7.32,11.286-19.188,8.616-31.15,8.655c2.66-4.091,5.303-7.533,7.277-11.325
	c3.808-7.316,9.292-14.021,9.15-22.923c-0.092-5.77-3.754-8.072-9.202-5.977c-9.12,3.508-13.095,11.425-16.709,19.541
	c-2.446,5.493-4.367,11.217-6.606,16.804c-1.669,4.165-1.729,4.142-9.021,3.833C113.139,96.07,117.876,79.963,117.289,62.062z"/>
<path fill-rule="evenodd" clip-rule="evenodd" d="M281.013,303.222c-7.396,11.366-19.285,8.572-30.634,8.789
	c4.587-8.216,9.226-15.985,13.277-24.05c1.552-3.09,2.277-6.826,2.468-10.317c0.312-5.72-3.649-7.983-9.113-5.932
	c-9.006,3.382-12.892,11.234-16.583,19.078c-2.553,5.425-4.582,11.138-6.363,16.872c-1.553,5.002-5.081,4.7-8.758,4.265
	c2.333-7.98,5.083-15.892,6.896-24.013c1.838-8.228,2.75-16.663,4.087-25.135c5.422,3.979,5.968,10.222,6.076,16.767
	c3.546-3.237,6.725-6.422,10.2-9.242c4.25-3.449,9.292-4.821,14.738-4.223c7.575,0.833,10.449,7.575,5.954,16.268
	c-3.415,6.605-8.275,12.463-12.476,18.665c-0.78,1.15-1.483,2.354-3.019,4.805C266.344,304.861,273.562,304.054,281.013,303.222z"/>
<path fill-rule="evenodd" clip-rule="evenodd" d="M1585.409,101.937c-7.47,14.122-21.804,9.475-34.595,10.08
	c3.481-13.016,6.912-25.843,10.509-39.291c-2.188-0.394-3.877-0.696-6.968-1.251c1.552-1.791,2.812-4.311,3.805-4.21
	c4.831,0.493,5.017-2.838,6.146-5.991c2.79-7.799,5.702-15.575,9.076-23.133c1.012-2.267,3.705-3.783,5.628-5.643
	c0.384,0.344,0.769,0.688,1.152,1.031c-2.827,10.915-5.654,21.83-8.772,33.869c6.959,0.355,12.796,0.653,18.67,0.954
	c0.307,3.585-1.191,4.975-4.605,4.725c-4.892-0.356-9.798-0.514-14.116-0.728c-4.248,10.938-8.404,21.637-13.128,33.797
	C1567.958,104.638,1577.103,103.222,1585.409,101.937z"/>
<path fill-rule="evenodd" clip-rule="evenodd" d="M676.578,33.136c-3.056,11.223-6.03,22.147-9.32,34.234
	c7.08,0.374,12.921,0.683,18.802,0.993c0.302,3.543-1.167,4.963-4.592,4.714c-4.894-0.356-9.802-0.515-14.13-0.729
	c-4.246,10.933-8.402,21.635-13.126,33.798c9.746-1.509,18.893-2.923,27.189-4.207c-7.286,13.943-21.453,9.551-34.48,10.117
	c3.46-13.041,6.867-25.883,10.426-39.296c-2.243-0.426-3.933-0.746-7.013-1.331c1.579-1.773,2.868-4.272,3.869-4.163
	c4.515,0.497,4.956-2.537,6.054-5.547c2.835-7.782,5.749-15.544,8.97-23.171C670.477,35.583,672.406,32.678,676.578,33.136z"/>
<path fill-rule="evenodd" clip-rule="evenodd" d="M959.713,68.266c1.822,0,3.432,0,4.986,0c3.246,13.123-0.657,24.9-6.275,36.785
	c6.559-0.516,13.192,2.265,18.07-4.17c-2.197,6.673-6.218,10.936-13.045,12.166c-7.895,1.423-9.111-5.171-11.892-10.231
	c-2.969,2.417-5.696,4.718-8.509,6.91c-4.147,3.232-8.771,4.531-13.715,2.229c-4.382-2.04-6.625-6.124-6.909-10.624
	c-0.241-3.802,0.402-7.881,1.628-11.508c2.89-8.549,8.357-16.633,1.84-27.163c8.064,5.183,10.322,12.019,8.091,20.934
	c-0.908,3.626-2.308,7.184-2.726,10.858c-0.359,3.161-0.693,8.442,0.828,9.244c2.866,1.511,7.425,1.449,10.661,0.299
	c8.414-2.991,12.308-10.331,14.356-18.438C958.495,80.056,958.844,74.292,959.713,68.266z"/>
<path fill-rule="evenodd" clip-rule="evenodd" d="M727.476,68.262c1.869,0,3.479,0,5.215,0c3.292,12.913-0.467,24.688-6.298,36.635
	c6.552-0.136,12.949,2.111,17.891-4.434c-0.718,6.05-6.036,11.294-12.062,12.53c-5.693,1.168-7.559-0.286-12.662-10.109
	c-2.805,2.251-5.543,4.469-8.304,6.658c-4.273,3.39-9.128,4.951-14.102,2.308c-4.422-2.351-6.701-6.709-6.831-11.738
	c-0.079-3.065,0.011-6.404,1.121-9.182c3.537-8.854,8.651-17.338,2.849-28.331c7.92,5.896,9.881,12.25,7.602,21.196
	c-0.962,3.776-2.143,7.537-2.629,11.381c-0.362,2.857-0.585,7.912,0.562,8.365c3.176,1.255,7.517,1.711,10.654,0.522
	c10.522-3.987,13.878-13.409,15.704-23.479C726.887,76.72,727.025,72.753,727.476,68.262z"/>
<path fill-rule="evenodd" clip-rule="evenodd" d="M1197.492,268.241c1.895,0,3.503,0,5.188,0c3.427,13.002-0.621,24.737-6.2,36.669
	c6.489-0.134,12.909,2.066,17.902-4.501c-1.046,6.548-6.532,11.706-12.721,12.618c-5.604,0.825-6.923-0.257-12.118-10.146
	c-2.81,2.265-5.55,4.513-8.334,6.705c-4.284,3.374-9.129,4.837-14.125,2.255c-4.534-2.343-7.016-6.771-6.689-11.774
	c0.312-4.785,1.146-9.823,3.088-14.15c3.273-7.298,5.303-14.34,1.164-22.446c7.17,3.807,9.589,11.266,7.208,20.376
	c-0.944,3.613-2.317,7.171-2.757,10.842c-0.362,3.028-0.614,8.169,0.813,8.874c2.957,1.462,7.484,1.691,10.621,0.486
	c10.49-4.028,13.86-13.434,15.657-23.52C1196.877,276.665,1197.036,272.706,1197.492,268.241z"/>
<path fill-rule="evenodd" clip-rule="evenodd" d="M512.231,262.831c7.76,5.091,9.965,11.86,7.749,20.79
	c-0.978,3.939-2.282,7.843-2.776,11.844c-0.349,2.825-0.444,7.714,0.86,8.298c2.952,1.32,7.139,1.47,10.291,0.45
	c8.802-2.849,12.621-10.413,14.746-18.663c1.414-5.491,1.743-11.262,2.601-17.207c1.604,0,3.328,0,5.021,0
	c3.241,13.057-0.71,24.828-6.246,36.618c6.562-0.162,13.053,1.897,18.064-3.902c-2.263,6.482-6.26,10.784-13.103,11.986
	c-7.849,1.38-9.19-5.072-11.797-10.3c-3.061,2.494-5.785,4.802-8.603,6.989c-4.149,3.222-9.229,5.11-13.566,2.023
	c-3.24-2.306-5.896-6.612-6.906-10.52c-0.897-3.472,0.242-7.826,1.509-11.431C513.076,281.263,518.149,273.128,512.231,262.831z"/>
<path fill-rule="evenodd" clip-rule="evenodd" d="M445.499,268.242c1.988,0,3.598,0,5.192,0c3.207,13.085-0.512,24.886-6.293,36.707
	c6.624-0.158,13.101,1.944,18.251-4.747c-1.814,7.24-7.033,11.854-13.129,12.874c-7.938,1.327-9.16-5.144-11.954-10.271
	c-2.938,2.392-5.644,4.715-8.475,6.873c-4.136,3.151-8.752,4.688-13.689,2.271c-4.445-2.177-6.709-6.439-6.979-11.065
	c-0.221-3.777,0.445-7.912,1.863-11.426c5.204-12.892,5.384-12.819,3.148-25.751c6.575,4.059,8.752,11.088,6.359,20.291
	c-0.939,3.613-2.096,7.224-2.496,10.907c-0.328,3.01-0.445,8.39,0.681,8.771c3.411,1.155,7.923,1.502,11.195,0.171
	c10.221-4.159,13.267-13.584,15.02-23.459C444.876,276.53,445.048,272.583,445.499,268.242z"/>
<path fill-rule="evenodd" clip-rule="evenodd" d="M419.433,102.878c-2.989,2.445-5.581,4.708-8.32,6.775
	c-4.131,3.119-8.737,4.751-13.679,2.297c-4.606-2.287-6.867-6.681-7.03-11.53c-0.127-3.798,0.551-7.901,1.974-11.422
	c5.144-12.721,5.319-12.649,3.049-25.262c6.523,3.923,8.748,11.079,6.384,20.234c-0.975,3.773-2.114,7.552-2.562,11.399
	c-0.33,2.843-0.422,7.899,0.708,8.309c3.236,1.174,7.546,1.536,10.721,0.335c10.592-4.009,13.687-13.565,15.512-23.598
	c0.702-3.854,0.856-7.808,1.293-12.035c1.749,0,3.473,0,5.235,0c3.266,12.935-0.641,24.703-6.299,36.65
	c6.538-0.525,13.144,2.293,18.328-5.445c-1.81,7.756-7.063,12.611-13.203,13.447C426.079,113.778,425.035,112.917,419.433,102.878z"
	/>
<path fill-rule="evenodd" clip-rule="evenodd" d="M326.283,105.071c6.685-0.5,13.207,2.028,17.999-4.64
	c-0.71,6.085-6.062,11.293-12.082,12.576c-8.109,1.73-9.855-4.553-12.545-10.212c-2.921,2.353-5.606,4.681-8.463,6.775
	c-3.797,2.782-7.795,4.688-12.708,2.582c-5.464-2.342-8.034-6.704-8.113-12.267c-0.05-3.49,0.7-7.163,1.891-10.466
	c3.03-8.396,7.733-16.475,2.02-26.531c7.7,4.998,9.917,11.806,7.689,20.747c-0.942,3.786-2.233,7.535-2.677,11.381
	c-0.344,2.993-0.48,8.23,0.8,8.75c3.143,1.273,7.483,1.341,10.757,0.206c8.518-2.954,12.22-10.424,14.262-18.522
	c1.387-5.502,1.742-11.265,2.593-17.153c1.57,0,3.178,0,4.993,0C335.937,81.112,332.28,92.913,326.283,105.071z"/>
<path fill-rule="evenodd" clip-rule="evenodd" d="M799.469,82.386c-0.782,19.039-18.528,35.896-40.688,29.42
	c-6.381-1.865-10.052-8.127-8.421-15.272c3.284-14.385,10.737-25.738,25.794-29.772c9.767-2.617,19.377-0.199,22.512,9.295
	C799.322,78.038,799.221,80.27,799.469,82.386z M773.551,106.046c1.663,0,3.518,0.477,4.952-0.096
	c3.344-1.334,7.999-2.347,9.429-4.962c4.488-8.209,5.188-17.116,0.336-25.746c-3.083-5.483-7.744-7.374-13.598-5.135
	c-7.633,2.919-12.482,8.579-15.146,16.268C755.908,96.815,759.1,107.591,773.551,106.046z"/>
<path fill-rule="evenodd" clip-rule="evenodd" d="M1398.07,66.073c11.659-0.796,19.975,7.438,16.426,21.571
	c-3.372,13.43-11.05,22.261-24.53,24.827c-5.196,0.989-11.153-0.022-16.35-1.541c-6.26-1.829-9.361-8.717-7.199-15.817
	c4.058-13.328,11-24.462,25.647-28.431c0.624-0.17,1.222-0.546,1.846-0.582C1395.405,66.013,1396.907,66.073,1398.07,66.073z
	 M1390.27,106.048c5.08,0.104,11.196,0.421,14.195-5.862c3.997-8.376,4.321-17-0.314-25.343c-2.097-3.774-7.425-6.655-12.953-5.058
	c-8.977,2.593-17.614,15.096-16.993,25.084c0.438,7.036,4.259,10.973,11.374,11.174
	C1386.906,106.081,1388.234,106.048,1390.27,106.048z"/>
<path fill-rule="evenodd" clip-rule="evenodd" d="M817.422,282.006c-0.354,18.555-17.668,36.148-40.279,29.939
	c-6.444-1.77-10.065-7.657-8.833-15.036c2.214-13.26,11.766-26.686,26.315-30.603c9.571-2.577,19.911,1.962,22.125,9.829
	C817.278,278.007,817.214,280.044,817.422,282.006z M791.822,306.045c5.32,0.103,11.355,0.503,14.152-4.779
	c4.472-8.446,5.139-17.519,0.222-26.282c-2.897-5.163-7.648-6.826-13.316-4.939c-9.304,3.096-16.692,13.663-16.639,23.798
	c0.042,7.85,4.276,12.127,12.089,12.205C789.494,306.059,790.659,306.049,791.822,306.045z"/>
<path fill-rule="evenodd" clip-rule="evenodd" d="M397.413,282.044c-0.376,18.548-17.672,36.111-40.267,29.898
	c-7.612-2.093-10.335-8.35-7.978-17.793c3.419-13.691,11.275-23.726,25.134-27.453c9.617-2.587,19.274-0.194,22.463,9.478
	C397.369,278.003,397.216,280.082,397.413,282.044z M371.648,306.047c6.339,0.031,12.88,0.343,15.626-7.219
	c2.902-7.992,3.353-15.965-1.024-23.665c-2.286-4.022-5.831-6.856-10.411-5.973c-13.352,2.578-21.579,17.198-19.253,28.415
	C357.675,302.865,361.111,306.818,371.648,306.047z"/>
<path fill-rule="evenodd" clip-rule="evenodd" d="M279.421,82.007c-0.342,18.469-17.575,36.142-40.242,29.948
	c-7.895-2.157-10.908-8.803-7.818-19.233c3.781-12.764,11.493-22.583,24.905-26.033c9.614-2.474,19.323-0.181,22.479,9.456
	C279.345,77.976,279.214,80.046,279.421,82.007z M253.695,106.049c6.344,0.032,12.852,0.268,15.591-7.266
	c2.908-7.997,3.306-15.973-1.05-23.664c-2.283-4.031-5.787-6.501-10.461-5.98c-11.318,1.259-22.34,17.645-19.241,28.521
	C240.008,102.831,243.105,106.82,253.695,106.049z"/>
<path fill-rule="evenodd" clip-rule="evenodd" d="M965.069,300.193c-5.84,7.473-11.993,13.3-22.291,11.948
	c-4.252-0.558-8.667,0.208-12.956-0.186c-3.858-0.354-7.964-1.052-9.406-5.623c-1.225-3.877,1.026-9.797,4.586-12.214
	c2.951-2.004,5.997-3.867,9.061-5.831c-0.027-0.16,0.031-0.614-0.153-0.761c-3.152-2.491-7.081-4.24-5.08-9.769
	c2.878-7.952,6.245-11.81,12.039-11.652c6.713,0.183,13.415,0.793,20.133,1.219c-0.995,7.04-5.04,9.461-10.903,6.68
	c-2.365-1.121-4.789-2.183-6.978-3.596c-3.673-2.371-6.33-0.09-8.498,2.081c-2.642,2.646-1.837,6.129,1.805,7.479
	c4.525,1.68,9.338,2.587,14.244,3.886c0.617,3.97-0.356,5.243-5.075,5.157c-6.878-0.126-12.335,2.259-16.063,8.205
	c-2.661,4.244-1.235,7.26,3.747,7.824C945.12,306.383,954.802,304.94,965.069,300.193z"/>
<path fill-rule="evenodd" clip-rule="evenodd" d="M220.574,69.81c-1.765,6.649-3.583,13.354-5.321,20.078
	c-4.677,18.096-9.118,36.256-14.091,54.27c-1.588,5.752-4.413,11.188-6.94,16.644c-1.245,2.687-3.027,5.233-6.927,3.774
	c2.389-7.387,5.087-14.521,6.999-21.861c5.819-22.344,11.415-44.746,16.902-67.173C212.347,70.828,213.679,67.256,220.574,69.81z"/>
<path fill-rule="evenodd" clip-rule="evenodd" d="M338.578,269.814c-1.771,6.688-3.586,13.407-5.328,20.146
	c-4.677,18.096-9.121,36.256-14.097,54.27c-1.589,5.752-4.432,11.179-6.933,16.648c-1.611,3.524-3.189,4.145-6.861,3.516
	c2.346-7.244,5.055-14.39,6.967-21.742c5.812-22.346,11.4-44.75,16.873-67.182C330.362,270.705,331.807,267.278,338.578,269.814z"/>
<path fill-rule="evenodd" clip-rule="evenodd" d="M1150.583,269.682c-1.447,5.433-2.929,10.853-4.334,16.292
	c-4.999,19.355-9.783,38.771-15.072,58.046c-1.578,5.753-4.433,11.175-6.916,16.651c-1.236,2.726-2.979,5.194-7.141,3.953
	c2.141-6.461,4.548-12.633,6.228-18.996c5.77-21.85,11.288-43.766,16.886-65.659c0.444-1.736,0.887-3.488,1.115-5.26
	C1142.034,269.391,1144.958,267.879,1150.583,269.682z"/>
<path fill-rule="evenodd" clip-rule="evenodd" d="M914.536,102.052c-10.894,14.776-27.242,8.714-42.2,10.091
	c1.12-5.16,3.143-7.798,8.488-7.233c3.492,0.369,7.553,0.3,10.608-1.152c6.641-3.156,7.449-9.546,2.062-14.774
	c-2.718-2.638-6.378-4.304-9.611-6.409c0.554-0.83,1.107-1.661,1.661-2.491c-1.58,1.967-2.998,4.099-4.785,5.856
	c-1.828,1.798-4.018,3.229-6.812,4.251c5.577-7.687,10.961-15.525,16.87-22.946c1.415-1.777,4.51-2.452,6.974-3.041
	c0.921-0.22,2.837,1.037,3.201,2.024c0.287,0.781-0.825,2.623-1.795,3.234c-6.016,3.793-6.424,5.165-2.56,10.441
	c7.635,10.426,7.521,14.255-0.449,25.911C902.339,104.552,908.49,103.292,914.536,102.052z"/>
<path fill-rule="evenodd" clip-rule="evenodd" d="M518.137,80.852c-3.215,3.887-6.43,7.774-9.644,11.662
	c-0.802-0.729-1.604-1.457-2.405-2.186c4.289-6.166,8.359-12.502,12.961-18.425c2.217-2.855,5.208-5.309,8.309-7.183
	c1.259-0.761,4.689-0.149,5.47,0.983c1.632,2.369-0.725,3.446-2.775,4.43c-4.727,2.268-5.042,3.733-2.021,8.265
	c1.532,2.299,3.591,4.325,4.732,6.79c3.502,7.557-0.006,13.518-5.234,19.393c7.051,1.547,13.173-0.54,20.175-4.186
	c-12.034,16.446-28.444,10.279-43.273,11.834c0.766-5.516,3.183-8.013,8.61-7.256c2.765,0.386,5.756,0.482,8.441-0.151
	c7.426-1.756,9.854-9.912,4.38-15.435c-2.769-2.792-6.7-4.432-10.105-6.592C516.549,82.148,517.343,81.5,518.137,80.852z"/>
<path fill-rule="evenodd" clip-rule="evenodd" d="M494.521,102.037c-10.804,14.772-27.155,8.642-42.156,10.22
	c1.029-4.836,2.509-8.082,8.002-7.273c2.604,0.384,5.371,0.403,7.962-0.026c3.866-0.641,7.523-2.688,8.013-6.715
	c0.342-2.812-0.8-6.292-2.403-8.734c-2.22-3.38-5.496-6.066-8.385-9.117c-3.034,3.771-6.224,7.734-9.413,11.697
	c-0.687-0.642-1.373-1.284-2.061-1.927c5.229-7.375,10.284-14.884,15.801-22.037c1.469-1.904,4.224-3.141,6.634-3.862
	c1.271-0.381,3.073,1.009,4.635,1.599c-0.821,1.362-1.314,3.278-2.52,3.992c-5.338,3.159-6.214,4.701-2.261,9.236
	c8.676,9.954,6.886,15.636-0.138,26.766C482.394,104.568,488.558,103.281,494.521,102.037z"/>
<path fill-rule="evenodd" clip-rule="evenodd" d="M594.283,305.924c6.228-1.334,12.454-2.668,18.241-3.908
	c-10.854,14.811-27.24,8.693-42.185,10.192c1.062-5.059,2.968-7.995,8.316-7.231c2.769,0.395,5.725,0.457,8.457-0.062
	c7.66-1.451,10.306-9.917,4.683-15.624c-2.759-2.8-6.576-4.558-9.914-6.788c0.675-0.718,1.351-1.436,2.025-2.153
	c-3.163,4.019-6.325,8.038-9.487,12.058c-0.807-0.735-1.613-1.472-2.42-2.207c5.438-7.578,10.661-15.325,16.457-22.617
	c1.515-1.905,4.738-2.661,7.334-3.38c0.882-0.245,2.244,1.245,3.388,1.943c-0.774,1.225-1.262,2.935-2.372,3.593
	c-5.558,3.295-6.55,5.455-2.066,10.018c8.432,8.58,5.961,16.732-0.853,24.562C594.019,304.854,594.151,305.389,594.283,305.924z"/>
<path fill-rule="evenodd" clip-rule="evenodd" d="M622.396,312.213c0.913-6.299,4.143-7.708,9.205-7.267
	c4.169,0.363,8.454,0.804,12.151-2.615c3.993-3.691,4.345-8.364,0.164-13.087c-1.32-1.492-2.87-2.78-4.207-4.258
	c-1.31-1.447-2.483-3.019-3.798-4.635c-3.131,4.05-6.266,8.104-9.399,12.158c-0.852-0.773-1.703-1.546-2.555-2.319
	c5.562-7.675,11.005-15.44,16.78-22.951c1.182-1.536,3.527-2.668,5.489-2.957c1.526-0.226,3.288,1.148,4.945,1.812
	c-0.903,1.304-1.52,3.107-2.762,3.825c-5.107,2.952-5.507,4.046-2.184,8.987c1.545,2.297,3.671,4.31,4.751,6.791
	c2.698,6.196,1.104,11.34-5.436,18.954c7.035,1.281,13.248-0.298,19.213-3.548C653.667,316.82,637.278,310.709,622.396,312.213z"/>
<path fill-rule="evenodd" clip-rule="evenodd" d="M834.289,306.643c6.997-0.834,13.554-1.615,19.783-2.356
	c-0.854,4.841-9.918,9.952-17.29,8.739c-5.412-0.89-9.93-8.174-8.405-14.156c2.517-9.881,5.325-19.688,8.042-29.637
	c3.188,0,6.148,0,9.193,0C841.958,281.3,838.318,293.332,834.289,306.643z"/>
<path fill-rule="evenodd" clip-rule="evenodd" d="M1548.599,269.212c3.102,0,6.035,0,9.015,0
	c-3.726,12.238-7.401,24.312-11.358,37.31c6.708-0.744,13.632-1.513,20.072-2.228c-3.652,8.931-17.226,12.139-23.629,4.722
	c-4.179-4.84-2.37-10.33-1.121-15.447C1543.574,285.396,1546.209,277.38,1548.599,269.212z"/>
<path fill-rule="evenodd" clip-rule="evenodd" d="M1666.627,69.156c3.303,0,6.118,0,8.988,0
	c-3.748,12.336-7.46,24.557-11.373,37.438c6.707-0.778,13.588-1.576,20.012-2.321c-3.249,8.826-16.976,12.142-23.488,4.833
	c-4.322-4.851-2.406-10.349-1.213-15.431C1661.478,85.478,1664.186,77.465,1666.627,69.156z"/>
<path fill-rule="evenodd" clip-rule="evenodd" d="M1044.784,127.713c4.496-4.098,9.938-7.457,9.856-14.654
	c-4.425-2.029-5.599-4.885-3.79-9.133c1.715-4.027,6.224-6.186,10.14-4.497c3.886,1.674,4.564,4.837,3.687,8.822
	C1062.282,119.113,1054.161,124.006,1044.784,127.713z"/>
<path fill-rule="evenodd" clip-rule="evenodd" d="M1489.048,128.075c4.198-4.391,9.611-7.779,9.596-15.293
	c-5.232-0.445-5.098-4.325-4.178-7.893c1.05-4.076,4.147-6.142,8.52-5.829c4.051,0.289,6.987,4.181,6.159,8.238
	c-1.612,7.901-6.603,13.312-13.205,17.405C1493.777,126.043,1491.353,126.963,1489.048,128.075z"/>
<path fill-rule="evenodd" clip-rule="evenodd" d="M334.98,256.417c1.447-5.249,0.723-11.044,6.576-13.33
	c1.522-0.595,4.366-0.651,5.102,0.259c1.066,1.319,1.662,4.273,0.88,5.592c-2.143,3.609-5.029,6.799-7.815,9.985
	c-0.594,0.681-2.538,1.206-2.935,0.829C335.843,258.855,335.453,257.375,334.98,256.417z"/>
<path fill-rule="evenodd" clip-rule="evenodd" d="M1146.952,256.418c1.484-5.198,0.75-10.988,6.559-13.319
	c1.52-0.61,4.365-0.692,5.115,0.215c1.084,1.309,1.72,4.277,0.944,5.589c-2.137,3.612-5.026,6.801-7.81,9.989
	c-0.604,0.692-2.536,1.261-2.938,0.891C1147.868,258.902,1147.462,257.425,1146.952,256.418z"/>
<path fill-rule="evenodd" clip-rule="evenodd" d="M216.966,56.675c1.375-5.327,0.707-11.087,6.386-13.517
	c1.578-0.675,4.529-0.603,5.495,0.415c1.047,1.103,1.319,4.182,0.507,5.565c-2.04,3.48-4.801,6.562-7.461,9.641
	c-0.62,0.718-2.456,1.392-2.916,1.034C217.975,59.036,217.497,57.581,216.966,56.675z"/>
<path fill-rule="evenodd" clip-rule="evenodd" d="M841.911,260.183c0.441-4.288,0.339-8.266,1.418-11.891
	c0.646-2.171,2.856-4.281,4.91-5.48c1.303-0.761,4.16-0.418,5.299,0.587c0.945,0.834,1.156,3.86,0.374,5.042
	c-2.607,3.933-5.767,7.509-8.834,11.119C844.684,260.022,843.582,259.882,841.911,260.183z"/>
<path fill-rule="evenodd" clip-rule="evenodd" d="M1553.858,259.525c0.448-3.862,0.562-7.808,1.488-11.551
	c0.449-1.82,2.115-3.937,3.785-4.693c1.773-0.804,4.204-0.155,6.348-0.142c-0.077,1.966,0.559,4.401-0.366,5.81
	c-2.724,4.143-6.066,7.879-9.167,11.774C1555.25,260.324,1554.554,259.924,1553.858,259.525z"/>
<path fill-rule="evenodd" clip-rule="evenodd" d="M1671.767,60.04c0.534-4.489,0.423-8.55,1.661-12.146
	c0.778-2.258,3.368-4.162,5.575-5.531c0.983-0.61,3.403,0.046,4.465,0.954c0.79,0.676,1.098,3.112,0.496,4.017
	c-2.863,4.307-6.085,8.378-9.274,12.459C1674.425,60.132,1673.457,59.921,1671.767,60.04z"/>
<path fill-rule="evenodd" clip-rule="evenodd" d="M1881.242,106.787c-0.007-3.927,3.04-7.592,6.248-7.731
	c3.19-0.139,5.791,2.84,5.746,6.583c-0.042,3.577-3.624,7.845-6.616,7.275C1883.428,112.306,1880.662,110.688,1881.242,106.787z"/>
<path fill-rule="evenodd" clip-rule="evenodd" d="M1763.241,306.8c0.015-3.992,3.125-7.65,6.327-7.745
	c3.188-0.096,5.757,2.923,5.667,6.661c-0.086,3.596-3.715,7.809-6.693,7.196C1765.345,312.254,1762.641,310.579,1763.241,306.8z"/>
<path fill-rule="evenodd" clip-rule="evenodd" d="M1450.224,46.39c-0.035,2.918-4.134,7.659-7.796,7.613
	c-3.12-0.04-4.243-1.971-4.206-4.923c0.052-4.165,4.026-9.041,7.51-9.023C1449.155,40.075,1450.362,42.061,1450.224,46.39z"/>
<path fill-rule="evenodd" clip-rule="evenodd" d="M1388.24,45.33c-0.104,4.135-4.297,8.825-7.941,8.675
	c-3.137-0.13-4.14-2.154-4.073-5.055c0.098-4.222,4.118-8.984,7.638-8.894C1387.324,40.145,1388.404,42.225,1388.24,45.33z"/>
<path fill-rule="evenodd" clip-rule="evenodd" d="M1201.241,45.441c-0.055,4.242-4.022,8.897-7.604,8.51
	c-3.005-0.325-4.412-2.434-4.392-5.453c0.025-3.905,4.514-8.547,8.154-8.432C1200.493,40.165,1201.293,41.286,1201.241,45.441z"/>
<path fill-rule="evenodd" clip-rule="evenodd" d="M1162.177,50.467c0.218-6.009,4.497-10.684,7.971-10.405
	c3.477,0.278,4.276,2.543,4.095,5.554c-0.25,4.126-4.783,9.105-8.186,8.241C1164.239,53.395,1162.879,51.121,1162.177,50.467z"/>
<path fill-rule="evenodd" clip-rule="evenodd" d="M1477.245,43.62c-0.014,5.951-3.703,10.447-7.299,10.31
	c-3.317-0.127-4.794-2.382-4.694-5.636c0.113-3.707,4.556-8.721,7.846-8.035C1475.012,40.657,1476.523,42.995,1477.245,43.62z"/>
<path fill-rule="evenodd" clip-rule="evenodd" d="M1415.24,45.397c0.047,4.175-3.992,8.938-7.599,8.554
	c-3.017-0.321-4.423-2.44-4.396-5.468c0.032-3.672,4.219-8.383,7.703-8.383C1414.377,40.099,1415.421,42.322,1415.24,45.397z"/>
</svg>
