<?xml version="1.0" encoding="utf-8"?>
<!-- Generator: Adobe Illustrator 16.0.0, SVG Export Plug-In . SVG Version: 6.00 Build 0)  -->
<!DOCTYPE svg PUBLIC "-//W3C//DTD SVG 1.1//EN" "http://www.w3.org/Graphics/SVG/1.1/DTD/svg11.dtd">
<svg version="1.1" id="Lag_1" xmlns="http://www.w3.org/2000/svg" xmlns:xlink="http://www.w3.org/1999/xlink" x="0px" y="0px"
	 width="2725.548px" height="667.81px" viewBox="0 0 2725.548 667.81" enable-background="new 0 0 2725.548 667.81"
	 xml:space="preserve">
<path fill-rule="evenodd" clip-rule="evenodd" d="M1064.916,419.272c-5.173,4.361-10.297,8.782-15.527,13.073
	c-12.761,10.468-26.359,19.675-41.229,26.91c-10.089,4.91-19.842,10.994-30.457,14.181c-7.873,2.364-11.02,7.478-13.893,13.525
	c-6.326,13.322-12.625,26.688-18.059,40.385c-1.657,4.177-1.184,9.621-0.354,14.247c0.872,4.864,9.759,7.473,16.187,5.384
	c11.089-3.604,20.859-9.618,29.936-16.8c4.38-3.466,8.502-7.255,12.849-10.765c10.268-8.292,14.882-20.578,21.992-31.088
	c4.964-7.337,9.19-15.17,14.005-22.614c0.807-1.248,3.261-2.587,4.359-2.199c1.413,0.499,2.748,2.558,3.188,4.194
	c0.879,3.266-0.376,6.075-2.581,8.775c-12.028,14.727-21.532,30.982-28.667,48.606c-1.033,2.553-1.915,5.205-2.511,7.891
	c-1.421,6.411,4.86,11.016,11.966,8.643c10.914-3.646,20.756-9.413,29.561-16.697c7.885-6.522,15.726-13.251,22.605-20.784
	c4.885-5.351,11.3-9.975,13.058-17.673c4.619-20.228,23.036-28.204,40.064-27.243c4.059,0.229,5.995,2.985,7.121,6.305
	c0.252,0.742-1.285,2.091-2.399,3.761c-2.277-7.492-4.945-8.622-11.657-7.29c-13.232,2.628-17.472,12.442-20.411,23.499
	c-3.216,12.094-5.993,24.308-9.358,36.357c-3.193,11.434-7.474,22.451-14.166,32.419c-6.72,10.009-14.871,18.305-25.365,24.534
	c-7.714,4.579-16.147,7.083-24.573,7.058c-11.248-0.034-22.813-1.686-29.966-12.523c-0.854-1.293-1.273-2.87-1.383-4.715
	c6.938,11.677,18.617,14.216,30.104,14.132c11.556-0.084,21.674-5.924,29.784-14.557c8.479-9.024,14.121-19.663,17.875-31.35
	c2.623-8.167,5.115-16.378,7.481-24.623c1.363-4.752,2.357-9.609,2.729-14.909c-2.312,2.715-4.37,5.71-6.983,8.095
	c-8.521,7.779-17.11,15.496-25.928,22.935c-9.997,8.435-21.349,14.718-33.736,18.827c-4.416,1.464-9.379,2.162-14.006,1.865
	c-5.026-0.323-7.34-4.8-6.123-9.656c0.865-3.454,1.449-7.02,2.712-10.323c1.203-3.151,3.123-6.028,4.216-9.649
	c-4.815,4.138-9.58,8.336-14.456,12.402c-10.789,8.998-22.78,16.086-36.278,19.89c-5.277,1.487-11.283,0.724-16.933,0.457
	c-4.932-0.232-7.021-4.35-7.533-8.326c-1.345-10.45,1.046-20.404,6.487-31.222c-2.812,2.117-4.494,3.289-6.073,4.586
	c-9.517,7.813-18.518,16.378-28.646,23.291c-10.77,7.351-22.614,13.093-36.335,12.741c-7.555-0.193-12.279-5.052-12.615-12.609
	c-0.426-9.604,2.68-18.321,6.268-26.953c0.538-1.294,1.196-2.538,2.044-2.984c-12.634,7.885-24.903,16.45-38.009,23.449
	c-11.608,6.198-24.079,10.772-37.786,10.146c-6.636-0.304-10.087-1.385-15.532-6.322c-1.696,1.399-3.382,2.979-5.249,4.302
	c-11.2,7.93-23.743,11.26-37.395,10.992c-13.432-0.263-19.059-11.207-15.409-21.392c4.637-12.94,10.133-25.579,15.421-38.28
	c1.736-4.172,4.032-8.108,5.938-12.215c0.308-0.664-0.089-1.654-0.16-2.494c-0.844,0.1-1.966-0.117-2.488,0.345
	c-8.249,7.29-17.246,13.949-24.41,22.197c-10.122,11.652-18.669,24.659-28.35,36.718c-2.646,3.296-6.507,5.779-11.642,5.418
	c-2.005-0.141-4.165,2.135-6.276,3.271c-11.543,6.211-23.9,8.031-36.542,5.197c-6.881-1.542-11.762-10.46-8.858-19.463
	c3.718-11.526,8.797-22.625,13.522-33.809c2.397-5.675,5.348-11.113,7.937-16.709c0.398-0.86,0.192-2,0.266-3.01
	c-1.085,0.226-2.366,0.154-3.223,0.723c-10.657,7.086-19.897,15.757-27.718,25.854c-8.158,10.534-15.821,21.459-24.162,31.843
	c-2.271,2.826-6.183,4.354-9.45,6.292c-0.142,0.084-2.204-2.046-1.988-2.544c1.93-4.445,4.183-8.749,6.318-13.106
	c8.058-16.441,16.323-32.786,24.059-49.378c3.371-7.231,8.689-11.333,17.167-13.502c-0.618,2.559-0.764,4.92-1.729,6.875
	c-5.823,11.789-11.835,23.486-18.121,35.878c6.604-6.278,12.415-12.139,18.587-17.589c8.166-7.211,16.53-14.207,25.018-21.036
	c1.634-1.315,4.201-1.876,6.388-2.018c4.853-0.314,6.949,2.89,4.67,7.336c-4.141,8.08-8.795,15.898-12.922,23.985
	c-5.896,11.552-10.406,23.296-10.475,36.827c-0.047,9.198,8.702,15.419,17.045,13.535c5.758-1.301,11.419-3.787,16.572-6.714
	c3.121-1.772,5.957-5.007,7.608-8.252c9.908-19.476,19.534-39.098,29.034-58.776c2.969-6.151,8.728-7.668,15.108-10.24
	c-0.478,8.761-6.5,14.648-9.357,21.761c-2.857,7.11-6.545,13.888-9.496,20.037c5.613-5.174,11.568-10.87,17.75-16.31
	c8.118-7.144,16.396-14.105,24.661-21.079c0.842-0.711,2.053-1.337,3.112-1.369c2.616-0.079,6.163-0.745,7.593,0.633
	c1.289,1.243,1.146,5.325,0.114,7.396c-5.499,11.034-11.795,21.674-17.189,32.755c-4.522,9.29-6.074,19.347-5.246,29.73
	c0.544,6.825,9.2,11.994,16.829,10.343c9.719-2.104,18.223-6.428,25.694-12.982c-2.151-12.075,3.238-22.064,9.497-31.825
	c7.463-11.641,17.072-21.266,28.951-28.125c7.166-4.137,15.213-6.938,23.146-9.447c2.52-0.798,7.17,0.323,8.677,2.256
	c2.318,2.974,2.168,7.106-0.61,10.863c-10.006,13.532-24.853,19.73-39.335,26.493c-3.665,1.712-7.757,2.563-11.289,4.479
	c-1.585,0.859-2.726,3.237-3.281,5.154c-1.247,4.301-3.238,8.908-2.682,13.093c0.955,7.178,11.181,12.017,19.525,10.264
	c20.486-4.303,37.523-15.359,54.009-27.537c8.092-5.978,12.357-14.643,16.151-23.444c0.991-2.3-0.711-5.762-2.222-8.572
	c0.105-0.298,0.188-0.847,0.317-0.858c10.183-0.863,13.021-9.477,17.676-16.386c13.301-19.747,26.633-39.48,40.395-58.906
	c6.996-9.876,14.702-19.282,22.544-28.513c5.146-6.057,11.173-11.357,16.655-17.138c1.358-1.432,2.711-3.295,3.092-5.159
	c3.437-16.854,11.99-31.546,19.993-46.345c7.048-13.031,15.283-25.438,23.316-37.912c6.497-10.087,13.34-19.959,20.272-29.754
	c7.325-10.351,14.936-20.499,22.427-30.73c0.714-0.975,1.474-1.916,3.047-3.954c-3.866,1.46-6.569,2.584-9.34,3.502
	c-3.71,1.229-5.424-0.392-4.449-4.274c2.608-10.391,5.573-20.699,7.9-31.151c2.053-9.218,3.6-18.559,5.042-27.896
	c0.674-4.362,2.114-5.271,9.36-4.915c4.398,0.216,4.523,2.973,3.711,6.033c-1.538,5.793-3.351,11.512-5.053,17.261
	c-3.41,11.509-7.527,22.863-8.08,35.082c4.672,2.105,6.82-1.127,8.812-3.73c12.287-16.073,24.657-32.093,36.512-48.482
	c5.105-7.059,9.188-14.883,13.382-22.554c0.77-1.407-0.168-3.747-0.36-6.214c4.414-1.28,7.121,2.234,9.58,4.602
	c2.517,2.424,1.471,5.85-0.777,8.469c-8.449,9.844-17.103,19.517-25.375,29.507c-11.48,13.863-23.144,27.614-33.897,42.033
	c-14.257,19.115-27.99,38.639-41.436,58.336c-13.981,20.484-25.648,42.293-34.586,65.476c-2.067,5.364-3.508,10.971-5.597,17.609
	c5.604-3.255,9.906-5.831,14.285-8.269c3.156-1.757,6.283-2.521,8.056,1.834c1.758,4.32,4.117,8.565,4.912,13.072
	c1.71,9.696,1.701,19.39-0.195,29.282c-4.119,21.478-19.109,34.762-34.188,48.341c-11.381,10.248-23.552,19.389-36.941,26.644
	c-12.635,6.847-25.729,12.923-38.937,18.604c-7.975,3.431-13.532,8.33-16.912,16.405c-5.08,12.136-11.224,23.836-16.056,36.061
	c-1.838,4.648-2.489,10.46-1.576,15.348c1.542,8.254,8.106,8.753,16.316,6.629c10.251-2.652,19.562-7.782,27.539-15.033
	c8.972-8.155,18.76-15.559,26.808-24.531c5.191-5.789,8.199-13.674,11.468-20.942c0.706-1.571-1.663-4.526-2.429-6.387
	c3.866-2.581,8.277-4.513,11.236-7.766c3.431-3.772,5.454-8.793,8.319-13.119c9.273-14.003,18.318-28.174,28.088-41.824
	c8.854-12.37,18.237-24.396,27.938-36.116c11.916-14.396,24.471-28.262,40.032-38.948c3.467-2.381,7.157-4.442,10.788-6.577
	c6.317-3.714,11.568-1.652,13.244,5.586c1.648,7.123,3.538,14.343,3.824,21.579c0.239,6.069-1.607,12.236-2.658,18.338
	c-1.645,9.542-6.22,17.735-12.092,25.245c-2.469,3.156-5.287,6.038-7.946,9.045C1067.688,416.507,1066.303,417.89,1064.916,419.272z
	 M971.746,471.995c1.288,0,2.179,0.257,2.815-0.037c13.882-6.425,28.295-11.949,41.468-19.604
	c20.675-12.016,39.961-26.144,55.306-44.922c7.252-8.875,10.902-19.057,11.747-30.451c0.659-8.886-1.024-17.425-4.262-25.444
	c-3.172-7.858-7.011-11.641-15.716-5.756c-3.329,2.25-6.221,5.172-9.207,7.901c-12.267,11.214-22.271,24.38-31.633,37.967
	c-10.199,14.803-19.861,29.985-29.448,45.198C985.626,448.257,978.926,459.977,971.746,471.995z M895.687,471.298
	c0.351,0.356,0.701,0.714,1.053,1.07c1.706-0.724,3.44-1.39,5.114-2.181c13.745-6.496,28.048-12.06,41.051-19.803
	c12.444-7.41,24.233-16.312,35.047-25.972c13.903-12.421,27.297-25.402,28.476-46.398c0.654-11.651-1.859-21.924-7.127-31.785
	c-1.57-2.94-4.29-4.786-8.621-2.548c-3.508,1.813-6.104,3.054-5.847,7.588c0.123,2.159-1.415,4.369-1.544,6.595
	c-0.672,11.584-1.471,23.271,9.522,31.371c0.604,0.445,0.743,1.521,1.1,2.302c-1.015-0.002-2.286,0.386-2.994-0.081
	c-1.903-1.255-3.541-2.905-5.329-4.343c-6.291-5.055-14.139-8.811-15.234-18.196c-0.274-2.35-0.394-4.718-0.637-7.734
	C939.965,395.132,917.9,433.265,895.687,471.298z M789.776,507.953c11.932-3.621,22.387-8.643,31.631-15.827
	c2.867-2.229,5.608-5.499,6.714-8.852c0.981-2.977,0.771-7.621-1.002-9.909c-2.24-2.892-6.213-1.23-9.232,0.879
	C805.689,482.771,796.379,493.7,789.776,507.953z"/>
<path fill-rule="evenodd" clip-rule="evenodd" d="M1911.954,133.236c-12.394,16.308-22.628,33.015-29.015,51.901
	c-0.676,2-2.237,3.761-2.626,5.779c-0.344,1.777,0.38,3.76,0.632,5.652c1.897-0.488,4.485-0.354,5.58-1.566
	c7.018-7.769,14.333-15.392,20.349-23.911c7.979-11.299,14.782-23.423,22.306-35.053c0.884-1.366,3.62-2.949,4.617-2.496
	c1.487,0.677,3.437,3.546,3.015,4.661c-1.916,5.072-4.301,10.028-7.054,14.712c-6.934,11.797-13.565,23.64-17.199,37.024
	c-2.069,7.623,2.359,14.59,12.052,13.398c9.866-1.212,17.91-5.932,24.889-12.377c2.959-2.732,4.621-7.001,6.485-10.764
	c5.941-11.989,14.337-22.192,23.539-31.668c4.274-4.401,9.562-7.959,14.795-11.256c6.74-4.246,15.125-4.125,21.172-0.586
	c2.268-1.61,4.481-3.183,6.694-4.755c0.407,0.306,0.814,0.612,1.221,0.918c-1.576,3.045-2.934,6.23-4.767,9.113
	c-10.995,17.289-18.872,35.937-24.253,55.646c-0.94,3.444-1.137,7.139-1.309,10.734c-0.248,5.172,0.99,10.031,5.815,12.749
	c4.796,2.7,9.762,1.043,14.024-1.407c13.947-8.015,24.666-19.552,34.104-32.385c0.835-1.136,1.798-2.176,2.702-3.261
	c0.482,0.273,0.965,0.547,1.448,0.82c-0.884,1.723-1.495,3.668-2.694,5.132c-9.404,11.479-19.887,21.865-32.124,30.323
	c-7.585,5.243-15.935,8.471-25.259,5.785c-8.777-2.529-13.684-11.303-11.578-19.579c1.872-7.355,4.996-14.392,7.559-21.572
	c0.284-0.797,0.507-1.617,0.154-2.73c-4.021,4.457-7.619,9.418-12.174,13.238c-5.302,4.446-10.999,9.041-17.33,11.484
	c-7.92,3.056-10.736-1.559-9.717-7.603c0.215-1.273,0.203-2.584,0.231-2.972c-6.545,3.185-13.237,7.346-20.517,9.675
	c-5.169,1.653-11.166,1.353-16.725,0.959c-4.45-0.314-8.746-6.525-8.947-11.506c-0.126-3.141-0.023-6.29-0.023-10.117
	c-5.556,4.975-10.455,9.782-15.816,14.002c-3.134,2.466-6.843,4.47-10.608,5.761c-2.232,0.766-6.112,0.684-7.389-0.717
	c-1.606-1.761-2.33-5.557-1.63-7.945c1.721-5.87,4.478-11.436,6.808-17.128c0.222-0.542,0.372-1.112,0.682-2.054
	c-9.935,8.505-19.031,17.289-29.138,24.696c-13.106,9.605-27.022,18.122-44.197,18.223c-6.965,0.041-13.081-5.71-12.566-12.758
	c0.445-6.109,2.148-12.127,3.304-18.184c0.209-1.099,0.454-2.19,0.771-3.706c-6.404,4.987-12.201,9.914-18.414,14.243
	c-9.107,6.348-19.261,10.099-30.389,7.22c-7.115-1.841-10.467-9.454-9.156-18.434c0.181-1.231,0.614-2.427-0.035-4.328
	c-4.327,4.403-8.289,9.268-13.089,13.075c-4.364,3.462-9.43,6.271-14.576,8.444c-4.495,1.897-8.584-1.105-7.336-5.643
	c2.438-8.862,5.71-17.579,9.519-25.955c4.251-9.349,9.481-18.252,14.599-27.941c-17.293,4.392-33.935,5.77-50.649,1.485
	c-2.898,19.136-11.091,34.636-24.647,47.226c-6.145,5.707-12.419,11.12-21.362,12.363c-11.574,1.609-17.036-4.107-14.473-15.586
	c2.79-12.494,10.078-22.38,18.412-31.53c8.917-9.791,19.277-17.952,30.481-25.029c1.101-0.695,1.985-1.728,2.996-2.573
	c2.54-2.122,4.122-2.239,6.104,1.223c1.688,2.949,4.566,5.923,7.629,7.259c12.646,5.516,25.921,5.712,39.559,4.457
	c6.235-0.573,9.421-2.867,12.096-8.035c2.333-4.506,4.987-4.871,13.934-3.979c-4.519,7.099-9.649,13.968-13.508,21.489
	c-6.257,12.201-11.771,24.788-17.33,37.332c-0.654,1.477,0.39,3.706,0.734,6.237c12.975-7.562,20.348-18.761,27.71-29.83
	c6.626-9.962,12.667-20.314,18.96-30.497c0.084-0.136,0.049-0.391,0.154-0.459c2.235-1.462,2.909-5.993,6.926-3.899
	c2.931,1.527,3.773,7.077,1.443,10.104c-9.121,11.852-15.594,25.146-21.281,38.846c-1.284,3.093-1.701,6.597-2.191,9.959
	c-1.053,7.212,3.216,11.357,12.201,10.523c11.514-1.067,19.36-8.582,28.086-14.82c11.799-8.436,14.944-22.144,21.309-33.873
	c0.785-1.447-0.658-3.989-0.68-6.027c-0.015-1.438,0.466-4.069,1.005-4.144c7.801-1.082,10.419-7.54,13.987-13.013
	c11.377-17.453,22.183-35.314,34.286-52.248c9.245-12.935,20.045-24.768,30.31-36.959c5.371-6.38,10.469-13.196,16.777-18.53
	c9.324-7.884,19.428-14.904,29.571-21.741c5.69-3.834,9.573-2.001,12.078,4.605c6.209,16.376,5.583,32.975-0.381,49.014
	c-4.496,12.091-12.728,22.031-22.75,30.359c-9.104,7.565-17.642,15.882-27.183,22.834c-8.908,6.49-18.508,12.213-28.348,17.2
	c-12,6.082-24.581,11.017-36.872,16.532c-1.271,0.57-2.763,1.483-3.339,2.642c-7.4,14.877-15.164,29.608-21.686,44.868
	c-2.536,5.936-4.886,13.052-0.417,19.744c2.538,3.802,6.107,5.37,10.429,4.652c11.707-1.943,21.72-7.501,30.822-14.925
	c6.592-5.377,13.707-10.193,19.807-16.072c7.956-7.669,15.505-15.784,20.886-25.701c3.96-7.299,8.489-14.309,13.081-21.237
	C1901.572,131.174,1906.987,133.782,1911.954,133.236z M1828.897,138.516c0.45,0.541,0.899,1.082,1.349,1.622
	c16.34-8.223,33.1-15.72,48.898-24.877c15.269-8.85,28.95-20.107,41.325-32.878c10.261-10.589,17.818-21.992,18.828-37.5
	c0.752-11.543-1.22-21.95-6.93-31.726c-1.853-3.172-4.437-5.738-8.656-2.33c-4.61,3.724-10.237,6.407-14.19,10.683
	c-8.76,9.472-17.268,19.272-24.925,29.643c-10.319,13.975-19.876,28.521-29.496,42.999c-5.594,8.418-10.784,17.112-15.943,25.808
	C1835.552,126.034,1832.305,132.322,1828.897,138.516z M1625.027,193.663c0,1.165-0.038,2.33,0.007,3.493
	c0.231,6.07,3.479,8.207,8.911,5.554c2.453-1.198,4.681-2.968,6.791-4.739c11.168-9.382,15.844-22.396,19.044-35.907
	c1.2-5.063,0.357-10.646,0.206-15.984c-0.098-3.475-1.613-4.919-4.897-2.442c-2.867,2.161-5.957,4.074-8.593,6.484
	C1633.702,161.823,1625.895,176.049,1625.027,193.663z M1962.471,200.428c1.162-0.435,2.243-0.53,2.857-1.115
	c6.276-5.984,13.193-11.481,18.524-18.227c7.228-9.146,13.382-19.164,19.627-29.042c1.382-2.186,2.445-5.999,1.441-7.881
	c-1.084-2.029-4.87-3.832-7.291-3.62c-2.977,0.262-6.492,2.062-8.504,4.325c-9.187,10.342-16.697,21.922-21.707,34.831
	C1964.942,186.081,1960.511,192.188,1962.471,200.428z"/>
<path fill-rule="evenodd" clip-rule="evenodd" d="M819.968,213.396c-7.277,2.15-13.812,4.645-20.576,5.973
	c-19.9,3.909-38.452,1.554-52.334-14.972c-3.455-4.112-5.104-10.073-6.547-15.462c-2.09-7.813-1.452-15.779,1.233-24.728
	c0.688,1.797,1.334,2.614,1.209,3.29c-2.707,14.645,6.807,25.784,17.278,31.792c13.78,7.905,28.789,9.888,44.244,8.785
	c5.761-0.411,11.438-2.381,17.065-3.958c1.335-0.375,2.848-1.813,3.371-3.124c6.933-17.359,18.361-31.335,32.739-42.896
	c7.977-6.415,16.331-12.476,25.063-17.795c5.95-3.625,9.575-8.746,12.944-14.336c6.854-11.369,13.794-22.695,20.305-34.261
	c6.848-12.164,13.289-24.56,19.795-36.914c2.52-4.783,1.764-5.914-3.435-6.584c-15.281-1.968-29.613,1.342-43.88,6.695
	c-20.154,7.563-33.324,21.887-42.438,40.753c-5.408,11.196-9.53,22.691-9.138,35.457c-0.503,0.038-1.006,0.076-1.509,0.115
	c-0.444-1.862-1.571-3.868-1.216-5.562c1.587-7.562,2.455-15.58,5.711-22.421c5.475-11.507,11.706-22.88,19.26-33.096
	c5.482-7.413,13.629-12.852,20.563-19.198c7.45-6.819,16.376-11.207,25.911-13.701c9.419-2.463,19.182-4.038,28.889-4.847
	c10.125-0.845,10.175-0.241,16.667-7.567c-6.44,18.09-14.134,35.648-22.819,52.81c-8.737,17.264-17.277,34.628-25.761,51.66
	c12.182-4.59,24.595-9.598,37.237-13.932c11.021-3.779,22.239-7.034,33.495-10.057c5.782-1.553,7.794-6.422,10.367-10.539
	c11.041-17.666,23.659-34.085,38.832-48.312c10.553-9.896,22.036-18.963,35.575-24.48c5.745-2.342,12.416-3.793,18.557-3.483
	c11.077,0.558,13.513,7.547,10.464,17.234c-5.182,16.463-17.486,27.037-31.058,36.52c-14.79,10.335-30.948,17.697-48.103,23.092
	c-4.733,1.488-9.82,2.811-13.755,5.604c-3.648,2.59-6.855,6.642-8.724,10.747c-6.708,14.742-13.794,29.452-18.706,44.822
	c-3.233,10.117-5.982,21.031-1.669,32.239c3.67,9.536,10.182,14.695,19.818,16.431c9.294,1.674,17.922-1.418,26.579-4.119
	c1.949-0.608,3.918-1.154,5.878-1.729c0.201,0.676,0.401,1.352,0.602,2.027c-4.658,1.802-9.224,3.917-13.995,5.341
	c-10.179,3.039-20.44,5.677-31.235,5.555c-20.552-0.232-28.657-14.251-26.487-31.979c1.864-15.227,7.501-29.438,14.323-43.167
	c4.812-9.688,9.351-19.511,14.078-29.415c-6.039,2.451-12.015,5.247-18.232,7.313c-9.072,3.015-18.396,5.275-27.47,8.283
	c-9.713,3.22-19.463,6.486-28.766,10.688c-3.015,1.36-4.655,5.743-6.949,8.726c-9.58,12.45-18.464,25.53-28.957,37.158
	c-10.076,11.166-22.049,20.491-35.59,27.553c-4.931,2.572-4.291,8.146-4.449,12.376c-0.541,14.453,3.186,28.028,13.037,38.855
	c6.062,6.663,13.962,11.109,23.813,9.621c1.217-0.184,2.515,0.174,3.912,1.277c-2.687,0.556-5.35,1.368-8.064,1.623
	c-14.851,1.394-29.754-8.358-34.93-22.46c-3.449-9.398-4.738-18.829-2.105-28.673C820.427,218.039,819.968,215.767,819.968,213.396z
	 M994.62,97.601c6.702-2.23,13.822-3.654,20.019-6.862c12.2-6.316,25.135-11.202,36.006-20.201
	c11.478-9.502,20.582-20.181,24.163-34.897c2.137-8.777-2.909-13.617-11.728-11.495c-10.258,2.469-18.899,7.823-26.408,14.997
	C1019.237,55.801,1006.515,75.989,994.62,97.601z M885.329,142.433c-24.337,14.053-44.896,31.698-56.004,58.371
	C855.212,188.312,872.672,167.683,885.329,142.433z"/>
<path fill-rule="evenodd" clip-rule="evenodd" d="M1377.532,451.383c2.483-5.537,4.967-11.073,7.45-16.61
	c6.894-15.372,18.799-26.216,32.779-34.701c14.72-8.935,30.626-15.334,47.587-18.867c9.24-1.926,18.37-4.71,27.701-5.783
	c12.282-1.412,24.711-1.561,37.08-2.179c8.017-0.4,16.654,2.283,22.934-6.395c0.447,0.677,0.895,1.354,1.343,2.031
	c-0.783,1.453-1.229,3.299-2.399,4.3c-16.395,14.034-32.259,28.627-46.349,45.003c-12.197,14.174-23.078,29.189-30.963,46.392
	c-6.219,13.568-10.767,27.277-10.667,42.305c0.067,10.299,7.518,19.437,17.054,23.568c14.898,6.455,27.085-0.09,39.118-7.041
	c18.854-10.892,33.02-27.067,46.5-43.708c7.851-9.69,15.182-19.92,21.659-30.567c4.498-7.394,6.896-16.033,10.67-23.906
	c8.539-17.812,17.072-35.638,26.217-53.14c2.763-5.286,6.479-10.854,12.798-12.686c2.959-0.857,8.755-0.835,9.231,0.375
	c1.284,3.267,0.558,7.399,0.205,11.149c-0.048,0.515-2.594,1.329-3.825,1.111c-8.253-1.455-16.575,2.254-19.56,9.756
	c-8.477,21.304-17.397,42.479-24.681,64.194c-5.564,16.593-9.654,33.789-12.948,50.995c-2.008,10.484-3.826,21.244-1.647,32.309
	c3.882,19.712,17.109,18.549,29.454,11.071c16.851-10.206,27.94-25.926,38.714-41.858c0.854-1.263,1.927-2.377,2.898-3.56
	c0.449,0.286,0.899,0.572,1.349,0.858c-2.083,3.869-3.707,8.087-6.337,11.538c-7.16,9.4-14.158,19.043-22.322,27.527
	c-8.883,9.231-19.414,16.63-32.564,18.86c-9.793,1.66-19.418,0.616-23.707-9.085c-2.344-5.303-3.188-11.746-2.941-17.601
	c0.335-7.927,2.051-15.853,3.768-23.648c1.463-6.645,3.664-13.136,5.721-19.638c2.254-7.12,4.731-14.169,7.059-21.267
	c0.181-0.552-0.056-1.24-0.117-2.135c-6.382,8.636-12.018,17.503-18.895,25.271c-9.891,11.171-20.004,22.336-31.311,31.997
	c-8.743,7.472-18.879,14.009-29.443,18.487c-14.956,6.339-30.919,9.463-45.938-0.895c-6.978-4.812-10.608-11.655-11.219-20.242
	c-1.562-21.959,8.403-39.841,19.978-57.139c10.629-15.884,22.797-30.478,36.59-43.766c8.36-8.055,16.164-16.688,24.2-25.08
	c0.523-0.547,0.888-1.245,1.212-1.709c-4.995,0-9.803-0.122-14.601,0.038c-3.941,0.131-7.882,0.497-11.804,0.931
	c-11.071,1.224-22.183,2.206-33.183,3.906c-10.433,1.612-20.891,3.462-31.076,6.185c-20.366,5.444-38.414,14.923-50.093,33.389
	c-3.43,5.422-5.485,11.705-8.287,17.538c-0.593,1.233-1.699,2.221-2.568,3.321C1378.747,452.186,1378.14,451.784,1377.532,451.383z"
	/>
<path fill-rule="evenodd" clip-rule="evenodd" d="M2538.561,523.965c-4.421,2.392-8.665,5.231-13.304,7.072
	c-7.048,2.795-14.229,5.598-21.617,7.079c-6.406,1.284-13.204,1.202-19.779,0.832c-4.275-0.24-7.381-6.367-6.734-11.149
	c1.463-10.813,6.087-20.373,11.487-29.662c3.163-5.439,6.138-10.988,9.086-16.287c-10.151,0.469-19.997,1.092-29.853,1.298
	c-4.072,0.086-8.277-0.271-12.209-1.27c-3.008-0.763-4.146-0.59-4.676,2.669c-2.023,12.458-7.194,23.53-14.868,33.56
	c-7.713,10.081-16.636,18.31-29.076,22.266c-5.055,1.606-9.497,1.072-13.379-2.156c-4.05-3.367-2.549-8.208-2.347-12.58
	c0.058-1.231,0.614-2.44,1.265-4.862c-3.935,3.307-6.872,5.859-9.898,8.303c-8.511,6.867-17.929,11.59-29.087,12.156
	c-11.943,0.606-19.028-9.805-15.853-21.245c0.123-0.442,0.016-0.948,0.016-2.851c-1.616,2.023-2.438,3.208-3.413,4.25
	c-6.049,6.455-12.326,12.801-20.552,16.308c-2.95,1.258-7.329,1.523-10.114,0.224c-3.693-1.724-2.299-6.365-1.187-9.264
	c3.11-8.11,6.51-16.177,10.614-23.821c6.283-11.703,13.242-23.044,19.937-34.526c2.496-4.281,9.34-5.862,13.35-3.55
	c-6.14,9.951-12.921,19.586-18.253,29.964c-5.322,10.361-11.961,20.492-12.325,34.354c3.087-1.47,5.755-1.991,7.276-3.598
	c5.84-6.171,11.983-12.228,16.777-19.18c8.539-12.384,16.115-25.43,24.26-38.091c1.356-2.107,2.741-5.61,6.463-3.096
	c3.356,2.269,3.207,5.427,1.459,8.55c-5.959,10.646-12.32,21.079-17.928,31.905c-2.715,5.244-4.471,11.081-5.984,16.828
	c-2.139,8.117,4.726,14.587,12.818,12.385c16.518-4.492,29.105-13.568,37.605-29.037c5.902-10.74,14.801-19.562,24.652-27.1
	c6.303-4.823,12.717-9.503,19.131-14.178c1.407-1.025,3.028-1.757,4.521-2.606c7.294,13.336,19.001,15.37,32.133,14.434
	c4.644-0.332,9.409-0.604,13.975,0.073c5.761,0.854,8.695-2.109,11.685-6.184c9.762-13.306,19.701-26.482,29.641-39.656
	c1.979-2.623,4.184-5.089,6.443-7.477c0.909-0.96,2.246-1.515,3.834-1.533c-11.736,17.533-23.472,35.065-35.207,52.599
	c0.34,0.472,0.681,0.944,1.021,1.416c5.195-0.434,10.387-1.179,15.586-1.242c14.329-0.172,28.662-0.061,42.993-0.057
	c0.999,0,2.326-0.371,2.944,0.125c4.994,4.009,6.555-0.209,8.931-3.343c11.978-15.796,24.058-31.515,36.194-47.19
	c0.975-1.259,2.646-1.978,4.709-2.147c-11.697,17.444-23.395,34.89-35.574,53.053c21.674,0,42.265,0,62.855,0
	c0.02,0.126,0.038,0.253,0.057,0.379c-3.68,0.374-7.352,0.873-11.04,1.1c-17.132,1.05-34.271,1.985-51.398,3.113
	c-1.138,0.075-2.772,1.162-3.2,2.187c-5.13,12.275-10.258,24.559-14.93,37.012c-1.048,2.793-0.846,6.341-0.297,9.374
	c0.638,3.516,3.345,5.287,7.113,5.36c8.943,0.174,16.892-3.312,24.857-6.66c4.822-2.027,9.501-4.396,14.244-6.612
	c0.316,0.497,0.633,0.994,0.95,1.491c-2.196,1.601-4.198,3.63-6.621,4.729c-11.374,5.157-22.702,10.604-35.552,11.021
	c-3.021,0.098-6.073,0.273-9.065-0.035c-6.917-0.715-10.097-5.775-9.299-12.745c1.624-14.186,9.968-25.366,16.087-37.548
	c1.162-2.316,2.69-4.448,4.664-7.666c-5.827,0-11.016,0.161-16.184-0.093c-1.675-0.082-3.254-1.406-4.955-1.878
	c-1.844-0.511-3.807-1.079-5.672-0.95c-12.64,0.874-25.257,2.144-37.906,2.758c-2.917,0.143-4.506,1.367-5.299,3.342
	c-4.994,12.445-9.668,25.019-14.605,37.486c-1.71,4.316-1.139,8.151,2.075,11.24c3.507,3.371,8.099,2.833,12.099,1.409
	c9.478-3.373,18.763-7.285,28.133-10.962c1.42-0.558,2.876-1.024,4.315-1.532C2537.904,522.688,2538.232,523.326,2538.561,523.965z
	 M2404.026,526.487c0,1.165-0.008,2.331,0.001,3.496c0.054,6.981,3.503,9.216,9.362,5.241c4.96-3.363,9.659-7.458,13.508-12.04
	c7.318-8.714,10.195-19.498,12.051-30.5c0.654-3.872,1.173-7.868,0.95-11.762c-0.312-5.436-3.172-6.568-7.63-3.415
	c-1.666,1.179-3.206,2.55-4.734,3.911C2414.011,493.471,2404.93,507.849,2404.026,526.487z"/>
<path fill-rule="evenodd" clip-rule="evenodd" d="M498.683,407.257c-4.442,0.318-10.021-0.824-13.063-6.138
	c-3.472-6.063-2.219-12.348,1.893-17.887c8.222-11.077,18.913-19.108,31.332-24.934c14.003-6.568,29.052-7.569,43.871-5.786
	c16.579,1.996,30.937,12.983,35.37,31.24c5.774,23.777-0.273,45.252-12.594,65.435c-5.515,9.035-10.865,18.388-17.768,26.31
	c-10.144,11.645-21.512,22.236-32.542,33.09c-10.405,10.239-22.401,18.476-35.305,25.1c-10.735,5.512-21.996,10.076-33.255,14.473
	c-15.125,5.906-31.073,6.992-47.084,5.979c-16.672-1.054-31.893-6.476-43.07-19.414c-8.952-10.361-11.065-23.104-8.956-36.458
	c3.449-21.846,14.061-40.245,27.959-56.985c6.98-8.407,13.368-17.463,21.245-24.938c16.131-15.309,32.703-30.232,51.766-41.981
	c1.98-1.22,4.385-1.752,7.119-1.754c-0.404,0.576-0.68,1.369-1.23,1.695c-19.376,11.479-34.684,27.656-50.192,43.566
	c-12.227,12.542-22.168,26.792-29.722,42.584c-7.328,15.319-11.386,31.555-9.257,48.555c1.473,11.753,7.226,21.488,17.318,28.598
	c5.714,4.025,11.584,7.169,18.366,8.659c8.225,1.807,16.376,2.148,24.887,1.32c11.562-1.126,22.486-4.285,32.968-8.604
	c9.806-4.04,19.324-9.142,28.222-14.926c10.418-6.773,20.656-14.099,29.825-22.446c10.809-9.84,19.56-21.631,27.285-34.178
	c10.235-16.625,17.91-34.319,20.642-53.568c1.7-11.979,1.535-24.604-4.807-35.662c-7.599-13.249-18.488-21.764-34.724-22.054
	c-13.815-0.247-26.369,2.991-36.875,12.106c-6.575,5.704-11.25,12.896-11.186,22.008
	C497.16,395.891,498.123,401.513,498.683,407.257z"/>
<path fill-rule="evenodd" clip-rule="evenodd" d="M2192.767,526.295c6.611-3.715,13.186-7.498,19.842-11.129
	c13.566-7.4,27.488-14.205,40.691-22.201c16.279-9.86,31.427-21.38,44.152-35.724c10.248-11.551,19.272-23.992,25.22-38.342
	c5.877-14.182,8.58-28.907-0.353-42.604c-6.359-9.751-12.613-11.465-23.492-9.49c-2.505,0.454-5.09,0.472-8.816,0.791
	c12.559-11.975,32.114-13.586,41.525-5.494c5.724,4.921,8.959,10.974,9.614,18.808c1.285,15.359-3.215,29.275-10.721,42.039
	c-5.729,9.744-13.374,18.357-20.118,27.511c-8.196,11.121-18.383,20.276-29.463,28.27c-11.5,8.296-23.542,15.867-35.575,23.39
	c-12.801,8.001-26.307,14.948-38.651,23.577c-7.079,4.947-12.536,12.251-18.581,18.629c-3.271,3.452-6.241,7.189-9.709,11.218
	c-1.77-3.416-3.532-6.348-4.771-9.486c-0.396-1.004,0.306-2.736,0.994-3.828c5.788-9.179,12.332-17.943,17.408-27.492
	c7.996-15.038,12.76-31.233,14.087-48.335c0.572-7.371,2.229-14.785,1.784-22.081c-0.931-15.276-5.772-29.39-16.846-40.521
	c-8.008-8.05-17.934-12.698-29.17-14.582c-17.664-2.962-32.436,3.589-45.524,14.453c-6.947,5.767-12.899,12.728-19.353,19.097
	c-1.434,1.416-3.084,2.613-4.636,3.911c-0.435-0.398-0.87-0.797-1.305-1.195c4.181-5.687,7.773-11.953,12.681-16.923
	c7.626-7.725,15.608-15.325,24.434-21.576c9.571-6.779,20.234-11.524,32.627-11.919c13.858-0.442,26.767,1.427,37.993,10.122
	c7.836,6.069,13.763,13.766,16.146,23.378c2.066,8.341,3.781,17,3.859,25.534c0.072,7.881-2.433,15.758-3.456,23.681
	c-2.492,19.305-10.058,36.982-17.281,54.771c-1.794,4.419-4.053,8.648-6.099,12.966
	C2192.192,525.775,2192.479,526.035,2192.767,526.295z"/>
<path fill-rule="evenodd" clip-rule="evenodd" d="M1870.792,476.729c22.021,0,42.543,0,63.064,0
	c0.027,0.122,0.055,0.244,0.082,0.365c-3.569,0.379-7.131,0.894-10.71,1.111c-17.3,1.054-34.616,1.886-51.892,3.244
	c-1.763,0.139-3.906,2.99-4.821,5.051c-4.284,9.643-8.504,19.34-12.1,29.253c-1.429,3.94-2.114,8.63-1.486,12.726
	c0.947,6.178,6.308,8.774,13.337,6.484c10.893-3.55,21.549-7.823,33.423-12.201c-1.397,1.548-2.206,3.223-3.481,3.734
	c-9.301,3.728-18.531,7.788-28.121,10.582c-6.037,1.759-12.676,2.165-19.013,1.995c-7.965-0.214-12.425-6.139-9.773-13.802
	c3.518-10.171,8.42-19.872,12.907-29.692c2.11-4.62,4.642-9.049,7.39-14.351c-4.729,0-8.681,0.255-12.58-0.082
	c-3.036-0.263-7.022,1.983-8.827-2.692c-0.107-0.277-1.249-0.258-1.896-0.207c-10.828,0.845-21.653,1.717-32.479,2.583
	c-1.642,0.131-3.282,0.368-4.924,0.381c-7.497,0.056-8.407,1.103-10.964,8.24c-2.773,7.745-6.368,15.193-9.395,22.854
	c-1.423,3.602-3.072,7.341-3.367,11.115c-0.776,9.954,5.282,14.593,14.866,11.187c9.772-3.474,19.239-7.805,28.878-11.667
	c0.857-0.344,1.993,0.009,3,0.037c-0.521,0.851-0.84,2.126-1.595,2.484c-7.042,3.346-13.965,7.101-21.31,9.604
	c-7.019,2.393-14.464,3.608-21.781,5.03c-10.707,2.081-17.683-5.862-14.835-16.674c0.201-0.764,0.484-1.505,1.093-3.369
	c-5.088,4.045-9.231,7.525-13.567,10.745c-7.698,5.718-16.119,9.843-25.881,10.411c-13.958,0.812-19.158-9.611-16.303-21.301
	c0.108-0.444,0.014-0.939,0.014-2.653c-2.151,2.059-3.937,3.264-5.053,4.92c-5.226,7.749-13.029,12.279-20.93,16.477
	c-2.051,1.09-5.68,0.605-7.95-0.48c-2.591-1.238-3.239-4.021-1.905-7.204c2.41-5.754,3.827-11.97,6.614-17.511
	c5.929-11.788,12.426-23.292,18.791-34.857c1.647-2.994,3.619-5.815,5.528-8.659c2.664-3.966,9.572-5.428,13.793-3.155
	c-14.27,19.065-25.374,39.705-32.426,62.371c0.567,0.562,1.134,1.126,1.701,1.689c2.326-1.067,5.368-1.532,6.859-3.303
	c7.841-9.312,15.696-18.665,22.755-28.568c6.381-8.954,11.709-18.656,17.589-27.974c0.914-1.448,2.099-2.901,3.504-3.827
	c2.721-1.793,4.897-0.466,5.457,2.619c0.855,4.72-1.651,8.231-3.938,11.749c-8.708,13.398-16.597,27.141-20.229,42.941
	c-1.893,8.232,4.412,14.528,12.632,12.531c13.518-3.284,24.489-10.949,33.098-21.32c4.976-5.993,7.629-13.903,11.4-20.912
	c2.292-4.26,4.721-8.445,7.555-13.496c-7.323,0-13.854,0-20.385,0c-0.128-0.548-0.257-1.096-0.386-1.645
	c1.134-0.47,2.255-1.307,3.402-1.345c4.661-0.155,9.364-0.41,13.987,0.036c4.18,0.403,6.501-1.79,8.644-4.631
	c10.937-14.506,21.782-29.081,32.808-43.519c2.242-2.936,3.604-7.366,8.619-6.898c-11.858,17.737-23.678,35.415-35.398,52.945
	c19.984,0,39.07-0.031,58.156,0.05c1.878,0.008,4.003,0.273,5.574,1.181c2.961,1.708,4.692,0.421,6.281-1.772
	c8.636-11.925,17.089-23.986,25.93-35.756c4.045-5.385,8.805-10.237,13.32-15.259c0.692-0.771,1.816-1.153,3.297-1.148
	C1894.714,441.025,1882.987,458.527,1870.792,476.729z"/>
<path fill-rule="evenodd" clip-rule="evenodd" d="M1591.337,184.597c-7.775,1.692-14.869,7.347-21.173-0.675
	c-8.266,10.988-16.163,21.508-24.081,32.012c-17.853,23.685-37.646,45.383-63.271,60.975c-10.31,6.273-21.519,10.012-33.689,10.294
	c-6.361,0.148-12.793,0.579-19.074-0.146c-5.215-0.602-10.257-2.706-15.778-4.258c-7.135,5.99-6.851,5.461-11.506-3.774
	c-7.091-14.065-5.63-28.872-5.649-43.613c-0.007-5.322,5.15-12.737,9.762-15.117c0.156,0.795,0.451,1.505,0.408,2.194
	c-0.795,12.885-0.819,25.757,3.022,38.215c4.248,13.782,14.023,21.146,28.254,22.496c20.769,1.971,38.514-4.739,55.02-17.401
	c11.788-9.044,22.321-19.225,32.098-30.122c9.218-10.275,17.082-21.776,25.383-32.856c4.167-5.562,7.9-11.445,11.988-17.067
	c2.475-3.403,2.789-5.66-0.695-9.228c-10.222-10.466-19.008-22.047-24.623-35.841c-5.401-13.267-4.152-26.04,1.1-38.965
	c7.104-17.483,20.049-29.339,35.835-38.793c17.84-10.685,37.534-17.004,56.651-24.704c6.26-2.521,12.66-4.892,18.476-8.236
	c3.061-1.76,5.405-5.218,7.368-8.351c6.003-9.582,14.933-11.22,25.312-10.174c-9.944,9.48-15.784,21.434-22.529,32.787
	c-5.945,10.009-12.037,19.934-18.241,29.785c-9.222,14.643-18.468,29.273-27.943,43.753c-11.211,17.131-22.563,34.174-34.143,51.057
	c-1.942,2.833-1.574,4.264,0.664,6.16C1583.905,178.073,1587.46,181.225,1591.337,184.597z M1574.103,169.66
	c25.257-44.634,50.043-88.436,74.828-132.236c-0.487-0.52-0.974-1.039-1.461-1.559c-2.677,1.123-5.319,2.336-8.034,3.356
	c-16.058,6.036-32.311,11.599-48.153,18.152c-17.275,7.146-32.788,16.966-43.184,33.266c-6.785,10.639-9.539,22.295-5.586,34.23
	C1548.231,142.131,1559.615,155.868,1574.103,169.66z"/>
<path fill-rule="evenodd" clip-rule="evenodd" d="M128.608,539.413c3.788-2.077,7.615-3.814,11.013-6.17
	c2.149-1.49,4.28-3.622,5.338-5.957c3.001-6.624,5.881-13.369,7.982-20.316c1.92-6.348,3.396-12.975,3.899-19.567
	c0.51-6.67-7.741-11.657-14.79-8.472c-11.395,5.151-22.297,11.393-33.398,17.192c-1.011,0.528-1.924,1.244-2.936,1.771
	c-0.355,0.187-0.869,0.069-2.611,0.154c1.684-1.856,2.5-3.277,3.726-4.028c15.549-9.528,30.725-19.812,48.168-25.731
	c3.161-1.072,6.908-1.343,10.174-0.774c1.54,0.268,3.807,3.528,3.629,5.209c-0.666,6.284-1.581,12.682-3.559,18.653
	c-3.256,9.831-7.376,19.378-11.216,29.012c-0.822,2.062-2,3.982-3.372,6.666c7.9-4.007,15.364-7.284,22.315-11.422
	c16.066-9.562,32.062-19.268,47.714-29.485c6.417-4.189,11.66-10.133,17.827-14.759c6.12-4.591,13.044-5.723,20.457-2.823
	c1.268,0.495,3.126,0.149,4.474-0.396c1.756-0.71,3.274-2.007,6.26-3.931c-1.382,3.533-1.863,5.896-3.103,7.753
	c-9.105,13.636-16.46,28.182-21.515,43.726c-2.798,8.605-5.019,17.617-5.833,26.598c-1.112,12.267,9.419,15.881,18.478,10.847
	c13.22-7.347,23.813-17.356,32.592-29.519c1.549-2.146,3.623-3.914,5.454-5.856c0.483,0.41,0.965,0.82,1.448,1.23
	c-2.571,3.401-4.894,7.032-7.759,10.165c-9.949,10.876-20.425,21.226-33.897,27.75c-6.568,3.182-13.318,5.024-20.689,1.431
	c-6.482-3.16-11.601-11.611-9.507-18.632c2.211-7.414,5.148-14.613,7.808-21.893c0.406-1.11,1.026-2.142,0.629-3.792
	c-1.605,2.117-3.041,4.394-4.847,6.323c-7.021,7.501-13.733,15.413-23.474,19.663c-3.428,1.495-7.737,2.94-9.707-0.938
	c-1.56-3.072-2.106-7.995-0.719-10.993c5.465-11.811,11.873-23.185,17.961-34.78c-3.424,2.298-7.186,4.859-10.985,7.365
	c-10.871,7.168-21.926,14.071-32.585,21.54c-9.043,6.338-17.977,12.93-26.268,20.197c-3.593,3.15-5.491,8.256-8.085,12.518
	c-7.665,12.59-14.733,25.587-23.083,37.702c-9.657,14.01-20.316,27.339-30.756,40.797c-9.382,12.093-20.576,22.276-34.289,29.238
	c-10.821,5.494-22.167,6.887-33.968,2.652c-8.999-3.229-12.974-8.328-12.974-17.771c0-5.666-0.09-11.335,0.062-16.998
	c0.04-1.498,0.827-2.977,1.271-4.465c0.468,0.1,0.936,0.199,1.403,0.299c-0.207,3.014-0.703,6.04-0.563,9.037
	c0.364,7.843,9.808,16.603,17.766,17.888c20.061,3.24,35.979-5.197,50.682-17.251c16.39-13.437,29.446-29.785,40.707-47.616
	c7.049-11.161,13.79-22.516,20.861-33.662c2.464-3.884,3.109-7.183-0.62-10.614C130.455,543.126,129.867,541.475,128.608,539.413z
	 M208.389,533.441c1.371-0.338,2.871-0.288,3.752-1.002c3.324-2.689,6.846-5.292,9.573-8.533
	c10.659-12.67,20.803-25.753,28.488-40.511c1.042-1.999,1.983-6.104,1.224-6.608c-2.446-1.628-5.739-2.847-8.652-2.742
	c-7.247,0.261-10.257,6.738-13.625,11.584c-5.651,8.129-10.648,16.817-14.966,25.732
	C211.006,517.924,206.657,524.492,208.389,533.441z"/>
<path fill-rule="evenodd" clip-rule="evenodd" d="M1367.278,133.066c-2.993,5.124-5.871,10.321-9.001,15.36
	c-9.197,14.806-15.113,31.021-19.934,47.604c-1.528,5.255-1.355,11.137-1.213,16.713c0.204,7.977,8.286,11.896,16.949,7.788
	c10.337-4.902,19.2-12.075,26.658-20.764c3.876-4.517,7.099-9.592,10.742-14.316c0.573-0.742,1.821-0.964,2.757-1.427
	c0.378,0.363,0.755,0.727,1.133,1.09c-2.409,3.157-4.584,6.532-7.27,9.433c-9.663,10.437-19.512,20.701-31.928,28.012
	c-6.884,4.053-14.235,5.525-21.986,3.255c-9.562-2.802-12.745-11.763-10.733-21.403c0.822-3.942,2.18-7.805,3.617-11.581
	c1.41-3.702,3.231-7.247,4.142-11.444c-2.218,2.606-4.298,5.346-6.682,7.79c-4.598,4.715-8.99,9.76-14.198,13.704
	c-3.468,2.627-8.083,4.477-12.398,5.042c-4.415,0.578-6.402-3.093-6.045-8.691c-2.089,1.925-3.295,3.174-4.638,4.251
	c-8.179,6.559-16.023,13.624-24.701,19.442c-7.308,4.9-15.738,5.943-24.015,1.409c-4.842-2.652-7.235-6.684-7.581-12.334
	c-0.655-10.686,3.756-19.903,8.558-30.368c-3.174,3.02-5.354,5.187-7.634,7.246c-6.289,5.684-12.433,11.558-19.045,16.842
	c-2.046,1.635-5.459,2.368-8.164,2.197c-5.089-0.321-7.497-5.083-5.411-10.956c4.475-12.597,11.13-24.046,19.206-34.7
	c7.082-9.341,15.237-17.515,25.038-24.002c7.411-4.905,15.058-5.622,22.939-1.726c2.539-1.558,5.167-3.17,7.795-4.782
	c0.153,0.299,0.306,0.599,0.458,0.897c-4.995,9.096-10.139,18.112-14.95,27.304c-6.872,13.128-12.13,26.896-14.631,41.547
	c-0.694,4.068-0.761,8.456-0.042,12.507c1.208,6.814,6.903,10.244,13.084,7.404c6.883-3.162,13.738-6.925,19.582-11.683
	c8.943-7.282,15.693-16.321,20.59-27.188c5.514-12.238,13.377-23.364,23.739-32.287c5.616-4.835,11.303-9.672,17.44-13.788
	c4.638-3.108,10.321-3.396,15.516-1.163c3.081,1.325,5.226,0.969,7.59-1.069c1.06-0.913,2.465-1.424,3.714-2.117
	C1366.644,132.43,1366.961,132.748,1367.278,133.066z M1349.995,145.126c-5.211-5.863-9.784-6.535-15.246-1.999
	c-2.138,1.775-3.953,3.986-5.711,6.163c-8.163,10.115-14.605,21.299-19.571,33.26c-2.257,5.437-3.515,11.288-5.379,17.462
	c2.123,0.1,3.015,0.387,3.688,0.12c1.184-0.47,2.384-1.113,3.317-1.967C1327.604,183.07,1340.524,165.34,1349.995,145.126z
	 M1248.717,140.216c-4.607,1.415-8.781,4.382-12.431,9.039c-10.608,13.535-18.082,28.57-23.094,44.896
	c-0.537,1.751,0.263,3.911,0.441,5.882c1.594-0.636,3.311-1.07,4.744-1.964c1.469-0.914,2.701-2.231,3.963-3.451
	c13.631-13.176,24.662-28.258,33.089-45.243C1257.773,144.651,1255.05,140.333,1248.717,140.216z"/>
<path fill-rule="evenodd" clip-rule="evenodd" d="M2011.427,519.42c-5.06,5.695-9.872,11.635-15.235,17.028
	c-7.933,7.978-16.177,15.688-26.568,20.51c-6.198,2.876-12.47,4.59-19.381,1.993c-8.472-3.183-13.229-12.327-10.479-21.051
	c1.265-4.014,2.571-8.017,3.973-11.983c1.329-3.761,2.807-7.47,4.22-11.201c0.496,0.573,0.992,1.146,1.488,1.719
	c-7.399,6.36-14.664,12.888-22.266,18.996c-2.979,2.394-6.536,4.494-10.17,5.491c-2.211,0.607-6.657-0.467-7.307-1.982
	c-1.356-3.165-2.146-7.648-0.912-10.668c6.065-14.848,13.642-28.99,25.22-40.365c6.644-6.527,13.923-12.454,21.26-18.212
	c4.593-3.605,10.442-3.401,15.631-1.807c3.354,1.031,5.688,1.905,8.293-1.119c0.891-1.034,2.782-1.207,5.121-2.132
	c-5.092,8.983-9.946,16.797-14.07,24.978c-8.486,16.839-16.222,33.985-17.226,53.28c-0.488,9.397,7.488,15.756,17.038,11.117
	c5.925-2.878,11.771-6.579,16.494-11.116c7.352-7.061,13.695-15.167,20.532-22.771c0.823-0.915,2.056-1.463,3.099-2.181
	C2010.597,518.436,2011.012,518.928,2011.427,519.42z M1920.287,533.43c2.7-0.369,4.646-0.059,5.696-0.886
	c3.479-2.736,6.961-5.602,9.845-8.935c5.078-5.87,10.1-11.862,14.437-18.281c5.329-7.887,9.823-16.332,14.9-24.396
	c2.1-3.335,0.086-4.796-2.198-6.191c-4.808-2.937-10.857-0.239-14.848,4.353c-9.464,10.892-16.714,23.201-22.1,36.549
	C1923.814,521.106,1922.37,526.878,1920.287,533.43z"/>
<path fill-rule="evenodd" clip-rule="evenodd" d="M1244.876,516.037c-7.725,7.037-15.707,14.75-24.233,21.805
	c-2.519,2.084-6.512,2.795-9.946,3.249c-3.461,0.457-5.787-2.031-5.543-5.405c0.301-4.161,0.679-8.672,2.493-12.295
	c4.15-8.287,8.661-16.505,14.013-24.049c6.279-8.852,12.712-17.799,22.312-23.652c1.468-0.895,2.57-2.369,3.968-3.404
	c7.585-5.62,15.602-7.324,24.185-2.614c2.721-1.624,5.457-3.259,9.234-5.515c-6.002,11.137-11.2,20.816-16.432,30.478
	c-7.087,13.088-11.512,27.186-14.563,41.607c-0.982,4.64,0.318,10.188,1.97,14.823c1.299,3.645,5.444,4.853,9.565,4.24
	c8.832-1.312,15.603-6.715,21.657-12.423c7.431-7.006,13.704-15.236,20.558-22.867c0.813-0.906,2.124-1.367,3.205-2.035
	c0.336,0.381,0.673,0.761,1.01,1.142c-3.335,4.103-6.234,8.681-10.091,12.214c-8.839,8.097-17.744,16.23-27.393,23.299
	c-7.182,5.261-15.616,7.777-24.786,3.722c-5.228-2.312-8.696-7.109-9.099-12.748c-0.753-10.562,3.114-19.73,7.823-28.74
	C1245.054,516.348,1244.908,515.61,1244.876,516.037z M1263.021,479.082c-0.249-3.41-5.644-5.881-9.434-5.14
	c-4.899,0.958-7.825,4.259-10.711,7.892c-10.945,13.778-19.325,28.878-23.799,45.975c-0.414,1.581,0.246,3.442,0.407,5.173
	c1.719-0.624,3.833-0.809,5.095-1.941c13.322-11.969,24.152-25.99,33.239-41.366
	C1259.884,486.181,1261.421,482.377,1263.021,479.082z"/>
<path fill-rule="evenodd" clip-rule="evenodd" d="M2690.973,469.285c2.163-1.356,4.659-2.923,7.155-4.488
	c0.406,0.397,0.812,0.795,1.219,1.191c-1.781,2.92-3.541,5.853-5.346,8.758c-11.282,18.173-19.735,37.591-24.712,58.38
	c-1.137,4.748-0.642,10.041-0.094,14.994c0.552,4.985,7.704,9.197,12.454,6.931c6.801-3.245,13.83-6.758,19.377-11.709
	c7.874-7.028,14.465-15.488,21.676-23.271c0.69-0.745,1.885-1.023,2.846-1.519c-0.372,0.995-0.558,2.119-1.143,2.968
	c-9.394,13.632-21.392,24.576-35.435,33.173c-6.952,4.255-14.215,7.364-23.003,4.198c-8.4-3.026-13.523-12.009-10.471-21.502
	c2.6-8.082,5.677-16.012,8.094-22.756c-5.867,5.811-12.466,12.782-19.573,19.19c-3.265,2.943-7.332,5.217-11.384,7.007
	c-4.842,2.139-10.582-1.823-9.362-6.928c1.709-7.154,4.44-14.265,7.929-20.751c7.377-13.714,16.682-26.167,28.939-35.946
	c6.503-5.188,12.877-11.57,22.512-9.945C2685.305,467.707,2687.896,468.524,2690.973,469.285z M2636.343,532.596
	c0.435,0.299,0.868,0.598,1.302,0.896c1.412-0.529,3.173-0.692,4.179-1.649c5.113-4.865,10.312-9.69,14.959-14.987
	c9.449-10.774,17.492-22.562,23.595-35.574c0.621-1.325,0.885-3.647,0.147-4.631c-2.479-3.304-8.453-4.224-11.756-1.441
	c-4.234,3.566-8.658,7.37-11.544,11.983c-6.083,9.723-11.554,19.875-16.589,30.187
	C2638.36,522.038,2637.724,527.498,2636.343,532.596z"/>
<path fill-rule="evenodd" clip-rule="evenodd" d="M1197.284,523.272c-1.572,1.247-2.977,2.85-4.743,3.685
	c-12.192,5.762-24.29,11.902-38.219,12.272c-2.69,0.071-5.467,0.506-8.058,0.01c-9.413-1.8-11.799-7.034-9.471-16.622
	c3.427-14.106,11.994-25.546,18.429-38.095c0.437-0.853,0.866-1.709,1.669-3.294c-4.228,0-7.957,0.201-11.652-0.062
	c-3.101-0.221-6.746,1.194-9.365-1.046c0.111-0.631,0.223-1.261,0.334-1.892c6.123,0,12.247-0.094,18.367,0.039
	c3.043,0.066,4.843-0.868,6.838-3.543c12.247-16.417,24.857-32.562,37.429-48.735c1.009-1.298,2.634-2.115,4.706-2.419
	c-11.719,17.44-23.438,34.882-35.718,53.158c21.975,0,42.575,0,63.177,0c0.02,0.126,0.038,0.252,0.058,0.378
	c-3.679,0.374-7.351,0.876-11.038,1.101c-17.297,1.051-34.612,1.862-51.879,3.27c-1.822,0.148-3.958,3.383-4.944,5.628
	c-4.041,9.203-8.021,18.463-11.346,27.939c-1.563,4.456-2.767,9.642-2.027,14.152c0.954,5.818,7.319,7.866,14.446,5.279
	c9.891-3.591,19.608-7.654,29.415-11.478c0.964-0.377,2.029-0.493,3.048-0.729C1196.921,522.604,1197.103,522.938,1197.284,523.272z
	"/>
<path fill-rule="evenodd" clip-rule="evenodd" d="M1140.39,191.498c2.653-1.771,4.281-2.872,5.924-3.951
	c6.264-4.115,12.574-8.162,18.787-12.353c7.129-4.808,14.449-9.546,18.628-17.408c3.783-7.118,3.14-9.771-2.624-15.551
	c-0.322-0.323-0.986-0.847-0.942-0.913c1.755-2.654,3.212-5.701,5.57-7.656c0.876-0.727,4.656,0.497,5.784,1.899
	c4.699,5.843,5.239,11.978,0.363,17.999c-5.729,7.074-12.088,13.89-19.189,19.54c-10.84,8.623-23.57,15.136-31.577,26.835
	c-3.957,5.782-10.021,7.638-15.188,11.185c-0.549,0.376-1.579,0.051-3.368,0.051c1.014-3.175,1.949-5.829,2.71-8.532
	c2.947-10.469,5.683-21,8.809-31.415c1.952-6.506,4.286-12.914,6.79-19.231c1.409-3.557,3.553-6.817,5.293-10.248
	c3.47-6.841,10.483-6.494,16.235-8.712C1151.669,150.928,1142.463,168.998,1140.39,191.498z"/>
<path fill-rule="evenodd" clip-rule="evenodd" d="M1064.916,419.272c1.387-1.383,2.772-2.766,4.159-4.149
	c3.056,0.541,7.987-1.343,8.436,2.815c0.354,3.27-2.481,6.947-4.138,10.327c-0.443,0.905-1.714,1.887-2.675,1.965
	c-2.622,0.213-5.281-0.037-7.926-0.104c0.084-2.303-0.035-4.639,0.328-6.896C1063.322,421.849,1064.286,420.588,1064.916,419.272z"
	/>
<path fill-rule="evenodd" clip-rule="evenodd" d="M1369.72,101.066c-1.224-1.444-3.357-2.802-3.507-4.351
	c-0.572-5.918,4.314-13.192,11.706-12.335c1.473,0.17,3.64,2.021,3.916,3.409C1382.678,92.032,1375.134,101.283,1369.72,101.066z"/>
<path fill-rule="evenodd" clip-rule="evenodd" d="M198.026,420.351c-0.012,4.344-3.75,9.465-7.862,10.774
	c-4.55,1.448-7.807-1.297-7.128-6.01c0.562-3.9,6.092-9.637,9.529-9.884C197.372,414.887,198.04,415.513,198.026,420.351z"/>
<path fill-rule="evenodd" clip-rule="evenodd" d="M1342.026,92.703c0.093-4.929,4.655-10.076,9.281-10.47
	c5.155-0.438,7.715,2.169,5.448,6.762c-1.64,3.324-4.979,6.432-8.324,8.146C1343.53,99.656,1341.925,98.152,1342.026,92.703z"/>
<path fill-rule="evenodd" clip-rule="evenodd" d="M1274.027,95.754c-0.028-5.972,4.641-11.417,9.821-11.535
	c3.127-0.071,5.14,1.01,5.178,4.478c0.057,5.103-5.975,11.502-10.893,11.53C1274.45,100.248,1274.046,99.807,1274.027,95.754z"/>
<path fill-rule="evenodd" clip-rule="evenodd" d="M1264.027,86.904c-0.016,5.598-5.562,11.396-10.757,11.163
	c-1.311-0.059-3.189-1.674-3.689-2.997c-1.625-4.3,4.387-12.448,9.041-12.867C1262.509,81.854,1264.854,82.867,1264.027,86.904z"/>
</svg>
