<?xml version="1.0" encoding="utf-8"?>
<!-- Generator: Adobe Illustrator 16.0.0, SVG Export Plug-In . SVG Version: 6.00 Build 0)  -->
<!DOCTYPE svg PUBLIC "-//W3C//DTD SVG 1.1//EN" "http://www.w3.org/Graphics/SVG/1.1/DTD/svg11.dtd">
<svg version="1.1" id="Lag_1" xmlns="http://www.w3.org/2000/svg" xmlns:xlink="http://www.w3.org/1999/xlink" x="0px" y="0px"
	 width="1531.806px" height="903.728px" viewBox="0 0 1531.806 903.728" enable-background="new 0 0 1531.806 903.728"
	 xml:space="preserve">
<path fill-rule="evenodd" clip-rule="evenodd" d="M511.738,190.047c-11.417,8.417-22.609,17.16-34.306,25.169
	c-14.931,10.223-30.2,19.957-45.446,29.709c-16.171,10.343-33.389,18.687-51.865,23.856c-11.406,3.191-23.229,4.946-34.917,7.062
	c-15.712,2.844-30.81,0.217-44.794-7.095c-14.104-7.375-22.568-19.026-21.904-35.579c0.259-6.457-1.078-9.672-7.786-12.559
	c-23.184-9.976-36.817-27.843-40.443-53.223c-3-20.997,1.035-40.803,9.289-59.9c7.358-17.026,18.561-31.475,32.453-43.613
	c18.435-16.108,39.76-27.341,63.002-34.841c17.27-5.571,34.874-10.036,53.048-11.072c19.508-1.111,39.068-2.062,58.594-1.868
	c12.747,0.127,25.488,2.284,38.202,3.786c9.417,1.112,18.755,3.244,28.188,3.726c5.004,0.255,10.108-2.193,15.218-3.149
	c13.943-2.609,27.84-5.671,41.896-7.402c10.646-1.312,21.554-1.6,32.266-0.983c11.74,0.677,23.2,3.403,33.555,9.671
	c7.472,4.522,12.679,13.022,11.272,19.315c-2.019,9.03-13.298,11.738-21.338,10.524c-13.393-2.021-26.736-4.374-40.074-6.736
	c-9.471-1.678-18.879-3.702-28.349-5.385c-11.09-1.971-22.35-3.177-33.282-5.778c-8.144-1.938-14.308,2.109-20.892,4.824
	c-32.899,13.564-63.497,31.408-92.557,51.779c-18.697,13.107-36.537,27.345-52.96,43.403c-18.638,18.225-35.57,37.718-48.771,60.194
	c-7.628,12.986-14.293,26.704-14.545,42.175c-0.299,18.423,10.653,29.586,27.661,32.676c16.762,3.046,33.353,0.864,49.723-3.634
	c25.484-7.003,48.54-19.12,70.321-33.679c21.976-14.689,43.672-29.814,65.149-45.224c10.641-7.634,21.353-15.508,30.495-24.789
	c8.538-8.667,15.013-19.359,22.461-29.111c1.691-2.215,3.546-4.331,5.539-6.272c0.691-0.674,2.261-1.19,3.009-0.852
	c0.771,0.35,1.386,1.803,1.46,2.817c0.795,10.875-2.477,19.544-11.71,26.475c-11.692,8.776-21.321,19.74-30.061,31.606
	c-9.325,12.66-19.299,24.904-29.742,36.662c-12.217,13.754-24.867,27.175-38.015,40.039c-19.033,18.623-39.952,34.994-62.562,49.141
	c-0.522,0.327-0.966,0.781-0.778,0.627c7.923,3.409,16.251,6.417,23.984,10.538c4.567,2.434,8.232,6.574,8.951,12.363
	c1.501,12.089-5.001,16.164-17.799,16.134c-10.03-0.023-20.098-2.424-30.07-4.205c-12.674-2.266-25.197-5.508-37.936-7.217
	c-4.874-0.653-10.301,1.316-15.234,2.862c-18.843,5.902-38.104,9.131-57.776,7.649c-10.544-0.793-19.02,3.427-27.249,8.353
	c-16.933,10.136-33.911,20.308-50.023,31.667c-15.104,10.649-29.3,22.628-43.533,34.458c-7.509,6.241-14.599,13.083-21.257,20.231
	c-18.051,19.379-34.376,40.054-45.111,64.561c-4.533,10.349-7.507,21.207-5.89,32.537c1.73,12.123,8.835,20.337,20.557,24.428
	c12.024,4.196,24.262,3.426,36.606,2.052c23.295-2.595,44.799-10.925,64.794-22.374c21.347-12.223,42.041-25.724,62.211-39.822
	c18.222-12.737,35.212-27.224,53.013-40.581c12.765-9.578,20.197-23.347,29.452-35.706c0.096-0.128,0.099-0.349,0.213-0.435
	c2.2-1.645,4.411-3.276,6.619-4.91c0.737,3.054,2.218,6.143,2.074,9.154c-0.472,9.891-6.653,16.927-14.045,22.185
	c-12,8.536-20.307,20.154-29.187,31.432c-8.521,10.822-17.031,21.684-26.13,32.015c-11.915,13.528-23.796,27.183-36.775,39.655
	c-23.209,22.303-48.228,42.387-76.4,58.364c-23.881,13.544-49.055,23.589-75.766,29.703c-15.896,3.638-32.167,4.144-48.323,3.019
	c-9.831-0.685-19.569-2.814-28.646-7.582c-18.667-9.805-22.324-25.32-15.727-43.182c4.186-11.332,12.049-20.242,22.479-26.597
	c1.235-0.753,2.97-0.686,4.953-1.098c-6.528,8.005-12.795,14.691-17.884,22.179c-6.685,9.835-9.086,20.634-3.057,31.915
	c4.104,7.678,11.305,11.521,19.171,13.421c22.35,5.399,44.477,4.282,66.528-2.661c26.366-8.302,50.593-20.756,73.926-35.344
	c18.674-11.676,35.511-25.666,52.531-39.515c25.933-21.102,48.933-45.239,72.567-68.734c0.843-0.838,1.493-1.868,2.232-2.81
	c-0.295-0.324-0.591-0.649-0.887-0.974c-4.597,3.422-9.252,6.77-13.78,10.28c-24.688,19.141-50.545,36.499-77.837,51.739
	c-19.668,10.982-40.57,18.702-62.583,22.956c-18.054,3.489-36.319,3.77-53.633-3.87c-14.124-6.232-24.08-16.146-25.411-32.581
	c-0.38-4.695-0.849-9.383-1.251-13.8c-6.378-3.563-13.352-6.977-19.817-11.17c-14.936-9.689-23.017-24.068-26.912-41.096
	c-3.647-15.944-1.809-31.664,2.482-47.122c5.376-19.367,14.993-36.307,28.821-51.159c17.83-19.15,39.527-31.863,63.497-41.402
	c16.599-6.604,33.864-10.643,51.398-13.49c17.491-2.841,35.166-3.612,52.885-3.098c0.802,0.022,1.608-0.086,2.508-0.14
	c1.722-20.327,12.729-34.075,28.889-44.279c0.604,0.395,1.209,0.789,1.813,1.183c-0.927,1.415-1.653,3.029-2.815,4.213
	c-6.122,6.233-12.978,11.916-16.448,20.22c-1.994,4.771-3.481,9.772-4.896,14.755c-0.716,2.525,0.439,3.914,3.384,4.112
	c12.978,0.872,25.973,1.653,38.899,3.046c10.387,1.119,20.649,3.398,31.038,4.481c3.885,0.405,8.075-0.75,11.948-1.829
	c19.291-5.372,38.817-9.017,58.884-9.969c3.738-0.177,7.548-2.822,10.978-4.902c18.354-11.126,35.838-23.481,51.999-37.647
	c13.63-11.947,27.45-23.687,40.802-35.937c11.627-10.668,22.778-21.858,34.002-32.958c2.948-2.916,5.383-6.354,8.053-9.551
	C512.244,190.451,511.991,190.249,511.738,190.047z M490.675,30.123c-13.95-0.718-28.88-2.095-43.81-2.098
	c-17.857-0.004-35.724,0.997-53.57,1.878c-18.349,0.906-36.197,4.628-53.82,9.827c-30.861,9.104-58.711,22.959-79.744,48.253
	c-13.874,16.684-21.795,35.984-24.208,57.329c-1.791,15.839,1.231,30.998,9.572,44.978c7.977,13.369,19.571,21.93,33.879,27.546
	c0.525-2.423,0.904-4.51,1.442-6.555c0.536-2.038,1.272-4.022,1.852-6.05c7.25-25.348,22.053-46.311,39.705-65.107
	c13.103-13.953,27.546-26.732,42.076-39.239c18.493-15.918,38.982-29.157,60.812-40.003
	C446.713,50.024,469.063,40.173,490.675,30.123z M237.606,346.137c-5.553-5.076-11.438-9.923-16.587-15.454
	c-1.79-1.923-3.07-2.972-5.594-2.843c-7.926,0.407-15.865,0.589-23.788,1.054c-9.534,0.56-19.136,0.766-28.567,2.109
	c-19.034,2.711-37.721,6.995-55.813,13.772c-26.065,9.764-49.096,23.841-66.339,46.117c-13.769,17.788-21.303,38.175-22.418,60.58
	c-0.832,16.71,4.164,32.204,14.549,45.284c7.563,9.526,17.068,17.148,29.266,20.84c0.406-0.745,0.819-1.271,0.998-1.867
	c2.411-8.079,4.009-16.506,7.327-24.19c9.19-21.29,22.942-39.743,39.042-56.164c12.565-12.815,26.309-24.525,39.984-36.191
	c20.487-17.477,43.712-30.842,67.499-43.233C224.248,352.26,231.567,349.022,237.606,346.137z M534.917,26.533
	c0.051,0.349,0.103,0.698,0.154,1.047c1.554,0.433,3.094,0.93,4.665,1.289c21.854,4.985,43.651,10.248,65.599,14.783
	c9.093,1.879,18.49,2.476,27.787,3.108c5.698,0.388,11.497-4.688,9.882-8.324c-1.852-4.165-4.3-8.681-7.775-11.395
	c-10.819-8.445-24.224-9.334-37.179-9.945c-10.122-0.478-20.452,0.401-30.488,1.969C556.56,20.782,545.788,23.98,534.917,26.533z
	 M352.279,335.409c11.002,2.486,21.089,5.137,31.32,6.975c10.604,1.905,21.312,3.499,32.045,4.322
	c7.711,0.592,14.415-4.832,8.667-13.85c-1.264-1.98-2.794-4.275-4.776-5.225c-6.68-3.198-13.457-6.38-20.509-8.555
	c-5.579-1.72-11.524-2.129-16.949,1.772c-3.292,2.368-7.007,4.211-10.686,5.968C365.389,329.685,359.261,332.289,352.279,335.409z
	 M228.067,328.147c4.494,8.618,18.773,14.017,27.803,10.511c2.421-0.94,4.841-1.882,7.263-2.818
	c4.253-1.646,8.509-3.287,12.763-4.931c-0.081-0.305-0.161-0.609-0.242-0.914C259.793,329.375,243.931,328.754,228.067,328.147z
	 M317.048,336.355c-15.224-6.921-26.319,0.315-37.792,5.72c0.124,0.608,0.248,1.217,0.372,1.824
	C291.712,341.463,303.797,339.027,317.048,336.355z M316.892,326.958c11.792,4.563,26.947,0.917,36.249-8.763
	C341.431,321.026,329.72,323.857,316.892,326.958z"/>
<path fill-rule="evenodd" clip-rule="evenodd" d="M824.952,415.536c-8.271-12.529-6.848-25.634-2.01-38.66
	c5.312-14.303,15.538-24.935,27.178-34.346c1.413-1.143,2.8-2.318,3.65-4.289c-5.01,0.542-10.009,1.3-15.033,1.565
	c-5.152,0.271-10.368,0.462-15.489-0.019c-12.716-1.194-25.26-3.006-36.231-10.571c-8.271-5.704-11.71-13.759-12.628-23.252
	c-1.848-19.113,6.502-34.681,17.575-49.147c17.245-22.529,39.324-39.469,63.434-53.934c26.042-15.624,53.724-27.342,83.385-34.149
	c7.927-1.819,15.914-3.377,24.494-5.186c-3.703-1.995-7.233-3.369-10.153-5.558c-17.912-13.424-22.629-31.69-19.933-53.123
	c3.329-26.454,17.726-46.422,37.014-63.015c21.031-18.093,46.073-28.961,73.068-34.826c11.949-2.596,24.224-3.985,36.427-5.034
	c14.155-1.218,28.416-2.288,42.593-1.919c18.26,0.476,36.522,2.029,54.706,3.889c17.574,1.797,35.238,3.643,52.514,7.174
	c17.801,3.639,35.201,9.263,52.712,14.244c1.815,0.517,3.195,2.566,4.777,3.904c-0.287,0.441-0.575,0.882-0.863,1.323
	c-3.662-0.918-7.368-1.689-10.977-2.784c-8.293-2.515-15.915,0.09-23.255,3.302c-15.458,6.765-28.922,16.65-41.255,28.031
	c-12.792,11.804-25.789,23.444-37.821,35.995c-13.913,14.515-26.851,29.963-40.252,44.971c-6.38,7.146-12.666,14.387-19.313,21.277
	c-22.961,23.801-45.574,47.967-69.284,71.002c-15.308,14.871-31.967,28.427-48.655,41.778
	c-11.443,9.156-23.979,16.945-36.011,25.368c-0.212,0.148-0.228,0.575-0.118,0.271c5.15,0,10.477,0.001,15.802,0
	c13.871-0.003,27.743-0.106,41.612,0.037c5.603,0.059,11.2,0.655,16.801,1.008c18.182,1.145,36.017,4.469,53.349,9.886
	c14.569,4.554,28.965,9.784,43.106,15.528c7.345,2.983,14.004,7.676,20.888,11.74c0.908,0.537,1.309,1.935,1.944,2.933
	c-0.264,0.35-0.528,0.699-0.793,1.049c-1.555-0.572-3.213-0.957-4.645-1.751c-6.279-3.482-12.399-3.346-18.764-0.03
	c-13.604,7.084-23.166,18.255-31.108,30.889c-13.896,22.106-23.476,46.161-31.117,71.047c-8.333,27.136-18.214,53.673-31.009,79.063
	c-0.332,0.659-0.602,1.35-0.395,2.295c7.539-9.354,15.009-18.767,22.643-28.044c4.605-5.595,9.22-11.218,14.254-16.418
	c25.671-26.512,50.99-53.392,77.397-79.152c20.43-19.929,42.728-37.857,66.926-53.183c18.824-11.922,38.71-21.714,60.628-26.405
	c12.338-2.64,24.999-4.459,37.296,0.608c10.446,4.305,17.757,11.624,20.216,22.969c0.448,2.07-0.162,4.37-0.283,6.564
	c-0.465,0.073-0.929,0.146-1.393,0.221c-0.741-1.778-1.414-3.589-2.235-5.329c-5.206-11.025-15.312-13.683-26.012-14.387
	c-24.384-1.606-46.905,5.062-68.631,15.742c-19.928,9.797-38.032,22.188-55.495,35.766c-28.642,22.27-53.722,48.323-78.866,74.241
	c-16.286,16.786-31.476,34.67-46.642,52.499c-12.742,14.979-24.99,30.396-36.939,46.017c-4.521,5.909-7.451,13.016-11.376,19.41
	c-2.141,3.487-5.245,8.101-9.532,5.543c-4.015-2.395-0.755-7.157,1.058-10.038c4.508-7.167,9.216-14.341,14.81-20.655
	c5.406-6.102,7.547-13.463,9.444-20.716c5.519-21.095,10.106-42.431,15.257-63.623c4.935-20.303,11.236-40.164,20.885-58.783
	c7.932-15.309,16.542-30.211,29.299-42.179c8.442-7.921,16.989-15.73,25.98-24.044c-6.113,2.741-12.504,4.531-17.643,8.117
	c-13.804,9.632-27.716,19.289-40.396,30.306c-17.747,15.418-34.803,31.691-51.438,48.314
	c-16.164,16.152-31.357,33.271-47.107,49.842c-10.99,11.562-21.876,23.251-33.38,34.288c-23.052,22.118-48.23,41.418-77.196,55.328
	c-20.224,9.712-41.361,16.85-63.522,20.347c-10.056,1.586-20.417,2.447-30.564,1.98c-17.938-0.825-34.273-6.065-44.841-22.224
	c-7.229-11.055-8.596-23.578-6.578-36.03c1.62-10.002,4.576-20.089,8.8-29.282c4.314-9.391,10.224-18.27,16.642-26.421
	c10.018-12.725,21.771-23.822,35.438-32.793C781.168,429.176,802.015,420.03,824.952,415.536z M1079.423,165.562
	c-1.061,0.11-1.873,0.327-2.66,0.256c-10.623-0.96-21.227-2.248-31.869-2.836c-5.731-0.316-11.541,0.41-17.294,0.915
	c-10.474,0.92-21.065,1.303-31.366,3.211c-18.4,3.41-36.707,7.438-54.896,11.853c-20.771,5.042-40.844,12.297-60.128,21.555
	c-21.437,10.292-41.59,22.55-60.033,37.761c-11.927,9.835-22.787,20.451-31.028,33.469c-6.562,10.366-12.009,21.197-9.866,34.324
	c1.845,11.302,8.107,18.793,18.488,22.71c13.406,5.059,27.292,4.758,41.357,3.195c19.086-2.119,36.807-8.445,53.982-16.499
	c23.574-11.055,45.637-24.723,66.886-39.729c29.23-20.642,55.705-44.576,81.792-68.928c15.311-14.293,30.033-29.216,45-43.876
	c17.586-17.226,34.845-34.799,52.803-51.627c20.236-18.964,40.727-37.695,61.84-55.667c10.128-8.62,21.678-15.696,33.094-22.632
	c7.055-4.286,15.07-6.992,22.654-10.407c0.043-0.414,0.087-0.829,0.13-1.243c-20.725-2.5-41.408-5.456-62.188-7.349
	c-15.633-1.425-31.386-1.685-47.096-2.063c-7.422-0.179-14.868,0.564-22.302,0.915c-13.869,0.653-27.772,0.923-41.597,2.104
	c-13.2,1.128-26.441,2.558-39.445,5.014c-28.444,5.373-54.693,15.884-77.027,35.009c-15.267,13.073-26.286,28.446-29.412,48.846
	c-2.934,19.148,0.696,36.185,15.931,49.084c7.062,5.979,15.732,9.672,25.357,8.85c11.762-1.003,23.465-3.559,35.21-3.675
	c18.354-0.183,36.734,0.911,55.071,2.002C1073.771,160.28,1078.789,159.863,1079.423,165.562z M1132.663,332.671
	c-6.402-2.615-12.754-5.368-19.217-7.824c-33.907-12.888-69.504-15.459-105.245-16.895c-6.576-0.264-13.208,0.441-19.795,0.943
	c-11.635,0.888-23.283,1.713-34.875,3.013c-21.95,2.46-42.449,10.203-62.306,19.202c-19.863,9.001-37.62,21.51-51.324,38.843
	c-8.065,10.2-13.832,21.482-12.563,35.198c0.576,6.236,3.979,9.408,9.55,8.708c13.323-1.674,26.661-2.1,39.834,1.052
	c18.055,4.32,33.337,19.401,31.502,38.303c-0.475,4.891-2.607,9.657-4.315,14.358c-0.328,0.905-2.229,1.238-3.404,1.836
	c-0.068-1.126-0.195-2.253-0.181-3.377c0.009-0.64,0.138-1.326,0.402-1.905c2.976-6.533,2.666-13.201,0.738-19.885
	c-3.542-12.279-12.248-19.476-23.9-23.352c-15.021-4.995-30.189-2.902-45.067,0.522c-16.737,3.853-32.354,10.717-47.437,19.044
	c-25.932,14.316-47.784,33.129-64.222,57.739c-9.828,14.714-16.938,30.564-13.526,49.234c2.785,15.234,10.938,25.985,25.466,31.362
	c16.468,6.095,33.171,4.142,49.807,0.455c18.642-4.132,35.908-11.762,52.28-21.35c10.399-6.091,20.806-12.354,30.373-19.64
	c16.299-12.41,32.202-25.377,47.784-38.681c16.179-13.812,32.061-28.004,47.564-42.569c20.573-19.327,40.386-39.467,61.048-58.694
	c12.499-11.63,25.48-22.876,39.151-33.081C1082.124,349.304,1104.123,334.158,1132.663,332.671z"/>
<path fill-rule="evenodd" clip-rule="evenodd" d="M962.52,873.72c7.212,1.583,13.006,3.018,18.863,4.107
	c12.988,2.416,25.932,5.797,39.036,6.68c15.702,1.059,31.845,2.335,47.01-3.791c10.753-4.344,13.785-11.975,5.106-21.351
	c-1.007-1.088-0.878-3.227-1.275-4.879c1.89-0.238,4.15-1.271,5.609-0.589c10.945,5.12,15.566,22.662,5.856,32.347
	c-8.857,8.835-19.45,13.057-31.379,14.56c-8.314,1.048-16.814,2.523-25.059,1.81c-13.97-1.209-27.978-3.224-41.648-6.318
	c-16.79-3.801-33.172-9.384-49.911-13.456c-4.25-1.033-9.29,0.278-13.784,1.31c-17.428,4.001-34.683,8.823-52.199,12.358
	c-12.803,2.584-25.87,4.264-38.901,5.212c-17.656,1.284-35.415,2.373-53.085,1.893c-16.86-0.458-33.657-3.098-50.493-4.666
	c-19.266-1.796-37.93-6.576-56.289-12.244c-20.704-6.393-41.034-14.06-59.633-25.439c-11.67-7.14-23.401-14.345-34.19-22.701
	c-7.509-5.816-13.674-13.453-19.993-20.668c-2.005-2.289-3.561-2.279-5.845-1.498c-30.356,10.379-61.104,19.345-92.62,25.51
	c-13.596,2.659-27.134,5.7-40.816,7.797c-10.864,1.664-21.955,1.801-32.863,3.24c-25.562,3.374-51.268,3.637-76.9,2.679
	c-19.64-0.734-39.257-3.248-58.775-5.809c-22.128-2.902-43.301-9.47-63.042-20.02c-16.266-8.691-31.04-19.27-38.467-37.083
	c-5.709-13.692-6.034-34.389,7.989-45.787c0.769-0.625,1.393-1.58,2.262-1.904c2.696-1.004,5.606-4.317,8.277-0.523
	c2.551,3.625-1.63,4.67-3.379,6.127c-9.145,7.615-12.151,24.979-7.119,37.34c5.955,14.629,17.183,24.047,30.214,31.845
	c16.707,9.996,35.15,15.552,53.911,19.641c13.066,2.848,26.525,4.5,39.888,5.229c19.726,1.077,39.544,1.563,59.281,0.959
	c14.699-0.45,29.382-2.688,43.983-4.759c13.395-1.899,26.772-4.187,39.971-7.141c13.309-2.979,26.431-6.831,39.553-10.588
	c13.596-3.892,27.12-8.042,40.626-12.237c12.104-3.761,24.134-7.757,36.209-11.607c3.217-1.025,6.482-1.896,9.642-2.812
	c-0.461-23.439,17.747-35.998,36.287-39.466c10.281-1.923,20.953-3.445,31.314-2.841c13.804,0.806,27.718,2.894,41.132,6.242
	c11.284,2.818,22.033,1.31,33.021,0.149c6.998-0.739,13.945-2.395,20.944-2.591c22.591-0.633,45.204-1.283,67.792-0.913
	c12.251,0.2,24.502,2.203,36.692,3.848c15.371,2.073,30.82,3.939,45.986,7.098c25.657,5.342,49.561,15.515,70.512,31.286
	c12.472,9.389,22.533,21.461,20.377,38.786c-0.987,7.938-3.836,15.646-5.933,23.817c4.672-1.585,9.931-3.045,14.932-5.127
	c18.044-7.513,36.046-15.132,53.98-22.9c24.676-10.688,49.124-21.919,73.961-32.216c18.466-7.655,37.108-15.128,56.191-20.99
	c22.36-6.868,45.18-12.361,68.005-17.548c12.078-2.744,24.579-3.678,36.913-5.244c19.815-2.516,39.671-4.455,59.698-4.051
	c10.361,0.209,20.819-0.827,31.077,0.227c18.645,1.916,37.29,3.997,55.398,9.609c13.646,4.229,26.663,9.405,38.751,17.09
	c10.825,6.882,19.671,15.753,24.609,27.377c5.219,12.285,7.134,31.394-6.104,41.781c-1.396,1.096-3.488,1.857-5.241,1.829
	c-3.238-0.054-4.238-1.997-1.888-4.469c6.312-6.637,8.45-14.389,7.953-23.469c-0.463-8.447-3.896-15.613-8.762-21.871
	c-12.39-15.937-29.929-23.823-48.799-29.005c-10.969-3.012-22.087-5.562-33.245-7.778c-6.576-1.308-13.347-1.825-20.058-2.218
	c-9.92-0.58-19.909-1.484-29.789-0.904c-18.697,1.097-37.337,3.157-56.001,4.807c-18.943,1.675-37.358,6.159-55.429,11.681
	c-19.565,5.979-39.099,12.348-58.018,20.084c-27.148,11.101-53.668,23.731-80.569,35.449c-21.478,9.356-43.005,18.62-64.744,27.343
	C987.655,865.979,975.723,869.318,962.52,873.72z M908.815,874.219c-0.062-0.386-0.123-0.771-0.185-1.157
	c-9.53-3.726-19.131-7.281-28.575-11.212c-16.987-7.07-33.98-14.141-50.787-21.627c-18.156-8.087-36.064-16.729-54.15-24.979
	c-11.713-5.343-23.466-10.611-35.348-15.56c-17.125-7.132-34.343-14.043-51.624-20.781c-2.685-1.047-6.034-1.32-8.881-0.826
	c-6.068,1.056-12.066,2.65-17.991,4.375c-24.332,7.086-48.649,14.222-72.919,21.519c-7.693,2.313-15.219,5.187-23.256,7.952
	c2.124,2.58,3.656,4.733,5.477,6.605c10.742,11.051,23.644,19.136,37.089,26.353c18.866,10.126,38.462,18.556,59.178,24.189
	c13.325,3.624,26.555,7.72,40.041,10.602c11.645,2.489,23.563,3.799,35.411,5.2c13.365,1.582,26.777,2.787,40.188,3.937
	c4.467,0.383,8.991,0.108,13.489,0.101c11.033-0.021,22.167,0.87,33.076-0.308c17.029-1.839,33.948-4.849,50.832-7.826
	C889.608,879.061,899.176,876.435,908.815,874.219z M705.541,772.718c-0.02,0.468-0.038,0.936-0.058,1.403
	c0.386,0.232,0.747,0.529,1.162,0.687c21.589,8.204,43.399,15.872,64.723,24.717c28.882,11.979,57.226,25.255,86.111,37.225
	c21.615,8.957,43.705,16.775,65.646,24.933c1.523,0.567,4.329,0.436,5.231-0.559c3.721-4.097,7.611-8.302,10.128-13.148
	c2.05-3.946,3.556-9.032,3.006-13.318c-2.035-15.871-12.364-25.922-25.451-33.913c-16.875-10.305-35.429-16.413-54.215-21.673
	c-11.881-3.327-24.199-5.233-36.417-7.171c-11.146-1.769-22.399-3.521-33.646-3.839c-15.57-0.438-31.199,0.086-46.765,0.924
	C731.816,769.694,718.691,771.434,705.541,772.718z M648.304,768.35c-0.719-0.567-1.175-1.225-1.729-1.321
	c-16.826-2.947-33.631-5.766-50.85-3.236c-8.632,1.269-17.079,2.907-24.241,8.115c-6.901,5.019-12.363,11.115-12.051,20.162
	C589.13,784.144,618.585,776.281,648.304,768.35z"/>
<path fill-rule="evenodd" clip-rule="evenodd" d="M1392.297,467.668c13.1-8.456,23.806-22.602,43.69-20.531
	c-4.636,4.116-8.627,7.403-12.326,10.991c-14.918,14.467-30.199,28.598-44.468,43.683c-12.3,13.005-23.485,27.071-34.973,40.827
	c-2.154,2.579-3.655,5.807-4.966,8.94c-0.567,1.358-0.479,3.778,0.392,4.73c0.894,0.979,3.467,1.512,4.677,0.932
	c6.717-3.223,13.763-6.13,19.725-10.478c12.559-9.158,25.043-18.555,36.592-28.929c16.707-15.006,32.631-30.89,48.747-46.545
	c10.206-9.915,20.212-20.039,30.147-30.226c1.356-1.391,1.732-3.715,2.646-5.564c7.429-15.042,26.691-28.719,45.307-26.579
	c0.998,0.115,1.93,0.81,4.318,1.864c-5.247,3.491-9.438,6.402-13.748,9.122c-7.451,4.701-15.105,9.093-22.408,14.01
	c-2.985,2.009-5.277,5.047-8.771,8.489c4.175,2.206,6.985,4.275,10.135,5.256c15.476,4.817,14.829,12.578,8.972,23.516
	c-7.395,13.809-18.178,25.088-29.819,35.753c-13.509,12.375-25.859,26.023-38.535,39.289c-2.624,2.746-5.062,6.882-2.644,10.243
	c2.539,3.53,6.568,0.777,9.869-0.429c13.068-4.774,24.292-12.686,34.994-21.268c12.936-10.372,25.473-21.24,38.446-32.113
	c1.1,1.004,2.136,1.95,3.209,2.931c-0.384,0.662-0.533,1.178-0.874,1.47c-11.994,10.268-23.514,21.176-36.156,30.572
	c-11.868,8.821-24.629,16.575-37.57,23.767c-7.851,4.361-16.247,4.156-20.615-2.157c-3.923-5.672-2.735-11.669-1.162-17.777
	c2.608-10.131,8.149-18.711,15.283-25.896c14.416-14.521,29.511-28.369,44.284-42.537c3.897-3.736,7.771-7.513,11.427-11.481
	c3.562-3.864,2.973-6.306-1.627-8.658c-3.911-2.002-7.794-4.061-12.521-6.527c-8.036,8.476-16.514,17.73-25.349,26.629
	c-6.169,6.214-12.934,11.831-19.236,17.917c-5.268,5.087-10.094,10.633-15.404,15.672c-5.493,5.212-11.265,10.139-17.041,15.042
	c-7.505,6.371-14.979,12.797-22.746,18.838c-11.454,8.908-22.763,18.123-37.004,22.518c-5.714,1.764-11.186,1.671-15.664-2.57
	c-4.14-3.921-5.266-8.896-3.172-14.409c1.75-4.609,3.43-9.245,5.206-14.046c-5.705,4.45-11.251,9.152-17.177,13.312
	c-10.243,7.192-20.197,14.984-32.787,17.963c-13.446,3.182-22.092-3.555-18.316-18.328c0.798-3.122,1.399-6.295,2.107-9.516
	c-8.967,6.59-17.694,13.149-26.578,19.49c-7.934,5.662-16.79,9.677-26.434,10.742c-7.206,0.797-16.977-5.02-17.204-14.204
	c-0.35-14.166,6.528-24.946,15.079-34.694c15.37-17.523,31.502-34.379,47.276-51.549c1.312-1.428,2.329-3.124,3.372-4.545
	c-8.841-0.739-17.654,2.282-26.398,0.432c-0.116-0.809-0.232-1.617-0.349-2.427c3.743-0.918,7.44-2.276,11.237-2.659
	c6.731-0.679,13.531-0.66,20.283-1.183c1.453-0.113,3.093-0.992,4.192-2.009c10.819-10.007,21.236-20.47,32.366-30.113
	c15.468-13.402,31.734-25.788,50.458-34.513c9.211-4.293,19.087-5.406,29.024-6.236c1.029-0.086,2.107,0.411,4.241,0.87
	c-38.226,15.112-64.345,44.374-93.407,69.78c0.125,0.436,0.25,0.87,0.374,1.306c7.87,0,15.746-0.166,23.607,0.104
	c2.28,0.079,6.485,1.486,6.458,2.149c-0.188,4.617-4.095,2.531-6.488,2.666c-9.422,0.531-18.866,0.652-28.289,1.177
	c-1.585,0.089-3.451,1.077-4.594,2.234c-14.25,14.43-28.727,28.658-42.441,43.584c-9.415,10.247-17.868,21.396-26.457,32.372
	c-2.479,3.167-4.451,6.966-5.673,10.789c-0.735,2.302-0.453,5.979,0.986,7.623c1.363,1.557,5.002,2.112,7.351,1.648
	c11.878-2.35,21.332-9.534,30.662-16.645c7.958-6.063,15.774-12.381,23.096-19.186c4.078-3.791,7.113-8.737,10.449-13.287
	c10.849-14.793,24.557-26.557,39.293-37.224c15.406-11.152,31.648-20.833,50.072-26.11c5.746-1.646,11.85-2.534,17.828-2.761
	c8.76-0.332,12.637,5.287,9.576,13.569C1396.926,460.461,1394.377,463.94,1392.297,467.668z M1280.288,558.574
	c4.001-1.72,8.242-3.032,11.964-5.227c22.405-13.214,41.121-31.033,59.807-48.806c9.129-8.683,17.902-17.801,26.191-27.284
	c5.658-6.474,10.499-13.731,15.124-21.008c2.547-4.006-0.57-8.05-5.279-7.293c-2.685,0.432-5.382,1.356-7.837,2.547
	c-22.735,11.021-41.188,27.895-59.475,44.747c-11.661,10.747-22.358,22.635-32.68,34.701c-5.094,5.956-8.702,13.3-12.311,20.359
	C1273.893,555.029,1276.187,557.874,1280.288,558.574z"/>
<path fill-rule="evenodd" clip-rule="evenodd" d="M595.439,460.501c-8.788,0.485-17.265,0.953-25.74,1.421
	c-0.282-0.474-0.563-0.947-0.845-1.421c1.509-1.208,2.891-3.223,4.549-3.483c6.474-1.017,13.158-2.583,19.531-1.867
	c7.991,0.897,12.618-3.536,17.556-7.967c11.686-10.484,22.99-21.401,34.856-31.674c13.915-12.046,29.249-22.254,46.355-29.024
	c7.712-3.052,16.58-3.206,24.941-4.565c0.998-0.162,2.108,0.371,4.019,0.752c-38.455,14.887-64.416,44.844-93.712,71.195
	c5.368,0,10.752-0.252,16.101,0.073c5.064,0.307,10.405-1.462,15.59,2.626c-1.741,0.767-3.452,2.11-5.229,2.204
	c-10.091,0.531-20.202,0.675-30.295,1.18c-1.776,0.089-3.987,0.784-5.173,2.002c-15.853,16.298-31.893,32.435-47.18,49.254
	c-9.655,10.624-19.518,21.293-25.808,34.523c-0.422,0.888-1.285,1.744-1.288,2.618c-0.012,2.906-0.793,6.863,0.746,8.432
	c1.588,1.619,5.772,1.783,8.425,1.084c13.75-3.628,24.952-12.004,35.689-20.801c12.729-10.429,24.909-21.525,37.489-32.141
	c1.297-1.094,3.696-0.88,5.583-1.273c-0.635,1.798-0.74,4.188-1.987,5.301c-10.563,9.424-21.144,18.851-32.108,27.801
	c-8.218,6.707-16.835,12.968-25.6,18.949c-7.588,5.179-16.054,8.678-25.227,10.044c-10.479,1.56-19.788-9.636-16.947-20.518
	c1.382-5.294,3.345-10.437,5.252-16.284c-5.647,4.558-10.966,9.089-16.532,13.291c-10.794,8.149-21.336,16.793-34.63,20.756
	c-5.561,1.657-10.925,1.792-15.558-2.678c-4.664-4.5-4.79-9.804-2.913-15.404c1.424-4.247,3.207-8.374,4.247-11.055
	c-13.092,8.425-26.966,17.854-41.396,26.335c-4.377,2.573-10.251,3.179-15.515,3.519c-6.932,0.447-11.096-4.427-11.357-11.306
	c-0.545-14.333,6.517-25.798,14.045-36.924c14.596-21.572,34.199-37.867,56.062-51.599c13.446-8.444,27.474-15.79,43.039-19.448
	c4.451-1.046,9.404-1.182,13.921-0.455c7.64,1.23,9.418,4.949,6.962,12.299c-0.555,1.659-1.263,3.266-1.209,5.443
	c2.72-3.095,5.262-6.369,8.19-9.25c10.42-10.252,20.742-20.621,31.522-30.486c22.059-20.188,44.062-40.518,69.093-57.068
	c17.239-11.399,30.88-15.235,49.354-14.86c-4.895,2.403-9.309,3.997-13.088,6.534c-11.237,7.547-22.563,15.031-33.224,23.349
	c-12.814,9.998-25.007,20.796-37.408,31.319c-3.902,3.312-7.726,6.737-11.385,10.316c-19.264,18.848-38.608,37.615-57.628,56.707
	c-10.752,10.792-21.22,21.901-31.288,33.332c-9.319,10.58-18.014,21.717-26.798,32.756c-1.791,2.251-3.023,5.06-4.039,7.788
	c-1.464,3.932,1.054,6.799,4.824,5.092c7.818-3.538,15.839-7.049,22.803-11.953c10.703-7.536,20.763-16.027,30.761-24.508
	c8.25-6.997,16.325-14.26,23.925-21.951c11.88-12.023,23.296-24.505,34.893-36.808C594.961,461.704,595.083,461.213,595.439,460.501
	z M420.258,557.874c0.55-0.203,2.423-0.734,4.155-1.56c20.89-9.95,37.831-25.312,54.539-40.771
	c12.059-11.158,23.419-23.141,34.363-35.404c6.145-6.885,10.965-14.99,16.022-22.778c1.106-1.703,1.627-5.785,0.782-6.357
	c-2.006-1.358-5.364-2.319-7.507-1.558c-5.46,1.941-10.879,4.412-15.737,7.562c-20.25,13.126-37.623,29.798-55.128,46.204
	c-9.274,8.693-17.877,18.209-25.956,28.034c-4.787,5.822-8.359,12.773-11.724,19.59
	C411.837,555.355,413.944,557.842,420.258,557.874z"/>
<path fill-rule="evenodd" clip-rule="evenodd" d="M1254.618,145.384c-3.9,3.48-7.961,6.798-11.672,10.47
	c-13.624,13.479-27.607,26.638-40.556,40.743c-14.002,15.253-27.058,31.379-40.361,47.263c-1.817,2.171-2.958,5.05-3.868,7.782
	c-0.477,1.43-0.34,3.8,0.565,4.744c0.912,0.951,3.326,1.285,4.724,0.817c10.671-3.567,19.914-9.748,28.651-16.644
	c9.4-7.419,18.837-14.838,27.706-22.866c5.335-4.83,9.649-10.797,14.362-16.304c2.985-3.487,5.633-7.29,8.821-10.572
	c16.57-17.061,32.962-34.311,50.011-50.883c14.087-13.692,28.597-27.018,43.663-39.616c15.679-13.11,31.881-25.676,48.55-37.499
	c13.061-9.264,28.165-13.556,44.716-12.161c-0.858,0.42-1.688,0.916-2.578,1.247c-11.626,4.326-21.668,11.298-31.342,18.849
	c-9.422,7.354-18.815,14.75-28.085,22.295c-5.619,4.574-11.225,9.212-16.415,14.256c-29.571,28.734-59.422,57.201-88.321,86.601
	c-13.319,13.55-24.827,28.903-36.853,43.687c-2.94,3.615-4.961,8.082-6.851,12.399c-0.785,1.794-0.949,4.958,0.116,6.167
	c1.154,1.31,4.392,1.964,6.158,1.331c5.199-1.86,10.588-3.83,15.06-6.963c12.313-8.624,24.328-17.694,36.2-26.923
	c7.265-5.646,13.983-11.992,21.105-17.832c1.479-1.214,3.653-1.579,5.507-2.336c0.369,0.443,0.738,0.886,1.107,1.328
	c-1.017,1.429-1.785,3.158-3.089,4.241c-15.66,12.999-31.014,26.413-47.274,38.619c-8.479,6.365-18.42,10.901-28.024,15.604
	c-6.013,2.944-12.613,3.114-17.947-1.926c-5.447-5.147-4.364-11.491-2.283-17.787c1.004-3.038,2.049-6.062,3.155-9.327
	c-9.564,6.946-18.694,14.01-28.277,20.393c-6.857,4.567-13.677,9.306-22.724,9.431c-9.9,0.138-16.064-8.004-13.435-18.062
	c1.179-4.512,2.86-8.892,4.624-14.281c-6.732,5.168-12.568,10.23-18.973,14.425c-8.831,5.783-17.744,11.685-27.319,15.981
	c-4.578,2.054-11.061,1.669-16.141,0.336c-6.138-1.612-7.177-8.348-4.984-16.9c3.617-14.112,12.031-25.356,21.272-35.933
	c19.258-22.043,41.692-40.484,66.217-56.424c7.9-5.134,16.706-6.107,26.973-6.475c-11.25,9.7-21.751,18.527-31.984,27.655
	c-7.175,6.399-14.027,13.164-20.949,19.843c-15.477,14.933-30.353,30.413-42.916,47.948c-1.895,2.646-3.825,5.396-4.981,8.39
	c-0.695,1.799-0.627,4.697,0.429,6.097c0.763,1.011,4.084,1.105,5.634,0.336c7.98-3.96,16.237-7.64,23.518-12.688
	c22.854-15.845,41.377-36.545,61.124-55.867c14.127-13.822,28.408-27.627,45.318-37.969c6.391-3.908,14.527-4.96,21.869-7.314
	C1253.92,143.868,1254.27,144.626,1254.618,145.384z"/>
<path fill-rule="evenodd" clip-rule="evenodd" d="M1249.449,444.214c-4.584,3.836-8.274,6.88-11.913,9.983
	c-2.757,2.352-5.578,4.647-8.146,7.195c-12.067,11.967-24.249,23.827-36.026,36.075c-15.378,15.994-30.362,32.365-45.612,48.484
	c-14.134,14.939-27.893,30.283-42.708,44.521c-27.324,26.257-57.702,48.452-92.349,64.21c-20.052,9.12-40.868,15.931-62.815,19.353
	c-19.681,3.068-39.015,2.567-57.977-3.289c-17.192-5.31-31.943-14.443-40.141-31.304c-2.93-6.026-5.392-12.594-3.289-19.655
	c0.213-0.713,0.95-1.27,2.202-2.864c1.077,2.608,2.243,4.472,2.615,6.482c3.607,19.529,16.268,31.082,33.679,38.457
	c15.661,6.634,32.196,8.07,48.857,6.863c17.012-1.231,33.614-5.376,48.918-12.865c16.226-7.939,32.402-16.315,47.435-26.264
	c14.561-9.637,28.087-21.001,41.253-32.536c16.306-14.284,31.978-29.316,47.521-44.438c8.642-8.406,16.472-17.647,24.646-26.532
	c0.374-0.407,0.526-1.019,1.182-2.341c-8.45,7.109-16.006,13.806-23.925,20.04c-10.007,7.878-20.204,15.52-32.731,19.207
	c-5.877,1.73-11.731,1.696-16.236-2.404c-4.174-3.801-4.028-9.164-2.599-14.638c3.223-12.333,9.883-22.756,17.925-32.25
	c6.742-7.959,13.91-15.673,21.656-22.644c16.31-14.676,32.67-29.516,52.487-39.405c6.363-3.176,13.954-3.891,20.982-5.731
	c0.28,0.577,0.56,1.154,0.84,1.732c-2.878,2.512-5.802,4.971-8.624,7.543c-15.507,14.138-30.951,28.344-46.49,42.445
	c-16.507,14.98-31.666,31.13-43.831,49.91c-0.784,1.211-1.627,2.581-1.784,3.952c-0.198,1.736-0.316,4.063,0.644,5.177
	c0.847,0.981,3.536,1.357,4.867,0.769c5.95-2.629,12.284-4.924,17.42-8.759c14.039-10.483,27.906-21.262,41.173-32.7
	c17.749-15.303,34.74-31.481,52.316-46.99c7.976-7.038,16.402-13.602,24.945-19.948
	C1232.371,444.185,1240.103,443.318,1249.449,444.214z"/>
<path fill-rule="evenodd" clip-rule="evenodd" d="M750.258,161.664c2.815-3.211,5.446-6.609,8.48-9.598
	c10.293-10.136,20.502-20.375,31.158-30.121c22.056-20.174,44.12-40.391,69.049-57.077c14.577-9.757,30.532-15.498,49.801-14.917
	c-4.293,2.019-7.402,3.49-10.521,4.944c-13.64,6.356-25.257,15.64-36.651,25.258c-12.425,10.486-24.923,20.887-37.328,31.396
	c-3.777,3.201-7.468,6.522-11.006,9.985c-19.372,18.961-38.827,37.84-57.959,57.041c-10.632,10.669-21.011,21.63-30.92,32.97
	c-10.865,12.435-23.119,23.88-30.287,39.171c-0.729,1.555-1.234,4.399-0.42,5.202c1.096,1.081,3.572,0.945,5.462,0.975
	c1.24,0.02,2.662-0.312,3.711-0.961c9.837-6.083,20.17-11.545,29.272-18.592c13.892-10.755,26.885-22.668,40.385-33.938
	c1.037-0.865,3.064-0.545,4.631-0.775c0.328,0.648,0.656,1.296,0.983,1.944c-5.348,5.002-10.551,10.171-16.08,14.965
	c-7.435,6.446-15.056,12.686-22.716,18.866c-11.568,9.334-23.25,18.636-37.263,24.069c-12.219,4.738-23.188-1.134-21.561-14.489
	c0.403-3.312,1.958-6.508,3.169-9.687c0.737-1.936,1.831-3.736,3.021-6.11c-10.902,7.765-21.044,15.519-31.734,22.423
	c-7.776,5.021-15.922,9.787-25.888,9.302c-7.326-0.356-11.446-4.478-11.719-11.653c-0.536-14.153,6.398-25.533,13.815-36.497
	c14.67-21.687,34.333-38.158,56.389-51.908c13.329-8.309,27.118-15.751,42.593-19.209c4.469-0.999,9.395-1.478,13.847-0.693
	c8.289,1.46,10.164,5.591,7.194,13.367c-0.506,1.325-1.204,2.576-1.813,3.862C749.654,161.34,749.956,161.502,750.258,161.664z
	 M636.301,257.857c0.513-0.178,2.263-0.602,3.853-1.361c20.871-9.971,37.861-25.271,54.57-40.73
	c12.181-11.271,23.659-23.371,34.721-35.754c6.147-6.882,10.956-14.999,15.996-22.8c1.093-1.691,1.571-5.596,0.604-6.401
	c-1.699-1.412-5.117-2.248-7.138-1.499c-5.593,2.073-11.157,4.592-16.162,7.819c-20.147,12.986-37.371,29.581-54.766,45.859
	c-9.403,8.8-18.115,18.441-26.311,28.387c-4.793,5.816-8.342,12.785-11.708,19.603C627.815,255.323,630.122,257.901,636.301,257.857
	z"/>
<path fill-rule="evenodd" clip-rule="evenodd" d="M306.309,545.267c0.014-13.59,6.418-24.812,13.765-35.483
	c14.251-20.698,32.732-36.951,54.184-49.874c12.168-7.331,24.791-13.794,38.928-16.312c5.006-0.892,10.346-1.143,15.362-0.45
	c7.19,0.992,10.495,8.355,8.426,16.639c-3.251,13.015-10.749,23.71-19.006,33.806c-6.889,8.424-14.184,16.629-22.099,24.08
	c-16.706,15.729-33.578,31.408-54.508,41.61c-4.785,2.333-9.915,4.246-15.098,5.417C315.474,567.136,306.37,558.014,306.309,545.267
	z M324.914,559.378c2.151-0.666,4.431-1.067,6.434-2.04c15.724-7.632,28.539-19.307,40.928-31.174
	c14.721-14.102,28.766-28.979,42.23-44.288c6.382-7.257,11.042-16.121,15.896-24.593c3.007-5.249-0.044-10.318-5.142-9.217
	c-4.079,0.882-8.23,2.312-11.827,4.398c-18.747,10.883-34.853,25.195-50.244,40.25c-9.933,9.715-19.393,19.964-28.461,30.494
	c-6.788,7.882-13.488,16.038-16.643,26.33C316.272,555.453,318.663,558.852,324.914,559.378z"/>
<path fill-rule="evenodd" clip-rule="evenodd" d="M522.214,246.609c0.188-14.983,6.5-26.247,13.913-36.878
	c16.023-22.979,36.623-41.024,61.529-53.74c10.042-5.127,20.863-8.913,31.642-12.325c4.711-1.492,10.305-1.213,15.318-0.493
	c7.192,1.031,10.375,8.332,8.32,16.675c-3.171,12.871-10.595,23.431-18.688,33.427c-6.95,8.584-14.402,16.877-22.433,24.448
	c-16.696,15.742-33.6,31.385-54.517,41.601c-4.781,2.335-9.917,4.464-15.114,5.314C533.848,266.002,520.638,260.62,522.214,246.609z
	 M540.937,259.38c2.149-0.671,4.424-1.083,6.428-2.055c15.729-7.626,28.537-19.31,40.926-31.177
	c14.721-14.102,28.767-28.978,42.23-44.288c6.381-7.256,11.037-16.124,15.887-24.599c3-5.242-0.072-10.311-5.168-9.194
	c-4.077,0.893-8.225,2.323-11.821,4.412c-18.891,10.972-35.104,25.413-50.6,40.602c-9.804,9.608-19.155,19.731-28.105,30.143
	c-6.782,7.888-13.481,16.044-16.639,26.333C532.269,255.44,534.689,258.854,540.937,259.38z"/>
<path fill-rule="evenodd" clip-rule="evenodd" d="M1382.37,412.429c-1.32-11.329,10.661-20.089,18.552-19.446
	c12.331,1.004,19.051,7.91,19.214,19.284c0.151,10.604-8.122,19.559-19.497,19.644C1391.05,431.981,1381.562,423.25,1382.37,412.429
	z M1400.645,423.867c6.947,0.027,11.792-4.785,11.725-11.647c-0.065-6.747-4.681-11.327-11.44-11.352
	c-6.64-0.025-11.723,4.718-11.475,11.37C1389.695,418.705,1394.193,424.868,1400.645,423.867z"/>
</svg>
