<?xml version="1.0" encoding="utf-8"?>
<!-- Generator: Adobe Illustrator 16.0.0, SVG Export Plug-In . SVG Version: 6.00 Build 0)  -->
<!DOCTYPE svg PUBLIC "-//W3C//DTD SVG 1.1//EN" "http://www.w3.org/Graphics/SVG/1.1/DTD/svg11.dtd">
<svg version="1.1" id="Lag_1" xmlns="http://www.w3.org/2000/svg" xmlns:xlink="http://www.w3.org/1999/xlink" x="0px" y="0px"
	 width="2125.212px" height="1097.822px" viewBox="0 0 2125.212 1097.822" enable-background="new 0 0 2125.212 1097.822"
	 xml:space="preserve">
<path fill-rule="evenodd" clip-rule="evenodd" d="M1428.464,428.774c-7.58,5.256-15.05,10.68-22.767,15.727
	c-10.809,7.067-22.452,12.082-35.634,12.14c-12.016,0.052-19.135-9.478-16.276-21.282c0.418-1.726,0.423-3.551,0.641-5.526
	c-8.03,5.672-15.715,11.637-23.938,16.733c-6.039,3.742-12.645,6.689-19.255,9.35c-4.937,1.986-10.539,1.716-14.327-2.228
	c-3.733-3.888-3.799-9.251-2.016-14.391c1.268-3.654,2.617-7.279,4.364-12.122c-5.558,4.387-10.198,8.263-15.06,11.84
	c-8.406,6.186-16.607,12.749-26.817,15.931c-10.309,3.213-19.028-1.8-18.188-10.812c0.371-3.979,1.885-7.863,3.026-11.748
	c0.398-1.355,1.235-2.582,2.271-4.673c-9.168,6.722-17.412,13.187-26.095,18.995c-6.886,4.604-14.001,8.904-22.882,9.051
	c-12.398,0.206-12.689-6.878-10.792-15.141c2.659-11.573,9.268-21.073,16.876-29.993c16.586-19.446,35.829-35.834,57.046-49.967
	c7.426-4.946,15.683-7.168,26.127-6.931c-2.959,2.445-5.031,4.077-7.015,5.811c-8.311,7.269-16.719,14.433-24.853,21.895
	c-8.069,7.402-16.267,14.735-23.661,22.784c-10.231,11.138-19.775,22.906-29.568,34.443c-0.722,0.85-1.324,1.964-1.545,3.044
	c-0.554,2.711-0.857,5.474-1.261,8.216c2.791-0.289,5.897,0.115,8.321-0.984c11.553-5.242,22.031-12.227,31.176-21.066
	c13.387-12.939,26.307-26.388,40.115-38.856c12.653-11.426,26.111-21.978,39.446-32.625c4.704-3.756,13.158-5.107,20.155-4.15
	c-2.664,2.278-5.111,4.113-7.26,6.249c-13.949,13.862-28.306,27.357-41.598,41.826c-11.981,13.041-22.79,27.16-34.061,40.849
	c-0.908,1.103-1.678,2.491-1.987,3.865s-0.512,3.628,0.228,4.186c1.164,0.877,3.545,1.401,4.732,0.779
	c7.479-3.915,15.439-7.344,21.985-12.521c13.546-10.712,26.949-21.763,39.232-33.871c17.1-16.856,32.541-35.405,49.763-52.128
	c17.377-16.873,36-32.468,54.191-48.493c12.679-11.168,25.771-21.917,41.545-28.439c6.06-2.505,12.812-3.367,19.286-4.816
	c2.681-0.6,5.456-0.772,8.571-0.184c-1.725,0.781-3.587,1.352-5.153,2.376c-11.052,7.233-22.799,13.65-32.893,22.05
	c-19.263,16.03-37.795,32.967-56.206,49.985c-14.279,13.198-28.388,26.647-41.709,40.798
	c-15.657,16.633-31.962,32.806-44.428,52.191c-0.793,1.234-1.883,2.442-2.172,3.803c-0.642,3.02-0.861,6.129-1.254,9.202
	c3.125-0.306,6.835,0.37,9.273-1.085c10.629-6.345,20.895-13.296,31.278-20.05c9.864-6.417,15.662-16.381,22.669-25.399
	c8.501-10.943,19.182-19.801,30.522-27.801c13.369-9.433,27.049-18.301,42.924-22.995c3.556-1.052,7.327-1.467,11.033-1.886
	c3.755-0.424,7.413,0.014,9.427,3.858c2.11,4.026,1.167,7.902-0.99,11.631c-6.855,11.844-17.87,18.527-30.062,23.286
	c-7.066,2.758-14.84,6.271-21.974,5.663c-9.602-0.819-13.999,4.691-18.944,10.209c-6.123,6.832-11.979,13.955-17.355,21.383
	c-3.202,4.424-5.706,9.498-7.725,14.597c-2.611,6.59,0.173,10.331,7.063,10.31c8.997-0.027,16.94-3.799,24.343-8.191
	c16.701-9.908,32.407-21.345,45.736-35.533c9.324-9.924,17.572-20.851,26.484-31.17c3.368-3.9,7.251-7.355,10.903-11.01
	c8.248-8.251,16.147-16.89,24.821-24.666c17.405-15.604,35.225-30.746,52.891-46.059c9.691-8.4,20.285-15.434,31.906-20.9
	c8.888-4.182,18.389-4.938,27.919-5.518c-8.011,4.839-16.242,9.115-23.688,14.482c-10.09,7.271-19.787,15.133-29.284,23.176
	c-26.854,22.745-51.93,47.389-76.617,72.438c-1.229,1.247-3.18,1.783-4.794,2.651c0.44,0.366,0.881,0.732,1.321,1.1
	c14.119-7.817,28.026-16.059,42.444-23.278c7.484-3.748,15.759-6.119,23.896-8.285c4.656-1.239,10.529-0.487,12.864,3.935
	c1.776,3.364,1.815,8.917,0.271,12.473c-2.482,5.72-6.467,10.981-10.622,15.731c-5.688,6.503-12.078,12.4-18.263,18.46
	c-9.303,9.113-18.873,17.962-27.961,27.282c-4.672,4.791-8.707,10.242-12.674,15.655c-1.01,1.376-1.49,4.901-0.766,5.422
	c1.535,1.103,4.209,1.574,6.093,1.079c11.29-2.973,20.423-10.003,29.662-16.669c20.025-14.446,37.628-31.611,55.234-48.854
	c10.04-9.833,21.629-18.09,32.582-26.981c5.026-4.079,10.999-5.51,17.354-5.787c1.752-0.077,3.485-0.585,6.641-1.146
	c-3.574,3.581-6.238,6.365-9.024,9.021c-13.202,12.585-26.968,24.632-39.511,37.841c-12.327,12.981-23.458,27.102-35.018,40.803
	c-1.336,1.585-2.402,3.596-2.953,5.586c-0.465,1.678-0.705,4.457,0.223,5.232c1.316,1.1,4.233,1.692,5.705,0.965
	c8.43-4.17,17.276-7.923,24.771-13.457c12.922-9.541,25.78-19.449,37.184-30.706c20.883-20.616,40.184-42.839,61.109-63.409
	c15.248-14.988,32.047-28.398,48.156-42.51c11.232-9.84,22.856-19.296,36.574-25.337c6.862-3.022,14.625-4.027,22.014-5.811
	c2.43-0.587,4.962-0.754,7.723-0.266c-4.675,2.443-9.664,4.433-13.959,7.42c-9.524,6.626-19.042,13.344-27.944,20.766
	c-15.552,12.965-30.748,26.366-45.869,39.837c-6.212,5.533-11.846,11.717-17.738,17.608c-12.848,12.844-26.239,25.196-38.389,38.67
	c-12.842,14.242-24.528,29.531-36.632,44.434c-1.311,1.614-2.359,3.607-2.938,5.597c-0.488,1.676-0.826,4.6,0.024,5.202
	c1.631,1.157,4.519,1.987,6.233,1.308c5.116-2.026,10.353-4.255,14.751-7.483c10.031-7.363,19.609-15.346,29.334-23.123
	c7.044-5.632,13.356-12.623,21.191-16.723c13.275-6.948,23.408-17.32,33.789-27.444c10.591-10.33,20.127-21.736,30.589-32.207
	c6.021-6.026,12.803-11.336,19.542-16.583c4.879-3.799,10.084-4.278,11.393-1.361c1.946,4.34-1.475,7.553-4.233,9.841
	c-8.435,6.994-16.852,14.194-26.125,19.943c-10.989,6.813-15.979,16.221-17.796,28.615c-2.05,13.985-4.067,28.275-12.66,40.173
	c-4.712,6.524-10.362,12.369-15.413,19.067c7.132-4.333,14.208-8.761,21.409-12.975c10.082-5.9,17.498-14.247,24.027-23.856
	c8.494-12.503,20.284-21.819,32.431-30.623c12.6-9.133,25.82-17.197,40.559-22.368c4.241-1.488,8.908-1.874,13.42-2.45
	c3.753-0.479,7.382,0.06,9.368,3.929c2.082,4.055,1.085,7.899-1.074,11.618c-6.869,11.837-17.887,18.487-30.089,23.239
	c-6.924,2.696-14.571,6.365-21.466,5.624c-9.654-1.037-14.121,4.384-19.087,9.929c-6.342,7.083-12.442,14.434-18.042,22.109
	c-3.217,4.411-5.674,9.522-7.683,14.63c-2.245,5.711,0.926,9.813,7.011,9.85c9.008,0.055,16.868-3.741,24.391-8.039
	c15.279-8.729,29.273-19.328,41.959-31.476c14.129-13.53,27.462-27.896,41.687-41.319c8.134-7.676,16.483-15.64,28.327-17.582
	c3.803-0.624,7.643-1.017,11.58-1.53c-14.508,13.2-28.823,26.224-43.138,39.247c0.397,0.495,0.794,0.991,1.19,1.486
	c4.636-3.242,9.271-6.484,13.905-9.726c15.652-10.944,31.125-22.23,49.144-29.124c4.038-1.545,8.479-2.614,12.778-2.78
	c8.211-0.318,13.36,6.293,9.941,13.705c-3.359,7.283-7.763,14.534-13.289,20.277c-12.288,12.77-25.716,24.433-38.37,36.862
	c-6.108,6-11.562,12.674-17.207,19.136c-1.154,1.322-2.166,2.968-2.628,4.635c-0.381,1.373-0.357,3.397,0.426,4.395
	c0.707,0.898,3.017,1.505,4.056,1.023c9.123-4.224,18.552-8.028,27.029-13.332c8.279-5.18,15.891-11.598,23.123-18.207
	c3.88-3.547,6.278-8.69,9.463-13.027c9.051-12.328,20.572-22.065,32.912-30.876c13.179-9.408,26.81-18.072,42.504-22.751
	c3.706-1.104,7.653-1.493,11.521-1.935c3.798-0.434,8.045,0.044,8.982,4.217c0.782,3.48,0.664,8.002-0.964,11.04
	c-6.528,12.182-17.841,18.893-30.294,23.577c-6.959,2.618-14.554,6.283-21.479,5.599c-9.645-0.954-14.055,4.552-19.006,10.094
	c-6.113,6.841-11.979,13.956-17.354,21.385c-3.298,4.559-5.932,9.744-8.04,14.979c-2.445,6.07,0.615,10.07,7.093,10.042
	c9.345-0.041,17.504-4.03,25.213-8.627c16.254-9.692,31.047-21.329,44.722-34.466c13.481-12.951,27.372-25.477,41.082-38.189
	c4.611-4.275,9.304-8.467,13.807-12.854c4.427-4.312,8.156-8.893,11.123-14.661c7.151-13.905,23.312-25.238,41.4-21.349
	c-2.146,2.094-3.54,3.971-5.38,5.158c-8.363,5.398-16.861,10.588-25.286,15.894c-1.235,0.777-2.454,1.654-3.476,2.688
	c-3.222,3.26-2.818,5.438,1.475,7.492c2.923,1.398,6.07,2.341,8.947,3.819c5.319,2.733,6.231,5.907,4.744,11.752
	c-2.745,10.791-9.783,18.931-17.082,26.504c-11.143,11.561-23.411,22.026-34.852,33.312c-4.397,4.338-8.078,9.483-11.572,14.61
	c-1.188,1.745-0.803,4.562-1.137,6.891c2.311,0.068,5.016,0.954,6.861,0.062c7.901-3.813,16.1-7.386,23.163-12.472
	c11.297-8.135,21.79-17.386,32.597-26.198c2.551-2.08,4.863-4.479,7.545-6.358c1.211-0.849,3.06-0.787,4.619-1.139
	c-0.414,1.527-0.342,3.574-1.325,4.493c-5.292,4.948-10.696,9.801-16.345,14.337c-8.416,6.759-16.797,13.619-25.692,19.707
	c-9.504,6.505-18.938,13.707-31.382,13.604c-5.773-0.048-9.271-3.818-9.594-9.612c-0.649-11.653,4.419-21.428,11.822-29.291
	c11.846-12.581,24.971-23.954,37.485-35.909c4.698-4.488,9.353-9.041,13.745-13.821c3.342-3.636,2.648-6.076-1.818-8.309
	c-2.341-1.169-4.759-2.196-7.04-3.47c-0.983-0.55-1.71-1.561-2.935-2.724c-5.998,6.476-11.615,13.274-17.986,19.271
	c-15.041,14.154-30.445,27.923-45.696,41.854c-13.944,12.739-28.652,24.507-45.058,33.929c-9.26,5.318-19.196,9.077-30.124,9.076
	c-12.362-0.001-19.455-9.276-16.583-21.418c0.469-1.983,0.573-4.054,0.702-5.013c-10.365,6.683-21.108,14.112-32.373,20.641
	c-4.953,2.87-10.858,4.939-16.526,5.547c-9.977,1.069-15.557-5.659-13.139-17.632c2.056-10.173,8.187-18.254,15.321-25.132
	c15.227-14.678,31.186-28.592,46.654-43.023c4.13-3.854,7.57-8.445,11.327-12.698c-0.324-0.646-0.647-1.291-0.972-1.937
	c-2.055,0.149-4.233-0.097-6.144,0.509c-14.808,4.693-27.61,13.262-40.423,21.651c-15.664,10.258-30.373,21.69-44.121,34.572
	c-14.03,13.145-25.766,28.109-38.053,42.687c-0.755,0.896-1.873,1.486-2.822,2.219c-0.74-1.106-1.655-2.136-2.189-3.334
	c-1.893-4.248-1.169-8.29,1.192-12.168c3.196-5.248,6.351-10.521,9.379-15.547c-10.28,6.994-20.495,14.665-31.413,21.15
	c-9.128,5.421-19.191,9.076-30.166,8.945c-12.027-0.144-19.203-9.549-16.334-21.323c0.491-2.017,0.685-4.105,1.173-7.139
	c-4.208,2.786-7.863,5.235-11.547,7.642c-15.872,10.371-32.693,18.554-51.783,20.636c-5.478,0.597-11.3,0.105-16.692-1.103
	c-7.256-1.625-9.375-7.499-8.884-14.943c-6.414,3.884-12.216,7.726-18.32,11.003c-6.449,3.463-13.07,6.975-20.866,4.521
	c-5.503-1.732-8.877-7.635-7.339-13.104c1.3-4.623,2.856-9.174,4.629-14.802c-4.534,3.443-8.373,6.267-12.111,9.216
	c-9.033,7.126-18.713,13.154-29.522,17.182c-2.866,1.068-5.948,1.975-8.972,2.123c-10.334,0.508-16.348-4.721-12.965-16.771
	c1.239-4.412,3.294-8.596,5.016-12.985c-8.746,6.332-16.918,13.202-25.995,18.529c-7.899,4.637-16.584,8.304-25.354,10.992
	c-10.266,3.147-17.708-5.899-14.881-17.215c2.538-10.152,8.33-18.615,15.635-25.638c16.569-15.932,33.734-31.243,50.595-46.875
	c1.789-1.658,3.318-3.665,4.652-5.716c0.652-1.004,1.18-3.22,0.718-3.593c-1.116-0.902-3.058-1.743-4.294-1.372
	c-5.593,1.678-11.251,3.363-16.531,5.812c-19.174,8.893-37.496,19.416-53.978,32.631c-13.272,10.644-25.131,22.916-35.229,36.755
	c-5.978,8.19-12.285,16.146-18.09,24.455c-2.461,3.521-4.727,1.943-5.245-0.34c-0.861-3.794-1.117-8.104-0.165-11.822
	c0.935-3.653,3.701-6.836,5.645-10.236c0.746-1.305,1.44-2.639,2.158-3.96C1428.962,429.088,1428.713,428.932,1428.464,428.774z
	 M1733.673,371.777c-0.403-0.269-0.808-0.536-1.212-0.805c-0.715,0.657-1.438,1.306-2.145,1.973
	c-6.135,5.796-12.214,11.653-18.415,17.378c-5.185,4.786-10.561,9.364-15.757,14.139c-3.365,3.093-6.251,6.789-9.893,9.485
	c-8.378,6.2-17.117,11.912-25.65,17.905c-5.75,4.04-7.799,12.12-3.474,15.092c2.54,1.745,6.489,2.793,9.486,2.283
	c11.973-2.038,21.621-8.713,30.31-16.893c11.126-10.476,19.074-23.268,26.051-36.645
	C1727.006,387.962,1730.137,379.764,1733.673,371.777z M1406.5,391.58c0.117,0.458,0.233,0.915,0.351,1.372
	c2.663-0.396,5.404-0.514,7.977-1.235c11.692-3.28,21.797-9.662,30.878-17.415c4.943-4.222,8.793-9.755,12.917-14.873
	c0.689-0.856,0.826-3.145,0.196-3.821c-0.75-0.807-2.61-0.8-3.972-0.741c-0.901,0.038-1.799,0.738-2.651,1.226
	C1435.275,365.765,1420.433,378.094,1406.5,391.58z M1790.171,391.484c0.311,0.571,0.621,1.142,0.932,1.712
	c3.332-0.67,6.794-0.967,9.972-2.079c10.742-3.758,20.459-9.542,28.907-17.059c4.868-4.331,8.736-9.81,12.866-14.926
	c0.599-0.742,0.611-2.719,0.036-3.439c-0.603-0.757-2.254-0.963-3.419-0.9c-1.072,0.059-2.225,0.626-3.143,1.258
	c-8.862,6.099-17.896,11.977-26.447,18.489C1802.997,379.779,1796.717,385.807,1790.171,391.484z M1980.495,391.59
	c0.125,0.466,0.251,0.931,0.376,1.396c2.826-0.428,5.756-0.517,8.46-1.344c11.409-3.488,21.467-9.637,30.387-17.344
	c4.923-4.253,8.79-9.76,12.913-14.879c0.688-0.854,0.817-3.15,0.186-3.821c-0.757-0.804-2.615-0.789-3.979-0.728
	c-0.9,0.041-1.798,0.739-2.65,1.227C2009.271,365.778,1994.42,378.096,1980.495,391.59z"/>
<path fill-rule="evenodd" clip-rule="evenodd" d="M337.74,370.745c11.814-7.776,21.086-19.056,35.316-17.046
	c-4.067,4.531-8.456,9.781-13.236,14.646c-4.986,5.075-10.513,9.617-15.517,14.677c-11.919,12.052-23.93,24.032-35.384,36.519
	c-6.284,6.851-11.76,14.497-17.052,22.163c-1.387,2.01-0.727,5.433-1.007,8.207c2.451-0.274,5.152,0.023,7.313-0.918
	c13.054-5.683,24.181-14.329,34.722-23.696c17.153-15.243,34.219-30.591,51.104-46.129c10.141-9.331,20.047-18.938,29.665-28.804
	c2.456-2.52,3-6.798,5.133-9.756c9.858-13.675,22.558-21.884,41.273-19.595c-1.32,1.481-2.14,2.902-3.365,3.698
	c-9.852,6.395-19.845,12.573-29.623,19.076c-1.733,1.152-3.769,3.577-3.655,5.281c0.107,1.605,2.82,3.088,4.487,4.506
	c0.438,0.372,1.274,0.232,1.886,0.448c12.116,4.271,14.421,9.341,8.094,20.744c-3.775,6.807-8.328,13.457-13.709,19.045
	c-12.724,13.213-26.283,25.617-39.207,38.645c-3.514,3.543-6.234,7.979-8.821,12.303c-2.143,3.581-0.382,6.303,3.831,5.787
	c3.305-0.404,6.882-1.394,9.607-3.217c11.527-7.71,23.141-15.372,34.029-23.934c9.967-7.837,19.289-16.55,28.438-25.352
	c8.848-8.511,16.708-18.07,25.76-26.339c7.408-6.769,14.671-14.259,24.823-17.103c5.125-1.435,10.453-2.146,16.246-3.296
	c-15.513,14.204-30.492,27.921-45.473,41.638c0.378,0.452,0.756,0.904,1.133,1.356c5.474-4.005,10.894-8.085,16.43-12.002
	c16.518-11.685,32.927-23.577,52.564-29.759c1.856-0.584,3.669-1.551,5.561-1.737c11.961-1.18,14.639,3.437,12.431,14.764
	c-0.653,3.347-2.747,6.411-4.604,10.548c6.696-4.108,12.468-8.203,18.715-11.353c9.555-4.816,19.354-9.18,29.216-13.341
	c5.095-2.15,10.319-1.118,14.003,3.042c3.744,4.228,2.829,9.512,0.173,13.796c-3.86,6.224-7.897,12.586-13.024,17.729
	c-14.636,14.684-29.992,28.646-44.771,43.193c-4.4,4.332-8.042,9.506-11.566,14.615c-1.047,1.519-1.401,4.855-0.443,6.034
	c0.947,1.165,4.147,1.32,6.026,0.773c11.993-3.489,21.706-11.071,31.613-18.248c4.104-2.972,8.525-5.674,12.039-9.25
	c4.22-4.295,7.768-9.285,11.355-14.159c9.28-12.606,20.651-23.04,33.257-32.163c13.923-10.077,28.332-19.343,45.051-24.21
	c3.256-0.948,6.675-1.393,10.048-1.862c4.508-0.627,8.172,0.853,10.434,4.975c2.215,4.037,0.471,7.875-1.67,10.994
	c-6.857,9.991-15.949,17.669-27.347,21.805c-8.512,3.089-17.448,6.33-26.304,6.671c-5.796,0.223-8.879,2.207-12.333,5.662
	c-11.317,11.319-22,23.127-29.235,37.599c-2.854,5.71-2.646,10.091,1.519,12.017c2.96,1.368,7.413,1.732,10.356,0.511
	c9.878-4.101,19.979-8.197,28.863-14.021c9.961-6.531,18.571-15.093,27.997-22.479c6.608-5.178,12.176-11.597,20.79-14.383
	c4.502-1.456,8.086-6.011,11.855-9.419c14.307-12.932,28.245-26.136,40.634-41.086c7.38-8.906,17.274-15.729,26.043-23.483
	c0.121-0.107,0.284-0.188,0.441-0.229c3.433-0.881,7.479-4.687,10.059-0.425c1.077,1.778-0.955,7.08-3.14,8.911
	c-9.519,7.979-19.272,15.781-29.599,22.662c-9.46,6.305-13.229,15.158-14.934,25.644c-2.326,14.315-4.071,28.932-12.727,41.176
	c-4.643,6.567-10.339,12.389-15.997,19.062c36.835-19.151,65.842-46.741,92.249-77.987c-6.475,0.334-12.78,0.701-19.091,0.947
	c-1.061,0.041-2.142-0.438-3.213-0.676c0.796-0.826,1.517-2.273,2.398-2.379c6.998-0.843,14.016-1.707,21.05-1.976
	c3.389-0.13,5.835-0.915,8.251-3.398c16.456-16.923,34.02-32.603,53.689-45.736c13.099-8.746,27.238-14.843,43.369-14.978
	c0.8-0.007,1.6,0.089,4.003,0.233c-34.134,13.438-56.879,39.525-82.708,61.604c0.121,0.459,0.241,0.918,0.362,1.378
	c8.957,0,17.914,0,26.871,0c0.153,0.578,0.306,1.155,0.459,1.733c-1.263,0.681-2.495,1.884-3.792,1.957
	c-8.757,0.496-17.538,0.605-26.287,1.196c-2.047,0.138-4.49,1.157-5.921,2.596c-11.132,11.188-22.407,22.268-32.951,33.997
	c-9.755,10.853-18.778,22.374-27.851,33.817c-2.062,2.603-3.228,6.013-4.398,9.2c-1.401,3.812,1.283,7.939,5.121,7.082
	c5.63-1.257,11.645-2.855,16.288-6.059c11.835-8.164,23.395-16.843,34.256-26.249c4.91-4.251,7.346-11.241,11.884-16.067
	c7.881-8.382,15.797-17.043,25.025-23.765c11.95-8.703,24.907-16.179,38.021-23.059c6.147-3.225,13.631-4.021,20.593-5.528
	c4.307-0.933,7.825,0.983,10.002,4.813c2.254,3.967,0.568,7.911-1.545,11.012c-6.824,10.013-15.988,17.534-27.288,21.927
	c-7.24,2.814-14.888,4.583-22.354,6.821c-0.314,0.095-0.664,0.345-0.936,0.277c-12.854-3.207-17.997,7.55-24.326,14.548
	c-7.718,8.534-13.867,18.542-20.219,28.225c-1.902,2.899-3.5,6.739-0.633,10.439c3.437,4.435,8.403,3.822,12.237,2.218
	c10.014-4.191,20.402-8.234,29.206-14.39c13.407-9.376,25.615-20.469,38.304-30.867c2.1-1.721,3.881-4.203,7.678-1.869
	c-1.228,1.662-2.108,3.393-3.46,4.594c-7.51,6.668-14.722,13.773-22.816,19.654c-11.332,8.232-22.975,16.199-35.204,22.98
	c-8.678,4.812-18.525,7.337-28.867,4.566c-6.675-1.787-10.681-6.575-10.711-13.431c-0.017-3.908-0.003-7.817-0.003-11.483
	c-5.61,4.194-11.921,8.874-18.19,13.607c-8.545,6.452-17.758,11.361-28.47,13.22c-9.238,1.603-17.814-8.455-14.992-18.401
	c1.747-6.158,4.581-12.009,6.655-17.302c-9.004,5.937-18.596,12.737-28.646,18.777c-16.354,9.828-33.787,16.728-53.318,15.892
	c-6.18-0.265-12.773-1.034-15.107-8.438c-0.805-2.553-0.796-5.361-1.155-8.032c-6.323,3.544-12.862,7.786-19.874,10.996
	c-9.094,4.163-18.535,7.348-28.905,4.616c-7.024-1.851-10.973-6.479-10.995-13.667c-0.012-3.9-0.002-7.8-0.002-11.447
	c-6.625,4.623-13.946,9.714-21.248,14.833c-8.135,5.703-17.213,9.162-26.868,11.15c-6.543,1.348-12.371-3.831-12.927-10.85
	c-0.752-9.524,3.439-17.244,8.902-24.301c10.954-14.146,24.413-25.779,38.003-37.313c8.008-6.796,15.383-14.354,22.806-21.806
	c1.23-1.235,1.244-3.684,1.82-5.571c-1.801-0.045-3.765-0.588-5.377-0.059c-15.994,5.25-29.964,14.428-43.911,23.474
	c-19.712,12.785-37.454,28.074-53.36,45.337c-8.893,9.651-17.021,20.018-25.275,30.239c-2.754,3.41-3.404,2.028-4.682-0.996
	c-1.95-4.617-0.855-8.929,1.489-12.649c5.476-8.688,11.039-17.386,17.365-25.454c6.904-8.804,14.445-17.154,22.208-25.223
	c5.586-5.807,12.034-10.777,18.016-16.211c5.023-4.562,10.025-9.159,14.812-13.966c1.034-1.038,1.107-3.035,1.623-4.591
	c-1.702-0.216-3.753-1.156-5.054-0.533c-10.867,5.207-22.123,9.874-32.243,16.306c-14.447,9.183-28.729,18.897-41.781,29.923
	c-11.8,9.967-22.063,21.806-32.602,33.192c-6.11,6.603-11.4,13.962-17.145,20.91c-0.534,0.646-1.886,1.288-2.492,1.04
	c-0.863-0.354-1.624-1.436-2.02-2.378c-2.863-6.819,0.452-12.376,3.883-17.837c2.297-3.656,4.769-7.204,7.168-10.808
	c-10.4,7.229-20.394,14.739-30.969,21.312c-6.268,3.896-12.676,8.206-20.786,7.95c-7.941-0.251-12.86-6.125-11.284-14.052
	c2.16-10.859,6.998-20.509,14.803-28.23c15.382-15.217,31.191-30.001,46.818-44.969c0.962-0.922,2.02-1.789,2.791-2.856
	c2.017-2.787,1.654-5.034-1.67-6.59c-3.917-1.834-7.775-3.794-10.734-5.245c-8.478,8.247-16.692,16.721-25.421,24.627
	c-17.474,15.828-35.035,31.572-52.946,46.9c-9.684,8.287-19.924,15.988-30.375,23.293c-6.114,4.274-12.843,7.896-20.989,7.135
	c-5.46-0.509-9.755-3.974-9.198-9.383c0.634-6.163,2.41-12.209,3.286-16.386c-10.062,6.686-21.602,14.836-33.675,22.099
	c-3.965,2.385-9.272,3.165-14.04,3.452c-8.758,0.528-13.182-6.12-11.309-14.891c2.846-13.326,9.759-24.464,18.046-34.831
	c13.408-16.774,30.013-29.816,48.484-40.636c10.336-6.055,20.998-11.31,32.781-13.709c4.338-0.883,8.956-1.021,13.383-0.676
	c6.042,0.473,8.665,5.255,6.322,10.899C341.333,364.516,339.662,367.136,337.74,370.745z M338.806,359.775
	c-0.11-3.548-4.092-5.446-8.372-3.69c-5.548,2.275-11.471,4.443-16.048,8.128c-17.256,13.894-34.253,28.131-50.875,42.774
	c-6.51,5.735-12.235,12.537-17.467,19.493c-4.454,5.922-7.802,12.698-11.343,19.257c-0.573,1.061-0.072,3.396,0.802,4.334
	c0.775,0.832,2.801,0.854,4.194,0.66c1.565-0.22,3.08-0.998,4.549-1.681c14.43-6.706,26.461-16.884,38.116-27.359
	c12.211-10.977,23.863-22.6,35.371-34.323c6.197-6.313,11.707-13.324,17.255-20.239
	C336.775,364.902,337.693,361.979,338.806,359.775z M741.699,371.685c-0.385-0.156-0.771-0.312-1.156-0.469
	c-6.903,6.404-13.835,12.777-20.701,19.221c-6.689,6.277-13.281,12.66-19.981,18.927c-2.276,2.129-4.619,4.236-7.167,6.017
	c-8.007,5.596-16.178,10.955-24.183,16.554c-5.773,4.037-7.694,12.153-3.301,15.098c2.557,1.714,6.504,2.666,9.517,2.15
	c12.161-2.079,21.886-8.909,30.643-17.281c10.917-10.438,18.784-23.07,25.636-36.326
	C735.004,387.836,738.163,379.662,741.699,371.685z M863.43,391.583c0.166,0.487,0.333,0.976,0.499,1.464
	c3.166-0.505,6.56-0.45,9.451-1.628c6.297-2.565,12.668-5.231,18.408-8.816c9.146-5.712,18.012-12.016,23.53-21.718
	c0.85-1.493,0.76-3.519,1.104-5.298c-1.962,0.104-4.24-0.411-5.835,0.407C892.799,365.124,878.228,378.511,863.43,391.583z
	 M650.15,391.307c0.265,0.586,0.528,1.171,0.792,1.756c3.18-0.519,6.583-0.484,9.49-1.668c6.297-2.563,12.684-5.204,18.409-8.807
	c9.412-5.922,18.555-12.419,24.05-22.582c0.659-1.219,0.352-2.961,0.492-4.46c-1.652,0.023-3.65-0.551-4.899,0.171
	c-6.608,3.816-13.371,7.504-19.435,12.091C669.154,375.294,659.757,383.439,650.15,391.307z"/>
<path fill-rule="evenodd" clip-rule="evenodd" d="M271.345,249.22c-13.381-0.881-25.961-1.949-38.564-2.477
	c-14.424-0.604-28.973-1.954-43.274-0.727c-15.53,1.332-31.247,3.902-46.137,8.401c-17.847,5.393-35.403,12.373-52.181,20.527
	c-20.984,10.199-40.459,23.146-56.413,40.588c-12.85,14.05-23.515,29.68-27.219,48.597c-3.551,18.132-1.442,36.136,8.937,51.903
	c3.932,5.975,10.459,10.239,15.793,15.294c1.09,1.034,2.131,2.119,3.195,3.181c-0.487,0.635-0.975,1.27-1.462,1.905
	c-4.381-2.81-9.16-5.155-13.077-8.508c-19.049-16.3-23.267-37.683-19.883-61.263c3.127-21.795,13.861-40.087,26.853-57.416
	c17.418-23.232,41.16-37.46,67.057-49.058c19.925-8.924,40.713-14.805,62.131-18.299c19.958-3.257,40.206-4.262,60.367-3.004
	c17.805,1.11,35.511,3.785,53.277,5.601c1.046,0.107,2.725-1.029,3.284-2.042c1.715-3.112,3.029-6.445,5.958-10.09
	c1.356,3.611,3.445,7.139,3.865,10.855c0.44,3.895,2.416,4.562,5.486,5.615c7.503,2.574,14.837,5.659,22.16,8.729
	c1.199,0.503,1.993,1.974,2.299,3.893c-9.853-3.364-19.705-6.729-30.027-10.253c-2.12,5.025-3.794,9.746-6.04,14.176
	c-6.923,13.656-15.585,26.155-26.129,37.268c-20.896,22.024-41.449,44.4-63.012,65.756c-16.288,16.131-33.964,30.857-50.945,46.294
	c-9.429,8.571-18.818,17.192-27.994,26.032c-5.291,5.097-10.264,10.548-15.057,16.118c-1.244,1.445-1.271,3.938-1.856,5.949
	c2.382,0.188,5.102,1.214,7.084,0.414c7.083-2.858,14.415-5.575,20.747-9.726c18.28-11.982,36.39-24.268,54.039-37.155
	c11.911-8.699,22.93-18.618,34.345-27.995c13.061-10.729,26.157-21.413,39.164-32.207c12.517-10.388,24.701-21.192,37.463-31.267
	c15.654-12.357,31.715-24.202,47.675-36.168c21.992-16.488,45.115-31.309,69.604-43.707c17.115-8.665,34.854-16.036,54.353-18.474
	c12.606-1.576,24.539-0.386,36.092,4.369c10.242,4.216,20.956,18.842,18.251,27.067c-0.932-0.804-1.839-1.346-2.426-2.128
	c-6.936-9.256-16.053-14.366-27.563-16.22c-22.387-3.604-42.854,2.671-62.898,11.282c-29.543,12.692-56.676,29.729-82.883,48.095
	c-21.285,14.917-41.817,30.938-62.306,46.953c-19.636,15.349-38.522,31.659-58.218,46.928
	c-23.773,18.428-47.748,36.631-72.239,54.084c-12.294,8.76-25.348,16.789-40.25,20.831c-3.126,0.848-6.349,1.777-9.543,1.842
	c-7.217,0.146-11.589-5.294-8.524-11.718c3.894-8.157,8.204-16.594,14.236-23.164c19.09-20.795,38.812-41.029,58.771-61
	c19.016-19.027,39.186-36.922,57.832-56.292c18.006-18.706,36.081-37.506,50.554-59.286
	C267.796,255.567,269.228,252.83,271.345,249.22z"/>
<path fill-rule="evenodd" clip-rule="evenodd" d="M1079.53,368.453c-4.089-2.246-7.561-3.682-10.487-5.851
	c-8.967-6.644-14.072-15.772-15.95-26.692c-3.955-23.01,4.03-42.398,18.181-59.977c12.649-15.713,28.398-27.287,47.205-34.223
	c13.541-4.993,27.456-9.103,41.433-12.727c6.912-1.792,14.324-1.829,21.535-2.244c9.753-0.562,19.527-0.827,29.296-1.035
	c21.503-0.458,42.916,0.786,64.19,3.985c17.118,2.574,34.326,4.75,51.271,8.204c10.934,2.229,21.479,6.389,32.15,9.838
	c1.476,0.477,2.663,1.844,3.983,2.798c-0.176,0.37-0.353,0.74-0.529,1.111c-1.224-0.142-2.591,0.023-3.648-0.473
	c-11.951-5.606-22.897-1.597-33.106,4.243c-17.81,10.188-33.279,23.485-47.458,38.271c-13.659,14.244-27.389,28.428-40.822,42.883
	c-12.586,13.543-24.656,27.562-37.26,41.088c-14.248,15.291-28.381,30.736-43.384,45.268
	c-24.085,23.328-49.358,45.376-77.996,63.078c-25.582,15.813-53.037,27.33-82.772,32.609c-11.431,2.029-23.102,3.853-34.649,3.772
	c-12.118-0.083-24.477-1.219-35.215-8.515c-6.912-4.697-10.225-11.098-11.453-19.094c-2.618-17.042,4.797-30.824,14.302-43.766
	c15.759-21.458,36.693-36.971,59.411-50.221c22.817-13.309,47.19-22.86,72.915-28.866
	C1066.602,370.535,1072.663,369.699,1079.53,368.453z M1335.61,244.545c-0.189-0.07-1.217-0.663-2.308-0.823
	c-9.534-1.398-19.051-2.979-28.627-4.003c-14.542-1.557-29.12-3.706-43.695-3.81c-23.858-0.168-47.724,1.21-71.591,1.737
	c-17.958,0.396-35.599,2.991-52.74,8.146c-24.444,7.349-46.776,18.399-63.716,38.449c-12.673,15-18.578,31.859-14.775,51.373
	c2.833,14.536,12.69,27.705,27.584,29.726c10.688,1.451,21.837-0.369,32.771-0.91c8.713-0.431,17.414-1.602,26.118-1.578
	c8.193,0.022,16.408,0.972,24.566,1.92c4.069,0.474,8.034,1.855,12.046,2.826c-0.108,0.572-0.217,1.144-0.326,1.715
	c-0.576,0.119-1.148,0.302-1.729,0.343c-0.829,0.059-1.684,0.125-2.496-0.006c-13.585-2.187-27.183-2.896-40.887-1.005
	c-15.397,2.126-30.946,3.366-46.218,6.146c-35.154,6.398-68.857,17.231-100.071,35.062c-18.925,10.811-36.585,23.329-51.349,39.431
	c-8.049,8.779-15.191,18.372-18.512,30.231c-4.105,14.662,2.035,28.012,15.84,33.456c13.521,5.332,27.289,4.658,40.846,2.355
	c23.41-3.977,44.725-14.054,65.123-25.851c22.952-13.274,44.712-28.419,64.806-45.702c18.649-16.041,36.859-32.63,54.659-49.611
	c22.628-21.587,44.567-43.893,66.961-65.727c12.102-11.8,24.17-23.675,36.909-34.764c12.966-11.288,26.301-22.267,40.307-32.207
	C1314.56,254.755,1325.458,250.077,1335.61,244.545z"/>
<path fill-rule="evenodd" clip-rule="evenodd" d="M1060.697,1094.131c2.054-0.457,4.306-0.539,6.104-1.482
	c1.661-0.872,3.66-2.468,4.059-4.099c0.888-3.631,1.159-7.482,1.17-11.246c0.086-28.323,0.047-56.646,0.047-84.97
	c0-1.774,0-3.549,0-5.323c0.479-0.292,0.957-0.584,1.437-0.877c27.567,29.689,55.136,59.379,83.23,89.635
	c0.141-2.04,0.337-3.429,0.318-4.814c-0.312-22.928-0.604-45.855-1.012-68.781c-0.149-8.362-4.191-12.396-11.21-11.531
	c-0.838,0.104-1.74-0.324-2.55-1.409c10.496,0,20.993,0,31.522,0c-0.082,0.404-0.087,0.933-0.208,0.961
	c-8.742,2.031-9.528,3.046-9.528,12.413c0,28.657,0.029,57.313-0.048,85.97c-0.007,2.662-0.686,5.323-1.052,7.984
	c-0.544,0.29-1.088,0.58-1.632,0.87c-27.533-29.028-55.066-58.057-83.253-87.775c0,4.812-0.128,9.032,0.035,13.241
	c0.172,4.439,0.795,8.863,0.918,13.303c0.416,15.094,0.258,30.22,1.206,45.277c0.526,8.35,1.12,11.928,11.522,12.237
	c0.727,0.021,1.445,0.34,2.075,1.335c-11.077,0-22.153,0-33.229,0C1060.645,1094.743,1060.67,1094.438,1060.697,1094.131z"/>
<path fill-rule="evenodd" clip-rule="evenodd" d="M1227.256,1050.541c5.635-9.65,10.793-18.504,15.973-27.345
	c1.568-2.677,3.283-5.272,4.777-7.989c1.938-3.521,4.125-7.16-2.497-10.523c4.212,0,6.862-0.352,9.386,0.064
	c8.166,1.35,16.091-1.819,24.475-0.387c8.42,1.438,17.275,0.32,25.939,0.322c8.498,0.001,16.995,0,25.493,0
	c5.242,0,10.484,0,15.626,0c0,4.267,0,9.271,0,14.273c-3.207-9.781-11.695-8.785-18.668-9.105
	c-14.666-0.674-14.684-0.289-14.684,14.266c0,15.829-0.085,31.658,0.047,47.486c0.045,5.435,0.633,10.865,0.969,16.297
	c0.243,3.939,3.16,5.015,6.285,5.701c1.463,0.32,3.018,0.224,4.53,0.316c-0.019,0.416-0.036,0.833-0.054,1.249
	c-10.498,0-20.996,0-31.561,0c0.137-0.498,0.168-1.015,0.303-1.043c6.83-1.46,8.459-3.419,8.471-10.59
	c0.029-17.662,0.01-35.324,0.01-52.985c0-6.789,0-13.577,0-21.31c-9.031,0.531-17.64,0.503-26.035,1.827
	c-2.846,0.449-5.151,4.314-8.245,7.106c0.598-3.302,1.061-6.38,1.73-9.411c0.568-2.567-0.354-3.729-2.63-2.354
	c-3.582,2.166-7.92,4.117-10.101,7.386c-8.501,12.739-16.343,25.922-24.248,39.049c-1.03,1.71-1.37,4.047-1.408,6.105
	c-0.153,8.328-0.072,16.661-0.061,24.992c0.01,7.009,2.229,9.292,9.359,9.768c0.846,0.057,1.673,0.397,2.403,1.493
	c-10.5,0-21.001,0-31.502,0c9.662-1.761,8.83-9.161,8.695-15.971c-0.147-7.421,0.082-14.961-1.211-22.207
	c-0.784-4.396-3.843-8.529-6.4-12.44c-7.408-11.324-14.884-22.618-22.789-33.595c-1.913-2.656-5.588-4.042-8.606-6.119
	c8.161,0,16.228,0,25.201,0c-4.324,2.697-3.169,5.316-1.296,8.383C1212.309,1025.321,1219.483,1037.514,1227.256,1050.541z"/>
<path fill-rule="evenodd" clip-rule="evenodd" d="M350.119,854.516c2.824-2.944,5.534-6.148,8.681-8.842
	c1.054-0.901,3.222-0.501,4.88-0.695c-0.273,1.475-0.069,3.354-0.911,4.348c-2.356,2.779-5.145,5.192-8.193,8.17
	c10.778,12.936,14.993,27.482,11.148,43.943c-2.406,10.308-7.148,19.413-15.271,26.237c-17.147,14.409-45.787,15.11-64.759,1.767
	c-2.831,3.048-5.601,6.301-8.699,9.203c-0.952,0.891-2.803,0.821-4.242,1.191c-0.128-1.651-1.009-3.952-0.247-4.838
	c2.691-3.126,5.945-5.767,9.271-8.856c-9.711-10.254-13.812-22.329-13.466-35.343c0.323-12.162,4.738-23.643,13.616-32.207
	C298.583,842.527,327.118,839.117,350.119,854.516z M343.838,860.69c-9.972-8.282-19.863-13.048-32.736-11.21
	c-11.494,1.642-23.138,9.746-27.052,20.607c-3.736,10.37-3.885,20.934-1.813,31.52c1.125,5.746,2.799,11.528,7.486,16.059
	C307.752,898.685,325.523,879.975,343.838,860.69z M293.079,922.005c6.194,7.39,13.768,10.519,22.841,11.909
	c17.157,2.631,30.607-8.75,35.177-20.514c3.642-9.376,3.619-19.157,2.735-28.773c-0.569-6.2-3.402-12.191-5.221-18.276
	c-0.653-0.029-1.308-0.058-1.961-0.086C328.866,884.769,311.082,903.273,293.079,922.005z"/>
<path fill-rule="evenodd" clip-rule="evenodd" d="M995.251,844.245c12.793,25.478,25.587,50.954,38.791,77.247
	c12.694-26.136,25.037-51.549,37.38-76.962c0.564,0.009,1.129,0.018,1.693,0.026c0.653,3.802,1.447,7.586,1.934,11.41
	c1.384,10.889,2.716,21.785,3.93,32.694c1.126,10.119,2.356,20.24,3.014,30.395c0.604,9.329,3.439,14.9,9.596,16.36
	c2.033,0.482,4.197,0.409,6.27,1.586c-8.761,0-17.521,0-25.208,0c-2.095-22.734-4.117-44.693-6.14-66.652
	c-0.333,0.02-0.665,0.04-0.997,0.06c-10.968,22.413-21.937,44.825-32.904,67.237c-0.555,0.035-1.108,0.069-1.662,0.104
	c-12.964-21.194-23.084-43.91-34.601-67.577c-0.845,9.125-1.526,16.823-2.277,24.516c-0.94,9.639-1.613,19.319-3.007,28.895
	c-1.236,8.498-0.089,10.672,8.782,13.44c-8.504,0-17.007,0-25.51,0c-0.04-0.279-0.08-0.56-0.12-0.839
	c1.149-0.178,2.572,0.011,3.393-0.604c1.959-1.472,4.882-3.11,5.211-5.055c1.502-8.879,2.21-17.892,3.268-26.849
	c1.249-10.574,2.622-21.134,3.829-31.712c0.82-7.181,1.412-14.387,2.187-21.573c0.202-1.877,0.704-3.723,1.068-5.583
	C993.864,844.622,994.557,844.434,995.251,844.245z"/>
<path fill-rule="evenodd" clip-rule="evenodd" d="M791.744,762.554c12.454-25.634,24.781-51.005,37.107-76.375
	c0.659,0.15,1.319,0.302,1.979,0.452c0.739,4.536,1.679,9.051,2.18,13.613c1.451,13.214,2.684,26.451,4.085,39.671
	c0.933,8.802,1.686,17.642,3.137,26.362c0.885,5.318,3.282,10.055,9.885,10.521c1.352,0.095,2.652,0.9,3.599,1.241
	c-8.168,0-16.642,0-23.904,0c-0.975-22.45-4.098-44.01-6.83-66.082c-10.929,22.279-21.857,44.558-33.59,68.475
	c-14.336-22.347-23.548-45.63-35.661-68.268c-0.583,5.036-1.202,9.439-1.581,13.863c-0.76,8.857-1.434,17.723-2.056,26.591
	c-0.416,5.927-0.575,11.872-1.054,17.793c-0.312,3.853,0.39,6.53,5.047,6.384c0.67-0.021,1.365,0.725,2.884,1.594
	c-8.922,0-16.896,0-24.871,0c12.709-2.128,8.302-12.959,9.774-20.357c2.104-10.568,2.861-21.409,4.096-32.145
	c1.105-9.617,2.058-19.253,3.118-28.876c0.374-3.392,0.867-6.771,2.508-10.887c1.147,1.453,2.576,2.764,3.397,4.383
	c6.744,13.282,13.31,26.655,20.061,39.935C780.454,741.065,786.04,751.598,791.744,762.554z"/>
<path fill-rule="evenodd" clip-rule="evenodd" d="M921.256,762.555c12.547-25.875,24.702-50.94,36.857-76.006
	c0.622-0.009,1.245-0.018,1.867-0.027c0.697,3.557,1.605,7.087,2.054,10.675c1.748,13.982,3.358,27.981,5.004,41.976
	c1.015,8.623,2.251,17.23,2.924,25.881c0.544,6.986,2.993,11.65,10.749,11.966c1.166,0.048,2.302,0.827,2.642,0.957
	c-7.803,0-16.337,0-23.733,0c-2.072-22.413-4.071-44.024-6.069-65.636c-0.418-0.01-0.835-0.019-1.253-0.028
	c-8.729,17.732-17.468,35.46-26.177,53.201c-1.721,3.506-3.213,7.127-5.021,10.584c-1.61,3.08-3.293,4.006-5.286,0.014
	c-10.427-20.879-20.97-41.699-31.483-62.535c-0.06-0.118-0.273-0.159-0.925-0.515c-0.781,6.184-1.717,12.146-2.256,18.144
	c-1.134,12.62-1.985,25.266-3.111,37.886c-0.417,4.672,0.676,7.82,6.006,8.106c0.702,0.038,1.374,0.643,2.686,1.297
	c-8.613,0-16.517,0-24.453,0c-0.014-0.193-0.052-0.684-0.049-0.684c8.411-0.721,7.898-7.634,8.68-13.146
	c1.382-9.743,2.054-19.585,3.195-29.366c1.196-10.242,2.65-20.453,3.882-30.691c0.511-4.245,0.596-8.544,1.161-12.779
	c0.232-1.739,1.223-3.377,1.868-5.061c1.194,1.318,2.747,2.453,3.526,3.982c6.916,13.563,13.629,27.229,20.534,40.798
	C910.186,741.592,915.496,751.535,921.256,762.555z"/>
<path fill-rule="evenodd" clip-rule="evenodd" d="M1229.325,778.485c3.607-1.87,7.877-2.981,7.803-8.501
	c-0.024-1.76,0.664-3.517,0.863-5.293c1.057-9.457,1.997-18.928,3.103-28.38c1.235-10.57,2.674-21.117,3.884-31.69
	c0.543-4.742,0.635-9.536,1.178-14.279c0.143-1.245,1.204-2.386,1.843-3.574c1.004,0.86,2.399,1.522,2.953,2.612
	c7.04,13.868,13.895,27.83,20.93,41.701c5.172,10.199,10.54,20.299,16.354,31.47c12.491-25.731,24.689-50.859,36.887-75.988
	c0.618-0.013,1.236-0.026,1.854-0.039c0.699,3.551,1.612,7.074,2.061,10.656c1.748,13.982,3.356,27.981,5.003,41.976
	c1.014,8.623,2.259,17.229,2.921,25.88c0.535,6.998,2.989,11.647,10.737,11.977c1.173,0.05,2.315,0.829,2.193,0.782
	c-7.435,0-16.056,0-23.256,0c-2.094-22.488-4.094-43.972-6.095-65.455c-0.42-0.018-0.841-0.034-1.262-0.052
	c-8.058,16.419-16.14,32.825-24.155,49.265c-2.144,4.396-3.965,8.952-6.185,13.309c-0.746,1.465-2.268,2.535-3.435,3.785
	c-1.133-1.271-2.592-2.374-3.349-3.84c-10.539-20.421-20.981-40.891-31.73-61.899c-0.8,6.331-1.734,12.287-2.272,18.279
	c-1.135,12.62-1.994,25.265-3.109,37.887c-0.409,4.638,0.619,7.848,5.988,8.112c0.703,0.035,1.377,0.642,2.701,1.301
	C1245.116,778.485,1237.22,778.485,1229.325,778.485z"/>
<path fill-rule="evenodd" clip-rule="evenodd" d="M682.95,990.659c0,8.352,0,15.967,0,23.582c-0.281-0.059-0.563-0.117-0.845-0.176
	c-1.997-3.942-3.598-8.157-6.077-11.768c-4.226-6.152-11.268-7.533-17.95-9.084c-11.271-2.617-22.602-2.509-33.42,1.756
	c-13.231,5.216-20.961,15.418-23.5,29.278c-3.109,16.978-0.724,32.937,9.845,47.171c7.682,10.346,17.959,16.476,30.384,19.255
	c8.184,1.831,16.282,1.402,24.312-0.993c3.785-1.13,5.627-3.184,5.475-7.501c-0.319-8.988-0.095-17.996-0.098-26.995
	c-0.003-7.823-1.888-9.865-9.64-10.522c-0.745-0.063-1.472-0.327-2.159-1.389c11.163,0,22.327,0,33.516,0
	c-0.044,0.299-0.027,0.836-0.141,0.865c-8.885,2.267-9.575,3.153-9.575,12.4c0,9.5-0.203,19.007,0.097,28.497
	c0.126,3.968-1.29,6.341-4.825,7.57c-12.056,4.194-24.348,6.822-37.12,4.112c-7.92-1.68-16.019-3.125-23.527-6.006
	c-16.008-6.142-25.146-18.877-28.386-35.143c-4.131-20.747-0.516-40.023,15.668-55.183c8.248-7.726,18.643-11.01,29.674-12.754
	c14.93-2.36,29.45,0.104,43.989,2.982C680.222,990.929,681.914,990.659,682.95,990.659z"/>
<path fill-rule="evenodd" clip-rule="evenodd" d="M1441.472,777.962c8.622-0.954,8.518-7.228,8.553-13.047
	c0.13-21.824,0.053-43.65,0.052-65.476c-0.001-8.176-0.52-8.744-8.769-9.864c-0.39-0.054-0.729-0.467-1.922-1.273
	c1.968-0.284,3.118-0.593,4.269-0.596c13.828-0.033,27.688-0.608,41.477,0.139c14.5,0.786,28.526,3.474,39.092,15.302
	c5.504,6.161,8.675,13.313,9.637,21.013c2.274,18.214-2.22,34.502-17.254,46.333c-7.019,5.523-15.538,8.714-24.383,9.022
	c-16.677,0.58-33.389,0.167-50.086,0.167C1441.915,779.108,1441.694,778.535,1441.472,777.962z M1461.078,729.18
	c0,10.661-0.689,21.381,0.203,31.967c0.814,9.651-0.132,12.011,10.802,13.534c5.198,0.725,10.527,1.173,15.753,0.896
	c9.065-0.481,17.3-3.889,23.849-10.141c11.488-10.967,12.908-25.162,9.858-39.525c-5.85-27.56-32.83-36.885-56.388-33.426
	c-3.724,0.547-4.15,2.172-4.119,5.212C1461.143,708.189,1461.077,718.686,1461.078,729.18z"/>
<path fill-rule="evenodd" clip-rule="evenodd" d="M903.208,106.365c0.134-0.771,0.125-1.034,0.189-1.054
	c7.75-2.363,8.601-3.501,8.664-12.515c0.068-9.827,0.016-19.655,0.016-29.483c0-11.827,0.001-23.653,0-35.48
	c-0.001-8.093-0.034-8.145-7.487-11.01c-0.524-0.202-1.077-0.329-1.489-1.136c16.797,0,33.682-1.082,50.368,0.273
	c21.141,1.717,35.197,9.937,40.958,29.865c5.766,19.948-0.052,43.374-20.442,55.298c-7.705,4.505-16.523,6.411-25.359,6.408
	c-10.026-0.004-20.047-1.31-30.082-1.748c-3.574-0.155-7.183,0.644-10.783,0.866C906.255,106.743,904.729,106.472,903.208,106.365z
	 M923.078,56.69c0,10.491-0.104,20.984,0.028,31.475c0.14,10.939,3.532,14.285,14.432,14.501c5.191,0.104,10.497,0.7,15.556-0.123
	c11.159-1.816,21.011-6.462,26.524-17.051c4.619-8.872,6.167-18.34,4.542-28.431c-2.22-13.781-8.759-24.364-20.97-31.374
	c-10.628-6.1-22.23-6.192-33.969-6.083c-4.452,0.042-6.292,1.549-6.205,6.111C923.21,36.037,923.077,46.365,923.078,56.69z"/>
<path fill-rule="evenodd" clip-rule="evenodd" d="M1496.298,106.406c7.469-2.956,8.686-4.303,8.733-12.928
	c0.129-22.819,0.082-45.641,0.008-68.461c-0.013-3.892-1.111-7.216-6.009-7.451c-1.013-0.048-1.988-0.869-2.924-1.72
	c20.273,1.029,40.63-2.438,60.755,1.851c19.578,4.171,32.507,21.07,32.389,40.561c-0.087,14.207-3.891,26.513-13.909,36.576
	c-7.041,7.073-15.982,11.221-25.757,11.638c-12.585,0.537-25.234-0.518-37.857-0.69c-3.59-0.049-7.185,0.649-10.785,0.871
	C1499.405,106.747,1497.847,106.499,1496.298,106.406z M1529.653,19.685c-3.324,0-5.824,0.065-8.32-0.016
	c-3.453-0.112-5.274,1.309-5.27,4.937c0.031,21.483-0.156,42.969,0.1,64.449c0.108,9.123,3.349,13.019,10.774,13.522
	c6.661,0.451,13.561,1.082,20.026-0.125c10.613-1.979,20.553-6.412,25.5-16.908c2.509-5.323,3.409-11.44,4.762-17.263
	c3.007-12.944-5.092-31.125-14.827-38.521C1552.475,22.222,1541.219,19.038,1529.653,19.685z"/>
<path fill-rule="evenodd" clip-rule="evenodd" d="M821.206,1004.686c16.652,0,33.38-0.99,49.939,0.25
	c20.834,1.56,37.536,10.09,42.234,33.816c4.841,24.443-7.068,50.537-34.826,56.126c-14.073,2.833-27.789,1.044-41.689-0.053
	c-3.381-0.267-6.845,0.595-10.277,0.837c-1.737,0.123-3.49,0.021-5.356,0.021c0.171-0.918,0.169-1.449,0.29-1.479
	c7.217-1.773,8.453-3.091,8.506-11.581c0.144-22.986-0.016-45.974,0.093-68.961C830.149,1007.394,825.388,1006.733,821.206,1004.686
	z M841.078,1045.809c0,10.492-0.107,20.985,0.031,31.476c0.128,9.62,3.291,13.851,11.055,14.312
	c6.502,0.387,13.204,0.985,19.535-0.122c10.675-1.866,20.344-6.382,25.714-16.664c4.631-8.865,6.384-18.224,4.777-28.372
	c-2.275-14.367-9.07-25.166-21.974-32.239c-11.126-6.098-23.109-5.68-35.11-5.461c-3.473,0.063-4.077,2.608-4.057,5.595
	C841.122,1024.824,841.078,1035.316,841.078,1045.809z"/>
<path fill-rule="evenodd" clip-rule="evenodd" d="M1160.74,780.695c-3.748-2.937-7.14-5.067-9.888-7.837
	c-14.864-14.987-29.635-30.069-44.301-45.25c-6.606-6.838-12.896-13.98-20.473-22.229c0,4.793-0.07,8.148,0.013,11.5
	c0.301,12.097,0.596,24.194,1.011,36.288c0.192,5.604,0.486,11.215,1.056,16.79c0.368,3.609,1.808,6.591,6.262,6.797
	c1.535,0.071,3.037,0.863,5.651,1.66c-10.396,0-19.679,0-29.45,0c1.336-0.676,2.273-1.525,3.258-1.586
	c5.453-0.333,6.199-4.012,6.199-8.322c-0.002-25.322-0.038-50.645,0.073-75.966c0.008-1.913,1.068-3.822,1.639-5.732
	c1.607,0.974,3.511,1.659,4.775,2.964c16.395,16.922,32.748,33.885,49.002,50.942c6.358,6.673,12.443,13.605,19.124,20.937
	c0.162-1.739,0.388-2.946,0.368-4.149c-0.31-19.927-0.618-39.854-1.004-59.778c-0.109-5.643-2.498-7.858-8.163-8.053
	c-1.219-0.042-2.431-0.258-3.609-1.413c9.163,0,18.325,0,28.901,0c-1.92,0.809-2.628,1.32-3.376,1.386
	c-4.047,0.358-5.845,2.59-5.735,6.549c0.028,0.999,0.016,1.999,0.002,2.999c-0.332,25.924-0.665,51.848-1.009,77.771
	C1161.055,777.765,1160.93,778.567,1160.74,780.695z"/>
<path fill-rule="evenodd" clip-rule="evenodd" d="M815.833,106.24c-9.836,0-19.673,0-30.238,0c0.909-0.859,1.185-1.357,1.535-1.418
	c8.667-1.497,8.944-1.814,8.945-10.751c0.003-24.995-0.015-49.989,0.035-74.984c0.004-1.785,0.492-3.57,0.755-5.355
	c0.534-0.183,1.068-0.366,1.603-0.549c23.917,24.986,47.835,49.974,72.608,75.855c0-2.903,0-4.935,0-6.966
	c0-8.832,0.129-17.666-0.033-26.494c-0.192-10.436-0.526-20.872-1.029-31.297c-0.178-3.697-1.61-6.684-6.233-6.681
	c-1.522,0.001-3.046-0.849-5.636-1.633c9.673,0,18.273,0,26.873,0c-7.882,0.844-7.075,6.552-6.989,12.137
	c0.164,10.662,0.048,21.328,0.048,31.992c0,15.729,0,31.459,0,47.188c-0.544,0.159-1.089,0.317-1.633,0.476
	c-1.697-1.102-3.645-1.949-5.052-3.343c-13.38-13.248-26.792-26.467-39.94-39.942c-8.895-9.116-17.376-18.635-26.057-27.96
	c-0.773-0.831-1.65-1.566-3.315-3.132c0,4.425-0.084,7.982,0.016,11.535c0.287,10.268,0.612,20.533,0.994,30.798
	c0.271,7.269,0.516,14.543,1.047,21.795c0.317,4.352,3.025,6.735,7.383,7.164c1.48,0.146,2.966,0.245,4.448,0.365
	C815.922,105.441,815.878,105.841,815.833,106.24z"/>
<path fill-rule="evenodd" clip-rule="evenodd" d="M480.049,846.978c-8.701,3.403-8.973,3.794-8.973,11.829
	c0,24.662,0,49.323,0,73.984c0,1.823,0,3.646,0,7.147c-4.131-3.252-7.62-5.462-10.456-8.319
	c-15.106-15.223-30.112-30.548-45.022-45.963c-6.408-6.626-12.504-13.555-19.166-20.808c-0.144,1.624-0.359,2.831-0.339,4.033
	c0.311,18.599,0.278,37.214,1.164,55.786c0.366,7.669,1.178,11.582,10.104,11.071c0.521-0.03,1.066,0.391,1.495,1.423
	c-9.499,0-18.997,0-28.496,0c-0.063-0.219-0.127-0.438-0.19-0.658c0.764-0.272,1.507-0.686,2.292-0.793
	c4.276-0.583,6.729-2.3,6.697-7.295c-0.173-27.752-0.083-55.506-0.083-84.276c6.963,2.512,10,7.396,13.896,11.19
	c0.802,0.78,1.243,1.924,2.022,2.735c9.436,9.817,18.959,19.55,28.347,29.412c10.046,10.554,19.969,21.224,29.966,31.824
	c0.177,0.188,0.611,0.133,1.767,0.349c0-5.171,0.087-10.201-0.017-15.228c-0.284-13.767-0.597-27.533-1.017-41.296
	c-0.105-3.432-0.195-6.995-1.199-10.215c-0.535-1.718-2.846-3.12-4.654-4.127c-1.456-0.811-3.361-0.813-4.994-1.808
	C461.8,846.978,470.408,846.978,480.049,846.978z"/>
<path fill-rule="evenodd" clip-rule="evenodd" d="M912.441,938.687c-15.091,0.526-27.192-3.892-36.922-14.102
	c-6.508-6.829-9.786-15.243-11.462-24.422c-2.935-16.08,2.288-29.855,12.821-41.468c6.183-6.815,14.677-10.856,23.819-12.781
	c12.551-2.643,24.965-1.536,36.496,3.931c13.559,6.429,21.743,17.139,24.036,32.466c2.514,16.8-1.959,31.299-13.639,43.104
	C937.842,935.27,925.414,939.668,912.441,938.687z M949.484,893.573c-0.471-4.577-0.477-9.263-1.511-13.709
	c-2.062-8.868-6.095-16.585-13.486-22.542c-8.411-6.779-17.523-9.236-28.194-7.741c-9.615,1.348-17.545,5.23-23.184,13.128
	c-11.529,16.146-10.07,48.998,9.408,63.908c13.241,10.136,33.692,11.099,46.02-1.83C946.949,915.964,949.603,905.37,949.484,893.573
	z"/>
<path fill-rule="evenodd" clip-rule="evenodd" d="M754.89,1096.642c-12.867,1.014-24.749-3.309-34.42-12.405
	c-7.783-7.321-12.134-17.092-13.256-27.679c-1.683-15.859,2.659-30.136,14.704-41.074c11.823-10.737,25.889-14.322,41.829-12.082
	c8.451,1.188,16.308,3.495,23.402,7.977c10.485,6.624,16.224,16.753,17.72,28.72c1.577,12.609-0.28,24.899-7.575,35.88
	C789.584,1087.583,773.638,1097.886,754.89,1096.642z M793.477,1048.198c-1.342-4.909-2.204-13.933-6.156-21.297
	c-8.067-15.03-21.27-22.157-38.771-19.188c-11.979,2.033-20.736,8.469-25.482,19.823c-3.463,8.283-4.184,16.796-3.145,25.824
	c1.698,14.753,7.558,26.711,20.645,34.198c13.773,7.88,30.174,6.688,41.914-4.902
	C790.949,1074.297,792.466,1063.176,793.477,1048.198z"/>
<path fill-rule="evenodd" clip-rule="evenodd" d="M1453.082,936.438c-16.543,4.217-28.733-1.637-37.869-15.191
	c-4.378-6.495-9.309-12.616-13.989-18.907c-2.013-2.706-4.501-4.041-8.068-3.729c-3.78,0.33-7.612,0.074-12.049,0.074
	c0,10.398-0.268,20.507,0.14,30.589c0.15,3.71,3.093,6.05,7.038,6.384c1.519,0.129,3.058,0.021,4.587,0.021
	c-0.001,0.481-0.001,0.964-0.002,1.445c-10.497,0-20.995,0-31.52,0c0.072-0.379,0.073-0.908,0.192-0.938
	c7.269-1.73,8.476-3.232,8.508-12.099c0.082-22.498,0.021-44.997,0.032-67.495c0.002-4.441-1.238-7.797-6.455-8.149
	c-0.866-0.06-1.688-0.778-1.686-0.776c14.017,0,28.882-0.957,43.569,0.253c16.74,1.378,21.273,19.044,15.463,31.435
	c-2.38,5.074-6.705,9.21-9.868,13.958c-0.853,1.28-1.544,3.896-0.86,4.781c5.909,7.664,11.789,15.41,18.392,22.464
	C1435.349,927.73,1441.348,936.468,1453.082,936.438z M1381.079,871.728c0,5.988-0.191,11.987,0.141,17.957
	c0.078,1.406,1.763,3.688,2.986,3.892c4.507,0.75,9.158,1.231,13.699,0.942c2.683-0.171,5.686-1.45,7.806-3.151
	c6.334-5.081,6.604-12.355,6.417-19.786c-0.194-7.799-4.713-18.326-15.143-20.36c-3.844-0.75-7.91-0.314-11.865-0.56
	c-3.039-0.188-4.156,1.103-4.082,4.101C1381.178,860.414,1381.079,866.072,1381.079,871.728z"/>
<path fill-rule="evenodd" clip-rule="evenodd" d="M1464.077,1056.684c0,9.483-0.004,18.146,0.001,26.81
	c0.005,7.486,2.071,9.701,9.417,10.216c0.833,0.059,1.645,0.417,2.341,1.521c-10.501,0-21.002,0-31.676,0
	c0.287-0.681,0.373-1.183,0.524-1.203c8.347-1.137,7.017-1.887,8.194-11.679c0.968-8.05,0.198-16.309,0.198-24.475
	c0-13.666,0-27.331,0-40.997c-0.001-8.155-0.048-8.229-7.452-11.045c-0.528-0.201-1.094-0.307-1.516-1.14
	c13.624,0,27.331-0.96,40.854,0.216c22.504,1.956,26.028,22.863,16.341,37.908c-2.117,3.287-5.327,5.853-7.717,8.992
	c-0.755,0.99-1.183,3.344-0.567,4.094c7.509,9.152,15.186,18.169,22.934,27.121c5.269,6.087,11.14,11.273,20.155,10.854
	c-0.065,0.498-0.131,0.996-0.196,1.494c-5.523,0-11.097,0.475-16.559-0.103c-10.195-1.079-15.446-9.172-21.161-16.274
	c-4.911-6.104-9.396-12.552-14.13-18.801c-1.881-2.482-4.16-3.933-7.624-3.598
	C1472.516,1056.976,1468.53,1056.684,1464.077,1056.684z M1464.077,1029.935c0,5.323,0.395,10.684-0.109,15.958
	c-0.517,5.406,2.57,6.511,6.678,6.746c3.481,0.199,7.039,0.423,10.459-0.079c2.576-0.379,5.378-1.391,7.401-2.983
	c6.938-5.461,6.959-13.34,6.556-21.197c-0.347-6.773-4.961-17.157-13.929-18.678c-4.179-0.708-8.482-0.652-12.722-1.031
	c-3.225-0.289-4.484,1.027-4.382,4.3C1464.206,1018.619,1464.078,1024.279,1464.077,1029.935z"/>
<path fill-rule="evenodd" clip-rule="evenodd" d="M1357.098,15.691c13.6,0,27.271-0.876,40.783,0.219
	c17.307,1.403,26.702,15.048,20.024,30.931c-2.751,6.546-7.62,12.201-12.083,19.126c5.367,6.534,11.73,14.408,18.242,22.156
	c3.184,3.789,6.151,8.045,10.107,10.822c4.57,3.208,10.12,5.021,14.569,7.12c-7.979,3.699-24.052-0.274-29.922-7.936
	c-7.366-9.613-14.889-19.109-22.507-28.523c-0.869-1.075-2.759-1.739-4.226-1.837c-3.814-0.252-7.683-0.335-11.472,0.062
	c-1.266,0.132-3.373,1.929-3.369,2.956c0.042,8.754,0.605,17.503,0.757,26.259c0.101,5.78,3.068,7.911,8.465,7.676
	c0.817-0.036,1.656,0.392,2.371,1.492c-10.167,0-20.335,0-30.502,0c8.718-1.362,7.654-7.94,7.748-13.916
	c0.311-19.756,0.724-39.51,0.936-59.266c0.042-3.924-0.354-7.909-1.119-11.753c-0.271-1.368-2.054-2.744-3.476-3.493
	c-1.625-0.855-3.615-1.016-5.447-1.479C1357.019,16.103,1357.058,15.897,1357.098,15.691z M1377.078,41.185
	c0,5.664,0.06,11.329-0.027,16.992c-0.04,2.626,0.271,4.512,3.631,4.586c5.261,0.115,10.556,1.102,15.752,0.681
	c2.611-0.212,5.745-2.153,7.425-4.276c7.182-9.075,6.883-24.14-0.861-33.154c-5.867-6.829-13.483-6.482-21.301-6.404
	c-3.41,0.034-4.817,1.025-4.678,4.586C1377.24,29.851,1377.078,35.521,1377.078,41.185z"/>
<path fill-rule="evenodd" clip-rule="evenodd" d="M1139.379,65.463c7.4,9.005,15.094,18.789,23.262,28.16
	c5.546,6.363,11.919,11.85,21.275,11.288c-0.098,0.737-0.137,1.329-0.183,1.33c-5.792,0.075-11.642,0.634-17.365,0.02
	c-8.927-0.96-13.955-7.994-19.09-14.229c-5.906-7.171-11.074-14.946-16.841-22.239c-0.999-1.263-3.363-1.976-5.121-2.023
	c-14.238-0.392-14.327-0.324-14.195,13.786c0.049,5.258,0.747,10.506,0.901,15.766c0.161,5.487,3.019,7.624,8.22,7.395
	c0.886-0.039,1.789,0.312,2.635,1.387c-10.164,0-20.329,0-30.521,0c0.045-0.305,0.028-0.841,0.144-0.87
	c6.799-1.759,7.479-2.754,7.589-10.211c0.296-19.922,0.729-39.842,0.931-59.765c0.046-4.59-0.387-9.225-1.099-13.759
	c-0.22-1.396-1.889-2.919-3.279-3.68c-1.612-0.883-3.649-0.992-4.585-1.217c13.721,0,28.365-0.853,42.867,0.221
	c17.221,1.275,24.205,19.042,15.059,34.766C1147.244,56.296,1143.352,60.333,1139.379,65.463z M1111.078,40.976
	c0,5.83,0.05,11.662-0.023,17.491c-0.03,2.458,0.354,4.178,3.418,4.273c5.261,0.164,10.552,1.112,15.753,0.716
	c2.624-0.199,5.787-2.048,7.487-4.141c7.244-8.919,7.061-23.561-0.229-32.788c-6.46-8.177-15.376-7.052-24.067-6.628
	c-0.835,0.04-2.178,2.31-2.231,3.588C1110.944,29.308,1111.08,35.145,1111.078,40.976z"/>
<path fill-rule="evenodd" clip-rule="evenodd" d="M507.361,0c9.812,0,19.625,0,29.82,0c-0.466,0.782-0.704,1.499-0.915,1.491
	c-8.268-0.298-11.534,5.245-14.229,11.781c-8.564,20.765-17.236,41.485-25.929,62.197c-4.096,9.76-8.283,19.481-12.558,29.164
	c-0.659,1.492-2.014,2.678-3.047,4.005c-0.917-1.23-2.144-2.335-2.704-3.711c-7.3-17.933-14.472-35.918-21.746-53.86
	c-5.503-13.572-11.125-27.096-16.657-40.655c-2.459-6.026-6.853-8.981-13.383-8.77c-0.59,0.019-1.19-0.308-1.735-1.327
	c12.186,0,24.372,0,36.558,0c0.037,0.244,0.074,0.487,0.112,0.73c-0.838,0.212-1.665,0.536-2.516,0.616
	c-5.764,0.546-6.969,2.452-4.911,7.933c9.603,25.577,19.21,51.152,28.839,76.721c0.279,0.74,0.812,1.385,1.622,2.733
	c3.872-9.582,7.702-18.688,11.242-27.903c6.064-15.787,12.098-31.589,17.854-47.49C516.636,3.822,516.396,3.735,507.361,0z"/>
<path fill-rule="evenodd" clip-rule="evenodd" d="M659.548,937.42c-11.117,0.589-22.57,1.75-31.667-7.472
	c-11.712-11.874-23.266-23.905-34.907-35.85c-0.881-0.904-1.92-1.655-3.897-3.338c0,4.296-0.084,7.515,0.016,10.727
	c0.29,9.261,0.616,18.521,1.007,27.778c0.161,3.824,2.226,6.019,6.092,6.412c1.242,0.126,2.484,0.253,3.687,1.399
	c-9.859,0-19.719,0-30.718,0c8.756-3.27,8.806-3.476,8.934-12.512c0.279-19.759,0.719-39.517,0.927-59.276
	c0.043-4.089-0.518-8.199-1.011-12.274c-0.641-5.298-5.772-4.14-9.387-6.126c9.806,0,19.088,0,28.369,0
	c-7.782,1.375-7.76,7.438-7.868,13.15c-0.175,9.282-0.047,18.569-0.047,26.595c11.816-11.752,24.089-23.957,36.656-36.456
	c-0.363-0.488-1.209-1.627-2.341-3.15c7.703,0,15.075,0,22.474,0c-19.827,7.618-30.261,26.29-46.296,39.078
	c1.14,1.377,1.87,2.415,2.754,3.302c8.581,8.618,17.131,17.268,25.81,25.787c4.721,4.635,9.282,9.584,14.631,13.385
	C647.852,932.195,653.871,934.502,659.548,937.42z"/>
<path fill-rule="evenodd" clip-rule="evenodd" d="M1827.542,846.722c0,8.085,0,14.741,0,21.625c-0.8-0.338-1.254-0.41-1.279-0.558
	c-2.365-13.359-12.84-16.711-23.809-17.856c-11.253-1.175-22.546-0.889-32.688,6.259c-8.06,5.679-11.578,13.673-13.557,22.509
	c-2.036,9.1-0.85,18.106,2.747,26.865c6.049,14.735,16.454,24.351,32.248,26.951c6.503,1.07,13.365,0.578,19.995,0.001
	c3.695-0.321,6.302-2.615,5.991-7.383c-0.444-6.805-0.105-13.659-0.115-20.492c-0.012-8.308-1-9.373-9.114-9.994
	c-0.589-0.045-1.159-0.337-1.69-1.361c10.164,0,20.328,0,30.512,0c-0.031,0.26-0.004,0.803-0.113,0.831
	c-8.591,2.269-8.592,2.266-8.592,11.324c0,7.833-0.086,15.668,0.041,23.499c0.053,3.287-1.047,4.875-4.412,5.977
	c-18.545,6.069-36.91,5.722-54.739-1.978c-13.745-5.937-21.296-17.14-23.96-31.86c-3.053-16.875,0.924-31.676,13.089-43.757
	c7.172-7.122,16.538-11.079,26.461-11.424C1798.882,845.402,1813.26,846.377,1827.542,846.722z"/>
<path fill-rule="evenodd" clip-rule="evenodd" d="M1564.363,893.022c9.812,0,19.623,0,29.436,0c0.065,0.294,0.131,0.589,0.196,0.883
	c-1.686,0.486-4.265,0.464-4.887,1.556c-1.771,3.11-3.622,6.614-3.855,10.07c-0.549,8.126-0.273,16.315-0.118,24.476
	c0.048,2.521-0.673,4.036-3.135,4.704c-4.7,1.274-9.335,3.496-14.083,3.757c-16.846,0.925-33.658,0.91-48.312-9.605
	c-10.473-7.515-15.897-17.777-17.603-30.46c-1.663-12.376,0.728-23.619,7.706-33.936c7.676-11.35,18.761-16.556,31.952-18.903
	c14.162-2.52,27.81,1.13,41.667,2.255c0.979,0.079,2.641,1.822,2.604,2.736c-0.242,5.975-0.865,11.933-2.119,18.042
	c-0.483-1.722-0.928-3.456-1.455-5.164c-2.326-7.532-8.698-10.483-15.325-12.119c-10.291-2.54-20.86-3.062-31.134,0.389
	c-12.445,4.179-19.234,13.336-21.832,25.931c-3.264,15.818,0.195,30.22,10.877,42.09c7.328,8.146,17.105,13.209,28.393,13.854
	c5.048,0.288,10.199-0.304,15.232-1.011c3.533-0.496,5.75-2.509,5.591-6.77c-0.287-7.652-0.34-15.335,0.012-22.982
	c0.226-4.903-0.646-7.512-7.847-8.157c-0.717-0.064-1.411-0.371-2.116-0.565C1564.258,893.734,1564.311,893.378,1564.363,893.022z"
	/>
<path fill-rule="evenodd" clip-rule="evenodd" d="M725.862,778.527c-7.112,0-15.244,0-21.986,0
	c-0.804-3.568-1.185-6.714-2.233-9.617c-2.376-6.571-5.092-13.02-7.647-19.526c-0.99-2.523-2.383-3.903-5.512-3.79
	c-7.648,0.277-15.32-0.083-22.966,0.227c-1.675,0.067-4.17,1.481-4.769,2.911c-3.136,7.49-6.021,15.109-8.511,22.839
	c-1.494,4.638,2.178,5.795,5.729,6.851c-8.625,0-17.249,0-25.873,0c8.071-0.821,11.902-6.433,14.695-13.137
	c1.187-2.85,2.143-5.793,3.247-8.678c8.72-22.769,17.433-45.541,26.233-68.278c0.398-1.028,1.632-1.733,2.477-2.589
	c0.706,0.81,1.696,1.503,2.077,2.443c9.83,24.264,19.564,48.565,29.412,72.821c1.41,3.474,2.683,7.347,5.154,9.961
	C718.455,774.205,722.703,776.326,725.862,778.527z M677.266,705.979c-0.506-0.067-1.011-0.136-1.516-0.203
	c-4.002,11.391-8.004,22.781-12.154,34.596c9.217,0,17.709,0,26.629,0C685.8,728.63,681.533,717.304,677.266,705.979z"/>
<path fill-rule="evenodd" clip-rule="evenodd" d="M1388.587,1001.089c3.536,8.544,6.533,15.692,9.46,22.868
	c7.677,18.819,15.168,37.717,23.044,56.452c4.368,10.389,5.94,11.34,16.782,14.63c-8.773,0-17.547,0-25.404,0
	c0-2.609,0.553-4.771-0.096-6.474c-2.892-7.598-6.286-15.005-9.164-22.607c-1.257-3.319-3.031-4.511-6.596-4.36
	c-6.979,0.293-13.98,0.15-20.972,0.057c-3.023-0.041-4.733,0.847-5.735,4.074c-1.827,5.889-4.448,11.525-6.516,17.346
	c-2.757,7.76-2.334,8.655,5.563,12.122c-9.938,0-18.773,0-27.61,0c5.941-1.07,10.553-3.964,13.096-9.438
	c1.912-4.115,3.279-8.481,4.925-12.722c8.709-22.431,17.419-44.861,26.178-67.272
	C1385.989,1004.621,1386.893,1003.656,1388.587,1001.089z M1386.803,1022.528c-0.553-0.005-1.106-0.011-1.659-0.016
	c-3.975,11.395-7.949,22.789-12.141,34.806c9.256,0,17.568,0,26.748,0C1395.301,1045.361,1391.052,1033.945,1386.803,1022.528z"/>
<path fill-rule="evenodd" clip-rule="evenodd" d="M713.131,104.958c5.857-0.047,7.89-3.336,7.962-8.524
	c0.29-20.761,0.717-41.52,0.928-62.281c0.043-4.258-0.324-8.581-1.131-12.753c-0.275-1.427-2.29-2.879-3.845-3.598
	c-1.591-0.736-3.591-0.587-5.412-0.825c0.013-0.433,0.025-0.864,0.037-1.297c17.652,0,35.306,0,53.238,0
	c-0.618,4.511-1.307,9.535-2.015,14.706c-0.616-0.351-1.116-0.471-1.158-0.683c-1.71-8.642-4.136-8.609-13.945-8.988
	c-4.646-0.18-9.306-0.031-14.336-0.031c0,11.594,0,22.978,0,35.106c9.606-1.299,19.577,2.473,29.524-3.2
	c-0.71,5.642-1.377,10.933-2.043,16.223c-1.461-7.601-7.101-8.146-13.104-8.131c-4.657,0.012-9.314,0.002-14.756,0.002
	c0,5.744,0,11.329,0,16.915c0,5.165,0.122,10.333-0.035,15.493c-0.146,4.764,2.246,7.857,6.62,8.253
	c5.739,0.519,11.606,0.313,17.359-0.218c5.308-0.491,8.431-3.836,9.149-9.275c0.086-0.65,0.837-1.214,2.075-1.562
	c-0.561,4.146-1.078,8.299-1.693,12.438c-0.541,3.632-3.178,4.055-6.198,3.969c-12.763-0.362-25.525-0.731-38.291-0.971
	c-2.848-0.053-5.706,0.412-8.56,0.638C713.379,105.895,713.255,105.426,713.131,104.958z"/>
<path fill-rule="evenodd" clip-rule="evenodd" d="M1155.54,937.414c6.682-2.959,7.44-4.071,7.55-11.396
	c0.297-19.928,0.729-39.854,0.931-59.782c0.046-4.591-0.341-9.238-1.123-13.757c-0.248-1.434-2.229-2.949-3.771-3.67
	c-1.586-0.741-3.604-0.558-5.434-0.777c0.009-0.439,0.018-0.878,0.026-1.316c17.618,0,35.236,0,53.157,0
	c-0.593,4.445-1.267,9.497-1.956,14.663c-0.569-0.305-1.063-0.405-1.122-0.624c-2.203-8.196-2.477-8.345-12.928-9.016
	c-4.974-0.319-9.985-0.055-15.387-0.055c0,11.533,0,22.918,0,35.073c9.521-1.199,19.463,2.405,29.455-3.065
	c-0.684,5.541-1.337,10.849-1.991,16.156c-1.484-7.903-7.4-8.197-13.533-8.168c-4.621,0.021-9.243,0.004-14.316,0.004
	c0,11.764-0.132,23.048,0.073,34.327c0.069,3.79,2.973,6.103,6.409,6.337c5.769,0.394,11.623,0.354,17.38-0.176
	c5.275-0.487,8.485-3.795,9.177-9.245c0.057-0.45,0.337-0.913,0.627-1.279c0.178-0.226,0.572-0.28,1.497-0.688
	c-0.58,4.468-1.061,8.594-1.665,12.701c-0.528,3.584-3.101,4.127-6.161,4.038c-12.763-0.371-25.526-0.739-38.292-0.972
	C1161.28,936.675,1158.408,937.17,1155.54,937.414z"/>
<path fill-rule="evenodd" clip-rule="evenodd" d="M683.332,886.891c9.984-1.502,20.038,2.533,29.637-3.253
	c-0.702,5.624-1.364,10.917-2.025,16.21c-1.355-7.992-7.316-8.209-13.459-8.17c-4.626,0.029-9.253,0.006-14.39,0.006
	c0,11.705-0.123,22.983,0.069,34.256c0.065,3.786,2.864,6.157,6.347,6.396c5.773,0.396,11.643,0.45,17.391-0.135
	c5.43-0.553,8.753-3.98,9.315-9.693c0.05-0.507,0.746-0.949,2.163-1.136c-0.763,4.524-1.145,9.168-2.511,13.502
	c-0.43,1.364-3.506,2.693-5.361,2.681c-12.766-0.089-25.527-0.595-38.293-0.827c-2.87-0.052-5.75,0.447-8.663,0.159
	c6.674-2.496,7.429-3.604,7.537-10.801c0.299-19.762,0.734-39.521,0.931-59.282c0.048-4.758-0.349-9.567-1.116-14.259
	c-0.236-1.444-2.18-3.007-3.711-3.731c-1.582-0.749-3.615-0.544-5.451-0.757c0.007-0.439,0.014-0.879,0.021-1.318
	c17.585,0,35.17,0,53.062,0c-0.556,4.396-1.197,9.473-1.853,14.65c-0.56-0.283-1.068-0.381-1.118-0.59
	c-2.189-9.079-4.429-8.562-13.412-9.064c-4.647-0.26-9.324-0.004-13.987,0.045c-0.293,0.004-0.583,0.23-1.121,0.458
	C683.332,863.409,683.332,874.673,683.332,886.891z"/>
<path fill-rule="evenodd" clip-rule="evenodd" d="M1663.405,90.863c-0.451,4.065-0.802,8.146-1.384,12.193
	c-0.447,3.116-2.714,3.729-5.498,3.646c-12.757-0.379-25.516-0.756-38.276-0.971c-3.213-0.055-6.437,0.49-9.694,0.213
	c7.458-2.866,8.495-4.322,8.512-13.403c0.04-21.816-0.069-43.634,0.055-65.45c0.046-8.132-2.053-9.291-9.852-11.347
	c17.364,0,34.729,0,52.785,0c-0.46,4.331-1.008,9.479-1.555,14.626c-2.091-8.054-4.607-9.256-13.345-9.643
	c-5.462-0.241-10.943-0.045-16.744-0.045c0,11.686,0,23.064,0,35.083c9.826-0.918,19.752,1.833,29.741-2.359
	c-0.478,5.312-0.96,10.683-1.443,16.054c-1.925-10.055-9.604-8.736-16.537-8.773c-3.808-0.021-7.616-0.004-12.001-0.004
	c0,11.212-0.235,22.139,0.124,33.046c0.132,4.018,2.99,7.23,7.125,7.58c5.765,0.487,11.667,0.613,17.392-0.084
	c4.545-0.555,8.315-3.1,8.396-8.671c0.01-0.675,0.769-1.339,1.18-2.008C1662.725,90.652,1663.065,90.758,1663.405,90.863z"/>
<path fill-rule="evenodd" clip-rule="evenodd" d="M1280.297,15.567c17.323,0,34.646,0,52.743,0
	c-0.452,4.475-0.971,9.604-1.489,14.731c-2.788-8.023-4.84-9.599-13.293-9.611c-5.162-0.008-10.325,0.018-15.487,0.041
	c-0.319,0.002-0.639,0.123-1.325,0.264c0,11.302,0,22.682,0,34.758c9.708-0.891,19.611,1.838,29.681-2.358
	c-0.469,5.326-0.939,10.683-1.497,17.03c-0.863-1.192-1.385-1.593-1.458-2.062c-0.803-5.146-3.026-7.41-8.405-7.617
	c-5.975-0.23-11.964-0.053-18.689-0.053c0,8.453,0.248,16.712-0.056,24.951c-0.501,13.604,2.591,16.754,16.25,16.052
	c2.819-0.145,5.716,0.19,8.449-0.346c4.428-0.868,4.858-1.619,10.614-10.558c-0.469,4.384-0.515,8.882-1.651,13.085
	c-0.362,1.339-3.627,2.692-5.555,2.68c-12.594-0.081-25.185-0.611-37.778-0.818c-3.227-0.054-6.463,0.525-9.64-0.059
	c2.252-1.312,5.242-2.127,6.557-4.073c1.419-2.102,1.723-5.259,1.737-7.959c0.124-22.982,0.115-45.965,0.039-68.947
	c-0.019-5.438-2.834-7.554-9.72-7.852C1280.315,16.42,1280.306,15.994,1280.297,15.567z"/>
<path fill-rule="evenodd" clip-rule="evenodd" d="M1070.402,90.806c-0.448,4.066-0.812,8.144-1.372,12.194
	c-0.431,3.116-2.649,3.785-5.449,3.703c-12.757-0.379-25.516-0.758-38.276-0.97c-3.229-0.053-6.467,0.511-9.594-0.049
	c2.263-1.326,5.266-2.153,6.588-4.114c1.416-2.102,1.693-5.267,1.708-7.972c0.121-22.981,0.115-45.965,0.035-68.947
	c-0.019-5.389-2.853-7.51-9.762-8.876c17.341,0,34.683,0,52.754,0c-0.442,4.281-0.974,9.418-1.505,14.555
	c-2.337-8.027-4.258-9.124-13.318-9.595c-5.464-0.283-10.953-0.052-16.781-0.052c0,11.644,0,23.023,0,35.069
	c9.761-0.895,19.674,1.838,29.707-2.353c-0.475,5.317-0.953,10.68-1.431,16.042c-1.328-5.39-4.477-8.531-9.984-8.71
	c-5.973-0.193-11.956-0.044-18.567-0.044c0,11.159-0.245,22.082,0.129,32.984c0.136,3.97,2.904,7.268,7.083,7.618
	c5.768,0.485,11.669,0.647,17.395-0.039c4.538-0.543,8.339-3.061,8.426-8.643c0.011-0.678,0.762-1.345,1.17-2.017
	C1069.705,90.664,1070.053,90.735,1070.402,90.806z"/>
<path fill-rule="evenodd" clip-rule="evenodd" d="M1416.124,687.269c-0.497,5.206-0.973,10.183-1.447,15.159
	c-0.278,0.058-0.557,0.115-0.835,0.173c-0.269-0.903-0.279-2.044-0.853-2.667c-1.999-2.17-3.941-5.505-6.361-5.956
	c-6.113-1.139-12.476-0.925-18.735-1.303c-2.78-0.168-3.87,1.048-3.845,3.825c0.084,9.496,0.085,18.995,0.002,28.492
	c-0.025,2.873,1.279,3.852,3.967,3.703c6.752-0.374,13.516-0.558,20.254-1.088c1.804-0.143,3.53-1.257,5.781-2.11
	c-0.433,5.57-0.873,11.242-1.317,16.961c-0.586-0.107-1.118-0.105-1.147-0.224c-2.04-8.488-2.098-8.437-11.333-8.595
	c-4.104-0.07-8.199-0.614-12.298-0.956c-2.734-0.229-3.932,0.924-3.907,3.75c0.083,9.663-0.144,19.332,0.101,28.99
	c0.146,5.752,2.99,8.152,8.813,8.247c4.191,0.067,8.385,0.081,12.575-0.002c7.504-0.148,8.897-1.216,11.802-8.57
	c0.221-0.557,0.749-0.992,2.15-2.782c-0.64,5.538-0.896,9.675-1.728,13.692c-0.224,1.077-2.194,2.545-3.375,2.557
	c-16.427,0.168-32.856,0.114-49.654-0.247c9.616-2.266,8.268-9.796,8.303-16.425c0.111-20.827,0.042-41.656,0.04-62.484
	c0-8.191-0.426-8.654-8.798-9.838c-0.384-0.055-0.714-0.481-1.035-1.33C1380.739,688.039,1398.269,690.294,1416.124,687.269z"/>
<path fill-rule="evenodd" clip-rule="evenodd" d="M996.282,687.882c17.462,0,34.924,0,52.743,0
	c-0.396,4.344-0.862,9.451-1.258,13.791c-2.456-2.537-4.686-5.841-7.781-7.708c-2.306-1.39-5.724-1.069-8.663-1.254
	c-14.244-0.892-14.246-0.86-14.246,13.352c0,6.165,0.093,12.332-0.038,18.494c-0.062,2.96,0.958,4.333,4.045,4.147
	c6.749-0.405,13.516-0.564,20.253-1.1c1.802-0.143,3.524-1.278,5.732-2.132c-0.447,5.601-0.901,11.279-1.361,17.025
	c-0.62-0.156-1.143-0.179-1.171-0.31c-1.807-8.208-2.172-8.393-10.852-8.549c-4.271-0.077-8.533-0.613-12.798-0.956
	c-2.785-0.225-3.864,1.047-3.84,3.819c0.083,9.497-0.1,18.998,0.079,28.492c0.114,6.069,2.867,8.579,8.907,8.675
	c4.357,0.069,8.717,0.048,13.075,0.006c6.64-0.064,8.558-1.527,11.063-8.184c0.266-0.708,0.825-1.306,2.139-1.747
	c-0.433,3.963-0.56,7.998-1.472,11.847c-0.303,1.276-2.614,2.939-4.025,2.958c-16.157,0.208-32.317,0.132-48.874,0.132
	c0.335-0.546,0.47-1.046,0.692-1.088c7.376-1.411,7.36-7.285,7.392-12.758c0.127-22.161,0.059-44.324,0.049-66.485
	c-0.003-6.656-1.289-8.04-7.862-8.698c-0.689-0.069-1.353-0.408-2.027-0.622C996.216,688.647,996.25,688.265,996.282,687.882z"/>
<path fill-rule="evenodd" clip-rule="evenodd" d="M573.583,759.219c3.447,14.323,16.573,21.092,30.152,15.053
	c4.443-1.977,8.537-5.309,9.291-10.768c0.982-7.123-1.011-13.173-6.869-17.839c-8.463-6.739-17.248-13.181-25.017-20.661
	c-11.499-11.075-8.584-29.833,6.222-36.051c7.967-3.346,16.189-2.354,24.375-1.884c2.692,0.154,5.333,1.216,8.595,2.007
	c-0.398,4.95-0.79,9.825-1.235,15.37c-0.797-0.935-1.315-1.297-1.489-1.782c-4.19-11.733-20.086-16.003-29.958-8.026
	c-6.131,4.955-6.734,13.793-0.49,19.41c6.667,5.998,14.173,11.054,21.153,16.717c8.255,6.697,14.934,14.384,14.773,25.943
	c-0.163,11.73-9.608,21.423-21.253,23.134c-8.491,1.248-16.62,0.66-24.861-1.118c-3.38-0.73-5.223-2.103-4.965-5.95
	c0.302-4.511,0.07-9.058,0.07-13.589C572.579,759.195,573.081,759.207,573.583,759.219z"/>
<path fill-rule="evenodd" clip-rule="evenodd" d="M687.081,14.691c0,6.599,0,11.69,0,16.781c-0.548,0.252-1.096,0.503-1.644,0.754
	c-0.183-7.818-4.604-11.536-11.199-12.876c-10.076-2.049-21.02-0.655-23.407,9.959c-1.045,4.646-0.156,8.91,3.432,11.93
	c6.757,5.688,13.928,10.883,20.775,16.468c8.168,6.661,15.261,13.751,15.179,25.676c-0.087,12.724-8.695,22.913-22.146,24.117
	c-7.163,0.641-14.563,0.019-21.717-1.009c-7.084-1.019-7.598-2.283-7.239-9.616c0.095-1.942,0.741-3.853,0.926-5.798
	c0.163-1.711,0.034-3.45,0.761-5.163c1.421,3.567,2.148,7.669,4.404,10.592c4.926,6.384,12.378,7.956,19.867,6.958
	c7.741-1.032,13.679-5.271,15.808-13.4c1.343-5.131-2.555-13.599-7.377-17.326c-8.16-6.307-16.545-12.417-24.062-19.438
	c-7.242-6.764-9.48-15.595-6.044-25.229c2.767-7.756,8.859-12.394,16.643-13.166C669.19,13.996,678.5,14.691,687.081,14.691z"/>
<path fill-rule="evenodd" clip-rule="evenodd" d="M544.177,846.55c0,5.859,0,10.86,0,15.862c-0.354,0.078-0.71,0.157-1.064,0.236
	c-0.323-0.418-0.901-0.818-0.931-1.256c-0.418-6.213-4.289-9.368-9.827-10.676c-7.501-1.771-14.969-2.59-21.272,3.458
	c-5.117,4.911-5.107,13.261,0.058,17.899c5.832,5.238,12.517,9.534,18.294,14.826c5.514,5.051,11.866,10.07,15.158,16.484
	c7.596,14.799-0.436,33.332-19.816,35.133c-6.993,0.65-14.229-0.006-21.22-1.004c-7.256-1.036-7.945-2.438-7.436-9.932
	c0.243-3.573,0.932-7.115,1.516-11.377c0.683,1.04,1.388,1.613,1.36,2.148c-0.394,7.605,4.03,11.795,10.387,14.373
	c7.56,3.064,15.241,3.096,21.901-1.922c10.749-8.1,7.647-20.049-1.095-27.101c-8.035-6.482-16.517-12.504-23.953-19.614
	c-9.04-8.644-9.929-21.881-2.227-31.046c5.237-6.232,12.52-8.139,20.078-8.212C530.924,844.766,537.772,845.955,544.177,846.55z"/>
<path fill-rule="evenodd" clip-rule="evenodd" d="M1602.696,860.587c0.938-5.204,1.675-9.768,2.686-14.271
	c0.125-0.559,1.727-1.167,2.605-1.115c6.882,0.406,13.749,1.297,20.631,1.413c13.818,0.233,27.644,0.106,41.466,0.045
	c3.76-0.017,7.519-0.33,11.393-0.512c0,4.699,0,9.671,0,14.643c-3.805-9.946-12.578-8.668-19.97-8.96
	c-13.415-0.528-13.43-0.157-13.43,13.03c0,14.821-0.102,29.645,0.046,44.464c0.067,6.765,0.671,13.522,0.944,20.287
	c0.158,3.927,2.896,5.199,6.019,5.962c1.539,0.376,3.197,0.262,4.782,1.449c-10.512,0-21.023,0-31.535,0
	c9.734-1.212,8.728-8.517,8.734-15.161c0.024-23.138,0.01-46.276,0.01-70.653c-9.073,0.588-17.955,0.669-26.638,2.024
	C1607.807,853.643,1605.724,857.577,1602.696,860.587z"/>
<path fill-rule="evenodd" clip-rule="evenodd" d="M1004.254,1004.684c-0.246,4.539-0.51,9.419-0.773,14.3
	c-0.369,0.27-0.736,0.538-1.105,0.808c-1.918-10.461-10.253-9.565-17.041-9.938c-15.237-0.834-15.258-0.463-15.258,14.674
	c0,15.154-0.093,30.311,0.046,45.464c0.055,5.932,0.65,11.858,0.958,17.788c0.203,3.936,3.086,5.057,6.174,5.808
	c1.491,0.362,3.098,0.253,4.624,1.516c-10.497,0-20.994,0-31.518,0c0.043-0.304,0.052-0.857,0.135-0.868
	c7.964-1.08,8.467-4.27,8.521-11.546c0.166-22.481,0.061-44.965,0.061-67.448c0-1.641,0-3.282,0-6.01
	c-9.042,0.556-17.78,0.595-26.322,1.909c-2.686,0.414-4.845,4.252-7.966,7.206c0.901-5.029,1.655-9.635,2.641-14.189
	c0.118-0.546,1.517-1.191,2.297-1.16c12.685,0.502,25.361,1.222,38.048,1.644c7.319,0.243,14.653,0.044,21.981,0.044
	C994.34,1004.684,998.925,1004.684,1004.254,1004.684z"/>
<path fill-rule="evenodd" clip-rule="evenodd" d="M1221.088,860.046c1.015-4.854,2.092-10.004,3.058-14.624
	c5.609,0.444,10.772,1.156,15.94,1.205c16.146,0.153,32.294,0.084,48.44,0.035c3.592-0.011,7.183-0.293,11.076-0.463
	c0,4.86,0,10.064,0,15.269c-1.691-10.168-10.298-8.482-16.67-9.601c-4.969-0.871-10.212-0.174-15.856-0.174c0,3.033,0,5.646,0,8.257
	c0,21.142,0,42.282,0,63.423c0.001,10.122,0.814,11.048,10.804,12.427c0.378,0.052,0.705,0.479,1.954,1.376
	c-11.479,0-21.979,0-31.765,0c2.114-1.925,5.294-3.685,6.646-6.366c1.385-2.748,1.294-6.396,1.309-9.653
	c0.099-21.64-0.008-43.28,0.11-64.92c0.02-3.493-1.149-4.822-4.631-4.587c-6.745,0.455-13.652-0.02-20.196,1.327
	C1227.733,853.713,1224.761,857.387,1221.088,860.046z"/>
<path fill-rule="evenodd" clip-rule="evenodd" d="M807.59,846.176c0,5.087,0,10.205,0,15.322c-1.602-9.883-9.917-8.576-16.183-9.614
	c-5.145-0.853-10.543-0.174-16.331-0.174c0,4.031,0,7.647,0,11.263c0,20.143-0.001,40.284,0,60.427
	c0.001,10.081,0.781,10.965,10.83,12.404c0.372,0.054,0.69,0.491,1.877,1.385c-11.436,0-21.934,0-31.733,0
	c2.142-1.954,5.381-3.712,6.664-6.402c1.399-2.935,1.295-6.731,1.312-10.155c0.101-21.307-0.04-42.615,0.132-63.921
	c0.032-4.008-1.253-5.379-5.181-5.074c-6.572,0.511-13.325-0.017-19.693,1.341c-3.577,0.762-6.536,4.427-10.071,7
	c0.946-4.781,1.969-9.946,2.889-14.596c5.507,0.463,10.507,1.197,15.513,1.245c16.146,0.155,32.294,0.088,48.44,0.035
	C799.812,846.648,803.57,846.353,807.59,846.176z"/>
<path fill-rule="evenodd" clip-rule="evenodd" d="M1229.043,15.8c10.398,0,19.688,0,28.979,0c-7.508,1.712-8.051,7.23-8.006,13.534
	c0.157,21.983-0.044,43.97,0.092,65.953c0.118,19.153-9.811,31.575-26.097,39.904c-0.668,0.342-1.503,0.356-3.766,0.854
	c3.229-2.811,5.312-4.697,7.473-6.491c6.462-5.363,8.906-12.837,10.227-20.62c0.932-5.494,1.054-11.17,1.085-16.767
	c0.117-20.651,0.047-41.304,0.047-61.956C1239.077,20.028,1239.077,20.028,1229.043,15.8z"/>
<path fill-rule="evenodd" clip-rule="evenodd" d="M575.811,106.333c-10.144,0-20.286,0-31.643,0c1.515-0.941,2.074-1.592,2.619-1.58
	c4.613,0.097,6.146-2.979,6.221-6.672c0.464-22.757,0.774-45.517,1.013-68.276c0.029-2.753-0.002-5.885-1.243-8.168
	c-1.279-2.354-4.072-3.883-6.045-5.632c8.032,0,16.663,0,25.295,0c-7.917,1.109-6.985,7.084-6.972,12.695
	c0.052,20.491,0.021,40.983,0.021,61.475C565.077,102.431,565.077,102.431,575.811,106.333z"/>
<path fill-rule="evenodd" clip-rule="evenodd" d="M1454.772,846.83c9.934,0,18.543,0,27.151,0
	c-8.148,1.367-6.866,7.588-6.858,13.222c0.029,20.658,0.001,41.317,0.017,61.976c0.007,9.017-0.741,12.59,10.756,14.994
	c-10.174,0-20.348,0-30.521,0c8.562-1.037,7.735-7.28,7.804-13.289c0.217-19.096,0.7-38.188,0.899-57.283
	c0.046-4.422-0.269-8.925-1.148-13.242c-0.351-1.719-2.604-3.123-4.148-4.493C1457.973,848.05,1456.86,847.797,1454.772,846.83z"/>
<path fill-rule="evenodd" clip-rule="evenodd" d="M1698.256,846.69c9.137,0,17.296-0.003,25.455,0.009
	c0.438,0.001,0.875,0.136,1.72,0.512c-7.427,0.984-7.466,6.037-7.421,11.617c0.167,20.49,0.066,40.982,0.066,61.475
	c0,12.593,0,12.593,10.791,16.846c-10.168,0-20.336,0-30.503,0c-0.073-0.307-0.147-0.614-0.221-0.921
	c1.417-0.236,3.411,0.025,4.132-0.811c1.604-1.862,3.554-4.235,3.641-6.468c0.628-16.084,0.987-32.184,1.093-48.28
	c0.055-8.256-0.423-16.527-0.979-24.771C1705.689,850.854,1705.417,850.872,1698.256,846.69z"/>
<path fill-rule="evenodd" clip-rule="evenodd" d="M1659.485,313.684c6.047-0.011,9.625,3.567,9.591,9.592
	c-0.03,5.566-4.03,9.464-9.655,9.407c-5.324-0.053-9.256-3.935-9.343-9.224C1649.977,317.36,1653.504,313.694,1659.485,313.684z"/>
<path fill-rule="evenodd" clip-rule="evenodd" d="M1385.9,994.771c-1.823-0.105-4.14,0.454-5.365-0.456
	c-2.45-1.819-5.975-4.432-5.99-6.737c-0.021-3.099,2.108-7.212,4.646-9.123c5.6-4.219,12.277-5.026,19.017-2.16
	c4.44,1.889,5.55,8.19,2.146,12.548C1396.684,993.54,1391.689,995.13,1385.9,994.771z M1388.206,991.682
	c4.27-0.057,8.016-3.497,7.856-7.215c-0.145-3.37-3.68-6.624-7.327-6.744c-3.573-0.117-8.661,4.307-8.629,7.502
	C1380.139,988.486,1384.214,991.735,1388.206,991.682z"/>
</svg>
