<?xml version="1.0" encoding="utf-8"?>
<!-- Generator: Adobe Illustrator 15.0.0, SVG Export Plug-In . SVG Version: 6.00 Build 0)  -->
<!DOCTYPE svg PUBLIC "-//W3C//DTD SVG 1.1//EN" "http://www.w3.org/Graphics/SVG/1.1/DTD/svg11.dtd">
<svg version="1.1" id="Layer_1" xmlns="http://www.w3.org/2000/svg" xmlns:xlink="http://www.w3.org/1999/xlink" x="0px" y="0px"
	 width="4434px" height="892px" viewBox="0 0 4434 892" enable-background="new 0 0 4434 892" xml:space="preserve">
<path fill-rule="evenodd" clip-rule="evenodd" fill="#FFFFFF" d="M449,0C270.31,9.186,126.319,64.656,48,180
	C21.545,218.961,2.764,272.285,0,328C0,218.667,0,109.333,0,0C149.667,0,299.333,0,449,0z"/>
<path fill-rule="evenodd" clip-rule="evenodd" d="M449,0c11.667,0,23.333,0,35,0c162.337,8.215,300.467,41.712,393,122
	c45.939,39.86,84.601,93.086,82,176c-2.399,76.48-43.412,127.393-94,163c-50.228,35.354-114.996,60.602-192,66
	c-81.069,5.684-159.347-8.865-220-35c-56.962-24.545-112.611-66.826-127-131c-15.429-68.813,25.018-127.266,85-134
	c7.662-0.86,19.345-4.225,27,3c-46.713,3.264-71.042,19.114-89,48c-19.082,30.693-19.495,75.446-1,108
	c30.434,53.567,104.897,82.053,179,95c169.235,29.568,349.465-4.812,405-122c36.676-77.393,2.179-160.678-39-205
	c-45.295-48.753-104.707-80.528-171-102c-69.033-22.359-149.1-38-236-38C305.361,14,167.886,60.953,83,158
	C39.128,208.158,8.819,269.955,13,362c3.8,83.662,40.331,143.445,83,191c43.87,48.893,98.784,83.588,161,112
	c123.131,56.23,282.971,85.831,457,90c179.12,4.291,346.918-15.254,504-41c-37.993-28.498-82.896-62.088-110-116
	c-27.343-54.386-24.466-138.134,28-164c31.392-15.477,70.86,4.167,56,45c-0.81,0.19-0.997,1.003-2,1
	c-25.934-3.732-41.045-18.289-52-37c-50.222,30.102-41.278,113.866-15,161c18.868,33.842,47.56,60.58,80,85
	c8.867,6.675,23.948,20.78,32,22c5.863,0.888,18.69-3.143,30-5c230.832-37.902,441.631-92.647,686-116
	c64.892-6.201,131.198-8.488,201-6c21.52,0.768,43.455,4.083,65,4c22.215-0.086,44.066-3.218,66-4
	c160.493-5.722,308.743,15.627,445,40c145.705,26.063,290.772,57.332,441,82c10.378,1.704,22.979,5.784,29,5
	c8.725-1.136,23.7-14.989,33-22c32.619-24.588,58.566-50.45,79-86c26.736-46.515,36.381-128.888-14-160
	c-11.749,18.584-26.488,34.179-54,37c-14.928-37.37,19.429-62.13,53-48c54.724,23.033,57.72,107.471,31,163
	c-27.201,56.53-71.057,90.854-111,119c157.884,25.611,325.266,45.306,505,41c173.896-4.166,334.885-33.607,458-90
	c62.413-28.588,115.892-64.905,161-113c43.562-46.446,77.6-109.274,82-192c4.828-90.782-28.258-153.802-71-203
	c-84.148-96.859-222.738-143-404-143c-86.918,0-166.497,16.328-235,39c-66.787,22.104-126.333,52.514-172,102
	c-42.391,45.937-72.197,130.697-38,205c52.748,114.61,239.35,152.162,407,121c73.959-13.747,147.598-41.944,178-96
	c18.402-32.718,17.889-77.182-1-108c-17.339-28.288-42.943-44.115-90-46c7.128-7.759,20.131-5.841,28-5
	c25.721,2.75,48.635,18.762,62,34c20.869,23.793,31.721,59.947,23,100c-14.343,65.871-69.283,105.17-127,131
	c-60.264,26.969-138.239,41.233-220,36c-75.724-4.848-142.724-30.314-192-65c-50.114-35.276-92.482-87.529-94-164
	c-1.659-83.637,34.896-136.052,82-176c93.44-79.244,229.805-114.746,393-122c11.667,0,23.333,0,35,0
	c103.943,5.253,187.387,23.672,259,60c103.129,52.315,188.988,136.645,189,290c0.004,47.986-12.561,92.202-30,129
	c-33.967,71.674-88.694,125.696-151,168c-126.08,85.604-294.834,132.555-492,146c-100.751,6.87-206.324,1.244-304-9
	c-97.699-10.246-190.719-22.832-279-42c-187.084,94.91-421.471,142.542-696,150c-7.667,0-15.334,0-23,0
	c-65.184-2.015-124.981-2.705-185-9c-18.987-1.991-38.527-7.24-57-7c-18.978,0.246-38.614,5.062-58,7
	c-57.666,5.767-118.004,7.47-183,9c-7.333,0-14.667,0-22,0c-273.963-7.707-509.023-54.306-695-150
	c-176.527,32.878-386.935,66.09-599,50c-199.81-15.16-370.859-66.715-497-160C77.883,569.793,9.665,488.711,0,357
	c0-9.667,0-19.333,0-29c2.764-55.715,21.545-109.039,48-148C126.319,64.656,270.31,9.186,449,0z M1975,600
	c-36.408,3.349-71.19,8.504-106,14c-207.494,32.762-393.004,86.622-594,127c228.345,110.005,565.938,162.731,905,128
	c-77.079-16.728-153.021-33.119-191-87c-17.501-24.829-22.56-63.111-10-91c27.528-61.128,112.348-81.297,185-96
	C2099.683,591.201,2035.231,594.461,1975,600z M2755,650c-144.425-31.163-308.598-64.097-485-54c44.923,6.639,85.413,17.429,121,36
	c33.205,17.328,67.12,41.507,71,86c5.293,60.709-39.181,92.483-78,112c-40.356,20.289-85.745,30.104-130,40
	c341.344,31.841,678.221-17.611,904-130C3023.572,714.16,2893.431,679.869,2755,650z M2032,649c-35.022,22.269-66.598,66.883-42,117
	c25.349,51.646,100.385,75.249,165,89c20.176,4.294,42.337,10,62,10c22.024,0,47.167-6.949,70-12c62.956-13.928,134.34-40.9,157-87
	c8.664-17.627,12.812-45.262,2-70c-17.721-40.541-64.26-62.388-115-77c-33.338-9.601-84.014-21.408-120-19
	C2143.333,604.527,2070.729,624.375,2032,649z"/>
<path fill-rule="evenodd" clip-rule="evenodd" fill="#FFFFFF" d="M3985,0c149.668,0,299.333,0,449,0c0,297.343,0,594.652,0,892
	c-650.952,0-1302.078,0-1953,0c274.529-7.458,508.916-55.09,696-150c88.281,19.168,181.301,31.754,279,42
	c97.676,10.244,203.249,15.87,304,9c197.166-13.445,365.92-60.396,492-146c62.306-42.304,117.033-96.326,151-168
	c17.439-36.798,30.004-81.014,30-129c-0.012-153.355-85.871-237.685-189-290C4172.387,23.672,4088.943,5.253,3985,0z"/>
<path fill-rule="evenodd" clip-rule="evenodd" fill="#FFFFFF" d="M0,357c9.665,131.711,77.883,212.793,162,275
	c126.141,93.285,297.19,144.84,497,160c212.065,16.09,422.473-17.122,599-50c185.977,95.694,421.037,142.293,695,150
	c-650.952,0-1302.078,0-1953,0C0,713.669,0,535.332,0,357z"/>
<path fill-rule="evenodd" clip-rule="evenodd" fill="#FFFFFF" d="M2164,595c-72.652,14.703-157.472,34.872-185,96
	c-12.56,27.889-7.501,66.171,10,91c37.979,53.881,113.921,70.272,191,87c-339.062,34.731-676.655-17.995-905-128
	c200.996-40.378,386.506-94.238,594-127c34.81-5.496,69.592-10.651,106-14C2035.231,594.461,2099.683,591.201,2164,595z"/>
<path fill-rule="evenodd" clip-rule="evenodd" fill="#FFFFFF" d="M3158,740c-225.779,112.389-562.656,161.841-904,130
	c44.255-9.896,89.644-19.711,130-40c38.819-19.517,83.293-51.291,78-112c-3.88-44.493-37.795-68.672-71-86
	c-35.587-18.571-76.077-29.361-121-36c176.402-10.097,340.575,22.837,485,54C2893.431,679.869,3023.572,714.16,3158,740z"/>
<path fill-rule="evenodd" clip-rule="evenodd" d="M2217,687c7.441-17.514,16.798-34.484,36-38c32.662-5.979,54.379,17.645,51,49
	c-3.254,30.2-25.69,51.073-44,75c-19.526,25.517-35.895,50.201-42,77c-7.131-25.367-22.528-47.473-40-71
	c-15.926-21.446-36.403-44.048-45-66c-10.913-27.866,2.388-60.059,29-64C2195.281,644.07,2207.708,665.527,2217,687z"/>
<path fill-rule="evenodd" clip-rule="evenodd" fill="#FFFFFF" d="M2458,892c-160.997,0-322.004,0-483,0
	c64.996-1.53,125.334-3.233,183-9c19.386-1.938,39.022-6.754,58-7c18.473-0.24,38.013,5.009,57,7
	C2333.019,889.295,2392.816,889.985,2458,892z"/>
</svg>
