<?xml version="1.0" encoding="utf-8"?>
<!-- Generator: Adobe Illustrator 15.0.0, SVG Export Plug-In . SVG Version: 6.00 Build 0)  -->
<!DOCTYPE svg PUBLIC "-//W3C//DTD SVG 1.1//EN" "http://www.w3.org/Graphics/SVG/1.1/DTD/svg11.dtd">
<svg version="1.1" id="Layer_1" xmlns="http://www.w3.org/2000/svg" xmlns:xlink="http://www.w3.org/1999/xlink" x="0px" y="0px"
	 width="2151px" height="512.165px" viewBox="0 0 2151 512.165" enable-background="new 0 0 2151 512.165" xml:space="preserve">
<path d="M1457,162c-6.333,0-12.667,0-19,0c-6.612-12.35,13.394-126.439,19-146c1.92-6.701,11.727-11.225,11-16
	c-6.666,2-13.334,4-20,6c-12.921,20.624-18.931,89.247-25,118c-2.401,11.377-9.063,33.583-5,44
	C1422.995,174.913,1452.333,166.643,1457,162z"/>
<path d="M711,159c-6.616,2.269-15.435,3.571-23,2c-16.541-31.969,15.667-125.809,28-143c5.333-0.333,10.667-0.667,16-1
	c0.667-1,1.333-2,2-3c0-1.333,0-2.667,0-4c-38.737-6.179-49.788,50.237-59,80c-16.665,0.333-33.335,0.667-50,1
	c3.666-18.665,7.334-37.335,11-56c2.667-1.333,5.333-2.667,8-4c-7.666-0.333-15.334-0.667-23-1c-30.158,0.07-61.681,8.603-55,41
	c0.333,0.667,0.667,1.333,1,2c2,0,4,0,6,0c0-5.666,0-11.334,0-17c3.733-16.878,23.735-21.561,43-20c0.667,0.667,1.333,1.333,2,2
	c-3.744,44.639-20.635,141.757-71,127c-3.595-5.643-5.138-11.956-6-21c-3.333-0.333-6.667-0.667-10-1c-0.667,0.333-1.333,0.667-2,1
	c-16.246,22.931,15.849,33.495,39,27c30.784-8.637,48.498-41.19,55-74c16.665,0,33.335,0,50,0c0.333,0.667,0.667,1.333,1,2
	c-5.896,18.724-12.664,50.668-8,70c12.655,7.256,30.655-5.027,45-7C711,161,711,160,711,159z"/>
<path d="M1208,86c3.642-16.889,1.584-48.708,15-56c0-0.333,0-0.667,0-1c-11.332-0.333-22.668-0.667-34-1
	c-16.231,6.604-46.482,17.517-34,44c0.667,1,1.333,2,2,3c1.667,0,3.333,0,5,0c1-1,2-2,3-3c-6.533-19.515,5.257-49.418,31-38
	c1,0.333,2,0.667,3,1c-5.356,54.274-14.22,147.197-48,172c-14.402-0.212-13.111-6.334-22-10c-1,6-2,12-3,18
	C1179.67,234.424,1199.196,126.834,1208,86z"/>
<path d="M932,50c3.131,1.257,4.529,0.653,7-1c4.527-2.563,5.261-5.664,5-13c-0.333-0.667-0.667-1.333-1-2c-3-0.667-6-1.333-9-2
	c-2,2-4,4-6,6C925.318,43.512,927.679,48.066,932,50z"/>
<path d="M978,51c6.08-5.097,12.105-18.671-3-19c-5.751,4.12-7.438,5.338-7,16C971.286,49.917,972.339,50.791,978,51z"/>
<path d="M1032,50c1.667,0.333,3.333,0.667,5,1c2-2.333,4-4.667,6-7c2.76-5.419,0.267-9.195-4-11c-1.667-0.333-3.333-0.667-5-1
	C1028.406,35.543,1022.147,45.723,1032,50z"/>
<path d="M1068,38c-1.814,8.083,0.21,13.136,10,13c3.201-3.078,4.773-3.543,6-9c0-2.333,0-4.667,0-7c-3-1-6-2-9-3
	C1072.667,34,1070.333,36,1068,38z"/>
<path d="M940,159c0,3.667,0,7.333,0,11c11.268,2.981,28.093-4.006,36-9c0.667,0,1.333,0,2,0c-2.536-3.926-9.203-0.671-17,0
	c-8.908-18.574,8.649-68.996,13-89c0-0.333,0-0.667,0-1c-2-0.333-4-0.667-6-1c-10.111,8.011-24.563,0.427-38,7
	c-26.833,13.125-41.212,51.39-37,92C908.909,176.261,926.339,162.04,940,159z M936,79c6,1.333,12,2.667,18,4
	c0.667,0.667,1.333,1.333,2,2c-5,22.665-10,45.335-15,68c-6.823,4.675-14.913,7.319-27,7C897.63,134.715,922.39,90.049,936,79z"/>
<path d="M1061,161c-8.991-18.136,8.488-69.655,13-89c0-0.333,0-0.667,0-1c-2-0.333-4-0.667-6-1c-10.316,7.858-21.858,0.217-36,6
	c-27.571,11.274-44.732,52.275-39,93c15.823,7.219,33.284-6.98,47-10c0,3.667,0,7.333,0,11c11.268,2.981,28.093-4.006,36-9
	c0.667,0,1.333,0,2,0C1075.451,157.031,1068.582,160.271,1061,161z M1041,153c-6.913,4.62-14.898,7.316-27,7
	c-15.749-24.191,7.164-69.192,22-81c9.104,0.443,13.865,2.972,20,6C1051,107.665,1046,130.335,1041,153z"/>
<path d="M1635,161c-0.667-1.333-1.333-2.667-2-4c-8.021-21.041,13.174-64.012,14-87c-7.698,0.642-8.725,4.645-13,6
	c-7.656,2.427-19.305-3.49-28,0c-26.253,10.539-47.077,52.665-39,93c16.023,7.302,33.044-7.179,47-10c0,3,0,6,0,9
	c6.815,8.804,29.705-5.01,38-7C1649.347,156.628,1642.593,160.393,1635,161z M1614,152c-2.99,5.335-17.76,10.853-26,7
	c-1-0.333-2-0.667-3-1c-6.962-29.945,7.084-66.356,25-79c6.333,1.667,12.667,3.333,19,5C1624,106.665,1619,129.335,1614,152z"/>
<path d="M703,80c6.124,3.578,15.859,1.427,20,7c13.622,18.333,9.302,68.575,24,83c-6.718,10.519-39.968,52.196-35,65
	c1.333,1.333,2.667,2.667,4,4c4-1.667,8-3.333,12-5c0.612-64.07,75.496-89.768,65-159c-2.667-1-5.333-2-8-3c-2,1-4,2-6,3
	c-6.094,11.17,7.502,17.762,4,35c-3.601,17.724-16.864,28.867-23,44c-1,0.667-2,1.333-3,2c-8.688-22.235-14.691-54.9-16-81
	c-10.379-2.547-27.08,1.802-38,4C703,79.333,703,79.667,703,80z"/>
<path d="M1237,170c48.44,9.968,82.14-60.697,55-96c-4.333-0.667-8.667-1.333-13-2c-11.506,5.222-21.918,7.713-31,15
	C1235.442,97.076,1216.702,154.33,1237,170z M1269,81c31.67,5.447,11.626,73.082-6,80c-3.333,0.333-6.667,0.667-10,1
	C1230.656,140.119,1252.53,91.487,1269,81z"/>
<path d="M871,76c-1,0.333-2,0.667-3,1c7.443,33.595-1.049,76.04-35,82c-1.333-0.667-2.667-1.333-4-2
	c-5.661-27.456,7.362-55.191,8-83c-11.999,2-24.001,4-36,6c-1.357,1.959,14.119,3.081,17,4c4.946,28.349-7.133,57.511-8,86
	c37.726,10.154,78.439-53.476,78-91c-2-1.333-4-2.667-6-4C878.364,73.291,873.804,74.232,871,76z"/>
<path d="M1322,170c16.555,4.087,29.157-8.771,44-11c-0.333,4-0.667,8-1,12c11.666-2,23.334-4,35-6c0.333-0.333,0.667-0.667,1-1
	c0-0.333,0-0.667,0-1c-4.193-0.775-15.214,1.711-18-3c-8.189-13.85,13.448-70.629,15-86c-6,1.667-12,3.333-18,5
	c-4.666,25.331-9.334,50.669-14,76c-7.333,2-14.667,4-22,6c-13.487-14.886,5.713-67.751,8-87c-10.999,1.333-22.001,2.667-33,4
	c-0.333,0.667-0.667,1.333-1,2c0,0.333,0,0.667,0,1c4.333,0.667,8.667,1.333,13,2C1337.513,90.572,1321.319,155.063,1322,170z"/>
<path d="M1468,78c0,1,0,2,0,3c4.333,0.333,8.667,0.667,13,1c11.051,25.341-17.839,60.605-9,86c7.555,9.669,34.264-7.344,44-9
	c-0.333,4-0.667,8-1,12c11.666-2,23.334-4,35-6c0.333-0.333,0.667-0.667,1-1c0-0.333,0-0.667,0-1c-5.333-0.333-10.667-0.667-16-1
	c-12.303-24.229,10.289-64.263,13-88c-6,1.667-12,3.333-18,5c-4.666,25.331-9.334,50.669-14,76c-7.333,2-14.667,4-22,6
	c-1.333-1.667-2.667-3.333-4-5c-7.357-18.982,9.085-63.849,12-82C1490.668,75.333,1479.332,76.667,1468,78z"/>
<path d="M733,288c0-1,0-2,0-3c-1,0-2,0-3,0c-6.333,2-12.667,4-19,6c-7.312,13.568-7.306,32.985-11,50
	c-7.61,35.046-19.621,73.593-19,113c10.322,4.523,26.195-3.073,38-5c0.333-1.333,0.667-2.667,1-4c-6,0.667-12,1.333-18,2
	c-10.767-17.852,11.061-100.687,16-124C721.232,307.747,718.385,291.904,733,288z"/>
<path d="M782,288c0.333-1,0.667-2,1-3c-1,0-2,0-3,0c-6.333,2-12.667,4-19,6c-8.228,14.524-8.002,36.589-12,55
	c-7.284,33.543-18.6,70.199-18,108c10.322,4.523,26.195-3.073,38-5c0.333-1.333,0.667-2.667,1-4c-6,0.667-12,1.333-18,2
	c-1-1.333-2-2.667-3-4c-5.199-30.661,11.909-85.333,18-115C770.326,311.798,767.988,293.609,782,288z"/>
<path d="M1271,307c1-2,2-4,3-6c-2.564-2.849-3.804-3.502-9-4c-12.332,8.666-24.668,17.334-37,26c-6,35.997-12,72.003-18,108
	c-13.91,7.084-46.003,26.258-64,12c-19.14-15.164,8.027-116.051,19-127c-12.072-4.87-33.808,1.249-46,3
	c2.341,3.964,12.257,4.051,18,4c12.247,31.257-28.061,86.344-15,121c10.798,28.651,67.679,1.007,85-6c0.333,0,0.667,0,1,0
	c0,5,0,10,0,15c15.276,4.026,31.028-3.594,44-6c-3.361-4.719-14.032,0.771-22-2c-1-0.333-2-0.667-3-1
	c-5.388-25.446,11.74-127.09,26-136C1258.013,304.868,1265.308,307.65,1271,307z"/>
<path d="M332,312c-18.897,7.119-34.136,6.353-48,17c-27.876,21.408-53.24,105.582-5,125c51.666,20.797,96.21-23.393,106-58
	C399.502,344.735,383.97,310.609,332,312z M305,451c-43.189-8.965-41.339-78.278-19-109c9.304-12.796,21.549-16.916,37-24
	C402.368,315.894,374.284,465.382,305,451z"/>
<path d="M1770,313c-4.472-0.93-8.315-1.021-12,1c-0.667,0-1.333,0-2,0c1.298,8.021,6.207,14.425,4,26
	c-5.511,28.899-40.408,78.284-63,89c-3,3-6,6-9,9c-7.884-18.752-1.626-97.111,0-120c3.333-1,6.667-2,10-3
	c0.333-0.667,0.667-1.333,1-2c-4.333-0.333-8.667-0.667-13-1c-8.666,0.667-17.334,1.333-26,2c-21.344,4.251-42.553,18.156-37,46
	c3.104,1.51,4.998,2.307,9,1c0.996-7.861-4.1-12.028-2-21c3.188-13.622,19.147-21.508,37-21c0.667,0.333,1.333,0.667,2,1
	c7.301,40.036,3.812,96.232,0,136c0.333,0.333,0.667,0.667,1,1c16.048-2.646,23.49-17.49,33-27c20.917-20.917,80.387-74.262,70-115
	C1772,314.333,1771,313.667,1770,313z"/>
<path d="M61,317c-0.667,0.333-1.333,0.667-2,1c-2.418,4.045-3.887,7.203-4,14c1,0.667,2,1.333,3,2c7.771,3.66,15.367-6.641,12-14
	C67.77,316.659,66.691,316.852,61,317z"/>
<path d="M818,328c0.333-3.333,0.667-6.667,1-10c-3-0.333-6-0.667-9-1c-1.667,1.667-3.333,3.333-5,5c-0.333,3.667-0.667,7.333-1,11
	c2.609,1.292,3.487,1.785,8,2C814,332.667,816,330.333,818,328z"/>
<path d="M954,368c0.333-1,0.667-2,1-3c-6.666-0.333-13.334-0.667-20-1c0.057-13.343,3.653-28.61,13-33c-0.333-1-0.667-2-1-3
	c-7.666,3.333-15.334,6.667-23,10c-1.333,8.333-2.667,16.667-4,25c-6,0.333-12,0.667-18,1c-0.333,0.667-0.667,1.333-1,2
	c0,0.667,0,1.333,0,2c6,0.333,12,0.667,18,1c0,0.333,0,0.667,0,1c-4.234,12.706-15.881,70.583-10,82c0.333,1,0.667,2,1,3
	c11.232,2.012,27.292-2.227,36-7c0.667-0.333,1.333-0.667,2-1c-7.214-2.143-17.833,3.847-23-3c-9.065-12.014,6.748-61.114,8-75
	C939.999,368.667,947,368.333,954,368z"/>
<path d="M1437,445c-5.611-19.462-0.409-56.612,8-74c3.013-2.842,14.255-2.371,19-3c0.667-1.333,1.333-2.667,2-4
	c-6.666,0-13.334,0-20,0c0.542-11.942,3.527-27.624,12-32c0.667-1,1.333-2,2-3c0-0.333,0-0.667,0-1c-8.678,1.578-18.686,5.704-24,11
	c-3.936,3.912-4.669,18.196-5,25c-11.666,0-23.334,0-35,0c0.929-11.735,3.417-27.54,12-32c0.667-1,1.333-2,2-3c0-0.333,0-0.667,0-1
	c-8.505,1.567-18.751,5.775-24,11c-3.887,3.93-4.67,18.253-5,25c-6,0-12,0-18,0c-0.333,0.667-0.667,1.333-1,2
	c3.502,3.577,10.484,3.432,18,3c-3.068,26.176-15.521,55.674-10,84c11.011,6.452,27.593-1.836,39-5c0.333-0.667,0.667-1.333,1-2
	c-10.235,0.693-15.166,1.672-23-1c-5.546-19.412-0.348-56.548,8-74c3.068-2.869,13.379-2.004,18-3c5.666,0.333,11.334,0.667,17,1
	c-2.057,16.072-17.299,70.785-9,84c0.667,0.667,1.333,1.333,2,2c10.276,3.861,26.649-4.463,36-7c0.333-0.667,0.667-1.333,1-2
	C1449.765,446.693,1444.834,447.672,1437,445z"/>
<path d="M2036,445c-5.611-19.462-0.409-56.612,8-74c3.013-2.842,14.256-2.371,19-3c0.667-1.333,1.333-2.667,2-4
	c-6.666,0-13.334,0-20,0c0.542-11.942,3.527-27.624,12-32c0.667-1,1.333-2,2-3c0-0.333,0-0.667,0-1c-8.679,1.578-18.686,5.704-24,11
	c-3.936,3.912-4.669,18.196-5,25c-11.666,0-23.334,0-35,0c0.885-11.844,3.393-27.533,12-32c0.667-1,1.333-2,2-3c0-0.333,0-0.667,0-1
	c-8.506,1.567-18.751,5.775-24,11c-3.887,3.93-4.67,18.253-5,25c-6,0-12,0-18,0c-0.333,0.667-0.667,1.333-1,2
	c3.502,3.577,10.484,3.432,18,3c-3.068,26.176-15.521,55.674-10,84c11.01,6.452,27.593-1.836,39-5c0.333-0.667,0.667-1.333,1-2
	c-10.235,0.693-15.166,1.672-23-1c-5.546-19.412-0.348-56.548,8-74c3.069-2.869,13.379-2.004,18-3c5.666,0.333,11.334,0.667,17,1
	c-2.057,16.072-17.299,70.785-9,84c0.667,0.667,1.333,1.333,2,2c10.276,3.861,26.649-4.463,36-7c0.333-0.667,0.667-1.333,1-2
	C2048.765,446.693,2043.834,447.672,2036,445z"/>
<path d="M148,444c-6.091-8.489,10.981-74.935,14-84c0-2,0-4,0-6c-1.333,0-2.667,0-4,0c-14.39,9.401-19.47-0.596-36,6
	c-19.29,7.697-54.117,57.622-40,92c0.333,1,0.667,2,1,3c16.008,2.766,32.793-6.428,45-12c0.333,3.333,0.667,6.667,1,10
	c0.667,1,1.333,2,2,3c11.666-3.333,23.334-6.667,35-10c0.333-0.667,0.667-1.333,1-2C162.487,442.866,151.431,448.782,148,444z
	 M129,439c-8.222,2.775-17.087,6.094-27,5c-14.28-24.719,7.782-67.657,21-80c9.406,0.066,13.446,1.981,20,4c0.667,1,1.333,2,2,3
	C139.667,393.665,134.333,416.335,129,439z"/>
<path d="M1022,443c-8.235-19.609,11.732-66.306,14-88c-1.667-0.333-3.333-0.667-5-1c-3,2.333-6,4.667-9,7
	c-49.35-9.855-72.83,41.467-67,92c13.083,7.62,35.197-5.132,47-10c0,3.667,0,7.333,0,11c11.707,5.123,25.58-5.448,37-8
	c0.333-0.667,0.667-1.333,1-2c-5.333,0.667-10.667,1.333-16,2C1023.333,445,1022.667,444,1022,443z M1003,438
	c-6.476,3.84-14.169,4.796-23,7c-25.151-11.583,7.859-73.632,17-81c6,1,12,2,18,3c1,0.667,2,1.333,3,2
	C1013,391.998,1008,415.002,1003,438z"/>
<path d="M1547,360c0-2,0-4,0-6c-1.333,0-2.667,0-4,0c-14.39,9.402-19.472-0.597-36,6c-20.14,8.039-54.447,59.469-40,92
	c0.333,1,0.667,2,1,3c16.269,2.811,32.355-6.758,45-12c0,3.667,0,7.333,0,11c11.862,5.174,26.082-5.636,38-8
	c0.333-0.667,0.667-1.333,1-2c0-0.333,0-0.667,0-1c-5.333,1-10.667,2-16,3C1525.91,436.5,1542.669,372.396,1547,360z M1514,438
	c-3.45,5.042-16.56,6.151-24,7c-2-1.667-4-3.333-6-5c-5.619-29.984,9.013-62.054,24-76c9.406,0.066,13.446,1.981,20,4
	C1529.458,371.704,1518.281,431.744,1514,438z"/>
<path d="M2135,446c-10.09-9.5,6.669-73.604,11-86c0-2,0-4,0-6c-1.333,0-2.667,0-4,0c-14.39,9.402-19.472-0.597-36,6
	c-20.14,8.039-54.447,59.469-40,92c0.333,1,0.667,2,1,3c16.269,2.811,32.355-6.758,45-12c0,3.667,0,7.333,0,11
	c11.862,5.174,26.082-5.636,38-8c0.333-0.667,0.667-1.333,1-2c0-0.333,0-0.667,0-1C2145.667,444,2140.333,445,2135,446z M2113,438
	c-3.45,5.042-16.56,6.151-24,7c-2-1.667-4-3.333-6-5c-5.618-29.984,9.013-62.054,24-76c9.406,0.066,13.446,1.981,20,4
	C2128.458,371.704,2117.281,431.744,2113,438z"/>
<path d="M670,362c-1.667-1.333-3.333-2.667-5-4c-5-0.333-10-0.667-15-1c-11.346,5.71-22.688,9.494-30,19
	c-11.349,14.753-25.777,63.54-6,78c25,6.263,34.356-9.917,51-17c0.333-1.333,0.667-2.667,1-4c-10.126,3.077-21.825,16.045-34,10
	c-9.834-4.494-10.761-16.015-10-31C642.293,396.873,673.273,398.325,670,362z M646,362c2,0.333,4,0.667,6,1
	c14.396,22.085-12.187,37.708-29,42C628.797,384.152,630.368,372.564,646,362z"/>
<path d="M864,364c9.15-3.909,17.565,4.83,18,14c0.333,0,0.667,0,1,0c1.333-6.333,2.667-12.667,4-19c-6.666-0.667-13.334-1.333-20-2
	c-68.891,43.969,13.166,41.438,1,85c-14.296,9.475-35.825,6.804-35-16c-4.809,2.82-6.62,21.405-5,27
	c24.298,6.358,67.821-7.681,56-40c-5.311-14.518-38.81-21.94-30-42C856.075,366.313,857.818,364.714,864,364z"/>
<path d="M1925,357c-8.333,4-16.667,8-25,12c-16.136,11.923-32.468,60.782-16,85c46.688,11.434,82.279-52.356,59-94
	C1937.793,358.08,1933.279,356.784,1925,357z M1899,445c-16.067-26.623,1.43-66.725,17-79c3.667,0.667,7.333,1.333,11,2
	C1941.412,391.121,1931.645,453.689,1899,445z"/>
<path d="M31,363c0,0.333,0,0.667,0,1c4.666,0.667,9.334,1.333,14,2c4.865,28.605-15.16,123.562-27,140c-7.01-0.946-10.152-3.77-17-2
	c-0.333,2.333-0.667,4.667-1,7c48.68,14.791,54.425-115.461,66-153c-1,0-2,0-3,0C52.334,359.667,41.666,361.333,31,363z"/>
<path d="M486,361c-15.894-8.574-34.021,8.652-49,12c1-5,2-10,3-15c-11.332,1.667-22.668,3.333-34,5c2.222,3.991,7.848,4.29,14,4
	c6.084,23.728-11.376,65.715-15,89c5.666-1,11.334-2,17-3c4.666-25.331,9.334-50.669,14-76c6.739-3.03,20.538-10.413,29-7
	c9.514,6.794-7.638,68.375-8,85c11.406,2.632,23.394-5.175,34-8c0.333-0.667,0.667-1.333,1-2c-4.666,0.667-9.334,1.333-14,2
	C465.875,423.319,485.853,387.956,486,361z"/>
<path d="M578,447c-12.221-23.863,7.81-59.125,8-86c-15.883-8.604-34.125,8.555-49,12c1-5,2-10,3-15c-11.332,1.667-22.668,3.333-34,5
	c-0.333,0.333-0.667,0.667-1,1c0,0.333,0,0.667,0,1c5,0.667,10,1.333,15,2c5.999,23.619-11.573,65.437-15,89c5.666-1,11.334-2,17-3
	c4.666-25.331,9.334-50.669,14-76c8.681-3.772,17.03-7.989,29-8c0.667,0.333,1.333,0.667,2,1c6.455,27.773-9.892,55.226-10,85
	c11.963,2.718,22.574-5.82,34-8C588.201,442.711,584.055,445.651,578,447z"/>
<path d="M802,445c-9.803-17.724,2.894-60.837,9-80c0-2.333,0-4.667,0-7c-1.333,0-2.667,0-4,0c-9.999,2.333-20.001,4.667-30,7
	c2.888,2.276,8.365,2.296,14,2c8.915,15.717-9.793,62.61-10,86c1,0.667,2,1.333,3,2c11.793,4.238,27.912-7.783,38-11
	c0-0.333,0-0.667,0-1c-0.333-0.667-0.667-1.333-1-2C815.312,443.453,810.646,445.138,802,445z"/>
<path d="M1348,358c-5.666,1.667-11.334,3.333-17,5c-5,24.664-10,49.336-15,74c-3.584,5.798-14.661,8.188-24,8
	c-8.759-16.966,4.71-68.516,10-85c-0.667-0.667-1.333-1.333-2-2c-1,0-2,0-3,0c-9.666,1.667-19.334,3.333-29,5
	c2.493,4.123,7.363,2.444,12,4c8.188,6.572-10.412,71.238-8,87c0.667,0.667,1.333,1.333,2,2c16.706-1.55,27.353-9.269,42-13
	c-0.333,4-0.667,8-1,12c0.333,0.333,0.667,0.667,1,1c10.666-2.333,21.334-4.667,32-7c0.667-0.333,1.333-0.667,2-1
	c-5.333-0.667-10.667-1.333-16-2C1324.29,418.148,1345.157,383.627,1348,358z"/>
<path d="M1859,363c0-1.667,0-3.333,0-5c-5.666,1.667-11.334,3.333-17,5c-4.666,25.331-9.334,50.669-14,76
	c-7.805,2.546-13.659,5.864-24,6c-0.667-1-1.333-2-2-3c-8.772-19.354,9.417-63.077,11-84c-11.332,1.667-22.668,3.333-34,5
	c2.493,4.123,7.363,2.444,12,4c7.233,5.695-7.786,70.893-8,87c11.952,5.263,32.311-6.484,43-11c0,4,0,8,0,12
	c8.874,2.187,26.599-2.002,34-6c0.667-0.333,1.333-0.667,2-1c-5-0.333-10-0.667-15-1C1837.45,430.647,1853.735,378.178,1859,363z"/>
</svg>
