<?xml version="1.0" encoding="utf-8"?>
<!-- Generator: Adobe Illustrator 15.0.0, SVG Export Plug-In . SVG Version: 6.00 Build 0)  -->
<!DOCTYPE svg PUBLIC "-//W3C//DTD SVG 1.1//EN" "http://www.w3.org/Graphics/SVG/1.1/DTD/svg11.dtd">
<svg version="1.1" id="Layer_1" xmlns="http://www.w3.org/2000/svg" xmlns:xlink="http://www.w3.org/1999/xlink" x="0px" y="0px"
	 width="591px" height="821px" viewBox="0 0 591 821" enable-background="new 0 0 591 821" xml:space="preserve">
<path d="M317.669,428.507c2.677,0.15,4.731,0.677,5.738,2.609c6.688-0.516,6.389-4.343,10.433-6.785
	c-0.311-10.22-7.619-16.123-10.433-24.009c-2.539-7.115,3.143-13.753-1.565-19.833c-2.805-3.624-8.771-3.114-11.997-6.263
	c-4.374-4.268-3.998-14.03-9.389-17.224c1.616-18.85,6.414-32.32-17.214-34.448c-3.317-10.698-13.709-20.147-14.605-31.838
	c19.255,0.46,33.271-16.038,33.384-34.447c4.489,0.169,31.557,8.379,32.862,10.438c1.267,0.771,15.496,44.279,17.213,49.062
	c8.308,0.155,8.935-1.966,13.562-4.175c-0.13-15.467-7.176-24.846-9.389-38.101c6.135,0.742,24.233,5.531,27.646,8.873
	c3.827,2.286,5.298,8.417,9.39,10.96c7.38,4.588,17.37-3.312,19.821-2.61c8.365,2.395,13.831,6.37,25.56,6.263
	c0.87-1.218,1.739-2.436,2.608-3.653c2.401-2.503,0.477-8.031,0-10.96c-3.868-1.137-23.211-6.619-25.56-8.873
	c-2.769-2.657-2.826-6.092-6.26-8.351c-6.942-6.685-13.989,2.295-21.386,0c-7.254-2.25-15.977-6.566-23.995-7.829
	c4.913-7.703,16.706-10.161,23.995-15.658c1.932-1.457,1.867-4.45,4.173-5.741c-0.1-6.142-2.397-6.595-4.173-10.438
	c-10.718-0.085-41.031,18.362-43.816,24.009c-14.875-0.396-24.564-9.879-38.079-10.96c0.983-4.701,4.704-6.626,6.259-10.439
	c4.749-11.641,0.58-33.37-7.824-37.057c0.868-4.016,18.358-12.792,22.43-14.614c3.788-1.695,10.534,4.333,16.17,1.566
	c4.245-2.084,9.507-7.056,11.998-10.96c0.348-1.74,0.695-3.48,1.043-5.219c4.868-5.871,17.318-5.169,21.387-12.004
	c11.233,6.339,16.442-1.961,23.473-6.263c0-1.914,0-3.828,0-5.741c11.266-1.195,19.325-10.536,28.167-14.614
	c0.146-8.104-2.006-8.51-4.173-13.048c-13.335,0.147-19.833,8.004-29.211,12.004c-2.985,1.273-14.338-3.894-20.865,1.044
	c-3.182,2.407-1.836,7.501-4.173,10.96c-2.68,3.968-15.925,9.704-21.386,10.438c-5.95-11.971-26.606-2.744-30.254,4.176
	c-1.762,3.342-0.292,10.138-2.608,13.048c-1.3,2.337-20.353,11.458-23.995,12.005c0.482-19.89-15.078-33.847-34.427-33.404
	c1.338-13.09,9.975-23.581,10.432-37.057c13.821-4.228,30.497-11.345,45.381-13.048c3.471-10.768,2.2-8.026-2.608-16.18
	c-13.382,0.133-22.605,6.366-34.427,8.351c0.562-9.588,5.908-14.524,6.259-24.009c4.797-0.336,4.209-1.918,8.346-2.61
	c0.813-2.825,2.843-4.57,3.651-6.785c2.113-5.791-1.468-12.142-2.608-14.614c-1.243-2.695,5.649-21.717,6.781-22.443
	c0.201-4.623-0.233-7.439-2.608-9.395c-2.022-4.027-7.938-2.273-11.998-1.566c-3.133,7.888-8.412,17.844-9.389,27.141
	c-7.585,2.646-18.366,19.355-7.824,23.487c-2.608,8.002-5.217,16.007-7.825,24.009c0,0.522,0,1.044,0,1.566
	c-3.28-1.562-16.566-23.544-17.213-28.184c-2.095-0.501-3.261-0.797-4.173-2.61c-7.642-0.119-7.654,2.094-11.998,4.175
	c0.161,20.982,19.209,31.43,25.038,47.496c2.917,8.04-9.833,29.486-10.433,38.623c-4.615-1.027-5.903-4.817-9.389-6.785
	c-10.69-6.035-37.463,0.877-40.687,9.395c-9.829-4.48-8.599-24.876-17.735-30.272c0.667-4.256,2.939-5.967,4.173-9.395
	c4.289-11.92-9.712-22.746-19.822-22.443c-1.561-4.265-5.043-8.306-6.781-12.004c-1.409-2.997,1.184-5.932,1.564-6.785
	c4.837-10.823-6.756-19.744-14.605-19.833c-1.852-5.249-10.739-27.596-19.821-24.009c-3.124,1.233-4.135,4.671-6.781,6.263
	c0.747,10.36,7.702,15.418,10.433,22.965c0.67,1.854-0.114,15.632,0,18.79c4.922,1.876,5.092,5.897,11.997,6.263
	c1.414,3.875,4.839,12.685,8.346,14.614c-0.801,3.742-3.016,6.028-4.173,9.395c-3.897,11.343,9.979,22.624,19.822,22.443
	c2.073,5.461,13.352,29.536,17.214,31.838c-2.373,3.428-10.982,2.954-14.605,5.219c-9.871,6.17-17.345,17.087-17.214,33.404
	c-12.865-4.001-25.734-8.003-38.6-12.004c-1.087-18.927-14.069-33.384-15.648-50.627c-3.478-0.348-6.956-0.696-10.433-1.044
	c-1.013,1.672-2.234,3.346-4.173,4.175c0.185,16.721,8.644,26.425,10.432,40.711c-9.43-1.39-16.753-7.347-26.603-7.829
	c-2.008-5.163-9.949-17.378-20.865-12.004c-1.771,0.872-3.523,3.944-7.824,2.61c-8.054-2.498-14.713-6.458-25.56-6.263
	c-0.869,1.218-1.739,2.436-2.608,3.654c-1.605,1.511-1.65,7.888,0,9.395c2.385,5.064,20.143,9.838,26.603,10.439
	c0.408,6.435,4.656,6.494,6.781,10.96c3.999,0.348,7.999,0.696,11.997,1.044c2.023-0.739,5.041-4.455,7.824-3.654
	c6.182,1.781,11.984,5.973,19.822,6.263c0,0.87,0,1.74,0,2.61c-9.838,1.911-18.456,12.881-25.038,18.79
	c0.252,4.91,1.881,5.465,2.608,9.395c3.477,0.348,6.955,0.696,10.432,1.043c2.676-1.189,32.564-22.513,33.384-24.009
	c13.991,1.362,29.661,9.093,42.251,13.57c0,0.348,0,0.696,0,1.044c-12.62,7.054-7.575,42.717,4.173,46.452c0,0.87,0,1.74,0,2.609
	c-4.369,0.556-21.488,9.201-23.995,12.004c-3.802-1.243-7.612-3.658-10.954-5.219c-2.933-1.37-5.46,1.212-6.26,1.566
	c-10.62,4.702-16.696,5.233-16.17,20.877c-7.247,1.193-11.331,7.236-17.213,9.395c-2.673,0.98-6.694-0.7-7.824-1.044
	c-8.954-2.721-16.922,6.088-17.214,13.048c-5.644,1.639-23.783,11.392-26.603,15.658c-1.426,1.455-1.231,5.357-1.043,8.351
	c1.217,0.87,2.434,1.74,3.651,2.609c8.439,7.464,28.706-14.643,33.384-7.829c12.54,0.574,21.076-2.776,20.865-14.614
	c6.929-2.624,13.663-8.203,20.343-10.961c2.686-1.109,6.155,2.064,7.824,2.61c12.214,3.994,21.779-9.357,22.43-18.268
	c7.903-1.456,21.612-8.525,27.124-13.57c7.386,17.281,12.993,32.189,37.557,31.838c-1.721,12.2-8.511,22.862-10.433,34.448
	c-8.345,1.462-42.909,12.012-46.424,17.224c-2.401,2.502-0.477,8.03,0,10.96c2.095,0.501,3.261,0.797,4.173,2.61
	c13.674-0.596,22.234-9.112,35.471-9.395c-2.713,9.553-7.703,18.539-8.868,29.228c-5.258,1.423-17.903,10.345-13.562,19.834
	c1.002,2.19,6.007,6.145,4.173,10.438c-2.433,5.696-11.016,20.644-4.173,26.619c1.426,2.745,5.024,2.912,9.389,2.609
	c4.538-6.651,10.19-15.826,10.433-26.619c6.129-2.271,16.382-10.367,11.998-22.443c-0.572-1.576-3.845-3.069-2.608-6.263
	c3.242-8.37,7.863-18.339,9.389-28.185c0.87,0,1.739,0,2.608,0c2.288,11.249,14.498,18.416,18.778,28.185
	c28.521,0.854,1.111-27.421-3.13-33.404c-3.346-4.72-4.895-13.41-10.432-15.658c0.378-6.38,7.109-29.881,10.432-33.404
	c1.289-1.66,18.877,9.088,30.776,5.219c6.761-2.199,12.285-8.245,18.257-9.395c2.056,10.52,11.656,18.065,13.562,28.184
	c1.74,1.617-5.072,10.636-2.608,17.224c2.872,7.678,9.724,14.248,19.822,14.614c0.962,7.387,6.813,11.542,9.389,17.224
	c1.278,2.818-1.247,4.501-1.565,5.219c-5.286,11.952,6.521,21.256,14.605,21.399C308.953,414.725,316.502,419.829,317.669,428.507z
	 M299.412,383.099c-1.804-8.969-10.337-15.498-11.997-25.053c-8.296,0.252-13.138-2.959-16.17-7.829
	c-4.105-3.777-3.036-14.958,1.565-17.224c-0.957-11.637-14.603-27.728-18.779-38.623c-0.174,0-0.348,0-0.521,0
	c-8.462,9.715-26.334,20.935-42.773,9.395c-2.338-1.641-3.133-5.252-5.738-6.785c-2.239-3.28-16.262,39.457-14.083,43.843
	c6.083,12.248,26.555,29.057,25.038,43.842c-2.26,0-4.521,0-6.781,0c-3.826-12.22-18.834-20.512-21.387-33.403
	c-0.869,0-1.739,0-2.608,0c-0.72,9.45-16.229,41.402-8.867,45.408c0.26,15.219-4.89,9.885-9.389,17.224
	c-2.15,1.285-7.801,19.678-7.825,24.009c-2.133,0.642-2.301,0.625-3.129,2.61c-11.668-0.673-1.933-27.296,1.564-29.229
	c-0.895-2.07-3.529-5.362-5.216-6.785c-0.266-11.4,4.932-10.573,10.433-15.658c2.412-1.431,13.392-35.06,13.562-40.189
	c-6.601,0.829-32.085,8.34-35.992,12.004c-4.48-0.193-3.968-1.321-6.781-2.609c0.028-14.415,40.086-12.177,46.425-21.399
	c1.5-0.922,14.157-39.056,14.605-43.32c-3.762,0.555-9.707,4.962-14.605,2.609c-15.366-7.377-25.376-14.476-23.995-36.013
	c-6.926,4.335-32.087,14.149-35.471,19.833c-4.959,3.464-5.6,21.525-19.822,14.614c-3.48-1.691-3.679,1.07-5.216-2.61
	c-5.423,2.073-22.054,9.219-25.559,13.048c-1.577,1.761,0.225,4.307-1.043,6.785c-1.446,2.827-5.319,4.161-6.781,6.785
	c-5.387,0.304-9.941,0.536-11.997-2.61c-6.756,0.932-24.266,13.943-27.646,12.005c-1.391-0.522-2.782-1.044-4.173-1.566
	c-0.002-7.243,19.9-17.57,26.603-18.268c0.458-9.128,6.13-8.317,9.389-13.57c4.606,0.104,8.281,3.689,11.997,2.609
	c7.58-2.201,13.561-10.43,22.43-12.004c-0.152-14.848,4.413-11.542,7.824-19.833c6.797-0.518,14.946-2.415,17.213,4.176
	c15.212-0.65,23.689-13.761,37.036-16.18c-0.348-0.348-0.696-0.696-1.043-1.043c-2.231-3.558-8.39-4.536-10.954-7.829
	c-8.612-11.063-5.74-39.093,8.346-41.233c0-0.522,0-1.044,0-1.566c-7.1-2.009-48.158-17.54-53.206-15.658
	c-6.427,2.397-11.459,9.602-17.213,13.048c-4.925,2.949-13.393,5.599-15.649,10.96c-5.209-0.017-5.142-1.319-8.346-2.61
	c0.278-6.013,24.833-23.186,30.776-24.009c0-0.87,0-1.74,0-2.609c-9.479-0.91-32.032-14.855-37.035-5.219
	c-9.613,0.478-15.821-3.59-16.17-12.004c-9.346-0.865-18.814-5.508-26.603-8.351c-0.037-4.067,0.642-5.392,1.565-7.829
	c10.884,0.111,17.973,5.474,26.603,7.829c0,0,10.508-3.635,15.649-3.654c2.415,3.523,5.941,5.215,6.781,10.438
	c11.79,2.25,22.63,9.786,35.47,10.439c-0.627-17.116-11.617-26.636-11.476-44.886c0.348-0.348,0.695-0.696,1.043-1.044
	c2.521-0.094,4.051-0.143,5.216,1.044c2.792,1.374,17.091,44.154,17.214,50.627c6.799,0.292,43.335,11.447,45.381,14.614
	c0.869,0,1.739,0,2.608,0c-7.699-20,6.04-33.556,19.822-40.189c4.164-2.004,8.584,1.276,11.998,1.566
	c-3.03-15.318-17.697-25.262-19.822-41.233c-8.761-2.021-24.216-6.27-19.822-19.833c0.942-2.91,5.256-5.751,3.651-10.439
	c-1.84-5.375-6.984-9.617-7.825-16.18c-8.677,0.195-19.914-13.451-10.432-18.268c-0.648-3.547-9.585-20.638-11.998-22.965
	c0.438-3.406,1.615-4.242,2.608-6.785c2.26,0.522,4.521,1.044,6.781,1.566c0.643,5.372,6.364,19.081,10.433,21.399
	c1.115,1.872,6.891,2.474,9.389,2.61c1.181,3.506,7.758,13.745,1.043,17.224c1.427,7.169,6.864,11.099,7.824,18.79
	c1.583,0.393,7.214-0.051,9.389,1.044c3.595,1.809,5.468,6.262,9.389,7.829c0.348,3.653,0.696,7.308,1.043,10.961
	c-0.94,2.818-5.339,5.583-3.651,10.439c4.393,12.64,17.191,25.068,19.822,38.623c3.488-2.148,4.768-8.2,7.824-10.96
	c10.992-9.928,41.785-8.103,42.773,9.395c9.042-5.346,8.552-40.633,17.214-46.452c-3.399-14.508-26.621-32.109-26.603-49.062
	c0.348-0.348,0.696-0.696,1.043-1.044c2.26,0.348,4.521,0.696,6.781,1.044c1.887,1.533,20.925,33.316,21.386,36.013
	c0.174,0,0.348,0,0.522,0c3.651-11.133,7.303-22.27,10.954-33.404c1.101-3.917-2.806-6.298-3.651-8.873
	c0.348-2.783,0.695-5.568,1.043-8.351c2.427-0.934,7.504-4.344,9.389-6.263c3.188-2.017,4.843-17.388,6.781-21.921
	c0.935-2.187,3.2-2.97,4.173-5.219c3.893,0.292,3.76,1.277,6.26,2.61c0.05,5.179-5.292,24.014-7.824,25.575
	c0.914,3.639,7.487,9.493,4.173,13.57c-0.663,7.981-7.375,6.79-10.954,11.482c-6.5,6.807-3.978,22.386-10.433,29.228
	c0,0.522,0,1.044,0,1.566c4.357-0.064,33.327-7.725,34.427-9.395c4.786,0.027,5.023,1.105,7.824,2.61c0,1.392,0,2.784,0,4.175
	c-11.272,5.881-30.11,12.401-44.859,13.048c-5.307,13.466-13.866,33.536-16.17,48.018c17.429-3.614,28.785,4.64,35.992,15.658
	c2.868,4.384,2.535,16.617-1.565,18.79c0,0.87,0,1.74,0,2.609c11.996-6.262,23.996-12.527,35.992-18.79
	c-1.075-21.223,20.673-29.307,27.646-14.614c8.043-2.504,14.034-9.671,22.951-10.439c1.424-5.388,3.787-11.832,7.824-14.614
	c2.234-1.539,2.146,0.815,3.651-1.566c4.13-0.01,7.951,1.388,9.39,4.175c10.503-3.286,17.681-13.044,30.775-13.048
	c0.348,0.348,0.696,0.696,1.043,1.044c0.094,2.523,0.144,4.053-1.043,5.219c-3.931,7.994-20.708,8.6-25.56,14.614
	c-3.464,4.294-1.469,7.883-6.259,10.96c-6.149,5.776-9.815-3.002-16.17,0c-4.497,2.125-19.217,9.537-22.43,13.048
	c-3.503,2.198-3.284,9.538-6.781,12.004c-7.128,5.028-16.835-0.468-18.257,0c-2.677,3.28-26.683,15.061-31.819,15.658
	c1.053,5.389,5.236,4.882,7.824,8.351c6.693,8.973,7.139,29.413,0,38.101c-3.129,1.566-6.26,3.132-9.389,4.698
	c7.342,6.026,43.264,11.896,46.424,16.702c4.618-1.797,37.979-23.698,39.644-26.619c2.975,0.542,2.23,1.07,5.216,1.566
	c0.817,4.65,0.828,3.178,0,7.829c-4.324,0.79-27.93,16.491-30.254,19.833c-0.348,0-0.695,0-1.043,0
	c0.903,1.575,32.132,12.555,35.47,13.048c4.2,0.62,7.672-6.484,14.605-3.654c4.462,1.822,4.618,6.502,7.824,9.395
	c2.558,2.896,21.237,8.789,25.56,10.438c-0.028,3.794-0.681,4.454-1.564,6.785c-9.775-0.435-26.729-12.315-31.819-2.61
	c-5.193,0.404-9.188,0.796-10.433-3.131c-0.869,0-1.739,0-2.608,0c-0.859-3.824-2.379-2.979-2.608-7.829
	c-12.786-3.927-26.438-11.486-40.165-13.048c0,0.174,0,0.348,0,0.522c3.113,3.613,12.124,35.638,11.997,43.32
	c-0.348,0.348-0.695,0.696-1.043,1.044c-3.936,0.228-5.646,0.075-6.781-2.609c-2.666-1.675-13.736-40.512-14.605-46.452
	c-7.646-0.396-35.611-9.554-41.73-13.048c-1.77,4.93,2.473,11.641-0.521,17.224c-6.092,11.358-20.854,26.79-36.514,17.224
	c-0.174,0-0.348,0-0.522,0c0.553,3.723,18.596,39.152,20.865,41.233c0,0.174,0,0.348,0,0.522c3.651,0.696,7.303,1.392,10.954,2.088
	c3.027,1.668,4.705,6.316,7.824,7.829c0.348,6.426,1.593,14.683-4.173,17.224c1.166,6.474,7.485,19.973,11.997,24.009
	c1.693,1.749,6.494,3.382,9.39,3.653c1.301,3.707,7.273,12.901,1.043,16.18c2.038,11.052,12.329,17.257,10.954,29.228
	c-1.738,0.348-3.478,0.696-5.216,1.044c-4.597-6.636-12.061-15.92-13.562-25.053c-4.674-0.014-6.062-0.966-9.389-1.566
	C298.684,397.242,293.01,386.435,299.412,383.099z"/>
<path d="M222.212,208.251c0.318-5.055,14.355-48.878,16.17-50.105c0.208-14.201-23.841-18.85-35.992-12.004
	c-3.067,1.728-5.893,5.738-8.868,7.829c2.833,17.969,23.845,37.47,26.081,54.281C220.473,208.251,221.342,208.251,222.212,208.251z
	 M199.782,153.97c1.554-3.505,6.698-5.416,11.997-5.219c0-0.522,0-1.044,0-1.566c11.254-0.13,15.994,2.664,22.43,6.785
	c-0.981,16.203-12.179,28.933-13.041,44.886C217.094,196.695,197.896,156.139,199.782,153.97z"/>
<path d="M279.59,185.808c9.528-10.163-13.028-28.429-17.213-30.794c-4.521-0.348-9.042-0.696-13.562-1.044
	c-1.086,7.909-4.771,16.105-7.824,22.443c-0.348,3.131-0.695,6.264-1.043,9.395c-3.551,6.985-5.328,17.345-9.389,24.531
	C232.076,210.755,277.028,188.666,279.59,185.808z M251.423,158.146c18.218-0.104,16.865,11.74,25.56,17.224
	c0.183,17.089-30.213,16.736-37.036,27.662c-0.521,0-1.043,0-1.564,0C239.628,186.468,250.548,174.432,251.423,158.146z"/>
<path d="M209.171,212.427c0.869,0,1.739,0,2.608,0c-4.855-15.775-22.999-35.123-25.038-50.628
	c-16.802-2.63-22.532,6.666-29.211,17.224c-1.467,2.319-4.843,11.167-1.564,14.614C160.039,199.958,204.576,205.655,209.171,212.427
	z M159.095,184.242c2.193-6.62,7.513-13.788,13.041-17.224c2.614-1.625,5.059-0.102,6.781-2.61
	c4.93,0.401,22.733,33.118,23.473,39.667c-3.04-0.027-40.883-10.464-42.251-11.482C159.117,191.833,158.363,186.452,159.095,184.242
	z"/>
<path d="M91.284,173.804c-0.947-1.843,0.304-0.636-1.565-1.566c0,0.522,0,1.044,0,1.566
	C90.241,173.804,90.763,173.804,91.284,173.804z"/>
<path d="M250.379,210.861c-4.314,2.654-8.646,7.042-14.605,7.829c4.324,7.407,47.031,11.96,51.641,18.79
	c2.474-1.131,1.84-2.075,5.216-2.61c1.348-6.486,9.016-15.026,5.216-26.619c-1.537-4.688-5.312-8.22-6.259-13.048
	c-2.723-0.413-3.035-0.797-4.173-2.609c-8.698,3.478-18.851,9.699-26.603,14.614C257.423,209.356,253.802,208.756,250.379,210.861z
	 M284.807,197.812c5.287,0.775,13.995,17.325,9.389,26.619c-1.226,2.473-4.028,5.053-5.216,7.829
	c-14.768-1.121-26.544-11.212-41.208-12.004c-0.733-1.68-0.525-1.021-1.565-2.088C255.609,212.557,279.09,205.729,284.807,197.812z"
	/>
<path d="M181.525,237.479c7.406-4.553,18.677-12.921,27.646-14.614c-0.675-1.558,0.022-0.626-1.043-1.566
	c-1.769-1.728-50.064-17.03-54.771-17.224c-1.823,3.261-6.101,6.091-7.824,9.395c-3.007,5.762,0.2,24.63,2.608,28.185
	c1.965,2.9,6.304,4.49,7.825,7.829c4.858-0.785,8.412-4.567,11.997-6.785C172.379,239.967,177.101,240.199,181.525,237.479z
	 M160.139,244.265c-6.256-0.268-15.887-15.46-11.998-24.009c1.925-4.23,4.952-8.339,6.781-12.005
	c14.482,2.764,28.038,12.528,43.816,13.048c0,1.044,0,2.088,0,3.132C192.232,225.356,162.601,240.002,160.139,244.265z"/>
<path d="M284.807,265.142c1.679-2.508,0.074-4.59,2.608-6.263c0.189-3.857,0.975-10.596-1.565-12.004
	c-1.358-2.206-47.951-17.243-54.249-17.224c3.486,17.627,20.828,30.669,23.995,49.062
	C269.919,282.432,279.252,273.439,284.807,265.142z M239.947,235.914c15.359,1.536,28.587,11.118,43.295,13.57
	c0.088,10.163-3.191,18.246-8.868,22.443c-2.627,1.942-6.571,1.454-8.346,4.176c-2.086,0-4.173,0-6.26,0
	C258.218,275.148,240.295,239.188,239.947,235.914z"/>
<path d="M178.917,249.484c-4.681,2.846-14.532,3.322-17.213,7.829c-2.247,3.776,1.856,9.139,2.608,10.438
	c7.507,12.977,11.715,19.245,32.862,18.79c1.504-19.763,14.919-36.433,17.214-55.847
	C204.084,232.414,187.626,244.189,178.917,249.484z M194.566,282.366c-10.92,0.633-20.751-3.385-26.603-12.004
	c-1.69-2.489-0.023-4.629-2.608-6.264c0.75-10.757,34.136-16.36,39.643-25.574c1.043,0,2.087,0,3.13,0
	C204.325,248.695,194.718,271.426,194.566,282.366z"/>
<path d="M222.212,234.87c-0.402,6.272-13.164,48.424-15.649,50.105c-0.18,11.209,20.799,16.897,31.819,10.96
	c3.929-2.117,6.968-5.835,10.432-8.351c-0.801-17.976-21.172-33.741-23.473-51.671C224.298,235.565,223.255,235.218,222.212,234.87z
	 M245.163,283.931c-2.437,12.632-23.204,8.374-33.384,6.785c-2.698-11.738,9.796-32.652,11.998-45.408
	C230.678,249.344,237.022,278.937,245.163,283.931z"/>
<path d="M581.611,616.402c-4.474-1.399-7.562-2.775-14.605-2.609c0.01-6.885-10.548-19.415-19.822-14.614
	c-1.437,0.744-3.461,3.523-5.216,4.175c-4.916,1.828-7.79-2.367-11.998-2.609c0.679-4.186,31.933-27.351,37.036-29.229
	c0.057-5.605-1.269-6.061-2.608-9.395c-6.689,0.219-42.898,26.786-46.424,31.838c-17.104-2.176-19.071-20.473-31.819-26.619
	c2.581-13.821,14.435-25.527,21.386-35.492c19.118,1.464,33.458,13.223,54.249,13.048c0.866-1.658,0.759-1.822,2.608-2.609
	c0.186-4.041-0.029-4.991-2.608-6.263c-1.255-1.98-37.022-11.824-42.251-12.004c1.478-3.614,4.758-3.365,6.259-6.785
	c4.568,0.842,11.684,4.8,17.214,1.565c1.955-1.143,0.775-2.39,4.173-3.131c1.096-5.397,3.783-7.286,3.651-15.658
	c13.482-0.226,12.948-14.26,22.951-18.79c0.065-5.238-1.014-5.896-2.608-8.873c-7.665,0.172-6.937,2.508-10.954,5.219
	c-2.537,1.712-11.953,2.162-14.605,2.61c-1.548,2.903-3.23,5.067-3.651,9.395c-9.204-3.481-17.869,1.041-21.386,7.829
	c-1.671,3.224,0.907,7.998-1.043,10.438c-1.833,2.993-5.304,3.042-6.781,6.785c-0.869,0-1.739,0-2.608,0
	c-0.029-17.05-1.586-32.714-1.565-48.018c-1.658-0.866-1.821-0.76-2.608-2.61c-13.195,0.768-6.781,25.095-6.781,37.579
	c0,4.706-1.472,15.296,1.564,17.224c-0.669,9.49-34.095,21.341-38.6,17.224c-3.482-3.183-3.421-9.633-6.259-13.57
	c-2.343-3.251-6.204-6.989-8.346-10.438c-1.769-2.848,0.068-7.446-2.608-9.395c0-2.262,0-4.523,0-6.785
	c0.952-1.57,38.986-33.477,41.208-34.448c0.004-5.476-1.366-5.923-2.608-9.395c-5.771,0.333-36.589,26.281-38.6,30.794
	c-0.174,0-0.348,0-0.521,0c-1.073-1.039-0.384-0.846-2.086-1.566c0-3.479,0-6.959,0-10.438c2.086-0.332,1.552,0.041,2.608-1.044
	c11.177-4.664,3.955-23.798-3.651-26.619c1.621-13.085-5.05-14.393-6.781-28.184c-4.084-0.538-5.305-0.539-9.389,0
	c-0.56,3.85,2.074,12.13,0,16.18c-1.675,3.271-4.963,8.616,0,12.004c-0.91,4.932-3.49,5.578-5.216,8.873
	c-4.881,9.318,5.146,19.554,10.433,20.355c-0.167,3.017-0.415,4.154,1.565,5.219c0,1.74,0,3.479,0,5.219
	c-12.215-4.953-27.981-22.442-42.251-22.443c-0.921,1.411-1.385,1.934-3.13,2.609c0,1.74,0,3.48,0,5.22
	c1.482,2.498,42.461,27.025,46.424,27.662c0.87,5.741,1.739,11.483,2.608,17.224c-2.268,9.21-7.597,19.154-8.868,29.229
	c-12.903,0.233-39.138,3.113-43.816-5.219c-2.332-1.344-19.172-46.199-19.822-51.671c-4.441-0.083-6.748,0.57-9.389,1.565
	c0.067,6.407,11.816,41.529,14.605,43.321c0,0.522,0,1.044,0,1.565c-2.31-0.765-6.653-2.053-7.824-4.175
	c-2.561-1.788-0.96-5.128-2.608-7.829c-6.504-10.658-14.109-7.638-25.56-5.219c-0.667-4.026-2.39-3.664-3.651-6.785
	c-5.257,0.221-14.708,2.537-16.17,0c-5.473-0.004-5.92,1.367-9.389,2.61c-0.272,6.541,18.242,22.357,21.387,17.224
	c5.667,1.208,5.51,9.251,10.433,12.004c4.617,8.171,16.885-2.411,20.343-1.043c3.537,1.397,5.225,3.608,10.432,3.653
	c-1.008,5.125-31.311,27.339-37.035,30.794c0.039,4.992,1.247,4.863,2.608,7.829c8.206-0.036,41.871-26.065,44.859-31.838
	c19.74,0.931,22.176,19.466,35.992,25.053c-0.339,6.861-6.146,12.871-9.389,17.224c-2.41,3.234-1.943,7.484-4.173,10.96
	c-6.789,10.583-22.598,9.111-34.427,3.654c-5.73-2.644-23.241-0.881-26.082-5.219c-5.209,0.017-5.142,1.319-8.346,2.609
	c0,2.262,0,4.524,0,6.785c12.608,3.561,29.861,9.167,43.816,9.395c-0.314,3.425-1.879,4.867-5.216,5.219
	c-2.371,2.418-6.669-4.752-11.998-1.566c-2.268,1.356-4.746,3.699-7.824,4.175c-1.197,5.3-4.225,7.058-4.173,14.614
	c-13.724,0.237-9.073,11.475-18.257,15.658c0,2.261,0,4.523,0,6.785c1.657,0.866,1.821,0.759,2.608,2.609l20.865-5.219
	c1.816-1.249,2.075-4.011,4.173-5.219c0-0.87,0-1.74,0-2.61c13.172,2.125,25.082-4.945,21.387-18.79
	c2.79-1.483,6.039-4.589,8.346-6.785c5.859,10.145,0.304,38.399,7.303,46.452c0.674,1.694,0.777,1.25,1.565,2.61
	c4.989-0.039,4.86-1.248,7.824-2.61c-0.145-18.97-5.284-35.803-5.216-55.325c3.948-2.616,7.512-6.169,11.998-8.351
	c8.016-3.899,19.861-0.783,26.081-6.263c6.161,2.527,17.526,24.789,17.214,35.491c-14.885,9.798-27.276,25.386-40.687,37.058
	c2.523,20.495,35.823-19.765,42.252-22.443c0-0.348,0-0.696,0-1.044c1.96,1.213,2.173,8.124,2.608,10.439
	c-11.438,5.386-9.664,25.006,1.565,29.228c-0.455,2.565,0.385,1.568-1.565,2.61c-0.11,6.271,5.377,22.61,7.824,25.053
	c0.916,1.742,1.478,1.292,2.608,2.609c1.912-0.348,3.825-0.696,5.738-1.044c0.774-2.539,2.335-9.654,0-12.004
	c0.729-2.028,3.375-5.816,5.216-6.785c-0.023-6.399-2.282-9.194-5.216-12.526c13.143-7.651,5.548-25.066-5.738-28.706
	c0.12-3.291,0.049-6.5-1.043-8.351c0-0.174,0-0.348,0-0.522c4.848,0.887,36.606,19.218,38.6,22.443
	c3.893-0.292,3.76-1.277,6.26-2.61c0.155-2.751,0.258-5.486-1.043-6.785c-1.829-3.281-40.287-25.776-45.381-26.619
	c-0.085-8.623,3.979-32.646,9.389-38.101c0.335-0.517,28.251-3.614,29.211-3.131c2.652,1.333,9.97,4.393,11.998,6.785
	c8.707,7.828,10.111,41.634,18.257,50.627c1.454,1.426,5.354,1.232,8.346,1.044c0.893-7.147-7.956-39.571-11.998-43.842
	c0-0.87,0-1.74,0-2.61c2.238,1.139,6.532,1.898,7.824,4.175c2.743,1.794,2.773,8.125,5.216,10.439
	c4.677,8.833,15.718,3.038,22.43,1.565c0.542,2.977,1.069,2.231,1.565,5.22c7.139,1.367,14.591,2.568,23.995,2.609
	c0.865-1.659,0.759-1.822,2.608-2.609C590.868,621.383,582.702,626.055,581.611,616.402z M574.83,631.017
	c-4.042,0.001-6.292-1.188-7.824-3.654c-1.915-1.056-1.61-1.276-1.565-4.175c-3.932-1.626-8.8,0.742-10.433,4.175
	c-3.129-0.521-6.26-1.043-9.389-1.565c-1.26-2.392-4.091-4.072-5.216-6.263c-1.262-2.459,0.494-5.032-1.043-6.785
	c-1.922-3.465-14.03-7.417-18.778-7.829c5.389,16.352,10.78,32.709,16.17,49.062c-1.043,0-2.086,0-3.129,0
	c-5.737-17.222-11.477-34.449-17.214-51.671c-5.195-0.846-9.679-5.755-14.084-6.785c-4.213-0.985-27.421,1.01-34.949,1.044
	c-0.492,13.062-7.44,24.934-10.433,36.014c-0.149,0.552,1.545,6.544,1.565,9.395c15.474,9.22,30.951,18.443,46.425,27.663
	c0,0.87,0,1.74,0,2.609c-5.968-1.751-42.03-22.55-43.816-26.619c-0.521,0-1.043,0-1.565,0c-0.104,4.118,0.98,18.045,2.608,19.833
	c1.255,2.543,4.677,4.057,8.346,4.176c0.278,2.878,0.388,3.253,2.608,4.175c0.212,9.625-2.208,10.644-5.738,15.658
	c-0.869,0-1.739,0-2.608,0c0,1.739,0,3.479,0,5.219c1.391,0,2.782,0,4.173,0c0.562,1.549,1.446,3.196,2.608,4.175
	c-0.348,2.262-0.695,4.524-1.043,6.785c-1.391,0.348-2.782,0.696-4.173,1.044c0.524,2.958,2.487,9.458,0,12.004
	c0,0.522,0,1.044,0,1.566c-1.741-0.916-1.292-1.479-2.608-2.61c0.24-9.078-2.654-12.189-6.781-16.702
	c1.581-1.82,1.623-3.65,4.173-4.697c-0.396-8.367-16.914-11.657-10.954-22.443c1.065-1.928,2.416-0.793,3.13-4.175
	c1.738-0.348,3.478-0.696,5.216-1.044c-0.869-7.654-1.739-15.311-2.608-22.965c-4.659,1.782-36.297,30.135-38.6,34.448
	c-1.391,0-2.782,0-4.173,0c7.909-12.041,23.238-21.565,33.384-31.838c2.32-2.349,5.182-1.913,6.781-5.219
	c7.649-8.734-13.781-36.218-16.17-42.276c-3.655,0.258-33.63,6.365-35.992,7.829c-3.72,2.305-5.025,6.916-10.433,7.829
	c0.115,20.206,5.264,37.27,5.216,57.413c-0.869,0-1.739,0-2.608,0c-1.739-17.744-3.478-35.493-5.216-53.237
	c-7.153,1.485-10.902,9.205-17.214,12.004c-0.03,2.883-0.379,3.139,1.565,4.175c-0.172,9.731-6.067,9.024-9.389,14.614
	c-6.316-0.248-7.662-2.789-13.562-3.132c-0.348,3.131-0.696,6.264-1.043,9.395c-3.566,0.768-6.806,2.903-9.911,0
	c-2.266,2.57-4.434,4.771-8.868,5.219c0.688-3.515,2.527-3.863,4.173-6.263c0.869,0,1.739,0,2.608,0
	c-0.19-7.803,1.775-6.968,4.173-10.961c3.015-0.167,4.152-0.415,5.216,1.566c0.869,0,1.739,0,2.608,0
	c2.79-14.142-1.848-9.273,7.824-19.833c4.355-0.285,7.978-0.153,9.389,2.61c9.048-0.873,10.682-8.982,18.257-10.438
	c-1.692-3.068-43.235-11.335-50.076-12.004c0-0.87,0-1.74,0-2.61c5.57,0.191,47.972,8.874,49.033,10.438
	c22.59-0.052,23.112-32.678,34.427-38.623c-0.909-5.477-21.273-25.083-26.603-27.662c-2.829-1.369-12.028-5.182-13.041-4.176
	c-3.987,0.81-38.811,28.159-41.208,31.838c-1.391,0-2.782,0-4.173,0c4.611-6.9,22.071-19.361,29.211-25.053
	c1.735-1.382,13.292-6.357,11.998-9.395c-1.138-2.67-17.363-5.239-19.822-9.395c-2.597,1.301-4.295,4.468-6.781,5.742
	c-6.746,3.455-11.815-4.324-14.605-5.742c-0.348-2.957-0.695-5.916-1.043-8.873c-1.391-0.522-2.782-1.044-4.173-1.566
	c-1.87,1.255-5.981,4.558-9.389,1.566c-4.374-3.84-0.87-8.194-10.433-9.395c0-0.87,0-1.74,0-2.609
	c3.878-0.219,6.581,0.125,7.825,2.609c2.679-0.397,5.743-2.124,6.781-4.175c1.739,0.87,3.478,1.74,5.216,2.609
	c2.163,1.177,3.46,5.986,4.173,8.351c3.222-0.525,5.782-3.067,6.781-5.741c3.13-0.123,5.615-0.774,6.26,0
	c12.58,0.5,7.104,8.544,11.997,14.614c2.773,4.807,13.132,3.777,16.17,8.351c0.869,0,1.739,0,2.608,0
	c-4.564-12.127-16.511-36.445-17.214-49.062c0.87,0,1.739,0,2.608,0c0.821,5.536,15.694,47.432,18.257,50.105
	c6.19,10.792,37.123,5.527,51.641,5.219c0.958-11.239,6.505-21.827,9.389-31.838c-0.869-6.61-1.739-13.223-2.608-19.833
	c-14.913-2.334-31.913-23.74-46.425-26.619c0-0.87,0-1.74,0-2.61c13.462,1.13,31.626,23.158,44.86,25.575
	c-0.348-6.61-0.696-13.223-1.043-19.833c-5.903-1.005-6.949-5.117-10.433-8.351c-0.399-7.771,1.494-13.772,7.825-14.614
	c-1.377-2.513-2.574-4.909-5.216-6.263c0.222-4.886,5.576-14.551,1.043-17.224c0.147-3.473,0.716-3.494,1.565-5.741
	c0.174,0,0.348,0,0.522,0c0.174,0.522,0.348,1.044,0.521,1.566c4.902,3.423-0.566,12.462,8.346,15.658
	c-0.412,5.884-3.32,5.899-4.173,10.96c2.26,0.348,4.521,0.696,6.781,1.044c0.852,2.428,2.77,4.39,5.216,5.219
	c0.412,7.839,0.659,15.024-7.825,16.18c0.348,7.48,0.696,14.962,1.043,22.443c4.788-0.829,36.941-29.513,41.73-34.448
	c0.174,1.392,0.348,2.784,0.521,4.176c-4.288,0.797-37.78,30.269-39.643,34.447c-7.878,9.017,16.251,40.146,18.778,46.452
	c4.378-0.152,28.623-5.004,31.819-6.785c4.28-2.385,7.079-7.252,11.998-9.395c-1.133-6.014-4.349-52.206-1.565-55.325
	c0-0.522,0-1.044,0-1.565c2.236,1.48,4.3,47.958,4.173,54.281c11.058-5.636,16.688-10.974,18.257-26.619
	c3.705-1.302,12.893-7.278,16.17-1.044c3.233-0.652,2.567-1.58,5.216-2.609c-0.947-1.843,0.304-0.636-1.565-1.566
	c0.125-3.743,1.49-5.719,4.173-6.785c1.998-2.222,6.942,0.573,7.825,0c3.916-2.545,6.402-7.125,11.997-7.829
	c-1.006,6.429-6.163,5.602-9.389,9.395c-1.862,2.189-0.067,6.183-2.608,7.829c-1.671,3.455-6.083,2.594-9.39,1.565
	c-0.865,1.659-0.759,1.822-2.608,2.61c0.455,2.565-0.385,1.568,1.565,2.609c0.31,6.771-0.931,10.949-5.216,13.048
	c-3.546,6.129-12.017-0.191-16.17-1.043c-2.915,5.255-10.743,6.365-13.041,12.004c-0.521,0.174-1.043,0.348-1.565,0.522
	c7.039,5.757,38.482,10.84,49.033,15.136c0,0.522,0,1.044,0,1.566c-5.866-0.161-47.73-11.635-49.033-13.57
	c-20.035,0.426-17.363,29.286-30.254,37.057c1.546,9.881,26.955,31.679,37.035,34.448c1.854-2.848,41.816-32.338,44.859-32.882
	c-0.739,4.664-36.494,31.262-42.251,32.882c3.083,5.594,14.119,5.208,18.778,9.395c7.753-0.975,16.886-11.797,22.43,1.566
	c1.191,1.289,2.15,7.934,2.608,9.395c3.392,0.043,6.659-0.939,7.825-3.132c6.666,2.577,4.325,6.665,7.824,9.395
	c1.844,1.439,4.19,0.972,5.738,2.609c1.067,1.049,0.742,0.517,1.043,2.61C581.199,630.403,577.885,626.425,574.83,631.017z"/>
<path d="M437.121,490.095c0-0.174,0-0.348,0-0.522c-0.522,0-1.043,0-1.565,0c0,0.348,0,0.696,0,1.044
	C436.078,490.443,436.599,490.269,437.121,490.095z"/>
<path d="M431.905,563.687c4.763-0.807,4.787-4.704,7.824-6.785c1.739-0.348,3.478-0.696,5.216-1.044
	c-1.217-8.524-2.435-17.051-3.651-25.575c-1.391,0-2.782,0-4.173,0c-0.544,7.544-4.33,12.289-5.216,19.833
	c-6.607,0-13.215,0-19.822,0c0.004,2.378-0.086,3.07,1.043,4.175C416.464,559.993,428.48,558.186,431.905,563.687z M434.513,554.292
	c0.18-0.112,3.558-10.601,4.695-12.004c0.174,4.001,0.348,8.003,0.521,12.004c-3.469,0.748-4.389,3.133-6.781,4.175
	c-2.956-0.87-5.912-1.74-8.868-2.609C426.487,552.401,430.869,556.562,434.513,554.292z"/>
<path d="M461.116,559.512c2.245-4.228,11.397-10.886,15.648-13.048c-0.348-1.392-0.695-2.784-1.043-4.175
	c-5.419,2.049-11.54,4.273-18.779,4.175c-0.705-4.669-4.816-10.841-7.824-13.57c-1.522-1.139-1.247-0.352-4.173,0
	c0.926,6.971,2.697,14.345,2.608,22.965C454.551,556.005,455.513,558.704,461.116,559.512z M455.899,551.683
	c2.956-0.87,5.912-1.74,8.868-2.609c0,0.348,0,0.696,0,1.044c-1.654,1.06-2.764,2.331-3.651,4.175
	c-3.374,0.097-6.643-0.422-7.824-2.61c-1.692-0.985-2.901-5.634-3.13-7.829C453.311,544.917,454.938,548.676,455.899,551.683z"/>
<path d="M474.156,568.907c0.708-4.047,5.829-14.198,9.389-15.658c-0.146-3.473-0.716-3.494-1.565-5.741
	c-3.534,0.73-17.401,11.802-19.822,14.614c-0.65,0.991,1.461,9.223,1.565,14.614c4.566,0.754,16.246,4.686,18.257,8.351
	c3.471-0.146,3.492-0.716,5.738-1.566C486.859,578.878,478.133,570.583,474.156,568.907z M467.375,574.126
	c-0.201-3.979-1.144-9.037,0-10.439c1.122-2.372,4.29-3.74,6.26-5.219c0.174,0,0.348,0,0.521,0c-0.34,3.667-2.576,7.556-5.216,8.873
	c2.26,3.131,4.521,6.264,6.781,9.395C472.939,575.866,470.157,574.996,467.375,574.126z"/>
<path d="M432.948,567.341c-6.703-3.034-15.061-8.449-23.473-8.873c0,1.74,0,3.48,0,5.219c4.852,2.646,6.573,8.527,11.998,10.439
	c-1.501,6.863-8.236,11.452-9.389,18.79c0.348,0.348,0.695,0.696,1.043,1.044c9.6-1.412,13.678-11.092,21.387-14.614
	C433.926,574.391,432.731,572.272,432.948,567.341z M421.994,583.521c-0.174,0-0.348,0-0.521,0c0.727-3.084,2.351-6.758,5.216-7.829
	c-1.559-4.026-4.625-6.075-6.781-9.395c3.822,1.047,6.179,2.94,9.389,4.175C429.594,579.654,426.518,579.634,421.994,583.521z"/>
<path d="M463.724,579.345c-5.663,1.24-5.54,5.885-11.997,6.785c0.538,7.623,2.674,14.938,2.608,24.009c1.391,0,2.782,0,4.173,0
	c1.739-5.741,3.478-11.483,5.216-17.224c7.019,0.1,15.073,0.167,19.822-1.566C481.854,583.206,467.52,585.423,463.724,579.345z
	 M458.507,598.135c-2.386-1.565-0.905-5.747-2.608-7.829c1.244-2.226,3.747-3.044,5.216-5.219c5.171-0.043,7.33,1.206,10.432,3.132
	C462.712,591.067,459.368,587.288,458.507,598.135z"/>
<path d="M442.337,586.13c-1.696-0.691-2.538-3.561-3.652-4.175c-1.485-0.82-18.972,12.464-20.343,14.614
	c-1.139,1.523-0.352,1.248,0,4.176c7.036-0.967,12.114-4.201,20.343-4.176c1.175,6.594,6.661,9.638,7.825,16.18
	c1.738,0,3.478,0,5.216,0c-0.022-0.966-2.166-24.366-2.608-25.053C447.679,585.463,445.133,587.27,442.337,586.13z M446.51,602.31
	c-2.776-1.548-5.72-7.792-6.781-10.96c-3.477,0.87-6.956,1.74-10.433,2.61c1.586-3.025,4.152-3.911,6.26-6.263
	c4.554,0.516,4.839,2.236,9.389,2.609c-0.266,3.35-0.577,6.625,1.565,7.829C446.51,599.526,446.51,600.918,446.51,602.31z"/>
<path d="M243.599,703.043c-7.383,0.355-6.483,2.812-10.433,5.22c-3.129,0-6.26,0-9.389,0c-17.354,0.021-22.967-3.903-30.254-13.57
	c-3.036-4.028-6.245-10.618-2.608-17.224c2.495-4.533,8.943-6.385,11.476-10.439c10.35-0.109,10.133,3.914,16.17,6.785
	c0.255,4.694,0.352,4.898,0,9.395c-2.257,0.875-2.061,1.692-4.173,2.609c-2.112,2.13-5.075,0.427-7.825,0
	c-0.455-2.565,0.386-1.568-1.565-2.609c0-1.044,0-2.088,0-3.132c1.557-0.675,0.626,0.022,1.565-1.044
	c2.525,0.911,4.138,2.915,5.216,5.22c5.526-0.22,7.473-8.364,2.608-10.439c-1.671-3.141-7.026-2.941-11.998-2.61
	c-1.082,2.187-2.899,4.277-5.216,5.22c-0.353,7.821,0.252,13.19,5.216,15.658c4.22,8.062,19.33-0.008,21.387-3.653
	c3.462-1.895,4.028-15.766,1.565-19.833c-6.022-9.941-15.063-10.308-28.168-9.395c0.98-6.272,6.816-11.388,13.562-12.004
	c1.206-8.972,8.817-33.442,17.213-37.057c-0.241-4.44-1.411-3.793-2.608-6.785c-10.392,0.737-13.557,18.392-18.779,25.053
	c-0.601,0.767-10.949,6.355-11.997,6.785c0.766,30.28-35.7,58.619-51.641,25.053c-2.491-5.245,3.398-11.139,4.173-14.614
	c2.737-0.176,4.232-0.611,5.216-2.609c6.348-0.397,10.301-0.14,11.998,4.175c1.545,1.427,1.597,6.405,0,7.829
	c-0.674,1.694-0.777,1.25-1.565,2.61c-2.521,0.093-4.051,0.143-5.216-1.044c-1.913-1.055-1.14-0.027-1.564-2.61
	c4.192,0.058,5.847-0.62,8.346-1.565c-0.241-4.441-1.411-3.793-2.608-6.786c-8.308-0.155-8.935,1.967-13.562,4.176
	c-0.036,5.839-0.047,6.165,0,12.004c2.027,0.729,5.813,3.377,6.781,5.219c11.856,0.182,11.837-3.987,18.257-7.829
	c1.494-37.461-38.108-26.694-38.079-6.785c-3.139-0.916-7.658-10.542-5.216-12.005c0.587-8.759-0.846-13.359-9.389-13.048
	c-3.479-8.772-11.958-17.357-13.562-26.618c-4.064-0.038-5.388,0.642-7.825,1.565c1.077,10.34,9.679,17.987,13.562,26.097
	c0,0.174,0,0.348,0,0.522c0.998,2.983-1.262,4.391-1.565,5.219c0.521,2.609,1.043,5.22,1.565,7.829
	c2.854,1.53,4.637,3.227,8.868,3.653c2.381,12.211,18.536,22.739,9.389,38.624c-2.729,4.739-3.625,9.021-7.824,12.004
	c-10.049,7.137-33.428-3.949-29.211-14.614c2.823-7.141,7.342-7.416,10.433-12.004c3.375,1.132,6.564,2.392,8.346,5.219
	c0.348,0,0.695,0,1.043,0c-0.035,5.804-1.769,5.971-3.651,9.395c-1.557-0.675-0.625,0.021-1.565-1.044c-0.521,0-1.043,0-1.564,0
	c0.359-3.203,2.233-5.26,4.173-6.785c-0.874-2.258-1.691-2.062-2.608-4.176c-4.233,0.105-4.602,0.988-7.824,1.566
	c-2.145,9.622-1.981,5.849,0,15.658c3.155,0.779,7.352,4.802,13.041,2.609c12.63-4.867,8.063-24.313-1.043-29.228
	c-21.536-11.623-38.266,31.383-17.214,38.623c-1.419,2.371-7.184,1.834-10.954,1.565c-0.348-1.392-0.695-2.784-1.043-4.175
	c-2.564-0.455-1.567,0.386-2.608-1.566c-7.576-0.408-11.584,0.714-13.562,5.741c-3.348,0.267-6.62,0.578-7.824-1.565
	c-8.116-0.098-18.254-0.516-23.995,1.565c0,1.74,0,3.48,0,5.22c9.677,2.473,22.852,2.732,33.384,2.609c0,0.87,0,1.74,0,2.61
	c2.999,0.309,6.863,4.644,10.432,2.609c1.687-0.961,3.713-4.41,5.216-5.219c2.393-1.288,7.434,0.756,8.346,1.044
	c4.521,0,9.042,0,13.562,0c8.925,0.019,17.145,5.66,20.865,10.96c8.544,12.175-5.117,37.101-18.779,29.229
	c-3.452-1.989-5.046-5.725-7.824-8.351c-0.117-7.625,2.844-7.826,6.26-11.482c1.912,0.348,3.825,0.696,5.738,1.044
	c0.869,1.739,1.739,3.479,2.608,5.219c-1.842,0.948-0.635-0.304-1.565,1.566c-0.869,0-1.739,0-2.608,0
	c-0.348-1.392-0.696-2.784-1.043-4.176c-1.912,0-3.825,0-5.738,0c-0.998,3.756-0.553,6.488,0,10.439
	c2.531,0.291,4.77,1.232,5.738,3.131c8.897-0.133,7.952-5.253,13.041-8.351c0.958-22.947-24.494-19.581-30.254-5.22
	c-1.132,2.822,0.503,8.079,1.043,9.395c6.579,16.025,10.333,16.23,30.776,14.614c0,0.348,0,0.696,0,1.043
	c-2.279,1.167-5.304,6.551-5.738,9.395c-4.01-0.097-6.117,0.515-7.824,2.61c-4.161,3.83,0.38,9.045-2.608,14.614
	c-1.676,3.124-12.123,19.934-14.605,21.399c-0.6,4.519,1.342,10.856,5.216,6.785c6.288-3.105,11.46-20.273,17.214-25.575
	c1.433-1.33,3.259,0.116,5.216-1.044c2.395-1.419,3.229-5.382,5.738-6.785c0.167-3.017,0.415-4.155-1.565-5.219
	c0.868-11.714,12.458-17.275,14.605-27.663c6.695-1.501,18.343-10.6,26.603-3.131c3.068,2.774,4.314,8.769,7.824,10.96
	c0.617,13.732-3.41,18.879-17.214,18.268c-1.738-2.087-3.478-4.176-5.216-6.263c0.348-1.914,0.696-3.828,1.043-5.741
	c2.122-0.797,1.838-0.457,2.608-2.61c1.912,0,3.825,0,5.738,0c0,1.392,0,2.784,0,4.176c-4.23,0.183-4.171,1.212-6.781,2.609
	c0.348,1.74,0.695,3.48,1.043,5.22c3.651,0,7.303,0,10.954,0c5.993-11.104,2.949-10.658-1.565-19.833
	c-6.164-0.545-11.987-1.74-15.649,2.609c-10.078,5.184-3.11,22.354,2.608,26.619c13.69,10.212,30.441-5.246,31.819-17.224
	c0.174,0,0.348,0,0.521,0c1.409,2.302,6.442,8.804,4.695,13.048c-0.287,0.696-2.924,2.908-1.565,5.741
	c0.912,1.901,2.588,2.045,3.13,5.219c2.086,0.332,1.552-0.041,2.608,1.044c5.629,0.4,17.646,22.144,18.257,28.184
	c2.285,0.623,4.367,1.106,7.824,1.044c-0.105-14.941-12.499-21.926-14.605-31.838c-0.391-1.841,1.343-0.353,1.565-1.044
	c1.507-4.68-1.056-9.029-1.565-12.004c-3.497-0.688-4.021-2.111-7.824-2.609c-4.809-15.332-20.784-29.633-3.651-45.408
	c2.431-2.238,9.866-8.79,17.214-5.219c4.012,1.95,6.445,6.113,10.432,7.829c0.403,6.042,1.643,11.047-2.608,14.614
	c-1.528,2.912-5.804,2.933-10.433,2.61c-0.921-1.412-1.385-1.934-3.13-2.61c0-2.609,0-5.22,0-7.829c1.913,0,3.826,0,5.738,0
	c-0.353,2.464-1.102,3.979-2.608,5.22c0.874,2.258,1.691,2.062,2.608,4.175c3.615-0.313,3.137-1.022,6.259-1.566
	c1.018-5.415,0.77-9.112,0-14.614c-2.93-0.356-2.8-0.211-3.651-2.61c-19.965-0.771-16.83,9.601-14.605,22.965
	c7.79,4.251,19.195,8.408,26.603,0c9.245-8.203,5.324-27.324-4.173-31.838c0-0.521,0-1.044,0-1.566
	c13.338,0.043,8.165,2.253,14.605,5.22c0.348,0,0.696,0,1.043,0c7.107,1.681,9.007-2.144,11.997-3.654
	c5.873-2.965,28.186,0.773,34.427,0c0-1.914,0-3.828,0-5.741c-0.348,0-0.695,0-1.043,0
	C273.7,704.477,253.927,714.675,243.599,703.043z M263.42,714.526c-9.765-0.374-17.681-0.4-20.865,5.741
	c-4.977-0.981-5.247-3.899-8.346-5.741c-6.606-0.348-13.215-0.696-19.821-1.044c0,0.87,0,1.74,0,2.609
	c10.168,3.769,19.31,18.62,10.954,30.272c-1.825,2.544-5.276,2.548-6.781,5.741c-13.757,0.462-11.982-1.042-19.822-8.351
	c-0.108-9.006,2.869-9.341,5.216-14.614c12.319-0.688,13.985,5.514,10.433,13.57c-0.87,0-1.739,0-2.608,0
	c-0.03-2.883-0.38-3.14,1.565-4.175c-0.234-3.275-0.735-3.01-1.565-5.219c-5.602-0.057-6.057,1.269-9.389,2.609
	c-0.232,4.959,0.063,8.329,2.608,10.439c1.111,1.94,2.019,1.191,3.13,3.131c14.048,0.256,8.92-4.205,15.649-8.351
	c0.832-24.192-24.352-29.51-35.992-14.614c-12.841,16.432,3.626,46.344,16.17,50.627c0.451,3.965,1.744,6.093-1.565,7.829
	c0.65,8.439,12.109,24.634,16.17,31.838c-1.842,0.948-0.635-0.304-1.565,1.565c-0.174,0-0.348,0-0.521,0
	c-4.345-4.691-15.586-24.025-16.692-30.794c-1.841,0.935-4.051,1.473-6.26-1.044c-1.741-0.916-1.291-1.479-2.608-2.609
	c-0.277-4.026-0.321-5.751,2.608-6.785c-3.129-6.263-6.26-12.527-9.389-18.79c-0.521,0-1.043,0-1.565,0
	c-0.938,4.511-1.087,12.679-3.651,16.18c-6.067,8.282-23.943,10.851-29.211,0c-7.445-4.333,0.964-15.493,2.608-18.79
	c6.625-0.765,12.232-1.823,14.606,4.176c1.544,1.427,1.597,6.404,0,7.829c-1.2,2.43-2.892,1.959-4.173,4.176
	c-2.975-0.542-2.23-1.07-5.216-1.566c0-0.87,0-1.74,0-2.61c2.521,0.094,4.051,0.144,5.216-1.043c0.521,0,1.043,0,1.565,0
	c-0.017-5.212-1.318-5.146-2.608-8.351c-6.488,0.039-6.971,2.332-10.954,4.175c-0.369,8.135,0.45,11.765,5.216,14.614
	c4.927,4.854,16.898-1.702,18.778-4.175c7.236-9.518-0.594-24.842-6.781-29.229c-16.449-11.661-32.346,8.662-38.079,17.224
	c-1.97,2.943-8.613,14-5.216,16.18c0.177,4.117-0.494,6.568-3.129,7.829c-1.38,2.145-4.438,1.093-6.26,2.609
	c-2.972,1.436-15.792,22.639-17.213,26.619c-1.842-0.948-0.635,0.304-1.565-1.566c-0.691-1.122,12.649-24.708,16.17-26.097
	c-0.455-2.565,0.385-1.568-1.565-2.609c-0.601-8.273,1.565-11.297,9.389-10.96c1.561-7.708,8.91-10.726,9.389-19.833
	c-4.082,0.894-6.062,3.916-9.389,5.219c-12.008,4.706-18.662-4.398-22.43-8.873c-1.547-1.837-4.57-8.857-2.608-13.57
	c1.712-4.112,6.704-5.822,8.868-9.395c17.083-0.942,20.022,10.329,10.954,19.833c-2.782-0.348-5.564-0.696-8.346-1.044
	c-0.348-2.262-0.696-4.524-1.043-6.785c0.869,0,1.739,0,2.608,0c0.522,1.392,1.043,2.784,1.565,4.175
	c3.615-0.313,3.137-1.022,6.26-1.565c0-2.61,0-5.22,0-7.829c-1.743-0.699-2.765-0.881-3.651-2.61
	c-8.308-0.155-8.935,1.966-13.562,4.175c-0.468,6.834,0.757,8.792,1.565,14.614c3.005,1.61,11.197,8.915,18.257,5.22
	c4.61-2.413,19.564-15.166,13.562-26.619c-2.042-3.896-5.896-10.964-9.389-13.57c-3.041-2.268-8.329-2.102-10.433-5.219
	c-9.801-0.297-30.371-2.767-33.384,4.175c-4.898,0.253-8.763-1.105-9.389-5.219c-11.954-0.029-21.314-1.569-31.819-1.566
	c0-0.87,0-1.74,0-2.61c12.321,0.279,33.054,2.7,37.557-5.219c1.822,1.047,1.915,1.507,5.216,1.566
	c0.87,1.74,1.739,3.479,2.608,5.219c6.606,0,13.215,0,19.822,0c-2.731-5.197-10.303-8.397-13.562-13.57
	c-6.842-10.856,4.054-23.585,9.389-26.619c4.152-2.36,9.146-0.299,13.562,0c1.133,3.235,3.494,4.219,5.216,6.785
	c4.157,3.837,2.021,12.522-2.608,14.614c-2.022,4.026-7.937,2.273-11.997,1.566c-2.372-5.764-2.409-7.804,0-13.57
	c1.217,0,2.434,0,3.651,0c-0.279,2.879-0.388,3.253-2.608,4.175c0.028,3.794,0.681,4.454,1.565,6.785
	c4.453,0.3,6.399,0.227,7.824-2.609c1.771-0.997,1.301-1.878,2.608-3.132c0.224-4.801-0.583-7.356-3.651-8.873
	c-2.649-5.181-14.088-2.501-16.17,1.044c-14.593,12.52,9.443,37.968,25.038,28.185c6.586-4.132,21.382-21.281,13.562-34.97
	c-3.734-6.536-10.324-14.541-11.997-22.443c-2.26-0.348-4.521-0.696-6.781-1.044c-0.5-2.096-0.796-3.262-2.608-4.175
	c0.336-3.379,2.82-5.388,2.608-7.829c-4.706-1.29-9.503-22.085-14.605-25.053c0.947-1.843-0.304-0.636,1.565-1.566
	c0.808-0.33,0.615-0.952,1.043,0c2.595,1.463,13.569,22.694,14.605,26.619c5.096-1.306,5.411,1.64,9.389,5.219
	c-0.176,2.739-0.611,4.235-2.608,5.219c0.761,4.889,5.458,16.331,10.433,17.224c-0.753-23,27.073-27.186,35.992-7.829
	c2.455,5.327-8.175,18.828-16.17,14.614c-4.88-2.572-9.078-10.684-2.608-14.614c0.922-1.796,2.071-2.123,4.173-2.61
	c0.959,1.146,2.634,2.083,4.173,2.61c-0.799,1.293-7.069,3.695-8.346,4.175c0.118,3.397,0.55,3.938,2.608,5.219
	c1.454,1.426,5.354,1.232,8.346,1.044c0.869-1.218,1.739-2.436,2.608-3.653c5.989-6.318-3.585-13.621-5.216-16.18
	c-6.062,0.016-8.764,1.27-13.562,1.566c-1.371,2.422-3.826,3.228-5.216,5.219c-6.273,8.991,0.679,24.11,7.825,27.663
	c6.642,10.61,30.023-4.441,33.384-5.219c0.489-3.096,12.458-22.793,14.605-24.009c-0.869-1.217-1.739-2.436-2.608-3.653
	c0.719-5.868,4.063-5.661,6.26-9.395c1.679,0.733,1.02,0.525,2.086,1.565c6.786-7.568,10.155-19.859,17.735-26.618
	c1.052-1.908,0.405-1.347,3.13-1.566c-0.747,4.167-13.241,25.171-16.17,26.619c-0.168,3.017-0.415,4.154,1.565,5.219
	c-0.159,2.881-0.201,4.974-1.565,6.785c-3.129,1.218-6.26,2.436-9.389,3.653c-3.998,3.899-4.576,10.948-8.868,14.614
	c0,0.522,0,1.044,0,1.566c4.491-0.553,7.238-2.658,10.432-4.176c3.316-1.576,8.232,1,9.39,1.566
	c12.912,6.315,14.527,7.959,13.041,24.009c-9.384,3.926-5.16,7.286-18.779,6.263c-1.283-2.445-4.229-6.858-6.259-8.873
	c0.142-4.283,2.062-7.144,5.216-8.351c1.426-1.545,6.401-1.598,7.824,0c1.693,0.674,1.249,0.777,2.608,1.566
	c-0.083,2.301,0.065,2.568-1.043,3.653c0,0.522,0,1.044,0,1.566c-2.218-1.278-1.745-2.974-4.173-4.175
	c-1.783-1.524-2.362-0.442-5.216,0c-0.455,2.565,0.385,1.568-1.565,2.609c-0.008,6.239,8.145,12.882,14.605,8.351
	c6.694-4.695,4.184-17.226-1.043-21.399c-11.793-9.417-34.472,8.431-29.211,21.399c2.118,5.219,6.646,8.891,7.825,14.614
	c0.105,0.015,17.213,7.829,17.213,7.829c11.077,0.334,22.402,1.563,26.603-5.219c1.738,0,3.478,0,5.216,0
	c1.062,1.724,2.033,2.908,4.173,3.654c0,0.87,0,1.74,0,2.609c10.605,0,21.214,0,31.819,0c0.348,1.392,0.696,2.784,1.043,4.175
	C276.152,716.272,265.089,717.458,263.42,714.526z"/>
<path d="M176.309,683.21c0-1.392,0-2.784,0-4.176c-4.81,0.474-13.438,5.843-20.343,2.61c-3.318-1.553-5.427-3.821-10.433-4.175
	c0.764,10.424,10.373,20.938,14.605,29.228C167.623,702.266,167.847,686.548,176.309,683.21z M149.706,681.644
	c7.156,1.304,13.909,2.017,22.43,1.566c0,0.348,0,0.696,0,1.044c-3.679,1.983-9.816,12.459-10.432,17.224
	C157.027,699.526,151.067,686.912,149.706,681.644z"/>
<path d="M141.882,679.034c-1.043,0-2.087,0-3.13,0c-0.095,11.371-10.595,23.95-20.865,25.053c0,0.87,0,1.74,0,2.61
	c14.416,0.03,24.324,1.594,38.079,1.566C154.27,697.059,145.863,688.943,141.882,679.034z M125.711,703.565
	c6.462-3.752,13.303-10.611,14.605-19.312c2.348,1.107,11.496,18.075,11.997,21.399c-10.009-0.024-18.265-1.489-26.603-1.566
	C125.711,703.913,125.711,703.739,125.711,703.565z"/>
<path d="M196.13,709.307c-1.249-5.406-5.744-5.334-8.346-8.873c-3.625-4.93-3.749-13.036-3.651-21.399
	c-4.325,0.653-19.122,24.053-19.822,29.229C174.917,708.61,185.525,708.958,196.13,709.307z M190.915,705.653
	c0,0.174,0,0.348,0,0.522c-7.65,0.174-15.302,0.348-22.952,0.522c1.55-8.045,8.85-13.614,11.998-20.877
	C185.058,689.263,182.568,701.936,190.915,705.653z"/>
<path d="M124.668,710.872c0,0.87,0,1.74,0,2.61c4.704,0.681,17.009,20.93,10.433,27.663c0.348,0.87,0.696,1.74,1.043,2.609
	c0.521,0,1.043,0,1.564,0c4.698-10.305,17.555-20.07,18.257-32.882C145.534,710.872,135.1,710.872,124.668,710.872z
	 M130.928,713.482c7.128,0,14.258,0,21.386,0c-1.784,9.164-10.238,13.695-11.997,22.443L130.928,713.482z"/>
<path d="M177.352,740.101c0.869,0,1.739,0,2.608,0c0.381-10.533,9.462-22.525,18.778-24.009c0-0.87,0-1.74,0-2.609
	c-10.626-0.151-23.321-1.599-35.992-1.566C167.615,721.31,172.484,730.707,177.352,740.101z M191.958,716.091
	c-5.818,3.557-12.143,10.462-13.041,18.79c-4.37-2.078-10.525-15.591-11.997-20.355c8.345,0,16.692,0,25.038,0
	C191.958,715.047,191.958,715.57,191.958,716.091z"/>
<path d="M144.49,738.535c0,0.522,0,1.044,0,1.566c4.042-0.369,14.11-4.246,19.822-1.566c3.306,1.551,6.23,4.49,10.433,5.219
	c-1.216-11.568-11.946-17.396-13.041-29.228C154.941,715.904,149.661,733.651,144.49,738.535z M169.528,735.925
	c0,0.87,0,1.74,0,2.61c-5.659-1.614-11.308-2.771-19.822-2.61c2.5-5.663,6.393-10.501,9.389-15.658
	C164.851,723.412,164.254,732.711,169.528,735.925z"/>
</svg>
