<?xml version="1.0" encoding="utf-8"?>
<!-- Generator: Adobe Illustrator 15.0.0, SVG Export Plug-In . SVG Version: 6.00 Build 0)  -->
<!DOCTYPE svg PUBLIC "-//W3C//DTD SVG 1.1//EN" "http://www.w3.org/Graphics/SVG/1.1/DTD/svg11.dtd">
<svg version="1.1" id="Layer_1" xmlns="http://www.w3.org/2000/svg" xmlns:xlink="http://www.w3.org/1999/xlink" x="0px" y="0px"
	 width="540px" height="526.297px" viewBox="0 0 540 526.297" enable-background="new 0 0 540 526.297" xml:space="preserve">
<path d="M539.517,243.77c-3.829-1.238-7.658-2.465-11.487-3.691c-1.628-1.032-2.006-3.176-4.104-4.104c0-0.826,0-1.64,0-2.465
	c2.132-0.333,2.396-0.63,3.29-2.052c0.264-0.275,0.539-0.55,0.814-0.825c-4.712-1.731-14.055-3.405-18.469-4.104
	c0,0.137,0,0.275,0,0.413c2.935,2.603,6.454,4.849,11.487,5.331c-0.275,7.968,7.314,11.877,13.55,12.725
	c-0.275,3.84-0.55,7.658-0.825,11.499c-0.275,0.126-0.55,0.264-0.814,0.401c-3.646-3.84-9.16-11.785-15.19-12.725
	c-1.387-7.223-9.354-9.125-11.487-16.004c2.431-1.364,3.726-4.54,6.145-6.145c-0.39-1.49,0.034-0.837-0.814-1.651
	c-0.826-1.49-5.824-4.689-7.383-5.331c0-0.413,0-0.814,0-1.238c9.354,0.218,9.48,6.844,16.817,8.22
	c-0.745-5.354-17.689-28.947-2.052-31.193c-2.316-3.313-5.239-4.609-8.61-6.981c-4.161-2.923-6.511-8.851-9.446-13.126
	c0.31-3.325,1.468-3.657,2.064-6.569c-7.819-0.252-14.181-3.221-19.695-5.331c-0.057-2.935,0.333-3.772,1.227-5.342
	c-1.227-0.527-0.493,0.011-1.227-0.814c-4.734,0.963-5.457,2.499-10.662,2.052c-2.568-2.144-7.383-5.296-9.033-8.208
	c-0.688,0-1.376,0-2.052,0c1.743,6.431,1.593,16.68-2.866,20.521c-0.791,1.238-0.081,0.688-1.64,1.227
	c-4.574-3.76-8.392-11.865-8.208-20.108c2.774-0.584,2.373-1.593,5.331-2.052c0-0.55,0-1.101,0-1.639c-0.275,0-0.55,0-0.825,0
	c-0.803-1.318-13.837-6.672-15.992-7.796c0-0.688,0-1.364,0-2.063c6.282,0.218,9.48-4.815,9.435-10.661c0.814,0,1.64,0,2.454,0
	c1.135,2.912,4,5.812,5.342,8.621c1.135,2.362-0.653,5.273,0.826,6.981c0.126,0.401,0.264,0.814,0.401,1.227
	c1.238-1.364,2.465-2.74,3.691-4.104c13.321-0.023,11.992,9.791,19.695,14.365c0-0.287,0-0.55,0-0.826
	c2.018-1.731-2.683-3.439-0.814-7.383c2.488-5.319,10.604-1.501,16.405-1.238c-3.68-4.208-8.288-7.669-8.208-15.591
	c1.651-0.264,1.215,0.035,2.052-0.814c0.275-0.287,0.55-0.562,0.814-0.825c-2.912-1.112-7.199-0.47-10.249-2.052
	c-1.892-0.986-2.534-2.774-5.331-3.29c-0.619-2.694-4.792-6.535-2.052-9.435c1.043-2.407,3.76-3.428,7.383-3.278
	c0-0.688,0-1.364,0-2.052c-7.612-0.092-11.04-3.083-16.818-4.116c-0.287-0.264-0.55-0.539-0.825-0.813
	c0.069-3.76,1.33-5.87,2.877-8.208c0-0.138,0-0.275,0-0.401c-4.528,0.252-4.345,2.041-6.981,3.279
	c-5.606,0.676-11.212,1.364-16.818,2.041c-0.894-1.651-3.703-5.273-5.331-6.145c-0.333-6.202,2.373-7.326,6.558-8.621
	c0-0.55,0-1.1,0-1.639c-10.456,0.115-21.083-5.617-24.212-11.499c-1.513-2.843,0.859-8.46,0.825-9.435
	c0.814-0.138,1.639-0.275,2.465-0.413c0.023,2.751,0.573,4.138,2.052,5.342c1.387,1.514,4.219,1.525,5.331,3.279
	c2.969-0.172,5.548-1.559,6.981-3.279c1.525-1.009,2.316-3.439,3.279-4.929c-0.046-6.064-3.394-6.34-6.156-9.435
	c-5.182-0.241-9.997,0.722-11.487,4.104c-0.917,0.917-0.906,2.121-0.826,4.104c-9.297,0.011-20.91,0.47-23.375-5.342
	c-1.617-0.665-3.199-6.947-2.878-9.022c-3.863,1.627-13.539,4.688-15.591,8.196c-4.024-0.183-4.138-1.754-6.569-3.278
	c0.275-2.729,0.55-5.468,0.826-8.208c6.465-4.001,9.148-4.654,21.334-4.517c-1.318-1.089-16.554-6.936-16.829-6.97
	c-1.261-7.543,0.791-5.285,2.052-11.498c-7.142,0.069-15.603,3.095-22.148,0.825c-1.673-3.68-3.026-6.431-2.877-12.312
	c-9.813,2.958-14.318,10.891-27.903,10.673c-0.137-1.788-0.264-3.565-0.401-5.331c-0.55,0-1.101,0-1.64,0
	c-2.774,5.078-9.48,7.016-12.312,12.312c-0.55,0-1.089,0-1.64,0c0.573-3.061,8.197-9.286,5.331-11.487
	c-1.089-0.848-3.21-0.069-4.104-0.825c-0.401-0.138-0.813-0.275-1.227-0.413c-0.08-4.356,0.459-7.222,2.052-9.847
	c0-0.138,0-0.275,0-0.413c-7.715,2.419-6.603,7.417-18.468,6.557c-0.046,4.998-0.287,6.947-0.826,11.498
	c-2.66,1.124-2.247,2.648-6.145,2.866c4.07,10.214-2.568,15.751-7.383,22.584c0,0.126,0,0.264,0,0.401
	c13.401-1.628,37.693-18.171,42.256-28.316c17.482,4.563,17.242-5.067,30.769-5.331c0.023,3.37,1.032,5.87,2.877,7.383
	c2.361,4.288,12.06,3.565,18.87,3.279c0.034,4.459,1.009,5.789,1.227,9.446c-3.978-0.092-27.25-4.574-31.583-2.052
	c-3.978,2.304-11.842,1.754-15.591,4.104c-5.411,3.382-13.252,5.594-18.87,8.621c-3.209,1.72-22.951,5.09-25.45,2.866
	c-0.126,0.688-0.264,1.364-0.401,2.063c9.481-0.149,17.253,6.477,20.922,12.301c0.55,0,1.089,0,1.639,0
	c-1.101-1.96-1.364-4.643-1.227-8.208c14.009,0.344,16.313,12.164,29.13,13.55c-0.034-2.786-0.963-5.159-2.877-6.981
	c0.676-1.101,1.375-2.189,2.052-3.278c18.961,0.39,25.083,21.793,33.646,33.245c9.492,12.691,19.409,22.653,33.234,31.182
	c0,0.413,0,0.814,0,1.227c-7.933-0.138-8.873-4.712-13.952-7.383c-3.428-1.8-6.454-0.057-10.26,0
	c0.172-1.066-2.51-4.643-3.278-6.156c-4.23-8.346-4.07-14.032-15.19-12.312c-0.986-1.651-3.107-8.071-2.041-11.499
	c-2.545-0.917-3.13-2.751-5.342-3.279c0.149-3.68,1.169-13.39-1.227-14.766c0.138-0.275,0.275-0.562,0.413-0.825
	c-0.413,0-0.825,0-1.227,0c1.467,5.858,0.08,10.386,0,17.643c1.502,0,3.003,0,4.505,0c0,0.275,0,0.55,0,0.825
	c2.763,2.774,2.258,10.41,2.052,16.004c-4.414-1.101-6.569-4.746-9.848-6.558c0-0.424,0-0.825,0-1.238
	c2.465,0.413,4.929,0.814,7.383,1.238c0-0.699,0-1.375,0-2.063c-6.97-0.091-11.063-4.092-18.457-4.104
	c1.616,8.163,7.555,11.143,7.383,22.985c2.052,0,4.104,0,6.156,0c0.275,0.275,0.539,0.55,0.825,0.825
	c-1.605,5.468-0.711,9.63-2.877,14.766c-0.275,0.138-0.55,0.275-0.826,0.413c-3.072-3.623-10.902-22.744-10.249-27.502
	c-6.672-3.565-17.585-4.734-23.799-8.609c0.757-3.485,6.661-6.775,10.673-6.981c-0.115,6.466,1.708,6.592,3.278,10.271
	c0.539,0,1.089,0,1.64,0c-0.367-2.487-0.86-2.292-2.052-3.703c-0.424-8.563,4.414-11.349,11.487-11.899c0-0.688,0-1.364,0-2.052
	c-12.851,0.516-17.608,4.219-21.735-8.208c-6.374,1.628-7.486,8.792-14.777,10.26c-0.802-0.837-0.149-0.447-1.651-0.826
	c-0.539-2.338,0.229-7.83-1.227-9.435c-1.238-1.468-2.453-1.25-3.278-3.291c-3.405-0.206-4.666-0.103-5.744,2.063
	c-5.216,2.82-0.046,9.561,4.918,9.435c-0.756,4.608-4.265,3.439-6.156,6.569c-2.786-0.252-3.565-1.33-4.505-3.279
	c-1.765-1.043-1.444-4.585-1.238-7.394c-9.08,2.442-12.083,5.629-22.974,4.104c-0.481-1.215-0.688-1.375-0.813-3.279
	c4.184-0.676,6.454-2.729,11.487-2.877c-2.717-4.964-19.901-7.394-27.078-7.383c0-0.688,0-1.375,0-2.052
	c4.781-1.101,9.573-2.19,14.364-3.291c0-0.676,0-1.364,0-2.052c-1.375,0-2.74,0-4.104,0c-0.011-8.575,12.84-14.502,20.91-14.766
	c-0.94-2.293-3.244-5.881-5.319-6.981c-0.344-8.495,4.941-14.64,11.487-15.591c-2.866-5.021-16.887,2.041-23.799-1.238
	c-4.104-1.938-3.348-5.216-6.156-8.208c-0.264-0.275-0.55-0.539-0.825-0.814c-4.781,8.896-24.67,21.953-34.048,10.26
	c-2.373,4.196-1.686,11.579-4.517,15.591c-2.683,3.806-9.985,5.973-11.487,9.435c-1.502-0.401-3.015-0.814-4.517-1.227
	c0.069-6.981,1.926-14.468,4.104-20.521c-0.264,0-0.539,0-0.826,0c-0.688-0.894-8.609,2.385-12.702,2.052
	c-0.608-3.772-2.098-4.54-2.063-9.435c-0.677,0-1.364,0-2.041,0c1.41,5.629-6.833,14.318-8.208,16.829c-2.201,0-4.379,0-6.569,0
	c-0.275-1.1-0.55-2.201-0.814-3.29c-1.238-0.413-2.465-0.814-3.703-1.227c0.241,2.568,1.33,7.818,2.877,9.435
	c0.08,3.588-0.562,8.174-0.814,9.446c-2.454-0.584-4.918-3.233-5.744-5.342c-3.175,5.446-0.791,15.339-3.703,20.933
	c-1.594,3.072-5.778,4.54-7.383,7.383c-2.58,0.206-4.827,0.424-5.744-1.227c-0.539,0.401-1.101,0.814-1.639,1.227
	c0,0.676,0,1.375,0,2.052c1.639,0.252,1.227-0.034,2.052,0.826c3.909,2.396,6.695,18.354,3.279,25.438
	c-3.531,7.325-5.743,22.641-22.16,22.572c0.86-8.644,3.897-16.52,10.26-19.707c-0.058-1.811,0.057-2.006-0.814-2.866
	c0.917,1.318-4.815,0.871-6.569,0.825c-1.628-2.958-3.944-4.035-4.104-8.621c6.076,0.241,9.629-1.066,11.487-4.93
	c4.815-2.603,3.393-13.642-0.814-15.591c-2.935-5.468-14.422-0.184-15.591,3.278c-2.854-0.287-2.465-0.791-3.703-2.464
	c-1.662,4.459,0.229,9.102-1.639,13.963c-2.648,6.936-8.094,18.675-16.818,19.695c0.172-5.835,2.843-7.715,3.291-12.714
	c-2.465,0-4.93,0-7.395,0c-0.596-2.637-4.242-9.584-1.227-12.725c0-2.338,0-4.654,0-6.981c-0.55,0-1.101,0-1.651,0
	c-0.241,10.329-11.98,23.811-22.561,14.766c-0.126,0-0.275,0-0.413,0c0.642,13.458,8.632,16.99,2.052,31.193
	c-5.823-0.023-6.213-2.167-10.249-3.279c1.57,7.669,10.031,12.267,10.249,23.799c0.275-0.275,0.55-0.55,0.814-0.814
	c1.502-0.837,1.066-0.321,1.238-2.465c0.413,0,0.825,0,1.227,0c0.172,5.239,0.539,11.751-2.041,14.365c0,0.263,0,0.539,0,0.825
	c-1.227-0.539-0.493,0.011-1.238-0.825c-1.627-1.192-2.006-4.208-3.278-5.744c-0.138-0.275-0.275-0.55-0.413-0.825
	c-1.765,1.937-2.361,4.987-4.517,6.569c0,0.263,0,0.539,0,0.825c-5.296,0.08-7.944-3.003-9.848-6.167c-0.539,0-1.089,0-1.639,0
	c0.241,3.806,0.137,5.996-2.041,7.394c-3.084,2.786-9.779-0.436-11.911-1.227c-2.706-1.043-3.967,0.975-6.145,1.227
	c0,0.138,0,0.275,0,0.413c7.532,2.706,14.227,9.4,13.952,20.108c-1.502,0.401-3.015,0.814-4.517,1.227c0,0.55,0,1.089,0,1.64
	c6.775,0.378,8.495,4.906,12.714,7.394c-0.413,0.814-0.814,1.639-1.227,2.465c-1.41,1.066,7.062,7.44,8.621,9.022
	c5.285,5.342,8.231,15.454,8.197,25.851c0.287-0.264,0.55-0.539,0.825-0.825c0.539-0.275,0-10.879,0-15.178
	c0.676-7.108,1.364-14.227,2.041-21.334c2.109-2.671,4.047-9.4,4.104-13.55c0.424,0,0.825,0,1.238,0
	c-0.206,13.825-4.138,26.413-4.918,40.64c4.677-3.29,9.091-7.291,13.94-10.685c0.825,0,1.65,0,2.464,0
	c-0.676,3.508-8.758,18.216-11.487,19.294c0,0.55,0,1.101,0,1.639c2.19-0.264,4.379-0.539,6.569-0.825
	c0.86,3.76,13.31,22.251,0.814,24.223c-0.527,1.215,0.023,0.493-0.814,1.227c0,0.137,0,0.275,0,0.413
	c3.646-0.023,5.973-1.513,6.981-4.104c4.104-4.574-3.313-19.466-4.104-22.985c2.751,0.149,7.589,0.55,9.022-0.814
	c0.401-0.138,0.825-0.275,1.227-0.413c-4.288-1.949-8.22-0.562-13.55-0.413c0.768-17.345,25.542-31.079,36.524-39.803
	c6.913-5.491,12.209-13,22.985-14.777c0.126,0.275,0.264,0.55,0.401,0.825c-5.823,7.772-1.513,9.24,0,16.829
	c-10.959,4.999-22.366,6.833-22.148,23.387c-5.984-0.012-13.069,1.318-16.829,4.104c-2.396,1.777-3.52,5.824-6.145,7.383
	c0,0.539,0,1.101,0,1.639c2.27-1.158,4.907-3.966,6.145-6.145c4.78,0.653,4.448,8.862,4.104,14.353c0.676,0,1.375,0,2.052,0
	c5.618-8.438,16.944-15.625,20.922-25.038c0.413,0,0.825,0,1.238,0c-1.949,7.2-8.782,13.333-13.551,20.108
	c-1.364,0.825-2.728,1.651-4.104,2.465c-1.903,3.52-1.272,8.953-4.092,11.498c-0.986,1.032-1.674,0.654-2.465,2.041
	c-6.294-1.204-7.738-9.859-11.888-13.539c-0.149,5.743-0.287,11.498-0.424,17.242c-0.779,2.189-1.903,6.523-3.278,8.621
	c-0.986,1.514-3.142,1.594-4.104,3.279c-1.777-0.413-3.554-0.814-5.342-1.238c-0.539-2.809-2.431-5.136-3.279-7.383
	c0-6.558,0-13.126,0-19.695c-2.052,0.504-6.351,2.637-7.784,4.104c-10.077,0.138-11.98-11.349-12.725-20.521
	c-0.126,0-0.264,0-0.401,0c-0.55,4.104-1.101,8.208-1.651,12.312c-1.731,3.371-4.586,6.546-6.156,10.26
	c-3.623,1.49-8.071,1.272-11.888,0c-0.688-2.052-1.376-4.104-2.063-6.156c-0.539,0-1.078,0-1.639,0
	c-0.928,2.167-1.616,6.305-2.465,8.621c-1.215,0.676-2.453,1.375-3.68,2.052c-6.202-5.583-10.879-9.997-10.673-22.16
	c-8.586,4.265,1.594,18.686-2.052,27.903c-1.009,2.557-4.127,3.554-5.331,5.744c-0.951,0-1.914,0-2.877,0c0,0.825,0,1.639,0,2.464
	c4.517,3.967,9.034,7.933,13.551,11.9c0.264,2.464,0.539,4.918,0.814,7.383c-2.476-0.47-2.293-1.101-5.331-1.227
	c1.628,7.899,13.734,5.342,19.684,9.034c3.015,1.857,4.758,5.904,7.807,7.795c0.069,2.648-0.08,3.279-1.238,4.505
	c3.99,1.502,9.309-0.825,11.487,2.465c2.408-0.344,2.499-0.562,2.877-2.866c1.364,0.058,1.055,0.482,3.279,0.814
	c1.353,6.122,4.368,10.077,3.29,18.056c-2.614,0.504-3.714,1.272-7.394,1.238c2.247,2.316,4.964,6.271,5.331,10.26
	c-6.535-0.951-12.014-6.684-16.405-10.26c-0.126,0-0.275,0-0.413,0c1.043,3.245,3.829,4.551,5.331,6.981
	c3.6,5.767,1.754,16.451,0,22.148c-8.85-0.71-12.84-9.595-21.334-10.661c0-0.688,0-1.376,0-2.064
	c2.981,0.023,13.436,3.279,16.004,5.755c1.364,0,2.74,0,4.104,0c0-0.55,0-1.089,0-1.65c-11.063-0.527-19.661-7.039-27.078-11.487
	c1.639-4.07,7.463-4.459,9.435-8.621c0.676,0,1.375,0,2.052,0c0.928,6.454,9.458,6.787,14.353,6.156
	c-2.453-0.539-4.918-1.089-7.383-1.64c-3.932-2.144-6.087-7.555-10.249-9.435c-0.332-0.126-1.02-1.146-2.052,0
	c0,1.777,0,3.554,0,5.331c-1.651,1.364-3.29,2.74-4.929,4.104c-8.77,0.161-10.914-5.193-15.167-9.435
	c-1.078,0.997-0.424,0.917-2.465,1.238c1.559,7.807,7.05,9.171,6.97,18.87c-2.327,0.275-4.655,0.55-6.97,0.813
	c3.451,3.76,9.802,2.946,14.353,5.755c3.003,1.857,6.03,5.147,9.435,6.569c-0.218,2.637-1.284,3.76-3.279,4.505
	c0,0.826,0,1.64,0,2.465c7.945-3.061,18.514-2.602,24.2,1.64c-0.023,3.003-1.284,6.362-3.279,7.394c0,0.539,0,1.089,0,1.639
	c2.144-0.447,7.75-3.003,9.435,0c0.963,0,1.926,0,2.866,0c0-0.55,0-1.101,0-1.639c-1.066-0.63-0.699-0.711-2.041-1.238
	c-1.02-1.009-3.175-0.951-5.342-0.814c0.413-2.602,0.826-5.205,1.238-7.807c2.98,0.951,3.416,2.729,6.569,3.29
	c0.138,2.155,0.47,3.325,2.041,4.104c-0.08,4.987-4.139,10.111-8.609,10.673c0,0.275,0,0.539,0,0.814
	c2.511,1.869,6.924-0.481,10.249,0.826c4.85,1.88,9.504,6.649,13.952,8.621c0,1.089,0,2.178,0,3.279
	c-3.737,0.126-12.656,1.135-14.765-0.814c-0.952,0-1.915,0-2.866,0c0.768,2.946,2.809,3.382,4.104,5.744c0.676,0,1.353,0,2.041,0
	c0.837,4.242,2.969,5.56,2.877,11.899c-2.774,1.112-3.84,2.132-4.918,4.918c-0.424,0.138-0.825,0.275-1.238,0.413
	c3.416,0.138,6.832,0.275,10.26,0.413c3.153,1.215,5.033,4.173,7.383,6.156c-0.287,2.064-0.917,3.726-2.052,4.93
	c4.838,2.086,10.937,0.39,16.417,2.453c2.338,0.883,4.883,2.843,7.784,3.291c-2.396,5.078-12.381,7.279-16.806,10.661
	c-7.967,6.053-15.384,14.548-20.933,22.985c-3.989,6.053-3.611,20.498-0.814,27.089c3.164,7.452,3.84,12.656,8.197,18.468
	c7.222,9.63,42.462,14.995,61.55,14.766c0.447,4.666,8.197,9.825,10.673,11.499c-0.413,0.298,5.79,6.316,7.383,7.383
	c1.032,0.699,35.733,9.01,40.204,6.156c3.795-2.43,10.432-1.398,14.353-4.104c8.426-5.789,29.004-20.303,30.368-31.595
	c0.825,0.401,1.639,0.814,2.464,1.227c-1.742,6.603-3.932,11.406-6.167,17.654c0.894,0.768,1.124,1.685,2.063,2.453
	c0.126,0.275,0.264,0.55,0.401,0.826c2.419-6.684,6.718-13.78,16.417-13.539c2.189,4.127,2.511,5.766,2.052,11.487
	c6.661-0.779,13.516-13.034,16.417-18.056c0.138,0,0.264,0,0.401,0c2.121,0.527,2.511,1.009,2.877,3.279c0.539,0,1.089,0,1.639,0
	c0.458-6.821,5.331-10.318,7.383-15.603c3.783,1.49,2.969,4.643,5.331,7.394c7.028,8.174,14.284,18.618,22.985,25.038
	c26.62,19.672,50.247,14.983,68.509-7.395c3.233-3.955,6.557-4.849,9.435-10.249c6.707,0,13.413,0,20.108,0
	c1.135,0.447,5.308,2.866,6.97,2.041c3.233-1.593,10.443-0.355,13.55-2.041c7.383-4.024,19.924-6.901,24.2-13.963
	c12.187-20.107,8.655-35.022-3.278-52.94c-3.164-4.734-9.469-7.153-13.539-11.085c-3.153-3.026-7.761-7.566-11.487-8.609
	c0.137-0.814,0.275-1.651,0.401-2.465c1.903-0.63,6.11-0.619,7.383-2.052c0.275-0.137,0.562-0.275,0.826-0.413
	c-5.239-1.559-9.572-12.816-9.435-20.509c2.063-1.158,2.063-2.408,4.93-2.877c-1.25-2.178-3.302-4.586-4.104-6.156
	c-0.424-3.691-0.826-7.394-1.238-11.074c0.413-0.562,0.814-1.101,1.238-1.639c1.754,0.47,2.602,0.986,3.68,2.041
	c1.834-3.714,5.102-12.828,5.744-16.405c0.562-0.149,1.101-0.287,1.639-0.424c0.562,1.101,1.101,2.201,1.651,3.29
	c0.688,0,1.375,0,2.052,0c0.344-9.435,8.483-5.927,13.539-10.26c4.517-3.863,5.342-11.59,5.331-20.119
	c2.144,0.333,2.384,0.63,3.29,2.063c1.49-0.401,0.837,0.034,1.639-0.825c0.413,0,0.814,0,1.227,0
	c-1.043-3.531-2.315-8.908,0.826-11.487c1.043-1.708,2.488-2.121,5.331-2.052c-0.653-7.062-1.284-16.99-1.227-25.852
	c5.365-1.972,10.65-5.605,15.992-6.568c-0.057,12.496-7.91,13.413-9.423,21.334c0,0,8.678,5.273,10.662,9.022
	c1.903,3.634-2.018,9.606-2.052,13.55c6.294-4.551,16.291-25.587,28.305-11.487c3.6-9.504-2.075-21.128,4.505-27.089
	c0.699-0.676,1.375-1.364,2.063-2.041c4.86,0.516,6.293,2.74,11.487,2.866c-3.875-4.654-11.143-10.948-11.487-18.468
	c2.132-0.195,1.651,0.298,2.465-1.227c2.877,0.401,4.941,2.442,5.331,5.331c0.55,0,1.089,0,1.639,0
	c0.826-1.089,1.651-2.189,2.465-3.29c6.867,0,8.495,2.144,13.126,3.29c0.137-0.413,0.275-0.825,0.413-1.227
	C540.858,262.731,532.225,250.109,539.517,243.77z M423.822,53.354c5.067-0.986,7.417-0.596,11.899,0.813
	c0.504,10.719-5.262,8.885-11.899,7.383C423.41,57.595,423.421,56.804,423.822,53.354z M289.648,37.751
	c-0.733-0.436,1.066-11.384,0.826-14.766c4.849-2.534,5.159-6.615,6.557-12.725c1.456-0.573,2.923-0.883,5.342-0.825
	c-1.456,7.819-5.136,16.118-6.569,25.037C293.626,34.77,290.531,36.077,289.648,37.751z M303.187,31.606
	c-0.86,0.871-1.41,0.825-3.279,0.814c-0.091-9.721,2.488-17.781,7.807-22.16c1.124,1.078,1.398,2.476,2.866,3.279
	c-0.826,5.594-4.093,8.655-4.104,16.004C304.7,30.242,304.849,30.873,303.187,31.606z M39.379,332.007c-4.242,0-8.483,0-12.725,0
	c-0.734-7.314-11.682-11.338-17.632-13.55c0.264-2.189,0.55-4.379,0.825-6.557c0.401,0,0.814,0,1.227,0
	c2.854,4.379,22.309,17.711,28.304,18.457C39.379,330.907,39.379,331.446,39.379,332.007z M514.892,242.956c0,0.401,0,0.814,0,1.215
	c-2.74,0.103-4.437-0.241-5.331-2.041c-1.788-0.917-2.132-2.579-2.052-5.342C509.974,238.852,512.427,240.892,514.892,242.956z
	 M507.509,219.97c-0.481,3.462-1.754,2.511-2.866,4.517c-1.88,3.359-1.284,9.377-1.238,14.364c-0.264,0.126-0.539,0.264-0.814,0.401
	c-6.488-2.224-4.551-9.16-8.609-13.539c-0.756-1.731-1.009-1.846-3.29-2.052c0.195,2.132-0.298,1.64,1.227,2.465
	c0,2.178,0,4.368,0,6.557c-1.501-0.779-0.963-1.261-2.465-2.052c-0.321-6.42,0.218-10.191,4.528-11.899
	c-0.71-3.038-2.797-5.354-5.342-6.569c0-0.814,0-1.64,0-2.465c4.941,0.539,7.612,6.592,7.383,12.324c0.963,0,1.915,0,2.877,0
	c0.47-2.488,1.101-2.304,1.227-5.342C503.531,217.333,504.356,219.328,507.509,219.97z M496.435,253.204
	c4.62,5.961,0.172,19.374-0.413,25.438c-0.401,0-0.825,0-1.227,0c0.012-9.114,1.158-17.838,1.227-25.438
	C496.16,253.204,496.297,253.204,496.435,253.204z M477.152,158.409c7.429,0.642,10.662,7.177,20.108,7.383
	c1.674,4.597,2.121,10.008,4.918,13.539c2.396,3.026,6.408,4.826,8.609,8.22c0.699,0,1.376,0,2.063,0
	c-0.264,3.382-5.915,15.281-2.063,17.643c-0.264,0.55-0.539,1.089-0.814,1.639c-8.208-9.102-24.051-41.935-32.821-45.959
	C477.152,160.048,477.152,159.223,477.152,158.409z M493.156,187.55c-0.275,0.539-0.55,1.089-0.826,1.639
	c-5.858-6.752-19.477-21.529-21.323-30.781C480.511,162.696,486.244,183.526,493.156,187.55z M465.666,157.583
	c4.884,2.717,6.122,11.108,9.435,15.603c6.534,8.85,14.25,16.863,20.921,25.851c2.717,3.657,8.174,5.984,9.446,11.085
	c-2.912,1.261-4.54,2.786-8.621,2.866c0-0.688,0-1.364,0-2.052c-4.505-2.522-8.563-7.176-13.539-9.435
	c-2.201-1.009-4.585,0.527-6.156-0.826l-12.713-19.282c2.316-0.092,2.866-0.31,3.691,1.227c2.201-0.069,2.063,0.298,2.877-1.227
	c0.264-0.275,0.539-0.562,0.814-0.825c-3.84-2.465-7.658-4.918-11.487-7.383C461.401,167.741,465.219,163.373,465.666,157.583z
	 M477.152,249.1c0.895,1.467,2.144,0.998,3.279,2.052c0.413,0.275,0.825,0.55,1.238,0.825c0,0.539,0,1.101,0,1.64
	c-8.563-2.511-10.742-9.894-17.23-13.539c0.287-3.026,2.178-3.806,4.505-4.517c0-0.55,0-1.089,0-1.651
	c-2.281-1.169-8.954-9.16-6.558-11.888c0-0.413,0-0.826,0-1.238c3.955-0.046,5.354,0.573,7.796,1.64
	c1.949,4.322,4.792,8.472,4.918,14.364c2.396-0.436,2.361-1.135,4.104-2.052c0-0.825,0-1.639,0-2.465
	c1.089-0.264,2.189-0.539,3.29-0.814c1.433,1.686,4.219,4.219,6.145,5.331c0,1.501,0,3.003,0,4.517
	c-4.115,1.857-7.417,5.354-12.312,6.156C476.729,248.951,476.304,248.298,477.152,249.1z M399.61,328.717
	c11.2-4.024,20.395-14.869,11.487-24.625c0.138-0.275,0.275-0.539,0.413-0.814c5.881-0.963,11.762-1.926,17.632-2.877
	c2.098-3.943,4.288-4.54,4.104-11.487c7.612-0.012,12.267-1.536,18.067-2.063c0,1.101,0,2.201,0,3.29
	c-4.093,2.075-7.669,8.495-10.26,12.312c-3.428,5.021-33.704,31.102-39.803,31.594c0-0.401,0-0.825,0-1.227
	C399.278,332.088,399.473,331.389,399.61,328.717z M432.432,284.811c0.424-4.987,3.462-5.067,4.93-8.621c1.501,0,3.003,0,4.505,0
	c0.229,1.8,0.974,4.288,2.063,5.331c0.837,0.859,1.055,0.779,2.866,0.825c0-1.64,0-3.279,0-4.918
	c4.196-0.035,8.38,0.264,11.487,0.814c0.138,0.264,0.275,0.55,0.413,0.825C452.963,284.386,443.896,285.108,432.432,284.811z
	 M443.93,272.498c-3.233-0.126-5.296,0.069-6.982,1.227c-0.137,0-0.275,0-0.413,0c0.527-5.342,3.336-8.242,5.331-11.899
	c3.083-5.64,3.565-12.473,6.156-18.056c1.204-2.603,0.023-10.26-1.227-11.086c-0.287-0.275-0.55-0.55-0.825-0.813
	c-2.052,5.846-0.676,17.884-4.918,21.747c-0.287,0.401-0.55,0.825-0.826,1.238c-2.396-6.58,4.242-17.608,0.413-26.264
	c-0.137,0-0.275,0-0.413,0c-0.837,0.802-0.298,0.653-1.639,1.215c-0.081,10.272,0.665,20.543-2.866,27.915
	c-2.533,5.273-6.293,12.679-7.394,18.881c-0.413,0-0.826,0-1.227,0c-2.19-2.327-4.379-4.654-6.569-6.981
	c6.019-8.999,0.481-20.406-6.982-22.16c0.849-2.98,3.371-3.909,5.342-5.744c6.363-5.927,9.871-13.287,6.97-22.985
	c2.201-0.952,4.379-1.915,6.569-2.866c8.277,0.184,6.729,10.845,10.673,13.539c0.264,0.264,0.539,0.55,0.826,0.825
	c2.201-5.044,4.562-11.533,6.958-16.428c0.825,0,1.651,0,2.465,0c1.57,7.807,9.01,12.736,9.446,20.933
	c-5.893,2.362-7.704,10.478-7.383,18.881C447.53,254.786,443.563,263.041,443.93,272.498z M438.588,256.896c0-0.539,0-1.089,0-1.639
	c0.413,0,0.814,0,1.238,0c0,0.55,0,1.101,0,1.639C439.402,256.896,439,256.896,438.588,256.896z M413.55,259.773
	c0.149-3.29,2.878-4.391,5.342-4.517c0.275,2.877,2.511,5.25,1.227,8.621c-1.41,3.726-8.082,9.767-12.312,10.673
	c-0.138,0-0.264,0-0.401,0c-0.768-2.923,0.333-3.967,0.826-6.569c3.932-0.768,3.783-3.714,6.557-5.342
	C414.204,260.736,415.018,260.519,413.55,259.773z M414.789,273.324c7.75-0.447,9.825,2.9,9.435,10.249
	c-0.264,0.138-0.539,0.275-0.826,0.413c-1.124-0.814-4.757-3.416-5.743-5.342c-4.827-0.206-6.661,1.204-8.197,4.104
	c-1.869,0-2.408,0.08-3.29-0.814c-0.401-0.264-0.814-0.55-1.227-0.826C408.609,277.966,412.244,277.198,414.789,273.324z
	 M404.127,212.576c3.967-1.215,9.985-5.468,11.487-8.197c4.241-2.086,0.619-7.807-1.238-9.859c0.562-1.559-0.012-0.849,1.238-1.64
	c0.825-1.639,2.132-2.006,4.505-2.052c-0.218,6.305-2.121,16.989,0.826,18.87c-0.252,9.183-8.885,13.768-13.539,18.893
	c-0.413,0-0.814,0-1.238,0C409.32,219.351,406.546,219.798,404.127,212.576z M414.789,151.427c-1.834-1.972-4.849-3.175-5.743-5.331
	c-0.378-0.917,6.236-10.295,6.569-12.725c0.814,0,1.639,0,2.464,0c1.009,6.397,6.489,13.7,9.423,18.881
	c2.121,3.737,0.883,7.543,2.877,11.487c6.604,13.103,10.902,33.429,10.673,52.126c-0.287,0.138-0.55,0.264-0.826,0.401
	c-2.889-4.999-9.389-9.527-17.23-9.435c-2.247-11.521,6.214-31.549-11.487-31.182c-0.137-0.275-0.275-0.562-0.413-0.826
	c3.21-4.494,4.987-9.916,4.517-18.056C415.465,154.259,413.734,153.915,414.789,151.427z M439.826,177.691c-0.424,0-0.825,0-1.238,0
	c-0.757-10.547-6.741-19.615-9.446-28.729c7.394,3.336,5.732,21.587,10.684,25.049C439.826,175.227,439.826,176.465,439.826,177.691
	z M441.053,179.331c0,0.688,0,1.375,0,2.063c-0.287,0.138-0.55,0.264-0.826,0.401c-0.138-0.814-0.275-1.639-0.401-2.465
	C440.227,179.331,440.64,179.331,441.053,179.331z M430.379,212.576c0,0.55,0,1.089,0,1.651c-0.275,0.264-0.539,0.539-0.813,0.814
	c-0.826,0-1.651,0-2.465,0c0-0.814,0-1.64,0-2.465c1.227-0.527,0.493,0.011,1.227-0.814
	C429.015,212.026,429.703,212.301,430.379,212.576z M420.945,222.022c0.527-1.021-0.333-0.986,2.052-1.238
	c1.055,7.417,0.677,7.199-2.052,13.126c-3.095-1.479-4.758-3.291-9.435-3.279c-0.137-0.264-0.275-0.539-0.413-0.826
	C414.307,227.594,417.483,223.559,420.945,222.022z M461.562,209.699c0.355,2.419,0.573,2.499,2.877,2.877
	c-0.023-4.838-2.144-12.736-4.93-15.178c0-0.826,0-1.64,0-2.465c5.675,2.591,18.297,19.5,22.16,25.037
	c1.938,2.774,1.158,5.652,4.104,7.383c0,0.676,0,1.376,0,2.052c-0.138,0.138-0.275,0.264-0.413,0.401
	c-2.763-0.596-5.296-1.307-9.435-1.215c-0.894-7.257-6.282-6.97-9.022-11.499c-1.766,0.963-5.893,2.545-7.395,1.227
	c-2.418-1.616-2.189-5.285-4.092-7.383C456.368,209.263,458.914,209.492,461.562,209.699z M457.458,183.435
	c9.848,0.539,10.753,9.894,14.766,16.428c0,0.814,0,1.64,0,2.454c-0.264,0.138-0.539,0.287-0.814,0.413
	c-4.368-4.517-8.747-9.034-13.126-13.539C457.24,188.124,457.32,185.659,457.458,183.435z M473.048,203.141
	c2.316,0.998,7.36,1.617,10.26,2.052c1.204,3.783,7.027,13.298,4.505,16.003c0,0.413,0,0.826,0,1.227
	C484.398,221.988,473.839,206.523,473.048,203.141z M460.335,240.892c7.062,2.809,8.839,13.115,18.056,14.364
	c0,1.238,0,2.465,0,3.703c-1.238,0-2.465,0-3.703,0c-2.683-2.27-8.071-4.688-10.249-7.394c-1.823-2.247-1.57-5.881-4.104-7.394
	C460.335,243.093,460.335,241.993,460.335,240.892z M447.208,144.044c-0.149,3.554-3.118,8.254-1.238,12.312
	c2.935,6.328,7.646,16.417,13.539,19.695c0,0.826,0,1.64,0,2.465c-3.84,0.791-3.473,3.703-6.156,5.331
	c0.103,4.86,4.849,19.58,4.104,20.933c-1.009,1.857-3.829,1.479-4.918,4.104c-0.826,0-1.651,0-2.465,0c0,0.676,0,1.375,0,2.052
	c-1.227,1.089-2.465,2.19-3.691,3.291c-3.439-8.014,1.548-30.311-2.453-37.762c-2.362-4.379-1.353-11.842-4.104-16.417
	c-5.388-8.862-9.606-19.168-15.189-27.089c1.639-0.138,3.279-0.264,4.93-0.401C432.225,137.808,440.617,143.001,447.208,144.044z
	 M442.692,102.19c2.052,0,4.104,0,6.156,0c-0.287-2.305-0.172-2.213-2.052-2.877c1.525-2.259,5.824-0.229,7.383-2.465
	c6.844,0.573,6.867,7.91,14.766,8.621c-0.791,11.269,1.926,19.248,13.55,19.707c0.218,5.595,2.958,6.271,3.279,11.487
	c-0.275,0.138-0.562,0.275-0.826,0.413c-4.207-7.234-33.715-32.26-42.256-33.658C442.692,103.003,442.692,102.591,442.692,102.19z
	 M480.431,136.662c0,0.677,0,1.364,0,2.052c-2.212,0.986-3.003,2.098-5.743,2.465c-4.208-3.772-10.387-10.696-16.818-6.168
	c-3.416-6.465-3.095-14.754-13.126-14.765c-1.983-4.987-5.56-10.249-7.383-16.004C455.658,111.063,467.11,124.969,480.431,136.662z
	 M437.762,100.952c-0.275,1.204-0.676,1.101-1.227,0C436.948,100.952,437.361,100.952,437.762,100.952z M443.104,121.885
	c0,2.327,0,4.654,0,6.97c-0.688,0.963-1.375,1.926-2.052,2.877c-8.266,0.619-9.882-0.092-11.911-6.156
	c-0.436-1.318-1.467-3.038,0-4.505c0.137-4.116,1.398-3.359,3.29-5.342c1.375,0,2.74,0,4.104,0
	C437.889,117.953,440.502,120.945,443.104,121.885z M377.863,54.993c1.983-2.189,11.12-5.228,11.499-6.981c0.539,0,1.077,0,1.639,0
	c3.588,8.896,11.831,12.117,23.788,12.312c-0.401,12.06,9.343,19.855,18.87,20.933c-0.986,2.648-1.341,6.397-1.227,10.673
	c-19.626-6.959-30.666-21.392-48.412-27.502c-1.456-3.749,0.344-4.494,1.238-7.795c-1.983-0.883-3.955-1.341-7.394-1.227
	C377.863,55.268,377.863,55.13,377.863,54.993z M418.893,105.468c-1.915,0.149-1.433-0.275-2.052,1.238
	c-1.697,0.39-5.468-3.29-7.383,0c-3.726-0.481-3.772-2.052-6.156-3.29c-0.138-0.275-0.275-0.55-0.413-0.814
	c1.777-0.138,3.554-0.275,5.342-0.413c0-0.963,0-1.926,0-2.877c-4.494-2.477-11.647-10.73-13.551-11.487c0-1.788,0-3.565,0-5.342
	c9.848,4.104,19.695,8.219,29.543,12.312c-1.605,2.774-4.586,2.637-5.331,6.569C417.964,101.731,418.847,103.267,418.893,105.468z
	 M389.362,70.996c3.897,0.86,4.688,3.394,8.609,4.104c0,0.413,0,0.814,0,1.238C394.761,76.098,390.623,73.553,389.362,70.996z
	 M398.785,75.915c0.413,0,0.825,0,1.238,0C399.736,77.118,399.335,77.015,398.785,75.915z M402.063,82.483
	c0.218-2.132,0.481-2.259,1.651-3.279c5.491,1.616,8.552,6.546,14.364,8.208C416.107,90.049,405.835,83.206,402.063,82.483z
	 M418.48,89.052c0.138-0.138,0.275-0.275,0.413-0.413c0.401,0,0.826,0,1.227,0c0,0.413,0,0.826,0,1.238
	C419.581,89.603,419.03,89.327,418.48,89.052z M372.934,52.115c0,0.814,0,1.639,0,2.465c-5.766-0.012-6.661-2.568-9.423-3.291
	c0-0.401,0-0.814,0-1.227C368.062,50.132,369.529,51.508,372.934,52.115z M323.708,38.164c4.104-3.726,11.945-5.961,19.695-5.743
	c0.137-0.413,0.275-0.814,0.413-1.238c2.178,0,4.379,0,6.557,0c-1.639,2.877-21.369,7.394-26.665,7.394
	C323.708,38.439,323.708,38.301,323.708,38.164z M352.425,57.458c-9.561-0.608-11.888-6.409-22.16-5.342
	c-0.264,2.465-0.539,4.93-0.814,7.394c-0.55,0-1.089,0-1.64,0c-3.347-5.858-13.665-6.821-17.643-12.324
	c-2.327,0.287-4.654,0.562-6.981,0.826c-0.275,1.101-0.539,2.189-0.814,3.278c-2.51-0.779-3.611-2.338-5.743-3.278
	c0-0.138,0-0.264,0-0.401c5.354-4.437,17.987-3.359,25.026-5.744c1.788,0,3.554,0,5.331,0c10.088-5.995,32.259-9.526,48.412-9.446
	c-1.272,5.629-6.42,6.958-6.569,14.765c-4.276-0.149-9.549-2.052-13.527,0.826c-1.743,1.261-2.144,4.161-4.104,5.342
	c0.069,2.201-0.298,2.052,1.227,2.877C352.425,56.632,352.425,57.045,352.425,57.458z M382.38,99.312
	c-6.019-2.282-16.668-19.604-18.87-26.264c8.782,3.084,12.564,19.145,18.87,25.037C382.38,98.487,382.38,98.899,382.38,99.312z
	 M388.536,101.364c-7.75-11.212-16.737-31.687-33.646-37.751c0-0.688,0-1.375,0-2.063c3.026-0.172,2.854-0.779,5.331-1.227
	c0-0.55,0-1.089,0-1.639c-2.373-0.906-2.304-1.88-4.918-2.052c-0.138-0.275-0.275-0.539-0.413-0.825
	c0.057-2.866,0.55-3.118,1.227-4.918c1.101,0,2.189,0,3.29,0c0,0.825,0,1.639,0,2.465c6.305,2.27,11.441,5.101,20.91,4.918
	c-0.321,11.934,6.007,16.095,13.55,19.707c0,0.539,0,1.089,0,1.639c-0.688,0-1.364,0-2.052,0
	c-1.227,8.254,3.026,15.797,9.435,18.468c-2.098,4.379-5.434,5.503-5.331,12.725C391.666,109.114,390.944,104.849,388.536,101.364z
	 M382.38,114.491c3.291,0.183,4.425,1.238,6.558,2.464c0.573,1.594-0.184,6.087,0.825,8.22c1.789,3.783,4.827,7.876,7.383,11.063
	c-0.527,4.356-2.958,6.431-3.279,11.085c-7.509-2.557-10.042-16.462-20.933-17.643c0,0.138,0,0.275,0,0.413
	c5.618,5.606,11.223,11.212,16.829,16.829c0,0.814,0,1.64,0,2.454c-3.175-0.872-8.999-4.333-12.312,0
	c-6.592-2.385-5.503-13.837-13.126-16.417c-2.602,0.688-5.205,1.375-7.795,2.052c-0.825-2.052-1.639-4.092-2.465-6.156
	c0-1.227,0-2.454,0-3.68c10.593,2.9,25.106-4.333,30.368,9.423c0.539,0,1.089,0,1.639,0
	C385.659,129.531,379.72,123.387,382.38,114.491z M393.867,150.201c0,0.688,0,1.364,0,2.052c-0.275,0.137-0.55,0.275-0.825,0.413
	c-0.401-0.413-0.814-0.826-1.227-1.238c-0.138-0.264-0.275-0.539-0.413-0.825C392.228,150.476,393.042,150.338,393.867,150.201z
	 M342.577,104.242c0.058-5.548-1.146-8.93-3.279-11.899c0-0.562,0-1.101,0-1.64c0.55,0,1.089,0,1.64,0
	c3.061,3.657,9.171,5.17,11.487,9.423c5.033,0.092,5.376-2.155,6.981-5.331c10.616-0.011,12.897,13.654,15.992,20.933
	c1.823-0.562,0.837,0.298,1.639-1.238c1.754,1.032,2.568,5.824,2.465,8.621c-0.275,0.138-0.55,0.275-0.825,0.413
	c-6.305-7.371-11.395-15.969-18.87-22.16c-0.126,0-0.264,0-0.401,0c0.47,1.754,13.31,18.881,14.766,19.707
	c-0.975,1.548-11.418,2.603-14.766,2.453c-1.651-2.602-4.597-13.917-8.621-16.003C350.831,107.44,344.732,104.288,342.577,104.242z
	 M353.239,114.491c0,0.413,0,0.825,0,1.238c-1.101,0.722-1.513,1.089-2.041,2.465c-1.341-0.562-1.376-0.929-2.465-1.639
	c0-1.101,0-2.201,0-3.291c0.413-0.55,0.825-1.089,1.227-1.639C351.531,112.473,351.622,113.585,353.239,114.491z M340.938,127.215
	c-0.264,0.138-0.55,0.275-0.826,0.413c-2.453-0.814-6.901-4.494-8.208-6.558c-2.316-0.103-2.866-0.321-3.68,1.227
	c-0.413,0-0.825,0-1.238,0c0.275-2.866,0.55-5.743,0.825-8.621c2.74,0.275,5.468,0.55,8.197,0.814
	C339,116.921,340.984,121.908,340.938,127.215z M330.265,103.003c2.086,1.135,2.487,3.038,4.104,4.517c0,0.413,0,0.825,0,1.227
	c-0.539,0-1.089,0-1.64,0c-0.963-0.814-1.903-1.639-2.866-2.453C330.001,105.193,330.127,104.104,330.265,103.003z M287.184,68.944
	c0.424-1.513,0.825-3.015,1.238-4.517c3.026,0.184,2.843,0.791,5.331,1.227c0,1.88,0.068,2.419-0.826,3.29c0,0.413,0,0.825,0,1.227
	C289.843,70.182,289.063,69.655,287.184,68.944z M293.752,75.915c1.846,0.275,3.531,0.94,4.517,2.063
	c5.079-0.264,9.045-4.85,11.085-8.208c0.539,0,1.089,0,1.64,0c2.809,2.385,6.19,4.471,9.022,6.97
	c-1.938,1.582-6.11,2.74-7.383,4.918c-5.021-2.075-13.527-1.33-22.16-1.227C291.562,78.929,292.663,77.416,293.752,75.915z
	 M262.57,77.978c4.803-1.995,8.334-4.976,14.766-4.93c0.963,2.052,1.926,4.104,2.877,6.156c3.118,5.537,17.047,4.391,25.851,4.104
	c0.608,2.327,0.539,4.769,2.052,6.156c2.98,3.646,15.304,6.592,21.334,6.557c-0.665,3.382-2.683,4.827-3.291,8.22
	c-16.37-0.825-54.958-15.854-62.765-24.625c-0.413,0-0.825,0-1.227,0C262.307,79.067,262.433,78.517,262.57,77.978z M260.105,82.483
	c12.186,3.428,26.275,16.943,40.216,17.643c0,0.413,0,0.826,0,1.238c-9.813-0.539-22.871-3.554-29.543-8.208
	c-3.485-2.431-6.615-6.798-10.673-8.621C260.105,83.859,260.105,83.171,260.105,82.483z M280.213,100.126
	c10.776,5.491,26.207,2.694,37.751,7.395c3.668,1.49,6.81-0.287,9.435,1.639c0,0.138,0,0.275,0,0.413
	c-4.242,0.413-8.483,0.814-12.725,1.238c-0.951,2.041-1.915,4.093-2.866,6.145c-7.83-0.481-20.784-11.957-28.305-3.278
	c-5.652-0.585-6.981-6.764-10.673-9.435c-2.625-1.915-5.468,0.722-7.383-0.825c-1.674-0.906-4.333-4.54-5.342-6.156
	c-0.676,0-1.364,0-2.041,0c-0.023-7.406-3.129-8.438-4.104-13.539c-2.488-0.47-2.304-1.101-5.342-1.238
	c0.264-4.104,2.052-5.835,3.29-8.61c2.075,1.456,1.078,6.489,2.454,8.61C259.475,90.29,271.615,95.747,280.213,100.126z M252.322,87
	c-0.55,0.275-1.101,0.539-1.64,0.825c-0.275-0.825-0.562-1.639-0.825-2.464C251.106,85.865,251.427,86.22,252.322,87z
	 M248.217,89.052c-3.691,2.625-10.191-0.482-14.766,1.65c-1.903,0.872-6.019,1.869-8.208,3.279
	c-2.167,1.376-3.038,4.861-5.342,6.145c-0.126,2.385-0.321,3.279,1.238,4.116c0,0.401,0,0.826,0,1.227
	c-8.518-0.367-29.245-11.372-29.542,4.104c-0.413,0-0.826,0-1.227,0c-1.903-2.82-7.292-6.19-10.673-7.382c0-0.688,0-1.364,0-2.064
	c11.441-0.768,27.628-11.383,35.699-16.817c6.145-4.15,12.84-4.746,19.695-8.208c4.769-2.419,10.134-6.019,17.23-6.156
	c0,0.138,0,0.275,0,0.413C249.043,73.002,242.027,82.415,248.217,89.052z M183.389,107.521c0,0.413,0,0.825,0,1.227
	c-3.886,0.241-6.339,0.207-7.795-2.041c-0.894-0.894-0.883-1.777-0.814-3.703C178.024,104.196,180.511,106.053,183.389,107.521z
	 M173.542,99.312c2.418-5.893,32.42-18.893,41.854-18.881c0-0.413,0-0.814,0-1.227c0.688,0,1.364,0,2.052,0
	c0.138,0.275,0.275,0.539,0.413,0.814c-9.549,5.766-21.197,10.191-30.368,15.189c-3.565,1.938-9.515,0.573-11.487,4.104
	C175.181,99.312,174.367,99.312,173.542,99.312z M252.322,63.613c0,0.677,0,1.364,0,2.041c-3.485,0.114-4.414,1.593-6.569,2.464
	c-1.537,0.631-6.156-1.227-6.156-1.227c-4.219,4.792-38.312,14.456-45.546,17.643c-5.262,2.327-16.187,3.348-18.044,8.621
	c-0.413,0-0.825,0-1.227,0c0.264-4.654,0.539-9.297,0.814-13.952c16.818,0.367,21.083-4.735,26.264-15.591
	c1.662,0.527,3.76,1.8,4.505,3.279c8.185,0.012,17.448-6.213,20.521-11.487c1.673,0.963,1.891,3.107,3.278,4.104
	C234.461,62.593,245.764,63.659,252.322,63.613z M186.266,75.101c1.101-2.843,3.542-3.279,5.331-5.331c0.676,0,1.364,0,2.052,0
	c0.138,0.126,0.264,0.264,0.401,0.401c0,0.55,0,1.101,0,1.651c-1.548,0.733-3.416,1.284-4.505,3.279
	C188.444,75.101,187.355,75.101,186.266,75.101z M200.619,39.402c6.145-2.201,12.725-10.249,12.725-18.48
	c14.812,0.837,25.358-1.479,31.182-11.487c0.55,0,1.089,0,1.64,0c2.292,4.62,9.034,7.234,15.591,7.383c0,0.138,0,0.275,0,0.424
	c-8.22,9.664-28.992,18.262-39.792,26.665c-5.25,4.081-8.621,12.324-14.364,15.602c0,0.676,0,1.364,0,2.041c0.539,0,1.089,0,1.64,0
	c3.439-8.701,29.944-26.608,38.564-32.408c4.471-3.015,13.138-4.654,15.591-9.446c0.413,0,0.814,0,1.238,0
	c-0.31,6.615,1.021,10.57,1.215,16.829c-8.231,1.112-18.537,7.773-18.87,16.829c-3.542,0.16-6.707,1.685-9.022,3.278
	c-3.049,0.069-3.817-0.264-4.929-2.052c-1.112-1.146-0.963-4.219-0.814-6.569c-0.401,0-0.826,0-1.227,0
	c-0.275-0.264-0.55-0.539-0.826-0.826c-3.783,8.885-11.498,10.685-19.282,15.603c-7.188-0.046-4.23-5.617-8.208-8.208
	c-0.333-8.931,6.03-10.1,11.487-12.714c0-0.699,0-1.375,0-2.063c-2.58-0.195-4.827-0.424-5.744,1.238c-2.602,0-5.193,0-7.795,0
	C200.619,40.491,200.619,39.94,200.619,39.402z M199.393,48.836c0.138,0,0.275,0,0.401,0c3.646,9.641-0.184,16.668-6.145,19.282
	c-2.052,0.275-4.104,0.55-6.156,0.826c-2.121,1.513-3.737,4.161-6.156,5.331c0,0.688,0,1.364,0,2.063
	c-4.265-0.103-4.173-1.628-6.558-3.29c0-0.688,0-1.375,0-2.052c-1.651-0.229-1.536-0.264-2.465-0.825
	c-0.917,1.697-0.722,4.162,0.826,4.93c0.321,7.325-1.64,11.04-7.383,11.498c-0.115,3.485-0.883,3.68-1.238,6.558
	c-5.755,0.298-12.816-0.688-15.591,2.866c-0.825,0-1.639,0-2.465,0C151.886,81.692,183.045,52.757,199.393,48.836z M171.902,87.413
	c-2.579,13.677-11.819,17.85-25.438,13.952c2.729-7.016,11.957-3.806,17.643-2.465c0.413-4.895,2.958-8.093,4.517-11.487
	C169.712,87.413,170.801,87.413,171.902,87.413z M146.463,89.877c4.562-13.104,21.094-36.971,36.524-37.762c0-0.401,0-0.826,0-1.227
	c0.539,0.275,1.078,0.539,1.639,0.825c-9.08,8.186-18.652,13.184-24.212,21.334C157.515,77.29,150.109,88.812,146.463,89.877z
	 M180.924,32.42c0-3.141,0-6.294,0-9.435c2.51,0.264,6.145,0.241,9.847,0c0,0.676,0,1.364,0,2.052
	c-3.118,0.951-7.692,8.197-9.435,11.487c-0.55,0-1.089,0-1.64,0C179.56,34.151,179.365,33.257,180.924,32.42z M165.333,31.182
	c5.342-0.057,9.939-3.588,11.487-7.383c0.424,0,0.826,0,1.238,0c0.413,12.576-0.825,20.429-12.725,20.108
	C165.333,39.665,165.333,35.424,165.333,31.182z M151.806,62.375c2.992-4.265,5.159-12.003,5.331-18.468
	c2.063,0.55,5.354,2.545,6.156,2.877c9.263,3.875,21.862-8.266,23.788-12.312c0.55,0,1.089,0,1.651,0
	c-0.138,4.631,2.201,8.896,6.145,9.435c-1.765,3.072-17.242,5.457-20.921,8.208c-11.705,8.77-20.784,15.327-27.078,28.316
	c-2.063-1.364-0.436-4.746-2.453-6.156C144.515,65.414,148.47,67.122,151.806,62.375z M143.598,94.795c0.688,0,1.364,0,2.052,0
	c0.138,0.275,0.275,0.55,0.413,0.826c0,0.126,0,0.264,0,0.401c-0.825,0-1.639,0-2.464,0
	C143.598,95.621,143.598,95.208,143.598,94.795z M142.359,103.003c4.093,1.318,12.209,6.076,18.87,2.465
	c2.74-1.479,4.62-3.875,8.621-4.517c0.091,5.331,2.637,7.05,5.331,10.26c0,0.138,0,0.275,0,0.413
	c-14.513,0.229-45.214,9.492-49.226,16.829c-2.534-0.103-2.534-0.252-3.291-2.052c-1.731-0.963-2.155-3.852-2.052-6.569
	C129.165,118.927,140.043,110.226,142.359,103.003z M156.311,117.781c-0.275,1.204-0.688,1.101-1.227,0
	C155.485,117.781,155.91,117.781,156.311,117.781z M154.259,119.432c0,0.126,0,0.264,0,0.401c-0.275,0.138-0.55,0.275-0.814,0.413
	c-0.55,0-1.101,0-1.639,0c0-0.413,0-0.826,0-1.238c0.676,0,1.364,0,2.041,0C153.984,119.145,154.122,119.294,154.259,119.432z
	 M120.612,65.654c7.555-0.149,7.521,2.683,10.673,4.115c0.023,5.239-1.754,5.434-2.052,9.848c-3.393,1.295-4.368,2.98-9.847,2.866
	c-0.241-2.591-2.144-8.38-4.104-9.435C116.061,68.646,118.881,68.578,120.612,65.654z M115.282,85.361c0.275,0,0.55,0,0.825,0
	c0.802,0.917,0.355,0.768,0.814,2.052c-0.539,0.126-1.089,0.275-1.639,0.413C115.282,87,115.282,86.186,115.282,85.361z
	 M111.59,101.364c-1.777,6.569-3.554,13.126-5.331,19.707c-2.338,4.757-7.532,9.217-8.621,14.766c-1.089,0-2.19,0-3.279,0
	c0.642-3.852,3.565-5.182,5.331-7.795c3.52-5.216,10.008-19.729,10.26-27.089C110.501,101.089,111.04,101.227,111.59,101.364z
	 M96.412,102.19c4.93-3.199,11.544-11.005,12.714-17.655c0.413,0,0.825,0,1.238,0c-0.47,12.141-4.494,25.691-9.446,34.472
	c-2.178,3.886-6.523,7.864-7.383,12.725c-0.676,0-1.364,0-2.041,0c-0.172-6.512,3.783-12.141,8.197-13.952
	c-0.378-1.857,0.058-1.215-1.227-2.052c-0.275-0.275-0.55-0.55-0.825-0.825c-4.758,6.007-11.109,11.762-22.148,11.498
	c0-1.101,0-2.189,0-3.29c1.915,0.458,3.794,1.536,5.331,0c4.815-2.809,3.875-16.382,7.383-18.87
	C89.786,102.006,94.107,103.68,96.412,102.19z M82.873,85.361c3.336,1.501,4.276,4.597,8.621,5.342
	c-0.883,3.05-2.041,4.689-2.063,8.61c-2.465-0.264-3.359-0.963-4.918-2.052c-0.55,1.318-2.384,17.471-2.465,18.468
	c-1.227-0.527-0.493,0.012-1.227-0.825C76.854,110.478,82.609,90.003,82.873,85.361z M65.643,123.524
	c-0.779-2.224-1.731-4.345-3.703-5.331c0-0.55,0-1.101,0-1.639c13.229-3.611,5.801-17.093,5.342-27.915
	c4.838-0.344,7.635-2.751,11.9-3.278c-0.161,10.352-2.109,21.174-2.052,33.646c-1.501-0.275-3.003-0.539-4.517-0.814
	c-0.608,1.571-0.906,3.531-0.826,6.156C68.795,123.329,68.245,121.816,65.643,123.524z M46.349,144.858
	c1.605,0.562,4.918,1.823,5.744,3.29c4.035,0.218,6.787-0.493,7.807-3.29c1.594,1.021,0.86,2.27,2.454,3.29
	c-0.115,2.74-0.562,2.74-1.227,4.517c-2.729,0.275-5.468,0.539-8.208,0.814c0.413,4.161,1.96,7.967,2.052,12.725
	c-5.812-3.141-7.784-11.281-13.539-14.777C43.024,148.665,45.73,148.905,46.349,144.858z M48.412,176.465
	c-1.616-2.935-5.686-4.574-6.981-7.395c0-2.315,0-4.643,0-6.97c-0.848-2.052-2.51-5.628-3.279-7.795c0.814,0,1.639,0,2.453,0
	c0.757,1.433,12.622,16.371,13.55,16.829c-0.149,3.325-0.952,3.279-2.063,5.331C50.866,176.465,49.639,176.465,48.412,176.465z
	 M61.126,193.294c-3.417-3.417-6.833-6.844-10.26-10.26c0-0.55,0-1.101,0-1.64c0.688,0,1.364,0,2.052,0
	c0.654-3.497,2.797-3.771,4.104-6.167c3.301-6.042,0.928-12.06,0.813-18.87c10.306-1.651,13.126-15.66,12.725-28.316
	c2.419,0.333,3.439,1.238,4.104,3.279c0.677-0.688,1.364-1.364,2.041-2.052c2.201,0,4.379,0,6.58,0
	C75.536,149.226,60.667,164.726,61.126,193.294z M81.233,188.777c-1.926,4.219-8.162,4.826-10.673,8.621c-0.413,0-0.814,0-1.238,0
	c0.16-16.336,3.416-39.161,9.446-50.476c2.27-4.265,7.302-9.32,8.208-14.364c1.433,0.814,3.164,4.551,3.691,6.156
	c0.688,0,1.364,0,2.052,0c-0.447,5.296-4.597,7.944-6.568,11.888c-1.8,3.611-0.126,7.016,0,11.085
	c2.499,1.009,3.852,3.084,6.568,4.104C92.113,169.059,74.16,184.283,81.233,188.777z M88.616,187.138
	c-0.137-0.55-0.275-1.101-0.413-1.64c2.362-1.158,5.193-3.118,6.569-5.342c0.826,0.802,0.447,0.149,0.826,1.639
	C93.259,183.572,90.932,185.361,88.616,187.138z M112.404,164.966c-9.366,6.293-18.537,13.585-27.892,20.108
	c-0.138,0-0.275,0-0.401,0c0.333-5.468,10.811-17.333,14.353-19.283c0-0.539,0-1.089,0-1.639c-6.707-0.138-9.492-2.132-9.435-9.435
	c0-1.513,0-3.015,0-4.517c3.45-6.638,11.177-11.257,14.765-17.643c6.122-10.925,11.476-29.004,12.714-43.918
	c3.416,1.651,2.832,6.615,7.383,8.208c-0.333,3.083-12.037,25.759-4.104,30.368c-3.278,6.924-11.2,7.991-12.702,18.067
	c-3.68,0.825-3.405,3.439-7.395,4.093c-0.275,0.55-0.55,1.101-0.814,1.651c0.814,0.733,0.298-0.012,0.814,1.227
	c5.468-0.436,6.466-4.402,11.487-5.331c-0.057-17.196,26.883-19.924,38.164-27.089c0.539,0,1.089,0,1.64,0
	c-2.27,4.62-21.151,10.65-25.439,17.242c-2.786,2.487-0.183,8.575-0.825,11.888c2.58,1.192,4.185,2.923,7.394,4.104
	c0.126,0.275,0.264,0.55,0.401,0.837C127.674,159.36,118.457,160.908,112.404,164.966z M128.832,149.375
	c-0.287-1.938-0.872-3.13-2.063-4.093c-0.229-15.258,24.051-20.887,35.699-25.45c5.319-2.075,11.613-0.63,15.992-3.278
	c0.287,0.275,0.55,0.539,0.825,0.814c-1.41,1.696-3.531,4.929-5.331,6.156c0.126,5.744,1.903,5.102,2.052,10.26
	c-7.944,0.172-13.607-0.584-18.87,2.052c-1.02,0.504-1.272,3.302-3.29,4.104c0.848,1.754,1.8,2.912,1.639,6.981
	c-1.857,0.814-5.605-0.986-6.557-0.413C143.059,149.949,136.879,150.27,128.832,149.375z M106.259,212.164c0,0.275,0,0.562,0,0.825
	c-2.396-0.711-5.044-8.277-2.465-10.673c0.688-0.676,1.364-1.376,2.052-2.052c3.279,0,6.557,0,9.848,0
	C114.227,204.127,109.618,210.02,106.259,212.164z M118.973,196.572c-0.539-0.55-1.089-1.089-1.64-1.639
	c-0.229-10.432,10.742-17.758,20.922-17.643c0-0.413,0-0.825,0-1.238c0.424,0,0.825,0,1.238,0
	C137.797,181.75,123.41,192.961,118.973,196.572z M120.612,204.379c1.009-0.619,30.953-31.904,31.193-32.432
	c0.676,0,1.364,0,2.041,0c0.138,0.275,0.275,0.55,0.413,0.826c-2.098,2.614-5.491,10.742-2.052,15.602
	c-4.265,3.634-11.441,3.336-15.992,5.744c-1.812,0.94-3.394,5.824-4.93,7.784c2.006,2.464,1.938,3.726,5.331,4.929
	c0,0.138,0,0.275,0,0.413c-0.974,0.791-0.676,0.241-1.227,1.64c-5.525,0.034-10.891-0.539-14.777-1.227
	C120.612,206.558,120.612,205.468,120.612,204.379z M112.003,217.907c0.539,0.138,1.101,0.275,1.639,0.413c0,0.149,0,0.287,0,0.413
	c-0.814,0.813-1.639,1.65-2.465,2.464c-0.413,0-0.814,0-1.227,0C110.639,220.108,111.327,219.007,112.003,217.907z M105.847,227.353
	c5.033-2.063,7.062-7.039,13.539-7.383c0-0.963,0-1.926,0-2.877c-1.96-0.894-2.694-1.8-5.342-2.052
	c0.906-2.006,2.338-3.096,3.29-5.342c4.139,0.126,12.473,5.445,18.881,2.063c2.109-1.124,5.331-2.797,8.208-3.279
	c0-0.963,0-1.926,0-2.877c-3.164-0.688-6.305-1.364-9.446-2.063c0.986-8.117,12.702-11.98,20.933-12.713
	c-0.413-3.921-1.88-3.13-2.063-7.395c4.299-0.596,6.443-2.063,11.487-2.041c-0.39-1.915-0.642-2.075-2.041-2.877
	c2.167-3.76,7.944-2.292,9.423-6.97c-3.141-1.777-6.282-3.565-9.423-5.342c0-0.55,0-1.101,0-1.64
	c3.198-1.846,4.253-6.397,7.383-8.208c0-0.275,0-0.55,0-0.814c-1.227-0.539-0.504,0.011-1.238-0.826
	c-6.718,1.25-8.162,7.406-16.405,7.383c-0.138-2.189-0.287-4.379-0.413-6.557c-0.952,0-1.915,0-2.877,0
	c0.47,1.697,0.745,2.396-0.814,3.279c0.298,1.501,1.078,3.978,2.052,4.918c1.089,0.55,2.189,1.089,3.278,1.651
	c-2.694,3.301-6.936,8.541-12.713,9.022c-0.516-2.809-4.207-6.431-6.569-7.383c-0.011-12.53,12.14-17.253,26.252-16.829
	c-1.089-2.189-2.178-4.379-3.279-6.569c-0.034-3.187,0.504-4.23,1.238-6.156c10.157-0.023,19.03-1.49,27.078-2.052
	c0-0.55,0-1.089,0-1.64c-6.362-0.367-9.767-2.671-9.446-9.847c5.147-2.866,8.014-7.463,16.417-7.383
	c0.94,0.837,1.169,1.009,1.639,2.453c0.963,0,1.915,0,2.877,0c-0.367-2.006,0.298-1.227-1.238-2.052
	c0.046-4.253,3.966-6.133,7.383-6.569c0-0.539,0-1.089,0-1.639c-2.006-0.355-1.227,0.31-2.041-1.227
	c-1.663,0.94-3.05,1.341-6.168,1.227c0.012-1.857-0.057-2.407,0.826-3.279c3.106-4.837,25.29,3.52,26.677,4.918
	c0.813,0,1.639,0,2.453,0c-0.55-2.407-4.379-7.027-2.866-10.26c3.955-8.506,23.467-4.322,30.77-8.609
	c1.398,1.617,2.556,6.248,2.877,8.609c2.167,0.746,4.127,1.078,5.331,2.877c1.009,1.021,0.952,3.176,0.814,5.342
	c3.141-0.275,6.294-0.55,9.446-0.825c3.955,4.104,7.921,8.208,11.888,12.312c1.135-2.201,1.307-4,3.279-5.342
	c5.021-4.494,23.26,6.007,26.275,7.394c1.215-2.648,2.144-3.886,2.041-8.208c2.877,0,5.743,0,8.621,0c0,4.792,0,9.572,0,14.364
	c2.786-0.608,3.829-2.545,6.145-2.866c7.601-1.078,3.45,7.727,7.394,10.249c0.527,1.227-0.011,0.504,0.814,1.238
	c0.688-2.189,1.375-4.379,2.052-6.569c1.353,0.55,1.375,0.917,2.464,1.64c0.275,2.602,0.55,5.205,0.826,7.807
	c0.952,0,1.915,0,2.866,0c-0.069-5.548-0.252-11.819,1.238-15.602c1.215-0.481,1.375-0.7,3.279-0.826
	c0.183,5.399,2.35,9.676,3.279,14.364c24.452-1.341,10.73,7.601,21.735,17.643c0.149,0.424,0.287,0.826,0.424,1.238
	c1.433-1.743,0.906-2.511,1.639-5.331c8.438-3.428,16.978,3.726,17.643,10.661c0.952,0,1.915,0,2.866,0
	c-0.654-7.704-2.843-14.421,0-22.148c2.74-0.114,3.657,0.023,4.929,1.227c0.837-0.826,0.31-0.665,1.64-1.227
	c-0.138-0.287-0.275-0.562-0.413-0.825c0,0-11.796-6.397-11.487-17.242c5.021-0.917,15.155,7.853,18.457,11.085
	c0.138,0,0.275,0,0.424,0c-0.298-8.678-12.932-11.303-12.725-24.625c0.275-0.138,0.539-0.287,0.814-0.413
	c4.104-0.195,6.076,1.261,6.981,4.104c1.64,0,3.279,0,4.93,0c0-0.688,0-1.375,0-2.052c6.454,0.069,7.417,2.5,12.702,2.877
	c-0.081-2.843-1.915-5.101-3.279-5.743c-0.058-4.551,0.986-5.136,2.063-7.807c2.591,0,5.193,0,7.784,0
	c0.836,5.113,4.012,6.81,4.115,12.725c-4.895-0.057-14.88,10.134-10.684,14.364c-0.654,1.8-0.218,1.433-2.454,1.64
	c-3.852-3.268-5.571-6.97-9.435-10.673c-0.837,0.826-0.31,0.677-1.64,1.238c4.093,15.763-0.275,17.631-7.383,28.316
	c-0.275,0.138-0.55,0.275-0.825,0.413c3.256,1.456,5.434,3.68,8.208,5.331c0.081,10.891-0.688,17.757-4.104,24.212
	c-0.275,0.275-0.55,0.55-0.814,0.825c1.284,0.527,9.412,2.144,10.249,2.866c0.688,0.413,1.375,0.825,2.052,1.238
	c0,1.903,0,3.817,0,5.744c-2.992,1.57-5.87,3.92-9.435,4.918c-0.275,0.55-0.55,1.101-0.826,1.639
	c1.938,1.364,1.926,2.809,4.918,3.29c0.149,1.64,0.287,3.279,0.424,4.918c-3.634,4.322-10.386,9.056-16.829,10.26
	c0,0.137,0,0.275,0,0.413c17.551,9.767,0.894,16.634-1.227,25.45c-0.264,0.631-0.745,0.481,0,0.826c0,0,13.998-3.932,15.992-5.342
	c11.602,1.135-1.995,12.14-5.319,13.952c0.883,2.706,6.913,4.127,9.423,4.918c-1.284,1.995-5.651,1.697-7.383,3.29
	c-1.616,0.768,0.252,2.362,2.052,2.866c-0.035,6.821-5.067,10.18-11.487,10.673c0.584,1.777,2.671,3.256,4.104,4.116
	c-0.413,1.501-0.814,3.003-1.238,4.505c-3.68,1.639-7.383,3.278-11.062,4.918c0.642,1.995,1.101,1.375,2.041,2.877
	c3.003-0.081,1.995-0.321,3.279-1.238c5.583-0.436,10.249-1.124,10.271,4.528c0.539,0,1.078,0,1.64,0
	c1.777-2.189,3.542-4.379,5.319-6.569c1.514,0.138,3.027,0.264,4.528,0.401c0.94,2.361,0.952,5.869,0,8.22c0.275,0,0.539,0,0.814,0
	c1.731,1.639,7.119,0.126,10.673,0c0.275,0.264,0.539,0.539,0.813,0.825c-1.123,10.776-13.63,4.494-20.921,7.784
	c-2.774,1.261-6.42,3.313-9.435,4.104c-0.539,1.227,0.012,0.504-0.825,1.238c2.018,1.146,8.346,0.814,10.26,2.454
	c0.676,0.424,1.375,0.825,2.052,1.238c0.31,12.806-8.288,16.004-16.405,20.108c0.745,2.923,1.949,2.694,2.041,6.569
	c-2.212,2.603-5.973,5.01-7.383,8.208c-4.654,0.218-11.005,0.917-12.725-2.052c-1.479,0.401-0.825-0.035-1.639,0.825
	c-5.663,3.737-3.863,13.081-14.766,13.539c0,0.126,0,0.264,0,0.401c4.036,3.324,5.113,8.266,2.052,13.138
	c-22.378-2.075-50.935,1.227-59.498,15.591c-3.026,0.149-9.045,0.711-10.661-0.814c-0.413-0.138-0.826-0.275-1.238-0.413
	c0.413-2.729,0.825-5.468,1.238-8.208c-8.988,0.951-22.412,17.585-28.316,3.278c-0.539,0-1.089,0-1.639,0
	c-1.697,7.245-1.421,17.827-7.383,20.933c-2.809,3.027-7.841,1.33-9.848-1.227c-0.539,0.401-1.089,0.814-1.639,1.227
	c0.207,2.969,1.444,11.12,3.279,13.138c0,3.279,0,6.558,0,9.848c-4.127-1.72-18.021-19.787-20.096-24.212c0-3.428,0-6.844,0-10.26
	c-1.33-3.313-1.628-11.533-2.052-15.591c-2.797,0.355-5.25,1.823-6.156,4.104c-10.501-0.596-4.265-20.119-9.435-26.275
	c-0.482-1.215-0.998-0.103-2.877,0c0,0.826,0,1.651,0,2.465c-1.731,0.607-2.477,1.41-3.279,2.877c-2.465,0-4.93,0-7.395,0
	c-1.8-3.038-6.442-9.584-9.423-11.499c-0.137-0.264-0.275-0.539-0.413-0.814c-0.149,0-0.275,0-0.413,0
	c0.184,6.466,2.098,10.582,2.052,18.056c1.834-0.55,2.155-1.387,2.878-2.877c1.227,0.539,0.481-0.012,1.227,0.825
	c1.708,1.112,1.869,3.141,3.278,4.517c0,0.401,0,0.814,0,1.227c-5.537-0.493-9.572-3.542-13.951-5.331
	c-3.691-1.524-9.642,1.479-12.301-0.825c-0.413-0.138-0.825-0.275-1.227-0.413c0-0.952,0-1.915,0-2.866c-0.963,0-1.926,0-2.877,0
	c-0.218,2.132-0.481,2.258-1.639,3.279c-2.637-2.545-3.646-8.621-7.795-9.435c1.742,6.752-3.13,11.223-4.104,16.829
	c-1.101,0.275-2.19,0.539-3.279,0.814c0.057-9.034,3.554-11.785,4.104-18.881c-5.056,0.126-6.374,0.676-11.487,0
	c-0.562-2.958-1.8-5.961-2.063-9.435c4.803-0.871,5.881-4.62,9.446-6.569c-0.504-1.938-1.571-3.026-3.279-3.691
	c0.08-14.812,11.51-17.116,14.766-27.903c-2.877,0.264-5.755,0.539-8.621,0.814c0-0.275,0-0.55,0-0.814
	c-4.15-5.102,5.927-18.766,1.238-24.212c-0.527,0.872-1.88,0.757-2.877,2.041c-2.832-0.309-13.872-16.256-14.777-18.87
	c-0.677,0-1.353,0-2.041,0c1.284,3.348,2.797,7.005,4.505,10.673c-0.401,2.453-0.814,4.918-1.227,7.383
	c-1.479,0.527-3.187,1.754-4.104,2.877c-3.152,0-6.293,0-9.435,0c0.527,2.912,5.95,9.297,3.278,15.179
	c-1.261,2.763-2.866,3.875-3.278,6.97c-1.64,0.275-1.227-0.023-2.064,0.826c-2.052,0.264-3.175,10.398-2.866,12.312
	c-1.284,0.78-1.812,0.952-2.453,2.465c-8.289-0.963-9.412-11.177-9.446-20.108c-2.316-0.367-1.491-0.172-4.505,0
	c-0.677-2.74-1.376-5.479-2.052-8.208c-0.963-0.275-1.915-0.55-2.866-0.814c-0.138,6.156-1.571,13.688-6.168,15.591
	c0,0.275,0,0.539,0,0.814c-0.401,0-0.814,0-1.227,0c-0.011-11.682,2.212-19.225,5.331-27.49c0.688,0,1.376,0,2.064,0
	c0.607,3.588,3.68,10.535,6.145,12.725c1.341,1.433,3.909,1.524,5.342,2.866c2.843,1.88,3.76,11.521,4.092,15.603
	c0.149,0,0.287,0,0.413,0c3.531-8.954-1.571-19.821-1.64-28.729c0.275-0.137,0.55-0.275,0.814-0.413
	c2.797,0.849,2.751,2.866,4.93,4.093c-0.058,3.084-1.983,6.19-3.291,6.981c0,1.238,0,2.465,0,3.703c0.287,0,0.562,0,0.826,0
	c0.665-2.431,6.557-10.398,5.342-11.086c-0.826-1.479-4.001-4.23-5.342-5.342c0.229-11.131,9.137-12.793,11.487-21.747
	c-12.782,0.413-11.957-12.793-11.487-25.025c-2.637,1.089-4.517,2.052-8.208,2.041C105.296,231.732,105.583,229.543,105.847,227.353
	z M155.084,180.569c0.47-5.216,2.729-7.991,4.104-11.9c3.267,0.207,1.456,1.204,5.331,1.227c0.481,1.33,0.573,1.112,1.238,2.052
	c-3.462,2.224-5.87,5.744-7.395,8.621C157.274,180.569,156.173,180.569,155.084,180.569z M378.276,392.744
	c0.401,0.137,0.814,0.264,1.227,0.401c0,0.688,0,1.376,0,2.063c-6.019,0.138-12.037,0.264-18.056,0.401
	c-1.192-6.958-9.274-13.825-14.766-16.829c0.745-1.444-0.241-0.504,1.238-1.227c0.722-1.548,2.511-2.43,6.145-2.453
	C369.632,374.952,370.492,385.51,378.276,392.744z M371.707,376.74c1.066-3.978,8.036-10.249,12.725-10.684c0-0.401,0-0.814,0-1.227
	c0.401,0.275,0.825,0.55,1.227,0.826c-3.68,3.886-10.363,5.973-12.725,11.085C372.533,376.74,372.12,376.74,371.707,376.74z
	 M400.424,382.483c2.98,3.897-0.539,11.911-1.639,15.178c-0.275,0.275-0.539,0.55-0.814,0.825c-2.006-0.55-4.379-0.894-7.395-0.825
	c-0.562-1.387-0.229-0.86-1.215-1.64c0.836-3.324,2.189-6.672-0.826-9.033c-1.811-1.72-4.849-1.892-6.58-3.691
	c2.419-2.832,5.376-3.084,7.807-5.744c1.64,0.275,3.279,0.55,4.918,0.825c0.826,2.465,1.64,4.918,2.465,7.383
	c0.539,0,1.101,0,1.64,0c0.367-2.018-0.298-1.238,1.238-2.052C400.195,382.644,399.633,383.492,400.424,382.483z M385.659,387.803
	c0,0.286,0,0.562,0,0.825c0.94,1.192,0.94,3.439,0.825,5.755c-1.1,0-2.189,0-3.29,0c-0.539-2.969-1.742-3.244-2.052-6.58
	C382.655,387.803,384.157,387.803,385.659,387.803z M400.023,401.353c2.854,1.387,6.775,3.428,10.249,4.104
	c0.137,0.55,0.275,1.089,0.413,1.651c-25.037-2.832-44.824,4.562-61.539,13.527c-2.052,0.275-4.104,0.562-6.156,0.825
	c-8.563,4.024-18.858,7.028-27.49,10.673c-2.041,0.275-4.104,0.55-6.145,0.825c-6.855,3.474-17.608,7.257-27.089,7.383
	c-0.126-0.275-0.264-0.539-0.401-0.825c5.652-4.838,12.748-7.44,18.87-11.9c8.048-5.858,16.359-15.912,25.427-20.108
	c10.902-5.044,29.99-8.242,44.732-8.208c0-0.413,0-0.814,0-1.227C379.583,398.12,393.752,398.338,400.023,401.353z M412.737,410.788
	c-1.215,3.027-3.394,4.402-5.331,6.569c-1.777-0.264-3.554-0.539-5.342-0.825c0.94-4.689,3.141-4.712,5.342-7.784
	C409.183,409.423,410.959,410.111,412.737,410.788z M368.428,415.717c0.138-0.264,0.275-0.55,0.401-0.826
	c4.872-1.65,10.455-3.726,15.603-4.104c1.066,5.893,4.081,13.482,6.569,18.893c1.938,4.208,0.436,11.166,2.041,14.766
	c3.691,8.243-5.525,34.151-6.558,39.814c-3.668-1.433-6.523-6.787-11.487-7.395c-0.034-6.167-0.917-26.229,1.215-33.245
	C375.719,443.024,368.646,416.795,368.428,415.717z M360.633,433.773c0,0.688,0,1.364,0,2.052
	c-15.316,4.448-51.198,9.652-68.107,6.569c2.441-4.345,10.959-3.015,15.591-5.331c4.024-2.029,23.581-10.1,29.542-8.208
	C344.458,431.01,352.322,433.475,360.633,433.773z M341.351,425.978c5.125-3.164,19.282-8.632,24.613-8.621
	c0.917,5.709,4.184,6.97,4.104,14.364c-4.861,1.376-25.003-2.614-27.491-4.918C342.176,426.528,341.752,426.252,341.351,425.978z
	 M327.812,444.446c2.545-1.777,39.883-7.256,43.082-7.383c0.803,4.528,1.341,14.491,3.279,18.87
	c0.906,2.041-1.204,13.424-1.238,17.643c-7.004-0.183-9.492-4.494-13.952-7.383c-7.096-4.597-33.727-18.468-43.482-19.695
	C316.978,442.589,324.556,446.727,327.812,444.446z M388.536,411.212c1.284-2.58,4.517-2.74,8.609-2.465
	c-0.401,2.603-0.825,5.205-1.227,7.784c-0.688,0-1.375,0-2.052,0C393.019,415.144,391.139,412.049,388.536,411.212z M269.552,441.58
	c0.069-16.99,38.026-19.626,41.843-41.053c-0.676,0-1.364,0-2.041,0c0,0.826,0,1.64,0,2.465c-5.033,2.923-7.75,10.054-12.324,13.539
	c-4.86,3.737-11.257,4.918-16.405,8.22c-0.699-1.445,7.738-17.54,9.848-20.119c2.224-2.706,2.476-6.982,4.918-9.424
	c12.049-12.105,28.9-26.642,52.528-22.985c0,0.401,0,0.814,0,1.227c-12.645,7.268-15.923,21.289-24.625,32.42
	C315.969,415.247,282.323,437.843,269.552,441.58z M281.44,439.929c-0.264,0.55-0.539,1.089-0.814,1.651
	c-0.275-0.562-0.55-1.101-0.825-1.651C280.351,439.929,280.901,439.929,281.44,439.929z M252.322,467.431
	c-0.872,5.893-6.959,6.339-12.312,7.383c-0.275-0.138-0.55-0.275-0.814-0.401c1.169-6.466,5.48-11.361,6.558-16.428
	c1.559,0.527,3.531,1.731,4.517,2.877c3.588-0.229,11.613-3.657,13.126-6.156c3.107,0.264,4.23,2.499,4.517,5.342
	c-4.792,0.814-12.175,2.866-17.643,3.279C250.728,464.749,250.98,466.663,252.322,467.431z M253.961,440.342
	c-0.757-4.288-3.061-7.91-3.279-12.725c5.205,0.642,5.595,4.185,9.022,6.156C259.968,438.508,257.904,440.09,253.961,440.342z
	 M258.466,444.446c-0.149,6.581-3.382,8.529-5.331,12.725c-0.676,0-1.364,0-2.052,0c-0.138-0.275-0.264-0.55-0.401-0.825
	c0.023-6.707,3.817-7.669,6.145-11.9C257.377,444.446,257.927,444.446,258.466,444.446z M258.065,427.617
	c0.676-12.106,23.26-25.748,31.996-31.595c1.719,0.631,1.02-0.08,1.639,1.64c-1.032,0.871-14.892,25.209-15.58,27.089
	C269.323,424.946,264.003,427.112,258.065,427.617z M258.065,417.77c3.141-3.691,6.282-7.383,9.435-11.074c0.413,0,0.814,0,1.227,0
	c-1.582,4.379-6.454,9.091-9.836,11.899C258.604,418.319,258.329,418.044,258.065,417.77z M259.705,409.974
	c-2.58,3.737-4.838,7.761-8.208,10.662c-0.275-0.126-0.55-0.264-0.814-0.401c-1.456-3.829-2.132-9.263-2.063-13.963
	c0.138-0.264,0.287-0.539,0.424-0.814c9.435-3.187,14.903-7.841,15.167-19.695c2.511,0.527,6.5,3.932,10.673,2.041
	c4.046-1.812,7.279-5.549,12.725-6.145c1.009,5.572,5.549,4.689,7.383,8.621C286.002,391.712,263.992,403.772,259.705,409.974z
	 M250.27,435c0.264,1.64-0.035,1.227,0.814,2.063c0,2.454,0,4.918,0,7.383c-2.717-1.375-2.74-5.136-2.465-9.446
	C249.18,435,249.719,435,250.27,435z M262.169,439.104c0.539,0,1.089,0,1.64,0c-0.081,2.843-0.046,3.382,2.041,4.116
	c-1.307,3.863-2.063,8.266-4.918,10.662C259.349,451.565,261.986,443.437,262.169,439.104z M266.674,434.186
	c-2.499-0.355-3.382-1.204-5.331-2.052c0.539-1.227-0.023-0.481,0.825-1.238c0.711-1.364,1.158-1.009,2.041-2.041
	c2.327,0,4.655,0,6.982,0c0,0.138,0,0.275,0,0.401C269.907,430.987,267.649,432.432,266.674,434.186z M350.373,391.505
	c-1.662,1.571-7.967,0.975-11.074,0.825c-0.688-1.307-0.596-1.433-2.052-2.052c0.218-5.629,3.405-6.546,5.743-9.859
	c4.551,0.94,5.996,3.886,9.435,5.342C352.585,389.109,352.31,390.302,350.373,391.505z M354.064,390.279
	c0.275-0.138,0.55-0.275,0.826-0.413c1.227,1.639,2.453,3.278,3.691,4.918c-1.834,5.95-22.297,4.62-27.078,9.034
	c-0.814,0-1.639,0-2.465,0c1.651-3.829,3.291-7.658,4.93-11.487c0.676-0.137,1.364-0.287,2.041-0.413
	c1.789,1.41,2.786,2.075,2.877,5.331c0.55,0,1.101,0,1.64,0c0-0.677,0-1.364,0-2.041c3.565,0,7.107,0,10.673,0
	C350.843,393.512,353.514,392.824,354.064,390.279z M163.292,430.082c0.768,2.247-1.903,2.912-4.104,2.877c0-0.688,0-1.364,0-2.063
	c-7.429-0.172-13.986-3.164-20.108-5.319c2.797-5.548,47.346-3.439,55.795-3.302C194.795,422.435,168.142,430.185,163.292,430.082z
	 M232.626,433.36c-3.829,0.55-7.658,1.101-11.487,1.639c-7.234,3.405-16.84,4.23-24.212,7.395
	c-2.534,1.089-14.49,0.539-14.364,2.052c-3.256,1.571-22.676,0.229-22.974,2.052c-6.833,0-13.665,0-20.509,0
	c2.625-4.322,35.917-15.351,43.082-18.881c3.095-1.513,7.795,0,10.249-2.041C209.905,425.565,221.334,427.411,232.626,433.36z
	 M158.363,433.773c-1.181,2.809-16.451,8.701-21.334,9.848c-0.631-4.918,0.367-9.229,1.227-13.94
	C147.576,429.726,152.711,432.649,158.363,433.773z M178.883,447.323c0.126,0.275,0.264,0.539,0.401,0.814
	c-7.44,6.592-14.731,10.833-21.735,16.015c-3.565,3.817-7.119,7.658-10.673,11.487c-3.474,2.121-8.047,4.609-9.435,8.621
	c-0.826,0-1.64,0-2.465,0c-1.272-10.272-0.069-23.26,0-33.658C149.41,450.476,163.992,447.254,178.883,447.323z M152.62,472.349
	c7.624-7.314,16.382-14.789,25.026-20.922c7.681-5.457,23.639-7.165,32.409-11.498c3.749-1.846,14.124-0.573,16.829-2.866
	c2.189,0.275,4.368,0.539,6.568,0.814c-0.332,0.676-26.184,11.957-29.141,13.952c-7.715,5.216-15.373,15.041-22.974,19.707
	c-15.132,9.297-25.53,16.737-44.308,22.16c-0.275-1.915-0.55-3.84-0.814-5.755C143.54,484.696,147.208,477.554,152.62,472.349z
	 M182.162,474.413c3.336-2.201,6.099-6.707,9.022-9.446c7.051-6.603,16.761-12.564,25.038-17.643
	c2.877-1.765,22.148-4.975,22.974-6.156c1.777,0.677,1.204,0.012,1.639,2.052c-8.174,3.394-25.301,21.678-27.078,31.193
	c-8.586,2.293-14.135,5.526-17.643,12.713c-1.651-0.367-6.97-2.705-7.807-4.104c-5.193,1.021-8.346,5.824-14.765,6.156
	c-0.184-2.774-1.032-4.987-2.866-6.156C172.819,479.125,178.391,476.877,182.162,474.413z M239.195,439.104
	c0.814-1.501,0.998-1.261,3.279-1.227c0-0.539,0-1.089,0-1.639c-5.205-1.112-10.375-6.133-14.766-8.621
	c-6.993-3.943-15.018-4.161-21.747-8.208c-3.565-2.121-5.663-5.812-11.086-6.156c0,0.138,0,0.275,0,0.413
	c3.577,2.419,9.24,5.182,14.766,8.208c-0.126,0.275-0.264,0.55-0.401,0.825c-10.077-1.846-52.654-8.025-61.951-2.063
	c-2.328,0-4.655,0-6.97,0c2.155-6.133,2.602-12.622,5.743-17.23c5.044,0.046,11.728,1.25,19.271,1.227c0,0.699,0,1.375,0,2.063
	c6.328-3.52,19.535-1.846,26.264,0.813c4.975,1.972,9.583,0.539,14.766,3.279c6.465,3.451,13.057,7.027,18.881,10.673
	c3.405,0.963,6.833,1.915,10.249,2.877c3.897,2.671,6.614,8.518,10.673,10.662c0,1.64,0,3.29,0,4.93
	c-0.138,0.137-0.275,0.275-0.413,0.413C243.013,439.906,242.634,439.149,239.195,439.104z M167.396,364.015c0-0.413,0-0.825,0-1.238
	c41.603-0.172,52.104,38.932,74.252,58.684c0,1.777,0,3.554,0,5.342c-12.347-4.551-14.972-20.429-24.2-21.758
	c2.453,2.946,5.25,7.967,8.621,9.847c0,0.826,0,1.64,0,2.465c-6.718-2.591-12.003-11.876-16.829-16.829
	c-11.281-11.51-30.299-26.069-52.929-25.851c-0.138-0.275-0.275-0.539-0.401-0.814C158.776,369.541,160.163,364.038,167.396,364.015
	z M155.084,365.241c0.688-2.602,1.364-5.193,2.052-7.795c0.138,0,0.275,0,0.413,0c1.88,1.513,2.705,2.763,2.866,5.744
	c-1.938,0.275-3.129,0.871-4.104,2.052C155.91,365.241,155.485,365.241,155.084,365.241z M195.689,359.498
	c6.064-0.103,7.841-2.385,12.725-2.866c-0.115,9.733,1.594,17.116,6.167,22.148c1.215,1.204,4.884,0.975,7.383,0.826
	c0,4.242,0,8.483,0,12.725c-1.318-0.71-19.684-19.821-20.107-20.933c-0.688,0-1.364,0-2.063,0
	C199.576,365.448,196.297,364.508,195.689,359.498z M160.415,382.483c0.413,0.275,0.814,0.539,1.238,0.814c0,0.413,0,0.825,0,1.227
	c-0.562,0.138-1.101,0.275-1.651,0.413C160.14,384.123,160.277,383.297,160.415,382.483z M159.188,377.554c0.401,0,0.814,0,1.227,0
	C160.14,378.746,159.727,378.654,159.188,377.554z M161.653,386.587c2.041,5.056,4.104,10.123,6.145,15.178
	C164.049,400.608,160.346,391.07,161.653,386.587z M162.054,377.554c6.878,0.046,7.956,2.212,12.725,2.866
	c0.355,1.995-1.33,2.464-0.825,4.104c0.653,2.086,1.926,5.411,2.052,8.621c2.454,0,4.918,0,7.383,0
	c0.035,4.402,0.975,5.893,1.238,9.446c-4.689,1.261-7.772-0.653-12.312-0.825C167.568,397.478,162.937,385.017,162.054,377.554z
	 M183.389,390.279c-3.095,0-3.875-0.516-5.743-1.238c-0.275-2.453-0.55-4.918-0.826-7.383c10.559,1.021,23.444,13.86,30.781,20.108
	c2.316,2.74,4.643,5.468,6.981,8.208c0,0.413,0,0.814,0,1.238c-8.105-3.118-20.05-4.356-27.089-8.22
	c-0.401-1.055-0.493-1.766-1.227-2.465c0.069-4.471-0.195-8.655-1.238-11.487C183.217,389.614,184.203,388.743,183.389,390.279z
	 M156.311,379.606c0.676,8.38,5.502,13.86,6.156,22.16c-5.812,0.184-8.828-2.58-10.662-6.156c-1.375,0-2.74,0-4.104,0
	c0.126,0.275,0.264,0.55,0.401,0.814c0.344,0.986,2.51,2.385,4.104,3.29c0,0.138,0,0.275,0,0.413
	c-2.178,0.137-4.379,0.275-6.558,0.401c0.642-7.142,2.568-16.451,6.97-20.107C153.502,379.525,154.396,379.548,156.311,379.606z
	 M146.062,368.933c-2.086,1.364-5.605,3.268-6.569,5.744c-1.238,0-2.464,0-3.691,0c-8.85-7.383-13.493-31.125-13.138-48.412
	c1.25,0.733,7.269,4.929,7.395,5.319c1.915-1.078,3.817-2.178,5.743-3.279c4.253,6.007-3.554,18.537,3.279,22.985
	c1.49,1.88,3.806,2.235,7.383,2.041C147.713,358.822,142.715,363.774,146.062,368.933z M131.698,380.019
	c-3.852-3.451-11.991-21.197-9.847-28.729c1.032,0.745,9.549,21.701,11.487,24.625c-0.069,2.212,0.287,2.063-1.227,2.866
	C131.927,379.847,132.489,379.01,131.698,380.019z M105.847,355.807c0.699-9.309,10.765-12.347,4.104-20.521
	c-0.103-8.139,4.7-7.624,7.795-12.312c0.275,0,0.539,0,0.826,0c1.444,7.154-3.52,25.003-0.826,30.357
	c1.021,2.041,0.333,7.555,2.041,10.684c3.05,5.503,5.469,13.367,9.446,19.283c0.012,4.975-2.315,5.205-3.278,8.208
	c-2.327-1.375-3.371-4.769-5.342-6.569c-2.935-2.671-7.429-5.296-10.662-7.383C110.604,369.415,114.766,359.486,105.847,355.807z
	 M100.516,305.732c-2.5,0.585-5.698,2.19-6.982,4.104c-1.1,0-2.178,0-3.278,0c2.052-3.417,4.104-6.844,6.156-10.26
	c0.264-0.138,0.55-0.264,0.826-0.401c1.444,1.467,3.416,2.247,4.505,4.104l5.342,15.58c3.714,0.653,4.952,1.8,8.609,1.238
	c-0.837,2.533-2.27,4.872-4.517,5.743c-1.662,1.674-3.989,0.344-6.156,0C104.035,318.595,100.436,314.33,100.516,305.732z
	 M102.98,336.513c0,0.55,0,1.101,0,1.64c-2.063-0.161-4.241-0.872-5.342-2.052c-0.401-0.138-0.826-0.275-1.227-0.413
	c0.046-5.858,1.41-10.249,2.052-15.591c0.413,0,0.814,0,1.227,0C99.587,323.811,100.585,335.011,102.98,336.513z M106.259,336.513
	c1.284,0.929,1.697,2.281,2.866,3.29c-0.138,4.093-1.456,4.609-2.041,7.784c-0.149,0-0.287,0-0.424,0
	C105.273,345.787,105.48,338.978,106.259,336.513z M126.769,284.386c2.189-0.78,4.78-1.227,6.167-2.866
	c0.539,0.149,1.078,0.275,1.639,0.413c0.149,9.4-7.05,32.833-10.26,36.524c-1.926-2.534-1.559-7.153-3.703-9.435
	c0.298-5.182,2.098-3.841,4.104-6.569C128.339,297.547,126.895,291.288,126.769,284.386z M129.646,326.264
	c4.952-10.742,5.583-24.097,10.673-35.297c1.078-2.385-1.181-14.411-1.238-18.881c5.422,1.662,1.983,9.4,10.662,9.435
	c2.235,8.082-7.257,21.128,3.29,23.811c-2.075,8.001-17.208,15.602-9.034,27.078c-1.364,1.238-2.74,2.465-4.104,3.691
	c-1.697-2.109-1.135-9.458,0.424-11.074c-0.424-0.55-0.826-1.101-1.238-1.639c-2.763,0.413-6.225,3.187-6.97,4.517
	c-1.375,0-2.74,0-4.104,0c-4.414-11.67,5.595-22.377,6.97-32.833c2.545,1.295-5.548,23.662-5.744,31.193
	C129.371,326.264,129.508,326.264,129.646,326.264z M86.152,275.777c-0.333-4.964,1.146-6.718,5.342-6.97c0,1.64,0,3.279,0,4.918
	c-1.318,0.688-1.444,0.596-2.063,2.052C88.341,275.777,87.252,275.777,86.152,275.777z M105.021,272.498
	c-1.41-3.474-8.426-29.394-8.208-30.781c4.437,3.932,10.123,27.376,11.487,28.305c0,5.755,0,11.499,0,17.242
	C104.414,284.753,106.958,277.244,105.021,272.498z M92.308,225.301c7.543,2.832,7.715,11.464,18.87,11.487
	c-0.206,12.037,2.637,16.909,6.569,22.572c0.688,0,1.364,0,2.041,0c-0.149,7.062-6.511,6.695-7.383,13.138
	c-3.978-2.304-1.123-7.234-3.278-11.498c-2.396-4.758-14.433-32.982-16.818-34.472C92.308,226.126,92.308,225.714,92.308,225.301z
	 M89.029,238.852c1.731,0.149,1.616-0.046,2.464,0.814c7.188,4.184,7.509,27.032,11.487,35.699
	c1.812,3.955-0.436,8.552,2.041,11.487c0,0.825,0,1.651,0,2.476c-0.138,0-0.264,0-0.401,0c-3.141-2.82-6.775-10.294-6.981-15.603
	c-2.201-0.39-1.88-0.699-3.279-1.639c0-1.915,0-3.84,0-5.744c-2.293-0.137-5.056-0.275-6.156,0.814
	C82.838,263.705,88.387,243.23,89.029,238.852z M84.925,279.468c0.826,0.413,1.64,0.825,2.465,1.238
	c-0.183,9.55-5.858,26.149,0.814,32.008c1.41,2.751,4.173,1.742,5.744,0c2.74,3.714,0.287,14.628-0.413,18.056
	c-3.932-1.548-5.56-8.655-5.331-14.364c-0.275,0.275-0.55,0.55-0.814,0.813c-1.444,0.791-4.78,7.154-5.342,8.621
	c-0.137,0-0.275,0-0.401,0c-2.9-2.786-4.23-6.855-8.22-8.621c1.02-2.396,3.428-4.471,4.517-6.557
	c4.001-7.646-1.857-20.578-2.453-27.915c2.877-0.401,5.743-0.814,8.621-1.227C84.375,280.844,84.65,280.156,84.925,279.468z
	 M71.386,313.94c-3.279-8.38,0.458-14.479,1.227-22.974c1.215,0.527,0.493-0.023,1.227,0.825c4.654,5.09,0.802,17.208,0,22.561
	C73.025,314.215,72.2,314.078,71.386,313.94z M55.795,219.97c6.282,2.281,6.638,3.646,14.766,2.052
	c0.023,9.641,2.969,16.107,4.104,22.974c3.05,0.975,4.082,2.132,8.621,2.052c1.135,9.332-1.066,21.93-1.238,31.594
	c-2.499,0.482-2.545,1.158-5.743,1.238c-9.458-7.715-13.229-17.838-16.405-32.007c0-0.138,0-0.275,0-0.413
	c0.275-0.138,0.539-0.264,0.814-0.413c4.185,7.039,5.01,16.405,9.848,22.974c1.812,2.465,5.044,4.528,6.569,7.406
	c0.539,0,1.089,0,1.64,0c-0.516-5.021-8.782-15.236-11.487-19.707c-5.846-9.664-5.571-25.416-11.487-34.874
	C55.795,221.885,55.795,220.922,55.795,219.97z M29.531,226.126c7.83,8.323,13.665,13.31,13.138,28.316
	c-0.287,0.138-0.55,0.275-0.825,0.413c-5.056-5.365-19.019-15.935-19.282-24.625C26.883,230.093,27.284,228.156,29.531,226.126z
	 M38.565,254.442c0,0.676,0,1.364,0,2.052c-0.275,0.126-0.562,0.264-0.825,0.401c-4.505-1.227-11.922-10.719-13.126-15.178
	C30.483,244.274,32.672,251.886,38.565,254.442z M41.431,277.829c-2.373-1.697-2.499-5.354-4.505-7.383
	c-3.45-3.485-11.258-7.314-17.654-7.383c0.275-11.67-4.609-15.889-11.487-20.108c0-0.138,0-0.287,0-0.424
	c1.353-4.437,5.032-6.213,5.342-11.899c0.264-0.138,0.539-0.264,0.825-0.401c6.305,10.547,12.094,19.053,19.271,28.305
	c1.536,1.983,5.228,1.834,7.383,3.29c3.703,2.488,7.509,11.613,8.208,16.817C46.326,278.792,42.669,279.033,41.431,277.829z
	 M51.691,277.428c-1.88-4.941-4.757-14.318-9.446-16.428c0.585-4.001,3.073-6.363,4.104-9.848
	c1.055-3.531-6.511-21.609-8.197-22.561c2.786-4.058,11.074-2.763,12.714-11.911c0.413,0,0.825,0,1.227,0
	c0.218,23.73,9.24,35.825,9.034,61.149c-1.307,0.676-1.433,0.596-2.052,2.052C55.635,279.663,54.316,278.494,51.691,277.428z
	 M59.074,286.037c0.241-5.571,4.242-7.841,6.145-12.713c3.554,1.995,3.164,8.173,6.569,10.249
	c-0.16,1.284-3.657,18.572-4.104,19.282c-1.628,2.694-5.113,4.918-6.557,8.22c-1.364-1.375-2.729-2.74-4.104-4.104
	C57.297,299.507,66.17,293.133,59.074,286.037z M48.412,310.662c1.823,0.734,6.294,2.66,7.784,4.104
	c5.778,0.012,6.958-2.66,9.848-5.331c0.138,1.501,0.275,3.003,0.413,4.505c1.364,0.275,2.74,0.55,4.104,0.825
	c0.711,4.585,6.042,11.98,10.673,12.713c0.906,0.677,3.806-0.516,4.918-2.041c6.637,4.013,4.688,13.929,14.765,15.591
	c0.115,2.063,0.573,4.127,2.063,4.918c0.069,4.047-0.733,3.68-3.29,4.929c5.514,5.388,9.733,9.022,9.435,20.521
	c-1.628,1.032-5.216,3.646-6.145,5.342c-0.825-0.424-1.639-0.825-2.464-1.238c0.676-1.72,1.673-2.522,3.278-3.279
	c0-0.55,0-1.101,0-1.651c-6.465-1.41-11.899-19.317-15.591-25.026c-6.89-10.673-19.833-17.036-30.368-24.223
	c-3.244-2.213-5.479-6.489-9.423-8.208C48.412,312.301,48.412,311.476,48.412,310.662z M93.534,360.736c0,0.814,0,1.639,0,2.453
	c-5.468-2.877-5.342-7.578-8.609-12.725c-5.422-8.552-18.824-13.413-22.985-22.985c10.134,2.889,19.958,13.883,25.45,21.759
	C89.854,352.803,90.428,357.859,93.534,360.736z M55.795,352.929c0.39-3.428,2.557-5.399,3.279-7.795
	c0.378-1.227-1.101-2.763-1.238-4.93c-3.955-2.178-7.016-5.732-11.487-7.383c0.803-4.792,3.325-6.58,3.291-12.725
	c5.479,3.038,8.334,10.948,13.539,14.364c5.778,3.794,11.693,8.747,16.004,13.952c1.651,2.006,1.765,4.803,4.104,6.156
	c0.126,6.982-1.456,8.06-3.279,11.911C72.854,366.239,66.101,354.396,55.795,352.929z M77.943,399.713
	c0.081-7.486-6.523-12.416-13.539-12.725c2.774-8.782,1.043-8.518-2.464-15.591c-0.264,0-0.539,0-0.814,0
	c0.298-0.458,19.316-3.267,20.921-3.278c1.238-2.946,3.6-2.797,4.104-6.569c4.803,2.235,8.001,6.591,12.725,8.609
	c-0.195,2.144,0.287,1.651-1.238,2.476c0.103,6.89,4.138,6.42,7.383,9.848c2.476-0.378,2.292-0.872,3.703-2.063
	c3.084,3.095,9.641,4.459,11.888,8.208c1.869,3.107,1.238,5.228,2.465,8.22c-0.814,1.169-0.952,0.825-1.227,2.866
	c-16.325,3.852-36.903-24.899-53.342-26.264c0,0.952,0,1.915,0,2.866c3.393,1.846,3.691,4.746,6.156,7.395
	c7.395,7.933,18.664,16.863,29.543,20.922c0,0.413,0,0.825,0,1.238C93.638,405.721,87.791,400.86,77.943,399.713z M112.404,401.766
	c-1.639,0.562-0.413-0.034-1.227,1.227c-11.085,0.046-31.17-14.594-33.234-22.572c10.65,5.605,21.415,17.333,34.06,19.707
	C112.141,400.665,112.278,401.227,112.404,401.766z M72.613,426.39c6.993-3.943,12.519-10.466,19.695-14.364
	c5.25-2.854,17.804-3.886,21.736-7.394c1.513,0,3.026,0,4.528,0c0.138,0.275,0.275,0.562,0.401,0.825
	c-2.018,3.565-2.362,12.244-6.569,15.178c-2.144,1.869-6.442-0.493-9.423,0.825c-6.511,2.9-25.989,2.282-29.141,7.395
	c-0.413,0-0.814,0-1.227,0C72.613,428.029,72.613,427.216,72.613,426.39z M119.787,485.074c0,1.364,0,2.74,0,4.104
	c-7.153-2.006-25.358-1.055-30.757-4.918c-7.624-5.445-17.758-34.415-10.26-48.435c1.891-3.554,5.56-5.916,7.383-9.435
	c6.282-0.275,12.587-0.55,18.87-0.814c0-0.424,0-0.825,0-1.238c0.688,0,1.375,0,2.063,0c0.137,0.275,0.264,0.539,0.401,0.814
	c-2.27,1.502-5.411,3.875-7.795,4.93c0.917,3.462,7.635,5.457,11.487,5.744c1.112,12.839,2.144,29.244,6.569,39.814
	C119.282,479.296,117.001,482.907,119.787,485.074z M111.177,425.576c0.413,0,0.826,0,1.227,0c-0.263,2.729-0.539,5.468-0.813,8.197
	c-2.029,0.184-3.256-1.421-6.569-1.639C105.56,427.823,109.137,428.293,111.177,425.576z M63.178,437.063
	c3.336-4.7,11.327-4.414,15.591-8.208c0.413,0,0.814,0,1.238,0c-1.353,9.148-10.111,20.004-5.342,32.833
	c1.88,5.021,4.311,12.381,7.383,16.829c1.513,2.167,3.428,1.834,4.104,5.319c0.676,0,1.364,0,2.052,0
	c0.413,0.424,0.826,0.826,1.227,1.238c-0.871,1.708-7.05,2.946-8.609,1.227C59.2,486.828,52.138,452.585,63.178,437.063z
	 M125.129,497.386c-16.267,4.242-31.744-3.989-43.082-6.156c0-0.688,0-1.376,0-2.052c9.825,0.034,31.389-1.112,37.739,2.877
	c1.926,1.192,3.428,3.565,5.342,4.918C125.129,497.111,125.129,497.26,125.129,497.386z M148.928,517.494
	c-12.713-4.803-23.845-22.4-28.316-35.297c-1.089-7.646-2.178-15.316-3.279-22.974c-1.261-3.898-6.271-21.633-3.29-28.328
	c1.788-3.966,1.101-10.375,3.29-14.766c5.629-11.326,8.403-24.544,15.603-34.472c4.884-6.764,15.35-7.314,20.096-12.725
	c0.676,0,1.364,0,2.052,0c0.126,0.275,0.264,0.55,0.401,0.826c-3.038,3.542-13.08,31.239-15.167,32.007
	c0.745,2.694,0.264,2.889,1.639,4.505c-4.734,5.399-4.78,18.881-7.383,26.688c0,1.915,0,3.829,0,5.744
	c-11.143,26.172,1.158,69.54,14.353,77.565C148.928,516.669,148.928,517.082,148.928,517.494z M153.846,517.494
	c-3.909-2.82-8.77-7.532-11.487-11.487c-2.189-3.187-1.983-8.369-5.331-10.26c0.882-1.375,15.224-3.84,18.881-3.691
	c0-0.688,0-1.375,0-2.052c3.565-0.367,10.054-3.496,11.487-6.167c2.477,1.021,1.055,2.098,3.68,3.29
	c0.149,4.219-1.594,6.133-3.279,7.796c0.413,0.275,0.825,0.55,1.238,0.825c0.126,0.287,14.708-8.586,21.735-8.621
	c0.241,1.078,2.052,5.95,3.279,6.569c0.138,0.264,0.275,0.55,0.424,0.826c2.052-5.686,9.24-15.259,15.992-16.004
	c0.034,6.386-3.84,8.919-6.156,12.714c-6.053,9.962-11.407,18.239-19.684,22.974c-2.465,0.699-4.93,1.375-7.383,2.063
	C172.269,518.996,159.854,521.816,153.846,517.494z M231.388,485.899c-8.758,18.296-21.415,29.21-41.018,36.925
	c-5.973,2.35-13.081,0.081-19.695,0c1.743-2.591,12.496-4.356,15.591-6.557c3.646-2.614,8.46-6.901,11.487-10.26
	c9.848-10.937,20.292-42.921,31.182-49.261c0-0.264,0-0.539,0-0.814c0.413,0,0.814,0,1.227,0c0.081,1.995,0.115,3.199-0.814,4.116
	c0,1.639,0,3.279,0,4.918c0.539,0,1.089,0,1.64,0c1.685-9.274,7.692-13.264,10.249-19.707c1.926,0,3.84,0,5.744,0
	c0.63,1.444,0.733,1.398,2.063,2.063c-0.39,5.744-8.85,15.981-11.487,21.334C234.644,474.55,234.186,480.064,231.388,485.899z
	 M235.091,489.178c-0.241-4.242-0.424-7.818,2.041-9.446c0.756-1.353,14.8-5.893,16.829-6.156c0.264-2.465,0.539-4.918,0.825-7.383
	c2.5-0.321,11.487-1.284,12.714-3.279c0.814,0,1.639,0,2.453,0c-3.588,9.836-21.977,27.273-33.635,28.316
	C235.962,489.212,236.627,490.003,235.091,489.178z M270.778,468.245c0.814,0,1.64,0,2.465,0
	c-0.63,12.771-17.208,16.771-25.851,22.16c-0.275-0.264-0.55-0.55-0.814-0.825C254.798,482.839,266.113,478.402,270.778,468.245z
	 M269.953,487.94c-2.453,0.413-4.918,0.826-7.383,1.238c-1.571,1.169-8.277,11.544-9.435,13.539c-0.813,0-1.639,0-2.453,0
	c0-0.952,0-1.915,0-2.877c-2.224-1.502-3.118-3.256-6.156-4.093c3.657-6.489,23.536-9.022,28.305-19.294
	c0.86-0.837,0.779-1.066,0.825-2.877c0.814,0,1.64,0,2.465,0C276.029,481.475,271.5,482.208,269.953,487.94z M322.882,519.546
	c-19.283-10.49-31.641-23.65-43.082-41.855c-2.018-3.233-0.814-6.626-2.866-10.26c-1.341-2.373-3.657-2.82-4.104-6.569
	c0.825,0,1.639,0,2.465,0c0.997,2.625,3.84,3.198,4.918,5.331c3.416,6.729,2.407,15.431,12.312,15.603
	c0.275-0.275,0.539-0.55,0.825-0.825c0.046-9.114-8.506-15.557-14.364-18.881c0-0.401,0-0.814,0-1.227
	c9.125,1.41,16.588,11.234,22.16,16.829c15.442,15.499,28.545,35.492,59.486,35.297
	C356.311,523.249,334.289,525.737,322.882,519.546z M285.143,471.535c0.539,0,1.1,0,1.639,0c0.768,1.536,2.58,4.127,4.104,4.918
	c0,0.688,0,1.376,0,2.063c-0.275,0.138-0.55,0.264-0.825,0.401C287.287,478.207,285.487,474.481,285.143,471.535z M301.972,473.576
	c-3.955-3.943-16.829-11.498-18.893-15.591c29.634,5.95,46.601,33.521,82.885,35.297c0.539,1.227-0.023,0.493,0.825,1.238
	c-0.264,6.947-4.184,9.721-6.156,14.766C327.307,509.389,318.354,489.98,301.972,473.576z M368.016,508.06c-1.227,0-2.465,0-3.691,0
	c2.212-4.85,5.17-8.805,5.331-14.777c4.471-0.034,7.624,0.688,10.661,1.238C377.829,501.124,372.28,503.405,368.016,508.06z
	 M354.89,489.178c-16.508-3.932-30.575-12.255-44.308-20.521c-6.982-4.207-14.777-11.338-24.212-12.725c0-0.401,0-0.825,0-1.227
	c9.4,0.458,25.736,5.285,28.304,12.725c0.688,0,1.376,0,2.063,0c0,0.676,0,1.364,0,2.041c0.138,0,0.264,0,0.401,0s0.275,0,0.413,0
	c-0.516-12.06-35.733-21.14-50.051-20.922c0.527-1.227-0.012-0.493,0.814-1.227c5.628-5.239,24.12-1.204,31.594-0.825
	c14.972,0.756,42.13,11.876,52.517,18.468c5.147,3.267,11.957,10.283,18.468,11.487c0.321,2.144,0.631,2.385,2.041,3.279
	c0.401,0.63,15.431,9.229,16.829,9.446C388.284,491.517,358.627,490.072,354.89,489.178z M390.577,490.003c0.424,0,0.826,0,1.238,0
	C391.528,491.208,391.139,491.093,390.577,490.003z M452.54,468.658c-7.245,13.7-18.067,19.993-35.286,23.799
	c-0.138,0-0.275,0-0.413,0c-0.138-0.275-0.264-0.539-0.413-0.814c6.787-4.608,26.779-36.891,20.933-54.58
	c-1.628-4.918-4.253-10.616-4.93-15.603C441.477,423.971,460.839,452.975,452.54,468.658z M413.975,490.405
	c-4.643,4.139-20.394-2.946-24.613-3.279c0.607-0.986,0.241-0.458-0.826-0.825c0.069-10.008,14.192-39.275,4.918-52.94
	c-0.16-7.578,6.294-12.645,11.9-13.952c0.676,0.963,1.375,1.926,2.052,2.866c0.745,1.456-0.241,0.504,1.227,1.238
	c1.915-3.817,3.841-7.658,5.744-11.487C449.192,417.804,432.019,478.861,413.975,490.405z M416.015,380.019
	c-3.256,7.337,2.786,17.758,6.156,19.282c-1.364,1.926-2.729,3.829-4.093,5.744c-4.31-0.264-5.411-1.88-9.847-2.052
	c-0.573-1.502-0.791-1.72-2.063-2.465c0.447-3.806,7.096-25.289,2.063-27.892c-0.378-5.205,2.235-8.46,6.557-8.621
	c0-0.413,0-0.825,0-1.238c0.413,0,0.826,0,1.227,0c0.092,3.37,1.066,7.222,2.063,9.446
	C419.752,375.972,416.611,378.688,416.015,380.019z M405.354,376.315c0.137,0,0.275,0,0.413,0c0.264,0.287,0.539,0.562,0.825,0.826
	c0,2.602,0,5.205,0,7.795C404.196,383.951,404.505,378.929,405.354,376.315z M422.171,357.859
	c-14.743-0.035-16.141,13.08-23.788,20.107c-0.826-0.825-1.639-1.651-2.465-2.464c-5.388-5.136-16.199,4.688-17.643,7.382
	c-3.451-0.057-1.754-1.284-4.517-2.041c0-0.688,0-1.375,0-2.063c6.981-3.52,15.866-10.123,20.921-14.766
	c1.101-1.501,2.19-3.015,3.291-4.517c2.786-1.444,3.76-0.906,6.156-2.866c2.832-2.338,4.586-5.778,7.383-7.394
	c4.333-2.511,12.164-5.755,14.353-10.26c0.55,0,1.101,0,1.639,0c0.275,0.275,0.562,0.55,0.826,0.825
	C427.984,347.277,423.111,350.969,422.171,357.859z M386.071,364.829c0.55-0.275,1.089-0.55,1.64-0.814c0-0.413,0-0.825,0-1.238
	c0.413,0,0.825,0,1.227,0c-0.401,0.825-0.814,1.639-1.227,2.464C387.161,365.104,386.622,364.978,386.071,364.829z M389.763,361.55
	c0.413,0.264,0.814,0.55,1.238,0.825c-0.275,0.264-0.562,0.539-0.826,0.814C389.362,362.123,389.774,362.811,389.763,361.55z
	 M445.145,336.925c-1.009,1.594-2.258,0.86-3.278,2.465c-1.101,0-2.178,0-3.279,0c2.029-8.151,5.87-13.298,9.435-19.293
	c1.089,0.413,2.19,0.825,3.291,1.227C451.473,327.88,449.456,334.679,445.145,336.925z M461.562,304.918
	c-3.92,1.559-5.571,5.664-6.145,10.26c-15.224-0.091-14.583,16.91-22.573,24.212c-2.247-2.258-5.445-3.256-6.981-5.342
	c-9.985,0.378-14.135,10.1-20.509,14.365c-10.214,6.844-31.354,16.623-37.751,26.264c-0.814,0-1.639,0-2.453,0
	c-0.287-0.138-0.55-0.275-0.826-0.401c-0.275-0.825-0.539-1.651-0.814-2.476c2.969-3.565,7.75-9.057,2.866-14.353
	c3.324-3.439,6.053-4.081,8.621-9.033c6.225-3.886,18.308,1.433,26.252-1.227c0.207-0.068,3.909-1.857,6.156-2.052
	c0-0.963,0-1.915,0-2.866c-0.676,0-1.375,0-2.052,0c-0.138-0.275-0.275-0.562-0.413-0.825
	c16.004-10.559,31.354-22.332,45.948-38.989c2.82-3.222,7.875-6.363,8.621-11.487C462.215,292.617,461.791,300.458,461.562,304.918z
	 M461.562,283.985c-0.688,0-1.364,0-2.052,0c-0.963,6.81-6.19,9.962-9.435,14.364c-9.939,13.436-22.011,25.416-36.1,34.472
	c-5.916,3.795-13.458,6.409-18.056,11.487c-1.433-0.493-1.616-0.676-2.465-1.639c0.138-0.264,0.275-0.539,0.413-0.825
	c16.715-6.455,43.001-27.376,52.929-43.495c3.634-5.904,11.934-9.664,13.539-17.643c0.539-0.137,1.089-0.275,1.639-0.413
	c0.126,0,0.264,0,0.413,0c0.138,0.275,0.275,0.55,0.413,0.814C462.318,282.942,462.135,282.415,461.562,283.985z M477.152,271.26
	c-2.029,1.387-7.875,7.842-11.487,4.517c-3.943-2.683,0.998-15.224-2.052-18.881c-0.826-1.501-0.023-0.894-2.052-1.227
	c-0.275,6.294-0.539,12.587-0.825,18.881c-4.735-0.229-10.914-1.8-12.714,1.227c-0.413,0-0.814,0-1.227,0
	c-0.103-8.449,2.19-12.473,5.331-17.242c4.964,0.355,3.703,2.809,8.208,3.29c0.126-2.293,0.264-5.056-0.826-6.156
	c0-1.777,0-3.554,0-5.331c4.517,3.817,9.034,7.658,13.539,11.487c-0.264,2.052-0.539,4.104-0.825,6.156
	c1.651,0.264,3.29,0.539,4.929,0.825C477.152,269.621,477.152,270.446,477.152,271.26z M484.535,303.68
	c-1.823-0.906-3.817-3.646-4.104-6.145c-2.774-0.584-2.384-1.604-5.331-2.063c0.206-0.951,9.022-17.78,9.435-18.044
	c0.092-6.707-1.983-7.268-4.104-11.086c-0.676,0-1.364,0-2.041,0c0.264-5.285,4.23-7.532,6.145-11.085
	c1.605-2.969-1.536-5.686,0.826-8.208c1.043-2.098,2.912-2.063,4.092-4.093c0.826,0,1.651,0,2.465,0
	C491.976,264.405,493.42,287.917,484.535,303.68z M516.956,273.324c-2.603,4.517-8.908,6.122-11.487,11.487
	c-3.118,6.442,3.187,10.237-0.825,14.766c-0.138,0.413-0.275,0.825-0.413,1.238c-4.574-0.333-8.013-2.396-11.074,0.814
	c-0.826,0-1.639,0-2.465,0c8.174-21.369,15.992-35.687,6.156-60.736c4.391,1.685,6.385,4.929,12.713,4.929
	c0.573,1.376,0.241,0.86,1.227,1.64C509.114,256.104,510.318,269.518,516.956,273.324z M525.152,261
	c-4.562-0.94-5.044-3.359-11.487-3.279c0.275-3.141,0.55-6.294,0.826-9.446c2.27,0.034,2.476,0.298,3.278-1.227
	c4.368,1.593,10.364,7.256,11.487,11.911C527.846,259.429,525.92,259.659,525.152,261z"/>
<path d="M139.493,56.231c2.052-0.287,4.104-0.562,6.156-0.826c0.39-1.651,0.619-2.568,2.052-3.29
	c0.103-6.374-1.582-6.684-3.279-10.249c-2.602,0-5.205,0-7.807,0c-0.802,2.006-1.903,4.448-3.278,5.319
	C133.44,53.032,136.719,53.285,139.493,56.231z M138.255,44.732c1.926,0.138,3.829,0.275,5.743,0.413
	c0.677,1.731,0.906,4.162,0.826,6.97c-2.018,0.355-1.238-0.298-2.052,1.238c-3.279-0.378-4.437-1.903-6.557-3.291
	C136.364,46.544,137.247,46.945,138.255,44.732z"/>
<path d="M266.674,61.55c2.167,0.161,3.611,0.619,4.517,2.063c10.134,0.252,9.286-2.923,13.952-7.382
	c-0.264-3.611-1.502-3.99-2.064-6.982c-9.561-0.756-7.337-2.006-16.405,0.814C264.932,56.437,265.734,54.981,266.674,61.55z
	 M267.5,53.354c1.215-0.78,3.164-2.178,4.092-3.291c2.877,0.287,5.744,0.55,8.621,0.826c3.129,6.752-1.066,15.465-9.435,9.847
	c-1.41-0.951-1.846-4.127-3.278-5.331C267.5,54.717,267.5,54.03,267.5,53.354z"/>
<path d="M398.785,75.915c0.55,1.1,0.951,1.204,1.238,0C399.61,75.915,399.198,75.915,398.785,75.915z"/>
<path d="M333.143,83.721c-0.275,0-0.539,0-0.814,0c0,0.275,0,0.539,0,0.814C332.604,84.26,332.867,83.997,333.143,83.721z"/>
<path d="M116.107,85.361c-0.275,0-0.55,0-0.825,0c0,0.825,0,1.639,0,2.464c0.55-0.137,1.1-0.287,1.639-0.413
	C116.462,86.129,116.909,86.278,116.107,85.361z"/>
<path d="M252.322,87c-0.895-0.78-1.215-1.135-2.465-1.639c0.264,0.825,0.55,1.639,0.825,2.464
	C251.221,87.539,251.771,87.275,252.322,87z"/>
<path d="M418.893,88.639c-0.137,0.138-0.275,0.275-0.413,0.413c0.55,0.275,1.101,0.55,1.639,0.825c0-0.413,0-0.825,0-1.238
	C419.718,88.639,419.294,88.639,418.893,88.639z"/>
<path d="M146.062,95.621c-0.137-0.275-0.275-0.55-0.413-0.826c-0.688,0-1.364,0-2.052,0c0,0.413,0,0.826,0,1.227
	c0.825,0,1.639,0,2.464,0C146.062,95.885,146.062,95.747,146.062,95.621z"/>
<path d="M239.195,112.45c0.676-0.963,1.364-1.926,2.041-2.877c1.674-0.825,2.35-4.241,1.238-5.331
	c-0.195-2.579-0.585-2.373-1.238-4.116c-1.903-0.264-3.817-0.539-5.743-0.813c-1.674,1.88-4.276,4.459-6.145,6.156
	c0.126,1.823,0.608,3.955,1.64,4.918C232.581,112.599,235.16,112.679,239.195,112.45z M234.266,103.003c1.789,0,3.554,0,5.331,0
	c0,1.926,0,3.829,0,5.744c-1.295,0.688-1.421,0.596-2.041,2.063c-1.502-0.424-3.015-0.825-4.528-1.238
	C232.993,106.282,233.521,104.964,234.266,103.003z"/>
<path d="M437.762,100.952c-0.401,0-0.814,0-1.227,0C437.086,102.052,437.487,102.155,437.762,100.952z"/>
<path d="M213.344,133.372c2.602-4.471,5.136-5.056,4.918-13.126c-2.442-1.789-8.896-8.186-11.899-2.052
	c-3.737,1.96-1.686,10.49-1.227,14.364C207.876,132.821,210.604,133.097,213.344,133.372z M207.177,121.071
	c0.699-0.699,1.375-1.375,2.063-2.063c3.531,0.103,4.23,1.124,6.557,2.063c0,1.903,0,3.817,0,5.744
	c-1.089,1.227-2.178,2.453-3.279,3.68c-1.869,0-2.419,0.08-3.278-0.814c-0.688-0.413-1.364-0.825-2.063-1.227
	C207.177,125.989,207.177,123.524,207.177,121.071z"/>
<path d="M156.311,117.781c-0.401,0-0.826,0-1.227,0C155.623,118.881,156.036,118.984,156.311,117.781z"/>
<path d="M151.806,120.246c0.539,0,1.089,0,1.639,0c0.264-0.138,0.539-0.275,0.814-0.413c0-0.137,0-0.275,0-0.401
	c-0.137-0.138-0.275-0.287-0.413-0.424c-0.676,0-1.364,0-2.041,0C151.806,119.42,151.806,119.833,151.806,120.246z"/>
<path d="M501.364,156.357c6.764,0.126,6.638-1.972,10.249-4.104c-0.287-3.783-1.938-4.482-3.279-6.97
	c-1.651-0.287-3.29-0.562-4.93-0.825c-0.94,0.963-4.104,2.453-5.331,2.866c-0.023,3.921-0.207,3.967,0,6.981
	C499.725,154.695,500.642,154.936,501.364,156.357z M500.94,148.962c1.869-0.493,3.76-0.871,6.569-0.814c0,1.502,0,3.015,0,4.517
	c-0.264,0.275-0.539,0.539-0.826,0.814c-2.029,0.103-3.554,0.138-4.505-0.814c-0.413-0.275-0.814-0.55-1.238-0.826
	C500.94,150.889,500.94,149.926,500.94,148.962z"/>
<path d="M393.042,152.666c0.275-0.138,0.55-0.275,0.825-0.413c0-0.688,0-1.364,0-2.052c-0.825,0.138-1.639,0.275-2.464,0.401
	c0.137,0.287,0.275,0.562,0.413,0.825C392.228,151.84,392.64,152.253,393.042,152.666z"/>
<path d="M388.938,181.394c8.392-0.183,6.328-2.476,11.085-4.104c-1.135-3.886-1.742-8.403-2.052-10.26
	c-4.196-1.009-4.517-2.098-10.26-2.063c-0.608,1.135-4.208,4.746-5.331,5.342C382.323,177.978,385.98,177.37,388.938,181.394z
	 M386.071,170.721c0.826-0.952,1.64-1.915,2.465-2.877c3.153-0.023,4.528,0.413,6.569,1.227c0.917,2.052,1.834,2.935,2.041,5.755
	c-1.101,1.227-2.189,2.465-3.279,3.691c-3.382,0.058-5.021-0.711-6.156-2.866C385.682,174.814,385.854,173.564,386.071,170.721z"/>
<path d="M440.227,181.795c0.275-0.138,0.539-0.264,0.826-0.401c0-0.688,0-1.375,0-2.063c-0.413,0-0.826,0-1.227,0
	C439.952,180.156,440.089,180.981,440.227,181.795z"/>
<path d="M38.152,206.42c4.758-2.545,1.811-7.944,1.227-12.301c-2.442-0.092-3.577-0.493-4.517-2.063
	c-8.208,0-7.601,4.608-12.301,7.383c0.47,5.342,3.886,6.351,5.331,10.26C32.856,209.871,36.02,208.977,38.152,206.42z
	 M30.758,194.933c3.462,0.195,3.909,1.25,6.569,2.052c-0.126,2.591-0.264,5.193-0.401,7.796c-1.502,0.573-3.336,1.261-4.517,2.052
	c-1.227-0.413-2.465-0.814-3.691-1.227c-1.02-1.926-2.213-2.923-2.877-5.342C27.112,199.198,30.001,196.354,30.758,194.933z"/>
<path d="M113.642,218.732c0-0.126,0-0.264,0-0.413c-0.539-0.137-1.101-0.275-1.639-0.413c-0.676,1.101-1.364,2.201-2.052,3.29
	c0.413,0,0.814,0,1.227,0C112.003,220.383,112.828,219.546,113.642,218.732z"/>
<path d="M132.936,241.717c1.433-2.315,4.688-5.984,7.383-6.981c0.069-5.491,0.883-9.526-4.104-12.312
	c-1.089-2.087-3.668-2.282-6.982-2.052c-1.295,2.086-4.459,2.568-6.569,4.116c0.803,0.539-4.7,6.855-2.052,10.249
	C123.673,238.622,127.571,239.814,132.936,241.717z M124.716,226.126c1.375-0.963,2.74-1.915,4.116-2.877
	c2.178,0.275,4.368,0.539,6.557,0.814c3.371,8.048,3.646,6.855-1.238,13.963c-4.265-0.493-7.761-1.639-10.662-3.29
	C123.478,230.747,124.258,228.935,124.716,226.126z"/>
<path d="M438.588,255.256c0,0.55,0,1.101,0,1.639c0.413,0,0.814,0,1.238,0c0-0.539,0-1.089,0-1.639
	C439.402,255.256,439,255.256,438.588,255.256z"/>
<path d="M20.509,290.967c8.965,0.114,10.696-7.177,10.249-16.417c-1.892-1.021-4.161-3.21-4.918-5.342
	c-2.591,0.046-4.884,0.676-6.145,2.052c-6.225,2.889-3.279,12.622-2.063,17.655C19.936,289.189,19.844,289.075,20.509,290.967z
	 M20.509,273.324c2.912-0.081,5.56,0.114,7.383,0.814c0.103,3.542-1.181,16.565-6.557,13.951c-0.837-0.401-1.903-2.591-2.877-3.278
	C18.354,279.434,18.858,276.373,20.509,273.324z"/>
<path d="M482.495,351.29c2.522,0.481,2.82,1.192,6.145,1.227c-1.02-1.64-3.324-3.542-4.104-4.93
	c-2.958-5.262-0.321-18.25,4.918-19.282c0-0.539,0-1.089,0-1.64c-0.676,0-1.364,0-2.041,0c-0.619-3.428-2.373-3.726-2.877-7.382
	c-0.676,0-1.364,0-2.041,0c0.149,3.875,3.13,5.732,2.041,9.435c-1.593,5.434-2.877,11.108-2.866,19.695
	c-6.179,1.009-8.873,10.788-8.621,18.067c-2.052,0.104-4.127,0.562-4.918,2.041c-0.825,0-1.651,0-2.465,0
	c0.745-2.453,2.327-5.755,3.279-7.784c2.293-4.918-0.149-14.812,2.063-19.707c0.264-7.246,0.539-14.502,0.814-21.747
	c1.112-3.141,2.052-7.807,2.052-12.312c-0.149,0-0.287,0-0.413,0c-4.437,8.128-2.201,19.752-5.331,29.955c0,4.517,0,9.022,0,13.539
	c-1.697,3.829-4.838,14.33-5.331,18.056c-1.227,0.539-0.504-0.011-1.238,0.826c-3.21-1.892-3.497-5.354-8.208-6.156
	c0.275-4.242,0.55-8.483,0.825-12.725c-0.906-2.889-2.706-5.239-3.29-8.197c-1.215-0.275-2.453-0.562-3.68-0.825
	c0.585,3.187,2.477,5.159,4.104,7.383c-0.527,11.166-10.765,4.104-16.829,6.156c-1.525,0.516-1.823,1.742-4.104,2.052
	c-4.688,10.317-1.398,7.372,0,16.417c-2.464,0.47-2.304,1.101-5.342,1.227c0,0.275,0,0.55,0,0.826
	c-0.264,0.275-0.539,0.55-0.814,0.813c0.275,0,0.55,0,0.814,0c0.837,1.41,4.368,1.869,6.167,2.063
	c0.138,0.264,0.275,0.539,0.401,0.814c0.172,5.755-2.637,9.596-6.569,11.086l8.621,6.97c0.149,4.391,0.115,10.432-2.052,12.725
	c0,0.963,0,1.915,0,2.877c0.137,0,0.275,0,0.413,0c2.946-5.273,7.016-12.725,15.189-12.725c2.029,1.708,2.751,4.608,4.505,6.569
	c2.5-4.15,4.563-8.862,6.982-12.725c2.327,0,4.643,0,6.97,0c-0.057-7.887,0.539-13.424,2.465-18.87
	c0.952-0.287,1.915-0.562,2.877-0.826c1.078,3.829,2.178,7.658,3.279,11.487c1.364-1.364,2.729-2.74,4.104-4.104
	c4.769-0.195,7.91,1.169,9.423,4.104c0.963,0,1.926,0,2.877,0c-1.307-4.849-3.405-7.176-3.279-13.963
	c1.25-1.49,2.545-2.866,3.279-4.918c0.413-0.126,0.826-0.264,1.227-0.401C486.014,364.393,482.185,359.842,482.495,351.29z
	 M433.658,357.446c1.651,0,3.29,0,4.93,0c0.745,1.456-0.241,0.504,1.238,1.227c0.172,6.5-1.135,7.268-3.29,10.673
	C427.548,368.853,430.552,361.596,433.658,357.446z M438.588,398.487c-3.623-1.685-2.946-6.454-7.383-8.208
	c2.499-7.646,3.451-6.695,1.227-15.178c6.007-3.026,11.762-5.824,11.499-15.603c1.272-0.63,3.886-1.823,4.918-2.866
	c0.401,0,0.825,0,1.227,0c0.149,3.21-0.195,6.535-2.052,7.784c0.665,1.983,3.027,2.373,5.331,2.465
	c-2.35,10.753-11.67,19.924-13.528,30.781C438.599,398.2,439.321,397.639,438.588,398.487z M462.8,390.279
	c-5.365,0.092-9.71,4.688-10.26,9.435c-3.004-0.837-5.285-2.74-8.609-3.29c2.625-9.354,9.698-18.228,10.249-28.304
	c5.01,0.264,5.445,8.093,2.465,10.661c0,0.562,0,1.101,0,1.64c4.918,0,4.288-1.777,6.557-4.104
	C463.063,380.981,462.926,385.625,462.8,390.279z M475.101,378.78c-0.676-3.278-1.376-6.557-2.052-9.848
	c3.921,0.596,6.604,5.354,6.569,9.848C478.104,378.78,476.602,378.78,475.101,378.78z M484.535,376.74
	c-5.491-2.327-7.658-12.163-7.383-20.108c0.814,0,1.64,0,2.465,0c0.31,3.542,3.348,8.3,6.156,9.424
	C485.361,369.621,484.948,373.174,484.535,376.74z"/>
<path d="M380.316,333.647c-0.115-0.321,6.615-5.159,7.395-5.342c0-1.903,0-3.829,0-5.744c-2.786-0.63-4.265-3.187-8.208-3.278
	c-0.905,1.25-5.285,4.54-6.569,5.331C372.75,330.643,376.556,331.904,380.316,333.647z M378.276,322.974
	c3.107-0.057,4.414,0.344,6.156,1.227c-0.149,1.742,0.034,1.616-0.825,2.464c-0.413,0.677-0.826,1.376-1.227,2.052
	c-2.167,0.126-4.322,0.207-5.342-0.814C374.458,326.574,377.749,323.845,378.276,322.974z"/>
<path d="M505.468,319.283c-3.577-1.731-6.844,1.639-9.446,2.041c-0.091,2.041-0.573,4.528-2.041,5.342
	c0.539,2.637,1.938,4.678,4.093,5.744c1.639,2.854,9.687,2.476,11.487,0c1.892-2.591,0.516-8.346,0-11.085
	C507.131,320.945,506.81,319.924,505.468,319.283z M507.509,329.944c-1.296,0.688-1.433,0.596-2.041,2.063
	c-6.293,0.081-5.273-2.086-8.621-4.104c0.401-1.456,1.055-2.843,2.052-3.703c1.789-2.969,5.319-1.743,8.61-1.227
	C507.509,325.301,507.509,327.628,507.509,329.944z"/>
<path d="M157.136,343.907c1.341,1.616,3.691,1.742,4.093,3.278c4.78-0.068,5.652-1.524,9.446-2.052
	c1.272-4.322,1.697-11.258-2.052-13.126c-1.318-2.384-5.605-2.315-9.435-2.063C156.276,335.527,157.492,337.327,157.136,343.907z
	 M161.229,332.409c1.926,0,3.829,0,5.744,0c1.444,1.261,1.65,2.763,2.877,3.279c-0.688,2.602-1.376,5.205-2.052,7.807
	c-3.588,0.39-4.769,0.814-7.795-0.413c-0.791-2.052-0.917-5.411-0.814-8.621C160.484,333.784,160.61,333.865,161.229,332.409z"/>
<path d="M349.146,360.736c-1.215-4.735-1.788-5.984-3.691-9.045c-2.189,0-4.379,0-6.569,0c-0.997,1.525-3.92,4.127-5.331,5.342
	c-0.08,4.597,0.768,6.294,2.052,9.022C345.386,365.987,344.538,362.57,349.146,360.736z M336.433,358.271
	c1.089-1.238,2.178-2.477,3.279-3.703c1.777,0,3.554,0,5.331,0c0.275,0.275,0.55,0.55,0.814,0.826
	c0.103,2.041,0.149,3.565-0.814,4.517c-0.413,0.676-0.826,1.364-1.227,2.041c-2.465,0-4.93,0-7.383,0
	C336.433,360.736,336.433,359.498,336.433,358.271z"/>
<path d="M34.048,357.859c-0.688,1.777-1.33,1.616-2.052,3.278c-1.158,1.192-0.963,4.563-0.814,6.982
	c1.639,1.364,3.279,2.74,4.918,4.104c1.8,1.823,5.182,0.321,7.383,0c0.539-2.144,1.456-5.938,2.866-7.395
	c-0.321-3.554-1.421-2.774-2.041-5.743C39.975,358.26,39.287,357.583,34.048,357.859z M42.669,369.346
	c-1.456,0.745-0.504-0.241-1.238,1.227c-6.282,0.103-5.262-2.075-8.609-4.093c0.367-2.809,1.078-2.579,1.227-5.743
	c3.841-0.745,4.712-0.7,8.621,0C42.669,363.602,42.669,366.479,42.669,369.346z"/>
<path d="M389.763,361.55c0.012,1.261-0.401,0.573,0.413,1.639c0.264-0.275,0.55-0.55,0.826-0.814
	C390.577,362.101,390.175,361.814,389.763,361.55z"/>
<path d="M387.711,362.777c0,0.413,0,0.825,0,1.238c-0.55,0.264-1.089,0.539-1.64,0.814c0.55,0.149,1.089,0.275,1.64,0.413
	c0.413-0.825,0.825-1.639,1.227-2.464C388.536,362.777,388.124,362.777,387.711,362.777z"/>
<path d="M159.188,377.554c0.539,1.101,0.952,1.192,1.227,0C160.002,377.554,159.59,377.554,159.188,377.554z"/>
<path d="M161.653,383.297c-0.424-0.275-0.826-0.539-1.238-0.814c-0.138,0.814-0.275,1.639-0.413,2.453
	c0.55-0.138,1.089-0.275,1.651-0.413C161.653,384.123,161.653,383.71,161.653,383.297z"/>
<path d="M151.806,424.751c0,0.126,0,0.264,0,0.401c1.789,0.585,2.832,0.401,3.279,1.238c0.837-0.802,0.436-0.149,0.825-1.639
	c-1.238-0.413-2.465-0.814-3.703-1.238C152.069,423.937,151.932,424.338,151.806,424.751z"/>
<path d="M281.44,439.929c-0.539,0-1.089,0-1.639,0c0.275,0.55,0.55,1.089,0.825,1.651
	C280.901,441.018,281.176,440.479,281.44,439.929z"/>
<path d="M203.898,476.453c2.683-1.364,5.479-4.265,9.446-4.918c0.779-4.7,1.697-4.78,0.814-9.446
	c-7.979-1.375-15.11-0.092-15.178,8.621c-3.141-0.413-6.294-0.814-9.435-1.238c0.355,2.029-0.31,1.238,1.227,2.063
	c0.585,0.539,3.806,1.502,5.342,2.453c-0.688,0.55-8.002,0.814-9.848,0.826c0.138,0.275,0.264,0.539,0.401,0.825
	c-0.138,0.275-0.264,0.539-0.401,0.814C191.127,476.522,199.163,478.861,203.898,476.453z M211.705,464.152
	c-0.183,3.026-0.791,2.843-1.238,5.319c-2.614,0.504-3.703,1.272-7.383,1.238c-0.138-0.275-0.275-0.539-0.413-0.814
	C202.545,464.336,206.11,463.728,211.705,464.152z"/>
<path d="M391.815,490.003c-0.413,0-0.814,0-1.238,0C391.139,491.093,391.528,491.208,391.815,490.003z"/>
<path d="M364.324,508.06c1.227,0,2.465,0,3.691,0c4.265-4.655,9.813-6.936,12.301-13.539c-3.038-0.55-6.19-1.272-10.661-1.238
	C369.495,499.255,366.537,503.21,364.324,508.06z"/>
</svg>
