<?xml version="1.0" encoding="utf-8"?>
<!-- Generator: Adobe Illustrator 15.0.0, SVG Export Plug-In . SVG Version: 6.00 Build 0)  -->
<!DOCTYPE svg PUBLIC "-//W3C//DTD SVG 1.1//EN" "http://www.w3.org/Graphics/SVG/1.1/DTD/svg11.dtd">
<svg version="1.1" id="Layer_1" xmlns="http://www.w3.org/2000/svg" xmlns:xlink="http://www.w3.org/1999/xlink" x="0px" y="0px"
	 width="409px" height="573.598px" viewBox="0 0 409 573.598" enable-background="new 0 0 409 573.598" xml:space="preserve">
<path d="M199.507,69.829c26.319,13.843,68.875,71.788,79.807,99.756c-9.979,0-19.951,0-29.929,0
	c24.772,37.556,74.567,59.226,94.771,94.769c-28.262-3.327-56.531-6.646-84.793-9.977c22.615,63.762,74.279,70.419,119.707,109.729
	c-1.66,3.327-3.326,6.648-4.988,9.979c-28.26,1.66-56.53,3.326-84.791,4.987c15.479,73.76,68.873,87.092,119.707,124.693
	c0,1.66,0,3.326,0,4.986c-70.746,20.43-153.818,14.92-194.524-34.914c0-1.66,0-3.326,0-4.987
	c42.89,11.716,104.159,64.805,159.608,29.929c-58.66-20.061-84.854-70.165-104.742-129.686c23.271-1.66,46.558-3.326,69.828-4.987
	c-1.66-3.324-3.326-6.646-4.987-9.977c-49.486-19.073-93.146-67.904-99.757-129.683c26.08,8.5,38.093,27.418,64.845,19.95
	c-3.327,0-6.649,0-9.978,0c-21.612-28.263-43.229-56.53-64.842-84.793c9.975,0,19.95,0,29.926,0
	c-6.646-6.647-13.303-13.302-19.951-19.951c-9.975-14.963-19.948-29.928-29.926-44.891c-3.327,1.66-6.647,3.326-9.976,4.986
	c-13.305,19.951-26.602,39.901-39.902,59.854c9.977,0,19.951,0,29.927,0c-18.587,31.206-40.733,68.894-74.815,84.79
	c0,1.661,0,3.327,0,4.987c21.61-8.312,43.229-16.625,64.842-24.938c0,4.986,0,9.976,0,14.963
	c-25.65,63.225-62.499,81.354-104.744,124.693c23.273,1.661,46.556,3.327,69.829,4.988c-23.482,70.506-53.36,94.197-104.744,134.671
	c3.327,0,6.649,0,9.977,0c55.125,23.833,108.135-20.536,144.646-34.915c-1.661,6.647-3.327,13.305-4.988,19.951
	C135.328,509.711,56.999,544.801,0,503.759c0-1.661,0-3.327,0-4.986c57.467-16.79,107.296-57.954,119.707-119.707
	c-31.179,0.921-72.206-1.098-89.78-14.966c45.643-38.873,97.238-46.187,119.707-109.729c-22.867,9.222-69.761,21.539-84.792-4.987
	c48.914-7.16,73.521-45.285,94.77-79.806c-26.049-2.09-19.873,3.273-29.927-14.963C163.112,138.615,181.251,100.755,199.507,69.829z
	"/>
<rect x="195.284" y="494.967" width="16.439" height="78.631"/>
<polygon points="203.501,49.24 184.203,59.386 187.89,37.9 172.284,22.684 193.852,19.547 203.501,0 213.15,19.547 234.719,22.684 
	219.107,37.9 222.794,59.386 "/>
</svg>
