<?xml version="1.0" encoding="utf-8"?>
<!-- Generator: Adobe Illustrator 15.0.0, SVG Export Plug-In . SVG Version: 6.00 Build 0)  -->
<!DOCTYPE svg PUBLIC "-//W3C//DTD SVG 1.1//EN" "http://www.w3.org/Graphics/SVG/1.1/DTD/svg11.dtd">
<svg version="1.1" id="Layer_1" xmlns="http://www.w3.org/2000/svg" xmlns:xlink="http://www.w3.org/1999/xlink" x="0px" y="0px"
	 width="351px" height="542.822px" viewBox="0 0 351 542.822" enable-background="new 0 0 351 542.822" xml:space="preserve">
<path d="M268.985,0c3.617,4.02,7.232,8.039,10.852,12.063c-3.754,0.845-39.838,53.93-47.039,62.721c-1.207,0-2.414,0-3.621,0
	c-0.801-0.807-1.604-1.611-2.41-2.41c0.764-11.672,1.949-21.646,7.24-30.154c-0.402-0.402-0.807-0.807-1.209-1.209
	c-6.836,8.441-13.668,16.885-20.504,25.33c-20.908,4.422-41.817,8.846-62.725,13.268c0,0.402,0,0.806,0,1.207
	c17.221-2.018,50.797-4.387,61.516,4.826c0,0.4,0,0.806,0,1.207c-4.02,0.4-8.039,0.799-12.061,1.203
	c-0.109,8.26-4.965,12.604-9.65,19.303c18.799-7.317,34.121-22.743,56.693-25.33c1.207,2.41,2.414,4.824,3.615,7.234
	c-4.822,1.607-9.648,3.219-14.475,4.822c17.693,18.494,35.383,36.992,53.076,55.486c0,0.402,0,0.805,0,1.207
	c-23.521-7.504-35.545-36.756-60.311-41.012c-0.807-4.021-1.609-8.039-2.414-12.062c-18.607,10.924-76.795,54.597-91.668,55.484
	c0-1.605,0-3.215,0-4.824c7.232-10.053,14.475-20.104,21.709-30.154c10.451-10.455,20.907-20.902,31.36-31.357
	c0-0.401,0-0.805,0-1.207c-13.19,1.732-50.891,8.902-62.723,2.41c0.805-2.008,1.607-4.02,2.414-6.026
	c12.457-6.435,24.928-12.869,37.395-19.304c16.04-6.504,42.594-4.289,55.481-14.475C238.26,33.448,246.983,12.981,268.985,0z"/>
<path d="M271.395,27.741c0.805,0,1.607,0,2.414,0C273.004,27.741,272.2,27.741,271.395,27.741z"/>
<path d="M246.065,62.72c21.473,0.323,43.592,5.262,54.275,16.889c-0.4,0.805-0.805,1.609-1.203,2.414c-0.805,0-1.607,0-2.414,0
	c-10.855,1.203-21.713,2.41-32.562,3.617c0.799-1.207,1.604-2.414,2.41-3.617c4.822-1.207,9.646-2.414,14.473-3.621
	c-13.752-5.518-26.42,2.312-38.596-3.617C242.782,67.991,243.891,66.94,246.065,62.72z"/>
<path d="M199.022,117c7.654,0.763,8.689,2.636,12.061,7.234c-11.699,16.23-31.092,27.838-39.803,47.043
	c2.012-1.609,4.02-3.219,6.032-4.824c4.438-9.375,15.611-24.873,26.535-27.746c0,1.611,0,3.222,0,4.826
	c-27.631,42.371-62.899,78.012-92.879,118.209c11.723-4.643,19.293-11.834,34.98-13.271c3.219,1.207,6.434,2.414,9.646,3.621
	c-8.666,12.924-20.254,25.777-33.77,33.773c7.238-9.248,14.473-18.494,21.713-27.746c-15.279,8.045-30.557,16.084-45.836,24.129
	c-2.916-2.188-3.014-2.666-4.824-6.033c9.492-20.053,22.822-34.854,36.188-50.66c10.053-18.491,20.104-36.989,30.154-55.483
	C172.488,152.384,185.754,134.685,199.022,117z"/>
<path d="M168.865,172.487c-0.799,1.604-1.604,3.215-2.41,4.824c1.209-1.207,2.41-2.414,3.617-3.623
	C169.67,173.286,169.268,172.889,168.865,172.487z"/>
<path d="M226.766,189.37c2.41,0,4.824,0,7.24,0c15.273,15.682,30.553,31.367,45.83,47.043
	c14.871,20.104,29.752,40.207,44.633,60.312c-0.773,4.383-0.49,3.649-2.414,6.03c-23.316-28.545-46.641-57.094-69.959-85.639
	C244.284,207.534,230.51,202.969,226.766,189.37z"/>
<path d="M265.362,252.094c22.855,16.938,54.105,46.933,66.342,73.576c-0.805,0-1.609,0-2.41,0c-2.414,1.609-4.824,3.215-7.238,4.824
	c-33.08-3.201-46.057-35.814-72.373-45.836c0,0.402,0,0.805,0,1.207c0.807,0.401,1.609,0.805,2.414,1.207
	c20.506,21.307,41.014,42.617,61.52,63.928c8.439,11.66,16.883,23.316,25.33,34.979c-0.402,2.816-0.807,5.63-1.207,8.441
	c-0.404,0-0.807,0-1.209,0c-32.123-13.748-48.195-48.525-83.225-60.311c1.039-5.457-0.145-3.588,3.615-6.027
	c0.402-0.402,0.807-0.805,1.207-1.207c29.424,7.887,46.99,36.674,67.545,54.277c-19.873-44.49-77.43-65.308-90.465-113.379
	c0.807-0.806,1.609-1.609,2.416-2.414c4.312-1.297,6.512-2.818,10.852-1.209c16.084,11.662,32.166,23.321,48.25,34.979
	C286.27,283.455,275.817,267.776,265.362,252.094z"/>
<path d="M156.809,260.536c1.607,0.805,3.215,1.611,4.822,2.416c-2.881,12.957-16.066,13.717-20.506,25.324
	c7.887-5.931,19.395-17.095,31.363-14.476c-0.807,2.015-1.609,4.025-2.416,6.033c-21.404,4.152-71.578,51.691-83.227,68.75
	c19.324-8.715,36.502-21.977,59.105-9.647c-0.805,0.807-1.611,1.608-2.41,2.416c-26.533,23.315-53.08,46.641-79.613,69.959
	c-0.799-0.404-1.604-0.808-2.408-1.209c1.209-1.207,2.408-2.408,3.615-3.617c20.908-21.312,41.816-42.615,62.727-63.926
	c-19.643,3.782-68.021,47.87-77.197,36.186C72.449,338.793,121.621,288.039,156.809,260.536z"/>
<path d="M332.911,317.229c0.402,0.805,0.805,1.604,1.209,2.407C333.715,318.832,333.313,318.034,332.911,317.229z"/>
<path d="M256.92,355.825c28.891,14.604,84.178,78.199,94.082,102.527c-14.082-8.416-21.32-24.824-32.564-36.188
	c-21.707-20.506-43.426-41.016-65.135-61.518C254.506,359.039,255.713,357.435,256.92,355.825z"/>
<path d="M338.944,379.948c0.4,0.805,0.799,1.608,1.201,2.414C339.743,381.557,339.346,380.752,338.944,379.948z"/>
<path d="M139.918,381.155c8.379,1.051,7.275,3.293,9.65,9.647c-37.42,14.453-101.686,85.492-129.062,115.793
	c-6.66,7.373-9.963,21.726-15.682,26.539c-1.207,0.402-2.41,0.806-3.617,1.207c-0.402-0.401-0.805-0.805-1.207-1.207
	C3.801,482.971,110.215,415.614,139.918,381.155z"/>
<path d="M326.879,382.362c0.805,0.805,1.609,1.608,2.414,2.41C328.489,383.971,327.684,383.166,326.879,382.362z"/>
<path d="M344.971,387.187c0.807,0.805,1.609,1.608,2.414,2.409C346.581,388.797,345.776,387.991,344.971,387.187z"/>
<path d="M150.775,390.803c0.4,0.808,0.805,1.611,1.207,2.416c-0.807,0-1.609,0-2.414,0
	C149.971,392.414,150.373,391.608,150.775,390.803z"/>
<path d="M250.889,476.444c3.361,0.436,11.783,0.562,15.684,3.617c0,0.399,0,0.805,0,1.207c-1.209,0.399-2.41,0.805-3.617,1.204
	c-14.072,1.611-28.152,3.218-42.219,4.826c0,0.402,0,0.806,0,1.207c21.812-2.069,72.74-11.461,92.879,3.617
	c-1.209,1.207-2.416,2.41-3.623,3.617c-48.898-20.363-184.202,14.67-229.174,24.123c0,0.399,0,0.805,0,1.207
	c79.844,0.172,160.256-40.078,244.854-19.299c-0.516,3.141,1.18,0.657-1.201,3.616c-0.402-0.805-0.807-1.604-1.209-2.409
	c-3.242,6.131-77.625,6.021-89.256,7.233c0,0.402,0,0.806,0,1.207c40.869-0.117,69.953,19.099,100.113,20.506
	c-0.402,0.806-0.807,1.609-1.207,2.41c-36.914,5.797-84.152-17.693-129.062-12.059c-33.772,3.616-67.555,7.231-101.319,10.854
	c-12.025,2.269-23.486,10.326-32.57,9.648c-2.875-10.16,2.273-12.873,6.031-19.299c-3.213,0.801-6.434,1.604-9.648,2.409
	c2.41-4.823,4.824-9.647,7.24-14.475c36.176-8.441,72.373-16.889,108.555-25.33C205.053,482.877,227.975,479.659,250.889,476.444z"
	/>
<path d="M314.815,489.709c0.805,0.807,1.609,1.609,2.416,2.414C316.426,491.319,315.62,490.516,314.815,489.709z"/>
</svg>
