<?xml version="1.0" encoding="utf-8"?>
<!-- Generator: Adobe Illustrator 15.0.0, SVG Export Plug-In . SVG Version: 6.00 Build 0)  -->
<!DOCTYPE svg PUBLIC "-//W3C//DTD SVG 1.1//EN" "http://www.w3.org/Graphics/SVG/1.1/DTD/svg11.dtd">
<svg version="1.1" id="Layer_1" xmlns="http://www.w3.org/2000/svg" xmlns:xlink="http://www.w3.org/1999/xlink" x="0px" y="0px"
	 width="156px" height="591px" viewBox="0 0 156 591" enable-background="new 0 0 156 591" xml:space="preserve">
<path fill="none" d="M86.277,451.229c0.803-0.195,1.676-0.378,2.569-0.515C87.9,450.772,87.017,450.933,86.277,451.229z"/>
<path fill="none" d="M96.289,451.943c-1.695-1.624-4.667-1.655-7.442-1.229C91.581,450.547,94.794,451.226,96.289,451.943z"/>
<path d="M96.917,476.119c0.366,0.01,0.724,0.025,1.068,0.05c-0.106-0.015-0.201-0.035-0.309-0.05
	C97.424,476.119,97.17,476.119,96.917,476.119z"/>
<path d="M105.412,197.349c2.989-1.005,3.069-4.014,2.315-6.726c0.019,0.112,0.036,0.228,0.065,0.354
	C108.498,194.009,106.921,195.854,105.412,197.349z"/>
<path d="M148.151,166.052c-6.72-8.414-16.263-13.983-28.758-16.96c-18.829-4.486-38.77,3.404-46.806,12.837
	c-2.094,2.459-5.017,4.856-6.346,7.965c-0.067,0.031-0.133,0.063-0.199,0.094c-0.065-0.188-0.132-0.375-0.198-0.562
	c-2.316-0.36-5.22,1.935-7.14,0.938c-1.974-0.931-0.17-4.191,0.595-5.154c1.644-2.069,5.838-1.719,7.438-3.748
	c1.287-1.633,1.327-4.124,1.983-6.372c0.502-1.719,1.316-2.825,2.281-4.029c0.066,0,0.132,0,0.199,0c0-0.032,0-0.062,0-0.094
	c-2.258,0.403-5.109,1.533-6.743,2.717c-1.02,0.739-1.554,1.931-2.678,2.624c-0.033,0-0.065,0-0.099,0
	c1.689-3.586,1.793-9.279,3.372-13.118c3.09-7.515,7.821-14.133,16.263-16.586c1.489-0.432,3.712-1.075,5.851-0.749
	c2.111,0.321,3.92,0.895,5.752,1.218c0-0.031,0-0.063,0-0.094c-1.819-0.48-3.624-1.064-5.752-1.406
	c-8.012-1.288-15.446,4.692-18.543,8.34c-4.91,5.781-8.368,11.612-10.611,20.146c-3.481,13.248-0.698,31.129-0.892,44.79
	c-0.033,0-0.066,0-0.099,0c-4.113-27.733-0.937-57.982,10.808-75.619c3.398-5.102,8.073-9.752,14.578-11.901
	c3.933-1.299,12.277-2.312,9.816,3.374c1.741-1.336,0.761-3.311-0.496-4.311c-0.066,0-0.132,0-0.199,0c0-0.031,0-0.062,0-0.094
	c4.017,0.119,6.436,3.249,7.24,6.465c1.102,4.414-2.326,8.25-6.446,6.935c-0.067-0.093-0.132-0.188-0.199-0.281
	c0.926-0.373,1.343-0.3,1.785-1.124c-0.066-0.469-0.133-0.938-0.199-1.406c-1.233-0.988-4.395-0.74-3.769,1.687
	c0.335,1.294,2.113,2.343,4.166,1.968c5.733-1.047,6.485-7.851,3.173-11.901c-2.202-2.691-8.069-3.786-12.892-2.529
	c-7.451,1.941-12.606,6.359-16.561,11.62c-6.569,8.736-9.793,19.421-12.693,31.859c-0.917,3.936-0.81,7.882-1.586,12.088
	c-0.657,3.56-0.595,7.599-0.595,11.619c0.033,1.75,0.066,3.499,0.099,5.248c0.066,1.78,0.132,3.561,0.199,5.341
	c0.865,4.771,0.824,9.509,1.883,13.961c0.694,2.936,1.39,5.873,2.083,8.809c-0.034,0-0.066,0-0.099,0
	c-0.926-2.655-1.851-5.311-2.777-7.965c-1.326-4.207-1.798-8.757-2.677-13.399c-1.395-7.367-1.118-18.699,0.198-25.862
	c0.877-4.772,1.203-9.139,2.38-13.493c3.884-14.36,9.9-25.49,17.75-35.889c6.288-8.328,14.322-17.304,26.28-20.146
	c4.469-1.062,9.443-0.037,12.693,1.406c1.71,0.759,2.629,2.159,5.157,2.155c0.099-0.125,0.199-0.25,0.298-0.375
	c1.242-1.619-1.658-3.323-2.479-3.842c-3.955-2.495-8.777-3.154-14.578-2.061c0-0.032,0-0.062,0-0.094
	c5.671-1.368,10.982-0.536,15.172,1.875c1.314,0.756,5.748,3.789,7.834,2.811c0.198-0.125,0.396-0.25,0.594-0.375
	c0.53-2.36-1.591-3.351-3.173-4.311c-4.916-2.982-10.056-3.304-16.957-2.154c0-0.032,0-0.063,0-0.094
	c4.878-1.541,9.293-3.885,14.973-5.06c12.042-2.492,23.754,4.672,26.874,12.181c3.134,7.539-2.764,19.368-10.71,13.68
	c1.054,2.11,5.517,2.148,7.636,0.938c3.428-1.958,4.685-6.579,4.462-11.713c0.033,0,0.065,0,0.099,0
	c1.256,6.465-0.711,12.138-5.057,14.712c-3.471,2.055-9.142,1.173-11.306-1.406c-2.896-3.454-1.649-8.503,2.281-10.12
	c3.631-1.493,6.662,0.419,6.049,4.029c3.122-3.773-3.857-6.888-7.536-4.872c-4.865,2.666-3.576,9.606,0.297,12.275
	c5.391,3.714,11.992,0.493,14.478-3.467c1.159-1.844,1.432-3.977,1.885-6.56c0.717-4.088-1.833-7.9-3.173-10.4
	c4.281,2.501,7.588,12.9,5.454,19.49c-1.813,5.601-5.838,10.207-11.404,12.275c-8.075,3.001-16.789-1.169-20.229-5.622
	c-1.083-1.402-2.752-3.77-2.281-6.466c0.488-2.794,1.706-4.149,2.677-6.185c-3.269,2.319-3.757,8.044-1.687,11.9
	c3.039,5.655,11.044,11.231,20.032,7.965c5.548-2.017,9.885-5.512,12.197-10.588c4.661-10.234-0.841-21.331-7.338-26.237
	c-3.166-2.39-6.662-4.538-11.007-5.809c-6.047-1.77-14.09-0.822-19.437,0.749c-9.784,2.875-17.47,7.805-24.692,13.119
	c-1.553,1.342-3.107,2.686-4.66,4.029c-5.151,3.927-9.145,9.262-12.991,14.431c-7.455,10.021-12.628,21.82-16.263,35.514
	c-0.897,3.382-1.105,6.736-1.784,10.401c-1.206,6.498-1.618,16.981-0.496,23.988c0.8,5.004,0.746,9.627,1.784,14.244
	c2.123,9.444,4.508,18.177,7.338,26.705c1.09,3.342,2.182,6.685,3.273,10.026c2.776,7.027,5.553,14.056,8.329,21.083
	c-5.586-9.245-11.174-18.492-16.759-27.736c-4.959-7.951-9.393-16.522-13.486-25.3c-2.787-5.977-5.75-12.114-8.429-18.272
	c-2.28-5.809-4.562-11.62-6.842-17.429c-4.238-10.313-6.732-21.558-9.719-32.89c-1.964-7.453-2.503-15.315-3.967-23.333
	c-0.297-3.654-0.594-7.309-0.892-10.963c-0.033-2.124-0.066-4.249-0.099-6.372c0.033-2.592,0.066-5.185,0.099-7.778
	c0.033-1.311,0.066-2.623,0.099-3.935c0.396-3.561,0.793-7.122,1.19-10.683c0.942-4.837,1.374-9.312,2.579-13.774
	C20.137,39.386,28.341,22.1,43.831,11.347c7.095-4.926,12.948-7.638,23.602-9.464c1.917-0.125,3.834-0.25,5.75-0.375
	c5.895,0.886,10.469,0.878,15.173,2.624c12.938,4.802,22.656,13.743,27.37,26.331c1.89,5.046,3.208,12.86,1.289,18.928
	c-0.94,2.97-1.939,5.964-3.471,8.433c-3.965,6.396-9.788,12.224-18.643,13.962c-10.612,2.084-19.154-5.632-21.915-11.807
	c-1.667-3.728-1.241-9.608,0.694-12.744c3.738-6.056,12.891-9.75,17.849-1.968c2.001,3.139,0.381,7.64-2.083,9.089
	c-1.899,1.118-5.009,0.42-5.751-1.218c-0.066-0.032-0.133-0.062-0.199-0.094c0.669,1.823,4.138,2.78,6.248,1.499
	c2.458-1.492,4.143-5.529,2.578-9.089c-3.397-7.729-13.872-6.481-18.445-0.75c-9.652,12.097,1.586,25.557,12.99,28.58
	c1.976,0.524,5.147,1.029,7.735,0.562c10.034-1.81,16.308-7.782,20.725-14.898c6.043-9.737,5.75-21.991,0.893-32.515
	C109.36,11.567,93.767-0.363,70.704,0.008c-1.123,0.094-2.247,0.188-3.371,0.281c-2.38,0.469-4.76,0.937-7.141,1.405
	c-6.961,2.048-12.584,5.34-17.75,9.089C26.334,22.477,16.696,43.528,10.908,64.945c-1.262,4.67-1.896,9.572-2.876,14.524
	c-0.894,4.519-0.356,9.108-1.19,13.962c-0.771,4.5-0.53,13.462,0.199,17.804c0.331,3.748,0.661,7.496,0.991,11.244
	c1.458,7.688,2.234,15.222,4.166,22.396c13.118,48.732,34.359,85.772,58.408,123.783c6.875,11.118,13.752,22.24,20.626,33.358
	c8.329,13.117,16.661,26.238,24.99,39.356c-2.843-3.124-5.686-6.248-8.528-9.37c-2.812-3.298-6.779-6.278-10.314-8.902
	c-11.764-8.734-31.249-22.734-53.351-15.93c-4.696,1.446-8.634,3.769-12.197,6.278c-4.937,3.478-9.003,8.21-11.502,13.963
	c-7.689,17.69,4.86,33.792,19.932,36.918c10.105,2.096,18.96-5.471,22.312-10.682c1.148-1.785,2.979-4.886,2.479-7.965
	c-0.662-4.069-1.685-4.691-3.074-7.496c-0.099-0.062-0.199-0.125-0.298-0.188c1.054,2.453,2.203,4.319,2.777,7.59
	c0.604,3.449-1.49,6.544-2.876,8.34c-5.027,6.515-17.477,10.83-28.163,6.465c-6.995-2.857-11.575-9.01-13.883-16.304
	c-3.35-10.588,3.073-23.265,9.52-27.268c-2.86,3.871-4.673,7.673-5.652,13.494c-1.753,10.43,9.874,21.362,20.031,15.742
	c4.454-2.464,9.677-11.212,3.57-15.93c-4.863-3.756-13.657-2.642-11.801,5.06c0.579-1.659-0.169-2.895,0.992-4.31
	c2.603-3.174,8.572-0.61,10.312,1.499c4.104,4.971,1.379,10.79-3.272,13.306c-3.34,1.807-8.746,1.313-11.701-0.375
	c-6.686-3.819-8.835-12.292-5.95-21.083c0.033,0,0.065,0,0.1,0c-1.621,6.883,0.541,14.052,4.958,16.772
	c3.582,2.208,9.577,1.146,11.006-2.155c-1.174,0.951-2.001,2.107-3.57,2.717c-2.469,0.96-5.381-0.295-6.842-1.218
	c-5.257-3.322-6.87-13.985-3.075-20.146c4.799-7.788,18.523-16.44,33.122-13.493c5.625,1.136,10.478,2.897,14.973,5.06
	c2.546,1.225,7.045,2.913,8.826,4.779c-7.16-3.129-16.702-2.463-23.204,0.656c-2.224,1.066-5.588,2.423-4.661,5.529
	c2.732,1.805,6.709-0.229,9.123-1.312c5.332-2.393,17.153-5.924,23.305-1.406c-2.085-0.615-4.14-1.287-6.644-1.687
	c-6.902-1.101-15.948,2.212-17.652,6.372c0.026,0.814,0.243,0.958,0.595,1.406c2.739,0.625,4.745-1.193,6.744-1.968
	c1.718-0.469,3.438-0.937,5.157-1.405c7.978-1.647,15.422,1.58,20.031,4.31c9.253,5.482,16.29,13.847,22.114,22.583
	c7.481,11.221,13.454,23.266,17.949,37.482c2.102,6.646,2.699,13.854,4.065,21.271c0.771,4.189,0.014,8.471,0.793,12.932
	c0.699,4,0.24,11.938-0.396,15.648c-0.298,3.03-0.595,6.06-0.893,9.089c-1.734,8.655-3.185,16.835-5.95,24.27
	c-1.77,4.758-3.53,10.971-6.446,14.711c0,0.063,0,0.125,0,0.188c-0.032,0-0.065,0-0.1,0c1.356-3.873,2.711-7.747,4.067-11.619
	c2.164-6.583,3.344-13.612,4.859-20.803c0.973-4.619,0.839-9.243,1.686-14.148c0.574-3.331-0.01-6.972,0.595-10.589
	c0.59-3.52,0.348-10.688-0.198-14.056c-0.778-4.809-0.31-9.362-1.19-13.869c-2.568-13.159-4.926-25.08-11.007-34.764
	c-5.171-8.235-12.08-15.694-22.708-18.741c-5.875-1.685-13.51-0.803-16.461,2.717c-3.488,4.16-4.656,11.203,0.397,14.711
	c1.479,1.028,4.837,1.965,6.941,0.75c1.846-1.067,2.166-4.072-0.1-4.967c-1.919-0.758-4.452,0.598-3.471,2.718
	c0.284,0.775,1.03,1.268,2.083,1.312c0,0.031,0,0.062,0,0.093c-2.327,2.341-6.273-0.863-7.239-2.342
	c-4.368-6.692,2.67-15.302,9.917-15.18c0,0.031,0,0.062,0,0.093c-3.271,0.945-2.846,3.316-1.687,5.81
	c0.067,0.031,0.133,0.062,0.199,0.094c-2.581-6.696,4.715-6.195,10.114-4.591c7.445,2.211,12.892,6.765,16.958,12.181
	c7.079,9.43,10.308,21.409,13.189,34.952c0.781,3.668,0.594,7.336,1.289,11.245c0.626,3.52,1.038,9.793,0.396,13.587
	c-0.6,3.545,0.066,7.128-0.496,10.401c-0.885,5.166-0.643,10.286-1.586,15.086c-1.244,6.325-1.742,12.466-3.273,18.272
	c-0.462,1.937-0.925,3.873-1.388,5.81c0,0.062,0,0.125,0,0.188c-0.033,0-0.066,0-0.099,0c0.033-1.967,0.066-3.936,0.099-5.903
	c0.959-4.872,1.917-9.746,2.876-14.618c0.496-3.653,0.991-7.309,1.487-10.963c0.844-4.64,0.15-9.343,0.993-14.243
	c0-2.593,0-5.185,0-7.777c-0.715-4.284-0.306-8.191-1.19-11.994c-2.403-10.33-6.394-17.993-12.099-25.02
	c-4.515-5.56-13.848-13.398-25.485-11.338c-2.267,0.402-4.324,0.992-6.347,1.499c1.818-0.375,3.637-0.75,5.455-1.125
	c3.57-0.625,7.872,0.028,10.611,0.938c11.934,3.965,18.147,14.513,21.221,26.893c1.158,4.662-0.05,12.201,2.282,15.836
	c0,0.031,0,0.062,0,0.093c-1.654-0.617-2.304-2.717-3.471-3.841c-1.631-1.57-6.236-3.952-8.727-4.592
	c1.015,1.051,1.882,2.089,2.379,3.655c1.103,3.467,0.4,8.312,2.281,11.057c1.89,2.759,6.878,2.694,8.925,5.341
	c0.981,1.268,3.009,4.79,1.587,6.935c-2.187,3.296-9.841-3.894-10.809-0.75c-0.826-1.499-1.653-2.999-2.479-4.498
	c-1.7-2.735-3.564-5.39-5.554-7.872c-7.811-9.746-19.27-16.477-33.22-20.427c-3.492-0.989-7.244-1.332-11.106-1.968
	c-8.036-1.322-17.895-0.091-24.395,1.594c-18.491,4.792-31.486,13.259-40.161,27.268c-2.514,4.059-4.025,8.824-5.256,14.149
	c-0.166,1.562-0.331,3.123-0.496,4.685c-0.066,1.624-0.131,3.249-0.198,4.873c0.609,3.459,0.551,6.696,1.388,9.745
	c3.36,12.232,10.388,21.965,22.114,26.331c11.777,4.384,24.511,1.214,30.146-6.278c1.47-1.955,3.558-5.125,2.876-8.902
	c-1.192-6.597-5.596-9.71-12.099-11.244c-8.13-1.917-17.054,4.648-15.569,12.556c0.452,2.404,1.323,4.507,2.579,6.184
	c0.528,0.625,1.059,1.25,1.586,1.875c0.066,0.062,0.132,0.125,0.198,0.188c0,0.031,0,0.062,0,0.093
	c-4.08,0.106-7.885,0.118-11.007-1.031C8.171,471.798-1.396,447.549,5.95,429.548c5.689-13.941,18.453-23.537,34.013-28.111
	c4.138-1.216,8.547-1.551,13.388-2.249c2.371-0.342,5.317-0.218,7.537,0.093c2.281,0.219,4.562,0.438,6.842,0.656
	c8.577,1.724,15.695,4.243,22.114,7.871c14.072,7.953,24.823,19.595,30.047,35.889c1.581,4.932,1.738,9.993,2.677,15.836
	c0.713,4.433,0.525,11.556-0.198,15.836c-0.662,4.435-1.323,8.871-1.983,13.306c-0.892,3.717-1.785,7.435-2.678,11.151
	c-0.099-2.686-0.198-5.373-0.297-8.059c-0.791-4.734-1.248-9.167-2.579-13.306c-4.714-14.666-13.428-26.181-26.278-33.171
	c-10.076-5.48-21.976-0.827-26.478,6.372c-4.97,7.949,0.267,17.352,7.437,19.491c6.409,1.913,12.6-3.302,13.388-7.871
	c0.271-1.57-0.606-2.731-0.992-3.749c-0.065-0.031-0.132-0.062-0.198-0.094c0.399,1.144,1.196,2.669,0.793,4.498
	c-1.21,5.491-10.291,8.232-16.165,4.873c-8.515-4.872-6.89-16.905,0.497-21.646c-1.637,2.27-3.08,3.988-3.669,7.403
	c-0.952,5.507,5.095,10.135,10.015,7.309c2.384-1.369,4.04-5.902,1.091-7.872c-2.346-1.566-5.831-0.685-5.455,2.437
	c0.257-0.675,0.184-1.381,0.596-1.874c1.42-1.698,4.43,0.074,5.157,1.125c1.749,2.532-0.108,5.52-2.281,6.372
	c-5.116,2.005-8.046-2.315-8.727-5.997c-0.4-2.166,0.586-3.932,1.091-5.341c0.034,0,0.066,0,0.099,0
	c-1.021,4.953,0.086,11.05,6.248,8.714c0.066-0.094,0.132-0.188,0.199-0.281c-6.428,2.577-8.008-5.644-5.256-9.933
	c2.422-3.774,9.254-7.18,16.165-5.623c3.301,0.744,5.971,2.209,8.428,3.749c1.271,0.795,2.831,1.517,3.768,2.624
	c-3.087-1.468-7.646-2.05-11.403-0.75c-0.868,0.3-3.017,0.869-2.479,2.343c0.376,1.031,2.99,0.436,3.868,0.187
	c0.58-0.165,1.255-0.349,1.987-0.526c0.739-0.296,1.623-0.458,2.569-0.515c2.775-0.426,5.747-0.395,7.442,1.229
	c-1.495-0.718-4.708-1.396-7.442-1.229c-0.893,0.137-1.766,0.32-2.569,0.515c-1.034,0.413-1.784,1.083-1.987,2.119
	c0.166,0.157,0.33,0.313,0.496,0.469c1.414,0.499,3.817-0.786,5.354-1.031c3.041-0.484,5.989,0.71,7.735,1.688
	c10.376,5.8,15.814,20.7,18.346,34.107c0.742,3.931,1.068,10.873,0.297,15.087c-0.761,2.53-1.521,5.06-2.281,7.59
	c-0.033,0-0.066,0-0.1,0c0.43-3.092,0.859-6.185,1.289-9.277c0.066-2.748,0.133-5.498,0.199-8.246
	c-0.099-2.062-0.199-4.124-0.298-6.185c-1.258-7.015-2.848-12.267-6.544-16.772c-1.996-2.433-6.807-6.542-11.9-5.529
	c-3.039,0.605-6.467,4.755-3.868,8.058c1.112,1.415,6.001,1.938,4.661-0.655c-0.256-0.509-0.607-0.563-1.091-0.843
	c-0.198,0.031-0.396,0.062-0.595,0.094c-0.477,0.214-0.524,0.448-0.793,0.843c0.08,0.908,0.466,0.878,0.991,1.312
	c-5.83,1.383-4.258-9.778,2.281-8.527c-0.397,0.25-0.794,0.5-1.19,0.75c-0.146,0.516-0.195,0.993-0.099,1.593
	c0.099-0.469,0.198-0.937,0.297-1.406c1.804-1.133,3.966-0.244,5.652,0.469c4.117,1.738,6.443,4.953,8.231,8.901
	c5.634,12.438,2.915,31.646-0.992,43.854c-1.091,3.061-2.182,6.122-3.272,9.183c-0.066,0.031-0.133,0.062-0.199,0.093
	c0.731-2.507,0.971-4.351,1.785-6.559c4.392-11.916,7.926-28.21,0.497-39.45c-2.536-3.835-5.42-6.374-11.195-6.79
	c2.054,0.303,3.771,0.689,5.245,1.543c4.608,2.668,6.611,7.572,7.636,13.681c0.5,2.978-0.631,5.73,0.099,8.152
	c-0.718-0.542-0.846-1.345-1.388-2.062c-1.256-0.875-2.513-1.749-3.769-2.624c-0.033,0.031-0.065,0.062-0.099,0.093
	c1.097,1.713,0.185,5.006,1.091,7.122c0.713,1.664,3.218,1.807,4.165,3.28c0.433,0.671,0.994,2.578,0.297,3.373
	c-0.18,0.295-0.277,0.316-0.595,0.468c-1.591-0.167-3.033-1.946-4.364-1.593c-1.199,0.8,1.99,6.479,2.48,7.402
	c0,0.031,0,0.062,0,0.094c-0.331,0-0.661,0-0.992,0c-0.771,0.349-0.95,1.319-0.893,2.437c-0.033,0-0.066,0-0.099,0
	c-2.029-13.635-10.226-22.057-22.114-26.425c-17.846-6.557-36.654,2.74-41.749,14.806c-4.263,10.097-0.254,21.837,7.041,26.049
	c6.469,3.736,14.833,2.586,18.345-2.905c3.666-5.729-1.438-14.561-8.528-13.306c-4.314,0.763-8.3,4.69-6.544,10.12
	c0.443,1.37,1.398,2.314,1.982,3.467c0.265,0.25,0.53,0.5,0.794,0.749c-10.576,0.06-15.65-13.786-11.702-23.612
	c3.846-9.573,17.097-18.302,32.427-14.618c3.396,0.815,6.612,1.943,9.322,3.467c6.5,3.657,11.762,9.187,14.775,16.117
	c2.633,6.057,2.207,16.124,0.297,22.677c-4.411,15.138-11.766,28.27-19.436,40.573c-2.447,3.924-4.74,7.833-7.239,11.619
	c-0.958,1.468-1.917,2.937-2.876,4.404c-0.033,0.094-0.065,0.188-0.099,0.281c1.95,0,3.901,0,5.851,0
	c12.303-18.46,24.591-37.795,34.311-58.565c2.876-5.715,5.752-11.432,8.627-17.147c5.317-11.548,10.618-23.177,14.777-35.607
	c1.627-4.867,2.79-9.686,4.263-14.806c6.029-20.939,7.713-53.549,1.687-75.994c-4.103-15.278-9.391-27.396-15.47-40.387
	c-2.928-6.256-6.888-12.307-10.512-18.085c-4.858-8.026-9.718-16.055-14.577-24.081c-4.996-7.887-9.839-15.533-14.181-24.082
	c-4.821-9.497-8.997-19.646-11.8-30.923c-1.427-5.742-1.145-13.688,0.992-18.365c2.733-5.98,8.452-10.612,15.172-12.837
	c10.345-3.426,20.834,1.208,25.188,7.027c5.39,7.203,2.788,21.874-8.131,21.74c0.622-0.9,1.673-1.493,2.181-2.53
	c1.879-3.836-0.591-7.44-3.768-8.34c-5.458-1.544-9.507,4.491-7.438,9.183c1.922,4.355,8.86,5.753,13.883,3.187
	c5.08-2.595,8.975-10.125,6.842-17.897c-3.624-13.205-23.286-19.785-37.385-11.433c-4.033,2.39-6.995,5.922-9.122,10.12
	c-0.629,1.655-1.257,3.311-1.885,4.966c0.177-0.58,0.039-1.269-0.099-1.781c-0.391-0.219-0.55-0.282-1.091-0.187
	c0.542-0.973,2.988-4.104,2.579-5.247c0-0.062,0-0.125,0-0.188c-1.445,0.08-2.222,1.083-3.471,0.843
	c-0.166-0.125-0.331-0.25-0.496-0.375c-0.602-3.329,2.751-2.712,3.868-4.498c0.858-1.373,0.572-3.953,1.289-5.248
	c-0.931,0.291-2.394,0.929-2.975,1.593c-0.452,0.515-0.522,1.081-1.19,1.406c0.809-1.448,0.241-4.155,0.694-5.997
	c1.303-5.299,4.172-10.447,11.106-10.401c-3.457-1.316-7.732,2.573-8.924,4.029c-4.242,5.182-6.094,13.3-4.264,22.489
	c0.732,3.681,2.204,8.26,2.181,11.994c-1.28-1.498-1.581-6.399-2.082-8.715c-2.405-11.121-1.415-25.357,3.967-32.608
	c1.723-2.322,5.215-5.874,9.619-4.592c0.233,0.333,0.36,0.459,0.397,1.031c0.033,0,0.065,0,0.099,0
	c-0.013-0.851-0.246-1.009-0.695-1.406c-0.066,0-0.132,0-0.198,0c0-0.031,0-0.062,0-0.094c3.815-0.064,5.72,5.343,2.083,6.653
	c-0.297-0.062-0.595-0.125-0.892-0.188c-0.066,0-0.133,0-0.199,0c0.266-0.156,0.53-0.312,0.794-0.469
	c-0.033-0.25-0.066-0.5-0.099-0.75c-0.034-0.093-0.066-0.187-0.1-0.28c-0.364-0.031-0.728-0.062-1.091-0.094
	c-0.165,0.188-0.331,0.375-0.496,0.562c-0.873,2.061,2.904,1.39,3.571,0.562c1.971-2.451-0.378-5.683-2.777-6.185
	c-4.562-0.955-8.03,2.294-9.718,4.311c-5.58,6.663-6.542,16.716-6.148,28.673c-0.034,0-0.067,0-0.1,0
	c-0.364-1.687-0.728-3.373-1.091-5.06c-0.57-2.851,0.286-6.477,0.793-8.808c1.68-7.716,4.081-13.457,7.933-18.929
	c2.456-3.486,5.491-7.239,10.115-8.621c3.787-1.131,5.675,0.884,8.627,0.937c0.128-0.244,0.178-0.327,0.198-0.75
	c-1.802-1.966-5.377-2.479-8.627-1.5c3.479-2.875,8.812,2.068,11.603,0.938c0.333-2.053-4.162-3.397-6.744-2.999
	c-1.124,0.25-2.248,0.5-3.372,0.75c0-0.031,0-0.063,0-0.093c1.488-0.782,2.976-1.562,4.463-2.343
	c5.205-2.156,10.54-1.58,14.478,1.312c2.736,2.008,4.745,10.19-1.19,10.214c3.025,1.224,4.902-3.812,3.966-6.466
	c0.073,0.06,0.116,0.127,0.164,0.194c-0.394-1.132-0.897-2.167-1.354-2.911c0.827,0.499,1.802,1.441,2.182,2.342
	c0.066,0.031,0.132,0.062,0.198,0.093c-0.515-1.358-1.856-2.455-2.975-3.28c-5.724-4.224-12.946-3.838-19.139-0.281
	c-9.914,5.696-16.265,14.586-19.932,26.238c-0.939,2.986-1.905,6.575-1.884,10.307c-0.032,0-0.065,0-0.099,0
	c-0.464-3.778-0.926-7.559-1.388-11.338c-0.816-4.717-0.314-11.88,0.495-16.117c0.7-3.665,1.016-6.913,2.083-10.12
	c4.283-12.882,12.513-21.009,23.799-27.268c9.013-4.998,23.88-7.557,36.394-3.842c13.629,4.047,24.274,13.195,27.271,27.362
	c2.527,11.945-5.166,24.569-11.899,28.86c-2.379,1.516-8.255,4-12.495,2.062c-0.065,0-0.132,0-0.199,0
	c1.407-1.621,3.016-2.86,3.769-5.154c2.278-6.94-4.901-12.46-12-10.776c-4.207,0.999-7.325,3.282-8.229,7.403
	c-0.43,1.958,0.218,3.929,0.792,5.247c3.029,6.951,13.344,11.107,23.602,7.778c11.754-3.815,16.968-13.624,19.237-26.519
	C157.354,180.386,151.993,170.861,148.151,166.052z M126.038,436.95c1.455,2.187,2.909,4.374,4.363,6.559c0,0.032,0,0.063,0,0.094
	c-0.75-0.188-1.528-0.151-2.281,0C127.426,441.386,126.732,439.168,126.038,436.95z M61.085,180.014
	c-0.445-0.204-0.834-0.302-1.587-0.28c0-0.032,0-0.063,0-0.094c1.189-1.468,2.38-2.937,3.57-4.405
	C62.407,176.828,61.746,178.421,61.085,180.014z"/>
<path d="M107.459,189.766c0.097,0.282,0.186,0.567,0.267,0.857C107.672,190.281,107.625,190,107.459,189.766z"/>
<path d="M82.901,50.702c0,0.094,0,0.188,0,0.282c0.033,0,0.066,0,0.1,0C82.967,50.89,82.935,50.796,82.901,50.702z"/>
<path d="M83.001,51.92c0,0.094,0,0.188,0,0.281c0.032,0,0.065,0,0.099,0C83.066,52.108,83.033,52.015,83.001,51.92z"/>
<path d="M83.298,52.67c-0.034-0.094-0.066-0.187-0.1-0.281c0,0.094,0,0.187,0,0.281C83.232,52.67,83.265,52.67,83.298,52.67z"/>
<path d="M93.413,127.165c-0.165-0.031-0.331-0.062-0.496-0.093c0.165,0.062,0.331,0.125,0.496,0.187
	C93.413,127.228,93.413,127.196,93.413,127.165z"/>
<path d="M108.883,189.947c-0.133-0.219-0.265-0.437-0.397-0.656c0.067,0.188,0.132,0.375,0.198,0.562
	C108.75,189.884,108.817,189.916,108.883,189.947z"/>
<path d="M109.279,190.79c-0.066-0.156-0.132-0.312-0.198-0.468c0.032,0.093,0.066,0.187,0.099,0.28c0,0.062,0,0.125,0,0.188
	C109.213,190.79,109.246,190.79,109.279,190.79z"/>
<path d="M102.932,191.633c0.674,0.28,0.989,0.767,0.993,1.687c0-0.374,0-0.749,0-1.125c-0.366-0.889-1.232-1.259-2.579-1.218
	c-0.718,0.303-1.525,0.403-1.983,0.938c-1.244,1.452-0.688,4.463,0.892,5.153c-0.57-0.676-1.108-1.274-1.289-2.343
	C98.671,192.989,101.106,190.606,102.932,191.633z"/>
<path d="M109.378,191.258c0.033,0,0.065,0,0.099,0c-0.034-0.094-0.066-0.188-0.099-0.281
	C109.378,191.071,109.378,191.165,109.378,191.258z"/>
<path d="M109.478,191.54c0.034,0,0.066,0,0.1,0c-0.034-0.094-0.066-0.188-0.1-0.282C109.478,191.352,109.478,191.446,109.478,191.54
	z"/>
<path d="M109.577,191.821c0.032,0,0.065,0,0.099,0c-0.034-0.094-0.067-0.188-0.099-0.281
	C109.577,191.633,109.577,191.727,109.577,191.821z"/>
<path d="M109.775,192.57c0.033,0,0.066,0,0.099,0c-0.066-0.25-0.132-0.5-0.198-0.75C109.708,192.07,109.742,192.32,109.775,192.57z"
	/>
<path d="M102.04,204.377c4.635-0.846,7.153-4.097,8.033-8.621c0.179-0.926,0.182-2.456-0.199-3.186
	c0.314,4.91-1.318,8.744-5.057,10.307c-4.707,1.969-10.538-0.414-11.503-4.123c-0.344-1.322,0.253-2.359,0.496-3.374
	C90.18,198.82,97.305,205.241,102.04,204.377z"/>
<path d="M100.255,197.068c0.658,0.766,3.077,1.418,4.363,0.656c0.066,0,0.132,0,0.199,0c0-0.031,0-0.062,0-0.093
	C102.86,197.953,101.723,197.658,100.255,197.068z"/>
<path d="M104.817,197.537c0,0.031,0,0.062,0,0.094c0.198-0.094,0.396-0.188,0.595-0.281c-0.066,0-0.132,0-0.198,0
	C105.081,197.412,104.949,197.474,104.817,197.537z"/>
<path d="M71.596,458.69c-0.132,0.156-0.264,0.312-0.396,0.469C71.606,458.983,71.55,458.935,71.596,458.69z"/>
<path d="M97.379,468.154c-0.033-0.094-0.065-0.187-0.099-0.281c0,0.094,0,0.187,0,0.281
	C97.313,468.154,97.346,468.154,97.379,468.154z"/>
<path d="M94.305,476.306c0.133,0.032,0.264,0.062,0.397,0.094c0-0.031,0-0.062,0-0.094
	C94.569,476.306,94.438,476.306,94.305,476.306z"/>
</svg>
