<?xml version="1.0" encoding="utf-8"?>
<!-- Generator: Adobe Illustrator 15.0.0, SVG Export Plug-In . SVG Version: 6.00 Build 0)  -->
<!DOCTYPE svg PUBLIC "-//W3C//DTD SVG 1.1//EN" "http://www.w3.org/Graphics/SVG/1.1/DTD/svg11.dtd">
<svg version="1.1" id="Layer_1" xmlns="http://www.w3.org/2000/svg" xmlns:xlink="http://www.w3.org/1999/xlink" x="0px" y="0px"
	 width="591px" height="376.598px" viewBox="0 0 591 376.598" enable-background="new 0 0 591 376.598" xml:space="preserve">
<path d="M8.603,40.498c4.92-3.504,8.982-8.237,13.894-11.822c1.181-1.281,2.365-2.562,3.547-3.844
	c4.869-4.867,9.21-9.995,13.006-15.962c1.729-2.718,2.382-6.104,4.139-8.72c-0.296-0.049-0.591-0.099-0.887-0.148
	c-0.435,4.131-3.884,8.343-5.912,11.233c-6.797,9.689-15.312,18.521-24.831,25.421c-2.588,1.875-9.723,5.965-11.232,8.277
	c-0.099,0-0.197,0-0.296,0c0,0.493,0,0.985,0,1.479c0.197,0,0.394,0,0.591,0C2.211,43.957,6.2,42.21,8.603,40.498z"/>
<path d="M21.018,46.706c1.189,0.519,2.479,0.298,3.252,1.183c0.098,0.049,0.197,0.099,0.295,0.147
	c-2.286,1.417-4.986,1.412-7.686,2.514c-4.656,1.898-11.259,4.041-16.85,4.434c0,0.591,0,1.182,0,1.773
	c2.663-0.28,5.357-1.275,7.686-2.069c4.648-1.585,8.957-1.77,13.302-3.547c1.594-0.653,3.487-1.716,5.321-2.07
	c0.296,0.296,0.591,0.591,0.887,0.887c0.099,0.05,0.197,0.1,0.295,0.148c-4.169,2.58-10.554,3.254-15.371,4.877
	c-1.576,0.197-3.153,0.394-4.729,0.591c-2.121,0.722-4.884,1.595-7.39,1.773c0,0.394,0,0.789,0,1.182
	c7.161-0.675,15.271-2.585,21.283-5.025c2.055-0.834,5.03-0.652,6.503-2.069c3.31,0.039,5.731,8.269,6.208,11.528
	c0.436,0.173,0.496,0.251,1.182,0.296c0.044-5.183-1.033-10.424-4.138-12.415c0-0.197,0-0.396,0-0.593
	c4.647-0.564,13.328-5.145,16.849-7.39c5.189-3.305,10.489-5.66,15.372-9.161c2.596-1.861,4.735-4.659,7.095-6.799
	c1.416-1.283,3.31-2.3,4.434-3.843c3.125-4.285,6.98-8.112,10.05-12.415c2.428-3.402,4.13-7.338,6.799-10.494
	C90.78,0.099,89.894,0.05,89.006,0c-7.817,14.544-19.392,27.655-32.812,36.655c-4.646,3.116-10.914,6.166-15.962,8.572
	c-2.716,1.295-7.082,1.819-9.164,3.843c-1.207-0.062-1.155-0.365-2.069-0.591c0-0.197,0-0.395,0-0.591
	c4.806-0.998,11.539-4.929,15.371-7.391c11.458-7.358,21.432-13.901,29.264-24.831C76.77,11.292,81.608,6.007,82.798,0
	c-0.493,0-0.985,0-1.478,0c-7.557,17.174-20.435,28.478-35.472,38.134c-4.193,2.691-9.027,4.981-13.598,7.094
	c-1.411,0.651-3.453,0.701-4.434,1.773c-2.164-0.288-3.966-1.964-5.912-2.66c-5.324-1.908-18.887-0.441-21.579,2.661
	c-0.378,0.382-0.346,1.268-0.296,2.068C4.817,46.455,14.345,43.8,21.018,46.706z"/>
<path d="M590.05,262.199c-0.297-2.168-0.594-4.336-0.889-6.503c-1.333-3.952-2.141-8.117-3.843-11.824
	c-3.64-7.924-9.081-14.08-13.894-20.691c-11.343-15.583-29.603-25.033-48.185-33.403c-6.01-1.971-12.021-3.941-18.03-5.912
	c-1.973-0.395-3.94-0.789-5.911-1.183c-8.541-3.015-18.772-3.065-27.787-5.912c-7.191-0.887-14.388-1.773-21.578-2.661
	c-2.386-0.731-5.248,0.065-7.392-0.591c-3.377-1.034-8.272,0.403-11.527-0.591c-4.777,0-9.56,0-14.337,0
	c-3.684,0-8.854-0.653-11.973,0.296c-2.043,0.621-5.068-0.232-6.8,0.295c-1.676,0-3.35,0-5.023,0
	c-4.633,0.395-9.265,0.789-13.896,1.183c0-0.049,0-0.099,0-0.146c2.271-1.04,4.653-1.011,7.097-1.921
	c4.807-1.797,10.512-2.899,15.369-4.73c2.326-0.876,4.454-0.609,6.802-1.478c9.047-3.355,19.731-3.992,29.264-7.096
	c3.872-1.26,8.146-0.903,11.824-2.068c5.044-1.599,10.77-0.557,15.668-2.069c6.896-0.492,13.795-0.985,20.689-1.479
	c2.787-0.015,6.601,0.399,8.868-0.295c2.003-0.612,6.72-0.179,8.276,0.295c2.562,0,5.124,0,7.687,0
	c4.236,0.297,8.476,0.593,12.71,0.888c0-0.049,0-0.1,0-0.148c-3.231-1.881-8.997-0.408-13.006-1.626
	c-2.185-0.664-5.139,0.184-7.687-0.591c-2.021-0.615-5.454-0.296-7.98-0.296c-6.504,0.099-13.008,0.197-19.511,0.296
	c-5.729,0.125-14.536,0.531-19.51,2.069c-0.888,0-1.772,0-2.66,0c-2.958,0.905-6.867,0.852-9.755,1.772
	c-1.183,0.099-2.364,0.197-3.547,0.295c-3.771,1.189-8.479,1.423-12.119,2.661c-0.985,0.1-1.973,0.197-2.957,0.295
	c-4.657,1.564-10.263,2.156-14.78,3.843c-3.849,1.438-7.697,1.246-11.527,2.661c-10.644,3.932-22.4,6.121-32.812,10.051
	c-9.002,3.396-20.544,2.853-29.561,5.912c-2.79,0.947-9.076,0.749-10.937,2.365c-1.854-0.266-2.065-1.797-3.252-2.661
	c-2.495-1.814-4.857-3.586-9.163-3.547c-0.099,0.1-0.197,0.197-0.296,0.296c0.279,1.407,5.76,6.182,7.094,6.503
	c-0.703,1.92-13.771,3.494-16.553,4.729c-6.189,2.749-13.361,3.872-19.806,6.504c-7.036,2.874-14.451,5.578-21.579,8.276
	c-4.041,0.985-8.081,1.972-12.12,2.957c-1.447-1.747-3.467-3.062-4.729-5.025c-0.789-1.773-1.576-3.547-2.365-5.321
	c0.148-2.176,2.839-1.926,4.434-2.66c4.629-2.267,9.262-4.532,13.893-6.799c10.757-6.867,25.832-17.231,25.718-34.585
	c2.074-0.224,4.141-1.395,5.912-2.068c3.564-1.356,7.283-2.028,10.643-3.251c1.732-0.633,3.086-0.251,4.729-0.888
	c6.048-2.341,13.196-3.44,19.51-5.617c4.115-1.417,8.269-0.893,12.415-2.363c2.79-0.991,6.084-0.695,9.163-1.774
	c2.44-0.854,5.523-0.516,8.276-1.478c8.763-3.062,21.062-2.244,31.333-3.547c5.986-0.76,14.222,1.131,20.396,1.183
	c0-0.049,0-0.099,0-0.148c-3.457-1.5-23.192-3.715-28.082-2.217c-1.479,0-2.955,0-4.436,0c-3.744,0.295-7.487,0.591-11.231,0.886
	c-3.727,1.145-8.229,0.542-12.119,1.774c-9.1,2.876-19.242,3.159-27.786,6.208c-5.954,2.123-12.135,2.922-17.735,5.025
	c-1.641,0.615-3.604,0.395-4.729,1.478c-0.395,0-0.789,0-1.184,0c0-0.049,0-0.099,0-0.147c3.785-2.38,8.279-3.6,12.118-6.061
	c13.197-8.452,26.733-16.1,37.542-26.898c3.156-3.153,11.196-11.323,12.12-15.963c-0.099,0-0.197,0-0.296,0
	c-6.603,15.058-27.218,27.312-40.792,36.063c-4.021,2.593-8.634,3.905-12.712,6.503c-5.229,3.331-11.212,5.539-17.145,8.277
	c-1.924,0.888-4.044,2.741-6.503,2.956c-0.098-1.182-0.197-2.365-0.295-3.548c6.097-2.798,11.578-7.389,16.851-11.232
	c2.338-1.706,4.17-4.504,6.502-6.208c6.644-4.851,13.479-11.103,18.329-17.736c1.674-1.675,3.35-3.35,5.023-5.024
	c4.036-5.525,8.668-10.367,12.711-15.962c6.259-8.658,13.845-16.76,20.103-25.422c7.254-10.045,15.931-19.086,26.014-26.309
	c4.188-3,8.981-7.39,15.962-7.39c0-0.05,0-0.1,0-0.148c-2.321-0.885-5.544,0.978-7.094,1.626
	c-6.506,2.716-10.495,6.596-15.666,10.344c-11.138,8.073-20.324,19.872-28.378,31.038c-2.736,3.794-6.425,7.174-9.163,10.938
	c-2.664,3.662-5.971,6.777-8.573,10.346c-0.929,1.277-1.759,2.848-2.955,3.843c-0.05,0.1-0.099,0.197-0.147,0.295
	c-0.048,0-0.1,0-0.146,0c0.414-1.861,1.924-3.403,2.659-5.023c1.473-3.238,1.846-6.75,2.957-10.348
	c1.566-5.071-0.122-12.876-1.479-16.554c-0.812-2.201-0.853-3.901-1.773-5.912c-5.52-12.029-15.557-19.474-26.309-26.309
	c-3.137-1.993-7.034-3.504-10.348-5.025c-1.31-0.603-2.889-0.552-3.842-1.478c0,0,0.514-6.942,0.886-7.687
	c0.92-1.833-0.081-6.005,0.593-7.39c1.373-2.824-0.006-10.945,0-14.484c-0.888,0-1.774,0-2.661,0
	c0.098,4.779,0.197,9.56,0.295,14.337c0,1.527,0,3.055,0,4.582c-0.813,2.686-1.172,6.463-1.183,9.459
	c-0.099,0.1-0.197,0.197-0.296,0.297c-1.773-0.493-3.547-0.986-5.32-1.479c0.017-4.184,0.591-8.182,0.591-12.858
	c0-1.231,0-2.463,0-3.694c-0.492-3.547-0.985-7.095-1.478-10.643c-0.493,0-0.985,0-1.478,0c0.718,7.604,2.409,18.032,0.887,26.604
	c-2.207-0.438-3.951-1.465-6.503-1.479c0.936,0.973,4.979,1.979,6.503,2.069c-1.542,16.383-8.66,30.312-16.258,41.088
	c-2.03,2.878-5.06,5.193-7.095,7.981c-1.755,2.404-4.121,5.061-6.503,6.799c-4.247,3.099-8.533,6.293-13.006,9.164
	c-1.62,1.04-4.275,1.385-5.321,2.957c-0.197,0-0.395,0-0.591,0c-0.022-5.538,1.592-13.484,0-18.623
	c-1.372-4.422-1.483-9.031-3.252-13.007c-5.274-11.852-12.625-24.454-22.466-31.629c-2.545-1.856-5.093-3.444-7.686-5.321
	c-0.493-0.689-0.986-1.379-1.478-2.069c-2.144-1.51-4.626-2.144-6.799-3.547c-6.182-3.992-15.495-12.811-17.145-20.988
	c-1.872,0-3.744,0-5.617,0c0,0.05,0,0.1,0,0.148c1.71,2.468,2.199,5.833,3.843,8.424c1.773,2.365,3.547,4.729,5.32,7.094
	c0.099,0.05,0.197,0.1,0.296,0.148c0,0.049,0,0.099,0,0.147c-3.938-0.764-8.847-2.19-12.71-3.547
	c-3.153-0.492-6.308-0.984-9.459-1.479c-1.182,0-2.365,0-3.547,0c-4.416-1.363-19.371-0.724-23.353,0.591
	c-1.281,0.099-2.562,0.197-3.843,0.296c-3.336,1.067-7.26,1.101-10.642,2.365c-17.229,6.447-30.003,11.248-39.905,25.127
	c-4.967,6.963-9.749,14.691-9.754,26.604c-0.001,2.313-0.363,3.898,0.295,5.912c0.631,1.927-0.02,3.521,0.591,5.321
	c6.297,18.518,16.947,28.667,33.994,36.359c3.252,0.984,6.504,1.97,9.755,2.956c1.872,0.196,3.746,0.394,5.617,0.591
	c4.715,1.477,15.3,2.347,20.692,0.591c1.181,0,2.365,0,3.547,0c4.437-1.385,9.321-1.863,13.302-3.252
	c1.342-0.468,5.619,0.201,6.799,0.591c4.681,0,9.362,0,14.041,0c9.664-0.026,18.799-2.094,27.047-3.547
	c-0.045,0.906-0.349,2.995-0.886,3.547c0,0.197,0,0.396,0,0.591c11.403-0.001,17.273-2.692,22.465-9.754
	c0.677-0.92,2.214-0.936,2.957-1.772c2.916,0.409-0.843,6.208-1.478,7.095c-2.382,3.318-8.095,7.454-13.598,7.39
	c0,0.197,0,0.395,0,0.591c3.293,0.32,7.109,0.957,10.938,0.592c0,0.099,0,0.196,0,0.295c-2.185,1.434-3.506,5.525-5.025,7.686
	c-2.326,3.308-8.345,10.087-11.528,12.415c-24.209,17.694-50.667,31.12-93.115,30.743c0-0.099,0-0.197,0-0.296
	c6.236-3.496,10.237-15.838,5.913-23.648c-2.956,0.493-5.913,0.985-8.868,1.479c-2.463,0.789-4.927,1.576-7.39,2.365
	c-0.361-8.662-7.711-20.683-11.528-26.604c-11.782-18.272-30.76-28.996-52.324-37.542c-5.385-2.134-11.57-1.841-17.145-3.842
	c-1.98-0.711-4.178-0.268-5.912-0.887c-1.576,0-3.153,0-4.729,0c-3.588-1.155-8.08-0.008-12.12,0
	c-0.788-3.351-1.577-6.7-2.365-10.051c-0.049,0-0.099,0-0.148,0c-0.049,3.695-0.099,7.391-0.148,11.085
	c0,12.756,2.848,20.523,6.799,29.117c2.078,4.52,3.34,8.992,5.912,13.006c9.496,14.825,23.069,27.681,37.837,37.246
	c11.392,7.379,23.831,12.907,35.472,19.954c-1.183,2.315-2.365,4.63-3.547,6.947c-3.944,6.108-9.213,12.041-15.371,15.962
	c-2.481,1.579-5.909,2.273-8.868,3.251c-1.675,0.197-3.351,0.394-5.025,0.591c-2.158-5.241-4.428-10.708-7.39-15.371
	c-1.566-2.465-4.619-5.604-5.321-8.572c5.898-3.094,1.485-14.292-4.729-11.824c-1.235,0.49-2.183-0.241-2.956,0.591
	c-2.141-0.177-5.87-5.869-7.39-7.39c-5.197-5.2-10.856-10.752-16.849-15.076c-2.31-1.667-6.439-3.254-7.981-5.617
	c-0.197,0-0.394,0-0.591,0c0,1.084,0,2.168,0,3.252c8.216,4.407,15.246,10.514,21.579,16.85c2.759,3.055,5.518,6.109,8.277,9.164
	c-0.491,1.493-1.994,2.113-2.66,3.547c-0.197,0-0.395,0-0.591,0c-0.721-2.775-5.5-6.779-7.39-8.867
	c-5.761-6.36-12.009-12.719-19.066-17.736c-0.049,0-0.099,0-0.148,0c-0.012,4.945,4.481,6.753,7.39,8.868
	c5.285,3.842,10.339,9.464,14.189,14.78c1.214,1.678,3.572,3.076,4.138,5.32c0.009,0.007-0.478,3.233-0.886,4.14
	c-1.277,2.821-0.337,7.989,0.886,10.346c2.342,4.506,6.443,7.982,10.642,10.642c1.462,0.925,3.641,1.089,4.729,2.365
	c1.789,1.782,4.188,12.213,5.321,15.372c0.554,1.543,0.206,3.627,1.183,4.729c0,0.197,0,0.395,0,0.592
	c-17.441-0.067-32.834-8.189-40.202-18.327c-2.258-3.107-6.652-6.938-7.094-11.529c-0.049,0-0.099,0-0.148,0
	c-0.049,1.626-0.099,3.252-0.148,4.877c0,7.973,1.447,8.981,5.321,12.859c8.883,8.891,25.105,18.729,43.158,17.145
	c2.222,6.104,3.403,29.414,1.183,36.654c-0.098,1.577-0.197,3.155-0.295,4.729c-1.905,6.027-1.981,12.523-4.138,18.326
	c-4.337,11.667-8.652,22.687-15.076,32.222c-2.576,3.824-6.218,7.012-8.868,10.644c-3.143,4.309-15.683,15.396-21.283,16.553
	c0,0.594,0,1.184,0,1.774c2.1-0.438,3.745-1.95,5.321-2.957c8.405-5.368,15.226-10.375,20.988-18.327
	c2.461-3.396,5.355-6.745,7.686-10.347c5.041-7.787,8.39-16.994,12.119-26.014c2.195-5.309,2.595-11.294,4.434-16.85
	c0.197-1.774,0.394-3.548,0.591-5.32c1.756-5.671,1.479-13.281,1.479-20.396c0-1.771,0-3.547,0-5.32
	c-0.338-1.102,0.136-3.319-0.296-4.729c-0.493-3.548-0.985-7.095-1.479-10.642c2.365-0.296,4.73-0.591,7.095-0.887
	c0.69,4.041,1.38,8.08,2.069,12.119c1.075,3.512-0.154,7.804,0.887,11.231c0,2.955,0,5.913,0,8.869
	c0,7.749-0.346,16.207-2.365,22.465c-0.296,1.974-0.591,3.941-0.887,5.912c-1.921,5.461-2.562,11.302-4.729,16.556
	c-7.195,17.439-14.156,29.87-26.013,42.564c-5.568,5.961-11.52,9.936-18.623,14.483c-2.335,1.498-5.229,3.814-8.277,4.436
	c0,1.577,0,3.152,0,4.729c1.975-0.416,3.712-1.789,5.321-2.658c5.135-2.786,9.887-5.301,14.485-8.574
	c1.815-1.292,3.253-3.438,5.025-4.729c17.791-12.974,27.128-37.876,35.176-60.894c2.008-5.743,1.442-12.163,3.251-18.032
	c0.197-3.351,0.395-6.698,0.591-10.051c0.928-3.031,0.297-8.083,0.296-11.676c-0.001-7.063-0.518-15.055-2.364-20.84
	c-0.722-2.265-0.449-4.545-1.183-6.504c3.053-0.985,6.109-1.972,9.164-2.957c11.471-5.293,18.943-13.347,25.717-23.354
	c2.48-3.663,7.515-10.854,7.981-15.962c2.526,0.559,5.149,2.228,7.39,3.252c4.828,2.206,10.069,3.498,14.78,5.616
	c7.072,3.18,14.688,4.509,21.579,7.686c12.562,5.792,21.071,14.515,26.899,27.195c2.203,4.792,4.906,16.563,2.661,23.647
	c-1.215,3.836-1.379,8.002-2.956,11.526c-4.182,9.358-8.845,17.614-14.485,25.425c-3.143,4.352-9.046,8.862-11.528,13.301
	c-1.549-0.277-1.356-1.633-2.365-2.364c-1.483-1.075-7.472-3.297-10.937-2.069c-6.814,2.417-9.603,5.494-12.12,12.12
	c-0.57,1.5-0.048,2.768-0.591,4.436c-0.549,1.688-0.803,7.358,0.296,8.57c0.004,2.221-10.548,9.932-12.711,10.348
	c-6.162-13.877-6.037-31.729,2.069-43.748c3.717-5.515,9.185-9.332,15.076-12.711c1.014-0.582,5.321-2.489,3.547-3.845
	c-1-0.87-4.615-0.146-5.617,0.296c-3.021,1.334-6.244,2.887-8.868,4.729c-0.887,0.888-1.773,1.774-2.66,2.659
	c-5.439,3.955-8.678,10.312-11.233,17.146c-0.85,2.273-0.41,4.347-1.182,6.8c-0.818,2.596-1.507,7.903-0.591,10.938
	c0.732,2.432-0.145,4.558,0.591,6.798c0.689,2.464,1.379,4.927,2.069,7.392c0.896,2.012,2.476,4.245,2.956,6.506
	c-3.26,1.535-6.167,5.067-9.755,5.91c0,0.195,0,0.395,0,0.592c0.197,0,0.395,0,0.592,0c0.816-1.275,8.062-5.201,9.754-5.912
	c5.359,11.912,16.877,17.714,29.56,22.465c3.559,1.335,8.045,0.605,11.824,1.773c5.055,1.562,15.715-0.197,19.51-1.479
	c5.275-1.776,10.208-2.312,14.484-5.024c12.309-7.807,21.424-16.378,27.787-30.149c1.52-3.29,2.656-7.062,3.843-10.347
	c0.96-2.654,0.575-5.009,1.478-7.687c1.745-5.178,3.471-21.579,1.478-28.083c-0.099-1.478-0.197-2.955-0.295-4.435
	c-0.788-3.843-1.577-7.687-2.365-11.526c-2.997-8.048-5.969-16.28-10.346-23.058c-2.007-3.11-4.67-5.936-6.799-8.869
	c-4.566-6.294-10.204-11.145-16.554-15.667c-1.586-1.129-3.138-3.083-5.321-3.547c0-0.049,0-0.1,0-0.148s0-0.099,0-0.147
	c3.537,0.419,7.361,3.05,10.346,4.435c8.014,3.718,15.961,7.064,23.648,10.642c16.227,7.553,32.852,13.512,50.252,20.102
	c5.323,2.018,11.235,2.617,16.553,4.435c1.873,0.295,3.745,0.592,5.617,0.889c4.098,1.352,9.327,1.334,13.598,2.658
	c2.069,0.1,4.137,0.197,6.208,0.297c1.34,0.416,8.31,0.84,10.05,0.297c1.583-0.494,3.858-0.031,5.617-0.594
	c2.562-0.591,5.123-1.182,7.686-1.771c0-0.049,0-0.1,0-0.147c0-0.05,0-0.099,0-0.146c-3.055,0.592-6.109,1.184-9.163,1.772
	c-1.184,0-2.365,0-3.548,0c-4.23,1.288-19.418-0.606-23.057-1.772c-5.617-1.28-11.234-2.562-16.85-3.842
	c-3.417-1.269-8.997-3.537-12.71-3.845c0-0.049,0-0.099,0-0.147c1.215-0.474,8.009,0.871,9.458,1.33
	c7.291,0.689,14.583,1.381,21.875,2.069c1.976,0.263,6.108,0,9.016,0c10.051,0,22.408-0.062,29.708-2.954
	c2.813-1.115,7.745-3.608,10.348-4.141c0-0.049,0-0.099,0-0.146c0-0.051,0-0.1,0-0.147c-3.041,0.333-6.401,2.464-9.164,3.547
	c-3.928,1.54-8.608,1.067-12.71,2.365c-2.443,0.772-19.192,0.743-21.581,0c-4.336-0.197-8.672-0.394-13.007-0.591
	c-3.017-0.926-6.818-0.176-10.05-1.184c-7.164-2.23-15.388-2.115-22.17-4.434c-2.265-0.394-4.532-0.789-6.799-1.183
	c-18.25-7.151-35.26-16.11-52.913-24.24c-5.306-2.443-10.737-4.849-16.258-7.39c-2.229-1.026-4.729-2.74-7.39-3.252
	c0-0.049,0-0.099,0-0.146c1.494-0.506,5.289,0.562,6.799,1.034c6.009,0.689,12.021,1.38,18.031,2.068
	c4.681,0.1,9.362,0.197,14.042,0.296c6.945-0.099,13.893-0.197,20.84-0.296c5.025-0.491,10.05-0.984,15.075-1.478
	c6.508,11.646,41.667,13.445,57.051,7.686c8.303-3.106,15.157-5.973,21.579-10.642c1.676-1.971,3.35-3.941,5.023-5.912
	c0.593-1.38,1.185-2.759,1.773-4.139c1.972-0.197,3.942-0.395,5.912-0.591c4.299-1.392,9.893-0.875,14.188-2.365
	c1.479-0.099,2.955-0.197,4.435-0.295c4.263-1.358,9.921-0.59,14.188-2.069c0.887,0,1.772,0,2.66,0
	c2.473-0.786,6.099-0.324,8.573-1.183c1.083,0,2.167,0,3.251,0c1.936-0.614,5.049-0.546,7.094-0.888c1.38,0,2.76,0,4.139,0
	c4.225-1.339,10.688-0.887,15.521-0.887c5.672,0,10.945,0,16.404,0c2.069,0,4.142,0,6.209,0c6.404,0.591,12.81,1.184,19.215,1.773
	c4.435,0.789,8.867,1.577,13.302,2.364c8.614,2.949,18.033,4.337,25.126,8.869c5.292,3.383,10.109,7.042,15.076,10.643
	c1.743,1.262,3.115,3.599,5.615,3.251c1.188-12.141-14.767-19.978-23.354-23.943c-2.242-1.036-4.435-1.112-6.798-2.069
	c-12.265-4.96-30.91-6.8-47.593-6.798c-5.774,0-15.767-0.819-20.396,0.59c-1.771,0-3.547,0-5.321,0
	c-5.175,1.58-11.803,0.228-16.849,1.774c-1.773,0.099-3.547,0.197-5.321,0.295c-7.29,0.985-14.584,1.971-21.874,2.956
	c-5.062,1.58-11.241,1.359-16.258,2.957c-1.183,0.099-2.364,0.197-3.548,0.295c-3.685,1.179-8.804,2.351-13.007,2.365
	c0.038-1.286,0.173-3.174-0.295-3.99c2.386-1.476,5.511-1.421,8.276-2.513c4.974-1.962,10.449-2.961,15.668-5.025
	c4.875-1.93,10.378-3.541,15.37-5.32c4.436-0.492,8.869-0.985,13.304-1.479c5.023-0.295,10.051-0.591,15.074-0.887
	c1.677,0,3.352,0,5.024,0c2.23-0.807,21.595-0.743,23.943,0c2.268,0,4.531,0,6.8,0c4.384,1.562,11.248,0.072,15.666,1.479
	c1.873,0.1,3.745,0.197,5.617,0.296c5.845,2.071,13.726,1.347,19.51,3.251c2.066,0.297,4.138,0.592,6.208,0.888
	c6.409,2.367,13.954,3.004,20.1,5.319c8.442,3.183,16.783,4.626,24.536,8.277c7.752,3.65,15.16,8.199,21.874,13.006
	c2.55,1.827,4.594,4.691,7.094,6.503c9.421,6.826,15.353,18.041,20.397,29.267c1.273,2.836,0.918,5.765,2.067,8.866
	c1.51,4.072,1.184,8.229,1.184,13.746c0,1.232,0,2.464,0,3.695c-0.396,2.562-0.789,5.123-1.184,7.685
	c-1.506,4.008-2.425,8.758-4.436,13.008c-7.925,16.777-22.176,25.7-40.201,32.517c-5.519,2.087-11.833,1.966-17.734,3.844
	c-3.205,1.021-16.773,0.958-19.808,0c-3.891-1.229-8.481-0.115-12.119-1.479c-2.758-0.787-5.518-1.576-8.274-2.364
	c-6.859-3.168-11.909-6.466-15.963-12.415c-3.668-5.387-5.259-13.168-2.068-20.396c0.395-1.381,0.788-2.761,1.183-4.141
	c0-0.396,0-0.787,0-1.183c-0.195,0-0.395,0-0.592,0c-1.778,2.145-3.031,4.824-4.138,7.687c-2.168,5.598,0.156,13.326,2.068,16.85
	c6.049,11.143,14.043,13.228,26.604,17.736c2.76,0.395,5.52,0.787,8.278,1.184c4.218,1.332,10.202,0.888,15.519,0.887
	c1.429,0,2.857,0,4.285,0c1.778-0.562,4.208,0.043,6.209-0.592c5.463-1.729,11.415-1.615,16.553-3.547
	c19.709-7.408,34.564-16.988,43.158-35.473c9.146-19.66,4.947-44-5.025-59.417c-9.718-15.021-20.73-23.188-35.768-32.812
	c-5.273-3.376-11.961-5.357-17.735-7.981c-7.761-3.524-16.308-4.191-24.831-7.094c-5.035-1.716-11.37-2.052-16.554-3.843
	c-1.771-0.197-3.548-0.395-5.321-0.591c-3.954-1.272-11.123-2.319-15.666-2.365c0-0.049,0-0.099,0-0.148
	c2.164-0.802,11.774,0.961,13.895,1.626c3.151,0.395,6.307,0.788,9.459,1.183c9.477,3.036,20.092,3.466,28.97,6.799
	c5.362,2.014,10.632,2.488,15.666,4.729c9.113,4.058,18.043,7.858,26.015,13.007c4.548,2.936,8.446,6.939,12.711,10.051
	c2.868,2.092,6.492,5.135,8.571,7.979c2.606,3.569,5.575,6.923,7.98,10.644c1.414,2.185,2.643,4.584,3.844,6.799
	c0.197,0.688,0.396,1.379,0.592,2.068c4.812,6.891,6.799,17.854,6.798,29.266c0,2.184,0.224,5.103-0.296,6.799
	c-0.099,1.576-0.196,3.152-0.296,4.729c-2.002,6.356-2.767,12.488-5.32,18.031c-9.371,20.342-27.028,29.502-47.592,38.725
	c-6.894,3.092-15.113,3.224-22.761,5.616c-1.577,0.099-3.154,0.196-4.729,0.296c-3.585,1.106-16.004,1.838-20.102,0.592
	c-1.577,0-3.152,0-4.729,0c-4.632-0.592-9.265-1.185-13.895-1.774c-7.891-2.539-15.82-3.944-22.17-7.979
	c-3.04-1.935-5.756-4.453-8.572-6.504c-1.896-1.382-4.25-3.154-5.615-5.025c-3.303-4.52-6.115-9.012-8.276-14.779
	c-0.867-2.317-0.373-4.516-1.185-7.095c-0.604-1.938-0.593-6.636,0-8.572c0.832-2.711,0.264-4.938,1.185-7.39
	c2.047-5.452,7.946-14.24,7.979-20.396c-0.099,0-0.195,0-0.296,0c-1.729-1.764-5.241,1.41-5.912,2.068
	c-4.227,4.149-7.157,9.591-9.458,15.666c-3.893,10.274-3.228,26.036,2.364,34.586c1.737,2.655,3.844,5.188,5.616,7.688
	c1.144,1.61,2.552,3.889,4.139,5.022c3.239,2.322,6.092,5.221,9.459,7.391c4.958,3.193,10.84,5.308,16.555,7.688
	c3.025,1.26,6.262,0.771,9.459,2.067c2.554,1.039,6.149,0.889,8.867,1.773c0.889,0,1.773,0,2.661,0
	c3.295,1.325,9.948,0.887,14.336,0.887c11.324,0,22.45-0.527,31.188-3.545c3.566-1.232,7.002-0.934,10.345-2.365
	c7.613-3.264,14.329-4.957,20.988-8.869c3.464-2.032,8.121-6.525,10.937-7.095c-0.188-0.707-0.092-0.282,0-1.183
	c0.197,0.196,0.396,0.396,0.593,0.592c0.365-0.615,1.271-1.312,2.068-1.479c-0.205-0.248-0.336-0.26-0.591-0.441
	c0.784-0.286,1.33-0.087,2.069-1.035c0.253-0.362,0.095-0.011,0-0.442c0.601-0.293,0.829-0.188,1.182-0.739
	c0.254-0.363,0.096-0.009,0-0.441c0.395-0.104,0.674,0.155,1.183-0.443c0.255-0.362,0.097-0.011,0-0.443
	c0.298-0.049,0.594-0.1,0.889-0.146c-0.101-0.296-0.196-0.592-0.295-0.888c0.394,0.099,0.788,0.196,1.183,0.296
	c2.29-4.123,6.991-7.066,9.755-10.938c3.85-5.391,6.336-11.541,8.868-18.327c0.787-3.843,1.575-7.687,2.364-11.527
	C591.441,277.263,591.035,265.399,590.05,262.199z M319.872,186.821c0.295,0,0.591,0,0.886,0c0.493,0.886,0.986,1.773,1.479,2.66
	c-4.633,1.479-9.265,2.957-13.896,4.434c-1.498-0.058-2.187-1.648-2.659-2.66c-0.099-0.099-0.197-0.196-0.296-0.296
	C310.214,189.579,315.043,188.2,319.872,186.821z M276.417,202.044c6.026-3.822,13.749-5.729,20.396-8.72
	c2.047-0.921,5.216-0.656,6.798-2.069c1.129,0.643,1.433,1.863,2.365,2.66c0,0.197,0,0.395,0,0.592
	c-6.698,1.871-13.4,3.745-20.1,5.616c-2.476,0.884-6.754,0.438-8.572,2.069c-0.296,0-0.591,0-0.887,0
	C276.417,202.143,276.417,202.094,276.417,202.044z M306.568,197.462c-0.138,0.38-0.314,1.195-0.592,1.479c0,0.197,0,0.394,0,0.591
	c-4.604,0.115-10.131,1.329-14.188,2.661c-1.909,0.626-4.853-0.008-6.208,1.182c-0.394,0-0.788,0-1.183,0c0-0.049,0-0.099,0-0.147
	c1.403-0.694,3.085-0.448,4.73-1.034c4.218-1.505,9.202-2.303,13.303-3.843c1.181-0.445,2.425-0.148,3.251-0.888
	C305.977,197.462,306.272,197.462,306.568,197.462z M283.808,203.522c-0.438,0.098-0.256,0.158-0.591-0.148
	C283.414,203.425,283.61,203.473,283.808,203.522z M258.385,208.695c9.832-3.167,22.279-1.89,32.221-5.025
	c2.834-0.893,11.998-0.693,13.598-2.068c0.196,0,0.395,0,0.592,0c0,0.049,0,0.098,0,0.146s0,0.1,0,0.148
	c-1.282,1.281-2.562,2.562-3.844,3.843c-3.842,2.704-9.208,4.155-13.894,5.912c-2.422,0.909-4.735,0.369-7.39,1.182
	c-2.566,0.787-7.847,1.426-10.642,0.593c-1.379,0-2.759,0-4.138,0c-3.721-1.144-9.554-1.214-11.824-3.844
	c-0.099-0.049-0.197-0.099-0.295-0.147C254.642,209.188,256.514,208.942,258.385,208.695z M275.53,157.408
	c-1.122,1.661-1.542,3.72-2.66,5.469c-1.497,2.34-3.374,4.535-5.025,6.799c-4.141,5.677-12.823,10.906-18.918,14.779
	c-2.217,1.084-4.434,2.168-6.651,3.252c-0.049,0-0.099,0-0.148,0c0.495-11.22,16.697-22.333,24.535-27.194
	c2.281-1.415,6.225-1.326,7.981-3.251c0.296,0,0.591,0,0.887,0C275.53,157.309,275.53,157.359,275.53,157.408z M240.648,188.595
	c-0.886,0.295-1.773,0.591-2.66,0.886c0.4-8.725,12.56-19.888,18.327-23.943c2.149-1.511,5.665-2.486,7.39-4.434
	c0.098,0,0.197,0,0.295,0c0,0.099,0,0.197,0,0.296C255.567,165.84,241.581,177.186,240.648,188.595z M245.379,93.41
	c5.659-3.63,10.637-7.934,15.962-11.824c4.216-3.078,7.607-8.4,10.641-12.711c4.714-6.696,8.499-13.831,12.12-21.874
	c1.128-2.508,1.072-5.011,2.069-7.686c1.176-3.156,2.373-7.497,2.365-11.528c1.772,0.591,3.547,1.183,5.32,1.773
	c-0.148,8.366-4.826,17.478-7.686,23.647c-6.7,14.454-16.858,27.023-29.265,35.769c-5.42,3.819-11.674,6.285-17.292,10.05
	c-0.167-0.384-0.176-0.906-0.443-1.183C239.363,95.386,243.668,94.509,245.379,93.41z M239.466,100.505
	c5.426-1.146,13.161-7.157,17.44-10.051c14.795-9.995,24.982-23.164,32.812-40.202c2.23-4.854,6.149-13.125,6.208-19.51
	c5.042,1.006,10.269,4.859,14.188,7.391c10.122,6.537,19.3,14.083,24.536,25.422c1.034,2.239,1.116,4.339,2.068,6.799
	c1.078,2.79,1.742,7.555,1.182,10.937c-0.841,5.087-0.845,10.009-2.955,14.484c-1.851,3.923-4.336,7.56-6.8,10.938
	c-1.378,1.38-2.758,2.76-4.138,4.14c-9.88,13.637-24.968,23.68-38.873,33.402c-1.219-2.783-0.999-5.9-2.217-8.571
	c-0.839-1.841-2.833-5.331-4.434-6.503c-0.772-0.565-1.753-0.771-2.365-1.479c-0.591,0-1.182,0-1.773,0
	c-1.039,6.308,2.705,14.361,2.66,22.17c-7.964,3.644-15.541,8.935-23.648,12.71c-10.159,4.732-21.024,7.982-31.925,12.12
	c-6.059,2.3-12.595,2.958-18.623,5.025c-5.813,1.083-11.627,2.168-17.44,3.251c-1.478,0.099-2.956,0.197-4.435,0.295
	c-2.238,0.706-5.253,0.122-7.685,0.887c-4.004,1.259-11.147,1.216-15.962,1.183c0-0.05,0-0.1,0-0.148
	c2.266-0.246,4.532-0.493,6.799-0.739c5.683-1.843,11.979-1.773,17.44-3.842c9.147-3.463,18.353-6.275,26.013-11.233
	c3.489-2.259,6.488-5.307,9.755-7.685c2.383-1.736,5.374-4.146,7.095-6.504c2.037-2.792,3.645-5.633,5.616-8.572
	c2.477-3.694,7.943-15.392,5.913-22.17c-0.788-2.626,0.733-7.348-0.887-9.164c0.217-1.575,1.381-2.182,2.069-3.252
	C238.753,109.469,240.109,104.177,239.466,100.505z M116.792,114.398c-3.574-1.23-7.063-1.197-10.346-2.661
	c-11.264-5.019-21.136-11.095-27.491-20.987c-1.788-2.782-2.403-5.634-3.843-8.867c-3.348-7.52-4.304-21.953-0.591-30.151
	c9.266-20.461,23.395-28.25,44.931-36.359c5.871-2.209,12.625-1.905,18.918-3.843c1.555-0.478,4.157,0.125,6.034-0.042
	c0.055-0.005,0.109-0.01,0.162-0.016c0.6-0.069,1.12-0.223,1.49-0.534c1.971,0.049,3.941,0.099,5.912,0.147
	c-1.675,0.05-3.35,0.1-5.025,0.148c-0.792,0.079-1.584,0.159-2.376,0.238c-0.053,0.006-0.107,0.011-0.162,0.016
	c-3.095,0.309-6.19,0.619-9.285,0.929c-2.347,0.743-5.237,0.608-7.686,1.479c-6.294,2.232-12.493,3.557-18.327,6.208
	c-17.9,8.131-42.702,32.286-29.56,60.303c3.853,8.214,11.842,15.911,19.214,20.692c11.872,7.698,29.509,6.398,44.044,11.232
	c2.956,0.443,5.913,0.888,8.868,1.331C145.944,117.014,123.57,116.732,116.792,114.398z M79.251,76.266
	c1.042,0.634,1.28,1.787,2.069,2.661c1.649,1.82,4.115,3.388,6.208,4.729c2.426,1.555,5.3,1.983,7.981,3.252
	c5.331,2.521,11.286,4.826,17.145,7.094c3.539,1.37,7.554,1.698,10.937,2.956c3.114,1.158,6.408,0.419,9.755,1.479
	c3.654,1.155,21.955,1.713,24.978,0c0.049,0,0.099,0,0.148,0c-0.635,1.818-3.471,2.554-5.025,3.547
	c-3.38,2.162-17.82,7.781-23.944,5.617C109.491,100.526,87.378,95.144,79.251,76.266z M125.364,107.747
	c-2.001,0.746-9.467-1.013-11.232-1.625c-2.7-0.937-5.183-0.938-7.686-2.068c-6.302-2.849-15.043-8.168-18.327-13.894
	c4.843,2.282,8.969,6.445,14.189,8.868c4.669,2.168,9.54,3.827,14.189,5.912C119.453,105.875,122.408,106.811,125.364,107.747z
	 M164.236,114.103c-0.049-0.1-0.098-0.197-0.147-0.296c0.099,0,0.197,0,0.295,0C164.335,113.906,164.286,114.004,164.236,114.103z
	 M164.828,114.103c-0.049-0.1-0.098-0.197-0.147-0.296c0.098,0,0.196,0,0.295,0C164.925,113.906,164.876,114.004,164.828,114.103z
	 M165.271,113.807c0.197,0.049,0.394,0.099,0.591,0.147C165.425,114.054,165.606,114.114,165.271,113.807z M166.306,114.103
	c-0.049-0.1-0.099-0.197-0.148-0.296c0.099,0,0.197,0,0.296,0C166.404,113.906,166.355,114.004,166.306,114.103z M167.192,114.103
	c-0.049-0.1-0.099-0.197-0.148-0.296c0.099,0,0.196,0,0.295,0C167.291,113.906,167.241,114.004,167.192,114.103z M197.788,111.738
	c-8.008,2.536-19.94,2.51-30.151,2.365c0-0.049,0-0.1,0-0.148c2.759-0.049,5.518-0.099,8.277-0.147
	c2.5-0.766,5.85,0.244,8.572-0.591c4.289-1.315,9.589-1.042,13.598-2.365c2.477-0.817,6.24-0.204,7.981-1.774
	c0.197,0,0.395,0,0.591,0C206.292,111.76,200.252,110.957,197.788,111.738z M226.166,87.499c-6.744,3.027-11.574,6.838-15.371,12.71
	c-1.183,2.365-2.365,4.73-3.547,7.096c-1.579,1.479-6.695,1.258-9.164,2.068c-9.147,3.01-22.443,3.077-34.29,2.957
	c0-0.049,0-0.099,0-0.147c11.128-6.814,17.824-10.586,24.24-22.318c1.686-3.083,4.924-8.828,2.66-13.007c-0.197,0-0.394,0-0.591,0
	c-2.426,4.544-3.993,10.104-6.799,14.485c-5.652,8.825-14.788,17.296-25.717,20.691c-0.906,0.282-3.927-0.348-4.729-0.591
	c-2.365-0.197-4.729-0.394-7.095-0.591c-3.744-0.69-7.488-1.38-11.232-2.07c0-0.049,0-0.098,0-0.146
	c3.842-0.739,7.685-1.479,11.528-2.219c3.396-1.272,7.163-2.78,10.05-4.729c1.439-0.972,2.79-2.859,4.434-3.547
	c1.281-0.197,2.562-0.396,3.843-0.591c4.493-1.682,5.585-2.369,8.868-5.025c0-0.493,0-0.986,0-1.479
	c-0.831-0.488-1.274-1.23-2.365-1.478c0-0.098,0-0.197,0-0.295c3.896-2.17,8.463-9.716,10.937-13.598
	c0.92-1.443,1.134-3.333,2.365-4.435c0-0.295,0-0.591,0-0.887c-0.049,0-0.099,0-0.148,0c-1.425,2.147-2.271,4.602-3.695,6.799
	c-2.148,3.316-4.958,6.119-7.686,8.868c-0.833,0.839-1.319,2.038-2.365,2.661c-1.06,0.965-6.008,1.173-7.686,1.772
	c-3.326,1.193-7.515,1.531-10.938,2.661c-1.431,0.473-4.834-0.418-7.095,0.295c-1.458,0.461-6.078,0.902-7.981,0.296
	c-4.44-1.414-9.565-0.333-13.893-1.772c-14.567-4.847-34.28-6.858-41.976-18.328c-2.143-3.195-4.935-10.166-2.956-16.258
	c7.677-23.633,21.365-32.034,43.749-40.793c5.637-2.206,12.342-1.739,18.327-3.844c2.019-0.709,6.208,0.717,7.686-0.591
	c11.779,0.077,22.539,0.702,31.334,3.844c2.262,0.808,4.775,0.621,6.799,1.772c0.788,0.789,1.576,1.577,2.365,2.365
	c2.559,1.855,5.633,3.671,8.572,5.024c1.85,0.853,6.568,0.913,7.981,1.773c12.319,7.511,22.104,19.841,28.378,33.403
	c1.825,3.945,2.316,8.961,4.138,13.006c0.099,1.182,0.197,2.365,0.296,3.547c1.409,4.474,0.636,10.194,0.591,15.372
	c-0.099,0-0.197,0-0.296,0c-0.32-0.791-0.929-1.708-1.183-2.365c0-2.562,0-5.124,0-7.686c-1.94-6.292-1.888-12.182-4.434-17.736
	c-6.804-14.844-16.954-25.581-30.151-33.994c-4.248-2.708-8.965-3.423-13.893-5.616c-3.54-1.576-17.409-5.071-22.466-3.547
	c-1.379,0-2.758,0-4.138,0c-2.22,0.705-4.856,1.585-6.799,2.069c-0.143,0.536,0.01,0.302-0.295,0.591
	c0.161,2.439,4.511,3.267,7.094,2.365c8.321-2.904,23.342-0.56,29.856,2.365c17.684,7.938,30.636,18.915,38.724,36.358
	c1.086,2.343,1.089,4.49,2.069,7.095c1.469,3.905,2.714,8.88,2.661,14.188C232.17,84.885,228.676,86.372,226.166,87.499z
	 M231.042,101.983c-0.049,0.296-0.099,0.592-0.148,0.887c-0.644,0.052-0.684,0.085-1.035,0.295c-0.049,0-0.099,0-0.148,0
	c0.565-1.329,1.099-2.177,2.217-2.956c0.049,0.69,0.098,1.381,0.146,2.069C231.432,102.227,231.394,102.194,231.042,101.983z
	 M232.077,103.758c-0.049,0.098-0.099,0.196-0.148,0.295c-0.049-0.1-0.098-0.197-0.147-0.295
	C231.879,103.758,231.979,103.758,232.077,103.758z M218.184,133.317c3.334-4.561,7.628-8.808,10.05-14.189c0.197,0,0.395,0,0.591,0
	c0,0.05,0,0.1,0,0.148c-1.679,1.981-2.62,4.491-4.139,6.651c-3.518,5.004-8.134,9.462-12.562,13.598c-0.049,0-0.099,0-0.148,0
	C214.044,137.455,216.114,135.386,218.184,133.317z M211.088,139.82c0.099,0,0.197,0,0.296,0c0,0.099,0,0.197,0,0.295
	c-0.345,0.296-0.689,0.592-1.035,0.887c-0.049,0-0.098,0-0.147,0C210.499,140.609,210.794,140.215,211.088,139.82z M107.924,164.651
	c2.803-1.493,6.718-4.362,8.277-7.095c0.302,0.29,0.162,0.052,0.296,0.591c-1.66,1.132-2.362,4.849-3.547,6.503
	c-1.478,1.28-2.957,2.562-4.434,3.842c-0.197,0-0.395,0-0.591,0C107.924,167.212,107.924,165.931,107.924,164.651z M107.333,174.997
	c3.679-0.202,5.684-2.503,8.276-3.547c4.927-0.099,9.854-0.197,14.78-0.296c1.869-0.587,4.388,0.077,6.504-0.591
	c6.009-0.985,12.021-1.971,18.031-2.956c5.99-2.047,12.64-2.778,18.328-5.321c5.724-2.558,12.499-4.354,17.736-7.685
	c5.788-3.683,11.613-7.039,17.145-10.938c2.459-1.732,4.412-4.465,6.799-6.208c1.213-0.886,2.677-1.765,3.547-2.956
	c2.191-3.003,4.971-5.556,7.095-8.571c1.484-2.108,2.411-4.301,3.843-6.503c0.936-1.44,2.977-1.808,3.842-3.253
	c0.197,0,0.395,0,0.591,0c-0.059,35.797-22.319,49.219-47,60.304c-5.439,2.441-11.148,2.708-17.146,4.729
	c-8.438,2.845-19.428,3.252-30.298,3.251c-3.239,0-5.812,0.033-8.721,0c-1.182,0-2.364,0-3.547,0
	c-3.1-0.956-6.791-0.438-10.051-1.478c-3.547-0.789-7.095-1.576-10.642-2.365C106.742,178.741,107.038,176.869,107.333,174.997z
	 M3.578,84.247c5.826-0.076,13.53-0.998,18.623,0.591c0.887,0,1.773,0,2.661,0c7.723,2.537,15.882,3.589,23.056,6.8
	c5.873,2.629,12.156,5.155,17.441,8.571c3.639,2.354,6.907,5.491,10.346,7.981c3.15,2.282,6.284,4.557,8.573,7.686
	c1.624,2.222,4.323,3.891,5.912,6.208c3.655,5.333,6.715,11.727,9.459,17.736c1.059,2.319,1.759,4.594,2.661,6.799
	c0.509,1.243,0.089,2.925,0.886,3.843c-0.042,2.276-9.343,5.207-11.38,6.504c-0.247-2.363-0.492-4.729-0.739-7.095
	c-2.017-6.316-3.223-13.173-6.503-18.328C70.795,109.887,40.447,89.086,4.759,89.272C4.365,87.598,3.972,85.922,3.578,84.247z
	 M33.729,142.776c-3.477-4.31-8.238-7.89-11.528-12.416c-4.493-6.179-8.351-12.871-11.528-20.396
	c-1.317-3.118-1.168-6.287-2.365-9.459c-1.098-2.91-2.387-6.523-2.957-9.755c27.298,0.129,55.179,13.781,67.988,29.855
	c0.69,0.493,1.38,0.985,2.07,1.479c1.97,2.365,3.941,4.729,5.912,7.095c3.081,4.727,4.79,9.715,7.094,15.371
	c0.595,1.459,1.527,9.175,2.069,9.755c0,1.182,0,2.364,0,3.547c-0.54,0.717-2.463,0.97-3.252,1.478
	c-2.519,1.624-6.734,4.215-8.276,6.799c-8.701-1.698-17.817-5.112-24.831-8.867c-2.444-1.309-5.078-1.507-7.39-2.956
	C41.984,151.326,37.208,147.087,33.729,142.776z M49.69,156.078c-0.098-0.049-0.197-0.098-0.295-0.146c0-0.049,0-0.1,0-0.148
	c5.157,2.367,10.578,4.859,15.962,7.095c2.359,0.979,4.398,0.889,6.799,1.773c1.798,0.664,3.984,1.611,6.208,1.773
	c0,0.099,0,0.196,0,0.295c-0.296,0.296-0.591,0.591-0.887,0.887c-0.099,0.049-0.197,0.099-0.295,0.147
	c2.926,1.485,8.126,1.998,12.119,1.922c0.099,0.099,0.197,0.196,0.296,0.296c-0.197,1.182-0.395,2.364-0.591,3.547
	c-0.395,0-0.789,0-1.183,0c0,0.099,0,0.197,0,0.296c0.296,0.099,0.591,0.197,0.887,0.295c-0.099,0.395-0.197,0.789-0.296,1.182
	c-2.552-0.254-5.042-1.725-7.094-2.659c-8.181-3.731-15.726-6.708-22.761-11.233C55.753,159.595,51.799,158.565,49.69,156.078z
	 M78.364,176.179c2.568,1.165,5.609,2.751,8.573,3.252c-0.099,0.394-0.197,0.788-0.296,1.182
	C84.907,179.846,79.253,177.514,78.364,176.179z M40.231,206.33c-2.121-0.429-3.784-1.925-5.321-2.956
	c-7.687-5.151-10.776-10.025-8.572-21.579c0.197,0,0.395,0,0.591,0c0.479,2.109,2.488,3.683,3.547,5.32
	c2.259,3.494,4.281,7.311,6.207,10.938c1.224,2.303,1.682,6.012,3.548,7.686C40.231,205.936,40.231,206.134,40.231,206.33z
	 M34.319,189.186c-2.012-3.129-4.77-6.172-6.503-9.459c-0.099-0.1-0.197-0.197-0.296-0.295c0.887-1.084,1.774-2.168,2.661-3.252
	c0.197,0,0.394,0,0.591,0c-1.379,5.988-0.05,10.571,7.39,10.346c2.527,4.642,5.705,9.166,8.277,13.893
	c1.224,2.25,1.7,6.035,3.547,7.687c0,0.197,0,0.395,0,0.591c-2.608-0.041-4.609-0.796-6.799-1.183
	C40.619,201.195,37.891,194.734,34.319,189.186z M56.786,228.5c-2.308,0.122-4.295,0.614-7.095,0.592
	c-0.154-4.136-2.619-12.531-4.138-15.963c-0.5-1.129-1.34-2.325-1.479-3.843c2.119,0.143,4.619,1.288,6.503,0.591
	c1.479,3.341,2.823,7.186,4.138,10.643c0.837,2.195,0.605,5.754,2.07,7.39C56.786,228.107,56.786,228.303,56.786,228.5z
	 M92.553,203.078c-5.826,9.019-12.664,16.899-22.761,21.579c-3.157,1.463-6.694,1.963-10.051,3.252
	c-1.395-3.11-1.618-6.757-2.956-10.051c-0.945-2.326-2.743-5.209-2.956-7.981c12.538,0.011,22.637-9.319,27.787-16.849
	c1.562-2.284,3.907-8.535,5.616-10.05c0.515-0.507,10.256,5.376,12.711,5.617C99.438,193.616,94.883,199.474,92.553,203.078z
	 M100.83,186.525c-3.1-1.245-10.783-3.164-12.71-5.321c-0.404-0.159-0.028-0.457,0-1.182c4.479,0.495,8.216,3.396,13.006,3.547
	c0.099,0.099,0.197,0.197,0.295,0.296C101.225,184.751,101.026,185.638,100.83,186.525z M102.899,179.431
	c-0.099,0.098-0.197,0.196-0.296,0.295c-4.336-1.281-8.67-2.562-13.006-3.843c0.197-0.493,0.394-0.985,0.591-1.479
	c3.272,0.644,9.148,2.629,13.006,1.182c0.099,0.1,0.197,0.197,0.296,0.296C103.293,177.066,103.097,178.248,102.899,179.431z
	 M94.918,173.518c-1.374,0.429-3.356-0.07-4.434,0.296c-0.247-1.021,0.499-2.617,0.591-4.139c3.558-0.011,10.158,0.097,12.711,1.329
	C101.19,172.322,97.902,172.589,94.918,173.518z M104.082,169.677c0,0.196,0,0.395,0,0.592c-2.562-0.296-5.124-0.592-7.685-0.887
	c0-0.05,0-0.1,0-0.148c2.233-0.979,5.862-0.826,7.39-2.513c0.197,0,0.394,0,0.591,0
	C104.427,167.666,104.543,169.197,104.082,169.677z M138.372,197.167c-6.381-2.107-13.497-2.378-19.805-4.729
	c-3.448-1.285-10.275-4.125-13.894-4.435c0.043-1.51,0.471-1.939,0.591-3.252c3.351,0.69,6.701,1.381,10.051,2.07
	c3.324,1.062,7.166,0.491,10.346,1.479c5.025,0.395,10.05,0.788,15.076,1.182c3.153,0,6.306,0,9.459,0
	c7.041,0,17.717,0.261,23.353-1.479c1.675-0.099,3.35-0.196,5.025-0.296c4.926-0.789,9.853-1.576,14.78-2.364
	c6.897-1.576,13.796-3.153,20.692-4.729c10.594-3.919,21.608-6.747,31.334-11.233c3.66-1.688,7.374-2.58,10.494-4.729
	c0.049,0,0.098,0,0.147,0c-0.481,1.311-5.736,4.625-7.094,5.617c-4.111,3-12.445,13.368-12.711,19.805
	c-7.854,4.263-17.941,5.271-27.195,8.277c-3.851,1.252-8.442,0.234-12.415,1.478c-2.97,0.93-14.236,1.683-17.145,0.886
	c-1.626,0-3.251,0-4.877,0c-3.947,0-9.141,0.165-12.563-0.886c-2.365-0.099-4.729-0.197-7.095-0.296
	C149.406,198.743,143.89,197.955,138.372,197.167z M146.943,315.702c1.474-1.51,0.535-2.908,1.479-4.729
	c1.675-1.674,3.35-3.352,5.025-5.025c9.812-9.805,17.993-20.551,24.239-33.993c1.181-3.745,2.365-7.488,3.547-11.23
	c0.305-0.819,0.446-3.467,0.295-3.549c-0.083-0.883,0.319-3.095,0.591-3.843c0.871-2.396-0.88-13.782-1.478-15.372
	c-1.242-3.301-2.299-7.177-4.139-10.05c-1.066-1.667-2.573-3.297-3.547-5.024c4.036,0.981,13.171,11.341,15.667,14.779
	c5.575,7.686,10.617,15.5,14.189,25.422c1.569,4.357,1.862,8.913,3.251,13.303c0.575,1.812,0.103,4.021,0.591,5.617
	c0,1.771,0,3.547,0,5.319c0,8.249-0.478,15.716-2.66,21.875c-1.026,2.896-1.128,5.501-2.365,8.275
	c-7.074,15.871-13.888,24.473-30.743,30.742c-3.365,1.252-14.401,3.562-19.214,2.067c-3.567-1.104-7.369-1.2-10.642-2.659
	c-5.267-2.35-10.454-5.279-13.598-9.756c-1.084-2.167-2.167-4.336-3.252-6.502c0.272-1.939,3.639-3.15,5.025-4.138
	c3.225-2.299,6.193-5.025,9.459-7.391c0.789-0.789,1.576-1.578,2.365-2.365c0.591,0.099,1.182,0.197,1.773,0.296
	C144.412,317.427,145.964,316.705,146.943,315.702z M129.503,307.131c1.502-1.074,4.223-1.113,5.617-2.363
	c2.976-0.035,5.862-0.078,7.685,1.035c-0.69,0.047-1.379,0.099-2.069,0.146c-5.156,2.106-4.51,6.323-2.069,10.347
	c0.099,0,0.197,0,0.295,0c-4.022,4.958-10.331,8.589-15.224,12.711C120.5,321.723,125.609,309.915,129.503,307.131z M179.755,223.18
	c13.548,9.642,21.761,22.939,28.969,39.019c2.805,6.257,2.567,13.649,4.729,20.692c0,1.182,0,2.365,0,3.545
	c0.484,1.574,0.296,4.304,0.296,6.355c0,8.471-0.622,16.326-2.956,22.613c-1.509,4.063-1.816,8.043-3.547,11.825
	c-6.197,13.521-15.506,24.518-28.969,30.74c-2.357,1.09-4.589,1.343-7.095,2.363c-6.583,2.688-21.566,4.573-29.855,1.774
	c-3.843-1.184-7.687-2.364-11.529-3.547c-4.415-2.028-8.104-4.963-11.824-7.688c-1.97-2.362-3.941-4.729-5.912-7.094
	c-0.715-1.061-1.017-2.551-2.07-3.252c0-0.197,0-0.395,0-0.592c4.088-1.064,9.168-7.543,13.007-7.979
	c0.328,3.408,2.837,5.771,4.434,7.979c3.892,5.385,10.099,8.113,16.85,10.643c2.48,0.929,4.951,0.34,7.685,1.185
	c1.747,0.537,5.119,0.799,6.799,0.295c2.789-0.838,5.446,0.244,7.981-0.592c9.083-2.992,14.776-5.678,21.579-10.643
	c3.891-2.84,6.515-7.388,9.164-11.528c4.113-6.425,6.422-13.8,9.164-21.872c1.184-3.485,0.327-6.882,1.479-10.645
	c1.228-4.011,1.217-12.556,0-16.554c-1.03-3.385-0.116-6.588-1.183-9.754c-1.756-5.22-2.813-10.554-5.025-15.373
	c-3.077-6.702-7.101-12.896-11.233-18.623c-4.667-6.467-11.775-12.257-18.327-16.851c-3.291-2.306-7.236-3.759-9.754-6.799
	c-0.099-0.049-0.197-0.099-0.296-0.146c0-0.05,0-0.1,0-0.148C167.874,213.709,175.487,220.142,179.755,223.18z M224.687,210.174
	c-1.773,0-3.547,0-5.32,0c-2.705,0.822-20.655,0.827-23.353,0c-1.773,0-3.547,0-5.321,0c-4.137-0.396-8.276-0.788-12.415-1.183
	c-7.094-1.183-14.189-2.365-21.283-3.548c-2.284-0.893-4.761-2.468-7.39-2.956c0-0.049,0-0.099,0-0.146c0-0.05,0-0.1,0-0.148
	c12.423,1.134,26.363,4.096,39.906,2.956c5.083-0.429,10.265,0.396,14.485-0.887c0.985,0,1.971,0,2.956,0
	c3.518-1.07,7.889-0.974,11.233-2.069c3.909-1.282,14.531-2.027,16.849-4.139c0.197,0,0.395,0,0.591,0
	c0.226,4.461,2.413,7.177,3.843,10.346c0.099,0.049,0.197,0.099,0.296,0.146C235.415,210.285,229.274,208.759,224.687,210.174z
	 M243.014,208.4c-3.75-0.245-3.719-7.786-5.616-10.05c0.053-0.625-0.015-0.584,0.295-0.888c0.641-0.639,2.006-0.558,2.661-1.183
	c0.197,0,0.394,0,0.591,0c0.51,5.197,4.183,7.41,6.208,10.938c0.099,0.049,0.197,0.098,0.295,0.146
	C246.276,207.867,243.926,207.584,243.014,208.4z M322.236,199.088c-1.208,1.836-1.991,3.73-3.253,5.47
	c-4.778,6.584-14.462,9.316-22.761,12.415c-3.744,0.788-7.488,1.577-11.233,2.364c-0.886,0-1.773,0-2.66,0
	c-4.806,1.474-17.496,0.886-21.875-0.591c-3.849-1.299-8.044-2.111-11.233-4.138c-1.576-1.183-3.153-2.366-4.729-3.548
	c0-0.197,0-0.395,0-0.591c2.266-0.197,4.533-0.395,6.799-0.592c1.47,0.672,3.388,1.992,5.025,2.661
	c2.562,0.591,5.124,1.184,7.685,1.774c3.083,0.949,11.801,0.53,14.485-0.296c2.435-0.749,4.472-0.086,6.799-0.888
	c5.687-1.959,11.596-3.486,16.258-6.503c2.046-1.323,3.209-3.534,5.024-5.024c1.951-1.759,13.059-0.96,15.076-2.661
	c0.197,0,0.396,0,0.592,0C322.236,198.99,322.236,199.039,322.236,199.088z M323.122,195.985c-0.099,0-0.196,0-0.295,0
	c-0.963,0.919-12.938,2.957-15.075,2.956c0.099-0.689,0.196-1.379,0.296-2.069c5.024-1.478,10.05-2.956,15.074-4.434
	C323.122,193.62,323.122,194.802,323.122,195.985z M348.249,181.5c-4.419,0.229-9.235,2.72-13.007,4.139
	c-2.356,0.887-5.943,0.795-7.687,2.364c-1.5-0.18-1.134-1.115-2.068-1.772c0-0.197,0-0.396,0-0.592
	c4.827-1.084,9.656-2.167,14.484-3.251c2.373-0.767,5.999-0.008,7.686-1.479c0.196,0,0.395,0,0.592,0
	C348.249,181.106,348.249,181.303,348.249,181.5z M447.128,175.588c-0.052-0.099-0.101-0.196-0.148-0.296
	C447.244,175.488,447.064,175.452,447.128,175.588z M449.344,175.588c0.592,0.05,1.182,0.1,1.771,0.148
	C450.605,175.999,449.681,175.953,449.344,175.588z M556.942,327.527c-0.049,0.099-0.099,0.196-0.146,0.296
	c-0.052-0.1-0.101-0.197-0.148-0.296C556.745,327.527,556.844,327.527,556.942,327.527z M556.942,328.117
	c-0.049,0.1-0.099,0.196-0.146,0.296c-0.052-0.1-0.101-0.196-0.148-0.296C556.745,328.117,556.844,328.117,556.942,328.117z
	 M553.248,332.848c-0.05-0.1-0.099-0.197-0.146-0.295c0.099,0,0.197,0,0.296,0C553.347,332.65,553.297,332.75,553.248,332.848z
	 M553.544,332.256c-0.05-0.097-0.099-0.193-0.146-0.294c0.099,0,0.197,0,0.295,0C553.643,332.059,553.593,332.159,553.544,332.256z
	 M554.43,330.778c-0.049-0.1-0.101-0.197-0.147-0.296c0.101,0,0.197,0,0.296,0C554.528,330.581,554.479,330.681,554.43,330.778z
	 M555.761,330.929c0,0.047,0,0.097,0,0.146c-0.296-0.099-0.592-0.197-0.889-0.296c0-0.049,0-0.1,0-0.146
	c0.253-0.186,0.388-0.195,0.593-0.443c0.195,0.05,0.395,0.099,0.592,0.146c-0.197,0.1-0.396,0.197-0.592,0.297
	C555.563,330.729,555.662,330.828,555.761,330.929z M556.057,327.527c0.407,0.442,0.094,0.567,0.294,1.034c0,0.049,0,0.099,0,0.146
	c-0.1-0.099-0.197-0.196-0.294-0.296C555.573,328.223,556.003,328.143,556.057,327.527z M556.351,329.005
	c0.301,0.289,0.16,0.054,0.296,0.593c-0.099,0-0.197,0-0.296,0C556.351,329.399,556.351,329.202,556.351,329.005z M556.794,330.482
	c-0.05-0.099-0.099-0.196-0.146-0.296C556.913,330.385,556.732,330.345,556.794,330.482z M557.386,329.597
	c-0.049-0.1-0.1-0.196-0.147-0.295C557.505,329.496,557.323,329.46,557.386,329.597z M558.126,329.153c0,0.049,0,0.098,0,0.146
	c-0.794-0.404-0.398-0.416-1.184-0.297c0-0.099,0-0.195,0-0.296c0.395-0.296,0.788-0.592,1.184-0.886
	C558.365,328.182,557.968,328.656,558.126,329.153z M558.273,327.232c-0.05-0.099-0.099-0.197-0.148-0.296
	C558.391,327.131,558.21,327.095,558.273,327.232z M558.716,328.413c0-0.196,0-0.395,0-0.59c0.302,0.287,0.16,0.052,0.296,0.59
	C558.913,328.413,558.814,328.413,558.716,328.413z M559.455,328.413c-0.049-0.1-0.099-0.196-0.146-0.296
	C559.573,328.313,559.393,328.276,559.455,328.413z M560.046,328.413c-0.051-0.1-0.101-0.196-0.147-0.296
	C560.165,328.313,559.983,328.276,560.046,328.413z M560.638,327.527c-0.049-0.099-0.101-0.197-0.147-0.295c0.101,0,0.197,0,0.296,0
	C560.736,327.33,560.688,327.429,560.638,327.527z M561.524,326.936c-0.05-0.101-0.099-0.197-0.148-0.297
	C561.643,326.835,561.462,326.801,561.524,326.936z M562.411,326.345c-0.05-0.1-0.099-0.196-0.146-0.295
	C562.529,326.245,562.349,326.207,562.411,326.345z M563.889,325.458c-0.049-0.099-0.101-0.196-0.147-0.296
	C564.008,325.358,563.826,325.321,563.889,325.458z M564.775,324.866c-0.048-0.098-0.098-0.196-0.146-0.295
	C564.895,324.766,564.712,324.727,564.775,324.866z M565.96,323.682c-0.05-0.1-0.1-0.196-0.147-0.295c0.1,0,0.196,0,0.295,0
	C566.057,323.486,566.007,323.585,565.96,323.682z M570.983,318.954c-0.05-0.1-0.098-0.196-0.146-0.296c0.098,0,0.194,0,0.295,0
	C571.082,318.758,571.032,318.854,570.983,318.954z M572.905,316.886c-0.146,0.1-0.296,0.196-0.442,0.297c-0.051,0-0.101,0-0.147,0
	c0.099-0.197,0.197-0.396,0.296-0.593c0.101,0,0.197,0,0.296,0C572.905,316.688,572.905,316.787,572.905,316.886z M589.753,280.231
	c-0.05,0-0.1,0-0.146,0c-0.05-0.592-0.099-1.186-0.148-1.774C589.812,278.809,589.799,279.473,589.753,280.231z"/>
<path d="M236.51,18.624c3.61,2.636,11.718,14.678,15.076,15.371c3.71-6.902-2.972-13.096-5.913-17.145
	C240.788,10.121,229.765,3.196,221.435,0c-6.403,0-12.81,0-19.214,0c1.829,1.861,11.169,4.51,14.189,5.912
	C223.792,9.343,230.256,14.057,236.51,18.624z"/>
<path d="M151.968,11.086c-1.971-0.049-3.941-0.099-5.912-0.147c-0.37,0.312-0.891,0.464-1.49,0.534
	c0.792-0.079,1.585-0.158,2.376-0.238C148.62,11.184,150.294,11.135,151.968,11.086z"/>
<path d="M122.113,18.624c-1.478,0.493-2.956,0.985-4.434,1.479c0,0.197,0,0.395,0,0.591c1.215-0.454,3.821-0.374,5.025,0
	c9.558,2.97,9.763,6.748,13.302,15.372c-1.752-1.069-3.216-3.951-4.434-5.617c-2.684-3.67-6.992-5.133-11.824-6.798
	c-2.769-0.957-7.82-0.088-9.164,1.478c-0.784,0.658,4.447,6.21,5.321,7.096c4.518,4.57,9.169,8.277,14.78,11.823
	c3.153,1.38,6.307,2.76,9.459,4.14c3.629-0.248,2.559-12.812,1.479-15.667C138.475,24.192,133.986,18.413,122.113,18.624z"/>
<path d="M279.963,24.831c0,0.1,0,0.197,0,0.295c0.296,0,0.591,0,0.887,0c0-0.049,0-0.099,0-0.146
	C280.556,24.93,280.259,24.882,279.963,24.831z"/>
<path d="M363.62,96.071c-0.099,0-0.195,0-0.296,0c0,0.099,0,0.197,0,0.296C363.423,96.268,363.521,96.17,363.62,96.071z"/>
<path d="M363.176,96.958c0.05,0,0.099,0,0.146,0c-0.144-0.536,0.009-0.302-0.296-0.591
	C363.077,96.564,363.128,96.761,363.176,96.958z"/>
<path d="M232.077,103.758c-0.099,0-0.197,0-0.295,0c0.049,0.098,0.099,0.196,0.147,0.295
	C231.979,103.954,232.027,103.855,232.077,103.758z"/>
<path d="M198.083,110.851c-4.009,1.323-9.309,1.049-13.598,2.365c-2.722,0.835-6.072-0.175-8.572,0.591
	c-2.759,0.049-5.518,0.099-8.277,0.147c0,0.049,0,0.1,0,0.148c10.211,0.145,22.143,0.171,30.151-2.365
	c2.463-0.781,8.504,0.022,8.868-2.661c-0.197,0-0.394,0-0.591,0C204.322,110.648,200.56,110.035,198.083,110.851z"/>
<path d="M164.236,114.103c0.049-0.1,0.099-0.197,0.148-0.296c-0.099,0-0.197,0-0.295,0
	C164.139,113.906,164.188,114.004,164.236,114.103z"/>
<path d="M164.828,114.103c0.049-0.1,0.099-0.197,0.148-0.296c-0.099,0-0.197,0-0.295,0
	C164.729,113.906,164.778,114.004,164.828,114.103z"/>
<path d="M165.862,113.955c-0.197-0.049-0.395-0.099-0.591-0.147C165.606,114.114,165.425,114.054,165.862,113.955z"/>
<path d="M166.306,114.103c0.049-0.1,0.099-0.197,0.148-0.296c-0.099,0-0.197,0-0.296,0
	C166.208,113.906,166.256,114.004,166.306,114.103z"/>
<path d="M167.192,114.103c0.048-0.1,0.098-0.197,0.147-0.296c-0.099,0-0.196,0-0.295,0
	C167.094,113.906,167.144,114.004,167.192,114.103z"/>
<path d="M224.687,125.927c1.518-2.161,2.46-4.67,4.139-6.651c0-0.049,0-0.099,0-0.148c-0.197,0-0.394,0-0.591,0
	c-2.421,5.382-6.716,9.629-10.05,14.189c-2.069,2.069-4.139,4.138-6.208,6.207c0.049,0,0.099,0,0.148,0
	C216.552,135.39,221.168,130.932,224.687,125.927z"/>
<path d="M211.384,140.116c0-0.098,0-0.197,0-0.295c-0.099,0-0.197,0-0.296,0c-0.295,0.395-0.591,0.789-0.886,1.182
	c0.049,0,0.099,0,0.147,0C210.695,140.707,211.04,140.411,211.384,140.116z"/>
<path d="M446.979,175.292c0.05,0.1,0.099,0.197,0.147,0.296C447.064,175.452,447.244,175.488,446.979,175.292z"/>
<path d="M451.117,175.736c-0.592-0.049-1.182-0.099-1.771-0.148C449.681,175.953,450.605,175.999,451.117,175.736z"/>
<path d="M283.808,203.522c-0.197-0.049-0.394-0.099-0.591-0.148C283.55,203.681,283.37,203.62,283.808,203.522z"/>
<path d="M172.07,265.746c0.048,0,0.098,0,0.147,0c7.489-11.648-1.327-22.732-14.927-22.465c-1.752,1.491-6.175,0.083-7.39,2.069
	c-0.826,1.35,0.401,8.175,0.887,9.459c2.959,7.824,6.496,11.795,13.006,15.961c1.134,0.727,2.269,1.756,3.843,2.07
	c3.177-8.328-0.159-15.354-3.843-20.396c-1.182-0.985-2.365-1.971-3.547-2.956c-0.099-0.049-0.197-0.099-0.296-0.146
	c0-0.051,0-0.101,0-0.148C167.969,250.525,172.225,256.255,172.07,265.746z"/>
<path d="M339.086,245.645c0,0.099,0,0.197,0,0.296c0.099-0.099,0.196-0.197,0.296-0.296
	C339.282,245.645,339.184,245.645,339.086,245.645z"/>
<path d="M143.692,287.621c0.678,2.122,1.924,4.186,2.365,6.207c9.842,0.102,17.759-8.355,19.214-16.553
	c-7.533-1.403-15.736,3.053-16.849,8.571c-0.049,0-0.099,0-0.148,0c-2.286-5.362,6.283-10.985,10.79-10.938c0-0.197,0-0.395,0-0.592
	c-2.26-0.133-3.788-0.911-6.503-0.887c-1.183,0.394-2.365,0.787-3.547,1.183C146.548,276.188,141.938,282.136,143.692,287.621z"/>
<path d="M589.606,280.231c0.049,0,0.099,0,0.146,0c0.046-0.758,0.059-1.422-0.297-1.774
	C589.508,279.049,589.557,279.64,589.606,280.231z"/>
<path d="M9.193,281.413c-1.646-0.917-3.128-1.555-5.912-1.479c-1.084,0.297-2.168,0.592-3.252,0.888c0,2.562,0,5.124,0,7.688
	c3.69-1.658,6.115-4.551,9.164-6.505C9.193,281.807,9.193,281.61,9.193,281.413z"/>
<path d="M572.313,317.181c0.049,0,0.099,0,0.146,0c0.148-0.1,0.298-0.196,0.444-0.295c0-0.101,0-0.197,0-0.298
	c-0.099,0-0.197,0-0.296,0C572.511,316.787,572.412,316.984,572.313,317.181z"/>
<path d="M570.983,318.954c0.049-0.1,0.099-0.196,0.147-0.296c-0.101,0-0.197,0-0.297,0
	C570.886,318.758,570.934,318.854,570.983,318.954z"/>
<path d="M568.471,321.911c0.099-0.1,0.195-0.196,0.296-0.296c-0.1,0-0.197,0-0.296,0
	C568.471,321.714,568.471,321.811,568.471,321.911z"/>
<path d="M565.96,323.682c0.049-0.1,0.099-0.196,0.146-0.295c-0.099,0-0.195,0-0.295,0C565.86,323.486,565.91,323.585,565.96,323.682
	z"/>
<path d="M564.628,324.571c0.05,0.099,0.1,0.197,0.146,0.295C564.712,324.727,564.895,324.766,564.628,324.571z"/>
<path d="M563.741,325.162c0.049,0.1,0.101,0.197,0.147,0.296C563.826,325.321,564.008,325.358,563.741,325.162z"/>
<path d="M562.264,326.051c0.049,0.098,0.098,0.195,0.146,0.295C562.349,326.207,562.529,326.245,562.264,326.051z"/>
<path d="M561.376,326.64c0.052,0.1,0.101,0.196,0.148,0.297C561.462,326.801,561.643,326.835,561.376,326.64z"/>
<path d="M558.126,326.936c0.051,0.099,0.1,0.197,0.147,0.296C558.21,327.095,558.391,327.131,558.126,326.936z"/>
<path d="M560.638,327.527c0.05-0.099,0.099-0.197,0.146-0.295c-0.099,0-0.195,0-0.296,0
	C560.539,327.33,560.589,327.429,560.638,327.527z"/>
<path d="M556.351,328.561c-0.202-0.467,0.113-0.592-0.294-1.034c-0.052,0.616-0.483,0.696,0,0.886
	c0.097,0.101,0.193,0.197,0.294,0.296C556.351,328.66,556.351,328.61,556.351,328.561z"/>
<path d="M556.942,327.527c-0.099,0-0.197,0-0.296,0c0.05,0.099,0.099,0.196,0.147,0.296
	C556.844,327.723,556.894,327.626,556.942,327.527z"/>
<path d="M558.126,327.823c-0.396,0.294-0.787,0.59-1.184,0.886c0,0.1,0,0.197,0,0.296c0.783-0.12,0.39-0.108,1.184,0.298
	c0-0.052,0-0.101,0-0.147C557.968,328.656,558.365,328.182,558.126,327.823z M557.533,328.709c0-0.099,0-0.195,0-0.296
	c0.101,0,0.197,0,0.296,0C557.73,328.513,557.632,328.61,557.533,328.709z"/>
<path d="M558.716,327.823c0,0.195,0,0.394,0,0.59c0.099,0,0.195,0,0.296,0C558.878,327.875,559.018,328.112,558.716,327.823z"/>
<path d="M561.08,328.117c0.101-0.099,0.197-0.195,0.296-0.294c-0.099,0-0.195,0-0.296,0
	C561.08,327.922,561.08,328.018,561.08,328.117z"/>
<path d="M556.942,328.117c-0.099,0-0.197,0-0.296,0c0.05,0.1,0.099,0.196,0.147,0.296
	C556.844,328.313,556.894,328.217,556.942,328.117z"/>
<path d="M559.308,328.117c0.049,0.1,0.099,0.196,0.146,0.296C559.393,328.276,559.573,328.313,559.308,328.117z"/>
<path d="M559.898,328.117c0.049,0.1,0.099,0.196,0.147,0.296C559.983,328.276,560.165,328.313,559.898,328.117z"/>
<path d="M557.533,328.709c0.101-0.099,0.197-0.195,0.296-0.296c-0.099,0-0.195,0-0.296,0
	C557.533,328.513,557.533,328.61,557.533,328.709z"/>
<path d="M556.351,329.005c0,0.197,0,0.396,0,0.593c0.099,0,0.197,0,0.296,0C556.512,329.056,556.651,329.294,556.351,329.005z"/>
<path d="M557.238,329.302c0.05,0.099,0.099,0.195,0.147,0.295C557.323,329.46,557.505,329.496,557.238,329.302z"/>
<path d="M555.465,330.186c-0.205,0.248-0.339,0.26-0.593,0.442c0,0.05,0,0.101,0,0.147c0.297,0.099,0.593,0.196,0.889,0.296
	c0-0.051,0-0.1,0-0.147c-0.101-0.099-0.197-0.195-0.296-0.296c0.195-0.098,0.395-0.194,0.592-0.295
	C555.859,330.286,555.662,330.237,555.465,330.186z"/>
<path d="M556.646,330.186c0.05,0.1,0.099,0.197,0.147,0.296C556.732,330.345,556.913,330.385,556.646,330.186z"/>
<path d="M554.43,330.778c0.05-0.1,0.099-0.197,0.146-0.296c-0.099,0-0.195,0-0.296,0
	C554.331,330.581,554.381,330.681,554.43,330.778z"/>
<path d="M553.544,332.256c0.051-0.097,0.101-0.193,0.146-0.294c-0.098,0-0.196,0-0.295,0
	C553.445,332.059,553.494,332.159,553.544,332.256z"/>
<path d="M553.248,332.848c0.051-0.1,0.101-0.197,0.147-0.295c-0.099,0-0.197,0-0.296,0
	C553.149,332.65,553.198,332.75,553.248,332.848z"/>
</svg>
