<?xml version="1.0" encoding="utf-8"?>
<!-- Generator: Adobe Illustrator 15.0.0, SVG Export Plug-In . SVG Version: 6.00 Build 0)  -->
<!DOCTYPE svg PUBLIC "-//W3C//DTD SVG 1.1//EN" "http://www.w3.org/Graphics/SVG/1.1/DTD/svg11.dtd">
<svg version="1.1" id="Layer_1" xmlns="http://www.w3.org/2000/svg" xmlns:xlink="http://www.w3.org/1999/xlink" x="0px" y="0px"
	 width="590.998px" height="152.502px" viewBox="0 0 590.998 152.502" enable-background="new 0 0 590.998 152.502"
	 xml:space="preserve">
<path d="M582.676,47.757c-8.485-10.733-22.586-17.194-37.85-21.082c-4.908-1.248-9.762-1.438-15.174-2.396
	c-13.03-2.297-33.903-2.553-47.272-0.319c-7.778,1.303-14.97,1.437-22.2,3.035c-20.972,4.645-40.747,10.037-59.249,17.248
	c-10.595,4.129-20.737,8.235-30.661,12.616c-3.25,1.544-6.493,3.088-9.743,4.632c-2.927-1.013-5.854-2.023-8.781-3.035
	c-6.36-2.47-12.434-4.543-18.524-7.188c-3.619-1.702-7.242-3.406-10.86-5.11c0-0.054,0-0.106,0-0.159
	c4.889-7.339,9.074-13.733,11.021-24.435c0.707-3.897,0.861-10.423-1.919-11.817c-0.479,0.053-0.956,0.106-1.438,0.158
	c-2.694,1.312-0.531,8.864-1.274,12.457c-1.273,6.147-3.51,11.256-6.391,15.811c-1.383,1.865-2.769,3.729-4.151,5.591
	c-2.599-0.571-4.936-2.583-7.026-3.833c-4.668-2.788-9.173-5.422-13.415-8.625c-2.076-1.756-4.151-3.514-6.229-5.27
	c1.225-2.609,2.449-5.218,3.674-7.826c2.909-8.982-0.372-18.397-9.901-18.207c-1.854,0.869-3.617,1.224-4.792,2.715
	c-5.695,7.234-1.958,20.453,3.834,24.914c0,0.106,0,0.213,0,0.319c-5.265,7.339-13.997,13.349-21.718,18.206
	c-2.078,1.227-4.153,2.45-6.229,3.676c-10.2-4.683-21.247-7.969-32.42-11.5c-45.658-14.42-121.161-27.078-175.034-11.019
	C29.492,33.117,3.834,40.09,0.243,61.331c-1.149,6.797,2.032,12.412,4.312,16.131c7.37,12.024,20.483,19.063,34.016,24.912
	c10.08,4.356,21.26,7.094,33.378,9.742c5.163,0.69,10.327,1.383,15.49,2.074c6.814,0.427,13.631,0.854,20.442,1.278
	c2.502,0,5.004,0,7.506,0c3.674,0,7.347,0,11.02,0c7.4-0.215,14.803-0.428,22.2-0.641c13.843-2.262,27.529-1.977,40.404-4.791
	c9.931-2.17,19.963-3.57,29.385-6.386c12.042-3.602,23.694-7.278,34.815-11.5c2.447,1.597,4.896,3.191,7.346,4.791
	c8.462,6.004,17.687,13.847,23.637,22.355c-3.215,5.771-6.309,10.947-7.667,18.847c-1.496,8.713,5.994,17.735,13.734,13.096
	c6.614-3.965,8.754-16.152,5.271-25.072c-1.384-2.82-2.769-5.642-4.151-8.463c0.321-1.996,3.907-4.414,5.11-5.908
	c4.062-5.047,9.555-9.787,14.691-13.734c2.185-1.702,4.364-3.407,6.548-5.11c5.484,2.396,10.97,4.791,16.448,7.188
	c10.473,4.433,21.554,8.137,32.741,11.657c54.17,17.052,135.057,19.918,186.211-2.395c17.064-7.447,33.861-18.22,37.529-38.97
	C592.452,60.315,586.737,52.892,582.676,47.757z M285.788,4.638c10.232-0.1,3.973,13.707,2.557,17.887
	C284.162,19.296,279.305,8.818,285.788,4.638z M269.02,47.757c5.798-4.075,14.784-10.416,18.366-16.45
	c1.864,1.598,3.726,3.194,5.59,4.792c4.827,3.708,14.222,11.095,20.122,12.937c-3.646,4.869-15.018,13.791-20.602,16.77
	c-6.957-3.508-14.077-6.592-21.399-9.74c-2.98-1.277-5.961-2.557-8.943-3.834C264.44,50.74,266.73,49.247,269.02,47.757z
	 M236.92,92.952c-8.783,3.083-17.951,5.373-27.628,7.827c-47.581,12.05-123.219,13.545-166.41-3.354
	c-12.856-5.03-24.853-10.642-32.42-20.922c-2.324-3.156-6.188-8.205-5.271-14.213c3.481-22.791,38.406-28.229,61.646-32.42
	c7.346-0.533,14.694-1.064,22.038-1.597c38.508,0,73.839,2.675,103.807,11.657c11.437,3.432,22.896,6.472,33.696,10.7
	c5.377,2.074,10.753,4.154,16.13,6.229c0,0.054,0,0.105,0,0.16c-4.528,3.428-12.852,5.443-18.525,7.666
	c-2.449,0.853-4.896,1.703-7.347,2.555c-3.992-1.489-7.985-2.979-11.979-4.471c-8.739-3.059-18.005-5.457-27.309-7.825
	c-9.755-2.482-19.955-3.41-30.503-5.271c-4.686-0.373-9.372-0.746-14.054-1.118c-5.056,0-10.114,0-15.172,0
	c-3.301,0.159-6.601,0.317-9.901,0.479c-8.94,1.555-17.307,2.565-23.795,6.389c-3.759,2.213-7.65,4.654-8.624,9.582
	c-2.428,12.273,17.096,18,25.871,20.443c25.417,7.063,61.912,3.676,85.601-2.396c6.015-1.704,12.031-3.406,18.045-5.108
	c3.143-1.119,6.283-2.236,9.423-3.354c1.758-0.287,7.32,2.688,8.943,3.354c5.218,2.184,10.435,4.363,15.652,6.548
	c2.928,1.489,5.854,2.98,8.782,4.472C245.334,91.136,240.087,91.839,236.92,92.952z M204.659,70.915
	c-4.438,2.592-14.898,3.504-20.76,4.789c-22.266,4.883-56.135,5.702-78.732,0.479c-7.208-1.664-21.868-4.181-24.435-9.741
	c-0.767-2.573,4.209-4.331,6.068-5.11c5.366-2.25,11.782-3.261,18.365-4.472c2.875-0.268,5.75-0.53,8.625-0.799
	c19.513,0.176,37.568,0.312,53.341,4.152c8.384,2.041,16.621,3.895,24.593,6.388C196.036,68.04,200.349,69.477,204.659,70.915z
	 M256.403,85.606c-3.621-1.915-7.24-3.834-10.859-5.749c-6.708-3.089-13.417-6.176-20.123-9.264c-0.106,0-0.213,0-0.32,0
	c0-0.053,0-0.105,0-0.16c5.409-1.669,10.37-4.682,15.332-6.867c2.714-1.331,5.429-2.662,8.144-3.992
	c2.796,0.46,5.292,2.161,7.667,3.193c7.876,3.566,15.758,7.134,23.637,10.699c0.053,0.106,0.105,0.214,0.16,0.32
	c-3.089,1.703-6.177,3.406-9.264,5.107C265.984,81.134,261.194,83.37,256.403,85.606z M292.337,136.87
	c0.701,4.043-1.858,10.641-5.91,9.741c-10.063-2.227-1.501-18.694,0.798-22.836C289.991,126.884,291.479,131.956,292.337,136.87z
	 M306.868,95.029c-5.12,3.989-10.303,8.838-14.374,13.894c-1.277,1.49-2.555,2.981-3.833,4.476
	c-0.105,0.052-0.213,0.104-0.317,0.157c-6.417-7.021-12.282-13.521-19.963-19.325c-2.199-1.658-4.403-3.956-7.027-5.109
	c-0.054-0.104-0.107-0.214-0.16-0.316c7.673-3.752,17.86-7.396,24.115-12.617c6.068,3.191,12.14,6.389,18.206,9.581
	c3.088,1.544,6.176,3.089,9.265,4.633C310.81,91.941,308.84,93.485,306.868,95.029z M297.607,68.358
	c1.702-1.277,3.407-2.558,5.109-3.833c4.937-3.727,10.776-8.19,14.533-13.098c8.105,4.103,16.162,8.046,24.911,11.658
	c2.821,1.119,5.646,2.235,8.467,3.354c-2.024,1.117-4.047,2.233-6.069,3.354c-6.107,3.6-13.34,6.961-18.684,11.5
	C316.449,76.982,307.028,72.669,297.607,68.358z M551.696,103.173c-45.226,19.172-120.693,13.556-167.211-0.479
	c-11.357-3.427-22.677-6.747-33.378-11.021c-6.6-2.66-13.201-5.322-19.805-7.982c1.222-1.444,3.312-2.172,4.954-3.194
	c4.574-2.717,9.154-5.431,13.73-8.146c2.238-1.171,4.476-2.343,6.71-3.515c3.938,1.277,7.876,2.556,11.815,3.834
	c11.162,3.5,23.348,7.182,35.616,8.785c-0.729,0.682-1.273,2.209-0.322,3.19c0.333,0.594,0.641,0.691,1.278,0.959
	c2.406-0.227,3.188-2.36,5.108-2.875c9.424,1.601,18.85,3.195,28.27,4.791c20.608,3.846,47.816,2.986,63.882-3.673
	c5.672-2.351,19.43-8.666,17.885-17.248c-1.938-10.792-16.856-13.677-27.946-15.812c-2.898-0.556-7.293-1.231-10.858-0.64
	c-5.767,0.962-11.456,1.054-16.77,2.396c-15.75,3.973-30.978,9.1-43.278,16.607c-3.106,1.895-6.798,3.512-9.262,6.067
	c-4.153-0.905-8.309-1.809-12.459-2.715c-7.452-1.863-14.907-3.727-22.355-5.59c-3.356-1.013-6.712-2.022-10.064-3.035
	c1.919-0.903,3.835-1.811,5.749-2.715c6.297-2.771,12.67-5.494,19.323-8.146c22.734-9.055,46.216-15.965,72.667-21.72
	c7.08-0.854,14.161-1.703,21.241-2.556c2.98-0.158,5.963-0.317,8.941-0.479c33.678-0.035,60.086,3.896,78.734,18.525
	c2.884,2.263,5.695,5.472,7.664,8.623C596.487,79.312,567.051,96.663,551.696,103.173z M420.736,76.982
	c2.743-2.725,8.279-4.139,11.979-5.75c10.886-4.74,22.635-8.456,35.612-11.339c3.778-0.584,7.56-1.171,11.339-1.757
	c1.543-0.105,3.088-0.213,4.631-0.319c11.115,0.009,27.402,1.826,30.984,8.942c-0.062,6.919-11.761,10.322-17.729,11.979
	C474.177,85.225,443.422,80.197,420.736,76.982z"/>
</svg>
