<?xml version="1.0" encoding="utf-8"?>
<!-- Generator: Adobe Illustrator 15.0.0, SVG Export Plug-In . SVG Version: 6.00 Build 0)  -->
<!DOCTYPE svg PUBLIC "-//W3C//DTD SVG 1.1//EN" "http://www.w3.org/Graphics/SVG/1.1/DTD/svg11.dtd">
<svg version="1.1" id="Layer_1" xmlns="http://www.w3.org/2000/svg" xmlns:xlink="http://www.w3.org/1999/xlink" x="0px" y="0px"
	 width="591px" height="501.734px" viewBox="0 0 591 501.734" enable-background="new 0 0 591 501.734" xml:space="preserve">
<path d="M518.151,384.766c1.026-1.71,2.052-3.42,3.078-5.13c0-0.342,0-0.684,0-1.026c-17.154-4.783-39.553-3.52-53.354,2.052
	c0.684-3.078,1.368-6.157,2.052-9.234c-18.556,0.313-26.729,7.68-40.016,12.312c25.84-60.323-2.311-130.352-60.537-140.568
	c-0.342-0.684-0.684-1.368-1.026-2.052c1.516-4.994,1.826-4.372,7.182-5.13c0-8.208,0-16.418,0-24.625
	c-9.233-0.342-18.47-0.684-27.703-1.026c-2.431-25.101-0.083-51.173,0-77.979c0.684-0.342,1.368-0.684,2.052-1.026
	c4.088,5.205,2.352,18.471,4.104,25.651c3,1.54,6.299,2.758,10.26,1.026c14.746-10.073-4.618-71.275-29.755-33.859
	c-1.71,28.042-3.42,56.093-5.13,84.136c-4.088,3.903-18.482,1.365-26.677,1.026c0,8.549,0,17.102,0,25.651
	c2.052,0.342,4.104,0.684,6.156,1.026c0,2.736,0,5.472,0,8.208c-6.839,2.736-13.681,5.473-20.521,8.208
	c0.021-25.793,0.883-53.549,6.156-69.771c5.158-15.87-6.317-39.397-3.078-59.51c2.186-13.574,6.254-27.02,3.078-40.016
	c-1.368-0.342-2.737-0.684-4.104-1.026c-11.755,5.168-24.87,28.374-29.755,40.016c-0.684,0.342-1.369,0.684-2.052,1.026
	c2.697-12.02,9.583-19.554,12.312-29.755c5.721-21.382-4.599-43.05,0-61.562c4.788-8.892,9.577-17.785,14.365-26.677
	c0-1.71,0-3.42,0-5.13c-27.444,7.497-61.256,43.748-50.276,85.162c4.144,15.629,16.166,22.44,17.443,43.094
	c-9.056,8.905-19.472,10.193-25.651,22.573c0.85,9.42,6.36,14.635,4.104,26.677c-3.922,20.931-17.495,28.6-17.443,53.354
	c4.801,5.283,8.816,8.39,16.417,8.208c-1.079,17.261-16.287,18.429-11.287,36.938c3.078,3.419,6.157,6.84,9.234,10.26
	c-6.873,14.932,1.182,31.002,0,54.38c-4.595,1.236-4.948,1.774-7.182,5.13c-5.13-0.342-10.261-0.684-15.391-1.026
	c-2.318,3.985-3.283,7.134-3.078,14.365c-8.55,0.342-17.102,0.684-25.651,1.026c-0.684,4.104-1.368,8.209-2.052,12.312
	c-24.075-7.362-55.541-5.123-81.058,1.026c-1.026,1.026-2.052,2.052-3.078,3.078c4.104,1.71,8.209,3.42,12.312,5.13
	c0,0.342,0,0.684,0,1.026c-12.653,8.892-25.31,17.786-37.963,26.677c1.97,3.08,0.177,1.723,4.104,3.078
	C50.489,424.747,23.221,434.83,0,440.172c0,1.71,0,3.42,0,5.13c30.905-7.811,60.726-5.554,99.526-10.261
	c3.762-0.684,7.524-1.368,11.287-2.052c13.006,6.908,40.837,8.019,57.458,3.078c19.022-5.655,31.262-24.225,48.224-31.808
	c-4.044,9.864-5.539,20.898-5.13,35.912c0.342,0,0.684,0,1.026,0c3.078-2.394,6.157-4.789,9.234-7.182
	c-4.636,17.725,7.886,40.495,21.547,44.12c0.342-2.052,0.684-4.104,1.026-6.156c17.854,13.702,42.994,19.091,63.615,30.781
	c1.026,0,2.052,0,3.078,0c-2.381-13.123-8.886-19.2-15.391-27.703c3.078-0.684,6.157-1.368,9.234-2.052
	c-1.983-15.099-8.414-36.146-14.365-51.302c16.507,8.164,33.338,14.32,59.511,13.338c6.839-1.026,13.681-2.052,20.521-3.078
	c17.099,3.762,34.203,7.524,51.302,11.287c30.028,5.588,53.766-5.49,80.031-6.156c0-1.71,0-3.42,0-5.13
	c-6.84-1.71-13.681-3.42-20.521-5.13c0-0.342,0-0.684,0-1.026c11.354-2.18,22.529-4.371,37.964-4.104
	c0.342-1.71,0.684-3.42,1.026-5.13c-2.394-1.71-4.789-3.42-7.182-5.13c-0.684,0-1.369,0-2.052,0
	c29.513-12.741,63.062,9.252,80.031-19.495c0-1.026,0-2.052,0-3.078C564.511,391.179,545.098,383.533,518.151,384.766z
	 M339.62,122.099c21.592-16.681,25.21,7.505,23.599,32.833c-1.026,0.342-2.052,0.684-3.078,1.026
	c-3.556-4.674-3.318-19.023-3.078-26.677c-2.394-1.026-4.789-2.052-7.182-3.078c-1.368,0.684-2.737,1.368-4.104,2.052
	c-3.006,18.813-3.25,42.657-3.078,67.719c-2.736,0-5.472,0-8.208,0C340.967,171.438,334.44,144.526,339.62,122.099z
	 M342.698,200.078c0,3.42,0,6.841,0,10.26c-2.394,0.342-4.789,0.684-7.182,1.026c0-3.762,0-7.524,0-11.287
	C337.909,200.078,340.304,200.078,342.698,200.078z M307.812,230.859c-0.342-5.13-0.684-10.261-1.026-15.391
	c21.545,0.684,43.096,1.368,64.641,2.052c0,4.788,0,9.577,0,14.364C350.225,231.543,329.015,231.202,307.812,230.859z
	 M362.193,235.99c0,1.71,0,3.42,0,5.13c-15.653-2.174-34.211-2.446-48.224,2.052c-0.342,0-0.684,0-1.026,0
	c0.342-2.394,0.684-4.789,1.026-7.182C330.042,235.99,346.12,235.99,362.193,235.99z M238.042,79.005
	c-8.753-36.229,23.511-58.525,40.016-71.823c-3.762,8.55-7.524,17.102-11.286,25.651c-7.293,29.442,8.333,56.382-10.261,80.031
	c0,0.684,0,1.368,0,2.052c-0.342,0-0.684,0-1.026,0C249.671,102.947,243.855,90.975,238.042,79.005z M224.703,344.75
	c16.789-4.977,7.268-30.629,11.287-43.094c0-2.052,0-4.104,0-6.156c-4.175,1.835-3.958,2.581-5.13,7.182c-0.342,0-0.684,0-1.026,0
	c-1.026-0.342-2.052-0.684-3.078-1.026c1.606-8.063,8.795-13.554,5.13-22.573c-2.325-3.755-5.616-3.856-8.208-7.183
	c-4.996-13.722,32.89-56.568,17.442-93.37c-0.684-1.026-1.368-2.052-2.052-3.078c-8.128,20.981,2.896,41.803-9.234,59.51
	c-3.078-0.684-6.157-1.368-9.234-2.052c-1.368-2.736-2.737-5.473-4.104-8.208c1.662-18.818,14.479-28.41,18.469-47.198
	c2.093-9.858-4.472-25.154-1.026-30.781c3.988-6.513,25.233-14.108,31.807-22.573c6.84-11.285,13.681-22.574,20.521-33.859
	c2.024-1.638,1.401-1.392,5.13-2.052c1.4,6.624-1.631,11.418-2.052,18.469c-1.581,26.456,0.716,51.255,1.026,74.901
	c-3.778,0.769-3.207,0.568-6.156-1.026c-0.684,0.342-1.368,0.684-2.052,1.026c0,25.991,0,51.989,0,77.979
	c-25.452,10.388-41.004,49.021-40.016,86.188c-5.814,0-11.629,0-17.443,0C224.703,345.434,224.703,345.092,224.703,344.75z
	 M206.234,352.958c12.312,0,24.626,0,36.938,0c0.342,1.026,0.684,2.052,1.026,3.078c0,1.026,0,2.052,0,3.078
	c-12.653,0.342-25.31,0.684-37.963,1.026C206.234,357.747,206.234,355.352,206.234,352.958z M247.276,366.297
	c1.71,5.813,3.42,11.629,5.13,17.443c-24.28-0.684-48.569-1.369-72.849-2.052c-0.342-5.472-0.684-10.945-1.026-16.417
	C201.444,365.613,224.363,365.955,247.276,366.297z M208.287,406.312c-28.588,21.476-43.44,28.885-89.266,25.651
	c0.684-1.368,1.368-2.736,2.052-4.104c0-0.342,0-0.684,0-1.026c-25.961,3.038-60.627,5.96-88.24,6.156c0-0.342,0-0.684,0-1.026
	c16.415-6.839,32.835-13.681,49.25-20.521c0-1.368,0-2.737,0-4.104c-2.394,0-4.789,0-7.183,0c0-0.342,0-0.684,0-1.026
	c13.961-6.09,21.755-17.659,37.964-22.573c0.342-0.684,0.684-1.369,1.026-2.052c-4.446-1.368-8.893-2.736-13.338-4.104
	c0-0.342,0-0.684,0-1.026c10.259-2.052,20.521-4.104,30.781-6.156c18.224-0.138,30.456,1.704,42.067,6.156
	c0.684,3.42,1.368,6.841,2.052,10.261c4.446,0,8.892,0,13.338,0c14.707,0,29.415,0,44.12,0c0,0.342,0,0.684,0,1.026
	C222.406,391.636,216.448,400.182,208.287,406.312z M296.526,450.432c-2.394,0.684-4.789,1.369-7.182,2.052c0,0.342,0,0.684,0,1.026
	c2.052,3.42,4.104,6.841,6.156,10.261c1.368,1.368,2.736,2.736,4.104,4.104c-3.419,0.684-6.84,1.368-10.26,2.052
	c-0.342,1.026-0.684,2.052-1.026,3.078c5.966,7.726,12.783,13.205,17.442,22.573c-24.958-10.313-44.839-18.902-63.614-33.859
	c-1.918,2.399-2.111,4.376-2.052,9.234c-0.342,0-0.684,0-1.026,0c-11.726-8.661-14.122-22.68-13.339-44.12
	c-5.813,1.307-7.414,3.344-11.286,6.156c0.838-30.146,14.46-35.374,35.911-45.146c2.052,0,4.104,0,6.156,0
	c-7.398,12.438-15.289,24.934-20.521,37.963c0,0.342,0,0.684,0,1.026c0.342,0,0.684,0,1.026,0c3.42-4.788,6.841-9.577,10.26-14.365
	c0-0.684,0-1.368,0-2.052c1.026,8.208,2.052,16.418,3.078,24.625c4.104,7.866,8.209,15.733,12.312,23.599
	c0.684,0.342,1.368,0.684,2.052,1.026c0.342,0,0.684,0,1.026,0c-1.336-13.113-8.855-19.999-13.338-30.781c0-1.368,0-2.736,0-4.104
	c5.368,4.213,8.192,8.603,16.417,10.26c0-0.342,0-0.684,0-1.026c-5.472-4.446-10.945-8.893-16.417-13.338
	c-0.174-11.578,0.783-21.619,5.13-28.729c0-0.684,0-1.368,0-2.052C276.144,406.391,287.979,423.194,296.526,450.432z
	 M357.062,429.912c-71.875,14.358-130.671-58.559-106.708-125.177c10.187-28.318,33.135-49.305,62.589-58.484
	c9.233-1.368,18.47-2.736,27.703-4.104C460.186,241.461,469.416,407.467,357.062,429.912z M503.787,407.338
	c-0.342,0.684-0.684,1.369-1.026,2.052c0,0.684,0,1.368,0,2.052c3.078,1.026,6.157,2.052,9.234,3.078
	c-4.743,2.437-35.485,10.169-40.016,11.286c2.88,6.077,13.476,3.63,18.469,7.183c-19.818,1.415-40.187,10.091-63.614,6.156
	c-17.099-3.42-34.203-6.841-51.302-10.261c8.052-7.005,29.484-4.258,42.068-8.208c7.523-3.42,15.049-6.841,22.573-10.261
	c12.995,0.342,25.994,0.684,38.99,1.026c0-0.342,0-0.684,0-1.026c-9.917-1.026-19.838-2.052-29.755-3.078c0-0.342,0-0.684,0-1.026
	c14.597-2.803,79.001-11.609,89.266-9.234c6.84,0,13.681,0,20.521,0c-5.478-8.403-64.142-1.307-75.927-1.026
	c0-0.342,0-0.684,0-1.026c7.182-2.052,14.365-4.104,21.547-6.156c0.342-0.684,0.684-1.368,1.026-2.052c0-0.342,0-0.684,0-1.026
	c-17.635,0.246-18.295,7.2-28.729,11.287c-8.208,1.368-16.417,2.736-24.625,4.104c-17.451,6.005-33.111,15.48-55.406,17.443
	c18.664-20.513,35.928-29.385,63.615-42.068c1.368,0,2.736,0,4.104,0c-1.026,3.42-2.052,6.841-3.078,10.261
	c16.168-3.635,30.739-8.171,51.302-5.13c-1.026,2.052-2.052,4.104-3.078,6.156c0,0.342,0,0.684,0,1.026
	c9.917-0.342,19.838-0.684,29.755-1.026c11.494,2.578,28.805,10.375,42.068,7.182C570.358,408.235,522.051,404.469,503.787,407.338z
	"/>
<path d="M258.562,42.068c-1.368,0-2.736,0-4.104,0c-6.173,15.77-12.517,35.247-5.13,55.406c1.026,0.684,2.052,1.368,3.078,2.052
	C260.513,82.657,254.638,62.116,258.562,42.068z M251.38,90.292c-0.342,0-0.684,0-1.026,0c-3.115-11.997-1.984-27.793,2.052-37.963
	C255.746,59.934,252.564,80.67,251.38,90.292z"/>
<path d="M347.828,337.568c2.848-3.106,11.744-3.922,20.521-5.13c0.342-2.052,0.684-4.104,1.026-6.156
	c-4.446,1.026-8.893,2.052-13.338,3.078c3.721-4.893,9.476-10.719,16.417-12.312c0-2.052,0-4.104,0-6.156
	c-6.498,0.342-12.998,0.684-19.495,1.026c-2.599-6.472-7.656-12.936-13.339-16.417c-0.684,0.342-1.368,0.684-2.052,1.026
	c-0.948,7.819-3.188,16.986-1.026,24.625c-2.04-2.622-2.503-9.307-3.078-13.338c-1.71-1.026-3.42-2.052-5.13-3.078
	c-0.342,0.342-0.684,0.684-1.026,1.026c-1.331,7.1,0.376,11.115,3.078,16.417c-4.446-5.13-8.893-10.261-13.338-15.391
	c-1.368-1.026-2.736-2.052-4.104-3.078c-0.342,7.866-0.684,15.733-1.026,23.599c-6.156,3.42-12.313,6.841-18.469,10.261
	c0,1.709,0,3.42,0,5.13c9.233,0,18.47,0,27.703,0c-5.851,2.502-10.571,1.796-14.364,6.156c0,1.368,0,2.737,0,4.104
	c4.762,0.458,7.244-0.681,12.312-2.052c-5.791,5.578-11.573,6.369-15.391,14.365c13.955,9.325,22.803-7.284,31.807,13.338
	c1.71,0,3.42,0,5.13,0c3.985-2.56,3.754-8.378,2.052-13.338c3.089,2.142,2.592,2.651,8.208,3.078
	c-0.153-8.304-1.759-11.844-4.104-17.443c8.246,6.794,12.595,18.794,24.625,21.547c-3.404-13.966-2.866-25.804,9.234-29.755
	c0-1.368,0-2.736,0-4.104C370.887,335.68,359.211,337.17,347.828,337.568z M310.891,363.219c0-0.342,0-0.684,0-1.026
	c8.208-6.498,16.417-12.998,24.625-19.495c0.342,9.576,0.684,19.154,1.026,28.729C327.901,364.551,326.328,362.217,310.891,363.219z
	 M336.542,337.568c-11.969,0.684-23.942,1.368-35.911,2.052c-0.342-0.684-0.684-1.368-1.026-2.052
	c4.788-2.394,9.577-4.789,14.365-7.183c2.118-4.227,2.824-12.941,1.026-18.469c6.877,5.069,14.987,14.381,18.469,22.573
	c1.026,0.684,2.052,1.368,3.078,2.052C336.542,336.884,336.542,337.226,336.542,337.568z M341.672,334.49c-0.342,0-0.684,0-1.026,0
	c1.468-6.689,5.516-9.85,8.208-16.417c-1.368,0-2.736,0-4.104,0c-1.026,2.736-2.052,5.473-3.078,8.208c-0.342,0-0.684,0-1.026,0
	c0.342-7.523,0.684-15.049,1.026-22.573c3.078,4.104,6.157,8.208,9.234,12.312c4.788-0.342,9.577-0.684,14.365-1.026
	C359.524,322.772,350.479,329.859,341.672,334.49z M373.479,341.672c-5.583,8.902-8.276,9.798-7.182,24.625
	c-7.182-8.208-14.365-16.417-21.547-24.625c2.052-0.342,4.104-0.684,6.156-1.026c7.182,0,14.365,0,21.547,0
	C372.795,340.988,373.137,341.33,373.479,341.672z"/>
<path d="M318.073,327.307c0.536,4.132,4.475,7.448,9.234,10.261c1.026,0,2.052,0,3.078,0
	C328.934,330.987,325.328,328.049,318.073,327.307z"/>
<path d="M360.141,351.932c1.026-1.026,2.052-2.052,3.078-3.078c-2.779-3.299-4.573-4.504-10.26-5.13
	C353.525,347.26,356,349.278,360.141,351.932z"/>
<path d="M328.333,358.088c0,0.342,0,0.684,0,1.026c0.684,0.342,1.368,0.684,2.052,1.026c0.684-0.342,1.368-0.684,2.052-1.026
	c0.684-3.42,1.368-6.841,2.052-10.261c-1.026,0-2.052,0-3.078,0C330.385,351.932,329.359,355.011,328.333,358.088z"/>
<path d="M55.406,425.807c-0.342,0.684-0.684,1.369-1.026,2.052c0,1.026,0,2.052,0,3.078c26.174-4.437,39.203-20.956,68.745-22.573
	c-0.342,1.709-0.684,3.42-1.026,5.13c5.228-1.927,2.875-3.797,6.156-6.156c12.995-2.394,25.994-4.789,38.989-7.182
	c-0.684,1.71-1.368,3.42-2.052,5.13c7.222-2.219,18.436-9.175,25.651-13.339c-0.652-4.104,0.08-3.053-2.052-5.13
	c-22.523,14.588-58.989,10.426-88.239,18.469C83.095,410.086,73.54,422.369,55.406,425.807z"/>
<path d="M146.724,397.078c1.71,0,3.42,0,5.13,0c0-0.342,0-0.684,0-1.026c-3.603-3.738-7.812-5.213-15.391-5.13
	C138.252,396.462,141.374,395.737,146.724,397.078z"/>
</svg>
