<?xml version="1.0" encoding="utf-8"?>
<!-- Generator: Adobe Illustrator 16.0.0, SVG Export Plug-In . SVG Version: 6.00 Build 0)  -->
<!DOCTYPE svg PUBLIC "-//W3C//DTD SVG 1.1//EN" "http://www.w3.org/Graphics/SVG/1.1/DTD/svg11.dtd">
<svg version="1.1" id="Lag_1" xmlns="http://www.w3.org/2000/svg" xmlns:xlink="http://www.w3.org/1999/xlink" x="0px" y="0px"
	 width="2692.864px" height="810.301px" viewBox="0 0 2692.864 810.301" enable-background="new 0 0 2692.864 810.301"
	 xml:space="preserve">
<path fill-rule="evenodd" clip-rule="evenodd" d="M0.074,722.364c1.978-0.43,3.567-0.617,5.045-1.124
	c6.617-2.269,13.259-4.481,19.787-6.989c11.488-4.413,23.185-8.433,34.258-13.735c9.899-4.739,19.259-10.705,28.515-16.659
	c7.765-4.994,15.676-10.078,22.333-16.379c5.715-5.409,12.083-10.002,17.637-15.499c4.165-4.122,7.568-9.001,11.482-13.391
	c3.147-3.528,6.707-6.691,9.807-10.257c5.895-6.778,11.901-13.494,17.301-20.658c9.044-11.997,17.894-24.16,26.323-36.593
	c3.533-5.212,5.647-11.367,8.668-16.951c1.796-3.319,4.428-6.2,6.118-9.562c5.159-10.265,10.703-20.411,14.86-31.086
	c4.669-11.987,8.43-24.382,11.788-36.815c4.395-16.275,8.437-32.676,11.805-49.19c2.186-10.72,2.745-21.764,4.317-32.621
	c1.425-9.838,3.304-19.608,4.824-29.435c0.351-2.269,0.052-4.638,0.052-8.542c-3.957,4.955-6.879,8.735-9.931,12.408
	c-4.65,5.599-9.212,11.287-14.141,16.634c-4.957,5.377-10.152,10.561-15.535,15.512c-9.301,8.557-20.644,9.579-32.668,8.862
	c-10.665-0.635-18.617-5.48-24.792-13.702c-2.317-3.086-4.446-6.432-5.995-9.952c-4.039-9.185-6.991-18.63-6.946-28.908
	c0.044-10.265-1.217-20.562-0.743-30.792c0.499-10.771,2.237-21.497,3.701-32.206c0.814-5.952,1.576-12.026,3.435-17.693
	c2.555-7.786,6.15-15.229,9.261-22.836c6.854-16.759,20.254-28.271,32.717-40.454c5.966-5.832,12.357-11.363,19.164-16.17
	c9.822-6.938,20.343-12.877,30.294-19.643c9.144-6.216,19.48-8.918,30.059-9.338c10.143-0.402,20.668,1.384,27.213,10.467
	c6.364,8.833,10.529,18.499,6.239,29.997c-1.827,4.898-1.878,10.407-6.205,14.289c-4.01,3.597-7.575,7.703-11.689,11.165
	c-3.475,2.924-7.396,5.342-11.259,7.762c-0.846,0.531-2.279,0.127-3.441,0.152c-0.026-1.386-0.654-3.257,0.013-4.084
	c7.938-9.841,7.157-20.715,2.949-31.343c-2.678-6.764-8.034-11.696-15.979-12.747c-1.923-0.254-3.754-1.862-5.613-1.837
	c-11.723,0.159-22.649,3.071-32.495,9.758c-3.928,2.667-8.561,4.338-12.341,7.171c-8.792,6.587-15.591,15.161-20.449,24.869
	c-7.863,15.714-13.521,32.229-14.777,49.99c-0.894,12.636-1.811,25.274-3.017,37.883c-1.151,12.035,1.78,23.556,4.301,35.063
	c0.8,3.651,3.916,6.861,6.211,10.104c4.063,5.742,8.473,12.399,15.89,12.455c9.644,0.071,20.332,1.685,27.099-9.001
	c3.297-5.208,8.393-9.261,12.537-13.958c1.141-1.294,1.683-3.097,2.671-4.55c8.066-11.874,13.436-24.944,17.763-38.567
	c1.771-5.575,4.82-10.731,6.919-16.22c1.244-3.257,0.869-7.441,2.783-10.075c5.94-8.178,12.37-16.052,19.23-23.471
	c1.47-1.589,6.659-2.023,8.138-0.722c1.741,1.533,2.173,5.693,1.669,8.438c-2.078,11.32-4.891,22.502-7.119,33.797
	c-2.521,12.779-4.718,25.624-7.037,38.443c-1.683,9.301-3.39,18.599-4.987,27.915c-1.412,8.239-2.653,16.509-4.035,24.754
	c-1.963,11.715-3.658,23.487-6.089,35.105c-1.849,8.837-4.65,17.475-7.052,26.194c-2.623,9.523-3.985,19.666-8.234,28.403
	c-5.438,11.184-7.074,23.841-14.773,34.187c-4.503,6.05-6.631,13.822-10.233,20.604c-2.266,4.266-5.258,8.149-7.967,12.176
	c-3.16,4.697-6.402,9.339-9.544,14.047c-5.479,8.208-10.674,16.616-16.427,24.625c-5.272,7.341-10.884,14.472-16.777,21.325
	c-8.148,9.477-16.577,18.722-25.114,27.852c-8.912,9.531-17.665,19.279-27.278,28.068c-9.916,9.065-20.404,17.62-31.342,25.416
	c-10.674,7.609-21.942,14.523-33.515,20.679c-6.554,3.485-14.29,4.704-21.414,7.175c-7.026,2.437-13.809,5.718-20.972,7.571
	c-4.81,1.244-10.096,0.748-15.169,0.758c-0.692,0.002-1.839-1.511-1.988-2.447C-0.144,726.289,0.074,724.258,0.074,722.364z"/>
<path fill-rule="evenodd" clip-rule="evenodd" d="M2494.421,323.896c-6.438,0.645-12.602,1.507-18.793,1.821
	c-8.337,0.422-16.709,0.2-25.033,0.753c-2.212,0.147-5.078,1.575-6.312,3.345c-4.845,6.945-8.958,14.397-13.725,21.402
	c-4.523,6.647-9.503,12.988-14.328,19.429c-2.01,2.682-4.1,5.305-6.219,7.9c-7.765,9.511-16.512,17.949-26.532,25.123
	c-6.84,4.896-13.958,8.244-22.375,10.104c-5.037,1.113-8.565,1.145-12.919-1.146c-1.643-0.863-4.397,0.579-6.655,0.649
	c-3.235,0.099-7.61,0.755-8.255-3.286c-0.477-2.988,1.131-6.68,2.737-9.536c2.181-3.879,5.559-7.071,7.868-10.894
	c5.078-8.402,11.041-10.048,20.245-6.307c5.326,2.164,11.125,3.26,16.802-0.185c6.299-3.822,13.425-6.516,19.094-11.066
	c4.967-3.986,8.773-9.619,12.447-14.968c5.139-7.479,9.689-15.361,14.458-23.092c0.495-0.801,1.046-1.726,1.093-2.617
	c0.186-3.591,1.279-6.603,3.729-9.429c4.286-4.947,6.383-11.083,9.07-16.99c2.07-4.553,4.731-9.16,7.114-13.781
	c5.197-10.075,11.267-19.702,16.41-29.803c4.402-8.646,7.96-17.721,12.005-26.554c1.156-2.524,2.87-4.792,4.032-7.313
	c1.113-2.417-0.201-3.826-2.359-2.44c-3.714,2.383-6.757,5.836-10.522,8.107c-4.738,2.858-8.513,8.308-16.828,6.655
	c2.94-4.371,5.27-8.074,7.847-11.596c2.318-3.167,4.618-6.438,7.436-9.131c7.314-6.992,14.901-13.701,22.397-20.504
	c2.979-2.703,5.907-5.477,9.04-7.994c3.574-2.873,7.578-1.531,8.711,2.785c1.967,7.496,5.578,15.088,5.234,22.488
	c-0.252,5.436,1.463,10.304,1.654,15.476c0.354,9.63,3.262,19.155,4.939,28.754c0.447,2.556,0.111,5.241,0.446,7.826
	c0.952,7.359,1.99,14.709,3.132,22.041c1.419,9.114,2.912,10.332,11.826,7.085c6.596-2.403,12.629-6.313,19.025-9.315
	c4.149-1.948,8.499-3.469,12.759-5.181c0.447,0.515,0.895,1.029,1.342,1.544c-0.765,1.546-1.156,3.521-2.358,4.563
	c-5.795,5.021-11.665,9.982-17.786,14.597c-5.96,4.493-12.329,8.438-18.364,12.838c-2.055,1.497-3.218,2.857-1.739,6.486
	c1.804,4.425,0.681,9.972,1.269,14.98c1.02,8.701,1.555,17.594,3.896,25.957c1.514,5.405,2.592,11.585,7.824,15.622
	c6.482,5.001,9.623,5.169,14.075-1.68c5.56-8.551,10.783-17.38,15.371-26.482c3.737-7.414,6.708-15.28,9.336-23.174
	c3.695-11.097,6.662-22.435,10.147-33.605c1.17-3.75,3.346-7.2,4.377-10.976c0.978-3.579,0.922-7.43,1.603-11.108
	c0.275-1.49,0.997-3.13,2.029-4.209c5-5.226,9.988-10.493,15.396-15.277c1.696-1.5,4.658-1.729,7.106-2.102
	c0.587-0.09,2.121,1.619,2.065,2.42c-0.473,6.755-2.01,13.549-1.532,20.21c0.233,3.248-0.884,5.824-1.009,8.702
	c-0.289,6.664-0.092,13.35,1.002,20.955c2.716-2.67,5.455-5.318,8.144-8.017c4.569-4.588,8.913-9.422,13.712-13.752
	c4.486-4.048,9.384-7.651,14.203-11.315c9.514-7.231,19.958-11.993,32.234-11.312c1.812,0.1,4.998,0.772,5.109,1.536
	c0.379,2.595,0.634,6.18-0.823,7.878c-3.665,4.272-8.256,7.759-12.54,11.486c-3.914,3.405-8.293,4.751-13.674,5.423
	c-7.24,0.903-14.055,4.377-19.426,9.985c-2.953,3.084-6.692,5.44-9.499,8.633c-2.562,2.915-4.511,6.423-6.434,9.836
	c-2.999,5.325-5.843,10.744-8.56,16.22c-1.312,2.646-2.576,5.428-3.184,8.292c-1.854,8.748-3.281,17.586-5.053,26.354
	c-2.188,10.823-2.182,22.522-11.914,30.431c-4.371,3.553-8.527,7.378-13.002,10.79c-1.016,0.774-3.479,1.015-4.333,0.328
	c-1.368-1.102-2.904-3.311-2.699-4.825c0.911-6.749,1.534-13.751,3.915-20.036c3.507-9.257,0.462-18.348,1.856-27.434
	c-0.493-0.301-0.985-0.601-1.478-0.901c-1.215,1.115-2.738,2.035-3.589,3.38c-3.716,5.877-7.124,11.949-10.863,17.811
	c-3.355,5.26-6.56,10.714-10.604,15.415c-8.55,9.937-17.435,19.728-30.78,23.367c-5.715,1.559-17.784-4.013-19.813-9.619
	c-2.806-7.751-4.182-16.033-7.152-23.708c-3.155-8.148-2.345-16.461-2.946-24.766c-0.517-7.143-1.608-14.255-2.737-21.335
	C2496.79,330.112,2495.554,327.431,2494.421,323.896z M2485.627,254.348c-0.812-0.108-1.623-0.216-2.435-0.324
	c-9.998,14.883-15.58,32.071-24.544,48.266c1.844,0.42,3.229,1.111,4.512,0.953c3.044-0.374,6.021-1.542,9.057-1.677
	c4.961-0.22,9.947,0.181,14.923,0.213c2.175,0.014,4.461-0.453,4.204-3.279c-0.584-6.41-1.434-12.796-2.212-19.187
	c-0.297-2.429-0.707-4.843-1.047-7.267C2487.26,266.148,2486.447,260.248,2485.627,254.348z"/>
<path fill-rule="evenodd" clip-rule="evenodd" d="M1454.753,344.774c-6.911,7.416-12.479,13.751-18.433,19.697
	c-9.253,9.241-18.707,18.285-28.205,27.275c-3.739,3.54-7.607,7.025-11.813,9.969c-5.173,3.621-10.982,5.19-17.535,5.445
	c-7.917,0.307-12.163-4.652-16.906-9.275c-3.63-3.538-8.143-6.712-10.363-11.024c-3.346-6.496-4.923-13.886-7.453-20.822
	c-3.19-8.742-1.106-17.811-1.607-26.695c-0.329-5.843,1.792-11.838,2.914-17.746c1.897-9.987,3.369-20.094,5.985-29.892
	c1.858-6.96,5.212-13.536,8.069-20.211c2.775-6.483,5.574-12.97,8.715-19.28c3.745-7.522,7.36-15.191,11.97-22.179
	c4.187-6.346,9.069-12.477,14.66-17.593c7.593-6.947,16.521-12.427,24.185-19.307c6.528-5.861,14.879-8,21.858-12.52
	c7.938-5.143,16.265-7.963,25.309-9.253c9.571-1.365,17.127,2.824,22.054,12.132c2.608,4.928,4.418,9.946,3.904,15.58
	c-0.729,7.981-4.469,14.702-9.794,20.325c-3.439,3.632-7.871,6.341-11.955,9.332c-1.014,0.742-2.845,1.694-3.523,1.279
	c-1.215-0.743-2.435-2.384-2.592-3.769c-0.372-3.292-0.055-6.655-0.141-9.986c-0.169-6.581-1.823-12.765-6.882-17.23
	c-8.496-7.501-14.038-8.559-23.7-3.325c-4.194,2.271-8.42,4.247-12.745,6.184c-5.098,2.282-10.275,6.406-13.202,11.111
	c-7.175,11.533-13.665,23.59-19.306,35.95c-4.565,10.004-8.087,20.595-10.975,31.224c-2.792,10.274-4.441,20.889-6.128,31.428
	c-2.511,15.687-2.061,31.148,3.714,46.306c3.105,8.15,8.585,13.773,15.529,18.551c5.479,3.769,17.839,1.898,22.661-2.638
	c9.655-9.082,19.452-18.052,28.565-27.661c7.979-8.413,15.381-17.424,22.457-26.617c2.552-3.314,3.293-7.984,5.079-11.937
	c2.289-5.063,4.158-10.499,7.399-14.896c2.996-4.062,7.521-7.015,11.46-10.354c1.926-1.632,3.889-3.391,6.144-4.401
	c1.408-0.631,3.807-0.553,4.987,0.29c0.925,0.661,1.202,3.126,0.83,4.543c-1.42,5.407-3.045,10.777-4.915,16.047
	c-3.813,10.751-7.933,21.394-11.688,32.163c-0.734,2.108-0.074,4.667-0.599,6.89c-3.485,14.771-7.26,29.474-10.646,44.266
	c-1.956,8.544-3.044,17.291-5.105,25.806c-2.1,8.674-5.115,17.123-7.35,25.769c-1.816,7.031-2.77,14.288-4.658,21.296
	c-1.992,7.387-4.684,14.583-6.984,21.89c-1.453,4.614-2.786,9.268-4.109,13.922c-1.32,4.642-2.639,9.286-3.821,13.964
	c-3.054,12.073-5.947,24.188-9.069,36.243c-2.539,9.804-5.034,19.635-8.077,29.288c-2.583,8.193-5.963,16.134-8.909,24.217
	c-2.038,5.588-3.436,11.469-6.001,16.794c-5.583,11.586-11.748,22.892-17.626,34.337c-0.737,1.437-1.032,3.102-1.775,4.535
	c-7.735,14.932-15.059,30.091-25.348,43.56c-2.142,2.804-2.975,6.601-5.097,9.424c-3.111,4.141-6.948,7.729-10.282,11.713
	c-4.133,4.939-7.582,10.549-12.184,14.977c-11.124,10.701-22.589,21.065-34.225,31.21c-7.164,6.247-15.322,11.384-22.273,17.839
	c-10.022,9.308-21.936,15.815-32.902,23.706c-3.692,2.657-7.762,4.789-12.486,7.664c-0.684-8.371,5.311-10.42,8.958-13.652
	c4.639-4.109,10.438-6.876,15.356-10.709c11.581-9.026,23.189-18.05,34.305-27.634c9.095-7.842,17.851-16.155,26.092-24.887
	c7.129-7.552,13.725-15.697,19.779-24.137c3.7-5.159,5.753-11.471,8.871-17.085c4.263-7.675,8.988-15.095,13.224-22.784
	c3.136-5.691,5.824-11.63,8.68-17.475c2.894-5.923,6.154-11.708,8.522-17.836c3.532-9.138,6.396-18.532,9.594-27.8
	c2.312-6.698,4.739-13.356,7.055-20.054c1.881-5.439,3.752-10.884,5.476-16.374c1.257-4,2.262-8.079,3.389-12.121
	c0.643-2.306,1.352-4.595,1.951-6.911c1.66-6.407,3.304-12.818,4.903-19.24c1.154-4.632,2.107-9.317,3.37-13.919
	c1.207-4.402,2.771-8.706,4.051-13.091c3.899-13.365,7.914-26.701,11.551-40.138c3.832-14.16,7.292-28.421,10.878-42.646
	c0.358-1.42,0.396-2.917,0.704-4.353c1.347-6.282,3.546-12.504,3.944-18.841c0.812-12.964,5.361-24.983,8.196-37.429
	c0.912-4.006,2.049-7.962,2.917-11.977C1455.768,348.329,1455.252,347.295,1454.753,344.774z"/>
<path fill-rule="evenodd" clip-rule="evenodd" d="M830.67,355.961c-1.267,1.635-2.861,3.108-3.748,4.929
	c-7.975,16.363-19.663,29.894-33.657,41.075c-3.6,2.876-11.155,2.714-16.178,1.337c-4.661-1.278-8.49-6.356-7.902-12.087
	c1.133-11.045,3.002-22.014,4.4-33.034c0.283-2.235-0.163-4.562-0.308-7.576c-6.346,9.632-12.753,17.616-17.191,26.576
	c-4.593,9.269-13.311,14.657-18.817,22.996c-2.668,4.04-7.557,7.166-12.102,9.294c-7.851,3.675-14.273-2.206-14.567-11.926
	c-0.317-10.463-0.17-20.984,0.567-31.425c1.298-18.357,3.219-36.671,4.835-55.007c0.483-5.481,0.822-10.975,1.324-17.774
	c-6.126,3.979-8.437,13.485-17.633,8.511c5.48-8.446,10.759-16.471,15.91-24.576c1.856-2.921,3.274-6.12,5.124-9.046
	c5.366-8.486,11.767-16.1,19.92-22.044c1.472-1.072,3.98-2.051,5.375-1.49c1.165,0.467,2.047,3.294,1.932,5
	c-0.455,6.704-1.347,13.378-2.09,20.062c-0.925,8.309-1.771,16.626-2.819,24.919c-1.146,9.067-2.483,18.11-3.741,27.163
	c-0.045,0.326-0.189,0.646-0.19,0.97c-0.009,17.401-0.008,34.802-0.008,52.996c2.028-2.386,4.366-4.442,5.843-6.997
	c4.855-8.396,9.62-16.859,13.999-25.511c4.305-8.507,8.142-17.253,12.098-25.933c3.079-6.755,6.007-13.578,9.039-20.354
	c2.624-5.864,5.403-11.663,7.918-17.573c1.524-3.58,2.658-7.325,4.004-10.982c0.659-1.789,1.027-3.852,2.173-5.266
	c4.544-5.605,9.291-11.05,14.069-16.46c2.541-2.877,6.436-3.674,9.115-1.766c1.439,1.025,1.285,5.394,0.688,7.986
	c-2.789,12.131-5.933,24.183-9.053,36.235c-1.541,5.953-3.725,11.768-4.863,17.788c-1.426,7.536-1.972,15.234-3.089,22.834
	c-1.541,10.49-3.269,20.952-4.892,31.431c-0.126,0.816-0.307,1.752-0.042,2.479c1.021,2.805,2.214,5.547,3.342,8.312
	c2.383-0.997,5.652-1.326,6.993-3.106c5.549-7.366,10.696-15.056,15.642-22.849c4.718-7.434,9.47-14.914,13.322-22.806
	c2.935-6.011,4.773-12.618,6.565-19.107c1.684-6.092,3.038-12.328,3.848-18.591c0.731-5.656,0.201-11.47,0.822-17.148
	c0.852-7.786,2.354-15.498,3.411-23.265c1.104-8.112,1.863-16.272,3.046-24.372c1.486-10.175,3.361-20.292,4.861-30.465
	c1.503-10.193,2.604-20.446,4.165-30.63c0.906-5.918,2.367-11.751,3.684-18.131c-1.764,0-2.516,0.05-3.258-0.011
	c-1.346-0.108-3.339,0.188-3.868-0.545c-0.712-0.987-0.617-2.864-0.306-4.23c2.263-9.929,10.675-15.84,16.045-23.73
	c3.709-5.45,9.473-9.521,14.42-14.1c1.785-1.651,3.717-3.297,5.877-4.329c1.078-0.515,3.501-0.125,4.104,0.72
	c0.936,1.311,1.711,3.882,1.036,5.016c-6.408,10.766-6.531,23.062-8.713,34.811c-2.979,16.041-5.388,32.188-8.104,48.277
	c-1.897,11.242-4.042,22.444-5.8,33.708c-1.011,6.478-1.395,13.051-2.194,19.564c-1.196,9.74-2.521,19.464-3.771,29.197
	c-1.417,11.039-2.588,22.115-4.293,33.108c-1.12,7.228-3.04,14.329-4.518,21.504c-0.885,4.295-1.693,8.608-2.378,12.938
	c-0.765,4.839-1.553,9.688-1.968,14.563c-0.615,7.23-0.912,14.488-1.335,21.588c5.201,2.249,7.42-1.446,9.402-4.094
	c7.708-10.3,15.097-20.842,22.505-31.363c1.381-1.962,2.431-4.189,3.418-6.392c3.123-6.968,8.979-7.066,15.277-6.196
	c2.62,3.251,0.597,5.653-1.153,8.568c-4.186,6.971-7.482,14.492-11.87,21.321c-7.823,12.176-15.702,24.379-24.519,35.83
	c-4.797,6.229-11.756,10.753-17.382,16.403c-3.035,3.049-5.962,6.034-10.364,6.492c-3.41,0.354-6.888,0.07-10.512,0.07
	C825.162,392.163,832.88,374.505,830.67,355.961z"/>
<path fill-rule="evenodd" clip-rule="evenodd" d="M1953.798,337.151c1.338-2.784,2.51-4.552,3.064-6.496
	c2.033-7.113,3.961-14.261,5.732-21.444c1.319-5.346,2.2-10.801,3.547-16.139c0.661-2.619,2.044-5.046,2.91-7.624
	c1.922-5.716,3.604-11.516,5.604-17.203c3.075-8.744,6.208-17.474,9.571-26.11c1.822-4.682,4.072-9.208,6.306-13.718
	c3.776-7.628,7.481-15.306,11.615-22.739c3.535-6.357,7.647-12.394,11.474-18.59c2.512-4.07,4.839-8.261,7.483-12.241
	c3.594-5.409,7.405-10.673,11.134-15.992c4.057-5.786,7.932-11.712,12.245-17.299c3.597-4.659,7.719-8.913,11.599-13.354
	c5.044-5.773,9.777-11.855,15.177-17.273c15.338-15.391,30.629-30.856,46.595-45.581c7.112-6.559,15.796-11.415,23.776-17.029
	c0.382-0.269,0.977-0.28,1.289-0.594c11.773-11.834,26.732-18.63,41.59-25.18c11.796-5.2,24.389-8.591,36.627-12.789
	c10.341-3.547,20.885-5.872,31.864-6.537c8.885-0.539,17.734-1.81,26.571-2.968c8.092-1.061,15.915,1.604,24.015,1.413
	c4.377-0.104,8.714,3.517,13.272,4.576c10.103,2.347,18.916,7.387,27.798,12.338c5.128,2.859,8.885,6.988,10.876,12.646
	c1.035,2.943,2.414,5.764,3.521,8.685c1.505,3.972-0.402,7.073-3.364,9.148c-5.749,4.028-11.702,7.804-17.8,11.283
	c-4.112,2.347-7.119,1.115-8.471-3.387c-2.51-8.36-8.595-13.446-15.652-17.52c-5.036-2.907-10.373-5.354-15.746-7.602
	c-5.028-2.105-10.26-3.739-15.438-5.468c-3.812-1.272-7.678-2.382-11.528-3.532c-10.645-3.179-21.586-2.547-32.48-2.507
	c-0.334,0.001-0.684-0.05-0.997,0.033c-11.338,2.978-22.824,5.495-33.967,9.078c-13.242,4.259-26.374,8.999-39.19,14.391
	c-6.839,2.878-12.961,7.494-19.322,11.462c-5.746,3.584-11.779,6.863-16.978,11.139c-11.232,9.241-22.114,18.918-32.932,28.647
	c-5.913,5.319-11.641,10.894-17.014,16.753c-5.274,5.752-10.094,11.935-14.935,18.069c-6.166,7.815-12.331,15.643-18.158,23.709
	c-4.601,6.367-8.952,12.949-12.949,19.71c-8.088,13.678-16.596,27.184-23.527,41.442c-5.588,11.496-9.145,23.984-13.542,36.054
	c-2.813,7.72-5.825,15.388-8.189,23.247c-2.604,8.654-4.534,17.511-6.822,26.262c-2.327,8.903-4.762,17.778-7.077,26.684
	c-0.371,1.429-0.329,2.96-0.537,4.436c-1.922,13.575-3.938,27.138-5.691,40.735c-0.234,1.827,0.617,3.913,1.35,5.723
	c2.115,5.222-0.564,9.52-2.877,13.584c-3.407,5.986-7.174,11.845-11.488,17.191c-1.363,1.689-4.973,1.567-8.39,2.502
	c-1.211-5.041-2.122-9.378-3.323-13.634c-0.782-2.77-1.911-5.452-3.017-8.118c-3.747-9.03-7.597-18.019-11.318-27.059
	c-2.3-5.588-4.393-11.261-6.665-16.86c-2.59-6.381-5.332-12.701-7.904-19.089c-2.394-5.945-4.958-11.848-6.902-17.943
	c-3.578-11.224-8.459-21.853-13.735-32.339c-1.408-2.799-2.542-5.735-3.802-8.608c-0.448,0.058-0.896,0.116-1.344,0.175
	c-1.584,5.183-3.265,10.339-4.723,15.557c-1.336,4.782-2.621,9.595-3.586,14.462c-1.17,5.898-1.744,11.919-3.005,17.795
	c-1.667,7.77-3.778,15.442-5.647,23.17c-1.818,7.521-3.025,15.245-5.514,22.534c-2.393,7.005-5.539,13.891-9.33,20.248
	c-5.93,9.943-12.65,19.417-19.135,29.024c-0.616,0.913-1.845,1.589-2.932,1.98c-8.704,3.137-18.734-2.476-20.367-11.438
	c-2.171-11.914,0.275-22.602,8.361-31.929c2.558-2.949,4.312-6.587,6.749-9.66c0.336-0.424,3.422,0.287,3.664,1.004
	c1.72,5.084,2.691,10.439,4.632,15.424c0.837,2.151,3.41,3.627,5.194,5.409c1.69-2.189,4.254-4.147,4.909-6.613
	c2.034-7.649,3.468-15.47,4.896-23.268c1.349-7.362,2.18-14.822,3.636-22.16c1.415-7.128,3.418-14.137,5.007-21.233
	c1.529-6.829,3.035-13.672,4.226-20.565c1.133-6.556,0.715-13.619,3.04-19.668c2.679-6.972,2.242-13.877,3.203-20.83
	c0.647-4.688,0.229-8.991-0.593-13.255c-1.666-8.64,3.457-14.292,7.917-20.288c2.461-3.31,5.063-6.603,8.078-9.389
	c3.73-3.447,6.979-2.127,9.084,2.379c5.328,11.409,11.031,22.644,16.528,33.974c3.886,8.009,7.899,15.964,11.464,24.115
	c5.332,12.194,10.43,24.495,15.412,36.837c3.066,7.6,5.557,15.434,8.65,23.021C1948.823,328.44,1951.221,332.247,1953.798,337.151z"
	/>
<path fill-rule="evenodd" clip-rule="evenodd" d="M467.131,338.009c-3.044,6.155-6.519,12.141-9.042,18.502
	c-5.467,13.779-11.016,27.523-20.747,38.913c-4.136,4.839-7.875,10.403-14.822,12.278c-4.291,1.158-9.33-0.615-12.238-4.747
	c-5.776-8.207-7.12-17.438-7.258-27.12c-0.075-5.271-1.165-10.567-0.855-15.797c1.081-18.245,1.742-36.581,4.246-54.649
	c1.339-9.663,5.679-19.034,9.507-28.186c2.646-6.328,6.097-12.557,10.336-17.923c5.396-6.83,12.577-12.269,17.823-19.189
	c4.861-6.414,12.585-6.47,18.436-10.416c1.178-0.794,3.26-0.157,4.899-0.375c5.477-0.728,11.185-0.852,16.293-2.655
	c2.118-0.748,3.834-5.047,4.192-7.922c1.12-8.978,1.196-18.082,2.254-27.069c1.315-11.175,3.391-22.259,4.766-33.429
	c0.63-5.126,0.048-10.396,0.599-15.538c0.691-6.464,2.066-12.851,2.984-19.294c0.646-4.529,1.37-9.096,1.398-13.649
	c0.021-3.366-2.567-2.347-4.193-1.248c-3.28,2.216-6.366,4.718-9.348,6.962c-4.366-2.264-3.902-5.282-1.762-8.036
	c3.666-4.717,7.551-9.285,11.606-13.673c6.81-7.369,13.872-14.504,20.736-21.822c3.837-4.093,7.23-5.703,13.629-5.38
	c-0.996,6.626-2.064,13.139-2.938,19.678c-1.582,11.84-3.066,23.692-4.557,35.544c-1.083,8.614-2.154,17.23-3.146,25.854
	c-0.694,6.029-1.188,12.082-1.872,18.112c-1.071,9.44-2.112,18.887-3.377,28.303c-1.414,10.519-2.853,21.042-4.678,31.495
	c-1.509,8.638-3.648,17.165-5.414,25.761c-1.573,7.661-2.969,15.358-4.534,23.021c-1.234,6.046-3.347,12.016-3.75,18.106
	c-0.649,9.806-0.096,19.687-0.264,29.531c-0.212,12.455-1.066,24.918-0.74,37.354c0.116,4.41,2.719,8.823,4.592,13.056
	c0.335,0.756,3.008,1.299,4.004,0.784c2.93-1.516,6.066-3.165,8.199-5.577c4.189-4.736,7.956-9.886,11.522-15.121
	c3.724-5.466,6.941-11.273,10.516-16.846c1.137-1.772,2.436-3.754,4.172-4.724c1.244-0.694,4.382-0.431,4.838,0.406
	c0.936,1.716,1.511,4.556,0.694,6.139c-3.555,6.892-7.57,13.554-11.598,20.19c-3.273,5.393-6.491,10.866-10.283,15.889
	c-7.348,9.734-14.562,19.485-24.499,27.11c-4.824,3.702-9.378,7.474-14.944,9.982c-4.771,2.149-10.699-0.381-12.362-5.922
	c-1.114-3.714-1.953-7.673-1.963-11.524c-0.022-9.101,0.587-18.2,0.818-27.304c0.14-5.496,0.054-10.998,0.062-16.497
	c0.006-3.599,0.001-7.198,0.001-10.798C468.423,338.371,467.777,338.19,467.131,338.009z M432.084,369.247
	c0.503,0.07,1.006,0.141,1.509,0.211c0.814-1.154,1.855-2.21,2.404-3.479c3.186-7.357,6.23-14.774,9.37-22.151
	c2.866-6.734,5.871-13.411,8.664-20.176c1.703-4.127,2.902-8.47,4.711-12.545c4.111-9.26,8.592-18.357,12.654-27.638
	c1.945-4.444,3.591-9.074,4.804-13.767c1.167-4.515,1.756-9.205,2.193-13.855c0.068-0.723-2.077-2.422-3.109-2.353
	c-5.682,0.384-11.353,1.066-16.993,1.881c-2.36,0.341-4.815,2.148-6.916,1.729c-4.48-0.894-7.293,1.558-8.788,4.519
	c-2.733,5.412-4.995,11.219-6.378,17.113c-1.669,7.107-2.362,14.46-3.219,21.736c-1.416,12.038-3.001,24.077-3.777,36.163
	c-0.453,7.047,0.365,14.199,0.928,21.279C430.444,361.72,431.415,365.471,432.084,369.247z"/>
<path fill-rule="evenodd" clip-rule="evenodd" d="M1600.11,243.731c3.77-4.753,7.705-9.387,11.271-14.288
	c5.409-7.435,10.613-15.021,15.809-22.608c3.8-5.55,6.439-11.633,12.851-15.517c4.681-2.836,7.504-8.616,11.508-12.741
	c2.053-2.114,4.674-4.04,7.407-5.043c3.783-1.387,4.791,2.109,4.56,4.567c-0.651,6.907-2.01,13.745-2.971,20.628
	c-0.564,4.046-1.072,8.119-1.194,12.193c-0.023,0.768,1.948,2.341,2.909,2.273c7.464-0.528,14.917-1.288,22.344-2.216
	c0.909-0.114,2.125-1.534,2.372-2.551c1.202-4.929,1.639-10.089,3.25-14.862c2.64-7.818,6.114-15.173,13.14-20.43
	c4.819-3.606,8.085-9.549,15.418-8.991c3.365,3.288,1.363,7.344,0.109,10.666c-3.006,7.97-4.354,16.24-5.819,24.522
	c-0.468,2.646-0.902,5.298-1.443,8.479c5.706-0.219,10.232-0.737,14.76-0.79c11.856-0.139,23.876-0.805,35.484-3.049
	c9.525-1.842,18.661-5.983,27.763-9.623c5.942-2.376,11.503-5.701,17.261-8.55c1.42-0.702,2.94-1.2,4.414-1.793
	c0.468,0.435,0.937,0.869,1.404,1.304c-1.404,2.018-2.454,4.461-4.276,5.975c-6.219,5.169-12.439,10.422-19.171,14.866
	c-7.152,4.723-14.933,8.484-22.356,12.806c-7.676,4.468-15.99,5.794-24.742,6.536c-10.643,0.902-21.141,3.426-31.773,4.57
	c-4.77,0.514-5.748,3.505-6.223,6.84c-2.189,15.38-4.15,30.793-6.093,46.206c-1.435,11.389-2.773,22.79-4.042,34.197
	c-1.074,9.659-1.963,19.339-2.979,29.005c-0.617,5.867-1.699,11.716-1.837,17.59c-0.072,3.114,0.443,7.829,2.422,9.074
	c4.105,2.583,9.12,0.879,13.333-1.441c7.004-3.858,10.996-10.453,15.087-16.995c4.876-7.797,9.86-15.541,15.196-23.023
	c1.192-1.672,3.958-2.484,6.165-3.072c1.358-0.363,3.03,0.447,4.562,0.731c-0.339,1.591-0.297,3.405-1.078,4.736
	c-6.379,10.88-12.116,22.267-19.645,32.302c-6.281,8.375-14.438,15.443-22.299,22.496c-4.806,4.312-10.46,7.767-16.028,11.117
	c-5.155,3.102-10.905,4.941-17.055,4.44c-5.267-0.429-9.327-6.36-9.787-13.978c-0.136-2.238-0.021-4.491-0.021-6.737
	c-0.462-0.197-0.924-0.396-1.385-0.593c-2.524,3.165-5.243,6.196-7.533,9.522c-4.995,7.257-11.568,13.491-19.362,16.4
	c-10.845,4.048-21.433,0.921-22.579-14.944c-0.589-8.137-0.25-16.432,0.608-24.557c0.788-7.465,3.003-14.769,4.261-22.199
	c0.713-4.211,0.512-8.572,1.178-12.794c0.821-5.2,2.219-10.307,3.18-15.488c1.002-5.414,1.746-10.875,2.667-16.305
	c1.01-5.949,2.093-11.886,3.146-17.828c1.64-9.259,3.301-18.515,4.91-27.779c0.638-3.668,1.355-7.34,1.664-11.042
	c0.185-2.218-0.62-4.125-3.63-3.643c-6.763,1.082-13.531,2.142-20.318,3.059c-2.02,0.272-4.107,0.042-6.164,0.042
	C1600.513,244.847,1600.311,244.29,1600.11,243.731z M1646.222,379.484c1.329-0.71,4.815-1.475,6.401-3.636
	c3.951-5.381,7.435-11.207,10.312-17.234c1.555-3.255,1.619-7.27,2.108-10.975c1.09-8.266,2.032-16.552,3.02-24.831
	c1.008-8.45,1.96-16.906,3.005-25.352c0.95-7.679,1.89-15.361,3.021-23.015c1.396-9.443,2.98-18.858,4.496-28.284
	c0.256-1.595,0.336-3.272,0.914-4.749c1.145-2.921,0.821-5.073-2.705-5.146c-6.25-0.131-12.512-0.034-18.755,0.266
	c-0.86,0.042-2.057,1.668-2.386,2.772c-1.647,5.521-3.581,11.037-4.411,16.701c-0.945,6.438-0.401,13.089-1.292,19.538
	c-0.917,6.637-2.784,13.141-4.231,19.704c-1.219,5.524-2.699,11.008-3.585,16.585c-1.317,8.287-1.575,16.786-3.438,24.932
	c-2.675,11.697-4.721,23.255-2.694,35.286C1636.894,377.342,1638.932,379.479,1646.222,379.484z"/>
<path fill-rule="evenodd" clip-rule="evenodd" d="M2211.832,195.667c-0.309,4.799-0.317,8.72-0.867,12.562
	c-0.747,5.222-1.993,10.37-2.86,15.577c-0.545,3.269-0.632,6.614-1.206,9.875c-0.631,3.583,1.001,4.646,4.24,4.661
	c9.262,0.044,18.524,0.372,27.78,0.223c4.264-0.068,2.909-3.939,3.488-6.455c1.963-8.523,2.894-17.522,6.403-25.361
	c2.123-4.74,8.132-7.873,12.689-11.343c2.717-2.068,4.479-5.747,9.024-5.2c2.989,0.359,4.346,0.65,3.686,4.255
	c-1.354,7.39-2.158,14.881-3.165,22.333c-0.889,6.581-1.745,13.167-2.771,20.93c7.296-0.488,13.475-0.966,19.661-1.299
	c7.977-0.429,15.962-1.085,23.938-1.02c10.713,0.089,20.812-2.177,30.815-5.828c16.507-6.026,29.905-16.178,41.501-29.183
	c3.156-3.54,5.998-8.926,13.918-6.205c-2.646,3.572-4.716,7.107-7.48,9.972c-11.963,12.396-24.182,24.495-39.182,33.393
	c-5.161,3.062-9.535,7.528-14.83,10.269c-6.042,3.127-12.701,5.065-19.107,7.48c-14.739,5.556-30.162,5.143-45.511,4.95
	c-7.271-0.092-8.892,2.184-9.998,9.972c-1.037,7.297-2.843,14.482-3.983,21.768c-0.904,5.778-1.162,11.655-1.98,17.45
	c-1.19,8.438-2.801,16.817-3.905,25.265c-0.929,7.1-1.44,14.257-2.043,21.396c-0.421,4.982-1.128,10.001-0.887,14.964
	c0.218,4.478,1.379,8.946,2.508,13.319c0.3,1.159,1.88,2.541,3.102,2.821c9.128,2.095,15.259-0.821,20.306-8.878
	c4.732-7.554,9.248-15.085,12.498-23.531c2.189-5.689,6.988-10.362,10.545-15.542c1.827-2.661,3.488-5.437,5.178-8.089
	c6.096,2.879,6.732,4.341,3.439,11.765c-6.405,14.439-13.039,28.926-22.917,41.298c-6.103,7.643-12.988,14.757-21.188,20.716
	c-7.107,5.165-14.191,9.095-22.786,10.495c-7.528,1.227-14.052-2.975-15.765-10.401c-1.053-4.563-2.045-9.143-2.947-13.738
	c-0.164-0.837,0.238-1.786,0.584-3.996c-1.791,1.506-2.753,2.309-3.709,3.118c-8.508,7.215-16.773,14.745-25.628,21.506
	c-4.066,3.105-14.589,1.123-18.076-2.652c-1.397-1.512-1.787-3.931-2.729-5.892c-3.454-7.187-4.744-14.584-3.931-22.656
	c0.603-5.985-0.831-12.157-0.462-18.191c0.331-5.425,2.236-10.736,2.828-16.165c1.49-13.656,2.663-27.347,3.9-41.029
	c0.783-8.65,1.4-17.315,2.2-25.965c0.315-3.41,1.224-6.794,1.209-10.188c-0.004-0.96-2.284-2.677-3.566-2.722
	c-3.767-0.13-7.554,0.482-11.339,0.646c-1.687,0.072-3.389-0.232-6.754-0.497c3.671-5.008,6.512-8.829,9.294-12.693
	c2.648-3.678,5.429-7.282,7.782-11.145c1.56-2.559,1.734-6.401,3.812-8.12c5.535-4.581,6.245-11.873,10.503-16.909
	c5.998-7.092,12.58-13.695,19.059-20.366C2206.954,196.555,2208.644,196.584,2211.832,195.667z M2192.907,359.551
	c-0.224,0.04-0.446,0.08-0.669,0.12c0.957,7.128,1.75,14.283,2.926,21.375c0.844,5.088,6.097,6.479,11.101,5.208
	c5.245-1.333,6.311-6.37,10.07-8.611c8.97-5.347,7.955-14.843,9.596-23.041c1.625-8.117,2.099-16.464,3.112-24.705
	c0.984-8.014,2.018-16.021,3.024-24.033c1.021-8.127,2.036-16.255,3.054-24.382c0.511-4.087,0.601-8.284,1.639-12.232
	c1.211-4.605,0.698-5.989-4.088-5.887c-8.766,0.188-17.537,0.473-26.276,1.114c-1.514,0.111-3.937,2.02-4.148,3.378
	c-1.323,8.466-2.039,17.025-3.145,25.529c-1.462,11.25-3.479,22.442-4.549,33.727
	C2193.532,337.879,2193.419,348.734,2192.907,359.551z"/>
<path fill-rule="evenodd" clip-rule="evenodd" d="M1217.65,295.701c-1.623,0.903-2.621,1.189-3.234,1.841
	c-8.611,9.14-16.972,18.371-21.48,30.516c-2.968,7.995-7.538,15.412-10.303,23.462c-2.873,8.36-4.184,17.243-6.635,25.767
	c-3.125,10.868-4.838,22.461-13.844,30.69c-1.678,1.533-3.345,3.318-5.361,4.189c-3.812,1.646-7.396-1.868-6.661-6.656
	c1.434-9.34,3.267-18.618,4.756-27.951c0.9-5.645,1.519-11.336,2.138-17.021c0.13-1.197-0.289-2.455-0.562-4.469
	c-1.472,1.212-2.554,1.721-3.049,2.572c-2.963,5.095-5.228,10.703-8.788,15.32c-6.27,8.132-13.045,15.92-20.13,23.354
	c-3.332,3.495-7.528,7.319-11.951,8.356c-6.971,1.635-14.397,3.092-21.731-0.051c-11.379-4.877-15.404-14.325-17.874-25.564
	c-3.413-15.526-0.695-30.668,0.965-46.007c1.613-14.913,6.394-28.822,12.251-42.372c2.304-5.332,6.115-10.165,9.903-14.667
	c5.992-7.123,12.447-13.867,18.888-20.598c4.624-4.832,10.149-5.71,16.773-4.235c6.524,1.451,18.263,13.033,16.314,20.61
	c-0.362,1.41-0.98,2.839-1.807,4.032c-3.053,4.408-5.961,8.969-9.495,12.967c-1.793,2.029-4.681,3.579-7.327,4.133
	c-1.101,0.23-3.047-2.565-4.287-4.226c-2.523-3.378-4.24-7.62-7.357-10.231c-4.973-4.168-10.905-1.301-13.289,6.037
	c-2.055,6.323-4.095,12.7-5.429,19.2c-3.374,16.441-6.542,33.053-4.713,49.871c0.71,6.527,3.241,13.459,6.882,18.911
	c4.492,6.729,14.986,7.704,23.42,3.766c8.864-4.14,14.086-11.919,19.312-19.601c3.09-4.542,5.594-9.478,8.556-14.113
	c0.962-1.506,2.444-3.601,3.849-3.734c4.802-0.454,4.459-3.597,4.812-6.979c1.154-11.076,2.521-22.131,3.934-33.177
	c1.576-12.322,3.563-24.598,4.852-36.948c0.859-8.232,0.499-16.589,1.243-24.839c0.939-10.42,2.482-20.785,3.692-31.183
	c0.541-4.649,0.904-9.32,0.788-14.277c-7.712,5.667-10.807,16.653-23.479,18.386c1.507-3.605,2.222-6.344,3.685-8.597
	c2.693-4.147,5.719-8.095,8.803-11.968c4.264-5.354,8.729-10.544,13.063-15.84c1.19-1.455,2.802-2.894,3.229-4.589
	c2.213-8.777,9.583-13.717,14.89-20.126c1.114-1.345,4.638-1.143,6.92-0.794c0.665,0.103,1.493,3.303,1.188,4.877
	c-1.509,7.761-3.432,15.44-5.087,23.174c-0.748,3.499-1.361,7.041-1.783,10.594c-1.389,11.703-2.751,23.411-3.951,35.136
	c-0.839,8.185-1.305,16.407-2.098,24.597c-1.232,12.737-2.651,25.456-3.895,38.192c-0.844,8.643-1.521,17.302-2.271,25.953
	c0.409,0.22,0.819,0.439,1.229,0.66c2.602-3.082,5.094-6.266,7.829-9.224c5.467-5.911,11.588-11.301,16.455-17.658
	c4.188-5.471,8.899-10.004,14.125-14.433c4.33-3.671,8.805-4.993,12.642-2.127c3.002,2.243,5.577,7.153,5.577,10.879
	c0,7.534-1.867,15.071-2.995,22.602c-0.118,0.789-0.532,1.533-0.654,2.322c-2.005,13.053-4.042,26.101-5.949,39.168
	c-1.155,7.916-1.768,15.929-3.3,23.765c-0.652,3.336-2.819,6.294,0.047,9.545c1.869,2.119,2.81,2.336,4.305-0.63
	c1.9-3.772,4.748-7.057,7.058-10.636c4.981-7.718,9.735-15.588,14.905-23.176c1.422-2.086,3.916-3.497,6.09-4.963
	c0.396-0.268,2.158,0.52,2.368,1.135c0.525,1.54,1.205,3.582,0.607,4.85c-2.166,4.591-4.831,8.947-7.309,13.392
	c-3.926,7.046-7.663,14.206-11.824,21.11c-5.883,9.761-12.504,18.993-21.436,26.289c-3.674,3.001-7.133,5.967-12.6,5.851
	c-3.352-0.071-4.857-1.165-4.907-3.884c-0.174-9.672-0.406-19.371,0.133-29.018c0.419-7.501,1.866-14.954,3.018-22.403
	c1.089-7.036,2.611-14.011,3.535-21.066c1.024-7.816,0.746-15.905,2.656-23.466C1217.69,305.515,1218.796,301.213,1217.65,295.701z"
	/>
<path fill-rule="evenodd" clip-rule="evenodd" d="M2100.267,326.341c-4.075,6.039-7.98,12.201-12.261,18.091
	c-9.241,12.713-18.47,25.445-28.102,37.86c-6.653,8.577-13.845,16.667-23.362,22.488c-2.851,1.744-4.069-0.116-6.082-0.249
	c-8.336-0.547-9.648-6.051-10.511-12.664c-0.421-3.224-2.147-6.269-3.198-9.424c-0.287-0.864-0.716-2.261-0.312-2.687
	c4.663-4.925,2.458-11.287,3.436-16.905c0.949-5.45-0.095-11.218,0.453-16.774c0.583-5.907,1.914-11.751,3.088-17.588
	c1.825-9.073,3.102-18.152,2.814-27.475c-0.1-3.247,1.389-6.542,2.152-9.814c-0.447-0.104-0.895-0.206-1.342-0.31
	c-3.869,3.029-7.739,6.059-11.609,9.088c-0.549-0.366-1.098-0.732-1.646-1.099c0.656-1.915,0.828-4.245,2.051-5.676
	c6.358-7.438,11.118-15.433,13.533-25.185c1.412-5.702,5.663-10.586,10.359-14.705c2.856-2.505,4.898-5.927,7.692-8.521
	c1.688-1.566,4.003-2.791,6.239-3.337c2.074-0.505,3.243,0.051,2.826,3.34c-2.137,16.871-3.546,33.833-5.474,50.732
	c-1.444,12.658-3.363,25.262-4.927,37.907c-1.088,8.797-2.353,17.606-2.699,26.442c-0.166,4.236,1.221,8.683,2.621,12.789
	c1.404,4.115,4.578,4.724,7.678,1.727c3.439-3.327,7.073-6.305,9.235-11.046c1.916-4.203,6.165-7.274,8.782-11.242
	c4.049-6.14,7.732-12.535,11.301-18.972c4.838-8.725,9.494-17.555,14.09-26.41c3.449-6.646,6.67-13.409,10.016-20.109
	c2.638-5.284,5.375-10.52,7.938-15.838c1.329-2.759,2.846-5.557,3.45-8.506c1.067-5.202,4.951-7.985,8.336-11.347
	c3.638-3.613,6.789-7.744,10.619-11.119c1.445-1.275,4.197-1.067,6.354-1.536c0.104,1.831,0.594,3.74,0.239,5.478
	c-1.108,5.428-2.374,10.837-3.881,16.168c-1.844,6.521-4.254,12.888-5.938,19.444c-1.694,6.595-2.742,13.353-4.172,20.018
	c-2.969,13.839-5.964,27.672-9.023,41.491c-2.617,11.817-5.175,23.653-8.068,35.404c-2.412,9.796-5.115,19.527-7.975,29.202
	c-4.325,14.632-8.877,29.196-13.372,43.777c-5.503,17.845-12.101,35.269-20.092,52.159c-6.525,13.791-12.356,27.957-19.653,41.324
	c-6.068,11.119-11.425,22.653-19.859,32.583c-8.477,9.979-15.109,21.51-22.755,32.214c-3.041,4.257-6.698,8.067-9.958,12.173
	c-7.272,9.158-14.303,18.515-21.759,27.519c-4.931,5.954-10.154,11.725-15.734,17.067c-8.422,8.063-17.211,15.749-25.96,23.464
	c-4.863,4.287-12.688,4.77-18.425,1.461c-0.142-0.081-0.238-0.273-0.384-0.313c-2.26-0.63-6.262,0.475-5.088-3.925
	c0.961-3.599,4.177-4.304,7.758-5.184c8.514-2.089,16.818-5.325,23.512-11.236c8.093-7.148,16.003-14.536,23.573-22.233
	c5.893-5.991,11.705-12.218,16.534-19.06c5.783-8.195,12.02-16.005,17.994-24.025c7.015-9.418,12.888-19.701,19.053-29.733
	c4.946-8.048,11.25-15.774,13.936-24.564c3.197-10.461,10.367-18.737,13.271-29.213c1.526-5.507,5.459-10.314,8-15.585
	c1.35-2.801,2.059-5.912,3.035-8.891c2.351-7.166,4.608-14.364,7.054-21.497c2.274-6.634,4.996-13.123,7.051-19.82
	c1.788-5.829,2.747-11.909,4.398-17.786c1.399-4.976,3.262-9.821,4.929-14.722c0.312-0.919,0.818-1.797,0.984-2.737
	c1.106-6.259,1.945-12.572,3.259-18.785c1.412-6.685,3.436-13.24,4.847-19.925c1.534-7.262,2.576-14.626,4.021-21.909
	c0.789-3.979,2.113-7.85,2.938-11.822c1.323-6.381,2.433-12.807,3.633-19.213C2101.242,326.804,2100.754,326.573,2100.267,326.341z"
	/>
<path fill-rule="evenodd" clip-rule="evenodd" d="M459.245,712.998c1.337-3.626,2.378-5.401,2.612-7.276
	c0.703-5.643,4.852-7.001,9.346-8.485c4.479-1.479,8.708-3.692,13.132-5.358c3.581-1.349,7.552-1.867,10.88-3.638
	c5.524-2.938,11.017-6.152,15.888-10.045c5.979-4.777,11.452-10.226,16.883-15.646c7.946-7.93,15.906-15.873,23.376-24.242
	c4.094-4.587,7.102-10.128,10.763-15.118c4.5-6.132,9.387-11.989,13.708-18.24c4.081-5.902,7.817-12.064,11.391-18.292
	c3.514-6.125,6.838-12.379,9.874-18.752c4.027-8.453,7.854-17.01,11.472-25.646c3.915-9.347,7.653-18.775,11.159-28.282
	c2.707-7.338,4.989-14.835,7.365-22.291c2.698-8.468,5.534-16.903,7.857-25.476c2.034-7.501,3.579-15.146,5.091-22.775
	c1.771-8.943,3.326-17.932,4.851-26.921c0.33-1.947-0.019-4,0.204-5.975c1.193-10.574,2.604-21.125,3.669-31.712
	c0.71-7.069,0.76-14.206,1.479-21.274c0.849-8.337,2.117-16.63,3.172-24.946c0.494-3.899,0.922-7.808,1.363-11.713
	c0.771-6.818,1.447-13.648,2.312-20.454c0.948-7.457,2.134-14.884,3.091-22.34c1.356-10.57,2.555-21.161,3.913-31.73
	c0.457-3.552,1.337-7.051,1.756-10.605c0.276-2.346,1.367-5.332-1.885-5.919c-6.896,7.105-13.29,13.967-20.062,20.431
	c-1.294,1.234-4.085,0.901-7.959,1.62c1.757-4.076,2.447-7.279,4.268-9.596c4.896-6.232,10.533-11.884,15.394-18.14
	c6.149-7.916,14.146-14.396,17.714-24.398c1.348-3.777,5.004-6.883,8.023-9.877c4.133-4.097,8.661-7.794,12.983-11.631
	c3.874,1.984,5.376,4.286,3.87,8.871c-4.617,14.065-5.329,28.854-7.112,43.428c-1.474,12.043-2.493,24.145-4.082,36.171
	c-1.23,9.312-3.323,18.513-4.502,27.829c-1.445,11.421-2.283,22.918-3.484,34.371c-0.928,8.834-2.003,17.652-3.027,26.476
	c-0.963,8.299-1.871,16.604-2.935,24.889c-1.959,15.256-3.19,30.668-6.252,45.703c-3.348,16.44-8.123,32.616-12.869,48.733
	c-2.682,9.104-6.538,17.863-9.896,26.767c-3.31,8.779-6.401,17.652-10.058,26.285c-3.775,8.91-7.961,17.658-12.252,26.337
	c-4.492,9.084-9.158,18.093-14.075,26.953c-2.45,4.415-5.523,8.505-8.509,12.601c-3.982,5.464-8.12,10.816-12.251,16.171
	c-4.887,6.334-9.734,12.703-14.792,18.899c-3.954,4.844-8.146,9.497-12.335,14.144c-7.743,8.59-15.47,17.197-23.396,25.615
	c-2.731,2.9-6.139,5.152-9.042,7.905c-1.447,1.373-2.186,3.54-3.707,4.778c-7.26,5.906-14.637,11.67-22.054,17.377
	c-5.429,4.177-10.86,8.372-16.551,12.171c-2.019,1.347-4.777,2.04-7.244,2.17C471.949,713.207,466.098,712.998,459.245,712.998z"/>
<path fill-rule="evenodd" clip-rule="evenodd" d="M1518.026,403.723c-8.579,1.116-12.38-5.408-16.449-10.66
	c-8.059-10.401-7.934-22.834-7.258-35.217c0.217-3.953,0.137-7.978,0.89-11.833c0.918-4.701,2.645-9.239,3.882-13.886
	c0.79-2.967,1.194-6.039,2.007-9c1.875-6.832,3.811-13.65,5.873-20.428c2.581-8.477,6.188-16.404,11.505-23.645
	c3.855-5.25,6.68-11.246,10.19-16.766c1.482-2.332,3.465-4.37,5.369-6.403c2.518-2.686,5.156-5.105,5.48-9.246
	c0.136-1.729,1.488-3.613,2.777-4.956c5.538-5.769,10.929-11.748,16.995-16.922c7.57-6.456,21.556-6.014,28.617,0.615
	c2.234,2.098,4.47,5.129,4.93,8.017c1.798,11.279,3.84,22.666,3.912,34.024c0.052,8.097-2.786,16.237-4.548,24.312
	c-1.559,7.146-3.23,14.278-5.195,21.32c-1.376,4.935-2.742,10.023-5.137,14.495c-6.82,12.736-13.651,25.521-21.441,37.67
	c-8.365,13.045-19.713,23.738-30.771,34.488c-2.814,2.735-7.508,3.538-11.338,5.229
	C1518.22,404.529,1518.124,404.126,1518.026,403.723z M1570.068,287.575c0-5.09,0.771-10.329-0.184-15.232
	c-1.364-7.01-3.424-14.021-6.27-20.559c-2.027-4.656-5.275-4.69-8.412-0.724c-3.761,4.758-6.609,10.271-10.592,14.81
	c-5.896,6.719-8.104,14.91-10.529,23.054c-3.009,10.101-5.967,20.229-8.467,30.464c-1.625,6.65-2.867,13.473-3.394,20.287
	c-0.416,5.391,0.255,10.917,0.921,16.325c0.814,6.613,3.08,12.717,8.368,17.223c2.851,2.428,5.91,3.407,8.418-0.306
	c4.151-6.146,8.255-12.336,12.056-18.701c6.088-10.194,9.042-21.562,11.645-33.012c0.506-2.227,0.189-4.707,0.99-6.787
	C1567.951,305.753,1570.298,296.933,1570.068,287.575z"/>
<path fill-rule="evenodd" clip-rule="evenodd" d="M295.073,363.042c0-6.017-0.82-12.178,0.202-18.016
	c1.351-7.7,3.692-15.317,6.445-22.656c2.972-7.923,6.428-15.751,10.542-23.136c5.566-9.989,10.949-20.199,19.809-27.969
	c3.491-3.061,6.195-7.005,9.605-10.174c6.217-5.775,12.252-11.903,19.168-16.731c9.262-6.464,19.902-9.532,31.119-5.845
	c5.806,1.908,7.761,7.951,10.031,13.088c3.639,8.234,3.263,16.804,2.271,25.614c-2.343,20.806-10.353,39.892-17.266,59.308
	c-1.768,4.962-4.543,9.6-7.148,14.221c-5.263,9.333-10.505,18.69-17.487,26.92c-4.621,5.446-8.567,11.621-13.845,16.312
	c-6.391,5.681-13.706,10.393-20.943,15.018c-3.479,2.224-14.406-2.462-18.279-5.903
	C297.108,392.262,295.293,377.989,295.073,363.042z M379.27,289.322c-0.404-0.096-0.81-0.192-1.214-0.289
	c0.227-7.491-0.908-14.605-5.967-20.538c-3.777-4.429-11.812-6.483-15.538-3.824c-2.788,1.989-5.809,3.997-7.811,6.68
	c-4.825,6.467-9.856,12.966-13.419,20.14c-3.855,7.765-6.687,16.162-8.964,24.555c-2.604,9.595-3.134,19.402-2.667,29.546
	c0.491,10.682,0.543,20.505,9.182,28.501c4.686,4.337,9.403,5.141,13.578,0.284c1.019-1.186,1.253-3.102,2.354-4.15
	c7.521-7.164,11.347-16.638,15.386-25.742c3.447-7.771,5.329-16.271,7.539-24.546C374.441,309.785,376.774,299.532,379.27,289.322z"
	/>
<path fill-rule="evenodd" clip-rule="evenodd" d="M984.138,372.615c-1.216-14.679,1.813-28.843,6.743-42.371
	c4.079-11.196,7.636-22.715,14.388-32.911c3.503-5.289,5.344-11.671,8.013-17.524c0.533-1.17,1.191-2.479,2.174-3.216
	c5.873-4.401,11.354-9.816,17.931-12.67c8.697-3.774,18.729-8.415,27.558-1.251c4.721,3.831,8.066,9.935,8.216,16.97
	c0.094,4.382,1.375,8.731,1.56,13.119c0.142,3.371-0.456,6.802-0.978,10.167c-0.772,4.986-1.318,10.074-2.764,14.877
	c-2.924,9.711-6.046,19.395-9.745,28.83c-2.654,6.768-6.145,13.247-9.707,19.606c-2.519,4.495-5.569,8.739-8.76,12.799
	c-5.408,6.882-10.996,13.631-16.73,20.243c-4.819,5.557-10.856,9.258-18.478,7.905c-7.754-1.377-12.945-6.158-16.638-13.318
	C983.335,386.917,984.326,379.77,984.138,372.615z M1004.753,356.141c2.043,5.855,3.791,12.118,6.407,17.994
	c2.287,5.139,11.667,7.153,14.728,3.445c3.408-4.128,6.874-8.369,9.343-13.071c3.123-5.947,5.463-12.337,7.791-18.665
	c5.312-14.431,6.657-29.405,4.906-44.586c-0.466-4.042-1.78-8.4-4.017-11.732c-3.936-5.863-10.86-6.697-14.839-3.393
	c-9.128,7.579-13.602,18.146-16.649,28.741C1008.662,327.955,1007.312,341.728,1004.753,356.141z"/>
<path fill-rule="evenodd" clip-rule="evenodd" d="M1747.034,538.407c2.612-3.533,2.486-6.856,1.162-10.751
	c-0.764-2.243,0.317-5.115,0.581-7.703c0.066-0.653,0.454-1.415,0.236-1.936c-3.554-8.479,1.897-16.533,1.223-24.904
	c-0.111-1.383,1.454-3.451,2.811-4.305c5.07-3.192,7.9-11.101,16.316-7.706c1.438,0.58,3.746-1.29,5.72-1.696
	c8.155-1.679,16.516-2.681,23.879,2.05c6.856,4.405,6.823,15.195,0.446,21.981c-2.895,3.081-5.891,6.117-9.166,8.774
	c-2.727,2.211-2.495,4.039,0.035,5.755c6.241,4.233,12.509,8.445,18.962,12.342c2.558,1.545,4.228,2.916,1.747,5.512
	c-3.724,3.896-7.441,7.903-11.734,11.091c-1.354,1.006-4.779,0.039-6.844-0.917c-3.076-1.425-5.832-3.572-8.64-5.535
	c-3.736-2.613-7.43-5.292-11.07-8.037c-4.289-3.233-8.146-2.982-12.06,0.835c-2.13,2.077-4.527,3.901-6.504,6.109
	C1751.361,542.463,1749.25,541.729,1747.034,538.407z M1767.07,504.785c0,2.162,0.235,4.354-0.049,6.478
	c-0.612,4.582,1.996,6.085,5.542,4.895c3.695-1.24,7.764-3.047,10.234-5.864c3.707-4.227,1.848-12.913-3.209-15.387
	c-3.12-1.526-7.276-1.476-10.858-1.098c-0.79,0.084-1.212,4.527-1.622,6.993C1766.893,502.095,1767.07,503.455,1767.07,504.785z"/>
<path fill-rule="evenodd" clip-rule="evenodd" d="M1659.99,538.808c-1.185-2.169-2.477-4.415-3.656-6.72
	c-3.75-7.324-10.494-5.836-16.757-5.724c-4.844,0.086-9.742,0.763-14.509,0.227c-3.598-0.405-5.114,0.856-7.06,3.54
	c-2.91,4.015-6.337,7.794-10.139,10.958c-1.562,1.3-4.672,0.74-7.078,1.026c-0.261-0.479-0.521-0.957-0.782-1.435
	c4.304-7.228,8.598-14.462,12.916-21.681c4.641-7.759,9.808-15.253,13.812-23.325c3.674-7.403,9.757-12.11,15.821-17.009
	c2.175-1.756,8.598,0.488,10.447,3.437c4.895,7.801,9.861,15.561,14.554,23.482c3.077,5.194,5.874,10.572,8.477,16.021
	c0.763,1.598,1.302,4.672,0.458,5.441C1671.559,531.552,1668.078,538.252,1659.99,538.808z M1630.079,510.534
	c4.712,0,9.228,0,14.571,0c-2.832-3.686-5.456-7.102-8.218-10.695c-1.398,1.953-2.45,3.23-3.283,4.638
	C1632.206,506.07,1631.459,507.78,1630.079,510.534z"/>
<path fill-rule="evenodd" clip-rule="evenodd" d="M1078.814,508.944c0.347,8.6-6.992,14.021-12.744,20.317
	c-2.673,2.925-5.899,5.341-8.614,8.231c-5.297,5.642-11.921,7.86-19.4,7.775c-3.977-0.045-8.291,0.24-11.833-1.176
	c-4.176-1.668-8.463-4.364-11.304-7.778c-4.961-5.962-6.48-13.281-3.817-20.912c1.991-5.704,6.316-9.683,10.799-13.439
	c3.4-2.851,6.718-5.87,10.43-8.26c3.854-2.481,8.387-3.932,12.164-6.505c3.802-2.591,7.704-2.722,12.005-2.729
	C1067.536,484.451,1080.009,497.139,1078.814,508.944z M1039.123,499.765c-8.426,0.025-11.494,3.274-11.051,11.737
	c0.449,8.587,9.374,17.73,17.979,17.674c3.646-0.023,7.756,1.957,11.09-1.822c4.721-5.35,5.189-13.624,0.599-19.173
	C1052.91,502.347,1046.69,499.529,1039.123,499.765z"/>
<path fill-rule="evenodd" clip-rule="evenodd" d="M1177.145,486.604c0.454,5.111,0.909,10.224,1.407,15.824
	c0.994-0.373,2.209-0.483,2.901-1.143c5.624-5.35,11.062-10.896,16.732-16.196c5.6-5.234,12.561-4.427,17.667,1.427
	c5.805,6.654,7.858,14.692,8.049,23.04c0.159,6.984-0.563,14.123-1.979,20.97c-1.281,6.19-5.866,10.595-11.287,13.811
	c-0.942,0.559-2.52,0.682-3.511,0.281c-0.56-0.227-0.791-1.951-0.713-2.966c0.788-10.186,1.791-20.471-1.92-30.241
	c-1.555-4.093-4.484-7.787-7.359-11.179c-0.891-1.051-4.181-1.359-5.483-0.56c-8.263,5.071-14.854,11.468-14.583,22.235
	c0.029,1.165-0.218,2.383,0.038,3.489c2.423,10.48-4.279,17.141-10.211,23.989c-1.048,1.211-3.494,1.588-5.28,1.555
	c-0.539-0.01-1.462-2.695-1.475-4.161c-0.115-13.252-0.068-26.506-0.068-40.185c-0.62-0.184-2.095-0.618-4.035-1.191
	c5.883-7.396,11.015-14.809,19.057-19.298C1175.776,486.272,1176.46,486.438,1177.145,486.604z"/>
<path fill-rule="evenodd" clip-rule="evenodd" d="M1349.828,491.631c1.201,4.928,5.082,6.654,8.877,7.55
	c6.749,1.592,10.175,6.878,11.844,12.212c0.94,3.006-2.011,7.994-4.443,11.133c-4.983,6.43-10.324,12.763-16.446,18.062
	c-3.775,3.268-9.079,5.34-14.037,6.516c-5.197,1.233-10.492-0.677-14.062-4.909c-7.087-8.399-6.189-17.215,3.6-22.799
	c6.265-3.574,8.128-2.898,10.91,4.045c1.981,4.944,6.396,6.381,10.632,7.48c1.516,0.393,4.217-1.944,5.602-3.66
	c0.707-0.875,0.052-3.292-0.596-4.741c-2.875-6.436-9.716-7.841-15.016-11.016c-4.134-2.478-7.563-5.257-8.486-9.834
	c-0.368-1.831,1.236-4.598,2.748-6.157c3.141-3.241,6.814-5.967,10.278-8.895c7.938-6.709,16.27-12.426,27.489-10.621
	c0.837,0.135,2.179,0.356,2.333,0.841c0.332,1.042,0.513,2.908-0.066,3.344c-5.002,3.759-10.094,7.424-15.383,10.761
	C1354.24,491.803,1352.082,491.405,1349.828,491.631z"/>
<path fill-rule="evenodd" clip-rule="evenodd" d="M1515.669,501.485c5.002,3.646,9.798,6.703,14.04,10.396
	c2.522,2.196,4.989,5.146,5.924,8.229c0.607,2.006-1.072,5.267-2.634,7.252c-3.382,4.302-6.023,10.199-11.429,9.146
	c-7.441-7.021-13.681-12.906-20.295-19.146c-3.296,10.274-10.056,16.267-18.003,22.887c-0.528-2.496-1.146-4.085-1.158-5.678
	c-0.086-10.82-0.049-21.642-0.043-32.463c0.002-4.347-0.125-8.703,0.128-13.035c0.077-1.311,0.93-2.913,1.944-3.77
	c3.729-3.148,5.85-9.001,12.923-7.714c1.049,8.971,2.105,18.005,3.186,27.237c11.901-5.91,18.802-18.517,31.173-23.562
	c0.463,0.484,0.925,0.969,1.388,1.453C1527.316,488.737,1521.819,494.753,1515.669,501.485z"/>
<path fill-rule="evenodd" clip-rule="evenodd" d="M2496.917,171.968c-7.518-0.645-11.396-4.238-14.77-10.802
	c-3.892-7.572,0.198-13.289,2.971-19.251c5.229-11.24,15.929-17.05,25.789-23.092c3.418-2.095,9.761-1.229,13.999,0.349
	c4.025,1.499,6.05,5.645,5.938,11.068c-0.215,10.438-3.992,18.913-11.252,25.964c-4.763,4.627-9.767,9.053-15.026,13.096
	C2502.534,170.863,2499.497,171.118,2496.917,171.968z M2512.045,145.299c0.385-0.248,0.769-0.495,1.153-0.743
	c-1.622-2.506-2.736-6.127-5.025-7.17c-1.873-0.854-6.48,0.599-7.505,2.387c-1.779,3.107-0.933,7.06,2.183,9.833
	c0.619,0.551,1.099,1.302,1.787,1.725c1.189,0.729,3.027,2.118,3.641,1.729c1.539-0.977,2.765-2.671,3.679-4.32
	C2512.451,147.85,2512.045,146.462,2512.045,145.299z"/>
<path fill-rule="evenodd" clip-rule="evenodd" d="M1008.373,488.958c3.208-3.533,6.146-7.365,9.676-10.54
	c9.454-8.505,20.07-14.115,33.436-13.239c4.105,0.27,8.317-1.16,12.486-1.771c0.816-0.119,1.905-0.394,2.453-0.008
	c4.644,3.271,7.327-0.978,10.717-2.604c1.709-0.82,3.541-1.383,5.318-2.062c0.329,0.573,0.658,1.146,0.987,1.719
	c-3.754,3.94-7.275,8.144-11.335,11.739c-3.237,2.866-6.844,5.774-10.812,7.227c-3.956,1.448-8.568,1.447-12.892,1.439
	c-3.405-0.006-6.841-1.598-10.208-1.42c-9.279,0.489-17.705,3.717-25.136,9.388c-0.646,0.493-1.274,1.048-1.997,1.392
	c-0.383,0.181-0.951-0.032-1.437-0.066C1009.21,489.753,1008.792,489.356,1008.373,488.958z"/>
</svg>
