<?xml version="1.0" encoding="utf-8"?>
<!-- Generator: Adobe Illustrator 16.0.0, SVG Export Plug-In . SVG Version: 6.00 Build 0)  -->
<!DOCTYPE svg PUBLIC "-//W3C//DTD SVG 1.1//EN" "http://www.w3.org/Graphics/SVG/1.1/DTD/svg11.dtd">
<svg version="1.1" id="Lag_1" xmlns="http://www.w3.org/2000/svg" xmlns:xlink="http://www.w3.org/1999/xlink" x="0px" y="0px"
	 width="2734.413px" height="470.589px" viewBox="0 0 2734.413 470.589" enable-background="new 0 0 2734.413 470.589"
	 xml:space="preserve">
<path fill-rule="evenodd" clip-rule="evenodd" d="M63.704,311.263c-1.595,6.386-3.076,12.801-4.805,19.149
	c-4.612,16.938-9.003,33.947-14.182,50.712c-1.826,5.912-5.366,11.396-8.695,16.717c-3.886,6.211-10.13,9.08-17.276,9.501
	c-5.974,0.352-11.984,0.072-18.746,0.072c2.645-4.603,4.918-8.844,7.528-12.866c0.519-0.801,2.469-1.315,3.512-1.037
	c15.494,4.127,20.989-3.331,26.647-15.342c5.159-10.949,8.682-22.772,11.956-34.481c3.894-13.928,6.751-28.146,10.063-42.261
	c-10.596-4.763-25.543-4.493-32.557,4.036c-4.518,5.494-4.88,11.39-3.809,17.622c0.82,4.771,2.417,9.437,3.979,14.043
	c0.991,2.923,0.476,4.814-2.077,6.655c-3.423,2.468-6.544,5.355-10.524,8.671c-3.6-10.329-5.056-19.675-2.617-29.536
	c2.221-8.983,7.445-16.062,12.843-23.336c4.453-6.001,9.26-10.749,16.618-12.306c3.015-0.638,6.181-0.534,9.267-0.873
	c8.064-0.885,17.034,3.224,24.07-5.961c2.583,32.281,5.035,62.928,7.624,95.271c2.994-4.727,5.35-8.35,7.609-12.031
	c8.425-13.732,16.771-27.514,25.238-41.219c8.452-13.68,16.727-27.482,25.631-40.863c5.63-8.461,14.088-13.954,23.388-17.813
	c2.26-0.938,5.241-0.14,8.225-0.14c-1.643,4.798-3.257,9.509-4.859,14.188c-11.311-1.984-15.692,0.159-18.701,11.087
	c-4.487,16.297-8.299,32.787-12.07,49.271c-3.449,15.074-6.506,30.238-9.634,45.385c-0.693,3.354-1.155,6.784-1.374,10.201
	c-0.269,4.198,2.474,6.464,7.877,6.608c4.821,0.128,9.648,0.027,14.895,0.027c-0.85,3.481-1.393,5.809-5.874,6.26
	c-9.539,0.96-18.962,3.032-28.458,4.478c-2.678,0.408-5.145-3.851-4.431-7.487c1.254-6.39,2.552-12.773,3.944-19.135
	c4.973-22.735,9.99-45.46,14.999-68.188c0.308-1.396,0.693-2.775,0.131-4.663c-2.281,3.686-4.637,7.327-6.83,11.064
	c-11.454,19.526-22.98,39.012-34.22,58.66c-3.146,5.5-5.033,11.723-8.201,17.208c-2.072,3.588-5.409,6.445-8.18,9.63
	c-0.407-0.343-0.814-0.686-1.221-1.028c-0.495-6.837-1.126-13.667-1.458-20.512c-0.755-15.527-1.225-31.069-2.082-46.59
	c-0.527-9.537-1.557-19.045-2.36-28.566C64.239,311.452,63.972,311.358,63.704,311.263z"/>
<path fill-rule="evenodd" clip-rule="evenodd" d="M2006.207,39.978c-10.713-2.248-20.398-1.611-29.889,2.614
	c-8.067,3.592-11.165,14.149-8.647,21.111c1.929,5.335,4.004,10.616,6.045,16.002c-2.49,1.896-4.79,3.715-7.162,5.435
	c-2.378,1.725-4.827,3.351-7.441,5.154c-5.721-11.442-6.942-22.568-1.422-34.725c5.842-12.866,14.96-22.493,27.049-28.604
	c6.077-3.072,14.057-3.501,21.083-3.167c4.354,0.207,7.139-0.267,9.717-3.427c0.365-0.448,1.016-0.666,1.749-1.125
	c9.785,37.194,16.531,74.885,31.454,111.186c2.501-11.133,4.734-21.568,7.198-31.949c4.885-20.571,9.844-41.125,14.873-61.661
	c3.584-14.63,13.195-25.099,25.174-33.064c4.209-2.8,10.662-2.227,17.628-3.468c-2.829,6.017-4.749,10.509-7.099,14.764
	c-0.497,0.9-2.588,1.353-3.913,1.293c-10.133-0.454-16.831,3.356-20.938,13.29c-5.59,13.521-8.755,27.562-11.777,41.73
	c-2.581,12.104-5.34,24.17-8.061,36.243c-2.254,10.002-4.739,19.956-6.79,30c-1.232,6.035,2.496,10.579,5.633,15.177
	c5.24,7.679,11.485,14.038,20.766,16.819c7.378,2.211,13.21-0.376,18.18-5.488c2.721-2.798,4.949-6.074,8.254-10.202
	c0,7.417,0.271,13.783-0.259,20.083c-0.092,1.088-3.494,2.309-5.524,2.755c-15.841,3.484-31.362,2.379-44.583-7.462
	c-8.474-6.308-16.127-14.105-19.968-24.642c-4.455-12.22-9.9-24.136-13.518-36.589c-5.076-17.474-8.863-35.321-13.24-53.164
	c-0.568,2.159-1.195,4.55-1.826,6.938c-4.358,16.501-8.476,33.07-13.16,49.478c-3.14,10.994-8.805,21.046-17.414,28.436
	c-4.629,3.975-11.44,5.94-17.602,7.429c-4.861,1.175-10.234,0.236-15.939,0.236c2.147-4.676,3.839-7.84,5.078-11.171
	c2.073-5.578,6.628-5.569,11.021-4.668c11.132,2.284,21.241-5.194,23.574-12.353c4.582-14.055,9.364-28.063,13.301-42.302
	C2001.146,64.864,2003.403,52.509,2006.207,39.978z"/>
<path fill-rule="evenodd" clip-rule="evenodd" d="M856.583,410.039c2.095-7.896,3.911-14.583,5.64-21.294
	c3.854-14.955,7.687-29.916,11.452-44.894c0.355-1.416,0.405-3.003,0.189-4.449c-0.415-2.772-1.509-4.567-4.923-3.091
	c-3.424,1.48-7.023,2.554-10.624,3.834c-0.285-1.226-0.566-2.436-0.979-4.214c-5.785,5.878-12.777,4.404-19.388,4.41
	c-3.451,0.004-4.601,0.856-5.223,4.631c-1.639,9.938-4.518,19.666-6.287,29.588c-0.989,5.543-2.074,11.393,3.117,16.186
	c2.407,2.223,4.245,2.358,6.777,0.904c4.87-2.796,9.772-5.534,15.078-8.532c0.943,3.867,0.449,6.463-2.958,8.544
	c-8.907,5.441-17.604,11.227-26.496,16.695c-3.55,2.185-6.095,1.227-8.46-2.597c-5.336-8.625-3.121-17.317-1.2-26.095
	c2.885-13.181,5.863-26.341,8.94-40.133c-5.508,0-10.535,0-15.834,0c3.374-6.435,3.374-6.435,17.464-7.394
	c1.327-6.126,2.877-12.404,4.006-18.759c1.009-5.682,2.525-10.618,9.136-12.043c2.268-0.489,4.386-1.67,6.868-2.652
	c-2.55,11.279-5.008,22.155-7.624,33.73c5.75,0,10.686-0.747,15.307,0.143c13.064,2.516,21.434-6.427,31.31-11.835
	c2.202-1.206,5.198-3.089,7.006-2.423c3.252,1.196,1.969,4.471,1.163,7.293c-1.329,4.655-2.218,9.437-3.538,15.248
	c9.154-5.41,17.404-10.254,25.618-15.156c3.438-2.053,6.767-4.288,10.206-6.337c3.534-2.107,5.853-0.911,5.49,3.289
	c-0.472,5.455-1.689,10.845-2.692,16.911c13.54-6.611,24.866-16.72,39.16-22.003c2.309,10.961-1.803,19.951-3.629,29.143
	c-2.596,13.063-6.295,25.903-9.204,38.91c-0.366,1.638,0.713,4.257,2.019,5.395c1,0.872,3.725,0.728,5.141-0.008
	c5.706-2.961,11.203-6.327,16.739-9.522c3.054,7.671-3.405,9.305-7.132,11.914c-7.601,5.32-15.64,10.041-23.679,14.698
	c-4.615,2.674-6.073,1.551-7.685-3.463c-2.558-7.958,0.871-15.222,2.399-22.578c2.678-12.885,6.411-25.548,9.43-38.368
	c0.481-2.043-0.453-4.42-0.733-6.643c-2.12,0.378-4.547,0.223-6.305,1.231c-6.15,3.529-12.831,6.68-17.796,11.525
	c-3.062,2.988-3.673,8.717-4.858,13.35c-3.346,13.08-6.352,26.246-9.693,39.327c-0.373,1.46-1.788,3.185-3.151,3.756
	c-3.396,1.422-7.039,2.249-11.639,3.632c1.406-5.98,2.579-11.134,3.833-16.267c4.128-16.902,8.337-33.785,12.333-50.718
	c0.309-1.309-0.38-3.45-1.376-4.289c-0.866-0.729-3.15-0.719-4.245-0.076c-6.036,3.544-12.115,7.094-17.713,11.268
	c-2.113,1.576-3.605,4.664-4.305,7.343c-3.898,14.951-7.439,29.994-11.177,44.988c-0.614,2.462-1.633,4.265-4.918,4.553
	C863.811,406.92,860.802,408.586,856.583,410.039z"/>
<path fill-rule="evenodd" clip-rule="evenodd" d="M2217.645,263.108c-1.82,4.663-3.177,8.501-4.856,12.191
	c-0.429,0.941-1.813,1.881-2.874,2.038c-14.278,2.116-18.538,6.1-22.025,20.591c-3.54,14.706-7.563,29.308-10.681,44.101
	c-4.102,19.458-7.562,39.052-11.164,58.611c-0.271,1.479,0.233,3.284,0.868,4.72c4.728,10.697,9.746,21.132,22.142,25.172
	c6.292,2.051,11.627,0.926,16.146-3.905c2.674-2.857,5.309-5.75,8.697-9.426c0,6.397,0.561,12.039-0.311,17.449
	c-0.297,1.842-4.104,4.229-6.465,4.422c-7.301,0.597-15.271,2.072-21.903-0.093c-14.433-4.711-25.489-14.201-32.407-28.417
	c-6.836-14.044-11.375-28.76-14.801-43.845c-3.713-16.352-6.782-32.85-10.177-49.274c-0.155-0.749-0.741-1.409-0.909-1.716
	c-3.986,17.391-7.461,35.15-12.264,52.544c-2.969,10.75-7.209,21.289-14.361,30.268c-6.503,8.166-22.707,12.602-32.107,8.521
	c0.876-1.752,1.745-3.494,2.617-5.235c3.991-7.964,3.99-7.94,12.758-7.419c6.135,0.364,14.545-2.74,18.109-10.046
	c7.321-15.001,10.409-31.151,14.143-47.126c2.558-10.945,4.039-22.14,6.403-33.137c0.537-2.501,0.28-3.388-2.055-3.656
	c-8.155-0.938-15.978-1.026-23.552,3.513c-8.796,5.272-12.28,12.103-9.359,22.054c1.415,4.819,3.43,9.464,5.431,14.889
	c-3.521,3.259-7.515,6.954-12.61,11.669c-1.545-5.947-3.553-10.905-4.02-16.006c-1.287-14.06,4.619-25.606,13.311-36.281
	c5.161-6.338,10.758-11.567,18.982-12.883c4.87-0.778,9.933-0.361,14.802-1.146c3.294-0.531,6.401-2.218,9.535-3.366
	c8.418,35.779,14.282,73.135,28.7,108.316c3.512-18.179,6.676-36.434,10.643-54.513c3.479-15.86,7.65-31.581,11.992-47.231
	c1.044-3.764,3.707-7.199,6.094-10.441c4.49-6.099,8.174-13.319,16.647-14.906C2210.132,263.475,2213.614,263.458,2217.645,263.108z
	"/>
<path fill-rule="evenodd" clip-rule="evenodd" d="M1642.175,89.64c-13.567,3.558-14.569,15.085-16.949,25.364
	c-3.641,15.719-7.378,31.291-14.03,46.147c-4.013,8.961-10.842,15.162-17.383,21.803c-8.3,8.426-18.993,11.567-30.32,12.258
	c-5.275,0.321-10.661-1.167-16.101-1.848c2.255-4.155,4.436-8.109,6.553-12.098c1.504-2.835,3.772-2.859,6.691-2.655
	c7.417,0.521,14.964,1.332,22.283,0.496c7.82-0.893,11.757-7.212,13.956-14.267c2.511-8.06,4.701-16.221,6.938-24.363
	c0.295-1.077,0.04-2.306,0.04-2.759c-8.565,3.375-17.066,7.435-25.994,10.017c-6.973,2.018-14.612,2.153-21.616-0.45
	c-8.305-3.087-17.123-13.01-18.472-23.822c-2.216-17.771,2.472-34.015,9.565-49.779c9.102-20.226,23.325-35.416,43.703-45.162
	c8.592-4.109,17.417-6.396,26.421-6.794c11.261-0.499,22.39,1.55,29.007,12.735c1.686,2.851,2.047,5.152-0.77,7.836
	c-4.524,4.31-8.575,9.116-13.171,14.085c-1.812-7.511-3.356-14.674-9.011-19.853c-7.597-6.956-15.317-8.146-23.865-3.459
	c-6.088,3.339-12.986,5.857-17.963,10.437c-13.654,12.562-20.666,29.096-24.721,46.904c-2.348,10.312-3.249,20.728-0.049,31.104
	c2.084,6.759,5.263,12.721,12.245,15.496c3.55,1.41,7.924,4.051,10.867,3.043c7.787-2.665,15.03-6.951,22.425-10.72
	c4.684-2.388,5.919-6.595,6.664-11.6c1.045-7.026,3.18-13.89,4.863-20.885c-9.142-0.53-17.965-1.042-27.385-1.588
	c7.578-7.643,16.349-8.494,25.681-7.893c8.583,0.553,17.191,0.715,25.788,1.038c0.994,0.037,1.99,0.005,2.985,0.005
	C1641.427,88.824,1641.801,89.232,1642.175,89.64z"/>
<path fill-rule="evenodd" clip-rule="evenodd" d="M362.645,193.987c3.351-5.833,6.015-10.472,8.369-14.571
	c8.259,0,16.322,0.147,24.378-0.047c6.499-0.156,12.104-2.598,14.461-9.058c3.979-10.905,7.44-21.999,11.526-34.233
	c-7.901,3.742-13.922,7.019-20.254,9.497c-10.601,4.149-22.02,5.604-32.188,0.453c-10.165-5.148-15.512-14.905-16.003-26.681
	c-0.678-16.258,3.844-31.288,10.424-45.982c6.953-15.528,17.016-28.435,31.104-37.818c11.971-7.974,25.036-13.424,39.779-14.192
	c12.133-0.632,23.134,4.712,28.031,13.583c1.591,2.88,1.248,4.843-0.521,6.877c-4.213,4.845-8.592,9.545-12.749,14.131
	c-2.452-5.777-3.707-12.224-7.385-16.666c-7.486-9.043-15.888-11.803-27.023-6.101c-5.479,2.806-10.997,5.683-16.005,9.224
	c-7.353,5.201-11.677,13.104-15.858,20.769c-8.469,15.521-12.637,32.2-11.835,50.019c0.598,13.269,9.085,24.878,21.378,26.884
	c4.054,0.661,8.876-1.792,13.005-3.601c4.75-2.081,9.083-5.098,13.666-7.58c5.794-3.14,5.454-9.2,6.824-14.348
	c1.544-5.799,2.549-11.741,3.896-18.129c-4.464,0-8.915,0.181-13.343-0.052c-4.378-0.229-8.734-0.876-13.1-1.34
	c-0.19-0.443-0.382-0.887-0.572-1.329c4.853-2.093,9.609-5.671,14.576-5.991c13.167-0.848,26.425-0.287,39.647-0.287
	c0.052,0.501,0.104,1.002,0.156,1.503c-0.301,0.272-0.556,0.658-0.909,0.803c-11.88,4.86-12.867,15.947-15.233,26.346
	c-4.116,18.089-7.686,36.554-18.139,52.258c-8.147,12.24-18.838,22.585-33.946,25.393
	C380.676,195.229,372.035,193.987,362.645,193.987z"/>
<path fill-rule="evenodd" clip-rule="evenodd" d="M982.669,59.005c-4.127,4.2-8.093,7.241-10.701,11.182
	c-2.422,3.658-3.815,8.168-4.933,12.49c-4.718,18.259-8.999,36.63-13.759,54.877c-3.893,14.926-8.047,29.793-12.527,44.552
	c-0.979,3.228-3.3,6.533-5.919,8.693c-9.319,7.685-18.941,15.357-31.5,16.686c-7.998,0.845-16.177,0.989-24.188,0.351
	c-5.329-0.426-10.678-2.364-15.692-4.419c-3.821-1.566-4.706-5.31-3.833-9.356c1.487-6.895,4.85-12.675,9.795-17.695
	c5.751-5.836,11.127-12.048,16.963-17.794c3.849-3.79,8.194-7.081,12.371-10.53c3.119-2.575,4.965-4.714,2.468-9.437
	c-3.728-7.047-3.119-15.033-1.232-22.626c3.016-12.134,5.451-24.729,12.948-34.997c11.579-15.856,27.267-24.534,47.438-23.537
	C967.275,57.786,974.17,58.401,982.669,59.005z M942.221,124.933c-0.523-0.321-1.047-0.642-1.57-0.962
	c-10.581,7.993-21.299,15.814-31.708,24.026c-11.504,9.077-21.953,19.293-30.367,31.362c-5.249,7.528-2.724,14.038,6,17.093
	c8.711,3.049,17.259,1.887,26.067,0.206c8.438-1.61,13.977-5.689,16.202-14.029C931.977,163.399,937.097,144.166,942.221,124.933z
	 M964.697,71.575c-8.794-0.422-16.489-0.942-24.191-1.117c-8.123-0.186-12.871,2.967-15.557,10.922
	c-3.894,11.53-7.675,23.129-10.681,34.909c-0.872,3.418,0.722,7.66,1.829,11.33c0.922,3.055,3.315,3.078,5.821,1.301
	c4.255-3.018,8.786-5.686,12.81-8.979c6.692-5.479,12.622-11.185,13.603-20.947c0.996-9.908,4.266-19.371,14.116-24.643
	C963.095,74.003,963.461,73.134,964.697,71.575z"/>
<path fill-rule="evenodd" clip-rule="evenodd" d="M1478.043,58.325c-2.194,3.501-3.318,7.489-5.888,8.972
	c-6.96,4.014-7.58,10.843-9.204,17.277c-7.076,28.052-13.827,56.187-21.142,84.174c-2.114,8.089-4.136,16.541-11.119,22.427
	c-12.293,10.36-25.485,18.452-42.436,17.221c-7.521-0.546-15.178-0.603-22.495-2.175c-8.216-1.765-13.456-6.929-7.861-17.156
	c3.336-6.097,7.426-12,12.168-17.062c9.302-9.929,19.296-19.209,29.516-29.262c-3.933-5.871-6.081-13.559-4.396-21.442
	c2.065-9.663,5.094-19.146,8.134-28.568c2.26-7,6.283-12.78,11.592-18.248c7.079-7.293,14.783-13.012,24.555-15.002
	c6.574-1.339,13.52-0.94,20.305-1.123C1465.56,58.201,1471.357,58.325,1478.043,58.325z M1438.675,124.049
	c-2.186,1.198-3.27,1.63-4.166,2.309c-10.094,7.64-20.115,15.374-30.242,22.967c-11.465,8.597-21.612,18.434-29.434,30.527
	c-4.822,7.457-2.531,13.686,5.867,16.616c8.714,3.04,17.49,2.225,26.168,0.395c7.06-1.489,13.729-4.475,15.852-12.206
	C1428.127,164.962,1433.146,145.162,1438.675,124.049z M1460.353,71.936c-4.188-0.489-7.57-1.113-10.97-1.231
	c-6.477-0.225-12.964-0.229-19.444-0.139c-0.975,0.014-2.321,0.792-2.835,1.625c-2.548,4.128-5.516,8.16-7.145,12.657
	c-3.315,9.153-6.17,18.504-8.612,27.93c-1.355,5.235-2.889,11.021,1.69,15.697c0.867,0.886,3.263,1.438,4.209,0.881
	c4.066-2.395,8.007-5.068,11.711-7.996c7.014-5.542,14.013-10.582,15.344-21.026c1.278-10.034,4.007-20.336,14.197-26.028
	C1459.131,73.952,1459.477,73.084,1460.353,71.936z"/>
<path fill-rule="evenodd" clip-rule="evenodd" d="M1611.354,347.763c10.337-6.995,9.994-17.229,12.387-26.189
	c2.139-8.015,3.465-16.247,5.101-24.393c0.15-0.75-0.054-1.571-0.091-2.312c-18.597-2.338-29.515,9.232-28.745,24.45
	c0.279,5.517,1.417,10.989,2.156,16.436c-4.896,1.727-9.28,3.274-13.701,4.834c-2.702-11.156-2.128-21.623,3.538-31.301
	c7.521-12.845,18.448-20.764,33.677-21.865c7.237-0.523,14.481-0.954,22-1.445c0,1.479,0.338,2.581-0.05,2.984
	c-9.022,9.381-7.159,22.229-10.622,33.362c-1.537,4.941-2.178,10.162-3.329,15.76c12.092,2.314,23.843,1.623,35.839,0.151
	c2.472-9.764,4.599-19.604,7.48-29.217c4.245-14.163,11.872-26.543,22.101-37.145c6.909-7.162,11.243-9.398,20.282-8.258
	c-1.536,4.099-2.877,8.218-4.691,12.117c-0.435,0.934-2.465,1.643-3.727,1.592c-9.388-0.378-13.459,1.952-15.992,11.099
	c-3.687,13.31-6.976,26.742-9.979,40.224c-4.039,18.123-7.656,36.341-11.423,54.524c-0.628,3.031-1.169,6.085-1.627,9.146
	c-0.652,4.368,1.776,6.026,5.712,6.078c4.966,0.065,9.933,0.016,15.072,0.016c-0.306,3.916-2.487,5.388-5.681,6.017
	c-8.149,1.603-16.23,3.657-24.439,4.814c-5.893,0.831-8.832,0.984-6.933-6.571c4.443-17.677,8.184-35.529,12.166-53.32
	c0.212-0.945,0.027-1.979,0.027-2.937c-2.812,0-5.549-0.246-8.227,0.045c-8.731,0.951-17.455,2.003-26.149,3.243
	c-1.963,0.28-3.265,1.295-3.854,4.006c-3.269,15.042-11.431,27.472-21.359,39.023c-5.309,6.177-10.326,12.936-18.619,14.406
	c-6.59,1.169-13.552,0.235-20.926,0.235c2.283-4.497,4.088-8.661,6.508-12.431c0.699-1.091,3.135-1.272,4.824-1.487
	c5.822-0.741,11.949-0.417,17.442-2.145c9.997-3.146,12.135-12.92,15.265-21.345c1.739-4.683,1.766-9.987,3.383-14.733
	C1617.48,351.33,1617.226,348.924,1611.354,347.763z"/>
<path fill-rule="evenodd" clip-rule="evenodd" d="M627.487,123.566c1.369,3.923,0.077,6.503-3.408,8.184
	c-8.062,3.888-15.946,8.198-24.209,11.591c-6.218,2.553-12.837,4.271-19.411,5.769c-7.503,1.709-16.109-5.501-16.515-13.4
	c-0.135-2.628-0.021-5.268-0.021-8.734c-6.86,4.362-13.118,8.319-19.352,12.313c-3.697,2.37-7.27,4.948-11.053,7.169
	c-7.039,4.131-13.101,0.919-13.55-7.352c-1.204-22.175,3.701-43.068,17.704-60.344c7.785-9.606,18.926-16.47,31.196-20.032
	c3.079-0.895,7.215,0.33,10.383,1.697c3.153,1.36,4.898,0.634,6.814-1.617c1.503-1.766,3.021-3.567,4.794-5.039
	c1.502-1.247,3.378-2.043,5.088-3.039c0.303,0.392,0.606,0.782,0.909,1.174c-1.276,3.936-2.552,7.871-4.205,12.968
	c4.15-2.028,7.469-3.779,10.892-5.293c7.131-3.155,14.499-2.764,17.988,0.861c5.396,5.605,4.568,15.677-1.705,22.644
	c-10.191,11.318-22.718,19.609-35.153,28.074c-1.301,0.886-2.713,2.542-2.883,3.98c-0.535,4.552-1.2,9.276-0.513,13.733
	c0.801,5.197,7.857,8.058,14.26,6.194c5.447-1.587,10.761-3.647,16.104-5.58C616.828,127.611,621.978,125.63,627.487,123.566z
	 M541.397,132.395c4.617-2.564,9.265-5.074,13.841-7.708c5.031-2.896,9.114-6.285,10.52-12.612
	c2.426-10.917,5.656-21.656,8.521-32.477c0.238-0.897,0.613-1.986,0.322-2.759c-1.538-4.076-10.109-7.601-14.445-6.58
	c-5.251,1.236-7.62,5.609-10.124,9.325c-8.704,12.919-12.279,27.822-15.026,42.89C534.045,127.738,536.798,131.374,541.397,132.395z
	 M583.777,102.454c0.428,0.358,0.854,0.717,1.281,1.076c6.733-6.328,13.528-12.594,20.146-19.042
	c1.218-1.186,2.28-3.056,2.435-4.701c0.353-3.767,1.555-7.95-3.039-10.466c-3.553-1.945-6.707-0.959-8.756,1.826
	C588.993,80.461,585.245,91.058,583.777,102.454z"/>
<path fill-rule="evenodd" clip-rule="evenodd" d="M2079.606,193.154c7.991,0.776,15.625,1.948,23.28,2.105
	c4.824,0.1,9.851-0.772,14.475-2.21c4.74-1.473,8.794-4.556,10.17-9.827c4.962-19.007,9.85-38.033,15.031-58.08
	c-7.686,4.886-14.354,9.128-21.026,13.367c-3.858,2.451-7.67,4.98-11.594,7.322c-3.67,2.188-7.981,0.535-8.746-4.791
	c-0.955-6.665-0.945-13.781,0.311-20.387c2.487-13.091,6.235-25.938,9.15-38.954c0.485-2.165-0.226-4.866-1.217-6.917
	c-0.271-0.561-3.64,0.112-5.469,0.633c-2.893,0.822-5.686,1.994-8.518,3.018c-1.597-4.459-0.469-7.673,3.619-9.573
	c8.432-3.919,16.875-7.817,25.393-11.543c1.307-0.571,3.633-0.802,4.413-0.06c0.91,0.864,1.144,3.091,0.804,4.521
	c-4.023,16.935-8.256,33.819-12.311,50.747c-0.759,3.17-1.465,6.493-1.304,9.7c0.144,2.846,1.526,5.629,2.853,10.09
	c9.322-6.882,17.363-12.561,25.044-18.691c1.644-1.312,2.291-4.185,2.865-6.472c3.445-13.727,6.677-27.509,10.169-41.224
	c0.347-1.358,1.752-2.847,3.054-3.488c4.364-2.149,8.905-3.943,13.981-6.134c-2.493,10.155-4.848,19.73-7.195,29.307
	c-6.314,25.758-12.357,51.586-19.068,77.239c-2.688,10.274-7.575,19.76-15.258,27.464c-6.272,6.289-12.054,13.23-20.968,16.083
	c-8.671,2.775-17.45,2.635-26.327,1.172c-3.994-0.659-8.051-0.938-12.729-1.463C2075.091,201.372,2077.421,197.13,2079.606,193.154z
	"/>
<path fill-rule="evenodd" clip-rule="evenodd" d="M2315.703,318.828c1.444,7.092-4.107,10.794-7.28,15.515
	c-9.59,14.266-18.325,28.992-21.185,46.19c-0.651,3.919,1.538,8.54,3.245,12.479c0.51,1.175,3.911,1.777,5.846,1.53
	c7.339-0.941,10.713-7.008,14.591-12.234c11.403-15.369,16.963-33.392,21.627-51.471c1.976-7.656,7.673-8.378,12.431-11.445
	c1.067-0.688,2.314-1.1,3.907-1.838c-4.291,14.971-8.584,29.57-12.635,44.237c-1.99,7.207-4.095,14.468-5.032,21.846
	c-0.452,3.558,0.917,7.903,2.835,11.057c2.167,3.563,6.552,3.354,9.303,0.571c5.479-5.544,11.166-11.159,15.337-17.662
	c8.54-13.317,13.28-28.346,14.961-43.982c0.75-6.975-1.245-14.245-2.057-21.982c3.996-1.408,8.662-3.053,13.734-4.84
	c3.744,15.121,1.118,29.037-3.946,42.449c-5.023,13.302-12.286,25.349-21.069,36.76c-6.795,8.828-14.574,15.814-24.037,21.152
	c-2.448,1.382-5.602,2.163-8.415,2.119c-6.76-0.104-9.86-3.712-9.933-10.687c-0.051-4.794-0.01-9.588-0.01-15.088
	c-3.646,4.349-6.598,8.364-10.057,11.88c-5.348,5.433-10.437,11.314-18.483,13.078c-8.585,1.881-14.034-2.499-14.497-11.467
	c-0.935-18.116,6.383-33.419,15.968-47.99c2.837-4.314,5.791-8.551,9.175-13.535c-5.106-0.364-9.593-1.174-14.011-0.895
	c-8.315,0.524-11.456,6.959-14.12,13.629c-1.445,3.622-2.863,7.254-4.32,10.951c-3.602-2.229-3.979-5.21-2.615-8.875
	c2.095-5.63,3.512-11.57,6.141-16.925c2.271-4.627,5.513-8.912,9.002-12.729c1.148-1.255,4.655-1.308,6.669-0.646
	c7.327,2.404,14.741,3.569,22.326,2.307C2311.401,321.903,2313.46,320.047,2315.703,318.828z"/>
<path fill-rule="evenodd" clip-rule="evenodd" d="M2511.142,345.324c3.59-8.108,7.321-16.158,10.735-24.34
	c5.139-12.315,9.646-25.043,18.513-35.266c6.18-7.124,11.034-10.756,23.712-8.901c-1.082,3.065-2.1,6.037-3.179,8.986
	c-1.115,3.049-2.289,6.076-3.523,9.34c-0.912,0-2.084,0.232-3.127-0.037c-8.17-2.113-12.042-1.167-16.149,6.042
	c-4.258,7.472-7.689,15.441-11.115,23.353c-7.5,17.321-14.7,34.771-22.152,52.114c-4.954,11.526-9.87,23.083-15.284,34.396
	c-5.519,11.532-12.396,22.55-24.719,27.545c-6.747,2.735-14.623,2.938-22.051,3.638c-3.654,0.344-7.447-0.78-11.246-1.248
	c1.502-4.272,2.858-8.803,4.758-13.093c0.522-1.181,2.625-2.238,4.073-2.337c7.909-0.54,15.858-0.526,23.758-1.158
	c8.927-0.715,14.409-6.74,18.611-13.805c2.888-4.853,4.8-10.279,7.231-15.41c5.027-10.61,8.176-21.55,8.04-33.508
	c-0.167-14.851,0.166-29.714-4.164-44.108c-2.156-7.166-4.553-14.518-11.073-19.067c-9.863-6.881-22.487-1.107-27.937,9.146
	c-4.4,8.279-4.615,16.858-2.499,25.707c1.088,4.546,2.256,9.073,3.503,14.07c-4.66,2.77-9.371,5.569-14.372,8.542
	c-4.209-14.14-6.522-27.983,0.734-40.7c7.661-13.424,17.632-25.003,33.347-30.172c14.854-4.885,27.268,5.1,30.63,17.055
	c3.25,11.556,4.305,23.161,4.666,34.961c0.082,2.67-0.574,5.363-0.891,8.046C2510.361,345.184,2510.751,345.253,2511.142,345.324z"
	/>
<path fill-rule="evenodd" clip-rule="evenodd" d="M1853.468,2.077c-2.061,3.514-3.729,6.65-5.714,9.57
	c-0.607,0.894-2.045,1.546-3.18,1.688c-2.133,0.267-4.331,0.21-6.486,0.06c-11.593-0.808-14.702,4.119-16.86,12.676
	c-7.396,29.337-14.25,58.812-21.172,88.266c-0.818,3.485-1.112,7.181-1.046,10.768c0.088,4.778,2.176,6.171,6.651,4.321
	c6.125-2.531,12.051-5.546,17.887-8.271c2.822,6.109-2.312,7.775-5.965,9.885c-9.609,5.55-19.396,10.793-29.113,16.156
	c-3.4,1.877-5.603,1.834-5.61-2.997c-0.007-4.812-0.406-9.623-0.651-14.826c-4.731,3.166-9.526,6.414-14.361,9.601
	c-4.35,2.867-8.597,5.938-13.16,8.422c-4.644,2.526-6.535,1.101-9.105-3.469c-3.928-6.98-2.616-14.08-1.266-21.079
	c1.814-9.411,3.715-18.91,6.856-27.925c2.255-6.469,5.659-13.078,10.251-18.056c5.981-6.484,13.299-11.951,20.741-16.777
	c3.434-2.226,8.498-2.159,12.877-2.62c2.68-0.282,4.333-0.178,5.078-3.725c1.832-8.72,4.355-17.308,6.921-25.853
	c0.673-2.241,2.108-4.622,3.89-6.099c8.163-6.771,16.252-13.717,25.02-19.636C1840.826-1.134,1847.002-0.249,1853.468,2.077z
	 M1783.746,67.717c-2.545,1.15-6.318,1.726-8.135,3.92c-3.478,4.202-6.904,9.004-8.455,14.131
	c-3.653,12.077-6.456,24.438-8.959,36.815c-0.507,2.504,1.267,6.069,3.103,8.173c0.817,0.938,4.712,0.038,6.659-1.031
	c4.411-2.42,8.634-5.266,12.628-8.334c2.096-1.609,4.54-3.807,5.129-6.163c3.425-13.714,6.385-27.546,9.359-41.369
	c0.215-1.002-0.428-2.979-1.146-3.253C1790.923,69.461,1787.735,68.794,1783.746,67.717z"/>
<path fill-rule="evenodd" clip-rule="evenodd" d="M718.651,121.142c1.247,4.412-0.416,6.725-4.557,8.844
	c-9.722,4.974-19.082,10.66-28.522,16.171c-5.73,3.345-6.688,3.237-7.628-3.086c-0.65-4.368-0.125-8.911-0.125-14.06
	c-5.265,3.475-9.975,6.575-14.677,9.689c-4.347,2.88-8.535,6.04-13.068,8.588c-4.811,2.703-6.948,1.283-9.539-3.45
	c-3.823-6.988-2.534-14.083-1.182-21.081c1.818-9.411,3.686-18.919,6.83-27.933c2.256-6.466,5.704-13.057,10.307-18.03
	c5.993-6.475,13.333-11.897,20.751-16.771c3.306-2.172,8.188-2.232,12.413-2.618c2.813-0.257,4.688,0.148,5.484-3.759
	c1.778-8.729,3.695-17.598,7.106-25.762c2.071-4.955,6.601-9.202,10.809-12.868c5.548-4.831,11.566-9.301,17.944-12.942
	c5.128-2.928,11.095-2.368,17.365-0.023c-1.914,3.353-3.612,6.633-5.645,9.69c-0.587,0.884-2.092,1.463-3.245,1.599
	c-2.136,0.252-4.331,0.203-6.487,0.055c-11.534-0.793-14.629,4.165-16.798,12.769c-7.395,29.34-14.237,58.82-21.135,88.283
	c-0.853,3.644-1.236,7.54-0.975,11.258c0.238,3.372,1.854,6.122,6.275,3.964C706.343,126.747,712.43,124.029,718.651,121.142z
	 M679.297,68.423c-0.08-0.21-0.16-0.42-0.241-0.63c-2.238,0.841-5.016,1.122-6.601,2.644c-2.976,2.856-5.816,6.137-7.736,9.759
	c-7.199,13.579-10.143,28.437-11.702,43.547c-0.683,6.612,3.977,9.492,9.711,6.216c5.08-2.902,9.988-6.168,14.654-9.695
	c1.66-1.255,2.93-3.613,3.444-5.698c2.922-11.83,5.471-23.752,8.326-35.6c1.961-8.138,0.978-9.716-7.361-10.531
	C680.967,68.353,680.129,68.423,679.297,68.423z"/>
<path fill-rule="evenodd" clip-rule="evenodd" d="M346.327,339.184c-1.257-4.57,0.468-6.769,3.883-8.562
	c7.417-3.896,14.621-8.195,21.98-12.204c0.998-0.545,3.044-0.909,3.459-0.408c0.793,0.956,1.257,2.703,0.993,3.938
	c-3.798,17.82-7.981,35.562-11.481,53.439c-0.894,4.562-0.056,9.57,0.604,14.287c0.405,2.896,2.325,3.671,5.012,1.473
	c6.144-5.027,12.862-9.435,18.491-14.965c2.337-2.297,2.772-6.756,3.576-10.344c2.633-11.753,5.041-23.557,7.525-35.343
	c0.337-1.596,0.62-3.203,0.889-4.603c4.729-2.595,9.342-5.125,15.212-8.346c-1.381,5.746-2.516,10.238-3.538,14.757
	c-5.352,23.646-10.483,47.344-16.086,70.931c-2.884,12.142-5.427,24.58-10.257,35.981c-4.433,10.463-11.688,19.813-21.475,26.405
	c-8.436,5.681-18.091,5.317-27.648,4.496c-4.011-0.345-7.962-1.397-12.152-2.168c2.054-4.356,4.128-8.757,6.414-13.605
	c3.963,0.86,8.119,2.172,12.362,2.576c5.089,0.486,10.471,1.152,15.338,0.042c9.34-2.131,15.218-8.41,17.277-18.034
	c3.677-17.178,7.467-34.332,11.184-51.502c0.1-0.458-0.102-0.98-0.021-0.323c-9.411,6.267-19.135,12.937-29.076,19.264
	c-3.951,2.516-7.215,1.402-7.625-3.178c-0.648-7.229-0.702-14.727,0.493-21.859c2.15-12.824,5.54-25.438,8.094-38.203
	c0.443-2.218-0.038-5.248-1.344-6.933c-0.69-0.891-4.135,0.093-6.232,0.631C350.159,337.341,348.273,338.375,346.327,339.184z"/>
<path fill-rule="evenodd" clip-rule="evenodd" d="M1952.341,339.164c-1.412-4.695,0.652-6.882,4.166-8.735
	c7.267-3.831,14.319-8.066,21.552-11.966c1.081-0.583,3.217-0.82,3.858-0.191c0.765,0.75,0.808,2.682,0.54,3.972
	c-4.098,19.764-8.458,39.475-12.296,59.287c-0.561,2.896,1.054,6.327,2.143,9.336c0.226,0.622,3.102,1.155,3.888,0.567
	c6.621-4.95,13.494-9.717,19.302-15.527c2.39-2.391,2.562-7.157,3.386-10.921c2.782-12.721,5.395-25.479,8.12-38.212
	c0.111-0.516,0.625-1.091,1.106-1.359c4.312-2.407,8.66-4.751,14.25-7.795c-1.331,5.948-2.374,10.75-3.48,15.536
	c-5.935,25.677-11.769,51.378-17.889,77.011c-2.332,9.767-4.24,19.865-8.315,28.925c-4.688,10.42-11.741,19.781-21.459,26.424
	c-8.553,5.848-18.34,5.502-28.076,4.488c-3.885-0.405-7.717-1.304-11.76-2.01c1.82-4.018,3.492-8.275,5.728-12.214
	c0.511-0.901,3.271-1.41,4.474-0.891c7.719,3.335,15.952,3.526,23.711,2.052c9.055-1.721,15.139-7.781,17.152-17.44
	c3.65-17.511,7.622-34.954,11.442-52.43c0.065-0.301-0.095-0.65-0.021-0.207c-10.439,7.237-21.148,14.661-31.425,21.784
	c-5.214-2.74-7.027-6.586-6.428-11.035c1.589-11.796,3.461-23.561,5.523-35.285c1.126-6.4,3.138-12.648,4.189-19.058
	c0.39-2.373-0.325-5.32-1.588-7.352c-0.428-0.689-4.129,0.486-6.261,1.077C1956.001,337.513,1954.231,338.406,1952.341,339.164z"/>
<path fill-rule="evenodd" clip-rule="evenodd" d="M557.258,409.708c5.094-21.465,9.896-42.191,14.955-62.856
	c4.06-16.583,8.188-33.158,12.815-49.588c1.373-4.875,3.802-9.88,7.064-13.698c5.039-5.896,10.756-11.455,17.026-15.993
	c7.137-5.166,16.056-6.077,27.107-4.656c-2.409,4.215-4.694,8.212-7.168,12.54c-3.351-0.339-7.072-0.185-10.459-1.176
	c-5.78-1.692-8.669,1.777-11.742,5.413c-7.205,8.521-9.467,19.251-12.654,29.435c-3.346,10.684-5.551,21.726-8.217,32.62
	c-0.104,0.427,0.182,0.949,0.151,0.811c11.79-6.795,23.672-13.682,35.604-20.48c1.979-1.128,4.051-4.95,6.339-1.639
	c1.521,2.2,1.97,5.968,1.354,8.685c-3.952,17.448-8.519,34.759-12.421,52.218c-0.829,3.711,0.246,7.849,0.444,11.79
	c4.216-1.479,8.598-2.614,12.593-4.548c3.236-1.566,6.006-4.096,9.226-6.37c1.689,5.164,0.253,8.172-3.881,10.274
	c-9.732,4.948-19.333,10.16-29.099,15.041c-4.523,2.261-7.145,0.392-6.276-4.767c1.646-9.782,3.689-19.508,5.87-29.188
	c2.465-10.942,5.33-21.794,7.818-32.731c0.273-1.198-0.437-3.061-1.346-3.933c-0.604-0.579-2.676-0.39-3.575,0.218
	c-8.58,5.803-17.418,11.33-25.337,17.946c-2.484,2.075-2.557,7.174-3.488,10.949c-3.076,12.475-6.002,24.987-9.119,37.451
	c-0.256,1.023-1.365,2.222-2.359,2.601C565.019,407.395,561.429,408.39,557.258,409.708z"/>
<path fill-rule="evenodd" clip-rule="evenodd" d="M1014.001,158.768c11.326,2.07,22.344,2.739,32.119-4.427
	c7.654-5.611,12.554-13.491,15.635-22.175c4.011-11.305,6.846-23.021,10.592-34.428c1.666-5.071-1.307-7.69-4.561-11.001
	c2.132-1.687,4.064-3.405,6.182-4.853c4.966-3.396,4.922-8.883,6.199-13.914c2.876-11.332,5.999-22.602,9.031-33.931
	c-15.979-2.85-29.213,6.259-28.264,22.852c0.325,5.676,0.814,11.342,1.254,17.361c-4.379,1.938-9.244,4.093-14.717,6.516
	c-3.276-9.525-3.38-18.455,0.118-27.73c4.434-11.758,13.467-18.482,24.033-23.908c13.545-6.955,28.104-5.486,42.356-5.732
	c0.221,0.58,0.362,0.85,0.326,0.876c-11.524,8.497-12.224,21.874-15.377,34.13c-5.108,19.846-9.545,39.893-15.451,59.496
	c-4.724,15.68-12.66,29.698-27.238,38.945c-5.435,3.447-9.807,8.61-15.32,11.885c-10.631,6.314-22.626,6.017-35.212,5.529
	C1008.51,169.025,1011.138,164.116,1014.001,158.768z"/>
<path fill-rule="evenodd" clip-rule="evenodd" d="M1889.937,463.428c-2.182,1.859-3.402,3.806-4.657,3.828
	c-12.525,0.228-25.057,0.138-37.436,0.138c2.354-3.333,4.785-7.134,10.442-7.221c1.229-0.019,3.114-2.729,3.508-4.469
	c3.299-14.607,6.364-29.27,9.415-43.933c4.61-22.157,9.149-44.329,13.731-66.491c0.263-1.272,0.819-2.505,0.938-3.783
	c0.427-4.634-2.093-6.646-6.43-5.047c-2.747,1.014-5.373,2.355-8.056,3.551c-1.766-4.227,0.676-6.353,3.769-8.242
	c6.752-4.125,13.432-8.372,20.242-12.396c1.344-0.795,4.197-1.551,4.541-1.059c1.105,1.582,2.059,3.855,1.801,5.684
	c-0.558,3.963-1.903,7.815-3.209,12.786c6.319-4.285,11.732-8.038,17.234-11.656c3.314-2.18,6.578-4.603,10.201-6.106
	c4.992-2.073,8.568-0.896,9.661,4.228c1.592,7.467,2.861,15.419,1.993,22.899c-1.419,12.23-3.018,25.109-10.08,35.404
	c-6.045,8.812-14.098,16.554-22.396,23.392c-4.52,3.724-11.604,2.779-17.498,1.196c-2.904-0.779-3.276,0.014-3.782,2.48
	c-3.074,14.987-6.293,29.946-9.525,44.9c-0.809,3.741-1.353,6.882,4.136,7.259C1881.798,460.998,1885.046,462.249,1889.937,463.428z
	 M1925.923,344.782c-0.018-9.242-3.946-12.288-11.544-9.228c-3.854,1.552-7.448,4.079-10.676,6.75
	c-2.926,2.422-6.495,5.244-7.502,8.578c-2.722,9.008-4.396,18.352-6.141,27.627c-0.716,3.807-1.933,8.414-0.499,11.551
	c3.395,7.431,15.471,8.741,21.388,2.608c2.614-2.71,4.205-6.514,5.877-10.005C1922.704,370.393,1924.463,357.122,1925.923,344.782z"
	/>
<path fill-rule="evenodd" clip-rule="evenodd" d="M1788.094,338.206c1.403-1.964,2.406-4.527,4.284-5.779
	c5.693-3.795,11.723-7.085,17.628-10.562c0.421-0.248,0.896-0.398,1.337-0.614c2.034-0.999,4.066-2.005,6.099-3.009
	c0.472,2.728,1.452,5.487,1.283,8.175c-0.194,3.102-1.401,6.141-2.36,9.975c9.108-6.051,17.303-11.513,25.518-16.945
	c4.245-2.808,10.164-1.056,11.528,4.214c1.501,5.799,3.062,12.128,2.214,17.875c-1.678,11.372-4.605,22.612-7.751,33.699
	c-2.758,9.721-9.162,17.171-17.175,23.256c-1.839,1.396-3.331,3.253-5.179,4.637c-7.088,5.308-14.881,4.554-23.085,2.132
	c-2.193,9.342-4.463,18.451-6.443,27.623c-1.686,7.803-2.887,15.71-4.621,23.499c-0.582,2.611-0.111,3.615,2.489,4.074
	c4.263,0.754,8.479,1.773,14.304,3.021c-2.915,1.837-4.559,3.756-6.244,3.792c-12.057,0.262-24.122,0.14-36.114,0.14
	c1.834-3.897,4.579-7.315,10.316-7.138c0.901,0.027,2.457-1.592,2.699-2.675c5.046-22.549,10.019-45.114,14.85-67.71
	c3.2-14.97,6.179-29.987,9.184-44.998c0.289-1.443,0.115-2.993,0.056-4.489c-0.172-4.255-1.869-5.403-5.926-3.916
	c-2.433,0.892-4.796,1.973-7.189,2.969C1789.228,339.036,1788.66,338.621,1788.094,338.206z M1842.919,345.77
	c0-1.496,0.06-2.996-0.011-4.488c-0.264-5.643-4.299-8.824-9.387-6.508c-4.608,2.099-8.64,5.479-12.896,8.336
	c-3.562,2.392-6.76,5.013-7.699,9.614c-1.883,9.229-4.056,18.398-5.871,27.64c-0.581,2.962-1.069,6.214-0.449,9.084
	c1.322,6.122,7.229,6.443,11.703,6.662c4.865,0.238,10.14-1.132,12.78-6.398C1838.026,375.875,1842.208,361.287,1842.919,345.77z"/>
<path fill-rule="evenodd" clip-rule="evenodd" d="M1379.505,318.834c1.569-6.816,3.099-12.945,4.374-19.126
	c1.583-7.673,4.146-14.725,10.28-20.104c3.3-2.894,6.076-6.389,9.395-9.26c9.135-7.905,12.487-8.722,24.547-6.472
	c-1.763,3.22-3.316,6.41-5.248,9.353c-0.517,0.786-2.221,1.217-3.325,1.128c-15.579-1.258-17.586,2.223-21.356,17.677
	c-5.898,24.182-10.259,48.738-15.312,73.127c-1.056,5.097-2.289,10.155-3.446,15.23c-0.036,0.158-0.187,0.294-0.208,0.45
	c-0.565,4-1.322,8.935,2.78,10.603c2.518,1.023,6.73-1.027,9.727-2.577c3.328-1.722,6.138-4.444,9.606-7.057
	c1.631,5.893-1.828,8.678-5.245,10.798c-9.542,5.922-19.342,11.43-29.963,17.642c-2.382-6.71-0.389-13.021-1.472-19.216
	c-7.38,5.091-14.694,10.136-22.006,15.184c-0.136,0.094-0.229,0.253-0.37,0.334c-8.544,4.932-9.577,4.388-12.11-5.232
	c-1.317-5.002-0.979-10.772-0.062-15.961c1.867-10.558,4.354-21.031,7.103-31.401c3.408-12.857,12.109-21.562,22.995-28.74
	C1366.177,321.263,1371.33,316.085,1379.505,318.834z M1376.824,333.381c-2.143-0.85-3.651-1.417-5.136-2.042
	c-6.143-2.589-12.592-0.764-16.184,4.992c-6.385,10.231-9.538,21.7-11.45,33.425c-1.104,6.771-3.596,13.556-0.782,20.712
	c1.381,3.511,3.585,4.449,5.986,2.687c6.258-4.593,12.107-9.746,18.045-14.765c0.497-0.42,0.458-1.502,0.622-2.286
	C1370.871,361.984,1373.81,347.862,1376.824,333.381z"/>
<path fill-rule="evenodd" clip-rule="evenodd" d="M722.271,395.05c10.081-4.644,19.175-8.832,28.414-13.088
	c1.034,3.148,2.066,6.507,3.238,9.816c3.289,9.285,13.623,11.161,19.983,3.509c8.677-10.438,5.38-19.293-3.969-26.739
	c-13.451-10.714-15.421-23.52-3.921-36.503c4.612-5.206,10.097-10.132,16.14-13.438c6.014-3.291,12.857-1.719,18.165,3.068
	c0.974,0.878,1.321,3.833,0.6,4.958c-2.372,3.699-5.368,6.997-8.128,10.454c-4.208-4.412-8.267-9.119-14.997-8.001
	c-5.713,0.949-8.616,5.892-8.473,10.644c0.129,4.253,2.754,8.882,5.447,12.466c2.241,2.981,6.172,4.699,9.37,6.954
	c6.751,4.759,7.805,11.718,6.697,19.041c-2.417,15.992-18.887,29.926-33.198,31.187c-7.771,0.685-13.212-3.01-16.689-9.825
	c-0.742-1.453-1.449-2.924-2.337-4.718c-6.247,3.53-12.39,7.257-18.779,10.499c-2.978,1.512-6.397,2.221-9.681,3.037
	c-2.765,0.688-3.739-1.18-4.216-3.52c-1.676-8.23-0.396-16.16,1.824-24.154c3.83-13.788,7.257-27.689,10.821-41.551
	c0.752-2.921-0.464-4.262-3.37-3.36c-4.169,1.292-8.255,2.853-12.363,4.293c-1.097-4.479,1.618-6.658,5.209-8.762
	c8.188-4.797,16.185-9.923,24.136-14.839c4.435,3.284,2.062,7.246,1.312,10.568c-4.302,19.047-9.085,37.986-13.291,57.054
	C719.615,386.825,721.259,390.042,722.271,395.05z"/>
<path fill-rule="evenodd" clip-rule="evenodd" d="M2319.597,61.079c-0.191,0.775-0.16,1.315-0.414,1.579
	c-8.348,8.641-8.487,20.444-11.777,30.987c-2.706,8.675-4.56,17.615-6.805,26.435c-0.16,0.631-0.678,1.264-0.605,1.845
	c0.289,2.364,0.742,4.709,1.136,7.062c2.119-0.494,4.404-0.638,6.326-1.548c6.008-2.845,11.879-5.979,17.912-9.056
	c1.393,4.349,0.475,7.222-3.456,9.616c-9.598,5.846-18.941,12.11-28.417,18.158c-1.37,0.874-2.867,1.584-4.375,2.198
	c-3.591,1.461-6.11-0.121-6.177-3.951c-0.09-5.214-0.022-10.431-0.022-16.095c-7.81,5.414-15.731,11.2-23.985,16.466
	c-2.804,1.79-7.828,4.119-9.398,2.943c-2.839-2.126-5.164-6.62-5.39-10.27c-1.04-16.767,3.172-32.745,8.841-48.388
	c6.325-17.452,20.68-26.448,36.751-31.988c6.439-2.22,14.798,0.982,22.255,1.937C2314.505,59.331,2316.927,60.331,2319.597,61.079z
	 M2299.076,69.958c-5.627-0.571-11.206-1.553-16.778-1.52c-2.645,0.016-6.735,1.262-7.664,3.17
	c-4.378,9.004-8.375,18.268-11.543,27.761c-2.193,6.573-3.276,13.628-3.93,20.556c-0.286,3.037,0.92,7.026,2.923,9.26
	c2.375,2.647,5.588,0.421,8.192-1.464c4.084-2.955,8.505-5.482,12.366-8.692c2.085-1.732,4.044-4.288,4.794-6.845
	C2291.408,98.649,2294.979,84.996,2299.076,69.958z"/>
<path fill-rule="evenodd" clip-rule="evenodd" d="M1197.978,56.189c-3.684,12.616-7.517,24.332-10.467,36.265
	c-2.693,10.894-4.535,22.006-6.487,33.067c-0.327,1.851,0.692,3.938,1.251,6.717c8.245-4.365,15.706-8.314,23.491-12.437
	c-0.053,3.779-0.622,6.725-4.317,8.889c-10.321,6.045-20.347,12.593-30.648,18.671c-3.354,1.978-5.72,0.432-5.835-3.431
	c-0.16-5.399-0.04-10.807-0.04-16.398c-5.74,3.712-11.811,7.681-17.926,11.579c-4.62,2.945-9.154,6.076-13.999,8.602
	c-3.254,1.697-5.724,0.816-7.665-3.119c-2.827-5.734-3.529-10.873-1.666-17.245c4.423-15.125,7.938-30.52,11.615-45.854
	c0.485-2.025-0.229-4.339-0.388-6.52c-1.989,0.308-4.112,0.279-5.938,1.001c-2.826,1.117-5.449,2.746-8.54,4.357
	c-1.275-4.009-0.356-7.233,3.378-9.286c9.271-5.096,18.628-10.036,29.371-15.801c0.272,3.905,1.146,6.797,0.54,9.333
	c-3.898,16.286-8.247,32.464-12.154,48.748c-1.062,4.423-1.408,9.081-1.536,13.646c-0.108,3.836,2.431,5.26,5.832,3.405
	c6.442-3.514,12.824-7.16,19.031-11.069c1.436-0.903,2.545-2.963,2.99-4.699c3.794-14.797,7.449-29.631,11.027-44.482
	c0.916-3.802,2.237-6.954,6.3-8.454C1189.302,60.157,1193.257,58.236,1197.978,56.189z"/>
<path fill-rule="evenodd" clip-rule="evenodd" d="M1046.54,323.033c-10.852,15.115-10.372,32.941-15.567,49.02
	c-1.045,3.234-1.492,6.658-2.351,9.96c-0.847,3.254-2.149,7.465,1.596,8.645c2.585,0.814,6.465-1.159,9.288-2.741
	c3.717-2.084,6.964-5.004,10.833-7.877c1.312,5.17,0.27,8.062-3.746,10.6c-8.954,5.66-17.535,11.909-26.297,17.877
	c-4.203,2.862-7.341,1.446-7.276-3.631c0.062-5.014,0.898-10.017,1.464-15.712c-4.025,3.046-7.772,5.957-11.6,8.758
	c-4.604,3.368-9.333,6.567-13.902,9.981c-4.535,3.39-9.203,0.643-9.869-4.884c-0.832-6.91-0.938-14.103,0.001-20.987
	c1.736-12.731,4.666-25.248,9.923-37.128c4.136-9.346,11.76-15.105,19.871-20.494c2.928-1.945,5.636-5.064,8.8-5.618
	c5.147-0.901,10.656-0.633,15.882,0.089C1037.788,319.47,1041.794,321.454,1046.54,323.033z M1027.588,332.591
	c-2.085-0.653-4.03-1.516-6.062-1.857c-9.922-1.667-13.563-2.39-18.948,7.628c-1.215,2.262-1.789,4.864-2.711,7.289
	c-4.855,12.765-8.036,25.879-7.91,39.617c0.059,6.515,3.82,8.862,9.15,5.324c4.682-3.108,8.829-7.08,12.95-10.949
	c1.575-1.48,2.985-3.593,3.511-5.662C1021.002,360.441,1024.173,346.834,1027.588,332.591z"/>
<path fill-rule="evenodd" clip-rule="evenodd" d="M1229.862,322.77c0,0.882,0.145,1.349-0.021,1.524
	c-6.902,7.336-7.374,17.129-9.769,26.112c-2.764,10.366-4.781,20.928-7.342,31.351c-0.812,3.302-2.325,7.498,1.271,8.711
	c2.65,0.895,6.711-1.103,9.662-2.7c3.735-2.021,6.982-4.943,10.508-7.527c3.012,7.508-2.559,9.876-6.454,12.68
	c-7.799,5.612-15.915,10.786-23.95,16.066c-3.55,2.333-6.804,0.667-6.741-3.815c0.071-5.171,0.899-10.332,1.447-16.003
	c-6.67,5.034-13.108,9.935-19.597,14.767c-1.956,1.457-4.058,2.719-6.082,4.084c-4.81,3.243-9.127,0.511-9.57-4.708
	c-0.765-9.013-0.594-18.357,0.975-27.247c1.793-10.165,5.265-20.075,8.512-29.929c3.388-10.279,11.751-16.229,20.399-21.769
	c2.961-1.897,5.639-5.1,8.795-5.633c5.15-0.869,10.65-0.496,15.883,0.227C1221.851,319.521,1225.73,321.414,1229.862,322.77z
	 M1211.601,332.673c-2.052-0.675-4.123-1.685-6.299-2.017c-9.423-1.44-13.403-2.491-18.527,7.526
	c-1.834,3.585-3.104,7.483-4.383,11.321c-3.837,11.52-6.573,23.269-6.448,35.504c0.07,6.787,3.79,9.125,9.353,5.436
	c4.546-3.016,8.656-6.791,12.548-10.645c1.849-1.831,3.312-4.483,3.967-7.017C1205.219,359.578,1208.312,346.292,1211.601,332.673z"
	/>
<path fill-rule="evenodd" clip-rule="evenodd" d="M1523.372,323.32c-9.387,9.81-8.894,22.424-12.297,33.627
	c-2.83,9.318-4.604,18.969-6.553,28.531c-0.328,1.607,0.403,3.87,1.465,5.148c0.585,0.703,3.158,0.484,4.354-0.182
	c4.486-2.498,8.766-5.369,13.145-8.062c1.216-0.747,2.512-1.365,3.957-2.144c1.04,4.03,0.503,6.871-2.934,9.205
	c-10.384,7.049-20.607,14.332-30.557,21.288c-5.644-2.211-3.884-6.399-3.947-9.722c-0.067-3.571,0.527-7.155,0.902-11.55
	c-7.201,5.277-13.939,10.22-20.684,15.154c-1.051,0.768-2.027,1.8-3.21,2.191c-2.634,0.872-6.405,2.818-7.837,1.769
	c-2.235-1.64-3.943-5.349-4.09-8.271c-1.04-20.655,3.362-40.413,12.082-59.01c3.926-8.373,12.185-13.073,19.85-17.904
	c2.012-1.269,4.033-2.541,5.922-3.979c5.437-4.136,11.197-0.969,16.674-0.465C1513.951,319.346,1518.119,321.57,1523.372,323.32z
	 M1466.696,383.402c1.969,3.121,3.146,7.017,5.658,8.297c1.829,0.933,5.806-1.039,8.134-2.69c3.933-2.79,7.399-6.267,10.886-9.638
	c1.121-1.084,2.069-2.648,2.447-4.155c3.115-12.447,5.86-24.992,9.202-37.376c1.237-4.585,0.158-6.418-4.386-7.146
	c-11.329-1.814-13.982-1.767-19.623,7.631c-1.392,2.318-2.25,5.041-2.933,7.687C1472.919,358.268,1469.903,370.564,1466.696,383.402
	z"/>
<path fill-rule="evenodd" clip-rule="evenodd" d="M1775.188,323.247c-9.655,11.276-9.197,25.327-13.136,37.885
	c-2.475,7.893-3.894,16.131-5.479,24.274c-0.317,1.627,0.245,4.05,1.354,5.123c0.821,0.795,3.483,0.539,4.806-0.191
	c4.355-2.404,8.464-5.252,12.688-7.896c1.208-0.756,2.49-1.395,3.969-2.215c1.269,4.265,0.303,7.121-3.189,9.485
	c-10.372,7.022-20.609,14.245-31.288,21.66c-5.647-7.301-1.869-14.539-2.137-21.76c-8.016,5.815-15.525,11.54-23.361,16.777
	c-2.334,1.56-6.723,3.285-8.151,2.223c-2.322-1.728-4.021-5.641-4.172-8.719c-0.997-20.484,3.404-40.072,12.049-58.521
	c3.933-8.392,12.176-13.076,19.795-17.963c2.001-1.284,4.095-2.474,5.908-3.991c5.066-4.237,10.602-1.043,15.736-0.699
	C1765.362,319.041,1769.999,321.544,1775.188,323.247z M1718.577,382.958c2.014,3.35,3.113,7.232,5.604,8.62
	c1.757,0.979,5.821-0.831,8.11-2.45c4.07-2.879,7.664-6.465,11.265-9.954c1.104-1.07,1.907-2.707,2.289-4.226
	c3.092-12.284,5.75-24.687,9.193-36.869c1.42-5.026,0.041-6.814-4.652-7.469c-10.263-1.432-13.28-2.1-18.719,6.692
	c-1.416,2.29-2.206,5.038-2.927,7.674C1725.32,357.485,1722.024,370.027,1718.577,382.958z"/>
<path fill-rule="evenodd" clip-rule="evenodd" d="M2668.341,379.94c1.412,4.826,0.054,7.69-3.386,9.979
	c-9.364,6.23-18.544,12.742-27.975,18.867c-3.966,2.576-6.042,1.266-6.013-3.508c0.031-5.066,0.431-10.131,0.692-15.699
	c-7.126,5.288-13.874,10.672-21.036,15.432c-3.047,2.025-7.436,4.461-10.369,3.649c-4.176-1.156-4.306-6.301-4.373-10.576
	c-0.314-19.81,3.66-38.81,12.365-56.465c2.742-5.562,8.539-9.812,13.476-14.036c3.869-3.31,8.736-5.421,12.852-8.48
	c5.11-3.799,10.32-0.573,15.329-0.343c4.607,0.212,9.105,2.773,14.131,4.46c-10.014,12.794-9.641,28.407-14.021,42.499
	c-1.976,6.354-3.143,12.976-4.355,19.534c-0.307,1.657,0.049,4.275,1.134,5.118c1.105,0.857,3.846,0.694,5.246-0.109
	C2657.458,387.152,2662.63,383.608,2668.341,379.94z M2607.524,383.275c2.182,3.27,3.553,7.601,6.124,8.498
	c2.273,0.795,6.153-1.84,8.831-3.679c3.158-2.17,5.91-4.992,8.596-7.767c1.525-1.576,3.194-3.458,3.725-5.483
	c3.206-12.253,5.775-24.682,9.257-36.852c1.482-5.182-0.277-6.738-4.756-7.405c-11.221-1.671-13.573-1.578-19.232,7.611
	c-1.24,2.014-1.761,4.515-2.39,6.852C2614.311,357.574,2611.013,370.117,2607.524,383.275z"/>
<path fill-rule="evenodd" clip-rule="evenodd" d="M544.521,390.24c-1.102,1.83-1.77,4.295-3.373,5.392
	c-14.985,10.247-31.362,16.793-49.791,14.61c-13.761-1.63-21.718-8.997-24.24-23.674c-3.932-22.876,0.706-44.52,11.93-64.885
	c7.657-13.894,18.535-24.551,32.315-31.835c11.786-6.23,24.533-9.079,37.866-4.438c1.073,0.373,2.205,0.669,3.177,1.23
	c7.626,4.404,8.342,6.672,5.006,14.828c-1.785,4.365-3.252,8.869-5.217,13.147c-0.861,1.875-2.611,3.341-4.659,5.855
	c-0.669-5.879-0.977-10.113-1.658-14.287c-1.714-10.494-12.552-16.71-22.024-14.23c-15.303,4.007-24.975,14.481-30.827,28.445
	c-3.936,9.389-7.476,19.163-9.424,29.11c-2.785,14.217-3.877,28.664,3.936,42.202c4.094,7.094,10.142,9.998,17.926,10.764
	c7.695,0.757,14.577-1.984,21.389-4.644c5.593-2.183,10.794-5.366,16.168-8.106C543.52,389.896,544.021,390.068,544.521,390.24z"/>
<path fill-rule="evenodd" clip-rule="evenodd" d="M1299.049,394.435c7.089-4.605,12.992-8.44,19.306-12.542
	c1.092,4.161,0.56,6.47-2.927,8.727c-8.485,5.495-16.521,11.679-24.818,17.471c-4.471,3.121-6.284,2.217-7.861-3.208
	c-2.492-8.571,1.059-16.448,2.756-24.485c2.854-13.511,6.18-26.921,9.157-40.406c0.227-1.028-0.424-2.671-1.233-3.375
	c-0.667-0.581-2.5-0.678-3.261-0.164c-7.427,5.004-15.293,9.577-21.825,15.586c-2.887,2.656-3.271,8.259-4.323,12.637
	c-2.851,11.86-5.334,23.812-8.286,35.646c-0.406,1.627-2.43,3.241-4.098,4.072c-2.837,1.414-5.986,2.2-9.838,3.54
	c1.545-6.499,2.82-12.115,4.218-17.7c3.868-15.451,7.804-30.887,11.665-46.34c0.471-1.882,0.928-3.84,0.901-5.756
	c-0.038-2.8-1.598-4.313-4.487-3.283c-3.634,1.296-7.178,2.842-10.761,4.28c-0.39-0.285-0.779-0.569-1.169-0.854
	c1.206-2.067,1.911-4.911,3.704-6.066c7.581-4.889,15.485-9.278,23.274-13.844c3.634-2.131,5.231-0.408,4.688,3.082
	c-0.945,6.071-2.444,12.057-3.909,19.021c3.138-1.854,5.822-3.332,8.396-4.981c8.447-5.415,16.801-10.979,25.329-16.261
	c1.381-0.855,4.664-1.271,5.016-0.677c1.216,2.057,2.362,4.78,2.012,7.012c-0.804,5.111-2.649,10.049-3.816,15.116
	c-3.357,14.575-6.776,29.142-9.704,43.805C1296.604,387.232,1298.218,390.41,1299.049,394.435z"/>
<path fill-rule="evenodd" clip-rule="evenodd" d="M1729.92,79.923c-0.043,15.722-4.029,30.54-12.29,43.743
	c-5.88,9.397-14.679,16.29-25.042,20.665c-4.113,1.737-8.455,3.153-12.831,4.002c-10.391,2.014-17.781-8.02-18.809-16.256
	c-2.704-21.697,2.805-41.101,16.792-57.945c8.609-10.369,19.909-16.351,33.18-17.579c14.339-1.328,17.643,7.148,18.974,18.375
	C1730.088,76.572,1729.92,78.257,1729.92,79.923z M1714.916,88.409c0-2.498,0.245-5.024-0.049-7.487
	c-0.675-5.643-2.282-11.017-8.119-13.392c-4.78-1.945-12.424,0.885-15.951,5.298c-12.351,15.449-17.261,33.093-14.764,52.591
	c1.211,9.456,8.782,14.529,18.019,9.773c3.786-1.949,7.365-5.276,9.723-8.846C1711.312,114.929,1715.155,102.214,1714.916,88.409z"
	/>
<path fill-rule="evenodd" clip-rule="evenodd" d="M1384.23,79.958c-0.496,16.101-4.545,31.261-13.509,44.452
	c-8.265,12.161-20.127,20.455-34.654,23.769c-11.199,2.555-18.431-4.387-21.003-14.749c-3.182-12.819-0.022-25.217,3.891-37.562
	c3.003-9.474,8.086-17.732,14.831-24.431c9.875-9.806,22.047-15.907,36.582-14.918c5.682,0.388,11.357,6.24,12.473,12.229
	C1383.529,72.443,1383.782,76.218,1384.23,79.958z M1368.919,88.178c0-2.327,0.241-4.685-0.045-6.976
	c-0.882-7.043-2.608-11.894-10.585-14.067c-4.089-1.114-10.186,1.859-14.039,6.343c-6.646,7.732-10.868,16.685-12.97,26.466
	c-1.879,8.748-3.529,17.629-1.414,26.735c1.535,6.612,6.628,11.033,13.279,9.592c3.752-0.812,7.92-2.655,10.512-5.364
	C1365.012,119.042,1367.957,103.905,1368.919,88.178z"/>
<path fill-rule="evenodd" clip-rule="evenodd" d="M842.608,120.326c0.842,8.924-6.681,10.461-11.429,13.879
	c-6.188,4.455-12.943,8.165-19.652,11.833c-2.18,1.192-4.98,1.249-7.094,1.733c-8.575-10.381-5.129-21.139-2.345-31.605
	c5.595-21.037,11.6-41.965,17.459-62.932c2.097-7.504,4.409-14.951,6.349-22.495c2.018-7.85,7.785-12.817,13.312-17.95
	c3.662-3.4,7.511-6.651,11.58-9.539c2.031-1.441,4.706-2.55,7.16-2.708c5.967-0.384,11.976-0.125,18.886-0.125
	c-2.821,4.119-5.164,7.831-7.854,11.273c-0.714,0.913-2.654,1.64-3.753,1.36c-11.987-3.051-21.064,3.02-24.369,14.514
	c-3.68,12.801-7.445,25.58-10.912,38.439c-4.778,17.728-9.317,35.52-13.926,53.292c-0.204,0.786-0.076,1.658-0.1,2.49
	c-0.251,8.878,2.618,10.697,10.644,6.692C831.802,125.864,837.002,123.178,842.608,120.326z"/>
<path fill-rule="evenodd" clip-rule="evenodd" d="M517.637,120.293c0.655,9.045-6.816,10.542-11.61,13.966
	c-6.077,4.339-12.658,8.016-19.228,11.601c-2.315,1.265-5.238,1.419-7.288,1.932c-10.064-12.424-3.939-24.598-0.934-36.436
	c5.756-22.673,12.633-45.066,18.181-67.786c3.669-15.025,10.41-27.35,23.874-35.498c1.39-0.841,2.991-1.726,3.822-3.021
	c2.708-4.219,6.726-4.726,11.147-4.654c5.157,0.083,10.317,0.02,15.641,0.02c-0.944,2.038-1.491,4.12-2.712,5.673
	c-2.956,3.764-4.813,8.074-11.854,6.641c-10.917-2.224-17.883,4.867-20.726,14.519c-4.867,16.519-9.416,33.132-13.999,49.732
	c-3.242,11.746-6.434,23.509-9.401,35.325c-0.949,3.78-1.462,7.751-1.548,11.648c-0.139,6.309,3.204,8.254,8.993,5.417
	C505.832,126.51,511.562,123.43,517.637,120.293z"/>
<path fill-rule="evenodd" clip-rule="evenodd" d="M1254.909,120.372c1.536,6.087-2.25,8.539-6.543,11.016
	c-7.195,4.151-14.107,8.793-21.295,12.961c-10.215,5.924-15.351,3.112-14.928-9.131c0.284-8.218,2.143-16.504,4.236-24.514
	c5.136-19.648,10.769-39.167,16.299-58.71c2.166-7.652,4.748-15.187,6.86-22.852c2.227-8.079,8.751-12.52,14.407-17.703
	c3.087-2.829,6.285-5.566,9.653-8.045c1.79-1.317,4.009-2.704,6.107-2.828c6.261-0.371,12.558-0.134,19.965-0.134
	c-3.072,4.454-5.466,8.242-8.241,11.726c-0.699,0.878-2.772,1.356-3.959,1.044c-13.979-3.675-21.187,4.318-24.234,14.148
	c-6.687,21.563-12.26,43.482-17.884,65.359c-2.628,10.219-4.809,20.609-6.255,31.053c-0.924,6.658,2.901,8.688,9.085,5.565
	C1243.842,126.47,1249.368,123.352,1254.909,120.372z"/>
<path fill-rule="evenodd" clip-rule="evenodd" d="M788.679,123.86c0.797,3.894,0,6.228-3.817,8.378
	c-11.178,6.295-22.179,12.815-34.876,15.656c-13.962,3.124-23.626-4.588-23.979-18.49c-0.422-16.637,3.294-32.481,11.959-46.786
	c7.16-11.818,17.288-20.461,30.741-24.42c5.406-1.592,11.248-2.562,16.162,1.699c6.029,5.228,5.469,14.828-1.307,22.357
	c-10.873,12.083-23.473,22.007-37.775,29.749c-4.834,2.617-6.383,7.36-4.735,14.616c1.223,5.383,4.97,8.547,10.135,8.813
	c9.511,0.49,17.798-3.572,26.28-6.912C781.22,127.042,784.92,125.427,788.679,123.86z M742.891,104.669
	c0.39,0.42,0.778,0.841,1.168,1.262c6.441-5.161,13.249-9.939,19.186-15.627c3.519-3.37,6.473-7.885,8.108-12.448
	c0.906-2.526-0.658-6.88-2.598-9.118c-1.094-1.262-5.611-0.671-7.858,0.492c-2.307,1.193-3.772,4.063-5.528,6.263
	C748.508,84.087,745.74,94.398,742.891,104.669z"/>
<path fill-rule="evenodd" clip-rule="evenodd" d="M2232.322,122.111c1.36,4.146,0.503,6.396-3.212,8.404
	c-9.031,4.881-17.75,10.347-26.559,15.636c-6.665,4.002-10.002,3.208-13.576-3.636c-3.246-6.214-3.326-12.544-1.529-19.4
	c3.832-14.614,6.998-29.402,10.572-44.704c-6.009,0-11.71,0-17.672,0c3.416-6.464,8.102-9.192,14.935-8.041
	c3.229,0.544,5.372-0.03,6.001-4.354c0.978-6.725,3.033-13.306,4.837-19.891c0.667-2.433,1.44-4.683,4.81-5.382
	c3.914-0.812,7.589-2.776,12.217-4.57c-2.817,11.65-5.496,22.729-8.268,34.188c9.356,0,18.311,0,27.358,0
	c-1.62,5.034-7.615,8.799-14.265,9.029c-3.828,0.133-7.674,0.201-11.492-0.03c-2.941-0.179-3.978,1.183-4.59,3.791
	c-2.491,10.605-5.227,21.153-7.653,31.773c-0.543,2.377-0.612,5.03-0.188,7.43c1.449,8.188,5.523,10.021,13.133,6.425
	C2222.143,126.433,2227.226,124.344,2232.322,122.111z"/>
<path fill-rule="evenodd" clip-rule="evenodd" d="M1868.703,70.234c9.383,0,18.335,0,28.655,0c-3.412,3.825-5.488,7.577-9.943,8.098
	c-5.715,0.669-11.496,0.836-17.256,1.045c-2.416,0.087-3.729,0.446-4.368,3.372c-2.288,10.478-5.451,20.773-7.465,31.295
	c-0.755,3.945,0.042,8.556,1.37,12.438c1.607,4.696,4.676,5.423,9.33,3.341c5.807-2.598,11.559-5.317,17.515-8.067
	c1.311,4.536-0.696,6.98-4.392,9.09c-8.63,4.928-17.121,10.104-25.581,15.322c-6.381,3.936-10.142,2.622-13.791-3.868
	c-3.726-6.627-3.02-13.134-1.352-19.951c3.511-14.357,6.921-28.74,10.506-43.667c-5.831,0-11.511,0-17.579,0
	c3.223-6.646,7.73-9.562,14.628-8.292c3.7,0.681,5.461-0.663,6.147-4.792c1.032-6.219,3.43-12.202,4.629-18.405
	c0.679-3.506,1.957-5.543,5.456-6.554c3.724-1.074,7.286-2.707,11.69-4.392C1874.126,47.757,1871.463,58.797,1868.703,70.234z"/>
<path fill-rule="evenodd" clip-rule="evenodd" d="M2256.576,384.72c1.066,3.888,0.112,6.555-3.054,8.66
	c-9.669,6.432-19.564,12.203-31.01,15.123c-13.791,3.519-22.317-3.684-22.501-17.8c-0.231-17.833,3.976-34.761,12.984-50.221
	c5.003-8.585,13.038-14.194,21.61-18.815c3.082-1.662,6.705-2.638,10.195-3.158c6.639-0.989,10.428,2.403,11.087,10.498
	c0.712,8.735-3.397,15.793-9.482,21.188c-9.365,8.302-19.38,15.885-29.306,23.53c-3.816,2.938-5.624,10.029-3.624,15.796
	c3.228,9.305,6.545,9.335,15.939,7.261c8.275-1.828,15.854-6.812,23.737-10.409C2254.192,385.898,2255.212,385.38,2256.576,384.72z
	 M2214.196,365.693c0.605,0.334,1.212,0.668,1.818,1.002c3.809-2.82,7.715-5.521,11.404-8.49
	c6.245-5.023,12.868-10.04,13.797-18.739c0.322-3.022-0.439-7.29-2.426-9.151c-2.669-2.501-6.849-1.162-9.049,1.937
	c-3.264,4.596-6.432,9.383-8.747,14.494C2218.234,352.837,2216.42,359.358,2214.196,365.693z"/>
<path fill-rule="evenodd" clip-rule="evenodd" d="M218.461,385.441c1.312,4.128-0.068,6.452-3.579,8.708
	c-10.053,6.462-20.178,12.733-32.138,14.811c-11.099,1.928-18.762-2.664-19.602-13.55c-1.529-19.812,2.24-38.805,13.159-55.829
	c4.799-7.482,11.584-13.016,19.44-17.039c3.572-1.83,7.53-3.658,11.427-3.944c8.252-0.605,13.2,6.486,11.452,14.636
	c-2.394,11.163-10.428,18.127-18.368,24.957c-7.031,6.048-14.875,11.145-22.25,16.806c-1.046,0.803-1.618,2.358-2.154,3.67
	c-2.417,5.92-0.613,11.876,2.75,16.143c3.291,4.174,9.556,3.711,14.354,1.901c8.094-3.054,15.841-7.025,23.739-10.603
	C217.255,385.852,217.851,385.668,218.461,385.441z M175.449,365.941c2.419,0.288,3.058,0.571,3.335,0.366
	c5.055-3.743,10.277-7.3,15.033-11.396c5.971-5.143,10.896-11.05,10.116-19.782c-0.362-4.057-2.725-6.413-6.484-5.516
	c-2.728,0.65-6.134,2.533-7.325,4.851C184.972,344.492,180.523,354.88,175.449,365.941z"/>
<path fill-rule="evenodd" clip-rule="evenodd" d="M2586.773,386.428c1.015,3.322-0.548,5.609-4.005,7.819
	c-10.067,6.433-20.203,12.743-32.166,14.753c-11.082,1.861-18.639-2.772-19.476-13.74c-1.499-19.652,2.274-38.487,12.957-55.413
	c4.736-7.505,11.495-13.113,19.354-17.146c3.712-1.904,7.82-3.194,11.886-4.221c7.933-2.004,13.018,7.735,11.333,13.385
	c-1.717,5.761-4.175,12.133-8.32,16.171c-9.61,9.361-20.478,17.426-30.725,26.146c-1.736,1.479-3.527,3.395-4.248,5.471
	c-2.045,5.898,1.705,15.949,6.596,17.083c3.533,0.819,7.73,0.973,11.106-0.152C2569.71,393.702,2578.06,389.939,2586.773,386.428z
	 M2543.403,366.054c2.537,0.203,3.179,0.462,3.469,0.247c4.926-3.647,10.028-7.1,14.645-11.108
	c5.915-5.136,11.073-10.88,10.43-19.653c-0.329-4.48-4.137-7.633-8.071-5.918c-2.26,0.985-4.782,2.788-5.827,4.897
	C2553.048,344.61,2548.511,354.93,2543.403,366.054z"/>
<path fill-rule="evenodd" clip-rule="evenodd" d="M2392.491,77.03c-9.673-4.794-18.605-5.739-26.65,1.111
	c-2.223,1.893-3.902,5.055-4.651,7.941c-4.575,17.637-8.822,35.358-13.132,53.062c-0.306,1.255-0.23,2.603-0.332,3.91
	c-5.445,1.921-10.706,3.777-16.582,5.851c4.503-17.27,8.824-33.688,13.053-50.132c1.661-6.457,3.215-12.946,4.631-19.462
	c0.947-4.36-1.409-6.431-5.559-4.956c-3.646,1.296-7.2,2.854-10.873,4.328c-1.296-4.4-0.808-7.609,4.339-9.816
	c8.231-3.53,16.052-8.007,24.151-11.86c3.228-1.536,6.215,1.353,5.675,5.194c-0.181,1.286-0.393,2.572-0.683,3.838
	c-0.283,1.232-0.685,2.438-1.246,4.396c10.545-6.852,18.577-18.746,33.522-12.247C2396.317,64.299,2394.506,70.327,2392.491,77.03z"
	/>
<path fill-rule="evenodd" clip-rule="evenodd" d="M1103.553,337.397c-3.81-5.651-10.696-9.511-14.657-8.489
	c-5.562,1.433-8.667,5.903-8.564,10.676c0.092,4.264,2.559,9.033,5.313,12.525c2.731,3.463,7.154,5.578,10.794,8.339
	c6.184,4.69,6.375,11.513,5.348,18.059c-2.592,16.524-20.806,31.09-34.936,30.91c-7.711-0.098-15.866-7.027-16.878-14.604
	c-0.806-6.036,4.264-8.271,7.885-11.335c0.964-0.815,2.351-1.132,3.732-1.765c1.119,3.383,2.158,6.728,3.329,10.025
	c3.299,9.301,13.626,11.243,19.969,3.599c8.652-10.429,5.52-19.196-3.884-26.766c-13.827-11.131-15.288-22.399-3.856-36.944
	c4.564-5.807,9.705-11.048,16.704-13.484c6.355-2.212,12.708-1.037,17.762,3.77c0.882,0.839,1.11,3.587,0.413,4.644
	C1109.603,330.224,1106.64,333.538,1103.553,337.397z"/>
<path fill-rule="evenodd" clip-rule="evenodd" d="M895.563,123.699c0.961,4.288,0.183,6.561-3.62,8.429
	c-8.746,4.299-16.87,9.904-25.724,13.934c-7.13,3.245-10.458,2.18-11.618-6.256c-1.538-11.185,2.51-20.854,5.239-30.962
	c2.712-10.038,5.906-19.946,8.805-29.936c0.354-1.216,0.186-2.583,0.352-5.518c-6.299,2.046-11.836,3.843-17.635,5.726
	c-1.591-3.736,0.563-6.851,3.299-8.484c8.257-4.933,16.839-9.332,25.412-13.707c1.48-0.756,4.62-1.11,5.109-0.383
	c1.133,1.682,1.907,4.34,1.431,6.254c-4.199,16.868-8.743,33.65-13.091,50.482c-0.972,3.764-1.753,7.598-2.3,11.445
	c-0.681,4.786,3.64,7.142,8.936,5.039C885.288,127.725,890.431,125.718,895.563,123.699z"/>
<path fill-rule="evenodd" clip-rule="evenodd" d="M2674.8,409.529c1.485-6.481,2.796-12.446,4.223-18.382
	c3.57-14.853,7.224-29.686,10.766-44.545c0.562-2.364,0.946-4.818,1.014-7.242c0.098-3.53-2.088-4.77-5.178-3.731
	c-3.533,1.187-6.9,2.865-10.354,4.336c-1.105-4.041-0.152-6.623,3.836-8.717c8.017-4.209,15.688-9.076,23.523-13.686
	c3.275,2.119,3.275,2.119,2.096,15.041c4.49-3.652,9.232-6.712,12.941-10.727c4.803-5.199,9.965-5.174,16.746-2.809
	c-1.67,6.348-3.332,12.661-5.169,19.643c-8.342-5.195-16.17-5.206-23.749-0.137c-1.148,0.768-2.225,2.236-2.536,3.568
	c-4.415,18.831-8.889,37.652-12.86,56.579c-0.973,4.634-2.773,7.323-7.338,8.339C2680.277,407.612,2677.882,408.557,2674.8,409.529z
	"/>
<path fill-rule="evenodd" clip-rule="evenodd" d="M644.8,409.484c3.243-13.725,6.355-26.655,9.342-39.615
	c2.298-9.967,4.483-19.96,6.62-29.963c0.688-3.228-1.756-5.396-5.085-4.297c-3.537,1.168-6.898,2.873-10.346,4.348
	c-1.465-4.397,0.272-6.814,4.164-8.909c7.109-3.826,13.867-8.299,20.846-12.376c3.144-1.837,5.5-0.634,5.488,2.99
	c-0.01,3.518-0.73,7.032-1.194,11.023c4.548-3.701,9.296-6.751,12.985-10.773c4.791-5.223,9.96-5.2,16.786-2.853
	c-1.659,6.316-3.316,12.626-5.158,19.636c-8.3-5.122-16.125-5.216-23.7-0.141c-1.152,0.772-2.271,2.209-2.581,3.531
	c-4.417,18.83-8.93,37.645-12.843,56.582c-1.018,4.927-3.209,7.45-7.751,8.591C650.046,407.843,647.763,408.606,644.8,409.484z"/>
<path fill-rule="evenodd" clip-rule="evenodd" d="M288.331,409.374c4.119-17.373,8.169-34.119,12.027-50.909
	c1.422-6.188,2.563-12.455,3.498-18.736c0.575-3.868-1.347-5.183-5.088-3.744c-3.022,1.161-6.101,2.174-9.199,3.269
	c-2.236-3.823-0.588-6.136,2.937-7.954c3.184-1.644,6.275-3.48,9.333-5.353c3.966-2.428,7.773-5.122,11.809-7.424
	c3.303-1.885,5.239-0.685,5.235,3.12c-0.005,3.507-0.322,7.014-0.528,11.05c5.062-4.221,9.703-8.273,14.562-12.043
	c1.825-1.415,4.075-2.815,6.28-3.109c7.145-0.952,8.973,1.314,7.083,8.101c-1.133,4.066-2.332,8.114-3.577,12.432
	c-1.414-0.462-2.824-0.688-3.993-1.344c-7.263-4.079-13.876-1.44-20.322,2.006c-1.115,0.597-2.085,2.175-2.389,3.472
	c-3.31,14.098-6.498,28.224-9.661,42.355c-1.21,5.401-2.573,10.798-3.277,16.272c-0.407,3.171-2.025,4.52-4.63,5.365
	C295.218,407.243,291.986,408.228,288.331,409.374z"/>
<path fill-rule="evenodd" clip-rule="evenodd" d="M229.448,339.426c-1.466-3.771-0.937-6.177,2.662-7.815
	c3.245-1.478,6.259-3.482,9.306-5.366c4.097-2.532,8.044-5.316,12.215-7.716c3.293-1.895,5.255-0.688,5.25,3.095
	c-0.004,3.514-0.326,7.026-0.535,11.068c5.061-4.212,9.685-8.287,14.573-12.015c1.945-1.483,4.407-2.893,6.756-3.13
	c7.098-0.716,8.527,1.233,6.611,8.076c-1.174,4.193-2.433,8.362-3.764,12.922c-7.883-4.847-15.623-5.117-23.194-0.151
	c-1.369,0.898-2.949,2.344-3.291,3.804c-3.196,13.629-6.139,27.317-9.163,40.987c-1.3,5.874-2.924,11.699-3.806,17.635
	c-0.466,3.14-1.988,4.535-4.623,5.375c-3.222,1.026-6.452,2.026-10.09,3.166c3.291-13.979,6.523-27.684,9.742-41.392
	c1.934-8.235,3.982-16.448,5.725-24.725c1.524-7.242-0.508-8.97-7.386-6.601C234.143,337.434,231.921,338.434,229.448,339.426z"/>
<path fill-rule="evenodd" clip-rule="evenodd" d="M2304.572,14.922c12.037-0.914,13.902,9.058,12.059,18.525
	c-2.609,13.396-15.271,18.373-26.589,15.88c-3.654-0.805-7.64-8.807-7.075-13.623c1.033-8.813,4.724-15.833,13.524-19.052
	C2299.054,15.715,2301.871,15.48,2304.572,14.922z M2310.023,31.125c-1.771-3.121-2.918-7.053-5.539-9.067
	c-1.638-1.259-5.875-0.364-8.276,0.867c-4.518,2.317-6.352,13.296-2.81,17.229c1.673,1.857,4.997,3.189,7.523,3.113
	C2306.014,43.113,2308.943,38.333,2310.023,31.125z"/>
<path fill-rule="evenodd" clip-rule="evenodd" d="M889.415,16.547c2.315,3.857,4.737,7.186,6.334,10.87
	c0.717,1.654,0.574,4.936-0.543,5.901c-3.748,3.241-8.11,5.772-12.86,8.999c-2.286-4.188-4.193-7.7-6.119-11.202
	c-1.855-3.372-0.619-5.753,2.363-7.638C882.148,21.229,885.683,18.94,889.415,16.547z"/>
<path fill-rule="evenodd" clip-rule="evenodd" d="M743.718,292.71c-4.114,3.555-8.305,7.174-12.93,11.169
	c-2.096-4.131-4.263-7.826-5.811-11.765c-0.534-1.361-0.121-3.955,0.882-4.901c3.254-3.07,6.982-5.638,10.734-8.56
	C739.231,283.858,741.467,288.27,743.718,292.71z"/>
</svg>
