<?xml version="1.0" encoding="utf-8"?>
<!-- Generator: Adobe Illustrator 16.0.0, SVG Export Plug-In . SVG Version: 6.00 Build 0)  -->
<!DOCTYPE svg PUBLIC "-//W3C//DTD SVG 1.1//EN" "http://www.w3.org/Graphics/SVG/1.1/DTD/svg11.dtd">
<svg version="1.1" id="Lag_1" xmlns="http://www.w3.org/2000/svg" xmlns:xlink="http://www.w3.org/1999/xlink" x="0px" y="0px"
	 width="2582.472px" height="621.825px" viewBox="0 0 2582.472 621.825" enable-background="new 0 0 2582.472 621.825"
	 xml:space="preserve">
<path fill-rule="evenodd" clip-rule="evenodd" d="M721.567,76.345c6.867-0.916,13.63-1.973,20.428-2.685
	c8.014-0.84,16.083-1.188,24.071-2.198c1.773-0.224,3.923-1.972,4.86-3.611c8.663-15.161,19.812-28.306,32.583-40.05
	c12.217-11.234,26.267-19.7,42.903-21.932C858.557,4.241,871.3,8.47,870.196,25.46c-0.509,7.836-4.041,14.112-8.504,19.946
	c-12.788,16.72-30.639,26.349-49.603,34.091c-13.921,5.683-28.407,9.486-43.409,11.19c-3.182,0.361-5.502,1.835-6.764,5.345
	c-6.98,19.424-9.368,38.993-0.667,58.363c5.959,13.267,17.997,23.04,34.6,23.324c20.376,0.35,33.802-10.415,44.222-26.294
	c6.582-10.028,10.746-20.933,10.058-33.248c-0.051-0.924,0.215-2.015,0.71-2.786c0.859-1.338,2.014-2.487,3.044-3.715
	c0.734,1.439,1.97,2.827,2.124,4.326c1.062,10.373-1.276,20.353-5.106,29.784c-7.705,18.972-20.595,33.08-40.856,38.805
	c-17.845,5.042-34.628,2.587-48.619-10.335c-7.361-6.799-11.399-15.955-13.258-25.74c-3.489-18.373,0.019-35.839,7.842-52.598
	c0.399-0.855,0.67-1.771,1.29-3.436c-6.713,0.422-12.894,0.71-19.055,1.226c-6.211,0.519-12.391,1.481-18.607,1.843
	c-5.352,0.312-9.656,1.191-12.78,6.593c-9.822,16.987-22.93,31.435-37.451,44.45c-10.829,9.704-22.579,18.576-37.347,21.354
	c-5.339,1.005-11.301,0.867-16.578-0.407c-11.791-2.851-14.744-17.551-9.596-29.373c5.144-11.81,14.181-20.142,24.175-27.473
	c23.695-17.382,50.48-27.715,79.244-32.809c4.896-0.866,6.432-3.261,7.831-7.025c2.772-7.464,5.688-14.874,8.477-22.332
	c0.383-1.025,0.37-2.199,0.562-3.44c-6.537,2.141-10.264,10.63-18.28,7.78c-7.654-2.721-15.771-5.015-21.594-12.945
	c3.063-1.247,5.459-2.758,8.034-3.182c15.208-2.505,25.603-11.485,33.291-24.214c1.939-3.211,3.697-6.536,5.437-9.861
	c1.223-2.337,2.569-3.388,5.4-2.134c3.911,1.732,6.626,3.712,7.923,8.402c2.42,8.757,1.451,15.914-5.866,21.895
	c-1.778,1.453-3.127,3.766-3.986,5.953c-4.926,12.549-9.646,25.178-14.429,37.783C721.891,75.131,721.753,75.724,721.567,76.345z
	 M703.275,97.963c-0.351-0.587-0.701-1.173-1.052-1.759c-6.654,0.807-13.365,1.301-19.953,2.481
	c-16.461,2.95-32.267,8.001-46.446,17.06c-11.99,7.66-23.022,16.27-26.123,31.538c-1.46,7.189,3.203,14.714,10.425,15.284
	c7.117,0.562,13.877-0.423,20.517-3.705c15.125-7.477,27.841-17.791,38.455-30.774C687.247,118.119,695.223,108.01,703.275,97.963z
	 M776.781,69.141c0.229,0.375,0.457,0.75,0.686,1.126c5.635-0.882,11.289-1.65,16.899-2.666
	c16.419-2.971,32.368-7.453,46.995-15.728c8.304-4.697,15.942-10.24,19.775-19.51c2.263-5.473,3.571-11.252-0.434-16.287
	c-3.415-4.293-8.681-5.152-13.909-4.387c-9.165,1.343-17.449,5.16-25.243,10.006c-11.269,7.006-20.973,15.847-29.18,26.231
	C786.934,54.808,781.961,62.057,776.781,69.141z"/>
<path fill-rule="evenodd" clip-rule="evenodd" d="M1350.829,63.906c-0.913-2.918-2.883-5.966-2.543-8.729
	c1.028-8.364,2.27-16.824,4.687-24.869c3.722-12.389,13.613-17.694,25.707-19.693c23.674-3.913,47.564-3.394,71.379-2.771
	c10.637,0.278,21.616,0.864,31.555,5.952c4.357,2.231,6.42,5.368,6.59,10.542c0.582,17.623-4.72,34.006-10.703,50.065
	c-4.941,13.265-11.267,26.041-17.433,38.813c-3.452,7.148-7.829,13.851-11.32,21.861c6.479-3.025,13.231-5.59,19.363-9.205
	c6.305-3.718,11.966-8.517,18.004-12.704c1.025-0.711,2.53-0.729,3.814-1.067c-0.221,1.607,0.16,3.981-0.757,4.698
	c-6.553,5.13-12.999,10.584-20.209,14.633c-7.035,3.951-15.068,6.085-22.385,9.597c-2.369,1.137-4.193,3.896-5.695,6.273
	c-10.265,16.238-20.37,32.594-34.723,45.7c-6.148,5.614-12.814,10.107-21.818,9.679c-7.718-0.368-11.928-4.363-12.266-12.276
	c-0.461-10.78,2.594-20.865,7.342-30.19c5.616-11.028,12.446-21.438,18.632-32.183c0.649-1.128,1.122-2.995,0.639-4.041
	c-5.628-12.181-0.558-22.732,5.507-32.67c3.16-5.178,8.087-9.337,12.49-13.677c3.306-3.257,7.742-3.545,12.068-2.935
	c4.733,0.668,7.219,6.047,4.636,11.929c-3.261,7.424-7.613,14.361-11.353,21.583c-2.656,5.128-5.534,10.252-4.014,16.444
	c1.574,6.415,6.797,10.225,13.215,11.086c6.877,0.922,10.133-2.278,13.285-7.812c12.273-21.544,21.616-44.21,27.016-68.398
	c1.775-7.954,2.821-16.135,3.425-24.27c0.556-7.496-3.712-11.896-11.21-11.548c-12.985,0.604-25.958,1.675-38.903,2.895
	c-11.583,1.091-23.218,2.118-34.647,4.184c-7.731,1.397-15.437,3.893-22.623,7.09c-7.484,3.33-9.913,10.767-11.559,18.35
	c-0.574,2.65-1.889,5.141-2.865,7.704C1352.381,63.933,1351.605,63.919,1350.829,63.906z M1401.191,131.001
	c-5.291,10.137-11.205,20.494-16.141,31.299c-2.801,6.132-4.298,12.927-5.817,19.553c-1.114,4.855,2.691,8.6,7.825,8.792
	c7.109,0.267,12.147-3.912,16.641-8.338c6.575-6.477,12.748-13.413,18.596-20.561c5.008-6.122,9.317-12.816,13.913-19.225
	c-6.353-1.187-12.422-1.706-18.062-3.546C1412.574,137.159,1407.438,134.009,1401.191,131.001z"/>
<path fill-rule="evenodd" clip-rule="evenodd" d="M1205.567,516.88c4.859,6.665,8.739,12.049,12.688,17.382
	c3.015,4.071,6.048,8.131,9.202,12.094c2.232,2.807,5.259,4.55,8.669,2.643c6.219-3.479,12.152-7.463,18.269-11.131
	c1.721-1.032,3.663-1.694,5.503-2.525c0.324,0.464,0.648,0.928,0.973,1.392c-0.642,1.173-1.001,2.701-1.967,3.463
	c-9.119,7.196-17.864,15.023-27.662,21.159c-10.878,6.812-14.177,3.034-20.958-5.58c-5.012-6.366-8.723-13.752-13.077-20.643
	c-1.036-1.64-2.329-3.115-4.148-5.516c-2.247,3.769-4.043,6.937-5.988,10.009c-3.312,5.23-6.543,10.527-10.153,15.548
	c-2.021,2.812-4.891,5.299-8.746,3.92c-4.233-1.514-5.911-5.336-7.091-9.411c-2.779-9.597,1.354-18.037,4.84-26.346
	c9.5-22.65,21.253-44.162,35.229-64.349c5.536-7.997,12.331-15.133,18.687-22.548c2.165-2.525,5.541-4.428,8.154-1.956
	c1.632,1.543,2.075,5.449,1.551,7.984c-3.006,14.529-11.628,25.95-20.822,37.177c-10.779,13.163-21.032,26.765-31.271,40.359
	c-3.161,4.198-2.513,10.752,0.806,15.055c1.805,2.34,3.949,2.375,5.73-0.05c6.763-9.205,13.104-18.746,20.275-27.619
	c6.26-7.744,13.392-15.116,24.744-13.59c2.612,0.351,6.05,2.471,7.05,4.7c1.014,2.259,0.345,6.229-1.111,8.449
	c-3.601,5.492-10.021,6.319-15.912,7.623C1215.104,515.441,1211.102,515.947,1205.567,516.88z"/>
<path fill-rule="evenodd" clip-rule="evenodd" d="M2218.086,530.916c-4.757,4.822-9.346,10.12-14.609,14.632
	c-5.56,4.767-11.439,9.342-17.761,12.992c-8.735,5.044-15.798,3.875-21.723-1.378c-5.75-5.098-6.29-15.056-2.744-22.865
	c3.417-7.522,9.127-13.138,16.093-17.397c11.326-6.927,23.251-12.074,36.959-11.279c1.158,0.067,2.596-0.234,3.409,0.338
	c1.314,0.924,2.218,2.432,3.296,3.692c-1.344,0.655-2.755,1.99-4.019,1.862c-13.505-1.368-24.032,4.632-32.812,13.85
	c-2.889,3.033-5.1,7.827-5.384,11.969c-0.448,6.548,5.267,9.473,11.192,7.525c6.023-1.979,11.602-5.826,16.828-9.611
	c12.183-8.822,19.459-20.9,24.527-35.155c7.624-21.438,19.17-41.04,32.43-59.552c1.532-2.139,3.571-3.991,5.648-5.628
	c1.018-0.802,2.944-1.434,3.945-0.987c0.93,0.414,1.527,2.325,1.67,3.642c1.765,16.271-4.786,29.766-14.5,42.058
	c-7.322,9.266-15.244,18.071-22.301,27.527c-6.049,8.104-8.978,17.254-6.193,27.643c2.254,8.407,11.648,14.416,19.837,11.276
	c5.835-2.238,11.099-6.021,16.499-9.308c2.482-1.511,4.682-3.488,7.009-5.254c0.523,0.229,1.047,0.46,1.569,0.689
	c-0.423,1.756-0.246,4.266-1.361,5.152c-11.186,8.897-21.004,19.921-35.539,23.796c-10.086,2.688-21.479-3.695-21.933-14.93
	C2217.921,541.292,2218.086,536.354,2218.086,530.916z"/>
<path fill-rule="evenodd" clip-rule="evenodd" d="M21.077,542.259c6.768-6.093,12.722-11.517,18.747-16.86
	c7.964-7.063,15.802-14.261,26.176-17.892c4.14-1.449,7.905-1.217,10.944,1.648c3.074,2.899,2.836,6.927,1.462,10.619
	c-1.928,5.181-4.279,10.203-6.256,15.367c-0.438,1.145-0.067,2.6-0.069,3.911c1.094-0.37,2.403-0.473,3.249-1.152
	c7.287-5.855,14.439-11.878,21.74-17.716c3.437-2.747,6.929-5.509,10.716-7.716c6.974-4.064,11.935-2.198,14.318,5.452
	c1.976,6.343,3.41,12.86,4.956,19.332c2.12,8.873,6.042,10.551,13.487,5.32c4.682-3.29,8.997-7.1,13.646-10.439
	c1.027-0.737,2.77-0.479,4.184-0.68c-0.214,1.315,0.049,3.101-0.714,3.875c-9.469,9.615-18.372,19.969-31.201,25.464
	c-6.347,2.718-11.273,0.625-13.244-6.339c-2.388-8.44-3.969-17.106-6.22-25.59c-0.583-2.198-2.081-5.437-3.663-5.765
	c-2.014-0.418-4.941,1.161-6.782,2.705c-12.101,10.151-23.946,20.606-36.062,30.738c-1.835,1.534-4.741,2.843-6.98,2.61
	c-4.165-0.433-5.797-5.204-3.603-9.827c2.38-5.014,5.137-9.848,7.71-14.771c0.834-1.596,2.054-3.156,2.311-4.852
	c0.418-2.765,0.191-5.628,0.237-8.449c-3.112,0.389-6.876-0.203-9.213,1.351c-6.66,4.431-12.996,9.444-18.982,14.767
	c-7.805,6.938-15.02,14.538-22.81,21.493c-1.488,1.328-4.731,1.776-6.666,1.132c-1.267-0.421-2.194-3.508-2.31-5.457
	c-0.53-8.938-0.175-18.045,4.521-25.824c6.282-10.406,14.749-18.956,26-24.196c1.106-0.516,3.145-0.129,4.148,0.633
	c0.637,0.483,0.688,2.791,0.096,3.671c-3.556,5.283-7.51,10.3-11.066,15.582C20.496,529.439,18.962,534.946,21.077,542.259z"/>
<path fill-rule="evenodd" clip-rule="evenodd" d="M606.876,506.977c-2.246,3.031-4.47,6.079-6.743,9.089
	c-3.451,4.567-7.163,8.953-7.07,15.218c0.128,8.524,7.04,14.079,14.954,10.642c9.179-3.986,17.852-9.221,26.483-14.351
	c5.837-3.468,11.224-7.69,16.812-11.576c0.632,0.182,1.264,0.362,1.896,0.544c0.158,2.983,1.121,6.205,0.323,8.907
	c-2.338,7.913-5.384,15.617-8.123,23.413c-0.146,0.415-0.019,0.926-0.019,1.249c9.021-5.206,14.492-15.353,24.761-18.87
	c0.439,0.43,0.878,0.859,1.317,1.289c-1.029,1.433-1.825,3.136-3.124,4.255c-8.84,7.61-18.018,14.847-26.602,22.73
	c-4.371,4.015-8.349,8.75-11.435,13.812c-6.53,10.712-13.918,20.647-22.857,29.442c-4.441,4.369-8.691,8.941-13.273,13.155
	c-2.377,2.187-5.096,4.235-8.027,5.493c-1.688,0.725-4.766,0.471-6.016-0.665c-1.299-1.181-2.067-4.296-1.449-5.965
	c1.444-3.899,3.197-8.072,6.004-11.005c8.415-8.792,17.662-16.786,26.071-25.582c6.983-7.306,16.532-12.714,19.4-23.264
	c1.044-3.837,0.999-8.233,0.338-12.188c-0.569-3.399-3.049-5.293-6.978-2.959c-7.853,4.666-15.774,9.223-23.787,13.605
	c-3.103,1.696-6.416,3.413-9.832,4.039c-6.14,1.125-11.822-1.593-12.704-8.947c-0.554-4.615-1.282-9.774,0.205-13.924
	c1.785-4.982,5.414-9.534,9.025-13.574c4.501-5.035,9.737-9.427,14.802-13.934c1.056-0.939,2.748-1.163,4.146-1.717
	C605.876,505.885,606.376,506.431,606.876,506.977z"/>
<path fill-rule="evenodd" clip-rule="evenodd" d="M942.308,150.874c9.623-6.07,15.234-16.428,25.89-19.646
	c0.486,0.591,0.974,1.182,1.46,1.772c-3.37,3.158-6.617,6.462-10.136,9.445c-7.129,6.045-15.185,11.208-21.417,18.047
	c-7.106,7.798-12.597,17.061-18.87,25.626c-9.113,12.442-19.657,23.549-31.54,33.38c-0.502,0.415-1.042,0.808-1.619,1.104
	c-2.956,1.52-6.554,2.99-8.826,0.179c-1.303-1.612-1.198-5.619-0.097-7.672c2.818-5.251,5.896-10.661,10.044-14.842
	c10.963-11.047,22.751-21.273,33.761-32.277c3.21-3.208,5.354-7.745,7.132-12.027c1.133-2.729,1.262-6.192,0.835-9.183
	c-0.84-5.889-3.379-7.013-8.67-4.16c-8.762,4.725-17.394,9.69-26.143,14.44c-1.982,1.077-4.159,2.161-6.347,2.435
	c-8.075,1.009-12.243-1.818-13.627-12.14c-1.191-8.887,1.3-16.495,8.24-22.633c4.734-4.187,8.996-8.908,13.489-13.37
	c0.938-0.932,1.832-2.132,2.987-2.564c1.345-0.504,2.955-0.301,4.45-0.404c-0.275,1.44-0.124,3.189-0.902,4.266
	c-2.689,3.716-6.035,6.982-8.496,10.827c-2.398,3.748-4.083,7.662-3.103,12.734c1.498,7.751,9.69,9.631,15.411,7.819
	c11.559-3.661,21.008-10.962,30.738-17.779c2.676-1.875,5.259-3.913,8.078-5.541c1.493-0.862,4.638-1.771,4.907-1.338
	c1.132,1.823,2.379,4.375,1.912,6.242c-1.494,5.975-3.675,11.783-5.708,17.614C945.087,144.253,943.782,147.19,942.308,150.874z"/>
<path fill-rule="evenodd" clip-rule="evenodd" d="M1587.481,533.798c-11.413,11.491-24.045,20.32-38.905,25.769
	c-1.798,0.66-3.808,0.793-5.736,1.038c-8.799,1.119-11.866-7.204-8.688-14.048c2.114-4.552,4.822-8.827,6.949-13.374
	c0.522-1.116-0.184-2.808-0.325-4.235c-1.28,0.438-2.776,0.587-3.807,1.358c-11.119,8.332-21.993,17.005-33.323,25.034
	c-4.018,2.848-8.922,5.077-13.731,6.045c-10.36,2.084-19.027-6.415-15.291-18.788c2.969-9.829,10.436-16.089,18.256-21.907
	c9.514-7.078,20.396-10.793,32.097-11.955c2.845-0.282,5.81,0.924,8.734,1.035c1.104,0.041,2.364-0.942,3.335-1.727
	c0.558-0.45,0.708-1.429,0.991-2.188c1.342-3.605,3.559-6.16,7.729-4.854c4.34,1.36,4.757,5.062,4.169,8.884
	c-0.317,2.064-1.378,4.041-1.517,6.097c-0.099,1.464,0.309,3.762,1.3,4.373c7.181,4.428,7.474,11.361,7.388,18.579
	c-0.063,5.43,1.384,6.703,6.288,4.458c5.741-2.628,11.151-6.001,16.609-9.216C1583.609,532.05,1584.799,531.776,1587.481,533.798z
	 M1536.065,521.9c0.087-6.019-1.972-8.328-6.454-8.228c-3.425,0.076-7.01,0.088-10.226,1.087
	c-10.374,3.222-18.995,8.952-22.512,19.805c-0.795,2.453,0.209,6.29,1.785,8.481c1.517,2.108,4.511,2.94,7.899,1.692
	c10.712-3.943,19.809-10.111,27.354-18.567C1535.231,524.692,1535.768,522.516,1536.065,521.9z"/>
<path fill-rule="evenodd" clip-rule="evenodd" d="M1036.029,510.295c0.891-1.923,1.421-4.362,2.894-5.896
	c1.61-1.677,4.501-3.867,6.094-3.386c2.069,0.626,4.341,3.467,4.823,5.718c0.576,2.69-0.814,5.754-1.027,8.679
	c-0.119,1.621-0.137,4.266,0.762,4.784c7.225,4.17,7.561,10.956,7.523,18.026c-0.036,6.792,0.649,7.505,6.979,4.766
	c5.486-2.373,10.507-5.805,15.821-8.601c2.06-1.083,4.362-1.701,6.935-1.722c-5.932,8.722-14,14.64-22.795,19.285
	c-6.802,3.594-14.148,6.459-21.57,8.484c-6.844,1.867-11.771-5.25-8.457-13.222c1.925-4.629,4.867-8.824,6.997-13.381
	c0.606-1.298-0.034-3.178-0.103-4.791c-1.401,0.49-3.032,0.672-4.168,1.518c-11.013,8.209-21.773,16.767-32.983,24.691
	c-4.029,2.848-8.9,5.195-13.705,6.116c-10.57,2.026-19.029-5.953-15.257-18.94c2.874-9.893,10.491-15.965,18.307-21.82
	c9.402-7.046,20.143-10.654,31.647-11.83C1028.319,508.409,1032.064,509.712,1036.029,510.295z M1036.214,521.948
	c-0.155-5.844-1.941-8.434-6.273-8.283c-3.585,0.124-7.349,0.047-10.695,1.116c-10.296,3.289-18.92,9.019-22.414,19.842
	c-0.789,2.441,0.268,6.278,1.861,8.461c1.529,2.096,4.523,2.843,7.9,1.662c9.593-3.354,17.611-9.121,25.083-15.659
	C1034.054,527.007,1035.231,523.556,1036.214,521.948z"/>
<path fill-rule="evenodd" clip-rule="evenodd" d="M1343.841,360.929c-8.073,0.76-11.999-6.564-8.784-13.957
	c2.063-4.746,4.873-9.164,7.104-13.845c0.505-1.062-0.004-2.605-0.046-3.927c-1.41,0.372-3.104,0.366-4.188,1.175
	c-11.138,8.307-22.011,16.978-33.312,25.051c-5.877,4.197-12.662,7.725-20.163,5.777c-7.607-1.975-11.704-8.82-8.791-18.671
	c2.871-9.707,10.233-15.882,17.867-21.624c9.594-7.218,20.636-11.03,32.523-12.186c2.692-0.262,5.658,0.21,8.21,1.137
	c2.779,1.01,3.402,0.14,3.965-2.317c0.391-1.704,1.16-3.722,2.444-4.717c1.529-1.184,4.302-2.472,5.615-1.83
	c2.011,0.981,4.224,3.42,4.553,5.521c0.456,2.905-0.966,6.06-1.174,9.135c-0.107,1.584,0.135,4.068,1.138,4.71
	c6.456,4.131,7.376,10.341,7.305,17.149c-0.082,7.807,0.152,8.21,7.632,5.064c5.948-2.502,11.369-6.236,17.133-9.212
	c1.33-0.687,3.106-0.509,4.677-0.729c-0.638,1.313-0.979,2.931-1.96,3.895c-10.277,10.099-22.185,17.742-35.591,23.001
	C1348.061,360.29,1345.898,360.478,1343.841,360.929z M1329.425,312.523c-12.076,0.879-24.916,8.14-31.017,19.446
	c-2.025,3.755-2.017,7.846,0.964,10.973c2.629,2.759,6.277,3.293,9.747,1.136c7.967-4.954,16.135-9.651,23.678-15.192
	c3.506-2.576,6.059-7.227,3.793-11.746C1335.494,314.953,1331.892,314.022,1329.425,312.523z"/>
<path fill-rule="evenodd" clip-rule="evenodd" d="M875.79,528.084c-3.468,2.58-6.943,5.149-10.4,7.742
	c-9.416,7.062-18.659,14.373-28.324,21.074c-3.369,2.336-7.663,3.7-11.734,4.566c-4.872,1.035-9.835-0.349-12.873-4.358
	c-3.757-4.96-4.313-10.729-1.366-16.573c6.544-12.972,17.134-21.514,30.312-26.761c6.129-2.439,12.749-3.91,19.285-4.951
	c3.366-0.536,7.036,0.834,11.088,1.418c0.675-1.658,0.994-4.29,2.479-5.639c1.963-1.781,6.059-4.189,7.072-3.432
	c2.251,1.683,3.156,5.167,4.59,7.928c0.036,0.068-0.231,0.254-0.261,0.403c-0.995,4.936-3.288,9.469,2.915,13.677
	c4.761,3.229,4.255,9.953,4.465,15.488c0.243,6.425,1.1,7.328,6.829,4.492c6.424-3.181,12.519-7.022,18.771-10.552
	c0.809-0.456,1.704-0.759,3.902-1.72c-0.823,2.589-0.84,4.586-1.844,5.498c-11.061,10.064-23.026,18.721-37.522,23.312
	c-4.899,1.552-9.835,2.03-12.926-2.659c-2.997-4.546-1.047-9.517,1.145-13.979c1.287-2.622,3.404-4.847,4.608-7.496
	c0.895-1.97,0.924-4.334,1.338-6.522C876.823,528.722,876.307,528.403,875.79,528.084z M863.469,513.545
	c-13.44,1.247-24.315,6.652-30.482,19.453c-1.721,3.57-1.458,7.093,1.155,10.071c2.616,2.981,6.075,2.812,9.366,1.337
	c9.59-4.297,18.541-9.543,25.764-17.415c2.603-2.837,3.536-5.778,2.293-9.419C870.204,513.591,867.108,513.174,863.469,513.545z"/>
<path fill-rule="evenodd" clip-rule="evenodd" d="M1922.138,151.327c1.848-3.928,3.677-7.864,5.563-11.772
	c0.28-0.579,0.978-0.96,1.243-1.541c1.271-2.784,4.604-5.506,1.746-8.533c-0.591-0.626-4.918,1.65-7.062,3.219
	c-10.815,7.905-21.322,16.24-32.284,23.931c-3.48,2.442-7.908,3.892-12.118,4.849c-5.691,1.294-10.387-1.312-13.644-5.973
	c-3.298-4.72-2.743-9.938-0.459-14.825c6.181-13.22,17.195-21.382,30.149-26.87c6.053-2.565,12.743-3.797,19.26-5.012
	c2.758-0.514,5.972,0.116,8.69,1.058c2.754,0.954,3.608,0.265,3.953-2.292c0.105-0.779,0.652-1.489,0.886-2.265
	c1.089-3.617,3.879-5.063,7.195-4.5c3.962,0.673,4.62,4.14,4.762,7.57c0.019,0.441-0.445,0.886-0.5,1.351
	c-0.578,4.882-2.979,9.487,3.256,13.626c4.452,2.954,4.434,9.474,4.342,15.012c-0.109,6.548,0.838,7.482,6.637,4.808
	c6.469-2.984,12.477-6.962,18.749-10.39c0.964-0.527,2.271-0.426,3.42-0.615c-0.209,1.249,0.038,2.974-0.694,3.677
	c-11.438,10.97-24.159,19.992-39.604,24.404c-2.357,0.673-5.308,0.341-7.699-0.42
	C1923.955,158.559,1923.057,156.56,1922.138,151.327z M1918.5,112.513c-13.779,1.097-27.08,9.312-31.427,20.831
	c-0.998,2.643-0.707,6.83,0.81,9.083c1.725,2.562,5.197,3.781,9.115,2.244c10.409-4.083,19.508-10.06,26.716-18.492
	c1.8-2.104,2.613-6.391,1.771-8.991C1924.809,115.095,1920.948,114.032,1918.5,112.513z"/>
<path fill-rule="evenodd" clip-rule="evenodd" d="M1247.09,128.162c-4.483,3.468-8.993,6.901-13.444,10.41
	c-10.508,8.283-20.401,17.479-33.354,22.08c-5.756,2.044-11.136,1.509-15.481-2.912c-4.175-4.246-4.645-9.395-2.848-15.066
	c2.886-9.104,9.356-15.287,16.57-20.769c9.807-7.451,21.075-11.719,33.249-13.127c3.757-0.435,7.712,0.837,11.37,1.301
	c1.427-2.375,2.677-5.236,4.659-7.438c1.032-1.146,3.878-2.054,4.978-1.432c1.826,1.033,2.968,3.344,4.251,5.216
	c0.311,0.454,0.197,1.344,0.024,1.961c-1.869,6.694-0.576,11.952,4.629,17.279c2.495,2.554,2.046,8.301,2.312,12.64
	c0.374,6.114,2.085,7.684,7.594,4.973c5.983-2.944,11.542-6.744,17.409-9.944c1.277-0.696,3.078-0.432,4.639-0.61
	c-0.467,1.41-0.499,3.331-1.465,4.152c-11.365,9.658-23.197,18.604-37.779,23.014c-4.491,1.358-9.141,1.577-12.335-2.057
	c-3.071-3.492-2.375-7.888-0.054-11.877c1.312-2.256,2.578-4.539,3.872-6.806c0.806-1.411,1.971-2.728,2.352-4.243
	c0.488-1.944,0.352-4.045,0.484-6.078C1248.178,128.606,1247.634,128.384,1247.09,128.162z M1244.053,121.673
	c0.114-5.062-2.329-7.97-6.447-7.979c-3.418-0.007-6.999,0.088-10.229,1.062c-10.791,3.255-19.455,9.169-23.507,20.376
	c-1.984,5.489,3.787,11.274,9.093,9.662c10.642-3.234,19.419-9.259,27.186-16.901
	C1242.04,126.031,1243.066,123.291,1244.053,121.673z"/>
<path fill-rule="evenodd" clip-rule="evenodd" d="M1177.494,131.337c1.847,4.801-1.854,6.757-4.194,8.328
	c-9.739,6.536-19.757,12.672-29.823,18.702c-2.148,1.287-4.887,1.759-7.425,2.198c-7.521,1.301-14.791-4.411-10.167-14.235
	c1.241-2.638,3.213-4.931,4.454-7.568c1.401-2.979,2.358-6.169,3.509-9.268c-0.566-0.462-1.133-0.925-1.699-1.387
	c-3.31,2.293-6.671,4.516-9.92,6.893c-10.15,7.426-20.05,15.219-30.467,22.247c-5.541,3.738-11.934,6.314-18.948,3.269
	c-7.541-3.274-10.785-12.385-4.968-21.851c10.225-16.64,25.337-26.718,45.039-28.975c4.719-0.54,9.552-0.08,15.148-0.08
	c0.419-1.029,0.739-3.662,2.225-5.01c1.962-1.781,5.655-4.142,7.125-3.384c2.113,1.089,3.338,4.645,4.077,7.38
	c0.445,1.648-1.237,3.779-1.086,5.622c0.198,2.419,0.519,5.627,2.091,6.983c4.621,3.988,6.38,8.6,5.668,14.497
	c-0.217,1.791-0.305,3.785,0.266,5.438c0.803,2.327,1.876,4.63,5.381,2.634c6.78-3.861,13.764-7.367,20.67-11.005
	C1175.392,132.271,1176.378,131.858,1177.494,131.337z M1121.562,113.16c-15.404,1.588-26.578,6.852-32.368,19.884
	c-1.169,2.634-0.451,6.787,0.841,9.569c0.741,1.597,4.834,3.125,6.653,2.49c11.111-3.877,21.141-9.765,28.992-18.737
	c2.296-2.623,4.045-6.104,1.362-9.354C1125.42,115.048,1122.741,113.954,1121.562,113.16z"/>
<path fill-rule="evenodd" clip-rule="evenodd" d="M1327.839,510.247c0.756-1.916,1.014-4.462,2.421-5.684
	c2.011-1.745,6.083-4.145,7.105-3.377c2.239,1.683,3.675,5.052,4.35,7.982c0.449,1.952-1.466,4.348-1.423,6.526
	c0.037,1.884,0.818,4.41,2.187,5.486c3.934,3.094,5.733,6.725,5.666,11.741c-0.182,13.644,1.774,13.821,12.552,7.769
	c5.491-3.085,10.951-6.228,17.511-8.689c-0.484,1.493-0.516,3.487-1.524,4.403c-11.07,10.053-23.028,18.721-37.534,23.297
	c-4.91,1.549-9.844,2.013-12.916-2.686c-2.974-4.549-1.004-9.521,1.176-13.983c1.281-2.624,3.399-4.85,4.601-7.5
	c0.892-1.965,0.912-4.325,1.321-6.509c-0.418-0.329-0.835-0.658-1.252-0.987c-3.571,2.603-7.169,5.17-10.708,7.815
	c-9.427,7.049-18.514,14.613-28.352,21.028c-6.358,4.146-13.642,7.259-21.598,2.646c-4.899-2.841-8.271-11.25-4.317-19.025
	c6.577-12.939,17.146-21.506,30.339-26.731c6.135-2.43,12.75-3.91,19.286-4.949C1320.095,508.284,1323.765,509.658,1327.839,510.247
	z M1319.281,513.538c-13.263,1.282-24.001,6.682-30.201,19.181c-1.82,3.67-1.742,7.44,1.21,10.481
	c2.669,2.749,6.054,2.681,9.407,1.14c9.394-4.316,18.229-9.424,25.364-17.137c2.713-2.933,3.829-5.888,2.408-9.797
	C1325.978,513.301,1322.78,513.356,1319.281,513.538z"/>
<path fill-rule="evenodd" clip-rule="evenodd" d="M1154.576,533.182c1.601,5.574-2.776,7.409-5.346,9.555
	c-8.538,7.132-17.758,13.342-28.446,16.93c-7.991,2.684-16.18,4.026-23.438-1.454c-6.108-4.613-7.627-11.695-5.579-18.611
	c3.401-11.492,7.041-23.038,11.988-33.922c9.991-21.979,20.451-43.785,34.276-63.736c0.835-1.204,1.704-2.411,2.723-3.456
	c2.611-2.679,5.628-7.086,9.261-4.367c2.11,1.579,2.361,7.027,1.838,10.491c-1.904,12.604-7.205,23.99-14.624,34.273
	c-8.696,12.053-17.839,23.782-26.605,35.785c-2.485,3.401-4.946,7.047-6.349,10.963c-2.649,7.402,1.422,13.729,9.47,17.055
	c11.517,4.759,21.908,2.483,31.885-4.085C1148.454,536.741,1151.414,535.089,1154.576,533.182z"/>
<path fill-rule="evenodd" clip-rule="evenodd" d="M1655.419,534.198c-0.702,1.561-1.025,3.507-2.164,4.622
	c-10.662,10.442-22.848,18.659-37.437,22.243c-4.704,1.155-10.365,0.634-15.049-0.838c-7.91-2.485-11.025-11.4-9.367-19.59
	c1.823-8.996,4.998-17.842,8.586-26.329c5.207-12.317,10.909-24.466,17.145-36.294c6.529-12.387,13.928-24.315,20.985-36.422
	c0.571-0.979,1.361-1.87,2.188-2.656c2.787-2.654,5.703-7.678,9.55-4.798c2.204,1.65,2.201,7.514,1.701,11.282
	c-1.823,13.75-8.475,25.562-16.451,36.595c-7.945,10.986-16.302,21.674-24.419,32.537c-1.657,2.217-3.226,4.535-4.538,6.967
	c-5.617,10.409-2.871,16.125,7.992,21.138c11.245,5.189,21.546,2.347,31.387-3.97c2.854-1.831,5.78-3.55,8.674-5.32
	C1654.607,533.643,1655.014,533.921,1655.419,534.198z"/>
<path fill-rule="evenodd" clip-rule="evenodd" d="M2429.521,533.217c1.78,5.115-2.22,6.851-4.55,8.845
	c-9.992,8.551-20.871,15.893-33.876,18.9c-6.713,1.554-13.79,1.989-19.561-3.406c-5.196-4.858-6.714-11.335-4.919-17.559
	c3.367-11.673,7.205-23.33,12.186-34.392c9.918-22.031,20.48-43.795,34.26-63.786c0.834-1.209,1.759-2.378,2.783-3.428
	c2.615-2.678,5.67-7.051,9.275-4.211c2.1,1.653,2.238,7.075,1.705,10.565c-1.924,12.611-7.262,23.976-14.699,34.261
	c-8.618,11.916-17.576,23.586-26.307,35.422c-1.83,2.481-3.339,5.203-4.952,7.841c-6.336,10.36-0.474,16.646,7.869,20.337
	c11.392,5.038,21.886,2.503,31.88-3.996C2423.453,536.765,2426.405,535.097,2429.521,533.217z"/>
<path fill-rule="evenodd" clip-rule="evenodd" d="M1753.016,132.76c0,2.211,0.484,3.81-0.071,4.361
	c-12.88,12.777-26.77,23.92-46.062,24.421c-9.849,0.256-17.053-5.418-16.947-16.539c0.104-10.858,3.875-20.476,8.141-30.002
	c5.806-12.969,11.59-25.979,18.182-38.553c6.432-12.269,13.855-24.017,20.886-35.968c0.576-0.979,1.464-1.78,2.232-2.642
	c2.389-2.675,5.39-5.632,8.796-3.789c1.601,0.867,1.854,5.187,1.828,7.934c-0.125,13.674-6.351,25.199-13.881,35.972
	c-9.733,13.923-20.084,27.413-29.966,41.234c-1.845,2.58-3.44,5.732-3.927,8.814c-1.411,8.931,3.599,12.372,12.443,15.556
	c11.113,4.001,21.114,1.011,30.427-5.464C1747.358,136.522,1749.665,135.014,1753.016,132.76z"/>
<path fill-rule="evenodd" clip-rule="evenodd" d="M2434.876,543.237c2.28-7.6,3.882-15.491,6.983-22.739
	c6.291-14.702,12.917-29.307,20.306-43.481c6.697-12.848,14.565-25.088,21.997-37.548c0.831-1.394,1.963-2.902,3.339-3.604
	c2.084-1.062,4.521-1.933,6.772-1.854c0.666,0.022,1.666,3.493,1.743,5.414c0.629,15.594-6.558,28.49-15.03,40.639
	c-9.252,13.268-19.371,25.927-28.809,39.069c-6.381,8.885-5.588,17.349,1.805,21.397c11.604,6.356,23.239,6.654,34.583-0.893
	c2.578-1.715,5.135-3.476,7.82-5.006c0.776-0.442,1.968-0.155,2.968-0.202c-0.152,0.965,0.051,2.344-0.514,2.829
	c-5.781,4.967-11.35,10.288-17.641,14.524c-8.137,5.479-16.931,9.698-27.205,9.897c-10.857,0.21-19.174-6.103-17.906-18.078
	C2435.684,543.48,2435.279,543.358,2434.876,543.237z"/>
<path fill-rule="evenodd" clip-rule="evenodd" d="M1660.045,543.225c2.067-7.331,3.337-15.009,6.344-21.933
	c11.578-26.652,23.739-53.058,39.729-77.454c2.209-3.369,4.885-6.719,8.079-9.086c4.127-3.059,6.669-1.324,6.916,3.709
	c0.777,15.817-6.356,28.915-14.819,41.248c-9.053,13.192-19.126,25.68-28.495,38.661c-11.097,15.375-1.846,23.167,12.599,26.31
	c11.223,2.441,19.896-2.729,28.536-8.472c0.813-0.541,1.553-1.295,2.445-1.583c0.918-0.298,1.981-0.146,2.981-0.19
	c-0.156,0.964,0.037,2.289-0.525,2.834c-3.729,3.607-7.354,7.411-11.514,10.468c-8.291,6.092-17.111,11.598-27.409,13.323
	c-4.695,0.787-10.023,0.47-14.545-0.975C1662.701,557.636,1660.653,551.036,1660.045,543.225z"/>
<path fill-rule="evenodd" clip-rule="evenodd" d="M799.562,458.897c1.665,6.984-1.075,12.64-4.262,17.838
	c-5.019,8.187-10.652,15.997-16.473,24.629c6.97,0,13.566,0,21.404,0c-4.896,6.19-10.997,7.174-16.49,9.165
	c-1.812,0.657-3.949,1.325-5.74,0.977c-7.106-1.385-9.879,2.663-12.055,8.4c-2.036,5.367-5.63,9.998-4.071,16.526
	c2.19,9.176,13.921,12.443,20.697,9.188c6.104-2.933,11.647-7.018,17.502-10.488c1.38-0.817,3.015-1.205,5.006-1.973
	c-0.299,6.51-4.906,8.521-8.376,11.27c-8.58,6.794-17.25,13.388-28.134,16.394c-9.242,2.552-17.263-1.67-20.681-10.56
	c-4.407-11.466,1.014-20.595,6.041-29.945c1.454-2.704,3.164-5.271,4.954-8.225c-4.733-0.524-9.093-0.729-13.313-1.6
	c-1.956-0.404-4.514-1.757-5.158-3.345c-0.461-1.138,1.425-3.851,2.916-5.049c5.923-4.757,12.758-4.28,19.388-2.053
	c3.432,1.152,4.762-0.021,6.135-2.746c4.34-8.612,9.154-17.003,13.138-25.773C785.4,464.02,791.146,460.407,799.562,458.897z"/>
<path fill-rule="evenodd" clip-rule="evenodd" d="M522.847,512.031c-4.928-0.509-9.39-0.705-13.727-1.546
	c-1.801-0.349-4.139-1.76-4.729-3.273c-0.437-1.124,1.184-3.625,2.523-4.765c5.969-5.077,12.938-4.699,19.762-2.421
	c3.392,1.133,4.76,0.09,6.154-2.686c4.33-8.617,9.166-16.998,13.148-25.77c3.408-7.506,9.103-11.197,17.282-12.577
	c2.484,6.49-0.657,12.178-3.668,17.295c-4.95,8.413-10.832,16.279-16.779,25.051c6.971,0,13.563,0,21.46,0
	c-5.05,6.325-11.279,7.313-16.975,9.247c-1.22,0.413-2.634,1.012-3.785,0.753c-10.106-2.274-12.251,5.467-15.366,12.015
	c-4.229,8.886-3.705,14.563,1.795,19.626c5.07,4.667,14.558,5.061,21.541,0.659c4.41-2.78,8.566-5.959,12.946-8.788
	c1.204-0.778,2.806-0.94,4.641-1.515c-0.294,6.292-4.854,8.324-8.329,11.064c-8.594,6.776-17.249,13.393-28.127,16.409
	c-9.251,2.564-17.32-1.637-20.713-10.505c-4.376-11.439,0.973-20.599,5.997-29.955C519.415,517.527,521.172,514.833,522.847,512.031
	z"/>
<path fill-rule="evenodd" clip-rule="evenodd" d="M1197.08,331.125c1.375-2.777,1.771-4.758,2.977-5.809
	c5.688-4.953,11.391-9.938,17.494-14.353c5.005-3.619,9.894-1.76,13.494,4.606c4.59,8.113,4.884,16.974,3.578,25.866
	c-0.935,6.37-2.617,12.631-4.149,19.795c12.785-11.281,23.994-23.312,38.719-31.24c2.283,4.57-1.161,6.027-3.021,7.979
	c-9.319,9.785-18.77,19.445-28.117,29.205c-2.043,2.133-3.978,4.396-5.738,6.767c-3.676,4.945-6.79,9.967-8.738,16.133
	c-3.377,10.683-7.412,21.419-15.976,29.426c-1.363,1.275-3.204,2.327-5.001,2.779c-2.482,0.626-4.294-0.143-4.562-3.36
	c-1.306-15.689,4.729-28.787,14.037-40.788c3.009-3.879,6.669-7.417,8.901-11.7c4.02-7.715,2.814-16.058,0.33-23.945
	c-1.281-4.07-3.745-7.95-6.395-11.358c-2.852-3.668-6.666-5.216-11.201-1.923C1202.393,330.164,1200.406,330.208,1197.08,331.125z"
	/>
<path fill-rule="evenodd" clip-rule="evenodd" d="M281.402,507.657c-2.524,3.571-5.362,6.966-7.502,10.755
	c-3.426,6.065-6.563,12.314-9.417,18.669c-0.644,1.435,0.38,3.619,0.788,6.541c5.196-4.332,9.539-8.007,13.939-11.611
	c7.106-5.818,14.225-11.623,21.404-17.351c1.254-1,2.773-1.743,4.274-2.344c10.949-4.382,13.445-0.729,15.14,9.142
	c0.997,5.803,1.306,11.72,2.11,17.56c0.944,6.854,5.4,8.741,11.23,4.752c4.852-3.321,9.534-6.889,14.374-10.227
	c1.379-0.951,3.047-1.483,5.427-2.605c-0.317,1.915-0.151,3.075-0.654,3.631c-9.131,10.088-19.688,18.549-31.803,24.593
	c-9.379,4.679-13.845-0.602-15.547-9.848c-1.064-5.783-1.312-11.712-2.11-17.55c-0.891-6.516-4.881-8.476-10.075-4.46
	c-8.176,6.322-15.904,13.22-23.894,19.786c-5.568,4.577-11.032,9.337-16.971,13.386c-3.869,2.637-6.586,0.916-6.991-3.802
	c-1.542-17.937,4.227-32.646,19.344-43.14c3.351-2.326,6.539-4.942,10.092-6.897c1.693-0.932,4.067-0.627,6.133-0.882
	C280.93,506.389,281.167,507.023,281.402,507.657z"/>
<path fill-rule="evenodd" clip-rule="evenodd" d="M1860.556,135.546c-0.767,1.458-1.153,3.528-2.36,4.278
	c-10.352,6.426-20.566,13.172-31.4,18.687c-8.123,4.136-12.359,1.968-16.805-6.468c-1.729-3.279-2.932-6.836-4.541-10.661
	c-5.615,4.725-10.765,9.833-16.67,13.825c-6.85,4.632-13.962,9.145-23.138,4.697c-6.308-3.058-10.071-15.267-9.382-20.848
	c0.757-6.12,4.232-10.301,8.263-14.48c4.214-4.371,7.983-9.17,11.958-13.772c0.543-0.629,1.054-1.354,1.738-1.78
	c2.881-1.796,5.653-5.714,9.364-2.217c3.739,3.525-0.442,6.236-2.092,8.762c-2.943,4.504-6.606,8.529-9.706,12.94
	c-3.421,4.869-3.649,9.773-1.021,13.247c3.245,4.292,9.16,6.334,14.575,3.982c4.549-1.976,9.183-4.489,12.745-7.857
	c8.113-7.67,15.589-16.015,23.33-24.079c0.806-0.84,1.543-2.142,2.506-2.355c2.163-0.481,4.921-1.273,6.57-0.366
	c2.431,1.337,1.283,3.905-0.155,5.894c-2.485,3.434-5.015,6.838-7.396,10.344c-3.809,5.608-3.83,11.579-0.189,15.421
	c3.225,3.402,9.246,3.985,14.648,1.069c4.292-2.317,8.339-5.083,12.582-7.494c1.621-0.921,3.488-1.408,5.243-2.094
	C1859.668,134.662,1860.111,135.104,1860.556,135.546z"/>
<path fill-rule="evenodd" clip-rule="evenodd" d="M1684.588,135.605c-0.795,1.459-1.215,3.527-2.442,4.282
	c-10.944,6.726-21.977,13.315-33.104,19.733c-4.195,2.419-8.262,1.149-10.903-2.592c-3.23-4.575-5.817-9.604-9.062-15.077
	c-3.573,3.015-7.423,6.691-11.707,9.761c-4.597,3.294-9.277,6.905-14.494,8.808c-11.709,4.271-20.396-3.463-21.887-15.275
	c-1.152-9.127,2.354-15.806,8.699-21.846c5.146-4.898,9.839-10.28,14.613-15.557c2.368-2.617,5.58-3.51,7.709-1.243
	c1.1,1.171,0.256,5.338-1.005,7.334c-3.567,5.649-7.837,10.853-11.764,16.28c-3.136,4.333-2.823,8.78,0.664,12.574
	c3.493,3.8,8.47,5.408,13.052,3.198c5.936-2.861,11.866-6.329,16.694-10.743c6.79-6.21,12.556-13.539,18.785-20.365
	c1.004-1.1,1.99-2.354,3.253-3.05c2.312-1.276,5.296-3.531,7.217-0.457c0.941,1.507,0.009,4.855-1.078,6.816
	c-2.041,3.684-4.842,6.942-7.268,10.419c-2.729,3.911-3.799,8.015-0.697,12.217c3.303,4.476,8.097,6.428,13.074,4.246
	c5.612-2.46,10.759-5.977,16.146-8.968c1.323-0.735,2.79-1.215,4.19-1.812C1683.711,134.729,1684.149,135.167,1684.588,135.605z"/>
<path fill-rule="evenodd" clip-rule="evenodd" d="M2055.586,535.559c-0.97,1.659-1.533,3.961-2.975,4.875
	c-10.184,6.456-20.346,12.996-30.928,18.75c-6.398,3.479-11.884,1.07-15.564-5.727c-1.99-3.675-3.446-7.639-5.222-11.651
	c-6.936,5.411-13.514,11.056-20.617,15.937c-6.549,4.5-13.683,6.039-20.989,0.952c-5.043-3.512-6.307-8.687-7.257-14.271
	c-1.354-7.951,1.922-13.973,7.16-19.429c5.39-5.613,10.73-11.276,15.967-17.033c2.344-2.577,5.447-3.65,7.836-1.573
	c2.682,2.333,0.79,5.359-1.043,7.883c-4.216,5.805-8.952,11.346-12.333,17.61c-3.726,6.905,1.431,14.229,9.362,14.771
	c6.855,0.469,12.095-2.891,16.633-7.199c8.865-8.415,17.36-17.221,26.009-25.865c0.824-0.823,1.54-2.138,2.505-2.358
	c1.83-0.419,4.146-0.825,5.588-0.025c0.83,0.462,1.051,3.708,0.311,4.985c-2.114,3.651-4.983,6.854-7.331,10.382
	c-4.825,7.248-4.546,12.533,0.813,16.927c4.49,3.681,9.341,2.59,13.841,0.286c4.478-2.293,8.593-5.285,12.943-7.841
	c1.264-0.743,2.789-1.042,4.195-1.544C2054.855,534.786,2055.221,535.173,2055.586,535.559z"/>
<path fill-rule="evenodd" clip-rule="evenodd" d="M1529.73,121.656c2.89-5.882,5.455-10.984,7.904-16.143
	c1.083-2.279,2.191-2.348,4.101-0.793c7.309,5.955,15.314,10.734,24.899,11.55c3.913,0.333,7.951-0.797,11.921-1.261
	c-0.159,4.747-11.834,10.598-24.009,11.891c-6.021,20.387-20.801,30.812-40.837,34.542c-7.175,1.336-14.429,0.224-20.902-3.87
	c-5.977-3.779-8.136-13.896-5.047-22.234c4.897-13.222,15.692-20.068,27.543-25.572c5.029-2.336,10.635-3.432,15.978-5.091
	c0.4,0.778,0.799,1.557,1.198,2.334c-1.233,0.9-2.368,2.004-3.719,2.664c-5.692,2.783-11.762,4.931-17.109,8.251
	c-8.123,5.043-10.033,17.473-3.617,22.932c6.298,5.357,13.935,7.128,22.112,5.188c10.245-2.43,15.729-9.826,19.56-19.042
	c-3.61-0.497-7.058-0.659-10.325-1.513C1536.295,124.683,1533.398,123.149,1529.73,121.656z"/>
<path fill-rule="evenodd" clip-rule="evenodd" d="M2123.833,527.527c-6.533-1.695-12.725-3.302-19.587-5.082
	c3.188-6.896,5.902-12.771,9.06-19.6c12.204,9.095,24.358,17.181,40.764,11.562c-3.076,5.651-9.929,10.171-17.41,11.045
	c-5.406,0.631-8.018,2.557-10.265,7.979c-6.258,15.098-18.487,23.884-34.353,27.011c-5.466,1.078-11.479,1.085-16.955,0.055
	c-11.647-2.193-16.642-11.978-13.185-23.448c3.423-11.357,11.557-18.479,21.333-23.911c7.212-4.007,14.675-7.896,23.338-7.485
	c0.29,0.468,0.579,0.937,0.869,1.404c-1.853,1.177-3.606,2.564-5.578,3.487c-4.685,2.192-9.87,3.566-14.107,6.392
	c-4.44,2.961-8.274,6.867-8.762,13.047c-0.491,6.242,1.952,10.332,7.228,13.348C2100.805,551.664,2118.846,544.34,2123.833,527.527z
	"/>
<path fill-rule="evenodd" clip-rule="evenodd" d="M2299.354,535.301c2.248,8.737,10.555,10.344,17.88,11.254
	c13.062,1.622,24.385-3.465,35.293-9.853c2.168-1.271,4.445-2.355,6.673-3.525c0.407,0.365,0.815,0.73,1.223,1.096
	c-0.892,1.728-1.335,4.097-2.745,5.08c-11.469,7.991-22.496,16.967-36.18,20.939c-9.53,2.768-18.984,2.122-27.826-3.399
	c-9.09-5.675-11.762-17.852-6.171-26.95c9.557-15.552,23.806-25.063,41.471-28.984c3.005-0.667,7.932,1.149,9.855,3.529
	c1.896,2.346,2.158,7.146,1.286,10.369c-2.055,7.59-8.471,11.412-15.445,13.646C2316.358,531.165,2307.805,533.067,2299.354,535.301
	z M2298.574,529.966c4.325-0.539,7.952-0.318,11.02-1.524c5.035-1.979,10.235-4.259,14.294-7.683
	c1.818-1.533,2.152-6.544,1.17-9.256c-1.306-3.606-5.105-1.768-7.778-0.807C2308.442,513.875,2303.057,520.581,2298.574,529.966z"/>
<path fill-rule="evenodd" clip-rule="evenodd" d="M241.152,535.168c-1.724,2.007-3.097,4.562-5.231,5.928
	c-9.326,5.966-18.632,12.039-28.401,17.212c-11.304,5.986-28.731,4.136-36.329-3.943c-8.46-8.996-7.793-18.995-0.365-28.782
	c9.439-12.436,21.957-20.693,37.266-24.535c4.598-1.154,8.661-0.261,11.692,3.106c3.233,3.592,2.855,8.564,0.128,13.196
	c-4.637,7.878-12.584,10.698-20.522,13.143c-6.456,1.988-13.229,2.946-19.919,4.372c2.654,8.625,9.71,10.872,17.165,11.645
	c12.84,1.331,24.575-2.327,35.402-9.247c2.466-1.576,5.29-2.593,7.949-3.867C240.375,533.985,240.763,534.576,241.152,535.168z
	 M180.177,529.756c3.354-0.41,6.629-0.391,9.644-1.267c6.604-1.918,13.889-3.009,16.761-10.839c1.659-4.522-1.435-8.73-6.053-7.989
	C193.011,510.869,181.626,521.374,180.177,529.756z"/>
<path fill-rule="evenodd" clip-rule="evenodd" d="M2520.887,534.924c3.721,8.843,10.896,10.977,18.838,11.674
	c13.729,1.204,25.629-3.866,36.913-10.98c1.452-0.915,3.077-1.555,4.622-2.321c0.404,0.314,0.809,0.63,1.212,0.944
	c-0.742,1.568-1.063,3.701-2.292,4.618c-10.973,8.192-21.897,16.704-35.048,21.071c-10.128,3.364-20.517,3.204-29.587-3.463
	c-11.081-8.146-11.115-19.262-3.773-29.753c8.988-12.843,21.439-21.432,36.935-25.117c7.023-1.671,11.278-0.401,13.868,4.083
	c1.892,3.274,0.206,11.652-3.229,15.148c-6.096,6.207-14.143,8.576-22.188,10.729
	C2531.988,532.939,2526.665,533.75,2520.887,534.924z M2521.115,529.994c4.152-0.553,7.646-0.344,10.552-1.553
	c5.154-2.144,10.408-4.589,14.668-8.072c1.663-1.36,1.203-5.944,0.687-8.88c-0.121-0.689-4.601-1.403-6.716-0.815
	C2530.76,513.329,2525.2,520.288,2521.115,529.994z"/>
<path fill-rule="evenodd" clip-rule="evenodd" d="M1745.889,534.927c3.726,8.848,10.908,10.972,18.847,11.67
	c13.73,1.208,25.635-3.86,36.9-11.004c0.963-0.609,1.922-1.249,2.956-1.713c0.557-0.249,1.268-0.151,3.219-0.331
	c-1.08,2.27-1.408,4.397-2.639,5.317c-10.972,8.194-21.897,16.708-35.05,21.068c-10.125,3.355-20.516,3.203-29.587-3.475
	c-11.075-8.152-11.089-19.271-3.758-29.757c8.986-12.854,21.451-21.415,36.939-25.107c7.006-1.67,11.29-0.388,13.865,4.092
	c1.885,3.277,0.188,11.653-3.243,15.148c-6.096,6.211-14.148,8.566-22.192,10.721
	C1756.978,532.941,1751.655,533.754,1745.889,534.927z M1746.18,529.929c3.972-0.503,7.637-0.255,10.679-1.513
	c5.159-2.132,10.346-4.693,14.638-8.165c1.618-1.309,1.68-5.944,0.827-8.528c-0.932-2.823-3.919-2.246-6.794-1.327
	C1755.848,513.49,1750.179,520.287,1746.18,529.929z"/>
<path fill-rule="evenodd" clip-rule="evenodd" d="M373.589,534.852c3.443,9.04,10.501,10.927,17.9,11.698
	c13.5,1.407,25.438-3.169,36.601-10.355c1.87-1.203,4.036-1.945,7.102-2.155c-0.648,1.625-0.821,3.918-2.02,4.772
	c-11.54,8.229-22.816,17.257-36.57,21.357c-11.216,3.345-22.383,2.534-31.694-6.183c-5.04-4.72-7.69-13.756-3.739-21.611
	c5.347-10.629,13.653-18.514,23.935-24.1c5.355-2.91,11.306-4.886,17.179-6.641c5.977-1.786,10.608,0.004,12.815,4
	c2.102,3.808,0.84,10.188-2.621,14.124c-7.141,8.121-16.962,10.589-26.875,12.834C381.764,533.463,377.864,534.057,373.589,534.852z
	 M373.821,529.533c7.878,0.206,14.865-1.088,20.908-5.249c2.521-1.735,4.777-4.5,6.017-7.301c1.901-4.296-1.714-8.351-5.989-7.191
	C384.522,512.567,378.149,519.492,373.821,529.533z"/>
<path fill-rule="evenodd" clip-rule="evenodd" d="M1390.174,529.279c-2.426,0.843-4.881,1.694-7.336,2.546
	c-1.214-3.783,2.09-4.626,3.953-6.696c3.467-3.852,6.213-8.35,9.314-12.537c2.005-2.708,3.696-5.872,6.271-7.876
	c3.127-2.432,5.629-0.812,5.692,3.089c0.019,1.149,0.171,2.479-0.316,3.428c-5.559,10.831,0.669,20.506,3.12,30.454
	c0.889,3.607,4.354,4.763,7.762,2.644c7.041-4.379,13.93-9.003,20.819-13.486c-9.074-15.993-2.065-17.861,9.067-25.753
	c2.427-1.72,6.97-2.657,9.454-1.541c3.201,1.438,2.593,5.684,1.084,8.826c-2.442,5.089-5.107,10.07-7.935,15.6
	c4.709,1.614,10.251,3.514,15.792,5.412c0.053,0.338,0.106,0.675,0.159,1.013c-2.875,0.393-5.794,1.303-8.613,1.06
	c-4.511-0.389-8.931-1.909-13.438-2.198c-1.852-0.118-4.066,1.418-5.709,2.717c-8.864,7.015-17.344,14.539-26.448,21.218
	c-10.328,7.577-14.983,5.914-18.691-6.353c-1.634-5.407-2.089-11.172-3.093-16.771
	C1390.741,532.157,1390.358,530.248,1390.174,529.279z"/>
<path fill-rule="evenodd" clip-rule="evenodd" d="M1869.239,528.142c-2.561,1.751-4.449,3.107-6.444,4.284
	c-0.158,0.094-1.6-1.46-1.521-1.569c1.388-1.892,2.986-3.627,4.409-5.495c3.158-4.146,6.256-8.339,9.357-12.528
	c2.012-2.717,3.551-5.995,6.085-8.061c3.182-2.593,5.922-0.83,5.958,3.266c0.007,0.832,0.288,1.871-0.097,2.465
	c-5.159,7.949-1.366,15.853,0.415,23.542c3.023,13.06,5.592,13.91,16.769,6.523c4.759-3.144,9.312-6.598,14.132-10.035
	c-0.531-1.291-0.784-2.203-1.249-2.99c-4.914-8.322-4.884-10.09,2.374-16.597c3.353-3.006,7.387-5.391,11.432-7.42
	c1.736-0.871,5.179-0.989,6.243,0.106c1.384,1.426,2.169,4.778,1.464,6.64c-2.266,5.984-5.336,11.664-8.284,17.855
	c4.588,1.525,10.168,3.381,15.747,5.236c-0.044,0.416-0.089,0.832-0.133,1.248c-5.164,0-10.841,1.386-15.382-0.295
	c-8.79-3.254-13.037,2.535-18.49,6.802c-8.354,6.539-16.675,13.162-25.434,19.129c-4.8,3.271-8.6,2.01-10.658-3.405
	c-2.516-6.617-4.066-13.617-5.782-20.514C1869.489,533.674,1869.52,530.848,1869.239,528.142z"/>
<path fill-rule="evenodd" clip-rule="evenodd" d="M1031.538,130.476c-1.899-2.878-3.213-4.745-4.397-6.692
	c-1.874-3.08-1.521-6.245,0.995-8.554c4.098-3.76,8.432-7.313,12.979-10.51c2.416-1.698,6.212-4.189,8.273-0.848
	c1.587,2.573,1.714,7.049,0.653,10.023c-1.657,4.645-4.87,8.734-7.993,14.023c5.479,1.754,11.184,3.581,17.271,5.53
	c-5.728,4.335-12.099,2.301-17.043,0.724c-6.866-2.19-10.478,0.907-14.876,4.554c-7.942,6.585-15.899,13.189-24.24,19.25
	c-8.817,6.407-13.587,4.655-17.005-5.691c-1.271-3.846-2.246-7.823-2.948-11.812c-0.705-4.001-0.901-8.091-1.385-12.759
	c-2.005,1.808-3.676,3.313-5.346,4.82c-0.498-0.018-0.997-0.035-1.495-0.053c0.125-1.546-0.365-3.774,0.472-4.529
	c6.214-5.594,11.03-12.141,14.748-19.592c0.641-1.282,1.785-2.604,3.035-3.215c1.443-0.707,4.16-1.424,4.732-0.762
	c1.202,1.392,2.449,4.258,1.783,5.513c-5.862,11.041-0.02,20.976,2.586,31.158c1.115,4.362,4.395,5.71,8.29,3.263
	C1017.657,139.899,1024.488,135.167,1031.538,130.476z"/>
<path fill-rule="evenodd" clip-rule="evenodd" d="M674.476,530.239c1.493-1.531,2.849-3.235,4.51-4.556
	c3.064-2.434,6.336-4.604,9.459-6.968c0.912-0.69,2.309-1.664,2.304-2.502c-0.055-9.257,8.222-11.588,13.588-16.082
	c2.784-2.331,6.82-3.426,10.477-4.327c1.396-0.344,4.155,1.022,4.756,2.32c0.635,1.373-0.074,3.936-1.077,5.358
	c-1.357,1.928-3.554,3.266-5.801,5.212c3.912,3.236,7.753,6.211,11.358,9.447c4.716,4.231,6.149,9.369,4.01,15.538
	c-4.992,14.397-14.846,23.856-29.479,27.444c-4.803,1.177-10.504,0.062-15.479-1.225c-4.976-1.286-6.591-5.746-6.022-12.122
	c0.45-5.055,4.275-6.797,8.195-8.026c3.786-1.188,7.396,2.025,9.892,7.166c1.34,2.759,3.371,6.8,5.586,7.151
	c3.683,0.586,7.176-1.895,9.305-5.801c3.238-5.943,6.655-12.236,1.563-18.101c-3.854-4.439-9.505-7.335-14.45-10.783
	c-0.371-0.26-1.581,0.423-2.246,0.889c-4.539,3.178-8.969,6.517-13.584,9.575c-1.621,1.074-3.666,1.508-5.517,2.234
	C675.373,531.469,674.925,530.854,674.476,530.239z"/>
<path fill-rule="evenodd" clip-rule="evenodd" d="M476.709,508.686c4.207,3.519,8.271,6.563,11.908,10.054
	c4.061,3.896,5.382,8.542,3.552,14.284c-4.722,14.816-14.686,24.265-29.427,28.052c-4.796,1.231-10.514,0.165-15.514-1.06
	c-4.957-1.214-6.591-5.668-6.164-12.064c0.342-5.117,4.181-6.846,8.039-8.187c3.699-1.286,7.876,1.836,9.919,7.039
	c1.256,3.198,2.018,7.442,5.979,7.487c3.901,0.045,7.279-2.38,9.232-6.285c2.721-5.44,6.592-11.263,1.778-16.748
	c-4.189-4.774-9.897-8.255-15.156-11.995c-0.552-0.393-2.697,1.188-3.938,2.084c-3.97,2.868-7.766,5.987-11.83,8.707
	c-1.576,1.055-3.693,1.299-5.563,1.912c-0.354-0.518-0.708-1.036-1.062-1.555c1.44-1.576,2.71-3.367,4.358-4.683
	c3.053-2.438,6.371-4.54,9.486-6.904c1.027-0.78,2.542-1.956,2.52-2.919c-0.209-8.727,7.623-10.902,12.548-15.146
	c2.993-2.579,7.331-3.82,11.269-4.957c1.375-0.397,4.178,0.896,4.84,2.183c0.687,1.335,0.089,3.954-0.883,5.368
	C481.259,505.305,479.039,506.653,476.709,508.686z"/>
<path fill-rule="evenodd" clip-rule="evenodd" d="M1259.546,281.274c-4.846,8.622-16.015,9.196-22.567,5.307
	c-4.148-2.463-5.313-7.295-2.284-10.907c1.861-2.22,4.227-4.206,6.752-5.598c1.22-0.673,3.747-0.309,4.961,0.576
	C1250.903,273.933,1255.1,277.624,1259.546,281.274z"/>
<path fill-rule="evenodd" clip-rule="evenodd" d="M1113.904,66.029c1.401,1.712,2.513,3.72,4.191,4.957
	c2.097,1.545,4.555,2.83,7.053,3.534c2.473,0.696,3.679,1.622,2.433,4.068c-2.621,5.145-7.48,7.086-12.705,7.936
	c-3.724,0.604-12.038-3.84-12.043-7.015c-0.004-3.082,2.263-6.459,4.275-9.15C1108.453,68.562,1111.099,67.74,1113.904,66.029z"/>
<path fill-rule="evenodd" clip-rule="evenodd" d="M1152.921,66.017c1.388,1.707,2.491,3.721,4.167,4.961
	c2.094,1.549,4.549,2.856,7.047,3.544c2.834,0.78,3.584,1.747,2.198,4.471c-1.804,3.547-8.616,7.841-12.928,7.59
	c-5.126-0.299-9.649-2.996-11.477-7.241c-0.888-2.064,2.163-6.283,4.172-8.973C1147.442,68.569,1150.09,67.746,1152.921,66.017z"/>
<path fill-rule="evenodd" clip-rule="evenodd" d="M1244.436,74.908c-3.887,9.964-13.776,15.038-23.085,8.319
	c-2.934-2.118-4.469-5.086-1.84-8.365c2.096-2.614,4.569-5.01,7.229-7.039c0.86-0.657,3.382-0.412,4.217,0.388
	C1234.65,71.751,1237.808,75.973,1244.436,74.908z"/>
<path fill-rule="evenodd" clip-rule="evenodd" d="M1270.206,87.658c-4.156-2.011-7.732-3.237-10.705-5.322
	c-2.981-2.091-2.554-4.957-0.693-8.144c4.64-7.95,9.345-8.617,15.227-2.043c1.197,1.338,3.449,2.069,5.332,2.387
	c3.898,0.658,4.958,2.203,2.161,4.893C1278.229,82.6,1274.094,84.898,1270.206,87.658z"/>
<path fill-rule="evenodd" clip-rule="evenodd" d="M911.165,476.984c0.467,3.669-3.717,5.54-7.518,7.748
	c-5.002,2.904-9.736,2.129-14.077-1.216c-4.607-3.551-4.709-6.877-0.695-11.17c0.796-0.851,1.631-1.664,2.467-2.476
	c4.372-4.246,4.583-3.938,8.864,0.142C902.917,472.597,906.607,474.154,911.165,476.984z"/>
<path fill-rule="evenodd" clip-rule="evenodd" d="M871.859,476.44c-0.165,4.118-5.254,8.958-11.95,10.131
	c-3.788,0.664-11.363-3.029-12.5-6.471c-0.457-1.383-0.121-3.298,0.49-4.692c0.697-1.594,1.977-3,3.223-4.273
	c5.567-5.692,5.389-5.443,10.942-0.234C864.463,473.15,867.918,474.274,871.859,476.44z"/>
</svg>
