<?xml version="1.0" encoding="utf-8"?>
<!-- Generator: Adobe Illustrator 16.0.0, SVG Export Plug-In . SVG Version: 6.00 Build 0)  -->
<!DOCTYPE svg PUBLIC "-//W3C//DTD SVG 1.1//EN" "http://www.w3.org/Graphics/SVG/1.1/DTD/svg11.dtd">
<svg version="1.1" id="Lag_1" xmlns="http://www.w3.org/2000/svg" xmlns:xlink="http://www.w3.org/1999/xlink" x="0px" y="0px"
	 width="2065.449px" height="577.229px" viewBox="0 0 2065.449 577.229" enable-background="new 0 0 2065.449 577.229"
	 xml:space="preserve">
<path fill-rule="evenodd" clip-rule="evenodd" d="M580.802,34.728c-8.302,11.498-17.332,7.745-26.314,2.313
	c-1.693-1.024-2.928-2.809-4.373-4.242c1.785-1.139,3.444-2.946,5.375-3.31c13.392-2.521,22.024-10.854,28.244-22.343
	c1.314-2.43,2.717-4.812,4.039-7.146c8.366,1.372,14.446,13.982,8.804,19.777c-5.756,5.912-8.136,12.733-10.415,20.05
	c-1.159,3.722-2.667,7.351-4.246,10.92c-1.501,3.393-3.3,6.651-5.005,10.043c11.793-1.175,23.176-2.154,34.503-3.584
	c1.998-0.252,4.416-1.967,5.528-3.714c9.987-15.687,21.402-30.161,37.563-39.753c7.138-4.237,15.365-7.074,23.459-9.117
	c5.732-1.447,12.359,0.109,15.844,5.521c4.361,6.772,3.195,14.202-0.956,20.886c-9.414,15.153-23.675,24.485-39.654,31.12
	c-12.316,5.114-25.038,9.326-38.57,10.378c-1.687,0.131-4.098,1.967-4.681,3.559c-6.032,16.484-8.213,33.133,0.229,49.508
	c8.677,16.829,29.382,21.562,45.109,12.005c13.15-7.991,20.955-19.915,24.438-34.693c0.746-3.167,0.052-6.65,0.5-9.923
	c0.176-1.282,1.666-2.386,2.558-3.57c0.767,1.245,2.168,2.472,2.203,3.737c0.626,22.448-12.396,47.077-36.442,54.359
	c-17.064,5.167-35.306,0.375-44.521-14.94c-5.638-9.371-8.296-19.908-5.974-30.978c1.938-9.235,4.408-18.359,6.679-27.68
	c-6.656,0.534-13.909,1.036-21.144,1.726c-4.382,0.418-8.766,0.968-13.083,1.799c-1.331,0.257-2.859,1.377-3.6,2.544
	c-12.295,19.402-27.133,36.474-46.812,48.585c-7.982,4.913-16.896,8.617-26.956,5.836c-5.443-1.505-9.57-6.766-10.124-12.462
	c-0.988-10.194,3.943-17.791,10.542-24.441c11.829-11.924,26.103-20.347,41.783-25.949c10.821-3.867,22.205-6.149,33.294-9.293
	c1.392-0.395,3.135-1.452,3.667-2.663c3.378-7.679,6.46-15.486,9.64-23.252C581.558,35.802,581.18,35.265,580.802,34.728z
	 M562.712,77.354c-3.068,0-4.742-0.128-6.387,0.035c-1.778,0.176-3.517,0.736-5.294,0.937c-17.669,1.989-34.09,7.576-48.305,18.319
	c-6.08,4.595-12.438,9.842-14.155,17.88c-2.065,9.669-0.345,16.213,12.14,15.69c3.945-0.164,8.032-1.465,11.697-3.064
	c14.474-6.316,24.808-17.895,35.192-29.139C553.07,92.091,557.227,84.959,562.712,77.354z M621.616,55.423
	c0.267,0.347,0.534,0.693,0.801,1.04c8.574-1.704,17.272-2.947,25.693-5.217c13.628-3.673,26.964-8.186,36.845-19.233
	c4.101-4.585,5.872-9.841,5.081-15.878c-0.69-5.258-7.741-7.977-14.917-6.386c-18.124,4.018-30.365,16.372-41.925,29.537
	C628.847,44.237,625.447,50.02,621.616,55.423z"/>
<path fill-rule="evenodd" clip-rule="evenodd" d="M1158.412,107.458c13.487-3.185,22.713-11.711,32.932-18.408
	c0.487,0.448,0.976,0.897,1.464,1.346c-1.464,2.037-2.555,4.555-4.456,6.027c-8.414,6.52-17.303,12.421-27.777,15.041
	c-6.732,1.685-8.215,7.727-11.571,12.277c-6.79,9.204-13.026,18.901-20.595,27.416c-5.328,5.995-11.932,11.424-21.033,11.193
	c-5.453-0.138-8.951-3.883-9.332-9.38c-0.831-12.002,3.671-22.417,9.406-32.453c3.476-6.083,7.317-11.956,10.844-18.012
	c0.586-1.005,0.887-2.644,0.495-3.679c-4.685-12.401,1.641-21.88,8.499-30.936c2.366-3.124,6.098-5.394,9.566-7.443
	c2.675-1.581,5.798-2.188,8.558,0.677c2.862,2.972,2.479,6.265,0.962,9.377c-2.281,4.682-5.418,8.966-7.494,13.723
	c-2.049,4.694-4.222,9.702-4.552,14.689c-0.449,6.789,12.041,12.938,17.505,8.897c1.95-1.441,2.912-4.255,4.244-6.491
	c11.291-18.959,18.384-39.516,22.867-61.011c0.866-4.155,1.021-8.505,1.077-12.771c0.07-5.243-3.054-8.058-8.206-8.203
	c-16.538-0.465-32.893,1.306-49.166,4c-7.383,1.223-14.781,2.438-22.076,4.082c-8.867,1.998-13.574,8.068-15.594,16.744
	c-0.514,2.208-2.523,5.922-3.555,5.826c-3.973-0.37-2.399-4.153-2.216-6.387c0.507-6.156,1.029-12.42,2.619-18.354
	c2.713-10.128,10.375-15.247,20.307-16.742c7.623-1.147,15.363-1.563,23.064-2.122c6.587-0.479,13.238-1.345,19.781-0.891
	c12.237,0.851,24.529,1.912,36.582,4.088c7.965,1.438,11.326,7.837,9.373,15.691c-3.173,12.757-5.858,25.776-10.608,37.961
	c-5.299,13.593-12.664,26.381-19.154,39.507C1160.533,104.029,1159.72,105.233,1158.412,107.458z M1122.439,104.669
	c-5.684,5.253-16.569,27.213-18.102,35.966c-0.617,3.522-0.158,8.934,2.074,10.852c3.25,2.793,8.088,0.639,11.818-1.812
	c0.137-0.09,0.246-0.225,0.359-0.346c7.164-7.658,14.488-15.175,21.422-23.036c3.334-3.779,5.933-8.208,9.252-12.89
	C1138.581,113.523,1129.946,110.742,1122.439,104.669z"/>
<path fill-rule="evenodd" clip-rule="evenodd" d="M964.254,493.593c6.133,8.096,11.465,15.315,17.002,22.374
	c3.247,4.14,7.285,4.609,12.112,1.498c3.7-2.386,7.128-5.193,10.804-7.621c1.177-0.777,2.758-0.943,4.391-0.771
	c-6.633,8.925-14.862,15.609-24.361,20.582c-6.842,3.581-11.386,1.9-16.104-5.351c-4.266-6.557-8.347-13.232-13.229-21.001
	c-2.913,4.959-5.379,9.39-8.08,13.674c-1.739,2.758-3.528,5.595-5.816,7.873c-4.163,4.146-10.824,2.336-11.624-3.396
	c-0.652-4.677-1.056-10.073,0.631-14.266c5.279-13.122,11.006-26.146,17.701-38.593c5.62-10.447,12.677-20.146,19.438-29.942
	c2.509-3.636,5.777-6.84,9.117-9.765c1.436-1.257,3.934-1.3,5.949-1.895c0.612,2.098,2.299,4.632,1.655,6.22
	c-3.037,7.489-5.758,15.395-10.361,21.899c-9.255,13.081-19.832,25.218-29.525,38.001c-5.359,7.069-5.064,8.881,0.556,17.245
	c2.354-2.917,4.5-5.539,6.606-8.193c5.498-6.929,10.567-14.263,16.64-20.644c3.067-3.224,7.755-5.196,12.044-6.882
	c4.091-1.606,8.369,0.696,9.644,4.615c1.319,4.055-0.768,7.404-4.159,8.873c-4.562,1.976-9.581,2.91-14.428,4.2
	C969.013,492.819,967.105,493.058,964.254,493.593z"/>
<path fill-rule="evenodd" clip-rule="evenodd" d="M1821.529,504.486c-0.408,2.56-0.194,3.984-0.802,4.606
	c-7.736,7.928-16.272,14.855-26.591,19.14c-5.348,2.222-10.577,1.666-15.132-2.425c-4.837-4.343-5.427-9.9-4.71-15.842
	c0.191-1.58,0.676-3.124,0.088-5.383c-3.305,3.295-6.441,6.784-9.956,9.838c-4.943,4.295-9.855,8.756-15.346,12.262
	c-7.578,4.839-13.403,2.839-17.752-0.685c-4.614-3.739-5.283-11.123-2.405-18.151c3.401-8.305,10.221-13.164,17.6-17.148
	c7.824-4.225,16.257-7.02,25.374-6.265c1.843,0.152,3.6,1.33,5.396,2.035c-0.061,0.688-0.122,1.374-0.183,2.062
	c-2.539,0.273-5.074,0.71-7.62,0.794c-11.269,0.375-19.471,5.988-24.903,15.398c-1.361,2.358-1.463,6.741-0.142,9.046
	c1.954,3.41,6.203,3.588,9.675,1.562c4.473-2.609,8.908-5.382,12.967-8.582c8.74-6.892,14.3-15.904,18.074-26.446
	c6.479-18.091,16.062-34.614,27.549-50.014c0.781-1.048,1.797-2.023,2.906-2.702c2.365-1.446,4.217-1.839,4.512,2.063
	c0.746,9.87-1.3,19.085-7.06,27.059c-6.037,8.358-12.737,16.239-19.165,24.315c-5.071,6.373-9.096,13.064-8.899,21.706
	c0.14,6.169,2.548,10.762,7.938,13.513c5.045,2.573,9.96,1.107,14.398-1.748C1811.722,511.677,1815.873,508.502,1821.529,504.486z"
	/>
<path fill-rule="evenodd" clip-rule="evenodd" d="M30.071,483.457c-5.302,10.472-15.581,16.686-13.567,29.88
	c3.876-3.102,7.224-5.704,10.488-8.408c6.195-5.134,12.342-10.325,18.511-15.491c0.38-0.318,0.743-0.672,1.165-0.923
	c6.418-3.825,12.194-4.481,14.939-0.982c3.635,4.633,0.835,9.311-1.017,13.813c-1.271,3.094-2.604,6.162-3.909,9.241
	c0.438,0.413,0.875,0.825,1.312,1.237c2.246-1.542,4.614-2.933,6.713-4.653c6.352-5.203,12.359-10.857,18.949-15.73
	c7.815-5.778,12.895-3.693,15.321,5.757c1.172,4.562,1.843,9.263,3.184,13.769c1.773,5.96,3.948,6.825,9.348,3.425
	c4.682-2.949,8.961-6.539,14.898-10.944c-0.375,2.724,0,4.998-0.903,5.762c-7.744,6.557-15.498,13.149-23.727,19.064
	c-3.723,2.676-9.451,1.997-10.958-4.551c-1.566-6.807-3.139-13.612-4.814-20.392c-1.64-6.636-3.607-7.153-8.734-2.694
	c-9.555,8.311-19.061,16.688-28.912,24.636c-1.68,1.356-4.975,0.711-7.524,0.989c-0.257-2.394-1.392-5.138-0.603-7.113
	c2.106-5.271,5.278-10.108,7.52-15.335c0.847-1.975,0.302-4.545,0.392-6.845c-2.179,0.19-4.916-0.394-6.44,0.705
	c-6.898,4.972-13.623,10.224-20.076,15.763c-4.537,3.895-8.375,8.598-12.866,12.551c-1.513,1.332-4.495,2.485-6.039,1.852
	c-1.417-0.581-2.363-3.626-2.553-5.675c-1.634-17.597,8.733-28.483,21.75-37.604C23.607,483.377,26.477,483.884,30.071,483.457z"/>
<path fill-rule="evenodd" clip-rule="evenodd" d="M516.381,519.749c7.514-3.536,11.318-12.625,19.979-14.543
	c0.369,0.466,0.738,0.933,1.106,1.398c-4.217,3.807-8.273,7.812-12.685,11.379c-8.112,6.56-16.012,12.906-21.547,22.326
	c-7.84,13.339-18.369,24.8-30.412,34.651c-1.729,1.413-4.415,2.134-6.709,2.26c-3.166,0.175-4.45-2.669-3.3-4.91
	c2.499-4.873,5.14-9.979,8.904-13.834c8.189-8.386,17.242-15.921,25.7-24.055c4.82-4.635,8.4-10.031,7.702-17.331
	c-0.533-5.58-2.795-7.047-7.759-4.396c-7.604,4.06-14.906,8.771-22.76,12.252c-7.514,3.33-12.649-0.333-13.499-8.608
	c-0.646-6.294,0.664-12.05,5.228-16.712c4.311-4.403,8.612-8.825,13.131-13.009c1.115-1.033,3.056-1.175,4.617-1.726
	c-0.336,1.503-0.316,3.223-1.073,4.471c-2.514,4.145-5.447,8.036-7.951,12.187c-2.18,3.613-0.886,7.141,1.701,9.835
	c2.584,2.69,5.794,3.48,9.81,2.265c11.079-3.354,19.432-11.091,28.884-17.07c1.982-1.253,4.446-1.745,6.688-2.588
	c0.204,2.71,1.15,5.628,0.464,8.091C520.919,508.111,518.483,513.932,516.381,519.749z"/>
<path fill-rule="evenodd" clip-rule="evenodd" d="M723.707,85.516c-1.69,2.26-3.517,4.432-5.042,6.798
	c-3.081,4.778-7.804,9.043-5.659,15.688c1.683,5.211,6.19,7.957,11.044,5.723c7.484-3.446,14.66-7.597,21.8-11.738
	c3.651-2.118,6.882-4.949,10.42-7.281c1.224-0.808,2.801-1.081,4.465-1.688c1.589,10.29-3.243,18.322-6.729,27.013
	c7.927-3.798,11.827-12.759,20.396-14.824c0.36,0.448,0.722,0.896,1.082,1.344c-3.955,3.586-7.596,7.616-11.926,10.669
	c-11.292,7.962-19.062,18.776-27.075,29.793c-7.475,10.276-16.98,19.132-26.065,28.135c-1.677,1.661-5.608,1.047-8.499,1.483
	c0.077-2.824-0.977-6.55,0.431-8.313c5.826-7.308,12.238-14.176,18.742-20.908c5.814-6.018,12.07-11.607,18.06-17.46
	c3.892-3.803,4.292-8.683,3.94-13.761c-0.304-4.385-2.612-5.962-6.553-3.865c-7.05,3.749-13.797,8.08-20.925,11.662
	c-2.75,1.382-6.296,2.201-9.298,1.826c-4.798-0.598-6.69-4.444-7.275-11.199c-0.506-5.829,1.606-10.677,5.323-14.787
	c4.349-4.81,9.016-9.341,13.709-13.82c1.062-1.014,2.803-1.316,4.23-1.946C722.771,84.542,723.239,85.029,723.707,85.516z"/>
<path fill-rule="evenodd" clip-rule="evenodd" d="M1062.462,488.27c0.274-0.526,0.469-0.785,0.551-1.076
	c0.973-3.486,1.741-7.587,6.695-6.459c5.253,1.196,3.928,6.104,3.09,9.042c-1.129,3.961,0.049,6.092,2.664,8.534
	c3.392,3.168,3.811,7.388,3.672,11.834c-0.17,5.48,1.572,6.537,6.485,3.935c4.466-2.365,8.688-5.19,13.145-7.574
	c1.003-0.536,2.537-0.076,3.827-0.075c-0.438,1.076-0.57,2.535-1.362,3.169c-9.167,7.335-18.209,14.876-29.892,18.127
	c-3.762,1.047-8.008,1.533-9.807-1.888c-1.404-2.672-0.877-6.888,0.002-10.084c0.917-3.332,3.362-6.226,4.968-9.397
	c0.442-0.874,0.269-2.06,0.549-4.725c-3.677,2.519-6.25,4.158-8.692,5.976c-8.123,6.046-15.992,12.467-24.4,18.082
	c-3.206,2.142-7.591,3.394-11.469,3.465c-7.275,0.135-11.806-7.121-9.683-14.124c2.628-8.673,8.695-14.347,16.035-19.054
	c8.267-5.301,16.875-9.418,27.054-8.605C1057.99,487.538,1060.067,487.936,1062.462,488.27z M1062.75,496.354
	c0.188-3.665-1.572-5.156-4.502-5.348c-2.353-0.155-4.836-0.162-7.094,0.419c-9.326,2.402-17.373,6.702-20.25,16.736
	c-0.517,1.799,0.67,4.696,2.035,6.224c1.018,1.14,3.797,1.608,5.437,1.138c8.156-2.342,15.057-6.984,20.925-13.028
	C1060.881,500.866,1061.623,498.423,1062.75,496.354z"/>
<path fill-rule="evenodd" clip-rule="evenodd" d="M738.821,506.923c-2.384,2.117-4.574,4.518-7.188,6.296
	c-6.457,4.396-13.076,8.559-19.705,12.694c-1.489,0.929-3.233,1.614-4.951,1.976c-3.934,0.828-8.813,1.694-10.702-2.355
	c-1.303-2.794-0.036-7.071,0.835-10.495c0.574-2.255,2.715-4.064,3.726-6.271c0.78-1.704,0.895-3.714,1.305-5.587
	c-0.512-0.287-1.023-0.574-1.535-0.861c-4.655,3.658-9.123,7.591-14.007,10.91c-7.775,5.285-15.713,10.354-23.807,15.135
	c-4.609,2.722-9.176,0.853-12.542-2.547c-3.677-3.713-3.359-8.342-1.298-13.045c5.097-11.621,14.69-17.936,25.898-22.446
	c7.293-2.935,14.765-4.005,22.484-2.242c0.983-1.803,1.646-3.968,3.074-5.332c1.142-1.092,3.916-2.163,4.728-1.564
	c1.711,1.263,4.074,4.194,3.591,5.438c-2.206,5.671-0.844,9.492,3.366,13.759c1.956,1.982,1.72,6.421,1.917,9.779
	c0.319,5.455,1.69,6.492,6.622,3.916c4.188-2.187,8.19-4.723,12.311-7.041c1.366-0.769,2.844-1.342,4.27-2.004
	C737.749,505.664,738.285,506.294,738.821,506.923z M664.5,508.744c0.871,4.656,4.889,8.392,8.312,7.207
	c9.108-3.151,17.305-7.953,23.396-15.53c1.265-1.572,1.293-4.948,0.566-7.029c-0.495-1.415-3.446-3.043-5.047-2.814
	c-6.895,0.984-13.998,2.039-18.992,7.695C669.8,501.595,667.232,505.242,664.5,508.744z"/>
<path fill-rule="evenodd" clip-rule="evenodd" d="M902.484,88.208c0.497-1.467,0.604-3.359,1.604-4.366
	c1.449-1.46,3.593-3.172,5.347-3.076c1.289,0.07,2.76,2.724,3.524,4.495c0.534,1.239,0.482,3.173-0.128,4.381
	c-1.803,3.564-0.362,5.86,2.195,8.217c3.695,3.404,4.15,7.951,4.089,12.686c-0.063,4.933,1.593,6.028,5.952,3.757
	c4.625-2.409,9-5.298,13.603-7.754c1.017-0.542,2.533-0.146,3.82-0.181c-0.438,1.118-0.547,2.669-1.363,3.29
	c-9.184,6.992-17.953,14.683-29.487,17.838c-3.753,1.027-8.188,2.447-10.097-1.616c-1.352-2.877-0.622-7.143,0.229-10.523
	c0.77-3.057,3.143-5.678,4.442-8.65c0.527-1.208,0.087-2.839,0.087-5.086c-9.435,7.264-17.525,13.91-26.075,19.905
	c-4.45,3.12-9.545,5.526-14.654,7.438c-3.896,1.457-7.76,0.028-10.643-3.263c-2.682-3.062-3.439-6.467-2.316-10.445
	c2.477-8.777,8.541-14.923,15.818-19.391c8.324-5.11,17.213-9.698,27.655-8.505C898.17,87.597,900.246,87.908,902.484,88.208z
	 M870.075,107.998c0.033,5.745,4.717,9.515,8.077,7.649c7.342-4.072,14.346-8.763,21.396-13.343
	c1.005-0.652,1.732-2.005,2.185-3.188c1.842-4.816-1.481-9.487-6.332-8.671c-6.754,1.137-13.507,2.933-18.499,7.834
	C873.765,101.36,871.735,105.566,870.075,107.998z"/>
<path fill-rule="evenodd" clip-rule="evenodd" d="M1110.902,306.975c-2.805,2.493-5.356,5.373-8.466,7.399
	c-6.957,4.534-14.006,9.006-21.389,12.777c-3.896,1.99-8.961,2.842-12.399-1.014c-3.409-3.823-1.208-8.017,0.957-11.838
	c1.203-2.123,2.555-4.188,3.495-6.425c0.609-1.447,0.598-3.154,0.864-4.745c-0.44-0.252-0.88-0.503-1.32-0.754
	c-6.567,5.204-12.91,10.732-19.771,15.515c-5.7,3.972-11.934,7.211-18.075,10.504c-4.737,2.54-9.241,0.844-12.547-2.607
	c-3.529-3.685-3.155-8.729-1.2-12.975c5.157-11.194,14.592-17.835,25.636-22.453c7.277-3.044,14.796-3.911,23.056-2.321
	c0.381-0.998,0.53-2.713,1.466-3.557c1.786-1.612,4.021-2.729,6.07-4.051c1.244,2.334,4.021,5.175,3.448,6.906
	c-1.77,5.347-0.745,8.815,3.192,12.881c2.044,2.111,1.844,6.682,2.088,10.182c0.364,5.218,0.977,6.06,5.921,3.914
	c5.041-2.187,9.715-5.219,14.565-7.851c0.919-0.498,1.915-0.855,2.876-1.278C1109.879,305.781,1110.391,306.378,1110.902,306.975z
	 M1038.085,308.218c-0.016,6.671,3.808,9.179,8.57,7.229c1.054-0.431,2.322-0.52,3.2-1.163c6.313-4.624,12.738-9.133,18.657-14.226
	c1.209-1.041,1.132-4.692,0.336-6.59c-0.62-1.477-3.453-3.154-4.999-2.899c-4.581,0.756-9.318,1.811-13.428,3.876
	C1044.184,297.581,1038.895,302.039,1038.085,308.218z"/>
<path fill-rule="evenodd" clip-rule="evenodd" d="M1269.345,506.134c-0.767,1.247-1.328,2.7-2.333,3.71
	c-7.983,8.022-17.528,13.601-28.058,17.578c-4.052,1.53-8.378,2.151-11.404-1.425c-3.349-3.957-0.71-8.047,1.258-11.808
	c0.979-1.868,2.542-3.467,3.309-5.399c0.696-1.755,0.671-3.796,0.964-5.71c-0.449-0.188-0.897-0.377-1.347-0.565
	c-8.053,6.279-15.94,12.787-24.228,18.74c-4.052,2.91-8.773,4.942-13.326,7.087c-4.252,2.002-8.142,1.428-11.723-2.024
	c-3.718-3.583-4.356-7.675-2.667-12.166c4.622-12.287,14.548-18.94,26-23.793c7.248-3.07,14.772-4.025,22.779-2.223
	c0.775-1.431,1.348-3.25,2.535-4.471c1.33-1.368,3.979-3.454,4.714-3.01c1.826,1.104,3.091,3.362,4.161,5.38
	c0.428,0.808-0.158,2.222-0.435,3.321c-0.829,3.304-1.137,6.19,2.409,8.486c3.728,2.414,3.155,6.564,3.141,10.378
	c-0.031,7.724,1.295,8.712,8.199,5.369c5.104-2.473,9.918-5.547,14.861-8.353C1268.552,505.536,1268.949,505.835,1269.345,506.134z
	 M1229.997,496.291c-1.412-1.818-2.343-4.231-3.876-4.709c-2.431-0.757-5.305-0.523-7.921-0.176
	c-9.471,1.259-16.39,6.482-20.349,14.978c-0.988,2.121-0.156,6.018,1.309,8.025c0.965,1.322,5.104,1.749,6.881,0.806
	c6.712-3.562,13.185-7.641,19.423-11.991C1227.375,501.89,1228.249,499.066,1229.997,496.291z"/>
<path fill-rule="evenodd" clip-rule="evenodd" d="M833.577,502.176c-13.191,9.14-24.52,17.45-36.341,24.988
	c-6.043,3.854-10.615,3.016-14.456-0.613c-4.465-4.218-5.062-9.883-1.706-16.177c7.475-14.015,28.709-24.974,44.586-22.973
	c0.926,0.117,1.811,0.56,2.859,0.897c0.88-1.667,1.419-3.521,2.611-4.729c1.339-1.355,3.764-3.325,4.828-2.884
	c1.749,0.725,3.134,3.022,3.982,4.959c0.486,1.11-0.475,2.808-0.63,4.257c-0.306,2.86-1.005,5.626,2.347,7.684
	c3.96,2.43,3.48,6.728,3.447,10.738c-0.064,7.65,1.279,8.595,8.27,5.203c5.1-2.475,9.921-5.524,15.886-7.562
	c-0.762,1.328-1.278,2.901-2.323,3.945c-8.005,7.987-17.489,13.69-28.103,17.467c-2.094,0.745-4.501,1.019-6.729,0.893
	c-4.436-0.252-7.227-4.163-5.709-8.355c1.197-3.308,3.512-6.194,4.939-9.44C832.335,508.201,832.675,505.638,833.577,502.176z
	 M797.076,507.479c0.028,7.145,3.492,9.832,8.354,8.105c8.729-3.101,16.418-7.92,22.062-15.349c1.229-1.618,1.692-4.897,0.881-6.664
	c-0.733-1.597-3.787-3.198-5.65-3.022c-8.113,0.768-15.722,3.254-21.128,9.874C799.501,502.985,797.992,506.023,797.076,507.479z"/>
<path fill-rule="evenodd" clip-rule="evenodd" d="M1543.531,102.701c-8.957,6.856-17.8,13.869-26.933,20.482
	c-3.112,2.255-6.949,3.512-10.461,5.211c-4.578,2.215-9.057,1.176-12.271-2.07c-3.086-3.117-3.702-7.589-2.262-12.004
	c3.111-9.533,10.495-15.403,18.495-20.286c9.262-5.654,19.434-8.404,30.703-5.89c0.545-1.521,0.662-3.529,1.721-4.424
	c1.696-1.433,4.839-3.476,5.89-2.834c1.808,1.104,3.749,4.325,3.375,6.21c-0.948,4.773-1.228,8.295,2.934,12.207
	c2.19,2.06,1.979,6.985,2.286,10.664c0.45,5.414,1.306,6.448,6.201,4.313c4.89-2.132,9.42-5.089,14.112-7.678
	c0.947-0.522,1.912-1.012,3.863-0.759c-0.615,1.249-0.944,2.8-1.892,3.7c-8.51,8.083-18.18,14.524-29.34,18.143
	c-2.97,0.963-7.522,0.248-10.084-1.523c-3.41-2.36-1.745-6.582-0.166-9.894c1.188-2.489,2.98-4.698,4.083-7.216
	c0.81-1.85,0.938-3.999,1.369-6.014C1544.613,102.928,1544.072,102.814,1543.531,102.701z M1542.026,95.828
	c-1.448-1.686-2.416-3.874-3.864-4.26c-2.491-0.664-5.322-0.507-7.941-0.162c-9.483,1.248-16.37,6.492-20.391,14.971
	c-0.975,2.057-0.476,5.996,0.969,7.661c1.277,1.472,5.113,1.9,7.302,1.191c7.919-2.565,14.626-7.287,20.113-13.585
	C1539.556,100.104,1540.489,98.205,1542.026,95.828z"/>
<path fill-rule="evenodd" clip-rule="evenodd" d="M997.674,102.498c-7.84,6.095-15.509,12.428-23.587,18.188
	c-4.326,3.085-9.332,5.229-14.075,7.713c-4.363,2.284-8.744,1.141-11.879-1.815c-3.355-3.163-4.168-7.796-2.433-12.348
	c4.67-12.253,14.545-18.986,25.977-23.845c7.221-3.068,14.767-4.125,23.06-2.207c0.458-1.276,0.587-3.19,1.61-4.14
	c1.66-1.538,4.151-3.673,5.849-3.334c2.71,0.541,4.746,3.256,3.777,6.538c-1.316,4.463-1.67,7.946,2.546,11.742
	c2.227,2.006,2.199,6.935,2.471,10.597c0.445,5.987,1.361,7.055,6.832,4.629c4.735-2.1,9.067-5.106,13.592-7.686
	c0.921-0.524,1.908-0.931,2.865-1.391c0.407,0.38,0.814,0.761,1.222,1.142c-1.573,1.955-2.791,4.448-4.784,5.771
	c-7.731,5.126-15.551,10.166-23.661,14.653c-4.198,2.323-9.542,3.513-13.311-0.501c-3.873-4.123-0.731-8.603,1.331-12.66
	c0.809-1.59,2.177-2.933,2.789-4.575c0.7-1.877,0.844-3.962,1.229-5.956C998.621,102.842,998.148,102.67,997.674,102.498z
	 M963.042,107.791c0.159,6.958,3.714,9.731,8.479,7.627c5.3-2.341,10.478-5.159,15.229-8.461c2.948-2.049,5.448-5.107,7.353-8.204
	c2.486-4.043-0.493-8.78-5.143-8.309c-8.471,0.857-16.314,3.508-21.84,10.493C965.176,103.396,963.875,106.365,963.042,107.791z"/>
<path fill-rule="evenodd" clip-rule="evenodd" d="M1325.006,507.57c-1.589,2.174-2.406,3.886-3.728,5.003
	c-8.646,7.315-17.876,13.547-29.145,16.322c-12.497,3.078-21.844-5.992-18.607-18.469c5.116-19.724,14.537-37.592,24.25-55.3
	c4.15-7.567,8.768-14.879,13.167-22.31c0.33-0.558,0.461-1.379,0.936-1.681c2.519-1.6,5.777-4.858,7.546-4.204
	c3.298,1.22,2.349,5.016,1.899,8.534c-1.935,15.163-10.616,26.712-19.236,38.419c-5.893,8.003-11.87,15.971-17.239,24.322
	c-3.89,6.052-2.085,11.001,3.753,14.426c10.284,6.035,19.597,3.723,28.819-2.127c1.641-1.041,3.277-2.091,4.947-3.084
	C1322.604,507.283,1323.017,507.443,1325.006,507.57z"/>
<path fill-rule="evenodd" clip-rule="evenodd" d="M924.811,508.906c-2.778,2.518-5.408,5.226-8.363,7.515
	c-8.323,6.451-17.176,12.176-28.017,12.843c-13.594,0.836-17.088-9.569-14.855-18.615c1.934-7.833,4.365-15.748,7.979-22.92
	c9.454-18.763,19.655-37.149,29.632-55.646c0.687-1.273,1.79-2.538,3.022-3.249c1.706-0.983,3.718-1.438,5.6-2.118
	c0.748,2.081,2.347,4.265,2.109,6.227c-1.912,15.789-10.274,28.528-19.659,40.816c-6.13,8.027-12.178,16.164-17.577,24.686
	c-3.867,6.104-2.414,9.979,3.812,13.983c10.22,6.573,19.81,3.97,29.148-2.111c1.811-1.179,3.726-2.197,5.593-3.289
	C923.76,507.652,924.286,508.279,924.811,508.906z"/>
<path fill-rule="evenodd" clip-rule="evenodd" d="M1944.789,508.908c-2.782,2.528-5.412,5.254-8.376,7.547
	c-8.33,6.44-17.188,12.149-28.03,12.81c-13.521,0.823-17.059-9.59-14.792-18.662c1.956-7.829,4.365-15.751,7.988-22.916
	c9.409-18.605,19.577-36.828,29.511-55.166c0.765-1.413,1.845-2.887,3.166-3.708c1.654-1.028,4.788-2.463,5.377-1.859
	c1.401,1.435,2.514,4.062,2.284,6.038c-1.838,15.829-10.428,28.463-19.7,40.795c-6.169,8.205-12.499,16.373-17.74,25.163
	c-3.57,5.988-1.969,10.078,3.587,13.361c9.095,5.375,17.698,5.48,27.457-0.868c2.489-1.619,5.148-2.976,7.729-4.453
	C1943.763,507.629,1944.276,508.269,1944.789,508.908z"/>
<path fill-rule="evenodd" clip-rule="evenodd" d="M1380.24,508.429c-8.111,9.376-17.931,16.471-30.032,19.739
	c-4.197,1.134-9.092,0.873-13.423,0.015c-4.994-0.989-7.331-5.401-7.764-10.483c-0.726-8.509,1.963-16.287,5.314-23.69
	c9.412-20.792,18.682-41.704,31.797-60.552c1.645-2.363,3.948-4.398,6.293-6.11c2.923-2.134,4.466-0.923,4.676,2.604
	c0.637,10.66-3.307,20.087-8.917,28.559c-8.281,12.504-17.568,24.337-26.257,36.576c-4.328,6.097-4.999,11.876-1.252,15.121
	c5.33,4.616,11.951,7.403,19.011,5.654c5.228-1.296,10.017-4.354,15.011-6.604c1.62-0.729,3.273-1.381,4.912-2.068
	C1379.819,507.602,1380.029,508.015,1380.24,508.429z"/>
<path fill-rule="evenodd" clip-rule="evenodd" d="M2000.253,508.704c-10.689,10.685-22.102,20.114-38.428,20.629
	c-7.09,0.224-12.96-5.19-12.939-12.811c0.021-8.165,2.344-15.585,5.543-22.659c9.337-20.648,18.388-41.495,31.621-60.097
	c1.682-2.364,3.728-4.653,6.072-6.317c3.131-2.22,4.725-1.176,4.956,2.676c0.64,10.649-3.37,20.043-9.002,28.517
	c-8.211,12.354-17.343,24.094-25.928,36.205c-4.722,6.659-5.384,12.079-1.356,15.484c5.379,4.549,11.988,7.251,19.057,5.48
	c5.079-1.271,9.76-4.151,14.604-6.344c1.678-0.759,3.315-1.606,4.971-2.413C1999.701,507.604,1999.978,508.154,2000.253,508.704z"/>
<path fill-rule="evenodd" clip-rule="evenodd" d="M1403.712,108.874c-3.859,3.312-7.33,7.306-11.668,9.779
	c-7.135,4.07-14.532,8.982-22.354,10.259c-14.153,2.309-20.528-6.02-16.958-20.264c2.773-11.069,7.747-21.743,12.872-32.03
	c7.254-14.561,15.456-28.655,23.482-42.818c1.403-2.476,3.676-4.677,6.018-6.346c3.129-2.229,4.627-1.179,4.995,2.647
	c1.124,11.709-4.166,21.506-10.156,30.623c-7.785,11.85-16.795,22.888-25.067,34.427c-4.325,6.034-4.938,11.95-1.146,15.108
	c5.817,4.843,12.812,7.565,20.442,5.362c4.598-1.327,8.815-3.981,13.189-6.067c1.669-0.796,3.3-1.67,4.947-2.508
	C1402.777,107.656,1403.245,108.266,1403.712,108.874z"/>
<path fill-rule="evenodd" clip-rule="evenodd" d="M984.591,327.93c9.944-8.5,19.331-17.304,30.264-24.135
	c0.468,0.383,0.936,0.766,1.404,1.148c-0.756,1.33-1.274,2.891-2.307,3.951c-5.923,6.086-12.128,11.902-17.915,18.109
	c-4.243,4.551-8.632,9.18-11.786,14.471c-3.434,5.759-5.209,12.48-8.279,18.489c-2.724,5.333-5.939,10.488-9.567,15.241
	c-1.134,1.485-4.323,1.809-6.559,1.778c-0.611-0.009-1.673-3.229-1.685-4.981c-0.074-11.296,5.031-20.699,11.372-29.555
	c1.716-2.396,3.85-4.49,5.7-6.797c6.027-7.513,4.006-25.604-4.131-31.697c-2.361-1.768-4.889-2.908-7.911-0.727
	c-1.249,0.901-3.195,0.835-5.598,1.386c0.696-1.839,0.771-3.023,1.396-3.529c5.334-4.319,10.652-8.675,16.211-12.693
	c3.651-2.64,6.613-0.711,8.706,2.541c4.626,7.19,5.057,15.169,3.729,23.301C986.882,318.84,985.623,323.366,984.591,327.93z"/>
<path fill-rule="evenodd" clip-rule="evenodd" d="M642.874,506.738c2.895,2.223,0.155,4.405-1.419,5.551
	c-6.981,5.077-14.027,10.14-21.473,14.481c-5.763,3.361-12.143,4.31-17.771-0.819c-5.648-5.147-6.613-11.694-4.091-18.477
	c2.247-6.043,5.413-11.744,8.214-17.683c-3.175-0.467-6.549-0.69-9.754-1.55c-1.64-0.439-2.975-2.016-4.448-3.077
	c1.091-1.292,2.023-2.773,3.302-3.842c4.389-3.668,9.497-3.144,14.336-1.51c2.94,0.992,4.093,0.16,5.307-2.246
	c3.755-7.443,7.64-14.821,11.5-22.212c2.63-5.035,7.353-7.787,13.636-7.646c-0.667,13.517-10.701,22.281-16.959,33.531
	c5.595,0,10.689,0,15.785,0c-5.142,6.008-11.788,7.444-18.502,7.95c-3.477,0.263-5.442,1.069-6.589,4.43
	c-0.943,2.765-2.668,5.252-3.803,7.964c-1.765,4.216-1.709,8.477,1.624,11.853c3.58,3.626,8.479,5.322,13.104,3.359
	C630.94,514.222,636.474,510.392,642.874,506.738z"/>
<path fill-rule="evenodd" clip-rule="evenodd" d="M417.151,489.703c-3.065-0.402-6.793-0.716-10.431-1.463
	c-1.278-0.263-2.954-1.392-3.302-2.489c-0.272-0.859,1.024-2.477,1.966-3.416c4.494-4.486,9.952-4.57,15.424-2.535
	c2.921,1.086,4.065,0.151,5.278-2.26c3.745-7.444,7.675-14.796,11.489-22.205c2.758-5.356,7.561-7.094,13.59-8.174
	c0.148,14.457-10.81,22.745-16.621,34.083c5.318,0,10.407,0,15.496,0c0.126,0.568,0.252,1.138,0.377,1.706
	c-2.443,1.303-4.774,2.932-7.359,3.827c-3.358,1.162-6.975,2.592-10.38,2.371c-5.072-0.329-6.971,2.433-8.584,6.194
	c-0.833,1.941-1.439,3.999-2.443,5.844c-2.528,4.646-1.97,9.094,1.581,12.631c3.424,3.411,8.196,4.818,12.728,2.955
	c4.901-2.016,9.356-5.124,13.982-7.796c1.315-0.76,2.548-1.661,3.818-2.497c0.441,0.276,0.884,0.554,1.325,0.83
	c-0.536,1.384-0.685,3.194-1.668,4.084c-7.789,7.051-16.149,13.257-26.125,17.014c-5.33,2.007-10.239,1.041-14.115-2.642
	c-4.077-3.873-6.438-9.267-4.73-14.771C410.683,503.787,414.123,496.954,417.151,489.703z"/>
<path fill-rule="evenodd" clip-rule="evenodd" d="M282.829,507.072c-7.669,7.927-15.956,15.06-25.989,19.951
	c-6.127,2.987-10.051,1.504-11.773-5.108c-1.141-4.377-1.143-9.04-2.065-13.49c-0.569-2.745-1.242-6.699-3.091-7.601
	c-1.853-0.903-5.8,0.613-7.834,2.282c-8.522,6.99-16.673,14.435-24.954,21.718c-0.499,0.439-0.869,1.136-1.438,1.364
	c-2.448,0.98-4.948,1.83-7.43,2.728c-0.724-2.383-1.931-4.732-2.095-7.153c-1.184-17.503,9.454-27.787,22.715-36.278
	c1.416-0.906,3.487-0.786,5.255-1.143c0.345,0.454,0.69,0.907,1.035,1.361c-2.193,3.215-4.675,6.274-6.51,9.682
	c-2.512,4.662-4.616,9.554-6.685,14.436c-0.364,0.858,0.298,2.152,0.486,3.245c1.035-0.24,2.336-0.162,3.063-0.771
	c5.174-4.323,10.097-8.955,15.367-13.153c4.195-3.341,8.565-6.566,13.223-9.195c6.586-3.718,11.042-1.097,11.972,6.475
	c0.636,5.181,1.121,10.392,2.049,15.521c0.848,4.68,3.732,5.926,7.917,3.354c4.162-2.559,7.975-5.676,12.049-8.385
	c1.186-0.789,2.745-1.017,4.132-1.502C282.428,505.963,282.628,506.518,282.829,507.072z"/>
<path fill-rule="evenodd" clip-rule="evenodd" d="M1600.362,513.562c-4.829,3.849-9.632,8.064-14.836,11.709
	c-4.752,3.328-9.839,5.568-16.036,2.94c-6.492-2.753-8.363-12.458-8.184-17.566c0.197-5.607,4.551-8.085,7.52-11.644
	c3.473-4.161,6.731-8.563,10.653-12.255c1.477-1.39,4.551-1.082,6.897-1.548c-0.412,2.192-0.279,4.709-1.349,6.512
	c-2.323,3.916-5.228,7.492-7.958,11.16c-2.653,3.563-3.049,7.467-0.581,10.991c2.56,3.655,8.346,4.603,12.536,2.482
	c8.859-4.482,15.534-11.57,22.035-18.845c2.421-2.71,4.67-5.675,7.505-7.866c1.279-0.989,3.802-0.369,5.761-0.479
	c-0.189,1.643,0.104,3.568-0.662,4.873c-2.055,3.501-4.707,6.646-6.849,10.103c-2.101,3.39-1.87,6.716,1.157,9.637
	c3.092,2.985,6.71,3.589,10.411,1.74c5.076-2.535,9.948-5.478,15.917-7.678c-0.56,1.464-0.688,3.629-1.748,4.282
	c-8.597,5.298-17.3,10.436-26.116,15.36c-4.094,2.287-7.811,0.896-10.234-2.897C1604.025,521.167,1602.379,517.422,1600.362,513.562
	z"/>
<path fill-rule="evenodd" clip-rule="evenodd" d="M1304.144,113.167c-5.653,4.432-10.447,8.729-15.791,12.173
	c-3.158,2.035-7.116,3.509-10.839,3.839c-6.671,0.593-11.239-5.39-12.613-12.492c-1.899-9.813,4.39-15.208,9.698-21.283
	c2.952-3.379,6.146-6.6,9.588-9.464c1.141-0.949,3.393-0.563,5.137-0.788c0.08,1.729,0.877,3.924,0.111,5.107
	c-2.834,4.38-6.19,8.421-9.336,12.6c-2.502,3.323-3.283,6.91-0.588,10.373c3.336,4.283,7.677,5.316,12.24,3.201
	c9.226-4.278,15.745-11.745,22.35-19.112c2.431-2.71,4.765-5.591,7.594-7.82c1.206-0.95,3.571-0.43,5.409-0.577
	c-0.065,1.625,0.397,3.54-0.304,4.815c-1.563,2.843-3.712,5.362-5.615,8.019c-2.608,3.637-3.48,7.591-0.738,11.362
	c2.751,3.784,7.663,4.391,12.482,1.815c3.589-1.918,6.928-4.301,10.504-6.243c1.073-0.582,2.572-0.38,3.875-0.537
	c-0.542,1.361-0.691,3.267-1.693,3.992c-4.752,3.437-9.66,6.676-14.667,9.733c-2.892,1.766-6.192,2.858-9.106,4.593
	c-8.115,4.828-12.352,0.282-15.699-7.285C1305.373,117.448,1304.927,115.564,1304.144,113.167z"/>
<path fill-rule="evenodd" clip-rule="evenodd" d="M1444.569,113.399c-5.836,4.435-11.186,8.74-16.784,12.692
	c-7.255,5.121-14.078,4.572-19.14-1.782c-3.975-4.991-5.556-15.533-0.309-20.849c5.079-5.146,9.635-10.808,14.4-16.259
	c2.106-2.408,4.777-4.554,7.403-1.784c0.909,0.959-0.359,4.78-1.539,6.753c-2.333,3.901-5.187,7.515-8.034,11.079
	c-2.674,3.348-3.266,7.046-0.642,10.2c2.695,3.239,6.641,5.084,11.061,3.442c9.23-3.429,15.672-10.47,22.102-17.501
	c3.127-3.419,6.21-6.915,9.672-9.97c1.063-0.938,3.316-0.528,5.025-0.735c-0.119,1.629,0.228,3.498-0.46,4.834
	c-1.254,2.437-3.037,4.624-4.749,6.798c-4.09,5.191-4.666,9.582-1.359,13.337c3.029,3.438,9.195,3.837,13.525,0.813
	c3.201-2.234,6.611-4.172,9.964-6.185c0.789-0.475,1.716-0.72,2.579-1.07c0.395,0.348,0.79,0.695,1.185,1.043
	c-1.549,1.92-2.746,4.381-4.711,5.662c-6.687,4.355-13.521,8.521-20.531,12.331c-7.37,4.005-12.802,1.834-16.082-5.938
	C1446.206,118.087,1445.451,115.783,1444.569,113.399z"/>
<path fill-rule="evenodd" clip-rule="evenodd" d="M1226.257,86.138c-2.443,1.061-4.857,2.193-7.334,3.167
	c-6.133,2.408-12.217,4.803-14.737,11.766c-2,5.524-0.255,10.14,4.896,13.297c12.559,7.696,27.047-0.229,30.311-12.292
	c-4.954-1.314-9.912-2.63-15.738-4.175c2.55-5.427,4.709-10.022,7.192-15.308c9.985,5.979,19.261,13.538,33.236,8.616
	c-1.533,2.165-2.015,3.64-2.957,4.045c-5.037,2.167-10.227,3.981-15.276,6.122c-1.207,0.512-2.673,1.618-3.026,2.759
	c-5.284,17.026-24.298,26.255-38.869,25.096c-11.332-0.902-17.597-8.836-13.889-20.126c4.105-12.497,14.354-18.177,25.513-22.675
	c3.161-1.274,6.66-1.71,10.004-2.53C1225.807,84.646,1226.033,85.392,1226.257,86.138z"/>
<path fill-rule="evenodd" clip-rule="evenodd" d="M1698.894,502.203c-5.22-1.583-10.107-3.064-15.184-4.604
	c1.992-4.499,3.643-8.032,5.126-11.635c1.206-2.929,2.537-3.22,5.21-1.3c5.415,3.89,10.964,7.789,17.993,8.142
	c3.376,0.169,6.768,0.029,10.808,0.029c-3.376,4.541-8.308,6.353-13.13,7.293c-4.646,0.907-7.065,2.704-8.794,7.257
	c-5.964,15.713-27.858,24.834-41.214,21.064c-8.673-2.448-12.675-9.84-10.151-19.176c1.91-7.065,6.834-11.86,12.286-15.612
	c5.544-3.814,12.165-6.097,18.404-8.845c1.349-0.595,3.082-0.317,4.639-0.441c0.194,0.47,0.389,0.939,0.583,1.41
	c-1.267,0.852-2.458,1.855-3.813,2.528c-4.211,2.092-8.662,3.759-12.684,6.154c-4.249,2.53-6.348,6.651-5.853,11.7
	c0.48,4.916,3.698,7.96,7.977,9.626C1683.783,520.734,1695.462,513.797,1698.894,502.203z"/>
<path fill-rule="evenodd" clip-rule="evenodd" d="M1839.355,507.912c2.077,5.867,7.289,8.912,14.918,9.499
	c10.904,0.84,20.073-3.562,29.05-8.819c1.173-0.687,2.342-1.379,3.513-2.068c0.475,0.356,0.948,0.713,1.422,1.069
	c-0.861,1.511-1.349,3.615-2.646,4.434c-8.274,5.216-16.478,10.639-25.185,15.044c-10.186,5.154-25.666,2.126-30.638-7.31
	c-3.969-7.532-1.145-15.742,5.27-22.771c7.316-8.018,16.21-13.649,26.957-16.169c4.142-0.971,7.712-0.556,9.91,3.292
	c2.271,3.977,1.322,7.843-1.451,11.363c-3.98,5.051-9.61,7.252-15.507,8.837C1849.812,505.7,1844.56,506.728,1839.355,507.912z
	 M1840.084,503.946c4.11-0.862,8.511-1.088,12.245-2.781c3.195-1.45,5.939-4.326,8.227-7.11c0.789-0.961,0.109-3.914-0.866-5.254
	c-0.613-0.842-3.132-0.804-4.607-0.427C1847.367,490.349,1843.042,496.075,1840.084,503.946z"/>
<path fill-rule="evenodd" clip-rule="evenodd" d="M1397.006,507.903c2.756,7.376,8.971,8.756,15.399,9.401
	c10.867,1.091,20.049-3.67,29.094-8.821c1.187-0.676,2.73-0.724,4.108-1.062c-0.681,1.313-1.037,3.035-2.095,3.876
	c-9.605,7.636-19.496,15.023-31.77,17.651c-9.943,2.129-23.402-1.34-26.173-14.651c-1.251-6.014,1.849-10.959,5.386-15.105
	c7.474-8.762,16.567-15.207,28.097-18.042c4.57-1.124,8.262-0.774,10.843,2.962c2.914,4.22,0.959,8.826-2.047,11.593
	c-3.854,3.547-8.682,6.443-13.585,8.333C1409.009,506.063,1403.177,506.595,1397.006,507.903z M1397.089,503.351
	c2.116,0,3.802,0.278,5.359-0.049c6.043-1.271,12.504-2.127,15.618-8.49c0.76-1.552,0.413-4.122-0.384-5.757
	c-0.392-0.804-3.052-0.969-4.551-0.691C1404.669,489.933,1400.483,496.173,1397.089,503.351z"/>
<path fill-rule="evenodd" clip-rule="evenodd" d="M2017.38,507.857c1.908,5.824,7.15,8.976,14.809,9.545
	c10.908,0.812,20.064-3.74,29.153-8.779c1.237-0.686,2.731-0.908,4.106-1.345c-0.576,1.312-0.796,3.067-1.786,3.864
	c-9.695,7.801-19.734,15.291-32.186,17.878c-9.638,2.003-23.037-1.378-25.819-14.524c-1.331-6.286,1.841-11.239,5.487-15.497
	c7.493-8.748,16.613-15.13,28.168-17.893c4.218-1.009,7.837-0.759,10.162,2.414c2.956,4.031,1.929,9.091-1.48,12.04
	c-4.2,3.633-9.325,6.541-14.514,8.592C2028.416,506.155,2022.767,506.684,2017.38,507.857z M2017.109,503.352
	c1.787,0,3.424,0.209,4.989-0.037c6.188-0.973,12.397-2.257,15.881-8.174c0.86-1.462,0.668-4.204-0.163-5.757
	c-0.51-0.951-3.259-1.294-4.824-0.99C2024.574,490.028,2020.416,496.284,2017.109,503.352z"/>
<path fill-rule="evenodd" clip-rule="evenodd" d="M298.962,507.875c2.918,7.424,9.095,8.838,15.566,9.438
	c10.863,1.007,20.044-3.698,29.064-8.906c1.151-0.664,2.716-0.611,4.089-0.891c-0.615,1.193-0.927,2.794-1.894,3.519
	c-11.747,8.815-23.106,18.519-39.098,18.327c-7.569-0.09-18.418-5.807-19.029-15.745c-0.356-5.805,1.854-10.537,5.362-14.539
	c7.588-8.658,16.59-15.203,28.162-17.933c4.55-1.073,8.263-0.879,10.771,3.073c2.711,4.271,0.884,8.825-2.186,11.588
	c-3.899,3.51-8.713,6.408-13.624,8.281C310.885,506.096,305.052,506.605,298.962,507.875z M298.947,503.351
	c2.249,0,3.926,0.27,5.483-0.048c6.062-1.233,12.495-2.136,15.631-8.472c0.767-1.549,0.425-4.121-0.365-5.762
	c-0.387-0.804-3.037-0.964-4.544-0.71C306.576,489.807,302.81,496.493,298.947,503.351z"/>
<path fill-rule="evenodd" clip-rule="evenodd" d="M143.751,507.682c2.28,7.247,7.975,8.812,13.479,9.526
	c9.758,1.265,18.765-1.728,27.161-6.665c2.373-1.396,4.794-2.709,8.204-3.302c-0.865,1.562-1.341,3.693-2.658,4.592
	c-9.773,6.673-19.084,14.201-30.958,17.146c-10.234,2.538-21.497-2.264-25.744-11.254c-3-6.351-0.747-12.094,3.172-16.859
	c7.715-9.381,16.919-16.667,29.21-19.718c5.039-1.251,8.508-0.239,11.134,3.597c1.954,2.854-0.252,11.257-3.754,12.955
	c-6.814,3.305-13.968,5.941-21.086,8.571C149.517,507.156,146.805,507.184,143.751,507.682z M143.917,503.192
	c7.35,0.644,13.719-1.144,18.867-5.503c1.711-1.449,2.356-5.502,1.791-7.977c-0.85-3.712-4.625-1.952-6.543-1.149
	C151.54,491.276,146.786,496.014,143.917,503.192z"/>
<path fill-rule="evenodd" clip-rule="evenodd" d="M1160.761,502.653c4.003,1.132,8.46,2.392,13.441,3.8
	c-5.422,3.797-10.646,1.647-15.37,0.523c-3.747-0.893-5.815,0.312-8.319,2.395c-6.927,5.762-13.801,11.613-21.047,16.954
	c-7.26,5.351-10.93,4.074-13.521-4.592c-1.837-6.143-2.888-12.521-4.371-19.156c-1.438,1.277-2.742,2.438-4.048,3.597
	c-0.434-0.172-0.867-0.345-1.301-0.517c0.412-1.398,0.485-3.043,1.293-4.152c3.745-5.147,7.871-10.024,11.498-15.25
	c1.812-2.61,4.083-3.943,6.521-2.369c0.995,0.643,0.979,4.145,0.284,5.895c-3.5,8.831,0.787,16.438,3.557,24.203
	c1.006,2.821,3.743,2.815,6.206,1.184c5.428-3.598,10.85-7.204,16.287-10.815c-5.577-7.463-5.096-11.737,1.997-17.192
	c2.177-1.674,4.632-3.109,7.166-4.151c1.6-0.657,4.625-1.135,5.179-0.369c1.175,1.628,2.093,4.476,1.443,6.188
	C1165.891,493.482,1163.254,497.808,1160.761,502.653z"/>
<path fill-rule="evenodd" clip-rule="evenodd" d="M1556.771,508.34c-2.627,0-5.617,0.826-7.82-0.141
	c-10.49-4.606-16.572,2.144-23.402,8.027c-5.168,4.451-10.892,8.296-16.587,12.081c-3.574,2.375-6.882,1.4-8.198-2.812
	c-1.828-5.852-3.202-11.848-4.643-17.813c-0.362-1.504-0.236-3.125-0.413-5.938c-1.207,1.459-1.46,2.038-1.886,2.229
	c-1.311,0.585-2.688,1.022-4.04,1.517c0.53-1.31,0.835-2.78,1.632-3.899c3.122-4.387,6.427-8.644,9.603-12.992
	c0.857-1.175,1.208-3.03,2.31-3.643c1.565-0.869,3.609-0.878,5.449-1.254c0.226,1.619,1.129,3.534,0.57,4.811
	c-3.87,8.848,0.288,16.709,2.79,24.729c0.954,3.061,3.278,3.982,6.228,2.054c5.447-3.564,10.903-7.116,16.543-10.795
	c-1.056-1.932-1.916-3.584-2.848-5.194c-1.835-3.17-1.319-6.293,1.226-8.492c3.565-3.082,7.407-5.981,11.521-8.254
	c3.568-1.973,6.9,0.182,6.059,4.213c-1.063,5.099-3.695,9.869-6.053,15.793c3.346,1.112,7.715,2.565,12.085,4.019
	C1556.854,507.169,1556.812,507.754,1556.771,508.34z"/>
<path fill-rule="evenodd" clip-rule="evenodd" d="M784.615,102.156c-0.132,0.314-0.19,0.94-0.514,1.143
	c-1.348,0.841-2.774,1.554-4.173,2.312c0.557-1.425,0.857-3.029,1.715-4.242c3.014-4.266,6.226-8.393,9.348-12.582
	c0.679-0.911,1.099-2.231,1.99-2.721c1.827-1.003,3.893-1.571,5.86-2.318c0.103,2.106,0.777,4.383,0.209,6.289
	c-2.636,8.857,0.454,16.728,3.932,24.493c0.394,0.878,3.153,1.699,4.035,1.191c5.639-3.249,11.124-6.784,16.462-10.51
	c0.609-0.426,0.468-2.901-0.146-3.943c-3.315-5.626-3.215-8.183,1.778-12.33c2.992-2.486,6.311-4.734,9.807-6.418
	c3.914-1.885,6.908,0.073,5.97,4.223c-1.179,5.213-3.771,10.105-6.056,15.903c3.398,1.081,7.717,2.454,12.034,3.827
	c-0.044,0.613-0.088,1.227-0.132,1.841c-2.75,0-5.528,0.241-8.243-0.068c-2.72-0.311-5.601-2.125-8.005-1.558
	c-3.243,0.765-6.295,2.905-9.08,4.934c-7.397,5.387-14.42,11.304-21.967,16.461c-4.013,2.742-7.403,1.561-8.938-3.113
	C788.14,117.776,786.663,110.293,784.615,102.156z"/>
<path fill-rule="evenodd" clip-rule="evenodd" d="M351.08,503.659c2.094-1.788,4.158-3.612,6.289-5.354
	c3.067-2.508,7.01-3.931,7.062-9.233c0.031-3.143,14.438-12.808,17.862-12.614c1.597,0.09,4.471,1.278,4.451,1.895
	c-0.062,1.944-0.67,4.578-2.061,5.635c-3.59,2.726-2.976,3.958,0.534,6.148c11.192,6.984,11.083,14.806,4.748,24.414
	c-6.313,9.574-15.032,15.368-27.039,14.793c-9.046-0.434-12.424-7.28-9.61-12.816c1.138-2.24,4.251-4.378,6.729-4.736
	c1.808-0.262,4.145,2.351,6.049,3.92c0.822,0.678,1.179,1.943,1.694,2.968c2.923,5.801,5.123,6.182,9.783,1.675
	c6.892-6.665,6.155-14.744-1.827-20.068c-7.387-4.927-7.392-4.935-14.607,0.062c-1.876,1.3-3.605,2.854-5.598,3.928
	c-1.124,0.606-2.646,0.473-3.989,0.672C351.394,504.518,351.237,504.088,351.08,503.659z"/>
<path fill-rule="evenodd" clip-rule="evenodd" d="M569.941,486.89c2.502,1.919,4.752,3.77,7.127,5.442
	c5.737,4.04,7.162,8.569,5.042,15.389c-3.43,11.032-17.476,22.882-29.785,21.695c-5.956-0.573-9.542-2.61-10.878-7.248
	c-1.1-3.819,1.01-8.203,4.701-9.769c4.035-1.712,7.219-0.367,9.479,4.006c0.151,0.292,0.246,0.626,0.445,0.879
	c1.599,2.026,3.713,5.955,4.731,5.69c2.91-0.756,6.071-2.697,7.882-5.111c4.503-6.004,2.802-13.243-3.419-17.471
	c-8.209-5.578-8.21-5.58-16.368,0.663c-1.559,1.193-2.984,2.635-4.699,3.519c-0.888,0.457-2.277-0.058-3.439-0.133
	c0.45-1.027,0.701-2.227,1.4-3.04c0.95-1.106,2.236-1.926,3.391-2.854c3.278-2.635,6.171-4.812,8.265-9.35
	c2.747-5.951,8.981-10.846,16.127-12.674c1.616-0.414,4.62,0.728,5.395,2.069c0.669,1.162-0.635,3.792-1.608,5.455
	C573.057,485.195,571.46,485.802,569.941,486.89z"/>
<path fill-rule="evenodd" clip-rule="evenodd" d="M1007.686,264.605c-4.933,6.878-11.235,8.653-17.733,4.713
	c-3.707-2.248-4.333-5.133-1.907-8.785c4.181-6.293,6.994-6.52,12.442-1.354C1002.567,261.149,1005.077,262.664,1007.686,264.605z"
	/>
<path fill-rule="evenodd" clip-rule="evenodd" d="M685.305,452.521c1.776,1.575,2.828,2.577,3.953,3.488
	c1.986,1.611,3.128,4.909,6.765,3.526c0.055-0.021,1.497,2.797,1.273,2.97c-3.122,2.409-6.193,5.732-9.754,6.443
	c-2.66,0.532-6.232-2.059-8.923-3.94c-0.888-0.62-1.017-3.86-0.219-5.045C680.215,457.271,682.82,455.109,685.305,452.521z"/>
<path fill-rule="evenodd" clip-rule="evenodd" d="M923.488,69.927c-1.642-0.744-2.134-0.875-2.518-1.156
	c-2.63-1.923-5.237-3.877-7.853-5.821c2.422-3.091,4.669-6.36,7.447-9.089c0.432-0.423,3.837,1.224,4.904,2.639
	c1.551,2.056,2.594,3.938,5.676,3.09c0.271-0.074,2.048,3.479,1.804,3.671C929.753,65.781,926.32,68,923.488,69.927z"/>
<path fill-rule="evenodd" clip-rule="evenodd" d="M901.758,61.112c0.224,2.543-3.667,7.049-8.508,8.159
	c-2.886,0.661-10.271-2.739-10.875-5.469c-1.045-4.716,2.512-7.1,5.711-9.416c3.025-2.188,4.339-0.145,6.212,2.16
	C895.846,58.453,898.681,59.313,901.758,61.112z"/>
<path fill-rule="evenodd" clip-rule="evenodd" d="M716.506,453.147c4.478,2.26,5.65,7.638,10.914,6.426
	c0.103-0.023,1.203,2.127,0.923,2.953c-1.513,4.457-5.646,6.465-9.529,6.484c-3.186,0.016-6.614-2.323-9.426-4.332
	c-0.774-0.553-0.365-4.139,0.636-5.496C711.806,456.765,714.455,454.984,716.506,453.147z"/>
<path fill-rule="evenodd" clip-rule="evenodd" d="M1025.792,61.329c-0.017,2.998-3.646,7.479-9.368,7.566
	c-3.318,0.051-7.984-2.292-9.719-5.03c-2.438-3.852,1.907-6.747,4.698-9.116c2.401-2.037,4.278-1.05,6.313,1.451
	C1019.355,58.215,1022.277,59.187,1025.792,61.329z"/>
<path fill-rule="evenodd" clip-rule="evenodd" d="M982.852,53.235c4.085,2.119,5.345,7.677,10.786,6.452
	c0.044-0.01,1.28,2.688,0.845,3.574c-2.457,4.997-10.025,6.807-15.133,4.195c-4.181-2.138-6.579-6.649-1.504-10.379
	C979.63,55.767,981.362,54.382,982.852,53.235z"/>
</svg>
