<?xml version="1.0" encoding="utf-8"?>
<!-- Generator: Adobe Illustrator 16.0.0, SVG Export Plug-In . SVG Version: 6.00 Build 0)  -->
<!DOCTYPE svg PUBLIC "-//W3C//DTD SVG 1.1//EN" "http://www.w3.org/Graphics/SVG/1.1/DTD/svg11.dtd">
<svg version="1.1" id="Lag_1" xmlns="http://www.w3.org/2000/svg" xmlns:xlink="http://www.w3.org/1999/xlink" x="0px" y="0px"
	 width="2201.116px" height="776.172px" viewBox="0 0 2201.116 776.172" enable-background="new 0 0 2201.116 776.172"
	 xml:space="preserve">
<path fill-rule="evenodd" clip-rule="evenodd" d="M333.405,102.633c-5.464,21.414-10.89,42.685-16.358,64.121
	c7.478,0,14.795,0,22.169,0c-0.131,1.438-0.285,3.139-0.459,5.047c-9.25,2.522-18.528,1.298-27.965,0.739
	c-9.978-0.59-20.073,0.81-30.117,1.348c-1.113,0.06-2.223,0.163-3.305,0.244c-0.546-4.94,2.162-7.09,6.193-7.714
	c12.998-2.012,18.505-10.987,21.381-22.535c6.41-25.742,12.825-51.484,19.248-77.225c0.509-2.04,1.465-4.046,1.562-6.099
	c0.238-5.044-3.113-5.94-7.742-5.179c0.512-2.283,0.908-4.051,1.272-5.674c9.51-1.447,18.819-2.863,28.346-4.312
	c-4.164,16.258-8.269,32.285-12.373,48.312c24.036,8.168,48.258-12.577,47.949-33.662c-0.205-14.047-10.573-23.831-22.931-25.729
	c-23.887-3.668-44.866,3.128-63.397,18.404c-10.447,8.612-17.884,19.146-20.309,32.493c-1.795,9.886-1.952,19.848,7.037,27.243
	c2.177,1.791,4.091,3.917,6.027,5.981c2.864,3.055,3.51,6.775,0.583,9.718c-2.752,2.768-6.596,2.518-9.737,0.034
	c-6.772-5.355-10.199-12.62-11.559-21.016c-2.944-18.188,1.869-34.296,12.968-48.734c10.554-13.729,24.479-22.617,40.713-28.084
	c12.114-4.079,24.663-6.145,37.354-4.976c12.334,1.136,24.635,2.965,34.229,12.471c8.674,8.594,10.541,18.382,7.043,29.697
	c-5.689,18.404-19.783,27.264-36.94,32.641c-2.94,0.922-5.979,1.532-8.121,2.072c6.918,19.121,13.606,38.33,20.836,57.334
	c4.847,12.741,11.203,24.756,21.216,34.367c5.199,4.991,11.129,8.447,18.747,8.303c8.785-0.166,13.061-3.144,15.98-11.662
	c0.631-1.842,0.84-4.243,2.131-5.348c2.036-1.742,4.868-3.668,7.284-3.569c2.979,0.121,4.759,2.663,4.667,6.395
	c-0.202,8.182-6.444,15.808-16.636,19.117c-16.977,5.514-31.66,0.509-44.549-10.651c-18.565-16.074-27.542-37.863-34.83-60.49
	c-2.99-9.285-5.649-18.688-8.116-28.128C341.534,102.7,338.633,101.049,333.405,102.633z"/>
<path fill-rule="evenodd" clip-rule="evenodd" d="M82.415,625.648c15.295-0.11,28.517,4.574,39.077,15.701
	c8.599,9.061,12.856,20.119,14.508,32.46c3.236,24.181-3.999,45.578-17.116,65.318c-11.525,17.346-26.821,29.822-47.676,34.43
	c-17.216,3.804-33.737,1.96-48.65-7.616c-11.96-7.681-19.49-19.196-21.474-33.231c-3.993-28.258,3.066-53.729,20.968-76.216
	c11.285-14.176,24.895-24.647,42.798-28.636C70.584,626.581,76.553,626.355,82.415,625.648z M114.825,689.93
	c0.503-0.087,1.006-0.174,1.509-0.261c-1.795-9.257-2.492-18.902-5.603-27.693c-7.869-22.241-24.452-30.356-46.449-25.803
	c-19.189,3.973-29.691,17.659-36.246,34.735c-5.674,14.78-7.479,30.212-6.283,46.161c0.773,10.315,2.6,20.139,7.695,29.068
	c9.369,16.419,23.812,22.347,40.027,19.673c18.479-3.047,29.639-15.824,36.986-31.903
	C112.78,720.078,115.845,705.322,114.825,689.93z"/>
<path fill-rule="evenodd" clip-rule="evenodd" d="M1024.674,636.418c-14.856-1.057-28.563,0.882-40.578,9.772
	c-4.577,3.388-8.735,7.207-9.141,13.297c-0.166,2.485,0.562,5.139,1.376,7.551c0.764,2.264,2.499,4.204,3.236,6.472
	c1.645,5.055-1.096,10.893-5.183,11.689c-4.927,0.96-9.812-3.09-10.419-8.854c-1.204-11.456,2.361-21.331,10.118-29.777
	c9.649-10.506,21.64-16.209,35.794-17.332c9.857-0.783,19.732-1.325,29.597-2.033c2.062-0.148,4.104-0.553,6.895-0.941
	c-2.901,5.799-5.712,10.944-8.104,16.277c-9.194,20.507-18.564,41.028-22.944,63.205c-2.901,14.688-3.213,29.475,6.61,42.381
	c4.217,5.541,9.741,9.204,16.733,10.066c22.102,2.727,37.866-8.379,51.248-24.101c11.919-14.004,19.588-30.397,25.361-47.697
	c6.48-19.416,9.898-39.117,3.639-59.306c-1.731-5.581-3.938-11.038-6.255-16.409c-1.929-4.471,0.035-7.734,3.361-9.739
	c3.109-1.875,6.354-0.952,9.273,1.976c4.523,4.537,5.545,10.316,6.54,16.036c1.995,11.474,0.752,22.912-0.74,34.4
	c-2.29,17.62-7.478,34.373-14.148,50.699c-5.953,14.571-13.4,28.237-23.612,40.488c-12.671,15.202-28.178,25.512-47.517,29.151
	c-24.377,4.588-46.658-5.518-49.935-36.288c-2.181-20.489,3.498-39.479,10.645-58.134c4.775-12.467,10.491-24.574,15.767-36.852
	C1023.12,640.488,1023.845,638.515,1024.674,636.418z"/>
<path fill-rule="evenodd" clip-rule="evenodd" d="M636.596,172.219c5.878-25.157,11.5-49.721,17.38-74.222
	c4.439-18.496,8.791-37.03,13.936-55.335c6.483-23.076,22.585-36.473,45.432-42.036c3.938-0.959,8.303-0.622,12.416-0.261
	c3.806,0.334,7.492,5.422,7.105,8.908c-0.438,3.946-4.708,7.928-9.339,7.848c-4.896-0.085-9.778-0.933-14.666-1.464
	c-0.978-0.106-1.943-0.374-2.921-0.42c-13.183-0.621-17.462,2.175-20.701,15.537c-5.403,22.292-10.227,44.726-15.263,67.106
	c-0.138,0.611,0.087,1.304,0.237,3.089c1.803-1.607,3.144-2.619,4.267-3.832c8.669-9.369,18.716-17.023,29.674-23.449
	c3.326-1.951,7.099-3.364,10.847-4.32c6.427-1.64,11.847,2.902,11.928,9.575c0.157,13.021-4.973,24.848-8.334,37.086
	c-3.7,13.47-7.181,27.002-10.507,40.568c-0.343,1.4,0.606,3.659,1.723,4.688c0.766,0.707,3.252,0.53,4.296-0.206
	c6.007-4.24,11.812-8.768,17.694-13.185c0.374-0.28,0.833-0.45,1.293-0.692c2.94,2.022,2.756,3.713,0.284,6.183
	c-8.654,8.646-17.742,16.463-29.416,20.987c-7.897,3.061-12.568-3.019-13.036-9.234c-0.933-12.402,2.794-23.977,6.332-35.563
	c3.324-10.884,6.913-21.686,10.27-32.56c0.715-2.314,1.167-4.769,1.315-7.185c0.206-3.35-4.142-5.931-8.229-4.311
	c-4.335,1.72-8.562,4.013-12.364,6.72c-12.026,8.566-21.243,19.184-24.463,34.223c-3.029,14.153-6.463,28.223-9.952,42.271
	c-0.341,1.37-2.243,3.212-3.555,3.328C645.662,172.469,640.989,172.219,636.596,172.219z"/>
<path fill-rule="evenodd" clip-rule="evenodd" d="M1647.279,634.035c-15.593,1.029-29.721,5.097-42.218,14.446
	c-6.379,4.772-11.303,10.516-14.023,17.915c-2.18,5.928-1.531,11.854,1.195,17.655c1.286,2.739,2.308,5.797,2.511,8.773
	c0.115,1.694-1.326,4.597-2.671,5.016c-1.794,0.559-4.79-0.101-6.198-1.399c-6.171-5.69-7.119-13.364-5.487-20.938
	c5.613-26.057,24.059-39.146,48.297-45.063c10.58-2.582,21.718-2.876,32.601-4.222c2.728-0.338,5.449-0.723,8.938-1.188
	c-4.298,6.926-8.18,13.21-12.089,19.477c-6.58,10.548-10.697,22.18-11.983,34.341c-1.578,14.93-1.901,30.025-2.073,45.058
	c-0.087,7.671,1.344,15.358,2.108,23.25c0.928-0.127,2.014,0.062,2.443-0.384c14.294-14.8,28.755-29.448,42.702-44.569
	c13.916-15.089,28.958-29.383,39.235-47.384c4.126-7.228,7.612-15.362,8.909-23.48c0.929-5.815-1.945-12.386-3.737-18.437
	c-1.183-3.991-1.514-7.643,1.63-10.456c3.913-3.503,8.564-3.905,12.532,2.806c4.004,6.773,3.726,14.319,2.623,21.63
	c-2.571,17.054-11.546,31.089-22.61,43.726c-13.601,15.533-27.645,30.685-41.724,45.789c-13.454,14.434-27.253,28.546-40.788,42.904
	c-4.911,5.211-9.499,10.727-14.833,16.782c-0.607-6.328-1.252-11.623-1.598-16.937c-0.76-11.693-1.299-23.401-2.063-35.094
	c-0.537-8.209-1.725-16.395-1.866-24.604c-0.25-14.504,1.098-28.902,7.479-42.205
	C1638.239,649.488,1642.79,642.133,1647.279,634.035z"/>
<path fill-rule="evenodd" clip-rule="evenodd" d="M1444.721,29.22c-4.376,12.463-9.584,25.632-13.624,39.15
	c-8.053,26.939-15.191,54.151-23.242,81.091c-4.866,16.279-11.993,31.462-24.9,43.331c-11.979,11.016-34.077,17.385-49.546,8.219
	c-4.329-2.564-7.733-5.588-8.814-11.127c-0.729-3.732,0.702-5.618,2.867-7.909c2.568-2.719,5.128-1.931,7.486-0.172
	c3.805,2.836,7.758,5.625,10.981,9.06c7.981,8.503,22.75,7.616,28.84-3.854c4.609-8.681,8.145-18.07,11.068-27.482
	c10.61-34.152,20.763-68.447,31.084-102.689c2.012-6.674,4.006-13.353,6.079-20.265c-17.121-1.804-32.274,1.522-44.654,13.756
	c-6.538,6.46-9.561,16.143-2.795,24.26c2.379,2.854,3.519,6.674,0.523,9.744c-1.784,1.829-5.254,4.142-6.902,3.501
	c-2.836-1.102-6.025-3.942-6.976-6.758c-3.101-9.19-0.856-18.217,3.842-26.3c8.952-15.401,23.019-23.791,40.412-25.332
	C1419.264,28.308,1432.259,29.22,1444.721,29.22z"/>
<path fill-rule="evenodd" clip-rule="evenodd" d="M1239.229,673.228c-4.384,16.147-8.641,31.481-12.694,46.868
	c-2.981,11.32-5.873,22.671-8.377,34.102c-0.485,2.214,0.272,5.735,1.816,7.023c1.192,0.994,5.042,0.159,6.789-1.12
	c5.292-3.877,10.137-8.364,15.332-12.763c3.173,1.721,3.938,3.713,0.672,6.593c-8.6,7.582-16.514,16.013-27.443,20.531
	c-7.573,3.13-14.035-0.47-14.274-8.691c-0.122-4.199,0.936-8.432,1.445-12.65c0.145-1.198,0.238-2.401,0.465-4.723
	c-5.03,4.39-9.168,8.045-13.354,11.644c-8.517,7.319-17.91,13.052-28.919,15.826c-5.25,1.324-9.812-1.784-10.78-7.06
	c-2.027-11.052,2.127-21.207,4.584-31.554c3.754-15.809,8.066-31.484,12.05-47.239c1.047-4.14-2.043-7.051-5.783-4.975
	c-5.791,3.214-11.06,7.367-16.915,11.371c-0.776-0.598-2.27-1.749-4.606-3.55c9.034-6.803,17.704-13.646,26.747-19.957
	c2.814-1.965,6.554-2.924,10.015-3.57c4.987-0.932,7.622,1.672,7.948,6.816c0.666,10.503-2.021,20.468-4.725,30.441
	c-3.742,13.807-7.74,27.555-10.961,41.482c-0.753,3.258,0.099,8.03,2.148,10.493c2.414,2.9,6.545,0.837,9.711-0.968
	c1.414-0.807,2.901-1.495,4.273-2.366c14.891-9.453,23.72-22.945,27.578-40.125c2.92-13.002,6.573-25.842,10.126-38.691
	c0.355-1.285,2.206-2.931,3.485-3.045C1229.858,672.99,1234.191,673.228,1239.229,673.228z"/>
<path fill-rule="evenodd" clip-rule="evenodd" d="M1648.475,146.347c0.188,2.676,1.172,5.376,0.314,6.231
	c-8.838,8.818-17.78,17.639-29.608,22.503c-6.531,2.687-12.916-1.607-13.115-9.132c-0.115-4.343,1.074-8.716,1.612-13.084
	c0.135-1.099,0.02-2.229,0.02-4.249c-4.909,4.314-9.176,8.303-13.693,11.982c-8.012,6.525-16.497,12.262-26.795,14.668
	c-9.098,2.126-15.295-4.202-13.048-13.511c4.578-18.965,9.246-37.909,13.88-56.861c1.232-5.042,2.581-10.06,3.683-15.131
	c0.836-3.845-2.38-6.787-5.82-4.836c-5.905,3.348-11.32,7.562-17.126,11.538c-0.85-0.713-2.319-1.947-4.478-3.758
	c8.882-6.616,17.372-13.21,26.179-19.348c2.845-1.982,6.422-3.186,9.841-4.005c5.359-1.286,8.314,1.494,8.637,7.113
	c0.593,10.337-2.036,20.15-4.656,29.967c-3.689,13.819-7.534,27.597-11.147,41.436c-1.66,6.357,0.153,10.937,4.629,11.604
	c2,0.298,4.426-0.398,6.292-1.356c16.461-8.449,27.404-21.352,31.89-39.568c3.499-14.209,7.31-28.341,11.139-42.465
	c0.304-1.12,1.785-2.655,2.801-2.721c4.587-0.294,9.203-0.129,14.186-0.129c-3.22,12.212-6.289,23.821-9.339,35.435
	c-3.84,14.619-7.681,29.238-11.467,43.871c-0.325,1.259-0.549,2.689-0.277,3.921c0.399,1.81,0.849,4.445,2.077,5.021
	c1.5,0.703,4.302,0.276,5.716-0.773C1636.334,156.598,1641.545,152.048,1648.475,146.347z"/>
<path fill-rule="evenodd" clip-rule="evenodd" d="M1837.25,747.345c3.155,1.93,3.529,3.918,0.552,6.562
	c-8.456,7.512-16.33,15.724-26.982,20.372c-8.213,3.583-14.823-0.393-14.802-9.464c0.009-3.89,0.947-7.775,1.452-11.664
	c0.156-1.202,0.276-2.409,0.553-4.856c-5.319,4.693-9.592,8.701-14.116,12.4c-7.876,6.438-16.265,12.087-26.345,14.514
	c-9.521,2.291-15.694-4.015-13.335-13.573c4.753-19.252,9.604-38.479,14.366-57.729c1.17-4.728,2.257-9.481,3.195-14.26
	c0.734-3.741-2.565-6.584-5.998-4.643c-5.77,3.264-11.059,7.373-16.938,11.391c-0.763-0.575-2.261-1.707-4.641-3.505
	c9.168-6.904,17.989-13.806,27.127-20.261c2.553-1.804,5.964-2.641,9.111-3.301c5.397-1.131,8.198,1.573,8.509,7.278
	c0.562,10.335-2.059,20.136-4.718,29.949c-3.741,13.807-7.741,27.555-10.968,41.481c-0.757,3.264,0.062,8.04,2.104,10.506
	c2.378,2.872,6.539,0.913,9.709-0.918c1.41-0.814,2.904-1.492,4.275-2.364c14.879-9.459,23.744-22.928,27.604-40.114
	c2.92-13.002,6.559-25.848,10.146-38.688c0.374-1.339,2.49-2.94,3.935-3.088c4.104-0.418,8.279-0.146,13.035-0.146
	c-2.244,8.541-4.368,16.636-6.496,24.729c-4.795,18.236-9.609,36.467-14.35,54.717c-0.366,1.413-0.323,2.964-0.281,4.445
	c0.139,4.848,3.682,6.817,7.603,3.876C1826.199,756.757,1831.506,752.077,1837.25,747.345z"/>
<path fill-rule="evenodd" clip-rule="evenodd" d="M1723.802,96.439c-0.789-0.643-2.259-1.841-4.507-3.672
	c8.91-6.672,17.488-13.385,26.408-19.608c2.832-1.976,6.479-3.077,9.917-3.819c5.185-1.119,8.613,1.603,8.191,6.924
	c-0.684,8.623-1.454,17.345-3.419,25.736c-3.592,15.34-8.331,30.41-12.005,45.733c-0.793,3.307-0.235,8.099,1.732,10.619
	c2.603,3.333,6.79,1.004,10.1-0.835c1.424-0.791,2.896-1.501,4.269-2.372c14.896-9.462,23.685-22.966,27.5-40.167
	c2.886-13.009,6.565-25.845,10.126-38.692c0.349-1.255,2.286-2.808,3.599-2.921c4.277-0.371,8.606-0.14,13.479-0.14
	c-2.787,10.183-5.514,19.842-8.069,29.545c-4.432,16.825-8.91,33.642-12.961,50.56c-0.593,2.479,1.057,5.493,1.669,8.26
	c2.68-0.608,5.91-0.475,7.931-1.973c5.003-3.709,9.452-8.164,14.201-12.389c3.493,1.956,3.912,4.014,0.719,6.797
	c-8.517,7.425-16.285,15.764-27.023,20.3c-8.131,3.434-14.588-0.303-14.627-9.18c-0.019-4.04,1.022-8.081,1.533-12.128
	c0.148-1.177,0.125-2.376,0.226-4.554c-5.187,4.594-9.45,8.649-14.007,12.345c-7.896,6.402-16.289,12.018-26.384,14.422
	c-9.288,2.212-15.562-3.944-13.313-13.3c4.596-19.125,9.408-38.197,14.104-57.298c1.202-4.89,2.359-9.791,3.433-14.71
	c0.862-3.947-2.163-7.019-5.558-5.106C1735.146,88.152,1729.731,92.379,1723.802,96.439z"/>
<path fill-rule="evenodd" clip-rule="evenodd" d="M619.165,73.227c-5.05,18.861-9.932,36.897-14.691,54.967
	c-2.279,8.651-4.551,17.319-6.318,26.082c-0.449,2.228,0.317,5.764,1.873,6.996c1.246,0.986,5.062,0.108,6.818-1.188
	c5.277-3.895,10.104-8.398,15.247-12.784c3.299,1.854,3.809,3.87,0.612,6.708c-8.809,7.819-16.96,16.564-28.258,20.93
	c-7.055,2.726-13.22-1.461-13.4-9.191c-0.098-4.203,0.952-8.431,1.463-12.649c0.145-1.193,0.211-2.396,0.405-4.688
	c-5.249,4.625-9.539,8.628-14.064,12.344c-8.392,6.889-17.502,12.52-28.209,15.144c-5.289,1.296-9.801-1.775-10.729-7.145
	c-1.939-11.213,2.211-21.492,4.828-31.988c3.932-15.774,8.099-31.491,12.061-47.258c0.929-3.694-2.224-6.644-5.592-4.764
	c-5.931,3.31-11.353,7.532-17.381,11.641c-0.745-0.565-2.246-1.703-4.058-3.075c10.456-8.82,19.865-18.919,33.425-23.182
	c7.454-2.344,10.557-0.124,10.765,7.51c0.383,14.018-4.346,26.994-7.905,40.219c-2.705,10.051-5.723,20.043-7.799,30.226
	c-0.676,3.311,0.108,8.035,2.162,10.497c2.426,2.908,6.551,0.811,9.713-0.99c2.265-1.289,4.626-2.432,6.786-3.877
	c16.293-10.899,22.914-27.486,27.022-45.668c2.402-10.627,5.257-21.155,8.163-31.657c0.354-1.277,2.227-2.899,3.515-3.014
	C609.896,72.99,614.229,73.227,619.165,73.227z"/>
<path fill-rule="evenodd" clip-rule="evenodd" d="M185.281,700.899c10.458-11.049,21.232-19.999,33.544-26.943
	c3.506-1.978,7.355-3.594,11.249-4.58c6.569-1.666,12.546,3.04,11.64,10.143c-1.271,9.952-3.657,19.819-6.287,29.527
	c-3.653,13.482-7.988,26.78-11.99,40.169c-0.325,1.087-0.64,2.319-0.446,3.392c0.559,3.084,1.38,6.121,2.099,9.176
	c3.176-1.25,6.722-1.971,9.446-3.869c4.667-3.253,8.821-7.243,14.604-10.567c-0.08,1.795,0.579,4.279-0.354,5.277
	c-8.229,8.813-17.238,16.852-28.585,21.356c-9.726,3.86-13.876-0.669-13.917-11.068c-0.035-9.124,2.369-18.403,4.693-27.354
	c3.348-12.895,7.631-25.544,11.434-38.322c0.691-2.322,1.165-4.743,1.425-7.152c0.334-3.088-3.242-5.964-6.983-4.686
	c-4.843,1.655-9.56,4.071-13.839,6.902c-11.717,7.752-20.403,18.134-23.926,31.935c-3.741,14.655-6.923,29.461-9.985,44.276
	c-0.634,3.066-1.787,3.82-4.532,3.745c-4.446-0.122-8.898-0.033-13.382-0.033c5.539-22.727,11.008-44.977,16.357-67.255
	c1.33-5.537,2.405-11.146,3.295-16.77c0.225-1.421-0.438-4.143-1.17-4.321c-1.675-0.41-4.031-0.181-5.426,0.781
	c-5.388,3.714-10.508,7.818-16.105,12.063c-0.772-0.713-1.914-1.766-3.358-3.098c10.783-9.314,20.364-19.879,34.708-23.561
	c0.934-0.239,1.833-0.721,2.775-0.808c7.061-0.652,9.039,1.663,7.39,8.553c-1.551,6.476-3.135,12.944-4.618,19.437
	C184.835,698.111,185.141,699.094,185.281,700.899z"/>
<path fill-rule="evenodd" clip-rule="evenodd" d="M266.213,772.221c6.6-27.239,13.071-53.935,19.52-80.636
	c0.191-0.793,0.303-1.675,0.166-2.464c-0.325-1.859-0.417-4.956-1.34-5.253c-1.656-0.531-4.207,0.113-5.763,1.176
	c-5.268,3.598-10.264,7.594-15.675,11.672c-0.79-0.738-1.943-1.815-3.331-3.112c10.802-9.322,20.43-19.886,34.773-23.604
	c0.779-0.202,1.514-0.649,2.298-0.746c7.224-0.885,9.447,1.623,7.756,8.643c-1.56,6.475-3.119,12.95-4.593,19.444
	c-0.191,0.84,0.133,1.797,0.243,2.968c6.297-5.575,11.799-11.475,18.29-15.933c7.979-5.479,16.524-10.313,25.313-14.368
	c6.79-3.133,12.773,1.537,13.042,9.137c0.373,10.528-3.4,20.191-6.422,30.016c-4.106,13.357-8.104,26.748-12.104,40.137
	c-0.325,1.087-0.603,2.332-0.396,3.406c0.588,3.07,1.436,6.09,2.182,9.13c3.172-1.289,6.7-2.069,9.437-3.982
	c4.657-3.256,8.817-7.226,13.187-10.895c0.478,0.156,0.956,0.312,1.435,0.469c-0.131,1.793,0.452,4.264-0.505,5.272
	c-8.171,8.618-17.008,16.593-28.15,21.137c-10.042,4.095-14.13-0.413-14.279-10.523c-0.134-9.124,2.197-18.444,4.496-27.406
	c3.31-12.903,7.604-25.552,11.405-38.33c0.736-2.478,1.367-5.03,1.635-7.591c0.335-3.21-3.683-6.013-7.579-4.577
	c-4.668,1.72-9.209,4.113-13.338,6.906c-11.618,7.858-20.362,18.176-23.846,32.015c-3.693,14.669-6.878,29.471-9.994,44.276
	c-0.571,2.713-1.443,3.716-4.103,3.648C275.487,772.139,270.999,772.221,266.213,772.221z"/>
<path fill-rule="evenodd" clip-rule="evenodd" d="M1170.697,446.605c0.369,0.346,1.062,0.832,1.532,1.479
	c0.572,0.787,0.958,1.71,1.837,3.337c-8.791,6.526-17.438,13.496-26.688,19.547c-3.743,2.449-8.725,3.638-13.271,4.081
	c-6.905,0.672-8.585-2.202-6.486-9.143c1.534-5.072,2.947-10.181,3.436-15.957c-1.963,1.847-3.971,3.648-5.883,5.547
	c-7.605,7.556-15.957,13.972-26,18.075c-13.404,5.479-21.173-1.944-23.193-14c-2.777-16.565,3.422-31.203,11.041-45.169
	c7.788-14.276,18.152-26.533,32.319-35.053c11.123-6.689,22.99-9.879,36.09-7.408c1.343,0.253,3.078-1.476,4.605-2.33
	c2.349-1.314,4.675-2.668,7.011-4.005c0.325,0.452,0.649,0.904,0.975,1.356c-3.481,12.003-7.413,23.897-10.337,36.035
	c-4.186,17.384-7.671,34.937-11.357,52.438c-0.539,2.562,0.819,4.419,3.511,3.688c3.24-0.88,6.539-2.068,9.361-3.841
	C1163.206,452.767,1166.803,449.594,1170.697,446.605z M1092.933,442.479c0,0.999-0.047,1.999,0.007,2.994
	c0.712,13.168,8.28,16.963,19.086,11.636c11.181-5.512,18.146-15.086,21.821-26.693c4.309-13.611,7.722-27.505,11.655-41.238
	c0.765-2.671-0.033-3.759-2.606-3.945c-1.152-0.083-2.333-0.017-3.455-0.24c-9.819-1.959-18.588,0.449-25.818,7.15
	C1099.026,405.667,1094.461,423.491,1092.933,442.479z"/>
<path fill-rule="evenodd" clip-rule="evenodd" d="M511.141,150.692c-10.626,9.359-20.354,19.981-34.852,23.695
	c-2.343,0.601-4.859,0.859-7.274,0.758c-3.36-0.14-5.418-3.535-4.457-7.062c1.69-6.2,3.496-12.369,5.658-19.974
	c-5.243,4.984-9.333,9.096-13.662,12.937c-6.764,6-14.104,10.928-23.061,13.373c-11.111,3.032-16.99-2.674-19.447-11.792
	c-3.11-11.545-0.385-22.751,3.587-33.63c6.406-17.546,17.132-32.291,31.364-44.107c12.63-10.486,27.297-15.953,44.21-13.068
	c1.125,0.192,2.87-0.896,3.721-1.902c2.688-3.178,3.841-3.774,8.513-3.317c-4.969,17.811-10.228,35.552-14.803,53.468
	c-2.776,10.875-4.649,21.993-6.63,33.057c-1.019,5.689,1.995,7.972,7.155,5.229c4.573-2.43,8.759-5.66,12.885-8.837
	C507.656,146.741,507.936,146.603,511.141,150.692z M483.85,85.639c-2.644-0.188-4.911-0.093-7.064-0.543
	c-12.594-2.633-23.004,1.945-30.326,11.505c-11.568,15.104-17.373,32.574-15.417,51.842c1.063,10.474,6.583,12.238,14.254,10.028
	c15.908-4.584,22.71-17.443,27.398-31.402C477.128,113.869,480.014,100.15,483.85,85.639z"/>
<path fill-rule="evenodd" clip-rule="evenodd" d="M841.179,150.774c-10.847,9.291-20.406,19.975-34.808,23.555
	c-2.348,0.583-4.843,0.896-7.254,0.818c-3.398-0.108-5.558-3.487-4.606-6.972c1.696-6.208,3.525-12.38,4.432-19.295
	c-1.451,1.402-3.001,2.717-4.337,4.222c-8.356,9.42-17.952,17.083-30.073,21.084c-10.276,3.393-18.087-1.25-20.615-11.944
	c-2.721-11.512-0.185-22.469,3.684-33.167c6.349-17.561,17.118-32.277,31.327-44.129c12.63-10.535,27.313-15.905,44.206-13.176
	c1.157,0.188,3.001-0.766,3.754-1.769c2.222-2.956,4.864-4.265,8.787-3.527c-4.469,15.394-9.3,30.53-13.193,45.905
	c-3.395,13.406-5.807,27.065-8.442,40.654c-0.341,1.758,0.061,4.966,1.036,5.39c1.813,0.787,4.706,0.732,6.433-0.242
	c4.38-2.474,8.49-5.487,12.462-8.6C836.681,147.457,838.867,146.151,841.179,150.774z M813.798,85.899
	c-1.494-0.302-2.408-0.566-3.339-0.653c-1.155-0.107-2.365,0.122-3.481-0.12c-12.336-2.669-22.705,1.513-30.075,10.935
	c-12.094,15.46-17.661,33.373-15.932,53.186c0.631,7.227,5.449,11.144,12.307,9.861c2.946-0.551,5.84-1.866,8.519-3.285
	c11.362-6.02,16.976-16.701,20.702-28.094C806.918,114.214,809.986,100.258,813.798,85.899z"/>
<path fill-rule="evenodd" clip-rule="evenodd" d="M891.329,750.553c-10.917,9.68-20.807,20.168-35.241,23.984
	c-2.339,0.619-4.966,0.958-7.311,0.557c-3.534-0.604-5.298-3.162-4.332-6.798c1.655-6.229,3.554-12.394,4.591-19.277
	c-3.74,3.606-7.476,7.218-11.222,10.818c-6.69,6.429-14.288,11.428-23.141,14.342c-10.286,3.387-18.248-1.175-20.732-11.8
	c-2.726-11.653-0.151-22.716,3.825-33.608c6.357-17.411,16.994-31.983,31.068-43.716c12.741-10.62,27.494-16.253,44.602-13.107
	c1.026,0.188,2.763-0.832,3.423-1.799c2.103-3.081,4.761-4.369,8.772-3.708c-3.753,13.014-7.853,25.792-11.078,38.786
	c-3.92,15.788-7.167,31.745-10.513,47.67c-0.37,1.762-0.044,4.96,0.944,5.433c1.759,0.84,4.661,0.824,6.39-0.114
	c4.272-2.321,8.155-5.363,12.187-8.126c1.46-1,2.898-2.031,4.561-3.197C889.257,748.187,890.185,749.246,891.329,750.553z
	 M864.755,685.772c-3.492-0.277-5.747-0.223-7.899-0.667c-12.559-2.594-23.019,1.757-30.367,11.417
	c-11.521,15.142-17.253,32.555-15.496,51.854c0.701,7.704,3.974,13.035,14.69,9.999c10.814-3.064,18.238-10.421,21.961-20.128
	C854.109,721.39,858.944,703.905,864.755,685.772z"/>
<path fill-rule="evenodd" clip-rule="evenodd" d="M1275.396,66.403c-5.357,19.441-10.878,38.501-15.793,57.715
	c-2.458,9.611-3.987,19.478-5.592,29.285c-0.896,5.479,2.032,7.712,6.977,5.089c4.716-2.502,8.971-5.92,13.269-9.148
	c3.352-2.518,3.612-2.624,6.942,1.144c-10.599,9.955-20.99,20.111-35.506,24.4c-5.531,1.635-9.88,0.477-10.91-3.446
	c-0.59-2.248,0.188-4.992,0.814-7.393c1.256-4.818,2.829-9.554,3.393-15.082c-3.734,3.634-7.436,7.303-11.211,10.894
	c-6.711,6.386-14.268,11.443-23.143,14.329c-10.303,3.35-18.266-1.181-20.684-11.853c-2.633-11.624-0.263-22.686,3.799-33.611
	c6.461-17.379,17.044-31.958,31.108-43.693c12.738-10.628,27.5-16.241,44.606-13.086c1.017,0.188,2.734-0.853,3.4-1.821
	C1268.98,67.057,1271.644,65.774,1275.396,66.403z M1253.892,85.56c-2.836-0.167-4.976-0.035-7.002-0.454
	c-12.556-2.595-22.987,1.76-30.393,11.384c-11.632,15.116-17.017,32.557-15.593,51.86c0.58,7.859,4.615,11.878,11.956,10.755
	c3.103-0.475,6.195-1.832,8.99-3.347c11.075-6.004,16.823-16.386,20.477-27.654C1246.76,114.429,1249.936,100.347,1253.892,85.56z"
	/>
<path fill-rule="evenodd" clip-rule="evenodd" d="M2195.335,666.379c-5.301,19.353-10.78,38.424-15.68,57.644
	c-2.451,9.613-4.016,19.469-5.646,29.271c-0.949,5.703,2.008,7.81,7.292,4.979c4.565-2.446,8.701-5.734,12.874-8.855
	c2.537-1.896,4.712-3.213,6.941,1.164c-10.65,9.822-21.067,20.22-35.811,24.379c-2.014,0.568-4.36,0.552-6.438,0.174
	c-3.593-0.654-5.355-3.197-4.457-6.753c1.578-6.256,3.528-12.417,4.714-19.34c-1.34,1.17-2.784,2.24-4.003,3.525
	c-7.404,7.805-15.227,15.119-25.167,19.586c-5.509,2.476-11.264,4.908-17.409,1.899c-7.308-3.579-9.101-10.481-9.53-17.617
	c-1.241-20.602,7.526-37.94,19.26-53.824c8.092-10.953,17.61-20.693,30.515-26.406c9.836-4.354,19.864-6.256,30.561-4.271
	c1.052,0.195,2.853-0.746,3.48-1.701C2188.89,667.097,2191.542,665.813,2195.335,666.379z M2174.79,685.604
	c-3.74-0.217-5.881-0.08-7.907-0.501c-12.338-2.558-22.646,1.628-30.065,11.021c-12.09,15.306-17.47,33.077-15.879,52.725
	c0.692,8.546,6.053,11.991,14.274,9.728c10.981-3.022,18.626-10.414,22.423-20.3C2164.11,721.417,2168.929,703.922,2174.79,685.604z
	"/>
<path fill-rule="evenodd" clip-rule="evenodd" d="M1505.396,666.416c-5.384,19.51-10.912,38.555-15.824,57.758
	c-2.458,9.606-3.975,19.471-5.559,29.276c-0.888,5.492,2.006,7.646,7.009,5.021c4.579-2.403,8.75-5.656,12.882-8.82
	c2.648-2.029,4.848-3.646,7.201,0.928c-10.519,9.863-20.897,20.029-35.411,24.309c-5.526,1.63-9.873,0.477-10.906-3.44
	c-0.593-2.245,0.179-4.99,0.804-7.389c1.256-4.817,2.832-9.551,3.437-15.102c-1.327,1.216-2.747,2.347-3.965,3.663
	c-7.203,7.783-14.968,14.913-24.708,19.367c-5.463,2.499-11.159,4.943-17.401,2.251c-7.177-3.097-9.135-9.703-9.865-16.354
	c-1.088-9.9,0.927-19.547,4.47-28.889c6.617-17.452,17.192-32.225,31.389-44.066c12.62-10.527,27.299-15.89,44.18-13.161
	c1.159,0.188,3.01-0.755,3.758-1.756C1499.099,667.05,1501.741,665.748,1505.396,666.416z M1483.785,685.863
	c-1.576-0.271-2.649-0.513-3.735-0.624c-1.151-0.117-2.348,0.047-3.471-0.18c-12.358-2.49-22.661,1.844-29.971,11.291
	c-11.79,15.238-17.188,32.85-15.683,52.316c0.603,7.792,4.929,11.728,12.253,10.445c2.951-0.517,5.881-1.787,8.538-3.232
	c11.225-6.107,17.042-16.637,20.748-28.064C1476.855,714.276,1479.95,700.315,1483.785,685.863z"/>
<path fill-rule="evenodd" clip-rule="evenodd" d="M1925.344,66.399c-5.354,19.482-10.856,38.535-15.755,57.741
	c-2.451,9.608-3.979,19.469-5.578,29.271c-0.894,5.48,2.029,7.704,6.979,5.078c4.713-2.5,8.97-5.912,13.257-9.148
	c2.605-1.967,4.754-3.028,6.863,1.293c-10.606,9.642-20.858,19.973-35.381,24.244c-5.517,1.622-9.873,0.495-10.92-3.403
	c-0.603-2.241,0.14-4.991,0.765-7.385c1.259-4.82,2.851-9.553,3.491-15.102c-1.331,1.197-2.75,2.311-3.978,3.605
	c-7.395,7.805-15.223,15.1-25.156,19.563c-5.508,2.476-11.261,4.902-17.397,1.885c-7.29-3.584-9.086-10.479-9.519-17.611
	c-1.249-20.592,7.463-37.966,19.242-53.793c10.109-13.582,22.201-25.486,39.441-29.507c6.854-1.6,14.245-0.849,21.379-1.355
	c1.327-0.095,3.065-0.737,3.795-1.729C1919.067,67.062,1921.706,65.76,1925.344,66.399z M1904.762,85.75
	c-3.515-0.27-5.773-0.202-7.926-0.647c-12.565-2.596-22.99,1.789-30.365,11.434c-11.573,15.135-17.321,32.54-15.477,51.855
	c0.825,8.646,4.745,12.629,14.25,10.133c11.043-2.901,18.604-10.416,22.401-20.294
	C1894.123,121.379,1898.947,103.893,1904.762,85.75z"/>
<path fill-rule="evenodd" clip-rule="evenodd" d="M1850.584,744.875c0.775-26.842,9.412-47.141,27.343-62.997
	c8.484-7.503,18.736-11.943,30.189-12.595c13.188-0.749,24.543,8.002,27.75,21.037c5.741,23.335-1.432,43.468-15.431,61.925
	c-7.87,10.377-17.971,17.52-30.372,21.38c-15.463,4.813-31.339-1.207-36.436-14.404
	C1851.553,753.846,1851.174,747.815,1850.584,744.875z M1917.9,712.05c0.429-8.758-0.405-17.925-5.163-26.456
	c-3.729-6.687-13.191-9.554-19.925-5.719c-7.714,4.393-13.075,10.966-15.768,19.193c-2.66,8.133-4.22,16.631-6.16,24.992
	c-2.371,10.221-1.246,20.424,2.265,30.005c3.84,10.477,12.054,15.074,20.593,10.957c4.968-2.396,9.819-6.396,12.99-10.896
	C1915.382,741.854,1918.54,727.721,1917.9,712.05z"/>
<path fill-rule="evenodd" clip-rule="evenodd" d="M1446.094,141.519c0.357-23.869,9.118-44.124,27.108-59.897
	c8.237-7.223,18.225-11.452,29.291-12.357c13.143-1.073,25.094,7.767,28.355,20.937c5.772,23.312-1.355,43.49-15.338,61.949
	c-7.849,10.361-17.896,17.572-30.343,21.42c-15.585,4.817-31.01-1.113-36.577-14.211c-1.07-2.52-2.06-5.188-2.398-7.874
	C1445.779,148.211,1446.094,144.845,1446.094,141.519z M1513.317,112.729c-0.476-5.745-0.825-11.505-1.495-17.228
	c-0.241-2.051-1.226-4.021-1.921-6.012c-3.318-9.506-14.056-14.239-22.019-9.659c-7.654,4.403-13.161,10.889-15.835,19.159
	c-2.635,8.147-4.203,16.644-6.16,25.005c-2.395,10.229-0.896,20.277,2.156,30.06c3.006,9.63,13.237,15.229,20.674,11.039
	c4.879-2.75,9.839-6.434,13.005-10.936C1510.36,141.878,1513.539,127.742,1513.317,112.729z"/>
<path fill-rule="evenodd" clip-rule="evenodd" d="M511.196,742.729c1.092,1.694,1.94,3.012,2.871,4.457
	c-10.006,11.837-21.785,21.191-36.116,26.737c-3.483,1.349-9.104,1.258-11.938-0.735c-4.465-3.141-3.917-9.353-2.794-14.294
	c7.749-34.104,15.365-68.25,23.974-102.142c2.889-11.373,7.31-22.767,13.239-32.853c7.516-12.783,20.355-19.528,34.809-22.597
	c3.982-0.845,8.17-1.06,12.254-0.998c5.248,0.08,9.222,3.842,9.396,8.229c0.177,4.452-4.057,8.66-9.515,8.584
	c-5.221-0.072-10.434-0.938-15.643-1.525c-5.439-0.615-11.531-1.875-15.549,2.314c-3.342,3.484-5.827,8.476-7.025,13.22
	c-7.642,30.279-14.913,60.654-22.109,91.044c-2.7,11.403-4.903,22.926-7.268,34.407c-0.94,4.563,1.497,7.057,5.351,4.799
	c7.542-4.419,14.593-9.685,21.784-14.688C508.365,745.682,509.54,744.281,511.196,742.729z"/>
<path fill-rule="evenodd" clip-rule="evenodd" d="M571.288,742.576c1.173,2.044,1.967,3.427,2.764,4.815
	c-10.748,11.884-22.549,21.922-37.81,27.054c-8.226,2.766-14.14-1.003-13.104-9.424c1.668-13.563,4.152-27.079,7.204-40.406
	c5.153-22.51,10.941-44.875,16.62-67.262c2.925-11.532,6.244-22.977,12.973-33.013c8.45-12.605,20.614-19.763,35.153-23.028
	c3.966-0.891,8.166-1.056,12.252-1.012c5.468,0.059,9.698,4.119,9.554,8.576c-0.142,4.368-4.135,8.252-9.363,8.248
	c-5.074-0.005-10.146-0.806-15.225-1.197c-3.611-0.278-7.488-1.358-10.771-0.418c-3.099,0.888-7.066,3.405-8.064,6.147
	c-4.043,11.11-7.427,22.496-10.417,33.946c-3.862,14.789-7.193,29.72-10.614,44.622c-4.334,18.875-8.56,37.775-12.759,56.681
	c-0.921,4.145,1.728,6.693,5.329,4.566c7.529-4.447,14.602-9.675,21.796-14.677C568.263,745.782,569.428,744.35,571.288,742.576z"/>
<path fill-rule="evenodd" clip-rule="evenodd" d="M1711.045,143.088c1.022,1.416,1.944,2.695,2.986,4.139
	c-9.941,11.781-21.722,21.123-36.039,26.683c-3.488,1.354-9.19,1.335-11.938-0.687c-4.761-3.503-3.998-10.098-2.817-15.276
	c8.029-35.204,16.198-70.382,24.869-105.433c3.092-12.498,7.686-24.727,16.638-34.457c8.186-8.897,18.614-14.303,30.427-16.752
	c3.987-0.826,8.168-1.06,12.253-1.001c5.464,0.08,9.682,4.211,9.463,8.655c-0.216,4.402-4.187,8.229-9.436,8.159
	c-5.222-0.069-10.423-1.185-15.651-1.412c-4.208-0.184-8.598-0.369-12.632,0.596c-6.156,1.472-7.697,7.521-9.074,12.491
	c-4.423,15.974-8.229,32.121-12.128,48.236c-3.519,14.546-6.895,29.128-10.241,43.715c-2.766,12.053-5.438,24.128-8.062,36.213
	c-0.895,4.122,1.615,6.46,5.411,4.506c5.594-2.881,10.877-6.428,16.051-10.038C1704.595,149.003,1707.646,145.979,1711.045,143.088z
	"/>
<path fill-rule="evenodd" clip-rule="evenodd" d="M961.092,143.065c1.116,1.609,2.027,2.922,2.972,4.283
	c-10.587,11.783-22.27,21.704-37.286,26.917c-8.896,3.087-14.711-0.582-13.632-9.658c1.594-13.402,4.121-26.749,7.149-39.913
	c5.177-22.501,11.016-44.85,16.646-67.244c2.943-11.708,6.241-23.385,13.128-33.457c8.408-12.298,20.503-19.492,34.911-22.675
	c4.129-0.912,8.501-1.097,12.748-1.003c5.187,0.115,9.212,4.146,9.174,8.449c-0.038,4.324-4.066,8.336-9.257,8.357
	c-5.077,0.021-10.156-0.751-15.237-1.14c-3.607-0.276-7.468-1.392-10.756-0.479c-3.105,0.861-7.118,3.332-8.114,6.053
	c-4.065,11.101-7.481,22.476-10.47,33.924c-3.859,14.789-7.146,29.73-10.563,44.632c-4.329,18.872-8.571,37.765-12.78,56.663
	c-0.95,4.267,1.471,6.724,5.19,4.792c5.729-2.975,11.116-6.659,16.431-10.356C954.696,148.879,957.649,145.975,961.092,143.065z"/>
<path fill-rule="evenodd" clip-rule="evenodd" d="M900.414,142.255c1.708,2.364,2.638,3.65,3.626,5.019
	c-9.87,11.502-21.299,20.81-35.289,26.314c-3.691,1.453-9.33,1.713-12.5-0.154c-4.575-2.694-4.241-8.968-3.15-13.68
	c8.766-37.867,17.715-75.694,26.984-113.44c2.54-10.342,7.219-20.041,14.439-28.012c8.238-9.094,18.786-14.606,30.812-17.01
	c3.837-0.767,7.834-1.015,11.756-1c5.504,0.02,9.715,3.83,9.805,8.337c0.089,4.464-4.152,8.559-9.614,8.501
	c-5.067-0.054-10.128-0.847-15.188-1.348c-1.136-0.113-2.251-0.473-3.387-0.542c-13.504-0.832-15.764,2.929-19.468,16.003
	c-6.512,22.985-11.659,46.364-17.107,69.641c-4.339,18.537-8.304,37.162-12.368,55.763c-0.986,4.513,1.521,6.977,5.425,4.689
	c7.541-4.417,14.604-9.663,21.756-14.72C898.246,145.696,899.028,144.04,900.414,142.255z"/>
<path fill-rule="evenodd" clip-rule="evenodd" d="M1027.01,397.935c-1.086-1.179-2.426-2.634-3.918-4.255
	c9.821-10.582,20.782-19.514,35.004-23.403c2.906-0.795,7.659-1.253,9.024,0.327c1.776,2.054,1.946,6.529,1.197,9.564
	c-4.212,17.048-8.742,34.022-13.481,50.933c-5.442,19.417-10.858,38.854-16.968,58.065c-4.486,14.105-10.64,27.451-22.031,37.751
	c-9.537,8.623-27.627,12.7-38.053,5.28c-3.541-2.521-4.771-5.748-2.864-9.738c1.971-4.123,5.393-5.105,9.901-3.27
	c4.66,1.897,9.296,3.903,14.075,5.454c5.051,1.64,10.017-0.49,13.18-4.838c6.558-9.013,8.018-19.846,10.8-30.171
	c8.675-32.196,17.198-64.435,25.628-96.696c0.682-2.607,0.205-5.517,0.267-8.286c-2.822,0.832-6.048,1.062-8.384,2.622
	C1035.761,390.364,1031.626,394.188,1027.01,397.935z"/>
<path fill-rule="evenodd" clip-rule="evenodd" d="M439.094,742.021c5.33,5.162,1.039,6.83-1.887,9.588
	c-8.181,7.711-17.004,14.45-27.278,19.011c-4.563,2.025-9.461,3.902-14.362,4.441c-13.189,1.452-19.628-6.011-20.516-18.789
	c-1.592-22.92,5.382-43.762,18.195-62.434c7.99-11.643,18.374-21.136,32.889-24.108c4.026-0.824,8.625-0.498,12.631,0.556
	c8.763,2.305,13.01,11.25,10.716,19.983c-2.796,10.647-10.069,17.695-18.931,22.856c-10.816,6.302-22.301,11.455-33.462,17.175
	c-1.114,0.571-2.79,1.581-2.838,2.462c-0.372,6.935-2.462,13.978,0.508,20.794c2.366,5.432,8.454,7.981,15.208,4.905
	c8.66-3.945,16.74-9.167,25.056-13.866C436.42,743.806,437.741,742.88,439.094,742.021z M395.247,722.214
	c0.544,0.534,1.088,1.068,1.632,1.603c4.539-2.267,9.247-4.25,13.58-6.859c8.541-5.145,17.081-10.436,21.546-19.997
	c2.396-5.129,0.751-13.357-3.108-16.242c-3.364-2.514-10.448-2.201-14.157,1.413c-3.607,3.514-7.527,7.316-9.479,11.791
	C401.272,703.068,398.513,712.752,395.247,722.214z"/>
<path fill-rule="evenodd" clip-rule="evenodd" d="M1308.169,643.459c-3.105,11.952-5.835,22.461-8.718,33.561
	c8.722,0,16.803,0,25.148,0c-0.697,3.312-1.29,6.125-1.934,9.177c-8.526,0-16.824,0-25.88,0
	c-4.64,19.522-9.297,38.931-13.823,58.369c-0.663,2.85-0.952,5.845-0.969,8.774c-0.022,4.078,3.331,6.288,7.262,5.197
	c10.981-3.046,19.448-10.39,28.562-16.631c0.234-0.161,0.526-0.237,0.783-0.35c4.56,4.301,4.697,4.506-0.685,8.134
	c-11.619,7.833-23.371,15.469-35.134,23.085c-1.605,1.04-3.532,1.696-5.399,2.199c-6.639,1.792-10.852-0.84-12.495-7.355
	c-2.562-10.155,0.327-19.825,2.652-29.472c4.154-17.241,8.685-34.392,13.142-51.909c-6.571,0-12.865,0-19.725,0
	c0.845-3.231,1.585-6.065,2.355-9.016c5.51,0,10.67-0.16,15.813,0.06c3.103,0.133,4.256-1.051,4.889-4.036
	c1.415-6.675,3.226-13.27,5.017-19.857c0.312-1.151,1.076-2.657,2.035-3.075C1296.363,648.003,1301.784,645.979,1308.169,643.459z"
	/>
<path fill-rule="evenodd" clip-rule="evenodd" d="M1174.608,77.055c-0.707,3.291-1.312,6.111-1.969,9.164
	c-8.551,0-16.849,0-25.869,0c-4.637,19.539-9.288,38.955-13.809,58.401c-0.662,2.851-0.954,5.845-0.966,8.774
	c-0.017,4.045,3.358,6.212,7.308,5.117c10.985-3.044,19.445-10.396,28.558-16.639c0.226-0.154,0.526-0.198,0.778-0.288
	c4.502,4.271,4.65,4.489-0.764,8.142c-11.479,7.742-23.126,15.237-34.713,22.819c-0.681,0.445-1.417,0.842-2.179,1.122
	c-11.208,4.129-17.222,0.604-16.746-10.853c0.455-10.979,2.989-21.951,5.402-32.748c3.263-14.601,7.283-29.031,11.062-43.859
	c-6.614,0-12.923,0-19.709,0c0.791-3.106,1.493-5.856,2.29-8.985c5.118,0,10.265-0.144,15.398,0.053
	c3.117,0.12,4.685-0.666,5.358-4.08c1.319-6.69,3.201-13.273,4.997-19.86c0.312-1.143,1.115-2.616,2.083-3.037
	c5.285-2.304,10.693-4.326,17.021-6.825c-3.054,11.809-5.796,22.411-8.686,33.582C1158.199,77.055,1166.294,77.055,1174.608,77.055z
	"/>
<path fill-rule="evenodd" clip-rule="evenodd" d="M2050.676,686.183c-6.788,0-12.936,0-19.646,0c0.792-3.144,1.506-5.973,2.259-8.96
	c5.465,0,10.624-0.17,15.765,0.063c3.083,0.14,4.311-0.997,4.95-3.968c1.333-6.191,3.184-12.27,4.614-18.441
	c0.733-3.159,2.119-4.95,5.53-5.873c4.457-1.206,8.644-3.411,13.973-5.609c-3.044,11.794-5.777,22.383-8.666,33.577
	c8.684,0,16.746,0,25.126,0c-0.679,3.338-1.249,6.144-1.87,9.193c-8.502,0-16.8,0-25.939,0
	c-4.631,19.495-9.278,38.896-13.812,58.324c-0.628,2.692-0.936,5.511-0.974,8.276c-0.064,4.758,3.375,7.494,7.581,5.437
	c8.136-3.979,15.967-8.588,23.862-13.045c1.811-1.022,3.371-2.488,5.021-3.73c4.734,4.429,4.863,4.619-0.479,8.216
	c-11.622,7.826-23.369,15.47-35.123,23.098c-1.468,0.952-3.244,1.534-4.957,1.986c-6.044,1.596-11.871,0.045-13.217-7.502
	c-1.804-10.107,0.565-19.529,2.836-29.011C2041.642,720.968,2046.188,703.821,2050.676,686.183z"/>
<path fill-rule="evenodd" clip-rule="evenodd" d="M740.749,686.172c-6.802,0-13.111,0-19.776,0c0.869-3.087,1.644-5.837,2.521-8.95
	c5.21,0,10.526-0.149,15.828,0.06c2.891,0.114,4.037-1.08,4.645-3.737c1.559-6.814,3.251-13.603,5.104-20.343
	c0.34-1.235,1.47-2.693,2.61-3.193c5.039-2.205,10.215-4.098,16.419-6.525c-3.003,11.72-5.745,22.42-8.605,33.58
	c8.628,0,16.587,0,24.998,0c-0.589,3.178-1.104,5.957-1.668,9.005c-8.41,0-16.705,0-25.484,0c-2.497,9.524-5.046,18.87-7.385,28.268
	c-2.67,10.729-5.247,21.482-7.646,32.273c-0.565,2.543-0.521,5.303-0.288,7.922c0.285,3.198,4.155,5.44,7.357,3.806
	c8.217-4.192,16.217-8.817,24.251-13.362c1.697-0.96,3.17-2.315,4.747-3.487c4.867,4.253,5.039,4.507-0.606,8.332
	c-11.463,7.768-23.128,15.237-34.72,22.814c-0.681,0.445-1.411,0.857-2.174,1.126c-10.884,3.825-17.09,0.847-16.645-11.089
	c0.403-10.82,2.85-21.654,5.243-32.291C732.783,715.673,736.889,701.145,740.749,686.172z"/>
<path fill-rule="evenodd" clip-rule="evenodd" d="M1404.595,677.018c-0.697,3.312-1.291,6.131-1.936,9.186
	c-8.536,0-16.833,0-25.91,0c-4.627,19.522-9.271,38.935-13.786,58.377c-0.662,2.851-0.953,5.844-0.968,8.774
	c-0.021,4.068,3.338,6.269,7.272,5.177c10.982-3.046,19.448-10.389,28.561-16.633c0.232-0.159,0.526-0.229,0.782-0.335
	c4.547,4.294,4.687,4.502-0.703,8.136c-11.617,7.833-23.371,15.467-35.134,23.081c-1.605,1.04-3.532,1.696-5.399,2.198
	c-6.638,1.784-10.84-0.847-12.485-7.369c-2.562-10.155,0.33-19.823,2.655-29.47c4.156-17.24,8.684-34.392,13.139-51.906
	c-6.572,0-12.869,0-19.725,0c0.845-3.229,1.586-6.062,2.357-9.011c5.513,0,10.673-0.16,15.816,0.06
	c3.104,0.132,4.252-1.056,4.884-4.041c1.413-6.675,3.225-13.269,5.016-19.857c0.312-1.149,1.081-2.653,2.041-3.071
	c5.293-2.31,10.71-4.334,17.073-6.846c-3.049,11.782-5.79,22.378-8.681,33.551C1388.175,677.018,1396.257,677.018,1404.595,677.018z
	"/>
<path fill-rule="evenodd" clip-rule="evenodd" d="M1998.107,643.491c-3.095,11.976-5.811,22.489-8.675,33.575
	c8.777,0,16.874,0,25.178,0c-0.709,3.285-1.319,6.108-1.979,9.16c-8.561,0-16.859,0-25.829,0
	c-4.97,20.647-9.94,41.162-14.797,61.704c-0.411,1.736-0.141,3.655-0.057,5.482c0.186,4.039,3.699,6.779,7.314,4.971
	c8.25-4.126,16.237-8.784,24.274-13.327c1.782-1.007,3.33-2.429,4.942-3.626c4.655,4.424,4.806,4.647-0.619,8.309
	c-11.478,7.745-23.126,15.237-34.714,22.818c-0.681,0.445-1.416,0.844-2.178,1.122c-11.199,4.101-17.171,0.609-16.74-10.885
	c0.406-10.826,2.795-21.668,5.187-32.306c3.314-14.746,7.446-29.309,11.315-44.287c-6.662,0-12.97,0-19.744,0
	c0.796-3.106,1.502-5.859,2.301-8.979c5.131,0,10.278-0.145,15.412,0.054c3.13,0.121,4.673-0.687,5.343-4.1
	c1.313-6.69,3.199-13.273,4.996-19.86c0.312-1.14,1.128-2.602,2.099-3.024C1986.422,647.991,1991.827,645.971,1998.107,643.491z"/>
<path fill-rule="evenodd" clip-rule="evenodd" d="M666.417,775.62c-12.229-1.04-20.984-2.454-27.524-9.896
	c-4.353-4.953-5.037-13.091-1.523-17.548c2.751-3.49,6.718-4.062,9.724-2.5c2.339,1.216,4.142,4.975,4.639,7.868
	c0.765,4.447-0.779,9.574,4.376,12.267c6.552,3.42,13.358,2.42,19.787-0.151c12.943-5.177,14.502-19.679,3.99-31.11
	c-6.399-6.96-12.824-13.856-17.168-22.611c-7.447-15.009,0.725-33.726,16.171-39.623c11.015-4.205,22.132-4.609,32.281,2.114
	c5.194,3.441,7.396,10.135,0.76,15.241c-3.279,2.522-7.457,2.001-10.165-1.146c-1.496-1.738-2.947-3.521-4.335-5.345
	c-4.487-5.9-10.528-7.836-16.08-5.1c-5.964,2.939-8.656,10.366-6.88,17.306c1.798,7.021,6.42,12.035,11.16,16.947
	c6.076,6.298,12.658,12.511,15.079,21.001c4.057,14.229,0.836,26.672-15.057,35.695C679.056,772.775,671.077,774.087,666.417,775.62
	z"/>
<path fill-rule="evenodd" clip-rule="evenodd" d="M1056.733,175.557c-12.407-0.883-21.591-2.123-27.847-10.042
	c-3.385-4.284-5.402-9.319-2.93-14.982c1.923-4.404,5.404-6.129,9.964-5.248c4.156,0.802,5.887,3.946,5.969,7.893
	c0.099,4.756-0.957,9.935,4.37,12.702c6.381,3.314,13.146,2.494,19.343-0.079c11.711-4.862,16.359-17.292,4.182-31.379
	c-6.069-7.021-12.085-14.324-16.681-22.329c-8.891-15.485,0.62-33.719,15.479-39.642c11.104-4.427,22.305-4.646,32.773,1.99
	c5.887,3.732,5.941,11.547,0.472,15.359c-3.361,2.344-7.508,1.793-10.177-1.392c-1.473-1.758-2.94-3.525-4.315-5.359
	c-4.394-5.866-10.562-7.768-16.14-4.917c-5.658,2.891-8.637,10.489-6.898,16.98c1.896,7.083,6.513,12.332,11.426,17.352
	c6.119,6.249,12.644,12.491,15.013,21.024c4.051,14.585,0.183,26.759-14.77,35.462
	C1069.419,172.761,1061.39,174.024,1056.733,175.557z"/>
<path fill-rule="evenodd" clip-rule="evenodd" d="M628.463,747.056c1.085,1.19,2.089,2.292,3.362,3.69
	c-8.169,8.518-16.637,16.644-27.23,22.143c-4.616,2.396-9.939,4.316-14.402,0.767c-4.432-3.525-4.221-9.504-3.043-14.354
	c4.983-20.524,10.515-40.916,15.883-61.346c0.866-3.295,2.258-6.483,2.811-9.82c0.74-4.481-1.793-6.329-5.908-4.298
	c-2.594,1.28-4.918,3.206-7.15,5.094c-3.129,2.646-6.06,5.527-9.035,8.271c-1.688-1.36-3.073-2.477-4.523-3.646
	c9.233-9.787,18.753-19.375,32.225-23.391c2.908-0.866,6.179-1.052,9.22-0.8c3.803,0.315,5.915,3.842,4.925,7.551
	c-2.515,9.415-5.13,18.804-7.705,28.202c-4.295,15.668-8.59,31.335-12.875,47.005c-0.086,0.314-0.106,0.67-0.062,0.993
	c0.352,2.536,0.726,5.068,1.094,7.603c2.476-0.796,5.275-1.102,7.362-2.484C618.429,754.91,623.114,751.08,628.463,747.056z"/>
<path fill-rule="evenodd" clip-rule="evenodd" d="M973.58,97.123c-1.577-1.323-2.827-2.373-4.269-3.582
	c8.309-9.064,17.141-17.847,29.144-22.31c3.714-1.381,7.953-1.877,11.943-1.84c4.094,0.038,6.188,3.652,5.077,7.709
	c-6.313,23.03-12.72,46.035-18.979,69.079c-0.85,3.129-1.278,6.42-1.472,9.661c-0.098,1.643,0.58,4.673,1.229,4.764
	c1.872,0.261,4.271-0.131,5.812-1.202c5.373-3.731,10.473-7.858,16.097-12.156c1.011,0.912,2.315,2.091,3.863,3.489
	c-9.775,9.222-18.589,19.366-31.76,23.7c-8.279,2.725-14.095-0.944-13.129-9.378c1.293-11.288,3.52-22.54,6.294-33.568
	c3.484-13.853,8.019-27.438,11.861-41.206c0.554-1.982-0.224-4.337-0.386-6.52c-2.318,0.323-5.192-0.108-6.854,1.111
	C983.039,88.559,978.496,92.884,973.58,97.123z"/>
<path fill-rule="evenodd" clip-rule="evenodd" d="M1063.707,329.086c1.857-3.234,3.441-6.672,5.65-9.646
	c2.23-3.003,5.471-3.771,9.094-2.223c3.526,1.509,5.234,4.13,5.511,7.941c0.354,4.866-1.436,9.038-5.267,11.521
	c-2.389,1.548-6.106,2.215-8.914,1.669c-4.128-0.803-5.14-4.597-4.814-8.577C1064.547,329.544,1064.127,329.315,1063.707,329.086z"
	/>
<path fill-rule="evenodd" clip-rule="evenodd" d="M1029.933,25.754c-0.005,7.248-5.267,13.434-11.453,13.465
	c-4.707,0.023-7.475-3.547-7.563-9.491c-0.134-8.956,6.242-12.748,11.588-13.371C1025.981,15.951,1029.936,21.358,1029.933,25.754z"
	/>
<path fill-rule="evenodd" clip-rule="evenodd" d="M639.933,625.637c0.011,7.291-5.122,13.446-11.326,13.581
	c-4.582,0.1-7.648-3.441-7.674-8.86c-0.035-7.61,5.264-14.141,11.447-14.105C635.913,616.271,639.926,621.258,639.933,625.637z"/>
</svg>
