<?xml version="1.0" encoding="utf-8"?>
<!-- Generator: Adobe Illustrator 16.0.0, SVG Export Plug-In . SVG Version: 6.00 Build 0)  -->
<!DOCTYPE svg PUBLIC "-//W3C//DTD SVG 1.1//EN" "http://www.w3.org/Graphics/SVG/1.1/DTD/svg11.dtd">
<svg version="1.1" id="Lag_1" xmlns="http://www.w3.org/2000/svg" xmlns:xlink="http://www.w3.org/1999/xlink" x="0px" y="0px"
	 width="1641.709px" height="2353.023px" viewBox="0 0 1641.709 2353.023" enable-background="new 0 0 1641.709 2353.023"
	 xml:space="preserve">
<path fill-rule="evenodd" clip-rule="evenodd" d="M227.897,604.721c1.85-3.781,0.669-6.229-3.173-7.786
	c-4.29-1.738-8.553-3.567-12.719-5.583c-7.874-3.809-15.67-7.778-24.161-12.011c-7.79,8.492-15.724,17.134-28.518,17.478
	c-11.123,0.3-11.122,0.326-17.852-4.453c7.975,2.414,15.639,2.607,23.507-0.681c7.662-3.202,15.536-5.64,20.42-13.956
	c-12.904-11.995-27.961-21.657-35.062-38.399c-1.633-0.184-3.033-0.715-4.226-0.417c-11.832,2.954-23.572,0.64-35.438,0.211
	c-25.327-0.916-49.605-6.694-71.545-18.206c-18.875-9.904-33.948-25-38.12-48.201c-4.044-22.487,4.168-43.652,22.539-57.742
	c9.668-7.414,19.903-13.069,31.496-15.997c12.335-3.116,24.956-2.957,37.48-0.606c1.089,0.205,2.007,1.322,3.351,2.257
	c-7.341-0.332-14.145-1.055-20.923-0.866c-17.881,0.5-33.413,6.988-46.124,19.657c-3.969,3.955-8.038,8.081-10.905,12.827
	c-16.301,26.982-6.351,63.361,21.3,81.642c15.12,9.996,31.812,14.549,48.76,18.462c17.072,3.94,34.652,5.201,52.252,4.629
	c1.847-0.061,3.668-0.939,6.142-1.613c-1.888-7.097-3.741-13.647-5.369-20.254c-5.71-23.171,0.584-43.6,14.288-62.364
	c9.177-12.565,21.518-21.833,34.822-28.804c12.367-6.479,26.314-10.211,39.868-14.094c19.504-5.589,39.635-7.109,59.85-6.02
	c7.249,0.392,11.964-2.211,15.729-8.031c11.544-17.843,21.369-36.423,25.681-58.754c7.232-0.73,14.737-1.184,22.142-2.298
	c19.23-2.894,38.521-5.557,57.136-11.531c5.981-1.921,12.029-3.649,17.945-5.75c8.739-3.104,10.196-6.477,4.696-13.756
	c-5.966-7.897-5.639-15.728-1.925-24.896c-13.088-8.12-23.351-18.292-19.158-36.57c2.477,1.124,4.877,2.213,9.614,4.361
	c-7.735-13.469-5.622-24.387,3.197-33.271c5.156-5.194,10.148-12.242,19.18-11.611c2.501,6.033,0.513,10.301-2.928,14.281
	c-5.257,6.08-7.472,13.023-6.624,21.145c0.983,9.426,7.934,15.241,16.432,11.573c25.177-10.864,51.408-8.457,77.437-6.723
	c12.986,0.865,25.691,5.413,38.684,6.85c26.899,2.973,45.993-11.679,41.311-41.184c-0.887-5.588-0.263-11.432-1.303-16.976
	c-2.235-11.925-5.741-23.639-7.484-35.619c-1.188-8.162-0.736-16.665-0.143-24.952c0.464-6.468,5.057-10.585,11.445-13.253
	c-6.691-7.275-18.862-6.646-22.45-17.268c10.077-10.021,22.861-7.379,35.038-8.146c1.059-2.064,2.074-4.045,3.018-5.884
	c-0.478-0.835-0.668-1.561-1.139-1.932c-6.233-4.915-12.691-9.568-18.691-14.751c-2.931-2.533-5.651-4.332-9.681-4.103
	c-12.543,0.712-24.207-3.35-35.727-7.438c-3.86-1.37-7.736-4.182-10.284-7.386c-3.123-3.928-6.426-5.57-11.324-6.512
	c-15.582-2.994-27.533-24.002-22.467-38.688c0.439-1.272,2.147-2.106,5.006-4.758c0.156,6.655,0.259,11.11,0.366,15.565
	c0.311,12.77,6.404,19.891,20.236,22.76c0.15-3.236,0.16-6.392,0.481-9.514c0.311-3.014,0.942-5.994,1.489-9.335
	c5.801,2.221,4.307,6.062,4.408,9.121c0.455,13.654,5.901,21.598,18.798,25.69c9.243,2.935,18.728,5.107,28.83,6.907
	c-4.893-9.369-10.343-18.13-6.704-29.091c2.45-1.1,4.455-0.501,4.345,2.728c-0.385,11.226,3.679,20.177,12.58,27.157
	c5.184,4.065,9.837,8.801,14.896,13.034c1.415,1.184,3.426,1.657,5.568,2.644c7.096-18.771-1.576-35.183-6.223-52.137
	c7.595,3.925,9.5,11.064,11.123,17.825c3.519,14.651,3.87,29.497-0.812,44.027c-1.588,4.928-1.807,8.321,5.109,9.415
	c3.479-6.581,6.679-13.431,10.606-19.834c3.613-5.892,2.759-11.172-0.217-16.823c-2.595-4.931-4.906-10.021-7.105-15.143
	c-0.566-1.32-0.238-3.024-0.384-5.701c9.532,4.843,8.105,15.337,14.774,22.4c2.567-5.901,4.742-11.12,7.099-16.256
	c2.636-5.747,3.059-11.793,0.316-17.262c-2.478-4.941-5.978-9.557-9.798-13.583c-3.836-4.042-8.625-7.179-12.415-11.488
	c9.003,0.362,15.695,5.337,20.444,11.739c7.771,10.477,11.281,22.266,5.24,35.216c-3.777,8.097-6.972,16.471-10.906,24.486
	c-3.908,7.963-8.416,15.632-12.967,23.99c18.112,5.06,32.349,16.929,47.759,26.797c5.854,3.748,12.32,6.547,18.144,10.337
	c7.279,4.737,7.106,9.875-1.201,12.188c-15.75,4.383-29.83,14.123-46.763,14.159c-1.608,19.005,3.802,36.772,6.735,54.88
	c2.212,13.648,3.43,27.458,5.168,41.845c1.132,0.247,2.73,1.062,4.166,0.837c11.32-1.78,22.587-3.908,33.916-5.627
	c8.071-1.225,14.872-4.903,21.556-9.348c11.98-7.966,20.789-7.958,31.837-0.056c-1.379,3.883-2.859,8.054-4.437,12.496
	c20.207,10.272,43.212,13.962,62.964,25.675c-7.65,10.823-13.572,12.681-25.08,1.471c-3.446-3.357-6.918-5.707-11.323-7.079
	c-9.482-2.954-19.071-5.622-28.383-9.044c-4.205-1.546-6.828-0.632-9.713,2.257c-9.167,9.179-13.638,20.951-18.155,32.656
	c-4.744,12.291-9.245,24.679-13.617,37.107c-1.414,4.02-3.417,6.333-7.715,8.039c-8.812,3.497-17.118,8.27-26.709,13.054
	c-1.178-2.713-4.098-6.225-3.292-8.26c1.605-4.055,4.621-8.283,8.231-10.621c4.315-2.793,9.751-4.324,14.907-5.22
	c5.468-0.95,8.054-3.661,9.296-8.779c1.786-7.354,3.989-14.607,6.007-21.906c2.888-10.448,5.768-20.898,8.861-32.11
	c-1.903-0.299-3.749-1.104-5.337-0.751c-8.693,1.937-17.268,4.438-25.992,6.201c-8.371,1.692-16.876,2.722-26.026,4.152
	c-1.41,4.932-3.2,10.182-4.398,15.562c-5.146,23.112-19.675,38.292-40.459,48.183c-17.185,8.178-35.413,12.383-54.376,11.838
	c-9.441-0.271-18.923-2.244-28.204-4.278c-14.869-3.259-28.606-2.378-41.497,6.848c-13.446,9.624-26.768,19.751-41.329,27.402
	c-16.746,8.8-33.674,18.363-54.138,16.468c-7.406-0.687-15.065,1.212-22.597,2.053c-3.904,0.436-7.791,1.065-11.663,1.739
	c-3.177,0.553-6.319,1.302-11.05,2.293c18.653,6.116,35.648,11.688,52.947,17.359c30.157-11.734,59.6-27.686,92.531-34.82
	c19.337-4.189,38.277-10.247,57.652-14.212c14.174-2.9,28.878-3.13,43.141-5.688c17.573-3.153,35.173-1.594,52.744-1.686
	c23.215-0.121,46.158,3.256,68.742,8.433c16.077,3.685,31.619,9.142,47.167,14.859c18.176,6.684,32.883,17.653,46.728,30.325
	c8.168,7.477,13.792,17.074,18.042,27.129c2.095,4.958,1.629,10.999,2.312,16.541c-0.973-1.521-2.233-2.922-2.849-4.564
	c-2.407-6.43-3.469-13.684-7.12-19.264c-8.505-12.993-18.255-25.104-32.835-32.16c-6.79-3.285-13.274-7.195-19.998-10.624
	c-14.857-7.576-30.969-11.267-47.188-14.165c-19.181-3.429-38.381-6.983-58.042-6.751c-6.231,0.073-12.469-1.252-18.721-1.685
	c-3.979-0.275-8.003-0.295-11.985-0.065c-8.579,0.494-17.141,1.282-25.718,1.827c-3.32,0.211-6.719-0.295-9.986,0.181
	c-17.29,2.519-34.586,5.037-51.812,7.955c-20.133,3.41-39.871,8.285-58.835,16.159c-12.153,5.046-24.798,8.912-36.938,13.987
	c-10.821,4.524-21.252,9.981-33.961,16.029c14.456,7.462,26.68,13.771,39.087,20.175c21.106-9.111,43.842-13.417,66.72-16.156
	c17.072-2.044,34.441-1.568,51.673-2.312c23.033-0.994,45.528,2.18,67.761,8.061c17.257,4.564,33.204,11.348,45.52,24.811
	c6.313,6.901,10.44,15.184,8.465,24.467c-2.121,9.971-8.236,18.343-17.392,23.01c-17.749,9.047-37.054,12.209-56.8,11.447
	c-10.837-0.418-21.716-1.932-32.382-3.969c-12.26-2.341-24.373-5.559-36.426-8.848c-13.092-3.57-25.189-9.636-37.116-15.996
	c-21.871-11.664-43.721-23.367-66.133-35.351c-18.391,8.878-31.514,25.775-31.883,42.072c-0.386,17.086,6.293,30.951,18.94,43.212
	c8.695-9.51,12.547-19.739,14.71-32.976c2.471,15.223-3.907,25.257-11.012,34.939c0.732,1.097,1.18,1.984,1.83,2.685
	c0.9,0.97,1.88,1.898,2.951,2.671c13.766,9.916,28.842,16.913,44.834,22.779c30.109,11.045,61.306,16.423,92.902,18.643
	c29.782,2.093,59.812,1.101,89.353-3.921c28.662-4.872,56.733-12.213,83.368-24.409c22.231-10.18,42.507-22.928,57.831-42.343
	c11.269-14.276,18.81-30.118,18.324-48.917c-0.094-3.631,0.371-7.276,0.578-10.915c4.207,7.726,2.243,15.974,1.372,23.865
	c-3.081,27.934-21.02,46.139-42.198,61.74c-30.428,22.416-65.546,33.418-101.929,41.524c-13.039,2.905-26.208,3.233-39.27,4.938
	c-21.59,2.817-43.143,1.894-64.636,1.4c-35.128-0.807-69.923-5.377-102.692-18.98c-16.079-6.675-32.611-13.083-45.439-26.377
	c-1.501,1.327-2.836,2.237-3.835,3.429c-14.522,17.314-34.248,26.9-54.428,35.127c-19.179,7.819-39.425,12.247-60.312,13.116
	c-8.556,0.356-17.082,1.687-25.632,1.797c-5.868,0.075-11.785-0.991-17.622-1.912c-5.71-0.899-9.337,1.932-12.834,5.836
	c-13.537,15.115-30.883,20.423-50.642,19.211c-0.932-0.058-1.863-0.639-2.729-1.099c-0.542-0.289-0.96-0.809-2.897-2.509
	c22.771,0.67,42.911-2.436,57.69-21.927c-12.139-3.164-23.504-6.741-35.402-7.765c-2.509-0.215-5.239,2.146-7.867,3.32
	L227.897,604.721z M451.271,463.395c-0.816-0.998-1.429-2.266-2.439-2.894c-5.272-3.276-10.714-6.284-15.972-9.584
	c-11.361-7.13-21.771-8.278-34.696-1.231c-26.096,14.228-53.15,26.777-80.224,39.107c-30.577,13.926-61.526,27.05-94.268,35.326
	c-19.806,5.007-39.405,10.886-59.872,12.884c-2.662,0.26-5.178,2.008-7.343,2.894c0.113,7.556,6.134,5.981,9.729,8.157
	c-1.015,0.97-1.892,1.806-3.84,3.666c8.551,6.75,16.557,14.006,25.487,19.849c8.474,5.544,17.787,9.885,26.981,14.222
	c5.655,2.667,11.726,4.512,17.715,6.391c4.452,1.397,8.769,1.663,13.12-1.373c8.646-6.032,17.64-11.564,26.455-17.356
	c0.262-0.172,0.127-0.945,0.178-1.437c-2.53-0.316-4.962-0.621-7.394-0.925c3.267-1.406,6.458-1.208,9.61-1.475
	c2.21-0.187,4.921-0.351,6.459-1.648c10.777-9.101,23.451-14.79,36.099-20.488c16.479-7.425,33.503-12.533,51.93-10.649
	c5.941,0.607,11.027,2.666,14.227,8.488c-5.495-5.366-12.254-4.688-18.819-4.47c-20.288,0.678-38.725,7.296-55.919,17.77
	c-9.521,5.8-19.015,11.645-28.576,17.377c-10.292,6.17-20.648,12.232-32.95,19.509c9.237,1.971,15.872,3.763,22.624,4.604
	c2.116,0.263,4.551-2.035,6.594-3.041c0.744,0.787,1.882,3.053,3.534,3.528c4.092,1.177,8.408,2.033,12.654,2.135
	c18.892,0.451,37.617-0.687,56.402-3.57c25.621-3.932,49.322-12.489,71.412-25.609c7.498-4.454,15.374-9.136,18.953-17.902
	C410.586,519.141,414.5,489.519,451.271,463.395z M326.654,412.655c-8.651-4.419-12.905-3.825-17.423,1.312
	c-6.306,7.17-12.723,14.25-19.311,21.161c-10.729,11.255-24.438,13.668-39.146,12.432c-5.115-0.43-6.874-3.875-4.447-8.38
	c2.026-3.763,4.521-7.273,6.911-11.06c7.758-0.244,15.46,4.907,23.382-1.9c6.407-5.506,12.598-10.771,18.73-19.448
	c-17.292,1.122-32.602,1.146-47.581,3.384c-12.878,1.925-25.652,5.59-37.99,9.876c-25.084,8.713-45.563,23.438-58.541,47.507
	c-11.06,20.511-10.002,40.994-1.619,61.879c1.781,4.438,4.488,6.153,9.261,5.016c25.901-6.179,51.828-11.727,76.883-21.523
	c31.776-12.425,62.531-26.898,93.265-41.515c20.912-9.945,41.602-20.358,62.361-30.622c3.06-1.513,5.958-3.354,9.733-5.5
	c-16.109-10.436-33.281-13.51-49.403-19.232c-1.559-0.553-4.208,1.205-6.057,2.36c-9.285,5.802-13.595,16.04-20.844,23.672
	c-8.569,9.021-15.063,20.016-25.81,26.968c-4.96,3.21-9.803,6.6-14.721,9.874c-7.938,5.287-15.805,10.691-23.904,15.719
	c-2.121,1.316-4.993,1.975-7.516,1.965c-4.202-0.017-7.591-4.543-5.181-7.451c4.792-5.782,7.357-13.993,16.476-15.721
	c6.925-1.312,14.118-2.334,18.904-9.084c3.615-5.099,7.901-10.042,12.833-13.822c11.568-8.87,18.75-21.422,28.221-32.024
	C325.343,417.127,325.685,414.973,326.654,412.655z M467.948,460.905c17.63,9.748,33.8,19.358,50.567,27.779
	c17.995,9.036,36.393,17.328,54.914,25.244c14.812,6.331,30.433,10.447,46.546,11.619c10.193,0.74,20.51,0.597,30.726,0.026
	c13.316-0.744,25.877-4.716,36.831-12.438c11.04-7.782,13.396-22.545,6.885-34.233c-5.168-9.276-14.035-13.687-22.529-18.415
	c-24.944-13.884-52.729-16.091-80.346-17.396c-17.143-0.811-34.407,1.349-51.627,1.634c-14.259,0.236-28.391,1.521-42.081,5.273
	C488.188,452.642,477.769,453.569,467.948,460.905z M424.596,354.503c-2.356-0.498-3.031-0.835-3.639-0.74
	c-16.79,2.616-33.709,4.638-50.314,8.14c-12.395,2.614-25.545,5.06-34.689,14.938c-5.945,6.424-10.432,14.203-15.517,21.414
	c-1.396,1.979-2.59,4.101-4.261,6.771c5.443,0,9.586,0,13.437,0c1.8-7.706,3.282-14.771,5.195-21.715
	c0.448-1.629,2.09-3.514,3.641-4.131c3.025-1.203,6.44-2.427,9.576-2.176c12.445,0.998,24.359-2.202,36.239-4.627
	C398.329,369.506,411.907,364.651,424.596,354.503z"/>
<path fill-rule="evenodd" clip-rule="evenodd" d="M645.812,1430.412c-12.36,0.164-22.181,2.569-30.852,8.897
	c-10.335,7.542-12.242,15.521-6.176,26.572c0.319,0.581,0.805,1.073,1.106,1.661c1.431,2.79,2.54,5.998-0.705,7.891
	c-3.644,2.125-6.362-0.222-8.076-3.453c-3.84-7.241-3.723-14.798-0.612-22.128c4.732-11.15,13.441-18.49,25.011-21.098
	c11.259-2.537,22.901-3.364,35.144-5.048c1.98,24.279,3.903,47.86,5.826,71.441c18.926-26.805,34.936-54.902,62.103-75.973
	c-8.898,33.841-17.388,66.125-25.856,98.33c6.061,5.94,13.447,1.529,19.92,4.319c-2.222,4.018-5.657,3.811-9.207,3.542
	c-8.176-0.618-16.358-1.149-25.015-1.75c6.308-24.142,12.714-48.656,19.12-73.171c-20.014,22.2-34.284,47.942-50.604,73.283
	c-2.039-25.7-4.077-51.4-6.115-77.101c-0.268,0.018-0.535,0.034-0.803,0.052c-2.568,11.272-4.621,22.694-7.831,33.78
	c-4.278,14.774-10.182,28.836-21.735,39.805c-5.286,5.02-11.364,8.036-18.458,9.104c-1.944,0.292-4.05,0.387-5.941-0.042
	c-3.356-0.762-6.462-2.33-6.558-6.385c-0.077-3.283,4.163-6.436,8.224-5.014c13.915,4.873,21.132-3.261,27.644-13.254
	c8.339-12.796,11.965-27.371,15.196-41.968C642.841,1452.416,643.993,1441.875,645.812,1430.412z"/>
<path fill-rule="evenodd" clip-rule="evenodd" d="M836.356,2241.283c-8.218,3.054-11.718,9.215-13.937,17.087
	c-7.117,25.252-14.636,50.392-21.876,75.609c-0.889,3.096-1.028,6.405-1.587,10.084c3.425,1.565,6.33,2.894,10.673,4.879
	c-13.583,0-25.809,0-38.034,0c10.266-1.793,13.273-9.838,15.661-18.6c3.047-11.18,6.397-22.277,9.604-33.365
	c-7.062-2.604-38.172-3.173-51.167-0.979c-3.674,12.707-7.555,25.701-11.165,38.771c-2.383,8.627-2.065,8.938,6.336,12.474
	c0.759,0.318,1.432,0.845,3.467,2.071c-13.991,0-26.401,0-38.812,0c10.372-1.692,13.352-9.315,15.755-18.049
	c6.438-23.385,13.302-46.652,19.986-69.97c0.547-1.908,1.165-3.812,1.494-5.762c0.959-5.688,1.516-11.287-5.552-14.244
	c10.541,0,21.081,0,31.622,0c-9.307,4.239-11.131,13.047-13.578,21.389c-2.506,8.546-4.836,17.144-7.462,26.499
	c17.43,0,33.636,0,51.278,0c3.233-12.036,6.702-24.401,9.836-36.852c1.484-5.898-2.322-8.755-7.239-11.043
	C813.226,2241.283,824.791,2241.283,836.356,2241.283z"/>
<path fill-rule="evenodd" clip-rule="evenodd" d="M1152.725,2303.511c-11.588,16.977-22.104,32.449-32.793,47.801
	c-0.429,0.614-2.511,0.078-4.75,0.078c-1.643-13.777-3.279-27.496-5.211-43.692c-2.212,4.618-3.589,7.358-4.85,10.151
	c-3.278,7.26-6.188,14.708-9.85,21.767c-3.138,6.044-7.796,10.697-15.012,12.066c-8.879,1.686-11.385,0.161-14.332-9.816
	c-3.551,2.632-6.762,5.382-10.325,7.554c-3.691,2.249-7.824,4.354-12.093,1.472c-4.133-2.791-3.086-7.202-2.173-10.983
	c3.118-12.911,6.6-25.735,9.906-38.602c0.767-2.985,1.388-6.007,2.077-9.012c-0.604-0.355-1.206-0.712-1.809-1.067
	c-4.469,2.823-8.938,5.647-14.521,9.176c5.656-13.454,18.959-20.486,30.18-16.506c-2.443,19.613-12.422,37.838-13.83,60.325
	c6.227-4.058,10.529-6.862,15.223-9.921c0.721,0.643,1.532,1.738,2.619,2.278c11.856,5.898,17.281,4.286,23.088-7.734
	c4.33-8.965,7.978-18.27,11.677-27.524c1.056-2.643,1.23-5.638,1.89-8.865c-8.282-2.608-11.133,6.904-17.893,7.177
	c3.7-8.028,14.526-16.236,21.662-16.736c5.401-0.379,6.899,0.784,7.587,6.53c1.418,11.856,2.65,23.735,4.048,35.595
	c0.383,3.248,1.078,6.46,1.964,11.637c5.396-8.412,9.849-15.292,14.238-22.213c4.812-7.587,9.552-15.221,14.351-22.815
	c4.65-7.358,4.666-7.349,15.129-5.523c-3.625,18.993-10.905,37.207-13.466,56.969c8.229,0.702,10.852-7.029,17.732-9.419
	c-0.581,2.357-0.465,4.184-1.303,4.912c-5.001,4.349-9.886,9.008-15.521,12.371c-2.588,1.545-7.453,1.53-10.045,0.05
	c-1.828-1.045-2.597-5.94-2.062-8.781C1146.587,2329.86,1149.566,2317.638,1152.725,2303.511z"/>
<path fill-rule="evenodd" clip-rule="evenodd" d="M771.938,2088.346c20.769,8.854,23.14,30.862,5.528,45.401
	c-11.213,9.257-24.202,11.764-38.308,11.067c-9.253-0.457-18.536-0.255-27.805-0.437c-0.805-0.016-1.598-0.682-2.934-1.291
	c1.047-0.964,1.595-1.918,2.292-2.042c9.464-1.688,13.904-7.806,16.095-16.748c4.27-17.429,8.875-34.78,13.716-52.06
	c1.363-4.865-1.736-7.766-4.325-11.753c7.05-1.057,13.108-1.964,20.016-2.999c-2.623,10.87-5,20.716-7.391,30.623
	c14.635,1.74,25.437-5.424,28.832-18.66c2.355-9.182-1.594-16.624-10.497-19.649c-6.792-2.308-13.721-2.329-20.621-0.689
	c-21.983,5.225-39.306,16.044-46.06,39.163c-2.826,9.674-2.15,18.29,7.252,24.621c2.649,1.784,7.002,4.346,3.051,8.689
	c-2.357,2.593-6.711,1.24-10.218-2.819c-5.753-6.658-8.123-14.494-6.867-23.116c3.556-24.406,21.262-44.219,45.613-49.686
	c9.266-2.08,19.115-1.637,28.71-2.114c1.905-0.096,3.885,0.773,5.793,1.326c8.226,2.382,14.589,7.057,16.045,15.885
	c1.407,8.543-2.403,15.493-8.898,20.904C778.213,2084.249,775.119,2086.116,771.938,2088.346z M734.282,2139.005
	c4.351,0.231,8.565,0.576,12.786,0.662c19.785,0.404,28.446-17.846,27.464-29.971c-0.487-6.01-2.875-11.136-8.896-13.197
	c-5.873-2.01-11.935-4.1-18.048-2.029C743.215,2109.105,738.965,2123.333,734.282,2139.005z"/>
<path fill-rule="evenodd" clip-rule="evenodd" d="M943.385,1075.265c-10.18,3.338-10.678,11.54-12.666,18.981
	c-3.854,14.429-7.315,29.054-15.611,41.792c-7.802,11.978-18.469,19.359-33.317,17.386c-4.575-0.608-9.163-3.459-13.03-6.268
	c-2.819-2.047-3.339-5.876-0.236-8.713c2.77-2.533,5.503-1.455,7.916,0.883c1.195,1.159,2.331,2.383,3.574,3.487
	c8.255,7.338,15.01,6.468,21.496-2.795c6.582-9.399,9.115-20.343,12.524-31.963c-5.507,1.348-10.134,2.861-14.881,3.58
	c-31.146,4.711-42.525-16.369-41.687-37.33c1.408-35.174,29.008-60.117,57.007-63.745c6.731-0.872,13.831,0.478,20.685,1.385
	c5.164,0.684,10.205,2.293,15.721,3.589c-1.68,9.676-3.263,18.799-4.846,27.922c-0.676,0.03-1.353,0.062-2.028,0.092
	c-0.394-1.907-1.195-3.832-1.116-5.72c0.802-18.952-13.607-25.985-29.248-21.401c-9.104,2.668-17.307,7.255-23.576,14.364
	c-12.119,13.74-18.388,29.66-17.578,48.37c0.819,18.941,16.453,34.042,40.65,22.678c4.344-2.04,4.754-6.083,5.659-9.875
	c2.94-12.307,2.61-12.719-9.616-14.285c-0.513-0.065-0.938-0.807-1.425-1.252C912.901,1073.204,930.53,1072.438,943.385,1075.265z"
	/>
<path fill-rule="evenodd" clip-rule="evenodd" d="M1167.282,1250.28c-0.236-2.77-0.568-5.534-0.694-8.308
	c-0.665-14.683-11.324-22.906-25.717-19.677c-17.938,4.025-29.737,15.6-37.919,31.386c-5.841,11.27-7.601,23.36-6.021,35.867
	c2.537,20.076,23.828,29.636,40.755,18.432c3.767-2.493,8.373-16.074,6.319-19.836c-0.799-1.465-2.898-2.511-4.627-3.106
	c-2.241-0.773-4.703-0.907-7.07-1.316c0.043-0.79,0.085-1.58,0.128-2.371c11.065-0.41,22.132-0.82,33.197-1.23
	c-8.479,5.621-8.993,14.438-11.502,22.502c-3.834,12.324-7.915,24.668-13.197,36.416c-5.109,11.362-13.784,19.809-26.964,21.271
	c-4.815,0.534-10.073,0.008-14.673-1.464c-3.124-0.999-6.099-4.091-7.882-7.015c-0.977-1.601-0.022-5.342,1.367-7.067
	c0.848-1.054,4.603-0.865,6.29,0.099c2.821,1.61,4.979,4.351,7.511,6.505c5.476,4.659,9.493,4.57,14.932-0.284
	c1.24-1.107,2.595-2.204,3.48-3.574c6.367-9.847,10.025-20.719,12.624-31.529c-9.07,0.99-17.475,2.699-25.868,2.646
	c-14.471-0.093-25.755-10.322-28.94-24.383c-3.159-13.946-0.698-27.166,5.349-39.656c8.037-16.604,21.327-28.019,38.407-34.55
	c5.741-2.195,12.39-3.325,18.499-2.947c9.842,0.609,19.581,2.874,29.93,4.53c-1.752,10.24-3.33,19.462-4.909,28.684
	C1169.152,1250.295,1168.217,1250.287,1167.282,1250.28z"/>
<path fill-rule="evenodd" clip-rule="evenodd" d="M1111.713,2051.549c-9.184-0.399-17.694,1.901-25.37,6.669
	c-9.641,5.989-12.187,15.333-7.673,25.953c1.529,3.598,4.614,7.428-1.15,9.962c-3.556,1.563-7.297-1.876-8.583-7.495
	c-3.426-14.959,5.767-31.541,21.311-36.174c10.734-3.199,22.014-4.567,32.689-6.682c8.323,25.807,16.427,50.934,24.53,76.06
	c0.822-0.041,1.646-0.081,2.469-0.122c1.613-6.512,3.093-13.06,4.869-19.525c3.344-12.166,6.229-24.514,10.555-36.329
	c2.322-6.344,6.664-12.233,11.137-17.431c5.263-6.115,12.843-6.488,20.336-4.886c3.559,0.761,6.228,3.081,5.421,7.098
	c-0.88,4.375-4.188,4.551-7.802,3.434c-0.954-0.295-1.938-0.491-2.895-0.775c-8.396-2.497-12.313-1.317-16.423,6.242
	c-2.84,5.226-5.315,10.823-6.858,16.55c-5.96,22.113-11.473,44.348-17.173,66.531c-0.651,2.535-1.428,5.038-2.635,9.266
	c-14.272-27.227-21.705-55.288-32.566-82.662c-1.653,6.761-3.213,13.547-4.981,20.277c-3.377,12.854-6.623,25.751-10.41,38.485
	c-2.391,8.038-6.383,15.338-12.882,21.027c-6.81,5.962-18.249,7.748-26.134,3.621c-1.964-1.027-3.962-2.648-5.025-4.52
	c-0.784-1.38-0.767-4.175,0.158-5.306c0.985-1.203,3.566-1.822,5.252-1.535c1.794,0.306,3.366,1.957,5.016,3.049
	c8.339,5.521,15.737,4.208,21.211-4.272c2.511-3.889,4.438-8.221,6.158-12.539
	C1099.784,2111.67,1111.683,2064.527,1111.713,2051.549z"/>
<path fill-rule="evenodd" clip-rule="evenodd" d="M1152.965,908.176c-1.638-12.631-3.552-24.317-4.55-36.082
	c-0.755-8.908,2.213-17.036,7.981-24.034c1.437-1.742,2.622-3.692,4.448-6.296c-8.702-1.754-15.445,0.153-21.604,5.067
	c0.408,3.441,1.102,6.383,0.927,9.271c-0.068,1.136-1.927,2.586-3.266,3.065c-0.818,0.293-2.77-0.711-3.213-1.619
	c-0.964-1.974-1.947-4.334-1.714-6.399c0.323-2.867,1.756-5.608,3.037-9.347c-5.496,1.04-9.912,3.187-13.958,6.691
	c-10.625,9.204-15.293,21.391-18.055,34.665c-1.352,6.493-3.021,12.92-4.672,19.904c-3.693,0-7.19,0-11.446,0
	c0.271-2.406,0.287-4.624,0.794-6.724c3.353-13.872,6.885-27.702,10.183-41.587c0.82-3.456,0.998-7.065,1.477-10.644
	c-7.61-1.709-8.869,8.661-16.867,6.799c7.963-10.069,17.157-16.165,30.813-18.271c-0.757,6.449-1.39,11.84-2.199,18.735
	c4.601-4.911,8.386-9.014,12.244-13.047c2.07-2.164,4.096-4.423,6.435-6.267c6.657-5.246,10.447-3.803,13.521,5.372
	c10.873-1.263,21.876-2.541,33.841-3.931c-0.632,2.536-0.497,4.794-1.557,5.827c-14.406,14.043-17.956,38.247-10.021,56.474
	c15.659-11.177,28.215-24.084,32.614-43.252c0.536-2.333-0.695-5.13-1.331-7.655c-0.562-2.234-2.225-4.493-1.957-6.553
	c0.289-2.23,2.251-4.244,3.484-6.352c2.041,1.354,5.721,2.583,5.836,4.085c0.476,6.201,0.79,12.686-0.519,18.7
	c-3.241,14.896-12.747,26.244-23.548,36.301C1172.673,898.016,1164.535,904.367,1152.965,908.176z"/>
<path fill-rule="evenodd" clip-rule="evenodd" d="M1529.821,1317.99c-8.761-3.815-9.822-9.821-8.722-17.097
	c3.06-20.223,12.985-36.038,30.068-47.176c3.242-2.113,7.235-3.435,11.066-4.204c6.933-1.393,14.003-2.094,21.898-3.208
	c-1.26,4.741-2.554,9.707-3.9,14.659c-2.963,10.892-6.617,21.647-8.747,32.698c-2.189,11.357-3.166,22.975-4.204,34.521
	c-1.756,19.528-15.03,32.166-34.801,32.618c-2.663,0.061-5.342,0.149-7.993-0.054c-8.604-0.658-17.385-6.892-18.79-14.053
	c-1.58-8.051,2.394-14.286,8.498-18.948C1518.655,1324.342,1523.73,1321.743,1529.821,1317.99z M1557.075,1305.127
	c-11.427,8.172-21.143,15.023-30.736,22.042c-2.661,1.947-5.214,4.17-7.367,6.654c-3.446,3.974-5.274,8.749-2.764,13.778
	c2.506,5.019,6.685,7.966,12.691,8.13c10.155,0.275,20.584-7.37,24.789-18.325
	C1557.472,1327.551,1556.67,1317.317,1557.075,1305.127z M1568.579,1259.4c-9.096-2.376-12.022-2.13-17.863,1.174
	c-9.853,5.574-20.128,30.525-17.011,41.316c0.092,0.318,0.213,0.628,0.327,0.938c1.901,5.145,5.319,7.337,9.962,4.58
	c4.938-2.934,10.206-6.804,12.96-11.62C1563.352,1284.6,1565.233,1271.72,1568.579,1259.4z"/>
<path fill-rule="evenodd" clip-rule="evenodd" d="M1424.295,1731.21c-8.547-4.018-10.034-5.839-9.286-13.672
	c2.059-21.551,12.414-38.35,30.47-50.075c3.984-2.587,9.217-3.504,14.017-4.517c5.643-1.189,11.439-1.645,17.969-2.526
	c-0.239,1.662-0.339,4.069-0.958,6.334c-2.365,8.649-4.743,17.302-7.401,25.865c-5.063,16.312-6.724,33.14-7.868,50.046
	c-1.794,26.501-29.911,37.488-50.294,29.504c-12.974-5.081-15.527-18.388-5.263-27.954
	C1410.927,1739.325,1417.51,1735.868,1424.295,1731.21z M1451.845,1720.742c-0.812-0.243-1.623-0.485-2.435-0.728
	c-8.055,5.718-16.124,11.415-24.158,17.161c-3.496,2.501-7.136,4.862-10.33,7.714c-5.703,5.091-7.149,12.452-3.941,17.905
	c3.093,5.258,10.757,8.033,17.44,6.105c10.341-2.983,17.746-9.691,20.167-20.007
	C1450.732,1739.759,1450.839,1730.145,1451.845,1720.742z M1463.248,1672.878c-14.35-2.883-23.383,1.083-28.465,12.501
	c-3.08,6.919-5.047,14.355-7.202,21.651c-0.636,2.151-0.521,4.66-0.208,6.93c0.996,7.225,5.465,9.713,12.03,6.698
	c6.265-2.876,11.263-7.26,13.445-13.963C1456.427,1695.708,1459.661,1684.608,1463.248,1672.878z"/>
<path fill-rule="evenodd" clip-rule="evenodd" d="M1090.985,1095.791c-7.369,7.774-15.76,14.19-26.617,16.666
	c-4.107,0.937-6.154-1.504-5.558-5.893c0.35-2.573,1.271-5.068,2.394-9.351c-2.938,2.089-4.573,3.261-6.217,4.422
	c-4.055,2.863-7.839,6.26-12.22,8.479c-11.382,5.767-19.025,1.218-19.425-11.413c-0.123-3.908,0.462-7.934,1.348-11.76
	c3.067-13.259,9.763-24.817,18.914-34.586c7.61-8.124,17.077-13.741,29.223-12.562c2.096-6.439,3.874-12.43,5.989-18.299
	c4.647-12.888,13.004-22.399,26.27-26.651c4.308-1.38,9.105-1.649,13.678-1.643c3.415,0.006,5.608,2.892,4.785,6.089
	c-0.525,2.038-2.978,4.584-4.967,5.007c-3.089,0.654-6.53-0.223-9.805-0.6c-11.258-1.295-14.122,0.24-17.294,11.269
	c-3.115,10.831-5.585,21.852-8.187,32.825c-3.289,13.876-6.533,27.764-9.553,41.699c-0.801,3.7-0.71,7.594-1.21,13.565
	c6.983-3.852,12.123-6.687,17.264-9.521C1090.193,1094.287,1090.589,1095.039,1090.985,1095.791z M1071.146,1050.638
	c-12.82-3.692-19.434-1.511-25.214,8.33c-5.411,9.212-8.893,19.172-10.023,29.864c-0.479,4.542,0.391,8.695,4.737,11.033
	c4.095,2.202,7.871,0.358,11.026-2.169c6.043-4.839,10.867-10.655,12.705-18.462
	C1066.572,1069.91,1068.788,1060.592,1071.146,1050.638z"/>
<path fill-rule="evenodd" clip-rule="evenodd" d="M1318.139,897.848c6.689-4.75,11.51-8.174,16.974-12.053
	c0.245,2.013,0.763,3.396,0.397,3.692c-6.392,5.188-12.487,10.921-19.498,15.11c-5.428,3.244-10.191,0.337-10.391-6.061
	c-0.182-5.85,0.958-11.87,2.359-17.609c2.206-9.028,5.18-17.866,7.695-26.822c0.695-2.475,0.925-5.08,1.641-9.19
	c-3.684,0.571-6.817,0.254-9.016,1.538c-9.055,5.291-16.989,11.86-19.805,22.635c-2.924,11.189-5.605,22.442-8.496,34.08
	c-3.762,0-7.289,0-11.837,0c2.227-9.094,4.415-17.648,6.407-26.249c4.193-18.106,8.2-36.257,12.44-54.353
	c4.14-17.665,13.222-31.135,31.876-35.881c3.154-0.802,6.812-1.446,9.776-0.581c2.258,0.659,5.296,3.888,5.212,5.855
	c-0.084,1.953-3.426,4.96-5.713,5.357c-3.795,0.659-7.901-0.302-11.856-0.755c-7.979-0.914-10.599-0.035-12.697,7.492
	c-4.256,15.265-7.687,30.761-9.767,47.204c1.955-1.433,3.852-2.957,5.878-4.282c6.644-4.343,12.945-9.492,20.117-12.662
	c7.105-3.141,10.921,0.089,10.589,7.857c-0.181,4.23-1.491,8.447-2.568,12.599c-3.166,12.189-6.494,24.337-9.679,36.521
	C1317.878,892.441,1318.139,893.737,1318.139,897.848z"/>
<path fill-rule="evenodd" clip-rule="evenodd" d="M1390.352,896.266c7.091-3.771,12.064-6.415,18.123-9.636
	c-6.132,11.645-21.016,19.721-31.35,17.589c0-2.122-0.202-4.381,0.057-6.585c0.265-2.26,0.98-4.468,1.836-8.149
	c-3.029,2.634-4.877,4.451-6.936,5.986c-3.719,2.774-7.309,5.886-11.405,7.961c-11.198,5.674-19.034,0.82-19.425-11.682
	c-0.508-16.291,7.271-29.424,16.519-41.774c7.914-10.568,18.177-17.372,32.83-16.605c1.462-4.965,2.854-10.004,4.431-14.983
	c5.333-16.832,16.024-28.124,33.657-31.969c2.532-0.553,5.328-0.726,7.855-0.265c3.352,0.61,5.493,3.277,4.355,6.559
	c-0.687,1.981-3.166,4.319-5.151,4.654c-3.504,0.593-7.247-0.19-10.886-0.454c-9.802-0.708-12.771,0.843-15.324,10.231
	c-3.833,14.096-7.033,28.366-10.426,42.581c-2.466,10.335-4.966,20.668-7.128,31.069
	C1391.083,885.127,1391.018,889.635,1390.352,896.266z M1388.907,845.408c-8.012-5.649-16.044-4.931-22.02,2.562
	c-8.27,10.369-12.266,22.777-13.424,35.763c-0.829,9.304,6.616,13.147,14.557,7.945c5.856-3.836,10.928-8.661,12.838-15.852
	C1383.571,865.616,1386.264,855.402,1388.907,845.408z"/>
<path fill-rule="evenodd" clip-rule="evenodd" d="M876.627,1680.551c6.675-5.194,11.683-9.513,17.127-13.184
	c3.808-2.567,8.021-4.932,12.396-6.159c5.833-1.636,8.926,1.039,8.973,7.065c0.026,3.262-0.541,6.616-1.395,9.78
	c-2.938,10.901-6.253,21.702-9.139,32.617c-1.049,3.964-1.294,8.141-1.906,12.221c0.657,0.416,1.313,0.832,1.971,1.248
	c4.892-3.475,9.783-6.951,14.676-10.426c0.406,0.329,0.813,0.659,1.221,0.988c-0.703,1.486-1.016,3.478-2.174,4.373
	c-5.752,4.441-11.392,9.209-17.729,12.652c-5.042,2.739-9.396-0.11-9.831-5.862c-0.32-4.234,0.099-8.7,1.13-12.828
	c2.98-11.924,6.448-23.727,9.688-35.586c0.338-1.237,0.43-2.542,0.603-3.605c-2.804-3.21-5.584-2.3-8.333-0.791
	c-9.303,5.106-17.087,11.776-20.148,22.336c-2.68,9.243-4.645,18.692-6.971,28.039c-0.551,2.21-1.287,4.374-1.997,6.756
	c-3.887,0-7.358,0-11.501,0c3.902-16.52,7.571-32.33,11.383-48.106c3.354-13.882,6.045-27.996,10.524-41.512
	c5.074-15.312,16.148-24.864,32.576-27.328c4.083-0.612,8.207-0.76,10.646,3.326c0.705,1.182,0.658,3.523-0.063,4.714
	c-2.499,4.12-6.527,3.525-10.64,3.002c-16.377-2.084-17.693-1.215-21.665,15.112
	C882.857,1652.511,880.009,1665.712,876.627,1680.551z"/>
<path fill-rule="evenodd" clip-rule="evenodd" d="M670.088,2235.649c-0.559,14.016-5.197,31.455-9.786,37.103
	c-0.432-3.328-0.897-5.757-1.038-8.204c-0.726-12.702-6.692-19.605-19.348-21.247c-15.439-2.002-28.211,4.054-38.39,15.086
	c-12.888,13.97-19.016,31.257-20.062,49.903c-0.809,14.407,4.149,26.965,18.116,33.92c13.542,6.744,31.648,4.062,42.934-6.151
	c3.663-3.315,7.057-6.929,10.573-10.405c0.591,0.463,1.182,0.926,1.771,1.388c-2.808,3.714-5.368,7.65-8.466,11.104
	c-16.804,18.738-46.604,17.657-61.549,8.088c-16.086-10.3-21.678-26.088-19.303-44.044c4.672-35.308,31.131-59.374,60.978-63.929
	c8.152-1.243,16.073-0.565,23.618,1.999C657.088,2242.622,663.392,2244.688,670.088,2235.649z"/>
<path fill-rule="evenodd" clip-rule="evenodd" d="M1595.941,2286.22c-3.796,18.976-11.305,37.172-13.54,56.479
	c0.685,0.488,1.368,0.977,2.053,1.466c4.84-3.303,9.68-6.606,16.565-11.305c-1.45,3.618-1.618,5.312-2.552,6.149
	c-4.195,3.761-8.486,7.44-12.98,10.834c-3.584,2.706-7.868,4.441-12.053,1.779c-4.07-2.588-3.141-7.025-2.284-10.916
	c2.138-9.713,4.51-19.374,6.771-29.059c0.368-1.575,0.652-3.17,1.472-7.187c-2.753,3.186-4.235,4.526-5.267,6.152
	c-7.653,12.067-15.346,24.114-22.729,36.345c-2.186,3.621-4.462,5.661-9.448,3.929c-1.619-13.528-3.276-27.375-5.188-43.343
	c-5.102,11.497-9.169,20.885-13.423,30.188c-3.712,8.121-9.89,13.323-18.932,14.268c-2.436,0.255-5.768-0.127-7.338-1.629
	c-1.793-1.715-3.121-5.157-2.771-7.576c0.502-3.463,3.463-5.582,7.418-4.978c1.297,0.198,2.579,0.661,3.799,1.171
	c4.787,2,8.777,0.344,11.429-3.466c8.974-12.887,13.808-27.499,18.053-42.835c-8.661-2.956-11.326,7.11-18.229,6.795
	c5.226-10.701,15.53-16.747,27.911-15.974c4.02,16.353,3.666,33.643,6.98,51.618c1.99-2.111,3.694-3.438,4.788-5.154
	c8.031-12.609,15.924-25.306,23.893-37.954C1585.416,2283.961,1585.555,2283.933,1595.941,2286.22z"/>
<path fill-rule="evenodd" clip-rule="evenodd" d="M751.151,1839.688c-1.56,5.95-3.235,12.346-4.91,18.74
	c-0.788-0.064-1.577-0.129-2.365-0.193c-0.244-1.319-0.659-2.632-0.703-3.957c-0.268-7.967-1.133-9.028-9.209-9.382
	c-5.649-0.248-11.32,0.031-16.979-0.09c-4.163-0.088-6.795,1.169-7.873,5.71c-2.367,9.969-5.201,19.827-8.241,31.213
	c10.555-1.237,21.071,4.024,29.44-7.586c2.113,8.294-1.935,14.392-2.285,22.663c-2.256-2.021-4.46-3.215-4.323-4.001
	c0.896-5.144-2.583-5.652-5.967-5.803c-5.62-0.251-11.26-0.068-17.445-0.068c-4.285,15.265-8.46,30.135-12.901,45.952
	c6.058,0.527,11.462,0.997,16.867,1.468c0.028,0.704,0.057,1.409,0.085,2.113c-6.582,2.343-13.551,0.924-20.429,0.756
	c-7.265-0.179-14.536-0.04-22.921-0.04c1.677-1.555,2.734-3.382,4.125-3.684c8.066-1.756,11.259-7.752,13.158-14.747
	c4.959-18.262,9.756-36.568,14.565-54.87c1.512-5.753,2.857-11.549,4.285-17.351c-15.152-2.661-32.024,9.013-36.288,24.44
	c-2.069,7.486-0.783,14.344,2.641,21.049c1.366,2.676,3.096,5.531-0.414,7.865c-2.94,1.954-7.177,0.455-8.748-3.905
	c-3.006-8.343-2.829-16.997,0.226-25.313c7.011-19.082,22.96-30.439,43.327-30.936c9.65-0.234,19.312-0.043,28.968-0.044
	C734.427,1839.688,742.017,1839.688,751.151,1839.688z"/>
<path fill-rule="evenodd" clip-rule="evenodd" d="M1172.634,1895.959c-0.884-2.798-1.626-5.149-2.629-8.324
	c-6.928,0-14.124,0-22.115,0c-4.183,14.438-8.465,29.216-13.071,45.116c3.592,0.363,6.416,0.673,9.244,0.93
	c2.559,0.232,5.123,0.407,8.383,0.662c-5.356,3.873-7.171,3.854-21.062,2.854c-7.146-0.515-14.36-0.091-23.57-0.091
	c2.824-1.945,4.056-3.364,5.542-3.72c6.184-1.479,9.789-5.408,11.355-11.325c6.623-25.028,13.182-50.074,19.732-75.122
	c0.053-0.199-0.323-0.511-0.5-0.771c-20.577-3.469-46.226,22.801-33.057,45.644c1.584,2.747,4.107,6.05-0.614,8.372
	c-3.701,1.821-7.243-0.182-8.894-5.24c-1.748-5.362-2.497-10.627-1.176-16.549c5.353-23.997,21.967-38.237,46.392-38.677
	c9.991-0.18,19.99,0.102,29.981-0.076c6.938-0.123,13.867-0.672,21.575-1.071c-0.138,6.639-1.631,13.231-5.821,21.241
	c-0.919-2.692-1.557-3.713-1.574-4.744c-0.16-9.093-0.695-9.901-9.14-10.181c-7.292-0.24-14.599-0.05-22.749-0.05
	c-1.91,6.284-3.838,12.174-5.473,18.143c-1.57,5.729-2.836,11.539-4.238,17.323c13.463,2.856,18.253,2.076,28.975-4.495
	C1178.689,1884.979,1177.204,1890.938,1172.634,1895.959z"/>
<path fill-rule="evenodd" clip-rule="evenodd" d="M1236.441,1526.174c-1.364-20.179-2.939-38.638-3.755-57.131
	c-0.624-14.153,5.223-26.487,13.814-38.896c-3.347,0-6.028-0.721-8.05,0.129c-7.291,3.068-14.87,5.901-21.386,10.252
	c-8.364,5.586-10.304,13.285-7.354,22.762c1.07,3.439,3.454,7.13-1.48,9.094c-3.357,1.337-6.613-2.012-7.367-7.473
	c-1.625-11.775,4.16-20.472,12.334-27.943c6.035-5.517,13.319-8.827,21.303-10.174c8.453-1.427,17.008-2.251,27.479-3.589
	c-7.194,13.848-15.093,25.753-16.039,40.232c-0.903,13.796-1.61,27.56,0.817,42.702c3.335-3.016,5.645-4.827,7.629-6.944
	c13.64-14.553,27.26-29.124,40.763-43.804c2.688-2.924,4.99-6.239,7.213-9.547c6.22-9.256,9.059-19.06,5.266-30.206
	c-1.701-4.998-0.113-7.821,3.63-8.507c3.736-0.685,6.918,1.513,7.571,6.048c1.362,9.453,0.706,18.878-5.06,26.803
	c-7.791,10.711-15.672,21.47-24.599,31.216C1272.592,1489.297,1255.229,1506.678,1236.441,1526.174z"/>
<path fill-rule="evenodd" clip-rule="evenodd" d="M1073.914,1638.532c-21.014,1.588-32.959,11.249-37.662,27.818
	c-1.617,5.698-0.046,10.457,1.434,15.484c0.551,1.872,2.428,3.474,2.604,5.305c0.19,1.982-0.43,5.471-1.527,5.842
	c-2.021,0.682-5.127,0.238-6.885-1.004c-1.632-1.152-2.527-3.865-3.004-6.053c-5.138-23.594,13.289-49.427,37.597-52.063
	c10.218-1.108,20.594-0.851,30.9-1.012c9.561-0.15,19.124-0.032,29.32-0.032c-1.041,6.383-2.129,13.168-7.217,19.255
	c-0.219-3.653-0.438-7.306-0.649-10.851c-7.887-4.178-14.517-4.756-32.088-2.707c-3.087,11.118-6.269,22.577-9.437,33.986
	c11.259,4.759,21.199,3.102,28.433-4.512c1.939,6.509,0.633,13.962-4.47,22.565c-1.314-3.601-2.326-6.374-3.651-10.009
	c-6.567,0-13.427,0-21.371,0c-4.128,14.226-8.446,29.109-12.902,44.466c4.739,3.783,11.29,0.686,16.866,3.222
	c-0.889,1.081-1.488,2.454-2.101,2.459c-13.414,0.123-26.83,0.094-42.603,0.094c3.365-2.307,4.867-4,6.68-4.457
	c5.848-1.473,9.178-5.318,10.684-10.765C1059.846,1690.321,1066.686,1665.04,1073.914,1638.532z"/>
<path fill-rule="evenodd" clip-rule="evenodd" d="M737.532,1632.817c-1.7,6.565-3.395,13.111-5.089,19.656c-0.775,0-1.551,0-2.326,0
	c-0.507-3.883-1.014-7.767-1.605-12.307c-9.703-4.7-20.082-1.573-31.136-2.628c-3.259,12.014-6.42,23.67-9.863,36.363
	c11.224,0.771,21.422,4.528,28.862-6.741c0.547,0.357,1.093,0.715,1.64,1.073c-0.61,3.894-0.604,8.03-2.016,11.608
	c-1.269,3.215,1.119,8.471-4.815,9.847c-0.745-2.798-0.635-6.449-2.278-7.603c-2.456-1.724-6.116-2.047-9.319-2.317
	c-4.231-0.357-8.516-0.088-12.799-0.088c-4.437,15.699-8.636,30.556-13.104,46.371c5.861,0.671,11.216,1.284,16.57,1.897
	c-6.509,5.273-13.769,2.179-20.599,2.74c-6.92,0.569-13.924,0.125-21.137,0.125c-1.036-3.562,2.173-4.05,4.407-4.735
	c5.167-1.585,8.7-4.462,10.142-9.888c6.568-24.715,13.251-49.398,19.836-74.108c0.234-0.882-0.129-1.923-0.281-3.651
	c-13.883,0.859-24.798,6.256-32.054,18.267c-5.189,8.59-5.424,17.556-1.763,26.748c0.368,0.926,0.902,1.784,1.292,2.703
	c1.226,2.885,2.404,6.471-1.572,7.375c-2.173,0.494-5.797-1.316-7.342-3.235c-1.706-2.117-2.247-5.509-2.494-8.413
	c-1.989-23.447,15.114-44.831,38.459-48.108c4.597-0.646,9.282-0.875,13.93-0.909
	C706.004,1632.748,720.932,1632.817,737.532,1632.817z"/>
<path fill-rule="evenodd" clip-rule="evenodd" d="M607.39,1219.966c-2.369,9.938-2.964,19.273-5.636,28.127
	c-0.889-0.074-1.777-0.148-2.667-0.223c0-3.024-0.104-6.053,0.018-9.072c0.539-13.424-7.995-19.786-20.541-15.262
	c-14.786,5.331-19.294,21.678-9.084,33.579c4.54,5.293,9.447,10.282,14.334,15.265c13.909,14.183,11.105,33.279-4.776,46.001
	c-11.784,9.44-25.501,12.805-40.375,9.456c-8.033-1.809-15.228-5.501-17.809-14.159c-0.764-2.561-0.607-6.023,0.536-8.393
	c2.373-4.915,8.61-4.718,11.045,0.14c1.171,2.336,1.442,5.105,2.364,7.589c2.692,7.261,7.374,10.707,15.143,10.616
	c11.933-0.139,21.188-5.327,26.866-15.928c3.69-6.892,4.065-14.181-0.789-20.737c-3.739-5.052-7.783-9.992-12.334-14.305
	c-9.882-9.363-16.19-19.636-10.402-33.61c5.664-13.678,20.855-23.057,36.028-22.061
	C595.179,1217.375,600.974,1218.874,607.39,1219.966z"/>
<path fill-rule="evenodd" clip-rule="evenodd" d="M1189.914,1017.566c-10.963-1.724-20.091,1.092-27.913,8.104
	c-5.194,4.656-7.395,10.193-3.616,16.896c0.326,0.577,0.508,1.232,0.804,1.828c1.886,3.798,0.68,6.735-3.14,7.841
	c-3.913,1.132-6.641-1.411-7.168-5.004c-0.979-6.666-0.593-13.266,3.535-19.146c5.435-7.739,12.881-12.842,21.971-14.347
	c10.063-1.667,20.363-1.906,31.722-2.865c-3.61,11.269-6.882,20.924-9.792,30.686c-5.221,17.505-9.711,35.246-15.528,52.545
	c-3.022,8.986-7.184,17.993-12.706,25.634c-7.208,9.971-18.056,14.385-30.669,12.962c-5.117-0.577-9.629-2.558-12.684-7.004
	c-1.934-2.814-2.007-5.644,0.355-8.205c2.731-2.962,5.401-1.583,7.864,0.482c1.526,1.281,2.845,2.808,4.35,4.116
	c8.053,7.008,16.195,5.761,21.456-3.482c1.629-2.862,2.804-6.046,3.773-9.209c8.852-28.873,17.619-57.771,26.378-86.672
	C1189.364,1021.215,1189.523,1019.614,1189.914,1017.566z"/>
<path fill-rule="evenodd" clip-rule="evenodd" d="M687.351,809.916c-11.329-0.033-20.581,2.383-28.312,9.638
	c-4.637,4.353-6.285,9.221-3.657,15.221c0.531,1.211,1.297,2.38,1.533,3.646c0.58,3.102,0.616,6.287-3.37,7.072
	c-3.372,0.664-5.521-1.007-6.907-4.244c-2.328-5.438-0.792-10.524,1.265-15.394c4.686-11.092,14.021-16.965,25.173-19.072
	c9.628-1.819,19.615-1.733,30.656-2.584c-1.132,3.865-1.731,5.97-2.364,8.063c-6.905,22.87-13.824,45.736-20.721,68.609
	c-3.262,10.815-6.42,21.639-13.451,30.845c-8.536,11.175-23.088,17.247-34.951,13.614c-3.593-1.1-7.238-3.616-9.604-6.51
	c-1.349-1.649-1.184-6.052,0.117-8.002c2.021-3.031,5.254-1.542,7.757,0.586c2.273,1.935,4.43,4.059,6.903,5.698
	c7.48,4.958,13.864,3.434,18.43-4.403c1.493-2.563,2.752-5.344,3.628-8.177c9.116-29.475,18.146-58.977,27.139-88.489
	C687.087,814.481,687.025,812.765,687.351,809.916z"/>
<path fill-rule="evenodd" clip-rule="evenodd" d="M1417.795,2287.84c0.079-25.52-8.795-44.566-38.87-50.166
	c17.497-2.659,35.075,6.521,42.569,20.348c8.664,15.985,8.79,33.001,5.939,50.351c-2.325,14.156-8.064,26.555-18.662,36.518
	c-5.937,5.581-13.223,7.693-20.968,7.467c-10.954-0.319-18.729-9.898-18.089-21.944c0.767-14.423,5.982-27.112,16.109-37.567
	C1396.105,2282.231,1405.102,2280.86,1417.795,2287.84z M1416.07,2312.833c-1.123-6.315-1.422-11.365-2.969-15.998
	c-3.371-10.097-11.551-11.757-19.035-4.211c-1.149,1.158-2.252,2.472-2.996,3.91c-7.077,13.694-10.348,27.869-4.408,42.852
	c2.955,7.454,9.746,9.396,15.852,4.275c3.198-2.683,6.278-6.274,7.741-10.095C1412.94,2326.554,1414.39,2319.067,1416.07,2312.833z"
	/>
<path fill-rule="evenodd" clip-rule="evenodd" d="M1220.978,1050.323c-2.215,1.348-4.453,2.658-6.636,4.055
	c-1.99,1.273-3.921,2.641-5.877,3.968c-0.505-0.483-1.009-0.968-1.514-1.451c0.611-1.212,0.905-2.888,1.886-3.562
	c6.269-4.306,12.429-8.888,19.143-12.387c5.062-2.639,8.206-0.2,8.483,5.562c0.094,1.936-0.368,3.939-0.822,5.853
	c-2.843,11.972-5.752,23.927-8.646,35.886c-0.47,1.939-1.373,3.876-1.354,5.807c0.021,2.166,0.191,5.165,1.541,6.237
	c1.24,0.985,4.579,0.613,6.223-0.404c9.216-5.707,17.071-12.63,19.904-23.843c2.838-11.233,6.041-22.374,9.172-33.876
	c3.989,0,7.528,0,10.994,0c-4.535,19.924-9.006,39.526-13.391,59.148c-0.072,0.321,0.908,0.877,2.221,2.074
	c4.381-3.305,8.93-6.737,13.479-10.17c0.444,0.34,0.889,0.68,1.333,1.019c-0.938,1.694-1.511,3.807-2.882,5.008
	c-4.729,4.143-9.334,8.679-14.736,11.741c-7.525,4.266-12.305,0.981-12.194-7.556c0.029-2.241,0.591-4.476,1.105-8.104
	c-3.447,2.852-5.711,5.242-8.431,6.871c-5.946,3.562-11.863,7.426-18.285,9.869c-5.743,2.187-9.001-0.525-8.983-6.701
	c0.013-4.916,0.703-9.919,1.801-14.723c2.217-9.709,5.026-19.282,7.355-28.969c0.823-3.422,0.956-7.01,1.404-10.521
	C1222.507,1050.877,1221.742,1050.601,1220.978,1050.323z"/>
<path fill-rule="evenodd" clip-rule="evenodd" d="M1228.664,2241.407c29.266,0,56.066,0,84.024,0
	c-2.63,9.238-5.017,17.623-7.404,26.008c-0.714-0.014-1.429-0.026-2.144-0.039c-0.191-2.958-0.378-5.915-0.576-8.872
	c-0.507-7.552-2.3-9.943-9.643-11.824c-2.851-0.73-5.896-0.917-8.856-0.956c-8.971-0.118-17.943-0.043-27.99-0.043
	c-1.248,4.346-2.504,8.687-3.741,13.033c-6.903,24.248-13.804,48.496-20.698,72.746c-0.363,1.276-0.723,2.557-0.995,3.854
	c-1.644,7.815-1.045,8.892,6.538,11.672c1.161,0.425,2.387,0.674,3.541,2.695c-6.658,0-13.316,0-19.975,0
	c-6.972,0-13.944,0-21.491,0c4.822-2.82,10.082-4.43,12.964-7.973c3.19-3.922,4.6-9.497,6.101-14.555
	c6.231-20.982,12.21-42.04,18.262-63.075c0.644-2.234,1.228-4.489,1.719-6.761
	C1240.385,2247.674,1239.62,2246.179,1228.664,2241.407z"/>
<path fill-rule="evenodd" clip-rule="evenodd" d="M878.785,1316.269c-4.014,0-7.538,0-11.859,0
	c4.64-19.884,9.124-39.105,13.754-58.948c-7.802-1.185-10.401,5.923-15.469,8.063c-3.74-3.598,0.032-4.965,1.566-6.364
	c11.65-10.625,17.664-12.929,27.255-10.626c-0.952,5.391-1.908,10.805-3.06,17.325c4.538-3.565,8.127-6.478,11.817-9.254
	c2.917-2.193,5.86-4.383,8.97-6.282c4.647-2.838,10.072-5.586,14.859-1.909c4.533,3.481,2.749,9.186,1.388,13.997
	c-3.253,11.502-6.874,22.901-9.979,34.441c-1.062,3.943-1.026,8.183-1.492,12.286c0.625,0.375,1.249,0.75,1.874,1.125
	c4.844-3.358,9.687-6.716,14.53-10.074c0.435,0.378,0.869,0.755,1.304,1.133c-0.506,1.241-0.666,2.898-1.575,3.652
	c-5.1,4.233-10.062,8.798-15.739,12.098c-2.694,1.565-7.846,1.942-10.103,0.344c-2.156-1.527-2.989-6.422-2.651-9.652
	c0.649-6.218,2.386-12.346,3.945-18.439c2.532-9.891,5.285-19.725,8.324-30.986c-3.689,0.204-6.056-0.319-7.716,0.533
	c-10.721,5.501-19.131,13.152-22.109,25.458C884.049,1294.807,881.437,1305.415,878.785,1316.269z"/>
<path fill-rule="evenodd" clip-rule="evenodd" d="M948.054,835.614c4.104,0.193,7.335,0.347,11.195,0.529
	c-3.916,20.327-11.266,39.176-14.391,59.557c8.864,0.91,10.883-7.392,16.575-9.223c0.479,0.578,1.284,1.242,1.177,1.462
	c-4.119,8.431-11.254,13.723-19.554,17.179c-5.866,2.443-9.338-0.456-9.771-7.067c-0.172-2.617-0.028-5.254-0.028-8.165
	c-5.887,4.097-11.44,8.08-17.133,11.855c-1.916,1.271-4.113,2.221-6.302,2.964c-8.965,3.042-14.066-0.875-12.249-10.117
	c1.981-10.073,5.195-19.897,7.504-29.915c1.533-6.651,4.59-13.105,3.7-22.062c-5.604,3.44-10.104,6.203-15.402,9.457
	c-0.096-2.008-0.645-3.815-0.13-4.2c6.085-4.55,11.952-9.614,18.634-13.084c7.397-3.841,11.633-0.237,9.903,8.064
	c-2.775,13.321-6.186,26.509-9.235,39.773c-0.849,3.69-3.882,8.222,0.257,10.953c4.341,2.865,7.902-1.214,11.296-3.744
	c7.712-5.75,13.048-12.984,15.347-22.546C941.92,856.995,944.974,846.846,948.054,835.614z"/>
<path fill-rule="evenodd" clip-rule="evenodd" d="M828.234,836.205c4.078,0,7.295,0,11.331,0
	c-3.562,20.256-11.57,38.93-14.038,59.289c8.527,0.906,10.766-7.513,17.847-8.698c-0.34,1.705-0.145,3.492-0.927,4.199
	c-4.67,4.223-9.211,8.776-14.524,12.027c-3.013,1.844-7.869,2.757-11.083,1.675c-4.245-1.429-3.878-6.39-3.4-10.466
	c0.112-0.961,0.277-1.916,0.693-4.757c-3.794,2.829-6.324,5.115-9.211,6.782c-5.696,3.291-11.312,7.113-17.482,9.079
	c-6.064,1.934-9.016-0.659-8.683-7.009c0.361-6.88,1.692-13.767,3.208-20.514c1.742-7.751,4.325-15.311,6.188-23.04
	c0.809-3.355,0.73-6.925,1.041-10.253c-7.393-1.623-9.527,7.787-17.629,5.814c6.439-7.358,13.062-12.564,21.022-15.752
	c7.431-2.977,11.151-0.035,9.768,7.837c-1.548,8.812-3.918,17.479-5.99,26.196c-1.455,6.121-3.214,12.18-4.405,18.351
	c-0.387,2.003,0.02,5.689,1.071,6.115c2.035,0.824,5.234,0.653,7.166-0.464c9.171-5.306,16.161-12.625,19.03-23.207
	C822.167,858.565,825.11,847.721,828.234,836.205z"/>
<path fill-rule="evenodd" clip-rule="evenodd" d="M1497.059,1311.529c6.865-4.719,11.777-8.096,18.608-12.792
	c-1.438,3.673-1.606,5.869-2.776,6.787c-5.459,4.278-10.819,8.939-16.932,12.059c-6.684,3.41-11.347,0.221-11.141-7.262
	c0.154-5.58,1.465-11.205,2.854-16.658c2.378-9.337,5.273-18.542,7.829-27.836c0.592-2.152,0.692-4.439,1.134-7.445
	c-2.103-0.178-3.888-0.893-5.099-0.344c-10.62,4.819-19.653,11.55-23.055,23.309c-3.228,11.158-5.702,22.535-8.785,34.929
	c-3.103,0.141-6.56,0.298-11.571,0.525c3.537-20.729,9.783-39.88,13.419-62.086c-4.285,2.661-6.934,4.13-9.383,5.878
	c-2.248,1.604-4.281,3.508-7.73,6.38c3.556-11.92,17.111-20.215,30.159-19.263c-0.378,2.808-0.742,5.561-1.12,8.312
	c-0.357,2.612-0.729,5.222-1.288,9.206c6.613-4.928,12.142-9.316,17.963-13.273c2.981-2.026,6.334-3.919,9.788-4.751
	c7.342-1.767,11.721,2.487,10.008,9.975c-2.145,9.371-5.136,18.547-7.727,27.817c-1.432,5.121-2.953,10.226-4.116,15.409
	C1497.478,1303.172,1497.534,1306.091,1497.059,1311.529z"/>
<path fill-rule="evenodd" clip-rule="evenodd" d="M815.383,2083.779c-4.612,2.773-9.224,5.547-14.553,8.752
	c3.138-8.213,16.177-18.119,23.388-18.605c3.396-0.229,5.066,1.595,5.021,4.704c-0.057,3.957-0.103,8.013-0.966,11.843
	c-2.403,10.673-5.229,21.249-7.88,31.866c-0.481,1.927-1.321,3.873-1.274,5.793c0.053,2.154,0.272,5.145,1.632,6.178
	c1.248,0.95,4.448,0.406,6.2-0.554c10.012-5.482,17.252-13.33,20.146-24.744c2.761-10.891,5.746-21.725,8.708-32.866
	c3.709,0,6.918,0,11.332,0c-0.88,4.11-1.537,7.864-2.496,11.539c-3.348,12.839-6.905,25.624-10.141,38.49
	c-0.821,3.264-0.746,6.752-1.083,10.137c0.729,0.418,1.457,0.836,2.186,1.254c4.525-3.291,9.051-6.582,14.333-10.424
	c-3.418,8.434-12.814,17.209-19.58,18.968c-5.469,1.421-9.159-1.091-9.547-6.823c-0.194-2.882,0.224-5.805,0.429-10.029
	c-4.131,3.436-7.195,6.327-10.606,8.725c-3.516,2.471-7.147,5.113-11.139,6.467c-3.509,1.19-8.272,2.098-11.25,0.629
	c-4.397-2.168-3.474-7.523-2.462-11.728c3.104-12.901,6.524-25.725,9.729-38.602c0.783-3.146,1.21-6.379,1.801-9.571
	C816.668,2084.711,816.025,2084.245,815.383,2083.779z"/>
<path fill-rule="evenodd" clip-rule="evenodd" d="M1031.756,1517.058c4.659-3.2,9.318-6.401,13.978-9.603
	c-3.626,8.291-9.678,14.019-17.376,17.675c-6.932,3.292-10.527,0.744-11.076-7.136c-0.174-2.499-0.027-5.021-0.027-8.272
	c-5.635,4.178-10.347,7.691-15.085,11.169c-1.071,0.787-2.168,1.593-3.364,2.148c-4.884,2.265-10.247,4.858-15.01,1.021
	c-4.145-3.34-2.631-8.463-1.433-13.078c3.171-12.205,6.287-24.424,9.309-36.666c0.766-3.102,1.097-6.31-0.076-10.898
	c-4.682,2.85-9.363,5.699-15.117,9.202c3.759-8.639,17.163-18.687,23.782-18.825c4.091-0.086,6.383,3.034,5.318,8.381
	c-2.14,10.747-4.639,21.424-7.071,32.11c-1.029,4.525-2.538,8.957-3.294,13.521c-0.383,2.308,0.428,4.812,0.822,8.335
	c14.005-4.421,22.459-12.563,26.342-25.061c3.534-11.375,6.322-22.981,9.526-34.806c3.769,0,7.245,0,11.207,0
	c-3.649,20.384-11.685,39.168-13.907,59.173C1030.054,1515.984,1030.904,1516.521,1031.756,1517.058z"/>
<path fill-rule="evenodd" clip-rule="evenodd" d="M999.599,2084.763c-3.879,0.761-6.609,0.661-8.642,1.804
	c-9.165,5.155-17.149,11.64-20.043,22.371c-3.013,11.175-5.666,22.445-8.6,34.163c-3.695,0-7.212,0-11.406,0
	c3.179-19.942,10.521-38.826,12.464-60.81c-6.234,3.956-10.737,6.813-16.363,10.383c6.441-11.973,18.195-18.946,30.11-18.064
	c-0.719,5.675-1.434,11.324-2.276,17.977c6.725-5.011,12.414-9.505,18.383-13.591c2.975-2.037,6.312-3.833,9.747-4.842
	c5.622-1.652,9.245,0.905,9.403,6.797c0.104,3.883-0.833,7.885-1.848,11.688c-3.333,12.501-6.984,24.918-10.326,37.417
	c-0.523,1.956-0.073,4.174-0.073,8.5c6.44-4.355,11.261-7.615,16.082-10.875c-3.632,8.99-10.229,14.646-18.729,17.599
	c-6.276,2.182-10.391-1.229-10.085-8.159c0.217-4.906,1.422-9.826,2.664-14.616c2.332-8.991,5.084-17.873,7.503-26.843
	C998.396,2092.579,998.757,2089.37,999.599,2084.763z"/>
<path fill-rule="evenodd" clip-rule="evenodd" d="M1448.971,1463.57c-2.463,1.517-4.952,2.992-7.382,4.562
	c-1.986,1.283-3.902,2.676-6.646,2.905c5.316-8.575,12.871-14.277,22.465-17.007c4.002-1.139,6.746,1.6,6.167,6.62
	c-0.795,6.89-2.325,13.717-3.89,20.49c-1.79,7.754-4.163,15.375-5.875,23.145c-0.726,3.296-0.413,6.821-0.602,10.88
	c9.926-0.32,15.459-5.752,20.003-11.614c3.56-4.592,6.129-10.255,7.942-15.831c3.277-10.082,5.663-20.454,8.591-31.338
	c3.459,0,6.92,0,11.471,0c-1.812,7.28-3.491,14.232-5.278,21.156c-2.488,9.637-5.153,19.229-7.533,28.891
	c-0.744,3.02-0.811,6.205-1.187,9.315c0.647,0.424,1.295,0.849,1.942,1.272c4.732-3.084,9.464-6.168,14.463-9.427
	c-2.727,8.126-14.068,18.028-21.077,18.688c-4.45,0.418-7.382-2.133-7.752-6.99c-0.125-1.632,0.306-3.301,0.4-4.957
	c0.071-1.254,0.015-2.515,0.015-4.608c-10.74,7.328-19.046,18.268-33.569,15.52c-3.427-4.652-2.69-9.481-1.42-14.375
	c3.169-12.205,6.393-24.397,9.455-36.63c0.776-3.104,1.032-6.338,1.527-9.512C1450.459,1464.34,1449.715,1463.955,1448.971,1463.57z
	"/>
<path fill-rule="evenodd" clip-rule="evenodd" d="M1415.403,846.876c5.389-5.862,12.179-9.276,18.786-12.812
	c3.466-1.854,6.053-0.082,8.248,3.177c7.771,11.534,12.187,24.293,14.481,37.871c0.879,5.202,1.469,10.452,2.517,18.044
	c8.052-15.466,15.203-28.854,11.665-45.214c-0.631-2.918-1.912-5.947-1.546-8.748c0.278-2.125,2.424-5.188,4.241-5.598
	c1.827-0.411,5.563,1.48,6.178,3.186c1.175,3.263,1.272,7.172,0.86,10.701c-1.988,17.055-7.816,32.918-15.858,47.989
	c-7.691,14.414-15.831,28.53-28.337,39.513c-7.138,6.27-14.978,11.049-24.727,11.771c-1.981,0.147-4.021,0.131-5.98-0.162
	c-3.825-0.571-7.273-1.806-7.216-6.636c0.046-3.938,3.566-6.38,8.671-6.031c0.98,0.066,1.932,0.482,2.909,0.671
	c7.938,1.526,15.554,2.633,22.677-3.354c8.274-6.954,14.615-15.201,15.348-25.914c1.194-17.451-1.95-34.469-9.403-50.421
	c-5.129-10.976-7.295-11.543-18.348-6.697c-1.063,0.466-2.385,0.375-3.593,0.448
	C1416.775,848.672,1416.543,848.193,1415.403,846.876z"/>
<path fill-rule="evenodd" clip-rule="evenodd" d="M1542.293,1496.586c-6.466,8.107-11.617,14.971-17.215,21.449
	c-3.964,4.589-8.744,8.404-15.421,7.546c-2.136-0.274-4.42-1.178-6.145-2.457c-2.394-1.777-2.978-4.391-0.869-6.948
	c1.911-2.317,3.938-2.946,6.911-1.197c7.574,4.456,8.031,4.315,13.657-2.167c3.04-3.503,5.455-7.613,8.779-10.792
	c9.979-9.541,8.319-20.631,4.923-32.082c-2.098-7.074-4.322-7.971-10.706-4.372c-2.143,1.207-4.254,2.469-7.919,4.602
	c0.774-2.842,0.715-4.41,1.418-4.912c4.852-3.467,9.644-7.123,14.882-9.919c6.044-3.227,8.881-1.938,11.353,4.709
	c1.608,4.328,2.47,8.935,4.016,14.729c2.146-2.209,3.766-3.915,5.428-5.578c5.146-5.148,10.067-10.562,15.577-15.289
	c2.381-2.043,5.96-3.519,9.052-3.627c2.266-0.08,5.751,1.971,6.684,3.996c1.501,3.261-1.174,5.458-4.478,6.273
	c-0.956,0.236-1.98,0.241-2.976,0.27c-8.236,0.236-14.34,4.392-19.74,10.244c-6.221,6.739-9.453,13.701-6.295,23.292
	c3.307,10.043,4.604,20.758,8.026,30.752c2.192,6.403,5.896,12.66,10.269,17.848c5.18,6.146,10.688,5.14,15.44-1.393
	c0.583-0.801,0.851-2.193,1.577-2.458c1.928-0.705,4.883-1.945,5.85-1.121c1.303,1.111,2.121,4.425,1.395,5.969
	c-2.083,4.43-6.151,6.964-11.031,7.578c-10.314,1.3-18.952-1.781-25.586-10.101c-6.151-7.714-9.715-16.57-12.107-26.001
	C1545.574,1509.647,1544.125,1503.86,1542.293,1496.586z"/>
<path fill-rule="evenodd" clip-rule="evenodd" d="M730.025,1244.463c-5.311,21.413-12.848,41.265-14.594,62.19
	c7.94,3.091,10.802-6.851,17.509-5.567c-8.222,9.476-16.261,19.068-31.35,16.997c0.161-2.674,0.203-4.565,0.41-6.439
	c0.206-1.881,0.577-3.744,1.12-7.144c-4.896,3.55-8.485,6.346-12.274,8.835c-2.764,1.814-5.635,3.704-8.733,4.727
	c-8.248,2.724-14.494-1.579-15.49-10.277c-1.486-12.977,3.283-24.241,10.059-34.746c9.923-15.384,23.168-25.383,42.506-25.354
	C722.413,1247.688,725.642,1245.823,730.025,1244.463z M714.395,1258.632c-8.854-2.883-16.48-1.793-22.107,4.057
	c-9.832,10.222-14.222,22.996-13.386,37.168c0.424,7.187,5.188,9.713,11.91,6.826c6.723-2.886,11.536-8.21,13.846-14.895
	C708.407,1280.933,711.188,1269.742,714.395,1258.632z"/>
<path fill-rule="evenodd" clip-rule="evenodd" d="M1380.338,1717.475c-6.467,4.678-11.319,8.753-16.691,11.959
	c-11.951,7.132-21.471,1.669-20.86-12.275c0.27-6.15,1.644-12.707,4.331-18.19c3.903-7.966,8.803-15.661,14.454-22.499
	c7.461-9.029,17.623-13.808,29.524-14.724c4.755-0.366,9.452-1.485,14.996-2.396c-0.702,2.958-1.436,6.321-2.302,9.65
	c-3.426,13.168-7.048,26.287-10.25,39.509c-0.972,4.008-0.821,8.288-1.38,14.669c6.775-3.852,11.629-6.611,16.482-9.37
	c-5.753,9.966-13.609,16.875-24.816,18.795c-4.526,0.775-6.139-1.573-5.288-6.655
	C1378.914,1723.699,1379.478,1721.484,1380.338,1717.475z M1390.861,1672.495c-10.385-2.613-17.34-1.668-22.759,4.442
	c-9.162,10.332-13.558,22.772-12.7,36.61c0.469,7.562,5.947,10.154,12.778,6.511c6.672-3.56,11.682-8.925,13.923-16.188
	C1385.303,1693.501,1387.967,1682.968,1390.861,1672.495z"/>
<path fill-rule="evenodd" clip-rule="evenodd" d="M1356.039,2137.225c6.635-4.214,11.218-7.124,16.027-10.178
	c-1.09,10.235-17.561,19.75-30.336,17.184c0.786-4.316,1.585-8.696,2.508-13.763c-5.117,4.012-9.606,7.743-14.318,11.17
	c-5.366,3.9-11.755,6.354-17.647,2.77c-5.987-3.642-6.555-10.732-5.515-17.109c3.34-20.48,13.971-36.419,31.575-47.385
	c3.547-2.209,8.017-3.215,12.206-4.05c6.178-1.231,12.486-1.813,19.597-2.789
	C1365.425,2093.292,1357.097,2113.202,1356.039,2137.225z M1354.801,2086.347c-9.116-5.074-16.293-1.749-21.76,3.598
	c-10.489,10.259-14.599,23.5-13.594,38.053c0.432,6.242,4.641,8.311,10.601,6.274c9.067-3.098,13.737-10.316,16.539-18.68
	C1349.729,2106.216,1351.981,2096.542,1354.801,2086.347z"/>
<path fill-rule="evenodd" clip-rule="evenodd" d="M1450.175,1929.821c6.835-3.816,11.531-6.439,16.896-9.436
	c-5.188,11.611-18.289,19.447-30.005,18.052c0-2.427-0.184-4.979,0.056-7.489c0.208-2.182,0.894-4.317,1.706-8.005
	c-5.21,4.294-9.091,7.837-13.322,10.897c-5.76,4.166-12.272,8.407-19.156,3.674c-6.469-4.448-6.632-11.97-5.164-19.081
	c3.56-17.246,12.33-31.353,26.253-42.212c5.681-4.43,12.238-6.455,19.279-7.324c5.41-0.667,10.799-1.506,16.934-2.373
	c0.978,2.873-1.053,6.07-1.887,9.329c-3.29,12.861-6.865,25.651-9.992,38.552
	C1450.779,1918.499,1450.855,1922.851,1450.175,1929.821z M1449.229,1878.692c-8.988-2.115-16.499-1.568-21.965,3.983
	c-10.293,10.456-14.619,23.665-13.686,38.206c0.433,6.75,5.151,9.048,11.422,6.413c7.476-3.143,12.57-9.057,15.101-16.437
	C1443.634,1900.555,1446.109,1889.888,1449.229,1878.692z"/>
<path fill-rule="evenodd" clip-rule="evenodd" d="M1243.588,2073.079c-4.568,20.118-12.897,40.051-14.057,63.639
	c6.521-3.744,11.449-6.574,16.841-9.67c-3.128,10.99-18.927,19.738-30.932,17.199c0.676-4.008,1.358-8.054,2.312-13.712
	c-4.199,3.437-7.098,6.018-10.216,8.297c-2.669,1.951-5.438,3.89-8.427,5.255c-10.445,4.769-18.315,0.272-18.31-11.104
	c0.003-6.477,1.208-13.234,3.321-19.367c4.188-12.155,12.005-21.967,21.981-30.157c5.646-4.634,12.078-6.751,19.09-7.735
	C1231.097,2074.894,1236.997,2074.028,1243.588,2073.079z M1228.413,2086.589c-9.736-4.383-20.168-1.601-25.592,7.201
	c-3.443,5.588-6.04,11.827-8.147,18.067c-1.452,4.304-2.028,9.124-1.917,13.688c0.224,9.129,6.362,12.295,14.142,7.378
	c5.706-3.605,10.386-8.436,12.418-15.122C1222.479,2107.392,1225.416,2096.913,1228.413,2086.589z"/>
<path fill-rule="evenodd" clip-rule="evenodd" d="M743.978,832.087c9.253,1.159,16.438,6.479,18.713,15.17
	c6.789,25.934-12.599,51.846-31.321,57.216c-15.54,4.458-28.028-3.794-27.885-19.944c0.167-18.711,6.876-35.124,23.224-45.772
	C731.767,835.461,738.184,834.251,743.978,832.087z M749.729,862.954c-0.575-4.598-0.552-9.372-1.846-13.757
	c-3.176-10.759-11.652-12.816-19.517-4.731c-2.943,3.027-5.639,6.803-7.026,10.737c-3.665,10.395-5.654,21.083-2.703,32.189
	c1.363,5.132,3.475,9.608,8.825,11.06c5.971,1.619,10.317-1.721,13.582-6.28C747.268,883.482,750.03,873.724,749.729,862.954z"/>
<path fill-rule="evenodd" clip-rule="evenodd" d="M1016.508,1065.806c-0.953,19.968-10.441,34.88-28.122,43.67
	c-17.966,8.932-32.277-0.754-31.776-20.719c0.414-16.499,6.942-30.272,19.43-41.05c5.98-5.161,13.314-7.593,21.079-7.906
	c10.091-0.406,18.102,7.708,19.353,19.018C1016.726,1061.121,1016.508,1063.476,1016.508,1065.806z M970.413,1084.571
	c0.271,2.189,0.397,6.562,1.428,10.709c1.241,5.001,3.84,9.431,9.597,10.249c5.608,0.798,9.462-2.327,12.457-6.659
	c9.098-13.162,10.89-27.68,6.942-42.818c-2.832-10.858-11.302-12.686-19.485-4.771
	C972.496,1059.846,970.742,1070.867,970.413,1084.571z"/>
<path fill-rule="evenodd" clip-rule="evenodd" d="M854.505,1271.743c-0.396,19.207-9.602,33.384-25.5,43.37
	c-3.241,2.036-7.413,3.095-11.279,3.54c-14.468,1.668-22.63-5.828-23.181-20.42c-0.599-15.855,5.308-29.211,15.699-40.662
	c5.239-5.774,12.104-9.238,19.954-10.401c13.357-1.979,22.692,5.139,24.274,18.593
	C854.705,1267.73,854.505,1269.748,854.505,1271.743z M808.701,1289.051c0,2.65-0.213,5.321,0.039,7.947
	c0.817,8.544,4.801,14.83,10.215,15.406c7.407,0.788,11.659-4.266,14.789-9.805c6.57-11.627,8.469-24.091,5.615-37.312
	c-1.195-5.541-2.938-10.464-8.956-11.815c-5.966-1.339-9.866,2.303-13.307,6.68C810.396,1268.679,808.27,1278.491,808.701,1289.051z
	"/>
<path fill-rule="evenodd" clip-rule="evenodd" d="M784.286,1711.529c0.667-19.346,7.057-33.827,20.983-44.151
	c4.321-3.203,9.996-5.386,15.339-6.24c12.757-2.041,19.854,3.361,23.078,16.138c5.03,19.933-11.347,48.348-30.967,54.198
	C795.768,1736.528,782.272,1726.277,784.286,1711.529z M797.618,1702.628c1.141,5.766,1.419,11.89,3.634,17.208
	c2.959,7.104,8.952,8.324,15.45,4.075c2.131-1.394,4.078-3.404,5.46-5.551c8.129-12.62,10.123-26.336,6.843-40.918
	c-1.094-4.862-3.472-8.764-8.439-10.122c-5.061-1.383-8.856,1.154-12.244,4.78C800.274,1680.715,798.2,1691.166,797.618,1702.628z"
	/>
<path fill-rule="evenodd" clip-rule="evenodd" d="M1367.068,1479.094c-0.811,19.488-10.045,34.452-26.881,43.436
	c-16.559,8.835-34.605,1.687-33.104-20.653c0.265-3.932,0.773-7.898,1.685-11.726c2.439-10.242,7.348-19.353,15.25-26.237
	c4.364-3.803,9.77-7.079,15.268-8.781c15.238-4.722,26.254,3.154,27.762,18.992
	C1367.203,1475.767,1367.068,1477.437,1367.068,1479.094z M1353.234,1482.393c-0.228-2.651-0.332-5.319-0.707-7.949
	c-0.877-6.131-2.516-12.168-9.246-14.106c-7.117-2.051-11.567,3.342-14.666,8.084c-8.859,13.559-10.392,28.58-5.232,43.874
	c2.604,7.72,10.747,9.697,17.034,4.595c2.507-2.034,4.452-4.921,6.195-7.706C1351.727,1501.013,1352.762,1491.757,1353.234,1482.393
	z"/>
<path fill-rule="evenodd" clip-rule="evenodd" d="M878.431,2120.68c-0.094-12.815,5.518-23.596,13.3-33.329
	c5.288-6.613,12.094-11.043,20.744-12.627c13.559-2.482,21.791,2.436,24.788,15.996c3.507,15.867-1.845,29.338-12.412,40.976
	c-6.53,7.191-13.697,13.181-24.233,14.09c-17.684,1.526-22.751-10.885-22.65-23.04C877.972,2122.1,878.249,2121.455,878.431,2120.68
	z M924.758,2105.229c-0.929-6.487-1.198-10.807-2.207-14.946c-2.712-11.129-11.636-13.474-19.836-5.324
	c-1.633,1.622-3.278,3.382-4.366,5.379c-6.938,12.74-8.694,26.312-4.792,40.215c2.805,9.992,11.506,12.153,19.173,5.17
	c2.394-2.18,4.895-4.897,5.865-7.855C921.251,2119.775,923.119,2111.425,924.758,2105.229z"/>
<path fill-rule="evenodd" clip-rule="evenodd" d="M948.068,2311.017c11.221,2.969,15.029,10.886,9.037,20.771
	c-7.73,12.754-19.806,19.553-34.531,20.739c-9.342,0.753-15.044-4.906-15.241-14.501c-0.391-18.945,7.015-34.91,19.983-48.367
	c4.511-4.681,10.451-7.143,16.885-7.842c10.532-1.146,16.71,6.56,12.593,16.243C954.797,2302.755,951.045,2306.703,948.068,2311.017
	z M921.282,2324.115c0,5.124-0.521,10.088,0.131,14.894c0.834,6.148,4.928,8.175,10.862,6.223
	c6.924-2.277,13.782-11.354,14.266-18.878c0.473-7.374-3.219-10.859-10.274-8.79
	C931.258,2319.033,926.608,2321.733,921.282,2324.115z M923.094,2317.565c7.983-3.343,14.846-6.993,19.957-13.191
	c4.462-5.41,4.62-12.068,0.79-15.166c-3.854-3.117-10.2-1.113-14.021,5.123C925.676,2301.096,923.333,2308.565,923.094,2317.565z"/>
<path fill-rule="evenodd" clip-rule="evenodd" d="M1495.506,2306.989c-0.979,19.502-10.153,34.1-27.679,42.802
	c-17.651,8.765-32.491-1.661-31.123-21.377c1.089-15.682,7.727-28.652,19.557-39.003c7.69-6.729,16.835-7.75,26.275-6.058
	c7.109,1.273,10,7.337,11.862,13.528C1495.336,2300.001,1495.157,2303.456,1495.506,2306.989z M1481.888,2311.175
	c-0.823-5.209-0.871-10.702-2.646-15.565c-2.926-8.017-9.944-9.527-16.637-4.204c-1.779,1.416-3.284,3.273-4.615,5.142
	c-8.309,11.663-8.538,24.849-6.556,38.217c0.796,5.371,3.213,10.625,9.54,11.33c5.771,0.644,9.943-2.583,13.064-7.377
	C1479.49,2330.343,1481.854,2321.215,1481.888,2311.175z"/>
<path fill-rule="evenodd" clip-rule="evenodd" d="M864.709,895.893c9.799-0.625,13.782-9.335,22.761-12.21
	c-1.222,2.848-1.456,5.059-2.66,5.932c-7.203,5.219-14.249,10.863-22.098,14.915c-6.48,3.347-10.461,0.414-9.948-6.927
	c0.572-8.21,2.055-16.435,3.959-24.458c4.515-19.021,9.264-37.993,14.392-56.856c4.482-16.491,15.146-26.893,32.232-30.119
	c1.939-0.367,3.976-0.547,5.938-0.405c4.68,0.34,7.64,3.071,7.085,6.557c-0.629,3.956-3.355,5.525-7.158,5.323
	c-3.639-0.193-7.266-0.673-10.905-0.788c-8.418-0.268-11.11,1.121-13.075,9.027c-6.958,28-13.52,56.099-20.174,84.174
	C864.691,891.598,864.849,893.263,864.709,895.893z"/>
<path fill-rule="evenodd" clip-rule="evenodd" d="M841.229,2327.416c0.458-12.161,6.449-25.215,17.158-35.96
	c4.703-4.72,10.507-7.988,17.544-8.635c14.821-1.364,21.602,3.284,23.985,18.68c3.624,23.416-16.191,45.958-31.707,50.055
	C852.352,2355.743,841.339,2347.214,841.229,2327.416z M855.253,2323.234c0,2.317-0.123,4.644,0.021,6.952
	c0.55,8.744,3.981,14.444,9.487,15.952c5.029,1.377,11.598-2.587,15.431-10.08c5.879-11.492,7.971-23.597,5.102-36.442
	c-1.169-5.236-3.309-9.541-8.616-11.119c-5.237-1.559-8.7,2.012-11.886,5.391C857.011,2302.14,855.111,2312.373,855.253,2323.234z"
	/>
<path fill-rule="evenodd" clip-rule="evenodd" d="M1298.587,1102.878c9.697-1.195,14.218-8.824,22.543-13.146
	c-0.559,3.244-0.337,4.963-1.025,5.488c-7.093,5.411-13.886,11.45-21.655,15.669c-7.813,4.241-12.021,1.061-11.763-7.824
	c0.144-4.92,0.938-9.904,2.106-14.696c5.345-21.91,10.723-43.817,16.508-65.614c2.908-10.958,8.969-19.93,19.332-25.471
	c5.997-3.207,12.283-4.909,19.121-4.416c3.741,0.27,6.561,1.77,6.615,5.836c0.057,4.235-3.168,5.838-6.679,5.84
	c-4.269,0.003-8.558-0.695-12.801-1.337c-5.526-0.836-8.958,1.514-10.588,6.631c-1.511,4.742-2.996,9.508-4.161,14.343
	c-5.596,23.212-11.107,46.443-16.56,69.689C1298.999,1096.353,1299,1098.973,1298.587,1102.878z"/>
<path fill-rule="evenodd" clip-rule="evenodd" d="M1346.289,2281.899c10.836,0.889,16.185,4.66,18.809,15.05
	c4.646,18.396-2.94,32.943-15.481,45.513c-4.672,4.684-10.225,7.933-17.029,9.525c-14.132,3.309-25.084-5.499-25.096-19.092
	c-0.017-19.624,7.354-36.26,24.786-46.823C1336.31,2283.628,1341.586,2283.235,1346.289,2281.899z M1320.828,2323.823
	c0.495,3.566,0.918,7.145,1.5,10.695c0.918,5.599,3.441,10.651,9.254,11.663c6.157,1.071,10.454-2.98,13.576-8.061
	c7.478-12.166,9.011-25.235,6.103-39.05c-1.111-5.278-3.634-9.584-8.99-10.77c-5.08-1.125-8.694,2.403-11.788,5.928
	C1323.062,2302.685,1321.186,2312.943,1320.828,2323.823z"/>
<path fill-rule="evenodd" clip-rule="evenodd" d="M818.392,1931.644c5.391-3.1,8.812-4.871,12.021-6.968
	c3.196-2.089,6.18-4.503,10.718-7.854c-0.546,3.09-0.331,4.824-1.024,5.34c-7.396,5.506-14.481,11.688-22.571,15.931
	c-7.56,3.963-11.186,0.893-10.849-7.92c0.188-4.925,1.012-9.899,2.182-14.697c5.344-21.896,10.481-43.855,16.539-65.557
	c4.548-16.295,15.184-26.931,32.552-29.669c0.981-0.155,1.952-0.436,2.938-0.497c5.828-0.367,9.666,2.144,9.518,6.174
	c-0.139,3.732-3.419,5.979-8.935,5.675c-2.962-0.163-5.883-0.979-8.835-1.414c-6.773-0.996-9.976,0.585-12.376,6.967
	c-1.979,5.258-3.546,10.705-4.858,16.174c-5.416,22.568-10.696,45.169-15.933,67.78
	C818.899,1923.604,818.926,1926.242,818.392,1931.644z"/>
<path fill-rule="evenodd" clip-rule="evenodd" d="M1416.256,2125.879c-5.342,9.352-13.547,15.425-23.138,19.197
	c-7.918,3.114-12.681-0.896-10.764-9.285c6.345-27.769,12.676-55.571,20.292-83.006c4.281-15.423,16.089-23.989,32.136-25.849
	c7.181-0.832,11.269,1.222,11.54,4.908c0.292,3.957-3.174,5.863-10.648,5.828c-1.662-0.008-3.328-0.013-4.983-0.143
	c-11.92-0.939-13.319-0.433-16.154,10.776c-6.827,26.997-13.212,54.106-19.708,81.188c-0.508,2.116-0.496,4.358-0.798,7.233
	C1403.674,2136.186,1408.182,2127.767,1416.256,2125.879z"/>
<path fill-rule="evenodd" clip-rule="evenodd" d="M890.524,1516.228c9.738-0.11,13.749-8.92,21.686-11.332
	c-4.57,12.073-20.562,21.62-32.671,19.524c0-6.031-1.141-12.463,0.2-18.326c5.321-23.258,11.226-46.388,17.302-69.464
	c3.4-12.914,11.116-22.668,23.973-27.336c4.265-1.549,9.021-1.933,13.599-2.371c3.963-0.38,7.768,0.936,7.565,5.653
	c-0.171,3.957-3.517,5.291-7.262,5.083c-2.976-0.165-5.948-0.398-8.919-0.649c-9.945-0.84-12.427,0.441-15.092,10.137
	c-4.129,15.021-7.73,30.191-11.442,45.326c-2.685,10.947-5.283,21.919-7.71,32.926
	C891.001,1508.812,890.94,1512.377,890.524,1516.228z"/>
<path fill-rule="evenodd" clip-rule="evenodd" d="M851.739,1517.252c6.298-4.172,12.597-8.345,19.71-13.057
	c-4.036,12.027-20.307,21.989-32.093,20.564c-3.103-4.074-2.648-8.838-1.588-13.292c5.983-25.126,11.977-50.254,18.468-75.251
	c3.459-13.322,11.796-23.018,25.101-27.464c4.286-1.433,9.091-1.546,13.682-1.762c3.259-0.152,5.985,1.439,5.976,5.191
	c-0.01,3.589-2.312,5.432-5.79,5.403c-3.638-0.029-7.275-0.38-10.909-0.634c-9.145-0.64-11.983,0.809-14.336,9.949
	c-5.944,23.094-11.414,46.311-16.982,69.5c-1.508,6.28-2.688,12.639-4.018,18.961
	C849.886,1515.992,850.812,1516.622,851.739,1517.252z"/>
<path fill-rule="evenodd" clip-rule="evenodd" d="M969.246,2298.364c4.906-6.771,11.248-11.962,19.152-14.791
	c7.537-2.698,10.9,0.316,9.792,8.074c-0.422,2.953-1.042,5.88-1.652,8.801c-0.599,2.866-1.301,5.71-2.229,9.743
	c5.036-1.104,9.028-2.254,13.102-2.821c15.002-2.09,23.563,8.434,18.686,22.795c-5.401,15.905-28.547,27.033-44.418,21.356
	c-5.155-1.844-7.289-5.325-6.274-11.935c0.953-6.212,2.543-12.334,4.038-18.45c1.572-6.433,3.479-12.784,5.01-19.226
	c0.719-3.023,0.9-6.176,1.666-11.753c-6.495,4.144-10.938,6.978-15.38,9.812C970.241,2299.435,969.744,2298.899,969.246,2298.364z
	 M1016.539,2327.593c-0.085-7.753-4.405-12.611-11.844-13.318c-7.593-0.721-11.713,2.08-13.582,9.471
	c-1.133,4.483-2.158,9.004-2.984,13.552c-1.212,6.669,1.633,10.165,8.153,10.347
	C1007.372,2347.954,1016.661,2338.759,1016.539,2327.593z"/>
<path fill-rule="evenodd" clip-rule="evenodd" d="M1334.885,1295.458c-0.276,2.764,0.147,4.803-0.656,5.591
	c-7.875,7.73-16.402,14.634-27.476,17.169c-11.239,2.573-16.979-2.217-17.538-13.795c-0.883-18.309,6.25-33.704,17.533-47.332
	c5.692-6.875,13.354-10.801,22.777-10.279c9.734,0.539,14.758,7.561,10.331,16.323c-2.564,5.076-7.021,9.719-11.691,13.076
	c-5.844,4.202-12.74,6.966-19.262,10.188c-3.444,1.701-6.789,3.577-6.194,7.971c0.556,4.108,0.733,9.174,3.198,11.901
	c3.518,3.894,8.728,1.584,12.843-0.777C1323.855,1302.563,1328.763,1299.29,1334.885,1295.458z M1305.095,1282.317
	c9.188-2.416,15.464-7.55,20.83-13.829c4.183-4.894,4.071-10.137,0.302-13.294c-3.576-2.995-9.014-1.75-12.758,3.503
	C1308.632,1265.482,1306.074,1273.178,1305.095,1282.317z"/>
<path fill-rule="evenodd" clip-rule="evenodd" d="M655.206,1297.544c-0.464,1.403-0.51,3.254-1.458,4.14
	c-7.3,6.827-15.048,13.108-24.865,15.977c-12.771,3.731-19.175-0.976-19.647-14.06c-0.676-18.677,6.792-34.246,18.801-47.796
	c5.45-6.15,12.696-9.437,21.312-9c9.758,0.495,14.839,7.402,10.619,16.182c-2.333,4.853-6.401,9.427-10.792,12.596
	c-5.842,4.216-12.706,7.049-19.229,10.276c-7.092,3.508-9.768,11.092-6.176,18.136c1.953,3.829,6.015,5.387,11.179,3.19
	c4.533-1.928,8.62-4.908,12.896-7.438c1.96-1.158,3.9-2.35,5.849-3.525C654.197,1296.662,654.701,1297.103,655.206,1297.544z
	 M623.668,1282.99c11.1-3.509,17.816-8.728,23.116-15.689c3.42-4.493,2.745-9.731-0.938-12.394c-3.2-2.312-7.869-1.341-11.446,2.606
	c-1.317,1.454-2.568,3.141-3.272,4.946C628.762,1268.522,626.657,1274.686,623.668,1282.99z"/>
<path fill-rule="evenodd" clip-rule="evenodd" d="M1277.445,1297.162c-5.946,11.47-23.877,22.278-34.613,21.626
	c-6.703-0.407-10.939-4.245-11.479-11.39c-1.542-20.399,5.669-37.792,19.486-52.417c5.671-6.002,13.115-8.912,21.677-8.132
	c8.033,0.733,11.757,5.609,10.206,13.613c-1.446,7.466-6.687,12.195-12.602,15.925c-5.855,3.693-12.283,6.482-18.47,9.649
	c-6.935,3.55-9.701,11.511-5.72,18.196c1.083,1.819,4.372,3.745,6.233,3.396c4.423-0.827,8.676-2.809,12.85-4.659
	C1268.771,1301.306,1271.394,1297.278,1277.445,1297.162z M1248.82,1283.382c5.962-4.491,12.035-8.847,17.818-13.558
	c1.682-1.369,3.486-3.724,3.549-5.681c0.096-2.977-0.366-7.149-2.29-8.678c-1.882-1.495-5.992-0.778-8.923-0.127
	c-1.623,0.362-3.231,2.355-4.159,4.001C1250.943,1266.208,1247.688,1273.341,1248.82,1283.382z"/>
<path fill-rule="evenodd" clip-rule="evenodd" d="M1434.578,2117.133c0,3.726-0.148,7.041,0.031,10.339
	c0.361,6.679,4.374,9.746,10.602,7.391c4.594-1.737,8.712-4.728,13.061-7.125c2.334-1.287,4.707-2.503,7.655-2.888
	c-1.887,6.195-6.646,9.447-11.335,12.617c-6.049,4.091-12.186,8.078-19.939,8.233c-8.969,0.181-13.424-2.889-13.77-11.792
	c-0.279-7.165,0.599-14.579,2.264-21.572c2.901-12.188,9.414-22.589,18.49-31.29c5.306-5.087,11.81-7.343,19.032-7.307
	c9.229,0.045,13.79,6.559,11.029,15.471c-1.856,5.993-5.692,10.542-11.032,13.611
	C1452.357,2107.598,1443.868,2112.06,1434.578,2117.133z M1436.739,2110.124c9.228-3.986,16.351-8.15,21.366-15.102
	c3.331-4.615,3.109-10.232-0.044-12.75c-3.263-2.603-8.729-1.688-12.362,2.811C1440.176,2091.92,1437.1,2099.816,1436.739,2110.124z
	"/>
<path fill-rule="evenodd" clip-rule="evenodd" d="M962.977,1506.247c-8.402,9.259-18.039,16.92-30.877,19.251
	c-8.853,1.608-14.349-2.537-15.015-11.597c-1.647-22.419,6.676-41.068,23.898-55.195c3.954-3.243,10.351-4.433,15.742-4.793
	c9.547-0.638,14.779,7.068,10.833,15.846c-1.949,4.337-5.263,8.768-9.15,11.383c-8.487,5.71-17.738,10.285-27.796,15.956
	c0,2.914-0.291,6.864,0.065,10.756c0.59,6.43,4.229,9.096,10.19,6.739c5.486-2.168,10.467-5.604,15.697-8.433
	c1.575-0.853,3.24-1.538,4.864-2.301C961.945,1504.655,962.461,1505.451,962.977,1506.247z M931.945,1487.887
	c0.947,0.687,1.894,1.374,2.84,2.061c5.848-4.226,12.183-7.931,17.413-12.816c5.782-5.402,5.713-12.206,1.052-15.593
	c-3.734-2.714-10.38-0.268-13.667,6.25C936.373,1474.152,934.439,1481.161,931.945,1487.887z"/>
<path fill-rule="evenodd" clip-rule="evenodd" d="M1388.573,1497.461c0,2.588-0.13,5.895,0.026,9.188
	c0.359,7.609,3.966,10.417,10.916,7.713c4.881-1.898,9.275-5.039,13.904-7.592c1.903-1.049,3.854-2.01,7.604-3.955
	c-1.075,3.128-1.153,4.767-2.012,5.632c-7.576,7.636-16.034,14.018-26.718,16.588c-10.63,2.557-17.068-1.965-17.578-12.832
	c-0.998-21.286,7.427-38.748,23.007-52.847c5.454-4.936,12.343-6.439,19.572-5.536c6.514,0.813,9.991,5.324,9.159,11.871
	c-0.738,5.807-3.193,10.905-8.351,14.08C1408.822,1485.483,1399.411,1490.985,1388.573,1497.461z M1390.838,1489.835
	c9.018-4.177,16.349-7.916,21.303-14.877c3.547-4.984,3.064-10.416-0.721-13.328c-3.192-2.457-8.564-1.372-12.02,3.25
	C1394.218,1471.812,1391.154,1479.667,1390.838,1489.835z"/>
<path fill-rule="evenodd" clip-rule="evenodd" d="M973.145,1713.368c-8.699,8.915-18.057,16.901-31.221,18.852
	c-8.42,1.248-13.922-2.424-14.438-10.883c-0.437-7.146,0.104-14.629,1.814-21.568c2.974-12.063,8.977-22.762,18.071-31.533
	c6.159-5.94,13.49-8.204,21.876-7.372c6.747,0.67,10.706,5.676,9.473,12.392c-1.126,6.127-4.298,11.314-9.604,14.565
	c-7.042,4.316-14.357,8.213-21.711,11.986c-6.232,3.198-9.64,13.779-5.55,19.177c2.849,3.758,7.181,3.436,10.938,1.903
	c3.954-1.612,7.527-4.157,11.279-6.271c2.407-1.356,4.838-2.673,7.258-4.008C971.936,1711.527,972.54,1712.448,973.145,1713.368z
	 M942.613,1696.839c9.767-4.359,17.262-8.366,22.183-15.842c2.781-4.225,2.231-10.356-0.765-12.714
	c-2.878-2.264-7.58-1.278-11.367,2.726C946.278,1677.759,944.222,1686.234,942.613,1696.839z"/>
<path fill-rule="evenodd" clip-rule="evenodd" d="M1070.726,886.379c-8.528,7.767-17.043,15.601-28.824,18.373
	c-11.437,2.691-16.796-1.746-17.363-13.629c-0.948-19.86,6.449-36.304,20.186-50.145c5.349-5.39,12.046-8.327,19.727-8.02
	c9.682,0.387,14.567,7.668,10.527,16.443c-1.99,4.325-5.262,8.683-9.104,11.394c-6.445,4.545-13.69,8.033-20.831,11.484
	c-4.583,2.216-7.571,4.943-7.828,10.35c-0.482,10.135,5.121,14.463,14.371,10.363c4.51-1.999,8.457-5.235,12.802-7.654
	c1.634-0.91,3.673-1.093,5.527-1.606C1070.185,884.614,1070.455,885.496,1070.726,886.379z M1041.801,869.45
	c4.93-3.211,10.057-6.163,14.711-9.733c2.538-1.948,4.774-4.685,6.246-7.531c1.877-3.628,2.195-7.703-1.533-10.735
	c-4.019-3.269-7.583-1.242-10.564,1.625C1043.592,849.872,1041.974,858.963,1041.801,869.45z"/>
<path fill-rule="evenodd" clip-rule="evenodd" d="M1222.581,876.12c0,3.812-0.152,7.125,0.031,10.419
	c0.398,7.124,3.489,9.62,10.441,7.477c4.333-1.337,8.264-4.034,12.302-6.254c2.719-1.494,4.903-4.195,9.422-4.249
	c-0.476,1.999-0.376,3.455-1.055,4.15c-7.775,7.957-16.744,14.146-27.578,17.104c-10.088,2.754-16.445-1.442-17.259-11.845
	c-1.604-20.496,6.472-37.564,20.185-52.125c4.631-4.916,11.01-7.386,17.873-7.857c11.438-0.786,17.25,8.076,12.04,18.422
	c-3.263,6.478-8.888,10.621-15.032,14.066c-3.469,1.945-7.097,3.607-10.659,5.385
	C1230.034,872.438,1226.769,874.047,1222.581,876.12z M1224.611,868.995c9.479-3.287,16.339-7.815,21.42-14.618
	c3.824-5.119,3.237-10.235-0.824-13.253c-3.436-2.553-8.111-1.29-11.847,3.675C1228.3,851.524,1225.856,859.282,1224.611,868.995z"
	/>
<path fill-rule="evenodd" clip-rule="evenodd" d="M1280.938,1919.911c-8.32,8.395-17.088,16.311-29.34,18.572
	c-11.363,2.097-16.438-2.115-16.981-13.46c-0.931-19.46,6.811-35.603,19.661-49.547c5.419-5.88,12.586-8.631,20.594-8.467
	c8.962,0.183,14.153,7.491,10.695,15.741c-1.726,4.116-4.622,8.415-8.188,10.94c-6.707,4.751-14.156,8.526-21.533,12.237
	c-7.049,3.545-10.175,11.5-6.781,18.783c1.688,3.621,5.497,5.254,10.188,3.219c5.137-2.229,9.824-5.478,14.781-8.146
	c1.806-0.972,3.823-1.552,5.744-2.311C1280.164,1918.286,1280.551,1919.099,1280.938,1919.911z M1250.418,1902.853
	c9.663-3.099,16.61-8.012,21.871-15.066c3.219-4.314,2.543-9.908-0.806-12.713c-3.01-2.521-7.557-1.724-11.394,2.562
	C1253.89,1884.561,1251.945,1893.119,1250.418,1902.853z"/>
<path fill-rule="evenodd" clip-rule="evenodd" d="M749.271,1497.345c0,2.971-0.248,6.303,0.051,9.586
	c0.664,7.301,4.584,9.937,11.471,7.297c4.276-1.64,8.189-4.241,12.231-6.474c2.426-1.34,4.785-2.8,8.001-4.692
	c0,2.354,0.392,3.61-0.059,4.118c-7.653,8.629-16.732,15.228-28.084,17.955c-9.665,2.323-15.72-1.533-17.065-11.368
	c-0.7-5.113-0.083-10.586,0.893-15.715c2.668-14.034,8.969-26.304,19.265-36.38c5.765-5.642,12.597-8.519,20.727-7.957
	c7.9,0.546,11.184,4.452,10.479,12.456c-0.565,6.433-3.9,11.445-9.159,14.696C769.021,1486.431,759.671,1491.429,749.271,1497.345z
	 M751.525,1489.42c8.722-2.883,15.709-6.962,20.764-13.572c1.815-2.374,2.753-6.062,2.666-9.11
	c-0.155-5.494-4.991-7.924-9.808-5.228c-2.23,1.248-4.496,2.997-5.88,5.091C754.907,1473.197,752.217,1480.469,751.525,1489.42z"/>
<path fill-rule="evenodd" clip-rule="evenodd" d="M759.265,1910.197c0,3.444-0.241,6.765,0.049,10.038
	c0.661,7.451,4.236,10.031,11.435,7.634c4.003-1.333,7.58-3.956,11.328-6.036c2.72-1.508,5.404-3.079,8.171-4.66
	c0.757,1.627,1.413,2.506,1.235,2.733c-7.119,9.106-16.253,15.603-27.386,18.4c-12.194,3.064-19.405-2.805-18.646-15.854
	c1.137-19.554,8.197-36.932,23.751-49.646c3.608-2.95,8.866-4.255,13.589-5.372c4.968-1.175,10.509-0.76,13.11,4.423
	c2.634,5.245,2.691,11.421-1.539,15.869c-4.498,4.73-9.758,8.944-15.289,12.426C772.954,1904.003,766.152,1906.769,759.265,1910.197
	z M760.825,1902.438c8.813-2.493,17.438-6.868,20.615-11.58c2.06-3.054,3.406-7.139,3.529-10.812
	c0.169-5.072-4.549-8.002-8.816-5.359c-3.691,2.285-7.175,5.86-9.177,9.688C764.283,1889.527,763.102,1895.469,760.825,1902.438z"/>
<path fill-rule="evenodd" clip-rule="evenodd" d="M1530.146,1712.938c-8.886,10.181-19.285,18.282-33.505,19.585
	c-8.072,0.739-13.693-6.028-13.135-16.411c1.012-18.836,7.692-35.496,21.745-48.648c5.951-5.571,13.16-7.449,21.15-6.587
	c6.604,0.714,10.529,5.935,9.223,12.479c-1.22,6.107-4.271,11.268-9.665,14.474c-7.093,4.215-14.46,7.968-21.695,11.944
	c-3.111,1.71-7.416,2.686-6.887,7.383c0.501,4.44,0.473,10.036,3.103,12.88c3.786,4.094,9.287,1.29,13.7-1.226
	c4.763-2.713,9.423-5.605,14.127-8.419C1528.92,1711.24,1529.532,1712.09,1530.146,1712.938z M1499.52,1695.999
	c9.399-2.431,16.065-7.071,21.297-13.645c3.385-4.253,3.25-11.423,0.38-13.904c-3.219-2.783-8.652-1.283-12.864,3.976
	C1503.034,1679.041,1501.057,1686.918,1499.52,1695.999z"/>
<path fill-rule="evenodd" clip-rule="evenodd" d="M988.001,1916.968c-3.488,11.947-20.048,22.092-31.513,21.838
	c-7.236-0.16-11.195-3.561-11.811-10.588c-1.894-21.658,5.767-39.668,21.318-54.492c5.606-5.343,12.52-7.395,20.154-6.396
	c7.977,1.043,11.14,6.299,9.211,14.114c-2.205,8.939-9.005,13.639-16.213,17.844c-5.15,3.005-10.724,5.276-15.974,8.124
	c-6.274,3.404-8.354,13.538-3.422,18.569c1.686,1.72,5.551,2.716,7.886,2.08c4.38-1.191,8.446-3.676,12.497-5.888
	C982.886,1920.673,985.388,1918.72,988.001,1916.968z M959.021,1901.953c0.856,0.502,1.712,1.003,2.568,1.505
	c4.679-2.958,9.652-5.551,13.937-9c2.962-2.385,5.488-5.681,7.271-9.063c1.956-3.711,1.525-7.746-2.351-10.473
	c-3.773-2.655-6.983-0.551-9.801,1.787c-1.722,1.429-3.389,3.316-4.222,5.35C963.741,1888.603,961.458,1895.31,959.021,1901.953z"/>
<path fill-rule="evenodd" clip-rule="evenodd" d="M1135.238,1703.654c0,3.201,0.258,5.878-0.047,8.488
	c-0.956,8.167,5.696,11.823,13.289,8.397c4.803-2.167,9.108-5.418,13.725-8.025c1.455-0.821,3.197-1.136,4.952-1.731
	c0.234,1.51,0.632,2.398,0.376,2.667c-8.311,8.75-17.368,16.353-29.76,18.554c-9.042,1.604-13.55-0.778-15.11-9.586
	c-1.006-5.684-0.907-11.873,0.171-17.556c2.717-14.319,9.086-26.923,19.938-37.026c5.124-4.771,11.014-7.129,18.037-7.04
	c11.2,0.142,16.495,8.359,10.708,18.077c-2.763,4.639-7.214,8.759-11.802,11.711
	C1152.246,1695.389,1144.037,1699.042,1135.238,1703.654z M1137.293,1696.914c9.496-4.179,17.128-8.168,22.173-15.755
	c1.334-2.006,1.685-5.011,1.614-7.533c-0.14-5.056-4.26-7.874-8.873-5.885c-2.549,1.1-4.954,3.252-6.635,5.516
	C1140.822,1679.657,1138.719,1687.111,1137.293,1696.914z"/>
<path fill-rule="evenodd" clip-rule="evenodd" d="M1366.466,1251.055c3.42-8.981,2.068-21.428,17.481-20.802
	c-1.613,6.747-3.197,13.369-4.966,20.765c5.565,0.456,10.646,0.873,15.868,1.302c-1.85,4.771-1.85,4.771-17.775,5.949
	c-3.371,13.578-7.263,27.51-10.161,41.646c-1.497,7.3,1.892,9.419,8.449,5.934c5.661-3.008,10.995-6.632,18.392-11.157
	c-1.084,3.599-1.058,5.57-1.966,6.205c-7.864,5.496-15.654,11.185-24.006,15.85c-3.024,1.689-8.071,2.059-11.203,0.716
	c-4.632-1.986-3.955-7.524-3.084-11.585c2.98-13.9,6.511-27.683,9.843-41.507c0.381-1.579,0.833-3.141,1.506-5.662
	c-4.188-0.613-7.901-1.158-11.614-1.702C1354.299,1252.096,1354.299,1252.096,1366.466,1251.055z"/>
<path fill-rule="evenodd" clip-rule="evenodd" d="M999.316,845.422c-3.8,16.26-9.766,31.082-10.532,47.154
	c5.971,2.853,9.604-0.418,13.431-2.816c3.847-2.411,7.686-4.835,12.438-7.826c0.164,2.417,0.759,4.358,0.25,4.711
	c-8.43,5.852-16.566,12.356-25.654,16.969c-9.648,4.896-15.724-0.241-13.559-10.97c2.754-13.649,6.343-27.13,9.557-40.688
	c0.439-1.854,0.791-3.729,1.097-5.182c-3.28-3.874-9.979,0.6-12.228-6.924c5.144-0.648,9.536-1.201,14.097-1.776
	c4.109-8.476,2.423-21.603,17.901-21.509c-1.527,6.873-3.012,13.548-4.712,21.2c5.274,0.671,10.298,1.311,15.474,1.97
	c-0.171,6.508-4.783,4.656-7.927,5.036C1005.752,845.156,1002.517,845.22,999.316,845.422z"/>
<path fill-rule="evenodd" clip-rule="evenodd" d="M1293.917,1671.094c1.659-9.819,9.883-2.794,14.532-7.046
	c0.604-1.81,2.051-4.527,2.362-7.369c0.908-8.286,5.382-12.355,14.842-12.719c-1.562,7.152-3.064,14.029-4.654,21.304
	c5.399,0.286,10.303,0.546,15.264,0.809c-0.902,4.587-0.902,4.587-16.417,6.318c-7.238,15.855-12.053,40.674-9.245,48.817
	c4.89,0.445,8.592-2.397,12.432-4.901c3.463-2.259,6.965-4.456,12.326-7.878c-0.944,3.593-0.851,5.605-1.735,6.228
	c-7.858,5.521-15.465,11.641-23.979,15.93c-10.471,5.275-16.191,0.73-14.164-11.051c2.018-11.731,5.327-23.241,8.093-34.842
	c0.915-3.838,1.901-7.659,3.047-12.256C1302.381,1671.989,1298.565,1671.585,1293.917,1671.094z"/>
<path fill-rule="evenodd" clip-rule="evenodd" d="M1251.548,1672.325c-4.26-0.417-7.814-0.765-11.396-1.115
	c1.252-4.878,1.252-4.878,13.212-6.262c2.092-5.82,3.469-12.065,6.572-17.283c1.503-2.525,6.246-3.124,11.413-5.445
	c-1.855,8.607-3.335,15.471-4.931,22.873c5.59,0.408,10.46,0.763,15.602,1.138c0.61,6.326-3.675,5.327-7.014,5.427
	c-3.276,0.099-6.558,0.021-10.651,0.021c-3.74,14.926-7.574,29.284-10.839,43.77c-1.135,5.037,2.39,7.349,7.301,4.896
	c5.019-2.507,9.704-5.706,14.424-8.774c2.319-1.509,4.152-2.145,5.846,1.998c-7.685,5.262-15.38,10.902-23.465,15.914
	c-4.133,2.562-9.09,5.346-13.904,1.719c-4.321-3.256-3.625-8.423-2.65-12.939c2.657-12.32,5.725-24.552,8.595-36.826
	C1250.325,1678.594,1250.85,1675.72,1251.548,1672.325z"/>
<path fill-rule="evenodd" clip-rule="evenodd" d="M1270.484,2085.964c-4.418-0.917-8.275-1.717-12.133-2.518
	c0.027-0.895,0.055-1.79,0.082-2.685c4.264-0.587,8.527-1.175,13.629-1.877c0.88-2.841,2.208-5.862,2.717-9.017
	c1.215-7.54,5.097-11.917,14.511-12.261c-1.419,7.147-2.778,13.997-4.247,21.397c5.402,0.458,10.457,0.887,16.679,1.414
	c-5.194,7.533-12.548,2.293-18.665,5.947c-3.81,14.874-9.924,30.206-10.601,47.238c11.448,3.074,16.757-8.904,27.802-9.628
	c-1.729,2.476-2.288,3.912-3.338,4.673c-6.175,4.478-12.439,8.832-18.73,13.146c-1.629,1.116-3.371,2.179-5.213,2.854
	c-9.494,3.481-14.752,0.052-13.524-9.916c1.209-9.82,3.979-19.457,6.188-29.145
	C1267.104,2099.176,1268.785,2092.813,1270.484,2085.964z"/>
<path fill-rule="evenodd" clip-rule="evenodd" d="M1394.621,1877.234c-5.43,0.257-10.859,0.513-17.374,0.82
	c-3.612,16.287-10.075,31.861-10.724,49.225c11.235,1.423,17.039-8.039,26.809-10.442c-0.626,2.26-0.569,3.913-1.301,4.413
	c-8.218,5.611-16.17,11.796-24.967,16.323c-9.361,4.816-14.867,0.533-13.657-10.094c0.784-6.884,2.8-13.637,4.411-20.413
	c2.22-9.332,4.579-18.632,7.003-28.447c-4.475-0.664-8.245-1.223-12.579-1.865c3.208-6.737,9.5-2.123,14.233-5.634
	c0.57-1.737,2.011-4.462,2.295-7.303c0.868-8.691,5.751-12.743,14.98-13.271c-1.461,6.79-2.898,13.473-4.577,21.275
	c5.358,0.681,10.514,1.335,15.668,1.989C1394.769,1874.953,1394.695,1876.094,1394.621,1877.234z"/>
<path fill-rule="evenodd" clip-rule="evenodd" d="M997.524,1319.536c-3.963-1.111-8.48-1.538-12.008-3.633
	c-2.805-1.666-5.122-5.087-6.354-8.238c-1.661-4.246,1.022-9.078,4.746-9.446c4.574-0.452,6.597,2.378,6.634,6.716
	c0.04,4.552,1.854,7.847,6.573,8.565c5.545,0.844,10.587-0.278,14.312-4.978c2.951-3.721,3.865-7.755,1.251-11.907
	c-1.929-3.062-4.45-5.745-6.54-8.715c-3.039-4.318-6.621-8.435-8.733-13.188c-4.342-9.771-0.813-19.201,8.442-24.604
	c6.367-3.717,13.285-4.161,20.234-2.426c2.408,0.602,4.744,2.332,6.604,4.087c2.523,2.381,2.535,5.351,0.042,7.934
	c-2.483,2.573-5.222,2.683-7.859,0.181c-1.687-1.6-3.158-3.431-4.884-4.982c-2.603-2.34-5.425-3.841-8.957-1.646
	c-3.689,2.293-6.239,5.462-4.83,9.803c1.191,3.668,3.292,7.153,5.531,10.339c2.467,3.507,5.831,6.379,8.317,9.874
	c9.26,13.014,5.2,27.32-9.564,33.273C1006.57,1318.121,1002.176,1318.5,997.524,1319.536z"/>
<path fill-rule="evenodd" clip-rule="evenodd" d="M1603.78,1319.122c-2.405-0.729-6.657-1.535-10.464-3.301
	c-4.66-2.163-6.402-6.611-6.311-11.557c0.065-3.477,2.475-5.961,5.674-5.71c1.992,0.156,3.807,2.731,5.663,4.268
	c0.19,0.157,0.163,0.636,0.156,0.963c-0.105,5.802,1.967,9.608,8.456,9.91c6.959,0.323,12.035-2.586,14.555-8.232
	c2.312-5.18-0.279-8.985-3.092-12.762c-3.764-5.05-8.197-9.685-11.373-15.068c-5.76-9.763-3.512-19.614,5.371-26.355
	c7.28-5.525,15.481-5.438,23.729-3.022c2.022,0.592,4.397,2.546,5.091,4.432c0.768,2.088,0.644,5.616-0.681,7.028
	c-1.186,1.264-4.943,1.347-6.821,0.428c-2.559-1.253-4.259-4.143-6.595-5.993c-4.962-3.93-11.496-1.121-12.51,5.242
	c-0.931,5.842,2.008,10.262,5.441,14.432c2.531,3.073,5.462,5.834,7.839,9.015c12.381,16.568,1.895,31.719-14.297,35.444
	C1611.054,1318.871,1608.334,1318.759,1603.78,1319.122z"/>
<path fill-rule="evenodd" clip-rule="evenodd" d="M754.201,1319.152c-2.79-0.683-7.254-1.052-10.991-2.893
	c-3.843-1.894-6.767-5.224-6.676-10.301c0.065-3.697,0.803-7.086,4.812-7.527c4.137-0.456,6.969,1.997,7.115,6.401
	c0.127,3.84,0.205,7.647,4.92,8.517c5.456,1.007,10.773,0.396,14.707-4.018c3.356-3.765,4.555-8.456,1.969-12.933
	c-2.302-3.984-5.714-7.312-8.471-11.051c-2.352-3.189-5.029-6.307-6.587-9.881c-5.431-12.463,1.66-25.639,15.149-27.918
	c4.467-0.756,9.328-0.501,13.771,0.43c2.542,0.531,5.39,2.936,6.627,5.276c0.918,1.736,0.267,5.651-1.163,6.889
	c-1.33,1.15-4.883,0.659-6.96-0.248c-1.964-0.857-3.166-3.327-4.911-4.851c-2.537-2.215-5.178-4.24-8.896-2.12
	c-3.492,1.991-5.871,4.854-5.206,8.829c0.523,3.126,1.862,6.36,3.672,8.97c2.824,4.069,6.396,7.614,9.575,11.444
	c13.37,16.111,1.976,33.145-13.998,36.105C760.385,1318.696,758.047,1318.766,754.201,1319.152z"/>
<path fill-rule="evenodd" clip-rule="evenodd" d="M1504.138,905.8c-8.251-0.334-14.359-1.201-18.281-6.387
	c-1.825-2.413-2.762-5.93-2.97-9.022c-0.236-3.499,2.622-5.743,5.885-5.14c2.08,0.385,4.781,2.557,5.407,4.504
	c1.074,3.341,0.058,7.392,3.927,9.622c3.686,2.124,12.102,0.656,15.848-2.777c4.259-3.903,5.221-9.18,1.921-14.457
	c-2.445-3.911-5.724-7.295-8.514-11.001c-1.988-2.641-4.157-5.245-5.592-8.185c-4.355-8.924-2.371-17.689,5.108-24.191
	c6.547-5.691,19.504-7.357,26.182-3.3c1.118,0.68,2.068,1.647,3.053,2.531c2.641,2.368,3.474,5.67,0.771,7.742
	c-1.809,1.387-5.442,1.325-7.903,0.637c-1.974-0.552-3.497-2.941-5.067-4.656c-2.916-3.188-6.4-3.729-9.887-1.583
	c-3.685,2.268-5.744,6.034-4.068,10.202c1.573,3.914,4.13,7.5,6.64,10.949c2.333,3.205,5.492,5.821,7.738,9.076
	c8.589,12.445,4.933,25.966-8.841,32.159C1511.333,904.395,1506.648,905.1,1504.138,905.8z"/>
<path fill-rule="evenodd" clip-rule="evenodd" d="M1490.332,1939.266c-3.587-0.567-7.291-0.749-10.733-1.793
	c-5.277-1.6-8.169-5.703-8.794-11.051c-0.441-3.783,1.731-6.576,5.397-7.252c3.412-0.629,6.176,1.313,6.129,4.87
	c-0.079,5.915,2.121,9.67,8.102,10.557c5.913,0.876,11.818-2.742,14.698-8.301c2.602-5.024,0.392-8.988-2.463-12.781
	c-3.387-4.5-7.13-8.731-10.482-13.254c-4.923-6.641-6.501-13.859-2.169-21.385c4.312-7.494,10.796-11.484,19.695-11.218
	c4.956,0.149,10.1-0.701,13.983,3.541c2.42,2.645,4.222,5.599,1.062,8.69c-2.777,2.719-5.938,2.631-8.709-0.348
	c-1.355-1.458-2.481-3.164-3.976-4.452c-3.113-2.685-7.145-3.345-10.059-0.771c-2.134,1.885-4.194,5.973-3.581,8.394
	c1.168,4.616,3.985,8.929,6.658,13.015c2.16,3.302,5.423,5.873,7.66,9.137c11.647,16.987-2.103,31.387-15.38,33.68
	c-2.259,0.391-4.642,0.056-6.968,0.056C1490.38,1938.821,1490.355,1939.044,1490.332,1939.266z"/>
<path fill-rule="evenodd" clip-rule="evenodd" d="M1018.031,1938.772c-5.778,0.458-11.641-0.169-15.679-5.696
	c-1.155-1.581-2.346-3.302-2.872-5.145c-1.183-4.134,0.828-7.815,4.378-8.745c3.808-0.998,6.135,0.882,7.306,5.902
	c1.818,7.791,4.655,10.226,10.926,9.376c7.486-1.015,13.162-6.574,12.258-13.105c-0.466-3.368-2.564-6.713-4.575-9.618
	c-3.193-4.615-7.453-8.539-10.328-13.317c-6.038-10.038-3.074-21.55,6.735-27.745c6.976-4.406,14.587-3.666,22.101-1.852
	c1.787,0.432,4,1.842,4.694,3.394c0.942,2.108,1.538,5.236,0.622,7.119c-1.569,3.225-4.957,3.062-7.691,1.086
	c-2.405-1.739-4.217-4.335-6.69-5.936c-6.025-3.9-12.724-0.506-12.421,6.602c0.157,3.706,1.779,7.688,3.784,10.892
	c2.431,3.887,6.12,6.959,8.984,10.604c5.218,6.639,7.905,14.049,4.191,22.236c-3.889,8.57-10.992,13.032-20.316,13.927
	C1021.79,1938.908,1020.114,1938.772,1018.031,1938.772z"/>
<path fill-rule="evenodd" clip-rule="evenodd" d="M1121.12,1525.515c-7.82,0.471-14.707-1.341-18.395-9.02
	c-0.91-1.896-1.427-4.908-0.527-6.511c1.079-1.92,3.712-3.586,5.955-4.08c3.064-0.676,5.14,1.451,4.978,4.666
	c-0.278,5.521,1.916,9.261,7.44,9.987c5.454,0.716,10.704-0.243,14.237-5.203c3.337-4.683,2.986-9.438-0.355-13.876
	c-3.191-4.239-6.837-8.136-10.025-12.377c-6.931-9.222-7.526-18.14-1.959-25.788c6.024-8.276,16.939-12.079,26.62-8.453
	c3.03,1.135,5.704,4.113,7.607,6.889c0.695,1.014-0.828,4.423-2.261,5.726c-1.003,0.911-3.932,0.733-5.355-0.083
	c-2.246-1.286-4-3.469-5.873-5.359c-2.92-2.949-6.212-3.918-9.905-1.721c-3.49,2.075-5.206,5.422-4.235,9.316
	c0.779,3.131,2.242,6.246,4.054,8.928c2.216,3.28,5.124,6.09,7.714,9.12c5.646,6.607,9.723,13.801,5.991,22.705
	c-3.797,9.06-11.085,13.843-20.719,15.103C1124.471,1525.697,1122.783,1525.515,1121.12,1525.515z"/>
<path fill-rule="evenodd" clip-rule="evenodd" d="M1309.276,1938.786c-8.19,0.296-15.348-0.875-18.64-9.045
	c-0.874-2.17-0.898-5.313,0.052-7.384c0.734-1.6,3.941-3.412,5.435-2.984c1.997,0.573,4.691,3.134,4.813,4.99
	c0.357,5.423,2.379,8.905,7.753,10.054c5.104,1.091,11.863-2.075,14.579-6.65c2.928-4.933,2.145-9.59-1.253-13.885
	c-3.289-4.158-7.022-7.982-10.125-12.269c-6.773-9.359-7.018-18.306-1.088-25.703c6.039-7.533,18.177-10.891,27.205-7.402
	c1.508,0.583,2.938,1.558,4.173,2.619c2.782,2.391,4.435,5.322,1.509,8.558c-2.716,3.003-5.894,2.644-8.722-0.076
	c-1.182-1.137-2.021-2.622-3.142-3.833c-2.824-3.05-6.313-3.677-9.983-1.994c-4.139,1.897-6.103,5.522-4.776,9.798
	c1.142,3.682,3.189,7.198,5.399,10.4c2.243,3.251,5.321,5.911,7.776,9.034c5.188,6.601,8.019,13.765,3.976,22.033
	c-4.146,8.479-11.027,13.034-20.434,13.723C1312.131,1938.891,1310.46,1938.786,1309.276,1938.786z"/>
<path fill-rule="evenodd" clip-rule="evenodd" d="M1217.864,1659.537c4.066,1.803,8.364,3.229,12.125,5.53
	c2.8,1.714,3.735,5.122,1.3,7.795c-2.604,2.859-6.029,2.547-8.928,0.049c-1.737-1.497-2.93-3.671-4.754-5.015
	c-5.775-4.257-12.194-1.291-13.016,5.761c-0.731,6.275,2.591,10.74,6.35,15.099c2.818,3.266,5.914,6.379,8.221,9.985
	c7.73,12.084,4.209,24.27-8.833,30.807c-7.797,3.908-16.105,3.875-24.204,1.33c-4.981-1.565-8.478-5.245-9.058-10.867
	c-0.422-4.084,2.186-7.931,5.653-8.009c3.61-0.082,5.572,2.292,5.699,5.618c0.196,5.166,1.375,9.415,7.383,9.951
	c5.585,0.499,10.709-1.045,14.284-5.535c3.368-4.229,3.006-9.509-0.838-14.738c-3.143-4.273-6.911-8.09-10.017-12.389
	c-5.134-7.106-7.635-14.688-2.783-23.109C1201.1,1663.727,1208.259,1660.521,1217.864,1659.537z"/>
<path fill-rule="evenodd" clip-rule="evenodd" d="M1208.788,1264.659c6.248-6.538,11.264-12.241,16.811-17.369
	c2.271-2.099,5.58-3.565,8.635-4.116c1.541-0.277,4.5,1.791,5.096,3.427c0.536,1.471-0.815,4.269-2.184,5.623
	c-1.553,1.537-3.972,2.353-6.148,3.081c-14.556,4.87-22.748,15.686-27.075,29.667c-3.125,10.1-5.362,20.475-8.125,31.232
	c-3.657,0-7.156,0-11.636,0c3.477-20.045,10.846-38.66,11.239-59.672c-4.288,3.049-8.575,6.098-13.153,9.352
	c0.933-9.661,15.32-18.922,28.849-18.198C1210.379,1252.959,1209.67,1258.17,1208.788,1264.659z"/>
<path fill-rule="evenodd" clip-rule="evenodd" d="M763.475,1661.346c-0.914,5.933-1.695,10.997-2.76,17.906
	c6.298-6.798,11.115-12.575,16.588-17.644c2.479-2.295,6.142-3.733,9.505-4.453c1.483-0.317,4.194,1.77,5.121,3.443
	c0.548,0.99-0.902,3.743-2.178,4.919c-1.647,1.518-3.924,2.515-6.091,3.279c-15.503,5.47-24.151,17.006-28.371,32.261
	c-2.639,9.542-4.74,19.233-7.167,29.204c-3.8,0-7.004,0-10.964,0c0.176-2.434,0.034-4.665,0.535-6.742
	c3.426-14.213,7.057-28.377,10.448-42.599c0.742-3.111,0.786-6.389,1.392-11.684c-6.178,3.837-10.63,6.602-16.329,10.141
	C739.53,1667.615,750.13,1661.308,763.475,1661.346z"/>
<path fill-rule="evenodd" clip-rule="evenodd" d="M1068.502,1463.188c-4.092,2.954-8.184,5.909-12.973,9.368
	c3.645-10.529,16.603-18.561,29.201-18.108c-0.449,2.868-0.844,5.609-1.316,8.338c-0.498,2.872-1.072,5.73-2.031,10.814
	c4.882-5.631,8.251-9.885,12.018-13.751c3.217-3.303,6.624-6.565,10.451-9.077c2.771-1.818,6.584-2.41,8.579,1.551
	c1.845,3.663,0.286,6.396-3.384,7.98c-1.216,0.524-2.411,1.118-3.665,1.532c-16.062,5.3-24.708,17.137-28.846,32.857
	c-2.44,9.271-4.66,18.602-7.099,28.382c-3.847,0-7.361,0-11.783,0c4.643-19.571,9.243-38.966,13.843-58.36
	C1070.499,1464.205,1069.5,1463.696,1068.502,1463.188z"/>
<path fill-rule="evenodd" clip-rule="evenodd" d="M933.147,1919.905c-0.789,2.732-0.734,5.023-1.827,5.928
	c-7.488,6.197-15.751,11.102-25.407,13.141c-10.841,2.289-17.018-2.188-18.881-13.343c-1.547-9.262,1.089-17.945,4.383-26.221
	c3.81-9.568,9.36-18.143,17.533-24.974c6.928-5.791,14.647-7.581,23.179-6.59c2.408,0.28,5.178,1.628,6.772,3.396
	c1.245,1.382,1.818,4.591,1.053,6.216c-0.747,1.588-3.669,3.194-5.461,3.018c-3.183-0.313-6.287-1.837-9.327-3.09
	c-6.692-2.758-11.402-2.565-15.15,2.908c-8.285,12.098-12.341,25.714-9.506,40.392c1.903,9.86,6.649,12.163,15.871,8.379
	C921.809,1926.836,926.761,1923.448,933.147,1919.905z"/>
<path fill-rule="evenodd" clip-rule="evenodd" d="M1419.789,1256.646c-8.051-0.696-9.427,9.367-18.054,7.313
	c6.23-8.5,13.147-14.194,22.238-16.913c7.779-2.326,10.886,0.408,8.943,8.154c-3.382,13.484-7.327,26.825-10.852,40.275
	c-1.057,4.032-1.499,8.225-2.278,12.665c8.121,1.579,10.245-7.619,17.824-7.74c-1.094,2.19-1.462,4.214-2.67,5.128
	c-5.754,4.352-11.312,9.314-17.753,12.307c-6.652,3.089-10.288,0.176-9.782-7.149c0.451-6.543,1.925-13.068,3.492-19.469
	c2.126-8.68,4.825-17.218,7.161-25.849C1418.812,1262.592,1419.192,1259.714,1419.789,1256.646z"/>
<path fill-rule="evenodd" clip-rule="evenodd" d="M809.175,1463.157c-4.438,2.966-8.877,5.932-14.171,9.47
	c3.992-11.896,16.221-19.314,28.912-18.353c2.497,4.064,0.786,8.129-0.308,12.232c-3.92,14.72-7.823,29.443-11.632,44.191
	c-0.373,1.445-0.05,3.07-0.05,6.566c6.155-3.807,11.146-6.891,17.021-10.524c-3.074,8.221-15.425,18.242-22.154,18.894
	c-5.511,0.533-8.483-1.72-8.031-7.31c0.478-5.9,1.747-11.789,3.214-17.544c2.372-9.307,5.245-18.484,7.782-27.751
	c0.757-2.762,1.099-5.638,1.63-8.461C810.65,1464.098,809.913,1463.628,809.175,1463.157z"/>
<path fill-rule="evenodd" clip-rule="evenodd" d="M861.211,1876.528c-4.676,3.006-9.351,6.012-14.85,9.547
	c5.056-13.344,18.602-20.814,30.819-16.989c-0.682,3.273-1.231,6.734-2.133,10.101c-3.513,13.125-7.215,26.199-10.665,39.34
	c-0.873,3.324-1.073,6.825-1.582,10.245c0.631,0.397,1.261,0.794,1.892,1.191c2.657-1.681,5.365-3.285,7.955-5.064
	c2.269-1.56,3.75-5.196,7.979-2.2c-5.847,6.875-12.159,12.921-20.768,15.981c-5.77,2.052-9.693-0.191-9.05-6.188
	c1.053-9.814,3.168-19.551,5.386-29.194c1.913-8.316,4.593-16.456,6.935-24.674C862.49,1877.926,861.851,1877.227,861.211,1876.528z
	"/>
<path fill-rule="evenodd" clip-rule="evenodd" d="M1211.354,1931.335c6.71-4.39,11.417-7.47,16.125-10.55
	c0.491,0.706,0.983,1.412,1.475,2.118c-6.252,7.189-12.873,14.067-22.825,16.489c-4.214,1.026-7.111-1.421-7.376-5.925
	c-0.191-3.27,0.17-6.693,0.965-9.878c2.977-11.918,6.249-23.762,9.374-35.642c0.82-3.119,1.512-6.271,2.281-9.486
	c-4.092-2.261-6.108,0.123-8.284,2.027c-2.119,1.854-4.274,3.668-7.277,6.238c-1.758-6.979,2.983-8.85,5.807-11.224
	c6.335-5.325,13.047-10.391,23.547-7.254c-0.549,3.916-0.717,7.772-1.666,11.427c-3.76,14.47-7.805,28.865-11.627,43.318
	C1211.393,1924.808,1211.607,1926.804,1211.354,1931.335z"/>
<path fill-rule="evenodd" clip-rule="evenodd" d="M961.896,1239.385c-2.553-5.564,0.809-7.528,3.104-9.659
	c5.758-5.346,8.104-11.087,3.894-18.591c-1.012-1.804-1.386-4.749-0.617-6.562c0.898-2.121,3.287-4.88,5.175-4.995
	c2.408-0.147,6.255,1.474,7.152,3.411c1.387,2.997,1.688,7.124,0.89,10.391C978.765,1224.544,971.412,1232.444,961.896,1239.385z"/>
<path fill-rule="evenodd" clip-rule="evenodd" d="M1444.074,1216.56c0.221,4.273-3.513,8.692-7.584,9.079
	c-4.158,0.395-6.282-2.031-6.938-5.575c-0.729-3.938,3.455-8.554,7.6-8.984C1440.863,1210.693,1443.896,1213.095,1444.074,1216.56z"
	/>
<path fill-rule="evenodd" clip-rule="evenodd" d="M1235.098,1836.21c0.264,5.789-3.102,9.702-7.519,9.832
	c-3.553,0.104-6.232-2.602-6.21-6.268c0.025-4.156,3.209-7.667,7.256-8.054C1232.706,1831.331,1234.996,1833.013,1235.098,1836.21z"
	/>
<path fill-rule="evenodd" clip-rule="evenodd" d="M835.154,1422.287c0.09,6.591-3.474,10.497-7.768,10.362
	c-3.297-0.103-6.128-3.268-5.986-6.694c0.158-3.832,5.262-9.007,8.685-7.957C832.389,1418.705,834.101,1421.342,835.154,1422.287z"
	/>
<path fill-rule="evenodd" clip-rule="evenodd" d="M886.807,1837.834c-0.096,4.14-4.554,8.968-8.275,7.926
	c-2.247-0.629-4.863-3.333-5.487-5.606c-1.047-3.815,3.611-8.307,7.7-8.413C884.481,1831.643,886.895,1834.067,886.807,1837.834z"/>
<path fill-rule="evenodd" clip-rule="evenodd" d="M130.658,557.391c-0.059,0.938,0.263,2.286-0.237,2.754
	c-4.702,4.394-9.479,8.715-14.399,12.864c-1.086,0.916-2.818,1.066-4.253,1.568l0.218,0.16c5.297-6.801,9.95-14.311,18.857-17.139
	L130.658,557.391z"/>
<path fill-rule="evenodd" clip-rule="evenodd" d="M130.845,557.599c3.239-6.28,8.678-7.019,15.3-4.552
	c-5.159,1.45-10.319,2.901-15.482,4.348C130.658,557.391,130.845,557.599,130.845,557.599z"/>
<path fill-rule="evenodd" clip-rule="evenodd" d="M227.894,604.692c-4.617,1.967-9.233,3.934-13.85,5.901l0.011,0.01
	c2.847-6.12,7.494-8.004,13.843-5.884C227.897,604.721,227.894,604.692,227.894,604.692z"/>
<path fill-rule="evenodd" clip-rule="evenodd" d="M157.534,624.152c3.718,0,7.435,0,11.153,0c0.001,0.323,0.003,0.646,0.004,0.97
	c-3.694,0-7.387,0-11.081,0C157.585,624.799,157.56,624.476,157.534,624.152z"/>
<path fill-rule="evenodd" clip-rule="evenodd" d="M135.145,624.213c3.285,0,6.57,0,9.854,0c-0.006,0.295-0.011,0.59-0.017,0.885
	c-3.285,0-6.569,0-9.854,0C135.133,624.803,135.139,624.508,135.145,624.213z"/>
<path fill-rule="evenodd" clip-rule="evenodd" d="M214.043,610.594c-2.928,0.969-5.856,1.938-10.439,3.455
	c3.854-4.317,6.887-4.919,10.45-3.445C214.055,610.604,214.043,610.594,214.043,610.594z"/>
<path fill-rule="evenodd" clip-rule="evenodd" d="M111.77,574.577c-0.316,2.993-0.632,5.985-0.948,8.978
	c-0.829-0.262-1.657-0.523-2.486-0.785c1.245-2.649,2.49-5.299,3.693-7.99C111.988,574.737,111.77,574.577,111.77,574.577z"/>
<path fill-rule="evenodd" clip-rule="evenodd" d="M241.234,570.153c3.791,0,7.582,0,11.373,0c0.008,0.284,0.016,0.567,0.023,0.851
	c-3.792,0-7.583,0-11.375,0C241.248,570.721,241.241,570.438,241.234,570.153z"/>
<path fill-rule="evenodd" clip-rule="evenodd" d="M315.091,576.74c-1.934-0.093-3.867-0.186-5.801-0.279
	c-0.001,0.018-0.002,0.034-0.004,0.051c1.934,0.098,3.867,0.194,5.8,0.292C315.088,576.782,315.089,576.762,315.091,576.74z"/>
<path fill-rule="evenodd" clip-rule="evenodd" d="M296.986,574.612C295.785,574.612,296.677,574.612,296.986,574.612
	C296.686,574.586,295.805,574.508,296.986,574.612z"/>
</svg>
