<?xml version="1.0" encoding="utf-8"?>
<!-- Generator: Adobe Illustrator 16.0.0, SVG Export Plug-In . SVG Version: 6.00 Build 0)  -->
<!DOCTYPE svg PUBLIC "-//W3C//DTD SVG 1.1//EN" "http://www.w3.org/Graphics/SVG/1.1/DTD/svg11.dtd">
<svg version="1.1" id="Lag_1" xmlns="http://www.w3.org/2000/svg" xmlns:xlink="http://www.w3.org/1999/xlink" x="0px" y="0px"
	 width="2381.741px" height="815.894px" viewBox="-878.996 -19 2381.741 815.894"
	 enable-background="new -878.996 -19 2381.741 815.894" xml:space="preserve">
<path d="M-399.927,426.988c-6.658-23.414-13.315-46.827-20.085-70.631c3.927-0.557,7.297-1.52,8.764,3.92
	c3.85,14.285,8.102,28.463,12.164,42.692c0.261,0.914,0.267,1.9,1.328,3.121c6.783-16.674,13.566-33.348,20.35-50.021
	c0.426-0.117,0.852-0.234,1.277-0.352c6.682,16.905,13.363,33.81,20.345,51.475c4.066-14.116,7.934-27.497,11.765-40.887
	c0.76-2.658,0.69-5.91,2.268-7.872c1.443-1.795,4.597-2.216,6.996-3.243c0.3,0.465,0.599,0.93,0.898,1.394
	c-6.735,23.486-13.47,46.974-20.205,70.46c-0.531,0.043-1.062,0.086-1.594,0.129c-6.893-17.602-13.786-35.201-21.056-53.763
	c-7.368,18.385-14.443,36.039-21.519,53.692C-398.796,427.064-399.361,427.026-399.927,426.988z"/>
<path d="M-645.083,180.7c9.505,19.431,19.01,38.86,28.917,59.111c9.862-19.944,19.366-39.164,28.87-58.384
	c0.463,0.018,0.926,0.035,1.388,0.053c3.395,23.647,6.79,47.295,10.233,71.284c-2.712,0-4.654,0-6.985,0
	c-2.248-16.414-4.507-32.903-6.766-49.393c-0.303-0.179-0.604-0.358-0.906-0.538c-8.403,16.714-16.807,33.428-25.967,51.646
	c-8.922-18.053-17.312-35.029-26.318-53.253c-1.582,11.544-3.017,21.76-4.368,31.986c-0.751,5.685-1.039,11.451-2.131,17.064
	c-0.967,4.971-4.922,2.033-7.592,2.49c3.33-24.039,6.62-47.792,9.911-71.544C-646.227,181.05-645.655,180.875-645.083,180.7z"/>
<path d="M728.055,367.572c-1.951,1.807-3.777,3.497-5.6,5.192c-8.238-7.241-17.567-12.534-28.787-11.628
	c-17.214,1.392-30.988,12.819-30.468,31.379c0.462,16.44,13.514,28.562,29.627,29.892c9.396,0.774,18.427-0.912,24.766-8.692
	c2.985-3.664,4.841-8.249,7.806-13.468c-8.933,0-16.309,0-24.035,0c0-2.552,0-4.6,0-6.951c10.026,0,20.093,0,30.139,0
	c2.145,17.937-10.825,33.392-27.803,35.778c-11.374,1.6-21.969,0.12-31.494-6.419c-10.659-7.316-16.168-17.25-16.342-30.583
	c-0.247-18.914,11.481-32.034,27.135-36.469c14.239-4.033,27.527-1.15,39.558,7.466c0.926,0.662,1.869,1.303,2.749,2.02
	C726.186,365.809,726.999,366.612,728.055,367.572z"/>
<path d="M-219.029,49.934c-7.553,0-14.502,0-21.704,0c0-2.287,0-4.225,0-6.549c9.945,0,20.006,0,30.603,0
	c-0.33,8.509-1.911,16.684-7.354,23.553c-14.165,17.875-43.934,16.168-58.072,1.822c-10.809-10.966-14.503-24.323-9.17-39.229
	c5.154-14.406,15.711-22.497,30.83-24.524c15.385-2.062,29.526,2.65,39.341,13.341c-1.844,1.293-3.724,2.611-5.217,3.658
	c-6.014-2.958-12.227-7.059-19.055-9.147c-12.638-3.866-23.839-0.056-32.883,9.43c-7.729,8.106-9.345,18.142-6.134,28.373
	c6.483,20.656,32.738,29.275,50.583,15.898C-222.136,62.718-218.929,57.366-219.029,49.934z"/>
<path d="M405.044,50.036c-7.774,0-15.067,0-22.284,0c-1.44-6.505-1.074-7.021,4.868-7.032C395.917,42.988,404.205,43,412.401,43
	c3.13,16.339-9.828,34.318-28.68,36.196c-11.454,1.142-21.644-0.604-31.151-6.978c-13.987-9.375-19.68-28.862-12.874-44.459
	c5.771-13.23,15.78-20.584,30.108-22.872c13.756-2.196,25.381,1.751,35.893,10.271c1,0.811,2.146,1.442,4.225,2.819
	c-2.398,1.313-4.423,2.422-6.447,3.53c0.286,0.568,0.572,1.138,0.858,1.706c-3.465-2.268-6.927-4.541-10.396-6.803
	c-17.768-11.58-42.44-1.854-48.37,17.285c-5.153,16.632,6.847,34.405,24.154,38.347c16.251,3.7,30.726-4.485,34.962-18.396
	C404.964,52.729,404.89,51.704,405.044,50.036z"/>
<path d="M517.22,758.149c0-17.402,0-34.806,0-52.171c7.779-0.509,7.78-0.509,7.78,6.394c0,19.979,0.01,39.958-0.018,59.937
	c-0.002,1.726-0.244,3.448-1.593,5.639c-15.545-17.796-31.089-35.591-47.452-54.326c0,18.593,0,35.72,0,52.759
	c-7.678,2.698-7.938,2.517-7.938-5.342c-0.001-19.812,0-39.624,0-59.438c0-1.775,0-3.553,0-5.328
	c0.521-0.319,1.041-0.64,1.562-0.959c15.529,17.733,31.06,35.468,46.589,53.2C516.507,758.393,516.863,758.271,517.22,758.149z"/>
<path d="M920.967,585.731c0-19.03,0-36.587,0-54.435c2.446,0,4.492,0,6.533,0c0,23.805,0,47.452,0,71.1
	c-0.396,0.202-0.792,0.405-1.188,0.608c-15.442-17.74-30.886-35.479-46.965-53.951c-0.155,2.2-0.334,3.548-0.336,4.896
	c-0.021,14.983-0.165,29.972,0.094,44.951c0.064,3.789-2.13,3.75-4.507,4.057c-2.97,0.384-3.629-1.33-3.622-3.914
	c0.054-22.144,0.041-44.288,0.069-66.432c0-0.45,0.232-0.9,0.851-3.146C888.382,548.369,904.161,566.462,920.967,585.731z"/>
<path d="M159.236,738.329c10.67,3.325,15.434,10.605,14.761,21.05c-0.518,8.032-8.407,16.698-16.687,17.516
	c-7.574,0.749-15.225,0.904-22.84,0.894c-1.158-0.002-3.308-2.319-3.32-3.581c-0.205-21.815-0.122-43.634-0.179-65.451
	c-0.007-2.816,1.151-4.011,3.891-3.75c6.811,0.647,13.63,1.22,20.427,1.989c6.431,0.729,10.914,4.778,12.288,10.569
	c1.427,6.012,1.509,12.62-4.061,17.419C162.384,735.959,161.161,736.831,159.236,738.329z M138.211,769.801
	c5.775,0,11.595,0.616,17.221-0.163c6.387-0.885,11.261-6.795,11.554-12.34c0.237-4.501-4.899-12.194-9.561-12.977
	c-6.234-1.046-12.62-1.191-19.214-1.747C138.211,752.143,138.211,760.734,138.211,769.801z M138,723.93
	c0,12.422,0,12.422,12.024,11.062c4.794-0.542,9.828-5.022,10.886-9.951c0.955-4.447-1.049-8.312-4.707-9.98
	c-3.735-1.703-8.253-1.673-12.417-2.465c-4.891-0.93-6.505,1.204-5.828,5.871C138.217,720.252,138,722.106,138,723.93z"/>
<path d="M-13.005,252.805c-2.574,0-4.517,0-6.995,0c0-10.966,0-21.746,0-32.526c0-9.713-3.316-14.647-10.264-15.273
	c-8.725-0.786-16.85,5.261-17.606,14.119c-0.872,10.209-0.796,20.499-1.134,30.754c-0.027,0.815-0.081,1.629-0.139,2.777
	c-2.192,0-4.239,0-6.857,0c0-11.118,0.003-22.229-0.001-33.341c-0.003-7.097-4.243-13.43-9.557-14.292
	c-6.83-1.108-15.447,3.67-17.31,10.162c-1.201,4.187-1.856,8.627-2.045,12.984c-0.338,7.815-0.136,15.654-0.182,23.482
	c-0.002,0.295-0.236,0.588-0.462,1.11c-1.853,0-3.795,0-6.092,0c0-17.342,0-34.738,0-52.448c2.036,0,4.09,0,6.49,0
	c0,2.364,0,4.638,0,8.116c5.163-6.896,11.352-10.521,18.741-10.255c7.573,0.271,13.674,3.869,16.037,12.009
	c4.992-4.892,8.614-10.399,16.273-11.435c11.249-1.521,20.554,4.951,20.996,16.683C-12.646,227.719-13.005,240.037-13.005,252.805z"
	/>
<path d="M-240.026,723.192c0,18.694,0,36.241,0,53.96c-2.443,0.155-4.398,0.28-6.653,0.426c0-23.842,0-47.748,0-73.198
	c16.307,18.638,31.939,36.506,48.357,55.271c0.157-2.64,0.31-4.034,0.312-5.431c0.018-14.828-0.001-29.656,0.024-44.484
	c0.004-2.069-0.591-4.705,2.811-4.666c3.019,0.035,4.296,1.328,4.269,4.747c-0.18,22.456-0.093,44.914-1.162,68.058
	C-207.757,759.988-223.443,742.101-240.026,723.192z"/>
<path d="M-282.542,602.659c-15.511-17.749-31.022-35.499-47.204-54.017c0,18.543,0,36.09,0,53.594
	c-7.252,0.695-7.254,0.695-7.254-6.354c0-21.473,0-42.944,0-64.419c0.418-0.299,0.835-0.599,1.253-0.896
	c15.6,17.971,31.199,35.94,47.556,54.783c0-18.591,0-36.225,0-54.098c2.572,0,4.51,0,6.824,0c0,23.433,0,46.952,0,70.472
	C-281.759,602.036-282.15,602.348-282.542,602.659z"/>
<path d="M972.226,427.522c0-23.694,0-47.42,0-71.146c0.36-0.261,0.723-0.522,1.083-0.783c15.608,17.969,31.219,35.938,47.593,54.789
	c0-18.661,0-36.317,0-54.172c2.551,0,4.49,0,6.768,0c0,23.435,0,46.844,0,71.285c-1.721-1.097-3.331-1.687-4.313-2.818
	c-7.486-8.635-14.832-17.393-22.261-26.078c-6.95-8.127-13.947-16.216-21.708-25.23c-0.185,2.511-0.37,3.874-0.372,5.238
	c-0.021,14.49-0.008,28.98-0.017,43.472C978.994,428.354,978.912,428.412,972.226,427.522z"/>
<path d="M594.91,24.807c0,17.582,0,35.163,0,52.965c-2.334,0-4.275,0-6.564,0c0-23.808,0-47.638,0-73.045
	c16.494,18.98,32.109,36.95,48.548,55.866c0-18.843,0-36.395,0-54.266c2.47,0,4.518,0,6.839,0c0,23.801,0,47.532,0,72.779
	c-16.438-18.832-32.095-36.766-47.75-54.7C595.625,24.54,595.268,24.673,594.91,24.807z"/>
<path d="M813.341,179.993c16.386,18.826,32.016,36.782,48.564,55.795c0-19.044,0-36.598,0-54.467c2.466,0,4.514,0,6.832,0
	c0,23.814,0,47.543,0,72.965c-16.547-18.917-32.218-36.83-48.609-55.571c0,18.551,0,36.201,0,54.062c-2.562,0-4.503,0-6.787,0
	C813.341,228.955,813.341,205.128,813.341,179.993z"/>
<path d="M-74.934,558.195c0-10.235,0-19.477,0-28.949c2.326,0,4.266,0,6.934,0c0,1.51,0,3.102,0,4.693
	c0,21.131-0.029,42.262,0.035,63.393c0.009,2.818,0.053,5.607-3.646,5.548c-3.292-0.053-3.679-2.567-3.402-5.266
	c0.084-0.819,0.014-1.654,0.014-2.979c-6.4,5.418-12.916,9.639-21.387,9.392c-8.221-0.238-15.073-3.603-20.454-9.494
	c-9.315-10.201-8.529-28.919,1.122-38.145C-106.224,547.312-91.49,542.508-74.934,558.195z M-95.595,597
	c11.282,1.49,20.331-10.242,20.917-19.35c0.791-12.275-10.382-23.152-21.036-22.771c-11.559,0.415-20.564,9.298-20.739,20.497
	C-116.648,587.851-107.219,598.056-95.595,597z"/>
<path d="M392.923,594.173c0,9.537,0,18.343,0,27.485c-2.263,0-4.311,0-6.923,0c0-2.299,0-4.581,0-6.863
	c0-19.658,0.171-39.319-0.116-58.974c-0.074-5.132,1.059-7.669,7.07-6.43c0,2.521,0,5.228,0,8.271
	c16.593-12.081,30.63-12.021,41.062-1.062c9.784,10.279,9.479,29.079-0.648,39.611C422.996,607,408.979,606.604,392.923,594.173z
	 M412.771,597.001c12.031,0.312,22.763-9.188,22.06-20.534c-0.735-11.861-8.888-20.539-19.461-21.552
	c-12.717-1.217-22.336,10.597-22.424,18.593C392.785,588.087,399.867,596.666,412.771,597.001z"/>
<path d="M-86,34.554c0-6.022,0-10.783,0-15.544c0-4.804,0-9.607,0-14.706c2.401,0,4.448,0,6.752,0c0,24.402,0,48.667,0,73.313
	c-2.019,0-4.064,0-6.525,0c-0.125-2.316-0.257-4.746-0.452-8.358c-6.993,6.851-14.543,10.748-23.991,9.785
	c-9.479-0.966-16.417-5.993-20.881-13.857c-6.852-12.073-4.317-24.761,4.771-34.163c5.472-5.662,12.639-7.398,20.708-7.209
	C-97.447,24.006-91.849,28.078-86,34.554z M-86,51.489c0.807-10.584-8.617-21.81-20.854-21.392
	c-12.524,0.427-20.922,9.045-20.915,21.396c0.006,11.854,8.728,21.122,20.935,21.43C-94.596,73.231-85.185,62.081-86,51.489z"/>
<path d="M433.988,383.321c0-10.303,0-19.535,0-29.038c2.451,0,4.496,0,7.012,0c0,6.973,0,13.757,0,20.541
	c0,15.812,0.001,31.623-0.001,47.434c0,2.701,0.704,5.736-3.744,5.667c-4.552-0.071-2.877-3.415-3.255-5.708
	c-0.08-0.488-0.095-0.989-0.221-2.386c-9.34,9.3-19.975,11.637-31.798,7.071c-6.528-2.521-10.544-7.934-13.881-13.733
	c-5.088-8.844-1.445-26.806,6.438-33.038C406.143,370.962,420.755,369.283,433.988,383.321z M393,401.027
	c-0.39,13.103,9.751,21.745,18.43,21.662c15.114-0.145,23.212-8.021,23.236-21.883c0.019-11.025-7.424-20.347-20.88-20.954
	C402.884,379.362,391.698,389.759,393,401.027z"/>
<path d="M662.338,200.23c2.312,0,4.264,0,6.496,0c0,2.671,0,5.122,0,8.849c5.884-7.787,13.252-11.018,21.551-10.921
	c8.559,0.1,15.731,3.979,21.175,10.853c7.683,9.697,8.121,26.467-2.118,36.977c-8.659,8.887-26.011,13.179-40.312-2.053
	c0,9.642,0,18.644,0,27.845c-2.566,0-4.507,0-6.791,0C662.338,248.046,662.338,224.314,662.338,200.23z M669,226.62
	c-1.362,11.925,9.438,21.136,20.314,21.156c11.03,0.021,20.425-8.556,20.903-21.415c0.429-11.463-9.936-21.347-21.116-21.525
	C679.312,204.679,667.533,214.26,669,226.62z"/>
<path d="M600.88,244.856c0,9.021,0,17.809,0,26.866c-2.211,0-4.145,0-6.479,0c0-23.582,0-47.289,0-71.359c1.901,0,3.949,0,6.375,0
	c0.119,2.206,0.24,4.472,0.414,7.691c6.322-6.551,13.466-10.58,22.199-9.954c8.823,0.634,16.228,4.907,21.072,12.095
	c7.699,11.422,6.604,26.455-3.477,36.028C631.402,255.321,618.027,258.963,600.88,244.856z M642,226.184
	c1.644-10.163-10.67-21.854-21.111-21.306c-12.733,0.668-20.321,10.103-20.762,21.727c-0.421,11.11,10.032,21.646,21.199,21.248
	C631.891,247.477,642.56,239.308,642,226.184z"/>
<path d="M502.155,218.251c-12.486,0-24.085,0-36.059,0c0,11.512,0,22.78,0,34.396c-2.746,0-5.13,0-7.811,0
	c0-23.735,0-47.463,0-71.419c2.475,0,4.749,0,7.562,0c0,9.718,0,19.455,0,29.477c12.13,0,23.731,0,35.889,0
	c0-9.566,0-19.292,0-29.357c2.594,0,4.642,0,6.979,0c0,23.738,0,47.469,0,71.425c-2.138,0-4.079,0-6.561,0
	C502.155,241.4,502.155,229.995,502.155,218.251z"/>
<path d="M67.736,602.639c-1.854,0-3.68,0-5.826,0c0-2.756,0-5.349,0-9.151c-6.714,7.846-14.718,10.724-23.669,10.366
	c-8.142-0.324-14.787-4.418-19.588-10.832c-8.677-11.594-7.617-29.273,5.017-39.076c11.117-8.626,26.871-8.321,38.126,4.742
	c0-10.083,0-19.57,0-29.364c2.243,0,3.958,0,5.94,0C67.736,553.793,67.736,578.202,67.736,602.639z M62,576.049
	c0.168-11.789-9.201-20.757-20.981-21.172c-11.3-0.396-20.85,10.027-20.933,20.928c-0.076,9.905,7.474,21.729,20.293,21.637
	C53.062,597.349,61.497,589.918,62,576.049z"/>
<path d="M312.044,207.623c0-9.407,0-18.813,0-28.412c2.071,0,3.687,0,5.628,0c0,24.406,0,48.808,0,73.496c-1.756,0-3.476,0-5.574,0
	c0-2.733,0-5.332,0-9.19c-7.43,8.134-15.834,11.617-25.672,10.363c-7.118-0.906-12.918-4.82-17.306-10.366
	c-8.396-10.611-8.392-25.268,1.366-36.364c5.284-6.009,12.451-9.178,20.494-9.048c8.038,0.129,14.745,3.769,19.846,10.359
	C311.232,208.182,311.638,207.902,312.044,207.623z M312,226.437c0.961-11.206-10.262-21.623-20.857-21.571
	c-11.885,0.058-21.303,10.191-21.029,21.317c0.302,12.275,9.548,21.894,21.499,21.573C301.723,247.484,312.323,240.229,312,226.437z
	"/>
<path d="M-288.693,194.237c-1.919,1.396-3.588,2.609-5.215,3.793c-19.32-15.374-37.64-16.076-49.813-1.733
	c-10.359,12.205-10.467,30.995,1.306,42.418c12.146,11.785,33.299,13.408,47.97-2.616c1.738,1.296,3.512,2.619,5.267,3.928
	c-11.528,18.136-43.512,17.039-55.8,6.692c-17.384-14.639-18.748-42.72-1.513-58.062
	C-332.402,176.115-303.338,174.573-288.693,194.237z"/>
<path d="M914.96,776.396c11.356-24.03,22.53-47.678,33.705-71.323c0.479-0.024,0.961-0.049,1.44-0.073
	c11.16,23.903,22.32,47.806,33.483,71.717c-6.5,2.352-6.729,2.216-9.629-3.81c-2.614-5.431-5.19-10.892-8.145-16.134
	c-0.745-1.323-2.846-2.602-4.363-2.65c-7.982-0.262-15.987-0.32-23.963,0.029c-1.791,0.078-4.2,1.67-5.116,3.261
	c-3.081,5.348-5.498,11.073-8.397,16.533C921.318,778.954,920.559,779.066,914.96,776.396z M937.257,746.776
	c8.199,0,15.802,0,24.149,0c-4.069-8.696-7.919-16.923-12.049-25.747C945.198,729.878,941.336,738.096,937.257,746.776z"/>
<path d="M-104.874,752.439c1.136,9.423,5.763,16.821,14.759,19.211c10.976,2.914,19.69-1.996,25.46-11.624
	c6.839,2.735,7.003,3.11,2.921,8.165c-12.357,15.297-38.033,15.076-47.942-5.536c-5.242-10.903-0.768-27.22,7.923-33.824
	c12.865-9.777,29.943-6.514,37.884,2.889c3.93,4.652,6.641,10.004,6.89,16.329c0.104,2.669-0.779,4.063-3.683,3.971
	c-10.674-0.338-21.35-0.728-32.026-0.793C-96.72,751.201-100.755,752.004-104.874,752.439z M-64.992,745.26
	c-1.473-10.113-9.13-14.764-18.504-16.004c-8.345-1.104-16.708,5.743-20.007,16.004C-90.755,745.26-78.104,745.26-64.992,745.26z"/>
<path d="M1056.548,576.784c-16.01,0-31.679,0-47.717,0c1.79,9.995,5.664,17.455,15.467,20.171
	c9.262,2.564,17.501-1.354,25.346-12.039c1.732,0.85,3.548,1.739,5.327,2.611c-3.51,11.831-17.455,18.427-28.496,16.096
	c-17.016-3.593-27.137-17.002-24.402-30.788c3.815-19.25,17.539-25.769,28.408-24.678
	C1049.896,550.106,1057.969,562.958,1056.548,576.784z M1010.27,569.552c0.968,0.444,1.941,1.279,2.916,1.279
	c10.8,0.007,21.599-0.088,32.396-0.229c2.173-0.027,4.408-0.317,2.971-3.519c-3.048-6.782-8.174-11.06-15.575-12.037
	C1022.915,553.718,1015.59,557.158,1010.27,569.552z"/>
<path d="M706.164,602.643c-7.362,0.665-8.544-0.109-11.005-6.182c-1.896-4.678-3.663-9.456-6.124-13.831
	c-0.965-1.714-3.623-3.372-5.588-3.468c-7.98-0.389-15.991-0.08-23.988-0.206c-2.719-0.043-3.882,0.783-4.857,3.554
	c-1.835,5.21-4.467,10.148-6.89,15.142c-2.831,5.835-3.71,6.146-10.276,4.079c11.074-23.536,22.134-47.043,33.846-71.937
	c2.161,3.453,4.212,6.095,5.598,9.049c8.025,17.111,15.906,34.291,23.811,51.46C702.507,594.256,704.222,598.258,706.164,602.643z
	 M683.82,571.724c-3.957-8.42-7.776-16.549-11.994-25.523c-4.174,8.847-8.006,16.969-12.042,25.523
	C667.875,571.724,675.444,571.724,683.82,571.724z"/>
<path d="M-508.177,576.836c-1.725,6.147,3.357,15.694,10.156,18.625c10.525,4.536,22.168,1.062,29.249-10.236
	c1.753,0.854,3.552,1.731,5.331,2.6c-4.992,13.249-19.648,19.343-34.645,14.621c-16.237-5.111-23.402-26.463-13.785-41.726
	c5.918-9.391,14.938-13.581,25.785-12.558c11.62,1.097,19.78,7.37,23.501,18.747c0.652,1.995,1.171,4.059,1.485,6.132
	c0.383,2.525-0.31,3.915-3.469,3.87c-12.987-0.185-25.979-0.075-38.968-0.075C-505.07,576.836-506.605,576.836-508.177,576.836z
	 M-508.212,570.089c6.71,0,13.082,0,19.455,0c6.562,0,13.125,0,19.699,0c-1.185-8.572-9.149-14.907-19.853-15.485
	C-496.445,554.197-503.809,559.793-508.212,570.089z"/>
<path d="M-444.898,751.999c-0.956,8.57,6.503,17.154,13.601,19.361c9.983,3.104,18.213-0.319,26.128-11.268
	c6.828,1.806,6.685,2.378,2.365,8.356c-8.873,12.286-27.806,13.298-38.319,5.492c-9.426-6.998-12.223-16.95-10.738-27.965
	c1.388-10.294,7.356-18.388,17.188-21.44c12.104-3.76,24.152-2.238,32.862,10.506c2.779,4.067,3.353,9.69,4.538,14.696
	c0.083,0.349-3.133,2.104-4.841,2.146c-9.205,0.224-18.419,0.11-27.631,0.113C-434.683,752-439.62,751.999-444.898,751.999z
	 M-444.031,745.182c13.097,0,25.97,0,38.847,0.003c-1.598-9.962-10.363-15.062-17.096-15.579
	C-433.592,728.733-440.597,733.856-444.031,745.182z"/>
<path d="M8.292,751.725c-0.989,8.133,6.092,17.04,12.311,19.293c8.724,3.159,19.181,0.727,24.412-6.812
	c2.888-4.161,5.144-4.852,8.751-1.528c-5.716,16.302-28.288,20.668-42.468,11.02C3.382,768.31-0.49,753.666,1.68,743.517
	c4.017-18.778,27.699-27.103,43.342-15.066c6.754,5.196,9.752,12.297,10.845,20.388c0.103,0.758-1.412,2.431-2.277,2.505
	c-4.08,0.353-8.194,0.357-12.298,0.371C30.338,751.748,19.385,751.725,8.292,751.725z M47.952,745.229
	c-2.438-11.41-12.271-15.745-20.114-15.682c-9.008,0.073-17.24,6.432-18.339,15.682C22.302,745.229,35.049,745.229,47.952,745.229z"
	/>
<path d="M507.002,576.72c-16.26,0-31.924,0-47.455,0c-1.469,8.295,5.021,16.96,12.191,19.582c7.36,2.692,19.011,2.064,27.251-11.326
	c1.846,0.962,3.702,1.928,5.527,2.878c-4.046,12.022-18.424,18.084-30.692,15.879c-13.922-2.502-23.596-14.073-21.729-31.832
	c1.291-12.274,10.276-22.562,24.448-23.823C492.882,546.62,501.807,555.012,507.002,576.72z M498.807,570.252
	c-3.009-11.166-11.409-15.831-20.396-15.622c-7.088,0.164-16.659,4.414-18.281,15.622
	C473.029,570.252,485.829,570.252,498.807,570.252z"/>
<path d="M727.197,751.979c-2.144,6.088,5.67,17.041,13.308,19.279c10.376,3.042,20.377-0.942,26.416-11.593
	c1.923,0.992,3.867,1.996,5.741,2.963c-5.365,16.097-28.69,20.711-41.112,11.577c-9.364-6.886-12.855-16.347-11.409-27.408
	c1.383-10.559,6.841-18.352,17.488-22.101c18.01-6.341,34.939,4.592,37.26,24.321c0.442,3.769-2.912,2.541-4.706,2.603
	c-7.812,0.265-15.637,0.293-23.456,0.349C740.299,752.014,733.871,751.979,727.197,751.979z M766.821,745.15
	c-1.942-10.5-11.879-15.889-20.396-15.657c-9.322,0.252-16.599,6.661-17.979,15.657C741.249,745.15,753.984,745.15,766.821,745.15z"
	/>
<path d="M378.984,752.198c-0.119,8.231,4.211,14.506,11.328,18.299c5.021,2.677,11.278,3.09,16.453,0.295
	c4.887-2.639,9.009-6.693,13.87-10.436c0.833,0.41,2.429,1.199,4.017,1.984c-2.333,8.193-14.339,17.316-22.526,16.518
	c-5.354-0.522-10.967-1.265-15.831-3.37c-12.646-5.477-17.369-22.205-12.891-34.299c2.062-5.568,5.164-10.324,10.464-13.739
	c16.294-10.5,39.477-1.984,42.186,17.936c0.927,6.812,1.132,6.795-5.825,6.611c-11.053-0.292-22.104-0.673-33.159-0.844
	C384.562,751.115,382.043,751.782,378.984,752.198z M419.062,745.086c-2.872-9.037-11.031-15.882-18.512-16.043
	c-9.253-0.2-15.913,4.761-20.773,16.043C393.037,745.086,405.938,745.086,419.062,745.086z"/>
<path d="M1225.466,759.736c2.256,1.146,3.845,1.957,5.417,2.757c-3.252,10.17-15.63,17.514-27.756,16.334
	c-10.999-1.07-19.064-6.653-23.093-17.233c-4.536-11.914-2.34-22.739,6.65-31.604c7.513-7.406,17.126-8.818,26.93-5.852
	c10.081,3.054,16.637,9.94,18.379,20.704c1.217,7.521,1.167,7.524-8.653,7.156c-5.543-0.208-11.086-0.509-16.631-0.569
	c-6.232-0.068-12.469,0.137-18.702,0.117c-2.729-0.009-3.239,1.479-3.001,3.749c0.695,6.62,7.807,14.75,14.453,16.487
	c7.795,2.038,18.095-1.308,22.341-7.224C1222.934,762.979,1224.151,761.46,1225.466,759.736z M1225.064,745.142
	c-3.082-10.727-10.164-15.661-19.421-15.76c-9.693-0.103-16.733,5.158-19.678,15.76
	C1199.055,745.142,1211.933,745.142,1225.064,745.142z"/>
<path d="M1160.648,759.77c2.147,1.141,3.714,1.971,5.279,2.802c-9.906,17.172-26.798,21.233-42.921,10.43
	c-6.887-4.615-12.067-18.819-9.782-27.405c2.936-11.026,9.01-19.304,20.736-22.041c14.729-3.438,30.111,5.449,33.036,20.709
	c0.184,0.955,0.231,1.976,0.613,2.847c1.607,3.683-0.747,4.719-3.507,4.745c-9.926,0.1-19.853-0.084-29.777-0.112
	c-3.835-0.011-7.758,0.638-11.479,0.019c-3.882-0.646-3.048,1.832-2.691,3.404c2.207,9.768,8.058,15.966,18.297,16.968
	c8.197,0.802,14.817-2.353,19.577-9.2C1158.767,761.87,1159.68,760.93,1160.648,759.77z M1159.882,745.293
	c-2.8-9.621-10.958-16.764-18.977-16.05c-8.767,0.781-17.899,4.697-19.553,16.05
	C1134.094,745.293,1146.742,745.293,1159.882,745.293z"/>
<path d="M879.503,751.532c-6.926,0-13.69-0.003-20.456,0.001c-8.332,0.005-16.668-0.1-24.988,0.221
	c-0.736,0.028-2.144,2.952-1.921,4.315c1.196,7.343,8.402,15.152,16.454,15.981c10.385,1.07,17.986-2.806,23.078-12.161
	c2.057,1.032,4.055,2.035,6.049,3.036c-7.729,15.501-23.938,18.829-37.208,13.817c-11.016-4.161-18.612-19.732-15.296-32.714
	c2.938-11.498,12.157-22.303,29.198-20.995C864.848,723.835,878.582,731.011,879.503,751.532z M871.438,745.128
	c-1.859-11.516-10.062-15.387-20.2-15.749c-9.408-0.337-17.222,7.703-18.183,15.749C845.734,745.128,858.33,745.128,871.438,745.128
	z"/>
<path d="M804.479,77.306c11.262-23.868,22.481-47.653,33.703-71.439c0.51-0.068,1.02-0.137,1.527-0.206
	c11.157,23.896,22.312,47.79,33.515,71.778c-5.137,1.361-8.24,0.835-10.12-4.643c-2.201-6.414-5.812-12.345-8.964-18.795
	c-9.208,0-18.691-0.131-28.164,0.146c-1.374,0.041-3.2,1.765-3.942,3.171c-2.664,5.046-5.213,10.188-7.305,15.491
	C812.872,77.516,810.008,79.189,804.479,77.306z M851.104,46.913c-4.199-8.785-8.062-16.864-12.129-25.367
	c-4.124,8.724-7.968,16.853-11.993,25.367C835.264,46.913,842.718,46.913,851.104,46.913z"/>
<path d="M163.049,413.634c-9.599,14.924-24.243,19.618-38.516,12.485c-11.394-5.694-17.657-20.977-12.446-35.002
	c5.354-14.41,17.605-19.729,30.426-17.8c15.809,2.378,24.27,17.721,22.03,28.582c-15.658,0-31.421,0-47.299,0
	c0.881,7.929,3.767,13.92,10.333,18.369c5.665,3.84,22.471,1.844,26.485-5.104C157.122,409.869,157.987,409.975,163.049,413.634z
	 M156.684,395.8c0.763-8.146-8.351-14.728-14.545-15.688c-12.477-1.938-20.66,3.658-23.782,15.688
	C131.163,395.8,143.933,395.8,156.684,395.8z"/>
<path d="M535.721,402c-15.603,0-30.88,0-46.05,0c-2.444,8.557,4.903,16.723,10.671,18.836c9.016,3.304,20.68,2.825,28.487-10.9
	c1.856,0.939,3.726,1.885,5.571,2.816c-4.574,13.543-18.744,18.882-31.619,15.811c-17.321-4.133-23.533-17.104-20.374-34.42
	c2.743-15.031,15.354-22.504,29.97-20.989C527.188,374.688,536.801,386.823,535.721,402z M528.805,395.875
	c-2.945-13.722-13.979-17.467-24.989-15.658c-7.633,1.254-14.137,9.42-13.146,15.658
	C503.244,395.875,515.84,395.875,528.805,395.875z"/>
<path d="M844.459,402c-0.898,7.414,3.996,15.412,11.225,18.884c8.984,4.315,17.708,1.122,28.761-10.655
	c1.75,0.922,3.562,1.875,5.316,2.799c-4.067,7.832-9.631,13.026-18.29,15.235c-18.127,4.626-34.256-8.302-34.582-25.223
	c-0.218-11.3,3.429-20.615,13.078-26.269c16.824-9.855,38.36-0.008,41.208,19.564c0.795,5.46-1.021,5.812-5.412,5.742
	C871.979,401.865,858.188,402,844.459,402z M845.282,395.72c13.036,0,25.728,0,38.473,0c-2.578-12.531-11.95-16.954-23.934-15.659
	C852.908,380.807,844.047,389.562,845.282,395.72z"/>
<path d="M1096.811,401.964c-15.959,0-31.568,0-47.072,0c-2.354,7.666,5.309,17.468,12.021,19.181
	c11.498,2.936,18.791,1.612,27.63-10.932c1.772,0.932,3.576,1.879,5.348,2.809c-5.496,14.354-22.178,19.169-35.155,14.563
	c-13.568-4.814-19.951-17.603-17.257-31.733c3.093-16.226,15.589-24.218,29.957-22.734
	C1087.467,374.685,1097.025,387.327,1096.811,401.964z M1088.712,395.811c-1.241-9.777-8.771-16.818-22.58-15.855
	c-7.825,0.545-15.562,8.104-15.628,15.855C1063.233,395.811,1075.961,395.811,1088.712,395.811z"/>
<path d="M1221.638,402.057c-15.595,0-30.876,0-46.101,0c-1.235,8.479,3.869,16.402,12.025,19.102
	c11.11,3.677,21.192-0.419,27.157-11.227c1.988,0.989,3.986,1.983,5.965,2.969c-5.665,13.438-20.942,19.807-36.163,14.228
	c-13.783-5.053-19.408-19.122-16.027-33.542c3.589-15.309,16.1-21.948,29.967-20.42
	C1213.382,374.809,1223.007,387.076,1221.638,402.057z M1176.23,395.719c13.089,0,25.779,0,38.521,0
	c-2.296-11.841-11.926-17.09-23.938-15.69C1183.405,380.891,1176.358,388.435,1176.23,395.719z"/>
<path d="M-269.265,402.016c-16,0-31.61,0-47.2,0c-0.51,9.861,4.81,16.43,13.025,19.746c9.043,3.65,19.577-1.013,26.775-11.549
	c1.763,0.903,3.562,1.825,5.347,2.74c-6.927,15.801-21.807,18.772-35.332,14.585c-13.18-4.082-19.297-19.017-17.05-30.996
	c3.521-18.774,18.05-25.006,30.396-23.367C-277.164,375.316-268.843,387.685-269.265,402.016z M-315.762,395.731
	c12.852,0,25.679,0,38.505,0c0.027-9.676-10.856-15.465-18.192-15.894C-307.285,379.146-315.03,387.668-315.762,395.731z"/>
<path d="M1001.273,254.402c-6.193-14.022-11.703-26.499-17.459-39.531c-5.901,13.116-11.56,25.687-17.7,39.334
	c-7.923-18.664-15.335-36.125-22.768-53.632c6.843-1.151,7.085-0.821,9.663,5.616c4.104,10.244,8.479,20.38,13.172,31.597
	c5.943-13.369,11.422-25.689,16.897-38.009c0.452,0.021,0.904,0.041,1.354,0.062c5.527,12.366,11.055,24.733,16.95,37.928
	c5.663-13.128,10.935-25.347,16.241-37.652c2.173,0,4.322,0,6.999,0C1016.956,217.943,1009.381,235.555,1001.273,254.402z"/>
<path d="M-458.15,401.952c-15.672,0-30.939,0-46.081,0c-2.447,7.142,2.606,15.429,9.589,18.45
	c12.301,5.325,22.592,1.182,29.537-10.108c5.514,1.646,7.083,2.13,2.82,8.299c-5.991,8.671-20.922,13.062-31.743,9.331
	c-11.216-3.866-17.953-14.826-18.136-24.841c-0.199-10.913,2.916-19.665,12.267-25.698c9.23-5.956,19.123-6.098,28.346-0.979
	C-462.219,381.586-457.043,389.978-458.15,401.952z M-503.772,395.724c13.083,0,25.777,0,38.523,0
	c-2.554-12.505-11.916-16.923-23.924-15.68C-496.576,380.811-503.627,388.423-503.772,395.724z"/>
<path d="M890.236,226.872c-0.518,9.081,3.36,15.657,11.834,19.06c12.509,5.021,21.306-0.898,28.212-10.817
	c1.97,1.038,3.688,1.943,5.387,2.839c-7.346,16.58-24.475,18.67-35.423,14.506c-13.052-4.966-19.691-16.122-16.986-31.917
	c2.274-13.283,11.056-21.099,25.341-22.395c7.911-0.718,15.133,2.238,20.938,7.915c5.688,5.562,7.829,12.613,7.974,20.81
	C922.04,226.872,906.318,226.872,890.236,226.872z M891.236,220.725c13.088,0,25.774,0,38.485,0
	c-1.007-9.819-12.447-17.091-22.801-15.737C898.804,206.049,891.34,213.32,891.236,220.725z"/>
<path d="M1124.311,226.811c1.01,12.481,7.472,19.981,18.923,20.847c8.974,0.678,16.938-3.325,21.364-13.036
	c1.979,1.304,3.771,2.482,5.495,3.617c-5.881,13.442-20.646,18.902-35.814,13.887c-11.938-3.947-19.013-19.542-16.825-28.911
	c4.03-17.265,15.907-27.17,29.163-25.206c17.703,2.622,25.729,14.638,25.165,28.803
	C1156.057,226.811,1140.302,226.811,1124.311,226.811z M1164.27,220.84c-0.797-9.344-9.732-15.415-17.362-15.805
	c-11.439-0.584-18.78,4.86-21.547,15.805C1138.354,220.84,1151.311,220.84,1164.27,220.84z"/>
<path d="M-511.466,227.096c-15.548,0-30.823,0-46.047,0c-1.092,8.261,2.97,14.902,11.257,18.83
	c9.562,4.532,16.809,1.861,28.676-10.658c1.652,0.83,3.354,1.685,5.034,2.528c-5.34,14.536-23.457,19.534-35.505,14.534
	c-15.461-6.418-19.513-19.357-16.377-33.082c3.858-16.883,17.324-22.544,29.354-20.972
	C-517.828,200.53-509.305,214.319-511.466,227.096z M-518.272,220.747c-2.825-13.327-15.424-17.234-23.733-15.58
	c-8.879,1.767-16.324,10.005-14.396,15.58C-543.713,220.747-531.018,220.747-518.272,220.747z"/>
<path d="M47.76,208.653c0.169-3.374,0.29-5.774,0.422-8.404c2.18,0,4.125,0,6.445,0c0,17.287,0,34.663,0,52.396
	c-1.932,0-3.977,0-6.391,0c-0.134-2.384-0.27-4.808-0.469-8.36c-9.135,9.063-19.316,12.314-31.038,7.929
	c-6.758-2.529-11.458-7.495-14.605-13.892c-6.463-13.132-1.329-28.802,9.812-35.752C24.001,195.043,37.885,197.372,47.76,208.653z
	 M48,226.453c0.973-11.228-10.286-21.782-20.93-21.562c-11.917,0.247-21.045,9.679-20.809,21.074
	c0.251,12.109,8.564,22.015,21.347,21.808C39.064,247.588,48.428,238.749,48,226.453z"/>
<path d="M571.66,209.202c0.229-3.812,0.374-6.199,0.536-8.89c2.144,0,4.203,0,6.534,0c0,17.454,0,34.833,0,52.449
	c-2.128,0-4.062,0-6.474,0c-0.151-2.449-0.309-4.969-0.537-8.647c-7.555,7.695-15.987,11.161-25.778,9.709
	c-7.075-1.05-13.139-4.892-17.074-10.684c-8.187-12.041-8.333-24.166,2.026-36.333c5.167-6.068,12.551-9.015,20.578-8.694
	C559.309,198.425,565.938,202.013,571.66,209.202z M572,226.498c0.987-11.278-10.27-21.707-20.766-21.616
	c-11.93,0.104-21.331,9.877-21.054,21.799c0.277,11.869,9.365,21.345,21.401,21.072C561.678,247.523,572.296,240.259,572,226.498z"
	/>
<path d="M1237.667,252.796c-2.264,0-4.208,0-6.589,0c0-2.599,0-5.007,0-8.92c-9.658,9.776-20.039,12.741-31.891,8.054
	c-6-2.373-10.22-6.748-13.35-12.432c-6.978-12.671-2.696-28.472,6.803-35.296c12.961-9.312,27.174-7.895,38.12,4.28
	c0.138-2.983,0.247-5.346,0.374-8.095c2.066,0,4.121,0,6.531,0C1237.667,217.604,1237.667,234.983,1237.667,252.796z M1231,226.292
	c0.004-11.946-9.137-21.259-20.857-21.297c-12.273-0.041-20.966,9.271-20.846,21.32c0.11,11.066,7.815,21.416,21.07,21.463
	C1221.469,247.818,1231.505,239.148,1231,226.292z"/>
<path d="M-62.341,427.807c-7.742-0.006-6.302-0.388-7.01-7.662c-7.107,7.154-15.613,10.02-25.185,8.728
	c-6.314-0.854-11.91-4.248-15.854-9.005c-9.677-11.67-9.246-29.575,3.331-40.545c10.261-8.95,23.917-8.312,37.788,3.451
	c0.176-3.003,0.333-5.684,0.501-8.549c2.189,0,4.138,0,6.428,0C-62.341,391.943-62.341,409.682-62.341,427.807z M-88.733,380
	c-12.238-0.004-21.209,9.098-21.283,21.443c-0.065,10.994,8.943,21.319,20.64,21.109c13.77-0.247,20.797-9.291,21.222-20.932
	C-67.7,389.147-78.033,379.318-88.733,380z"/>
<path d="M-6.998,558.243c0-2.442,0.079-3.904-0.018-5.354c-0.182-2.711,0.972-4.502,3.684-3.727
	c1.348,0.386,3.126,2.347,3.182,3.659C0.158,560.13,0,567.459,0,574.78c0,9.147,0,18.297,0,27.429
	c-6.865,0.802-6.865,0.802-7.145-6.78c-18.492,13.212-34.59,12.636-45.818-8.831c-5.757-11.005-1.165-26.124,9.872-33.806
	C-34.669,546.93-20.227,544.099-6.998,558.243z M-27.082,555c-12.171,0.009-20.908,8.907-20.918,21.303
	c-0.009,12.103,9.251,20.952,22.177,21.195c9.718,0.183,20.232-10.696,19.734-21.128C-6.632,565.006-14.329,554.789-27.082,555z"/>
<path d="M-219.261,557.83c0.606-8.727,0.606-8.727,7.255-8.509c0,16.774,0.226,33.573-0.116,50.359
	c-0.129,6.372-4.255,1.689-6.839,2.115c0-2.276,0-4.092,0-7.062c-7.117,6.362-14.709,10.107-23.578,9.167
	c-8.901-0.943-15.983-5.566-20.474-13.322c-7.656-13.227-4.496-29.722,8.011-37.812
	C-243.198,545.133-231.147,545.667-219.261,557.83z M-239.171,555c-11.497,0.017-21.01,9.396-20.779,20.94
	c0.259,13.038,8.746,21.072,19.624,21.532c14.972,0.634,22.213-11.136,22.251-21.34C-218.034,565.008-227.285,554.454-239.171,555z"
	/>
<path d="M188.67,252.78c-2.306,0-4.257,0-6.555,0c0-2.471,0-4.731,0-8.126c-7.391,7.507-15.744,10.341-25.073,9.187
	c-7.724-0.955-13.779-5.573-18.188-11.675c-7.408-10.25-7.108-26.385,4.385-37.005c10.818-9.996,23.919-9.443,38.523,2.556
	c0.141-2.522,0.266-4.741,0.41-7.337c2.037,0,4.099,0,6.498,0C188.67,217.621,188.67,235.013,188.67,252.78z M141,225.835
	c0.228,13.209,9.619,22.054,20.478,21.867c12.398-0.213,21.035-7.262,21.368-21.842c0.254-11.17-9.222-21.117-20.851-20.906
	C150.397,205.164,141.017,214.308,141,225.835z"/>
<path d="M1395.91,383.621c0-3.624,0-6.246,0-9.384c1.98-0.09,3.714-0.169,5.775-0.263c0,18.006,0,35.745,0,53.355
	c-8.224,2.36-4.83-4.431-6.133-8.394c-7.246,8.396-16.003,11.627-26.562,9.586c-6.861-1.326-12.285-4.944-16.336-10.451
	c-8.738-11.879-7.661-28.653,4.607-38.781C1367.812,370.58,1383.908,370.135,1395.91,383.621z M1375.066,422.001
	c11.606,1.818,22.216-10.427,21.07-22.76c-1.023-11.042-10.732-19.507-23.535-19.241c-9.689,0.201-18.84,10.917-18.615,21.673
	C1354.196,411.719,1363.927,424.212,1375.066,422.001z"/>
<path d="M407.772,208.469c0.156-3.146,0.276-5.554,0.408-8.199c1.922,0,3.646,0,5.597,0c0,17.485,0,34.759,0,52.379
	c-1.769,0-3.482,0-5.569,0c0-2.584,0-5.188,0-8.949c-6.794,6.643-13.777,10.589-22.653,10.35c-8.94-0.24-15.957-4.283-20.983-11.166
	c-8.406-11.509-7.396-26.586,3.52-37.445C378.738,194.842,390.944,195.661,407.772,208.469z M386.883,205
	c-11.586-0.36-20.593,9.78-20.837,20.955c-0.255,11.708,10.06,22.147,20.812,21.849c10.553-0.293,21.316-6.887,21.158-22.121
	C407.898,214.263,398.5,204.988,386.883,205z"/>
<path d="M200.981,569.169c0,11.498,0,22.452,0,33.276c-2.27,0-4.269,0-6.981,0c0-11.564,0-23.438,0-35.311
	c0-11.799,0-23.599,0-36.388c12.82,1.94,26.029-3.487,37.909,4.646c5.901,4.039,7.717,10.139,6.935,16.658
	c-0.824,6.867-3.957,13.27-11.395,14.76c-7.491,1.503-15.279,1.525-22.938,2.186C203.54,569.08,202.563,569.094,200.981,569.169z
	 M201.241,562c6.306,0,12.264,0.049,18.222-0.015c5.539-0.06,11.097-4.625,11.533-9.352c0.71-7.71-2.01-12.466-8.955-13.558
	c-6.75-1.062-13.674-1.018-20.8-1.477C201.241,546.08,201.241,553.672,201.241,562z"/>
<path d="M-516,750.827c0.315,17.17-12.335,27.932-27.527,28.088c-14.566,0.15-28.326-11.934-27.663-29.053
	c0.567-14.642,13.015-27.354,28.469-27.002C-529.778,723.154-514.835,734.688-516,750.827z M-523,751.039
	c0.467-9.469-7.552-21.239-20.295-21.553c-10.908-0.269-21.266,10.719-20.808,21.667c0.476,11.369,9.352,20.423,20.466,20.958
	C-532.603,772.644-521.877,760.788-523,751.039z"/>
<path d="M307.525,604c-18.258-0.335-28.405-12.803-28.193-28.146c0.226-16.371,10.7-27.231,27.479-27.698
	c16.773-0.468,28.057,12.853,28.195,27.826C335.147,591.146,322.17,604.588,307.525,604z M307.728,597
	c10.66,1.166,20.34-10.195,20.137-20.443c-0.208-10.486-7.29-21.291-20.804-21.604c-11.193-0.259-21.457,11.278-20.837,21.279
	C286.917,587.441,293.968,597.273,307.728,597z"/>
<path d="M-230,427.674c-6.999-0.25-7-0.25-7-6.869c0-20.32,0-40.643,0-60.964c0-1.797,0-3.594,0-5.604c2.408,0,4.348,0,6.875,0
	c0,9.295,0,18.664,0,27.358c5.345-2.643,10.312-5.596,15.634-7.62c8.964-3.41,21.708,2.073,23.174,14.014
	c1.507,12.276,1.028,24.805,1.132,37.225c0.007,0.74-2.56,2.113-3.879,2.057c-1.019-0.046-2.782-1.854-2.806-2.91
	c-0.219-9.656,0.201-19.337-0.293-28.972c-0.198-3.867-1.431-8.161-3.559-11.348c-4.282-6.41-14.973-5.663-21.425-0.551
	c-6.815,5.398-7.283,12.944-7.745,20.399C-230.375,411.684-230,419.529-230,427.674z"/>
<path d="M240,750.814c0.387,15.512-12.235,28.23-27.868,28.169c-12.769-0.051-28.391-10.378-27.432-29.956
	c0.639-13.059,13.194-26.236,27.213-26.18C228.122,722.916,240.576,736.605,240,750.814z M192,751.156
	c-0.818,11.799,8.775,20.589,20.367,20.934c11.575,0.345,20.488-10.741,20.805-20.847c0.299-9.539-9.371-21.854-21.089-21.354
	C200.423,730.386,191.998,738.846,192,751.156z"/>
<path d="M602,576.154c-0.283,16.387-11.84,27.712-27.82,27.889c-13.995,0.154-28.436-11.314-27.486-30.265
	c0.648-12.982,13.027-25.611,26.333-25.745C589.902,547.863,602.138,560.073,602,576.154z M575.122,555
	c-11.021-0.933-21.106,9.93-21.287,20.236c-0.244,13.849,9.882,22.623,20.375,22.334c12.255-0.338,20.45-9.271,20.899-21.664
	C595.512,564.823,583.403,553.926,575.122,555z"/>
<path d="M775,575.917c-1.656-15.755,12.82-27.976,27.554-27.986c13.554-0.011,27.741,12.191,27.616,28.599
	c-0.102,13.184-12.335,28.161-28.879,27.655C789.214,603.816,772.965,591.945,775,575.917z M782,576.046
	c-1.688,11.835,9.277,21.376,19.456,21.435c13.765,0.078,21.362-10.427,21.507-21.667c0.148-11.621-10.224-21.104-20.742-20.88
	C790.674,555.182,782,563.979,782,576.046z"/>
<path d="M565.477,723c16.658-0.527,28.693,13.189,28.363,27.952c-0.383,17.112-11.031,26.995-25.848,27.752
	c-18.686,0.954-29.543-11.681-29.826-27.606C537.912,736.864,549.051,722.92,565.477,723z M565.886,730
	c-12.948-0.336-20.791,11.203-20.687,21.051c0.126,11.969,9.037,20.896,20.682,20.999c11.727,0.104,21.204-9.223,20.93-21.75
	C586.588,740.171,578.568,729.666,565.886,730z"/>
<path d="M1178,576.199c-0.027,14.975-12.363,27.785-26.689,27.811c-19.312,0.034-29.154-13.083-28.898-27.598
	c0.314-17.887,10.497-27.851,28.477-28.186C1166.242,547.941,1177.678,560.285,1178,576.199z M1150.487,597
	c11.621,0.984,20.669-9.985,20.415-20.911c-0.276-11.872-8.836-20.555-21.191-21.196c-9.441-0.489-21.132,10.449-20.464,21.692
	C1129.936,588.158,1137.278,597.008,1150.487,597z"/>
<path d="M-564,427.505c-2.383-0.244-4.549-0.466-6.818-0.697c-0.066-1.316-0.174-2.473-0.174-3.628
	c-0.01-22.81-0.008-45.619-0.008-68.803c2.28,0,4.328,0,6.765,0c0,9.178,0,18.449,0,28.114c3.998-2.686,7.327-5.553,11.155-7.37
	c9.874-4.688,21.857-1.687,25.925,8.077c2.075,4.979,2.694,10.753,3.029,16.225c0.487,7.968,0.248,15.99,0.015,23.98
	c-0.043,1.478-1.449,4.081-2.364,4.144c-2.55,0.173-4.911-0.214-4.676-4.39c0.497-8.804,0.466-17.667,0.035-26.478
	c-0.266-5.424-0.595-11.164-6.037-14.749c-4.591-3.023-9.28-3.247-14.172-1.141c-8.707,3.749-12.412,10.836-12.629,19.896
	C-564.164,409.501-564,418.323-564,427.505z"/>
<path d="M-122,751.204c1.099,13.673-11.094,27.797-27.717,27.634c-15.039-0.146-27.696-12.948-27.479-29.292
	c0.172-12.856,12.855-27.342,28.885-26.688C-134.384,723.426-121.312,734.987-122,751.204z M-129,751.001
	c1.271-9.812-9.866-21.854-20.368-21.173c-11.561,0.749-20.61,9.239-20.632,20.955c-0.021,11.686,8.944,20.975,19.949,21.28
	C-137.457,772.412-127.819,761.646-129,751.001z"/>
<path d="M257,77.776c-2.626,0-4.567,0-6.731,0c0-24.608,0-48.995,0-73.578c2.205,0,4.146,0,6.685,0c0,9.4,0,18.755,0,29.01
	c6.562-5.891,12.698-9.425,21.163-9.497c8.624-0.075,16.992,6.982,17.636,15.954c0.896,12.5,0.226,25.112,0.226,38.008
	c-1.338,0-3.386,0-5.978,0c0-10.171,0.346-20.301-0.166-30.387c-0.213-4.191-1.513-8.729-3.641-12.328
	c-3.449-5.836-9.421-5.953-15.361-4.287c-6.928,1.943-11.589,6.633-12.665,13.592c-1.079,6.971-0.896,14.145-1.143,21.233
	C256.887,69.461,257,73.436,257,77.776z"/>
<path d="M-804,400.82c-0.901-14.443,11.967-27.738,27.362-27.873c15.226-0.133,27.977,13.592,27.825,28.381
	c-0.162,15.789-13.192,27.575-27.098,27.857C-792.092,429.516-804.981,416.146-804,400.82z M-797,401.111
	c0.002,12.611,8.306,20.782,20.524,21.196c11.878,0.403,21.07-11.104,20.608-20.87c-0.561-11.84-9.244-21.435-20.534-21.438
	C-787.954,379.996-797.002,389.271-797,401.111z"/>
<path d="M-735.997,354.206c2.595,0,4.538,0,6.851,0c0,9.454,0,18.716,0,29.233c4.889-6.398,10.656-9.671,17.305-10.31
	c11.532-1.108,20.607,5.491,21.677,19.342c0.806,10.429,0.162,20.968,0.164,31.458c0,1.147,0,2.294,0,3.366
	c-6.601,1.315-6.986,1.037-6.996-4.979c-0.015-8.992,0-17.983-0.005-26.976c-0.004-7.826-3.564-13.775-9.163-15.299
	c-8.502-2.312-16.52,1.919-19.705,8.048c-1.74,3.348-2.795,7.362-2.995,11.139c-0.438,8.301-0.104,16.644-0.161,24.969
	c-0.013,1.943,0.281,3.727-3.158,3.465c-2.654-0.203-3.843-0.3-3.837-3.171C-735.979,401.206-735.997,377.921-735.997,354.206z"/>
<path d="M1463.995,427.569c-6.149,1.293-7.338-1.342-7.104-6.432c0.394-8.478,0.109-16.987,0.107-25.481
	c-0.003-8.205-3.585-13.966-9.347-15.661c-8.428-2.48-17.534,3.163-19.805,8.72c-1.387,3.396-2.512,7.104-2.727,10.733
	c-0.42,7.139-0.123,14.319-0.123,21.481c-0.001,6.558-0.002,6.558-6.742,6.677c0-24.396,0-48.792,0-73.396c2.192,0,4.133,0,6.67,0
	c0,9.369,0,18.731,0,28.047c4.181-2.672,7.67-5.809,11.762-7.354c14.149-5.345,26.539,2.626,27.203,17.609
	C1464.407,404.145,1463.995,415.814,1463.995,427.569z"/>
<path d="M-200,51.697c0-17.362,10.84-27.355,29.009-27.812c13.363-0.336,26.431,12.552,26.102,27.513
	c-0.301,13.632-10.559,28.004-28.545,27.821C-188.345,79.068-201.902,64.406-200,51.697z M-193,51.669
	c-1.253,10.195,8.705,21.607,20.507,21.156c11.483-0.438,20.338-8.55,20.47-21.261c0.131-12.567-9.381-20.928-20.32-21.484
	C-183.44,29.516-194.564,41.016-193,51.669z"/>
<path d="M145.035,24c13.668-1.834,28.22,10.794,28.034,27.437c-0.152,13.694-10.571,27.744-28.041,27.789
	c-14.448,0.038-28.488-13.228-27.256-29.564C118.864,35.194,129.726,24,145.035,24z M125,51.312
	c-1.329,11.022,9.163,22.069,20.647,21.513c11.632-0.563,20.27-8.806,20.331-21.4c0.062-12.555-9.586-20.901-20.462-21.348
	C134.21,29.613,123.518,41.382,125,51.312z"/>
<path d="M451.163,24c15.806-1.7,27.717,13.207,27.786,27.189c0.078,15.668-13.764,28.717-29.114,28.066
	c-13.002-0.552-26.932-12.169-26.741-27.88C423.273,36.543,435.062,22.343,451.163,24z M471.999,51.438
	c-0.631-11.975-9.763-21.331-20.665-21.278c-11.571,0.055-20.76,8.928-21.272,21.682c-0.436,10.821,10.198,21.094,21.396,21.153
	C461.936,73.051,472.039,62.449,471.999,51.438z"/>
<path d="M18.002,354.229c2.633,0,4.578,0,6.917,0c0,9.469,0,18.721,0,27.235c5.173-2.54,10.079-5.696,15.445-7.432
	c12.045-3.896,22.535,4.827,23.407,16.028c0.966,12.393,0.221,24.918,0.221,37.658c-2.1,0-3.816,0-5.992,0
	c0-8.647,0.11-17.112-0.046-25.569c-0.079-4.267-0.348-8.572-1.052-12.772c-1.28-7.629-11.133-12.223-19.416-8.592
	c-8.42,3.692-11.966,10.302-12.396,18.795c-0.414,8.146-0.196,16.329-0.031,24.492c0.056,2.77-1.029,4.214-3.557,3.595
	c-1.345-0.33-3.344-2.059-3.354-3.17C17.954,401.195,18.002,377.896,18.002,354.229z"/>
<path d="M-274.668,179.219c1.954,0,3.571,0,5.644,0c0,9.604,0,19.005,0,27.559c5.377-2.635,10.443-6.12,16.046-7.659
	c12.559-3.451,22.319,5.171,22.829,15.407c0.626,12.539,0.149,25.134,0.149,38.092c-1.261,0-3.306,0-6,0
	c0-10.83,0.134-21.771-0.059-32.705c-0.092-5.183-1.469-10.124-6.371-12.982c-10.851-6.327-24.604,2.164-25.515,14.495
	c-0.766,10.364-1.051,20.765-1.559,31.358c-1.604,0-3.217,0-5.165,0C-274.668,228.396-274.668,203.997-274.668,179.219z"/>
<path d="M-169.051,374.35c0,2.797,0,5.273,0,8.482c2.942-2.294,5.29-4.427,7.92-6.123c12.828-8.272,30.377-2.229,31.111,14.333
	c0.491,11.069,0.58,22.157,1.088,33.226c0.145,3.135-1.674,3.744-3.725,3.28c-1.292-0.292-3.163-2.074-3.196-3.232
	c-0.264-9.145-0.041-18.3-0.209-27.448c-0.054-2.902-0.446-5.921-1.355-8.665c-3.456-10.431-15.551-10.878-23.397-4.955
	c-6.667,5.032-7.768,12.286-8.102,19.694c-0.367,8.129-0.084,16.285-0.084,24.391c-6.658,1.113-6.996,0.853-6.999-5.286
	c-0.004-13.978-0.005-27.952,0.001-41.929C-175.995,373.746-175.986,373.746-169.051,374.35z"/>
<path d="M761.979,601.94c-1.253,0.199-3.345,0.532-5.979,0.951c0-10.182,0.319-19.791-0.142-29.363
	c-0.214-4.421-1.065-9.259-3.173-13.052c-4.917-8.851-18.083-6.592-23.814-0.229c-4.254,4.724-5.738,10.184-5.841,16.202
	c-0.126,7.328-0.034,14.66-0.028,21.99c0.001,2.201,0.247,4.602-3.045,4.523c-3.11-0.074-4.048-1.741-4.02-4.811
	c0.139-14.825,0.055-29.653,0.071-44.479c0.003-2.098-0.51-4.659,2.874-4.617c3.099,0.038,4.719,1.439,4.146,4.792
	c-0.189,1.111-0.029,2.282-0.029,2.298c5.566-2.485,11.096-6.267,17.116-7.371c12.517-2.299,20.646,5.164,21.612,15.939
	C762.818,576.869,761.979,589.194,761.979,601.94z"/>
<path d="M223.999,427.535c-6.13,1.161-7.426-1.396-7.126-6.721c0.477-8.469,0.131-16.984,0.126-25.48
	c-0.004-7.863-3.566-13.687-9.174-15.31c-8.454-2.447-16.784,2.486-19.698,8.104c-1.737,3.351-2.763,7.361-2.993,11.144
	c-0.454,7.47-0.132,14.984-0.135,22.48c-0.002,6.3-0.005,6.3-6.844,5.872c0-17.619,0-35.247,0-53.249c2.126,0,4.172,0,6.615,0
	c0,2.519,0,5.112,0,7.77c4.253-2.658,7.983-5.587,12.177-7.496c11.646-5.304,26.459,1.663,26.985,18.704
	C224.282,404.668,223.999,416.003,223.999,427.535z"/>
<path d="M994.007,724.298c0.937-0.134,1.45-0.345,1.896-0.245c1.574,0.352,3.126,0.808,5.079,1.328c0,2.216,0,4.438,0,7.085
	c8.752-9.059,17.971-11.578,27.225-7.793c8.468,3.463,11.173,10.817,11.655,18.877c0.586,9.786,0.154,19.634,0.128,29.454
	c-0.007,2.248,0.604,5.055-3.088,4.951c-3.078-0.086-4.025-1.792-3.968-4.854c0.184-9.483,0.13-18.975,0.043-28.462
	c-0.054-6.014-1.545-11.708-7.834-13.829c-5.582-1.883-13.026-1.578-17.936,3.328c-4.24,4.239-6.232,9.028-6.215,14.875
	c0.028,8.489,0.125,16.981-0.134,25.463c-0.036,1.196-2.2,3.449-2.88,3.274c-1.493-0.385-3.787-1.994-3.805-3.132
	C993.932,757.842,994.007,741.059,994.007,724.298z"/>
<path d="M-560.813,601.385c0-23.238,0-46.511,0-70.084c11.903,0,23.623,0,35.577,0c0,2.104,0,4.046,0,6.522
	c-9.339,0-18.743,0-28.451,0c0,7.597,0,14.673,0,22.339c9.383,0,18.74,0,28.094,0c1.353,6.984,0.339,8.011-7.024,7.865
	c-6.933-0.139-13.869-0.03-21.382-0.03c0,9.705,0.003,19.153-0.001,28.602C-554.004,603.846-554.008,603.846-560.813,601.385z"/>
<path d="M-878.994,356.212c12.282,0,23.873,0,35.727,0c0,2.128,0,4.063,0,6.532c-9.257,0-18.645,0-28.378,0
	c0,7.558,0,14.603,0,22.182c9.388,0,18.778,0,28.398,0c0,2.464,0,4.404,0,6.862c-9.296,0-18.693,0-28.753,0
	c0,10.915-0.106,21.33,0.056,31.74c0.06,3.839-1.327,5.25-4.914,3.872c-0.896-0.345-2.042-1.616-2.046-2.469
	C-879.017,402.166-878.994,379.398-878.994,356.212z"/>
<path d="M1061.266,724.505c0,2.9,0,5.597,0,9.128c5.941-6.879,12.287-10.859,20.787-10.669c8.209,0.186,16.777,5.762,17.535,13.677
	c1.229,12.837,1.073,25.812,1.214,38.732c0.009,0.744-2.621,2.163-3.936,2.068c-1.024-0.075-2.713-1.998-2.738-3.132
	c-0.22-9.66-0.124-19.329-0.129-28.995c-0.005-8.115-3.901-14.402-9.711-15.277c-9.632-1.45-17.653,1.36-20.25,10.784
	c-2.444,8.866-2.203,18.483-2.999,27.784c-0.252,2.943-0.039,5.928-0.039,9.138c-2.033,0-3.639,0-5.651,0
	c-0.107-1.138-0.331-2.399-0.333-3.661c-0.022-14.999,0.092-30-0.084-44.998C1054.883,724.843,1056.232,723.154,1061.266,724.505z"
	/>
<path d="M259,777.812c-2.151,0-3.765,0-6,0c0-4.342,0-8.617,0-12.895c0-11.825,0.128-23.653-0.07-35.476
	c-0.068-4.091,1.299-5.894,5.954-5.223c0,2.64,0,5.349,0,7.229c5.401-2.654,10.459-5.933,15.999-7.69
	c10.741-3.411,22.017,3.812,22.968,14.979c1.011,11.858,0.798,23.823,1.159,35.739c0.087,2.856-1.149,2.966-3.809,3.179
	c-3.437,0.274-3.166-1.488-3.176-3.439c-0.053-9.66,0.315-19.339-0.192-28.973c-0.204-3.854-1.614-8.012-3.632-11.328
	c-4.301-7.068-19.911-5.362-25.392,4.333c-3.279,5.801-3.143,11.98-3.67,18.055C258.537,763.232,259,770.255,259,777.812z"/>
<path d="M575.949,374.369c0,2.764,0,5.24,0,7.721c4.438-2.739,8.452-6.086,13.069-7.896c11.149-4.37,25.026,2.686,25.841,17.278
	c0.665,11.92,0.136,23.906,0.136,35.862c-2.067,0.171-3.834,0.316-5.995,0.494c0-5.863,0.13-11.485-0.034-17.1
	c-0.19-6.594-0.271-13.224-1.058-19.76c-1.269-10.539-11.979-14.517-22.057-9.21c-6.682,3.52-9.48,9.781-9.771,16.968
	c-0.343,8.473,0.058,16.975-0.229,25.45c-0.046,1.306-1.837,3.273-3.185,3.66c-2.722,0.779-3.705-1.045-3.695-3.729
	c0.06-16.459,0.029-32.916,0.029-49.738C571.29,374.369,573.334,374.369,575.949,374.369z"/>
<path d="M367,427.657c0-9.337,0.111-18.334-0.055-27.326c-0.066-3.593-0.36-7.27-1.219-10.744
	c-2.621-10.621-13.963-12.64-22.189-7.497c-6.779,4.237-9.452,10.946-9.523,18.747c-0.072,8.165-0.033,16.331-0.056,24.497
	c-0.001,0.322-0.12,0.645-0.188,0.965c-6.766,1.871-6.769,1.871-6.77-5.094c-0.001-15.482,0-30.967,0-46.826
	c2.266,0,4.309,0,6.794,0c0.109,2.503,0.224,5.102,0.349,7.968c3.229-2.227,6.191-4.634,9.474-6.47
	c14.582-8.161,29.889,2.107,29.434,17.922c-0.268,9.324-0.047,18.663-0.05,27.995C372.997,427.432,372.993,427.432,367,427.657z"/>
<path d="M319.51,777.372c-1.598,0.221-3.334,0.462-5.316,0.737c0-18.035,0-35.648,0-53.276c8.026-2.555,5.074,4.245,5.958,7.446
	c3.704-2.517,6.979-5.26,10.687-7.161c10.823-5.554,26.821-0.929,28.06,14.841c0.904,11.533,0.787,23.146,1.087,34.727
	c0.062,2.461-0.799,2.758-3.537,2.896c-3.175,0.163-3.428-0.809-3.435-3.067c-0.021-9.487,0.009-18.977-0.028-28.465
	c-0.007-1.641,0.097-3.399-0.432-4.899c-3.335-9.493-5.451-12.31-17.352-11.146c-6.206,0.606-13.814,8.909-14.18,15.684
	C320.46,756.094,320.021,766.506,319.51,777.372z"/>
<path d="M211,252.832c-2.182,0-3.794,0-5.703,0c0-17.513,0-34.896,0-52.554c1.813,0,3.533,0,5.529,0
	c0.125,2.574,0.242,4.979,0.402,8.282c4.947-5.3,10.046-8.954,16.635-10.003c10.407-1.657,21.365,4.347,21.973,15.379
	c0.705,12.822,0.164,25.713,0.164,38.821c-1.393,0-3.334,0-6,0c0-9.332,0.088-18.751-0.047-28.166
	c-0.049-3.416-0.083-6.994-1.074-10.205c-2.861-9.274-12.901-12.543-21.358-7.42c-6.297,3.814-9.302,9.335-9.553,16.613
	c-0.164,4.764-0.766,9.512-0.931,14.274C210.87,242.658,211,247.471,211,252.832z"/>
<path d="M5.077,385.148c-2.947,2.442-4.62,3.966-8.573,0.397c-9.71-8.764-25.498-7.371-33.298,1.527
	c-6.567,7.491-7.539,21.311,1.298,28.967c10.946,9.484,25.428,8.692,35.087-2.547c1.697,1.314,3.436,2.662,5.173,4.01
	c-1.413,1.493-2.719,3.107-4.257,4.459c-11.647,10.236-30.104,9.134-41.825-0.852c-9.016-7.682-10.097-24.047-3.037-35.309
	C-34.224,369.637-6.766,368.314,5.077,385.148z"/>
<path d="M744.01,374.226c6.979-0.384,6.984-0.384,6.989,6.011c0.006,8.824-0.027,17.648,0.009,26.472
	c0.039,9.441,6.001,14.738,15.408,15.439c10.244,0.764,16.814-7.508,16.644-15.295c-0.236-10.778-0.06-21.566-0.06-32.599
	c2.367,0,4.308,0,7,0c0,8.143,0.105,16.397-0.042,24.647c-0.079,4.42-0.354,8.865-0.962,13.242
	c-1.299,9.35-6.961,14.845-16.102,16.38c-10.863,1.823-21.505,0.321-26.849-12.559c-1.042-2.511-1.896-5.305-1.947-7.985
	C743.885,396.855,744.01,385.723,744.01,374.226z"/>
<path d="M-584.135,416.818c-6.87,11.606-20.771,14.042-31.399,11.692c-14.809-3.272-21.472-13.34-22.372-24.413
	c-1.051-12.938,5.976-24.409,17.165-28.735c13.135-5.079,28.712-1.798,37.001,10.031c-1.887,1.158-3.751,2.304-5.605,3.443
	c-5.4-7.589-16.044-11.534-25.678-8.62c-8.152,2.465-13.765,8.204-15.838,16.702c-1.889,7.742,2.429,17.599,9.921,22.543
	c6.139,4.053,20.8,4.678,27.236-1.881C-589.249,413.041-588.972,413.312-584.135,416.818z"/>
<path d="M983,549.617c6.766-1.261,7.455,2.301,7.054,7.33c-0.822,10.322-0.863,20.729-2.116,30.99
	c-1.316,10.787-8.394,14.543-17.709,15.882c-10.778,1.55-20.922-1.748-25.261-14.244c-1.153-3.327-1.771-6.979-1.88-10.504
	c-0.264-8.646-0.072-17.303-0.096-25.954c-0.007-2.562,0.199-3.795,3.742-3.76c3.645,0.036,3.25,1.694,3.256,3.816
	c0.021,8.985-0.037,17.971,0.022,26.955c0.054,7.727,3.812,13.729,9.797,15.895c7.423,2.684,15.52,1.113,19.749-5.494
	c2.44-3.813,3.038-9.194,3.299-13.935C983.35,567.642,983,558.643,983,549.617z"/>
<path d="M117.548,621.636c2.437-5.722,4.467-11.8,7.536-17.298c2.637-4.722,1.672-8.634-0.322-12.979
	c-6.362-13.864-12.601-27.786-19.094-42.146c4.878,0.001,7.988,0.307,10.015,5.646c4.377,11.529,9.993,22.59,15.654,35.058
	c3.938-9.227,7.362-17.335,10.862-25.411c1.168-2.695,2.758-5.226,3.745-7.979c1.665-4.641,3.356-8.933,10.23-6.818
	c-3.5,8.29-7.008,16.794-10.672,25.229c-5.44,12.525-10.991,25.005-16.498,37.502c-0.592,1.342-1.38,2.625-1.771,4.021
	C125.818,621.521,122.625,623.214,117.548,621.636z"/>
<path d="M644.999,723.902c2.541,0.544,4.575,0.979,5.967,1.277c0,12.63,0.678,25.076-0.259,37.4
	c-0.545,7.163-6.979,14.148-15.855,15.495c-8.807,1.336-17.396,1.311-23.45-6.4c-2.505-3.188-4.795-7.36-5.149-11.271
	c-0.986-10.871-0.965-21.837-1.221-32.77c-0.121-5.154,3.712-3.283,6.97-3.612c0,9.691-0.187,19.148,0.094,28.593
	c0.109,3.661,0.49,7.695,2.12,10.851c3.705,7.17,11.178,10.383,18.24,8.267c8.776-2.631,12.078-7.152,12.459-17.098
	C645.301,744.513,644.999,734.364,644.999,723.902z"/>
<path d="M-346,724.355c6.135-0.84,7.431,1.741,7.092,6.729c-0.649,9.564-0.253,19.218-1.219,28.74
	c-1.194,11.781-8.152,18.197-20.607,18.74c-10.408,0.452-18.606-2.507-22.563-12.563c-1.751-4.45-2.336-9.524-2.591-14.36
	c-0.411-7.805-0.048-15.646-0.148-23.472c-0.031-2.475,0.376-4.058,3.361-3.92c2.705,0.124,3.832,1,3.755,4.004
	c-0.224,8.652-0.21,17.317-0.05,25.974c0.287,15.562,11.918,20.332,23.041,16.671c5.879-1.936,9.851-8.729,9.911-16.604
	C-345.942,744.315-346,734.336-346,724.355z"/>
<path d="M49.999,25.173c2.52,0,4.461,0,6.079,0c0,12.675,0.51,25.226-0.175,37.711c-0.477,8.694-6.757,13.634-14.81,15.398
	c-8.97,1.966-18.129,1.793-24.326-6.305c-2.838-3.706-5.146-8.704-5.469-13.274c-0.781-11.058-0.254-22.209-0.254-33.508
	c2.436,0,4.377,0,6.955,0c0,9.67,0.262,19.284-0.069,28.878c-0.379,10.984,4.062,17.262,15.688,18.571
	c7.259,0.818,16.27-4.76,16.356-13.98C50.077,47.687,49.999,36.707,49.999,25.173z"/>
<path d="M-497.058,796.027c3.007-6.9,6.07-13.71,8.899-20.616c0.529-1.289,0.622-3.184,0.072-4.424
	c-6.133-13.847-12.49-27.594-18.598-41.449c-0.64-1.453-0.067-3.44-0.058-5.18c2.038,0.817,5.112,1.066,5.929,2.556
	c3.028,5.52,5.256,11.473,7.891,17.214c2.989,6.511,6.093,12.969,9.516,20.234c5.028-11.602,9.778-22.459,14.437-33.356
	c1.833-4.286,3.688-8.332,10.355-6.35c-2.409,5.61-4.784,11.212-7.215,16.789c-7.714,17.701-15.399,35.414-23.283,53.039
	c-0.526,1.176-2.541,1.939-4.016,2.347C-494.12,797.105-495.38,796.411-497.058,796.027z"/>
<path d="M231.782,38.902c-13.723-11.657-27.359-12.245-37.075-0.963c-7.315,8.495-6.861,19.508,1.569,28.486
	c7.118,7.58,21.653,11.418,35.62-2.572c1.543,0.97,3.158,1.984,4.971,3.123C232.59,74.8,225.336,77.81,217.69,78.783
	c-14.294,1.817-25.907-2.31-32.521-16.605c-8.284-17.904,6.575-37.923,24.041-38.235c7.844-0.14,15.412,0.255,22.021,5.114
	c0.664,0.488,1.303,1.019,1.902,1.584C237.055,34.342,238.677,36.562,231.782,38.902z"/>
<path d="M1108.999,181.666c-6.611,10.903-13.258,21.679-19.665,32.595c-1.255,2.138-2.173,4.807-2.23,7.254
	c-0.243,10.291-0.104,20.59-0.104,31.184c-2.741,0-5.122,0-8,0c0-8.932-0.404-17.74,0.133-26.49
	c0.4-6.519-1.814-11.694-5.231-16.913c-5.871-8.97-11.366-18.187-17.078-27.395c6.678-1.778,7.218-1.514,10.396,3.597
	c5.078,8.158,10.253,16.257,15.877,25.156c5.1-8.354,10.044-16.286,14.812-24.323
	C1101.419,180.414,1101.611,180.225,1108.999,181.666z"/>
<path d="M-443.064,200.691c4.646-1.998,7.197-0.326,8.971,3.802c4.313,10.038,8.806,19.999,13.275,29.968
	c0.708,1.579,1.673,3.041,2.913,5.263c5.205-12.168,10.161-23.598,14.979-35.086c2.026-4.831,1.894-4.887,9.635-4.416
	c-10.475,23.946-20.897,47.775-31.351,71.674c-2.2,0-4.352,0-7.139,0c2.722-6.621,4.879-13.233,8.116-19.267
	c2.201-4.104,0.782-7.105-0.747-10.502C-430.626,228.323-436.84,214.52-443.064,200.691z"/>
<path d="M-330.071,724.615c11.096-2.141,12.571,6.742,17.057,11.574c1.868,2.013,3.283,4.444,5.345,7.297
	c3.514-5.002,6.938-9.27,9.674-13.938c2.805-4.786,6.822-5.697,12.25-5.335c-5.389,7.786-10.335,15.295-15.703,22.489
	c-1.848,2.478-1.353,3.627,0.339,5.842c5.838,7.646,11.305,15.571,16.913,23.393c-3.967,2.973-7.426,2.19-10.685-2.516
	c-3.522-5.09-6.997-10.213-10.567-15.269c-0.634-0.897-1.63-1.54-2.753-2.568c-4.758,6.733-9.298,13.155-13.832,19.58
	c-2.351,3.33-5.217,3.717-9.188,0.941c6.464-8.955,12.929-17.91,19.341-26.793C-317.931,741.098-323.777,733.16-330.071,724.615z"/>
<path d="M705.057,25.539c-9.792,22.41-19.503,44.447-29.012,66.57c-1.763,4.102-4.042,6.118-9.168,4.344
	c1.912-4.539,3.309-9.401,5.857-13.556c4.008-6.529,3.112-12.322-0.062-18.855c-6.177-12.713-11.723-25.731-17.483-38.524
	c6.742-2.578,8.367,2.08,10.261,6.396c4.765,10.861,9.552,21.713,14.782,33.597c2.524-5.865,4.692-10.877,6.842-15.896
	c2.753-6.429,5.704-12.784,8.163-19.324C697.023,25.54,699.858,23.777,705.057,25.539z"/>
<path d="M1115,374.205c0,9.543-0.479,18.709,0.189,27.789c0.368,5.003,1.846,10.322,4.282,14.683
	c3.802,6.804,13.021,6.317,18.021,4.987c6.282-1.671,10.451-8.256,10.491-15.482c0.059-10.475,0.016-20.949,0.016-31.801
	c2.271,0,4.32,0,7.5,0c-0.553,12.935,0.186,26.159-2.01,38.877c-2.406,13.94-14.011,17.113-26.047,15.422
	c-13.69-1.923-18.572-11.875-18.465-23.445c0.098-10.278,0.021-20.56,0.021-31.028C1111.121,374.205,1112.732,374.205,1115,374.205z
	"/>
<path d="M750.12,239.613c5.562-12.901,10.56-25.124,16.24-37.021c0.919-1.927,4.875-2.402,7.428-3.549
	c0.266,0.425,0.531,0.85,0.798,1.274c-10.402,23.817-20.805,47.636-31.254,71.562c-2.121,0-4.271,0-7.249,0
	c2.738-6.469,4.949-12.851,8.093-18.733c2.314-4.331,0.958-7.607-0.787-11.404c-6.255-13.609-12.322-27.305-18.491-41.036
	c4.571-1.875,7.166-0.475,8.979,3.732c4.581,10.635,9.411,21.161,14.173,31.718C748.495,237.148,749.166,238.038,750.12,239.613z"/>
<path d="M266,374.181c2.161,0,3.773,0,6,0c0,9.176-0.306,18.288,0.132,27.364c0.212,4.402,1.264,8.962,2.917,13.055
	c2.678,6.631,9.815,9.149,18.313,7.229c6.703-1.518,11.518-7.945,11.608-15.098c0.117-9.148,0.029-18.299,0.029-27.449
	c0-1.618,0-3.237,0-5.063c2.443,0,4.383,0,7.56,0c-0.621,13.186-0.131,26.503-2.174,39.419
	c-2.017,12.751-14.421,16.918-25.829,15.131c-13.565-2.126-18.836-12.276-18.601-23.617C266.166,395.019,266,384.882,266,374.181z"
	/>
<path d="M-403.567,596.085c9.853,0,18.921,0,27.963,0c1.151,6.356,0.654,6.981-4.493,6.938c-10.245-0.086-20.491-0.018-30.736-0.033
	c-1.303-0.002-2.605-0.128-5.097-0.259c9.949-15.677,19.49-30.708,30.048-47.343c-6.078,0-10.985-0.003-15.893,0.001
	c-3.064,0.003-6.287,0.576-9.125-0.221c-1.324-0.373-1.906-3.39-3.029-5.612c14.003,0,26.721,0,39.873,0
	C-383.921,565.109-393.403,580.061-403.567,596.085z"/>
<path d="M-12,6.22c2.771,0,5.044,0,7.728,0c0.091,1.432,0.259,2.869,0.261,4.309c0.02,14.646,0.108,29.295-0.047,43.94
	c-0.047,4.42-0.251,8.971-1.326,13.223c-2.967,11.729-15.661,14.689-26.684,9.663c-1.768-0.806-3.449-1.87-5.022-3.018
	c-2.052-1.497-2.41-2.988-0.604-5.376c1.651-2.182,2.516-2.372,4.599-0.707c1.75,1.399,3.994,2.187,6.039,3.207
	c7.472,3.729,15.01-0.852,15.04-9.24C-11.958,45.41-12,28.6-12,11.788C-12,10.003-12,8.218-12,6.22z"/>
<path d="M1262.337,379.341c-2.872,4.87-5.291,5.268-8.733,2.672c-3.139-2.364-6.725-3.643-10.791-1.448
	c-4.08,2.202-5.519,7.568-2.027,10.535c4.2,3.569,8.757,6.878,13.594,9.5c6.284,3.404,9.481,12.836,6.111,19.521
	c-3.354,6.652-11.526,10.733-18.966,8.591c-2.765-0.796-5.273-2.445-7.935-3.625c-3.654-1.62-3.459-4.028-1.353-6.703
	c2.353-2.986,3.964-0.669,5.594,0.958c3.308,3.304,7.621,4.277,11.433,2.362c3.318-1.666,7.127-4.653,5.576-9.389
	c-0.779-2.381-2.865-4.643-4.924-6.229c-4.369-3.374-9.333-5.989-13.634-9.438c-5.066-4.062-4.773-11.39-2.296-15.994
	c3.443-6.399,9.606-9.148,16.047-7.025C1254.223,375.008,1258.102,377.334,1262.337,379.341z"/>
<path d="M1114.773,549.526c-8.058,17.762-15.949,35.163-23.842,52.563c-0.581,0.123-1.162,0.246-1.741,0.368
	c-8.169-17.509-16.337-35.018-24.607-52.746c4.933-1.812,7.549-0.103,9.396,3.989c4.968,11.005,10.104,21.933,15.677,33.976
	c3.698-7.897,7.046-14.971,10.323-22.073c2.049-4.438,4.054-8.899,5.965-13.398C1107.597,548.311,1110.595,548.714,1114.773,549.526
	z"/>
<path d="M930.979,380.03c-2.48,3.873-4.581,4.76-8.027,2.088c-3.038-2.356-6.738-3.668-10.813-1.745
	c-4.405,2.078-5.917,7.689-2.26,10.808c4.193,3.575,8.765,6.866,13.599,9.497c6.67,3.629,9.726,12.663,6.239,19.594
	c-3.459,6.88-10.84,10.756-18.974,7.95c-4.166-1.437-8.062-3.651-12.35-5.641c1.97-2.474,3.089-3.878,3.988-5.008
	c3.841,1.493,7.568,3.334,11.507,4.367c4.217,1.105,7.606-0.615,9.428-4.753c1.866-4.242,0.713-7.758-3.006-10.322
	c-3.616-2.494-7.212-5.118-11.128-7.061c-8.007-3.969-8.959-14.85-5.163-20.937c3.628-5.821,12.648-7.739,19.75-3.875
	C926.316,376.381,928.562,378.321,930.979,380.03z"/>
<path d="M-176.257,604.109c-8.73-18.911-16.88-36.562-25.121-54.414c4.973-1.78,7.558-0.026,9.368,4.066
	c4.997,11.292,10.166,22.508,15.557,34.393c5.023-11.163,9.916-21.644,14.457-32.271c2.735-6.4,3.989-7.41,10.364-5.501
	C-159.705,567.997-167.733,585.512-176.257,604.109z"/>
<path d="M374.312,554.215c-2.372,4.663-4.586,5.507-8.552,2.864c-5.605-3.737-10.928-3.043-13.215,0.847
	c-2.787,4.741-1.057,8.731,4.951,12.255c4.074,2.391,8.01,5.034,11.887,7.736c6.115,4.262,5.411,12.95,3.341,17.521
	c-2.656,5.866-11.802,10.271-17.895,8.306c-4.513-1.455-8.643-4.099-13.013-6.246c2.688-4.494,4.139-6.725,9.018-2.671
	c5.592,4.646,12.825,3.334,15.97-3.174c2.096-4.337,0.261-7.276-2.895-9.603c-4.329-3.189-9.016-5.893-13.459-8.933
	c-5.354-3.66-7.306-10.803-4.659-16.5c2.961-6.374,10.765-10.355,17.042-8.138C366.755,549.865,370.344,552.192,374.312,554.215z"/>
<path d="M686.975,762.754c5.283-11.522,10.324-22.091,14.958-32.834c1.964-4.551,4.31-7.114,9.855-4.725
	c-7.917,17.331-15.835,34.662-23.752,51.993c-0.515,0.033-1.027,0.067-1.541,0.102c-8.058-17.323-16.113-34.646-24.322-52.298
	c3.803-1.021,6.823-1.938,8.896,2.874C676,739.322,681.389,750.582,686.975,762.754z"/>
<path d="M97.87,205.414c-1.718,1.312-2.538,1.895-3.306,2.539c-0.633,0.53-1.205,1.134-1.246,1.172
	c-4.115-1.474-7.733-3.171-11.541-4.018c-3.605-0.801-6.609,0.918-7.571,4.649c-0.937,3.634,0.114,6.971,3.393,9.113
	c4.084,2.668,8.458,4.908,12.439,7.711c7.183,5.057,8.798,11.615,5.066,19.053c-3.226,6.428-11.961,10.34-18.952,7.854
	c-4.021-1.431-7.641-3.986-11.635-6.141c1.938-2.338,3.166-3.821,4.396-5.305c-0.074,0.458-0.149,0.917-0.224,1.376
	c4.562,1.192,9.1,3.126,13.694,3.271c2.34,0.073,5.604-2.58,6.965-4.881c1.651-2.79,1.493-6.549-1.869-8.797
	c-4.19-2.803-8.635-5.231-12.767-8.113c-7.573-5.285-9.917-13.47-4.65-21.158c3.377-4.93,11.64-6.908,18.092-4.025
	C91.237,201.093,94.026,203.129,97.87,205.414z"/>
<path d="M-166.203,243.042c4.904,1.499,8.853,3.2,12.965,3.831c4.561,0.7,7.694-2.446,8.819-6.365
	c1.019-3.551-0.352-6.871-4.23-8.889c-4.319-2.246-8.39-4.992-12.472-7.669c-5.511-3.613-7.398-11.019-4.942-16.979
	c2.461-5.975,9.827-10.446,16.352-8.185c4.145,1.438,7.998,3.715,12.538,5.881c-2.351,2.416-3.733,3.837-4.136,4.25
	c-4.605-1.491-8.291-2.97-12.115-3.842c-3.812-0.87-6.176,1.888-6.84,4.938c-0.459,2.108,0.385,5.474,1.923,6.846
	c3.482,3.106,7.718,5.386,11.715,7.895c5.286,3.317,8.561,7.41,8.779,14.238c0.35,10.96-11.77,16.788-19.919,14.626
	c-2.455-0.652-4.898-1.688-7.069-3.007C-170.6,247.11-170.549,246.375-166.203,243.042z"/>
<path d="M-620.72,772.056c1.737-2.592,2.726-4.067,3.968-5.923c1.807,0.994,3.65,1.872,5.35,2.973
	c4.054,2.623,8.8,4.356,13.032,2.365c4.899-2.305,6.445-7.406,6.409-12.92c-0.108-16.331-0.089-32.664,0.054-48.995
	c0.012-1.349,1.003-3.385,2.099-3.893c2.967-1.374,4.879-0.579,4.854,3.339c-0.107,17.664,0.24,35.336-0.138,52.993
	c-0.307,14.346-11.241,19.779-23.481,16.028C-612.668,776.769-616.373,774.236-620.72,772.056z"/>
<path d="M1326,356.226c2.633,0,4.573,0,7,0c0,8.823,0,17.431,0,26.037c0,9.481-0.085,18.963,0.029,28.444
	c0.08,6.754-1.517,12.736-7.627,16.414c-7.266,4.373-14.54,2.958-21.559-0.85c-1.989-1.08-3.768-2.554-5.643-3.846
	c2.27-6.008,2.733-6.001,8.087-3.467c3.571,1.689,7.61,3.702,11.318,3.485c5.439-0.317,8.369-5.595,8.383-12.554
	c0.03-15.969,0.01-31.938,0.01-47.905C1326,360.184,1326,358.381,1326,356.226z"/>
<path d="M727.039,5.385c0,6.526,0,12.79,0,19.57c3.736,0,7.141,0,10.736,0c0,2.132,0,3.741,0,5.868c-3.352,0-6.756,0-10.658,0
	c0,15.87,0,31.241,0,46.89c-2.547,0-4.592,0-7.142,0c0-15.545,0-30.92,0-46.638c-3.095,0-5.696,0-8.633,0c0-2.059,0-3.771,0-5.866
	c2.706-0.131,5.443-0.264,8.523-0.413c0-6.508,0-12.771,0-19.411C722.264,5.385,724.309,5.385,727.039,5.385z"/>
<path d="M537.821,25.074c4.129,0,7.4,0,10.919,0c0,1.94,0,3.545,0,5.675c-3.273,0-6.664,0-10.563,0c0,15.876,0,31.245,0,46.929
	c-2.544,0-4.59,0-7.142,0c0-15.438,0-30.815,0-46.539c-3.087,0-5.687,0-8.788,0c-0.095-2.046-0.174-3.764-0.277-6.02
	c3.019,0,5.749,0,8.997,0c0-6.889,0-13.288,0-19.892c2.457,0,4.396,0,6.854,0C537.821,11.575,537.821,17.974,537.821,25.074z"/>
<path d="M503.996,30.947c0,15.883,0,31.258,0,46.836c-2.437,0-4.373,0-6.813,0c0-15.369,0-30.747,0-46.648c-3.2,0-5.923,0-8.906,0
	c0-2.245,0-3.962,0-6.02c2.801,0,5.409,0,8.545,0c0-6.71,0-13.104,0-19.801c2.561,0,4.604,0,7.01,0c0,6.353,0,12.619,0,19.426
	c3.714,0,7.1,0,10.822,0c0,2.25,0,3.966,0,6.207C511.283,30.947,507.886,30.947,503.996,30.947z"/>
<path d="M-112.821,252.802c-2.767,0-4.705,0-7.142,0c0-15.561,0-30.937,0-46.66c-3.086,0-5.685,0-8.789,0
	c-0.096-2.05-0.175-3.771-0.279-6.021c3.018,0,5.753,0,8.996,0c0-6.889,0-13.287,0-19.893c2.457,0,4.396,0,6.854,0
	c0,6.344,0,12.743,0,19.663c3.885,0,7.288,0,10.921,0c0,2.128,0,3.729,0,5.855c-3.271,0-6.661,0-10.561,0
	C-112.821,221.623-112.821,236.992-112.821,252.802z"/>
<path d="M810.999,380.038c-3.155,0-5.759,0-8.676,0c0-2.062,0-3.779,0-5.849c2.655,0,5.264,0,8.41,0c0-6.367,0-12.426,0-18.829
	c2.571,0,4.617,0,7.192,0c0,6.009,0,12.071,0,18.487c3.773,0,7.038,0,10.815,0c0.102,2.056,0.186,3.775,0.296,6.028
	c-3.674,0-7.075,0-10.885,0c0,16.24,0,31.975,0,48.123c-1.386-0.388-2.47-1.093-3.126-0.809c-4.08,1.764-4.026-0.875-4.026-3.562
	c-0.001-13.305-0.001-26.609-0.002-39.913C810.999,382.73,810.999,381.746,810.999,380.038z"/>
<path d="M84.98,379.984c-3.192,0-5.799,0-8.687,0c0-2.062,0-3.78,0-5.84c2.749,0,5.36,0,8.504,0c0-6.375,0-12.442,0-18.819
	c2.562,0,4.606,0,7.19,0c0,6.119,0,12.188,0,17.608c3.608,3.164,11.681-3.004,10.883,6.992c-3.512,0-6.931,0-10.871,0
	c0,12.246,0,24.007,0,35.767c0,1.496-0.167,3.018,0.03,4.488c0.704,5.25-0.213,8.879-7.05,7.18
	C84.98,411.927,84.98,396.315,84.98,379.984z"/>
<path d="M754.07,77.756c0-15.55,0-30.796,0-46.571c-3.038,0-5.758,0-8.77,0c0-2.247,0-3.964,0-6.02c2.723,0,5.333,0,8.473,0
	c0-6.702,0-13.098,0-19.823c2.562,0,4.606,0,7.18,0c0,6.394,0,12.789,0,19.53c3.441,0,6.375,0,9.798,0
	c0.094,2.054,0.173,3.773,0.276,6.025c-3.359,0-6.427,0-9.986,0c0,15.878,0,31.253,0,46.858
	C758.605,77.756,756.666,77.756,754.07,77.756z"/>
<path d="M81,704.724c0,4.986,0.43,9.695-0.112,14.289c-0.631,5.353,2.198,6.08,6.137,5.343c4.827-0.905,5.28,1.529,4.786,5.528
	c-3.476,0-6.768,0-10.518,0c0,15.694,0,31.089,0,46.333c-7.108,2.289-7.291,2.167-7.292-4.504C73.998,759.565,74,747.417,74,735.27
	c0-1.621,0-3.244,0-5.191c-3.118,0-5.723,0-8.252,0c-1.251-6.055,0.077-7.027,8.252-5.354c0-4.882-0.001-9.577,0-14.272
	C74.003,703.825,74.036,703.797,81,704.724z"/>
<path d="M255.821,549.344c0.128,2.115,0.256,4.234,0.412,6.832c3.112-2.552,5.573-5.7,8.76-6.864
	c3.113-1.136,6.967-0.247,10.759-0.247c-0.858,4.812-2.84,6.225-6.809,6.036c-6.741-0.316-11.314,7.143-11.886,15.438
	c-0.736,10.695-1.057,21.419-1.557,32.125c-6.485,0.639-6.495,0.639-6.499-5.717c-0.007-13.486-0.002-26.975-0.002-40.46
	C249,549.606,249.001,549.606,255.821,549.344z"/>
<path d="M1256.581,252.814c-2.075,0-4.015,0-6.271,0c0-17.482,0-34.864,0-52.53c2.131,0,4.19,0,6.53,0
	c0.095,2.082,0.183,4.029,0.299,6.631c5.484-5.59,10.627-11.359,19.668-6.985c-0.896,1.957-1.725,3.762-2.521,5.502
	c-9.171-1.398-15.967,5.122-16.31,15.101C1257.615,231.104,1257.071,241.669,1256.581,252.814z"/>
<path d="M-500.812,252.613c0-17.524,0-34.777,0-52.32c2.24,0,4.301,0,6.647,0c0.098,2.061,0.19,4.008,0.313,6.596
	c5.471-5.551,10.604-11.347,19.662-6.967c-0.893,1.953-1.716,3.756-2.509,5.494c-9.206-1.358-15.979,5.129-16.323,15.095
	c-0.366,10.573-0.907,21.14-1.389,32.104C-496.262,252.613-498.309,252.613-500.812,252.613z"/>
<path d="M1476,374.194c2.604,0,4.554,0,6.812,0c0.112,2.109,0.217,4.048,0.363,6.79c5.764-5.272,11.18-11.191,19.569-5.958
	c-1.521,3.86-3.855,5.311-7.97,5.11c-5.321-0.26-9.963,5.079-10.65,12.701c-0.83,9.19-0.806,18.462-1.114,27.699
	c-0.077,2.313-0.012,4.634-0.012,6.917c-6.848,0.83-6.998,0.71-6.999-5.523C1475.998,406.162,1476,390.394,1476,374.194z"/>
<path d="M786.008,704.225c2.423,0,4.362,0,6.602,0c0.126,1.067,0.372,2.178,0.373,3.287c0.022,21.825,0.023,43.651,0.009,65.478
	c-0.002,2.263,0.552,5.267-3.074,4.853c-1.401-0.16-3.733-1.977-3.743-3.057C785.956,751.339,786.008,727.891,786.008,704.225z"/>
<path d="M-450,529.197c2.586,0,4.527,0,6.731,0c0,24.596,0,48.996,0,73.398c-6.73-0.255-6.731-0.255-6.731-6.62
	c0-20.303,0-40.605,0-60.909C-450,533.258-450,531.449-450,529.197z"/>
<path d="M806,704.173c2.546,0,4.484,0,6.703,0c0.104,1.431,0.283,2.713,0.284,3.995c0.018,21.442-0.014,42.886,0.045,64.329
	c0.007,2.618,0.036,5.251-3.311,5.376c-3.665,0.138-3.769-2.56-3.76-5.424C806.03,749.864,806,727.278,806,704.173z"/>
<path d="M-44.743,777.092c0-24.224,0-48.448,0-72.88c2.193,0,4.133,0,6.743,0c0,1.778,0,3.544,0,5.31c0,20.284,0,40.57,0,60.855
	C-38,777.012-38,777.012-44.743,777.092z"/>
<path d="M-210,252.809c-2.578,0-4.518,0-6.727,0c0-17.562,0-34.934,0-52.557c2.237,0,4.312,0,6.566,0
	c0.099,1.782,0.188,3.397,0.284,5.152c3.153-2.192,5.915-5.023,9.254-6.164c3.021-1.032,6.673-0.218,10.649-0.218
	c-1.875,4.463-3.269,6.805-8.053,6.203c-4.717-0.593-10.377,5.971-10.889,12.001c-0.67,7.878-0.802,15.805-1.064,23.715
	C-210.104,244.738-210,248.543-210,252.809z"/>
<path d="M-833.763,374.24c2.484,0,4.439,0,6.611,0c0.098,2.166,0.187,4.108,0.27,5.93c2.872-2.035,5.448-4.705,8.581-5.84
	c3.064-1.109,6.695-0.652,10.664-0.923c-1.104,4.562-2.332,6.835-6.411,6.671c-4.959-0.199-9.463,2.914-10.752,7.759
	c-1.205,4.527-1.861,9.276-2.112,13.964c-0.347,6.477-0.086,12.985-0.087,19.479c-0.001,6.183-0.002,6.183-6.762,6.418
	C-833.763,409.965-833.763,392.239-833.763,374.24z"/>
<path d="M524.191,555.642c5.449-5.395,10.858-9.548,19.014-6.048c-1.246,2.915-1.869,5.873-6.26,5.479
	c-4.682-0.42-9.345,2.844-10.752,7.74c-1.157,4.021-1.936,8.265-2.101,12.438c-0.321,8.132,0.001,16.288-0.218,24.427
	c-0.028,1.045-2.029,3.052-2.538,2.881c-1.594-0.531-4.135-1.873-4.151-2.937c-0.261-16.745-0.183-33.497-0.183-50.188
	C523.815,548.663,523.818,548.665,524.191,555.642z"/>
<path d="M-463,252.808c-2.485,0-4.426,0-6.685,0c0-17.485,0-34.884,0-52.545c2.178,0,4.252,0,6.517,0
	c0.101,1.787,0.192,3.417,0.268,4.76c2.946-1.968,5.829-4.188,8.979-5.919c3.485-1.914,6.838-1.023,10.091,1.536
	c-1.031,1.596-1.987,3.074-2.95,4.554c-9.514-1.656-15.371,4.311-16.118,16.591c-0.524,8.634-0.102,17.324-0.102,25.989
	C-463,249.39-463,251.007-463,252.808z"/>
<path d="M888,77.778c-2.622,0-4.562,0-6.729,0c0-17.617,0-35.015,0-52.594c2.216,0,4.161,0,6.553,0
	c0.107,1.748,0.214,3.443,0.371,5.981c4.5-4.78,8.895-8.519,15.311-7.102c1.219,0.27,2.261,1.334,3.385,2.032
	c-1.178,1.494-2.15,4.043-3.563,4.315c-11.047,2.132-15.283,6.881-15.319,18.08C887.975,58.127,888,67.761,888,77.778z"/>
<path d="M72.333,4.205c1.93,0,3.543,0,5.411,0c0,24.588,0,48.979,0,73.578c-1.85,0-3.463,0-5.411,0
	C72.333,53.406,72.333,29.016,72.333,4.205z"/>
<path d="M-675.754,427.627c0-24.378,0-48.787,0-73.408c1.856,0,3.471,0,5.368,0c0.125,1.065,0.367,2.179,0.368,3.293
	c0.023,21.825-0.062,43.65,0.086,65.474C-669.903,427.303-671.369,428.816-675.754,427.627z"/>
<path d="M548.277,374.201c2.189,0,4.128,0,6.723,0c0,3.962,0,7.889,0,11.815c0,12.46-0.133,24.921,0.092,37.377
	c0.059,3.195-1.101,4.34-3.964,4.523c-3.37,0.218-3.127-2.133-3.127-4.327c0.001-15.615-0.002-31.232,0.014-46.849
	C548.016,375.951,548.174,375.161,548.277,374.201z"/>
<path d="M-141.664,549.747c6.132-1.226,6.657-0.838,6.661,5.073c0.009,14.14-0.204,28.283,0.112,42.414
	c0.115,5.166-1.747,6.648-6.773,5.453C-141.664,585.258-141.664,567.693-141.664,549.747z"/>
<path d="M-423.229,602.605c-6.494,0.606-6.76,0.41-6.766-5.264c-0.015-13.832-0.006-27.664-0.005-41.495
	c0.001-6.311,0.003-6.311,6.771-6.461C-423.229,567.137-423.229,584.882-423.229,602.605z"/>
<path d="M-251.329,427.638c-1.951,0-3.649,0-5.418,0c0-17.737,0-35.481,0-53.428c1.86,0,3.473,0,5.418,0
	C-251.329,391.95-251.329,409.689-251.329,427.638z"/>
<path d="M-655.753,427.22c0-17.907,0-35.352,0-53.002c1.857,0,3.471,0,5.753,0c0,3.912,0,7.85,0,11.788
	c0,12.158,0.009,24.314-0.004,36.475C-650.011,428.382-650.031,428.382-655.753,427.22z"/>
<path d="M-184.685,200.227c1.982,0,3.597,0,5.445,0c0,17.479,0,34.737,0,52.528c-1.668,0.084-3.387,0.171-5.445,0.274
	C-184.685,235.361-184.685,217.971-184.685,200.227z"/>
<path d="M829-8.531c0.002-6.847,3.567-10.512,10.183-10.469c6.05,0.04,9.781,3.779,9.817,9.836
	c0.035,5.974-4.738,11.186-10.119,11.049C833.317,1.745,828.998-2.81,829-8.531z M838.783-3.967c3.456,0.02,5.421-1.384,5.159-4.694
	c-0.227-2.857-0.941-5.47-4.839-5.386c-3.474,0.075-5.131,1.479-5.136,5.032C833.965-5.475,835.62-3.89,838.783-3.967z"/>
<path d="M753.248,529.902c1.24,1.339,2.408,2.6,3.58,3.859c-4.447,5.198-11.087,7.032-18.357,3.188
	c-6.04-3.193-7.971-2.733-13.923,1.212c-1.146-1.477-2.312-2.98-3.454-4.45c5.051-5.704,10.476-6.921,18.524-3.295
	C744.428,532.584,748.706,532.521,753.248,529.902z"/>
<path d="M1134.169,714.427c2.243-9.358,10.062-15.415,19.476-15.083C1150.834,706.334,1139.212,715.334,1134.169,714.427z"/>
<path d="M-140.274,527.934c5.055,0.086,7.88,1.894,7.015,5.545c-0.51,2.149-3.323,4.77-5.525,5.257
	c-3.058,0.678-5.43-1.219-5.296-5.22C-143.959,529.877-142.753,527.854-140.274,527.934z"/>
<path d="M-181.695,188.989c-4.226,0.394-6.077-2.502-6.055-5.623c0.021-2.854,1.833-5.347,5.724-5.463
	c4.151-0.123,5.484,2.801,5.516,5.507C-176.48,186.062-177.63,189.434-181.695,188.989z"/>
<path d="M-80.05,709.36c0.669-2.734,0.996-5.809,5.378-5.706c3.481,0.081,5.327,1.387,5.704,4.938c0.408,3.854-2.092,5.961-5,6.056
	C-76.537,714.73-79.998,713.71-80.05,709.36z"/>
<path d="M-94.605,703.732c4.25-0.184,5.562,1.925,5.634,5.502c0.077,3.882-2.688,5.456-5.55,5.556
	c-3.193,0.112-5.488-2.412-5.354-5.721C-99.749,705.922-98.432,703.127-94.605,703.732z"/>
<path d="M-655.135,353.175c6.085-0.543,7.84,2.338,7.914,5.463c0.075,3.187-2.48,5.271-5.849,5.3
	c-3.836,0.033-5.794-2.896-5.56-5.953C-658.471,355.927-655.83,354.061-655.135,353.175z"/>
<path d="M-791.991,358.725c-0.229-4.206,2.964-5.19,5.722-5.188c3.548,0.001,5.997,2.776,5.028,6.189
	c-0.592,2.085-3.439,4.851-5.374,4.932C-789.655,364.785-792.54,362.703-791.991,358.725z"/>
<path d="M-420.997,534.137c-0.363,2.383-1.854,4.879-5.72,4.825c-3.819-0.054-4.999-3.091-5.14-5.992
	c-0.173-3.558,2.373-4.947,5.804-4.994C-422.517,527.928-420.894,529.575-420.997,534.137z"/>
<path d="M557.125,358.438c-0.467,3.27-2.347,6.033-5.589,5.292c-2.146-0.49-4.711-3.274-5.268-5.489
	c-0.641-2.55,0.749-5.387,4.666-5.293C554.673,353.037,556.698,354.62,557.125,358.438z"/>
<path d="M-253.836,353.022c3.922-0.661,5.09,2.51,5.331,5.311c0.271,3.14-1.845,5.363-5.259,5.632
	c-3.095,0.243-6.676-2.841-6.098-5.609C-259.259,355.466-257.952,352.652-253.836,353.022z"/>
<path d="M-771.991,358.733c-0.229-4.189,2.928-5.145,5.697-5.224c3.3-0.096,5.383,2.307,5.211,5.714
	c-0.167,3.296-2.304,5.825-5.541,5.566C-769.752,364.539-772.549,362.688-771.991,358.733z"/>
</svg>
