<?xml version="1.0" encoding="utf-8"?>
<!-- Generator: Adobe Illustrator 16.0.0, SVG Export Plug-In . SVG Version: 6.00 Build 0)  -->
<!DOCTYPE svg PUBLIC "-//W3C//DTD SVG 1.1//EN" "http://www.w3.org/Graphics/SVG/1.1/DTD/svg11.dtd">
<svg version="1.1" id="Lag_1" xmlns="http://www.w3.org/2000/svg" xmlns:xlink="http://www.w3.org/1999/xlink" x="0px" y="0px"
	 width="2704.971px" height="836.005px" viewBox="0 0 2704.971 836.005" enable-background="new 0 0 2704.971 836.005"
	 xml:space="preserve">
<path fill-rule="evenodd" clip-rule="evenodd" d="M1509.853,152.73c-6.989-27.294-0.328-50.785,16.644-72.046
	c8.229-10.307,18.268-17.781,30.721-21.781c10.797-3.468,21.836-4.182,32.285,1.134c6.849,3.483,12.355,8.92,15.263,16.109
	c8.272,20.456,1.92,38.279-11.088,54.378c-13.327,16.494-31.378,25.332-51.791,29.108c-7.324,1.354-15.109,0.218-22.411,0.218
	c4.736,9.458,19.069,20.432,31.381,18.017c2.138-0.419,4.221-1.51,6.122-2.64c2.266-1.346,4.701-3.171,6.522-0.331
	c0.474,0.736-1.856,4.515-3.574,5.198c-7.223,2.876-14.815,2.856-22.078,0.162c-9.354-3.469-16.703-9.821-22.09-18.107
	c-2.98-4.584-7.749-5.849-12.045-7.688c-21.638-9.261-34.884-25.744-40.396-48.059c-4.136-16.741-0.771-33.006,8.356-47.659
	c13.11-21.046,32.288-34.585,55.389-42.727c13.559-4.778,27.444-8.479,41.925-9.08c18.362-0.763,36.803-2.65,55.078-1.652
	c19.37,1.059,38.624,4.68,57.854,7.67c11.743,1.827,23.308,4.777,35.018,6.853c11.396,2.02,22.306,1.954,30.405-8.589
	c1.168-1.521,4.678-2.565,6.433-1.941c1.794,0.638,3.715,3.504,3.922,5.562c0.755,7.497-0.224,12.63-10.019,15.168
	c-7.528,1.952-15.153,3.591-22.563,5.916c-10.299,3.23-18.783,9.626-27.127,16.306c-15.173,12.146-25.938,27.805-35.158,44.492
	c-6.669,12.07-12.211,24.786-17.853,37.394c-4.842,10.817-9.122,21.887-13.618,32.858c-0.296,0.72-0.322,1.551-0.629,3.122
	c1.819-0.463,3.136-0.786,4.445-1.133c13.201-3.493,26.396-7.008,39.604-10.477c4.562-1.197,9.123-3.071,13.736-3.239
	c7.132-0.259,10.252-4.931,13.262-9.995c11.253-18.938,23.795-36.992,38.121-53.699c10.755-12.542,21.727-24.997,33.586-36.473
	c19.661-19.024,41.049-36.026,66.234-47.314c7.459-3.344,15.73-5.486,23.847-6.599c10.624-1.457,17.511,7.763,15.687,18.234
	c-2.744,15.756-12.366,27.489-21.819,39.323c-4.741,5.934-10.265,11.26-15.593,16.705c-13.728,14.03-28.814,26.466-45.586,36.646
	c-15.475,9.395-31.301,18.217-47.1,27.065c-4.237,2.373-9.163,3.536-13.347,5.983c-2.907,1.7-5.879,4.213-7.457,7.106
	c-7.784,14.268-15.699,28.515-22.452,43.28c-8.255,18.05-15.703,36.49-22.931,54.983c-5.78,14.79-9.913,30.129-9.956,46.169
	c-0.012,4.463,0.894,9.229,2.616,13.338c4.46,10.64,14.484,15.604,26.583,4.092c10.828-10.305,17.455-23.168,22.598-36.947
	c0.564-1.513,0.882-3.345,1.944-4.387c1.236-1.213,3.166-1.718,4.795-2.529c0.329,1.816,1.446,3.964,0.849,5.392
	c-2.259,5.391-4.742,10.747-7.748,15.751c-6.672,11.104-13.574,22.045-24.915,29.287c-8.966,5.725-20.634,3.991-27.113-4.342
	c-7.09-9.119-10.012-19.667-10.729-30.97c-0.408-6.429-1.035-12.871-0.949-19.299c0.292-21.818,4.863-42.827,12.955-63.045
	c5.721-14.291,11.769-28.451,17.947-43.338c-8.884,2.294-17.323,4.484-25.769,6.65c-11.185,2.87-22.31,6.029-33.597,8.419
	c-4.134,0.875-5.81,2.993-7.307,6.425c-9.766,22.389-20.186,44.479-34.343,64.489c-6.758,9.552-13.732,19.164-21.94,27.428
	c-13.714,13.809-29.333,25.361-47.222,33.511c-6.296,2.868-12.539,5.852-19.125,8.931c8.226,11.758,17.586,20.727,31.433,25.793
	c21.032,7.693,40.465,5.325,59.033-5.693c4.864-2.887,7.986-8.77,11.756-13.4c1.003-1.23,1.088-3.346,2.228-4.294
	c1.531-1.274,3.677-1.81,5.559-2.661c0.228,1.945,1.244,4.249,0.551,5.776c-3.791,8.344-10.472,14.15-18.122,18.835
	c-12.992,7.953-27.329,11.378-42.325,9.896c-20.581-2.034-38.522-9.932-51.458-26.979c-1.478-1.946-3.172-3.729-4.461-5.231
	c-11.731,1.478-23.193,3.118-34.702,4.297c-7.061,0.723-14.231,1.368-21.288,0.955c-23.438-1.374-46.592-4.565-67.658-15.905
	c-19.23-10.352-34.931-24.244-42.437-45.592c-8.094-23.018-3.327-44.478,9.725-63.956c10.421-15.552,25.44-25.956,43.151-32.526
	c14.636-5.429,29.622-8.752,45.178-7.794c21.734,1.339,41.583,7.926,56.446,24.837c6.798,7.735,10.323,17.028,10.886,27.688
	c0.693,13.158-3.344,24.465-12.197,33.613c-7.98,8.246-17.865,14.006-29.072,17.398c-14.59,4.416-29.098,4.659-43.328-0.753
	c-10.275-3.907-18.504-10.456-21.835-21.633c-0.368-1.233-0.598-2.531-0.703-3.814c-0.253-3.08,0.714-5.956,4.019-6.012
	c0.953-0.016,2.975,3.828,2.797,5.743c-1.199,12.903,6.762,18.685,19.444,21.576c22.032,5.024,42.184-0.178,60.351-13.743
	c7.41-5.534,12.918-12.395,15.175-21.111c4.004-15.464,0.428-28.314-13.38-38.61c-12.609-9.402-27.242-13.539-42.999-14.365
	c-26.056-1.364-49.604,5.801-71.132,20.061c-13.342,8.837-23.056,20.667-28.262,36.014c-5.968,17.59-2.243,33.808,6.777,49.277
	c9.279,15.914,23.363,26.229,40.072,33.004c10.894,4.416,22.26,7.422,34.178,7.749c6.604,0.182,13.207,0.999,19.801,0.899
	c16.495-0.248,32.457-3.403,47.723-9.8c1.047-0.438,2.137-1.035,3.223-1.071c3.184-0.105,3.647-2.133,3.035-4.447
	c-3.806-14.376-2.022-28.472,3.507-41.826c3.191-7.706,7.696-15.322,13.261-21.487c8.438-9.351,17.594-18.405,27.778-25.729
	c10.614-7.632,22.57-13.562,34.399-19.285c8.142-3.94,17.082-6.222,25.623-9.358c0.903-0.332,1.756-1.306,2.242-2.194
	c9.958-18.189,19.307-36.741,29.946-54.521c8.528-14.253,18.221-27.865,28.105-41.237c11.538-15.607,25.524-28.953,41.717-39.704
	c7.049-4.68,14.874-8.19,22.357-12.214c0.86-0.463,1.98-0.606,2.637-1.249c1.005-0.985,2.099-2.195,2.363-3.474
	c0.115-0.56-1.61-1.951-2.692-2.234c-6.909-1.812-13.814-3.737-20.83-5.023c-11.881-2.178-23.833-3.985-35.778-5.788
	c-4.385-0.661-8.83-1.056-13.261-1.244c-10.597-0.45-21.217-1.24-31.798-0.928c-21.487,0.635-42.932,2.839-63.245,10.138
	c-16.095,5.783-30.785,14.396-43.958,25.761c-12.96,11.183-23.093,24.196-29.441,39.907c-5.882,14.558-6.292,36.273,5.589,50.309
	C1494.182,145.169,1501.414,149.11,1509.853,152.73z M1734.511,138.993c0.399,0.4,0.798,0.801,1.196,1.201
	c4.876-2.452,9.888-4.671,14.604-7.397c15.895-9.189,31.986-18.087,47.44-27.976c20.361-13.029,38.561-28.856,54.406-47.111
	c9.06-10.437,17.534-21.512,21.821-35.058c1.645-5.196,1.676-9.936-2.795-13.969c-4.583-4.135-9.731-3.313-14.837-1.845
	c-17.787,5.12-31.069,17.264-44.102,29.41c-14.47,13.485-27.483,28.334-38.494,44.896
	C1760.854,100.549,1747.606,119.721,1734.511,138.993z M1528.223,155.927c10.304,1.225,20.812-2.721,30.061-8.426
	c19.852-12.247,33.812-29.314,38.757-52.894c4.314-20.578-9.847-38.306-33.425-32.972c-12.955,2.931-22.715,10.656-30.859,20.858
	c-13.681,17.138-22,36.056-20.946,58.514c0.555,11.838,3.249,14.919,14.719,14.919
	C1526.694,155.927,1526.861,155.927,1528.223,155.927z M1593.305,186.279c-4.002,1.545-6.896,2.475-9.63,3.75
	c-12.777,5.966-25.952,11.259-38.138,18.266c-12.678,7.29-24.053,16.559-33.645,27.94c-7.568,8.98-13.982,18.488-17.48,29.71
	c-2.977,9.546-3.055,19.309-1.644,29.218c0.751,5.272,0.95,6.014,5.377,2.931c10.249-7.136,20.827-14.019,30.033-22.37
	c8.915-8.088,16.914-17.407,24.175-27.045c9.883-13.12,18.809-26.973,27.894-40.677
	C1584.671,201.328,1588.525,194.275,1593.305,186.279z"/>
<path fill-rule="evenodd" clip-rule="evenodd" d="M851.061,187.223c-4.374-2.601-6.91-0.344-9.065,2.15
	c-5.427,6.279-10.644,12.741-15.991,19.09c-3.662,4.347-7.104,8.935-11.165,12.878c-11.479,11.146-22.764,22.571-35.003,32.84
	c-11.915,9.995-25.521,18.297-41.104,20.409c-20.029,2.714-34.354-1.721-46.834-21.549c-7.278-11.563-10.753-24.264-12.101-37.807
	c-2.152-21.631,3.271-41.756,11.63-61.256c8.147-19.011,19.215-36.355,32.903-51.834c9.346-10.566,18.73-21.366,29.56-30.287
	c14.202-11.697,29.483-22.205,44.964-32.195c16.753-10.812,35.182-18.587,53.996-25.057c17.242-5.93,34.755-11.466,53.127-12.572
	c10.822-0.651,21.958-1.542,32.52,0.241c15.163,2.559,28.625,9.284,33.847,25.664c3.747,11.754,0.561,23.048-3.547,33.974
	c-6.559,17.444-17.918,31.673-31.558,44.062c-16.137,14.655-34.734,25.068-56.365,28.716c-13.305,2.244-26.84,2.547-39.86-2.674
	c-15.5-6.216-23.027-18.208-19.337-35.521c3.727-17.483,15.172-29.005,29.865-37.753c10.854-6.463,22.436-10.771,35.426-9.827
	c6.999,0.508,13.039,2.965,17.706,8.342c0.631,0.728,1.491,1.678,1.452,2.486c-0.115,2.371,0.096,6.193-1.128,6.798
	c-3.269,1.612-3.584-1.744-4.351-4.08c-2.209-6.731-9.967-10.965-17.547-10.227c-14.018,1.365-26.835,6.021-37.608,14.963
	c-11.336,9.409-20.915,20.423-20.532,36.462c0.329,13.741,9.307,21.558,21.027,24.198c16.743,3.771,32.057-1.941,46.885-8.552
	c19.306-8.605,35.981-21.169,49.954-36.989c10.519-11.91,18.496-25.439,21.918-41.232c3.431-15.829-5.406-29.141-20.897-33.281
	c-15.653-4.184-30.493-0.892-45.497,2.916c-21.593,5.479-41.166,15.693-59.592,27.559c-16.726,10.77-32.275,23.49-47.643,36.199
	c-10.464,8.653-20.428,18.15-29.336,28.384c-11.268,12.944-21.723,26.677-31.637,40.699c-11.386,16.105-20.99,33.356-27.479,52.091
	c-4.244,12.253-7.394,24.901-6.659,37.967c0.622,11.059,3.182,21.72,11.825,29.766c4.96,4.618,10.906,6.793,17.59,7.587
	c17.462,2.075,32.109-5.078,44.889-15.371c13.947-11.234,27.129-23.584,39.558-36.493c11.947-12.41,22.165-26.468,33.793-39.209
	c7.7-8.438,15.221-17.445,26.817-21.255c4.202-1.381,8.028-0.995,9.932,2.729c1.915,3.746-0.352,7.137-3.678,9.604
	c-13.182,9.774-22.953,22.5-30.739,36.72c-11.22,20.491-18.245,42.654-25.515,64.766c-7.577,23.048-15.769,46.031-28.778,66.689
	c-14.347,22.781-33.876,39.512-60.045,47.817c-11.582,3.676-23.313,5.87-35.411,7.102c-25.953,2.643-51.067-0.828-75.665-8.873
	c-22.505-7.361-42.238-19.348-57.949-37.179c-9.669-10.975-17.413-23.322-20.745-37.864c-1.597-6.966-3.854-14.059-3.788-21.075
	c0.213-22.933,8.638-42.266,27.656-56.109c14.824-10.79,31.433-12.585,49.148-10.216c16.92,2.263,31.63,9.234,44.248,20.206
	c10.797,9.388,17.316,21.521,18.771,36.136c2.184,21.958-10.658,39.512-29.68,44.034c-16.062,3.819-37.95-3.009-43.215-17.231
	c-1.322-3.57-1.089-7.799-1.079-11.724c0.003-1.063,1.798-2.123,2.771-3.185c1.053,1.482,2.983,2.942,3.021,4.451
	c0.368,14.501,8.924,23.215,23.699,24.546c20.306,1.83,35.458-10.123,39.036-28.568c2.319-11.952-1.116-23.222-8.567-32.854
	c-11.879-15.356-27.915-22.855-47.118-24.729c-19.498-1.902-35.949,4.46-50.318,17.053c-11.332,9.932-18.021,22.269-19.693,37.53
	c-2.419,22.071,5.473,40.225,19.542,56.506c10.971,12.696,24.593,21.506,39.603,28.587c14.283,6.738,29.237,10.481,44.872,12.645
	c11.212,1.551,22.243,0.919,32.857-1.526c20.241-4.664,38.169-14.367,54.134-27.938c16.034-13.629,29.63-29.331,41.279-46.67
	c7.537-11.218,13.998-23.17,20.752-34.902c11.885-20.646,23.547-41.419,35.463-62.047
	C840.248,204.459,845.63,196.085,851.061,187.223z"/>
<path fill-rule="evenodd" clip-rule="evenodd" d="M1681.012,584.341c-1.901,0.889-4.325,1.307-5.616,2.742
	c-7.322,8.145-14.134,16.754-21.579,24.779c-8.98,9.683-18.079,19.31-27.769,28.266c-7.924,7.325-16.5,14.04-25.306,20.295
	c-13.856,9.843-29.333,15.814-46.541,13.217c-6.617-0.999-13.637-4.09-18.923-8.214c-12.918-10.08-19.634-24.301-22.317-40.286
	c-1.192-7.102-1.969-14.365-1.975-21.557c-0.016-17.411,4.619-33.857,11.442-49.775c8.104-18.909,19.069-36.137,32.162-51.816
	c13.038-15.615,27.555-29.896,43.894-42.226c15.106-11.4,30.995-21.501,47.904-29.979c17.46-8.754,35.553-15.703,54.39-21.143
	c18.592-5.37,37.255-9.015,56.571-8.645c12.926,0.248,25.437,2.878,35.846,11.111c7.148,5.653,11.222,13.42,11.653,22.688
	c0.948,20.4-7.87,37.273-19.453,53.124c-11.761,16.094-27.034,28.088-44.475,37.285c-10.425,5.498-21.699,8.502-33.556,9.894
	c-11.135,1.307-21.954,1.102-32.639-2.167c-16.648-5.094-23.453-16.789-22.646-31.377c0.596-10.779,5.554-20.278,12.971-28.308
	c11.576-12.533,25.594-20.969,42.414-23.982c9.216-1.651,18.388-0.619,26.344,5.159c3.181,2.31,4.733,5.553,3.984,9.506
	c-0.202,1.066-1.318,1.96-2.015,2.933c-0.977-0.7-1.971-1.378-2.919-2.113c-0.24-0.187-0.433-0.538-0.487-0.843
	c-1.771-9.855-9.934-11.317-17.41-11.647c-5.791-0.256-11.909,1.772-17.529,3.774c-16.27,5.795-29.776,15.392-37.222,31.472
	c-3.444,7.438-6.083,15.31-2.44,23.995c4.551,10.848,13.572,16.382,26.006,17.369c13.091,1.039,25.241-3.097,37.066-7.998
	c21.837-9.052,39.972-23.384,55.418-40.997c11.164-12.73,18.491-27.573,20.603-44.654c1.409-11.398-8.506-24.266-20.82-27.319
	c-13.945-3.457-27.57-1.609-41.304,1.521c-16.218,3.697-31.18,10.384-45.809,17.984c-17.589,9.14-34.166,19.973-49.371,32.596
	c-14.657,12.169-29.318,24.593-42.248,38.512c-12.77,13.746-23.603,29.334-34.871,44.424c-13.766,18.436-24.317,38.619-30.89,60.745
	c-4.279,14.404-5.62,29.013-1.659,43.723c3.695,13.724,14.249,22.905,29.263,23.699c17.94,0.949,32.145-7.054,45.183-17.44
	c11.67-9.298,22.771-19.457,33.171-30.163c10.186-10.486,18.985-22.303,28.729-33.236c9.157-10.275,17.229-21.632,29.456-28.926
	c4.558-2.719,9.126-2.625,13.792-2.259c3.647,0.286,4.605,5.789,1.433,9.143c-3.51,3.711-7.644,6.826-11.234,10.469
	c-4.343,4.404-8.786,8.798-12.505,13.711c-10.324,13.638-17.621,28.937-23.278,45.013c-7.507,21.329-14.324,42.918-22.408,64.024
	c-9.31,24.309-21.364,47.146-41.378,64.719c-12.488,10.967-27.131,17.954-42.911,22.757c-19.996,6.087-40.615,7.466-61.168,5.739
	c-17.656-1.484-35.134-5.403-51.709-12.057c-17.483-7.017-33.427-16.72-46.556-30.384c-14.818-15.423-25.232-33.609-27.643-54.97
	c-3.05-27.027,6.246-49.788,28.896-65.63c8.799-6.153,19.115-9.697,30.388-9.793c11.618-0.099,22.916,0.834,33.874,5.057
	c20.07,7.732,36.354,19.751,43.651,40.734c5.862,16.857,3.442,32.133-9.729,45.833c-15.146,15.754-48.737,13.64-59.699-5.646
	c-2.165-3.81-1.938-9.049-2.399-13.67c-0.061-0.604,2.456-2.141,3.625-1.997c1.105,0.137,2.853,1.9,2.873,2.976
	c0.277,14.661,3.418,19.176,17.284,23.316c24.005,7.17,46.195-9.879,45.738-34.076c-0.278-14.727-7.6-26.914-19.227-36.231
	c-9.248-7.41-20.014-11.916-31.424-13.912c-18.897-3.306-36.273,1.273-51.738,12.837c-13.064,9.769-21.513,22.718-23.968,38.645
	c-1.939,12.573-0.398,25.227,4.994,37.173c7.874,17.445,20.604,30.525,36.274,40.966c17.594,11.724,37.081,18.932,57.881,21.938
	c23.333,3.372,45.412-0.827,66.429-12.094c25.27-13.546,44.41-33.325,61.151-56.051c13.894-18.86,24.506-39.618,35.963-59.911
	c9.211-16.313,18.774-32.428,28.231-48.603c3.864-6.61,7.873-13.136,11.774-19.726c0.473-0.799,0.686-1.752,1.019-2.634
	C1681.665,585.279,1681.338,584.811,1681.012,584.341z"/>
<path fill-rule="evenodd" clip-rule="evenodd" d="M127.972,502.433c0.966-7.292,0.989-14.857,3.089-21.794
	c4.583-15.136,15.431-25.118,28.939-32.905c10.608-6.116,21.696-10.7,33.733-12.047c9.893-1.107,19.963-0.752,29.957-0.82
	c11.042-0.074,21.189,3.716,31.026,8.159c13.956,6.303,25.071,16.05,33.201,29.094c0.422,0.677,0.975,1.546,0.864,2.227
	c-0.299,1.84-0.924,3.627-1.42,5.435c-1.56-1.153-3.534-2.017-4.588-3.523c-1.915-2.739-2.931-6.129-4.945-8.772
	c-6.039-7.924-14.236-13.026-23.425-16.524c-11.213-4.269-22.817-6.283-34.845-7.222c-19.396-1.514-37.944,1.852-55.391,9.454
	c-19.152,8.345-31.181,22.996-31.37,44.766c-0.039,4.496,2.131,5.916,5.938,5.947c18.449,0.151,34.531,6.47,48.281,18.652
	c8.707,7.714,15.374,16.932,20.132,27.635c1.046,2.354,3.862,5.096,6.216,5.476c7.932,1.283,16.042,2.295,24.049,2.081
	c10.311-0.276,20.608-1.675,30.856-3.006c1.686-0.22,3.495-2.316,4.568-3.982c11.392-17.69,22.05-35.888,34.112-53.102
	c11.087-15.821,23.459-30.762,35.631-45.793c6.228-7.69,12.807-15.213,20.024-21.957c12.446-11.629,24.921-23.413,40.675-30.685
	c7.141-3.296,14.753-5.018,22.393-2.259c7.942,2.868,11.763,11.505,9.791,19.907c-4.09,17.42-13.902,31.769-24.002,46.085
	c-10.431,14.786-22.893,27.727-36.162,39.786c-13.546,12.312-27.92,23.792-44.198,32.462c-10.924,5.816-22.21,10.956-33.087,16.854
	c-2.758,1.496-5.435,4.356-6.682,7.227c-7.837,18.043-14.657,36.547-22.958,54.366c-12.972,27.85-27.73,54.722-51.259,75.433
	c-8.81,7.756-18.662,13.913-29.332,19.14c-12.065,5.909-24.815,9.2-37.703,11.242c-11.856,1.878-24.174,1.874-36.222,1.301
	c-28.134-1.339-54.215-9.097-76.685-26.981c-16.396-13.051-28.088-29.016-33.73-49.521c-6.097-22.158-3.9-43.59,5.038-64.206
	c7.952-18.342,20.849-33.013,36.725-45.362c16.653-12.954,35.371-21.448,55.284-27.377
	C109.482,504.643,119.067,503.953,127.972,502.433z M210.877,562.022c0,4.583,0.487,9.944-0.125,15.177
	c-0.752,6.434-1.829,12.951-3.808,19.097c-5.316,16.507-14.745,30.52-27.873,41.846c-8.953,7.727-19.102,13.571-30.582,16.775
	c-12.046,3.361-24.336,4.136-36.622,1.923c-13.078-2.355-24.763-7.955-32.86-18.793c-12.011-16.077-8.773-40.115,5.2-55.041
	c10.542-11.261,23.053-18.798,38.375-20.782c8.486-1.099,17.074-0.605,24.969,3.624c3.211,1.72,5.322,3.853,3.637,8.653
	c-1.672-0.865-3.498-1.293-4.543-2.436c-6.003-6.555-13.17-7.193-21.029-4.443c-16.342,5.718-29.673,15.415-39.869,29.564
	c-6.038,8.378-9.822,17.389-7.367,27.561c4.278,17.72,18.12,25.304,34.832,27.066c14.509,1.531,27.738-3.918,39.383-11.529
	c16.917-11.059,30.455-25.569,39.452-44.221c5.278-10.942,6.681-22.367,7.822-34.045c0.249-2.546-0.784-3.432-3.453-4.27
	c-9.237-2.897-18.373-6.188-27.356-9.806c-17.621-7.095-30.629-19.121-38.303-38.006c-9.491,2.743-19.354,4.6-28.375,8.435
	c-13.538,5.754-25.912,13.659-37.59,22.861C47.981,554.48,34.28,570.17,24.44,589.027c-8.294,15.894-13.27,32.999-11.319,51.063
	c0.997,9.238,3.015,18.993,7.241,27.127c9.437,18.16,24.692,30.097,44.188,37.242c17.327,6.35,34.9,8.065,52.759,5.265
	c19.226-3.016,37.084-10.031,53.649-20.677c20.106-12.922,36.008-29.837,48.874-49.587c11.281-17.317,21.571-35.285,32.16-53.049
	c5.093-8.544,9.865-17.28,15.146-26.57C248.204,563.577,229.941,561.276,210.877,562.022z M296.585,545.997
	c0.301,0.272,0.603,0.545,0.904,0.818c7.358-3.065,15.019-5.564,22.014-9.309c17.086-9.145,32.764-20.531,46.835-33.775
	c17.48-16.454,34.562-33.352,47.649-53.824c6.589-10.308,13.291-20.484,16.557-32.382c3.003-10.944-3.486-19.4-13.762-17.378
	c-6.399,1.259-12.928,3.696-18.48,7.103c-19.281,11.826-34.094,28.534-47.262,46.576c-9.016,12.354-17.316,25.294-25.106,38.464
	c-9.591,16.211-18.325,32.929-27.403,49.441C297.78,543.097,297.229,544.572,296.585,545.997z M136.592,510.321
	c12.551,26.763,35.921,36.39,62.02,42.52C195.6,526.948,167.794,508.456,136.592,510.321z"/>
<path fill-rule="evenodd" clip-rule="evenodd" d="M2064.974,242.954c-3.732,5.456-7.147,11.165-11.26,16.318
	c-10.809,13.543-21.787,26.958-32.962,40.201c-7.527,8.921-16.546,16.104-27.169,21.166c-8.248,3.93-19.562,0.37-24.105-7.537
	c-5.758-10.021-6.834-20.644-5.804-32.051c0.939-10.395,3.332-20.143,6.965-29.891c4.667-12.525,11.884-23.313,20.123-33.569
	c10.351-12.885,22.692-23.612,36.549-32.527c13.549-8.716,28.121-14.21,44.62-14.261c11.255-0.035,19.549,8.576,18.001,18.015
	c-0.371,2.269-0.055,4.65-0.055,8.363c6.667-9.737,12.651-18.479,18.76-27.4c9.73,3.403,19.383,2.291,29.146,0.356
	c3.09-0.612,7.1-1.606,9.32,3.429c-1.724,0.798-3.397,2.234-5.078,2.243c-10.603,0.058-17.188,6.784-22.045,14.585
	c-9.907,15.916-19.162,32.268-28.062,48.776c-12.836,23.811-24.762,48.114-37.733,71.848
	c-12.503,22.875-25.202,45.692-39.005,67.791c-12.336,19.75-28.314,36.426-49.523,47.089c-12.683,6.376-26.172,9.952-40.521,10.07
	c-13.532,0.11-27.124,0.489-39.818-5.12c-12.049-5.323-20.404-11.894-20.415-26.428c-0.005-6.077,4.609-12.287,10.27-14.239
	c5.181-1.786,12.017,0.558,15.85,5.436c2.902,3.693,2.54,9.172-0.895,13.531c-7.502,9.522-5.428,17.735,6.424,20.512
	c8.681,2.032,18.059,2.792,26.927,1.973c19.26-1.781,34.745-12.046,47.68-25.712c12.614-13.327,22.744-28.661,31.887-44.57
	c8.054-14.015,16.142-28.021,23.727-42.29c10.688-20.104,20.904-40.458,31.368-60.683c2.568-4.964,5.313-9.836,7.977-14.751
	C2065.734,243.403,2065.354,243.179,2064.974,242.954z M2074.561,175.927c-0.167-0.388-0.334-0.775-0.502-1.164
	c-4.835,2.083-10.127,3.487-14.423,6.373c-14.609,9.813-26.138,22.974-36.614,36.86c-9.312,12.34-17.816,25.335-26.016,38.455
	c-9.241,14.788-17.284,30.22-20.743,47.614c-1.224,6.151,2.423,12.947,8.75,13.71c3.454,0.417,7.734-0.526,10.691-2.376
	c18.806-11.764,31.891-29.328,45.006-46.576c9.798-12.885,18.71-26.538,26.963-40.474c6.67-11.263,12.54-23.154,17.309-35.338
	C2088.613,183.732,2084.826,175.024,2074.561,175.927z"/>
<path fill-rule="evenodd" clip-rule="evenodd" d="M2509.465,641.41c-11.609,15.374-22.715,31.166-34.99,45.988
	c-9.627,11.623-19.857,23.055-33.439,30.431c-13.464,7.312-27.415,2.914-32.047-13.864c-4.866-17.625-1.939-34.795,4.127-51.574
	c5.98-16.548,15.825-30.573,27.934-43.312c12.2-12.835,25.576-23.863,41.613-31.496c11.071-5.27,22.583-8.396,35.017-7.699
	c10.403,0.584,18.3,10.864,15.812,20.947c-0.355,1.445-0.442,2.958,0.187,4.679c5.362-7.729,10.936-15.324,15.976-23.257
	c1.908-3.003,3.507-2.836,6.717-2.564c7.609,0.644,15.322,0.133,22.99-0.027c2.283-0.047,4.584-0.798,6.824-0.606
	c1.273,0.108,2.441,1.471,3.656,2.268c-1.177,1.193-2.315,3.381-3.537,3.429c-14.194,0.559-21.522,10.525-27.607,21.03
	c-12.275,21.19-23.899,42.771-35.381,64.408c-7.857,14.808-14.654,30.18-22.586,44.946c-9.716,18.088-19.902,35.935-30.309,53.637
	c-6.105,10.385-12.317,20.85-19.746,30.282c-14.408,18.292-31.235,33.874-54.24,40.978c-13.073,4.037-26.487,6.86-40.156,5.718
	c-12.294-1.028-24.854-2.719-35.372-9.934c-11.929-8.183-14.274-16.517-10.911-28.21c1.529-5.315,6.366-7.91,11.627-8.559
	c4.917-0.606,9.452,1.196,12.743,4.997c2.746,3.172,1.918,11.169-1.142,14.776c-7.236,8.532-5.074,15.434,5.479,19.587
	c15.922,6.265,31.291,3.426,46.251-2.624c15.909-6.433,27.721-18.1,38.293-31.438c16.324-20.594,28.924-43.385,41.191-66.447
	c7.563-14.217,15.627-28.168,23.141-42.41c7.647-14.493,14.896-29.196,22.32-43.808C2509.754,641.59,2509.609,641.5,2509.465,641.41
	z M2419.874,701.67c0.01,10.891,2.175,13.497,9.417,15.46c5.708,1.548,9.859-1.952,13.461-4.873
	c7.235-5.867,14.072-12.353,20.346-19.245c7.666-8.422,15.126-17.141,21.706-26.419c10.534-14.853,20.714-30.002,30.173-45.555
	c5.343-8.785,9.563-18.396,13.175-28.053c4.335-11.591-0.866-18.206-9.455-18.25c-5.659-0.028-12.407,2.52-16.796,6.167
	c-10.482,8.712-20.697,18.051-29.455,28.453c-9.709,11.531-18.214,24.19-26.251,36.981c-7.605,12.104-14.345,24.811-20.637,37.657
	C2422.393,690.456,2421.068,697.818,2419.874,701.67z"/>
<path fill-rule="evenodd" clip-rule="evenodd" d="M1137.785,196.135c6.526-12.733,12.947-25.522,19.608-38.185
	c6.373-12.115,12.622-24.321,19.601-36.088c9.967-16.807,20.022-33.605,30.984-49.768c18.12-26.717,41.11-48.221,71.154-61.117
	c11.958-5.133,24.334-8.994,37.535-10.229c9.932-0.93,19.656-1.423,29.354,1.164c1.251,0.334,2.489,0.81,3.646,1.391
	c7.216,3.624,8.476,9.319,2.954,15.274c-6.832,7.368-14.805,10.03-20.878-1.835c-5.639-11.016-17.283-12.45-26.833-10.22
	c-20.955,4.895-35.894,18.602-49.673,34.328c-19.027,21.717-32.625,46.895-47.018,71.556
	c-11.489,19.685-22.188,39.836-33.019,59.897c-9.353,17.32-18.285,34.865-27.61,52.2c-9.44,17.548-19.638,34.709-28.508,52.535
	c-4.51,9.064-7.479,19.068-9.769,28.965c-0.749,3.239,1.962,8.567,4.781,10.866c1.73,1.412,7.541-0.052,9.994-2.074
	c6.051-4.989,11.861-10.56,16.596-16.787c7.193-9.46,13.375-19.688,20.047-29.547c0.654-0.966,1.735-1.642,2.618-2.452
	c0.496,0.171,0.992,0.341,1.488,0.512c-0.411,2.341-0.091,5.218-1.351,6.938c-9.373,12.797-18.823,25.556-28.795,37.884
	c-2.872,3.55-7.389,5.887-11.404,8.371c-8.712,5.393-17.979-1.303-20.133-9.276c-3.1-11.48-2.542-23.096,0.294-34.481
	c2.57-10.315,5.941-20.431,8.928-30.529c-5.995,8.499-11.839,17.271-18.189,25.66c-7.513,9.925-15.474,19.51-23.221,29.258
	c-6.404,8.057-14.117,14.492-23.058,19.642c-9.191,5.293-17.23,3.495-22.137-6.649c-4.995-10.326-6.579-21.293-3.887-32.519
	c2.347-9.784,4.411-19.782,8.179-29.045c5.101-12.541,11.88-24.438,21.12-34.514c7.698-8.395,15.486-16.874,24.247-24.087
	c12.143-9.997,25.811-17.828,41.484-21.032c3.883-0.794,8.415-0.494,12.191,0.722c7.262,2.339,10.491,10.124,8.578,18.463
	c-0.356,1.557-0.684,3.12-1.024,4.681C1137.038,196.05,1137.412,196.092,1137.785,196.135z M1135.011,187.651
	c-1.155-7.567-3.488-11.81-9.416-12.096c-3.809-0.185-8.533,1.491-11.483,3.961c-7.982,6.686-15.681,13.84-22.649,21.567
	c-6.435,7.136-12.174,14.991-17.507,23.004c-7.67,11.524-15.052,23.274-21.902,35.302c-8.683,15.242-17.576,30.554-20.28,48.261
	c-0.483,3.17,0.925,7.451,2.992,9.956c2.028,2.458,5.834,2.256,9.371,0.745c10.978-4.688,18.58-13.583,25.621-22.276
	c12.922-15.955,24.718-32.872,36.252-49.885c7.547-11.131,14.316-22.873,20.453-34.845
	C1130.262,203.935,1132.224,195.582,1135.011,187.651z"/>
<path fill-rule="evenodd" clip-rule="evenodd" d="M1948.404,272.798c-0.941,2.272-1.621,4.7-2.867,6.79
	c-7.39,12.396-15.078,24.639-25.634,34.64c-3.351,3.176-7.455,5.838-11.657,7.777c-10.629,4.907-19.412,0.576-24.213-8.938
	c-4.816-9.543-5.679-19.82-4.59-30.569c1.668-16.47,6.726-31.879,13.509-46.704c8.814-19.264,17.961-38.405,27.783-57.17
	c9.377-17.913,19.344-35.559,29.907-52.797c9.53-15.553,19.655-30.816,30.562-45.43c9.921-13.293,20.595-26.171,32.126-38.079
	c12.811-13.23,28.324-22.969,45.29-30.544c18.825-8.404,38.335-11.967,58.778-10.8c7.772,0.443,14.412,4.469,13.522,12.064
	c-0.454,3.88-5.132,9.687-9.676,10.643c-4.515,0.949-8.784,0.447-11.548-4.149c-1.174-1.954-2.736-3.684-4.188-5.46
	c-7.156-8.755-16.586-7.293-25.452-4.585c-12.423,3.795-23.171,10.811-32.914,19.558c-19.614,17.609-34.798,38.687-48.222,61.075
	c-14.93,24.898-29.54,49.998-43.774,75.299c-11.995,21.32-23.922,42.729-34.645,64.7c-10.112,20.719-18.842,42.13-27.641,63.458
	c-1.858,4.504-1.855,9.975-1.83,14.995c0.021,4.102,1.858,7.911,5.944,9.935c4.75,2.352,9.098,1.304,13.339-1.514
	c8.704-5.782,13.657-14.745,19.468-22.936c4.239-5.976,7.818-12.417,11.929-18.491c1.165-1.723,3.161-2.882,4.776-4.3
	C1947.127,271.776,1947.766,272.287,1948.404,272.798z"/>
<path fill-rule="evenodd" clip-rule="evenodd" d="M580.353,564.366c-12.464,20.998-25.133,40.82-36.24,61.482
	c-11.23,20.89-21.155,42.499-31.13,64.035c-2.944,6.355-4.975,13.421-5.869,20.361c-0.93,7.211,5.412,10.766,12.274,7.839
	c6.788-2.896,11.435-8.248,15.399-14.081c7.513-11.052,14.628-22.375,21.936-33.567c0.855-1.311,1.882-2.51,2.829-3.761
	c0.568,0.148,1.137,0.298,1.704,0.446c-0.121,1.575,0.3,3.497-0.449,4.672c-7.182,11.269-14.187,22.685-22.051,33.468
	c-3.677,5.041-8.979,8.962-13.813,13.073c-4.738,4.028-10.447,5.08-16.092,2.48c-6.044-2.784-7.459-8.895-7.87-14.72
	c-1.359-19.291,1.779-37.932,9.146-55.852c1.707-4.154,3.131-8.426,4.077-13.008c-5.379,7.393-10.733,14.801-16.141,22.171
	c-6.372,8.687-12.45,17.617-19.281,25.929c-6.757,8.223-14.003,16.102-21.601,23.555c-4.26,4.178-9.258,8.103-14.651,10.514
	c-8.774,3.923-15.707-0.295-18.385-9.62c-2.329-8.108-3.414-16.645-1.397-25.308c1.99-8.548,2.759-17.394,4.946-25.881
	c4.236-16.434,12.388-31.037,22.561-44.53c12.144-16.105,27.518-28.434,45.471-37.354c7.365-3.66,15.298-6.462,23.26-8.563
	c9.343-2.466,16.822,4.204,16.889,14.053c0.025,3.901,0.004,7.803,0.807,11.857c5.158-10.095,10.315-20.188,15.442-30.222
	c0.879,0.332,1.398,0.402,1.425,0.557c1.414,8.298,4.959,10.498,12.981,7.422c3.292-1.262,6.181-3.56,9.294-5.313
	C577.145,565.755,578.573,565.196,580.353,564.366z M531.877,587.456c0-14.214-6.811-18.683-16.105-13.462
	c-1.98,1.112-3.829,2.555-5.508,4.096c-12.632,11.599-22.991,25.113-32.474,39.3c-8.956,13.399-18.078,26.726-26.246,40.604
	c-8.496,14.435-16.966,28.989-21.052,45.565c-1.194,4.846-0.665,9.122,3.031,12.055c3.989,3.166,8.2,0.752,11.74-1.666
	c15.865-10.835,27.413-25.915,38.448-41.147c13.003-17.948,24.985-36.655,36.966-55.319
	C527.072,607.519,531.018,596.446,531.877,587.456z"/>
<path fill-rule="evenodd" clip-rule="evenodd" d="M855.41,722.135c-4.739-9.696-9.381-9.562-28.799-0.083
	c4.501-7.447,8.639-14.154,12.64-20.942c13.289-22.541,26.905-44.902,39.638-67.754c7.113-12.766,13.02-26.238,18.864-39.656
	c2.118-4.863,4.938-10.268,2.038-15.94c-1.867-3.65-4.539-5.407-9.093-3.955c-8.064,2.572-13,8.744-17.68,14.973
	c-6.067,8.075-11.4,16.699-17.159,25.011c-0.986,1.423-2.519,2.469-3.799,3.688c-0.479-0.296-0.957-0.593-1.436-0.89
	c0.45-1.979,0.336-4.374,1.441-5.868c7.782-10.521,15.348-21.27,23.988-31.059c3.674-4.162,9.488-6.885,14.826-9.023
	c7.611-3.05,15.517,2.587,17.053,10.732c2.784,14.762-1.137,28.606-5.524,42.33c-2.658,8.312-6.196,16.342-8.737,24.97
	c2.753-3.769,5.501-7.541,8.259-11.306c8.004-10.931,15.514-22.273,24.149-32.68c10.006-12.057,19.704-24.461,33.317-33.155
	c8.356-5.337,16.582-0.986,20,6.498c3.786,8.292,3.355,17.236,1.908,25.798c-3.085,18.256-12.892,33.62-22.776,48.82
	c-6.58,10.119-13.726,19.894-19.892,30.255c-4.121,6.924-7.877,14.291-7.771,22.824c0.121,9.729,7.605,14.222,16.175,9.54
	c8.836-4.827,13.878-13.176,19.238-21.199c3.885-5.815,7.759-11.639,11.638-17.457c0.685,0.121,1.369,0.242,2.054,0.363
	c0,1.821,0.669,4.027-0.118,5.395c-3.08,5.352-5.983,11.031-10.133,15.489c-6.828,7.335-14.062,14.502-22.065,20.479
	c-9.574,7.151-18.117-0.447-21.616-7.543c-8.194-16.617-6.004-33.2,1.167-49.705c8.867-20.409,22.891-37.528,34.846-55.979
	c5.01-7.731,10.604-15.42,9.875-25.545c-0.396-5.489-3.837-7.582-8.938-5.253c-9.06,4.139-15.363,11.632-21.498,18.838
	c-10.914,12.818-21.206,26.219-31.031,39.897c-8.455,11.771-16.135,24.125-23.727,36.485c-8.963,14.593-17.456,29.473-26.171,44.218
	C859.02,716.357,857.39,718.917,855.41,722.135z"/>
<path fill-rule="evenodd" clip-rule="evenodd" d="M2254.944,616.506c-0.194-5.779,4.061-9.626,6.93-13.914
	c4.445-6.643,9.245-13.084,14.332-19.251c5.08-6.157,11.425-11.282,19.244-13.021c9.741-2.167,15.988,2.75,17.376,14.031
	c1.861,15.139-2.778,29.302-7.398,43.363c-2.167,6.595-5.062,12.949-8.202,20.859c1.882-1.668,2.813-2.211,3.354-3.016
	c12.668-18.84,25.931-37.191,41.111-54.161c6.971-7.793,14.289-14.864,23.105-20.533c7.762-4.991,16.765,0.777,19.057,8.05
	c3.612,11.463,2.807,22.957-0.683,34.375c-5.179,16.944-15.134,31.23-24.79,45.769c-8.801,13.252-18.833,25.91-22.958,41.77
	c-1.455,5.594,0.272,12.291,3.927,14.868c2.639,1.86,9.747,1.746,14.625-2.095c8.194-6.45,13.566-14.9,18.96-23.479
	c2.514-3.998,5.222-7.883,8.024-11.684c0.655-0.888,2.054-1.227,3.171-1.853c2.543,5.624-1.137,9.27-3.491,12.57
	c-7.646,10.718-16.051,20.914-27.084,28.421c-11.001,7.485-17.843,2.328-22.507-5.865c-7.84-13.772-6.806-28.697-2.194-43.298
	c6.147-19.465,18.594-35.39,29.864-52c6.643-9.791,14.321-19.142,17.255-31.026c0.541-2.191,1.001-4.537,0.799-6.747
	c-0.354-3.878-5.725-6.89-8.806-4.598c-6.966,5.182-14.269,10.261-20.01,16.659c-9.555,10.649-18.487,21.95-26.778,33.619
	c-11.142,15.683-21.779,31.754-31.975,48.069c-9.573,15.32-18.273,31.184-27.424,46.771c-0.505,0.861-1.602,1.376-1.363,1.179
	c-3.643-2.138-6.308-4.674-9.327-5.208c-3.215-0.569-6.963,0.227-10.114,1.401c-3.268,1.218-6.101,3.603-9.806,4.963
	c3.165-5.279,6.272-10.595,9.507-15.83c8.315-13.46,16.954-26.728,24.96-40.367c7.585-12.921,14.985-25.992,21.627-39.413
	c6.326-12.782,11.856-25.985,17.163-39.233c2.634-6.574-0.378-13.131-5.927-13.133c-3.773-0.001-8.202,2.198-11.204,4.748
	c-11.234,9.544-18,22.672-26.426,34.472c-1.28,1.793-3.105,3.195-4.68,4.778C2255.774,617.179,2255.359,616.843,2254.944,616.506z"
	/>
<path fill-rule="evenodd" clip-rule="evenodd" d="M798.262,566.97c19.846-1.751,27.218,11.911,30.497,26.521
	c3.243,14.45,2.64,29.212-1.175,43.327c-4.086,15.123-10.916,29.334-20.859,41.695c-12.742,15.84-27.899,28.932-46.833,36.663
	c-8.926,3.645-18.588,6.765-28.101,7.414c-17.168,1.174-25.66-8.262-29.738-24.581c-4.213-16.861-3.398-34.159,2.146-50.513
	c3.607-10.642,9.128-20.967,15.525-30.237c6.279-9.101,14.217-17.268,22.38-24.812c13.945-12.892,30.141-22.083,49.158-25.419
	C793.685,566.603,796.246,566.97,798.262,566.97z M712.442,701.652c1.123,6.958,2.529,12.663,9.228,15.712
	c8.451,3.848,16.212,2.025,23.541-2.397c9.016-5.44,15.706-13.528,21.519-22.029c8.718-12.748,17.15-25.762,24.685-39.232
	c11.431-20.437,22.263-41.219,25.648-64.943c1.115-7.817-3.804-15.876-11.347-17.904c-8.23-2.213-15.514-0.131-22.368,4.158
	c-8.42,5.268-14.946,12.71-20.277,20.8c-9.212,13.979-18.139,28.229-25.972,43.008c-7.445,14.045-13.675,28.773-19.753,43.485
	C714.768,688.55,713.942,695.515,712.442,701.652z"/>
<path fill-rule="evenodd" clip-rule="evenodd" d="M875.074,278.027c-0.537-21.912,7.433-40.596,19.297-58.361
	c11.369-17.023,25.997-30.272,43.225-40.894c10.829-6.675,22.876-10.813,35.354-11.56c15.181-0.907,25.502,5.857,29.707,20.924
	c7.77,27.838,2.653,54.317-11.915,78.828c-11.319,19.046-26.843,34.064-46.38,44.95c-10.673,5.947-21.886,10.386-33.849,11.775
	c-16.03,1.86-27.17-4.731-32.434-23.282C876.047,293.24,876.017,285.504,875.074,278.027z M887.533,302.254
	c0.448,0.139,0.896,0.278,1.344,0.417c-1.953,11.465,8.673,19.021,20.018,17.5c12.634-1.693,20.668-9.803,27.543-18.789
	c9.385-12.267,17.801-25.34,25.882-38.526c13.299-21.7,24.507-44.469,30.17-69.471c1.729-7.629,0.989-16.378-9.441-20.884
	c-9.273-4.007-17.601-0.816-24.969,3.992c-10.306,6.725-17.345,16.907-24.29,26.893c-15.312,22.016-27.179,45.913-37.325,70.638
	C892.729,283.122,890.467,292.826,887.533,302.254z"/>
<path fill-rule="evenodd" clip-rule="evenodd" d="M2191.757,500.615c-6.957,11.761-13.972,23.486-20.853,35.291
	c-6.854,11.757-13.572,23.592-20.71,36.021c8.437,0,16.49-0.101,24.538,0.063c2.3,0.047,6.029-1.521,6.041,2.884
	c0.011,4.318-3.438,4.075-6.516,4.063c-8.328-0.031-16.658,0.088-24.984-0.066c-2.757-0.051-4.166,0.748-5.609,3.327
	c-14.415,25.767-29.219,51.317-43.58,77.114c-8.392,15.073-16.262,30.44-24.188,45.769c-2.007,3.88-1.933,8.064,1.221,11.494
	c3.01,3.273,6.787,2.831,10.469,1.306c8.007-3.315,14.067-9.238,19.161-15.896c6.824-8.918,12.837-18.452,19.419-27.562
	c1.275-1.766,3.563-2.801,5.861-4.532c2.257,6.697-1.794,10.221-4.56,13.626c-8.401,10.339-16.842,20.734-26.243,30.131
	c-4.263,4.26-10.611,6.767-16.416,9.043c-4.695,1.841-12.829-2.95-15.494-7.817c-6.108-11.151-5.327-22.7-1.659-34.223
	c6.314-19.837,17.526-37.306,27.406-55.406c7.807-14.301,15.741-28.531,23.551-42.83c0.509-0.932,0.431-2.184,0.661-3.487
	c-6.992,0-13.817-0.068-20.641,0.033c-2.728,0.04-5.612-0.431-5.41-3.415c0.089-1.32,3.423-3.337,5.376-3.451
	c7.139-0.417,14.331-0.446,21.471-0.044c3.38,0.189,5.282-1.16,6.681-3.688c8.755-15.82,17.435-31.682,26.146-47.525
	c3.381-6.147,6.761-12.295,10.198-18.41c0.362-0.645,1.114-1.069,1.761-1.667c3.922,8.257,12.083,9.503,20.274,3.383
	c1.928-1.44,3.834-2.908,5.75-4.363C2191.172,500.058,2191.464,500.336,2191.757,500.615z"/>
<path fill-rule="evenodd" clip-rule="evenodd" d="M1191.734,585.5c-13.279,11.94-26.559,23.881-39.838,35.821
	c-0.545-0.461-1.09-0.921-1.635-1.381c2.2-3.164,3.903-6.88,6.69-9.392c10.081-9.087,20.14-18.28,30.941-26.464
	c11.416-8.65,23.342-16.759,35.698-23.986c6.257-3.661,13.81-5.841,21.039-6.904c7.695-1.132,11.84,4.751,8.856,12.065
	c-1.667,4.084-4.922,7.932-8.373,10.782c-5.337,4.409-8.058,4.497-12.096-0.8c-8.436-11.064-15.865-7.602-24.241-0.267
	c-10.294,9.014-17.313,20.783-16.689,35.169c0.261,6.021,2.199,12.204,4.512,17.848c4.202,10.259,9.896,19.927,13.81,30.279
	c6.799,17.988-1.487,36.592-15.76,47.775c-8.882,6.959-18.638,11.8-29.577,14.235c-15.726,3.502-30.995,2.51-43.373-8.715
	c-4.34-3.937-7.102-10.584-8.592-16.495c-3.483-13.815,2.84-25.5,10.567-36.275c4.603-6.419,11.742-9.543,19.305-10.674
	c7.983-1.193,14.783,7.2,12.929,15.119c-2.15,9.185-7.072,14.324-13.532,13.581c-2.331-0.269-4.584-1.573-6.779-2.603
	c-5.438-2.551-10.192-1.146-13.755,3.716c-11.359,15.504-1.559,31.153,12.14,36.072c17.232,6.188,34.261-3.341,43.021-18.663
	c6.7-11.72,9.94-24.512,9.827-38.005c-0.128-15.098-0.413-30.201-1.029-45.287c-0.379-9.259,3.437-17.137,6.984-25.193
	C1192.436,586.407,1192.084,585.954,1191.734,585.5z"/>
<path fill-rule="evenodd" clip-rule="evenodd" d="M2642.804,584.559c-11.359,10.669-22.61,21.458-34.189,31.882
	c-1.83,1.647-3.765,5.603-9.242,2.344c8.071-7.674,15.122-15.311,23.122-21.773c13.216-10.674,26.666-21.153,40.758-30.61
	c8.129-5.454,17.624-8.943,26.698-12.868c2.414-1.045,5.587-0.81,8.335-0.496c4.347,0.496,7.479,5.037,6.508,9.408
	c-1.266,5.698-3.893,10.922-9.033,13.93c-6.343,3.71-7.506,4.144-12.257-1.322c-0.218-0.251-0.474-0.469-0.709-0.704
	c-7.483-7.48-10.197-8.485-19.088-2.538c-13.362,8.938-21.358,21.933-21.512,38.205c-0.06,6.347,2.958,12.915,5.407,19.051
	c4.464,11.181,10.479,21.816,14.129,33.229c4.186,13.085,0.223,25.449-8.569,35.707c-14.463,16.875-33.36,24.544-55.368,23.811
	c-15.891-0.529-29.094-8.307-33.344-22.001c-4.715-15.188,0.017-28.735,9.786-40.674c4.683-5.723,10.339-9.71,18.204-10.609
	c8.586-0.981,16.246,6.154,14.301,14.439c-0.586,2.496-1.682,4.96-2.98,7.184c-3.838,6.565-8.959,8.174-15.896,5.278
	c-9.475-3.953-17.48,0.358-19.954,10.629c-3.27,13.577,6.525,24.357,17.346,28.18c15.785,5.575,34.415-4.792,41.808-18.276
	c9.211-16.802,11.493-34.638,10.746-53.21c-0.35-8.711-1.572-17.389-1.852-26.1c-0.314-9.774,1.474-19.212,6.477-27.836
	c0.608-1.051,0.941-2.261,1.401-3.397C2643.491,585.132,2643.147,584.845,2642.804,584.559z"/>
<path fill-rule="evenodd" clip-rule="evenodd" d="M646.755,585.558c-13.32,11.896-26.641,23.792-39.961,35.688
	c-0.476-0.39-0.951-0.78-1.427-1.17c1.213-1.925,2.149-4.109,3.682-5.732c15.542-16.468,32.694-31.068,51.738-43.325
	c8.189-5.271,16.67-10.161,25.352-14.565c3.944-2.001,8.653-3.062,13.1-3.388c9.012-0.659,11.129,5.068,9.309,12.107
	c-1.396,5.4-4.935,9.836-10.235,12.681c-4.253,2.282-7.687,0.731-9.996-2.268c-7.903-10.261-13.859-9.077-23.146-1.938
	c-11.517,8.853-18.638,21.456-18.015,36.52c0.279,6.763,3.021,13.612,5.587,20.048c3.73,9.355,8.979,18.132,12.383,27.586
	c5.775,16.047,2.101,30.679-9.615,42.88c-14.543,15.146-32.801,21.998-53.597,21.106c-13.823-0.593-25.847-6.106-31.654-19.461
	c-5.196-11.951-3.058-24.088,3.173-35.405c5.216-9.474,12.251-17.143,23.572-18.28c3.705-0.372,8.491,1.427,11.4,3.875
	c3.677,3.097,5.04,8.002,2.261,12.952c-0.96,1.71-1.785,3.495-2.748,5.203c-3.257,5.776-9.184,7.635-15.06,4.757
	c-9.567-4.686-17.612-0.482-19.991,10.194c-4.165,18.697,9.174,29.021,24.561,30.119c16.393,1.171,27.693-7.685,35.358-21.54
	c5.279-9.544,8.433-19.979,8.893-30.739c0.53-12.428-0.477-24.92-0.794-37.384c-0.348-13.632-0.373-27.214,7.322-39.489
	C647.722,586.245,647.238,585.901,646.755,585.558z"/>
<path fill-rule="evenodd" clip-rule="evenodd" d="M1713.516,722.726c-2.926-7.803-11.395-9.514-19.705-4.227
	c-1.99,1.267-4.065,2.4-6.828,2.812c3.936-6.266,8.002-12.453,11.783-18.811c10.586-17.801,21.354-35.505,31.477-53.568
	c8.438-15.057,16.288-30.457,23.944-45.931c3.155-6.376,5.422-13.25,7.504-20.077c1.085-3.557,0.433-7.878-3.241-9.589
	c-2.344-1.091-5.984-0.743-8.551,0.242c-7.925,3.044-12.753,10.02-17.834,16.217c-7.123,8.688-13.272,18.175-19.894,27.279
	c-1.069,1.471-2.425,2.731-3.648,4.089c-0.566-0.125-1.133-0.25-1.699-0.376c0.064-1.449-0.42-3.278,0.279-4.288
	c6.649-9.61,12.954-19.542,20.476-28.437c5.425-6.417,12.049-12.13,19.016-16.866c12.883-8.76,20.964,1.436,21.293,12.796
	c0.308,10.643-2.303,20.78-5.475,30.77c-3.101,9.759-6.623,19.384-9.931,29.078c-0.285,0.837-0.353,1.749-0.689,3.502
	c9.421-12.364,18.116-24.101,27.16-35.563c11.384-14.427,23.66-28.1,38.704-38.806c3.88-2.762,9.163-4.352,13.967-4.833
	c7.757-0.776,10.486,6.013,9.547,12.124c-1.648,10.722-5.93,20.052-15.361,26.041c-1.919,1.219-5.15,0.993-7.623,0.56
	c-3.273-0.574-3.524-3.458-3.325-6.291c0.093-1.326,0.151-2.686-0.03-3.994c-0.699-5.035-4.131-7.109-8.32-4.374
	c-4.505,2.94-9.008,6.271-12.493,10.312c-8.342,9.669-16.649,19.462-23.943,29.921c-12.007,17.218-23.459,34.84-34.647,52.604
	C1727.713,697.286,1720.839,710.059,1713.516,722.726z"/>
<path fill-rule="evenodd" clip-rule="evenodd" d="M1926.86,659.682c-2.514,4.123-4.48,8.158-7.181,11.622
	c-7.316,9.388-14.493,18.952-22.576,27.655c-8.261,8.896-17.92,16.297-29.525,20.651c-15.393,5.775-30.152,0.563-36.556-15.976
	c-3.07-7.931-5.421-16.566-5.836-24.994c-0.562-11.417,2.524-22.625,6.928-33.287c6.135-14.858,15.195-28.001,26.434-39.176
	c10.731-10.671,22.524-20.505,36.578-26.871c7.811-3.538,15.609-7.44,23.825-9.64c6.439-1.724,14.107-3.062,19.014,4.015
	c1.866,2.691,3.56,6.086,3.746,9.253c0.686,11.646-3.725,21.739-11,30.638c-14.023,17.154-32.475,27.188-53.594,32.592
	c-5.024,1.286-10.416,1.085-15.599,1.842c-1.507,0.221-3.528,1.01-4.209,2.181c-8.015,13.789-15.586,27.716-18.649,43.727
	c-1.596,8.344,0.709,15.236,6.425,20.408c5.815,5.262,13.319,4.731,20.312,1.685c13.296-5.794,23.519-15.483,32.569-26.514
	c5.402-6.586,10.663-13.293,15.828-20.066c1.567-2.056,2.711-4.464,3.855-6.806C1919.269,659.31,1921.719,658.126,1926.86,659.682z
	 M1861.383,642.77c0.357,0.436,0.715,0.872,1.072,1.308c11.353-0.53,22.188-3.064,31.955-9.23
	c9.97-6.292,17.923-14.81,25.021-24.063c5.743-7.487,11.553-15.049,13.742-24.582c1.011-4.398,2.42-9.738-1.517-12.377
	c-2.748-1.843-8.384-1.895-11.414-0.278c-6.543,3.487-13.066,7.789-18.091,13.165c-7.903,8.454-14.871,17.847-21.662,27.256
	C1873.752,623.302,1867.723,633.147,1861.383,642.77z"/>
<path fill-rule="evenodd" clip-rule="evenodd" d="M1852.515,261.971c-5.804,8.083-11.337,16.327-17.427,24.138
	c-7.886,10.116-16.585,19.599-27.285,26.8c-9.641,6.489-19.705,12.111-32.255,9.095c-11.723-2.817-16.876-11.766-20.606-21.776
	c-6.768-18.16-3.67-35.951,2.97-53.464c5.798-15.291,15.323-28.359,26.649-39.655c15.978-15.937,34.333-28.942,56.339-35.522
	c5.073-1.517,10.903-2.153,16.079-1.312c9.37,1.523,12.06,11.252,10.445,20.619c-3.689,21.404-18.368,34.252-35.735,44.416
	c-8.193,4.795-17.352,8.143-26.388,11.223c-5.157,1.758-10.931,1.955-16.46,2.28c-3.062,0.18-4.96,0.584-6.377,3.777
	c-5.073,11.434-11.09,22.477-15.658,34.097c-2.467,6.275-4.26,12.873-1.261,20.396c4.097,10.277,15.357,15.292,25.55,10.176
	c23.067-11.58,38.408-30.747,51.66-51.981C1846.521,259.241,1847.279,258.641,1852.515,261.971z M1787.038,244.588
	c1.933,0.185,2.728,0.357,3.513,0.321c18.771-0.86,33.949-9.351,46.204-22.956c9.714-10.786,18.84-22.098,23.369-36.42
	c1.354-4.281,0.595-7.941-2.013-10.359c-1.79-1.659-5.682-1.747-8.521-1.452c-9.146,0.95-15.542,7.376-21.036,13.507
	c-9.678,10.802-18.19,22.685-26.76,34.429C1796.584,228.8,1792.181,236.53,1787.038,244.588z"/>
<path fill-rule="evenodd" clip-rule="evenodd" d="M2046.692,659.798c-2.193,3.838-3.883,7.836-6.473,11.126
	c-7.61,9.67-14.946,19.683-23.567,28.396c-10.474,10.585-22.038,20.363-37.671,22.429c-8.61,1.138-16.42-1.668-22.067-8.428
	c-7.008-8.389-10.273-18.442-11.016-29.268c-1.813-26.437,8.416-48.476,24.723-68.478c12.887-15.808,28.499-28.179,46.42-37.523
	c8.881-4.631,18.07-8.856,28.604-9.231c14.685-0.523,17.426,10.827,15.935,20.663c-3.097,20.421-16.75,32.993-32.959,43.437
	c-9.638,6.211-19.971,11.095-31.351,13.207c-4.976,0.924-10.102,1.026-15.088,1.9c-1.858,0.326-4.336,1.342-5.137,2.807
	c-7.019,12.828-15.141,25.257-17.545,40.05c-0.733,4.506-1.129,9.417-0.131,13.789c2.8,12.271,14.959,16.665,25.875,11.201
	c7.51-3.759,14.63-8.69,21.065-14.115c11.393-9.604,20.367-21.49,28.854-33.688c1.11-1.596,1.738-3.519,2.751-5.192
	C2039.637,660.033,2041.751,657.846,2046.692,659.798z M1980.974,643.947c11.962-0.248,21.918-2.682,31.291-7.852
	c10.154-5.602,18.212-13.602,25.227-22.502c7.017-8.904,13.959-17.99,16.609-29.573c0.903-3.951,0.889-7.437-1.824-9.92
	c-2.858-2.617-6.961-3.376-10.506-1.137c-6.424,4.058-13.519,7.633-18.661,13.01c-8.599,8.992-16.273,18.959-23.604,29.049
	C1993.027,623.941,1987.55,633.588,1980.974,643.947z"/>
<path fill-rule="evenodd" clip-rule="evenodd" d="M401.668,660.131c-1.808,3.302-3.151,6.986-5.503,9.84
	c-9.516,11.546-18.958,23.197-29.188,34.097c-6.955,7.41-15.675,12.812-25.55,15.98c-17.285,5.547-28.854-2.212-35.294-16.846
	c-7.074-16.078-6.418-32.693-1.359-49.38c4.895-16.142,13.812-29.673,24.803-42.291c12.263-14.079,26.752-25.141,43.112-33.695
	c9.495-4.965,19.383-9.479,30.682-8.963c7.13,0.325,12.478,4.185,13.375,11.216c1.127,8.819-0.245,17.482-4.826,25.169
	c-10.705,17.959-27.007,29.046-46.021,36.765c-9.533,3.871-19.289,6.086-29.599,6.005c-1.144-0.009-2.802,1.032-3.369,2.058
	c-7.479,13.517-15.657,26.701-18.354,42.354c-1.383,8.027-1.114,15.885,5.182,21.258c8.141,6.947,16.413,5.415,24.758,0.783
	c14.887-8.262,26.661-20.166,36.488-34.006c4.255-5.992,8.311-12.134,12.758-17.979c1.41-1.853,3.797-2.962,5.736-4.411
	C400.223,658.767,400.945,659.448,401.668,660.131z M336.218,642.449c0.37,0.489,0.74,0.978,1.11,1.466
	c11.205,0.009,21.77-2.659,31.469-8.419c12.03-7.146,21.205-17.363,28.98-28.73c4.449-6.504,8.695-13.47,11.281-20.842
	c3.004-8.562,0.326-13.628-7.389-13.873c-2.636-0.084-5.889,0.509-7.875,2.056c-7.631,5.943-16.09,11.426-21.987,18.865
	C359.2,608.875,347.996,625.89,336.218,642.449z"/>
<path fill-rule="evenodd" clip-rule="evenodd" d="M2170.553,616.805c0-1.697-0.688-3.863,0.104-5.022
	c10.885-15.962,21.653-32.3,39.521-41.345c8.275-4.189,15.472-2.014,20.107,6.354c7.593,13.708,4.843,27.21-1.248,40.37
	c-8.72,18.841-22.348,34.41-34.683,50.837c-7.828,10.424-15.966,20.692-18.605,34.027c-1.222,6.171,0.451,12.158,4.761,14.756
	c3.76,2.267,9.569,1.582,13.885-3.081c8.71-9.41,16.894-19.312,25.163-29.123c2.361-2.801,4.166-6.067,6.456-8.938
	c0.668-0.837,2.129-1.043,3.227-1.538c0.228,1.27,1.075,2.903,0.578,3.746c-2.46,4.18-5.031,8.34-8.011,12.157
	c-8.059,10.326-16.239,20.458-27.325,27.983c-10.653,7.233-20.688,3.05-25.692-7.262c-6.766-13.939-5.181-27.663,0.352-41.42
	c7.092-17.635,19.147-32.09,30.047-47.322c7.486-10.463,14.361-21.375,21.207-32.276c1.488-2.369,2.387-5.574,2.28-8.346
	c-0.103-2.685-1.159-6.61-3.055-7.614c-2.188-1.158-6.161-0.522-8.65,0.736c-12.02,6.072-19.136,17.195-27.079,27.415
	c-3.895,5.012-7.708,10.087-11.559,15.134C2171.738,616.958,2171.146,616.882,2170.553,616.805z"/>
<path fill-rule="evenodd" clip-rule="evenodd" d="M1059.484,540.927c-1,0-2.068,0.228-2.983-0.052
	c-1.544-0.471-2.989-1.264-4.476-1.921c1.269-0.834,2.509-2.342,3.812-2.398c16.594-0.727,24.494-12.965,33.053-24.487
	c4.173-5.616,8.676-11.003,16.863-10.144c7.146,0.75,10.175,5.983,7.24,12.624c-3.987,9.02-11.434,14.463-19.883,18.623
	C1082.551,538.37,1071.143,540.286,1059.484,540.927z"/>
<path fill-rule="evenodd" clip-rule="evenodd" d="M2277.877,509.988c0,11.911-7.357,22.54-17.988,25.989
	c-8.529,2.767-13.01-0.401-13.012-9.199c-0.002-11.79,8.439-23.242,19.109-25.924
	C2275.634,498.429,2277.877,500.152,2277.877,509.988z"/>
</svg>
