<?xml version="1.0" encoding="utf-8"?>
<!-- Generator: Adobe Illustrator 15.0.0, SVG Export Plug-In . SVG Version: 6.00 Build 0)  -->
<!DOCTYPE svg PUBLIC "-//W3C//DTD SVG 1.1//EN" "http://www.w3.org/Graphics/SVG/1.1/DTD/svg11.dtd">
<svg version="1.1" id="Layer_1" xmlns="http://www.w3.org/2000/svg" xmlns:xlink="http://www.w3.org/1999/xlink" x="0px" y="0px"
	 width="819.384px" height="591.184px" viewBox="-114.278 114.154 819.384 591.184"
	 enable-background="new -114.278 114.154 819.384 591.184" xml:space="preserve">
<path d="M276.653,432.002c-0.15,2.676-0.677,4.73-2.609,5.738c0.517,6.688,4.343,6.389,6.785,10.432
	c10.22-0.311,16.123-7.619,24.009-10.432c7.115-2.539,13.754,3.143,19.833-1.566c3.624-2.805,3.114-8.77,6.263-11.996
	c4.269-4.375,14.031-3.998,17.225-9.389c18.85,1.615,32.32,6.414,34.448-17.214c10.698-3.317,20.146-13.709,31.838-14.605
	c-0.46,19.255,16.038,33.271,34.446,33.384c-0.168,4.488-8.379,31.557-10.438,32.861c-0.771,1.268-44.279,15.496-49.062,17.213
	c-0.154,8.309,1.967,8.936,4.176,13.562c15.467-0.129,24.846-7.176,38.101-9.389c-0.741,6.135-5.53,24.232-8.873,27.646
	c-2.286,3.826-8.417,5.297-10.96,9.389c-4.588,7.381,3.312,17.371,2.61,19.822c-2.396,8.365-6.37,13.83-6.263,25.559
	c1.218,0.871,2.436,1.74,3.652,2.609c2.503,2.4,8.031,0.477,10.96,0c1.138-3.869,6.619-23.211,8.873-25.561
	c2.657-2.77,6.093-2.826,8.351-6.26c6.686-6.941-2.295-13.988,0-21.387c2.25-7.254,6.566-15.977,7.83-23.994
	c7.703,4.912,10.16,16.705,15.658,23.994c1.457,1.932,4.449,1.867,5.74,4.174c6.143-0.1,6.596-2.396,10.438-4.174
	c0.086-10.717-18.361-41.031-24.008-43.814c0.396-14.875,9.879-24.564,10.959-38.08c4.701,0.982,6.627,4.705,10.439,6.26
	c11.641,4.748,33.37,0.58,37.057-7.824c4.017,0.867,12.793,18.357,14.614,22.43c1.695,3.787-4.333,10.533-1.565,16.17
	c2.084,4.244,7.056,9.508,10.959,11.998c1.74,0.348,3.48,0.695,5.22,1.043c5.87,4.867,5.169,17.318,12.004,21.387
	c-6.339,11.232,1.961,16.441,6.263,23.473c1.914,0,3.828,0,5.741,0c1.194,11.266,10.536,19.326,14.614,28.168
	c8.104,0.146,8.51-2.006,13.048-4.174c-0.147-13.334-8.004-19.832-12.004-29.211c-1.273-2.984,3.894-14.338-1.044-20.865
	c-2.407-3.182-7.502-1.836-10.961-4.172c-3.967-2.68-9.703-15.926-10.438-21.387c11.971-5.949,2.744-26.605-4.176-30.254
	c-3.342-1.762-10.139-0.291-13.048-2.607c-2.337-1.301-11.458-20.353-12.005-23.996c19.89,0.482,33.847-15.078,33.404-34.427
	c13.09,1.338,23.58,9.975,37.057,10.432c4.228,13.821,11.345,30.496,13.048,45.381c10.769,3.471,8.026,2.199,16.18-2.607
	c-0.133-13.383-6.366-22.605-8.351-34.428c9.588,0.562,14.523,5.908,24.009,6.259c0.336,4.797,1.918,4.209,2.61,8.346
	c2.824,0.813,4.57,2.843,6.785,3.651c5.791,2.113,12.142-1.468,14.613-2.608c2.695-1.243,21.717,5.649,22.443,6.782
	c4.623,0.201,7.439-0.234,9.395-2.609c4.027-2.021,2.273-7.937,1.566-11.997c-7.889-3.133-17.844-8.412-27.141-9.389
	c-2.646-7.585-19.355-18.366-23.487-7.824c-8.002-2.608-16.007-5.217-24.009-7.825c-0.522,0-1.045,0-1.566,0
	c1.562-3.28,23.544-16.566,28.184-17.213c0.502-2.095,0.797-3.261,2.61-4.173c0.119-7.642-2.094-7.654-4.175-11.998
	c-20.982,0.161-31.43,19.209-47.496,25.038c-8.04,2.917-29.486-9.833-38.623-10.433c1.027-4.615,4.816-5.903,6.785-9.389
	c6.035-10.69-0.877-37.463-9.395-40.687c4.479-9.829,24.875-8.599,30.271-17.735c4.256,0.667,5.967,2.939,9.395,4.173
	c11.92,4.289,22.746-9.712,22.443-19.822c4.266-1.561,8.307-5.043,12.004-6.781c2.997-1.409,5.932,1.184,6.785,1.564
	c10.823,4.837,19.744-6.756,19.833-14.605c5.249-1.852,27.597-10.739,24.009-19.821c-1.232-3.124-4.671-4.135-6.263-6.781
	c-10.36,0.747-15.418,7.702-22.965,10.433c-1.854,0.67-15.632-0.114-18.79,0c-1.876,4.922-5.897,5.092-6.264,11.997
	c-3.875,1.414-12.685,4.839-14.613,8.346c-3.742-0.801-6.028-3.016-9.396-4.173c-11.343-3.897-22.624,9.979-22.442,19.822
	c-5.461,2.073-29.536,13.352-31.838,17.214c-3.429-2.373-2.955-10.982-5.22-14.605c-6.17-9.871-17.087-17.345-33.403-17.214
	c4-12.865,8.002-25.734,12.004-38.6c18.927-1.087,33.384-14.069,50.627-15.648c0.348-3.478,0.695-6.956,1.044-10.433
	c-1.673-1.013-3.347-2.234-4.175-4.173c-16.722,0.185-26.426,8.644-40.711,10.432c1.39-9.43,7.347-16.753,7.828-26.603
	c5.163-2.008,17.379-9.949,12.004-20.865c-0.871-1.771-3.943-3.523-2.609-7.824c2.498-8.054,6.458-14.713,6.263-25.56
	c-1.218-0.869-2.437-1.739-3.653-2.608c-1.512-1.605-7.889-1.65-9.396,0c-5.063,2.385-9.838,20.143-10.438,26.603
	c-6.436,0.408-6.494,4.656-10.961,6.781c-0.348,3.999-0.695,7.999-1.043,11.997c0.738,2.023,4.454,5.041,3.653,7.824
	c-1.781,6.182-5.974,11.984-6.263,19.822c-0.87,0-1.74,0-2.61,0c-1.911-9.838-12.881-18.456-18.79-25.038
	c-4.91,0.252-5.465,1.881-9.395,2.608c-0.349,3.477-0.696,6.955-1.043,10.432c1.188,2.676,22.513,32.563,24.009,33.384
	c-1.362,13.991-9.093,29.661-13.57,42.251c-0.348,0-0.696,0-1.044,0c-7.054-12.62-42.717-7.575-46.452,4.173
	c-0.87,0-1.739,0-2.608,0c-0.557-4.369-9.201-21.488-12.004-23.995c1.242-3.802,3.657-7.612,5.219-10.954
	c1.369-2.933-1.213-5.46-1.566-6.26c-4.701-10.62-5.232-16.696-20.877-16.17c-1.193-7.247-7.236-11.331-9.395-17.213
	c-0.98-2.673,0.699-6.694,1.043-7.824c2.722-8.954-6.088-16.922-13.047-17.214c-1.64-5.644-11.393-23.783-15.658-26.603
	c-1.455-1.426-5.357-1.231-8.352-1.043c-0.869,1.217-1.74,2.434-2.609,3.651c-7.463,8.439,14.644,28.706,7.83,33.384
	c-0.574,12.54,2.775,21.076,14.613,20.865c2.625,6.929,8.203,13.663,10.961,20.343c1.109,2.686-2.063,6.155-2.609,7.824
	c-3.994,12.214,9.357,21.779,18.268,22.43c1.456,7.903,8.525,21.612,13.57,27.124c-17.281,7.386-32.189,12.993-31.838,37.557
	c-12.2-1.721-22.862-8.511-34.448-10.433c-1.462-8.345-12.012-42.909-17.224-46.424c-2.502-2.401-8.03-0.477-10.961,0
	c-0.5,2.095-0.797,3.261-2.609,4.173c0.596,13.674,9.111,22.234,9.395,35.471c-9.553-2.713-18.539-7.703-29.228-8.868
	c-1.423-5.258-10.345-17.903-19.834-13.562c-2.19,1.002-6.145,6.007-10.438,4.173c-5.695-2.433-20.644-11.016-26.618-4.173
	c-2.745,1.426-2.912,5.024-2.609,9.389c6.651,4.538,15.826,10.19,26.619,10.433c2.271,6.129,10.366,16.382,22.442,11.998
	c1.576-0.572,3.069-3.845,6.264-2.608c8.369,3.242,18.339,7.863,28.185,9.389c0,0.87,0,1.739,0,2.608
	c-11.249,2.288-18.416,14.498-28.185,18.778c-0.854,28.521,27.421,1.111,33.404-3.13c4.72-3.346,13.41-4.895,15.657-10.432
	c6.38,0.378,29.882,7.109,33.404,10.432c1.66,1.289-9.088,18.877-5.219,30.776c2.198,6.761,8.245,12.285,9.395,18.257
	c-10.52,2.056-18.065,11.656-28.184,13.562c-1.617,1.74-10.636-5.072-17.224-2.608c-7.679,2.872-14.248,9.724-14.615,19.822
	c-7.387,0.962-11.541,6.813-17.224,9.389c-2.817,1.278-4.501-1.247-5.219-1.565c-11.952-5.286-21.256,6.522-21.399,14.606
	C290.436,423.285,285.331,430.834,276.653,432.002z M322.061,413.744c8.97-1.803,15.498-10.336,25.054-11.997
	c-0.252-8.296,2.959-13.138,7.829-16.17c3.777-4.105,14.958-3.036,17.224,1.565c11.638-0.957,27.728-14.603,38.623-18.779
	c0-0.174,0-0.348,0-0.521c-9.715-8.462-20.935-26.334-9.396-42.773c1.642-2.338,5.253-3.133,6.785-5.738
	c3.28-2.239-39.457-16.262-43.843-14.083c-12.247,6.083-29.057,26.555-43.842,25.038c0-2.26,0-4.521,0-6.781
	c12.22-3.826,20.513-18.834,33.403-21.387c0-0.869,0-1.739,0-2.608c-9.45-0.72-41.402-16.229-45.408-8.867
	c-15.219,0.26-9.885-4.89-17.225-9.389c-1.284-2.15-19.678-7.801-24.009-7.825c-0.642-2.133-0.625-2.301-2.609-3.129
	c0.673-11.668,27.296-1.933,29.229,1.564c2.07-0.896,5.362-3.529,6.785-5.216c11.399-0.266,10.573,4.932,15.658,10.433
	c1.431,2.412,35.06,13.392,40.188,13.562c-0.828-6.601-8.34-32.085-12.004-35.992c0.193-4.48,1.321-3.968,2.609-6.781
	c14.415,0.028,12.177,40.086,21.398,46.425c0.922,1.5,39.057,14.157,43.32,14.605c-0.555-3.762-4.962-9.707-2.609-14.605
	c7.377-15.366,14.477-25.376,36.014-23.995c-4.335-6.926-14.148-32.087-19.833-35.471c-3.464-4.959-21.525-5.6-14.614-19.822
	c1.691-3.48-1.07-3.679,2.61-5.216c-2.073-5.423-9.22-22.054-13.048-25.559c-1.762-1.577-4.308,0.225-6.785-1.043
	c-2.827-1.446-4.161-5.319-6.785-6.781c-0.305-5.387-0.536-9.941,2.609-11.997c-0.932-6.756-13.942-24.266-12.004-27.646
	c0.521-1.391,1.043-2.782,1.565-4.173c7.243-0.002,17.569,19.9,18.269,26.603c9.127,0.458,8.316,6.13,13.569,9.389
	c-0.104,4.606-3.688,8.281-2.608,11.997c2.201,7.58,10.43,13.561,12.004,22.43c14.848-0.152,11.541,4.413,19.832,7.824
	c0.519,6.797,2.416,14.946-4.176,17.213c0.65,15.212,13.762,23.689,16.18,37.036c0.349-0.348,0.697-0.696,1.044-1.043
	c3.558-2.231,4.536-8.39,7.829-10.954c11.062-8.612,39.093-5.74,41.232,8.346c0.522,0,1.044,0,1.566,0
	c2.009-7.1,17.54-48.158,15.658-53.206c-2.397-6.427-9.603-11.459-13.049-17.213c-2.949-4.925-5.599-13.393-10.959-15.649
	c0.017-5.209,1.318-5.142,2.609-8.346c6.014,0.278,23.186,24.833,24.009,30.776c0.87,0,1.74,0,2.609,0
	c0.909-9.479,14.854-32.032,5.219-37.035c-0.478-9.613,3.59-15.821,12.004-16.17c0.865-9.346,5.509-18.814,8.351-26.603
	c4.067-0.037,5.393,0.642,7.83,1.565c-0.111,10.884-5.475,17.973-7.83,26.603c0,0,3.636,10.508,3.654,15.649
	c-3.522,2.415-5.215,5.941-10.438,6.781c-2.25,11.79-9.786,22.63-10.439,35.47c17.116-0.627,26.637-11.617,44.887-11.476
	c0.348,0.348,0.695,0.695,1.043,1.043c0.095,2.521,0.144,4.051-1.043,5.216c-1.375,2.792-44.154,17.091-50.627,17.214
	c-0.293,6.799-11.447,43.335-14.614,45.381c0,0.869,0,1.739,0,2.608c20-7.699,33.556,6.04,40.188,19.822
	c2.004,4.164-1.275,8.584-1.566,11.998c15.318-3.03,25.263-17.697,41.234-19.822c2.021-8.761,6.27-24.216,19.832-19.822
	c2.91,0.942,5.752,5.256,10.439,3.651c5.375-1.84,9.617-6.984,16.18-7.825c-0.195-8.677,13.451-19.914,18.268-10.432
	c3.547-0.648,20.639-9.585,22.966-11.998c3.405,0.438,4.241,1.615,6.784,2.608c-0.521,2.26-1.043,4.521-1.565,6.781
	c-5.372,0.643-19.081,6.364-21.399,10.433c-1.871,1.115-2.474,6.891-2.609,9.389c-3.506,1.181-13.745,7.758-17.225,1.043
	c-7.168,1.427-11.099,6.864-18.789,7.824c-0.394,1.583,0.051,7.214-1.045,9.389c-1.809,3.595-6.262,5.468-7.828,9.389
	c-3.653,0.348-7.309,0.696-10.961,1.043c-2.818-0.94-5.584-5.339-10.439-3.651c-12.641,4.393-25.068,17.191-38.623,19.822
	c2.148,3.488,8.2,4.768,10.96,7.824c9.928,10.992,8.103,41.785-9.396,42.773c5.347,9.042,40.633,8.552,46.453,17.214
	c14.508-3.399,32.108-26.621,49.062-26.603c0.348,0.348,0.696,0.696,1.044,1.043c-0.348,2.26-0.696,4.521-1.044,6.781
	c-1.533,1.887-33.316,20.925-36.013,21.386c0,0.174,0,0.348,0,0.522c11.133,3.651,22.27,7.303,33.403,10.954
	c3.917,1.101,6.298-2.806,8.873-3.651c2.783,0.348,5.568,0.695,8.351,1.043c0.935,2.427,4.345,7.504,6.264,9.389
	c2.018,3.188,17.388,4.843,21.921,6.781c2.187,0.935,2.97,3.2,5.219,4.173c-0.292,3.893-1.276,3.76-2.61,6.26
	c-5.178,0.05-24.014-5.292-25.574-7.824c-3.639,0.914-9.493,7.487-13.57,4.173c-7.98-0.663-6.79-7.375-11.482-10.954
	c-6.807-6.5-22.385-3.978-29.228-10.433c-0.522,0-1.044,0-1.565,0c0.063,4.357,7.725,33.327,9.395,34.426
	c-0.027,4.787-1.105,5.023-2.609,7.824c-1.393,0-2.785,0-4.176,0c-5.881-11.271-12.4-30.11-13.048-44.859
	c-13.466-5.307-33.536-13.866-48.019-16.17c3.614,17.429-4.64,28.785-15.657,35.992c-4.384,2.868-16.617,2.535-18.79-1.565
	c-0.87,0-1.74,0-2.609,0c6.262,11.996,12.527,23.996,18.79,35.992c21.224-1.076,29.308,20.672,14.614,27.646
	c2.504,8.043,9.671,14.033,10.439,22.949c5.387,1.426,11.832,3.787,14.613,7.824c1.539,2.234-0.814,2.146,1.566,3.652
	c0.01,4.129-1.389,7.951-4.176,9.389c3.287,10.504,13.045,17.682,13.049,30.775c-0.348,0.348-0.696,0.697-1.045,1.043
	c-2.522,0.094-4.053,0.145-5.219-1.043c-7.994-3.932-8.6-20.707-14.613-25.561c-4.295-3.463-7.883-1.469-10.961-6.258
	c-5.775-6.148,3.002-9.814,0-16.17c-2.125-4.498-9.537-19.217-13.047-22.43c-2.199-3.504-9.539-3.285-12.004-6.781
	c-5.029-7.129,0.467-16.836,0-18.258c-3.281-2.676-15.062-26.684-15.658-31.818c-5.39,1.053-4.883,5.236-8.352,7.824
	c-8.973,6.693-29.413,7.139-38.102,0c-1.565-3.129-3.131-6.26-4.697-9.39c-6.025,7.343-11.896,43.265-16.702,46.425
	c1.797,4.617,23.698,37.979,26.619,39.643c-0.542,2.977-1.07,2.23-1.565,5.217c-4.65,0.816-3.179,0.828-7.83,0
	c-0.789-4.324-16.49-27.93-19.832-30.254c0-0.348,0-0.695,0-1.043c-1.576,0.902-12.556,32.133-13.049,35.471
	c-0.619,4.199,6.484,7.672,3.654,14.604c-1.822,4.463-6.502,4.619-9.395,7.824c-2.896,2.559-8.789,21.238-10.438,25.561
	c-3.794-0.027-4.454-0.682-6.785-1.564c0.435-9.775,12.315-26.729,2.61-31.818c-0.404-5.193-0.796-9.188,3.131-10.434
	c0-0.869,0-1.738,0-2.607c3.824-0.859,2.979-2.379,7.829-2.607c3.927-12.787,11.485-26.439,13.048-40.166c-0.174,0-0.348,0-0.521,0
	c-3.613,3.113-35.639,12.125-43.32,11.998c-0.348-0.35-0.696-0.695-1.044-1.043c-0.229-3.938-0.075-5.646,2.608-6.781
	c1.676-2.666,40.512-13.736,46.452-14.605c0.396-7.646,9.554-35.611,13.048-41.73c-4.93-1.77-11.641,2.473-17.224-0.521
	c-11.358-6.091-26.79-20.853-17.224-36.513c0-0.174,0-0.348,0-0.522c-3.724,0.553-39.152,18.596-41.233,20.865
	c-0.174,0-0.349,0-0.522,0c-0.695,3.651-1.392,7.303-2.088,10.954c-1.668,3.027-6.315,4.705-7.828,7.824
	c-6.427,0.348-14.684,1.594-17.225-4.173c-6.474,1.166-19.973,7.485-24.009,11.997c-1.749,1.693-3.382,6.494-3.653,9.391
	c-3.707,1.301-12.9,7.273-16.18,1.043c-11.053,2.037-17.257,12.328-29.229,10.953c-0.348-1.738-0.695-3.479-1.044-5.215
	c6.636-4.598,15.921-12.062,25.054-13.562c0.014-4.674,0.966-6.062,1.565-9.389C307.918,413.016,318.725,407.342,322.061,413.744z"
	/>
<path d="M496.909,336.544c5.055,0.318,48.878,14.355,50.104,16.17c14.201,0.208,18.851-23.841,12.004-35.992
	c-1.728-3.067-5.737-5.893-7.828-8.868c-17.969,2.833-37.471,23.845-54.281,26.081C496.909,334.806,496.909,335.674,496.909,336.544
	z M551.19,314.115c3.505,1.554,5.415,6.698,5.219,11.997c0.522,0,1.044,0,1.565,0c0.131,11.254-2.664,15.994-6.785,22.43
	c-16.202-0.981-28.932-12.179-44.885-13.041C508.465,331.426,549.021,312.229,551.19,314.115z"/>
<path d="M519.352,393.922c10.164,9.528,28.43-13.028,30.795-17.213c0.348-4.521,0.695-9.042,1.044-13.562
	c-7.909-1.086-16.105-4.771-22.443-7.824c-3.131-0.348-6.264-0.695-9.396-1.043c-6.984-3.551-17.344-5.328-24.53-9.389
	C494.405,346.409,516.494,391.36,519.352,393.922z M547.014,365.755c0.104,18.218-11.739,16.865-17.224,25.56
	c-17.089,0.183-16.735-30.213-27.662-37.036c0-0.521,0-1.043,0-1.564C518.692,353.96,530.729,364.88,547.014,365.755z"/>
<path d="M492.733,323.503c0,0.869,0,1.739,0,2.608c15.774-4.855,35.122-22.999,50.628-25.038
	c2.63-16.802-6.666-22.532-17.225-29.211c-2.318-1.467-11.166-4.843-14.613-1.564C505.202,274.372,499.505,318.909,492.733,323.503z
	 M520.918,273.428c6.62,2.193,13.788,7.513,17.225,13.041c1.625,2.614,0.102,5.059,2.609,6.781
	c-0.4,4.93-33.117,22.733-39.667,23.473c0.027-3.04,10.464-40.883,11.482-42.251C513.327,273.45,518.708,272.695,520.918,273.428z"
	/>
<path d="M531.355,205.617c1.844-0.947,0.637,0.304,1.566-1.565c-0.521,0-1.044,0-1.566,0
	C531.355,204.574,531.355,205.096,531.355,205.617z"/>
<path d="M494.299,364.711c-2.654-4.314-7.041-8.646-7.828-14.605c-7.408,4.324-11.961,47.031-18.791,51.641
	c1.131,2.474,2.076,1.84,2.61,5.216c6.486,1.348,15.026,9.015,26.619,5.216c4.688-1.537,8.22-5.312,13.048-6.259
	c0.413-2.723,0.797-3.035,2.609-4.173c-3.479-8.698-9.699-18.851-14.614-26.603C495.805,371.755,496.404,368.134,494.299,364.711z
	 M507.348,399.14c-0.774,5.287-17.324,13.995-26.619,9.389c-2.473-1.227-5.053-4.028-7.828-5.216
	c1.121-14.768,11.212-26.544,12.004-41.208c1.68-0.733,1.021-0.525,2.088-1.565C492.604,369.941,499.432,393.422,507.348,399.14z"/>
<path d="M467.682,295.857c4.553,7.406,12.92,18.677,14.613,27.646c1.559-0.675,0.626,0.022,1.566-1.043
	c1.728-1.769,17.029-50.064,17.224-54.771c-3.261-1.823-6.091-6.101-9.396-7.824c-5.762-3.007-24.629,0.2-28.185,2.608
	c-2.899,1.965-4.489,6.304-7.829,7.825c0.785,4.858,4.567,8.412,6.785,11.997C465.193,286.711,464.961,291.434,467.682,295.857z
	 M460.895,274.472c0.269-6.256,15.461-15.887,24.01-11.998c4.23,1.925,8.339,4.952,12.005,6.781
	c-2.765,14.482-12.528,28.038-13.048,43.816c-1.044,0-2.088,0-3.133,0C479.805,306.564,465.158,276.934,460.895,274.472z"/>
<path d="M440.018,399.14c2.509,1.679,4.591,0.074,6.264,2.608c3.857,0.189,10.596,0.975,12.004-1.565
	c2.206-1.358,17.243-47.951,17.225-54.249c-17.627,3.486-30.67,20.828-49.062,23.995
	C422.729,384.251,431.721,393.584,440.018,399.14z M469.246,354.28c-1.536,15.359-11.118,28.587-13.57,43.295
	c-10.162,0.088-18.246-3.191-22.442-8.868c-1.942-2.627-1.454-6.571-4.177-8.346c0-2.086,0-4.173,0-6.26
	C430.012,372.55,465.973,354.627,469.246,354.28z"/>
<path d="M455.676,293.25c-2.846-4.681-3.322-14.532-7.828-17.213c-3.776-2.247-9.14,1.856-10.438,2.608
	c-12.978,7.507-19.245,11.715-18.79,32.862c19.764,1.504,36.434,14.919,55.848,17.214
	C472.746,318.417,460.971,301.958,455.676,293.25z M422.794,308.898c-0.633-10.92,3.386-20.751,12.005-26.603
	c2.488-1.69,4.629-0.023,6.264-2.608c10.757,0.75,16.359,34.136,25.574,39.643c0,1.043,0,2.087,0,3.13
	C456.465,318.658,433.734,309.05,422.794,308.898z"/>
<path d="M470.29,336.544c-6.272-0.402-48.424-13.164-50.104-15.649c-11.209-0.18-16.897,20.799-10.961,31.819
	c2.117,3.929,5.836,6.968,8.352,10.432c17.977-0.801,33.741-21.172,51.671-23.473C469.596,338.63,469.942,337.587,470.29,336.544z
	 M421.229,359.496c-12.631-2.437-8.373-23.204-6.784-33.384c11.737-2.698,32.651,9.796,45.407,11.998
	C455.816,345.01,426.223,351.354,421.229,359.496z"/>
<path d="M88.758,695.943c1.399-4.475,2.775-7.562,2.609-14.605c6.885,0.01,19.415-10.547,14.614-19.822
	c-0.744-1.436-3.523-3.461-4.175-5.215c-1.828-4.916,2.366-7.791,2.608-11.998c4.187,0.68,27.352,31.934,29.229,37.035
	c5.604,0.059,6.061-1.268,9.395-2.607c-0.219-6.689-26.786-42.898-31.838-46.424c2.176-17.104,20.473-19.07,26.619-31.818
	c13.821,2.58,25.527,14.434,35.492,21.385c-1.464,19.119-13.224,33.459-13.048,54.25c1.657,0.865,1.821,0.758,2.608,2.607
	c4.041,0.186,4.991-0.029,6.264-2.607c1.979-1.256,11.823-37.023,12.004-42.252c3.613,1.479,3.364,4.758,6.785,6.26
	c-0.843,4.568-4.801,11.684-1.565,17.213c1.143,1.955,2.39,0.775,3.131,4.174c5.397,1.096,7.286,3.783,15.658,3.65
	c0.226,13.482,14.26,12.949,18.79,22.951c5.238,0.064,5.896-1.014,8.873-2.607c-0.172-7.666-2.508-6.938-5.219-10.955
	c-1.713-2.535-2.162-11.951-2.61-14.604c-2.903-1.549-5.067-3.23-9.396-3.652c3.481-9.203-1.041-17.869-7.828-21.385
	c-3.225-1.672-7.998,0.906-10.438-1.043c-2.993-1.834-3.042-5.305-6.785-6.781c0-0.869,0-1.74,0-2.607
	c17.05-0.029,32.714-1.586,48.019-1.566c0.865-1.658,0.76-1.82,2.609-2.607c-0.768-13.195-25.095-6.781-37.579-6.781
	c-4.706,0-15.296-1.473-17.224,1.564c-9.49-0.67-21.341-34.096-17.224-38.6c3.183-3.482,9.633-3.422,13.569-6.26
	c3.251-2.344,6.989-6.203,10.438-8.346c2.848-1.77,7.445,0.068,9.395-2.607c2.263,0,4.523,0,6.785,0
	c1.57,0.951,33.478,38.984,34.448,41.207c5.476,0.004,5.923-1.365,9.395-2.607c-0.333-5.771-26.28-36.59-30.794-38.6
	c0-0.174,0-0.35,0-0.521c1.039-1.074,0.847-0.385,1.566-2.086c3.479,0,6.959,0,10.438,0c0.332,2.086-0.041,1.551,1.044,2.607
	c4.664,11.178,23.799,3.955,26.619-3.65c13.085,1.621,14.394-5.051,28.184-6.781c0.539-4.084,0.539-5.305,0-9.389
	c-3.85-0.561-12.129,2.074-16.18,0c-3.271-1.676-8.615-4.963-12.004,0c-4.932-0.91-5.578-3.49-8.873-5.217
	c-9.317-4.881-19.554,5.146-20.354,10.434c-3.018-0.168-4.154-0.416-5.22,1.564c-1.739,0-3.479,0-5.219,0
	c4.953-12.215,22.442-27.98,22.443-42.25c-1.411-0.922-1.935-1.385-2.609-3.131c-1.74,0-3.479,0-5.22,0
	c-2.498,1.482-27.025,42.461-27.662,46.424c-5.741,0.871-11.483,1.74-17.224,2.607c-9.21-2.268-19.154-7.596-29.229-8.867
	c-0.232-12.902-3.112-39.139,5.219-43.816c1.345-2.332,46.199-19.172,51.672-19.822c0.083-4.439-0.57-6.748-1.565-9.389
	c-6.407,0.068-41.529,11.816-43.321,14.605c-0.521,0-1.044,0-1.564,0c0.765-2.311,2.053-6.652,4.175-7.824
	c1.788-2.561,5.128-0.959,7.829-2.607c10.658-6.504,7.638-14.109,5.219-25.561c4.026-0.666,3.664-2.391,6.785-3.65
	c-0.221-5.258-2.537-14.709,0-16.17c0.004-5.473-1.367-5.92-2.61-9.389c-6.541-0.273-22.356,18.24-17.224,21.387
	c-1.208,5.666-9.251,5.51-12.004,10.432c-8.171,4.617,2.411,16.887,1.043,20.344c-1.397,3.537-3.608,5.225-3.653,10.432
	c-5.125-1.008-27.339-31.311-30.794-37.035c-4.992,0.039-4.863,1.248-7.829,2.609c0.036,8.205,26.065,41.871,31.838,44.857
	c-0.931,19.74-19.466,22.176-25.053,35.992c-6.861-0.338-12.871-6.145-17.224-9.389c-3.234-2.41-7.484-1.943-10.96-4.172
	c-10.583-6.789-9.111-22.6-3.654-34.428c2.644-5.73,0.881-23.24,5.219-26.082c-0.017-5.209-1.318-5.143-2.609-8.346
	c-2.262,0-4.523,0-6.784,0c-3.562,12.607-9.167,29.861-9.396,43.816c-3.425-0.314-4.867-1.879-5.219-5.217
	c-2.418-2.371,4.752-6.67,1.566-11.998c-1.356-2.268-3.699-4.746-4.176-7.824c-5.3-1.197-7.058-4.225-14.613-4.172
	c-0.237-13.725-11.476-9.074-15.658-18.258c-2.262,0-4.523,0-6.785,0c-0.866,1.656-0.759,1.82-2.609,2.607l5.22,20.865
	c1.249,1.816,4.011,2.076,5.219,4.174c0.87,0,1.74,0,2.609,0c-2.125,13.172,4.945,25.082,18.79,21.387
	c1.483,2.789,4.59,6.039,6.785,8.346c-10.145,5.859-38.398,0.305-46.452,7.303c-1.693,0.674-1.25,0.777-2.609,1.564
	c0.039,4.99,1.248,4.861,2.609,7.824c18.971-0.145,35.804-5.283,55.325-5.215c2.616,3.947,6.169,7.512,8.352,11.998
	c3.898,8.016,0.782,19.861,6.263,26.08c-2.527,6.162-24.789,17.525-35.491,17.215c-9.798-14.885-25.386-27.277-37.058-40.688
	c-20.495,2.523,19.765,35.822,22.442,42.252c0.349,0,0.696,0,1.044,0c-1.213,1.959-8.124,2.174-10.438,2.607
	c-5.386-11.438-25.006-9.664-29.229,1.566c-2.564-0.455-1.567,0.385-2.609-1.566c-6.271-0.109-22.61,5.377-25.054,7.824
	c-1.741,0.916-1.292,1.479-2.608,2.607c0.348,1.912,0.695,3.826,1.044,5.738c2.539,0.775,9.654,2.336,12.004,0
	c2.028,0.73,5.816,3.375,6.785,5.217c6.398-0.023,9.194-2.281,12.525-5.217c7.651,13.145,25.066,5.549,28.706-5.738
	c3.291,0.121,6.5,0.051,8.352-1.043c0.174,0,0.348,0,0.521,0c-0.887,4.85-19.218,36.607-22.442,38.602
	c0.292,3.893,1.276,3.76,2.609,6.26c2.751,0.154,5.486,0.258,6.785-1.043c3.281-1.83,25.776-40.287,26.619-45.381
	c8.623-0.086,32.646,3.979,38.101,9.389c0.518,0.334,3.614,28.25,3.132,29.211c-1.333,2.652-4.394,9.971-6.785,11.998
	c-7.828,8.707-41.634,10.111-50.627,18.256c-1.427,1.455-1.232,5.355-1.044,8.348c7.146,0.893,39.57-7.957,43.842-11.998
	c0.87,0,1.74,0,2.609,0c-1.139,2.236-1.897,6.531-4.175,7.824c-1.794,2.742-8.125,2.771-10.438,5.215
	c-8.833,4.678-3.038,15.719-1.565,22.43c-2.977,0.543-2.23,1.07-5.22,1.566c-1.367,7.139-2.568,14.59-2.609,23.994
	c1.659,0.865,1.822,0.76,2.609,2.607C83.777,705.201,79.105,697.035,88.758,695.943z M74.144,689.162
	c-0.001-4.041,1.188-6.291,3.653-7.824c1.057-1.914,1.276-1.609,4.175-1.564c1.626-3.932-0.741-8.801-4.175-10.434
	c0.521-3.129,1.043-6.26,1.565-9.389c2.392-1.26,4.072-4.09,6.263-5.215c2.459-1.264,5.032,0.494,6.785-1.043
	c3.465-1.922,7.417-14.031,7.829-18.779c-16.353,5.389-32.709,10.781-49.062,16.17c0-1.043,0-2.086,0-3.129
	c17.223-5.736,34.449-11.477,51.671-17.213c0.847-5.195,5.756-9.68,6.785-14.084c0.985-4.213-1.01-27.422-1.044-34.949
	c-13.062-0.492-24.934-7.441-36.014-10.434c-0.552-0.148-6.544,1.545-9.396,1.564c-9.22,15.475-18.442,30.951-27.663,46.426
	c-0.869,0-1.739,0-2.608,0c1.751-5.969,22.55-42.029,26.619-43.816c0-0.521,0-1.043,0-1.564c-4.118-0.104-18.045,0.98-19.833,2.607
	c-2.543,1.256-4.058,4.678-4.177,8.346c-2.878,0.279-3.253,0.389-4.175,2.609c-9.625,0.211-10.644-2.209-15.658-5.738
	c0-0.869,0-1.74,0-2.609c-1.738,0-3.479,0-5.219,0c0,1.393,0,2.783,0,4.174c-1.549,0.562-3.196,1.445-4.175,2.607
	c-2.262-0.348-4.524-0.695-6.785-1.043c-0.348-1.391-0.695-2.781-1.044-4.172c-2.958,0.523-9.458,2.486-12.004,0
	c-0.522,0-1.044,0-1.566,0c0.916-1.742,1.479-1.293,2.61-2.609c9.078,0.24,12.189-2.652,16.702-6.779
	c1.82,1.58,3.65,1.623,4.697,4.172c8.366-0.396,11.656-16.914,22.442-10.953c1.929,1.064,0.793,2.416,4.176,3.129
	c0.348,1.738,0.695,3.479,1.044,5.217c7.653-0.869,15.311-1.74,22.965-2.607c-1.782-4.66-30.136-36.299-34.448-38.602
	c0-1.391,0-2.781,0-4.172c12.041,7.908,21.565,23.238,31.838,33.383c2.35,2.32,1.913,5.184,5.219,6.781
	c8.734,7.65,36.219-13.781,42.276-16.17c-0.258-3.654-6.365-33.629-7.829-35.992c-2.305-3.719-6.916-5.025-7.829-10.432
	c-20.206,0.113-37.27,5.264-57.413,5.215c0-0.869,0-1.738,0-2.607c17.744-1.74,35.493-3.479,53.237-5.217
	c-1.485-7.152-9.205-10.902-12.004-17.213c-2.883-0.031-3.139-0.379-4.175,1.564c-9.731-0.172-9.024-6.066-14.614-9.389
	c0.248-6.316,2.789-7.662,3.132-13.562c-3.131-0.348-6.264-0.695-9.395-1.043c-0.769-3.566-2.903-6.807,0-9.91
	c-2.57-2.268-4.771-4.436-5.22-8.869c3.516,0.688,3.863,2.527,6.264,4.174c0,0.869,0,1.738,0,2.607
	c7.803-0.189,6.968,1.775,10.961,4.174c0.167,3.014,0.415,4.15-1.566,5.215c0,0.869,0,1.74,0,2.609
	c14.143,2.789,9.273-1.85,19.833,7.822c0.285,4.355,0.153,7.979-2.609,9.391c0.873,9.047,8.981,10.682,10.438,18.256
	c3.068-1.691,11.335-43.234,12.004-50.076c0.87,0,1.74,0,2.61,0c-0.191,5.57-8.874,47.973-10.438,49.033
	c0.053,22.59,32.679,23.113,38.623,34.428c5.478-0.91,25.083-21.273,27.662-26.604c1.369-2.828,5.182-12.027,4.176-13.041
	c-0.81-3.986-28.158-38.811-31.838-41.207c0-1.393,0-2.783,0-4.174c6.9,4.611,19.361,22.07,25.053,29.211
	c1.383,1.734,6.357,13.293,9.396,11.998c2.67-1.139,5.239-17.363,9.396-19.822c-1.302-2.598-4.469-4.295-5.742-6.781
	c-3.455-6.746,4.323-11.814,5.742-14.605c2.956-0.348,5.916-0.693,8.872-1.043c0.522-1.391,1.044-2.781,1.566-4.172
	c-1.255-1.871-4.558-5.98-1.566-9.389c3.841-4.375,8.194-0.871,9.396-10.434c0.87,0,1.74,0,2.609,0
	c0.219,3.879-0.125,6.58-2.609,7.824c0.396,2.68,2.124,5.744,4.175,6.781c-0.87,1.74-1.74,3.479-2.608,5.217
	c-1.178,2.162-5.986,3.459-8.352,4.172c0.525,3.223,3.067,5.783,5.741,6.781c0.123,3.131,0.773,5.615,0,6.26
	c-0.5,12.58-8.544,7.105-14.614,11.998c-4.807,2.773-3.777,13.133-8.351,16.17c0,0.869,0,1.738,0,2.607
	c12.127-4.562,36.444-16.51,49.062-17.213c0,0.869,0,1.738,0,2.607c-5.536,0.82-47.432,15.693-50.104,18.258
	c-10.792,6.189-5.527,37.123-5.22,51.641c11.239,0.957,21.827,6.504,31.839,9.389c6.609-0.869,13.223-1.738,19.833-2.607
	c2.334-14.914,23.739-31.914,26.618-46.426c0.87,0,1.74,0,2.61,0c-1.13,13.463-23.158,31.627-25.575,44.859
	c6.61-0.348,13.224-0.695,19.833-1.043c1.005-5.902,5.117-6.949,8.352-10.432c7.771-0.4,13.771,1.494,14.613,7.824
	c2.514-1.377,4.909-2.574,6.264-5.217c4.886,0.223,14.551,5.576,17.224,1.043c3.474,0.148,3.494,0.717,5.741,1.566
	c0,0.174,0,0.348,0,0.521c-0.521,0.174-1.044,0.348-1.566,0.521c-3.423,4.902-12.462-0.566-15.658,8.346
	c-5.884-0.412-5.898-3.32-10.96-4.174c-0.348,2.26-0.695,4.521-1.044,6.781c-2.428,0.852-4.39,2.77-5.219,5.217
	c-7.839,0.412-15.023,0.658-16.18-7.826c-7.48,0.35-14.962,0.697-22.443,1.043c0.829,4.789,29.514,36.941,34.448,41.73
	c-1.392,0.174-2.784,0.348-4.176,0.521c-0.797-4.287-30.27-37.779-34.447-39.643c-9.017-7.879-40.146,16.25-46.452,18.777
	c0.152,4.379,5.004,28.623,6.785,31.818c2.385,4.281,7.252,7.08,9.395,11.998c6.015-1.133,52.206-4.348,55.325-1.564
	c0.522,0,1.044,0,1.565,0c-1.48,2.236-47.958,4.301-54.281,4.174c5.636,11.057,10.975,16.688,26.619,18.256
	c1.302,3.705,7.278,12.893,1.044,16.17c0.652,3.234,1.58,2.568,2.609,5.217c1.843-0.947,0.636,0.305,1.565-1.564
	c3.743,0.125,5.719,1.488,6.785,4.172c2.222,1.998-0.573,6.941,0,7.826c2.545,3.916,7.125,6.4,7.829,11.996
	c-6.429-1.006-5.602-6.162-9.395-9.389c-2.189-1.861-6.184-0.066-7.829-2.607c-3.455-1.672-2.595-6.084-1.565-9.391
	c-1.659-0.865-1.822-0.76-2.61-2.607c-2.564,0.455-1.567-0.385-2.608,1.564c-6.771,0.311-10.949-0.932-13.048-5.217
	c-6.129-3.545,0.19-12.016,1.043-16.17c-5.255-2.914-6.365-10.742-12.004-13.041c-0.175-0.52-0.349-1.043-0.522-1.564
	c-5.757,7.039-10.84,38.482-15.136,49.033c-0.522,0-1.044,0-1.566,0c0.161-5.865,11.636-47.73,13.57-49.033
	c-0.426-20.035-29.286-17.363-37.057-30.254c-9.881,1.547-31.68,26.955-34.448,37.035c2.848,1.854,32.338,41.816,32.882,44.859
	c-4.664-0.74-31.262-36.494-32.882-42.252c-5.594,3.084-5.208,14.119-9.396,18.779c0.976,7.752,11.797,16.885-1.565,22.43
	c-1.289,1.189-7.935,2.15-9.396,2.607c-0.043,3.393,0.939,6.658,3.133,7.824c-2.577,6.666-6.665,4.326-9.396,7.824
	c-1.439,1.844-0.972,4.191-2.609,5.738c-1.049,1.066-0.517,0.742-2.609,1.043C74.757,695.531,78.735,692.217,74.144,689.162z"/>
<path d="M215.065,551.453c0.174,0,0.348,0,0.521,0c0-0.521,0-1.043,0-1.564c-0.348,0-0.695,0-1.044,0
	C214.717,550.41,214.892,550.932,215.065,551.453z"/>
<path d="M141.473,546.238c0.808,4.762,4.704,4.787,6.785,7.822c0.349,1.74,0.696,3.479,1.044,5.217
	c8.524-1.217,17.052-2.436,25.575-3.65c0-1.391,0-2.783,0-4.174c-7.544-0.543-12.289-4.33-19.833-5.215c0-6.607,0-13.215,0-19.822
	c-2.378,0.004-3.069-0.086-4.175,1.043C145.167,530.797,146.975,542.812,141.473,546.238z M150.868,548.846
	c0.112,0.18,10.601,3.559,12.004,4.695c-4.001,0.174-8.003,0.348-12.004,0.52c-0.748-3.469-3.133-4.389-4.175-6.779
	c0.87-2.957,1.74-5.912,2.608-8.869C152.759,540.82,148.598,545.201,150.868,548.846z"/>
<path d="M145.648,575.449c4.228,2.244,10.886,11.396,13.048,15.646c1.392-0.348,2.784-0.693,4.175-1.043
	c-2.049-5.418-4.273-11.539-4.175-18.777c4.669-0.705,10.841-4.816,13.569-7.824c1.14-1.523,0.353-1.248,0-4.174
	c-6.971,0.926-14.345,2.697-22.965,2.607C149.155,568.883,146.456,569.846,145.648,575.449z M153.478,570.232
	c0.87,2.955,1.739,5.91,2.608,8.867c-0.348,0-0.695,0-1.044,0c-1.06-1.654-2.331-2.764-4.175-3.65
	c-0.097-3.375,0.422-6.645,2.61-7.824c0.984-1.693,5.634-2.902,7.829-3.131C160.243,567.643,156.484,569.27,153.478,570.232z"/>
<path d="M136.253,588.488c4.047,0.709,14.198,5.83,15.658,9.389c3.473-0.145,3.494-0.715,5.741-1.564
	c-0.73-3.533-11.802-17.4-14.614-19.822c-0.991-0.65-9.223,1.461-14.614,1.564c-0.754,4.566-4.686,16.246-8.351,18.258
	c0.146,3.471,0.716,3.492,1.565,5.738C126.282,601.191,134.577,592.465,136.253,588.488z M131.034,581.707
	c3.979-0.201,9.037-1.145,10.439,0c2.372,1.123,3.739,4.291,5.219,6.26c0,0.174,0,0.35,0,0.521c-3.667-0.34-7.557-2.576-8.873-5.215
	c-3.131,2.26-6.264,4.52-9.396,6.779C129.294,587.271,130.164,584.49,131.034,581.707z"/>
<path d="M137.819,547.281c3.034-6.703,8.449-15.062,8.873-23.475c-1.74,0-3.48,0-5.22,0c-2.646,4.854-8.526,6.574-10.438,11.998
	c-6.863-1.5-11.452-8.234-18.79-9.389c-0.348,0.348-0.696,0.695-1.044,1.043c1.412,9.6,11.092,13.678,14.614,21.387
	C130.77,548.258,132.889,547.062,137.819,547.281z M121.639,536.326c0-0.174,0-0.348,0-0.521c3.084,0.729,6.759,2.352,7.829,5.217
	c4.026-1.559,6.075-4.625,9.396-6.781c-1.047,3.822-2.94,6.18-4.175,9.389C125.506,543.926,125.526,540.85,121.639,536.326z"/>
<path d="M125.815,578.057c-1.24-5.664-5.886-5.541-6.785-11.998c-7.623,0.539-14.938,2.676-24.009,2.609c0,1.391,0,2.781,0,4.172
	c5.741,1.74,11.482,3.479,17.224,5.217c-0.1,7.02-0.167,15.072,1.566,19.822C121.954,596.186,119.737,581.852,125.815,578.057z
	 M107.025,572.84c1.564-2.387,5.747-0.906,7.829-2.607c2.226,1.242,3.044,3.746,5.219,5.215c0.043,5.172-1.206,7.33-3.132,10.432
	C114.093,577.045,117.872,573.701,107.025,572.84z"/>
<path d="M119.03,556.67c0.69-1.697,3.561-2.539,4.175-3.652c0.82-1.484-12.464-18.973-14.614-20.344
	c-1.522-1.139-1.248-0.352-4.176,0c0.967,7.037,4.201,12.115,4.176,20.344c-6.594,1.176-9.638,6.66-16.18,7.824
	c0,1.738,0,3.479,0,5.217c0.966-0.021,24.366-2.166,25.053-2.607C119.697,562.012,117.891,559.465,119.03,556.67z M102.851,560.842
	c1.548-2.775,7.792-5.719,10.96-6.781c-0.87-3.477-1.74-6.955-2.61-10.432c3.025,1.586,3.911,4.152,6.263,6.26
	c-0.516,4.555-2.235,4.838-2.608,9.389c-3.351-0.266-6.625-0.576-7.829,1.564C105.634,560.842,104.242,560.842,102.851,560.842z"/>
<path d="M2.117,357.932c-0.355-7.383-2.812-6.483-5.22-10.433c0-3.129,0-6.26,0-9.389c-0.021-17.354,3.902-22.967,13.569-30.254
	c4.028-3.036,10.618-6.245,17.225-2.608c4.533,2.495,6.385,8.943,10.438,11.476c0.109,10.35-3.914,10.133-6.784,16.17
	c-4.694,0.255-4.898,0.352-9.396,0c-0.875-2.257-1.692-2.061-2.609-4.173c-2.13-2.112-0.427-5.075,0-7.825
	c2.565-0.455,1.568,0.386,2.609-1.565c1.044,0,2.088,0,3.132,0c0.675,1.557-0.021,0.626,1.044,1.565
	c-0.911,2.525-2.915,4.138-5.22,5.216c0.22,5.526,8.364,7.473,10.439,2.608c3.141-1.671,2.94-7.026,2.609-11.998
	c-2.187-1.082-4.276-2.899-5.22-5.216c-7.821-0.353-13.19,0.252-15.658,5.216c-8.062,4.22,0.008,19.33,3.653,21.387
	c1.895,3.462,15.766,4.028,19.833,1.565c9.94-6.022,10.308-15.063,9.395-28.168c6.272,0.98,11.389,6.816,12.004,13.562
	c8.973,1.206,33.442,8.817,37.058,17.213c4.439-0.241,3.793-1.411,6.785-2.608c-0.737-10.392-18.393-13.557-25.054-18.779
	c-0.767-0.601-6.354-10.949-6.784-11.997c-30.28,0.766-58.619-35.7-25.054-51.641c5.245-2.491,11.14,3.398,14.614,4.173
	c0.176,2.737,0.611,4.232,2.609,5.216c0.396,6.348,0.14,10.301-4.176,11.998c-1.427,1.545-6.404,1.597-7.828,0
	c-1.694-0.674-1.25-0.777-2.61-1.565c-0.093-2.521-0.143-4.051,1.044-5.216c1.055-1.913,0.027-1.14,2.61-1.564
	c-0.059,4.192,0.62,5.847,1.564,8.346c4.441-0.241,3.793-1.411,6.786-2.608c0.155-8.308-1.967-8.935-4.176-13.562
	c-5.839-0.036-6.165-0.047-12.004,0c-0.729,2.027-3.377,5.813-5.219,6.781c-0.183,11.856,3.986,11.837,7.828,18.257
	c37.461,1.494,26.694-38.108,6.785-38.079c0.916-3.139,10.542-7.658,12.005-5.216c8.759,0.587,13.359-0.846,13.048-9.389
	c8.772-3.479,17.357-11.958,26.618-13.562c0.038-4.064-0.642-5.388-1.564-7.825c-10.341,1.077-17.987,9.679-26.098,13.562
	c-0.174,0-0.348,0-0.521,0c-2.983,0.998-4.392-1.262-5.219-1.565c-2.609,0.521-5.221,1.043-7.829,1.565
	c-1.53,2.854-3.228,4.637-3.653,8.868c-12.211,2.381-22.739,18.536-38.624,9.389c-4.739-2.729-9.021-3.625-12.004-7.824
	c-7.137-10.049,3.949-33.428,14.614-29.211c7.141,2.823,7.416,7.342,12.004,10.433c-1.132,3.375-2.393,6.564-5.219,8.346
	c0,0.348,0,0.695,0,1.043c-5.805-0.035-5.972-1.769-9.396-3.651c0.675-1.557-0.021-0.625,1.044-1.565c0-0.521,0-1.043,0-1.564
	c3.203,0.359,5.26,2.233,6.785,4.173c2.258-0.874,2.062-1.691,4.176-2.608c-0.104-4.233-0.987-4.602-1.565-7.824
	c-9.622-2.145-5.85-1.981-15.658,0c-0.779,3.155-4.802,7.352-2.609,13.041c4.867,12.63,24.313,8.063,29.229-1.043
	c11.623-21.536-31.383-38.266-38.623-17.214c-2.371-1.419-1.834-7.184-1.565-10.954c1.393-0.348,2.784-0.695,4.175-1.043
	c0.455-2.564-0.386-1.567,1.566-2.608c0.408-7.576-0.714-11.584-5.741-13.562c-0.267-3.348-0.578-6.62,1.565-7.824
	c0.098-8.116,0.516-18.254-1.565-23.995c-1.74,0-3.479,0-5.22,0c-2.473,9.677-2.732,22.852-2.609,33.384c-0.87,0-1.74,0-2.609,0
	c-0.31,2.999-4.645,6.863-2.609,10.432c0.961,1.687,4.41,3.713,5.219,5.216c1.288,2.393-0.756,7.434-1.044,8.346
	c0,4.521,0,9.042,0,13.562c-0.019,8.925-5.66,17.145-10.96,20.865c-12.175,8.544-37.101-5.117-29.229-18.779
	c1.988-3.452,5.725-5.046,8.351-7.824c7.625-0.117,7.826,2.844,11.482,6.26c-0.349,1.912-0.696,3.825-1.044,5.738
	c-1.739,0.869-3.479,1.739-5.22,2.608c-0.947-1.842,0.305-0.635-1.565-1.565c0-0.869,0-1.739,0-2.608
	c1.392-0.348,2.784-0.696,4.176-1.043c0-1.912,0-3.825,0-5.738c-3.756-0.998-6.488-0.553-10.439,0
	c-0.291,2.531-1.231,4.77-3.131,5.738c0.133,8.897,5.253,7.952,8.352,13.041c22.947,0.958,19.581-24.494,5.22-30.254
	c-2.822-1.132-8.079,0.503-9.396,1.043c-16.024,6.579-16.229,10.333-14.613,30.776c-0.349,0-0.696,0-1.043,0
	c-1.167-2.279-6.552-5.304-9.396-5.738c0.097-4.01-0.515-6.117-2.609-7.824c-3.83-4.161-9.046,0.38-14.614-2.608
	c-3.124-1.676-19.935-12.123-21.399-14.605c-4.519-0.6-10.855,1.342-6.785,5.216c3.105,6.288,20.273,11.46,25.575,17.214
	c1.33,1.433-0.116,3.259,1.044,5.216c1.419,2.395,5.382,3.229,6.785,5.738c3.018,0.167,4.155,0.415,5.219-1.565
	c11.714,0.868,17.275,12.458,27.663,14.605c1.501,6.695,10.601,18.343,3.131,26.603c-2.773,3.068-8.769,4.314-10.96,7.824
	c-13.731,0.617-18.879-3.41-18.268-17.214c2.087-1.738,4.176-3.478,6.263-5.216c1.914,0.348,3.828,0.696,5.741,1.043
	c0.797,2.122,0.457,1.838,2.61,2.608c0,1.912,0,3.825,0,5.738c-1.393,0-2.784,0-4.177,0c-0.183-4.23-1.212-4.171-2.608-6.781
	c-1.74,0.348-3.48,0.695-5.22,1.043c0,3.651,0,7.303,0,10.954c11.104,5.993,10.657,2.949,19.833-1.565
	c0.545-6.164,1.739-11.987-2.609-15.649c-5.184-10.078-22.354-3.11-26.619,2.608c-10.212,13.69,5.246,30.441,17.224,31.819
	c0,0.174,0,0.348,0,0.521c-2.302,1.409-8.804,6.442-13.048,4.695c-0.695-0.287-2.908-2.924-5.74-1.565
	c-1.901,0.912-2.046,2.588-5.22,3.13c-0.332,2.086,0.041,1.552-1.044,2.608c-0.399,5.629-22.144,17.646-28.184,18.257
	c-0.623,2.285-1.106,4.367-1.044,7.824c14.94-0.105,21.926-12.499,31.838-14.605c1.841-0.391,0.353,1.343,1.044,1.565
	c4.68,1.507,9.029-1.056,12.004-1.565c0.688-3.497,2.111-4.021,2.609-7.824c15.332-4.809,29.633-20.784,45.407-3.651
	c2.238,2.431,8.79,9.866,5.22,17.214c-1.95,4.012-6.113,6.445-7.829,10.432c-6.042,0.403-11.047,1.643-14.614-2.608
	c-2.912-1.528-2.933-5.804-2.61-10.433c1.412-0.921,1.935-1.385,2.61-3.13c2.609,0,5.22,0,7.829,0c0,1.913,0,3.826,0,5.738
	c-2.464-0.354-3.979-1.102-5.22-2.608c-2.258,0.874-2.062,1.691-4.176,2.608c0.313,3.615,1.022,3.137,1.566,6.259
	c5.415,1.018,9.112,0.77,14.614,0c0.355-2.93,0.211-2.8,2.609-3.651c0.771-19.965-9.601-16.83-22.965-14.605
	c-4.251,7.79-8.408,19.195,0,26.603c8.203,9.245,27.324,5.324,31.838-4.173c0.521,0,1.044,0,1.566,0
	c-0.043,13.338-2.253,8.165-5.22,14.605c0,0.348,0,0.696,0,1.043c-1.682,7.107,2.144,9.007,3.653,11.997
	c2.966,5.873-0.772,28.186,0,34.427c1.914,0,3.828,0,5.741,0c0-0.348,0-0.695,0-1.043C0.684,388.033-9.515,368.259,2.117,357.932z
	 M-9.366,377.752c0.374-9.765,0.4-17.681-5.74-20.865c0.98-4.977,3.898-5.247,5.74-8.346c0.349-6.606,0.696-13.215,1.044-19.821
	c-0.869,0-1.739,0-2.608,0c-3.77,10.168-18.62,19.31-30.272,10.954c-2.544-1.825-2.548-5.276-5.74-6.781
	c-0.463-13.757,1.041-11.982,8.351-19.822c9.006-0.108,9.341,2.869,14.614,5.216c0.688,12.319-5.515,13.985-13.57,10.433
	c0-0.87,0-1.739,0-2.608c2.883-0.03,3.14-0.38,4.175,1.565c3.275-0.234,3.01-0.735,5.219-1.565c0.058-5.602-1.269-6.057-2.608-9.389
	c-4.959-0.232-8.329,0.063-10.439,2.608c-1.939,1.111-1.19,2.019-3.131,3.13c-0.256,14.048,4.205,8.92,8.352,15.649
	c24.191,0.832,29.51-24.352,14.613-35.992c-16.432-12.841-46.344,3.626-50.627,16.17c-3.965,0.451-6.093,1.744-7.829-1.565
	c-8.438,0.65-24.634,12.109-31.838,16.17c-0.948-1.842,0.305-0.635-1.564-1.565c0-0.174,0-0.348,0-0.521
	c4.69-4.345,24.024-15.586,30.794-16.692c-0.936-1.841-1.474-4.051,1.044-6.26c0.916-1.741,1.479-1.291,2.608-2.608
	c4.026-0.277,5.751-0.321,6.785,2.608c6.264-3.129,12.527-6.26,18.79-9.389c0-0.521,0-1.043,0-1.565
	c-4.511-0.938-12.679-1.087-16.18-3.651c-8.282-6.067-10.852-23.943,0-29.211c4.333-7.445,15.493,0.964,18.79,2.608
	c0.765,6.625,1.823,12.232-4.176,14.606c-1.428,1.544-6.404,1.597-7.829,0c-2.431-1.2-1.959-2.892-4.177-4.173
	c0.542-2.975,1.07-2.23,1.566-5.216c0.87,0,1.74,0,2.61,0c-0.095,2.521-0.145,4.051,1.043,5.216c0,0.521,0,1.043,0,1.565
	c5.212-0.017,5.146-1.318,8.351-2.608c-0.039-6.488-2.332-6.971-4.175-10.954c-8.135-0.369-11.765,0.45-14.614,5.216
	c-4.854,4.927,1.702,16.898,4.175,18.778c9.519,7.236,24.843-0.594,29.229-6.781c11.661-16.449-8.662-32.346-17.225-38.079
	c-2.942-1.97-14-8.613-16.18-5.216c-4.117,0.177-6.567-0.494-7.829-3.129c-2.145-1.38-1.093-4.438-2.608-6.26
	c-1.437-2.972-22.64-15.792-26.619-17.213c0.948-1.842-0.305-0.635,1.565-1.565c1.122-0.691,24.708,12.649,26.098,16.17
	c2.564-0.455,1.567,0.385,2.608-1.565c8.273-0.601,11.297,1.565,10.96,9.389c7.708,1.561,10.727,8.91,19.833,9.389
	c-0.894-4.082-3.916-6.062-5.219-9.389c-4.706-12.008,4.398-18.662,8.873-22.43c1.837-1.547,8.857-4.57,13.57-2.608
	c4.111,1.712,5.822,6.704,9.395,8.868c0.942,17.083-10.329,20.022-19.833,10.954c0.349-2.782,0.696-5.564,1.044-8.346
	c2.263-0.348,4.524-0.696,6.785-1.043c0,0.869,0,1.739,0,2.608c-1.392,0.522-2.784,1.043-4.175,1.565
	c0.312,3.615,1.021,3.137,1.565,6.26c2.609,0,5.22,0,7.828,0c0.699-1.743,0.881-2.765,2.61-3.651
	c0.155-8.308-1.966-8.935-4.175-13.562c-6.834-0.468-8.792,0.757-14.614,1.565c-1.61,3.005-8.915,11.197-5.22,18.257
	c2.413,4.61,15.166,19.564,26.619,13.562c3.896-2.042,10.964-5.896,13.569-9.389c2.269-3.041,2.103-8.329,5.22-10.433
	c0.297-9.801,2.767-30.371-4.176-33.384c-0.253-4.898,1.105-8.763,5.22-9.389c0.028-11.954,1.568-21.314,1.565-31.819
	c0.87,0,1.74,0,2.61,0c-0.279,12.321-2.7,33.054,5.219,37.557c-1.047,1.822-1.507,1.915-1.565,5.216
	c-1.74,0.87-3.479,1.739-5.22,2.608c0,6.606,0,13.215,0,19.822c5.197-2.731,8.397-10.303,13.57-13.562
	c10.856-6.842,23.585,4.054,26.619,9.389c2.36,4.152,0.299,9.146,0,13.562c-3.235,1.133-4.219,3.494-6.785,5.216
	c-3.837,4.157-12.521,2.021-14.614-2.608c-4.025-2.022-2.272-7.937-1.565-11.997c5.764-2.372,7.804-2.409,13.569,0
	c0,1.217,0,2.434,0,3.651c-2.879-0.279-3.253-0.388-4.175-2.608c-3.794,0.028-4.454,0.681-6.785,1.565
	c-0.3,4.453-0.227,6.399,2.609,7.824c0.997,1.771,1.878,1.301,3.132,2.608c4.801,0.224,7.356-0.583,8.873-3.651
	c5.182-2.649,2.501-14.088-1.044-16.17c-12.52-14.593-37.968,9.443-28.185,25.038c4.132,6.586,21.28,21.382,34.97,13.562
	c6.536-3.734,14.541-10.324,22.443-11.997c0.348-2.26,0.695-4.521,1.044-6.781c2.096-0.5,3.262-0.796,4.175-2.608
	c3.379,0.336,5.388,2.82,7.829,2.608c1.29-4.706,22.085-9.503,25.053-14.605c1.843,0.947,0.636-0.304,1.566,1.565
	c0.33,0.808,0.951,0.615,0,1.043c-1.464,2.595-22.694,13.569-26.619,14.605c1.306,5.096-1.641,5.411-5.22,9.389
	c-2.738-0.176-4.234-0.611-5.219-2.608c-4.889,0.761-16.331,5.458-17.224,10.433c23-0.753,27.186,27.073,7.829,35.992
	c-5.327,2.455-18.828-8.175-14.614-16.17c2.572-4.88,10.684-9.078,14.614-2.608c1.796,0.922,2.123,2.071,2.609,4.173
	c-1.146,0.959-2.083,2.634-2.609,4.173c-1.293-0.799-3.695-7.069-4.175-8.346c-3.397,0.118-3.938,0.55-5.22,2.608
	c-1.426,1.454-1.231,5.354-1.044,8.346c1.218,0.869,2.437,1.739,3.653,2.608c6.317,5.989,13.621-3.585,16.18-5.216
	c-0.016-6.062-1.27-8.764-1.565-13.562c-2.422-1.371-3.229-3.826-5.22-5.216c-8.99-6.273-24.109,0.679-27.663,7.825
	c-10.609,6.642,4.441,30.023,5.22,33.384c3.096,0.489,22.793,12.458,24.009,14.605c1.217-0.869,2.436-1.739,3.653-2.608
	c5.867,0.719,5.66,4.063,9.395,6.26c-0.733,1.679-0.525,1.02-1.565,2.086c7.568,6.786,19.859,10.155,26.618,17.735
	c1.908,1.052,1.348,0.405,1.566,3.13c-4.167-0.747-25.171-13.241-26.619-16.17c-3.017-0.168-4.154-0.415-5.219,1.565
	c-2.881-0.159-4.975-0.201-6.785-1.565c-1.218-3.129-2.437-6.26-3.653-9.389c-3.898-3.998-10.947-4.576-14.613-8.868
	c-0.522,0-1.045,0-1.566,0c0.553,4.491,2.658,7.238,4.176,10.432c1.576,3.316-1,8.232-1.565,9.39
	c-6.315,12.912-7.959,14.527-24.01,13.041c-3.926-9.384-7.285-5.16-6.263-18.779c2.445-1.283,6.858-4.229,8.873-6.259
	c4.283,0.142,7.145,2.062,8.352,5.216c1.545,1.426,1.598,6.401,0,7.824c-0.675,1.693-0.777,1.249-1.566,2.608
	c-2.301-0.083-2.568,0.065-3.653-1.043c-0.521,0-1.044,0-1.565,0c1.277-2.218,2.974-1.745,4.175-4.173
	c1.523-1.783,0.442-2.362,0-5.216c-2.565-0.455-1.568,0.385-2.609-1.565c-6.239-0.008-12.882,8.145-8.351,14.605
	c4.695,6.694,17.226,4.184,21.398-1.043c9.417-11.793-8.431-34.472-21.398-29.211c-5.219,2.118-8.892,6.646-14.614,7.825
	c-0.015,0.105-7.829,17.213-7.829,17.213c-0.334,11.077-1.562,22.402,5.219,26.603c0,1.738,0,3.478,0,5.216
	c-1.724,1.062-2.907,2.033-3.653,4.173c-0.87,0-1.74,0-2.609,0c0,10.605,0,21.214,0,31.819c-1.392,0.348-2.784,0.696-4.175,1.043
	C-11.111,390.484-12.298,379.421-9.366,377.752z"/>
<path d="M21.95,290.642c1.392,0,2.784,0,4.176,0c-0.474-4.81-5.843-13.438-2.609-20.343c1.553-3.318,3.82-5.427,4.175-10.433
	c-10.424,0.764-20.938,10.373-29.229,14.605C2.895,281.956,18.612,282.18,21.95,290.642z M23.517,264.039
	c-1.305,7.156-2.018,13.909-1.566,22.43c-0.348,0-0.696,0-1.044,0c-1.983-3.679-12.459-9.816-17.224-10.432
	C5.634,271.359,18.248,265.399,23.517,264.039z"/>
<path d="M26.126,256.214c0-1.043,0-2.087,0-3.13C14.755,252.99,2.176,242.49,1.073,232.22c-0.87,0-1.74,0-2.61,0
	c-0.029,14.416-1.594,24.324-1.565,38.079C8.102,268.603,16.217,260.195,26.126,256.214z M1.595,240.043
	c3.753,6.462,10.611,13.303,19.312,14.605c-1.107,2.348-18.075,11.496-21.399,11.997c0.024-10.009,1.489-18.265,1.566-26.603
	C1.247,240.043,1.421,240.043,1.595,240.043z"/>
<path d="M-4.146,310.462c5.405-1.249,5.334-5.744,8.873-8.346c4.93-3.625,13.035-3.749,21.398-3.651
	c-0.653-4.325-24.053-19.122-29.229-19.822C-3.45,289.25-3.798,299.857-4.146,310.462z M-0.493,305.248c-0.174,0-0.348,0-0.521,0
	c-0.174-7.65-0.349-15.302-0.522-22.952c8.045,1.55,13.614,8.85,20.877,11.998C15.897,299.391,3.225,296.9-0.493,305.248z"/>
<path d="M-5.712,239c-0.87,0-1.74,0-2.61,0c-0.681,4.704-20.93,17.009-27.662,10.433c-0.87,0.348-1.74,0.696-2.609,1.043
	c0,0.521,0,1.043,0,1.564c10.305,4.698,20.07,17.555,32.882,18.257C-5.712,259.867-5.712,249.433-5.712,239z M-8.322,245.26
	c0,7.128,0,14.258,0,21.386c-9.164-1.784-13.694-10.238-22.442-11.997L-8.322,245.26z"/>
<path d="M-34.94,291.685c0,0.869,0,1.739,0,2.608c10.532,0.381,22.524,9.462,24.009,18.778c0.87,0,1.74,0,2.608,0
	c0.151-10.626,1.6-23.321,1.566-35.992C-16.149,281.948-25.547,286.816-34.94,291.685z M-10.931,306.291
	c-3.558-5.818-10.462-12.143-18.79-13.041c2.078-4.37,15.591-10.525,20.354-11.997c0,8.345,0,16.692,0,25.038
	C-9.887,306.291-10.41,306.291-10.931,306.291z"/>
<path d="M-33.375,258.823c-0.521,0-1.044,0-1.565,0c0.368,4.042,4.245,14.11,1.565,19.822c-1.551,3.306-4.49,6.23-5.219,10.433
	c11.568-1.216,17.396-11.946,29.228-13.041C-10.744,269.273-28.491,263.994-33.375,258.823z M-30.765,283.86c-0.87,0-1.74,0-2.61,0
	c1.614-5.659,2.771-11.308,2.61-19.822c5.663,2.5,10.501,6.393,15.658,9.389C-18.252,279.184-27.551,278.586-30.765,283.86z"/>
</svg>
